# https://github.com/mikedh/trimesh
v 29.16922515 -20.22914243 14.15522844
v 29.16636979 -20.22914243 16.49332613
v 28.88659364 -20.62669319 16.49332613
v 28.88659364 -20.62669319 14.15522844
v 1.36582589 -20.22914243 14.15522844
v 1.36582589 -20.22914243 16.49332613
v 28.48691529 -21.18416381 16.49332613
v 28.48691529 -21.18416381 14.15522844
v 0.00406152 -29.94525892 14.15522844
v 1.36297135 -20.22914243 14.47998881
v 0.00406152 -29.94675380 16.49332613
v 28.13576823 -21.64149848 16.49332613
v 28.13576823 -21.64149848 14.15522844
v 0.00406152 -29.94525892 14.20878202
v 0.00406152 -35.49604369 14.15522844
v 0.00406152 -35.49604369 16.49332613
v 27.91023409 -21.92994726 16.49332613
v 27.70468747 -22.19298956 14.15522844
v 0.46083888 -35.49604369 14.15522844
v 0.46083888 -35.49604369 16.49332613
v 27.67613715 -22.22736535 16.49332613
v 27.48771613 -22.45902163 16.49332613
v 27.30215212 -22.68470002 14.15522844
v 1.37724569 -35.47213209 14.15522844
v 1.37724569 -35.47213209 16.49332613
v 27.30215212 -22.68470002 16.49332613
v 26.84537476 -23.22572855 16.04131371
v 26.82253679 -23.25113666 14.15522844
v 2.24226585 -35.42580051 14.15522844
v 1.83116687 -35.44821722 16.49332613
v 26.84537476 -23.22572855 16.49332613
v 26.64268022 -23.45738483 16.49332613
v 26.44284105 -23.68306321 14.15522844
v 2.29365250 -35.42281074 14.15522844
v 2.29365250 -35.42281074 16.49332613
v 26.44284105 -23.68306321 16.49332613
v 25.98606532 -24.18075157 16.49332613
v 26.01175865 -24.15235532 14.15522844
v 3.21006013 -35.35256756 14.15522844
v 3.21006013 -35.35256756 15.12516260
v 3.21006013 -35.35107267 16.49332613
v 25.76909726 -24.41390273 16.49332613
v 25.96037200 -24.20765293 14.15522844
v 4.12646776 -35.25542301 14.15522844
v 4.12646776 -35.25542301 16.49332613
v 25.55498293 -24.63957948 14.15522844
v 25.55498293 -24.63957948 16.49332613
v 4.99148710 -35.14183474 14.15522844
v 5.04287457 -35.13436360 16.49332613
v 25.12390053 -25.07449580 14.15522844
v 25.32945042 -24.86675275 16.49332613
v 5.04287457 -35.13436360 14.15522844
v 5.49679657 -35.06411714 16.49332613
v 25.09535184 -25.10139880 16.49332613
v 24.96402821 -25.23441401 14.15522844
v 5.95928220 -34.99088419 14.15522844
v 5.95928220 -34.99088419 16.49332613
v 24.63286540 -25.56022835 16.49332613
v 24.63286540 -25.56172160 14.20878202
v 24.63286540 -25.56172160 14.15522844
v 6.65015651 -34.86832989 14.15522844
v 6.62446236 -34.87281454 16.49332613
v 24.40733289 -25.77245441 16.49332613
v 24.17608967 -25.99066002 14.20878202
v 24.17608967 -25.99066002 14.15522844
v 7.08409345 -34.78314114 15.12516260
v 7.08409345 -34.78314114 14.15522844
v 7.08123891 -34.78164626 16.49332613
v 24.17608967 -25.98916513 16.49332613
v 23.67649009 -26.44799468 16.49332613
v 23.67649009 -26.44799468 14.15522844
v 7.75498351 -34.63817013 14.15522844
v 7.79495200 -34.62920082 16.49332613
v 23.21685901 -26.85003010 16.49332613
v 23.24540770 -26.82611686 14.15522844
v 7.79495200 -34.62920082 14.15522844
v 8.70850427 -34.41099686 16.49332613
v 22.67443722 -27.30736477 16.49332613
v 22.67443722 -27.30736477 14.15522844
v 8.70850427 -34.41099686 14.15522844
v 9.57352361 -34.18083382 14.15522844
v 9.62776644 -34.16588825 16.49332613
v 22.21766150 -27.68100393 16.49332613
v 22.18625909 -27.70790530 14.15522844
v 9.62776644 -34.16588825 14.15522844
v 10.24726903 -33.98803634 14.15522844
v 10.28152680 -33.97608054 16.49332613
v 21.63527286 -28.13834024 16.49332613
v 21.63527286 -28.13834024 14.15522844
v 10.51847992 -33.90434248 16.49332613
v 10.31007549 -33.96860612 14.15522844
v 21.21275326 -28.46265805 16.49332613
v 21.21275326 -28.46265805 14.15637255
v 21.20133346 -28.47012920 14.15522844
v 10.73830334 -33.83409602 14.15522844
v 10.73830334 -33.83409602 16.49332613
v 20.61894482 -28.88860834 16.49332613
v 20.58754077 -28.91251994 14.15522844
v 11.41490331 -33.61140740 14.15522844
v 11.09230494 -33.71752125 16.49332613
v 20.34487939 -29.08439231 16.49332613
v 20.07652303 -29.27420330 14.15522844
v 11.45772634 -33.59646184 14.15522844
v 11.45772634 -33.59646184 16.49332613
v 20.07366767 -29.27420330 16.49332613
v 20.07652303 -29.27420330 14.20878202
v 19.61689195 -29.58058578 14.15522844
v 12.32274568 -33.29007936 14.15522844
v 11.90879216 -33.43654526 16.49332613
v 19.61689195 -29.58058578 16.49332613
v 18.90888875 -30.03941697 14.15522844
v 12.95937797 -33.04945541 14.15522844
v 12.95937797 -33.04945541 16.49332613
v 12.37413315 -33.27064914 16.49332613
v 18.90888875 -30.03941697 16.49332613
v 18.44925767 -30.32487762 14.15522844
v 13.41615452 -32.86562395 14.15522844
v 13.19347573 -32.95529735 16.49332613
v 18.44925767 -30.32487762 16.49332613
v 17.83260962 -30.68954748 14.15522844
v 13.41615452 -32.86562395 16.04108751
v 14.20409387 -32.53084195 14.15522844
v 13.41615452 -32.86412907 16.49332613
v 17.86972275 -30.66563589 16.49332613
v 17.52999550 -30.86142314 16.49332613
v 17.19883269 -31.04973597 16.49332613
v 17.19883269 -31.04973597 14.15522844
v 14.20409387 -32.53084195 16.49332613
v 14.95206391 -32.19307346 14.15522844
v 14.56095001 -32.37092537 16.49332613
v 16.97329855 -31.17378515 16.49332613
v 16.74205696 -31.29932922 14.15522844
v 15.38314631 -31.98981506 14.15522844
v 15.38314631 -31.98981506 16.49332613
v 14.92351523 -32.20502925 16.49332613
v 16.74205696 -31.29932922 16.49332613
v 16.03690749 -31.66549397 14.15522844
v 16.03690749 -31.66549397 16.49332613
f 1 2 3
f 1 3 4
f 1 4 8
f 1 8 13
f 1 13 18
f 1 18 23
f 1 23 28
f 1 28 33
f 1 33 38
f 1 38 43
f 1 43 46
f 1 46 50
f 1 50 55
f 1 55 60
f 1 60 65
f 1 65 71
f 1 71 75
f 1 75 79
f 1 79 84
f 1 84 89
f 1 89 94
f 1 94 98
f 1 98 102
f 1 102 107
f 1 107 111
f 1 111 116
f 1 116 120
f 1 120 127
f 1 127 132
f 1 132 137
f 1 137 133
f 1 133 129
f 1 129 122
f 1 122 117
f 1 117 112
f 1 112 108
f 1 108 103
f 1 103 99
f 1 99 95
f 1 95 91
f 1 91 86
f 1 86 85
f 1 85 81
f 1 81 80
f 1 80 76
f 1 76 72
f 1 72 67
f 1 67 61
f 1 61 56
f 1 56 52
f 1 52 48
f 1 48 44
f 1 44 39
f 1 39 34
f 1 34 29
f 1 29 24
f 1 24 19
f 1 19 15
f 1 15 9
f 1 9 5
f 1 5 10
f 1 10 6
f 1 6 2
f 2 6 11
f 2 11 16
f 2 16 20
f 2 20 25
f 2 25 30
f 2 30 35
f 2 35 41
f 2 41 45
f 2 45 49
f 2 49 53
f 2 53 57
f 2 57 62
f 2 62 68
f 2 68 73
f 2 73 77
f 2 77 82
f 2 82 87
f 2 87 90
f 2 90 96
f 2 96 100
f 2 100 104
f 2 104 109
f 2 109 114
f 2 114 113
f 2 113 118
f 2 118 123
f 2 123 128
f 2 128 130
f 2 130 135
f 2 135 134
f 2 134 138
f 2 138 136
f 2 136 131
f 2 131 126
f 2 126 125
f 2 125 124
f 2 124 119
f 2 119 115
f 2 115 110
f 2 110 105
f 2 105 101
f 2 101 97
f 2 97 92
f 2 92 88
f 2 88 83
f 2 83 78
f 2 78 74
f 2 74 70
f 2 70 69
f 2 69 63
f 2 63 58
f 2 58 54
f 2 54 51
f 2 51 47
f 2 47 42
f 2 42 37
f 2 37 36
f 2 36 32
f 2 32 31
f 2 31 26
f 2 26 22
f 2 22 21
f 2 21 17
f 2 17 12
f 2 12 7
f 2 7 3
f 3 7 8
f 3 8 4
f 5 9 10
f 6 10 11
f 7 12 13
f 7 13 8
f 9 14 10
f 9 15 16
f 9 16 11
f 9 11 14
f 10 14 11
f 12 17 18
f 12 18 13
f 15 19 20
f 15 20 16
f 17 21 18
f 18 21 22
f 18 22 23
f 19 24 25
f 19 25 20
f 22 26 23
f 23 26 31
f 23 31 27
f 23 27 28
f 24 29 30
f 24 30 25
f 27 31 32
f 27 32 28
f 28 32 33
f 29 34 35
f 29 35 30
f 32 36 33
f 33 36 37
f 33 37 38
f 34 39 40
f 34 40 35
f 35 40 41
f 37 42 43
f 37 43 38
f 39 44 45
f 39 45 40
f 40 45 41
f 42 46 43
f 42 47 46
f 44 48 45
f 45 48 49
f 46 47 50
f 47 51 50
f 48 52 49
f 49 52 53
f 50 51 54
f 50 54 55
f 52 56 53
f 53 56 57
f 54 58 55
f 55 58 59
f 55 59 60
f 56 61 57
f 57 61 62
f 58 63 59
f 59 63 64
f 59 64 65
f 59 65 60
f 61 66 62
f 61 67 66
f 62 66 68
f 63 69 64
f 64 69 70
f 64 70 71
f 64 71 65
f 66 72 73
f 66 73 68
f 66 67 72
f 70 74 75
f 70 75 71
f 72 76 73
f 73 76 80
f 73 80 77
f 74 78 75
f 75 78 79
f 77 81 82
f 77 80 81
f 78 83 84
f 78 84 79
f 81 85 82
f 82 85 86
f 82 86 87
f 83 88 84
f 84 88 89
f 86 90 87
f 86 91 90
f 88 92 93
f 88 93 89
f 89 93 94
f 90 91 95
f 90 95 96
f 92 97 98
f 92 98 93
f 93 98 94
f 95 99 96
f 96 99 100
f 97 101 98
f 98 101 102
f 99 103 104
f 99 104 100
f 101 105 106
f 101 106 102
f 102 106 110
f 102 110 107
f 103 108 104
f 104 108 109
f 105 110 106
f 107 110 115
f 107 115 111
f 108 112 113
f 108 113 114
f 108 114 109
f 111 115 119
f 111 119 116
f 112 117 118
f 112 118 113
f 116 119 120
f 117 121 118
f 117 122 128
f 117 128 121
f 118 121 123
f 119 124 120
f 120 125 126
f 120 126 127
f 120 124 125
f 121 128 123
f 122 129 130
f 122 130 128
f 126 131 127
f 127 131 132
f 129 133 134
f 129 134 135
f 129 135 130
f 131 136 132
f 132 136 138
f 132 138 137
f 133 137 138
f 133 138 134

