# https://github.com/mikedh/trimesh
v 21.87901771 -27.94962746 10.52982867
v 21.87901771 -27.93868465 9.78598595
v 22.22552603 -27.67056924 9.78598595
v 22.22552603 -27.67056924 10.52982867
v 21.87901771 -2.36929928 10.52982867
v 24.68973001 -10.08443584 7.85529673
v 34.03211391 -10.08443584 7.85529673
v 30.22052890 -18.60391614 8.82640123
v 21.87901771 -0.08211687 9.78598595
v 22.68131664 -27.29849217 9.78598595
v 22.68131664 -27.29849217 10.52982867
v 21.88035032 27.94407415 10.52982867
v 21.87901771 -0.08211687 10.32717675
v 24.68973001 -2.75779202 7.85529673
v 34.16671908 -9.61933908 7.85529673
v 34.03344816 -10.08443584 8.43105018
v 33.97347575 -10.28141801 8.82640123
v 33.83220589 -10.73557113 8.82640123
v 33.59631574 -11.45236825 8.82640123
v 33.26713299 -12.37161813 8.82640123
v 33.04589992 -12.94614961 8.82640123
v 32.86065226 -13.40577495 8.82640123
v 32.52613908 -14.19370366 8.82640123
v 32.48615747 -14.28672251 8.82640123
v 32.20228678 -14.91597218 8.82640123
v 31.98505318 -15.37559671 8.82640123
v 31.66120088 -16.03220505 8.82640123
v 31.29337078 -16.73805771 8.82640123
v 31.04681646 -17.19768224 8.82640123
v 30.66432601 -17.86523340 8.82640123
v 30.32048291 -18.44523710 8.82640123
v 30.03661221 -18.90486163 9.78598595
v 29.57948899 -19.61618570 9.78598595
v 29.27429652 -20.07034046 9.78598595
v 28.89047181 -20.61204103 9.78598595
v 28.49465197 -21.17015747 9.78598595
v 28.20278561 -21.54770595 9.78598595
v 28.05885052 -21.73374531 9.78598595
v 27.68435573 -22.21525711 9.78598595
v 27.30719572 -22.68035469 9.78598595
v 26.84873989 -23.21658385 9.78598595
v 26.51955714 -23.59413234 9.78598595
v 25.98913377 -24.16866464 9.78598595
v 25.55999702 -24.62828917 9.78598595
v 25.10287380 -25.09338674 9.78598595
v 24.71904909 -25.47093523 9.78598595
v 24.18063005 -25.97980571 9.78598595
v 23.68085837 -26.43943188 9.78598595
v 23.59956255 -26.51056347 9.78598595
v 23.22373515 -26.83886764 9.78598595
v 21.88035032 27.94954556 10.15751392
v 21.88035032 27.94407415 9.78624821
v 23.21707046 -26.84433905 10.52982867
v 22.22419342 27.67595875 10.52982867
v 21.88035032 27.94954556 10.16301155
v 27.70701176 -0.03834305 7.85529673
v 34.16671908 -9.61933908 9.78598595
v 34.14272880 -9.70688653 8.82614225
v 34.39594781 -8.77122079 7.85529673
v 34.03344816 -10.08443584 8.82614225
v 33.97347575 -10.28688942 10.52982867
v 33.79089331 -10.86689313 9.78572369
v 33.59631574 -11.45783966 9.78598595
v 33.27246344 -12.36067449 10.52982867
v 32.86065226 -13.41124636 9.78572369
v 33.04856515 -12.94067820 10.52982867
v 32.52613908 -14.19370366 10.52982867
v 32.20228678 -14.92144359 9.78598595
v 31.98505318 -15.37559671 10.52982867
v 31.29337078 -16.73805771 10.52982867
v 31.66520035 -16.02126059 10.52982867
v 30.97884839 -17.31805978 9.78598595
v 31.04681646 -17.19768224 10.52982867
v 30.66299176 -17.86523340 10.52982867
v 30.60301935 -17.96919671 9.78598595
v 30.32048291 -18.44523710 10.52982867
v 30.03661221 -18.90486163 10.52982867
v 29.57415855 -19.61618570 10.52982867
v 29.27429652 -20.07034046 10.52982867
v 28.89047181 -20.61204103 10.52982867
v 28.49465197 -21.17015747 10.52982867
v 28.14281320 -21.62978199 10.52982867
v 27.68835520 -22.20978570 10.52982867
v 27.30719572 -22.68035469 10.52982867
v 26.84873989 -23.21658385 10.52982867
v 26.45025646 -23.67073697 10.52982867
v 25.98913377 -24.16866464 10.52982867
v 25.55999702 -24.62828917 10.52982867
v 25.10287380 -25.09338674 10.52982867
v 24.63775327 -25.54753986 10.52982867
v 24.18063005 -25.97980571 10.52982867
v 23.68085837 -26.43943188 10.52982867
v 22.22419342 27.67595875 9.78624821
v 35.49277669 -0.03834305 7.85529673
v 22.67731881 27.30935472 10.52982867
v 22.30548924 27.61029857 9.78624821
v 34.41327339 -8.70556061 8.82614225
v 34.16805333 -9.60839545 10.52982867
v 34.41327339 -8.70556061 7.85529673
v 33.83220589 -10.73557113 10.52982867
v 33.79089331 -10.86689313 9.78598595
v 33.59631574 -11.45783966 10.52982867
v 32.86065226 -13.41124636 10.52982867
v 32.19962155 -14.92144359 10.52982867
v 35.49277669 -0.45419438 7.85529673
v 22.68131664 27.30388167 9.78624821
v 23.22240254 26.84425714 9.78624821
v 23.67952576 26.44482138 9.78624821
v 24.17796319 25.98519522 9.78624821
v 24.63642066 25.55292937 9.78624821
v 25.01891112 25.17538088 9.78624821
v 25.18283701 25.01122880 9.78624821
v 25.55733180 24.63367867 9.78624821
v 25.91316840 24.25613019 9.78624821
v 25.98913377 24.17405414 9.78624821
v 26.44625699 23.67612648 9.78624821
v 26.77677235 23.29857799 9.78624821
v 26.93003571 23.12348145 9.78624821
v 27.30586311 22.67479974 9.78624821
v 27.61638766 22.30272266 9.78624821
v 27.68169051 22.22064662 9.78624821
v 27.76431894 22.11668330 9.78624821
v 28.14014798 21.63517150 9.78624821
v 28.49065250 21.18101838 9.78624821
v 28.56262004 21.08252811 9.78624821
v 28.95843988 20.52441167 9.78624821
v 29.27429652 20.07572996 9.78624821
v 29.57948899 19.62157684 9.78624821
v 30.03794646 18.91025114 9.78624821
v 30.32314813 18.45062661 9.78624821
v 30.66432601 17.87062290 9.78624821
v 31.04681646 17.19760033 9.78624821
v 31.25338918 16.82552325 9.78624821
v 31.66253513 16.03759455 9.78624821
v 31.98505318 15.38098621 9.78624821
v 32.16497039 15.00343772 9.78624821
v 32.20228678 14.92136168 9.78624821
v 32.52613908 14.20456457 9.78624821
v 32.86065226 13.41663669 9.78624821
v 33.04589992 12.95701134 9.78624821
v 33.26713299 12.37700763 9.78624821
v 33.59631574 11.45775775 9.78624821
v 33.83220589 10.74096146 9.78624821
v 33.97347575 10.28133611 9.78624821
v 34.16671908 9.62472859 9.78624821
v 34.41060817 8.71095012 9.78624821
v 34.63050699 7.79170024 9.78624821
v 34.78243774 7.09131899 9.78624821
v 34.87439608 6.63169364 9.78624821
v 34.99434089 5.95867107 9.78624821
v 35.13694173 5.04489220 9.78624821
v 35.25688654 4.12564191 9.78624821
v 35.27421212 3.96149023 9.78624821
v 35.35151010 3.21186344 9.78624821
v 35.42081242 2.29261315 9.78624821
v 35.46878969 1.37883458 9.78624821
v 35.49144572 0.45958419 9.78624821
v 35.49411094 0.45958419 10.52982867
v 23.22240254 26.84425714 10.52982867
v 34.61584663 -7.85197091 7.85529673
v 34.60252052 -7.90668828 8.82614225
v 34.62784177 -7.78630992 10.52982867
v 34.41060817 -8.70008839 10.52982867
v 35.49277669 -0.45419438 8.82614225
v 35.49144572 -0.51985512 7.85529673
v 23.67552793 26.45029279 10.52982867
v 24.17796319 25.98519522 10.52982867
v 24.63242283 25.55840078 10.52982867
v 25.10020858 25.09330484 10.52982867
v 25.55333396 24.63915008 10.52982867
v 25.98913377 24.17405414 10.52982867
v 26.44092655 23.68706929 10.52982867
v 26.84740728 23.21650195 10.52982867
v 27.30053267 22.68574419 10.52982867
v 27.68169051 22.22064662 10.52982867
v 28.14547842 21.62970009 10.52982867
v 28.49065250 21.18101838 10.52982867
v 28.88514137 20.62837335 10.52982867
v 29.27429652 20.07572996 10.52982867
v 29.57948899 19.62157684 10.52982867
v 30.03128177 18.92119559 10.52982867
v 30.32314813 18.45062661 10.52982867
v 30.66166079 17.87609431 10.52982867
v 31.04415124 17.20854315 10.52982867
v 31.29603600 16.73797580 10.52982867
v 31.66253513 16.03759455 10.52982867
v 31.99038362 15.37551480 10.52982867
v 32.20228678 14.92136168 10.52982867
v 32.86331749 13.41116446 10.52982867
v 32.52613908 14.20456457 10.52982867
v 33.26579874 12.38247986 10.52982867
v 33.04589992 12.95701134 10.52982867
v 33.83087492 10.74643287 10.52982867
v 33.59631574 11.45775775 10.52982867
v 33.97347575 10.28133611 10.52982867
v 34.16671908 9.62472859 10.52982867
v 34.41060817 8.71095012 10.52982867
v 34.63050699 7.79170024 10.52982867
v 34.87439608 6.63716505 10.52982867
v 34.78243774 7.09131899 10.52982867
v 34.99167567 5.96414248 10.52982867
v 35.13694173 5.04489220 10.52982867
v 35.25688654 4.12564191 10.52982867
v 35.35151010 3.21186344 10.52982867
v 35.46878969 1.38430630 10.52982867
v 35.42081242 2.29261315 10.52982867
v 35.49144572 -0.45419438 10.52982867
v 34.63050699 -7.78630992 7.85529673
v 34.63050699 -7.78630992 8.82614225
v 34.77977252 -7.08592867 10.52982867
v 35.49011147 -0.57457238 8.82614225
v 35.47012066 -1.37344467 7.85529673
v 35.46878969 -1.36797295 10.52982867
v 34.78110349 -7.08592867 7.85529673
v 34.76244694 -7.17347612 8.82614225
v 34.78110349 -7.08592867 8.82614225
v 34.87306183 -6.62630373 8.82614225
v 34.87172758 -6.61536009 10.52982867
v 35.47012066 -1.37344467 8.82614225
v 35.42081242 -2.28722324 7.85529673
v 35.42081242 -2.27627981 10.52982867
v 34.87306183 -6.62630373 7.85529673
v 34.97834628 -6.04082861 8.82614225
v 34.99434089 -5.94233752 10.52982867
v 35.42081242 -2.28722324 8.82614225
v 35.35017585 -3.20647353 7.85529673
v 35.34884488 -3.19005848 10.52982867
v 35.34884488 -3.20647353 9.78572369
v 35.35017585 -3.20647353 8.82614225
v 34.99300664 -5.95328116 7.85529673
v 34.99300664 -5.95328116 8.82614225
v 35.11828190 -5.15440882 8.82614225
v 35.13427651 -5.03403087 10.52982867
v 35.25688654 -4.12572381 7.85529673
v 35.25422132 -4.12025240 10.52982867
v 35.25688654 -4.12572381 8.82614225
v 35.13560748 -5.03950269 7.85529673
v 35.13560748 -5.03950269 8.82614225
f 1 2 3
f 1 3 4
f 1 4 11
f 1 11 53
f 1 53 92
f 1 92 91
f 1 91 90
f 1 90 89
f 1 89 88
f 1 88 87
f 1 87 86
f 1 86 85
f 1 85 84
f 1 84 83
f 1 83 82
f 1 82 81
f 1 81 80
f 1 80 79
f 1 79 78
f 1 78 77
f 1 77 76
f 1 76 74
f 1 74 73
f 1 73 70
f 1 70 71
f 1 71 69
f 1 69 104
f 1 104 67
f 1 67 103
f 1 103 66
f 1 66 64
f 1 64 102
f 1 102 100
f 1 100 61
f 1 61 98
f 1 98 163
f 1 163 162
f 1 162 210
f 1 210 218
f 1 218 224
f 1 224 233
f 1 233 235
f 1 235 227
f 1 227 221
f 1 221 213
f 1 213 207
f 1 207 158
f 1 158 205
f 1 205 206
f 1 206 204
f 1 204 203
f 1 203 202
f 1 202 201
f 1 201 199
f 1 199 200
f 1 200 198
f 1 198 197
f 1 197 196
f 1 196 195
f 1 195 193
f 1 193 194
f 1 194 191
f 1 191 192
f 1 192 189
f 1 189 190
f 1 190 188
f 1 188 187
f 1 187 186
f 1 186 185
f 1 185 184
f 1 184 183
f 1 183 182
f 1 182 181
f 1 181 180
f 1 180 179
f 1 179 178
f 1 178 177
f 1 177 176
f 1 176 175
f 1 175 174
f 1 174 173
f 1 173 172
f 1 172 171
f 1 171 170
f 1 170 169
f 1 169 168
f 1 168 167
f 1 167 166
f 1 166 159
f 1 159 95
f 1 95 54
f 1 54 12
f 1 12 5
f 1 5 13
f 1 13 9
f 1 9 2
f 2 6 7
f 2 7 8
f 2 8 3
f 2 9 14
f 2 14 6
f 3 8 10
f 3 10 11
f 3 11 4
f 5 12 13
f 6 14 56
f 6 56 94
f 6 94 105
f 6 105 165
f 6 165 212
f 6 212 220
f 6 220 226
f 6 226 234
f 6 234 237
f 6 237 230
f 6 230 222
f 6 222 214
f 6 214 208
f 6 208 160
f 6 160 99
f 6 99 59
f 6 59 15
f 6 15 7
f 7 15 16
f 7 16 17
f 7 17 18
f 7 18 19
f 7 19 20
f 7 20 21
f 7 21 22
f 7 22 23
f 7 23 24
f 7 24 25
f 7 25 26
f 7 26 27
f 7 27 28
f 7 28 29
f 7 29 30
f 7 30 31
f 7 31 8
f 8 31 32
f 8 32 33
f 8 33 34
f 8 34 35
f 8 35 36
f 8 36 37
f 8 37 38
f 8 38 39
f 8 39 40
f 8 40 41
f 8 41 42
f 8 42 43
f 8 43 44
f 8 44 45
f 8 45 46
f 8 46 47
f 8 47 48
f 8 48 49
f 8 49 50
f 8 50 10
f 9 13 55
f 9 55 51
f 9 51 52
f 9 52 14
f 10 50 11
f 11 50 53
f 12 54 55
f 12 55 13
f 14 52 56
f 15 57 58
f 15 58 16
f 15 59 57
f 16 60 61
f 16 61 17
f 16 58 60
f 17 61 18
f 18 61 62
f 18 62 19
f 19 62 63
f 19 63 20
f 20 63 64
f 20 64 21
f 21 65 22
f 21 64 66
f 21 66 65
f 22 65 23
f 23 65 103
f 23 103 67
f 23 67 24
f 24 67 68
f 24 68 25
f 25 68 26
f 26 69 27
f 26 68 69
f 27 70 28
f 27 69 71
f 27 71 70
f 28 70 73
f 28 73 29
f 29 72 30
f 29 73 72
f 30 72 74
f 30 74 75
f 30 75 31
f 31 75 76
f 31 76 77
f 31 77 32
f 32 77 33
f 33 77 78
f 33 78 79
f 33 79 34
f 34 79 80
f 34 80 35
f 35 80 81
f 35 81 36
f 36 81 82
f 36 82 37
f 37 82 38
f 38 82 39
f 39 82 83
f 39 83 84
f 39 84 40
f 40 84 85
f 40 85 41
f 41 85 42
f 42 85 86
f 42 86 43
f 43 87 88
f 43 88 44
f 43 86 87
f 44 88 89
f 44 89 45
f 45 89 46
f 46 89 90
f 46 90 91
f 46 91 47
f 47 91 92
f 47 92 48
f 48 92 49
f 49 92 50
f 50 92 53
f 51 93 52
f 51 55 54
f 51 54 93
f 52 93 94
f 52 94 56
f 54 95 96
f 54 96 93
f 57 59 97
f 57 97 98
f 57 98 61
f 57 61 58
f 58 61 60
f 59 99 97
f 61 100 101
f 61 101 62
f 62 101 102
f 62 102 63
f 63 102 64
f 65 66 103
f 67 104 68
f 68 104 69
f 72 73 74
f 74 76 75
f 93 96 94
f 94 96 106
f 94 106 107
f 94 107 108
f 94 108 109
f 94 109 110
f 94 110 111
f 94 111 112
f 94 112 113
f 94 113 114
f 94 114 115
f 94 115 116
f 94 116 117
f 94 117 118
f 94 118 119
f 94 119 120
f 94 120 121
f 94 121 122
f 94 122 123
f 94 123 124
f 94 124 125
f 94 125 126
f 94 126 127
f 94 127 128
f 94 128 129
f 94 129 130
f 94 130 131
f 94 131 132
f 94 132 133
f 94 133 134
f 94 134 135
f 94 135 136
f 94 136 137
f 94 137 138
f 94 138 139
f 94 139 140
f 94 140 141
f 94 141 142
f 94 142 143
f 94 143 144
f 94 144 145
f 94 145 146
f 94 146 147
f 94 147 148
f 94 148 149
f 94 149 150
f 94 150 151
f 94 151 152
f 94 152 153
f 94 153 154
f 94 154 155
f 94 155 156
f 94 156 157
f 94 157 158
f 94 158 105
f 95 107 106
f 95 106 96
f 95 159 107
f 97 160 161
f 97 161 162
f 97 162 163
f 97 163 98
f 97 99 160
f 100 102 101
f 105 164 165
f 105 158 164
f 107 159 166
f 107 166 108
f 108 166 109
f 109 167 168
f 109 168 110
f 109 166 167
f 110 168 111
f 111 169 112
f 111 168 169
f 112 169 170
f 112 170 113
f 113 170 114
f 114 171 172
f 114 172 115
f 114 170 171
f 115 172 116
f 116 172 117
f 117 172 118
f 118 172 173
f 118 173 174
f 118 174 119
f 119 174 120
f 120 174 175
f 120 175 121
f 121 175 122
f 122 176 123
f 122 175 176
f 123 176 124
f 124 176 177
f 124 177 125
f 125 178 126
f 125 177 178
f 126 178 179
f 126 179 127
f 127 179 180
f 127 180 128
f 128 180 181
f 128 181 129
f 129 181 130
f 130 182 183
f 130 183 131
f 130 181 182
f 131 183 184
f 131 184 132
f 132 184 133
f 133 184 185
f 133 185 186
f 133 186 134
f 134 186 187
f 134 187 135
f 135 187 136
f 136 188 137
f 136 187 188
f 137 188 190
f 137 190 138
f 138 189 139
f 138 190 189
f 139 189 140
f 140 191 141
f 140 189 192
f 140 192 191
f 141 191 142
f 142 193 143
f 142 191 194
f 142 194 193
f 143 193 144
f 144 193 195
f 144 195 196
f 144 196 145
f 145 196 197
f 145 197 146
f 146 197 198
f 146 198 147
f 147 198 200
f 147 200 148
f 148 199 149
f 148 200 199
f 149 199 150
f 150 199 201
f 150 201 202
f 150 202 151
f 151 202 203
f 151 203 152
f 152 203 153
f 153 204 154
f 153 203 204
f 154 204 206
f 154 206 155
f 155 205 156
f 155 206 205
f 156 205 158
f 156 158 157
f 158 207 164
f 160 208 209
f 160 209 161
f 161 209 162
f 162 209 210
f 164 207 211
f 164 211 165
f 165 211 212
f 207 213 211
f 208 214 215
f 208 215 209
f 209 215 210
f 210 215 216
f 210 216 217
f 210 217 218
f 211 213 219
f 211 219 212
f 212 219 225
f 212 225 220
f 213 221 219
f 214 216 215
f 214 222 217
f 214 217 216
f 217 222 223
f 217 223 224
f 217 224 218
f 219 221 225
f 220 225 229
f 220 229 226
f 221 227 228
f 221 228 229
f 221 229 225
f 222 230 223
f 223 230 231
f 223 231 224
f 224 231 232
f 224 232 233
f 226 229 236
f 226 236 234
f 227 235 228
f 228 235 236
f 228 236 229
f 230 237 232
f 230 232 231
f 232 237 238
f 232 238 233
f 233 238 236
f 233 236 235
f 234 236 238
f 234 238 237

