# https://github.com/mikedh/trimesh
v 34.03100586 -10.08469728 8.82609636
v 33.97066956 -10.28867443 8.82609636
v 34.03100586 -10.08469728 7.85609990
v 0.01788264 -10.08469728 8.82609636
v 4.81800018 -26.22375381 14.15522516
v 20.23066824 -25.20138231 12.98666477
v 25.20509144 -24.98994303 11.81132168
v 30.21973884 -18.61441803 9.78684485
v 33.97066956 -10.28867443 7.85609990
v 33.82988488 -10.74389135 8.82609636
v 33.83993929 -10.71404119 7.85609990
v 0.01788264 -10.08469728 7.85609990
v -0.21340812 -18.61441803 9.78684485
v -0.03910163 -29.94509173 14.15522516
v 4.81800018 -35.16391707 14.15522516
v 20.23066824 -29.16400803 12.98666477
v 25.52353626 -24.66905263 7.85609990
v 25.62744712 -24.55711332 9.78684485
v 25.98276412 -24.17652262 9.78684485
v 26.36154359 -23.76856831 9.78684485
v 26.44199362 -23.67901785 9.78684485
v 26.84423720 -23.22131274 9.78684485
v 27.21966630 -22.77853352 9.78684485
v 27.36715501 -22.60191915 9.78684485
v 27.67554378 -22.22630319 9.78684485
v 28.19510793 -21.56213355 9.78684485
v 28.48003095 -21.18403104 9.78684485
v 28.88227617 -20.62682432 9.78684485
v 29.26775968 -20.08454514 9.78684485
v 29.57279479 -19.62435347 9.78684485
v 30.03202593 -18.91540778 9.78684485
v 24.63189339 -25.55958581 11.81132168
v 25.09447491 -25.10188070 7.85609990
v 30.21973884 -18.61441803 8.82609636
v 30.31694895 -18.45521611 8.82609636
v 30.61528003 -17.95025003 8.82609636
v 30.99741315 -17.29354334 8.82609636
v 31.29239058 -16.75126252 8.82609636
v 31.65441161 -16.04480502 8.82609636
v 31.94268500 -15.47267568 8.82609636
v 31.98290920 -15.39058653 8.82609636
v 32.19744151 -14.93288142 8.82609636
v 32.52593910 -14.21150130 8.82609636
v 32.85779363 -13.42295547 8.82609636
v 33.03880250 -12.96276299 8.82609636
v 33.23657310 -12.45282051 8.82609636
v 33.59189009 -11.46029835 8.82609636
v 33.79971510 -10.83841738 8.82609636
v 30.06889975 -18.85819567 8.82609636
v 33.59189009 -11.46029835 7.85609990
v -0.02569357 -27.70631862 7.85609990
v -0.21340812 -18.61441803 8.82609636
v -0.21340812 -22.25117860 9.78684485
v -0.03910163 -35.49475533 14.15522516
v 4.12747992 -35.25346917 14.15522516
v 4.12747992 -35.25595409 12.98666477
v 5.04593810 -35.13406527 12.98666477
v 5.65936117 -35.03954006 12.98666477
v 5.96104426 -34.98978925 12.98666477
v 6.40686570 -34.91267485 12.98666477
v 6.62810041 -34.87038863 12.98666477
v 7.08397707 -34.78083653 12.98666477
v 7.79796144 -34.62909919 12.98666477
v 8.40803167 -34.48233498 12.98666477
v 8.70971559 -34.40770877 12.98666477
v 9.63152578 -34.16641933 12.98666477
v 10.28182102 -33.97488070 12.98666477
v 10.74104970 -33.83309287 12.98666477
v 11.45838609 -33.59677655 12.98666477
v 12.37349225 -33.26842320 12.98666477
v 12.95674717 -33.04703278 12.98666477
v 13.41597585 -32.86295873 12.98666477
v 14.20370376 -32.52962900 12.98666477
v 14.92774418 -32.20376385 12.98666477
v 15.38697368 -31.98734981 12.98666477
v 16.03726974 -31.66396958 12.98666477
v 16.74454844 -31.29830313 12.98666477
v 17.20042592 -31.04706419 12.98666477
v 17.86748206 -30.66398365 12.98666477
v 18.44738415 -30.32319588 12.98666477
v 18.60157853 -30.22866738 12.98666477
v 18.90661364 -30.03712875 12.98666477
v 19.61724436 -29.58191347 12.98666477
v 20.07312184 -29.27345914 12.98666477
v 20.07312184 -29.27594734 11.81132168
v 20.65637594 -28.86301828 7.85609990
v 20.61615175 -28.89038188 11.81132168
v 21.17258972 -28.48989052 11.81132168
v 21.72902768 -28.06203556 11.81132168
v 22.21507495 -27.67895502 11.81132168
v 22.49999797 -27.45010329 11.81132168
v 22.67430281 -27.30582726 11.81132168
v 22.88548147 -27.12921289 11.81132168
v 23.21398070 -26.84812379 11.81132168
v 23.67321020 -26.44763244 11.81132168
v 24.17266389 -25.98992733 11.81132168
v 25.98276412 -24.17652262 7.85609990
v 26.44199362 -23.67901785 7.85609990
v 26.84423720 -23.22131274 8.82609636
v 27.24313041 -22.75365812 8.82609636
v 27.67554378 -22.22630319 8.82609636
v 28.17834949 -21.58452240 8.82609636
v 28.48673498 -21.18154285 8.82609636
v 28.85881042 -20.66413743 7.85609990
v 29.29122543 -20.05220679 7.85609990
v 30.00185614 -18.96515859 7.85609990
v 29.57279479 -19.62435347 7.85609990
v 24.63189339 -25.55958581 7.85609990
v 30.31694895 -18.45521611 7.85609990
v 30.63539213 -17.91542349 7.85609990
v 31.01752197 -17.25374204 7.85609990
v 31.29239058 -16.75126252 7.85609990
v 31.63094914 -16.09206927 7.85609990
v 31.99967092 -15.35824818 7.85609990
v 32.19744151 -14.93288142 7.85609990
v 32.52593910 -14.21150130 7.85609990
v 32.85779363 -13.42295547 8.70831519
v 32.87120169 -13.39061712 7.85609990
v 33.03880250 -12.96276299 7.85609990
v 33.26338923 -12.37819513 7.85609990
v -0.02569357 -35.49227041 7.85609990
v -0.21340812 -22.30092940 8.82609636
v -0.21340812 -22.29346645 9.62527931
v 0.46035206 -35.49475533 14.15522516
v -0.03910163 -35.49475533 12.98728108
v 3.21237376 -35.35047931 14.15522516
v 4.12747992 -35.25595409 12.37494230
v 3.41014436 -35.33058030 12.57535517
v 5.04593810 -35.13406527 7.85609990
v 5.96439710 -34.99227745 10.53114653
v 5.96104426 -34.99227745 11.45736188
v 5.96439710 -34.99227745 9.78746116
v 6.63815646 -34.87038863 10.53114653
v 7.00688070 -34.79825062 9.78746116
v 7.13761015 -34.77088702 7.85609990
v 7.79796144 -34.62909919 7.85609990
v 7.91528283 -34.60173560 8.82671267
v 8.70301155 -34.41268516 10.53114653
v 8.70971559 -34.41019696 12.37494230
v 10.28852506 -33.97488070 11.81132168
v 9.63152578 -34.16641933 11.81132168
v 10.74440172 -33.83309287 11.81132168
v 11.46844214 -33.59428835 8.82671267
v 11.81370145 -33.46991462 11.81132168
v 12.38354830 -33.26593501 7.85609990
v 12.48410961 -33.22862190 9.78746116
v 13.23831817 -32.93509347 11.81132168
v 12.95674717 -33.04703278 7.85609990
v 13.41597585 -32.86295873 11.81132168
v 13.71765895 -32.73609352 11.81132168
v 14.20370376 -32.52962900 11.81132168
v 14.33108201 -32.47241360 9.78746116
v 15.20931518 -32.07192225 11.81132168
v 14.92774418 -32.20376385 11.81132168
v 15.38697368 -31.98734981 11.81132168
v 15.63837653 -31.86297280 11.81132168
v 16.75125247 -31.29581494 10.53114653
v 16.03726974 -31.66396958 10.53114653
v 17.20042592 -31.04955238 11.81132168
v 17.94457844 -30.61920923 8.82671267
v 17.86748206 -30.66398365 8.70954782
v 18.44738415 -30.32319588 11.81132168
v 18.44738415 -30.32070768 7.85609990
v 18.72895515 -30.14906806 11.81132168
v 18.90661364 -30.03712875 11.81132168
v 19.18148061 -29.86300093 11.81132168
v 19.61724436 -29.58191347 11.81132168
v 20.06976983 -29.27594734 7.85609990
v 21.17258972 -28.48989052 7.85609990
v 21.16588568 -28.49486363 10.53114653
v 21.63181921 -28.13914997 9.78746116
v 21.73573336 -28.05954737 9.78746116
v 22.21507495 -27.68144322 9.78746116
v 22.21507495 -27.68144322 7.85609990
v 22.67765483 -27.30582726 7.85609990
v 22.67765483 -27.30582726 8.82671267
v 23.22068473 -26.84314740 10.53114653
v 22.77151292 -27.22622630 9.78746116
v 23.67321020 -26.45011899 9.78746116
v 24.17266389 -25.98992733 7.85609990
v 26.84088683 -23.21882618 7.85609990
v 27.30011469 -22.68400830 7.85609990
v 28.10125148 -21.68153581 7.85609990
v 27.67219013 -22.22630319 7.85609990
v 28.48673498 -21.18154285 7.85609990
v 0.04469877 -35.49475533 11.95931852
v 0.46035206 -35.49227041 7.85609990
v 0.46035206 -35.49475533 11.81132168
v 1.38216143 -35.46988321 7.85609990
v 1.37880942 -35.46988321 14.15522516
v 2.90733865 -35.37535471 12.98728108
v 2.90733865 -35.37535471 12.98666477
v 3.20231771 -35.35047931 10.53114653
v 3.27606289 -35.34301800 7.85609990
v 2.29726842 -35.42262060 14.15522516
v 4.13083194 -35.25346917 7.85609990
v 5.10962723 -35.12411577 7.85609990
v 5.96439710 -34.98978925 7.85609990
v 6.01132533 -34.98232794 7.85609990
v 6.63145242 -34.87038863 7.85609990
v 8.71977163 -34.40770877 7.85609990
v 10.28852506 -33.97488070 7.85609990
v 9.63152578 -34.16144294 7.85609990
v 10.74440172 -33.83309287 7.85609990
v 11.46844214 -33.59428835 7.85609990
v 13.37910285 -32.87539316 7.85609990
v 13.46960893 -32.83808333 7.85609990
v 14.20035338 -32.52714080 7.85609990
v 14.92439216 -32.20127565 7.85609990
v 14.25063362 -32.50475359 7.85609990
v 15.38362166 -31.98734981 8.82671267
v 16.03726974 -31.66148138 7.85609990
v 16.74119642 -31.29581494 7.85609990
v 17.17025777 -31.06199009 7.85609990
v 17.20042592 -31.04955238 10.53114653
v 17.90770626 -30.63910824 7.85609990
v 18.87309348 -30.05702776 7.85609990
v 19.61389398 -29.58191347 7.85609990
v 21.59829905 -28.16402209 7.85609990
v 21.63181921 -28.13914997 8.70954782
v 21.67204505 -28.10680998 7.85609990
v 23.21398070 -26.84812379 7.85609990
v 23.67321020 -26.45011899 8.82671267
v 23.67321020 -26.44763244 7.85609990
v 2.29726842 -35.42262060 11.45736188
v 1.73412478 -35.45246911 11.81132168
v 2.29726842 -35.42013240 7.85609990
v 15.43054989 -31.96247441 7.85609990
f 1 2 9
f 1 9 3
f 1 3 12
f 1 12 4
f 1 4 5
f 1 5 6
f 1 6 7
f 1 7 8
f 1 8 2
f 2 8 10
f 2 10 11
f 2 11 9
f 3 9 11
f 3 11 50
f 3 50 120
f 3 120 119
f 3 119 118
f 3 118 116
f 3 116 115
f 3 115 114
f 3 114 113
f 3 113 112
f 3 112 111
f 3 111 110
f 3 110 109
f 3 109 106
f 3 106 107
f 3 107 105
f 3 105 104
f 3 104 185
f 3 185 183
f 3 183 184
f 3 184 182
f 3 182 181
f 3 181 98
f 3 98 97
f 3 97 17
f 3 17 33
f 3 33 108
f 3 108 180
f 3 180 224
f 3 224 222
f 3 222 175
f 3 175 174
f 3 174 221
f 3 221 219
f 3 219 169
f 3 169 86
f 3 86 168
f 3 168 218
f 3 218 217
f 3 217 163
f 3 163 216
f 3 216 214
f 3 214 213
f 3 213 212
f 3 212 228
f 3 228 209
f 3 209 210
f 3 210 208
f 3 208 207
f 3 207 206
f 3 206 148
f 3 148 145
f 3 145 205
f 3 205 204
f 3 204 202
f 3 202 203
f 3 203 201
f 3 201 136
f 3 136 135
f 3 135 200
f 3 200 199
f 3 199 198
f 3 198 197
f 3 197 129
f 3 129 196
f 3 196 194
f 3 194 227
f 3 227 189
f 3 189 187
f 3 187 121
f 3 121 51
f 3 51 12
f 4 12 52
f 4 52 13
f 4 13 14
f 4 14 5
f 5 14 54
f 5 54 124
f 5 124 190
f 5 190 195
f 5 195 126
f 5 126 55
f 5 55 15
f 5 15 16
f 5 16 6
f 6 16 7
f 7 17 18
f 7 18 19
f 7 19 20
f 7 20 21
f 7 21 22
f 7 22 23
f 7 23 24
f 7 24 25
f 7 25 26
f 7 26 27
f 7 27 28
f 7 28 29
f 7 29 30
f 7 30 31
f 7 31 8
f 7 16 32
f 7 32 33
f 7 33 17
f 8 34 109
f 8 109 35
f 8 35 36
f 8 36 37
f 8 37 38
f 8 38 39
f 8 39 40
f 8 40 41
f 8 41 42
f 8 42 43
f 8 43 44
f 8 44 45
f 8 45 46
f 8 46 47
f 8 47 48
f 8 48 10
f 8 31 49
f 8 49 34
f 10 48 11
f 11 48 50
f 12 51 52
f 13 52 122
f 13 122 123
f 13 123 53
f 13 53 54
f 13 54 14
f 15 55 56
f 15 56 57
f 15 57 58
f 15 58 59
f 15 59 60
f 15 60 61
f 15 61 62
f 15 62 63
f 15 63 64
f 15 64 65
f 15 65 66
f 15 66 67
f 15 67 68
f 15 68 69
f 15 69 70
f 15 70 71
f 15 71 72
f 15 72 73
f 15 73 74
f 15 74 75
f 15 75 76
f 15 76 77
f 15 77 78
f 15 78 79
f 15 79 80
f 15 80 81
f 15 81 82
f 15 82 83
f 15 83 84
f 15 84 16
f 16 84 85
f 16 85 86
f 16 86 87
f 16 87 88
f 16 88 89
f 16 89 90
f 16 90 91
f 16 91 92
f 16 92 93
f 16 93 94
f 16 94 95
f 16 95 96
f 16 96 32
f 17 97 19
f 17 19 18
f 19 97 20
f 20 97 98
f 20 98 21
f 21 98 99
f 21 99 22
f 22 99 100
f 22 100 23
f 23 100 24
f 24 100 25
f 25 101 102
f 25 102 26
f 25 100 101
f 26 102 103
f 26 103 27
f 27 103 28
f 28 103 104
f 28 104 29
f 29 104 105
f 29 105 30
f 30 106 31
f 30 105 107
f 30 107 106
f 31 106 49
f 32 96 180
f 32 180 108
f 32 108 33
f 34 49 106
f 34 106 109
f 35 109 36
f 36 109 110
f 36 110 37
f 37 110 111
f 37 111 112
f 37 112 38
f 38 113 39
f 38 112 113
f 39 113 40
f 40 113 114
f 40 114 41
f 41 114 42
f 42 114 115
f 42 115 116
f 42 116 43
f 43 116 117
f 43 117 44
f 44 117 118
f 44 118 45
f 45 118 119
f 45 119 46
f 46 119 120
f 46 120 47
f 47 120 50
f 47 50 48
f 51 121 122
f 51 122 52
f 53 123 54
f 54 123 122
f 54 122 125
f 54 125 186
f 54 186 188
f 54 188 124
f 55 126 56
f 56 127 129
f 56 129 57
f 56 126 128
f 56 128 127
f 57 129 58
f 58 130 131
f 58 131 59
f 58 129 132
f 58 132 130
f 59 131 60
f 60 133 61
f 60 131 130
f 60 130 132
f 60 132 133
f 61 133 62
f 62 133 134
f 62 134 63
f 63 135 136
f 63 136 137
f 63 137 138
f 63 138 139
f 63 139 64
f 63 134 135
f 64 139 65
f 65 139 66
f 66 140 67
f 66 139 138
f 66 138 141
f 66 141 202
f 66 202 140
f 67 140 68
f 68 140 142
f 68 142 69
f 69 142 143
f 69 143 144
f 69 144 70
f 70 144 145
f 70 145 146
f 70 146 71
f 71 147 72
f 71 146 148
f 71 148 147
f 72 149 150
f 72 150 73
f 72 147 149
f 73 151 152
f 73 152 74
f 73 150 151
f 74 153 75
f 74 152 154
f 74 154 153
f 75 153 155
f 75 155 156
f 75 156 76
f 76 157 77
f 76 156 158
f 76 158 157
f 77 157 159
f 77 159 78
f 78 159 79
f 79 160 80
f 79 159 215
f 79 215 161
f 79 161 160
f 80 160 162
f 80 162 81
f 81 163 164
f 81 164 82
f 81 162 163
f 82 164 165
f 82 165 166
f 82 166 83
f 83 85 84
f 83 166 167
f 83 167 85
f 85 167 218
f 85 218 168
f 85 168 86
f 86 169 170
f 86 170 88
f 86 88 87
f 88 171 172
f 88 172 89
f 88 170 169
f 88 169 220
f 88 220 171
f 89 172 90
f 90 172 173
f 90 173 91
f 91 173 174
f 91 174 175
f 91 175 176
f 91 176 92
f 92 176 93
f 93 177 94
f 93 176 178
f 93 178 177
f 94 177 179
f 94 179 95
f 95 179 96
f 96 179 223
f 96 223 180
f 98 181 99
f 99 181 182
f 99 182 100
f 100 182 101
f 101 183 102
f 101 182 184
f 101 184 183
f 102 183 185
f 102 185 103
f 103 185 104
f 116 118 117
f 121 186 125
f 121 125 122
f 121 187 188
f 121 188 186
f 124 188 189
f 124 189 190
f 126 191 192
f 126 192 193
f 126 193 194
f 126 194 128
f 126 195 191
f 127 128 194
f 127 194 196
f 127 196 129
f 129 197 132
f 132 197 198
f 132 198 199
f 132 199 200
f 132 200 133
f 133 200 134
f 134 200 135
f 136 201 137
f 137 201 138
f 138 201 141
f 140 202 204
f 140 204 142
f 141 201 203
f 141 203 202
f 142 204 205
f 142 205 143
f 143 205 145
f 143 145 144
f 145 148 146
f 147 148 149
f 148 206 149
f 149 206 207
f 149 207 150
f 150 207 151
f 151 207 208
f 151 208 152
f 152 209 154
f 152 208 210
f 152 210 209
f 153 211 155
f 153 154 211
f 154 209 211
f 155 211 156
f 156 211 158
f 157 212 213
f 157 213 214
f 157 214 215
f 157 215 159
f 157 158 212
f 158 211 212
f 160 216 163
f 160 163 162
f 160 161 216
f 161 215 214
f 161 214 216
f 163 217 164
f 164 217 165
f 165 217 166
f 166 217 218
f 166 218 167
f 169 219 220
f 171 220 172
f 172 220 221
f 172 221 174
f 172 174 173
f 175 222 177
f 175 177 178
f 175 178 176
f 177 223 179
f 177 222 223
f 180 223 224
f 187 189 188
f 189 225 226
f 189 226 190
f 189 227 225
f 190 226 195
f 191 195 225
f 191 225 192
f 192 194 193
f 192 225 194
f 194 225 227
f 195 226 225
f 209 228 211
f 211 228 212
f 219 221 220
f 222 224 223

