# https://github.com/mikedh/trimesh
v 0.50637180 35.49431938 14.15399909
v 0.45773919 35.49431938 16.49248034
v 0.91627523 35.48040646 16.49248034
v 1.36786373 35.46649354 16.49248034
v 1.36786373 35.46649354 14.15399909
v 1.38175872 35.45953709 7.85717517
v 0.45773919 35.49084115 10.53383142
v -0.02858692 35.49431938 8.82689297
v -0.00079686 35.49431938 16.49248034
v 2.28493582 35.42127984 16.49248034
v 2.28493582 35.42127984 16.04017287
v 2.29188327 35.41432339 9.78900194
v 2.29188327 35.41084188 7.85717517
v 0.45079164 35.48736292 7.85717517
v -0.02858692 35.49084115 7.85717517
v -0.45933290 35.49084115 7.85717517
v -0.45933290 35.49084115 12.98475683
v -1.36250990 35.46301531 12.98475683
v -2.28652954 35.41779834 12.98475683
v -2.89791087 35.36910313 12.98475683
v -3.20360163 35.34127730 12.98475683
v -4.12067352 35.24736839 12.98475683
v -4.81542518 35.15693444 12.98475683
v -9.63005351 34.15869581 11.81128889
v -10.27617225 33.96739322 11.81128889
v -10.73470840 33.82478910 11.81128889
v -11.45725066 33.58827281 11.81128889
v -12.37432213 33.26480078 11.81128889
v -12.95791389 33.04219740 11.81128889
v -13.40950260 32.85785454 11.81128889
v -14.20151928 32.52046960 11.81128889
v -14.92405990 32.19699758 11.81128889
v -15.37564943 31.98134738 11.81128889
v -16.02871561 31.65787536 11.81128889
v -16.73736298 31.29266786 11.81128889
v -17.02221060 31.13962906 11.81128889
v -17.19589749 31.04223865 11.81128889
v -17.86286021 30.65963673 11.81128889
v -18.44645033 30.31877356 11.81128889
v -18.90498647 30.03356534 11.81128889
v -19.60668558 29.57444238 11.81128889
v -20.07216999 29.26836151 11.81128889
v -20.61407546 28.88228136 11.81128889
v -21.16987744 28.48229158 11.81128889
v -21.62841359 28.13447195 11.81128889
v -22.21200535 27.67535227 11.81128889
v -22.67053986 27.30318504 11.81128889
v -23.21244696 26.84406536 11.81128889
v -23.67098311 26.44059407 11.81128889
v -23.85856653 26.26668590 11.81128889
v -24.62279180 25.55713373 11.81128889
v -24.85900814 25.33105212 11.81128889
v -25.55375898 24.63541451 11.81128889
v -25.97755874 24.17629319 11.81128889
v -26.43609488 23.67543476 11.81128889
v -26.83904985 23.21979168 11.81128889
v -27.29758600 22.68067273 11.81128889
v -27.44348476 22.50328469 11.81128889
v -27.67275119 22.22155141 11.81128889
v -28.13128734 21.63373726 11.81128889
v -28.47866440 21.17809581 11.81128889
v -29.04141301 20.39898070 11.81128889
v -3.44676459 21.45982909 16.49248034
v 3.20895536 35.34823376 16.49248034
v 3.20895536 35.34823376 14.15399909
v 3.20895536 35.34127730 7.85717517
v -1.43893260 35.45953709 7.85717517
v -1.37640500 35.46649354 8.71022314
v -1.37640500 35.46649354 8.82689297
v -2.29347698 35.41779834 8.82689297
v -3.21749672 35.34475880 8.82689297
v -3.21054908 35.34475880 11.81128889
v -4.12762137 35.24736839 11.81128889
v -5.03774581 35.12910860 11.81128889
v -5.96176514 34.98302626 11.81128889
v -6.62177918 34.86476975 11.81128889
v -7.08031574 34.77433580 11.81128889
v -7.35821592 34.71520590 11.81128889
v -7.78896229 34.62129372 11.81128889
v -8.70603377 34.40216857 11.81128889
v -9.63005351 34.15869581 10.53213984
v -10.27617225 33.97087472 11.45874202
v -8.77550902 34.38825565 7.85717517
v -10.69997119 33.83522379 7.85717517
v -11.51977764 33.56740343 7.85717517
v -11.45725066 33.58827281 11.45874202
v -12.37432213 33.26480078 10.53213984
v -12.95791389 33.04219740 11.45874202
v -13.37476457 32.87176746 7.85717517
v -14.19457102 32.52742606 10.53213984
v -14.92405990 32.19699758 7.85717517
v -15.32006824 32.01265472 8.82689297
v -15.37564943 31.98482889 10.54313183
v -16.02871561 31.65787536 7.85717517
v -16.73736298 31.29266786 7.85717517
v -17.19589749 31.04223865 8.71022314
v -17.86286021 30.65963673 7.85717517
v -18.90498647 30.03356534 7.85717517
v -18.43950370 30.32225179 10.53213984
v -19.60668558 29.57444238 7.85717517
v -20.07216999 29.26836151 10.53213984
v -20.69049815 28.83011120 8.82689297
v -21.16987744 28.48229158 7.85717517
v -21.62841359 28.13447195 10.53213984
v -22.21200535 27.67883050 11.45874202
v -22.67053986 27.30318504 7.85717517
v -23.21244696 26.84406536 7.85717517
v -23.67098311 26.44407230 9.78815615
v -24.59500203 25.58495956 7.85717517
v -25.08827621 25.09453582 7.85717517
v -25.55375898 24.63541451 10.53213984
v -26.40830347 23.71021705 7.85717517
v -26.83904985 23.21979168 10.53213984
v -27.22116331 22.77110505 9.78815615
v -27.29758600 22.68067273 10.53213984
v -27.58243525 22.33633133 10.53213984
v -28.07570780 21.70678007 8.82689297
v -28.48561103 21.17461758 9.78815615
v -28.48561103 21.17461758 8.82689297
v -29.28457433 20.04420626 7.85717517
v -29.26373446 20.07550868 8.82689297
v -29.26373446 20.07550868 9.78815615
v -29.56942523 19.61638900 9.78815615
v -30.02796138 18.90683847 9.78815615
v -30.31975562 18.44771716 9.78815615
v -30.66018278 17.87033769 9.78815615
v -31.04229623 17.20600414 9.78815615
v -31.29240746 16.74688282 9.78815615
v -31.65367777 16.04428875 9.78815615
v -31.79957652 15.75212079 9.78815615
v -31.98021168 15.38343343 9.78815615
v -32.18863660 14.92431211 9.78815615
v -32.50822389 14.20780512 9.78815615
v -32.88338745 13.33477947 9.78815615
v -33.03623283 12.95565742 9.78815615
v -33.25855428 12.37827795 9.78815615
v -33.58508820 11.46003614 9.78815615
v -33.82130289 10.74352915 9.78815615
v -33.96025503 10.28440866 9.78815615
v -34.12004704 9.74528889 9.78815615
v -34.39794803 8.71574539 9.78815615
v -34.62026620 7.80098180 9.78815615
v -34.77311159 7.08795304 9.78815615
v -34.86343080 6.62883173 9.78815615
v -34.98153979 5.96797640 9.78815615
v -35.12048865 5.04973459 9.78815615
v -35.24554426 4.13497100 9.78815615
v -35.33586020 3.21672919 9.78815615
v -35.39838964 2.46196168 9.78815615
v -35.45396918 1.38372379 9.78815615
v -35.48870558 0.46548116 9.78815615
v -35.48870558 -0.03537727 9.78815615
v -3.44676459 19.89812228 16.49248034
v 4.11907980 35.25084662 16.49248034
v 4.11907980 35.25084662 14.15399909
v 4.11907980 35.24736839 9.78900194
v 4.06349985 35.25084662 7.85717517
v -2.29347698 35.41779834 7.85717517
v -3.21749672 35.34475880 7.85717517
v -4.12762137 35.24736839 10.53213984
v -4.18320132 35.24041193 7.85717517
v -5.04469326 35.12910860 8.82689297
v -5.04469326 35.12910860 7.85717517
v -6.00345062 34.97606980 7.85717517
v -6.04513569 34.96911335 8.82689297
v -6.62872704 34.86824470 8.82689297
v -7.08726319 34.77781075 8.71022314
v -7.78896229 34.62477195 8.82689297
v -9.62310607 34.15869581 7.85717517
v -10.27617225 33.96739322 7.85717517
v -7.78896229 34.62477195 7.85717517
v -12.37432213 33.26132255 7.85717517
v -12.95096645 33.04219740 7.85717517
v -14.20151928 32.52046960 7.85717517
v -14.29878348 32.47873085 8.82689297
v -15.37564943 31.98482889 7.85717517
v -17.16116110 31.05962979 7.85717517
v -18.43950370 30.31877356 7.85717517
v -20.06522173 29.26836151 7.85717517
v -20.65576175 28.85098058 7.85717517
v -22.21200535 27.67883050 7.85717517
v -23.67098311 26.44059407 7.85717517
v -23.67098311 26.44407230 8.82689297
v -24.16425729 25.98495262 7.85717517
v -25.17859379 25.00410187 7.85717517
v -25.55375898 24.63193628 8.82689297
v -26.83904985 23.21283522 7.85717517
v -26.83904985 23.21631345 8.71022314
v -25.54681236 24.62845805 7.85717517
v -27.32537577 22.64241221 7.85717517
v -27.67275119 22.21807319 8.82689297
v -28.15213049 21.59895497 7.85717517
v -28.47866440 21.17461758 7.85717517
v -29.56942523 19.61638900 7.85717517
v -30.00016833 18.95901027 7.85717517
v -30.06964440 18.84770858 8.82689297
v -30.31975562 18.44771716 8.82689297
v -30.66018278 17.87033769 7.85717517
v -31.01450646 17.25121948 7.85717517
v -31.29240746 16.74688282 8.82689297
v -31.65367777 16.04428875 8.82689297
v -31.95936853 15.43212700 7.85717517
v -32.07747752 15.19213247 8.82689297
v -32.50822389 14.20780512 7.85717517
v -32.80696476 13.51912397 8.82689297
v -32.84865106 13.41477792 7.85717517
v -33.03623283 12.95217919 7.85717517
v -33.25855428 12.37827795 7.85717517
v -33.58508820 11.46003614 7.85717517
v -33.83519942 10.70874768 7.85717517
v -34.14089018 9.67224690 7.85717517
v -34.38405151 8.77835269 7.85717517
v -34.62026620 7.80098180 7.85717517
v -34.78006149 7.05664898 7.85717517
v -34.86343080 6.62883173 7.85717517
v -34.98153979 5.96797640 8.82689297
v -35.12048865 5.11234189 7.85717517
v -35.24554426 4.13497100 8.82689297
v -35.33586020 3.21672919 7.85717517
v -35.40533626 2.29848656 7.85717517
v -35.45396918 1.38372379 7.85717517
v -35.48870558 0.52808928 7.85717517
v -35.48870558 -0.03885550 8.82689297
v 35.48711186 -0.03537727 9.78815615
v 29.38719308 19.89812228 16.49248034
v 4.58456339 35.19171673 16.49248034
v 4.17466016 35.24389016 14.15399909
v 4.12602765 35.24389016 7.85717517
v 5.03615210 35.13259011 14.15399909
v 5.04309954 35.12563365 7.85717517
v -4.12067352 35.24736839 7.85717517
v -6.62872704 34.86824470 7.85717517
v -7.08726319 34.77781075 7.85717517
v -27.66580457 22.21459496 7.85717517
v -30.31280899 18.44771716 7.85717517
v -31.05619276 17.17470008 7.85717517
v -31.28546083 16.74688282 7.85717517
v -31.64673114 16.04428875 7.85717517
v -32.07747752 15.19213247 7.85717517
v -34.98153979 5.96449817 7.85717517
v -35.24554426 4.13149277 7.85717517
v -35.48870558 -0.03885550 7.85717517
v 35.48711186 -0.03885550 8.82689297
v 35.48711186 0.46548116 9.78815615
v 35.46627199 1.38372379 9.78815615
v 35.41068917 2.29848656 9.78815615
v 35.35510963 3.05325406 9.78815615
v 35.34121638 3.21672919 9.78815615
v 35.26479369 3.96801847 9.78815615
v 35.24395054 4.13497100 9.78815615
v 35.12584155 5.04973459 9.78815615
v 34.98689270 5.96797640 9.78815615
v 34.84794056 6.71926486 9.78815615
v 34.77151787 7.10186596 9.78815615
v 34.64646554 7.67576719 9.78815615
v 34.61867249 7.80098180 9.78815615
v 34.40330094 8.71574539 9.78815615
v 34.15318972 9.63050897 9.78815615
v 33.96560794 10.28440866 9.78815615
v 33.81970918 10.74700738 9.78815615
v 33.58349448 11.46003614 9.78815615
v 33.25696057 12.37827795 9.78815615
v 33.00684934 13.03913328 9.78815615
v 32.85400396 13.41825614 9.78815615
v 32.52052343 14.20780512 9.78815615
v 32.15925312 15.01126620 9.78815615
v 31.80492943 15.75212079 9.78815615
v 31.65903067 16.04428875 9.78815615
v 31.29081374 16.75036105 9.78815615
v 31.03375589 17.20948237 9.78815615
v 30.65858906 17.87033769 9.78815615
v 30.37374144 18.35032838 9.78815615
v 30.03331428 18.91379493 8.82689297
v 29.57477814 19.61986723 9.78815615
v 29.38719308 19.89812228 14.15484488
v 29.04676592 20.40245893 10.53974867
v 29.26214075 20.08246514 16.49248034
v 5.03615210 35.13259011 16.49248034
v 5.50163569 35.05954402 16.49248034
v 5.96017143 34.98302626 7.85717517
v 35.48711186 -0.03885550 7.85717517
v 35.48711186 0.46548116 7.85717517
v 35.46627199 1.38372379 7.85717517
v 35.41068917 2.29848656 7.85717517
v 35.34816301 3.15412107 7.85717517
v 35.24395054 4.13149277 7.85717517
v 35.24395054 4.13497100 8.82689297
v 35.12584155 5.04973459 7.85717517
v 34.98689270 5.96797640 8.82689297
v 34.88268023 6.55231151 8.82689297
v 34.77151787 7.09838773 7.85717517
v 34.63256901 7.74880837 7.85717517
v 34.40330094 8.71226716 7.85717517
v 34.18792939 9.51225000 8.82689297
v 33.96560794 10.28440866 7.85717517
v 33.82665580 10.74352915 8.82689297
v 33.58349448 11.46003614 7.85717517
v 33.25696057 12.37827795 7.85717517
v 33.02074587 12.99043889 7.85717517
v 32.85400396 13.41477792 7.85717517
v 32.52052343 14.20780512 7.85717517
v 32.07588380 15.19213247 7.85717517
v 32.07588380 15.19213247 8.82689297
v 31.80492943 15.75212079 9.62583005
v 31.65903067 16.04428875 7.85717517
v 31.29081374 16.75036105 7.85717517
v 31.04070252 17.20948237 8.82689297
v 30.29731875 18.48249945 7.85717517
v 30.68637883 17.82512071 7.85717517
v 30.03331428 18.91379493 7.85717517
v 29.57477814 19.61986723 8.71022314
v 29.04676592 20.40245893 10.53298563
v 28.53959685 21.10505300 8.82689297
v 28.67854899 20.90679723 16.49248034
v 28.88002729 20.62506395 16.04101539
v 5.95322398 34.98650449 16.49248034
v 5.99490905 34.97954803 14.15399909
v 6.62018547 34.86824470 14.15399909
v 6.50902556 34.88563585 9.78900194
v 6.62018547 34.86128825 7.85717517
v 34.98689270 5.96449817 7.85717517
v 34.86183709 6.63926641 7.85717517
v 34.15318972 9.62703074 7.85717517
v 33.82665580 10.74352915 7.85717517
v 31.04070252 17.20948237 7.85717517
v 29.60256791 19.57117203 7.85717517
v 29.26214075 20.07550868 7.85717517
v 28.46317416 21.20592001 7.85717517
v 28.31032878 21.40765565 16.49248034
v 28.47707069 21.18157404 16.49248034
v 6.62018547 34.86824470 16.49248034
v 7.07872203 34.77781075 14.15399909
v 7.08566947 34.77433580 8.82689297
v 6.71050346 34.84737533 9.78900194
v 7.08566947 34.77085429 7.85717517
v 28.12969362 21.64069372 11.81044310
v 28.12969362 21.63373726 7.85717517
v 27.76842332 22.10677150 11.81044310
v 28.12969362 21.64069372 16.49248034
v 7.07872203 34.77781075 16.49248034
v 7.43999233 34.70129299 16.49248034
v 7.79431602 34.62129372 7.85717517
v 27.64336770 22.24937725 7.85717517
v 27.73368692 22.14155379 8.82689297
v 27.67115748 22.22502964 16.49248034
v 27.90042555 21.93633991 16.49248034
v 27.67115748 22.22502964 10.53298563
v 27.30294054 22.67719450 7.85717517
v 27.30294054 22.67719450 8.82689297
v 7.78736858 34.62477195 16.49248034
v 7.78736858 34.62477195 14.15399909
v 8.71138750 34.40216857 7.85717517
v 27.29599228 22.68067273 16.49248034
v 26.87219417 23.17805293 7.85717517
v 26.84440440 23.21631345 8.71022314
v 26.84440440 23.21631345 8.82689297
v 26.83745613 23.22326991 16.49248034
v 8.70444005 34.40564680 16.49248034
v 8.70444005 34.40564680 14.15399909
v 8.76002042 34.39173388 14.15399909
v 9.62151235 34.16217404 14.15399909
v 9.55898454 34.17260545 7.85717517
v 26.44839605 23.66500008 7.85717517
v 26.44144779 23.67543476 8.82689297
v 26.46229094 23.65456539 14.15484488
v 26.44144779 23.67891299 16.49248034
v 9.16992364 34.28043383 16.49248034
v 9.62151235 34.16217404 15.12371689
v 9.95499289 34.06478363 16.49248034
v 10.27457854 33.97087472 14.15399909
v 10.31626401 33.95696181 7.85717517
v 26.01070141 24.13803267 7.85717517
v 25.92733210 24.23194486 8.82689297
v 25.97596502 24.17629319 16.49248034
v 9.62151235 34.15869581 16.49248034
v 10.27457854 33.97087472 16.49248034
v 10.73311469 33.82826733 14.15399909
v 10.74006213 33.82478910 7.85717517
v 25.54521864 24.63193628 7.85717517
v 25.55216527 24.62845805 10.53298563
v 25.54521864 24.63541451 16.49248034
v 10.73311469 33.82826733 16.49248034
v 11.45565694 33.59175104 14.15399909
v 11.45565694 33.58827281 9.78900194
v 11.45565694 33.58479458 7.85717517
v 25.18394833 25.00758010 7.85717517
v 25.19089496 25.00062364 14.15399909
v 25.19089496 25.00062364 16.49248034
v 11.45565694 33.59175104 16.49248034
v 12.37272842 33.26480078 14.15399909
v 12.37272842 33.25784433 7.85717517
v 25.03110295 25.16062218 8.82689297
v 24.62119808 25.56061196 7.85717517
v 25.09362912 25.09801405 16.49248034
v 12.37272842 33.26480078 16.49248034
v 12.94937273 33.04567235 14.15399909
v 12.90768726 33.05611032 7.85717517
v 24.63509461 25.55365550 10.53383142
v 24.16961020 25.98843085 7.85717517
v 24.62814635 25.55713373 16.49248034
v 12.94937273 33.04567235 16.49248034
v 13.40790888 32.86132949 14.15399909
v 13.40790888 32.85785454 9.78900194
v 13.40790888 32.85437303 7.85717517
v 24.16961020 25.98843085 8.82689297
v 24.16961020 25.98495262 16.49248034
v 23.66244113 26.44755053 7.85717517
v 23.64854625 26.46841991 14.15399909
v 23.67633602 26.44407230 16.49248034
v 13.40790888 32.86132949 16.49248034
v 14.24161023 32.50655669 14.15399909
v 14.19992557 32.52046960 9.78900194
v 14.19992557 32.51698809 7.85717517
v 23.24559128 26.81623953 7.85717517
v 23.21779987 26.84406536 14.15399909
v 23.21779987 26.84406536 16.49248034
v 14.19992557 32.52394455 16.49248034
v 14.92246619 32.20047253 16.49248034
v 14.92246619 32.20047253 14.15399909
v 14.95025760 32.18308466 7.85717517
v 22.24514803 27.65448290 7.85717517
v 22.21735826 27.67883050 8.71022314
v 22.67589441 27.30318504 16.49248034
v 15.38100233 31.98482889 16.49248034
v 15.35321256 31.99874180 14.15399909
v 15.37405571 31.98134738 9.78900194
v 15.37405571 31.97787243 7.85717517
v 21.62681988 28.13447195 7.85717517
v 21.63376650 28.13447195 16.49248034
v 22.21735826 27.67883050 9.78900194
v 21.60597673 28.15534132 14.15399909
v 22.21735826 27.67535227 16.49248034
v 16.03407016 31.66135686 16.49248034
v 16.03407016 31.66135686 14.15399909
v 16.02712190 31.65787536 7.85717517
v 21.19607350 28.45794397 7.85717517
v 21.17523035 28.48576980 14.15399909
v 21.17523035 28.48576980 16.49248034
v 16.39534047 31.47701072 16.49248034
v 16.74271589 31.29614609 14.15399909
v 16.68018809 31.31701547 7.85717517
v 20.61248174 28.88576287 7.85717517
v 20.61943000 28.88576287 16.49248034
v 16.74271589 31.29614609 16.49248034
v 17.20125204 31.04919511 14.20810670
v 17.18735715 31.03876042 7.85717517
v 20.06362801 29.26836151 7.85717517
v 20.04973313 29.28923088 14.15399909
v 20.34847727 29.07706219 16.49248034
v 17.20125204 31.04919511 16.49248034
v 17.54168084 30.85441428 16.49248034
v 17.86821311 30.66659319 15.12371689
v 17.90295115 30.64572382 14.15399909
v 17.86126649 30.65615850 7.85717517
v 19.61204013 29.57792061 8.82689297
v 19.61204013 29.57444238 7.85717517
v 19.61898675 29.57792061 14.15399909
v 19.61898675 29.57792061 14.20810670
v 19.84130820 29.42836004 16.49248034
v 20.07057628 29.27183973 16.49248034
v 17.86821311 30.66659319 16.49248034
v 18.45180487 30.32225179 14.15399909
v 18.43790999 30.31529861 7.85717517
v 18.89644613 30.03008383 7.85717517
v 18.91034102 30.03704029 14.15399909
v 18.91034102 30.03704029 16.49248034
v 18.45180487 30.32225179 16.49248034
f 1 2 3
f 1 3 4
f 1 4 5
f 1 5 6
f 1 6 7
f 1 7 8
f 1 8 9
f 1 9 2
f 2 9 63
f 2 63 153
f 2 153 225
f 2 225 277
f 2 277 314
f 2 314 330
f 2 330 329
f 2 329 339
f 2 339 346
f 2 346 345
f 2 345 353
f 2 353 357
f 2 357 366
f 2 366 374
f 2 374 381
f 2 381 388
f 2 388 394
f 2 394 400
f 2 400 406
f 2 406 409
f 2 409 416
f 2 416 423
f 2 423 432
f 2 432 429
f 2 429 438
f 2 438 443
f 2 443 449
f 2 449 460
f 2 460 459
f 2 459 466
f 2 466 467
f 2 467 461
f 2 461 451
f 2 451 450
f 2 450 444
f 2 444 439
f 2 439 433
f 2 433 424
f 2 424 418
f 2 418 417
f 2 417 410
f 2 410 401
f 2 401 395
f 2 395 389
f 2 389 382
f 2 382 376
f 2 376 369
f 2 369 375
f 2 375 367
f 2 367 358
f 2 358 350
f 2 350 341
f 2 341 340
f 2 340 331
f 2 331 316
f 2 316 279
f 2 279 278
f 2 278 226
f 2 226 154
f 2 154 64
f 2 64 10
f 2 10 4
f 2 4 3
f 4 10 11
f 4 11 5
f 5 11 6
f 6 11 12
f 6 12 13
f 6 13 66
f 6 66 157
f 6 157 228
f 6 228 230
f 6 230 280
f 6 280 320
f 6 320 335
f 6 335 342
f 6 342 352
f 6 352 362
f 6 362 371
f 6 371 378
f 6 378 385
f 6 385 391
f 6 391 397
f 6 397 404
f 6 404 413
f 6 413 420
f 6 420 427
f 6 427 435
f 6 435 441
f 6 441 446
f 6 446 454
f 6 454 463
f 6 463 464
f 6 464 456
f 6 456 447
f 6 447 442
f 6 442 436
f 6 436 428
f 6 428 421
f 6 421 414
f 6 414 407
f 6 407 399
f 6 399 393
f 6 393 386
f 6 386 379
f 6 379 372
f 6 372 363
f 6 363 354
f 6 354 348
f 6 348 343
f 6 343 337
f 6 337 328
f 6 328 327
f 6 327 326
f 6 326 310
f 6 310 308
f 6 308 309
f 6 309 325
f 6 325 306
f 6 306 305
f 6 305 302
f 6 302 301
f 6 301 300
f 6 300 299
f 6 299 298
f 6 298 297
f 6 297 324
f 6 324 295
f 6 295 323
f 6 323 293
f 6 293 292
f 6 292 291
f 6 291 322
f 6 322 321
f 6 321 288
f 6 288 286
f 6 286 285
f 6 285 284
f 6 284 283
f 6 283 282
f 6 282 281
f 6 281 242
f 6 242 222
f 6 222 221
f 6 221 220
f 6 220 219
f 6 219 241
f 6 241 217
f 6 217 240
f 6 240 215
f 6 215 214
f 6 214 213
f 6 213 212
f 6 212 211
f 6 211 210
f 6 210 209
f 6 209 208
f 6 208 207
f 6 207 206
f 6 206 204
f 6 204 239
f 6 239 202
f 6 202 238
f 6 238 237
f 6 237 236
f 6 236 199
f 6 199 198
f 6 198 235
f 6 235 195
f 6 195 194
f 6 194 120
f 6 120 193
f 6 193 192
f 6 192 234
f 6 234 190
f 6 190 187
f 6 187 112
f 6 112 189
f 6 189 185
f 6 185 110
f 6 110 109
f 6 109 184
f 6 184 182
f 6 182 107
f 6 107 106
f 6 106 181
f 6 181 103
f 6 103 180
f 6 180 179
f 6 179 100
f 6 100 98
f 6 98 178
f 6 178 97
f 6 97 177
f 6 177 95
f 6 95 94
f 6 94 176
f 6 176 91
f 6 91 174
f 6 174 89
f 6 89 173
f 6 173 172
f 6 172 85
f 6 85 84
f 6 84 170
f 6 170 169
f 6 169 83
f 6 83 171
f 6 171 233
f 6 233 232
f 6 232 164
f 6 164 163
f 6 163 161
f 6 161 231
f 6 231 159
f 6 159 158
f 6 158 67
f 6 67 16
f 6 16 15
f 6 15 14
f 6 14 7
f 7 14 8
f 8 15 16
f 8 16 17
f 8 17 9
f 8 14 15
f 9 17 18
f 9 18 19
f 9 19 20
f 9 20 21
f 9 21 22
f 9 22 23
f 9 23 24
f 9 24 25
f 9 25 26
f 9 26 27
f 9 27 28
f 9 28 29
f 9 29 30
f 9 30 31
f 9 31 32
f 9 32 33
f 9 33 34
f 9 34 35
f 9 35 36
f 9 36 37
f 9 37 38
f 9 38 39
f 9 39 40
f 9 40 41
f 9 41 42
f 9 42 43
f 9 43 44
f 9 44 45
f 9 45 46
f 9 46 47
f 9 47 48
f 9 48 49
f 9 49 50
f 9 50 51
f 9 51 52
f 9 52 53
f 9 53 54
f 9 54 55
f 9 55 56
f 9 56 57
f 9 57 58
f 9 58 59
f 9 59 60
f 9 60 61
f 9 61 62
f 9 62 63
f 10 64 65
f 10 65 11
f 11 65 12
f 12 65 66
f 12 66 13
f 16 67 68
f 16 68 69
f 16 69 17
f 17 69 18
f 18 69 19
f 19 69 70
f 19 70 71
f 19 71 72
f 19 72 20
f 20 72 21
f 21 72 22
f 22 72 73
f 22 73 74
f 22 74 23
f 23 74 75
f 23 75 76
f 23 76 77
f 23 77 78
f 23 78 79
f 23 79 80
f 23 80 24
f 24 81 82
f 24 82 25
f 24 80 83
f 24 83 81
f 25 82 26
f 26 84 85
f 26 85 86
f 26 86 27
f 26 82 84
f 27 86 85
f 27 85 28
f 28 85 87
f 28 87 88
f 28 88 29
f 29 88 30
f 30 89 90
f 30 90 31
f 30 88 89
f 31 90 32
f 32 90 91
f 32 91 92
f 32 92 93
f 32 93 33
f 33 93 34
f 34 93 92
f 34 92 176
f 34 176 94
f 34 94 95
f 34 95 35
f 35 95 36
f 36 95 96
f 36 96 37
f 37 96 97
f 37 97 38
f 38 97 39
f 39 98 40
f 39 97 99
f 39 99 98
f 40 98 100
f 40 100 41
f 41 100 101
f 41 101 42
f 42 101 102
f 42 102 43
f 43 102 44
f 44 102 103
f 44 103 104
f 44 104 45
f 45 104 181
f 45 181 105
f 45 105 46
f 46 105 47
f 47 106 107
f 47 107 48
f 47 105 181
f 47 181 106
f 48 107 183
f 48 183 108
f 48 108 49
f 49 108 50
f 50 108 51
f 51 108 109
f 51 109 52
f 52 110 111
f 52 111 53
f 52 109 110
f 53 111 112
f 53 112 54
f 54 112 55
f 55 112 56
f 56 112 113
f 56 113 114
f 56 114 57
f 57 115 116
f 57 116 58
f 57 114 115
f 58 116 59
f 59 116 117
f 59 117 60
f 60 117 118
f 60 118 61
f 61 118 62
f 62 118 119
f 62 119 120
f 62 120 121
f 62 121 122
f 62 122 123
f 62 123 124
f 62 124 125
f 62 125 126
f 62 126 127
f 62 127 128
f 62 128 129
f 62 129 130
f 62 130 131
f 62 131 132
f 62 132 133
f 62 133 134
f 62 134 135
f 62 135 136
f 62 136 137
f 62 137 138
f 62 138 139
f 62 139 140
f 62 140 141
f 62 141 142
f 62 142 143
f 62 143 144
f 62 144 145
f 62 145 146
f 62 146 147
f 62 147 148
f 62 148 149
f 62 149 150
f 62 150 151
f 62 151 152
f 62 152 153
f 62 153 63
f 64 154 155
f 64 155 65
f 65 155 156
f 65 156 66
f 66 156 157
f 67 158 68
f 68 158 70
f 68 70 69
f 70 158 159
f 70 159 71
f 71 159 160
f 71 160 73
f 71 73 72
f 73 160 161
f 73 161 162
f 73 162 74
f 74 162 75
f 75 162 163
f 75 163 164
f 75 164 165
f 75 165 166
f 75 166 76
f 76 166 77
f 77 166 167
f 77 167 78
f 78 168 79
f 78 167 168
f 79 168 80
f 80 168 83
f 81 83 169
f 81 169 82
f 82 169 170
f 82 170 84
f 83 168 171
f 85 172 87
f 87 172 173
f 87 173 88
f 88 173 89
f 89 174 90
f 90 174 175
f 90 175 91
f 91 176 92
f 91 175 174
f 95 177 96
f 96 177 97
f 97 178 99
f 98 99 178
f 100 179 101
f 101 179 102
f 102 179 180
f 102 180 103
f 103 181 104
f 107 182 183
f 108 183 109
f 109 183 184
f 110 185 186
f 110 186 111
f 111 186 112
f 112 187 188
f 112 188 113
f 112 186 189
f 113 188 114
f 114 188 190
f 114 190 115
f 115 190 116
f 116 191 117
f 116 190 191
f 117 192 119
f 117 119 118
f 117 191 192
f 119 192 193
f 119 193 120
f 120 194 123
f 120 123 122
f 120 122 121
f 123 194 195
f 123 195 196
f 123 196 124
f 124 196 125
f 125 197 198
f 125 198 126
f 125 196 195
f 125 195 197
f 126 198 127
f 127 198 199
f 127 199 200
f 127 200 128
f 128 200 201
f 128 201 129
f 129 201 202
f 129 202 130
f 130 202 203
f 130 203 131
f 131 203 132
f 132 203 133
f 133 203 239
f 133 239 204
f 133 204 205
f 133 205 134
f 134 206 207
f 134 207 135
f 134 205 206
f 135 207 208
f 135 208 136
f 136 208 209
f 136 209 137
f 137 209 210
f 137 210 138
f 138 210 139
f 139 210 140
f 140 210 211
f 140 211 212
f 140 212 141
f 141 212 142
f 142 212 213
f 142 213 214
f 142 214 143
f 143 214 144
f 144 214 215
f 144 215 216
f 144 216 145
f 145 216 217
f 145 217 146
f 146 217 147
f 147 218 219
f 147 219 148
f 147 217 218
f 148 219 149
f 149 219 220
f 149 220 221
f 149 221 150
f 150 221 222
f 150 222 151
f 151 222 242
f 151 242 223
f 151 223 152
f 152 223 243
f 152 243 224
f 152 224 225
f 152 225 153
f 154 226 227
f 154 227 155
f 155 227 156
f 156 228 157
f 156 227 229
f 156 229 230
f 156 230 228
f 159 231 160
f 160 231 161
f 161 163 162
f 164 232 165
f 165 232 166
f 166 232 233
f 166 233 167
f 167 233 171
f 167 171 168
f 182 184 183
f 185 189 186
f 187 190 188
f 190 234 191
f 191 234 192
f 195 235 197
f 197 235 198
f 199 236 200
f 200 236 237
f 200 237 238
f 200 238 201
f 201 238 202
f 202 239 203
f 204 206 205
f 215 240 216
f 216 240 217
f 217 241 218
f 218 241 219
f 223 242 281
f 223 281 243
f 224 243 281
f 224 281 282
f 224 282 244
f 224 244 225
f 225 244 245
f 225 245 246
f 225 246 247
f 225 247 248
f 225 248 249
f 225 249 250
f 225 250 251
f 225 251 252
f 225 252 253
f 225 253 254
f 225 254 255
f 225 255 256
f 225 256 257
f 225 257 258
f 225 258 259
f 225 259 260
f 225 260 261
f 225 261 262
f 225 262 263
f 225 263 264
f 225 264 265
f 225 265 266
f 225 266 267
f 225 267 268
f 225 268 269
f 225 269 270
f 225 270 271
f 225 271 272
f 225 272 273
f 225 273 274
f 225 274 311
f 225 311 275
f 225 275 312
f 225 312 276
f 225 276 277
f 226 278 229
f 226 229 227
f 229 278 279
f 229 279 280
f 229 280 230
f 244 282 283
f 244 283 245
f 245 283 284
f 245 284 246
f 246 284 285
f 246 285 247
f 247 285 248
f 248 285 249
f 249 285 286
f 249 286 287
f 249 287 250
f 250 287 288
f 250 288 251
f 251 288 289
f 251 289 252
f 252 289 290
f 252 290 253
f 253 290 254
f 254 290 291
f 254 291 292
f 254 292 255
f 255 292 256
f 256 292 257
f 257 292 293
f 257 293 294
f 257 294 258
f 258 294 259
f 259 295 324
f 259 324 296
f 259 296 260
f 259 294 295
f 260 296 261
f 261 296 324
f 261 324 297
f 261 297 298
f 261 298 262
f 262 298 263
f 263 298 299
f 263 299 300
f 263 300 264
f 264 300 301
f 264 301 265
f 265 301 266
f 266 301 302
f 266 302 303
f 266 303 267
f 267 303 302
f 267 302 304
f 267 304 305
f 267 305 268
f 268 305 306
f 268 306 269
f 269 306 325
f 269 325 307
f 269 307 270
f 270 307 271
f 271 308 272
f 271 307 309
f 271 309 308
f 272 308 273
f 273 308 310
f 273 310 311
f 273 311 274
f 275 311 312
f 276 312 313
f 276 313 314
f 276 314 315
f 276 315 277
f 277 315 314
f 279 316 317
f 279 317 280
f 280 317 318
f 280 318 319
f 280 319 320
f 286 288 287
f 288 321 289
f 289 321 290
f 290 321 322
f 290 322 291
f 293 323 294
f 294 323 295
f 302 305 304
f 307 325 309
f 310 326 311
f 311 326 327
f 311 327 312
f 312 328 313
f 312 327 328
f 313 328 329
f 313 329 330
f 313 330 314
f 316 331 317
f 317 331 318
f 318 331 340
f 318 340 332
f 318 332 333
f 318 333 334
f 318 334 319
f 319 334 320
f 320 334 333
f 320 333 335
f 328 336 329
f 328 337 338
f 328 338 336
f 329 336 338
f 329 338 339
f 332 340 341
f 332 341 333
f 333 341 342
f 333 342 335
f 337 343 344
f 337 344 338
f 338 345 346
f 338 346 339
f 338 344 347
f 338 347 348
f 338 348 349
f 338 349 345
f 341 350 351
f 341 351 342
f 342 351 359
f 342 359 352
f 343 348 344
f 344 348 347
f 345 349 353
f 348 354 355
f 348 355 356
f 348 356 349
f 349 356 357
f 349 357 353
f 350 358 359
f 350 359 351
f 352 360 361
f 352 361 362
f 352 359 360
f 354 363 355
f 355 363 364
f 355 364 365
f 355 365 366
f 355 366 356
f 356 366 357
f 358 367 368
f 358 368 360
f 358 360 359
f 360 368 361
f 361 368 369
f 361 369 370
f 361 370 371
f 361 371 362
f 363 372 373
f 363 373 364
f 364 366 365
f 364 373 366
f 366 373 374
f 367 375 368
f 368 375 369
f 369 376 370
f 370 376 382
f 370 382 377
f 370 377 371
f 371 377 378
f 372 379 373
f 373 379 380
f 373 380 381
f 373 381 374
f 377 382 389
f 377 389 383
f 377 383 378
f 378 383 384
f 378 384 385
f 379 386 380
f 380 386 387
f 380 387 388
f 380 388 381
f 383 389 395
f 383 395 390
f 383 390 384
f 384 390 391
f 384 391 385
f 386 392 394
f 386 394 388
f 386 388 387
f 386 393 392
f 390 395 401
f 390 401 396
f 390 396 397
f 390 397 391
f 392 398 394
f 392 393 398
f 393 399 398
f 394 398 400
f 396 401 410
f 396 410 402
f 396 402 403
f 396 403 397
f 397 403 404
f 398 399 405
f 398 405 406
f 398 406 400
f 399 407 408
f 399 408 409
f 399 409 405
f 402 410 411
f 402 411 403
f 403 411 412
f 403 412 413
f 403 413 404
f 405 409 406
f 407 414 408
f 408 414 415
f 408 415 416
f 408 416 409
f 410 417 411
f 411 417 418
f 411 418 419
f 411 419 420
f 411 420 412
f 412 420 413
f 414 421 422
f 414 422 423
f 414 423 415
f 415 423 416
f 418 424 425
f 418 425 419
f 419 425 420
f 420 425 426
f 420 426 427
f 421 428 422
f 422 429 430
f 422 430 423
f 422 428 431
f 422 431 429
f 423 430 432
f 424 433 425
f 425 433 434
f 425 434 435
f 425 435 426
f 426 435 427
f 428 436 437
f 428 437 431
f 429 432 430
f 429 431 437
f 429 437 438
f 433 439 434
f 434 439 440
f 434 440 435
f 435 440 441
f 436 442 437
f 437 442 443
f 437 443 438
f 439 444 440
f 440 444 450
f 440 450 445
f 440 445 441
f 441 445 446
f 442 447 448
f 442 448 443
f 443 448 449
f 445 450 451
f 445 451 452
f 445 452 453
f 445 453 454
f 445 454 446
f 447 455 448
f 447 456 455
f 448 455 457
f 448 457 458
f 448 458 459
f 448 459 460
f 448 460 449
f 451 461 452
f 452 461 467
f 452 467 462
f 452 462 453
f 453 462 454
f 454 462 463
f 455 456 464
f 455 464 465
f 455 465 457
f 457 465 466
f 457 466 458
f 458 466 459
f 462 467 466
f 462 466 465
f 462 465 464
f 462 464 463

