# https://github.com/mikedh/trimesh
v -26.06291139 -7.72760456 20.52444607
v -25.91747979 -8.49761841 20.52444607
v -24.75402364 -5.51445143 23.83977532
v -24.75402364 -5.49405371 23.83977532
v -24.75147152 5.51561731 23.83850992
v -26.03484625 6.86696666 20.52381337
v -23.88908708 -8.40582890 23.93788040
v -23.98859197 -7.78879729 24.10877585
v -24.10085583 -6.89639715 24.35625464
v -16.88028837 -21.46547091 20.52381337
v -24.92241943 -11.16972034 20.52444607
v -23.88398284 -6.60572981 24.79741275
v -23.88398284 6.14794689 24.79804546
v -23.88398284 6.60689569 24.79804546
v -24.09830535 6.89756344 24.35688734
v -25.92768500 7.78996358 20.52381337
v -23.69772876 -7.78879729 24.56639081
v -23.17213261 -9.60929451 24.32777315
v -22.84044528 -9.91016050 24.65879828
v -23.55995024 -8.70669489 24.26257849
v -23.79468316 -7.21766127 24.70563471
v -15.89033062 -22.30687780 20.52381337
v -16.51032904 -19.25231737 23.85117054
v -17.45691219 -18.36501655 23.89547616
v -18.37032760 -17.45221910 23.89547616
v -22.30974654 -15.89179245 20.52444607
v -24.04217178 -13.03611149 20.52444607
v -23.04200882 -10.35381091 24.04738069
v -19.88588149 -0.45581604 26.98991001
v -23.07772869 -8.70669489 24.87906098
v -23.23846975 -7.78879729 24.98033285
v -23.44513590 -6.89639715 25.01577735
v -23.44513590 6.89756344 25.01577735
v -23.23846975 7.78996358 24.98033285
v -23.07517821 8.70786118 24.87842828
v -23.79468316 7.21372823 24.70500201
v -19.88588149 0.46208151 26.98991001
v -23.98859197 7.78996358 24.10877585
v -23.88908708 8.40699437 23.93851638
v -24.93007416 10.53855705 20.52381337
v -22.96801860 -9.29822904 24.79551464
v -22.73073355 -10.60878297 24.32777315
v -21.92703152 -11.78165180 24.66702670
v -22.08522046 -11.17481967 24.82019663
v -13.25214306 -21.32778582 24.27966803
v -13.87214312 -21.16460410 23.96826327
v -14.06349981 -20.88923556 24.16320801
v -14.60695589 -20.11412156 24.70373660
v -15.17592663 -19.93564186 24.35625464
v -15.96687296 -19.42060006 24.20877904
v -13.04037431 -24.04068318 20.52381337
v -16.22456843 -19.00754479 24.46132272
v -17.18646104 -18.11514464 24.50626105
v -17.78604740 -17.77858255 24.19928521
v -18.11773473 -17.18194989 24.50626105
v -18.69180808 -16.84538615 24.17839944
v -19.26077882 -16.50882405 23.85117054
v -19.42662248 -15.96318466 24.20814633
v -19.27608663 -15.61132458 24.77082938
v -20.12061441 -14.60163665 24.70373660
v -20.48546785 -14.35176474 24.45119619
v -21.16670245 -13.87241823 23.96952868
v -21.32999564 -13.25538744 24.28093344
v -22.13624978 -12.15901015 24.05624181
v -22.30719442 -11.47058633 24.33346748
v -19.83230168 -1.41960845 26.98927730
v -19.74810297 -2.34260547 26.98927730
v -19.63328863 -3.26050307 26.98927730
v -19.46999708 -4.17840046 26.98927730
v -19.32456547 -4.82602843 26.98927730
v -19.20719901 -5.25947978 26.98927730
v -18.98267293 -6.01419565 26.98927730
v -18.68415335 -6.92699393 26.98927730
v -18.44176734 -7.55422336 26.98927730
v -18.25040901 -7.98767512 26.98927730
v -17.89320866 -8.75768979 26.98927730
v -17.56407345 -9.41041668 26.98927730
v -17.31913531 -9.84386844 26.98927730
v -16.87773624 -10.58328551 26.98927730
v -16.56646097 -11.08303015 26.98927730
v -16.25773618 -11.51138176 26.98927730
v -15.78061724 -12.15391000 26.98927730
v -15.43362210 -12.58736176 26.98927730
v -14.95140055 -13.15339846 26.98927730
v -14.57123602 -13.58685021 26.98927730
v -14.08135975 -14.07639620 26.98927730
v -13.58638169 -14.56594137 26.98927730
v -13.15518865 -14.94839904 26.98927730
v -12.59642394 -15.43284488 26.98927730
v -12.16523090 -15.77960563 26.98927730
v -11.51971700 -16.25385282 26.98927730
v -11.08597266 -16.55981896 26.98927730
v -10.59354508 -16.87598375 26.98927730
v -9.85618019 -17.31453401 26.98927730
v -9.42243585 -17.56440592 26.98927730
v -8.77181852 -17.89076937 26.98927730
v -7.99873376 -18.24773041 26.98927730
v -7.56498942 -18.44150809 26.98927730
v -6.93478415 -18.68628067 26.98927730
v -6.02647217 -18.98204816 26.98927730
v -5.26869522 -19.20132411 26.98927730
v -4.84515691 -19.32370958 26.98927730
v -4.18943698 -19.47159332 26.98927730
v -3.26836849 -19.63477505 26.98927730
v -2.35495308 -19.74696350 26.98927730
v -1.38285609 -19.83875302 26.98927730
v -0.51791871 -19.88464696 26.98927730
v 0.00257483 -0.45581604 26.98991001
v -22.50365699 -9.60929451 24.99678642
v -22.46028239 -8.70669489 25.21578372
v -22.46028239 -7.78879729 25.34806788
v -19.83485216 1.37997900 26.98991001
v -19.75065509 2.29277707 26.98991001
v -19.63839123 3.21067466 26.98991001
v -19.47765017 4.12347293 26.98991001
v -19.32456547 4.82719431 26.98991001
v -22.45773027 7.78996358 25.34743518
v -22.45773027 8.70786118 25.21451831
v -22.50365699 9.61045998 24.99615371
v -22.96801860 9.29939533 24.79614735
v -23.69517827 7.78996358 24.56702352
v -23.55995024 8.70786118 24.26194578
v -23.17213261 9.61045998 24.32777315
v -23.04200882 10.35497720 24.04738069
v -24.05493075 12.36925210 20.52381337
v -22.23575467 -10.53739076 24.91957039
v -21.78670252 -12.42418003 24.33346748
v -20.94472850 -13.53585613 24.58031356
v -21.14118779 -12.92392467 24.79741275
v -21.30192885 -12.36808662 24.89994675
v -21.59024158 -11.47058633 25.01324326
v -13.53535319 -20.94023046 24.57904816
v -12.16523090 -22.13349578 24.05624181
v -12.43058028 -21.78163571 24.33220208
v -11.79016979 -21.92442012 24.66639400
v -13.65782225 -20.88923556 24.53917474
v -13.99461219 -20.32319886 24.86577094
v -15.38769701 -19.35940650 24.82209802
v -15.61222309 -19.26761699 24.77146208
v -12.93066258 -21.13910747 24.79678005
v -11.17527315 -24.92288468 20.52381337
v -10.36136428 -23.04119555 24.04801339
v -10.62161105 -22.73013008 24.32840586
v -11.47379110 -22.30687780 24.33220208
v -16.57666618 -18.40071348 24.79994357
v -17.50794152 -17.50321401 24.81007010
v -18.40094486 -16.57511694 24.79994357
v -19.01073808 -16.22325686 24.46132272
v -18.74028528 -15.96318466 24.90248084
v -19.46489448 -15.11668009 24.88095909
v -20.32983104 -13.98970601 24.86577094
v -21.54176438 -10.53739076 25.26452154
v -20.62579686 -12.36808662 25.23287326
v -19.70217789 -13.28598422 25.34680247
v -18.78876248 -15.11668009 25.19742876
v -17.87279660 -16.03457687 25.24933010
v -16.95683071 -16.94737596 25.26705235
v -16.03576222 -17.86527273 25.24933010
v -15.11979634 -18.78317115 25.19742876
v -13.28786375 -19.70106793 25.34680247
v -12.37444917 -20.61386538 25.23224056
v -10.54506788 -21.54196245 25.26515424
v -8.71568741 -22.45475990 25.21451831
v -7.79717023 -22.45475990 25.34743518
v -6.90671818 -23.44405052 25.01641005
v 0.00257483 -19.88464696 26.98927730
v -6.61585415 -23.88260079 24.79804546
v 0.00257483 19.88071474 26.98991001
v -18.99542863 5.95416839 26.98991001
v -18.69946280 6.87206599 26.98991001
v -21.54176438 10.53855705 25.26452154
v -18.44431782 7.55538965 26.98991001
v -22.23320419 10.53855705 24.91957039
v -22.08266998 11.17088581 24.82019663
v -22.83789480 9.90622747 24.65816557
v -22.72818143 10.60994844 24.32777315
v -21.92703152 11.78281809 24.66702670
v -22.30464393 11.46665330 24.33283478
v -22.13369766 12.15507629 24.05624181
v -22.98077429 14.20504811 20.52381337
v -20.48546785 -13.62254632 24.91766900
v -20.63345158 -13.25538744 24.96893764
v -9.91486261 -22.83721757 24.65753287
v -11.17782446 -22.08250252 24.81956393
v -13.08630021 -20.88923556 24.88032639
v -13.25214306 -20.62406567 24.96703953
v -14.25996074 -19.76226148 25.04805505
v -15.11979634 -19.46139467 24.88349319
v -15.96687296 -18.73217625 24.90248084
v -12.37444917 -21.29718987 24.89931405
v -8.50391785 -25.91217530 20.52381337
v -8.41206605 -23.88770011 23.93914908
v -9.62144727 -23.16868034 24.32840586
v -16.91345612 -17.82957745 24.93159503
v -17.83452624 -16.90657971 24.93159503
v -19.76851502 -14.25487590 25.04805505
v -15.38769701 -18.77297086 25.10565400
v -12.37444917 -20.88923556 25.09995639
v -11.47379110 -21.58785802 25.01197785
v -10.54506788 -22.23548559 24.92020309
v -9.62144727 -22.50065548 24.99552101
v -8.71568741 -23.07179150 24.87842828
v -7.79717023 -23.23497323 24.98096555
v -6.15149254 -23.88260079 24.79804546
v -5.54169932 -23.80610925 24.73791569
v -5.49832473 -24.74950430 23.83914262
v -5.44474410 -24.78520123 23.37709874
v -5.38350957 -25.12686265 20.52381337
v 0.00257483 -20.10902223 24.28852916
v -7.22564736 -23.79591060 24.70500201
v -6.90671818 -24.09677741 24.35688734
v -5.52894199 -24.74950430 23.83914262
v 0.00257483 19.92660868 26.12405062
v -5.32482715 25.02603995 20.52381337
v -5.89379707 25.52068445 20.52381337
v -5.44474410 24.78126737 23.37709874
v -5.49832473 24.74557045 23.84167671
v -5.54425063 23.79707771 24.73728299
v -6.15659555 23.87866857 24.79741275
v -0.46433808 19.88071474 26.98991001
v -21.28406892 11.75732064 25.08223414
v -21.59024158 11.46665330 25.01261055
v -17.91106859 8.70786118 26.98991001
v -17.56407345 9.41158297 26.98991001
v -20.61814377 12.36415277 25.23224056
v -21.28406892 12.39474955 24.90184814
v -21.28406892 12.43044565 24.88855481
v -21.13353306 12.91999082 24.79678005
v -21.28406892 12.81800265 24.69361007
v -21.32999564 13.25655374 24.28093344
v -21.78670252 12.42534633 24.33283478
v -21.28406892 13.42483478 24.19422358
v -21.15904773 13.86338505 23.96826327
v -22.33270908 15.12294489 20.52381337
v -9.30762069 -22.96470401 24.79614735
v -8.71568741 -23.55623734 24.26194578
v -7.79717023 -23.69392243 24.56765622
v -7.73593569 -26.06005741 20.52381337
v -7.79717023 -23.98968992 24.10940856
v -6.87610092 -26.02946145 20.52381337
v -6.62095716 -25.91217530 20.52381337
v -5.89379707 -25.52461830 20.52381337
v -2.84738066 -20.93003017 20.52381337
v 0.00257483 -20.04272935 21.52955264
v 0.00257483 20.04389646 21.46879017
v 0.00002353 20.02859684 23.37709874
v 0.00002353 20.00310021 24.28789645
v 0.00002353 19.96740493 25.20565718
v 0.00257483 20.04389646 20.52381337
v 0.00002353 20.04389646 22.45997071
v -6.87610092 26.03572625 20.52381337
v -5.52894199 24.74557045 23.84167671
v -6.61585415 23.87866857 24.79741275
v -1.38285609 19.82971984 26.98991001
v -6.90671818 23.44011667 25.01641005
v -16.89814830 10.53855705 26.98991001
v -19.70472837 13.28205037 25.34680247
v -19.76341242 14.25094205 25.04742235
v -20.62579686 13.25145359 24.96703953
v -16.56901145 11.08419563 26.98991001
v -20.32983104 13.99087149 24.86577094
v -20.11551017 14.59770444 24.70310390
v -20.93962425 13.53192228 24.57841545
v -20.34513885 14.90876826 24.09231901
v -19.25822670 16.50489020 23.85053784
v -20.17674470 17.86643821 20.52381337
v 0.00257483 -0.45581604 20.52381337
v -7.79717023 25.92353943 20.52381337
v -6.90671818 24.09284356 24.35688734
v -7.22819949 23.78177809 24.70373660
v -8.71568741 23.06785765 24.87842828
v -7.79717023 23.23103937 24.98096555
v -2.24779347 19.75322830 26.98991001
v -8.71568741 22.45082768 25.21451831
v -7.79717023 22.45082768 25.34680247
v -4.84770821 19.31977737 26.98991001
v -4.13330587 19.46765947 26.98991001
v -3.21478786 19.63084119 26.98991001
v -15.77806676 12.16017562 26.98991001
v -18.78110940 15.11274624 25.19679606
v -19.46489448 15.11274624 24.88032639
v -19.27608663 15.61249005 24.77082938
v -19.42662248 15.96435177 24.20751363
v -19.01073808 16.21932301 24.46195543
v -18.68670547 16.84655326 24.17903215
v -18.36522335 17.45338457 23.89547616
v -19.32966808 18.78433662 20.52381337
v -10.54506788 24.92405179 20.52381337
v -8.41461817 23.88376790 23.93914908
v -7.79717023 23.98065674 24.10940856
v -7.79717023 23.68998858 24.56702352
v -9.31017200 22.96077016 24.79551464
v -9.62399939 22.49672162 24.99362290
v -10.55017048 21.53802859 25.26452154
v -7.56753990 18.44267520 26.98991001
v -6.88375482 18.69764644 26.98991001
v -5.96523764 18.99851325 26.98991001
v -14.95140055 13.15456475 26.98991001
v -17.86769399 16.03064301 25.24933010
v -18.73773480 15.96435177 24.90311354
v -18.40094486 16.57118308 24.79931086
v -18.11518425 17.18821469 24.50626105
v -17.78349692 17.77974802 24.19865251
v -17.45180959 18.36618366 23.89547616
v -18.78110940 19.33507534 20.52381337
v -12.37189705 24.04694962 20.52381337
v -10.37157031 23.03216236 24.04801339
v -9.62399939 23.15964880 24.32840586
v -9.91741473 22.83328372 24.65753287
v -11.17782446 22.07346934 24.81829852
v -10.55017048 22.22645241 24.92020309
v -11.47379110 21.58392417 25.01134515
v -12.36934574 20.61503249 25.23224056
v -9.42243585 17.56047371 26.98991001
v -8.71568741 17.90723446 26.98991001
v -14.53041354 13.60331449 26.98991001
v -16.95172811 16.95364076 25.26705235
v -17.82687152 16.91284451 24.93159503
v -17.49773467 17.50437948 24.80943739
v -17.18646104 18.11631176 24.50626105
v -16.50777692 19.25348448 23.85053784
v -17.87279660 20.17138126 20.52381337
v -14.20127833 22.97606814 20.52381337
v -12.15757618 22.12446424 24.05624181
v -10.62161105 22.72619623 24.32840586
v -11.78761849 21.91538694 24.66639400
v -12.92811045 21.13007429 24.79678005
v -12.36934574 21.29325601 24.89678323
v -13.25214306 20.62523114 24.96703953
v -14.25741026 19.76852628 25.04742235
v -13.28531245 19.70223340 25.34680247
v -11.08342135 16.56098443 26.98991001
v -10.54506788 16.89244720 26.98991001
v -14.08135975 14.07756167 26.98991001
v -16.03576222 17.86643821 25.24933010
v -16.91090399 17.82564360 24.93159503
v -13.15518865 14.94956451 26.98991001
v -16.57411570 18.39677962 24.79931086
v -16.22456843 19.00871190 24.46195543
v -15.96432084 19.42176553 24.20751363
v -15.17082402 19.93680733 24.35688734
v -14.90037287 20.33966231 24.09231901
v -15.11979634 22.32844057 20.52381337
v -13.87469361 21.15557256 23.96826327
v -13.53535319 20.94139593 24.57841545
v -11.47379110 22.29274529 24.33093667
v -14.60695589 20.11018771 24.70373660
v -13.98950959 20.32946366 24.86577094
v -15.11724422 19.45746082 24.88349319
v -15.11724422 18.78433662 25.19679606
v -12.16267960 15.77567178 26.98991001
v -15.96432084 18.73844105 24.90311354
v -15.61222309 19.26878246 24.77146208
f 1 2 3
f 1 3 4
f 1 4 5
f 1 5 6
f 1 6 2
f 2 7 8
f 2 8 9
f 2 9 3
f 2 6 10
f 2 10 11
f 2 11 7
f 3 12 13
f 3 13 14
f 3 14 4
f 3 9 12
f 4 14 5
f 5 14 15
f 5 15 16
f 5 16 6
f 6 16 40
f 6 40 125
f 6 125 180
f 6 180 234
f 6 234 266
f 6 266 287
f 6 287 305
f 6 305 322
f 6 322 343
f 6 343 323
f 6 323 306
f 6 306 288
f 6 288 268
f 6 268 251
f 6 251 215
f 6 215 214
f 6 214 249
f 6 249 267
f 6 267 243
f 6 243 208
f 6 208 242
f 6 242 241
f 6 241 240
f 6 240 238
f 6 238 191
f 6 191 141
f 6 141 51
f 6 51 22
f 6 22 10
f 7 17 8
f 7 11 18
f 7 18 19
f 7 19 20
f 7 20 17
f 8 17 21
f 8 21 9
f 9 21 12
f 10 22 23
f 10 23 24
f 10 24 25
f 10 25 26
f 10 26 27
f 10 27 11
f 11 28 19
f 11 19 18
f 11 27 28
f 12 29 13
f 12 21 30
f 12 30 31
f 12 31 32
f 12 32 29
f 13 29 37
f 13 37 14
f 14 33 34
f 14 34 35
f 14 35 36
f 14 36 15
f 14 37 33
f 15 36 38
f 15 38 16
f 16 38 39
f 16 39 40
f 17 20 19
f 17 19 41
f 17 41 21
f 19 28 42
f 19 42 43
f 19 43 44
f 19 44 41
f 21 41 30
f 22 45 46
f 22 46 47
f 22 47 48
f 22 48 49
f 22 49 50
f 22 50 23
f 22 51 45
f 23 50 52
f 23 52 53
f 23 53 24
f 24 53 54
f 24 54 25
f 25 55 56
f 25 56 57
f 25 57 26
f 25 54 55
f 26 58 59
f 26 59 60
f 26 60 61
f 26 61 62
f 26 62 63
f 26 63 27
f 26 57 58
f 27 63 64
f 27 64 43
f 27 43 65
f 27 65 28
f 28 65 42
f 29 66 67
f 29 67 68
f 29 68 69
f 29 69 70
f 29 70 71
f 29 71 72
f 29 72 73
f 29 73 74
f 29 74 75
f 29 75 76
f 29 76 77
f 29 77 78
f 29 78 79
f 29 79 80
f 29 80 81
f 29 81 82
f 29 82 83
f 29 83 84
f 29 84 85
f 29 85 86
f 29 86 87
f 29 87 88
f 29 88 89
f 29 89 90
f 29 90 91
f 29 91 92
f 29 92 93
f 29 93 94
f 29 94 95
f 29 95 96
f 29 96 97
f 29 97 98
f 29 98 99
f 29 99 100
f 29 100 101
f 29 101 102
f 29 102 103
f 29 103 104
f 29 104 105
f 29 105 106
f 29 106 107
f 29 107 166
f 29 166 108
f 29 108 168
f 29 168 220
f 29 220 254
f 29 254 273
f 29 273 278
f 29 278 277
f 29 277 276
f 29 276 297
f 29 297 296
f 29 296 295
f 29 295 315
f 29 315 314
f 29 314 333
f 29 333 332
f 29 332 351
f 29 351 337
f 29 337 334
f 29 334 316
f 29 316 298
f 29 298 279
f 29 279 260
f 29 260 256
f 29 256 224
f 29 224 223
f 29 223 172
f 29 172 170
f 29 170 169
f 29 169 116
f 29 116 115
f 29 115 114
f 29 114 113
f 29 113 112
f 29 112 37
f 29 32 66
f 30 41 109
f 30 109 110
f 30 110 31
f 31 110 32
f 32 110 111
f 32 111 70
f 32 70 69
f 32 69 68
f 32 68 67
f 32 67 66
f 33 37 112
f 33 112 113
f 33 113 114
f 33 114 115
f 33 115 116
f 33 116 117
f 33 117 118
f 33 118 34
f 34 118 35
f 35 118 119
f 35 119 120
f 35 120 36
f 36 120 121
f 36 121 38
f 38 121 39
f 39 121 122
f 39 122 123
f 39 123 124
f 39 124 40
f 40 124 125
f 41 44 126
f 41 126 109
f 42 65 43
f 43 64 127
f 43 127 63
f 43 63 128
f 43 128 129
f 43 129 44
f 44 129 130
f 44 130 131
f 44 131 126
f 45 132 46
f 45 51 133
f 45 133 134
f 45 134 135
f 45 135 132
f 46 132 136
f 46 136 47
f 47 136 48
f 48 137 138
f 48 138 139
f 48 139 49
f 48 136 132
f 48 132 140
f 48 140 137
f 49 139 50
f 50 139 52
f 51 141 142
f 51 142 143
f 51 143 144
f 51 144 135
f 51 135 133
f 52 139 145
f 52 145 53
f 53 146 55
f 53 55 54
f 53 145 146
f 55 147 148
f 55 148 56
f 55 146 147
f 56 148 57
f 57 148 59
f 57 59 58
f 59 148 147
f 59 147 149
f 59 149 150
f 59 150 151
f 59 151 60
f 60 151 129
f 60 129 128
f 60 128 61
f 61 128 62
f 62 128 63
f 63 127 64
f 70 111 71
f 71 111 72
f 72 111 73
f 73 111 110
f 73 110 74
f 74 110 152
f 74 152 75
f 75 152 76
f 76 152 77
f 77 152 153
f 77 153 78
f 78 153 79
f 79 153 80
f 80 153 154
f 80 154 81
f 81 154 155
f 81 155 82
f 82 155 83
f 83 155 156
f 83 156 84
f 84 156 85
f 85 156 157
f 85 157 86
f 86 157 87
f 87 157 158
f 87 158 88
f 88 158 89
f 89 158 159
f 89 159 90
f 90 159 160
f 90 160 91
f 91 160 92
f 92 160 161
f 92 161 93
f 93 161 94
f 94 161 95
f 95 161 162
f 95 162 96
f 96 162 97
f 97 162 98
f 98 162 163
f 98 163 99
f 99 163 164
f 99 164 100
f 100 164 101
f 101 164 102
f 102 164 165
f 102 165 103
f 103 165 104
f 104 165 105
f 105 165 106
f 106 165 107
f 107 165 167
f 107 167 204
f 107 204 166
f 108 166 209
f 108 209 244
f 108 244 267
f 108 267 249
f 108 249 245
f 108 245 213
f 108 213 168
f 109 126 152
f 109 152 110
f 116 169 117
f 117 169 170
f 117 170 118
f 118 171 119
f 118 170 172
f 118 172 171
f 119 171 173
f 119 173 120
f 120 173 174
f 120 174 175
f 120 175 121
f 121 175 122
f 122 175 123
f 123 175 124
f 124 175 176
f 124 176 177
f 124 177 178
f 124 178 179
f 124 179 125
f 125 179 180
f 126 131 152
f 129 151 181
f 129 181 182
f 129 182 130
f 130 182 153
f 130 153 131
f 131 153 152
f 132 135 140
f 133 135 134
f 135 144 143
f 135 143 183
f 135 183 184
f 135 184 140
f 137 140 185
f 137 185 186
f 137 186 187
f 137 187 188
f 137 188 138
f 138 188 189
f 138 189 139
f 139 189 145
f 140 190 185
f 140 184 190
f 141 191 192
f 141 192 193
f 141 193 142
f 142 193 183
f 142 183 143
f 145 189 194
f 145 194 146
f 146 194 195
f 146 195 147
f 147 195 149
f 149 155 150
f 149 195 156
f 149 156 155
f 150 155 196
f 150 196 151
f 151 196 181
f 153 182 196
f 153 196 154
f 154 196 155
f 156 195 157
f 157 195 194
f 157 194 158
f 158 194 197
f 158 197 159
f 159 197 188
f 159 188 187
f 159 187 160
f 160 187 161
f 161 187 186
f 161 186 198
f 161 198 199
f 161 199 162
f 162 199 200
f 162 200 201
f 162 201 163
f 163 201 202
f 163 202 203
f 163 203 165
f 163 165 164
f 165 203 167
f 166 204 205
f 166 205 206
f 166 206 207
f 166 207 208
f 166 208 209
f 167 203 202
f 167 202 210
f 167 210 211
f 167 211 212
f 167 212 206
f 167 206 204
f 168 213 214
f 168 214 215
f 168 215 216
f 168 216 217
f 168 217 218
f 168 218 219
f 168 219 253
f 168 253 220
f 171 221 222
f 171 222 173
f 171 172 223
f 171 223 224
f 171 224 225
f 171 225 221
f 173 222 174
f 174 222 226
f 174 226 227
f 174 227 228
f 174 228 177
f 174 177 175
f 175 177 176
f 177 228 229
f 177 229 230
f 177 230 231
f 177 231 179
f 177 179 178
f 179 231 230
f 179 230 232
f 179 232 233
f 179 233 180
f 180 233 234
f 181 196 182
f 183 235 184
f 183 193 192
f 183 192 236
f 183 236 237
f 183 237 235
f 184 235 200
f 184 200 199
f 184 199 190
f 185 190 186
f 186 190 198
f 188 197 189
f 189 197 194
f 190 199 198
f 191 238 212
f 191 212 211
f 191 211 239
f 191 239 192
f 192 239 237
f 192 237 236
f 200 235 201
f 201 235 202
f 202 235 210
f 204 206 205
f 206 212 238
f 206 238 240
f 206 240 241
f 206 241 242
f 206 242 207
f 207 242 208
f 208 243 244
f 208 244 209
f 210 239 211
f 210 235 237
f 210 237 239
f 213 245 246
f 213 246 247
f 213 247 248
f 213 248 214
f 214 248 247
f 214 247 246
f 214 246 250
f 214 250 245
f 214 245 249
f 215 251 217
f 215 217 216
f 217 251 252
f 217 252 253
f 217 253 219
f 217 219 218
f 220 253 255
f 220 255 254
f 221 225 226
f 221 226 222
f 224 256 225
f 225 257 258
f 225 258 259
f 225 259 226
f 225 256 260
f 225 260 257
f 226 259 228
f 226 228 227
f 228 259 261
f 228 261 262
f 228 262 263
f 228 263 229
f 229 263 230
f 230 263 232
f 232 263 233
f 233 263 262
f 233 262 264
f 233 264 234
f 234 265 266
f 234 264 265
f 243 267 244
f 245 250 246
f 251 268 252
f 252 268 269
f 252 269 253
f 253 270 271
f 253 271 272
f 253 272 255
f 253 269 270
f 254 255 273
f 255 272 274
f 255 274 275
f 255 275 276
f 255 276 277
f 255 277 278
f 255 278 273
f 257 260 279
f 257 279 280
f 257 280 258
f 258 281 261
f 258 261 259
f 258 280 281
f 261 281 282
f 261 282 262
f 262 282 264
f 264 282 283
f 264 283 265
f 265 283 282
f 265 282 284
f 265 284 285
f 265 285 286
f 265 286 266
f 266 286 287
f 268 288 289
f 268 289 290
f 268 290 269
f 269 290 270
f 270 291 292
f 270 292 271
f 270 290 291
f 271 292 293
f 271 293 274
f 271 274 272
f 274 293 294
f 274 294 295
f 274 295 296
f 274 296 275
f 275 296 297
f 275 297 276
f 279 298 299
f 279 299 280
f 280 299 300
f 280 300 281
f 281 300 282
f 282 300 301
f 282 301 302
f 282 302 284
f 284 302 285
f 285 302 286
f 286 302 303
f 286 303 304
f 286 304 305
f 286 305 287
f 288 306 307
f 288 307 289
f 289 307 308
f 289 308 309
f 289 309 291
f 289 291 290
f 291 309 292
f 292 309 310
f 292 310 311
f 292 311 293
f 293 311 294
f 294 311 312
f 294 312 313
f 294 313 314
f 294 314 315
f 294 315 295
f 298 316 317
f 298 317 299
f 299 317 318
f 299 318 300
f 300 318 301
f 301 318 319
f 301 319 302
f 302 319 320
f 302 320 303
f 303 320 304
f 304 321 322
f 304 322 305
f 304 320 321
f 306 323 324
f 306 324 307
f 307 325 309
f 307 309 308
f 307 324 325
f 309 325 326
f 309 326 310
f 310 326 327
f 310 327 328
f 310 328 312
f 310 312 311
f 312 328 313
f 313 328 329
f 313 329 330
f 313 330 331
f 313 331 332
f 313 332 333
f 313 333 314
f 316 334 317
f 317 335 336
f 317 336 318
f 317 334 337
f 317 337 335
f 318 336 319
f 319 336 338
f 319 338 320
f 320 338 339
f 320 339 321
f 321 339 340
f 321 340 341
f 321 341 342
f 321 342 343
f 321 343 322
f 323 343 344
f 323 344 324
f 324 344 345
f 324 345 326
f 324 326 346
f 324 346 325
f 325 346 326
f 326 345 327
f 327 345 347
f 327 347 348
f 327 348 329
f 327 329 328
f 329 348 330
f 330 349 350
f 330 350 331
f 330 348 349
f 331 350 351
f 331 351 332
f 335 337 351
f 335 351 350
f 335 350 352
f 335 352 336
f 336 352 338
f 338 352 353
f 338 353 339
f 339 353 340
f 340 353 341
f 341 353 347
f 341 347 342
f 342 347 344
f 342 344 343
f 344 347 345
f 347 353 348
f 348 353 349
f 349 353 352
f 349 352 350

