# https://github.com/mikedh/trimesh
v 4.81556034 3.62152613 12.98752695
v 4.81556034 3.62152613 14.15522516
v 4.81556034 35.16684788 12.98752695
v 20.23202708 -29.15614349 11.81156754
v 4.81787888 -35.15953404 12.98752695
v 4.81787888 -35.16641838 13.29149336
v 4.81556034 35.15996354 14.15522516
v 4.81787888 -35.15953404 14.15522516
v 5.04275082 35.13242620 14.15522516
v 5.04275082 35.13242620 12.98752695
v 20.23202708 29.16346389 11.81156754
v 20.62381467 -28.88076347 11.81156754
v 20.62381467 -28.88076347 12.98729748
v 20.07438561 -29.26629943 14.15522516
v 20.07438561 -29.26629943 12.98752695
v 19.57595801 -29.60364503 14.15522516
v 19.61768692 -29.56922335 12.98752695
v 18.91061639 -30.03049356 12.98752695
v 18.44928062 -30.31964881 12.98752695
v 17.86971455 -30.66387874 12.98752695
v 17.19973585 -31.04253036 12.98752695
v 16.74071943 -31.29726392 12.98752695
v 16.04292145 -31.65526253 12.98752695
v 15.82500434 -31.76541847 12.98752695
v 15.38453301 -31.98572380 12.98752695
v 15.07852262 -32.13030142 12.98752695
v 14.69137212 -32.30930072 12.98752695
v 14.21149125 -32.52960605 12.98752695
v 13.42096290 -32.86006731 12.98752695
v 12.96426421 -33.04595751 12.98752695
v 12.76721155 -33.12168521 12.98752695
v 12.07173212 -33.37641877 12.98752695
v 11.46202823 -33.58983976 12.98752695
v 11.22092893 -33.67245835 12.98752695
v 10.74104806 -33.83079809 12.98752695
v 10.43503603 -33.92718536 12.98752695
v 9.62364322 -34.16126591 12.98752695
v 9.31995055 -34.24387795 12.98752695
v 8.71256521 -34.40222425 12.98752695
v 7.79221384 -34.62252957 12.98752695
v 7.55575081 -34.67761082 12.98752695
v 7.08282476 -34.77399153 12.98752695
v 6.62612608 -34.86349446 12.98752695
v 5.95846592 -34.98741907 12.98752695
v 5.04043227 -35.13199669 12.98752695
v 5.04043227 -35.13199669 14.15522516
v 5.99787628 34.98096424 14.15522516
v 6.18101930 34.95342689 12.98752695
v 6.62380753 34.87081486 12.98752695
v 6.93213729 34.80884927 12.98752695
v 7.31928779 34.72623723 12.98752695
v 7.79453238 34.62296563 12.98752695
v 8.71256521 34.40266031 12.98752695
v 9.62596176 34.15481108 12.98752695
v 10.28203165 33.96892744 12.98752695
v 10.58804205 33.87254017 12.98752695
v 10.97751027 33.74861556 12.98752695
v 11.45971050 33.59026926 12.98752695
v 12.57247744 33.19096464 12.98752695
v 12.95962794 33.03950268 12.98752695
v 13.42328062 32.85361904 12.98752695
v 14.21149125 32.52315777 12.98752695
v 14.92783597 32.19958084 12.98752695
v 15.38453301 31.98615330 12.98752695
v 16.04060372 31.65569204 12.98752695
v 16.74303716 31.29080909 12.98752695
v 17.19973585 31.04296642 12.98752695
v 17.86971455 30.66430825 12.98752695
v 18.45159834 30.32007831 12.98752695
v 18.90829703 30.03092306 12.98752695
v 19.61768692 29.57653719 12.98752695
v 20.07670334 29.27361327 12.98752695
v 20.07670334 29.27361327 13.29149336
v 20.80463832 28.75038403 12.98752695
v 21.17787918 28.48188835 12.98729748
v 21.17787918 28.48188835 11.81156754
v 21.17556145 -28.48145229 11.81156754
v 21.17556145 -28.48145229 14.15522516
v 18.91061639 -30.03049356 14.15522516
v 18.47709989 -30.29898924 14.15522516
v 17.86971455 -30.66387874 14.15522516
v 17.19973585 -31.04253036 14.15522516
v 16.70362761 -31.31791693 14.15522516
v 16.04292145 -31.65526253 14.15522516
v 15.38453301 -31.98572380 14.15522516
v 14.89074251 -32.21979779 14.15522516
v 14.21149125 -32.52960605 14.15522516
v 13.42096290 -32.86006731 14.15522516
v 12.99208349 -33.03907317 14.15522516
v 12.37542478 -33.26626283 13.29149336
v 11.41798159 -33.60360843 14.15522516
v 12.37542478 -33.26626283 14.15522516
v 10.74104806 -33.83079809 14.15522516
v 10.24493901 -33.98226005 14.15522516
v 9.57032321 -34.17503459 14.15522516
v 8.71256521 -34.40222425 14.15522516
v 7.75048492 -34.62941391 14.15522516
v 7.08282476 -34.77399153 14.15522516
v 6.62612608 -34.86349446 14.15522516
v 5.95846592 -34.98741907 13.29149336
v 5.90514591 -34.99430341 14.15522516
v 6.62380753 34.87081486 14.15522516
v 7.05732321 34.78131193 14.15522516
v 7.84785239 34.60919696 14.15522516
v 8.71256521 34.40266031 14.15522516
v 9.66769068 34.14792674 14.15522516
v 10.28203165 33.96892744 13.29149336
v 10.78277698 33.81058114 14.15522516
v 11.51302969 33.56961625 14.15522516
v 12.41019888 33.25292366 14.15522516
v 12.95962794 33.03950268 14.15522516
v 13.39546135 32.86738771 14.15522516
v 14.25322017 32.50250476 14.15522516
v 14.92783597 32.19958084 14.15522516
v 15.36135083 31.99992853 14.15522516
v 16.08233100 31.64192336 14.15522516
v 16.74303716 31.29080909 14.15522516
v 17.23914703 31.02230686 14.15522516
v 18.45159834 30.32007831 14.15522516
v 19.61768692 29.57653719 14.15522516
v 20.07206624 29.27361327 14.15522516
v 20.61917758 28.88119298 14.15522516
v 21.17556145 28.48188835 14.15522516
v 21.63457787 28.13076752 14.15522516
v 21.63457787 28.13076752 11.81156754
v 21.63457787 -28.13033802 11.81156754
v 21.63457787 -28.13033802 14.15522516
v 10.27971229 33.96892744 14.15522516
v 22.21878102 27.66949731 14.15522516
v 22.22109875 27.66949731 12.98729748
v 21.99622681 27.84850317 11.81156754
v 22.21878102 -27.67595214 11.81156754
v 22.18400693 -27.70348949 14.15522516
v 22.67547971 27.29773002 14.15522516
v 22.67779743 27.29773002 11.81156754
v 22.22109875 27.66949731 11.81156754
v 22.50392860 -27.44187487 11.81156754
v 22.21878102 -27.67595214 12.98729748
v 22.67779743 -27.29729724 14.15522516
v 23.21795395 26.83646145 14.15522516
v 23.22027167 26.83646145 12.98729748
v 23.01162874 27.01546076 11.81156754
v 22.88875973 -27.12518227 11.81156754
v 23.22027167 -26.84291301 14.15522516
v 23.67697036 26.44403788 14.15522516
v 23.22027167 26.83646145 11.81156754
v 23.22027167 -26.84291301 11.81156754
v 23.67928809 -26.44360510 12.98729748
v 23.67697036 -26.43672076 14.15522516
v 24.65759655 25.52838343 14.15522516
v 24.17539632 25.98276767 11.81156754
v 23.67697036 26.44403788 12.98752695
v 23.39414215 26.68499949 11.81156754
v 23.67928809 -26.44360510 11.81156754
v 24.17771569 -25.98233489 12.98729748
v 24.63441437 -25.55548963 14.15522516
v 24.20089787 -25.95479754 14.15522516
v 25.09574851 25.09465220 14.15522516
v 25.09574851 25.09465220 11.81156754
v 24.63441437 25.54903808 11.81156754
v 23.67697036 26.43715354 11.81156754
v 24.17771569 -25.98233489 11.81156754
v 24.63441437 -25.55548963 12.98752695
v 25.12588715 -25.06668207 14.15522516
v 25.55476492 24.63338363 14.15522516
v 25.55476492 24.63338363 12.98752695
v 25.55476492 24.62649929 11.81156754
v 24.45590680 -25.72072027 11.81156754
v 24.81292030 -25.37648869 11.81156754
v 25.09806788 -25.09421942 11.81156754
v 25.55476492 -24.63295085 11.81156754
v 25.55476492 -24.63295085 14.15522516
v 26.44266075 23.67642152 14.15522516
v 26.44497847 23.67642152 13.29080492
v 26.29197245 23.84165215 12.98752695
v 25.98364433 24.17211341 11.81156754
v 25.98828143 -24.17168063 11.81156754
v 25.98828143 -24.17168063 12.98729748
v 26.01378297 -24.14414165 14.15522516
v 26.84372088 23.21515131 14.15522516
v 26.44497847 23.67642152 12.98752695
v 26.16215026 23.97934380 11.81156754
v 26.44497847 -23.67598874 11.81156754
v 26.44497847 -23.67598874 14.15522516
v 26.84372088 23.21515131 11.81156754
v 27.27491802 22.70568910 14.15522516
v 26.44497847 23.66953718 11.81156754
v 26.84604025 -23.21471852 11.81156754
v 26.82285642 -23.24225751 14.15522516
v 27.30273729 22.67126742 11.81156754
v 27.67597651 22.21688154 14.15522516
v 27.53456568 22.39588248 11.81156754
v 27.30273729 -22.67771897 11.81156754
v 27.30273729 -22.67771897 14.15522516
v 28.13499456 21.63168999 12.98729748
v 27.67597651 22.21688154 11.81156754
v 28.15586066 21.60415101 14.15522516
v 27.65743142 -22.24398774 14.15522516
v 27.67829752 -22.21644876 11.81156754
v 28.35291004 21.34941908 11.81156754
v 28.13499456 21.63168999 11.81156754
v 28.43173241 21.24615076 14.15522516
v 28.13731229 -21.63125721 11.81156754
v 28.13731229 -21.63125721 14.15522516
v 28.43636787 21.23926642 11.81156754
v 28.43636787 21.23926642 12.98729748
v 28.45028078 -3.55913145 14.15522516
v 28.49896288 -3.50405471 12.98729748
v 28.49896288 -21.16310266 11.81156754
v 28.49896288 -21.16310266 12.98729748
v 28.45028078 -21.21817899 14.15522516
v 28.49896288 -3.47651613 11.81156754
f 1 2 7
f 1 7 3
f 1 3 11
f 1 11 4
f 1 4 5
f 1 5 6
f 1 6 2
f 2 6 8
f 2 8 46
f 2 46 101
f 2 101 99
f 2 99 98
f 2 98 97
f 2 97 96
f 2 96 95
f 2 95 94
f 2 94 93
f 2 93 91
f 2 91 92
f 2 92 89
f 2 89 88
f 2 88 87
f 2 87 86
f 2 86 85
f 2 85 84
f 2 84 83
f 2 83 82
f 2 82 81
f 2 81 80
f 2 80 79
f 2 79 16
f 2 16 14
f 2 14 78
f 2 78 127
f 2 127 133
f 2 133 139
f 2 139 144
f 2 144 149
f 2 149 157
f 2 157 156
f 2 156 164
f 2 164 172
f 2 172 179
f 2 179 184
f 2 184 189
f 2 189 194
f 2 194 198
f 2 198 204
f 2 204 211
f 2 211 207
f 2 207 202
f 2 202 197
f 2 197 191
f 2 191 186
f 2 186 180
f 2 180 173
f 2 173 165
f 2 165 158
f 2 158 150
f 2 150 145
f 2 145 140
f 2 140 134
f 2 134 129
f 2 129 124
f 2 124 123
f 2 123 122
f 2 122 121
f 2 121 120
f 2 120 119
f 2 119 118
f 2 118 117
f 2 117 116
f 2 116 115
f 2 115 114
f 2 114 113
f 2 113 112
f 2 112 111
f 2 111 110
f 2 110 109
f 2 109 108
f 2 108 128
f 2 128 106
f 2 106 105
f 2 105 104
f 2 104 103
f 2 103 102
f 2 102 47
f 2 47 9
f 2 9 7
f 3 7 9
f 3 9 10
f 3 10 11
f 4 12 13
f 4 13 14
f 4 14 15
f 4 15 16
f 4 16 17
f 4 17 18
f 4 18 19
f 4 19 20
f 4 20 21
f 4 21 22
f 4 22 23
f 4 23 24
f 4 24 25
f 4 25 26
f 4 26 27
f 4 27 28
f 4 28 29
f 4 29 30
f 4 30 31
f 4 31 32
f 4 32 33
f 4 33 34
f 4 34 35
f 4 35 36
f 4 36 37
f 4 37 38
f 4 38 39
f 4 39 40
f 4 40 41
f 4 41 42
f 4 42 43
f 4 43 44
f 4 44 45
f 4 45 5
f 4 11 76
f 4 76 125
f 4 125 131
f 4 131 136
f 4 136 135
f 4 135 142
f 4 142 146
f 4 146 153
f 4 153 161
f 4 161 151
f 4 151 160
f 4 160 159
f 4 159 167
f 4 167 176
f 4 176 182
f 4 182 187
f 4 187 185
f 4 185 190
f 4 190 192
f 4 192 196
f 4 196 201
f 4 201 200
f 4 200 205
f 4 205 212
f 4 212 209
f 4 209 203
f 4 203 199
f 4 199 193
f 4 193 188
f 4 188 183
f 4 183 177
f 4 177 171
f 4 171 170
f 4 170 169
f 4 169 168
f 4 168 162
f 4 162 154
f 4 154 147
f 4 147 143
f 4 143 137
f 4 137 132
f 4 132 126
f 4 126 77
f 4 77 12
f 5 45 6
f 6 45 46
f 6 46 8
f 9 47 48
f 9 48 10
f 10 48 11
f 11 48 49
f 11 49 50
f 11 50 51
f 11 51 52
f 11 52 53
f 11 53 54
f 11 54 55
f 11 55 56
f 11 56 57
f 11 57 58
f 11 58 59
f 11 59 60
f 11 60 61
f 11 61 62
f 11 62 63
f 11 63 64
f 11 64 65
f 11 65 66
f 11 66 67
f 11 67 68
f 11 68 69
f 11 69 70
f 11 70 71
f 11 71 72
f 11 72 73
f 11 73 74
f 11 74 75
f 11 75 76
f 12 77 78
f 12 78 13
f 13 78 14
f 14 16 15
f 16 79 18
f 16 18 17
f 18 79 19
f 19 79 80
f 19 80 81
f 19 81 20
f 20 81 82
f 20 82 21
f 21 82 83
f 21 83 22
f 22 83 23
f 23 83 84
f 23 84 24
f 24 85 25
f 24 84 85
f 25 85 86
f 25 86 26
f 26 86 27
f 27 86 28
f 28 86 87
f 28 87 88
f 28 88 29
f 29 88 89
f 29 89 30
f 30 89 31
f 31 89 90
f 31 90 32
f 32 91 33
f 32 90 92
f 32 92 91
f 33 91 34
f 34 91 93
f 34 93 35
f 35 93 36
f 36 94 37
f 36 93 94
f 37 94 95
f 37 95 38
f 38 95 96
f 38 96 39
f 39 96 40
f 40 96 97
f 40 97 41
f 41 97 98
f 41 98 42
f 42 98 99
f 42 99 43
f 43 99 100
f 43 100 44
f 44 100 46
f 44 46 45
f 46 100 101
f 47 102 48
f 48 102 49
f 49 102 50
f 50 102 103
f 50 103 51
f 51 103 52
f 52 104 105
f 52 105 53
f 52 103 104
f 53 106 54
f 53 105 106
f 54 106 55
f 55 107 56
f 55 106 107
f 56 108 57
f 56 107 108
f 57 108 58
f 58 109 110
f 58 110 59
f 58 108 109
f 59 111 60
f 59 110 111
f 60 112 61
f 60 111 112
f 61 112 62
f 62 113 114
f 62 114 63
f 62 112 113
f 63 114 115
f 63 115 64
f 64 115 116
f 64 116 65
f 65 116 66
f 66 117 118
f 66 118 67
f 66 116 117
f 67 118 68
f 68 118 119
f 68 119 69
f 69 119 70
f 70 119 120
f 70 120 71
f 71 120 73
f 71 73 72
f 73 120 121
f 73 121 122
f 73 122 123
f 73 123 75
f 73 75 74
f 75 123 124
f 75 124 125
f 75 125 76
f 77 126 127
f 77 127 78
f 89 92 90
f 99 101 100
f 106 128 107
f 107 128 108
f 124 129 130
f 124 130 131
f 124 131 125
f 126 132 133
f 126 133 127
f 129 134 130
f 130 134 135
f 130 135 136
f 130 136 131
f 132 137 138
f 132 138 133
f 133 138 139
f 134 140 141
f 134 141 142
f 134 142 135
f 137 143 138
f 138 143 139
f 139 143 144
f 140 145 141
f 141 146 142
f 141 145 152
f 141 152 146
f 143 147 144
f 144 148 149
f 144 147 154
f 144 154 148
f 145 150 151
f 145 151 152
f 146 152 153
f 148 154 162
f 148 162 155
f 148 155 156
f 148 156 157
f 148 157 149
f 150 158 159
f 150 159 160
f 150 160 151
f 151 161 152
f 152 161 153
f 155 162 163
f 155 163 156
f 156 163 164
f 158 165 166
f 158 166 159
f 159 166 167
f 162 168 163
f 163 168 169
f 163 169 170
f 163 170 164
f 164 170 171
f 164 171 172
f 165 173 174
f 165 174 175
f 165 175 166
f 166 175 176
f 166 176 167
f 171 177 178
f 171 178 172
f 172 178 179
f 173 180 174
f 174 181 175
f 174 180 185
f 174 185 181
f 175 181 182
f 175 182 176
f 177 183 179
f 177 179 178
f 179 183 184
f 180 186 185
f 181 185 187
f 181 187 182
f 183 188 189
f 183 189 184
f 185 186 190
f 186 191 192
f 186 192 190
f 188 193 189
f 189 193 194
f 191 195 201
f 191 201 196
f 191 196 192
f 191 197 195
f 193 198 194
f 193 199 198
f 195 197 200
f 195 200 201
f 197 202 200
f 198 199 203
f 198 203 204
f 200 202 205
f 202 206 205
f 202 207 208
f 202 208 206
f 203 209 210
f 203 210 204
f 204 210 211
f 205 206 212
f 206 208 212
f 207 211 210
f 207 210 208
f 208 210 209
f 208 209 212

