# https://github.com/mikedh/trimesh
v 2.90480947 -20.95979345 20.52377403
v 4.81711669 -35.16613645 16.49332941
v 4.81711669 -35.15234810 17.87528127
v 2.90736241 -20.95979345 21.57541215
v 3.77287922 35.24520474 18.79260272
v 3.77287922 35.25209564 18.68913114
v 3.77287922 35.25209564 18.62446100
v 3.77287922 28.24887651 18.62446100
v 5.04434651 -35.13166887 16.49332941
v 5.04434651 -35.13166887 17.87528127
v 4.81711669 35.16248780 16.49332941
v 4.81711669 -35.13166887 18.62396270
v 5.38646853 -24.82673017 21.57541215
v 14.55992719 -20.95979345 21.57541215
v 3.77287922 32.52938646 20.50387502
v 3.77287922 33.44614404 20.47900289
v 3.77287922 34.24573022 20.31036288
v 3.77287922 34.70066028 20.06411999
v 3.77287922 35.01773315 19.60595429
v 4.12521383 35.20384627 18.79260272
v 4.29372108 35.19695538 18.62446100
v 4.12521383 34.99705392 19.57959056
v 5.04179357 34.93502277 19.48358029
v 5.95837330 34.86609417 19.34379220
v 4.81711669 35.16248780 17.87528127
v 5.95837330 -34.98002333 16.49332941
v 5.95837330 -34.98002333 17.87528127
v 5.95837330 -34.95245320 18.62396270
v 4.87583926 -35.12477798 18.62396270
v 5.04434651 35.12802022 16.49332941
v 19.87813449 -28.50066287 20.21037281
v 19.87813449 -28.41795248 20.23673981
v 5.98645812 -24.81983763 21.57541215
v 5.40178699 -24.82673017 21.57541215
v 14.52929026 -20.98047269 21.57541215
v 20.62110027 -27.02557576 20.43423176
v 21.53767919 -26.10881654 20.45811057
v 21.60916811 -26.03988630 20.45910388
v 22.45681351 -25.19205568 20.47054827
v 23.36828655 -24.27529481 20.47552139
v 24.28486710 -23.36542812 20.47552139
v 25.20399978 -22.44866726 20.47054827
v 26.12057870 -21.53190640 20.45860887
v 27.95373982 -18.77473292 20.47751129
v 28.87032038 -17.86486459 20.44368297
v 28.98521012 -16.83092413 20.48646420
v 28.98521012 -15.91416490 20.50089180
v 28.98521012 -14.99740404 20.50288171
v 28.98521012 -6.76034627 20.50288171
v 28.89840519 14.20106995 20.50288171
v 28.89840519 15.11783081 20.50238341
v 28.89840519 16.03459167 20.50039351
v 28.86776662 16.03459167 20.50188839
v 28.86776662 16.95135253 20.49044400
v 27.95373982 17.86811176 20.49989849
v 27.03715926 19.69474095 20.49193889
v 26.11802658 20.61150017 20.49790859
v 25.20399978 21.52826103 20.49989849
v 24.28486710 22.45191443 20.50139010
v 22.45425975 24.28543615 20.50139010
v 21.53767919 25.18841031 20.49989849
v 20.62110027 26.11895623 20.49741030
v 19.70451972 27.03571710 20.49243391
v 17.86880648 27.94558543 20.50089180
v 15.12162020 29.77910715 20.49492210
v 12.37188017 30.69586473 20.50238341
v 10.54127282 31.61262887 20.49790859
v 6.87750680 32.52938646 20.50039351
v 5.95837330 32.52938646 20.50288171
v 5.04179357 32.52938646 20.50387502
v 7.79408654 32.52938646 20.49343050
v 4.12521383 33.44614404 20.47552139
v 5.95837330 33.44614404 20.44020146
v 5.04179357 34.15611583 20.29394865
v 5.04179357 33.44614404 20.46258867
v 4.12521383 34.67998105 20.03775299
v 5.95837330 34.08029633 20.27255476
v 6.87750680 34.01136773 20.23823142
v 5.04179357 35.08666831 18.79260272
v 6.43325893 34.82473570 19.25673813
v 4.81711669 35.15559691 18.05884719
v 5.04434651 35.10045009 18.62396270
v 5.04179357 34.61105245 19.94174272
v 8.20258996 33.88729232 20.15615046
v 5.04434651 35.12802022 17.87528127
v 6.62474511 -34.86284536 16.49332941
v 6.62474511 -34.86284536 17.87528127
v 6.54815031 -34.84905702 18.62396270
v 5.96092707 34.98327213 16.49332941
v 20.17685240 -28.41105503 20.17157137
v 20.53939959 -27.90097815 20.25315404
v 7.00771747 -34.75944919 18.62396270
v 7.79663948 -34.58712441 18.62396270
v 8.71322004 -34.36655027 18.62396270
v 9.62724602 -34.12529689 18.62396270
v 10.23489526 -33.95297867 18.62396270
v 10.69446241 -33.80822403 18.62396270
v 11.46040631 -33.56007976 18.62396270
v 12.37953981 -33.22921855 18.62396270
v 12.81868098 -33.06378466 18.62396270
v 12.92591354 -33.02243275 18.62396270
v 13.38803282 -32.83631963 18.62396270
v 14.21014553 -32.49167663 18.62396270
v 19.87813449 -28.83152408 19.88453388
v 19.87813449 -27.93544573 20.36110371
v 19.87813449 -27.77001185 20.39841354
v 6.05284033 -24.80605093 21.57541215
v 14.06972310 -21.28376049 21.57541215
v 21.50959438 -27.01868323 20.29195875
v 22.46702528 -26.12949413 20.31334937
v 21.60916811 -26.11570907 20.44666946
v 12.89527496 -22.04198328 21.57541215
v 23.40913689 -25.23341251 20.32429218
v 24.33592921 -24.32354582 20.32827199
v 25.24229800 -23.40678496 20.32479048
v 27.03460550 -20.61514718 20.43473005
v 26.14100551 -22.46245233 20.31384438
v 28.98521012 -17.76836422 20.43124855
v 27.95373982 -19.69149378 20.39045393
v 28.89585143 -18.78162545 20.31185448
v 28.98521012 -18.67133838 20.30737966
v 28.98521012 -5.96076542 20.49591869
v 28.98521012 -5.84358582 20.49442381
v 28.89840519 16.95135253 20.48646420
v 28.86776662 17.86811176 20.44418126
v 27.95373982 18.78487262 20.47751129
v 26.11802658 21.52826103 20.45860887
v 25.20399978 22.45191443 20.47054827
v 24.28486710 23.36178276 20.47502309
v 23.36828655 24.28543615 20.47502309
v 18.78794080 27.94558543 20.47800958
v 16.95222756 28.86234301 20.49144059
v 22.45425975 25.18841031 20.47004998
v 21.53767919 26.11895623 20.45811057
v 16.03564700 29.77910715 20.46209037
v 14.20503965 30.69586473 20.46209037
v 13.28845991 30.69586473 20.49293220
v 11.45785337 31.61262887 20.48248440
v 8.71066628 32.52938646 20.47800958
v 6.87750680 33.44614404 20.40338993
v 9.62724602 32.52938646 20.44766277
v 7.58983484 33.94933003 20.20042330
v 8.71066628 33.34275442 20.30936956
v 5.95837330 34.94191366 18.79260272
v 6.98984524 34.74890965 18.79260272
v 6.92346303 34.77648633 18.62446100
v 6.54815031 34.85230583 18.62396270
v 6.08603103 34.93502277 18.62396270
v 5.96092707 34.95570200 18.62396270
v 8.71066628 34.11476391 19.61540878
v 9.62724602 33.99068850 19.41891015
v 10.13532316 33.92175990 19.28310186
v 8.71066628 34.36290818 18.79260272
v 7.79408654 34.58348232 18.79260272
v 8.71066628 33.80458194 20.07357121
v 10.54127282 33.08771270 20.22778362
v 11.08764654 33.01189321 20.18550068
v 5.96092707 34.98327213 17.87528127
v 7.08175851 -34.77323753 16.49332941
v 7.08175851 -34.77323753 17.87528127
v 6.29794238 34.92812532 16.49332941
v 20.53939959 -28.56270057 19.63580281
v 21.10364473 -28.42484337 19.28409845
v 21.60916811 -27.80447942 19.58357036
v 21.60916811 -27.61836630 19.81240243
v 21.79554677 -27.31508014 20.00591457
v 21.18279165 -27.56322605 20.20788461
v 7.79663948 -34.61470110 17.87528127
v 8.71322004 -34.40101785 17.87528127
v 9.62724602 -34.15287358 17.87528127
v 10.28595900 -33.96676046 17.87528127
v 10.74297240 -33.82890326 17.87528127
v 11.46040631 -33.58764989 17.87528127
v 12.37953981 -33.26368612 17.87528127
v 12.96676388 -33.04311198 17.87528127
v 13.42377728 -32.85699886 17.87528127
v 14.21014553 -32.51924676 17.87528127
v 14.93268779 -32.19527644 17.87528127
v 14.89694333 -32.18149466 18.62396270
v 15.35395673 -31.96092052 18.62396270
v 19.87813449 -28.94870860 19.72634166
v 12.39230534 -22.31080842 21.57541215
v 11.12594394 -22.98631591 21.57541215
v 10.54127282 -23.24824852 21.57541215
v 9.56852427 -23.66182340 21.57541215
v 8.78215438 -23.98579207 21.57541215
v 6.86474128 -24.58547679 21.57541215
v 22.17086112 -26.70160872 20.22878021
v 23.12829038 -25.83309886 20.24022132
v 24.06274235 -24.95769647 20.24519444
v 24.96655738 -24.05472067 20.24519444
v 25.84994560 -23.12417475 20.24022132
v 27.02439373 -21.50433463 20.29245377
v 26.71546405 -22.16605705 20.22927850
v 27.90523147 -20.53243187 20.25415063
v 28.56649494 -19.69149378 20.23276001
v 28.98521012 -18.73337445 20.29593855
v 28.98521012 -4.92682536 20.41184455
v 28.89840519 17.86811176 20.43771327
v 27.95373982 19.69474095 20.39095223
v 27.03715926 20.61150017 20.43522835
v 26.14100551 22.45880696 20.31384438
v 25.24229800 23.40313959 20.32429218
v 24.33592921 24.33368551 20.32727867
v 20.62110027 27.02882292 20.43423176
v 17.86880648 28.86234301 20.44467956
v 23.40658313 25.23665967 20.32429218
v 22.46447152 26.13274130 20.31334937
v 15.12162020 30.69586473 20.38448423
v 12.37188017 31.61262887 20.44467956
v 10.54127282 32.52938646 20.39095223
v 9.62724602 33.20489066 20.27952105
v 7.08431145 34.77648633 17.87528127
v 6.62474511 34.86609417 17.87528127
v 11.41955597 33.21178811 19.74773228
v 11.45785337 33.54264933 18.79260272
v 10.67914313 33.80458194 18.79260272
v 10.21957679 33.94243914 18.79260272
v 9.62724602 34.11476391 18.79260272
v 12.37188017 33.08771270 19.42637146
v 12.85187168 32.99810487 19.26618934
v 9.62979978 34.12854570 18.62396270
v 8.71322004 34.40426665 17.87528127
v 7.79663948 34.62484079 17.87528127
v 11.41955597 32.55695659 20.29544026
v 12.37188017 32.29502397 20.27703285
v 11.69784954 32.88781780 20.07954091
v 13.10463337 32.16405767 20.22330880
v 13.71994225 32.05377060 20.15565217
v 7.79663948 -34.61470110 16.49332941
v 6.62729805 34.86609417 16.49332941
v 21.14449507 -28.45241350 18.79160941
v 22.18873253 -27.64594299 18.79160941
v 22.10703185 -27.57701439 19.39503133
v 19.87813449 -29.30024249 18.97915184
v 19.87813449 -29.34849841 18.79160941
v 20.03898209 -29.23821134 18.79160941
v 20.62110027 -28.83152408 18.79160941
v 22.44404798 -27.01868323 19.73380297
v 22.77595660 -26.44657028 20.07307291
v 8.71322004 -34.40101785 16.49332941
v 9.62724602 -34.15287358 16.49332941
v 10.28595900 -33.96676046 16.49332941
v 10.74297240 -33.82890326 16.49332941
v 11.46040631 -33.58764989 16.49332941
v 12.37953981 -33.26368612 16.49332941
v 12.96421012 -33.04311198 16.49332941
v 13.42377728 -32.85699886 16.49332941
v 14.21014553 -32.51924676 16.49332941
v 14.93268779 -32.19527644 16.49332941
v 15.38970118 -31.98159975 17.87528127
v 16.03820076 -31.62316186 18.62396270
v 16.71478352 -31.26473052 18.62396270
v 17.16413891 -31.01658625 18.62396270
v 17.86625272 -30.62368733 18.62396270
v 23.73849338 -25.57116625 20.10938942
v 24.67039159 -24.66129956 20.12083054
v 25.40059185 -23.82725400 20.14918417
v 25.57420498 -23.73075363 20.10988444
v 27.57332122 -21.17347342 20.20838290
v 26.45759484 -22.77263594 20.07506281
v 28.42096662 -20.16710636 20.17206967
v 28.98521012 -19.30548904 20.13376325
v 28.98521012 -4.14792334 20.24370283
v 28.89840519 18.79176515 20.31135947
v 27.90778195 20.52878487 20.25415063
v 27.02694749 21.50068926 20.29245377
v 26.71291029 22.16241169 20.22927850
v 25.84994560 23.12052938 20.24022132
v 25.40059185 23.33421099 20.30190825
v 24.96400362 24.05796784 20.24469942
v 24.06018859 24.96783617 20.24469942
v 21.50704226 27.02193039 20.29195875
v 19.70451972 27.94558543 20.39095223
v 18.79049292 28.88991314 20.31285107
v 17.86880648 29.60678237 20.27852446
v 17.02882072 29.86181754 20.33275008
v 23.12829038 25.83634603 20.24022132
v 22.16830736 26.71174842 20.22878021
v 21.66023022 26.95300179 20.27703285
v 14.20503965 31.47476512 20.29444367
v 13.36250177 31.69533926 20.32727867
v 15.95905220 30.68207639 20.27355134
v 7.08431145 34.77648633 16.49332941
v 11.46040631 33.55643111 18.62396270
v 12.37188017 33.21867901 18.79260272
v 10.60765503 33.83904296 18.62396270
v 14.20503965 32.26056295 19.55521345
v 14.20503965 32.48113709 18.79260272
v 13.36760765 32.83267754 18.79260272
v 12.91059425 33.01878410 18.79260272
v 14.78460407 32.12270575 19.36219960
v 9.62979978 34.15611583 17.87528127
v 10.28085230 33.97000926 17.87528127
v 9.62979978 34.16301328 16.95895642
v 8.71322004 34.40426665 16.49332941
v 8.25875958 34.51455372 16.49332941
v 7.79663948 34.62484079 16.49332941
v 15.12162020 31.26108843 20.22480041
v 15.60161253 31.16458314 20.17356128
v 21.17513364 -28.47998363 17.87528127
v 21.60916811 -28.10777051 18.62396270
v 20.52152654 -28.91424102 18.62396270
v 22.27809286 -27.58390528 18.62396270
v 22.65085181 -27.26682914 18.79160941
v 22.08660668 -27.73555082 18.62396270
v 23.18701213 -26.81189579 18.79160941
v 23.07722664 -26.71539379 19.46218967
v 18.42283985 -30.29282612 18.62396270
v 19.58707457 -29.55528421 18.62396270
v 20.04408797 -29.24510223 18.62396270
v 23.40913689 -26.14328084 19.78554040
v 15.38970118 -31.98159975 16.49332941
v 16.03820076 -31.65762943 17.87528127
v 16.74542209 -31.28540975 17.87528127
v 17.19732961 -31.03037459 17.87528127
v 17.86625272 -30.65125746 17.87528127
v 18.45092466 -30.30661446 17.87528127
v 24.02444577 -25.83309886 19.49900120
v 24.94613057 -24.93701724 19.51044232
v 25.40059185 -24.07539991 19.94174272
v 25.84739184 -24.02025637 19.49900120
v 26.14866352 -23.40678496 19.78703201
v 26.72567582 -23.07592374 19.46417958
v 27.02439373 -22.44177473 19.73579288
v 27.32566541 -21.78694484 20.00790447
v 27.88735842 -21.44229857 19.64674890
v 28.43117839 -21.09765229 19.28459346
v 28.57160246 -20.53243187 19.63679940
v 28.98521012 -19.82935098 19.73280966
v 28.98521012 -19.76731491 19.78802860
v 28.98521012 -4.13413787 20.23524821
v 28.89840519 19.71541854 19.89796817
v 28.42096662 20.17035353 20.17206967
v 28.56649494 19.69474095 20.23325831
v 27.57076746 21.17672222 20.20838290
v 26.46014860 22.77588310 20.07406950
v 25.57675874 23.73400080 20.10938942
v 24.66783946 24.67143926 20.11983395
v 23.73849338 25.56752088 20.10839283
v 21.18279165 27.56647485 20.20788461
v 20.53684583 27.90422696 20.25315404
v 19.88068661 27.93868798 20.36210030
v 18.48922124 29.42066925 20.21833241
v 19.70451972 28.55905848 20.23325831
v 16.77605903 30.37189442 20.23574322
v 22.77850872 26.44981745 20.07257462
v 11.46040631 33.58400780 17.87528127
v 10.74041864 33.82526117 17.87528127
v 12.37953981 33.22556990 18.62396270
v 12.37953981 33.26003748 17.87528127
v 12.92335978 33.02567500 18.62396270
v 14.34546372 32.43288773 18.62396270
v 13.38547988 32.83956843 18.62396270
v 14.88928368 32.17095512 18.79260272
v 15.34629708 31.95727187 18.79260272
v 15.95905220 31.33001703 19.68654364
v 16.61010554 31.21972996 19.36717272
v 10.50808212 33.90108066 16.49332941
v 10.28085230 33.97000926 16.49332941
v 9.96170839 34.06650799 16.49332941
v 9.62979978 34.16301328 16.49332941
v 17.38626203 30.22025543 20.15615046
v 21.17513364 -28.47998363 16.49332941
v 21.63214540 -28.12844319 17.87528127
v 20.62110027 -28.87977344 17.87528127
v 20.89428714 -28.68677599 16.49332941
v 22.21426358 -27.66662223 17.87528127
v 22.67127698 -27.29440090 17.87528127
v 22.65595770 -27.27372167 18.62396270
v 23.19211965 -26.81878832 18.62396270
v 23.64913305 -26.40521181 18.79160941
v 24.14955055 -25.95027846 18.79160941
v 18.90793806 -30.02400262 17.87528127
v 19.61260563 -29.57596344 17.87528127
v 20.07217279 -29.25889057 17.87528127
v 16.03820076 -31.65762943 16.49332941
v 16.74542209 -31.28540975 16.49332941
v 16.97009897 -31.16134090 16.49332941
v 17.52668446 -30.85115236 16.49332941
v 18.15220675 -30.48583013 16.49332941
v 18.45092466 -30.30661446 16.49332941
v 24.60656231 -25.52291689 18.79160941
v 25.40059185 -24.73022816 18.79160941
v 25.53080251 -24.59926349 18.79160941
v 26.41929826 -23.64803833 18.79160941
v 26.82269579 -23.18621081 18.79160941
v 27.58608675 -22.10402099 19.39702123
v 28.46181696 -21.13900912 18.79160941
v 28.83968180 -20.61514718 18.79160941
v 28.98521012 -20.40835810 18.79160941
v 28.98521012 -20.22914243 19.11943823
v 27.65502190 -22.18673629 18.79160941
v 28.11458742 -21.60083664 18.79160941
v 28.98521012 -3.74813312 19.95219052
v 28.89840519 19.97735116 19.71291065
v 28.57160246 20.52878487 19.63779271
v 28.43117839 21.09400692 19.28608835
v 27.88480466 21.44554573 19.64674890
v 27.32311165 21.79019200 20.00790447
v 26.72312206 23.07227838 19.46318299
v 27.02439373 22.43812936 19.73529458
v 25.84483972 24.01661101 19.49800789
v 25.40059185 24.07864707 19.94174272
v 24.94357845 24.94026440 19.50944901
v 24.02189201 25.83634603 19.49800789
v 23.07722664 26.71864095 19.46169138
v 20.17429864 28.42119473 20.17157137
v 19.87813449 28.51080256 20.21037281
v 22.44149422 27.02193039 19.73380297
v 21.79554677 27.31832730 20.00541955
v 11.10551877 33.70807665 16.49332941
v 11.92763230 33.42546481 16.49332941
v 12.96165718 33.03946334 17.87528127
v 12.67570479 33.14975041 16.49332941
v 12.37953981 33.26003748 16.49332941
v 13.42122352 32.86024767 17.87528127
v 14.21014553 32.52249556 17.87528127
v 15.27225604 32.00552123 18.62396270
v 14.93013402 32.19852525 17.87528127
v 16.03564700 31.61262887 18.79260272
v 17.16669103 31.01983505 18.79260272
v 16.70457175 31.26797932 18.79260272
v 17.86880648 30.40636199 19.50646251
v 18.36667022 30.26160735 19.29653287
v 19.10197636 29.21388346 20.08003920
v 18.73432329 29.74463957 19.68754023
v 21.63214540 -28.12844319 16.49332941
v 22.21426358 -27.67351312 16.95895642
v 20.62110027 -28.87977344 16.49332941
v 22.67127698 -27.29440090 16.49332941
v 23.21509695 -26.83946756 17.87528127
v 23.65423894 -26.41210598 18.62396270
v 24.15210268 -25.95717100 18.62396270
v 18.90793806 -30.02400262 16.49332941
v 19.61260563 -29.57596344 16.49332941
v 20.07217279 -29.25889057 16.49332941
v 24.62954124 -25.55048865 17.87528127
v 24.95889774 -25.22651998 17.87528127
v 24.95889774 -25.18516314 18.62396270
v 25.55378145 -24.61994273 17.87528127
v 25.98526215 -24.17190192 17.87528127
v 26.44227719 -23.67561010 17.87528127
v 26.84567308 -23.21378258 17.87528127
v 27.28226131 -22.65545470 18.62396270
v 27.27715543 -22.64166963 18.79160941
v 28.46947497 -21.14590165 18.62396270
v 28.98521012 -20.42214480 18.62396270
v 28.48734802 -21.17347342 17.87528127
v 27.67544543 -22.21430806 17.87528127
v 28.13501095 -21.62840841 17.87528127
v 28.98521012 -3.45173703 19.66465801
v 28.98521012 -3.36212899 19.53034133
v 28.98521012 -3.02437504 19.01248187
v 28.89840519 20.53567904 18.79160941
v 28.46437072 21.14225629 18.79160941
v 28.11203366 21.59719127 18.79160941
v 27.65246814 22.18308928 18.79160941
v 27.27715543 22.64491680 18.79160941
v 27.58608675 22.10037562 19.39702123
v 26.82014203 23.18945798 18.79160941
v 26.41674450 23.64439296 18.79160941
v 25.95973110 24.14757731 18.79160941
v 25.52825039 24.60251066 18.79160941
v 25.40059185 24.73347696 18.79160941
v 24.60401019 25.51927152 18.79160941
v 24.14444303 25.95352563 18.79160941
v 23.64657929 26.40845897 18.79160941
v 23.18956589 26.81514296 18.79160941
v 22.10703185 27.58025664 19.39503133
v 21.10619849 28.42119473 19.28409845
v 20.53684583 28.56594938 19.63679940
v 19.44920426 29.46202772 19.46915269
v 21.44832050 27.88354772 19.64426070
v 12.96165718 33.03946334 16.49332941
v 13.42122352 32.86024767 16.49332941
v 14.58035236 32.35706168 16.49332941
v 14.21014553 32.52249556 16.49332941
v 15.38970118 31.98484200 17.87528127
v 14.93013402 32.19852525 16.49332941
v 16.03820076 31.61951977 18.62396270
v 16.71733728 31.27487021 18.62396270
v 17.19732961 31.04051429 17.87528127
v 17.86880648 30.62004524 18.79260272
v 19.87813449 29.35863810 18.79160941
v 19.58452245 29.55163556 18.79260272
v 18.87729948 30.00657218 18.79260272
v 18.42028609 30.29607492 18.79260272
v 22.21426358 -27.67351312 16.49332941
v 23.21509695 -26.83946756 16.49332941
v 23.67466411 -26.43278358 17.87528127
v 24.17252785 -25.97785023 17.87528127
v 24.62954124 -25.55048865 16.49332941
v 24.95889774 -25.22651998 16.49332941
v 25.55378145 -24.61994273 16.49382770
v 25.98526215 -24.17190192 16.49382770
v 26.44227719 -23.67561010 16.49382770
v 26.64142137 -23.44814343 16.49382770
v 26.84567308 -23.21378258 16.49382770
v 27.30268812 -22.66924140 17.87528127
v 28.55883693 -21.07008052 17.87528127
v 28.55883693 -21.07008052 16.49382770
v 28.98521012 -2.95544562 18.62396270
v 28.48734802 -21.17347342 16.49382770
v 27.67544543 -22.21430806 16.49382770
v 28.13501095 -21.62840841 16.49382770
v 28.98521012 -2.96923150 18.78464311
v 28.89840519 20.54946410 18.62396270
v 28.44394391 21.23186412 17.87528127
v 28.13501095 21.63165557 17.87528127
v 28.03033298 21.71437087 18.62396270
v 27.65757239 22.18998345 18.62396270
v 27.20056063 22.75520387 18.62396270
v 26.84311932 23.21013721 17.87528127
v 26.44227719 23.67196473 17.87528127
v 25.98271003 24.16825491 17.87528127
v 25.55122769 24.63008242 17.87528127
v 24.95889774 25.22287461 17.87528127
v 24.95889774 25.20908790 18.12998205
v 24.95889774 25.18151778 18.62396270
v 24.61166983 25.52616405 18.62396270
v 24.17252785 25.97420486 17.87528127
v 23.65423894 26.41535315 18.62396270
v 23.21509695 26.83582219 17.87528127
v 22.67383074 27.29764807 17.87528127
v 22.65085181 27.27007630 18.79160941
v 22.18873253 27.64229434 18.79160941
v 21.66023022 28.06276339 18.79160941
v 21.14704883 28.46255320 18.79160941
v 20.04153585 29.24835103 18.79160941
v 16.03820076 31.65398079 17.87528127
v 16.39564043 31.47476512 16.49332941
v 15.38970118 31.98484200 16.49332941
v 16.74542209 31.28865856 17.87528127
v 17.86880648 30.62693613 18.62446100
v 18.44837090 30.32364505 17.87528127
v 17.53944999 30.84751027 16.49332941
v 17.19732961 31.04051429 16.49332941
v 18.42539361 30.30296582 18.62396270
v 20.07217279 29.26903027 17.87528127
v 19.61771315 29.57231480 17.87528127
v 19.58707457 29.55853301 18.62396270
v 18.88495913 30.01346308 18.62446100
v 23.67466411 -26.43278358 16.49332941
v 23.91976615 -26.21220944 16.49332941
v 24.17252785 -25.97785023 16.49332941
v 27.30268812 -22.66924140 16.49382770
v 24.95889774 25.22287461 16.49332941
v 28.55883693 -3.43105820 16.49382770
v 28.44394391 21.23186412 16.49382770
v 27.90267771 21.92805084 16.49382770
v 27.67544543 22.21066105 17.87528127
v 28.13501095 21.63165557 16.49382770
v 27.30268812 22.67248857 17.87528127
v 26.84311932 23.21702975 16.49382770
v 26.44227719 23.67196473 16.49382770
v 25.98271003 24.16825491 16.49382770
v 25.55122769 24.63008242 16.49382770
v 25.32144493 24.86444163 16.49382770
v 24.63209337 25.54684329 16.95895642
v 24.62698912 25.54684329 17.87528127
v 24.39975848 25.76741579 16.49332941
v 23.67211198 26.43603074 16.95895642
v 23.67211198 26.42913821 17.87528127
v 23.21509695 26.83582219 16.49332941
v 22.67383074 27.29764807 16.49332941
v 22.21426358 27.66986447 17.87528127
v 22.19639217 27.64918524 18.62396270
v 21.66023022 28.07655173 18.62396270
v 21.17257988 28.48323243 17.87528127
v 20.62110027 28.84856122 18.62396270
v 16.74542209 31.28865856 16.49332941
v 18.90793806 30.03414231 17.87528127
v 18.44837090 30.32364505 16.49332941
v 20.07217279 29.26903027 16.49332941
v 19.61771315 29.57231480 16.49332941
v 24.63209337 25.54684329 16.49332941
v 27.30268812 22.67248857 16.49382770
v 27.67544543 22.21066105 16.49382770
v 23.67211198 26.43603074 16.49332941
v 22.21426358 27.66986447 16.49332941
v 21.63214540 28.12480110 17.87528127
v 21.17257988 28.48323243 16.49332941
v 18.90793806 30.03414231 16.49332941
v 21.63214540 28.12480110 16.49332941
f 1 2 3
f 1 3 4
f 1 4 5
f 1 5 6
f 1 6 7
f 1 7 8
f 1 8 2
f 2 9 10
f 2 10 3
f 2 8 7
f 2 7 11
f 2 11 30
f 2 30 89
f 2 89 161
f 2 161 231
f 2 231 284
f 2 284 298
f 2 298 297
f 2 297 296
f 2 296 362
f 2 362 361
f 2 361 360
f 2 360 359
f 2 359 412
f 2 412 413
f 2 413 416
f 2 416 415
f 2 415 475
f 2 475 476
f 2 476 478
f 2 478 477
f 2 477 480
f 2 480 533
f 2 533 532
f 2 532 572
f 2 572 538
f 2 538 537
f 2 537 574
f 2 574 584
f 2 584 576
f 2 576 575
f 2 575 583
f 2 583 585
f 2 585 581
f 2 581 566
f 2 566 565
f 2 565 580
f 2 580 562
f 2 562 577
f 2 577 548
f 2 548 494
f 2 494 493
f 2 493 546
f 2 546 545
f 2 545 544
f 2 544 490
f 2 490 431
f 2 431 489
f 2 489 428
f 2 428 364
f 2 364 367
f 2 367 430
f 2 430 437
f 2 437 436
f 2 436 435
f 2 435 382
f 2 382 381
f 2 381 380
f 2 380 379
f 2 379 378
f 2 378 377
f 2 377 313
f 2 313 250
f 2 250 249
f 2 249 248
f 2 248 247
f 2 247 246
f 2 246 245
f 2 245 244
f 2 244 243
f 2 243 242
f 2 242 241
f 2 241 230
f 2 230 159
f 2 159 86
f 2 86 26
f 2 26 9
f 3 10 12
f 3 12 4
f 4 12 13
f 4 13 34
f 4 34 33
f 4 33 107
f 4 107 187
f 4 187 186
f 4 186 185
f 4 185 184
f 4 184 183
f 4 183 182
f 4 182 112
f 4 112 108
f 4 108 35
f 4 35 14
f 4 14 70
f 4 70 15
f 4 15 16
f 4 16 17
f 4 17 18
f 4 18 19
f 4 19 5
f 5 20 21
f 5 21 6
f 5 19 22
f 5 22 23
f 5 23 24
f 5 24 20
f 6 21 25
f 6 25 11
f 6 11 7
f 9 26 27
f 9 27 10
f 10 27 28
f 10 28 29
f 10 29 12
f 11 25 85
f 11 85 30
f 12 29 31
f 12 31 32
f 12 32 33
f 12 33 34
f 12 34 13
f 14 35 36
f 14 36 37
f 14 37 38
f 14 38 39
f 14 39 40
f 14 40 41
f 14 41 42
f 14 42 43
f 14 43 44
f 14 44 45
f 14 45 46
f 14 46 47
f 14 47 48
f 14 48 49
f 14 49 50
f 14 50 51
f 14 51 52
f 14 52 53
f 14 53 54
f 14 54 55
f 14 55 56
f 14 56 57
f 14 57 58
f 14 58 59
f 14 59 60
f 14 60 61
f 14 61 62
f 14 62 63
f 14 63 64
f 14 64 65
f 14 65 66
f 14 66 67
f 14 67 68
f 14 68 69
f 14 69 70
f 15 70 16
f 16 70 69
f 16 69 68
f 16 68 71
f 16 71 72
f 16 72 17
f 17 73 74
f 17 74 18
f 17 72 75
f 17 75 73
f 18 76 22
f 18 22 19
f 18 74 77
f 18 77 78
f 18 78 76
f 20 79 21
f 20 24 80
f 20 80 79
f 21 81 25
f 21 79 82
f 21 82 81
f 22 76 23
f 23 76 83
f 23 83 84
f 23 84 24
f 24 84 80
f 25 81 82
f 25 82 85
f 26 86 87
f 26 87 27
f 27 87 88
f 27 88 28
f 28 88 31
f 28 31 29
f 30 85 158
f 30 158 89
f 31 90 91
f 31 91 32
f 31 88 92
f 31 92 93
f 31 93 94
f 31 94 95
f 31 95 96
f 31 96 97
f 31 97 98
f 31 98 99
f 31 99 100
f 31 100 101
f 31 101 102
f 31 102 103
f 31 103 104
f 31 104 90
f 32 105 33
f 32 91 105
f 33 105 106
f 33 106 107
f 35 108 36
f 36 106 109
f 36 109 110
f 36 110 111
f 36 111 37
f 36 108 112
f 36 112 106
f 37 111 38
f 38 111 113
f 38 113 39
f 39 113 114
f 39 114 40
f 40 114 41
f 41 114 42
f 42 114 115
f 42 115 43
f 43 116 44
f 43 115 117
f 43 117 116
f 44 116 45
f 45 118 46
f 45 116 119
f 45 119 120
f 45 120 121
f 45 121 118
f 46 118 121
f 46 121 197
f 46 197 263
f 46 263 331
f 46 331 330
f 46 330 392
f 46 392 391
f 46 391 448
f 46 448 503
f 46 503 507
f 46 507 454
f 46 454 453
f 46 453 452
f 46 452 395
f 46 395 332
f 46 332 264
f 46 264 198
f 46 198 123
f 46 123 122
f 46 122 49
f 46 49 48
f 46 48 47
f 49 122 52
f 49 52 51
f 49 51 50
f 52 122 123
f 52 123 124
f 52 124 54
f 52 54 53
f 54 124 125
f 54 125 126
f 54 126 56
f 54 56 55
f 56 126 127
f 56 127 128
f 56 128 57
f 57 128 129
f 57 129 58
f 58 129 59
f 59 129 130
f 59 130 60
f 60 130 61
f 61 130 62
f 62 130 63
f 63 131 132
f 63 132 64
f 63 130 133
f 63 133 134
f 63 134 131
f 64 132 65
f 65 132 135
f 65 135 136
f 65 136 137
f 65 137 66
f 66 137 67
f 67 137 138
f 67 138 139
f 67 139 71
f 67 71 68
f 71 139 75
f 71 75 72
f 73 140 74
f 73 75 139
f 73 139 141
f 73 141 140
f 74 140 77
f 76 78 142
f 76 142 84
f 76 84 83
f 77 140 78
f 78 140 143
f 78 143 142
f 79 144 149
f 79 149 82
f 79 80 144
f 80 145 146
f 80 146 147
f 80 147 148
f 80 148 149
f 80 149 144
f 80 84 150
f 80 150 151
f 80 151 152
f 80 152 153
f 80 153 154
f 80 154 145
f 82 149 158
f 82 158 85
f 84 155 150
f 84 142 156
f 84 156 157
f 84 157 155
f 86 159 160
f 86 160 87
f 87 160 92
f 87 92 88
f 89 158 161
f 90 104 162
f 90 162 163
f 90 163 164
f 90 164 165
f 90 165 166
f 90 166 167
f 90 167 91
f 91 167 109
f 91 109 105
f 92 160 93
f 93 160 168
f 93 168 169
f 93 169 94
f 94 169 95
f 95 169 170
f 95 170 171
f 95 171 96
f 96 171 172
f 96 172 97
f 97 172 98
f 98 172 173
f 98 173 174
f 98 174 99
f 99 174 175
f 99 175 100
f 100 175 101
f 101 175 102
f 102 175 176
f 102 176 103
f 103 177 178
f 103 178 179
f 103 179 104
f 103 176 177
f 104 179 180
f 104 180 181
f 104 181 162
f 105 109 106
f 106 112 182
f 106 182 183
f 106 183 184
f 106 184 185
f 106 185 186
f 106 186 187
f 106 187 107
f 109 167 188
f 109 188 110
f 110 189 113
f 110 113 111
f 110 188 189
f 113 189 190
f 113 190 114
f 114 191 115
f 114 190 191
f 115 192 117
f 115 191 192
f 116 117 193
f 116 193 119
f 117 192 194
f 117 194 193
f 119 193 195
f 119 195 120
f 120 195 196
f 120 196 197
f 120 197 121
f 123 198 199
f 123 199 124
f 124 199 125
f 125 199 200
f 125 200 201
f 125 201 126
f 126 201 127
f 127 202 203
f 127 203 128
f 127 201 202
f 128 203 204
f 128 204 129
f 129 204 130
f 130 204 133
f 131 205 206
f 131 206 135
f 131 135 132
f 131 134 205
f 133 204 207
f 133 207 134
f 134 207 208
f 134 208 205
f 135 206 209
f 135 209 136
f 136 209 210
f 136 210 138
f 136 138 137
f 138 210 141
f 138 141 139
f 140 141 211
f 140 211 143
f 141 210 211
f 142 143 212
f 142 212 156
f 143 211 212
f 145 154 146
f 146 213 147
f 146 154 213
f 147 214 148
f 147 213 214
f 148 214 158
f 148 158 149
f 150 155 151
f 151 155 157
f 151 157 215
f 151 215 152
f 152 216 217
f 152 217 218
f 152 218 219
f 152 219 153
f 152 215 220
f 152 220 221
f 152 221 216
f 153 219 222
f 153 222 223
f 153 223 224
f 153 224 154
f 154 224 213
f 156 212 211
f 156 211 225
f 156 225 226
f 156 226 157
f 157 227 215
f 157 226 228
f 157 228 229
f 157 229 227
f 158 214 161
f 159 230 168
f 159 168 160
f 161 214 231
f 162 181 163
f 163 232 233
f 163 233 234
f 163 234 164
f 163 181 235
f 163 235 236
f 163 236 237
f 163 237 238
f 163 238 232
f 164 234 165
f 165 234 166
f 166 239 240
f 166 240 167
f 166 234 239
f 167 240 188
f 168 230 241
f 168 241 169
f 169 241 242
f 169 242 170
f 170 242 243
f 170 243 171
f 171 243 244
f 171 244 172
f 172 244 245
f 172 245 173
f 173 245 246
f 173 246 174
f 174 246 175
f 175 246 247
f 175 247 248
f 175 248 176
f 176 248 249
f 176 249 177
f 177 249 250
f 177 250 178
f 178 250 313
f 178 313 251
f 178 251 179
f 179 251 180
f 180 251 252
f 180 252 181
f 181 252 253
f 181 253 254
f 181 254 255
f 181 255 235
f 188 240 256
f 188 256 189
f 189 256 190
f 190 256 257
f 190 257 191
f 191 257 258
f 191 258 192
f 192 258 259
f 192 259 194
f 193 194 260
f 193 260 195
f 194 259 261
f 194 261 260
f 195 260 262
f 195 262 196
f 196 262 197
f 197 262 263
f 198 264 265
f 198 265 199
f 199 265 200
f 200 265 266
f 200 266 267
f 200 267 201
f 201 267 202
f 202 267 268
f 202 268 269
f 202 269 270
f 202 270 203
f 203 270 271
f 203 271 204
f 204 272 207
f 204 271 272
f 205 273 274
f 205 274 206
f 205 208 273
f 206 275 276
f 206 276 277
f 206 277 209
f 206 274 275
f 207 272 278
f 207 278 208
f 208 279 280
f 208 280 273
f 208 278 279
f 209 281 282
f 209 282 210
f 209 277 283
f 209 283 281
f 210 282 226
f 210 226 211
f 211 226 225
f 213 284 231
f 213 231 214
f 213 224 298
f 213 298 284
f 215 227 220
f 216 285 217
f 216 221 286
f 216 286 285
f 217 285 287
f 217 287 218
f 218 287 222
f 218 222 219
f 220 227 229
f 220 229 288
f 220 288 221
f 221 289 290
f 221 290 291
f 221 291 286
f 221 288 292
f 221 292 289
f 222 293 223
f 222 287 294
f 222 294 293
f 223 293 295
f 223 295 362
f 223 362 296
f 223 296 297
f 223 297 224
f 224 297 298
f 226 282 281
f 226 281 228
f 228 281 299
f 228 299 229
f 229 299 300
f 229 300 288
f 232 301 302
f 232 302 233
f 232 238 303
f 232 303 301
f 233 304 305
f 233 305 234
f 233 302 306
f 233 306 304
f 234 305 307
f 234 307 308
f 234 308 239
f 235 255 309
f 235 309 236
f 236 309 310
f 236 310 311
f 236 311 237
f 237 311 303
f 237 303 238
f 239 308 240
f 240 308 312
f 240 312 256
f 251 313 377
f 251 377 314
f 251 314 252
f 252 315 253
f 252 314 315
f 253 315 254
f 254 315 255
f 255 315 316
f 255 316 317
f 255 317 318
f 255 318 309
f 256 312 319
f 256 319 320
f 256 320 257
f 257 321 259
f 257 259 258
f 257 320 321
f 259 321 322
f 259 322 323
f 259 323 261
f 260 261 262
f 261 323 324
f 261 324 325
f 261 325 326
f 261 326 262
f 262 326 327
f 262 327 328
f 262 328 329
f 262 329 330
f 262 330 331
f 262 331 263
f 264 332 333
f 264 333 265
f 265 333 334
f 265 334 335
f 265 335 266
f 266 335 334
f 266 334 336
f 266 336 267
f 267 336 268
f 268 337 338
f 268 338 269
f 268 336 337
f 269 338 271
f 269 271 270
f 271 338 339
f 271 339 272
f 272 339 340
f 272 340 278
f 273 280 341
f 273 341 342
f 273 342 343
f 273 343 274
f 274 343 275
f 275 344 276
f 275 343 342
f 275 342 345
f 275 345 344
f 276 344 346
f 276 346 283
f 276 283 277
f 278 340 279
f 279 340 347
f 279 347 341
f 279 341 280
f 281 283 299
f 283 346 299
f 285 348 349
f 285 349 287
f 285 286 350
f 285 350 351
f 285 351 348
f 286 291 352
f 286 352 350
f 287 349 294
f 288 300 292
f 289 353 354
f 289 354 290
f 289 292 355
f 289 355 353
f 290 354 291
f 291 354 352
f 292 356 355
f 292 300 357
f 292 357 358
f 292 358 356
f 293 294 295
f 294 349 359
f 294 359 360
f 294 360 361
f 294 361 295
f 295 361 362
f 299 346 300
f 300 358 357
f 300 346 363
f 300 363 358
f 301 364 428
f 301 428 365
f 301 365 302
f 301 303 366
f 301 366 367
f 301 367 364
f 302 365 306
f 303 311 366
f 304 306 365
f 304 365 368
f 304 368 369
f 304 369 370
f 304 370 305
f 305 370 371
f 305 371 307
f 307 371 433
f 307 433 372
f 307 372 308
f 308 372 373
f 308 373 319
f 308 319 312
f 309 318 374
f 309 374 310
f 310 375 311
f 310 374 375
f 311 376 366
f 311 375 376
f 314 377 378
f 314 378 315
f 315 378 379
f 315 379 380
f 315 380 316
f 316 380 317
f 317 380 381
f 317 381 318
f 318 382 435
f 318 435 374
f 318 381 382
f 319 373 383
f 319 383 320
f 320 383 384
f 320 384 385
f 320 385 322
f 320 322 321
f 322 385 386
f 322 386 324
f 322 324 323
f 324 386 387
f 324 387 388
f 324 388 325
f 325 388 326
f 326 388 327
f 327 388 328
f 328 389 390
f 328 390 391
f 328 391 392
f 328 392 330
f 328 330 329
f 328 388 393
f 328 393 394
f 328 394 389
f 332 395 396
f 332 396 333
f 333 396 334
f 334 396 397
f 334 397 398
f 334 398 399
f 334 399 400
f 334 400 337
f 334 337 336
f 337 401 338
f 337 400 402
f 337 402 401
f 338 403 404
f 338 404 339
f 338 401 403
f 339 405 406
f 339 406 340
f 339 404 405
f 340 406 407
f 340 407 347
f 341 408 342
f 341 347 408
f 342 408 409
f 342 409 345
f 344 363 346
f 344 345 409
f 344 409 408
f 344 408 363
f 347 407 410
f 347 410 411
f 347 411 408
f 348 412 349
f 348 351 413
f 348 413 412
f 349 412 359
f 350 352 351
f 351 352 414
f 351 414 415
f 351 415 416
f 351 416 413
f 352 354 417
f 352 417 414
f 353 418 417
f 353 417 354
f 353 355 419
f 353 419 420
f 353 420 418
f 355 356 419
f 356 421 419
f 356 358 421
f 358 422 423
f 358 423 421
f 358 363 424
f 358 424 425
f 358 425 422
f 363 408 426
f 363 426 427
f 363 427 425
f 363 425 424
f 365 428 489
f 365 489 429
f 365 429 368
f 366 376 437
f 366 437 430
f 366 430 367
f 368 429 369
f 369 431 490
f 369 490 432
f 369 432 370
f 369 429 489
f 369 489 431
f 370 432 371
f 371 432 433
f 372 433 373
f 373 434 383
f 373 433 434
f 374 435 436
f 374 436 375
f 375 436 437
f 375 437 376
f 383 434 438
f 383 438 439
f 383 439 440
f 383 440 384
f 384 440 385
f 385 441 442
f 385 442 386
f 385 440 439
f 385 439 441
f 386 442 443
f 386 443 444
f 386 444 387
f 387 444 445
f 387 445 446
f 387 446 388
f 388 446 393
f 389 447 390
f 389 394 447
f 390 448 391
f 390 447 449
f 390 449 448
f 393 450 451
f 393 451 394
f 393 446 445
f 393 445 450
f 394 451 449
f 394 449 447
f 395 452 396
f 396 452 453
f 396 453 454
f 396 454 455
f 396 455 398
f 396 398 397
f 398 455 456
f 398 456 457
f 398 457 458
f 398 458 459
f 398 459 460
f 398 460 399
f 399 460 400
f 400 460 402
f 401 461 462
f 401 462 463
f 401 463 403
f 401 402 460
f 401 460 461
f 403 463 464
f 403 464 405
f 403 405 404
f 405 464 465
f 405 465 466
f 405 466 406
f 406 467 407
f 406 466 467
f 407 467 468
f 407 468 469
f 407 469 470
f 407 470 410
f 408 471 472
f 408 472 473
f 408 473 426
f 408 411 474
f 408 474 471
f 410 470 411
f 411 470 474
f 414 475 415
f 414 417 476
f 414 476 475
f 417 418 478
f 417 478 476
f 418 420 477
f 418 477 478
f 419 421 479
f 419 479 420
f 420 479 533
f 420 533 480
f 420 480 477
f 421 481 479
f 421 423 482
f 421 482 481
f 422 483 482
f 422 482 423
f 422 425 484
f 422 484 483
f 425 485 486
f 425 486 487
f 425 487 488
f 425 488 484
f 425 427 473
f 425 473 471
f 425 471 485
f 426 473 427
f 432 490 544
f 432 544 491
f 432 491 433
f 433 491 492
f 433 492 434
f 434 492 438
f 438 493 494
f 438 494 439
f 438 492 546
f 438 546 493
f 439 494 495
f 439 495 441
f 441 495 496
f 441 496 442
f 442 496 497
f 442 497 443
f 443 497 498
f 443 498 444
f 444 498 499
f 444 499 547
f 444 547 500
f 444 500 445
f 445 500 450
f 448 449 501
f 448 501 502
f 448 502 549
f 448 549 503
f 449 451 506
f 449 506 504
f 449 504 502
f 449 502 501
f 450 505 506
f 450 506 451
f 450 500 547
f 450 547 505
f 454 507 455
f 455 508 456
f 455 507 503
f 455 503 508
f 456 508 509
f 456 509 510
f 456 510 457
f 457 510 511
f 457 511 512
f 457 512 458
f 458 512 513
f 458 513 459
f 459 513 461
f 459 461 460
f 461 513 514
f 461 514 515
f 461 515 462
f 462 515 463
f 463 515 516
f 463 516 517
f 463 517 464
f 464 517 465
f 465 517 518
f 465 518 519
f 465 519 520
f 465 520 521
f 465 521 466
f 466 521 467
f 467 522 523
f 467 523 468
f 467 521 522
f 468 523 469
f 469 524 525
f 469 525 526
f 469 526 470
f 469 523 524
f 470 526 471
f 470 471 474
f 471 526 527
f 471 527 528
f 471 528 529
f 471 529 530
f 471 530 485
f 471 473 472
f 479 481 482
f 479 482 531
f 479 531 532
f 479 532 533
f 482 483 534
f 482 534 531
f 483 484 535
f 483 535 536
f 483 536 537
f 483 537 538
f 483 538 572
f 483 572 534
f 484 488 539
f 484 539 536
f 484 536 535
f 485 530 540
f 485 540 541
f 485 541 542
f 485 542 486
f 486 542 543
f 486 543 487
f 487 543 488
f 488 543 539
f 491 544 545
f 491 545 492
f 492 545 546
f 494 502 504
f 494 504 506
f 494 506 505
f 494 505 547
f 494 547 499
f 494 499 498
f 494 498 497
f 494 497 496
f 494 496 495
f 494 548 549
f 494 549 502
f 503 549 508
f 508 549 550
f 508 550 509
f 509 550 553
f 509 553 510
f 510 551 552
f 510 552 512
f 510 512 511
f 510 553 551
f 512 552 554
f 512 554 513
f 513 554 514
f 514 554 555
f 514 555 515
f 515 555 556
f 515 556 557
f 515 557 516
f 516 557 558
f 516 558 517
f 517 558 559
f 517 559 518
f 518 521 519
f 518 559 560
f 518 560 561
f 518 561 521
f 519 521 520
f 521 561 522
f 522 561 560
f 522 560 562
f 522 562 563
f 522 563 564
f 522 564 523
f 523 564 524
f 524 564 563
f 524 563 580
f 524 580 565
f 524 565 566
f 524 566 525
f 525 566 581
f 525 581 567
f 525 567 568
f 525 568 526
f 526 568 527
f 527 568 569
f 527 569 528
f 528 569 529
f 529 569 570
f 529 570 571
f 529 571 530
f 530 571 540
f 531 534 532
f 532 534 572
f 536 539 543
f 536 543 573
f 536 573 584
f 536 584 574
f 536 574 537
f 540 575 576
f 540 576 541
f 540 571 570
f 540 570 583
f 540 583 575
f 541 576 584
f 541 584 573
f 541 573 542
f 542 573 543
f 548 577 559
f 548 559 558
f 548 558 557
f 548 557 556
f 548 556 555
f 548 555 578
f 548 578 579
f 548 579 551
f 548 551 553
f 548 553 550
f 548 550 549
f 551 579 552
f 552 579 578
f 552 578 554
f 554 578 555
f 559 577 560
f 560 577 562
f 562 580 563
f 567 581 585
f 567 585 582
f 567 582 569
f 567 569 568
f 569 582 570
f 570 582 585
f 570 585 583

