# https://github.com/mikedh/trimesh
v -15.12202883 -3.22281542 85.51581472
v -15.89804763 3.17123028 85.78689694
v -15.12202883 3.17123028 85.55000365
v -14.19928515 3.17123028 85.55244923
v -14.20580560 -3.22281542 85.51825702
v 0.53528212 -3.22344137 90.52233696
v -1.63952556 -3.22344137 90.52233696
v -15.90456808 -3.22281542 85.76491952
v -16.59907142 0.45837723 86.93473548
v -16.37083108 3.17123028 86.62457645
v -10.56047568 3.17123028 85.58908045
v -10.68763839 -3.22281542 85.55488825
v 11.57234972 -3.22281542 85.85039675
v 14.17429289 -3.22281542 85.88947356
v 15.11986142 -3.22281542 85.91145098
v 15.76871833 -3.22344137 91.03275806
v -1.63952556 -3.22344137 109.91345406
v -16.37083108 -3.22281542 86.61236495
v -15.92087084 -3.22281542 85.79422712
v -16.59581119 -0.45800878 86.93717778
v -16.59907142 -0.00357146 86.93473548
v -16.57298798 1.37476319 86.92985088
v -16.68058688 0.45837723 87.54284531
v -16.53712058 2.10962462 86.97869360
v -16.48169184 2.61789334 87.54284531
v -16.38061339 3.17123028 87.54284531
v 11.37997514 3.17123028 85.88702798
v 14.20037797 3.17123028 85.92610478
v 14.34384426 3.17123028 85.92854708
v 15.11660120 3.17123028 85.94564319
v 15.60568905 -3.22281542 86.04821324
v 15.96109128 -3.22281542 86.36570245
v 16.05238741 -3.22281542 86.55619204
v 15.83718961 -3.22344137 91.20859712
v 3.18939524 -3.22344137 110.46050966
v -4.12734887 -3.22218948 110.41166365
v -5.04357250 -3.22218948 110.29687881
v -5.05661463 -3.22218948 110.29443979
v -6.02826783 -3.22218948 110.10150135
v -6.82711026 -3.22218948 109.87926185
v -7.80202368 -3.22218948 109.52269912
v -8.50957038 -3.22218948 109.20765549
v -8.96605188 -3.22218948 108.97320449
v -9.63447096 -3.22218948 108.57268035
v -10.16920606 -3.22218948 108.22833240
v -10.62894778 -3.22218948 107.87421197
v -11.18650774 -3.22218948 107.41263360
v -11.64950969 -3.22218948 106.98524743
v -11.91035638 -3.22218948 106.71904653
v -12.10273096 -3.22218948 106.51878774
v -12.56899396 -3.22218948 105.98882824
v -12.93091828 -3.22218948 105.54190367
v -13.50804122 -3.22218948 104.70911205
v -13.84714151 -3.22218948 104.16938335
v -13.94821996 -3.22218948 103.98133278
v -14.42752549 -3.22218948 103.05817932
v -16.21432388 -3.22281542 90.29276729
v -16.36431063 -3.22281542 87.54284531
v -16.37083108 -3.22281542 86.62701875
v -16.47842998 -2.61627301 87.54284531
v -16.54038245 -2.15745411 87.54284531
v -16.53060013 -2.10863023 86.97869360
v -16.57298798 -1.37439475 86.92985088
v -16.67080456 -0.45800878 87.54284531
v -16.52081782 0.44147664 90.51989466
v -16.51429737 0.66431365 90.51745236
v -16.49473438 0.86461665 90.72503805
v -16.51429737 1.09433907 90.11204690
v -16.62841672 1.37476319 87.54284531
v -16.62841672 -0.45800878 88.45867187
v -16.50125483 -0.24581284 90.88622332
v -16.50125483 0.25306670 90.88622332
v -16.54038245 2.15970038 87.54284531
v -16.52081782 1.98193145 88.45867187
v -16.02846974 2.29114921 96.71332896
v -15.93065316 3.17060434 95.76086789
v -16.21432388 3.17123028 90.51745236
v 16.00347912 3.17123028 86.47804499
v 16.53821504 1.37476319 87.02509731
v 16.54147526 -1.37439475 87.02509731
v 16.53169295 -2.11488965 87.03486651
v 16.36866530 -3.22281542 87.54284531
v 15.98391613 -3.22344137 91.71901822
v -4.12734887 -2.29015482 110.46050966
v -3.21112564 -3.22218948 110.45806408
v 3.20569821 -3.22344137 110.46050966
v -4.12734887 -3.20779261 110.41410267
v -5.04357250 -3.20779261 110.29931784
v -5.95653510 -2.29015482 110.21384716
v -6.51083400 -2.94239120 110.02090871
v -7.08469631 -2.29015482 109.91589308
v -7.79224219 -2.29015482 109.66190696
v -7.79224219 -3.20779261 109.53002602
v -8.51283060 -3.20779261 109.21009779
v -9.08995355 -2.47355723 109.03914332
v -9.53339251 -2.21691900 108.80713463
v -10.29310772 -2.29015482 108.31136405
v -10.74958922 -2.29015482 107.97190070
v -11.18976796 -3.20779261 107.41751820
v -11.76036963 -2.29015482 107.09514767
v -11.98860997 -2.90233071 106.71904653
v -12.09946992 -3.20779261 106.52855694
v -12.65702987 -2.29015482 106.12803280
v -13.02547546 -2.29015482 105.66645443
v -13.48521719 -2.29015482 105.03148258
v -13.42652658 -3.13768671 104.87029731
v -13.75584537 -2.78465261 104.50640768
v -13.92539510 -3.13768671 104.06437099
v -14.44382826 -3.17211372 103.05329472
v -14.47317356 -3.22218948 102.96293616
v -14.79923213 -3.22218948 102.20829159
v -15.12854928 -3.22218948 101.28758043
v -15.40243933 -3.22218948 100.31069964
v -15.45786807 -3.22218948 100.06891847
v -15.58829183 -3.22218948 99.45592731
v -15.61437691 -3.22218948 99.30939257
v -15.72849626 -3.22218948 98.54742438
v -15.81327194 -3.22218948 97.61450171
v -15.86544210 -3.22218948 96.71332896
v -16.20454157 -3.21843383 90.52722156
v -16.02846974 -2.29015482 96.71332896
v -16.36431063 -2.29015482 90.52722156
v -16.51429737 -1.98031112 88.45867187
v -16.62189627 -1.37439475 87.54284531
v -16.28605703 -0.45738284 94.87923354
v -16.18497858 0.45837723 96.71088666
v -16.13607028 1.36474802 96.70355976
v -16.48821229 1.70463714 89.63337243
v -16.18497858 1.37538913 95.79506010
v -16.50451506 1.87364268 89.02282357
v -16.49799461 -0.93310232 90.52722156
v -16.49147252 -0.85673680 90.72503805
v -15.97630123 2.29114921 97.62915552
v -15.87848300 3.17060434 96.67425215
v -15.82305426 3.17060434 97.62915552
v -15.73501835 3.17060434 98.54498208
v -15.62089736 3.17060434 99.35091168
v -15.54590398 3.17060434 99.74166334
v -15.41874209 3.17060434 100.30581504
v -15.14159182 3.17060434 101.28513813
v -14.80575258 3.17060434 102.22294539
v -14.64924538 3.17060434 102.61858165
v -14.44708848 3.17060434 103.04841012
v -13.89604980 3.17060434 104.10100222
v -13.71345753 3.17060434 104.43069965
v -13.45587188 3.17060434 104.80924308
v -12.93743955 3.17060434 105.54923058
v -12.56573291 3.17060434 106.00836337
v -12.10273096 3.17060434 106.53344154
v 1.35368804 3.17123028 109.53735292
v 16.02956420 3.17123028 86.51956081
v 16.52843272 2.11400621 87.03486651
v 16.59364542 1.37476319 87.54284531
v 16.60668632 0.45837723 87.54284531
v 16.60994818 -0.00419741 87.54284531
v 16.60994818 -0.45800878 87.54284531
v 16.59690565 -1.37439475 87.54284531
v 16.53821504 -2.16684324 87.54284531
v 16.47952443 -2.62503619 87.54284531
v 16.37192553 -3.20716667 87.54284531
v 15.86653491 -3.22344137 96.71088666
v 16.01652166 -3.22344137 93.96584600
v 16.06542995 -3.22344137 93.06223094
v 16.09803548 -3.22344137 92.14640439
v 16.09803548 -3.22344137 92.13175058
v -4.12734887 2.29114921 110.46050966
v -5.04683273 -0.00294551 110.43120205
v -5.04357250 -0.45738284 110.43120205
v -5.04357250 -1.37439475 110.41410267
v -5.04357250 -2.29015482 110.37258685
v 4.12192164 -3.22344137 110.41410267
v 4.12192164 -2.29140670 110.46050966
v -5.95653510 -1.37439475 110.27245581
v -6.74885625 -1.37439475 110.08929312
v -6.62495418 -2.29015482 110.05510092
v -7.20533775 -1.37439475 109.95496988
v -7.79224219 -1.37439475 109.74493861
v -8.70520519 -1.37439475 109.34930235
v -8.75411348 -2.21691900 109.24184442
v -9.16820796 -1.86325916 109.08065915
v -9.66381626 -1.37439475 108.82422745
v -10.36810109 -1.37439475 108.36753696
v -10.82784364 -1.37439475 108.03051263
v -11.37562128 -1.37439475 107.57381886
v -11.30062791 -2.29015482 107.51032233
v -11.82884173 -1.37439475 107.16597110
v -12.14511799 -2.15056875 106.71904653
v -12.12229395 -2.29015482 106.71904653
v -12.20054837 -2.29015482 106.63601160
v -12.72550197 -1.37439475 106.20618314
v -13.08742629 -1.37439475 105.74705034
v -13.54716802 -1.37439475 105.11940211
v -13.85366360 -1.37439475 104.66515064
v -13.79497299 -2.29015482 104.56990421
v -14.09820670 -2.29015482 104.03506339
v -14.51229954 -2.29015482 103.26088369
v -14.67858905 -2.84223967 102.70405889
v -14.96878186 -2.29015482 102.20340699
v -15.13181115 -3.20779261 101.28758043
v -15.42526254 -3.13580868 100.30337274
v -15.58503160 -2.78214884 99.94681001
v -15.62089736 -3.13580868 99.37289238
v -15.73175812 -3.20779261 98.54742438
v -15.81653217 -3.20779261 97.63159782
v -15.97304100 -2.29015482 97.63159782
v -16.07737968 -1.37439475 97.63159782
v -16.12954820 -1.37439475 96.71332896
v -16.49799461 -1.87202235 89.01793897
v -16.48169184 -1.70176482 89.63093013
v -16.38061339 -1.37439475 92.13175058
v -16.18497858 -0.45738284 96.71332896
v -16.18497858 -0.00357146 96.71332896
v -16.13280842 0.45837723 97.62915552
v -16.08063990 1.36474802 97.62915552
v -15.99586422 1.36474802 98.53521615
v -15.88826532 2.29114921 98.54498208
v -15.75458134 2.29114921 99.45836961
v -15.58503160 2.78627294 99.94925231
v -15.51329846 2.29114921 100.55247754
v -15.29484043 2.29114921 101.28513813
v -14.97204209 2.29114921 102.20340699
v -14.68185091 2.84573803 102.70405889
v -14.50903932 2.29114921 103.25844139
v -13.92865697 3.13930704 104.06192541
v -13.75910560 2.78752482 104.50640768
v -13.48847741 2.29114921 105.02904028
v -13.02873569 2.29114921 105.66645443
v -12.66029010 2.29114921 106.12559050
v -12.20380859 2.29114921 106.63601160
v -11.76036963 2.29114921 107.09270537
v -11.65277073 3.17060434 106.99257433
v -11.19302819 3.17060434 107.41751820
v 2.24056607 3.17123028 110.27978599
v 16.37518575 3.17123028 87.54284531
v 16.47626420 2.62415276 87.54284531
v 16.53495481 2.16595980 87.54284531
v 16.57408079 1.37476319 88.45867187
v 16.62298908 0.45837723 88.45867187
v 16.61972886 -0.00419741 88.00442040
v 16.62951117 -0.45800878 88.45867187
v 16.57734102 -1.37439475 88.45867187
v 16.51865205 -1.98469271 88.45867187
v 16.02956420 -2.29140670 96.71088666
v 15.86979514 -3.20779261 96.71088666
v 15.81762662 -3.20779261 97.62915552
v 15.81110453 -3.22344137 97.65602082
v -3.24699201 3.17060434 110.46050966
v -4.16321544 3.17060434 110.41166365
v -5.04683273 2.29114921 110.37014782
v -5.04683273 1.36474802 110.41410267
v -5.04683273 0.45837723 110.43120205
v -5.95653510 -0.45738284 110.29931784
v 5.02510233 -3.22344137 110.30176342
v 5.04140550 -2.29140670 110.37503242
v 5.04140550 -1.37439475 110.41410267
v 5.04140550 -0.45738284 110.43364108
v 4.12192164 2.29114921 110.46050966
v -6.81080749 -0.45738284 110.10150135
v -7.26728858 -0.45738284 109.97450829
v -7.79224219 -0.45738284 109.78890002
v -8.70520519 -0.45738284 109.39570606
v -9.24972178 -0.45738284 109.12950516
v -9.20733476 -1.37439475 109.10263985
v -9.70946433 -0.45738284 108.85353506
v -10.40722871 -0.45738284 108.39440227
v -10.87023066 -0.45738284 108.06226254
v -11.41148785 -0.45738284 107.60556877
v -11.86470831 -0.45738284 107.20016003
v -12.25923898 -1.37439475 106.71904653
v -12.76136773 -0.45738284 106.24525994
v -13.12003182 -0.45738284 105.78612387
v -13.57977437 -0.45738284 105.16580582
v -13.88300726 -0.45738284 104.70666975
v -14.27753875 -0.45738284 104.03506339
v -14.21884814 -1.37439475 104.03506339
v -14.56772992 -1.37439475 103.38055313
v -14.78292773 -1.37439475 102.92385936
v -14.72423876 -2.29015482 102.80418992
v -15.08290121 -1.37439475 102.20340699
v -15.29484043 -2.29015482 101.28758043
v -15.51003823 -2.29015482 100.55003524
v -15.62415758 -2.29015482 100.09822607
v -15.75132111 -2.29015482 99.46081191
v -15.88826532 -2.29015482 98.54742438
v -16.04803437 -0.45738284 98.54742438
v -16.12954820 -0.45738284 97.63159782
v -15.99260399 -1.37439475 98.54742438
v -16.13280842 -0.00294551 97.62915552
v -16.04803437 -0.00357146 98.54742438
v -16.04803437 0.45837723 98.54498208
v -15.85892001 1.36474802 99.44860041
v -15.62415758 2.29114921 100.10311067
v -15.63720012 1.36474802 100.48898101
v -15.55242607 1.56567691 100.73320121
v -15.08616308 1.36474802 102.20340699
v -15.46765039 1.36474802 101.09220296
v -15.44156531 1.30590907 101.19966090
v -14.72749898 2.29114921 102.80418992
v -14.57099015 1.36474802 103.38299215
v -14.10146693 2.29114921 104.03262109
v -13.79823321 2.29114921 104.56990421
v -13.55042906 1.36474802 105.12184441
v -12.72876220 1.36474802 106.20618314
v -13.09720779 1.36474802 105.73972344
v -12.27228070 1.37538913 106.70683503
v -11.82884173 1.37538913 107.16597110
v -11.30062791 2.29114921 107.50788003
v -10.74632900 2.29114921 107.96945512
v -10.65503286 3.17060434 107.85711586
v 3.20243757 3.17123028 110.45317948
v -10.17898755 3.17060434 108.23077142
v -9.64751268 3.17060434 108.56779575
v -8.97257233 3.17060434 108.97564679
v -8.54217591 3.17060434 109.19788629
v -8.52261210 3.17060434 109.20765549
v -7.79224219 3.17060434 109.53491062
v -6.85319493 3.17060434 109.87681955
v -6.45214340 3.17060434 110.00137031
v -6.05435250 3.17060434 110.09906232
v -6.01196507 3.17060434 110.10883152
v -5.07617803 3.17060434 110.29443979
v 15.87631723 3.17123028 96.74996346
v 16.02956420 2.29114921 96.71088666
v 16.51212996 1.98443522 88.45867187
v 16.13716310 1.37476319 96.71088666
v 16.18933326 0.45837723 96.71088666
v 16.18933326 -0.00294551 96.71088666
v 16.13716310 -0.45738284 97.62915552
v 16.13716310 -1.37439475 96.71088666
v 16.06869182 -1.49833217 97.62915552
v 15.97413382 -2.29140670 97.62915552
v 15.72633049 -3.22344137 98.55963588
v 15.88935977 -2.29140670 98.54498208
v -5.04683273 3.17060434 110.29931784
v -5.95653510 2.29114921 110.21140158
v -5.95653510 1.36474802 110.27245581
v -5.95653510 0.45837723 110.29687881
v -5.95653510 -0.00357146 110.29931784
v -6.81406813 0.45837723 110.10150135
v 5.60548591 -3.22344137 110.18697858
v 5.95762873 -2.29140670 110.21628618
v 5.95762873 -1.49833217 110.26757121
v 5.95762873 -1.37439475 110.27490139
v 5.95762873 -0.45738284 110.30176342
v 5.49462596 -0.00294551 110.37014782
v 5.04140550 0.45837723 110.43364108
v 5.04140550 2.29114921 110.37258685
v 4.12192164 3.17123028 110.41410267
v 5.04140550 1.37476319 110.41410267
v -7.27054963 -0.00294551 109.97450829
v -7.79224219 -0.00357146 109.78890002
v -8.70520519 0.45837723 109.39570606
v -9.24972178 -0.00357146 109.12950516
v -9.70946433 -0.00357146 108.85353506
v -10.41048894 0.45837723 108.39195669
v -10.87023066 0.45837723 108.06226254
v -11.86796853 -0.00294551 107.20016003
v -11.41148785 -0.00357146 107.60556877
v -12.32771108 -0.00357146 106.71904653
v -12.32445003 -0.45738284 106.71904653
v -12.76136773 0.45837723 106.24525994
v -12.94069977 -0.00357146 106.01813257
v -13.12003182 0.45837723 105.78612387
v -13.35153321 -0.00357146 105.47840714
v -13.88626913 -0.00357146 104.70666975
v -13.57977437 0.45837723 105.16580582
v -14.28079898 -0.00294551 104.03506339
v -14.59707523 -0.45738284 103.44160736
v -14.80901280 -0.45738284 102.98491359
v -15.14159182 -0.45738284 102.20340699
v -15.44808740 -0.45738284 101.32665724
v -15.43504486 -1.30241092 101.19966090
v -15.55568630 -1.56030093 100.73564351
v -15.66002497 -1.30241092 100.41326970
v -15.85565979 -1.37439475 99.46081191
v -15.90782830 -0.45738284 99.46081191
v -15.97956145 -0.00294551 98.99923354
v -15.90782830 0.45837723 99.45836961
v -15.71545536 0.45837723 100.37663847
v -15.66002497 1.30590907 100.41326970
v -15.66002497 1.36474802 100.39617687
v -15.58177138 0.95412696 100.83577454
v -15.56220675 1.36474802 100.76983243
v -15.14159182 0.45837723 102.20340699
v -14.78292773 1.37538913 102.92385936
v -15.44808740 0.45837723 101.32177263
v -14.60033545 0.45837723 103.43916506
v -14.28079898 0.45837723 104.03506339
v -14.22210837 1.36474802 104.02529418
v -14.81227303 0.45837723 102.98247129
v -13.85366360 1.36474802 104.66270834
v -12.30488705 0.45837723 106.74102724
v -11.86796853 0.45837723 107.20016003
v -11.37562128 1.36474802 107.57381886
v -10.82784364 1.36474802 108.03295493
v -10.28984750 2.29114921 108.30892503
v -9.53339251 2.21853933 108.80713463
v -9.08995355 2.47580350 109.03670102
v -8.75411348 2.21853933 109.23940539
v -7.79224219 2.29114921 109.65702236
v -7.08795654 2.29114921 109.91589308
v -6.50757337 2.94213370 110.01846969
v 15.82414707 3.17123028 97.62915552
v 15.97413382 2.29114921 97.62915552
v 16.12738078 1.46552549 96.71088666
v 16.08173272 1.37476319 97.62671322
v 16.13716310 0.45837723 97.62671322
v 16.13716310 -0.00294551 97.62915552
v 16.05238741 0.45837723 98.54253978
v 16.04912719 -0.45738284 98.54498208
v 15.99695867 -1.37439475 98.54498208
v 16.08173272 -1.37439475 97.62915552
v 15.98391613 -1.49833217 98.54498208
v 15.61873158 -3.14144236 99.37777698
v 15.61220950 -3.22344137 99.31916177
v 15.75241392 -2.29140670 99.46081191
v -6.62821481 2.29114921 110.05266190
v -6.75211688 1.37538913 110.08684754
v -7.27054963 0.45837723 109.97450829
v 6.02936147 -3.22344137 110.10150135
v 6.50214573 -2.94489497 110.02090871
v 6.62278717 -2.29140670 110.05510092
v 6.74668925 -1.37439475 110.09173214
v 6.81190113 -0.45738284 110.10394692
v 5.95762873 0.45837723 110.30176342
v 5.04140550 3.17123028 110.30176342
v 5.95762873 1.37476319 110.27245581
v 5.95762873 2.29114921 110.21384716
v -7.79224219 0.45837723 109.78401542
v -7.79224219 1.36474802 109.74493861
v -8.70520519 1.36474802 109.34930235
v -9.24972178 0.45837723 109.12462056
v -9.70946433 0.45837723 108.85109276
v -10.36810109 1.36474802 108.36753696
v -11.41148785 0.45837723 107.60312647
v -13.88300726 0.45837723 104.70666975
v -14.44056803 -0.00357146 103.73711258
v -14.60033545 -0.00294551 103.43916506
v -14.81227303 -0.00294551 102.98247129
v -15.59155205 -0.45738284 100.86507887
v -15.58177138 -0.94875097 100.83577454
v -15.59155205 0.45837723 100.86507887
v -15.71545536 -0.45738284 100.37908077
v -15.90782830 -0.00357146 99.46081191
v -15.71545536 -0.00357146 100.37908077
v -9.66381626 1.37538913 108.82422745
v -9.16820796 1.86487949 109.07822013
v -7.20859798 1.36474802 109.95496988
v 15.82088685 3.17123028 97.66579002
v 15.99695867 1.37476319 98.54253978
v 15.88935977 2.29114921 98.54253978
v 15.86001446 1.37476319 99.45836961
v 15.90892276 0.45837723 99.45836961
v 15.91218298 -0.00294551 99.45836961
v 15.91218298 -0.45738284 99.45836961
v 15.86001446 -1.37439475 99.45836961
v 15.84697193 -1.49833217 99.46081191
v 15.58612442 -2.79216412 99.95413691
v 15.54047635 -3.22344137 99.72212821
v 15.62199181 -2.29140670 100.11287987
v 6.43693427 -3.22344137 110.00137031
v 6.82168262 -3.22344137 109.88170415
v 7.08578995 -2.29140670 109.91833866
v 7.12817697 -1.49833217 109.97206599
v 7.20317034 -1.37439475 109.95741218
v 7.26838222 -0.45738284 109.97695059
v 7.04014188 -0.00294551 110.04289269
v 6.81190113 -0.00294551 110.10394692
v 6.81190113 0.45837723 110.10150135
v 6.00653743 3.17123028 110.11127055
v 6.74668925 1.37476319 110.08684754
v 6.62278717 2.29114921 110.05510092
v 6.50540637 2.94526341 110.02090871
v -9.20407372 1.37538913 109.09775525
v 15.73937302 3.17123028 98.54253978
v 15.75567579 2.29114921 99.45836961
v 15.62199181 2.29114921 100.11043757
v 15.65459734 1.46552549 100.37175387
v 15.65785756 1.31905395 100.41815430
v 15.71980840 0.45837723 100.37663847
v 15.71980840 -0.00294551 100.37908077
v 15.71980840 -0.45738284 100.37908077
v 15.65785756 -1.31805957 100.42059660
v 15.50787082 -2.29140670 100.56713134
v 15.42309513 -3.14144236 100.30581504
v 15.40353214 -3.22344137 100.31314194
v 15.45570230 -3.22344137 100.09578377
v 15.58938628 -1.49833217 100.64039707
v 15.56004098 -1.49833217 100.76006323
v 15.55351889 -1.58596475 100.74297041
v 7.77377201 -3.22344137 109.53735292
v 7.78681455 -2.29140670 109.66190696
v 7.78681455 -1.37439475 109.74982321
v 7.26838222 0.45837723 109.97695059
v 7.78681455 -0.45738284 109.78890002
v 6.11739697 3.17123028 110.08196294
v 7.20643139 1.37476319 109.95741218
v 7.08578995 2.29114921 109.91833866
v 6.76299242 3.17123028 109.90612715
v 15.67090010 3.17123028 99.00900275
v 15.61873158 3.17123028 99.35579628
v 15.58612442 2.79190662 99.95169461
v 15.50787082 2.29114921 100.56713134
v 15.55351889 1.58695914 100.74297041
v 15.58286419 0.97603513 100.84065586
v 15.59264651 0.45837723 100.87729037
v 15.59264651 -0.45738284 100.87484807
v 15.58286419 -0.97504074 100.84309816
v 15.29919347 -2.29140670 101.28758043
v 15.12638351 -3.22344137 101.28758043
v 15.51765313 -1.49833217 100.89438647
v 15.43939954 -1.31805957 101.20454550
v 8.50414274 -3.22344137 109.21009779
v 8.75194689 -2.22067465 109.24184442
v 8.70303778 -1.37439475 109.35174465
v 8.70303778 -0.45738284 109.39814836
v 7.78681455 0.45837723 109.78890002
v 7.78681455 1.37476319 109.74738419
v 8.24655710 -0.00294551 109.59596485
v 7.79007560 2.29114921 109.66190696
v 7.79007560 3.17123028 109.53735292
v 6.85102833 3.17123028 109.87681955
v 15.43613767 3.17123028 100.23010701
v 15.41657468 3.17123028 100.30825734
v 15.42309513 3.14118487 100.30581504
v 15.29593324 3.17123028 100.73564351
v 15.13616418 3.17123028 101.28758043
v 15.29919347 2.29114921 101.28758043
v 15.50461059 1.46552549 100.95055610
v 15.43939954 1.31905395 101.20454550
v 15.44591999 0.45837723 101.33398414
v 15.44591999 -0.45738284 101.33642644
v 15.44591999 -0.00294551 101.33642644
v 15.08399567 -1.37439475 102.20340699
v 14.97639677 -2.29140670 102.20340699
v 14.79706472 -3.22344137 102.21317619
v 15.14268627 -0.45738284 102.20340699
v 8.95410297 -3.22344137 108.98052812
v 9.08778695 -2.47981665 109.03914332
v 9.16930078 -1.86951858 109.08065915
v 9.20516735 -1.37439475 109.10508215
v 9.24755519 -0.45738284 109.12706286
v 8.70303778 -0.00294551 109.39814836
v 8.70303778 0.45837723 109.39570606
v 8.70303778 1.37476319 109.35174465
v 8.74868585 2.22166904 109.23940539
v 8.51718528 3.17123028 109.21009779
v 14.80358517 3.17123028 102.22538769
v 14.97639677 2.29114921 102.20340699
v 15.07421335 1.46552549 102.20340699
v 15.10681888 1.46552549 102.11060286
v 15.08399567 1.37476319 102.20340699
v 15.14268627 0.45837723 102.20340699
v 15.29593324 -0.00294551 101.77113950
v 14.81336748 -0.45738284 102.99468279
v 14.78076195 -1.37439475 102.92874396
v 14.77423986 -1.49833217 102.91409016
v 15.03508737 -1.49833217 102.28644192
v 14.72533157 -2.29140670 102.80663222
v 14.68294373 -2.85100307 102.70894349
v 14.64055588 -3.22344137 102.61125803
v 9.61926101 -3.22344137 108.58244956
v 8.96714551 -3.20779261 108.97564679
v 9.53122592 -2.22067465 108.80957365
v 9.53774719 -1.49833217 108.89261186
v 9.66490990 -1.37439475 108.82667303
v 9.70729692 -0.45738284 108.85353506
v 9.47905658 -0.00294551 108.99274290
v 9.24755519 0.45837723 109.12706286
v 9.20190712 1.37476319 109.10263985
v 8.78781347 1.46552549 109.30290192
v 9.16930078 1.86926109 109.08065915
v 9.08778695 2.48018510 109.03914332
v 8.97040574 3.17123028 108.97808909
v 14.68294373 2.85074557 102.70894349
v 14.44166085 3.17123028 103.05817932
v 14.72859180 2.29114921 102.80663222
v 14.78402218 1.37476319 102.92874396
v 14.81010726 0.45837723 102.99468279
v 14.81336748 -0.00294551 102.99468279
v 14.60142991 -0.45738284 103.45381886
v 14.56882438 -1.37439475 103.39031905
v 14.51013377 -2.29140670 103.26576829
v 14.44166085 -3.17712126 103.05817932
v 14.41557577 -3.22344137 103.08748692
v 10.16703865 -3.22344137 108.23077142
v 10.29094113 -2.29140670 108.31380963
v 9.64534609 -1.49833217 108.82422745
v 10.35941323 -1.49833217 108.36509466
v 10.36919473 -1.37439475 108.36997926
v 10.40832235 -0.45738284 108.39684129
v 10.05943974 -0.00294551 108.62885326
v 9.70729692 0.45837723 108.85353506
v 9.66490990 1.37476319 108.82422745
v 9.19864608 1.46552549 109.09775525
v 9.72686073 1.46552549 108.77782702
v 9.53122592 2.22166904 108.80713463
v 9.61600078 3.17123028 108.59221876
v 14.51013377 2.29114921 103.26576829
v 13.92322933 3.17123028 104.05460179
v 13.92648956 3.14181081 104.06437099
v 14.58512714 1.46552549 103.33170712
v 14.56882438 1.37476319 103.38787675
v 14.60142991 0.45837723 103.45381886
v 14.28515365 -0.45738284 104.03750569
v 14.21994096 -1.37439475 104.03750569
v 14.10582161 -2.29140670 104.03750569
v 13.92322933 -3.14206830 104.06681001
v 13.91670724 -3.22344137 104.04239029
v 10.63004142 -3.22344137 107.87421197
v 10.74742263 -2.29140670 107.97190070
v 10.82893727 -1.37439475 108.03539723
v 10.86806407 -0.45738284 108.06714386
v 10.40832235 0.45837723 108.39684129
v 10.87132430 -0.00294551 108.06714386
v 10.36919473 1.37476319 108.36753696
v 10.29094113 2.29114921 108.31136405
v 10.17355992 3.17123028 108.23077142
v 14.10582161 2.29114921 104.03506339
v 13.89714425 3.17123028 104.09855992
v 13.75041774 2.79253256 104.51129228
v 14.21016028 1.46552549 104.03506339
v 14.21994096 1.37476319 104.03506339
v 14.28189179 0.45837723 104.03506339
v 14.28515365 -0.00294551 104.03750569
v 13.88410172 -0.45738284 104.71643895
v 13.85149619 -1.37439475 104.66759294
v 13.84497410 -1.49833217 104.65538144
v 13.79280558 -2.29140670 104.57478881
v 13.75367796 -2.79279006 104.51129228
v 13.70150944 -3.22344137 104.42581505
v 11.19086159 -3.22344137 107.41507590
v 11.29846049 -2.29140670 107.51276463
v 11.37345387 -1.37439475 107.57626116
v 11.40932044 -0.45738284 107.60801107
v 10.87132430 0.45837723 108.06714386
v 10.82893727 1.37476319 108.03539723
v 10.74742263 2.29114921 107.96945512
v 10.63330246 3.17123028 107.87909329
v 13.79606580 2.29114921 104.57478881
v 13.45044425 3.17123028 104.81656998
v 13.42435999 3.14181081 104.87029731
v 13.48631082 2.29114921 105.03392488
v 13.85149619 1.37476319 104.66759294
v 13.88410172 0.45837723 104.71643895
v 13.58086718 -0.45738284 105.17557502
v 13.55152270 -1.37439475 105.12672901
v 13.48631082 -2.29140670 105.03392488
v 12.93527214 -3.20779261 105.54923058
v 13.42435999 -3.14206830 104.87029731
v 13.34936662 -3.22344137 104.94356304
v 11.64734310 -3.22344137 106.98768973
v 11.75820304 -2.29140670 107.09758997
v 11.76146327 -1.49833217 107.21725613
v 11.82993537 -1.37439475 107.17085570
v 11.86580194 -0.45738284 107.20749021
v 11.86906217 0.45837723 107.20504463
v 11.40932044 0.45837723 107.60801107
v 11.37345387 1.37476319 107.57381886
v 11.29846049 2.29114921 107.51276463
v 11.19412182 3.17123028 107.42240280
v 13.55152270 1.37476319 105.12428671
v 13.20916137 3.17123028 105.16336024
v 12.93527214 3.17123028 105.55167288
v 13.02656909 2.29114921 105.66890001
v 13.58086718 0.45837723 105.17312944
v 13.58086718 -0.00294551 105.17557502
v 13.12438650 -0.45738284 105.79345077
v 13.08851993 -1.37439475 105.75437725
v 13.02656909 -2.29140670 105.67133904
v 12.66138373 -2.29140670 106.13047510
v 12.56030528 -3.20779261 106.00836337
v 12.93201191 -3.22344137 105.54678828
v 12.09404228 -3.22344137 106.53588057
v 12.20164200 -2.29140670 106.63845390
v 11.82015387 -1.49833217 107.16108650
v 12.27011411 -1.37439475 106.70927733
v 12.30598068 -0.45738284 106.74591184
v 12.30598068 -0.00294551 106.74835414
v 11.82993537 1.37476319 107.16841340
v 12.30598068 0.45837723 106.74835414
v 12.27011411 1.37476319 106.71171963
v 11.75820304 2.29114921 107.09758997
v 11.65060332 3.17123028 106.99501663
v 13.08525888 1.46552549 105.74460804
v 13.08851993 1.37476319 105.75193167
v 13.12438650 0.45837723 105.79345077
v 12.56356632 3.17123028 106.01080894
v 12.66138373 2.29114921 106.12803280
v 12.76246136 -0.45738284 106.25258684
v 12.72659561 -1.37439475 106.21106774
v 12.65812268 -1.49833217 106.26967967
v 12.55704505 -3.22344137 106.00592434
v 12.76246136 -0.00294551 106.25258684
v 12.75920114 0.45837723 106.25258684
v 12.19838096 2.29114921 106.63845390
v 12.72659561 1.37476319 106.20862544
v 12.10382460 3.17123028 106.53588057
f 1 2 3
f 1 3 4
f 1 4 5
f 1 5 6
f 1 6 7
f 1 7 8
f 1 8 2
f 2 8 9
f 2 9 10
f 2 10 26
f 2 26 77
f 2 77 150
f 2 150 233
f 2 233 310
f 2 310 348
f 2 348 426
f 2 426 470
f 2 470 496
f 2 496 499
f 2 499 522
f 2 522 521
f 2 521 547
f 2 547 574
f 2 574 598
f 2 598 618
f 2 618 639
f 2 639 661
f 2 661 684
f 2 684 698
f 2 698 688
f 2 688 664
f 2 664 663
f 2 663 641
f 2 641 620
f 2 620 600
f 2 600 576
f 2 576 548
f 2 548 527
f 2 527 526
f 2 526 524
f 2 524 523
f 2 523 501
f 2 501 500
f 2 500 475
f 2 475 449
f 2 449 403
f 2 403 322
f 2 322 234
f 2 234 151
f 2 151 78
f 2 78 30
f 2 30 29
f 2 29 28
f 2 28 27
f 2 27 11
f 2 11 4
f 2 4 3
f 4 11 5
f 5 11 12
f 5 12 6
f 6 12 13
f 6 13 14
f 6 14 15
f 6 15 16
f 6 16 34
f 6 34 83
f 6 83 165
f 6 165 164
f 6 164 163
f 6 163 162
f 6 162 161
f 6 161 246
f 6 246 332
f 6 332 415
f 6 415 459
f 6 459 487
f 6 487 486
f 6 486 510
f 6 510 536
f 6 536 561
f 6 561 585
f 6 585 609
f 6 609 631
f 6 631 651
f 6 651 673
f 6 673 693
f 6 693 674
f 6 674 652
f 6 652 632
f 6 632 610
f 6 610 586
f 6 586 562
f 6 562 538
f 6 538 513
f 6 513 491
f 6 491 462
f 6 462 461
f 6 461 420
f 6 420 340
f 6 340 253
f 6 253 171
f 6 171 86
f 6 86 35
f 6 35 17
f 6 17 7
f 7 17 59
f 7 59 18
f 7 18 19
f 7 19 8
f 8 19 20
f 8 20 21
f 8 21 9
f 9 22 10
f 9 21 23
f 9 23 22
f 10 22 24
f 10 24 25
f 10 25 26
f 11 27 13
f 11 13 12
f 13 27 28
f 13 28 14
f 14 28 29
f 14 29 30
f 14 30 15
f 15 30 31
f 15 31 16
f 16 31 32
f 16 32 33
f 16 33 34
f 17 35 36
f 17 36 37
f 17 37 38
f 17 38 39
f 17 39 40
f 17 40 41
f 17 41 42
f 17 42 43
f 17 43 44
f 17 44 45
f 17 45 46
f 17 46 47
f 17 47 48
f 17 48 49
f 17 49 50
f 17 50 51
f 17 51 52
f 17 52 53
f 17 53 54
f 17 54 55
f 17 55 56
f 17 56 57
f 17 57 58
f 17 58 59
f 18 59 60
f 18 60 61
f 18 61 62
f 18 62 63
f 18 63 20
f 18 20 19
f 20 63 64
f 20 64 23
f 20 23 21
f 22 23 24
f 23 65 66
f 23 66 67
f 23 67 68
f 23 68 69
f 23 69 24
f 23 64 70
f 23 70 71
f 23 71 72
f 23 72 65
f 24 69 73
f 24 73 25
f 25 73 74
f 25 74 75
f 25 75 76
f 25 76 26
f 26 76 77
f 30 78 31
f 31 78 32
f 32 78 79
f 32 79 80
f 32 80 81
f 32 81 33
f 33 81 82
f 33 82 34
f 34 82 83
f 35 84 85
f 35 85 36
f 35 86 172
f 35 172 257
f 35 257 247
f 35 247 166
f 35 166 84
f 36 85 87
f 36 87 88
f 36 88 37
f 37 88 38
f 38 88 39
f 39 89 90
f 39 90 40
f 39 88 89
f 40 90 91
f 40 91 92
f 40 92 93
f 40 93 41
f 41 93 94
f 41 94 42
f 42 94 43
f 43 94 95
f 43 95 44
f 44 96 97
f 44 97 45
f 44 95 96
f 45 97 98
f 45 98 46
f 46 98 99
f 46 99 47
f 47 99 48
f 48 99 100
f 48 100 101
f 48 101 49
f 49 101 102
f 49 102 50
f 50 102 51
f 51 102 103
f 51 103 52
f 52 103 104
f 52 104 105
f 52 105 106
f 52 106 53
f 53 106 107
f 53 107 54
f 54 107 108
f 54 108 55
f 55 108 109
f 55 109 56
f 56 109 110
f 56 110 57
f 57 110 111
f 57 111 112
f 57 112 113
f 57 113 114
f 57 114 115
f 57 115 116
f 57 116 117
f 57 117 118
f 57 118 119
f 57 119 58
f 58 120 60
f 58 60 59
f 58 119 120
f 60 120 119
f 60 119 121
f 60 121 122
f 60 122 61
f 61 122 123
f 61 123 124
f 61 124 62
f 62 124 63
f 63 124 64
f 64 124 70
f 65 72 125
f 65 125 126
f 65 126 66
f 66 126 67
f 67 126 127
f 67 127 68
f 68 128 69
f 68 127 129
f 68 129 128
f 69 74 73
f 69 128 130
f 69 130 74
f 70 124 131
f 70 131 132
f 70 132 125
f 70 125 71
f 71 125 72
f 74 130 75
f 75 127 133
f 75 133 76
f 75 130 127
f 76 133 134
f 76 134 77
f 77 134 135
f 77 135 136
f 77 136 137
f 77 137 138
f 77 138 139
f 77 139 140
f 77 140 141
f 77 141 142
f 77 142 143
f 77 143 144
f 77 144 145
f 77 145 146
f 77 146 147
f 77 147 148
f 77 148 149
f 77 149 150
f 78 151 152
f 78 152 79
f 79 152 153
f 79 153 154
f 79 154 155
f 79 155 80
f 80 155 156
f 80 156 157
f 80 157 81
f 81 157 158
f 81 158 159
f 81 159 160
f 81 160 82
f 82 160 244
f 82 244 161
f 82 161 162
f 82 162 163
f 82 163 164
f 82 164 165
f 82 165 83
f 84 166 251
f 84 251 167
f 84 167 168
f 84 168 169
f 84 169 170
f 84 170 87
f 84 87 85
f 86 171 172
f 87 170 88
f 88 170 89
f 89 173 174
f 89 174 175
f 89 175 90
f 89 170 173
f 90 175 91
f 91 175 176
f 91 176 177
f 91 177 92
f 92 177 178
f 92 178 179
f 92 179 94
f 92 94 93
f 94 179 95
f 95 179 180
f 95 180 96
f 96 181 97
f 96 180 181
f 97 181 182
f 97 182 183
f 97 183 98
f 98 183 184
f 98 184 185
f 98 185 99
f 99 185 100
f 100 186 187
f 100 187 188
f 100 188 101
f 100 185 186
f 101 188 189
f 101 189 102
f 102 189 103
f 103 190 104
f 103 189 190
f 104 190 191
f 104 191 192
f 104 192 105
f 105 192 193
f 105 193 194
f 105 194 107
f 105 107 106
f 107 194 195
f 107 195 196
f 107 196 108
f 108 196 109
f 109 196 197
f 109 197 110
f 110 197 111
f 111 197 198
f 111 198 199
f 111 199 112
f 112 199 200
f 112 200 113
f 113 200 114
f 114 200 201
f 114 201 115
f 115 201 202
f 115 202 116
f 116 202 203
f 116 203 117
f 117 203 204
f 117 204 118
f 118 204 119
f 119 204 121
f 121 205 206
f 121 206 207
f 121 207 208
f 121 208 122
f 121 204 205
f 122 208 123
f 123 208 124
f 124 208 209
f 124 209 210
f 124 210 131
f 125 132 131
f 125 131 211
f 125 211 212
f 125 212 126
f 126 212 213
f 126 213 127
f 127 213 214
f 127 214 133
f 127 130 129
f 128 129 130
f 131 210 207
f 131 207 211
f 133 214 215
f 133 215 216
f 133 216 136
f 133 136 135
f 133 135 134
f 136 216 137
f 137 216 217
f 137 217 218
f 137 218 138
f 138 218 139
f 139 218 219
f 139 219 140
f 140 219 220
f 140 220 221
f 140 221 141
f 141 221 222
f 141 222 142
f 142 222 143
f 143 222 223
f 143 223 224
f 143 224 144
f 144 224 145
f 145 225 146
f 145 224 225
f 146 225 147
f 147 225 226
f 147 226 227
f 147 227 228
f 147 228 148
f 148 228 149
f 149 228 229
f 149 229 230
f 149 230 231
f 149 231 150
f 150 231 232
f 150 232 233
f 151 234 152
f 152 234 235
f 152 235 236
f 152 236 153
f 153 237 238
f 153 238 154
f 153 236 237
f 154 238 239
f 154 239 155
f 155 239 240
f 155 240 156
f 156 240 157
f 157 240 241
f 157 241 158
f 158 241 242
f 158 242 159
f 159 242 243
f 159 243 244
f 159 244 160
f 161 244 245
f 161 245 246
f 166 247 248
f 166 248 249
f 166 249 250
f 166 250 251
f 167 251 338
f 167 338 252
f 167 252 168
f 168 252 169
f 169 252 173
f 169 173 170
f 171 253 254
f 171 254 172
f 172 254 255
f 172 255 256
f 172 256 346
f 172 346 257
f 173 252 174
f 174 252 258
f 174 258 259
f 174 259 176
f 174 176 175
f 176 259 260
f 176 260 177
f 177 260 261
f 177 261 178
f 178 261 262
f 178 262 263
f 178 263 180
f 178 180 179
f 180 263 181
f 181 263 264
f 181 264 182
f 182 264 265
f 182 265 266
f 182 266 183
f 183 266 184
f 184 266 267
f 184 267 268
f 184 268 186
f 184 186 185
f 186 268 269
f 186 269 187
f 187 269 189
f 187 189 188
f 189 269 190
f 190 270 191
f 190 269 270
f 191 271 272
f 191 272 192
f 191 270 271
f 192 272 193
f 193 272 273
f 193 273 274
f 193 274 275
f 193 275 194
f 194 275 195
f 195 275 196
f 196 275 276
f 196 276 277
f 196 277 278
f 196 278 197
f 197 278 198
f 198 278 279
f 198 279 280
f 198 280 199
f 199 280 281
f 199 281 200
f 200 281 201
f 201 281 282
f 201 282 283
f 201 283 202
f 202 283 284
f 202 284 203
f 203 284 205
f 203 205 204
f 205 284 287
f 205 287 206
f 206 285 286
f 206 286 211
f 206 211 207
f 206 287 285
f 207 210 208
f 208 210 209
f 211 286 288
f 211 288 213
f 211 213 212
f 213 288 285
f 213 285 289
f 213 289 290
f 213 290 214
f 214 290 215
f 215 290 291
f 215 291 217
f 215 217 216
f 217 291 292
f 217 292 218
f 218 292 219
f 219 292 293
f 219 293 294
f 219 294 220
f 220 295 221
f 220 294 296
f 220 296 297
f 220 297 295
f 221 295 298
f 221 298 222
f 222 298 223
f 223 299 300
f 223 300 224
f 223 298 299
f 224 300 225
f 225 301 226
f 225 300 301
f 226 301 302
f 226 302 227
f 227 303 228
f 227 302 304
f 227 304 303
f 228 303 229
f 229 303 305
f 229 305 306
f 229 306 230
f 230 306 307
f 230 307 232
f 230 232 231
f 232 307 308
f 232 308 309
f 232 309 233
f 233 309 311
f 233 311 312
f 233 312 313
f 233 313 314
f 233 314 315
f 233 315 316
f 233 316 317
f 233 317 318
f 233 318 319
f 233 319 320
f 233 320 321
f 233 321 310
f 234 322 235
f 235 323 324
f 235 324 236
f 235 322 323
f 236 324 237
f 237 324 325
f 237 325 326
f 237 326 238
f 238 240 239
f 238 326 240
f 240 327 328
f 240 328 329
f 240 329 241
f 240 326 327
f 241 329 242
f 242 329 243
f 243 329 330
f 243 330 331
f 243 331 245
f 243 245 244
f 245 332 246
f 245 331 333
f 245 333 332
f 247 257 310
f 247 310 248
f 248 310 334
f 248 334 249
f 249 334 321
f 249 321 335
f 249 335 336
f 249 336 250
f 250 336 337
f 250 337 251
f 251 337 338
f 252 339 258
f 252 338 339
f 253 340 341
f 253 341 254
f 254 341 342
f 254 342 343
f 254 343 255
f 255 343 344
f 255 344 256
f 256 345 346
f 256 344 345
f 257 347 348
f 257 348 310
f 257 346 349
f 257 349 347
f 258 339 350
f 258 350 259
f 259 350 260
f 260 350 419
f 260 419 351
f 260 351 352
f 260 352 261
f 261 352 353
f 261 353 262
f 262 264 263
f 262 353 354
f 262 354 264
f 264 354 265
f 265 354 355
f 265 355 356
f 265 356 266
f 266 356 358
f 266 358 267
f 267 357 268
f 267 358 393
f 267 393 357
f 268 357 359
f 268 359 360
f 268 360 269
f 269 360 270
f 270 360 359
f 270 359 361
f 270 361 362
f 270 362 271
f 271 362 363
f 271 363 364
f 271 364 272
f 272 365 273
f 272 364 366
f 272 366 365
f 273 365 274
f 274 367 368
f 274 368 275
f 274 365 367
f 275 368 276
f 276 368 277
f 277 368 369
f 277 369 370
f 277 370 279
f 277 279 278
f 279 370 371
f 279 371 372
f 279 372 280
f 280 372 373
f 280 373 281
f 281 373 282
f 282 374 375
f 282 375 283
f 282 373 374
f 283 375 287
f 283 287 284
f 285 288 286
f 285 287 375
f 285 375 376
f 285 376 377
f 285 377 289
f 289 377 290
f 290 377 378
f 290 378 291
f 291 379 380
f 291 380 381
f 291 381 292
f 291 378 379
f 292 381 293
f 293 381 382
f 293 382 383
f 293 383 294
f 294 383 296
f 295 297 384
f 295 384 385
f 295 385 298
f 296 383 382
f 296 382 297
f 297 382 386
f 297 386 384
f 298 385 299
f 299 387 388
f 299 388 389
f 299 389 300
f 299 385 390
f 299 390 387
f 300 389 301
f 301 391 302
f 301 389 391
f 302 366 304
f 302 391 436
f 302 436 366
f 303 361 305
f 303 304 361
f 304 366 363
f 304 363 361
f 305 361 392
f 305 392 393
f 305 393 306
f 306 393 394
f 306 394 307
f 307 394 395
f 307 395 308
f 308 396 311
f 308 311 309
f 308 395 396
f 310 321 334
f 311 396 397
f 311 397 312
f 312 397 398
f 312 398 313
f 313 398 314
f 314 398 315
f 315 398 399
f 315 399 316
f 316 399 400
f 316 400 401
f 316 401 317
f 317 401 402
f 317 402 318
f 318 402 319
f 319 402 320
f 320 402 335
f 320 335 321
f 322 403 323
f 323 404 405
f 323 405 324
f 323 403 404
f 324 405 325
f 325 405 406
f 325 406 407
f 325 407 326
f 326 407 408
f 326 408 328
f 326 328 327
f 328 408 409
f 328 409 410
f 328 410 411
f 328 411 412
f 328 412 329
f 329 412 330
f 330 413 333
f 330 333 331
f 330 412 411
f 330 411 413
f 332 333 414
f 332 414 415
f 333 416 414
f 333 413 457
f 333 457 416
f 335 402 417
f 335 417 418
f 335 418 336
f 336 418 339
f 336 339 337
f 337 339 338
f 339 418 419
f 339 419 350
f 340 420 341
f 341 420 421
f 341 421 422
f 341 422 423
f 341 423 342
f 342 423 343
f 343 423 424
f 343 424 344
f 344 425 345
f 344 424 468
f 344 468 425
f 345 425 346
f 346 425 349
f 347 426 348
f 347 349 427
f 347 427 428
f 347 428 426
f 349 425 427
f 351 419 429
f 351 429 352
f 352 429 430
f 352 430 431
f 352 431 432
f 352 432 353
f 353 432 433
f 353 433 354
f 354 433 355
f 355 433 434
f 355 434 356
f 356 434 395
f 356 395 394
f 356 394 435
f 356 435 358
f 357 393 359
f 358 435 393
f 359 393 392
f 359 392 361
f 361 363 362
f 363 366 364
f 365 366 436
f 365 436 388
f 365 388 367
f 367 388 387
f 367 387 438
f 367 438 437
f 367 437 368
f 368 437 438
f 368 438 439
f 368 439 369
f 369 439 370
f 370 439 390
f 370 390 384
f 370 384 371
f 371 440 441
f 371 441 372
f 371 384 386
f 371 386 442
f 371 442 440
f 372 441 373
f 373 441 374
f 374 443 375
f 374 441 443
f 375 443 376
f 376 444 377
f 376 443 445
f 376 445 444
f 377 444 378
f 378 444 445
f 378 445 379
f 379 445 442
f 379 442 382
f 379 382 380
f 380 382 381
f 382 442 386
f 384 390 385
f 387 390 439
f 387 439 438
f 388 436 391
f 388 391 389
f 393 435 394
f 395 434 396
f 396 434 446
f 396 446 397
f 397 446 447
f 397 447 398
f 398 447 399
f 399 447 431
f 399 431 400
f 400 430 401
f 400 431 430
f 401 448 417
f 401 417 402
f 401 430 448
f 403 449 404
f 404 450 406
f 404 406 405
f 404 449 451
f 404 451 450
f 406 450 409
f 406 409 407
f 407 409 408
f 409 450 452
f 409 452 453
f 409 453 454
f 409 454 455
f 409 455 410
f 410 455 456
f 410 456 411
f 411 456 457
f 411 457 413
f 414 458 459
f 414 459 415
f 414 416 458
f 416 457 460
f 416 460 458
f 417 448 418
f 418 448 419
f 419 448 430
f 419 430 429
f 420 461 421
f 421 461 462
f 421 462 463
f 421 463 422
f 422 463 464
f 422 464 423
f 423 464 465
f 423 465 466
f 423 466 424
f 424 466 467
f 424 467 468
f 425 468 469
f 425 469 427
f 426 428 470
f 427 469 471
f 427 471 428
f 428 471 472
f 428 472 473
f 428 473 470
f 431 447 474
f 431 474 432
f 432 474 446
f 432 446 433
f 433 446 434
f 440 443 441
f 440 442 445
f 440 445 443
f 446 474 447
f 449 475 451
f 450 451 476
f 450 476 452
f 451 475 476
f 452 476 477
f 452 477 478
f 452 478 479
f 452 479 480
f 452 480 453
f 453 480 454
f 454 480 481
f 454 481 482
f 454 482 455
f 455 482 456
f 456 482 483
f 456 483 457
f 457 483 460
f 458 460 484
f 458 484 485
f 458 485 486
f 458 486 487
f 458 487 459
f 460 488 489
f 460 489 490
f 460 490 484
f 460 483 488
f 462 491 463
f 463 491 492
f 463 492 493
f 463 493 465
f 463 465 464
f 465 493 466
f 466 494 467
f 466 493 495
f 466 495 517
f 466 517 494
f 467 469 468
f 467 494 469
f 469 494 471
f 470 473 496
f 471 494 497
f 471 497 472
f 472 497 498
f 472 498 473
f 473 498 499
f 473 499 496
f 475 500 476
f 476 500 501
f 476 501 502
f 476 502 477
f 477 502 503
f 477 503 504
f 477 504 478
f 478 504 479
f 479 504 505
f 479 505 480
f 480 505 506
f 480 506 481
f 481 506 482
f 482 506 507
f 482 507 508
f 482 508 483
f 483 508 488
f 484 509 510
f 484 510 485
f 484 490 509
f 485 510 486
f 488 508 489
f 489 511 509
f 489 509 490
f 489 508 512
f 489 512 511
f 491 513 514
f 491 514 492
f 492 515 493
f 492 514 515
f 493 515 516
f 493 516 495
f 494 517 518
f 494 518 497
f 495 519 517
f 495 516 519
f 497 518 498
f 498 518 520
f 498 520 521
f 498 521 522
f 498 522 499
f 501 523 502
f 502 523 524
f 502 524 525
f 502 525 503
f 503 525 526
f 503 526 527
f 503 527 528
f 503 528 504
f 504 528 529
f 504 529 505
f 505 529 530
f 505 530 531
f 505 531 506
f 506 532 507
f 506 531 533
f 506 533 532
f 507 532 508
f 508 532 512
f 509 511 512
f 509 512 534
f 509 534 535
f 509 535 510
f 510 535 536
f 512 532 537
f 512 537 534
f 513 538 539
f 513 539 514
f 514 539 540
f 514 540 515
f 515 540 541
f 515 541 516
f 516 541 542
f 516 542 569
f 516 569 543
f 516 543 519
f 517 519 544
f 517 544 518
f 518 544 545
f 518 545 520
f 519 543 544
f 520 545 546
f 520 546 547
f 520 547 521
f 524 526 525
f 527 548 549
f 527 549 528
f 528 549 550
f 528 550 551
f 528 551 530
f 528 530 529
f 530 551 552
f 530 552 553
f 530 553 531
f 531 553 554
f 531 554 533
f 532 533 554
f 532 554 537
f 534 555 556
f 534 556 557
f 534 557 558
f 534 558 535
f 534 537 555
f 535 558 557
f 535 557 559
f 535 559 560
f 535 560 536
f 536 560 561
f 537 554 553
f 537 553 580
f 537 580 555
f 538 562 563
f 538 563 539
f 539 563 562
f 539 562 564
f 539 564 540
f 540 564 565
f 540 565 541
f 541 565 566
f 541 566 567
f 541 567 542
f 542 568 569
f 542 567 568
f 543 569 544
f 544 569 545
f 545 569 570
f 545 570 595
f 545 595 571
f 545 571 546
f 546 571 572
f 546 572 573
f 546 573 547
f 547 573 574
f 548 575 549
f 548 576 575
f 549 575 577
f 549 577 550
f 550 577 578
f 550 578 552
f 550 552 551
f 552 578 553
f 553 578 579
f 553 579 580
f 555 581 582
f 555 582 556
f 555 580 604
f 555 604 581
f 556 582 557
f 557 582 559
f 559 582 583
f 559 583 560
f 560 583 584
f 560 584 561
f 561 584 585
f 562 586 587
f 562 587 564
f 564 587 588
f 564 588 565
f 565 588 566
f 566 588 587
f 566 587 589
f 566 589 590
f 566 590 567
f 567 590 591
f 567 591 592
f 567 592 593
f 567 593 568
f 568 593 569
f 569 593 570
f 570 593 594
f 570 594 595
f 571 595 572
f 572 595 594
f 572 594 596
f 572 596 597
f 572 597 573
f 573 597 598
f 573 598 574
f 575 576 599
f 575 599 577
f 576 600 601
f 576 601 599
f 577 599 602
f 577 602 578
f 578 602 603
f 578 603 604
f 578 604 579
f 579 604 580
f 581 605 606
f 581 606 582
f 581 604 625
f 581 625 605
f 582 606 607
f 582 607 583
f 583 607 608
f 583 608 584
f 584 608 585
f 585 608 609
f 586 610 611
f 586 611 587
f 587 611 612
f 587 612 589
f 589 612 590
f 590 612 613
f 590 613 591
f 591 614 592
f 591 613 615
f 591 615 636
f 591 636 614
f 592 614 593
f 593 614 616
f 593 616 594
f 594 616 596
f 596 616 617
f 596 617 597
f 597 617 598
f 598 617 618
f 599 601 619
f 599 619 603
f 599 603 602
f 600 620 601
f 601 620 621
f 601 621 619
f 603 619 622
f 603 622 623
f 603 623 604
f 604 623 624
f 604 624 625
f 605 625 645
f 605 645 626
f 605 626 627
f 605 627 606
f 606 627 628
f 606 628 607
f 607 628 629
f 607 629 630
f 607 630 608
f 608 630 631
f 608 631 609
f 610 632 611
f 611 632 633
f 611 633 612
f 612 633 634
f 612 634 613
f 613 634 635
f 613 635 615
f 614 636 616
f 615 635 658
f 615 658 636
f 616 636 637
f 616 637 617
f 617 637 638
f 617 638 618
f 618 638 639
f 619 621 640
f 619 640 622
f 620 641 621
f 621 641 642
f 621 642 643
f 621 643 640
f 622 640 644
f 622 644 623
f 623 644 624
f 624 644 645
f 624 645 625
f 626 645 667
f 626 667 646
f 626 646 647
f 626 647 627
f 627 647 628
f 628 647 629
f 629 647 648
f 629 648 630
f 630 648 649
f 630 649 650
f 630 650 631
f 631 650 651
f 632 652 653
f 632 653 633
f 633 653 654
f 633 654 634
f 634 654 655
f 634 655 656
f 634 656 635
f 635 656 657
f 635 657 658
f 636 658 659
f 636 659 637
f 637 659 660
f 637 660 638
f 638 660 661
f 638 661 639
f 640 643 662
f 640 662 644
f 641 663 642
f 642 663 664
f 642 664 643
f 643 664 665
f 643 665 662
f 644 662 645
f 645 662 666
f 645 666 667
f 646 668 669
f 646 669 647
f 646 667 687
f 646 687 668
f 647 669 670
f 647 670 648
f 648 670 649
f 649 670 671
f 649 671 672
f 649 672 693
f 649 693 673
f 649 673 651
f 649 651 650
f 652 674 653
f 653 674 675
f 653 675 676
f 653 676 654
f 654 676 655
f 655 676 675
f 655 675 677
f 655 677 678
f 655 678 656
f 656 678 679
f 656 679 657
f 657 680 659
f 657 659 658
f 657 679 681
f 657 681 682
f 657 682 680
f 659 680 660
f 660 680 683
f 660 683 661
f 661 683 684
f 662 665 685
f 662 685 686
f 662 686 687
f 662 687 666
f 664 688 689
f 664 689 665
f 665 689 685
f 666 687 667
f 668 687 694
f 668 694 690
f 668 690 669
f 669 690 691
f 669 691 670
f 670 691 671
f 671 691 692
f 671 692 675
f 671 675 674
f 671 674 672
f 672 674 693
f 675 692 677
f 677 692 691
f 677 691 690
f 677 690 678
f 678 690 679
f 679 690 694
f 679 694 681
f 680 682 683
f 681 694 695
f 681 695 682
f 682 696 683
f 682 695 697
f 682 697 696
f 683 696 698
f 683 698 684
f 685 689 697
f 685 697 686
f 686 697 687
f 687 697 695
f 687 695 694
f 688 698 689
f 689 698 696
f 689 696 697

