# https://github.com/mikedh/trimesh
v 34.85519862 -6.72690069 10.53935528
v 34.84837329 -6.72690069 11.81156754
v 34.81425649 -6.91460622 11.81156754
v 34.78013640 -7.09158612 11.81156754
v 34.78013640 -7.09158612 10.53032696
v 34.84837329 -6.72690069 10.53032696
v 0.02757606 -6.72690069 11.81156754
v 34.62319648 -7.79235584 11.81156754
v 34.63001853 -7.78341768 10.53032696
v 0.02757606 -6.72690069 10.53032696
v -34.85463524 -6.73047562 11.81156754
v 34.41166377 -8.70943469 11.81156754
v 34.41166377 -8.69870824 10.53032696
v -34.18592030 -6.73047562 10.53032696
v -34.84098786 -6.73047562 10.53295940
v -34.77957303 -7.07728473 10.53032696
v -34.77957303 -7.08264795 11.81156754
v 34.16601425 -9.62651272 11.81156754
v 34.16601425 -9.61757456 10.53032696
v -34.62263310 -7.79414331 10.53032696
v -34.62263310 -7.79414331 11.81156754
v 33.97495424 -10.28616575 11.81156754
v 33.97495424 -10.28616575 10.53032696
v -34.40427834 -8.70943469 10.53032696
v -34.40427834 -8.70943469 11.81156754
v 33.83165842 -10.74559850 11.81156754
v 33.83165842 -10.74381103 10.53032696
v 33.83165842 -10.74559850 11.45827323
v -34.15862883 -9.62651272 10.53032696
v -34.15862883 -9.62651272 11.81156754
v 33.59283095 -11.46066961 11.81156754
v 33.59965628 -11.45173145 10.53032696
v -33.96756554 -10.28259081 10.53032696
v -34.04944981 -10.02874074 11.81156754
v 33.47000783 -11.81462941 11.81156754
v 33.26530045 -12.37596017 10.53032696
v -33.83109504 -10.73487287 10.53032696
v -33.91980136 -10.45957071 11.81156754
v 33.18341618 -12.60478323 11.81156754
v 33.04694569 -12.96231878 10.53032696
v -33.83109504 -10.74023527 11.81156754
v -33.58544553 -11.47139606 10.53032696
v -33.59226758 -11.46066961 11.81156754
v 33.04694569 -12.96231878 11.81156754
v 32.85588568 -13.41996406 10.53032696
v -33.26473707 -12.37774846 10.53032696
v -33.39438552 -12.02378866 11.81156754
v 32.85588568 -13.41996406 11.81156754
v 32.52152985 -14.21190453 10.53032696
v -33.26473707 -12.37774846 11.81156754
v -33.04638231 -12.96053131 10.53032696
v 32.52152985 -14.21190453 11.81156754
v 32.20081812 -14.93055058 10.53032696
v -33.04638231 -12.96053131 11.81156754
v -32.86214435 -13.41281337 10.53032696
v -32.97814542 -13.13751121 11.81156754
v 32.20081812 -14.93055058 11.81156754
v 31.98246336 -15.38819668 10.53032696
v -32.52096647 -14.22084433 10.53032696
v -32.52096647 -14.21190453 11.81156754
v 31.98246336 -15.38819668 11.81156754
v 31.51845908 -16.31063876 11.81156754
v 31.65493285 -16.03712407 10.53032696
v -32.20025474 -14.92876393 11.81156754
v -32.20025474 -14.92876393 10.53032696
v 31.29328227 -16.74325538 11.81156754
v 31.29328227 -16.74325538 10.53032696
v -32.11837376 -15.10574383 11.81156754
v -31.98189998 -15.39534819 10.53032696
v 31.04080742 -17.20268977 11.81156754
v 31.04080742 -17.20268977 10.53032696
v -31.98189998 -15.38640839 11.81156754
v -31.66119153 -16.03891072 11.81156754
v -31.65436948 -16.04784888 10.53032696
v 30.89751160 -17.46190307 11.81156754
v 30.66550946 -17.87306843 10.53032696
v -31.29954094 -16.74146873 10.53032696
v -31.29954094 -16.74325538 11.45827323
v -31.29954094 -16.74325538 11.81156754
v 30.66550946 -17.87306843 11.81156754
v 30.31750625 -18.45406381 11.81156754
v 30.31068420 -18.45942703 10.53032696
v -31.05389142 -17.19553826 10.53032696
v -31.20401258 -16.92023692 11.81156754
v 30.03091788 -18.91349656 11.81156754
v 30.03091788 -18.91349656 10.53032696
v -30.45341665 -18.22881651 11.81156754
v -31.04706937 -17.20090148 11.81156754
v -30.31694287 -18.45048723 10.53032696
v 29.57373565 -19.61962951 11.81156754
v 29.57373565 -19.61962951 10.53032696
v -30.03717655 -18.90992162 10.53032696
v -30.03717655 -18.90992162 11.81156754
v 29.38949769 -19.90208236 11.81156754
v 29.26667457 -20.08085055 10.53032696
v -29.45717121 -19.79482112 11.81156754
v -29.27293325 -20.07191074 10.53032696
v -29.27293325 -20.07548732 11.81156754
v 29.12337875 -20.28643322 11.81156754
v 29.26667457 -20.08085055 11.45827323
v 28.88455456 -20.62251670 10.53032696
v -28.48822052 -21.17669595 10.53032696
v -28.48822052 -21.17669595 11.81156754
v 28.48196184 -21.18205917 11.81156754
v 28.47513651 -21.18742240 10.53032696
v -28.12656993 -21.64328021 10.53032696
v -28.03786362 -21.76484120 11.81156754
v 28.27042913 -21.46093709 11.81156754
v 28.13395863 -21.63791699 10.53032696
v -27.67621303 -22.22248730 10.53032696
v -27.67621303 -22.22248730 11.81156754
v 27.95654273 -21.86495257 11.81156754
v 27.66995436 -22.22427559 10.53032696
v -27.29409302 -22.68728328 10.53032696
v -27.30091671 -22.68192006 11.81156754
v -27.53291721 -22.39946720 11.81156754
v 27.66995436 -22.22427559 11.81156754
v 27.44477427 -22.50494016 11.81156754
v 27.29465639 -22.68370834 10.53032696
v -26.84373448 -23.22001127 10.53032696
v -27.02114874 -23.01264030 11.81156754
v 27.12406581 -22.89107931 11.81156754
v 26.84429785 -23.22358621 10.53032696
v -26.84373448 -23.22001127 11.81156754
v -26.43431971 -23.68480724 10.53032696
v -26.44114340 -23.67944402 11.81156754
v 26.84429785 -23.22358621 11.81156754
v 26.44170677 -23.67944402 10.53032696
v -25.98396281 -24.17820600 10.53032696
v -25.98396281 -24.17820600 11.81156754
v 26.44170677 -23.67944402 11.81156754
v 25.98452618 -24.17999429 11.81156754
v 25.97770249 -24.18535751 10.53032696
v -25.54725165 -24.64121533 10.53032696
v -25.55407533 -24.63585210 11.81156754
v -25.82019592 -24.35339761 11.81156754
v 25.55463871 -24.63763875 11.81156754
v 25.55463871 -24.63763875 10.53032696
v -25.20607213 -24.98981190 10.53032696
v -25.20607213 -24.98981190 11.81156754
v 25.20663550 -24.98981190 11.81156754
v 25.20663550 -24.98981190 10.53295940
v 25.08381074 -24.98981190 10.53032696
f 1 2 3
f 1 3 4
f 1 4 5
f 1 5 6
f 1 6 10
f 1 10 7
f 1 7 2
f 2 7 11
f 2 11 17
f 2 17 21
f 2 21 25
f 2 25 30
f 2 30 34
f 2 34 38
f 2 38 41
f 2 41 43
f 2 43 47
f 2 47 50
f 2 50 54
f 2 54 56
f 2 56 60
f 2 60 64
f 2 64 68
f 2 68 72
f 2 72 73
f 2 73 79
f 2 79 84
f 2 84 88
f 2 88 87
f 2 87 93
f 2 93 96
f 2 96 98
f 2 98 103
f 2 103 107
f 2 107 111
f 2 111 116
f 2 116 115
f 2 115 121
f 2 121 124
f 2 124 126
f 2 126 130
f 2 130 136
f 2 136 135
f 2 135 140
f 2 140 141
f 2 141 137
f 2 137 132
f 2 132 131
f 2 131 127
f 2 127 122
f 2 122 118
f 2 118 117
f 2 117 112
f 2 112 108
f 2 108 104
f 2 104 99
f 2 99 94
f 2 94 90
f 2 90 85
f 2 85 81
f 2 81 80
f 2 80 75
f 2 75 70
f 2 70 66
f 2 66 62
f 2 62 61
f 2 61 57
f 2 57 52
f 2 52 48
f 2 48 44
f 2 44 39
f 2 39 35
f 2 35 31
f 2 31 26
f 2 26 22
f 2 22 18
f 2 18 12
f 2 12 8
f 2 8 4
f 2 4 3
f 4 8 9
f 4 9 5
f 5 9 13
f 5 13 19
f 5 19 23
f 5 23 27
f 5 27 32
f 5 32 36
f 5 36 40
f 5 40 45
f 5 45 49
f 5 49 53
f 5 53 58
f 5 58 63
f 5 63 67
f 5 67 71
f 5 71 76
f 5 76 82
f 5 82 86
f 5 86 91
f 5 91 95
f 5 95 101
f 5 101 105
f 5 105 109
f 5 109 113
f 5 113 119
f 5 119 123
f 5 123 128
f 5 128 133
f 5 133 138
f 5 138 143
f 5 143 139
f 5 139 134
f 5 134 129
f 5 129 125
f 5 125 120
f 5 120 114
f 5 114 110
f 5 110 106
f 5 106 102
f 5 102 97
f 5 97 92
f 5 92 89
f 5 89 83
f 5 83 77
f 5 77 74
f 5 74 69
f 5 69 65
f 5 65 59
f 5 59 55
f 5 55 51
f 5 51 46
f 5 46 42
f 5 42 37
f 5 37 33
f 5 33 29
f 5 29 24
f 5 24 20
f 5 20 16
f 5 16 14
f 5 14 10
f 5 10 6
f 7 10 11
f 8 12 9
f 9 12 13
f 10 14 15
f 10 15 11
f 11 15 16
f 11 16 17
f 12 18 19
f 12 19 13
f 14 16 15
f 16 20 17
f 17 20 21
f 18 22 23
f 18 23 19
f 20 24 25
f 20 25 21
f 22 26 28
f 22 28 23
f 23 28 27
f 24 29 30
f 24 30 25
f 26 31 32
f 26 32 28
f 27 28 32
f 29 33 34
f 29 34 30
f 31 35 32
f 32 35 36
f 33 37 38
f 33 38 34
f 35 39 36
f 36 39 40
f 37 41 38
f 37 42 43
f 37 43 41
f 39 44 40
f 40 44 48
f 40 48 45
f 42 46 47
f 42 47 43
f 45 48 52
f 45 52 49
f 46 50 47
f 46 51 54
f 46 54 50
f 49 52 57
f 49 57 53
f 51 55 56
f 51 56 54
f 53 57 61
f 53 61 58
f 55 59 56
f 56 59 60
f 58 61 62
f 58 62 63
f 59 64 60
f 59 65 64
f 62 66 67
f 62 67 63
f 64 65 68
f 65 69 68
f 66 70 71
f 66 71 67
f 68 69 72
f 69 73 72
f 69 74 73
f 70 75 71
f 71 75 76
f 73 74 77
f 73 77 78
f 73 78 79
f 75 80 76
f 76 81 82
f 76 80 81
f 77 83 78
f 78 83 84
f 78 84 79
f 81 85 86
f 81 86 82
f 83 87 88
f 83 88 84
f 83 89 87
f 85 90 91
f 85 91 86
f 87 89 92
f 87 92 93
f 90 94 91
f 91 94 95
f 92 96 93
f 92 97 98
f 92 98 96
f 94 99 100
f 94 100 95
f 95 100 99
f 95 99 101
f 97 102 98
f 98 102 103
f 99 104 101
f 101 104 105
f 102 106 107
f 102 107 103
f 104 108 109
f 104 109 105
f 106 110 107
f 107 110 111
f 108 112 109
f 109 112 113
f 110 114 115
f 110 115 116
f 110 116 111
f 112 117 113
f 113 117 118
f 113 118 119
f 114 120 115
f 115 120 121
f 118 122 119
f 119 122 123
f 120 124 121
f 120 125 126
f 120 126 124
f 122 127 123
f 123 127 131
f 123 131 128
f 125 129 126
f 126 129 130
f 128 132 133
f 128 131 132
f 129 134 135
f 129 135 136
f 129 136 130
f 132 137 138
f 132 138 133
f 134 139 135
f 135 139 140
f 137 141 142
f 137 142 138
f 138 142 143
f 139 143 142
f 139 142 141
f 139 141 140

