# https://github.com/mikedh/trimesh
v 0.45230722 35.49609619 17.87410438
v 0.91774164 35.48388141 16.49421126
v 0.45230722 35.49609619 16.49421126
v -0.04661212 35.49609619 17.87410438
v 0.45230722 35.46709019 18.62329394
v 1.36978274 35.47166663 17.87410438
v 1.36978274 35.47166663 16.49421126
v -0.04661212 35.49456852 12.98892021
v -0.00643136 35.49609619 14.15759534
v -0.46182038 35.49609619 17.87263244
v -0.04996086 35.46709019 18.62329394
v 1.36978274 35.44113296 18.62329394
v 0.45230722 35.45945513 18.79108816
v 2.28725826 35.38616973 18.79108816
v 2.28725826 35.42281407 17.87410438
v 2.28725826 35.42281407 16.49421126
v -0.04661212 29.94485575 12.98892021
v -0.16045937 35.49456852 12.98892021
v 3.20473379 35.35105633 16.49421126
v 4.11886057 35.25486904 16.49421126
v 4.81199032 35.16479241 16.49421126
v -0.46182038 35.49456852 13.29286367
v -0.46182038 35.49609619 16.49421126
v -0.46516912 35.45945513 18.79108816
v -1.37929590 35.47014224 17.87263244
v 1.36978274 35.43350118 18.79108816
v 0.45230722 35.14341819 19.70660001
v 2.28725826 35.08998263 19.68893677
v 3.20473379 35.05486923 19.64698821
v 3.76727259 35.02433228 19.60503966
v 3.20473379 35.31441527 18.79108816
v 3.20473379 35.35105633 17.87410438
v 4.81199032 26.22570935 16.49421126
v -3.45533559 19.89888447 14.15538907
v -4.44982553 27.18603167 12.98892021
v -0.46182038 35.49304086 12.98892021
v 4.11886057 35.25486904 17.87410438
v 4.81199032 35.16479241 17.18305469
v -1.07793489 35.47777730 12.98892021
v -1.37929590 35.47014224 12.98892021
v -0.46516912 35.14341819 19.70660001
v -1.38264464 35.43350118 18.79108816
v -2.29677143 35.42281407 16.95712060
v -2.29677143 35.42128640 17.87263244
v -2.30012016 35.39380478 18.62329394
v 0.45230722 34.84723109 20.17907530
v 1.16217820 34.83959603 20.17318755
v 1.43005429 35.06250101 19.79785681
v 1.77494561 34.82738453 20.16288400
v 2.28725826 34.80448264 20.14816463
v 3.20473379 34.75104707 20.10621607
v 3.76727259 34.90677404 19.78166550
v 4.81199032 35.13425874 18.62329394
v 3.76727259 35.25486904 18.79108816
v 3.76727259 35.26250410 18.62329394
v 4.81199032 26.22570935 17.10357338
v -3.45533559 19.89888447 16.49347693
v -29.39578587 19.89888447 14.15538907
v -20.22437775 27.18603167 12.98892021
v 4.11886057 35.22433537 18.62329394
v 4.81199032 35.16326803 17.87410438
v -2.29677143 35.42281407 12.98892021
v -2.30012016 35.08998263 19.68893677
v -1.43621953 35.06250101 19.79638487
v -1.16499471 34.83959603 20.17171562
v -0.46516912 34.84723109 20.17760336
v -0.04661212 34.84723109 20.17907530
v -2.30012016 35.38616973 18.79108816
v -3.21759569 35.34952867 17.87263244
v -3.21759569 35.32051938 18.62329394
v 0.45230722 34.37241184 20.33803791
v 1.43005429 34.46249175 20.29608935
v 2.28725826 34.34493023 20.32111228
v 3.20473379 34.29302233 20.31522453
v 3.76727259 34.25485360 20.30933678
v 3.76727259 34.71135068 20.06426752
v 3.76727259 33.45789331 20.47860295
v 3.76727259 32.53879505 20.50362587
v 4.81199032 26.32036733 18.62329394
v 4.81199032 26.22723701 17.87410438
v 4.81199032 26.24708357 18.03748280
v -6.87745238 26.09899002 20.50436020
v -7.79827664 26.09899002 20.50730407
v -29.38908840 19.89888447 16.49347693
v -29.39578587 19.89888447 14.20911312
v -29.27189076 20.08056703 14.15538907
v -20.22437775 29.16774529 12.98892021
v -3.21759569 35.34952867 12.98892021
v -3.21759569 35.05486923 19.64551628
v -2.30012016 34.80295497 20.14669269
v -1.77776130 34.82738453 20.16288400
v -0.46516912 34.37241184 20.33656597
v -2.30012016 34.34493023 20.32037467
v -1.43621953 34.46249175 20.29461741
v -0.04661212 34.37241184 20.33803791
v -3.21759569 35.31288761 18.79108816
v -4.13172247 35.00448572 19.57781047
v -4.13172247 35.25486904 16.95712060
v -4.13172247 35.25334465 17.87263244
v -4.13172247 35.22280770 18.62329394
v 0.45230722 33.45789331 20.49332231
v 1.36978274 33.45789331 20.49185038
v 2.28725826 33.45789331 20.48890650
v 3.20473379 33.45789331 20.48449069
v 3.76727259 31.62427324 20.50288826
v -0.04661212 32.53879505 20.50362587
v 3.76727259 30.70975470 20.47565907
v 3.76727259 29.80592328 20.34686953
v 3.76727259 29.22423291 20.19452900
v -5.04585007 32.53879505 20.50288826
v -8.71240342 31.62274885 20.50288826
v -11.45813333 30.70823031 20.50288826
v -16.95294106 27.95856404 20.50288826
v -19.70536763 26.12647163 20.50288826
v -19.73215589 26.09899002 20.50288826
v -20.35831744 26.09899002 20.49921006
v -20.35831744 26.12647163 20.49921006
v -20.35831744 26.39212507 20.49626619
v -20.35831744 27.04404387 20.44990182
v -20.35831744 27.30969730 20.42046309
v -20.35831744 27.92192298 20.28284192
v -20.35831744 28.05627572 20.24825305
v -20.35831744 28.16925424 20.21219224
v -29.27189076 20.08056703 16.49347693
v -28.91025985 20.59507939 14.15538907
v -20.07704640 29.27308875 14.15759534
v -20.07369766 29.27308875 12.98892021
v -28.48835492 21.18134948 14.15538907
v -28.13676858 21.64089861 14.15538907
v -27.68137956 22.22564104 14.15538907
v -27.30300331 22.68366414 14.15538907
v -26.84761429 23.22260442 14.15538907
v -26.44580016 23.68062752 14.15538907
v -26.01384902 24.15086540 14.15538907
v -25.55846000 24.63637012 14.15538907
v -25.12651050 25.07149133 14.15538907
v -24.63428864 25.55699604 14.15538907
v -24.20233751 25.96158358 14.15538907
v -23.67663154 26.44556063 14.15538907
v -23.21789378 26.84709447 14.15538907
v -22.67879287 27.30511757 14.15538907
v -22.22005511 27.67916816 14.15538907
v -21.63407678 28.13566523 14.15538907
v -21.19542981 28.47307640 14.15759534
v -21.17533738 28.48834324 14.15759534
v -20.59270779 28.90972364 14.15759534
v -4.13172247 35.25486904 12.98892021
v -3.21759569 34.74951940 20.10474414
v -5.96332518 34.09607130 20.27180403
v -5.04585007 34.16324931 20.29314548
v -4.13172247 34.22889965 20.30639291
v -3.21759569 34.29302233 20.31522453
v -4.13172247 33.45636564 20.47418714
v -3.21759569 33.45636564 20.48301876
v -2.30012016 33.45636564 20.48890650
v -5.04585007 33.45636564 20.46167731
v -1.38264464 33.45636564 20.49185038
v -0.04661212 33.45789331 20.49332231
v -4.13172247 35.21517592 18.79108816
v -5.04585007 34.94647044 19.48066592
v -4.13172247 34.68539673 20.03556639
v -5.04919799 35.13425874 13.29286367
v -5.04585007 35.13425874 16.49421126
v -5.04585007 35.13273108 17.87263244
v -4.88177584 35.12662369 18.62329394
v -5.96332518 32.53879505 20.50141633
v -9.62987894 31.62274885 20.50141633
v -12.37226093 30.70823031 20.50141633
v -16.03546554 28.87613791 20.50141633
v -18.78789211 27.04404387 20.50141633
v -17.87041659 27.95856404 20.49994439
v -19.70536763 27.04404387 20.49185038
v -18.78789211 27.95856404 20.47713101
v -17.87041659 28.87613791 20.44254214
v -19.70536763 27.95856404 20.38881809
v -18.79124084 28.90056419 20.31080872
v -19.70536763 28.56926041 20.23206174
v -20.17750034 28.42574823 20.17024368
v -20.35831744 28.35551816 20.08929044
v -28.88682032 20.62714073 16.49347693
v -28.48835492 21.18134948 16.49347693
v -20.07704640 29.27308875 16.49421126
v -19.61830864 29.57996624 12.98892021
v -28.31088984 21.41493994 16.49347693
v -28.13676858 21.64089861 16.49347693
v -27.68137956 22.22564104 16.49347693
v -27.30300331 22.68366414 16.49347693
v -26.84761429 23.22260442 16.49347693
v -26.44580016 23.68062752 16.49347693
v -25.98706240 24.17834702 16.49347693
v -25.55846000 24.63637012 16.49347693
v -25.09637350 25.09897294 16.49347693
v -24.63428864 25.55699604 16.49347693
v -24.17555088 25.98601150 16.49347693
v -23.67663154 26.44556063 16.49347693
v -23.21789378 26.84709447 16.49347693
v -22.67879287 27.30511757 16.49347693
v -22.22005511 27.67916816 14.20911312
v -21.63407678 28.13566523 16.04160875
v -21.19877690 28.47307640 16.49421126
v -20.62284315 28.88682502 16.49421126
v -20.34492249 29.08377277 16.49421126
v -5.04919799 35.13425874 12.98892021
v -7.59736957 33.96171856 20.19894481
v -6.88080112 34.02126151 20.23721516
v -6.88080112 33.45636564 20.40206552
v -5.96332518 33.45636564 20.43959826
v -7.79827664 32.53879505 20.49185038
v -6.88080112 32.53879505 20.49921006
v -8.71240342 32.53879505 20.47713101
v -5.04585007 35.09761768 18.79108816
v -6.43545708 34.83348864 19.25473183
v -5.96332518 34.87471270 19.34157282
v -8.20678743 33.89759588 20.15405238
v -5.04585007 34.62127405 19.93989378
v -5.96667392 34.98921889 14.15759534
v -5.96332518 34.98769122 17.87263244
v -5.96332518 34.95410221 18.79108816
v -10.54400655 31.62274885 20.49626619
v -13.28973645 30.70823031 20.49185038
v -15.12133876 29.79218083 20.49332231
v -16.95294106 28.87613791 20.49037844
v -16.03546554 29.79218083 20.46167731
v -15.12133876 30.70823031 20.38293034
v -17.02995548 29.87310129 20.33215016
v -17.87041659 29.61813497 20.27695417
v -18.48988065 29.42729133 20.21660805
v -20.35831744 28.50055801 19.90383297
v -17.38489220 30.23188340 20.15405238
v -19.09929851 29.22423291 20.07751495
v -19.44753775 29.46851211 19.46594656
v -19.71876258 29.50973618 17.87263244
v -19.61495990 29.58149063 17.87263244
v -19.26002318 29.81355834 16.49421126
v -18.90843684 30.03798771 12.98892021
v -20.35831744 28.68071454 19.66023564
v -20.35831744 28.82269907 19.32538152
v -20.35831744 29.02880954 18.79108816
v -22.22005511 27.67764377 16.49347693
v -21.63407678 28.13413757 16.49347693
v -20.35831744 29.03797227 18.62329394
v -5.96667392 34.98921889 12.98892021
v -10.54400655 33.09452819 20.22764593
v -9.62987894 33.21514177 20.27916372
v -8.71240342 33.35407424 20.30786484
v -10.54400655 32.53879505 20.39029002
v -9.62987894 32.53879505 20.44695795
v -11.45813333 31.62274885 20.48154682
v -6.53256187 34.85333848 18.79108816
v -6.99129963 34.76173418 18.79108816
v -7.79827664 34.59073710 18.79108816
v -8.71240342 34.36935979 18.79108816
v -10.13549576 33.92965722 19.28196102
v -9.62987894 33.99988728 19.41663831
v -8.71240342 34.12355291 19.61387128
v -7.86189692 34.19836598 19.79196906
v -8.71240342 33.81209898 20.07162720
v -11.08645538 33.02429813 20.18422544
v -6.62966708 34.87165737 13.29286367
v -6.62631875 34.87013298 17.87263244
v -14.20386324 30.70823031 20.46167731
v -15.95845113 30.69601553 20.27253836
v -12.37226093 31.62274885 20.44401407
v -13.36005339 31.70366603 20.32626241
v -14.20386324 31.48076105 20.29314548
v -16.77547270 30.38150626 20.23427129
v -15.60016731 31.17388683 20.17171562
v -16.61139930 31.22579473 19.36438620
v -17.87041659 30.41814732 19.50200737
v -18.36598719 30.27310747 19.29373652
v -18.73431722 29.75248772 19.68452096
v -20.04356230 29.25018686 18.79108816
v -20.04690940 29.25476986 18.62329394
v -19.58817327 29.56317174 18.62329394
v -19.46093107 29.64714098 18.62329394
v -18.88499731 30.02119320 18.62329394
v -18.90843684 30.03798771 17.87263244
v -18.68409106 30.18150317 16.49421126
v -18.47983444 30.30974853 14.15759534
v -18.45304782 30.32501536 12.98892021
v -6.62966708 34.87165737 12.98892021
v -12.37226093 32.30520296 20.27695417
v -11.42130049 32.57085639 20.29461741
v -7.08505610 34.78005308 17.87263244
v -7.00804168 34.76631391 18.62329394
v -7.79827664 34.62585049 17.87263244
v -8.71240342 34.40752852 17.87263244
v -8.71240342 34.37699157 18.62329394
v -9.62987894 34.12508058 18.79108816
v -10.22255475 33.95561117 18.79108816
v -10.67459585 33.81362337 18.79108816
v -11.45813333 33.55713266 18.79108816
v -12.85108948 33.00597924 19.26503539
v -12.37226093 33.09452819 19.42546993
v -11.42130049 33.22124916 19.74707663
v -11.69922197 32.89605277 20.07751495
v -13.71833803 32.06397581 20.15405238
v -13.10222270 32.17390227 20.22249579
v -7.08840484 34.78005308 14.15759534
v -15.12133876 31.27007085 20.22396773
v -15.95845113 31.33724558 19.68452096
v -14.78314573 32.13726121 19.36070800
v -15.34568453 31.96779179 18.79108816
v -16.03546554 31.62122118 18.79108816
v -16.70515576 31.27617824 18.79108816
v -17.16389352 31.02731931 18.79108816
v -17.87041659 30.62578547 18.79108816
v -18.41956371 30.30516880 18.79108816
v -18.87495274 30.01661348 18.79108816
v -19.58482290 29.55706435 18.79108816
v -18.42625955 30.30974853 18.62329394
v -18.45304782 30.32501536 17.87263244
v -17.87376532 30.66700625 16.49421126
v -17.87376532 30.66700625 12.98892021
v -7.08840484 34.78005308 12.98892021
v -7.76144380 34.63654089 14.15759534
v -8.66217727 34.42126768 14.15759534
v -9.62987894 34.16324931 17.87263244
v -10.11540497 33.99377989 18.62329394
v -10.27947837 33.97393334 17.87263244
v -10.31631121 33.93423694 18.62329394
v -10.73486822 33.83347320 17.87263244
v -11.45813333 33.59377372 17.87263244
v -12.37226093 33.26857733 17.87263244
v -12.37226093 33.23651600 18.62329394
v -12.37226093 33.22888094 18.79108816
v -12.90801311 33.02887785 18.79108816
v -13.36675087 32.84414160 18.79108816
v -14.20386324 32.48841154 18.79108816
v -14.20386324 32.26550656 19.55425948
v -14.88359803 32.18458938 18.79108816
v -15.38586611 31.98916602 17.87263244
v -16.03546554 31.63038063 18.62329394
v -14.89029551 32.18916911 18.62329394
v -16.58461267 31.34793269 18.62329394
v -16.71185324 31.28228563 18.62329394
v -17.20407510 31.05021792 17.87263244
v -17.74987349 30.70364731 18.62329394
v -17.87041659 30.66700625 17.87263244
v -17.20407510 31.05021792 14.15759534
v -17.20407510 31.04869353 12.98892021
v -7.79827664 34.62737816 12.98892021
v -8.71240342 34.40752852 12.98892021
v -9.62987894 34.16324931 12.98892021
v -8.41104323 34.48081064 12.98892021
v -10.24599427 33.98614812 14.15759534
v -10.30961456 33.96629828 14.15759534
v -10.73486822 33.83347320 12.98892021
v -11.45813333 33.59377372 12.98892021
v -12.37226093 33.26857733 12.98892021
v -12.95823926 33.04720002 16.04234308
v -12.95154260 33.04720002 17.87263244
v -13.41362910 32.86246377 17.87263244
v -13.37679626 32.84719693 18.62329394
v -14.20386324 32.49757099 18.62329394
v -14.92712835 32.20291155 17.87263244
v -14.92712835 32.20443594 14.15759534
v -14.92712835 32.20443594 12.98892021
v -15.38586611 31.98763835 12.98892021
v -16.00198144 31.68229180 14.15759534
v -15.70731873 31.82885933 16.49421126
v -16.03546554 31.66396963 17.87263244
v -16.74533734 31.29907685 17.87263244
v -14.20386324 32.52810794 17.87263244
v -16.77212561 31.28533768 14.15759534
v -16.89601744 31.21663528 12.98892021
v -10.27947837 33.97393334 12.98892021
v -12.95154260 33.04720002 12.98892021
v -12.95823926 33.04720002 14.15759534
v -13.41362910 32.86246377 12.98892021
v -14.16033292 32.54642683 14.15759534
v -14.20386324 32.52658027 12.98892021
v -16.03546554 31.66244197 12.98892021
v -16.74533734 31.29755246 12.98892021
f 1 2 3
f 1 3 9
f 1 9 23
f 1 23 10
f 1 10 4
f 1 4 11
f 1 11 5
f 1 5 6
f 1 6 2
f 2 6 7
f 2 7 8
f 2 8 3
f 3 8 9
f 4 10 11
f 5 12 6
f 5 11 24
f 5 24 13
f 5 13 26
f 5 26 12
f 6 12 14
f 6 14 15
f 6 15 16
f 6 16 7
f 7 16 8
f 8 17 35
f 8 35 59
f 8 59 87
f 8 87 127
f 8 127 183
f 8 183 235
f 8 235 280
f 8 280 314
f 8 314 341
f 8 341 366
f 8 366 374
f 8 374 373
f 8 373 359
f 8 359 358
f 8 358 372
f 8 372 370
f 8 370 368
f 8 368 350
f 8 350 349
f 8 349 348
f 8 348 367
f 8 367 344
f 8 344 343
f 8 343 345
f 8 345 342
f 8 342 315
f 8 315 281
f 8 281 242
f 8 242 203
f 8 203 147
f 8 147 88
f 8 88 62
f 8 62 40
f 8 40 39
f 8 39 36
f 8 36 18
f 8 18 9
f 8 16 19
f 8 19 20
f 8 20 21
f 8 21 33
f 8 33 17
f 9 18 22
f 9 22 23
f 10 24 11
f 10 23 40
f 10 40 25
f 10 25 42
f 10 42 24
f 12 26 14
f 13 24 41
f 13 41 27
f 13 27 26
f 14 26 28
f 14 28 29
f 14 29 30
f 14 30 31
f 14 31 32
f 14 32 15
f 15 32 19
f 15 19 16
f 17 33 34
f 17 34 35
f 18 36 22
f 19 32 37
f 19 37 20
f 20 37 38
f 20 38 21
f 21 38 61
f 21 61 53
f 21 53 79
f 21 79 81
f 21 81 80
f 21 80 56
f 21 56 33
f 22 36 39
f 22 39 40
f 22 40 23
f 24 42 41
f 25 40 62
f 25 62 43
f 25 43 44
f 25 44 45
f 25 45 42
f 26 27 28
f 27 46 47
f 27 47 48
f 27 48 28
f 27 41 67
f 27 67 46
f 28 48 49
f 28 49 50
f 28 50 29
f 29 50 51
f 29 51 30
f 30 52 53
f 30 53 54
f 30 54 31
f 30 51 52
f 31 54 55
f 31 55 32
f 32 55 37
f 33 56 57
f 33 57 34
f 34 57 84
f 34 84 85
f 34 85 58
f 34 58 59
f 34 59 35
f 37 55 60
f 37 60 53
f 37 53 61
f 37 61 38
f 41 42 63
f 41 63 64
f 41 64 65
f 41 65 66
f 41 66 67
f 42 45 68
f 42 68 63
f 43 62 88
f 43 88 69
f 43 69 44
f 44 69 45
f 45 69 70
f 45 70 96
f 45 96 68
f 46 71 47
f 46 67 95
f 46 95 71
f 47 72 73
f 47 73 49
f 47 49 48
f 47 71 72
f 49 73 74
f 49 74 75
f 49 75 50
f 50 75 51
f 51 75 76
f 51 76 52
f 52 76 53
f 53 60 54
f 53 76 75
f 53 75 77
f 53 77 78
f 53 78 79
f 54 60 55
f 56 80 57
f 57 80 81
f 57 81 79
f 57 79 82
f 57 82 83
f 57 83 84
f 58 85 124
f 58 124 86
f 58 86 87
f 58 87 59
f 63 89 90
f 63 90 91
f 63 91 64
f 63 68 89
f 64 91 65
f 65 92 66
f 65 91 93
f 65 93 94
f 65 94 92
f 66 92 95
f 66 95 67
f 68 96 97
f 68 97 89
f 69 88 147
f 69 147 98
f 69 98 99
f 69 99 70
f 70 99 100
f 70 100 159
f 70 159 96
f 71 101 102
f 71 102 103
f 71 103 104
f 71 104 77
f 71 77 73
f 71 73 72
f 71 95 158
f 71 158 101
f 73 77 74
f 74 77 75
f 77 104 78
f 78 105 79
f 78 104 103
f 78 103 102
f 78 102 101
f 78 101 158
f 78 158 106
f 78 106 83
f 78 83 105
f 79 105 107
f 79 107 108
f 79 108 109
f 79 109 82
f 82 109 108
f 82 108 107
f 82 107 105
f 82 105 83
f 83 106 110
f 83 110 111
f 83 111 112
f 83 112 113
f 83 113 114
f 83 114 115
f 83 115 84
f 84 115 116
f 84 116 117
f 84 117 118
f 84 118 119
f 84 119 120
f 84 120 121
f 84 121 122
f 84 122 123
f 84 123 124
f 84 124 85
f 86 124 125
f 86 125 87
f 87 126 127
f 87 125 128
f 87 128 129
f 87 129 130
f 87 130 131
f 87 131 132
f 87 132 133
f 87 133 134
f 87 134 135
f 87 135 136
f 87 136 137
f 87 137 138
f 87 138 139
f 87 139 140
f 87 140 141
f 87 141 142
f 87 142 143
f 87 143 144
f 87 144 145
f 87 145 146
f 87 146 126
f 89 148 90
f 89 97 148
f 90 148 149
f 90 149 150
f 90 150 91
f 91 150 151
f 91 151 152
f 91 152 93
f 92 94 93
f 92 93 153
f 92 153 154
f 92 154 155
f 92 155 95
f 93 152 156
f 93 156 153
f 95 155 157
f 95 157 158
f 96 159 160
f 96 160 97
f 97 160 161
f 97 161 148
f 98 147 203
f 98 203 162
f 98 162 163
f 98 163 164
f 98 164 99
f 99 164 165
f 99 165 100
f 100 165 159
f 106 158 110
f 110 166 167
f 110 167 111
f 110 158 157
f 110 157 166
f 111 167 112
f 112 168 169
f 112 169 113
f 112 167 168
f 113 169 170
f 113 170 114
f 114 170 117
f 114 117 115
f 115 117 116
f 117 170 171
f 117 171 118
f 118 172 119
f 118 171 172
f 119 172 173
f 119 173 120
f 120 173 174
f 120 174 175
f 120 175 121
f 121 175 176
f 121 176 122
f 122 176 177
f 122 177 123
f 123 177 178
f 123 178 179
f 123 179 124
f 124 180 125
f 124 179 180
f 125 180 181
f 125 181 128
f 126 182 183
f 126 183 127
f 126 146 182
f 128 181 184
f 128 184 129
f 129 184 185
f 129 185 186
f 129 186 130
f 130 186 187
f 130 187 131
f 131 187 188
f 131 188 132
f 132 188 189
f 132 189 133
f 133 189 134
f 134 189 190
f 134 190 191
f 134 191 135
f 135 191 136
f 136 191 192
f 136 192 193
f 136 193 137
f 137 193 138
f 138 193 194
f 138 194 195
f 138 195 139
f 139 195 196
f 139 196 140
f 140 196 197
f 140 197 141
f 141 197 198
f 141 198 142
f 142 198 199
f 142 199 143
f 143 199 200
f 143 200 144
f 144 200 145
f 145 200 146
f 146 201 202
f 146 202 182
f 146 200 201
f 148 161 204
f 148 204 205
f 148 205 149
f 149 205 206
f 149 206 150
f 150 206 207
f 150 207 151
f 151 207 152
f 152 207 156
f 153 156 208
f 153 208 154
f 154 208 209
f 154 209 155
f 155 209 157
f 156 207 210
f 156 210 208
f 157 209 166
f 159 165 211
f 159 211 212
f 159 212 213
f 159 213 160
f 160 213 214
f 160 214 215
f 160 215 161
f 161 215 204
f 162 203 242
f 162 242 216
f 162 216 163
f 163 216 217
f 163 217 164
f 164 217 218
f 164 218 211
f 164 211 165
f 166 209 167
f 167 209 219
f 167 219 168
f 168 220 221
f 168 221 169
f 168 219 220
f 169 221 171
f 169 171 170
f 171 221 222
f 171 222 172
f 172 222 173
f 173 222 223
f 173 223 174
f 174 223 224
f 174 224 225
f 174 225 226
f 174 226 176
f 174 176 175
f 176 227 177
f 176 226 227
f 177 227 178
f 178 228 179
f 178 227 229
f 178 229 230
f 178 230 231
f 178 231 228
f 179 228 186
f 179 186 185
f 179 185 184
f 179 184 181
f 179 181 180
f 182 202 232
f 182 232 233
f 182 233 183
f 183 233 234
f 183 234 235
f 186 228 187
f 187 228 236
f 187 236 188
f 188 236 189
f 189 236 190
f 190 236 191
f 191 236 237
f 191 237 238
f 191 238 192
f 192 238 193
f 193 238 194
f 194 238 195
f 195 238 196
f 196 238 197
f 197 239 198
f 197 238 239
f 198 239 199
f 199 239 240
f 199 240 200
f 200 240 241
f 200 241 201
f 201 241 232
f 201 232 202
f 204 214 243
f 204 243 244
f 204 244 245
f 204 245 205
f 204 215 214
f 205 245 206
f 206 245 246
f 206 246 247
f 206 247 207
f 207 247 210
f 208 210 248
f 208 248 219
f 208 219 209
f 210 247 248
f 211 218 212
f 212 218 249
f 212 249 250
f 212 250 251
f 212 251 252
f 212 252 253
f 212 253 254
f 212 254 255
f 212 255 256
f 212 256 214
f 212 214 213
f 214 256 255
f 214 255 257
f 214 257 258
f 214 258 243
f 216 242 281
f 216 281 259
f 216 259 260
f 216 260 217
f 217 260 249
f 217 249 218
f 219 248 220
f 220 248 261
f 220 261 221
f 221 223 222
f 221 261 223
f 223 261 224
f 224 262 225
f 224 261 263
f 224 263 264
f 224 264 265
f 224 265 262
f 225 262 226
f 226 262 266
f 226 266 227
f 227 266 229
f 228 231 236
f 229 266 267
f 229 267 268
f 229 268 269
f 229 269 270
f 229 270 271
f 229 271 230
f 230 271 231
f 231 272 238
f 231 238 237
f 231 237 236
f 231 271 270
f 231 270 272
f 232 241 273
f 232 273 233
f 233 273 272
f 233 272 274
f 233 274 275
f 233 275 276
f 233 276 277
f 233 277 234
f 234 277 278
f 234 278 235
f 235 278 279
f 235 279 280
f 238 272 241
f 238 241 239
f 239 241 240
f 241 272 273
f 243 246 244
f 243 258 282
f 243 282 283
f 243 283 246
f 244 246 245
f 246 283 282
f 246 282 263
f 246 263 247
f 247 263 248
f 248 263 261
f 249 260 284
f 249 284 285
f 249 285 250
f 250 285 251
f 251 285 284
f 251 284 286
f 251 286 287
f 251 287 288
f 251 288 252
f 252 288 289
f 252 289 253
f 253 289 290
f 253 290 291
f 253 291 292
f 253 292 293
f 253 293 294
f 253 294 295
f 253 295 254
f 254 257 255
f 254 295 258
f 254 258 257
f 258 295 296
f 258 296 297
f 258 297 298
f 258 298 282
f 259 281 315
f 259 315 299
f 259 299 284
f 259 284 260
f 262 265 300
f 262 300 267
f 262 267 266
f 263 282 264
f 264 282 265
f 265 282 298
f 265 298 300
f 267 301 268
f 267 300 297
f 267 297 302
f 267 302 301
f 268 301 302
f 268 302 303
f 268 303 304
f 268 304 305
f 268 305 306
f 268 306 270
f 268 270 269
f 270 306 307
f 270 307 308
f 270 308 309
f 270 309 310
f 270 310 272
f 272 310 274
f 274 310 275
f 275 310 276
f 276 310 309
f 276 309 308
f 276 308 311
f 276 311 312
f 276 312 277
f 277 312 278
f 278 312 279
f 279 312 313
f 279 313 314
f 279 314 280
f 284 299 316
f 284 316 286
f 286 316 287
f 287 316 317
f 287 317 318
f 287 318 288
f 288 318 289
f 289 318 319
f 289 319 290
f 290 320 321
f 290 321 291
f 290 319 320
f 291 321 322
f 291 322 292
f 292 323 324
f 292 324 325
f 292 325 326
f 292 326 293
f 292 322 323
f 293 326 327
f 293 327 328
f 293 328 329
f 293 329 302
f 293 302 330
f 293 330 294
f 294 330 297
f 294 297 296
f 294 296 295
f 297 330 302
f 297 300 298
f 299 315 316
f 302 329 331
f 302 331 303
f 303 332 333
f 303 333 304
f 303 331 334
f 303 334 332
f 304 333 335
f 304 335 305
f 305 335 336
f 305 336 306
f 306 337 338
f 306 338 307
f 306 336 337
f 307 311 308
f 307 338 311
f 311 338 339
f 311 339 312
f 312 339 313
f 313 339 337
f 313 337 340
f 313 340 314
f 314 340 341
f 315 342 316
f 316 342 317
f 317 343 344
f 317 344 318
f 317 342 345
f 317 345 343
f 318 344 346
f 318 346 320
f 318 320 319
f 320 346 322
f 320 322 321
f 322 346 347
f 322 347 348
f 322 348 349
f 322 349 323
f 323 349 350
f 323 350 324
f 324 350 369
f 324 369 351
f 324 351 352
f 324 352 327
f 324 327 325
f 325 327 326
f 327 352 353
f 327 353 354
f 327 354 328
f 328 354 355
f 328 355 329
f 329 355 331
f 331 355 334
f 332 356 357
f 332 357 358
f 332 358 359
f 332 359 360
f 332 360 361
f 332 361 362
f 332 362 333
f 332 334 356
f 333 362 363
f 333 363 335
f 334 355 364
f 334 364 356
f 335 363 336
f 336 363 337
f 337 363 365
f 337 365 340
f 337 339 338
f 340 365 366
f 340 366 341
f 344 367 346
f 346 367 348
f 346 348 347
f 350 368 369
f 351 369 370
f 351 370 353
f 351 353 352
f 353 370 364
f 353 364 355
f 353 355 354
f 356 364 357
f 357 364 358
f 358 364 371
f 358 371 372
f 359 373 360
f 360 363 362
f 360 362 361
f 360 373 374
f 360 374 365
f 360 365 363
f 364 370 371
f 365 374 366
f 368 370 369
f 370 372 371

