# https://github.com/mikedh/trimesh
v -21.49359042 -28.24422461 16.49332613
v -21.40688056 -28.31300241 16.49332613
v -21.49359042 -28.24422461 17.87484199
v -21.49359042 -3.49178502 16.49332613
v -21.18037278 -28.48180962 17.87484199
v -21.18037278 -28.48180962 16.49332613
v -21.49359042 -28.20671481 18.62399548
v -21.49359042 -3.49178502 18.62399548
v -19.72577149 28.57572513 16.49332613
v -21.15559900 -28.46305472 18.62399548
v -20.62649185 -28.88195020 17.87484199
v -20.72735885 -28.77566260 18.62399548
v -20.62649185 -28.88195020 16.49332613
v -19.72577149 28.57572513 18.62399548
v -3.41547856 28.57572513 16.49332613
v -20.35751427 -29.07576722 16.49332613
v -20.07968867 -29.26958424 17.87484199
v -20.15401328 -29.18205482 18.62399548
v -3.46148806 28.57572513 18.62399548
v -3.41724800 -21.41057653 16.49332613
v -3.41547856 28.57572513 16.51021898
v -20.07968867 -29.26958424 16.49332613
v -19.96997530 -29.30710060 18.62399548
v -20.05314464 -29.25082934 18.62399548
v -19.72577149 -29.50716925 17.87484199
v -3.41724800 21.41696098 18.62399548
v -3.42963571 28.57572513 18.18956107
v -3.74285253 -35.29670281 16.49332613
v -3.41724800 -21.41057653 18.62399548
v -3.41724800 28.57572513 17.87484199
v -19.72577149 -29.50716925 16.49332613
v -19.72577149 -29.46965617 18.62399548
v -18.88698721 -30.01359743 18.62399548
v -18.91353125 -30.03235561 17.87484199
v -3.74285253 -35.29670281 17.87484199
v -4.13039232 -35.25293810 16.49332613
v -3.74285253 -35.25918973 18.62399548
v -3.74285253 -35.28419954 18.19018722
v -18.91353125 -30.03235561 16.49332613
v -18.42866415 -30.30119878 18.62399548
v -18.45520819 -30.31995696 17.87484199
v -4.13039232 -35.25293810 17.87484199
v -5.04703926 -35.12789232 16.49332613
v -4.13039232 -35.22167665 18.62399548
v -18.45520819 -30.31995696 16.49332613
v -17.98095772 -30.57004196 18.62399548
v -17.87478322 -30.66382629 17.87484199
v -5.04703926 -35.10288579 18.62399548
v -5.04703926 -35.12789232 17.87484199
v -5.96545523 -34.98409164 16.49332613
v -17.87478322 -30.66382629 16.49332613
v -17.17402661 -31.02645380 18.62399548
v -17.54386956 -30.85139168 16.49332613
v -17.20587814 -31.03895706 17.87484199
v -5.96545523 -34.95908511 18.62399548
v -5.96545523 -34.98409164 17.87484199
v -6.29990736 -34.92782367 16.49332613
v -16.74755508 -31.29529697 17.87484199
v -16.71570191 -31.27654207 18.62399548
v -16.97406286 -31.17025447 16.49332613
v -6.55295836 -34.85279751 18.62399548
v -6.62551148 -34.86530078 17.87484199
v -6.62728092 -34.86530078 16.95841879
v -7.08560439 -34.77777136 16.49332613
v -16.74755508 -31.29529697 16.49332613
v -16.04148934 -31.65792448 17.87484199
v -16.04148934 -31.62666303 18.62399548
v -7.01128224 -34.75901318 18.62399548
v -7.08383495 -34.77777136 17.87484199
v -7.08560439 -34.77777136 16.95841879
v -7.44660014 -34.70274520 16.49332613
v -16.04148934 -31.65792448 16.49332613
v -15.38851166 -31.98303891 17.87484199
v -15.26994864 -32.00804872 18.62399548
v -7.79697845 -34.59645760 18.62399548
v -7.79697845 -34.62146742 17.87484199
v -7.79697845 -34.62146742 16.49332613
v -15.38851166 -31.98303891 16.49332613
v -14.93018860 -32.20186574 17.87484199
v -14.89479655 -32.18311084 18.62399548
v -8.71362539 -34.37763077 18.62399548
v -8.71362539 -34.40264058 17.87484199
v -8.71362539 -34.40264058 16.49332613
v -14.93018860 -32.20186574 16.49332613
v -14.57450116 -32.36442459 16.49332613
v -14.20819545 -32.52072853 17.87484199
v -14.20819545 -32.48946709 18.62399548
v -9.63027233 -34.15880394 17.87484199
v -9.63027233 -34.12754250 18.62399548
v -9.63027233 -34.15880394 16.49332613
v -13.41719011 -32.85834623 16.49332613
v -13.41719011 -32.85834623 16.95841879
v -13.41542067 -32.85834623 17.87484199
v -13.37648975 -32.83959133 18.62399548
v -10.28325001 -33.97123856 17.87484199
v -10.23370164 -33.95248038 18.62399548
v -10.28325001 -33.97123856 16.49332613
v -12.95886705 -33.04591161 16.49332613
v -12.95886705 -33.04591161 17.87484199
v -12.91816669 -33.02715671 18.62399548
v -10.69379413 -33.81493134 18.62399548
v -10.74157307 -33.83368951 17.87484199
v -10.74157307 -33.83368951 16.49332613
v -12.37490321 -33.26473844 16.49332613
v -12.37490321 -33.26473844 17.87484199
v -12.37490321 -33.23347700 18.62399548
v -11.46533484 -33.55859143 18.62399548
v -11.46533484 -33.58985287 17.87484199
v -11.46533484 -33.58985287 16.49332613
f 1 2 3
f 1 3 7
f 1 7 8
f 1 8 4
f 1 4 9
f 1 9 15
f 1 15 20
f 1 20 28
f 1 28 36
f 1 36 43
f 1 43 50
f 1 50 57
f 1 57 64
f 1 64 71
f 1 71 77
f 1 77 83
f 1 83 90
f 1 90 97
f 1 97 103
f 1 103 109
f 1 109 104
f 1 104 98
f 1 98 91
f 1 91 85
f 1 85 84
f 1 84 78
f 1 78 72
f 1 72 65
f 1 65 60
f 1 60 53
f 1 53 51
f 1 51 45
f 1 45 39
f 1 39 31
f 1 31 22
f 1 22 16
f 1 16 13
f 1 13 6
f 1 6 2
f 2 5 3
f 2 6 5
f 3 5 7
f 4 8 14
f 4 14 9
f 5 10 7
f 5 6 13
f 5 13 11
f 5 11 12
f 5 12 10
f 7 10 12
f 7 12 18
f 7 18 24
f 7 24 23
f 7 23 32
f 7 32 33
f 7 33 40
f 7 40 46
f 7 46 52
f 7 52 59
f 7 59 67
f 7 67 74
f 7 74 80
f 7 80 87
f 7 87 94
f 7 94 100
f 7 100 106
f 7 106 107
f 7 107 101
f 7 101 96
f 7 96 89
f 7 89 81
f 7 81 75
f 7 75 68
f 7 68 61
f 7 61 55
f 7 55 48
f 7 48 44
f 7 44 37
f 7 37 29
f 7 29 26
f 7 26 19
f 7 19 14
f 7 14 8
f 9 14 19
f 9 19 27
f 9 27 30
f 9 30 21
f 9 21 15
f 11 13 16
f 11 16 17
f 11 17 12
f 12 17 18
f 15 21 29
f 15 29 20
f 16 22 17
f 17 23 24
f 17 24 18
f 17 22 31
f 17 31 25
f 17 25 23
f 19 26 27
f 20 29 35
f 20 35 28
f 21 30 26
f 21 26 29
f 23 25 32
f 25 33 32
f 25 31 39
f 25 39 34
f 25 34 33
f 26 30 27
f 28 35 42
f 28 42 36
f 29 37 38
f 29 38 35
f 33 34 41
f 33 41 40
f 34 39 45
f 34 45 41
f 35 38 42
f 36 42 49
f 36 49 43
f 37 44 38
f 38 44 42
f 40 41 46
f 41 45 51
f 41 51 47
f 41 47 46
f 42 44 48
f 42 48 49
f 43 49 56
f 43 56 50
f 46 47 52
f 47 51 53
f 47 53 54
f 47 54 52
f 48 55 56
f 48 56 49
f 50 56 57
f 52 54 58
f 52 58 59
f 53 60 54
f 54 60 58
f 55 61 62
f 55 62 56
f 56 62 57
f 57 62 63
f 57 63 70
f 57 70 64
f 58 65 72
f 58 72 66
f 58 66 67
f 58 67 59
f 58 60 65
f 61 68 69
f 61 69 62
f 62 69 70
f 62 70 63
f 64 70 71
f 66 72 78
f 66 78 73
f 66 73 67
f 67 73 74
f 68 75 69
f 69 75 76
f 69 76 71
f 69 71 70
f 71 76 77
f 73 78 84
f 73 84 79
f 73 79 74
f 74 79 80
f 75 81 82
f 75 82 76
f 76 82 83
f 76 83 77
f 79 84 85
f 79 85 86
f 79 86 87
f 79 87 80
f 81 88 82
f 81 89 88
f 82 88 90
f 82 90 83
f 85 91 92
f 85 92 86
f 86 92 93
f 86 93 87
f 87 93 94
f 88 89 95
f 88 95 97
f 88 97 90
f 89 96 95
f 91 98 99
f 91 99 92
f 92 99 93
f 93 99 94
f 94 99 100
f 95 96 101
f 95 101 102
f 95 102 103
f 95 103 97
f 98 104 105
f 98 105 99
f 99 105 106
f 99 106 100
f 101 107 102
f 102 107 108
f 102 108 109
f 102 109 103
f 104 109 108
f 104 108 105
f 105 108 107
f 105 107 106

