# https://github.com/mikedh/trimesh
v -35.49750770 0.40406734 14.15337622
v -35.49750770 0.45259941 14.15337622
v -35.49402947 -0.45564327 7.85529673
v -35.49402947 -0.45564327 8.82655531
v -35.49402947 -0.44871017 12.98601240
v -35.49402947 -0.00498852 14.15337622
v -28.58039523 -21.03323293 14.15522516
v -35.46273196 1.37470838 14.15337622
v -35.47664160 1.06964971 12.98601240
v -35.49402947 0.45259941 11.81063652
v -35.49402947 -0.04658742 7.85529673
v -28.58039523 -3.39529899 14.15522516
v -35.47316337 -1.25295556 8.82655531
v -35.46968514 -1.30842078 7.85529673
v -35.46968514 -1.37081909 8.70877087
v -35.46968514 -1.37081909 8.82655531
v -35.46273196 -1.36388599 12.98601240
v -35.41404331 -2.27906182 12.98601240
v -35.34448856 -3.20117074 12.98601240
v -35.32014752 -3.50622942 12.98169822
v -35.25407100 -4.12327987 12.98663199
v -35.13582760 -5.03845570 12.98663199
v -34.98628998 -5.95363152 12.98663199
v -34.86804659 -6.61921368 12.98663199
v -34.78110397 -7.07680200 12.98663199
v -34.72894037 -7.31252906 12.98663199
v -34.62113166 -7.79091587 12.98663199
v -34.40899247 -8.70609169 12.98663199
v -34.16207755 -9.62126752 12.98663199
v -33.97428269 -10.27298388 12.98663199
v -33.82822001 -10.73750531 12.98663199
v -33.59173650 -11.45855268 12.98663199
v -33.26483542 -12.37372850 12.98663199
v -33.04921800 -12.95611304 12.98663199
v -32.75013948 -13.67716042 12.98663199
v -32.52409065 -14.19714746 12.98663199
v -32.20066452 -14.91819483 12.98663199
v -31.98504711 -15.38271544 12.98663199
v -31.65814603 -16.04136449 12.98663199
v -31.53990591 -16.27015886 12.98663199
v -31.28951276 -16.74161297 12.98663199
v -30.66352988 -17.87171615 12.98663199
v -30.31923765 -18.44716800 12.98663199
v -30.03406877 -18.91168860 12.98663199
v -29.57849288 -19.60500357 12.98663199
v -29.26897967 -20.06952581 12.98663199
v -28.88295526 -20.62417713 8.82655531
v -28.53518808 -21.10949827 8.82655531
v -28.47954297 -21.17189658 14.15522516
v -35.41404331 2.28295111 14.15337622
v -35.46273196 1.37470838 11.81063652
v -35.48707629 0.44566626 9.78794962
v -35.45577550 1.36777518 9.78794962
v -35.41404331 2.27601780 9.78794962
v -35.33753538 3.19812693 9.78794962
v -35.24363631 4.12023566 9.78794962
v -35.22624845 4.27969820 9.78794962
v -35.12887442 5.02847838 9.78794962
v -34.97933352 5.94365421 9.78794962
v -34.86456836 6.60923677 9.78794962
v -34.77067256 7.06682469 9.78794962
v -34.61765343 7.78093937 9.78794962
v -34.40203929 8.69611519 9.78794962
v -34.15859932 9.61129102 9.78794962
v -33.84908611 10.65126347 9.78794962
v -33.78300959 10.85925813 9.78794962
v -33.58478332 11.44857536 9.78794962
v -33.25787896 12.36375118 9.78794962
v -33.04226482 12.93920304 9.78794962
v -32.85099173 13.39679095 9.78794962
v -32.51365596 14.18717014 9.78794962
v -32.19023312 14.90821752 9.78794962
v -31.97461570 15.36580461 9.78794962
v -31.64771462 16.02445531 9.78794962
v -31.28951276 16.73163566 9.78794962
v -31.03564138 17.18229088 9.78794962
v -30.65309519 17.85480696 9.78794962
v -30.30880297 18.43719068 9.78794962
v -30.07927919 18.81158056 9.78794962
v -29.57153643 19.60195976 9.78794962
v -29.20290316 20.16354459 9.78794962
v -28.47954297 21.16191926 9.78794962
v -28.13177580 21.61950636 9.78794962
v -27.67272169 22.20189172 9.78794962
v -27.30061019 22.66641232 9.78794962
v -26.51465336 23.58158815 9.78794962
v -25.47134856 24.69782593 9.78794962
v -24.63322813 25.53673643 9.78794962
v -24.17069579 25.97352463 9.78794962
v -23.71511990 26.38258043 9.78794962
v -23.21433360 26.82630214 9.78794962
v -22.67181510 27.29082438 9.78794962
v -21.55200073 28.19213318 9.78794962
v -21.16945619 28.48332423 9.78794962
v -20.16440535 29.20437324 9.78794962
v -18.92635087 30.02941835 9.78794962
v -18.46729675 30.31367588 9.78794962
v -17.88304606 30.66033500 9.78794962
v -17.33704934 30.97926008 9.78794962
v -17.13882143 31.09018969 9.78794962
v -16.17550278 31.59630972 9.78794962
v -15.31999284 32.02616441 9.78794962
v -14.93744830 32.20642584 9.78794962
v -14.35319761 32.46295261 9.78794962
v -13.42465634 32.85814303 9.78794962
v -12.49263765 33.22559940 9.78794962
v -11.63017208 33.53065747 9.78794962
v -10.87899262 33.78718423 9.78794962
v -10.74684123 33.82878530 9.78794962
v -9.63746073 34.16157412 9.78794962
v -8.88280304 34.36263609 9.78794962
v -8.71935250 34.40423715 9.78794962
v -7.80472169 34.62609636 9.78794962
v -7.09527442 34.77862703 9.78794962
v -6.63622031 34.86875611 9.78794962
v -6.09022440 34.96582198 9.78794962
v -5.96850524 34.98661923 9.78794962
v -5.05387524 35.13221639 9.78794962
v -4.13576702 35.25007951 9.78794962
v -3.39502061 35.32634484 9.78794962
v -27.70749742 -0.04658742 7.85529673
v -25.22443200 24.95435270 14.15522516
v -35.25407100 4.07170395 14.15337622
v -35.34448856 3.20506004 14.15337622
v -35.42447472 -2.28599492 7.85529673
v -35.42447472 -2.28599492 8.82655531
v -35.36187971 -3.09024031 8.82655531
v -35.35144502 -3.20810384 8.82655531
v -35.35144502 -3.20810384 7.85529673
v -35.26102418 -4.06088156 7.85529673
v -35.25407100 -4.12327987 7.85529673
v -35.14626229 -4.97605697 7.85529673
v -34.99324316 -5.95363152 8.82655531
v -34.87152481 -6.61921368 8.82655531
v -34.78458220 -7.07680200 8.82655531
v -34.65243245 -7.69385164 8.82655531
v -34.63156307 -7.79091587 8.82655531
v -34.40899247 -8.70609169 7.85529673
v -34.16555250 -9.62126752 8.82655531
v -33.99167055 -10.23831797 7.85652936
v -33.61260260 -11.41002056 7.85652936
v -33.59521473 -11.45855268 8.82655531
v -33.28570152 -12.31133019 7.85652936
v -33.07704056 -12.88678122 8.82655531
v -33.59521473 -11.45855268 7.85652936
v -33.02487696 -13.01851136 8.82655531
v -32.52409065 -14.21101284 7.85652936
v -32.52409065 -14.21101284 8.82655531
v -32.24239672 -14.83499599 8.82655531
v -31.98504711 -15.38964895 8.82655531
v -31.65814603 -16.04136449 7.85652936
v -31.34515459 -16.65148226 8.82655531
v -30.66352988 -17.87171615 11.81125283
v -30.28446192 -18.50956631 8.82655531
v -30.22186363 -18.61356405 9.78733331
v -30.03406877 -18.91168860 7.85652936
v -29.63761294 -19.52873987 8.82655531
v -29.55414856 -19.65353650 7.85652936
v -29.26202321 -20.07645768 7.85652936
v -28.88295526 -20.62417713 7.85652936
v -28.51084376 -21.13723067 7.85652936
v -28.13177580 -21.63641718 7.85652936
v -28.42390114 -21.25509379 9.78733331
v -28.13525403 -21.62948367 12.98663199
v -28.10395325 -21.66414959 14.15522516
v -35.41404331 2.28295111 11.81063652
v -35.34448856 3.20506004 11.81063652
v -35.24711454 4.12716917 11.81063652
v -35.12887442 5.03541148 11.81063652
v -34.99672139 5.90205560 14.15337622
v -34.98628998 5.95058731 11.81063652
v -34.86804659 6.62310297 11.81063652
v -34.77762902 7.08069089 11.81063652
v -34.62113166 7.77400586 10.53227425
v -34.62113166 7.78787206 11.81063652
v -34.40551424 8.70304788 11.81063652
v -34.15859932 9.62515722 12.98601240
v -33.97080446 10.26994007 11.81063652
v -33.82822001 10.72752799 12.98601240
v -33.58478332 11.45550887 12.98601240
v -33.26483542 12.36375118 11.81063652
v -33.04226482 12.94613573 11.81063652
v -32.92749966 13.23039490 11.81063652
v -32.51713419 14.19410365 11.81063652
v -32.20066452 14.91515103 11.81063652
v -31.98157215 15.37273812 11.81063652
v -31.85637558 15.62926489 11.81063652
v -31.65814603 16.03138718 11.81063652
v -31.28951276 16.73856917 11.81063652
v -31.03911960 17.18922439 11.81063652
v -30.65657342 17.86173883 11.81063652
v -30.31228119 18.44412419 11.81063652
v -30.03754700 18.90171128 11.81063652
v -29.57849288 19.60889327 12.98601240
v -29.26897967 20.07341387 11.81063652
v -28.88295526 20.61419981 11.81063652
v -28.48649943 21.16191926 10.53227425
v -28.26740706 21.45311194 11.81063652
v -27.68315637 22.20189172 10.53227425
v -27.55100334 22.36828777 12.98601240
v -27.30061019 22.67334583 12.98601240
v -27.12324673 22.88133967 11.81063652
v -26.97370747 23.05466923 10.53227425
v -26.84155608 23.20719826 11.81063652
v -26.84155608 23.20719826 14.15337622
v -26.44162202 23.65785348 14.15337622
v -25.96170181 24.19170591 14.15337622
v -25.98952437 24.15704000 10.53227425
v -25.55133635 24.62849411 12.98601240
v -25.09228224 25.09301471 12.98601240
v -24.63322813 25.55060345 12.98601240
v -24.14635146 26.00819054 14.15522516
v -23.66990948 26.43111336 12.98601240
v -23.21433360 26.83323565 12.98601240
v -22.67181510 27.29082438 14.15522516
v -22.18146021 27.69988018 14.15522516
v -21.20075369 28.46252697 14.15522516
v -21.16597796 28.49025774 10.53227425
v -20.22004718 29.16277545 14.15522516
v -19.60449899 29.57876312 10.53227425
v -18.92635087 30.02941835 10.53227425
v -18.46729675 30.31367588 10.53227425
v -17.87261302 30.66726851 10.53227425
v -17.21185276 31.03472489 12.98601240
v -16.75279865 31.29125166 12.98601240
v -16.75975347 31.29125166 10.53227425
v -16.05030620 31.66564154 10.53227425
v -15.39650241 31.97763311 12.98601240
v -14.93744830 32.20642584 10.53227425
v -14.21408975 32.51841741 12.98601240
v -14.20713494 32.52535092 10.53227425
v -13.42465634 32.85814303 10.53227425
v -12.96212481 33.04533797 10.53227425
v -12.77432995 33.11466980 12.98601240
v -12.37787412 33.26720047 10.53227425
v -11.46324331 33.59305578 10.53227425
v -10.74684123 33.82878530 12.98601240
v -10.28083147 33.97437918 10.53227425
v -9.63746073 34.16157412 10.53227425
v -8.70891945 34.41116738 10.53227425
v -7.80472169 34.62609636 10.53227425
v -7.09527442 34.77862703 10.53227425
v -6.64317595 34.86875611 10.53227425
v -5.96850524 34.98661923 10.53227425
v -5.05387524 35.13221639 10.53227425
v -4.12881138 35.25701302 10.53227425
v -3.39502061 35.33327835 10.53227425
v 0.00963127 -10.08578894 7.85652936
v -24.53932906 -2.70891712 7.85529673
v -25.09228224 25.09301471 14.15522516
v -25.55133635 24.62849411 14.15337622
v -27.30061019 22.67334583 14.15337622
v -27.67272169 22.21575710 14.15337622
v -28.13177580 21.62643987 14.15337622
v -28.46563334 21.19658517 14.15337622
v -28.88295526 20.61419981 14.15337622
v -29.26897967 20.07341387 14.15337622
v -29.57849288 19.60889327 14.15337622
v -30.03754700 18.90171128 14.15337622
v -30.31228119 18.44412419 14.15337622
v -30.67743951 17.82014104 14.15337622
v -31.03911960 17.18922439 14.15337622
v -31.28951276 16.73856917 14.15337622
v -31.65466780 16.03138718 14.15337622
v -31.98157215 15.37273812 14.15337622
v -32.18327666 14.94288343 14.15337622
v -32.53452206 14.15250423 14.15337622
v -32.85099173 13.41065715 14.15337622
v -33.04226482 12.94613573 14.15337622
v -33.26135719 12.37068469 14.15337622
v -33.58478332 11.45550887 14.15337622
v -33.82822001 10.72752799 14.15337622
v -33.97080446 10.26994007 14.15337622
v -34.15859932 9.62515722 14.15337622
v -34.40551424 8.70304788 14.15337622
v -34.62113166 7.78787206 14.15337622
v -34.77762902 7.08069089 14.15337622
v -34.86804659 6.62310297 14.15337622
v -35.12887442 5.03541148 14.15337622
v -35.24711454 4.12716917 14.15337622
v -34.99324316 -5.95363152 7.85529673
v -34.87152481 -6.61921368 7.85529673
v -34.78458220 -7.07680200 7.85529673
v -34.63156307 -7.79091587 7.85529673
v -34.16555250 -9.62126752 7.85529673
v -34.03340274 -10.07885543 7.85529673
v -33.05965269 -12.92144713 7.85652936
v -32.85794819 -13.41370096 7.85652936
v -31.98504711 -15.38964895 7.85652936
v -31.29298771 -16.74161297 7.85652936
v -30.66005165 -17.87171615 7.85652936
v -30.34010375 -18.41250208 7.85652936
v -28.13177580 -21.63641718 9.78733331
v -27.67619992 -22.22573442 7.85652936
v -27.67619992 -22.22573442 8.82655531
v -27.67619992 -22.21880091 12.98663199
v -27.67272169 -22.21880091 14.15522516
v -32.85099173 13.41065715 12.98601240
v -32.20066452 14.91515103 12.98601240
v -31.65814603 16.03138718 12.98601240
v -28.61517424 20.98858970 12.98601240
v -28.41694469 21.25898349 12.98601240
v -24.63322813 25.55060345 14.15522516
v -23.66990948 26.43111336 14.15522516
v -23.21433360 26.83323565 14.15522516
v -4.82434819 35.15995043 12.98601240
v -5.04691960 35.13221639 12.98601240
v -5.66246944 35.03515380 12.98601240
v -6.63274290 34.86875611 12.98601240
v -7.09179701 34.77862703 12.98601240
v -7.80124428 34.61916285 12.98601240
v -8.41679411 34.47356569 12.98601240
v -8.71935250 34.39730364 12.98601240
v -9.63050509 34.14771038 12.98601240
v -10.28778711 33.96051544 12.98601240
v -11.46672154 33.58612555 12.98601240
v -12.96560222 33.03840446 12.98601240
v -13.42465634 32.85120952 12.98601240
v -14.93744830 32.19256210 12.98601240
v -15.83469043 31.76270413 12.98601240
v -17.87261302 30.65340149 12.98601240
v -18.45338548 30.31367588 12.98601240
v -18.91243959 30.02248484 12.98601240
v -19.38540498 29.71742677 12.98601240
v -20.22004718 1.36777518 14.15522516
v -4.82434819 -3.57556083 12.98663199
v 0.00963127 -10.08578894 8.82655531
v 0.03049737 -27.70985586 8.82655531
v 0.00963127 -22.30199975 7.85652936
v -24.53932906 -10.07885543 7.85529673
v -0.46333412 -35.48885119 7.85652936
v -1.38144234 -35.46805066 7.85652936
v -2.30302880 -35.41951937 7.85652936
v -3.21765879 -35.34325403 7.85652936
v -4.13576702 -35.24619145 7.85652936
v -5.05387524 -35.12832833 7.85652936
v -5.96502783 -34.98273117 7.85652936
v -6.66751945 -34.85793454 7.85652936
v -7.09179701 -34.77473569 7.85652936
v -7.80124428 -34.62220830 7.85652936
v -8.71935250 -34.40034581 7.85652936
v -9.63398250 -34.15768606 7.85652936
v -10.28430970 -33.97049111 7.85652936
v -10.74684123 -33.82489396 7.85652936
v -11.46324331 -33.58916772 7.85652936
v -12.38135153 -33.26330912 7.85652936
v -12.96212481 -33.04144991 7.85652936
v -13.42117893 -32.85425496 7.85652936
v -14.21408975 -32.52146286 7.85652936
v -14.93744830 -32.20253778 7.85652936
v -15.39650241 -31.98067856 7.85652936
v -16.05030620 -31.65481997 7.85652936
v -16.79105261 -31.27349657 7.85652936
v -17.20141971 -31.04470057 7.85652936
v -18.40469846 -30.34445209 7.85652936
v -18.90548477 -30.03246051 7.85652936
v -19.64623118 -29.55407453 7.85652936
v -20.07050792 -29.26288349 7.85652936
v -21.13467881 -28.51410044 7.85652936
v -21.63546512 -28.12584681 7.85652936
v -22.21276099 -27.67519158 7.85652936
v -22.67876992 -27.30080006 7.85652936
v -23.24563110 -26.81548056 7.85652936
v -23.66990948 -26.44109068 7.85652936
v -24.63322813 -25.55364725 7.85652936
v -25.18965626 -24.99899429 7.85652936
v -25.55481294 -24.63153792 7.85652936
v -26.01386705 -24.13928491 7.85652936
v -26.44510025 -23.67476267 7.85652936
v -26.81721175 -23.24490798 7.85652936
v -27.30061019 -22.67638964 7.85652936
v -27.30061019 -22.68332315 8.70938718
v -27.30061019 -22.68332315 8.82655531
v -27.27626586 -22.69718853 14.15522516
v 0.03049737 -27.82771898 9.78671700
v -0.22337401 -18.61356405 9.78733331
v -20.22700364 -29.15888411 14.15522516
v -4.82434819 -35.15605909 12.98663199
v 0.03049737 -27.74452341 9.62576449
v 0.03049737 -35.48885119 8.82655531
v -0.03905738 -35.48885119 7.85652936
v 0.03049737 -35.49578470 9.78671700
v -0.46333412 -35.48885119 9.78671700
v -1.38144234 -35.46805066 9.78671700
v -2.30302880 -35.41951937 8.82655531
v -2.29955057 -35.41951937 9.78671700
v -3.39502061 -35.32245678 10.53227425
v -4.01404785 -35.26005847 8.82655531
v -4.13576702 -35.24619145 9.78671700
v -5.06430829 -35.12832833 10.53227425
v -5.96502783 -34.98273117 12.98663199
v -6.69534119 -34.85793454 8.82655531
v -7.09179701 -34.77473569 9.78671700
v -7.67952511 -34.64993906 9.78794962
v -7.80472169 -34.62220830 9.78794962
v -8.56285678 -34.44194687 9.78794962
v -8.72978555 -34.40034581 10.53227425
v -9.63746073 -34.15768606 9.78794962
v -10.37125150 -33.94969058 9.78794962
v -10.74684123 -33.83182747 9.78794962
v -11.47367636 -33.58916772 8.82655531
v -12.38135153 -33.26330912 9.78671700
v -12.86822738 -33.08304769 9.78794962
v -11.48410941 -33.58916772 10.53227425
v -13.42117893 -32.86118848 10.53227425
v -14.21408975 -32.52146286 12.98663199
v -14.81225172 -32.25800258 9.78794962
v -14.93744830 -32.20253778 9.78671700
v -15.40693546 -31.98067856 10.53227425
v -16.75975347 -31.29429382 10.53227425
v -17.22924063 -31.03083682 10.53227425
v -17.88304606 -30.66337717 10.53227425
v -17.75784949 -30.73270899 9.78794962
v -18.54032809 -30.26819003 9.78794962
v -18.92635087 -30.03246051 9.78794962
v -18.92635087 -30.03246051 10.53227425
v -21.17641101 -28.48636967 9.62576449
v -22.21971581 -27.67519158 8.82655531
v -22.67876992 -27.30080006 8.82655531
v -23.29779798 -26.77388114 9.78671700
v -23.65252161 -26.46188957 14.15522516
v -24.23329407 -25.92803714 8.82655531
v -24.63670472 -25.55364725 9.62576449
v -25.17922321 -25.01286132 9.78794962
v -25.55481294 -24.63153792 14.15522516
v -26.44510025 -23.67476267 8.82655531
v -26.63984993 -23.45290181 9.78733331
v -26.84155608 -23.21024207 14.15522516
v -21.17641101 -28.47943616 14.15522516
v -21.17641101 -28.48636967 9.78671700
v -19.15587792 -29.87299961 12.98663199
v -18.76637692 -30.12259287 12.98663199
v -18.45686370 -30.31672132 12.98663199
v -17.87261302 -30.66337717 12.98663199
v -16.75279865 -31.29429382 12.98663199
v -15.39650241 -31.98067856 12.98663199
v -13.42465634 -32.85425496 12.98663199
v -12.96560222 -33.04144991 12.98663199
v -12.57610204 -33.18704379 12.98663199
v -11.46672154 -33.58916772 12.98663199
v -10.74684123 -33.82489396 12.98663199
v -10.28778711 -33.97049111 12.98663199
v -9.63398250 -34.15768606 12.98663199
v -9.01843267 -34.32408047 12.98663199
v -7.80124428 -34.61527479 12.98663199
v -7.09179701 -34.76780218 12.98663199
v -6.63274290 -34.86486805 12.98663199
v -5.05387524 -35.12832833 12.98663199
v -7.80472169 -34.62220830 10.53227425
v -9.63746073 -34.15768606 10.53227425
v -10.74684123 -33.83182747 10.53227425
v -12.03358354 -33.38810575 11.81125283
v -22.21971581 -27.67519158 14.15522516
v -22.67876992 -27.29386819 12.98663199
v -23.21433360 -26.83627946 14.15522516
v -24.17765060 -25.97656843 14.15522516
v -24.63670472 -25.55364725 9.78671700
v -24.96360743 -25.22778866 12.98663199
v -25.22095541 -24.96432838 14.15522516
v -25.98604614 -24.16701731 14.15522516
v -26.29555935 -23.83422521 12.98663199
v -26.44162202 -23.66089729 14.15522516
v -21.63546512 -28.12584681 14.15522516
v -22.65094900 -27.31466708 14.15522516
v -24.63322813 -25.54671374 14.15522516
f 1 2 11
f 1 11 3
f 1 3 4
f 1 4 5
f 1 5 6
f 1 6 7
f 1 7 12
f 1 12 2
f 2 8 9
f 2 9 10
f 2 10 11
f 2 12 8
f 3 13 4
f 3 11 121
f 3 121 249
f 3 249 330
f 3 330 286
f 3 286 285
f 3 285 138
f 3 138 284
f 3 284 283
f 3 283 282
f 3 282 281
f 3 281 132
f 3 132 131
f 3 131 130
f 3 130 129
f 3 129 125
f 3 125 14
f 3 14 15
f 3 15 13
f 4 13 5
f 5 13 16
f 5 16 17
f 5 17 6
f 6 17 18
f 6 18 19
f 6 19 20
f 6 20 21
f 6 21 22
f 6 22 23
f 6 23 24
f 6 24 25
f 6 25 26
f 6 26 27
f 6 27 28
f 6 28 29
f 6 29 30
f 6 30 31
f 6 31 32
f 6 32 7
f 7 32 33
f 7 33 34
f 7 34 35
f 7 35 36
f 7 36 37
f 7 37 38
f 7 38 39
f 7 39 40
f 7 40 41
f 7 41 42
f 7 42 43
f 7 43 44
f 7 44 45
f 7 45 46
f 7 46 47
f 7 47 48
f 7 48 49
f 7 49 165
f 7 165 297
f 7 297 374
f 7 374 428
f 7 428 462
f 7 462 460
f 7 460 425
f 7 425 459
f 7 459 465
f 7 465 456
f 7 456 421
f 7 421 455
f 7 455 464
f 7 464 453
f 7 453 463
f 7 463 429
f 7 429 377
f 7 377 325
f 7 325 219
f 7 219 217
f 7 217 216
f 7 216 215
f 7 215 305
f 7 305 304
f 7 304 212
f 7 212 303
f 7 303 250
f 7 250 122
f 7 122 12
f 8 50 166
f 8 166 51
f 8 51 9
f 8 12 50
f 9 51 10
f 10 51 53
f 10 53 52
f 10 52 11
f 11 52 53
f 11 53 54
f 11 54 55
f 11 55 56
f 11 56 57
f 11 57 58
f 11 58 59
f 11 59 60
f 11 60 61
f 11 61 62
f 11 62 63
f 11 63 64
f 11 64 65
f 11 65 66
f 11 66 67
f 11 67 68
f 11 68 69
f 11 69 70
f 11 70 71
f 11 71 72
f 11 72 73
f 11 73 74
f 11 74 75
f 11 75 76
f 11 76 77
f 11 77 78
f 11 78 79
f 11 79 80
f 11 80 81
f 11 81 82
f 11 82 83
f 11 83 84
f 11 84 85
f 11 85 86
f 11 86 87
f 11 87 88
f 11 88 89
f 11 89 90
f 11 90 91
f 11 91 92
f 11 92 93
f 11 93 94
f 11 94 95
f 11 95 96
f 11 96 97
f 11 97 98
f 11 98 99
f 11 99 100
f 11 100 101
f 11 101 102
f 11 102 103
f 11 103 104
f 11 104 105
f 11 105 106
f 11 106 107
f 11 107 108
f 11 108 109
f 11 109 110
f 11 110 111
f 11 111 112
f 11 112 113
f 11 113 114
f 11 114 115
f 11 115 116
f 11 116 117
f 11 117 118
f 11 118 119
f 11 119 120
f 11 120 121
f 12 122 123
f 12 123 124
f 12 124 50
f 13 15 16
f 14 125 15
f 15 125 126
f 15 126 16
f 16 126 17
f 17 126 18
f 18 126 19
f 19 126 127
f 19 127 20
f 20 127 128
f 20 128 129
f 20 129 130
f 20 130 21
f 21 130 131
f 21 131 132
f 21 132 22
f 22 132 133
f 22 133 23
f 23 133 24
f 24 133 134
f 24 134 135
f 24 135 25
f 25 135 136
f 25 136 137
f 25 137 26
f 26 137 27
f 27 137 28
f 28 137 284
f 28 284 138
f 28 138 285
f 28 285 139
f 28 139 29
f 29 139 140
f 29 140 30
f 30 140 31
f 31 140 141
f 31 141 32
f 32 141 142
f 32 142 33
f 33 143 144
f 33 144 34
f 33 142 145
f 33 145 143
f 34 144 146
f 34 146 35
f 35 146 147
f 35 147 148
f 35 148 36
f 36 148 37
f 37 148 149
f 37 149 150
f 37 150 38
f 38 150 39
f 39 151 152
f 39 152 40
f 39 150 289
f 39 289 151
f 40 152 41
f 41 152 42
f 42 153 154
f 42 154 155
f 42 155 43
f 42 152 153
f 43 155 44
f 44 156 157
f 44 157 45
f 44 155 156
f 45 157 46
f 46 158 159
f 46 159 160
f 46 160 47
f 46 157 158
f 47 160 48
f 48 160 161
f 48 161 162
f 48 162 163
f 48 163 49
f 49 163 164
f 49 164 165
f 50 124 167
f 50 167 166
f 51 166 54
f 51 54 53
f 54 166 167
f 54 167 55
f 55 167 56
f 56 167 168
f 56 168 57
f 57 168 58
f 58 168 169
f 58 169 170
f 58 170 171
f 58 171 59
f 59 171 60
f 60 171 172
f 60 172 173
f 60 173 61
f 61 173 62
f 62 173 174
f 62 174 175
f 62 175 176
f 62 176 63
f 63 176 64
f 64 176 177
f 64 177 178
f 64 178 65
f 65 179 66
f 65 178 179
f 66 180 67
f 66 179 180
f 67 180 181
f 67 181 68
f 68 181 69
f 69 181 182
f 69 182 183
f 69 183 70
f 70 183 184
f 70 184 71
f 71 184 185
f 71 185 72
f 72 185 73
f 73 186 187
f 73 187 188
f 73 188 74
f 73 185 186
f 74 188 75
f 75 189 190
f 75 190 76
f 75 188 189
f 76 190 191
f 76 191 77
f 77 191 192
f 77 192 78
f 78 192 193
f 78 193 79
f 79 193 80
f 80 193 194
f 80 194 81
f 81 194 195
f 81 195 196
f 81 196 197
f 81 197 82
f 82 197 83
f 83 197 198
f 83 198 199
f 83 199 84
f 84 199 85
f 85 199 200
f 85 200 201
f 85 201 202
f 85 202 203
f 85 203 86
f 86 203 204
f 86 204 205
f 86 205 206
f 86 206 207
f 86 207 208
f 86 208 87
f 87 209 210
f 87 210 88
f 87 208 209
f 88 211 89
f 88 210 211
f 89 211 212
f 89 212 90
f 90 212 213
f 90 213 91
f 91 214 92
f 91 213 214
f 92 214 305
f 92 305 215
f 92 215 216
f 92 216 93
f 93 216 217
f 93 217 218
f 93 218 94
f 94 218 95
f 95 219 220
f 95 220 96
f 95 218 219
f 96 220 221
f 96 221 222
f 96 222 97
f 97 222 223
f 97 223 98
f 98 223 99
f 99 223 224
f 99 224 100
f 100 225 226
f 100 226 227
f 100 227 101
f 100 224 225
f 101 227 102
f 102 227 228
f 102 228 229
f 102 229 103
f 103 229 104
f 104 229 230
f 104 230 231
f 104 231 105
f 105 231 232
f 105 232 233
f 105 233 106
f 106 233 234
f 106 234 235
f 106 235 236
f 106 236 107
f 107 236 108
f 108 237 109
f 108 236 237
f 109 237 238
f 109 238 110
f 110 238 239
f 110 239 240
f 110 240 111
f 111 240 112
f 112 240 113
f 113 240 241
f 113 241 242
f 113 242 114
f 114 242 243
f 114 243 115
f 115 243 116
f 116 244 117
f 116 243 244
f 117 244 245
f 117 245 118
f 118 245 246
f 118 246 119
f 119 246 247
f 119 247 120
f 120 247 248
f 120 248 121
f 121 248 249
f 122 250 251
f 122 251 207
f 122 207 206
f 122 206 205
f 122 205 252
f 122 252 253
f 122 253 254
f 122 254 255
f 122 255 256
f 122 256 257
f 122 257 258
f 122 258 259
f 122 259 260
f 122 260 261
f 122 261 262
f 122 262 263
f 122 263 264
f 122 264 265
f 122 265 266
f 122 266 267
f 122 267 268
f 122 268 269
f 122 269 270
f 122 270 271
f 122 271 272
f 122 272 273
f 122 273 274
f 122 274 275
f 122 275 276
f 122 276 277
f 122 277 278
f 122 278 170
f 122 170 279
f 122 279 280
f 122 280 123
f 123 280 168
f 123 168 167
f 123 167 124
f 125 129 127
f 125 127 126
f 127 129 128
f 132 281 133
f 133 281 282
f 133 282 134
f 134 282 283
f 134 283 135
f 135 283 136
f 136 283 284
f 136 284 137
f 139 285 140
f 140 285 286
f 140 286 141
f 141 286 145
f 141 145 142
f 143 145 286
f 143 286 287
f 143 287 144
f 144 287 146
f 146 288 147
f 146 287 288
f 147 149 148
f 147 288 286
f 147 286 289
f 147 289 149
f 149 289 150
f 151 289 286
f 151 286 290
f 151 290 152
f 152 290 291
f 152 291 153
f 153 291 154
f 154 156 155
f 154 291 292
f 154 292 156
f 156 292 286
f 156 286 158
f 156 158 157
f 158 286 159
f 159 286 160
f 160 286 161
f 161 286 162
f 162 293 163
f 162 286 294
f 162 294 295
f 162 295 293
f 163 293 164
f 164 293 295
f 164 295 296
f 164 296 297
f 164 297 165
f 168 280 279
f 168 279 169
f 169 279 170
f 170 278 172
f 170 172 171
f 172 278 277
f 172 277 173
f 173 277 276
f 173 276 175
f 173 175 174
f 175 276 275
f 175 275 176
f 176 275 274
f 176 274 177
f 177 274 273
f 177 273 178
f 178 273 272
f 178 272 179
f 179 272 271
f 179 271 180
f 180 271 181
f 181 271 270
f 181 270 269
f 181 269 182
f 182 269 183
f 183 269 268
f 183 268 298
f 183 298 184
f 184 299 185
f 184 298 268
f 184 268 267
f 184 267 299
f 185 299 265
f 185 265 186
f 186 265 187
f 187 300 188
f 187 265 300
f 188 300 263
f 188 263 189
f 189 263 262
f 189 262 190
f 190 262 191
f 191 260 192
f 191 262 261
f 191 261 260
f 192 260 259
f 192 259 193
f 193 259 258
f 193 258 194
f 194 258 257
f 194 257 195
f 195 257 256
f 195 256 196
f 196 256 301
f 196 301 197
f 197 301 255
f 197 255 302
f 197 302 198
f 198 302 255
f 198 255 254
f 198 254 253
f 198 253 199
f 199 253 200
f 200 253 252
f 200 252 201
f 201 252 202
f 202 205 203
f 202 252 205
f 203 205 204
f 207 251 209
f 207 209 208
f 209 251 250
f 209 250 210
f 210 250 303
f 210 303 211
f 211 303 212
f 212 304 213
f 213 304 305
f 213 305 214
f 217 219 218
f 219 306 307
f 219 307 308
f 219 308 309
f 219 309 310
f 219 310 311
f 219 311 312
f 219 312 313
f 219 313 314
f 219 314 315
f 219 315 237
f 219 237 316
f 219 316 234
f 219 234 317
f 219 317 318
f 219 318 230
f 219 230 319
f 219 319 228
f 219 228 320
f 219 320 225
f 219 225 224
f 219 224 321
f 219 321 322
f 219 322 323
f 219 323 324
f 219 324 221
f 219 221 220
f 219 325 378
f 219 378 326
f 219 326 306
f 221 324 323
f 221 323 322
f 221 322 222
f 222 322 223
f 223 322 321
f 223 321 224
f 225 320 227
f 225 227 226
f 227 320 228
f 228 319 229
f 229 319 230
f 230 318 232
f 230 232 231
f 232 317 233
f 232 318 317
f 233 317 234
f 234 316 235
f 235 316 236
f 236 316 237
f 237 315 239
f 237 239 238
f 239 313 240
f 239 315 314
f 239 314 313
f 240 312 241
f 240 313 312
f 241 312 311
f 241 311 310
f 241 310 242
f 242 310 243
f 243 310 309
f 243 309 244
f 244 309 308
f 244 308 245
f 245 307 246
f 245 308 307
f 246 307 306
f 246 306 247
f 247 306 327
f 247 327 248
f 248 327 328
f 248 328 380
f 248 380 329
f 248 329 330
f 248 330 249
f 255 301 256
f 263 300 264
f 264 300 265
f 265 299 266
f 266 299 267
f 286 330 381
f 286 381 331
f 286 331 332
f 286 332 333
f 286 333 334
f 286 334 335
f 286 335 336
f 286 336 337
f 286 337 338
f 286 338 339
f 286 339 340
f 286 340 341
f 286 341 342
f 286 342 343
f 286 343 344
f 286 344 345
f 286 345 346
f 286 346 347
f 286 347 348
f 286 348 349
f 286 349 350
f 286 350 351
f 286 351 352
f 286 352 353
f 286 353 354
f 286 354 355
f 286 355 356
f 286 356 357
f 286 357 358
f 286 358 359
f 286 359 360
f 286 360 361
f 286 361 362
f 286 362 363
f 286 363 364
f 286 364 365
f 286 365 366
f 286 366 367
f 286 367 368
f 286 368 369
f 286 369 370
f 286 370 371
f 286 371 294
f 286 292 291
f 286 291 290
f 286 288 287
f 294 371 372
f 294 372 373
f 294 373 295
f 295 373 296
f 296 373 374
f 296 374 297
f 306 326 375
f 306 375 376
f 306 376 327
f 325 377 378
f 326 378 382
f 326 382 375
f 327 376 375
f 327 375 379
f 327 379 328
f 328 379 375
f 328 375 382
f 328 382 380
f 329 380 381
f 329 381 330
f 331 382 383
f 331 383 384
f 331 384 332
f 331 381 382
f 332 384 385
f 332 385 333
f 333 385 334
f 334 385 386
f 334 386 387
f 334 387 388
f 334 388 335
f 335 388 389
f 335 389 390
f 335 390 336
f 336 390 337
f 337 390 391
f 337 391 392
f 337 392 338
f 338 392 339
f 339 392 393
f 339 393 394
f 339 394 340
f 340 394 395
f 340 395 396
f 340 396 341
f 341 396 397
f 341 397 342
f 342 397 398
f 342 398 399
f 342 399 343
f 343 399 400
f 343 400 344
f 344 400 345
f 345 400 401
f 345 401 346
f 346 402 403
f 346 403 347
f 346 401 404
f 346 404 402
f 347 405 348
f 347 403 405
f 348 405 349
f 349 406 407
f 349 407 350
f 349 405 406
f 350 407 408
f 350 408 409
f 350 409 351
f 351 409 352
f 352 409 410
f 352 410 353
f 353 410 354
f 354 410 411
f 354 411 412
f 354 412 413
f 354 413 355
f 355 413 412
f 355 412 414
f 355 414 415
f 355 415 356
f 356 415 357
f 357 415 416
f 357 416 377
f 357 377 358
f 358 377 359
f 359 377 417
f 359 417 360
f 360 417 418
f 360 418 361
f 361 418 362
f 362 419 420
f 362 420 363
f 362 418 453
f 362 453 419
f 363 420 364
f 364 420 421
f 364 421 422
f 364 422 365
f 365 422 423
f 365 423 366
f 366 424 367
f 366 423 424
f 367 424 425
f 367 425 368
f 368 426 369
f 368 425 426
f 369 426 427
f 369 427 370
f 370 427 372
f 370 372 371
f 372 427 373
f 373 427 428
f 373 428 374
f 377 429 430
f 377 430 417
f 377 416 431
f 377 431 432
f 377 432 433
f 377 433 434
f 377 434 435
f 377 435 436
f 377 436 406
f 377 406 437
f 377 437 438
f 377 438 439
f 377 439 440
f 377 440 441
f 377 441 442
f 377 442 443
f 377 443 444
f 377 444 445
f 377 445 446
f 377 446 447
f 377 447 391
f 377 391 448
f 377 448 378
f 378 448 389
f 378 389 387
f 378 387 386
f 378 386 384
f 378 384 383
f 378 383 382
f 380 382 381
f 384 386 385
f 387 389 388
f 389 448 390
f 390 448 391
f 391 447 392
f 392 447 393
f 393 446 449
f 393 449 394
f 393 447 446
f 394 449 395
f 395 449 396
f 396 449 397
f 397 449 444
f 397 444 398
f 398 450 399
f 398 444 450
f 399 450 443
f 399 443 442
f 399 442 451
f 399 451 400
f 400 451 404
f 400 404 401
f 402 439 403
f 402 404 452
f 402 452 439
f 403 439 438
f 403 438 405
f 404 451 440
f 404 440 452
f 405 438 437
f 405 437 406
f 406 436 408
f 406 408 407
f 408 436 409
f 409 436 435
f 409 435 410
f 410 435 411
f 411 435 412
f 412 435 434
f 412 434 433
f 412 433 414
f 414 416 415
f 414 433 416
f 416 433 432
f 416 432 431
f 417 430 453
f 417 453 418
f 419 453 454
f 419 454 420
f 420 454 455
f 420 455 421
f 421 456 422
f 422 456 457
f 422 457 423
f 423 457 458
f 423 458 424
f 424 458 425
f 425 458 459
f 425 460 461
f 425 461 426
f 426 461 427
f 427 461 428
f 428 461 462
f 429 463 430
f 430 463 453
f 439 452 440
f 440 451 441
f 441 451 442
f 443 450 444
f 444 449 445
f 445 449 446
f 453 464 454
f 454 464 455
f 456 465 457
f 457 465 458
f 458 465 459
f 460 462 461

