# https://github.com/mikedh/trimesh
v -20.36138261 -26.13265109 18.62367749
v -3.41579081 -21.41372529 16.49372280
v 4.81302461 -23.85754672 16.49332941
v -4.87474808 -26.13265109 18.62367749
v -20.36138261 -26.13265109 20.49956411
v -20.36138261 26.09761315 18.62367749
v 3.04354524 -21.08140690 16.49332941
v -3.41579081 21.41958850 16.49372280
v 4.81302461 -23.86265916 18.34278673
v 4.81302461 23.86340829 16.49332941
v -4.87967694 -26.13265109 18.78937036
v -19.71323216 -26.13265109 20.50351113
v -20.36138261 -26.12242458 20.50035417
v -20.36138261 26.09761315 20.50035417
v -4.87967694 26.09761315 18.62367749
v 3.04354524 21.08727011 16.49332941
v 4.81302461 -23.85754672 18.62367749
v 4.81302461 23.86340829 16.95884824
v -4.88214137 -26.13265109 18.79883796
v -18.79152441 -26.13265109 20.50390452
v -7.73351552 -26.05596123 20.52362978
v -19.70830167 -26.12242458 20.50390452
v -20.36138261 -25.20727170 20.50390452
v -19.73541120 26.09761315 20.50390452
v -20.36138261 25.46876344 20.50390452
v -4.88460580 26.09761315 18.79173726
v 4.81302461 23.85829585 18.31990451
v 3.88638882 -21.91987318 20.52283973
v -5.85313687 -26.13265109 20.29757768
v -5.27152518 -26.13265109 19.82219458
v -5.23948761 -26.13265109 19.78234738
v 4.81302461 23.85318341 18.62367749
v -7.80005591 -26.13265109 20.50548136
v -6.87342094 -26.03039903 20.52362978
v -8.49996099 -25.91280964 20.52362978
v -7.79266262 -26.13265109 20.50548136
v -11.17635990 -24.92096526 20.52362978
v -13.04195197 -24.04159946 20.52362978
v -15.89332694 -22.30843005 20.52362978
v -16.88403705 -21.46485132 20.52362978
v -19.32631278 -19.32778773 20.52362978
v -20.17408440 -18.33594498 20.52362978
v -20.36138261 -17.84002197 20.52362978
v -19.33863411 18.78660354 20.52362978
v -18.79152441 19.33365094 20.52362978
v -17.87474716 20.17722803 20.52362978
v -15.12441540 22.32963058 20.52362978
v -14.20763815 22.97893005 20.52362978
v -12.37408446 24.05257511 20.52362978
v -10.54299438 24.93194091 20.52362978
v -7.79266262 25.92378366 20.52362978
v -6.87342094 26.02603572 20.52362978
v -7.79266262 26.09761315 20.50784826
v -20.36138261 17.51356679 20.52362978
v -20.17901326 17.86633494 20.52362978
v -4.89446351 26.09761315 18.82408708
v -4.03190451 -22.13971463 20.52362978
v -5.32327900 -25.02832976 20.52362978
v -5.37996167 -25.13058183 20.52362978
v -5.89256814 -25.52425114 20.52362978
v -6.61711792 -25.91280964 20.52362978
v -6.87834980 -26.13265109 20.49719721
v -5.89503257 -26.13265109 20.31138241
v 3.88638882 21.92573639 20.52283973
v -5.24934532 26.09761315 19.78471428
v -5.50564835 26.09761315 20.16581148
v -5.89256814 26.09761315 20.31217247
v -5.89256814 25.51988947 20.52362978
v -6.87834980 26.09761315 20.50548136
v -4.03190451 22.14046377 20.52362978
v -5.32327900 25.02908054 20.52362978
v -5.03740201 24.41045570 20.52362978
f 1 2 3
f 1 3 4
f 1 4 11
f 1 11 19
f 1 19 31
f 1 31 30
f 1 30 29
f 1 29 63
f 1 63 62
f 1 62 36
f 1 36 33
f 1 33 20
f 1 20 12
f 1 12 5
f 1 5 13
f 1 13 23
f 1 23 43
f 1 43 54
f 1 54 25
f 1 25 14
f 1 14 6
f 1 6 8
f 1 8 2
f 2 7 3
f 2 8 16
f 2 16 7
f 3 9 4
f 3 7 16
f 3 16 10
f 3 10 18
f 3 18 27
f 3 27 32
f 3 32 17
f 3 17 9
f 4 9 11
f 5 12 13
f 6 14 24
f 6 24 53
f 6 53 69
f 6 69 67
f 6 67 66
f 6 66 65
f 6 65 56
f 6 56 26
f 6 26 15
f 6 15 10
f 6 10 8
f 8 10 16
f 9 17 11
f 10 15 18
f 11 17 19
f 12 20 21
f 12 21 22
f 12 22 13
f 13 22 23
f 14 25 24
f 15 26 27
f 15 27 18
f 17 28 29
f 17 29 30
f 17 30 31
f 17 31 19
f 17 32 64
f 17 64 28
f 20 33 21
f 21 34 61
f 21 61 60
f 21 60 59
f 21 59 58
f 21 58 57
f 21 57 70
f 21 70 72
f 21 72 71
f 21 71 68
f 21 68 52
f 21 52 51
f 21 51 50
f 21 50 49
f 21 49 48
f 21 48 47
f 21 47 46
f 21 46 45
f 21 45 44
f 21 44 55
f 21 55 54
f 21 54 43
f 21 43 42
f 21 42 41
f 21 41 40
f 21 40 39
f 21 39 38
f 21 38 37
f 21 37 35
f 21 35 22
f 21 33 36
f 21 36 34
f 22 35 37
f 22 37 38
f 22 38 39
f 22 39 40
f 22 40 41
f 22 41 42
f 22 42 23
f 23 42 43
f 24 25 44
f 24 44 45
f 24 45 46
f 24 46 47
f 24 47 48
f 24 48 49
f 24 49 50
f 24 50 51
f 24 51 52
f 24 52 53
f 25 54 55
f 25 55 44
f 26 56 32
f 26 32 27
f 28 57 58
f 28 58 59
f 28 59 60
f 28 60 61
f 28 61 34
f 28 34 62
f 28 62 63
f 28 63 29
f 28 64 70
f 28 70 57
f 32 56 65
f 32 65 66
f 32 66 67
f 32 67 64
f 34 36 62
f 52 68 64
f 52 64 69
f 52 69 53
f 64 67 69
f 64 68 71
f 64 71 72
f 64 72 70

