# https://github.com/mikedh/trimesh
v -3.38699052 -25.16439048 9.78632033
v -2.84784371 -25.16439048 9.78632033
v -3.38699052 -25.16439048 10.34141421
v -3.38699052 25.13453546 9.78632033
v 21.87870955 -24.35692829 9.78632033
v 21.87870955 -24.35692829 10.53025484
v -3.12978351 -25.16439048 10.26355892
v -3.14709516 -25.16439048 10.26909590
v 3.94837203 -24.35692829 10.53025484
v -3.38699052 -23.24420807 10.53025484
v -3.38699052 25.13453546 10.34126669
v -2.82311255 25.13453546 9.78632033
v 21.87870955 24.58309847 9.78632033
v 21.87870955 24.58309847 10.53025484
v -3.38699052 23.27835935 10.53025484
v 3.96321105 24.58309847 10.53025484
v -3.12978351 25.13453546 10.26487023
v -2.76128383 25.13453546 9.78704810
f 1 2 7
f 1 7 8
f 1 8 3
f 1 3 10
f 1 10 15
f 1 15 11
f 1 11 4
f 1 4 12
f 1 12 13
f 1 13 5
f 1 5 2
f 2 5 6
f 2 6 7
f 3 8 6
f 3 6 9
f 3 9 10
f 4 11 17
f 4 17 18
f 4 18 12
f 5 13 14
f 5 14 6
f 6 8 7
f 6 14 16
f 6 16 15
f 6 15 10
f 6 10 9
f 11 16 14
f 11 14 17
f 11 15 16
f 12 18 13
f 13 18 14
f 14 18 17

