# https://github.com/mikedh/trimesh
v 225.65227300 -90.10161942 54.50309006
v 225.84792989 -94.29281738 54.50309006
v 225.65227300 -90.10161942 68.94084542
v 225.65227300 90.11987793 54.50309006
v 226.00224280 -95.32935521 54.50309006
v 225.84792989 -94.29281738 68.94084542
v 225.85343143 -94.29281738 73.13259615
v 225.66053280 -90.10161942 73.13259615
v 225.65227300 90.11987793 68.94084542
v 225.84792989 94.31107590 54.50309006
v 226.19791469 -96.61376208 54.50309006
v 226.19791469 -96.61376208 68.94084542
v 226.20067295 -96.61376208 73.13259615
v 226.25303501 -96.54615462 75.36581605
v 226.10696691 -94.29281738 75.56457224
v 226.00775933 -90.10161942 75.69409825
v 225.66053280 90.11987793 73.13259615
v 225.85343143 94.31107590 73.13259615
v 225.84792989 94.31107590 68.94084542
v 226.04082853 95.59548277 54.50309006
v 234.74085960 -121.87360397 54.50309006
v 234.74085960 -121.87360397 68.94084542
v 234.74361786 -121.87360397 69.21776431
v 234.79322165 -121.87360397 73.13259615
v 228.44663483 -94.29281738 76.60748481
v 234.81251451 -121.87360397 73.23085933
v 236.70573333 -121.87360397 76.30823559
v 228.44663483 -90.10161942 76.73701081
v 226.00775933 90.11987793 75.69409825
v 226.10696691 94.31107590 75.56457224
v 226.25303501 96.54188231 75.36581605
v 226.20067295 96.60947478 73.13259615
v 226.19791469 96.60947478 68.94084542
v 226.19791469 96.60947478 54.50309006
v 253.80264121 -121.87360397 54.50309006
v 232.63819256 -94.29281738 77.31318079
v 238.18558723 -121.87360397 76.70128079
v 241.01854977 -121.87360397 77.30425016
v 228.44663483 90.11987793 76.73701081
v 228.44663483 94.31107590 76.60748481
v 228.70017031 98.16428152 75.89955523
v 236.79392284 108.32680741 76.29260043
v 235.06603500 108.32680741 73.13259615
v 234.94753456 108.32680741 69.10386972
v 234.94479129 108.32680741 68.94084542
v 234.94479129 108.32680741 54.50309006
v 253.80264121 -121.87360397 68.94084542
v 253.80264121 108.32680741 54.50309006
v 249.40165025 -121.87360397 77.30425016
v 232.63819256 94.31107590 77.31318079
v 232.63819256 98.50227386 77.00723079
v 238.01198146 108.32680741 76.62758341
v 253.77233028 -121.87360397 71.35272103
v 253.80264121 108.32680741 68.94084542
v 250.75750217 -121.87360397 76.86430322
v 249.40165025 108.32680741 77.30425016
v 241.01854977 108.32680741 77.30425016
v 253.74753588 -121.87360397 73.13259615
v 253.76681376 108.32680741 71.69440479
v 253.74753588 108.32680741 73.13259615
v 252.59563065 -121.87360397 76.26580104
v 252.59563065 108.32680741 76.26580104
f 1 2 6
f 1 6 3
f 1 3 9
f 1 9 4
f 1 4 10
f 1 10 20
f 1 20 34
f 1 34 46
f 1 46 48
f 1 48 35
f 1 35 21
f 1 21 11
f 1 11 5
f 1 5 2
f 2 5 6
f 3 6 7
f 3 7 8
f 3 8 17
f 3 17 9
f 4 9 19
f 4 19 10
f 5 11 12
f 5 12 6
f 6 12 13
f 6 13 7
f 7 14 15
f 7 15 8
f 7 13 14
f 8 15 16
f 8 16 29
f 8 29 17
f 9 17 18
f 9 18 19
f 10 19 20
f 11 21 22
f 11 22 12
f 12 22 13
f 13 22 23
f 13 23 24
f 13 24 14
f 14 25 15
f 14 24 26
f 14 26 27
f 14 27 25
f 15 25 16
f 16 25 28
f 16 28 39
f 16 39 29
f 17 29 30
f 17 30 18
f 18 30 31
f 18 31 32
f 18 32 19
f 19 32 33
f 19 33 20
f 20 33 34
f 21 35 47
f 21 47 53
f 21 53 58
f 21 58 61
f 21 61 55
f 21 55 49
f 21 49 38
f 21 38 37
f 21 37 27
f 21 27 26
f 21 26 24
f 21 24 23
f 21 23 22
f 25 36 28
f 25 27 37
f 25 37 38
f 25 38 36
f 28 36 50
f 28 50 39
f 29 39 40
f 29 40 30
f 30 40 31
f 31 40 41
f 31 41 42
f 31 42 43
f 31 43 32
f 32 43 44
f 32 44 45
f 32 45 33
f 33 45 46
f 33 46 34
f 35 48 54
f 35 54 47
f 36 38 49
f 36 49 56
f 36 56 50
f 39 50 40
f 40 50 51
f 40 51 42
f 40 42 41
f 42 52 57
f 42 57 56
f 42 56 62
f 42 62 60
f 42 60 59
f 42 59 54
f 42 54 48
f 42 48 46
f 42 46 45
f 42 45 44
f 42 44 43
f 42 51 52
f 47 54 53
f 49 55 56
f 50 56 57
f 50 57 51
f 51 57 52
f 53 54 59
f 53 59 60
f 53 60 58
f 55 61 62
f 55 62 56
f 58 60 62
f 58 62 61

