# https://github.com/mikedh/trimesh
v 25.53724985 137.95568037 -2.29762304
v 25.53724985 148.80222589 -2.29762304
v 27.26134507 136.22941151 -2.29762304
v 25.53724985 136.22941151 -2.25865506
v 25.53724985 152.19261271 -1.26105523
v 194.86320502 148.82923889 -2.28982795
v 194.86320502 148.80222589 -2.29762304
v 35.63315016 132.03938282 -2.29762304
v 31.43896158 132.03938282 -2.26644641
v 25.53724985 133.49818996 -1.72867851
v 25.53724985 153.64602324 1.87982107
v 194.86320502 152.19261271 -1.26105523
v 194.86320502 132.03938282 -2.29762304
v 35.63315016 128.23024946 -1.26105523
v 31.43896158 128.50040948 -1.22208725
v 25.53724985 131.81245559 -1.33899120
v 25.53724985 153.80541795 6.07285163
v 194.86320502 153.64602324 1.87982107
v 194.86320502 128.32209668 -1.26105523
v 190.71874765 128.23024946 -1.26105523
v 35.63315016 126.36350399 1.87982107
v 31.43896158 126.97405484 1.87982107
v 28.30575295 129.16227305 -0.86357657
v 25.53724985 130.32931876 1.87982107
v 25.53724985 153.80541795 68.93714837
v 194.86320502 153.80541795 6.07285163
v 194.86320502 126.54991171 1.85643954
v 190.71874765 126.36350399 1.87982107
v 35.63315016 126.20682257 6.07285163
v 27.74210759 128.76244462 1.87982107
v 31.43896158 126.88760424 6.07285163
v 25.53724985 130.23477325 5.76110403
v 25.53724985 153.64332494 73.13017893
v 194.86320502 153.80541795 68.93714837
v 194.86320502 126.36350399 6.07285163
v 190.71874765 126.20682257 6.07285163
v 35.63315016 126.20682257 68.93714837
v 27.70894845 128.75434971 6.07285163
v 25.53724985 130.22936165 6.07285163
v 31.43896158 126.88760424 68.93714837
v 25.53724985 152.18991441 76.26326014
v 194.86320502 153.64332494 73.13017893
v 194.86320502 126.36350399 35.41627818
v 190.71874765 126.20682257 68.93714837
v 35.63315016 126.36350399 73.13017893
v 31.43896158 126.97405484 73.13017893
v 27.70894845 128.75434971 39.59372182
v 25.53724985 130.22666335 9.86060843
v 27.79183879 128.76244462 73.13017893
v 27.77525923 128.75434971 68.93714837
v 25.53724985 150.79594147 76.69191918
v 194.86320502 152.18991441 76.26326014
v 194.86320502 126.49588570 68.93714837
v 194.86320502 126.60393772 73.09900229
v 190.71874765 126.36350399 73.13017893
v 35.63315016 128.23024946 76.27105523
v 31.43896158 128.50040948 76.23208725
v 28.30575295 129.16227305 75.87357657
v 25.53724985 130.22666335 35.41627818
v 25.68645097 130.38605806 73.13017893
v 25.53724985 130.49682337 72.87298575
v 25.53724985 130.44548067 68.93714837
v 25.53724985 130.25097805 39.19624129
v 25.53724985 148.80222589 77.29982795
v 194.86320502 148.80222589 77.29982795
v 194.86320502 126.60665101 73.13017893
v 194.86320502 128.31400177 76.24767370
v 190.71874765 128.23024946 76.27105523
v 35.63315016 132.03938282 77.30762304
v 31.43896158 132.03938282 77.27644641
v 194.86320502 132.00965652 77.29982795
v 27.04583317 131.81515390 76.45031245
v 25.53724985 132.37436205 76.20870571
v 25.53724985 130.50221997 73.13017893
v 25.53724985 140.41945520 77.29982795
v 27.26134507 136.22941151 77.30762304
v 194.86320502 136.22941151 77.30762304
v 194.86320502 132.03938282 77.30762304
v 25.53724985 136.22941151 77.12057448
f 1 2 7
f 1 7 13
f 1 13 8
f 1 8 3
f 1 3 4
f 1 4 10
f 1 10 16
f 1 16 24
f 1 24 32
f 1 32 39
f 1 39 48
f 1 48 59
f 1 59 63
f 1 63 62
f 1 62 61
f 1 61 74
f 1 74 73
f 1 73 79
f 1 79 75
f 1 75 64
f 1 64 51
f 1 51 41
f 1 41 33
f 1 33 25
f 1 25 17
f 1 17 11
f 1 11 5
f 1 5 2
f 2 5 6
f 2 6 7
f 3 8 9
f 3 9 4
f 4 9 10
f 5 11 18
f 5 18 12
f 5 12 6
f 6 12 18
f 6 18 26
f 6 26 34
f 6 34 42
f 6 42 52
f 6 52 65
f 6 65 77
f 6 77 78
f 6 78 71
f 6 71 67
f 6 67 66
f 6 66 54
f 6 54 53
f 6 53 43
f 6 43 35
f 6 35 27
f 6 27 19
f 6 19 13
f 6 13 7
f 8 14 9
f 8 13 20
f 8 20 14
f 9 14 15
f 9 15 16
f 9 16 10
f 11 17 26
f 11 26 18
f 13 19 20
f 14 21 15
f 14 20 28
f 14 28 21
f 15 21 22
f 15 22 23
f 15 23 16
f 16 23 24
f 17 25 34
f 17 34 26
f 19 27 28
f 19 28 20
f 21 29 22
f 21 28 36
f 21 36 29
f 22 30 23
f 22 29 31
f 22 31 30
f 23 30 24
f 24 30 32
f 25 33 42
f 25 42 34
f 27 35 28
f 28 35 36
f 29 37 40
f 29 40 31
f 29 36 44
f 29 44 37
f 30 31 38
f 30 38 39
f 30 39 32
f 31 40 47
f 31 47 38
f 33 41 52
f 33 52 42
f 35 43 44
f 35 44 36
f 37 45 46
f 37 46 40
f 37 44 55
f 37 55 45
f 38 47 59
f 38 59 48
f 38 48 39
f 40 46 49
f 40 49 50
f 40 50 47
f 41 51 52
f 43 53 44
f 44 53 54
f 44 54 55
f 45 56 57
f 45 57 46
f 45 55 68
f 45 68 56
f 46 58 49
f 46 57 58
f 47 50 59
f 49 58 60
f 49 60 61
f 49 61 62
f 49 62 63
f 49 63 59
f 49 59 50
f 51 64 65
f 51 65 52
f 54 66 55
f 55 66 67
f 55 67 68
f 56 69 70
f 56 70 57
f 56 68 71
f 56 71 69
f 57 70 72
f 57 72 58
f 58 72 73
f 58 73 74
f 58 74 60
f 60 74 61
f 64 75 76
f 64 76 77
f 64 77 65
f 67 71 68
f 69 76 70
f 69 71 78
f 69 78 77
f 69 77 76
f 70 76 79
f 70 79 72
f 72 79 73
f 75 79 76

