# https://github.com/mikedh/trimesh
v 194.87978458 126.46843797 44.66900751
v 194.87978458 148.21814838 44.66900751
v 194.91252398 126.47110629 44.66900751
v 194.87978458 126.49519613 68.93970613
v 194.87978458 153.80541795 47.98605673
v 194.88757968 153.80541795 44.66900751
v 199.35554850 127.65921375 44.66900751
v 194.91252398 126.49787945 68.93970613
v 194.91252398 126.60758042 73.13235256
v 194.87978458 126.60491210 73.10039641
v 194.87978458 153.80541795 68.93970613
v 210.80609399 153.80541795 44.66900751
v 210.80609399 133.78434491 44.66900751
v 198.80368572 128.39775407 73.13235256
v 194.87978458 126.60758042 73.13235256
v 198.19100621 128.93561566 75.92212353
v 194.91252398 128.33086616 76.27044812
v 194.87978458 128.31481126 76.24807844
v 194.87978458 153.64218566 73.13235256
v 210.80609399 153.80541795 68.93970613
v 210.80609399 135.33636340 73.17709191
v 210.80609399 136.54854572 75.70162726
v 210.80609399 136.92049170 76.26725138
v 210.80609399 139.63385949 77.08852464
v 194.91252398 132.03965265 77.31541439
v 194.87978458 132.03965265 77.31541439
v 210.80609399 153.64218566 73.13235256
v 194.87978458 152.18917987 76.26725138
v 210.80609399 140.42057949 77.30263118
v 210.80609399 148.80149135 77.30263118
v 194.87978458 148.80149135 77.30263118
v 210.80609399 152.18917987 76.26725138
f 1 2 6
f 1 6 12
f 1 12 13
f 1 13 7
f 1 7 3
f 1 3 8
f 1 8 4
f 1 4 10
f 1 10 15
f 1 15 18
f 1 18 26
f 1 26 31
f 1 31 28
f 1 28 19
f 1 19 11
f 1 11 5
f 1 5 2
f 2 5 6
f 3 7 8
f 4 8 9
f 4 9 10
f 5 11 20
f 5 20 12
f 5 12 6
f 7 13 14
f 7 14 9
f 7 9 8
f 9 15 10
f 9 14 16
f 9 16 17
f 9 17 18
f 9 18 15
f 11 19 27
f 11 27 20
f 12 20 27
f 12 27 32
f 12 32 30
f 12 30 29
f 12 29 24
f 12 24 23
f 12 23 22
f 12 22 21
f 12 21 13
f 13 21 14
f 14 21 16
f 16 22 23
f 16 23 24
f 16 24 17
f 16 21 22
f 17 24 25
f 17 25 26
f 17 26 18
f 19 28 32
f 19 32 27
f 24 29 25
f 25 29 30
f 25 30 31
f 25 31 26
f 28 31 30
f 28 30 32

