# https://github.com/mikedh/trimesh
v -199.57949260 153.79966158 44.65851037
v -199.57949260 153.79966158 6.07131323
v -225.49218872 153.79966158 44.65851037
v -199.57949260 127.84602621 44.65851037
v -199.57949260 153.64432931 1.87835200
v -225.49218872 153.69035035 3.11509261
v -225.49218872 153.79966158 6.07131323
v -225.49218872 131.74108550 44.65851037
v -199.57949260 124.44576061 39.44489382
v -225.49218872 99.28033681 43.17810182
v -225.49218872 95.54061729 42.56662718
v -209.98921296 109.38908404 41.15518086
v -205.04307500 116.65564203 41.89538514
v -204.49519971 115.80413279 39.59661336
v -199.57949260 152.35556018 -0.90316291
v -225.49218872 152.62021866 -0.33306786
v -225.49218872 153.64432931 1.87835200
v -204.12232432 115.30359022 35.40824956
v -199.57949260 123.53096868 35.54617590
v -225.49218872 95.04582360 38.87020041
v -209.40329161 108.80798966 38.35987275
v -205.91816440 113.70989046 39.59661336
v -205.41593540 113.20934789 35.40824956
v -199.57949260 152.18871516 -1.26177103
v -225.49218872 152.18871516 -1.26177103
v -204.12232432 115.30359022 6.07131323
v -199.57949260 123.50795816 31.48654360
v -199.57949260 123.52521230 35.40824956
v -225.49218872 95.02856946 34.69103238
v -209.31196907 108.72168896 35.40824956
v -207.23712453 111.08058228 35.40824956
v -205.41593540 113.20934789 6.07131323
v -199.57949260 148.79994732 -2.30541439
v -225.49218872 149.80104744 -1.99738070
v -205.42608401 113.21509677 1.87835200
v -204.14262155 115.30933911 1.87835200
v -199.57949260 123.50795816 6.07131323
v -225.49218872 95.02856946 9.54705821
v -209.31196907 108.72168896 6.07131323
v -207.23712453 111.08058228 6.07131323
v -225.49218872 148.79994732 -2.30541439
v -199.57949260 136.22875193 -2.30541439
v -204.57382524 115.99975221 -0.91235588
v -207.25235495 111.08058228 1.87835200
v -209.40835842 108.81373854 -0.40203197
v -201.14957473 121.44823161 -0.28249343
v -199.57949260 123.76110388 1.87835200
v -225.49218872 95.03431834 6.07131323
v -209.31450248 108.72168896 1.87835200
v -225.49218872 106.89210510 -2.30541439
v -199.57949260 132.51205042 -2.24104864
v -207.48824653 119.46330799 -2.30081603
v -211.68104848 115.27482332 -2.30541439
v -208.42674604 111.08058228 -0.88017488
v -207.08747369 114.87207922 -1.46866336
v -199.57949260 132.03451088 -2.23185567
v -199.57949260 127.67918119 -1.39050254
v -199.57949260 126.15452048 -1.04108738
v -225.49218872 95.18965811 1.87835200
v -216.68552974 104.05566475 -0.88936784
v -211.68104848 107.89319023 -0.88017488
v -224.25185412 106.89210510 -2.30541439
v -225.49218872 102.47923411 -1.51923404
v -211.68104848 111.08058228 -1.91921988
v -215.86878362 111.08058228 -2.30541439
v -225.49218872 98.02609096 -0.63190484
v -215.52127227 106.53538954 -1.45486829
v -220.06158558 106.89210510 -2.28242635
f 1 2 7
f 1 7 3
f 1 3 8
f 1 8 4
f 1 4 9
f 1 9 19
f 1 19 28
f 1 28 27
f 1 27 37
f 1 37 47
f 1 47 58
f 1 58 57
f 1 57 56
f 1 56 51
f 1 51 42
f 1 42 33
f 1 33 24
f 1 24 15
f 1 15 5
f 1 5 2
f 2 5 6
f 2 6 7
f 3 7 6
f 3 6 17
f 3 17 16
f 3 16 25
f 3 25 34
f 3 34 41
f 3 41 50
f 3 50 63
f 3 63 66
f 3 66 59
f 3 59 48
f 3 48 38
f 3 38 29
f 3 29 20
f 3 20 11
f 3 11 10
f 3 10 8
f 4 8 10
f 4 10 11
f 4 11 12
f 4 12 13
f 4 13 14
f 4 14 9
f 5 15 16
f 5 16 17
f 5 17 6
f 9 14 18
f 9 18 19
f 11 20 21
f 11 21 12
f 12 21 22
f 12 22 13
f 13 22 14
f 14 22 23
f 14 23 18
f 15 24 25
f 15 25 16
f 18 23 32
f 18 32 26
f 18 26 37
f 18 37 27
f 18 27 28
f 18 28 19
f 20 29 30
f 20 30 21
f 21 30 31
f 21 31 23
f 21 23 22
f 23 31 40
f 23 40 32
f 24 33 34
f 24 34 25
f 26 32 35
f 26 35 36
f 26 36 37
f 29 38 39
f 29 39 30
f 30 39 40
f 30 40 31
f 32 40 35
f 33 41 34
f 33 42 53
f 33 53 65
f 33 65 62
f 33 62 50
f 33 50 41
f 35 43 36
f 35 40 44
f 35 44 45
f 35 45 43
f 36 43 46
f 36 46 47
f 36 47 37
f 38 48 49
f 38 49 39
f 39 49 40
f 40 49 44
f 42 51 52
f 42 52 53
f 43 45 54
f 43 54 55
f 43 55 56
f 43 56 57
f 43 57 58
f 43 58 46
f 44 49 45
f 45 49 59
f 45 59 60
f 45 60 61
f 45 61 54
f 46 58 47
f 48 59 49
f 50 62 63
f 51 56 52
f 52 55 64
f 52 64 53
f 52 56 55
f 53 64 65
f 54 64 55
f 54 61 64
f 59 66 60
f 60 67 61
f 60 66 67
f 61 67 64
f 62 65 68
f 62 68 63
f 63 68 66
f 64 67 68
f 64 68 65
f 66 68 67

