# https://github.com/mikedh/trimesh
v -199.57949260 136.22990620 -2.29762304
v -199.57949260 132.03917295 -2.22747842
v -199.57949260 148.80206099 -2.29762304
v -194.89645410 132.03917295 -2.29762304
v -199.57949260 127.68237418 -1.38575428
v -199.57949260 149.18761840 -2.18071535
v -25.60922706 148.80206099 -2.29762304
v -35.63942371 132.03917295 -2.29762304
v -199.57949260 126.16089147 -1.04283004
v -199.57949260 152.19201308 -1.26105523
v -25.60922706 150.86924535 -1.66632899
v -25.60922706 140.42062446 -2.29762304
v -27.26106025 136.22990620 -2.29762304
v -31.45024198 132.03917295 -2.26644641
v -35.63942371 128.23104396 -1.26105523
v -199.57949260 123.76153861 1.87982107
v -199.57949260 152.35809359 -0.90254455
v -25.60922706 152.19201308 -1.26105523
v -25.60922706 136.22990620 -2.26644641
v -31.45024198 128.50093415 -1.22208725
v -25.60922706 131.81377476 -1.34678629
v -35.63942371 126.36257458 1.87982107
v -199.57949260 123.50648159 6.07285163
v -199.57949260 153.64525872 1.87982107
v -25.60922706 153.64525872 1.87982107
v -28.29983917 129.16231802 -0.86357657
v -31.45024198 126.97353017 1.87982107
v -25.60922706 130.98334226 0.41459797
v -35.63942371 126.20835161 6.07285163
v -199.57949260 123.50648159 31.49602747
v -199.57949260 153.80244982 6.07285163
v -25.60922706 153.74313214 4.43616641
v -25.60922706 130.32789466 1.87982107
v -27.75490953 128.76490307 1.87982107
v -31.45024198 126.88752928 6.07285163
v -35.63942371 126.20835161 68.93714837
v -199.57949260 123.52427539 35.41627818
v -199.57949260 153.80244982 68.93714837
v -25.60922706 153.80244982 6.07285163
v -25.60922706 130.22408497 6.07285163
v -27.70382167 128.75599867 6.07285163
v -31.45024198 126.88752928 68.93714837
v -31.45024198 126.97353017 73.13017893
v -35.63942371 126.36257458 73.13017893
v -199.57949260 123.53020416 35.54877161
v -199.57949260 153.78465602 69.41256674
v -25.60922706 153.80244982 68.93714837
v -25.60922706 130.22408497 35.41627818
v -27.70382167 128.75599867 39.59372182
v -27.78896810 128.76490307 73.13017893
v -27.77193882 128.75599867 68.93714837
v -28.31686845 129.16231802 75.87357657
v -31.45024198 128.50093415 76.23208725
v -35.63942371 128.23104396 76.27105523
v -190.70727986 126.36257458 73.13017893
v -194.89645410 126.60873470 73.13017893
v -198.79614547 128.40010759 73.13017893
v -199.57949260 129.07631713 73.13017893
v -199.57949260 153.64230558 73.13017893
v -25.60922706 153.64230558 73.13017893
v -25.60922706 130.38127607 68.93714837
v -25.60922706 130.43762562 73.13017893
v -25.60922706 130.46432382 73.20032354
v -25.60922706 132.34169760 76.22429216
v -27.05670883 131.81674290 76.45031245
v -31.45024198 132.03917295 77.27644641
v -35.63942371 132.03917295 77.30762304
v -190.70727986 128.23104396 76.27105523
v -194.89645410 128.33188552 76.27105523
v -198.18310618 128.93395171 75.92033590
v -199.57949260 131.81971103 76.44251735
v -199.57949260 153.47621009 73.48868961
v -25.60922706 152.18904495 76.26326014
v -25.60922706 133.40346456 76.59059793
v -25.60922706 136.22990620 77.12836583
v -27.26106025 136.22990620 77.30762304
v -194.89645410 132.03917295 77.30762304
v -199.39217046 131.74852082 76.47369399
v -199.57949260 136.18838233 77.22189198
v -199.57949260 152.18904495 76.26326014
v -25.60922706 148.80206099 77.29982795
v -25.60922706 137.86704114 77.30762304
v -199.10267261 136.22990620 77.30762304
v -199.57949260 140.42062446 77.29982795
v -199.57949260 148.80206099 77.29982795
f 1 2 5
f 1 5 9
f 1 9 16
f 1 16 23
f 1 23 30
f 1 30 37
f 1 37 45
f 1 45 58
f 1 58 71
f 1 71 79
f 1 79 84
f 1 84 85
f 1 85 80
f 1 80 72
f 1 72 59
f 1 59 46
f 1 46 38
f 1 38 31
f 1 31 24
f 1 24 17
f 1 17 10
f 1 10 6
f 1 6 3
f 1 3 7
f 1 7 12
f 1 12 13
f 1 13 8
f 1 8 4
f 1 4 2
f 2 4 5
f 3 6 7
f 4 8 5
f 5 8 9
f 6 10 11
f 6 11 7
f 7 11 18
f 7 18 25
f 7 25 32
f 7 32 39
f 7 39 47
f 7 47 60
f 7 60 73
f 7 73 81
f 7 81 82
f 7 82 75
f 7 75 74
f 7 74 64
f 7 64 63
f 7 63 62
f 7 62 61
f 7 61 48
f 7 48 40
f 7 40 33
f 7 33 28
f 7 28 21
f 7 21 19
f 7 19 12
f 8 13 14
f 8 14 15
f 8 15 9
f 9 15 16
f 10 17 18
f 10 18 11
f 12 19 13
f 13 19 14
f 14 20 15
f 14 19 21
f 14 21 20
f 15 20 22
f 15 22 16
f 16 22 23
f 17 24 25
f 17 25 18
f 20 21 26
f 20 26 27
f 20 27 22
f 21 28 26
f 22 27 29
f 22 29 23
f 23 29 36
f 23 36 30
f 24 31 32
f 24 32 25
f 26 28 33
f 26 33 34
f 26 34 27
f 27 34 35
f 27 35 29
f 29 35 42
f 29 42 36
f 30 36 37
f 31 38 47
f 31 47 39
f 31 39 32
f 33 40 34
f 34 40 41
f 34 41 35
f 35 41 49
f 35 49 42
f 36 42 43
f 36 43 44
f 36 44 37
f 37 44 45
f 38 46 47
f 40 48 49
f 40 49 41
f 42 50 43
f 42 49 51
f 42 51 50
f 43 50 52
f 43 52 53
f 43 53 44
f 44 53 54
f 44 54 68
f 44 68 55
f 44 55 45
f 45 55 56
f 45 56 57
f 45 57 58
f 46 59 60
f 46 60 47
f 48 61 51
f 48 51 49
f 50 51 61
f 50 61 62
f 50 62 52
f 52 62 63
f 52 63 64
f 52 64 65
f 52 65 53
f 53 65 66
f 53 66 54
f 54 66 67
f 54 67 77
f 54 77 68
f 55 68 69
f 55 69 56
f 56 69 70
f 56 70 57
f 57 70 58
f 58 70 71
f 59 72 60
f 60 72 73
f 64 74 65
f 65 74 66
f 66 74 75
f 66 75 76
f 66 76 67
f 67 76 82
f 67 82 83
f 67 83 77
f 68 77 69
f 69 77 70
f 70 77 78
f 70 78 71
f 71 78 79
f 72 80 73
f 73 80 85
f 73 85 81
f 75 82 76
f 77 83 79
f 77 79 78
f 79 83 84
f 81 85 82
f 82 85 83
f 83 85 84

