# https://github.com/mikedh/trimesh
v 194.87978458 -153.80541795 44.66900751
v 194.87978458 -148.09240749 44.66900751
v 210.82929939 -153.80541795 44.66900751
v 194.87978458 -153.80541795 68.93970613
v 194.87978458 -126.49539101 47.98605673
v 194.88759467 -126.47130117 44.66900751
v 210.82929939 -133.81658962 44.66900751
v 210.82929939 -153.80541795 68.93970613
v 194.87978458 -153.64485398 73.10039641
v 194.87978458 -126.49539101 68.93970613
v 194.91256896 -126.47130117 44.66900751
v 199.35583332 -127.65939364 44.66900751
v 198.80472007 -128.39793396 73.13235256
v 210.82929939 -135.33916664 73.17709191
v 210.82929939 -153.64218566 73.13235256
v 194.87978458 -153.64218566 73.13235256
v 194.87978458 -126.60777530 73.13235256
v 194.91256896 -126.60777530 73.13235256
v 194.91256896 -126.49805933 68.93970613
v 198.53773805 -127.26870945 44.66900751
v 198.19115612 -128.93578056 75.92212353
v 210.82929939 -136.92327994 76.26725138
v 210.82929939 -152.18917987 76.26725138
v 194.91256896 -152.18917987 76.26725138
v 194.87978458 -152.19988313 76.24168496
v 194.87978458 -128.33103105 76.27044812
v 194.91256896 -128.33103105 76.27044812
v 210.82929939 -140.42065445 77.30263118
v 210.82929939 -149.48921365 77.09491812
v 194.87978458 -148.82827950 77.29624145
v 194.87978458 -128.36047253 76.28003458
v 194.91256896 -132.03980255 77.31541439
v 210.82929939 -148.80152133 77.30263118
v 194.87978458 -148.80152133 77.30263118
v 194.87978458 -132.03980255 77.31541439
f 1 2 6
f 1 6 11
f 1 11 20
f 1 20 12
f 1 12 7
f 1 7 3
f 1 3 8
f 1 8 4
f 1 4 9
f 1 9 16
f 1 16 25
f 1 25 30
f 1 30 34
f 1 34 35
f 1 35 31
f 1 31 26
f 1 26 17
f 1 17 10
f 1 10 5
f 1 5 2
f 2 5 6
f 3 7 14
f 3 14 22
f 3 22 28
f 3 28 33
f 3 33 29
f 3 29 23
f 3 23 15
f 3 15 8
f 4 8 9
f 5 10 6
f 6 10 11
f 7 12 13
f 7 13 14
f 8 15 9
f 9 15 16
f 10 17 18
f 10 18 19
f 10 19 11
f 11 19 20
f 12 20 13
f 13 18 21
f 13 21 14
f 13 20 18
f 14 21 22
f 15 23 24
f 15 24 16
f 16 24 25
f 17 26 27
f 17 27 18
f 18 27 21
f 18 20 19
f 21 27 22
f 22 27 28
f 23 29 24
f 24 29 30
f 24 30 25
f 26 31 27
f 27 31 32
f 27 32 28
f 28 32 33
f 29 33 30
f 30 33 34
f 31 35 32
f 32 35 34
f 32 34 33

