# https://github.com/mikedh/trimesh
v -233.60416979 -122.70829380 46.57653764
v -253.80539948 -122.70829380 46.57653764
v -234.87775347 -108.64186418 46.57653764
v -235.00827634 -108.64048505 68.94040319
v -235.10517538 -108.64048505 73.13343937
v -234.48420608 -122.70829380 73.13343937
v -253.80539948 -108.64048505 46.57653764
v -253.80539948 -122.70829380 68.94040319
v -248.75459737 -108.64048505 46.57653764
v -234.94300741 -108.64048505 47.80376767
v -236.84349665 -108.64048505 76.28874410
v -236.56859961 -122.70829380 76.32183204
v -253.80539948 -108.64048505 68.94040319
v -253.74804556 -122.70829380 73.13343937
v -238.35635978 -108.64048505 76.70383668
v -241.02216250 -108.64048505 77.30241382
v -241.02216250 -122.70829380 77.30241382
v -253.74804556 -108.64048505 73.13343937
v -252.59509099 -122.70829380 76.26768985
v -253.07763737 -108.64048505 74.95623625
v -249.40325424 -108.64048505 77.30241382
v -249.40325424 -122.70829380 77.30241382
v -252.59509099 -108.64048505 76.26768985
f 1 2 7
f 1 7 9
f 1 9 3
f 1 3 4
f 1 4 5
f 1 5 6
f 1 6 12
f 1 12 17
f 1 17 22
f 1 22 19
f 1 19 14
f 1 14 8
f 1 8 2
f 2 8 13
f 2 13 7
f 3 9 10
f 3 10 4
f 4 10 9
f 4 9 7
f 4 7 13
f 4 13 18
f 4 18 20
f 4 20 23
f 4 23 21
f 4 21 16
f 4 16 15
f 4 15 11
f 4 11 5
f 5 11 6
f 6 11 12
f 8 14 18
f 8 18 13
f 11 15 12
f 12 15 16
f 12 16 17
f 14 19 20
f 14 20 18
f 16 21 22
f 16 22 17
f 19 22 21
f 19 21 23
f 19 23 20

