# https://github.com/mikedh/trimesh
v 225.52996495 153.79966158 44.66900751
v 225.52996495 153.79966158 6.06776796
v 194.88879392 153.79966158 44.66900751
v 225.52996495 131.71997878 44.66900751
v 225.52996495 153.75355059 4.78949035
v 194.87978458 153.79966158 6.06776796
v 194.87978458 153.79966158 43.82295109
v 194.87978458 148.21489543 44.66900751
v 194.87978458 126.46373093 44.66900751
v 225.52996495 99.16238353 43.21599985
v 225.52996495 153.64404449 1.87888042
v 194.87978458 153.64404449 1.87888042
v 194.87978458 126.39456445 39.59727670
v 205.41457126 113.20785633 35.40838728
v 209.40224227 108.81035817 38.36038243
v 209.99035224 109.39246441 41.15604095
v 225.52996495 98.27482197 42.41132864
v 225.52996495 152.19166830 -1.26163987
v 194.87978458 152.19166830 -1.26163987
v 194.87978458 126.35999620 35.40838728
v 205.41457126 113.20785633 6.06776796
v 207.23887843 111.08115192 35.40838728
v 209.31222391 108.71814369 35.40838728
v 225.52996495 94.93203020 35.40838728
v 225.52996495 95.28360400 39.59727670
v 225.52996495 148.80276555 -2.30541439
v 194.87978458 148.80276555 -2.30541439
v 194.87978458 126.35999620 6.03558133
v 205.42657870 113.21362020 1.87888042
v 207.25388399 111.08115192 1.87888042
v 207.23887843 111.08115192 6.06776796
v 209.31222391 108.71814369 6.06776796
v 225.52996495 94.92627382 31.21489951
v 225.52996495 106.89113821 -2.30541439
v 194.87978458 132.03696933 -2.30541439
v 194.87978458 126.54442516 1.85588488
v 209.40825349 108.81612204 -0.40179212
v 209.31523702 108.72390756 1.87888042
v 225.52996495 94.93203020 6.06776796
v 225.52996495 94.92627382 10.26125573
v 225.52996495 105.61166324 -2.19045922
v 224.25174919 106.89113821 -2.30541439
v 194.87978458 128.34837514 -1.27083658
v 215.86833391 111.08115192 -2.30541439
v 211.67662627 111.08115192 -1.91917116
v 208.42707583 111.08115192 -0.87999499
v 194.87978458 128.31954828 -1.26163987
v 211.67662627 107.89397724 -0.87999499
v 216.68747851 104.05553733 -0.88919170
v 225.52996495 95.62364255 0.20516100
v 225.52996495 95.07611954 1.87888042
v 225.52996495 94.99543281 2.55939974
v 220.06004155 106.89113821 -2.28242260
v 225.52996495 101.02973612 -1.38119339
v 215.52028289 106.53957191 -1.45475961
v 225.52996495 97.77340245 -0.62710036
f 1 2 6
f 1 6 7
f 1 7 3
f 1 3 8
f 1 8 9
f 1 9 4
f 1 4 10
f 1 10 17
f 1 17 25
f 1 25 24
f 1 24 33
f 1 33 40
f 1 40 39
f 1 39 52
f 1 52 51
f 1 51 50
f 1 50 56
f 1 56 54
f 1 54 41
f 1 41 34
f 1 34 26
f 1 26 18
f 1 18 11
f 1 11 5
f 1 5 2
f 2 5 6
f 3 7 8
f 4 9 10
f 5 11 12
f 5 12 6
f 6 12 19
f 6 19 27
f 6 27 35
f 6 35 43
f 6 43 47
f 6 47 36
f 6 36 28
f 6 28 20
f 6 20 13
f 6 13 9
f 6 9 8
f 6 8 7
f 9 13 14
f 9 14 15
f 9 15 16
f 9 16 10
f 10 16 17
f 11 18 19
f 11 19 12
f 13 20 14
f 14 20 28
f 14 28 21
f 14 21 31
f 14 31 22
f 14 22 15
f 15 22 23
f 15 23 24
f 15 24 25
f 15 25 16
f 16 25 17
f 18 26 27
f 18 27 19
f 21 28 29
f 21 29 30
f 21 30 31
f 22 31 32
f 22 32 23
f 23 32 40
f 23 40 33
f 23 33 24
f 26 34 42
f 26 42 44
f 26 44 35
f 26 35 27
f 28 36 29
f 29 37 30
f 29 36 37
f 30 37 38
f 30 38 31
f 31 38 32
f 32 38 39
f 32 39 40
f 34 41 42
f 35 44 45
f 35 45 46
f 35 46 43
f 36 47 37
f 37 46 48
f 37 48 49
f 37 49 50
f 37 50 51
f 37 51 52
f 37 52 38
f 37 47 46
f 38 52 39
f 41 53 42
f 41 54 53
f 42 53 44
f 43 46 47
f 44 53 45
f 45 53 55
f 45 55 48
f 45 48 46
f 48 55 49
f 49 55 56
f 49 56 50
f 53 54 56
f 53 56 55

