# https://github.com/mikedh/trimesh
v 25.52067590 148.80192608 77.30541943
v 0.04285429 148.80192608 77.30541943
v 25.52067590 140.42294800 77.30541943
v 25.52067590 152.18886507 76.26753995
v 0.04285429 140.42294800 77.30541943
v 0.04285429 152.18886507 76.26753995
v 25.52067590 136.23002613 77.12042083
v 25.52067590 153.04536617 74.42381249
v 0.04285429 136.94414681 76.26753995
v 25.52067590 132.37235332 76.21110046
v 0.04285429 152.93055341 74.66838736
v 25.52067590 153.64238054 73.13195156
v 0.04285429 153.64238054 73.13195156
v 0.04285429 136.17492080 74.73110040
v 25.52067590 130.50320935 73.13195156
v 25.52067590 153.73882985 70.66737848
v 0.04285429 153.80541795 68.93966866
v 0.04285429 135.37812713 73.13195156
v 0.04285429 135.28857347 71.07813879
v 0.04285429 135.19672626 68.93966866
v 25.52067590 130.49632868 72.87796636
v 25.52067590 153.80541795 68.93966866
v 0.04285429 153.80541795 45.27537787
v 0.04285429 134.67088711 45.27537787
v 25.52067590 130.44581047 68.93966866
v 25.52067590 153.80541795 45.27537787
v 25.52067590 130.34706759 45.27537787
f 1 2 5
f 1 5 3
f 1 3 7
f 1 7 10
f 1 10 15
f 1 15 21
f 1 21 25
f 1 25 27
f 1 27 26
f 1 26 22
f 1 22 16
f 1 16 12
f 1 12 8
f 1 8 4
f 1 4 6
f 1 6 2
f 2 6 11
f 2 11 13
f 2 13 17
f 2 17 23
f 2 23 24
f 2 24 20
f 2 20 19
f 2 19 18
f 2 18 14
f 2 14 9
f 2 9 5
f 3 5 7
f 4 8 6
f 5 9 10
f 5 10 7
f 6 8 11
f 8 12 13
f 8 13 11
f 9 14 15
f 9 15 10
f 12 16 13
f 13 16 17
f 14 18 15
f 15 18 19
f 15 19 20
f 15 20 21
f 16 22 17
f 17 22 26
f 17 26 23
f 20 24 21
f 21 24 25
f 23 26 27
f 23 27 24
f 24 27 25

