# https://github.com/mikedh/trimesh
v -25.60922519 140.41530281 -2.30541439
v -25.60922519 148.79738393 -2.30541439
v -14.66854733 127.84854463 -2.30541439
v -25.60922519 136.22638342 -2.26350076
v -25.60922519 152.18841535 -1.26216828
v 25.52067590 148.79738393 -2.30541439
v -10.47945836 119.46644852 -2.25418412
v -6.28536534 119.46644852 -2.30541439
v -25.60922519 131.81677288 -1.34600304
v -14.72860517 119.49615982 -1.28545613
v -25.60922519 153.63989210 1.88154124
v 0.04080840 153.63989210 1.87688667
v 0.04080840 152.90142673 0.27941677
v 25.52067590 152.18841535 -1.26216828
v 25.52067590 137.94947428 -2.30541439
v -2.09127233 115.27752912 -2.30541439
v -6.28536534 115.27752912 -2.06323426
v -10.37435574 115.23084849 -1.23888044
v -13.37228199 116.59744865 -0.84766408
v -17.19601428 120.91369043 -0.68000207
v -25.60922519 130.98491627 0.41447805
v -25.60922519 153.80117562 6.06849875
v 25.52067590 153.63989210 1.87688667
v 25.52067590 136.22638342 -2.26350076
v 10.47599273 119.46644852 -2.25418412
v 2.09781595 115.27752912 -2.30541439
v -2.09127233 111.93742816 -1.26216828
v -6.28536534 112.36184113 -1.01998816
v -8.91292993 112.86688836 -0.59616732
v -11.28024046 114.11040846 1.88154124
v -13.78268252 116.20698932 1.88154124
v -15.87972996 118.48606536 1.88154124
v -25.60922519 130.33132750 1.88154124
v -25.60922519 153.80117562 45.27406432
v 25.52067590 153.80117562 6.06849875
v 25.52067590 133.49318311 -1.73256107
v 14.73014452 119.49615982 -1.29011070
v 10.37589508 115.23084849 -1.23888044
v 6.28690422 115.27752912 -2.06323426
v 2.09781595 111.93742816 -1.26216828
v -2.09127233 110.57083550 1.88154124
v 0.04080840 110.57083550 1.87688667
v -6.28536534 111.50028820 1.88154124
v -9.18319395 112.70137000 1.88154124
v -11.28524543 114.10191630 6.06849875
v -13.79269247 116.19850466 6.06849875
v -15.88973804 118.48182303 6.06849875
v -25.60922519 130.22948158 6.06849875
v -25.60922519 130.32708517 2.03523204
v -25.60922519 130.35255414 45.27406432
v 0.03580351 153.80117562 45.27406432
v 25.52067590 153.80117562 45.26940788
v 25.52067590 131.81677288 -1.33668640
v 13.37382039 116.59744865 -0.84766408
v 8.91446834 112.86688836 -0.59616732
v 6.28690422 112.36184113 -1.01998816
v 2.09781595 110.57083550 1.87688667
v -2.09127233 110.44775544 6.06849875
v -6.28536534 111.45784990 6.06849875
v -9.18819892 112.69712017 6.06849875
v -11.28524543 114.10191630 35.40514182
v -13.79269247 116.19850466 35.40514182
v -15.88973804 118.48182303 35.40514182
v -25.60922519 130.22522426 10.26477102
v -25.60922519 130.31860051 43.78836972
v -13.43234076 116.54226837 39.59675577
v -12.91183263 117.05156542 41.87419972
v -8.44747560 113.14275229 41.72516536
v -6.28536534 112.90932666 41.86954327
v -2.09127233 112.65043955 41.99994810
v 0.03580351 112.65043955 41.99994810
v 25.52067590 130.35255414 45.26940788
v 0.03580351 134.66454610 45.27406432
v 25.52067590 130.33132750 1.87688667
v 17.19755268 120.91369043 -0.68000207
v 15.87626339 118.48606536 1.87688667
v 13.78422093 116.20698932 1.87688667
v 11.27677389 114.11040846 1.87688667
v 9.18473236 112.70137000 1.87688667
v 6.28690422 111.50028820 1.87688667
v 2.09781595 110.44775544 6.06849875
v -2.09127233 110.44775544 35.40514182
v -6.28536534 111.45784990 35.40514182
v -9.18819892 112.69712017 35.40514182
v -8.83285219 112.91356899 39.59675577
v -10.92989870 114.44568750 39.59675577
v -25.60922519 130.25069323 39.59675577
v -25.60922519 130.22522426 35.40514182
v -6.28536534 112.04777373 39.59675577
v -2.09127233 111.28383939 39.59675577
v 0.03580351 111.97987396 40.82163885
v 2.09781595 111.28383939 39.59675577
v 2.09781595 112.65043955 41.99529165
v 6.28690422 112.90932666 41.86954327
v 8.44901401 113.14275229 41.72516536
v 12.90836606 117.05156542 41.86954327
v 13.43387917 116.54226837 39.59675577
v 13.78922590 116.19850466 35.40514182
v 15.88627335 118.48182303 35.40514182
v 25.52067590 130.30587351 43.48564269
v 25.52067590 130.23796624 5.76111527
v 15.88627335 118.48182303 6.06849875
v 25.52067590 130.23372391 6.06849875
v 13.78922590 116.19850466 6.06849875
v 11.28177886 114.10191630 6.06849875
v 9.18973733 112.69712017 6.06849875
v 6.28690422 111.45784990 6.06849875
v 2.09781595 110.44775544 35.40514182
v 6.28690422 112.04777373 39.59675577
v 8.83439060 112.91356899 39.59675577
v 10.93143710 114.44568750 39.59675577
v 11.28177886 114.10191630 35.40514182
v 25.52067590 130.22948158 35.40514182
v 25.52067590 130.25493556 39.59675577
v 25.52067590 130.22948158 9.85492326
v 9.18973733 112.69712017 35.40514182
v 6.28690422 111.45784990 35.40514182
f 1 2 6
f 1 6 15
f 1 15 26
f 1 26 16
f 1 16 8
f 1 8 3
f 1 3 4
f 1 4 9
f 1 9 21
f 1 21 33
f 1 33 49
f 1 49 48
f 1 48 64
f 1 64 88
f 1 88 87
f 1 87 65
f 1 65 50
f 1 50 34
f 1 34 22
f 1 22 11
f 1 11 5
f 1 5 2
f 2 5 14
f 2 14 6
f 3 7 4
f 3 8 7
f 4 7 10
f 4 10 9
f 5 11 12
f 5 12 13
f 5 13 14
f 6 14 23
f 6 23 35
f 6 35 52
f 6 52 72
f 6 72 100
f 6 100 114
f 6 114 113
f 6 113 115
f 6 115 103
f 6 103 101
f 6 101 74
f 6 74 53
f 6 53 36
f 6 36 24
f 6 24 15
f 7 8 16
f 7 16 17
f 7 17 18
f 7 18 10
f 9 10 19
f 9 19 20
f 9 20 21
f 10 18 19
f 11 22 12
f 12 23 13
f 12 22 35
f 12 35 23
f 13 23 14
f 15 24 25
f 15 25 26
f 16 27 17
f 16 26 40
f 16 40 27
f 17 27 28
f 17 28 18
f 18 28 29
f 18 29 19
f 19 30 31
f 19 31 32
f 19 32 20
f 19 29 30
f 20 32 33
f 20 33 21
f 22 34 51
f 22 51 52
f 22 52 35
f 24 36 25
f 25 36 37
f 25 37 38
f 25 38 39
f 25 39 26
f 26 39 40
f 27 41 28
f 27 40 57
f 27 57 42
f 27 42 41
f 28 41 43
f 28 43 29
f 29 44 30
f 29 43 44
f 30 45 46
f 30 46 31
f 30 44 45
f 31 46 32
f 32 46 47
f 32 47 48
f 32 48 49
f 32 49 33
f 34 50 73
f 34 73 51
f 36 53 37
f 37 54 38
f 37 53 54
f 38 54 55
f 38 55 56
f 38 56 39
f 39 56 40
f 40 56 57
f 41 58 43
f 41 42 58
f 42 57 81
f 42 81 58
f 43 59 44
f 43 58 59
f 44 59 60
f 44 60 45
f 45 61 62
f 45 62 46
f 45 60 84
f 45 84 61
f 46 62 63
f 46 63 47
f 47 63 88
f 47 88 64
f 47 64 48
f 50 65 63
f 50 63 62
f 50 62 66
f 50 66 67
f 50 67 68
f 50 68 69
f 50 69 70
f 50 70 71
f 50 71 72
f 50 72 73
f 51 73 72
f 51 72 52
f 53 74 75
f 53 75 54
f 54 75 76
f 54 76 77
f 54 77 78
f 54 78 55
f 55 79 80
f 55 80 56
f 55 78 79
f 56 80 57
f 57 80 81
f 58 82 83
f 58 83 59
f 58 81 108
f 58 108 82
f 59 83 84
f 59 84 60
f 61 84 85
f 61 85 86
f 61 86 62
f 62 86 66
f 63 65 87
f 63 87 88
f 66 86 68
f 66 68 67
f 68 85 89
f 68 89 90
f 68 90 69
f 68 86 85
f 69 90 70
f 70 90 91
f 70 91 71
f 71 91 92
f 71 92 93
f 71 93 72
f 72 93 94
f 72 94 95
f 72 95 96
f 72 96 97
f 72 97 98
f 72 98 99
f 72 99 100
f 74 101 76
f 74 76 75
f 76 102 77
f 76 101 103
f 76 103 102
f 77 104 105
f 77 105 78
f 77 102 104
f 78 105 79
f 79 106 107
f 79 107 80
f 79 105 106
f 80 107 81
f 81 107 117
f 81 117 108
f 82 90 89
f 82 89 83
f 82 108 92
f 82 92 90
f 83 89 85
f 83 85 84
f 90 92 91
f 92 108 109
f 92 109 95
f 92 95 94
f 92 94 93
f 95 109 110
f 95 110 111
f 95 111 97
f 95 97 96
f 97 111 98
f 98 104 102
f 98 102 99
f 98 111 112
f 98 112 105
f 98 105 104
f 99 102 115
f 99 115 113
f 99 113 114
f 99 114 100
f 102 103 115
f 105 112 116
f 105 116 106
f 106 116 117
f 106 117 107
f 108 117 109
f 109 117 110
f 110 117 116
f 110 116 112
f 110 112 111

