# https://github.com/mikedh/trimesh
v -249.39917681 -122.70965794 -2.30541439
v -252.59748948 -122.70965794 -1.26231819
v -249.39917681 -94.33774412 -2.30541439
v -208.43548554 -122.70965794 -2.30541439
v -252.59748948 -94.33774412 -1.26231819
v -253.74762583 -122.70965794 1.87653814
v -236.82646737 -94.33774412 -2.30541439
v -211.68106347 -115.26880461 -2.30541439
v -207.49016532 -119.46001756 -2.30062865
v -207.49016532 -122.70965794 -2.30062865
v -253.74762583 -94.33774412 1.87653814
v -253.76339591 -122.70965794 2.82393830
v -232.63556921 -94.33774412 -2.30062865
v -215.87197661 -111.07759166 -2.30541439
v -211.68106347 -111.07759166 -1.92262648
v -207.09104145 -114.86884876 -1.46806374
v -204.57544422 -115.99928001 -0.91302296
v -203.22573844 -119.81275313 -1.09006157
v -204.24458739 -122.70965794 -1.81735897
v -253.80539948 -94.33774412 6.06806215
v -253.80539948 -122.70965794 6.06806215
v -228.44467106 -94.33774412 -1.59725620
v -211.68106347 -107.89182609 -0.87953028
v -208.42497715 -111.07759166 -0.87953028
v -209.40705425 -108.80839440 -0.40583208
v -205.42623392 -113.21347030 1.87653814
v -204.14479518 -115.30769014 1.87653814
v -201.15129864 -121.44313481 -0.28621109
v -200.79417834 -122.70965794 -0.48238891
v -201.19331720 -122.70965794 -0.74555583
v -203.27826539 -122.70965794 -1.53026710
v -253.80539948 -94.33774412 46.57653576
v -253.80539948 -122.70965794 46.57653576
v -226.09188640 -94.33774412 -0.55416000
v -225.80303314 -94.33774412 1.87653814
v -209.31778541 -108.71951532 1.87653814
v -207.25383902 -111.07759166 1.87653814
v -205.41572553 -113.20513554 6.06806215
v -204.12379339 -115.30213614 6.06806215
v -200.15871316 -122.70965794 4.33116498
v -202.04935360 -119.28225940 1.87653814
v -200.30052394 -122.70965794 0.95306293
v -225.84505171 -94.33774412 46.57653576
v -233.60189122 -122.70965794 46.57653576
v -225.77152297 -94.33774412 6.06806215
v -209.31252372 -108.71396132 6.06806215
v -207.23808393 -111.07759166 6.06806215
v -205.41572553 -113.20513554 35.40871333
v -204.12379339 -115.30213614 35.40871333
v -200.15346646 -122.70965794 6.06806215
v -226.09188640 -97.12355383 46.57653576
v -203.54085517 -122.70965794 42.01658107
v -205.04285014 -116.65476508 41.89696008
v -209.99000746 -109.38610841 41.15530922
v -209.40180755 -108.80284040 38.36096051
v -209.31252372 -108.71396132 35.40871333
v -225.81878823 -94.33774412 43.78697279
v -225.77152297 -94.33774412 35.40871333
v -207.23808393 -111.07759166 35.40871333
v -205.91988832 -113.70508598 39.60023452
v -204.49666879 -115.79929833 39.60023452
v -201.14605194 -121.43202680 37.83941334
v -200.16397485 -122.70965794 35.40871333
v -200.15346646 -122.70965794 31.21719213
v -202.15963921 -122.70965794 40.98784021
v -201.79201052 -122.36247638 40.63376112
v -201.40338004 -122.70965794 40.31796231
v -200.65238255 -122.70965794 38.70068426
v -225.78203136 -94.33774412 39.60023452
f 1 2 5
f 1 5 3
f 1 3 7
f 1 7 14
f 1 14 8
f 1 8 4
f 1 4 10
f 1 10 19
f 1 19 31
f 1 31 30
f 1 30 29
f 1 29 42
f 1 42 40
f 1 40 50
f 1 50 64
f 1 64 63
f 1 63 68
f 1 68 67
f 1 67 65
f 1 65 52
f 1 52 44
f 1 44 33
f 1 33 21
f 1 21 12
f 1 12 6
f 1 6 2
f 2 6 11
f 2 11 5
f 3 5 11
f 3 11 20
f 3 20 32
f 3 32 43
f 3 43 57
f 3 57 69
f 3 69 58
f 3 58 45
f 3 45 35
f 3 35 34
f 3 34 22
f 3 22 13
f 3 13 7
f 4 8 9
f 4 9 10
f 6 12 11
f 7 13 14
f 8 14 15
f 8 15 9
f 9 16 17
f 9 17 18
f 9 18 19
f 9 19 10
f 9 15 16
f 11 12 20
f 12 21 20
f 13 22 15
f 13 15 14
f 15 23 24
f 15 24 16
f 15 22 23
f 16 24 17
f 17 24 25
f 17 25 26
f 17 26 27
f 17 27 28
f 17 28 29
f 17 29 30
f 17 30 18
f 18 30 31
f 18 31 19
f 20 21 33
f 20 33 32
f 22 34 25
f 22 25 23
f 23 25 24
f 25 35 36
f 25 36 37
f 25 37 26
f 25 34 35
f 26 37 38
f 26 38 39
f 26 39 27
f 27 39 40
f 27 40 41
f 27 41 42
f 27 42 28
f 28 42 29
f 32 33 44
f 32 44 51
f 32 51 43
f 35 45 36
f 36 46 47
f 36 47 37
f 36 45 46
f 37 47 38
f 38 47 59
f 38 59 48
f 38 48 49
f 38 49 39
f 39 49 64
f 39 64 50
f 39 50 40
f 40 42 41
f 43 51 52
f 43 52 53
f 43 53 54
f 43 54 55
f 43 55 56
f 43 56 57
f 44 52 51
f 45 58 56
f 45 56 46
f 46 56 59
f 46 59 47
f 48 60 61
f 48 61 49
f 48 59 55
f 48 55 60
f 49 62 63
f 49 63 64
f 49 61 62
f 52 65 53
f 53 65 66
f 53 66 67
f 53 67 68
f 53 68 61
f 53 61 60
f 53 60 54
f 54 60 55
f 55 59 56
f 56 58 69
f 56 69 57
f 61 68 62
f 62 68 63
f 65 67 66

