# https://github.com/mikedh/trimesh
v 225.53294808 131.72327670 44.67219863
v 210.80753309 133.78322062 44.67219863
v 225.53294808 153.80325931 44.67219863
v 225.53294808 133.37685630 73.14919821
v 210.80753309 135.33519414 73.17795012
v 210.80753309 153.80325931 44.67219863
v 225.53294808 153.80325931 68.94185915
v 225.53294808 133.78322062 75.23848991
v 225.53294808 133.90858674 75.61226099
v 210.80753309 136.54781118 75.70170971
v 210.80753309 153.80325931 68.94185915
v 210.80753309 153.77083471 69.81399542
v 225.53294808 153.69303367 71.85536977
v 225.53294808 136.08307359 76.51314916
v 210.80753309 136.91959226 76.26716143
v 210.80753309 153.64330995 73.13322201
v 225.53294808 153.64330995 73.13322201
v 225.53294808 140.42125407 77.30541943
v 210.80753309 140.42125407 77.30541943
v 210.80753309 139.63445911 77.08818361
v 210.80753309 152.19076887 76.26716143
v 225.53294808 152.19076887 76.26716143
v 225.53294808 148.80364999 77.30541943
v 210.80753309 148.80364999 77.30541943
f 1 2 6
f 1 6 3
f 1 3 7
f 1 7 13
f 1 13 17
f 1 17 22
f 1 22 23
f 1 23 18
f 1 18 14
f 1 14 9
f 1 9 8
f 1 8 4
f 1 4 5
f 1 5 2
f 2 5 10
f 2 10 15
f 2 15 20
f 2 20 19
f 2 19 24
f 2 24 21
f 2 21 16
f 2 16 12
f 2 12 11
f 2 11 6
f 3 6 11
f 3 11 7
f 4 8 5
f 5 8 9
f 5 9 10
f 7 11 12
f 7 12 13
f 9 14 15
f 9 15 10
f 12 16 13
f 13 16 17
f 14 18 19
f 14 19 20
f 14 20 15
f 16 21 22
f 16 22 17
f 18 23 24
f 18 24 19
f 21 24 23
f 21 23 22

