# https://github.com/mikedh/trimesh
v -28.00483846 26.10208851 9.09788858
v -28.00483846 26.09446980 8.26513443
v -28.07644293 26.01255526 8.26513443
v -28.07455691 26.02208056 9.09788858
v -28.00483846 6.64264422 9.09788858
v -28.00483846 26.05637115 6.53878973
v -28.07079001 25.98207531 6.53878973
v -29.57163299 24.01231813 -2.09420480
v -29.58011365 24.03517938 -0.36658904
v -28.52113733 25.41819879 9.09788858
v -37.62795539 6.64264422 9.09788858
v -28.00483846 6.64264422 8.79622043
v -28.00483846 26.00874462 4.81244504
v -28.06042590 25.94969132 4.81244504
v -30.34513829 22.93409565 -0.36658904
v -28.84335102 24.89813816 -0.36658904
v -28.79153304 24.87718352 -2.09420480
v -29.50379798 23.92659294 -3.05877714
v -33.04722479 18.90885868 -2.09420480
v -33.08113972 18.95267200 -0.36658904
v -29.56786609 24.03327277 1.35975566
v -28.94039233 24.84479954 8.26513443
v -28.93756716 24.83717826 9.09788858
v -37.62795539 6.64264422 8.96860223
v -37.47815438 7.39701915 9.09788858
v -29.56503835 6.64264422 -2.09420480
v -28.00483846 9.37058568 -0.18280363
v -28.00483846 25.95540599 3.08483185
v -28.04063941 25.91540074 3.08483185
v -29.55561596 24.02946213 3.08483185
v -28.00483846 25.89063545 1.35975566
v -28.00483846 25.87539548 0.96555927
v -28.00483846 25.82015282 -0.41855882
v -28.00483846 25.71347299 -2.09420480
v -28.00483846 25.35342825 -3.12088461
v -28.45047459 24.56476531 -3.22481903
v -29.81941960 22.93409565 -3.20327259
v -31.39563651 20.77955474 -3.15764272
v -32.95112520 18.77169890 -3.04863431
v -33.75948973 17.75443633 -2.09420480
v -33.88102616 17.75443633 -0.36658904
v -33.85370330 17.75443633 1.35975566
v -29.51416209 23.97421948 9.09788858
v -37.47438491 7.39701915 8.26513443
v -37.46590425 7.39701915 6.53878973
v -37.62418592 6.64264422 8.26513443
v -37.10788705 9.12293672 9.09788858
v -30.27636156 6.64264422 -3.40860959
v -29.26260858 7.84278650 -3.12595345
v -28.00483846 10.84885686 -2.17405579
v -28.00483846 24.59143462 -3.31734984
v -28.53432662 22.93409565 -3.55056804
v -31.98730418 17.75443633 -3.62662126
v -31.97788437 19.40034339 -3.28946349
v -33.24036311 17.75443633 -3.22355311
v -34.65641491 15.41130104 -3.05370830
v -34.42558961 16.54857938 -2.09420480
v -34.51320854 16.72574185 -0.36658904
v -34.51132509 16.73907779 1.35975566
v -34.49059687 16.71621654 3.08483185
v -34.40580312 16.62858733 9.09788858
v -37.10412015 9.12293672 8.26513443
v -37.45365670 7.39701915 4.81244504
v -37.08716140 9.12293672 4.81244504
v -37.60722717 6.64264422 6.53878973
v -36.92228509 9.95541684 9.09788858
v -31.98730418 6.64264422 -3.80660374
v -30.26128626 9.12293672 -3.75210211
v -29.05816186 9.12293672 -3.30594109
v -28.00483846 12.78051282 -3.26791705
v -28.00483846 12.13662707 -3.02201903
v -28.00483846 10.85838088 -2.18292755
v -28.00483846 22.93409565 -3.58986314
v -30.26128626 19.48035390 -3.67858589
v -31.98730418 16.03042279 -3.80153490
v -33.71332210 14.30259861 -3.65830538
v -33.79246293 16.00375090 -3.35030504
v -34.74968675 15.68752463 -2.09420480
v -34.84201943 14.30259861 -3.21468135
v -36.41352515 10.32117497 -3.07778659
v -35.57972122 14.30259861 8.26513443
v -35.59479652 14.30259861 9.09788858
v -34.81658002 15.86278306 -0.36658904
v -36.11203712 12.87385670 9.09788858
v -34.92304372 15.76562854 9.09788858
v -34.66395127 16.21329992 9.09788858
v -37.43010330 7.39701915 3.08483185
v -37.58555723 6.64264422 4.81244504
v -37.07302782 9.12293672 3.08483185
v -36.71218545 10.84885686 9.09788858
v -30.26128626 10.84885686 -3.84843070
v -33.71332210 6.64264422 -3.72675276
v -33.71332210 10.84885686 -3.77872254
v -31.98730418 10.84885686 -3.83829301
v -28.53432662 14.30259861 -3.73182160
v -28.00483846 14.30259861 -3.55943980
v -28.00483846 21.20817808 -3.68999465
v -28.53432662 21.20817808 -3.67731997
v -28.00483846 19.48035390 -3.73308752
v -28.00483846 17.75443633 -3.77491962
v -31.98730418 14.30259861 -3.84209593
v -33.71332210 12.57667847 -3.78379138
v -35.44028432 9.12293672 -3.57972031
v -36.57086253 9.12293672 -3.20707551
v -35.12089581 12.57667847 -3.33889628
v -36.50208580 10.58215858 -2.09420480
v -37.23413724 7.39701915 -2.09420480
v -36.92040164 9.12293672 -2.09420480
v -35.34606818 14.30259861 -0.36658904
v -35.39882788 14.30259861 1.35975566
v -35.45064843 14.30259861 3.08483185
v -36.10073128 12.83766208 8.26513443
v -36.40316104 12.01089792 9.09788858
v -37.40183872 7.39701915 1.35975566
v -37.04947443 9.12293672 1.35975566
v -37.37074896 7.39701915 -0.36658904
v -37.55352575 6.64264422 3.08483185
v -36.56238444 11.42797207 9.09788858
v -31.98730418 12.57667847 -3.84716477
v -30.26128626 12.57667847 -3.84970177
v -28.53432662 16.03042279 -3.80787481
v -35.44028432 6.64264422 -3.64563070
v -28.00483846 15.99232157 -3.71281215
v -30.26128626 14.30259861 -3.83829301
v -35.44028432 7.39701915 -3.64309885
v -36.70841598 7.39701915 -3.27932066
v -37.32081444 6.64264422 -2.09420480
v -37.01932640 9.12293672 -0.36658904
v -36.54825086 10.71741175 -0.36658904
v -35.92549086 12.57667847 -0.36658904
v -37.47532664 6.64264422 -0.36658904
v -36.07529187 12.75955817 6.53878973
v -36.39091349 11.97470330 8.26513443
v -36.57369027 10.79551566 1.35975566
v -37.51489706 6.64264422 1.35975566
v -36.74421950 6.64264422 -3.28185766
v -36.30046682 11.70419566 2.32813092
f 1 2 3
f 1 3 4
f 1 4 10
f 1 10 23
f 1 23 43
f 1 43 61
f 1 61 86
f 1 86 85
f 1 85 82
f 1 82 84
f 1 84 113
f 1 113 118
f 1 118 90
f 1 90 66
f 1 66 47
f 1 47 25
f 1 25 11
f 1 11 5
f 1 5 12
f 1 12 27
f 1 27 50
f 1 50 72
f 1 72 71
f 1 71 70
f 1 70 96
f 1 96 123
f 1 123 100
f 1 100 99
f 1 99 97
f 1 97 73
f 1 73 51
f 1 51 35
f 1 35 34
f 1 34 33
f 1 33 32
f 1 32 31
f 1 31 28
f 1 28 13
f 1 13 6
f 1 6 2
f 2 6 7
f 2 7 3
f 3 7 8
f 3 8 9
f 3 9 4
f 4 9 10
f 5 11 24
f 5 24 46
f 5 46 65
f 5 65 88
f 5 88 117
f 5 117 135
f 5 135 131
f 5 131 127
f 5 127 136
f 5 136 122
f 5 122 92
f 5 92 67
f 5 67 48
f 5 48 26
f 5 26 12
f 6 13 14
f 6 14 7
f 7 14 8
f 8 15 9
f 8 14 16
f 8 16 17
f 8 17 18
f 8 18 19
f 8 19 20
f 8 20 15
f 9 21 22
f 9 22 10
f 9 15 21
f 10 22 23
f 11 25 24
f 12 26 27
f 13 28 14
f 14 28 29
f 14 29 16
f 15 23 30
f 15 30 21
f 15 20 23
f 16 29 28
f 16 28 31
f 16 31 32
f 16 32 33
f 16 33 17
f 17 33 34
f 17 34 18
f 18 34 35
f 18 35 36
f 18 36 37
f 18 37 38
f 18 38 39
f 18 39 19
f 19 39 40
f 19 40 41
f 19 41 20
f 20 41 42
f 20 42 23
f 21 30 22
f 22 30 23
f 23 42 43
f 24 25 44
f 24 44 45
f 24 45 46
f 25 47 62
f 25 62 44
f 26 48 49
f 26 49 27
f 27 49 50
f 35 51 36
f 36 51 52
f 36 52 37
f 37 52 53
f 37 53 54
f 37 54 38
f 38 54 55
f 38 55 39
f 39 55 56
f 39 56 57
f 39 57 40
f 40 57 58
f 40 58 41
f 41 58 59
f 41 59 42
f 42 59 60
f 42 60 61
f 42 61 43
f 44 62 64
f 44 64 45
f 45 63 46
f 45 64 63
f 46 63 65
f 47 66 62
f 48 67 68
f 48 68 69
f 48 69 49
f 49 69 70
f 49 70 71
f 49 71 72
f 49 72 50
f 51 73 52
f 52 73 74
f 52 74 53
f 53 74 75
f 53 75 76
f 53 76 77
f 53 77 55
f 53 55 54
f 55 77 56
f 56 78 57
f 56 77 79
f 56 79 80
f 56 80 78
f 57 78 58
f 58 81 82
f 58 82 59
f 58 78 83
f 58 83 84
f 58 84 81
f 59 82 85
f 59 85 86
f 59 86 60
f 60 86 61
f 62 66 64
f 63 87 88
f 63 88 65
f 63 64 89
f 63 89 87
f 64 66 90
f 64 90 89
f 67 91 68
f 67 92 93
f 67 93 94
f 67 94 91
f 68 91 95
f 68 95 96
f 68 96 69
f 69 96 70
f 73 97 98
f 73 98 74
f 74 98 75
f 75 98 97
f 75 97 99
f 75 99 100
f 75 100 101
f 75 101 102
f 75 102 76
f 76 102 103
f 76 103 104
f 76 104 105
f 76 105 79
f 76 79 77
f 78 80 106
f 78 106 83
f 79 105 104
f 79 104 80
f 80 104 107
f 80 107 108
f 80 108 106
f 81 84 82
f 83 106 109
f 83 109 110
f 83 110 111
f 83 111 84
f 84 112 113
f 84 111 112
f 87 114 88
f 87 89 115
f 87 115 114
f 88 114 116
f 88 116 117
f 89 90 115
f 90 118 115
f 91 94 119
f 91 119 120
f 91 120 121
f 91 121 95
f 92 122 93
f 93 102 119
f 93 119 94
f 93 122 102
f 95 121 123
f 95 123 96
f 100 123 121
f 100 121 101
f 101 121 124
f 101 124 120
f 101 120 119
f 101 119 102
f 102 122 125
f 102 125 103
f 103 125 126
f 103 126 104
f 104 126 127
f 104 127 107
f 106 108 128
f 106 128 129
f 106 129 130
f 106 130 109
f 107 127 131
f 107 131 116
f 107 116 108
f 108 116 128
f 109 130 132
f 109 132 110
f 110 132 111
f 111 132 112
f 112 132 133
f 112 133 113
f 113 133 134
f 113 134 128
f 113 128 118
f 114 115 128
f 114 128 116
f 115 118 128
f 116 131 135
f 116 135 117
f 120 124 121
f 122 136 125
f 125 136 126
f 126 136 127
f 128 134 129
f 129 134 133
f 129 133 137
f 129 137 130
f 130 137 132
f 132 137 133

