# https://github.com/mikedh/trimesh
v -6.70093967 -40.61438151 -20.97267230
v -6.39447349 -40.62201565 -33.13960693
v -6.63964657 -40.61438151 -31.78653485
v -17.03977518 -40.61438151 -20.97267230
v -6.09676457 -53.03880302 -20.97267230
v -6.37805636 -40.99000072 -33.13960693
v -16.75082159 -40.61438151 -33.13960693
v -17.03211273 -40.61438151 -26.26942702
v -17.01679042 -40.95335325 -22.81528131
v -16.91390579 -42.68028201 -21.08820588
v -16.91390579 -42.68028201 -20.97267230
v -6.48422416 -54.77641753 -20.97267230
v -6.47765782 -54.76572922 -21.08820588
v -6.10770954 -54.76572922 -33.13960693
v -5.86363193 -53.07544792 -33.13960693
v -5.85925394 -53.03880302 -33.13960693
v -5.93039720 -51.34851915 -33.13960693
v -6.00373009 -49.62159039 -33.13960693
v -6.22920158 -44.40721078 -33.13960693
v -6.30253447 -42.71540111 -33.13960693
v -17.01679042 -40.61438151 -33.13960693
v -17.02554640 -40.61438151 -29.38292596
v -17.01131762 -40.95335325 -26.26942702
v -16.91062262 -42.68028201 -22.81528131
v -16.81320951 -44.29116775 -20.97267230
v -6.92641052 -55.65286406 -20.97267230
v -6.11646552 -54.78710584 -33.13960693
v -16.99818365 -40.91823415 -33.13960693
v -17.01788395 -40.61438151 -32.83588294
v -17.02116841 -40.61438151 -31.44827069
v -16.90296018 -42.68028201 -26.26942702
v -16.58883349 -47.86106832 -20.97267230
v -16.70485208 -46.01656814 -20.97267230
v -7.80312143 -56.01168662 -20.97267230
v -6.67138794 -55.82845699 -33.13960693
v -16.99599530 -40.95335325 -33.13960693
v -16.68186732 -46.13413955 -27.99411984
v -16.56146946 -47.86106832 -33.13960693
v -16.42465447 -49.58647129 -20.97267230
v -9.54012420 -56.21170776 -20.97267230
v -7.81406640 -56.01779496 -21.08820588
v -7.81406640 -56.15674299 -33.13960693
v -16.38306294 -49.54982639 -33.13960693
v -16.39291374 -49.58647129 -29.72119526
v -16.40604770 -49.58647129 -26.26942702
v -15.96057882 -51.27675516 -33.13960693
v -15.95620083 -51.31187425 -31.44827069
v -15.96933479 -51.31187425 -26.26942702
v -15.97699595 -51.31187425 -22.81528131
v -15.98027911 -51.31187425 -21.08820588
v -15.98027911 -51.31187425 -20.97267230
v -9.54012420 -56.21323614 -21.08820588
v -10.88310040 -55.87273860 -20.97267230
v -9.54012420 -56.21018454 -22.81528131
v -9.54012420 -56.19949623 -26.26942702
v -9.54012420 -56.18117121 -31.44827069
v -9.54012420 -56.17506287 -33.13960693
v -16.37868496 -49.58647129 -33.13960693
v -15.95072802 -51.31187425 -33.13960693
v -15.61689974 -52.22954309 -33.13960693
v -15.61689974 -52.22801471 -29.72119526
v -15.63988450 -52.16388486 -20.97267230
v -10.98051223 -55.84830524 -21.08820588
v -10.98598503 -55.84983361 -22.81528131
v -10.98926820 -55.84983361 -24.54235674
v -10.98926820 -55.84983361 -26.26942702
v -10.98379668 -55.84830524 -33.13960693
v -10.97941869 -55.84830524 -20.97267230
v -14.92625714 -53.09224457 -33.13960693
v -14.92625714 -53.09224457 -31.44827069
v -14.92625714 -53.08918783 -20.97267230
v -15.61580493 -52.22649149 -24.54235674
v -15.61471011 -52.22496312 -20.97267230
v -11.84299372 -55.51543926 -21.08820588
v -11.84846652 -55.51696764 -22.81528131
v -11.85175098 -55.51849601 -24.54235674
v -11.85175098 -55.51849601 -26.26942702
v -11.85065616 -55.51849601 -27.99411984
v -11.84846652 -55.51849601 -29.72119526
v -11.84627817 -55.51696764 -33.13960693
v -11.84190019 -55.51543926 -20.97267230
v -14.08019278 -54.07556906 -33.13960693
v -14.06268083 -54.09694568 -27.99411984
v -14.06268083 -54.09694568 -20.97267230
v -15.56764578 -52.28451301 -20.97267230
v -15.61471011 -52.22649149 -22.81528131
v -12.99224045 -54.84665573 -20.97267230
v -12.99224045 -54.84971247 -24.54235674
v -12.99224045 -54.84971247 -26.26942702
v -12.96925569 -54.86040078 -33.13960693
v -14.06268083 -54.09542245 -33.13960693
v -12.99224045 -54.84818410 -29.72119526
v -12.99224045 -54.84665573 -31.44827069
v -12.99224045 -54.84512735 -33.13960693
f 1 2 3
f 1 3 7
f 1 7 21
f 1 21 29
f 1 29 30
f 1 30 22
f 1 22 8
f 1 8 4
f 1 4 11
f 1 11 25
f 1 25 33
f 1 33 32
f 1 32 39
f 1 39 51
f 1 51 62
f 1 62 73
f 1 73 85
f 1 85 71
f 1 71 84
f 1 84 87
f 1 87 81
f 1 81 68
f 1 68 53
f 1 53 40
f 1 40 34
f 1 34 26
f 1 26 12
f 1 12 5
f 1 5 2
f 2 6 20
f 2 20 19
f 2 19 18
f 2 18 17
f 2 17 16
f 2 16 15
f 2 15 14
f 2 14 27
f 2 27 35
f 2 35 42
f 2 42 57
f 2 57 67
f 2 67 80
f 2 80 90
f 2 90 94
f 2 94 91
f 2 91 82
f 2 82 69
f 2 69 60
f 2 60 59
f 2 59 46
f 2 46 58
f 2 58 43
f 2 43 38
f 2 38 36
f 2 36 28
f 2 28 21
f 2 21 7
f 2 7 3
f 2 5 6
f 4 8 9
f 4 9 10
f 4 10 11
f 5 12 13
f 5 13 14
f 5 14 15
f 5 15 16
f 5 16 17
f 5 17 18
f 5 18 19
f 5 19 20
f 5 20 6
f 8 22 23
f 8 23 10
f 8 10 9
f 10 23 24
f 10 24 25
f 10 25 11
f 12 26 27
f 12 27 14
f 12 14 13
f 21 28 29
f 22 30 23
f 23 30 24
f 24 31 32
f 24 32 33
f 24 33 25
f 24 30 31
f 26 34 35
f 26 35 27
f 28 36 29
f 29 36 30
f 30 36 37
f 30 37 31
f 31 37 32
f 32 38 39
f 32 37 38
f 34 40 41
f 34 41 35
f 35 41 42
f 36 38 37
f 38 43 44
f 38 44 45
f 38 45 39
f 39 45 46
f 39 46 47
f 39 47 48
f 39 48 49
f 39 49 50
f 39 50 51
f 40 52 41
f 40 53 52
f 41 52 42
f 42 52 54
f 42 54 55
f 42 55 56
f 42 56 57
f 43 58 44
f 44 58 46
f 44 46 45
f 46 59 47
f 47 59 60
f 47 60 48
f 48 60 49
f 49 60 50
f 50 60 51
f 51 60 61
f 51 61 62
f 52 53 63
f 52 63 64
f 52 64 65
f 52 65 66
f 52 66 67
f 52 67 54
f 53 68 63
f 54 67 55
f 55 67 56
f 56 67 57
f 60 69 70
f 60 70 71
f 60 71 61
f 61 71 72
f 61 72 62
f 62 72 73
f 63 68 81
f 63 81 74
f 63 74 75
f 63 75 64
f 64 75 76
f 64 76 65
f 65 76 77
f 65 77 66
f 66 77 78
f 66 78 79
f 66 79 67
f 67 79 80
f 69 82 83
f 69 83 84
f 69 84 70
f 70 84 71
f 71 85 72
f 72 85 86
f 72 86 73
f 73 86 85
f 74 81 87
f 74 87 75
f 75 87 76
f 76 87 88
f 76 88 89
f 76 89 77
f 77 89 78
f 78 89 90
f 78 90 79
f 79 90 80
f 82 91 83
f 83 89 88
f 83 88 84
f 83 91 89
f 84 88 87
f 89 92 90
f 89 91 92
f 90 92 93
f 90 93 94
f 91 94 93
f 91 93 92

