# https://github.com/mikedh/trimesh
v -23.28591887 21.19595368 9.09915450
v -23.28591887 30.23497533 9.09915450
v -21.77087028 21.19595368 9.09915450
v -23.28591887 21.19595368 31.88002188
v -22.52839457 30.72974835 9.09915450
v -23.28591887 30.51030094 27.25957292
v -22.77145970 30.91973215 27.25957292
v -21.77087028 31.51204050 22.31075304
v -21.77087028 31.47546508 20.59671637
v -21.77087028 31.20217215 9.09915450
v -21.77087028 21.19595368 32.28058520
v -21.98472138 21.19595368 32.31086060
v -21.77087028 21.19900013 32.67649007
v -21.77087028 29.84179786 32.89074514
v -23.28591887 28.21828891 31.02998865
v -22.05664748 31.02437673 9.09915450
v -23.28591887 30.52757102 28.98525377
v -22.77843001 30.92176484 28.98525377
v -21.77087028 31.57401417 27.25957292
v -21.77087028 31.56283699 25.75047314
v -21.77087028 31.54048777 24.02944944
v -21.93845083 21.19595368 32.30620215
v -21.77087028 31.30071868 30.63641236
v -22.67521346 30.84455119 30.08913179
v -23.28591887 29.84586065 30.40818581
v -23.28591887 29.83569981 30.41517155
v -23.28591887 30.46966015 29.39280411
v -21.77087028 31.56791613 28.98525377
v -21.77087028 31.57401417 27.47382670
v -21.77087028 31.54861336 29.13662947
f 1 2 5
f 1 5 16
f 1 16 10
f 1 10 3
f 1 3 11
f 1 11 22
f 1 22 12
f 1 12 4
f 1 4 15
f 1 15 26
f 1 26 25
f 1 25 27
f 1 27 17
f 1 17 6
f 1 6 2
f 2 6 7
f 2 7 8
f 2 8 9
f 2 9 5
f 3 10 9
f 3 9 8
f 3 8 21
f 3 21 20
f 3 20 19
f 3 19 29
f 3 29 28
f 3 28 30
f 3 30 23
f 3 23 14
f 3 14 13
f 3 13 11
f 4 12 13
f 4 13 14
f 4 14 15
f 5 9 16
f 6 17 7
f 7 17 18
f 7 18 19
f 7 19 20
f 7 20 21
f 7 21 8
f 9 10 16
f 11 13 22
f 12 22 13
f 14 23 24
f 14 24 25
f 14 25 26
f 14 26 15
f 17 27 18
f 18 28 29
f 18 29 19
f 18 27 24
f 18 24 30
f 18 30 28
f 23 30 24
f 24 27 25

