# https://github.com/mikedh/trimesh
v -17.60395788 10.21344535 7.20143663
v -17.60395788 10.32999398 4.96178548
v -17.15769780 10.23261432 7.20143663
v -17.60395788 13.30813039 7.20143663
v -16.44589214 10.40283736 4.96178548
v -17.60395788 14.52882850 4.96178548
v -16.44589214 10.27861985 7.20143663
v -13.26010431 18.04600539 7.20143663
v -16.29689263 10.43580799 4.96178548
v -15.60795465 10.39133597 7.20143663
v -14.17696779 18.04600539 4.96178548
v -10.08759453 18.04600539 7.20143663
v -14.71985750 10.81689357 4.96178548
v -14.71985750 10.58992909 7.20143663
v -10.27790060 18.04600539 4.96178548
v -10.06915372 17.75539864 7.20143663
v -10.25503420 17.75539864 4.96178548
v -14.60110122 10.87133345 4.96178548
v -13.19814479 11.19491083 7.20143663
v -14.06042430 10.80155711 7.20143663
v -10.19749963 16.29546920 7.20143663
v -10.31404440 16.47335983 4.96178548
v -13.41279224 11.44334456 4.96178548
v -12.65525508 11.58749780 7.20143663
v -10.29855356 15.78019953 7.20143663
v -10.50656327 15.60997649 4.96178548
v -12.54903711 12.07746442 4.96178548
v -11.78412439 12.94084776 4.96178548
v -11.71404958 12.75375602 7.20143663
v -10.91446804 14.30799937 7.20143663
v -11.02437444 14.30186530 4.96178548
v -10.55082044 15.49726037 4.96178548
v -11.09075954 14.18071483 4.96178548
v -11.24271031 13.60640473 7.20143663
f 1 2 3
f 1 3 7
f 1 7 10
f 1 10 14
f 1 14 20
f 1 20 19
f 1 19 24
f 1 24 29
f 1 29 34
f 1 34 30
f 1 30 25
f 1 25 21
f 1 21 16
f 1 16 12
f 1 12 8
f 1 8 4
f 1 4 6
f 1 6 2
f 2 5 3
f 2 6 11
f 2 11 15
f 2 15 17
f 2 17 22
f 2 22 26
f 2 26 32
f 2 32 31
f 2 31 33
f 2 33 28
f 2 28 27
f 2 27 23
f 2 23 18
f 2 18 13
f 2 13 9
f 2 9 5
f 3 5 7
f 4 8 6
f 5 9 10
f 5 10 7
f 6 8 11
f 8 12 15
f 8 15 11
f 9 13 14
f 9 14 10
f 12 16 17
f 12 17 15
f 13 18 19
f 13 19 20
f 13 20 14
f 16 21 22
f 16 22 17
f 18 23 19
f 19 23 24
f 21 25 22
f 22 25 26
f 23 27 24
f 24 27 28
f 24 28 29
f 25 30 31
f 25 31 32
f 25 32 26
f 28 33 29
f 29 33 34
f 30 34 31
f 31 34 33

