# https://github.com/mikedh/trimesh
v 29.02058699 -10.76737683 -3.39921293
v 28.82229749 -10.76737683 -3.34467013
v 29.02058699 -9.87188097 -3.30278657
v 29.02058699 -10.76737683 6.55114536
v 28.98241372 -9.87188097 -3.28914959
v 28.26389378 -10.76737683 -2.15639460
v 29.02058699 -9.66193032 -3.25603487
v 29.02058699 -8.72075819 6.55114536
v 27.89636671 -10.76737683 6.55114536
v 29.02058699 -8.86459848 -2.09405556
v 27.98256532 -10.76737683 -0.36716025
v 29.02058699 -8.82994060 -0.36716025
v 27.77868209 -10.76737683 1.35973764
v 27.78014099 -10.76737683 1.52434379
v 27.80178005 -10.76737683 3.26000795
v 27.83193323 -10.76737683 5.01710018
v 27.86244663 -10.76216808 6.55114536
v 27.86111124 -10.76737683 6.53848355
f 1 2 3
f 1 3 7
f 1 7 10
f 1 10 12
f 1 12 8
f 1 8 4
f 1 4 9
f 1 9 18
f 1 18 16
f 1 16 15
f 1 15 14
f 1 14 13
f 1 13 11
f 1 11 6
f 1 6 2
f 2 5 3
f 2 6 5
f 3 5 7
f 4 8 17
f 4 17 9
f 5 6 7
f 6 10 7
f 6 11 10
f 8 12 13
f 8 13 14
f 8 14 15
f 8 15 16
f 8 16 17
f 9 17 18
f 10 11 13
f 10 13 12
f 16 18 17

