# https://github.com/mikedh/trimesh
v 18.41181957 10.25942386 6.39150514
v 18.41181957 10.26789552 5.10848343
v 24.23452454 10.65756082 6.39150514
v 18.41181957 13.38261407 6.39150514
v 18.41181957 10.27180393 4.81251709
v 24.23452454 16.91567162 6.39150514
v 18.41181957 10.29526212 3.08592024
v 18.41181957 10.33110166 1.35932082
v 19.81505903 10.49530899 1.35932082
v 24.23452454 11.58611223 0.25820622
v 21.81960724 16.91567162 6.39150514
v 18.41181957 15.66913271 4.24443883
v 24.23452454 16.91567162 -1.22461278
v 19.81505903 11.11043356 -0.14809879
v 18.41181957 11.03093636 -0.17120962
v 21.54089683 11.33589154 -0.03925505
v 24.23452454 12.57591686 -0.42319025
v 19.94558042 16.91567162 4.34657471
v 18.41181957 15.89850167 3.86870384
v 24.23452454 14.26490135 -0.94653662
v 18.41181957 12.57591686 -0.84365713
v 18.41181957 14.30204284 -0.72884915
v 21.54089683 16.91567162 -0.80489207
v 19.81505903 12.57591686 -0.82054630
v 21.54089683 12.57591686 -0.71244874
v 19.23598113 16.91567162 3.08592024
v 18.41181957 16.26601331 3.08592024
v 19.89713439 16.91567162 -0.17940725
v 18.41181957 15.72191299 -0.07802011
v 19.20463278 16.91567162 1.35932082
v 18.41181957 16.31683810 1.35932082
v 19.56598719 16.91567162 0.54224406
f 1 2 3
f 1 3 6
f 1 6 11
f 1 11 4
f 1 4 12
f 1 12 19
f 1 19 27
f 1 27 31
f 1 31 29
f 1 29 22
f 1 22 21
f 1 21 15
f 1 15 8
f 1 8 7
f 1 7 5
f 1 5 2
f 2 5 3
f 3 5 7
f 3 7 8
f 3 8 9
f 3 9 10
f 3 10 17
f 3 17 20
f 3 20 13
f 3 13 6
f 4 11 12
f 6 13 23
f 6 23 28
f 6 28 32
f 6 32 30
f 6 30 26
f 6 26 18
f 6 18 11
f 8 14 9
f 8 15 14
f 9 14 10
f 10 14 16
f 10 16 17
f 11 18 12
f 12 18 19
f 13 20 21
f 13 21 22
f 13 22 23
f 14 15 24
f 14 24 25
f 14 25 17
f 14 17 16
f 15 21 24
f 17 25 20
f 18 26 27
f 18 27 19
f 20 25 24
f 20 24 21
f 22 28 23
f 22 29 28
f 26 30 31
f 26 31 27
f 28 29 31
f 28 31 32
f 30 32 31

