# https://github.com/mikedh/trimesh
v -18.36906615 23.60571980 -1.99750056
v -18.36906615 19.76828472 -0.07783486
v -18.36906615 23.60571980 4.96110620
v -14.71920910 23.60571980 -0.71477475
v -12.99372251 21.20907092 -0.72022440
v -12.99372251 19.48245863 -0.84965226
v -12.99372251 18.84226388 -0.84965226
v -14.08011173 18.84226388 -0.76450086
v -14.71920910 18.84226388 -0.65278049
v -18.36906615 19.18544250 1.35952408
v -15.74585417 18.84226388 -0.28833332
v -16.17899445 18.84226388 -0.02947244
v -18.36906615 20.82019810 4.96110620
v -12.38528263 23.60571980 4.96110620
v -13.63360721 23.60571980 -0.32648086
v -12.93633781 22.92775831 -0.18683297
v -11.61962117 21.20907092 -0.04786436
v -11.32719272 19.48245863 -0.17661295
v -12.23592289 18.84226388 -0.55196457
v -18.36906615 19.27076886 2.68721078
v -16.53981496 18.84226388 1.09317058
v -16.59798571 18.84226388 1.35952408
v -16.52802282 18.84226388 2.67971816
v -16.49422111 18.84226388 3.08572212
v -18.36906615 20.74419635 4.90456417
v -14.44800546 18.84226388 4.96110620
v -11.84366013 22.70161334 4.96110620
v -11.81850504 22.57711795 3.08572212
v -12.38921291 23.60571980 4.81260200
v -13.17767001 23.60571980 -0.05331401
v -11.95450052 22.34724724 0.21985284
v -11.08900474 21.20907092 1.35952408
v -10.44204553 18.84226388 0.94875233
v -10.70460254 18.84226388 0.43920247
v -11.23600502 18.84226388 -0.14800101
v -18.36906615 19.27449974 2.74511394
v -16.07994619 18.84226388 4.15659091
v -18.36906615 19.29827955 3.08572212
v -18.36906615 19.87552804 4.25809126
v -10.33828093 18.84226388 4.96110620
v -11.79963839 22.62701131 4.96110620
v -11.80121051 22.62421186 4.81260200
v -11.84759041 22.51697112 1.35952408
v -12.45603157 23.60571980 3.08572212
v -12.60067368 23.60571980 1.14766707
v -12.53699925 23.60571980 1.35952408
v -11.05677514 21.20907092 3.08572212
v -10.50493391 19.79532712 4.81260200
v -10.50571996 19.67735947 3.08572212
v -10.49235636 19.35936296 1.32682619
v -10.41453227 18.84226388 1.76076024
v -18.36906615 19.73657744 4.02171082
v -10.34063910 18.84226388 4.81260200
v -10.34456938 18.93924858 4.96110620
v -11.03790850 21.20907092 4.96110620
v -11.03869456 21.20907092 4.81260200
v -10.99310071 21.09390014 4.96110620
v -10.50493391 19.80232315 4.96110620
v -10.36736631 18.84226388 3.50466835
v -10.37837238 18.84226388 3.08572212
f 1 2 10
f 1 10 20
f 1 20 36
f 1 36 38
f 1 38 52
f 1 52 39
f 1 39 25
f 1 25 13
f 1 13 3
f 1 3 14
f 1 14 29
f 1 29 44
f 1 44 46
f 1 46 45
f 1 45 30
f 1 30 15
f 1 15 4
f 1 4 5
f 1 5 6
f 1 6 7
f 1 7 8
f 1 8 9
f 1 9 2
f 2 9 11
f 2 11 12
f 2 12 10
f 3 13 26
f 3 26 40
f 3 40 54
f 3 54 58
f 3 58 57
f 3 57 55
f 3 55 41
f 3 41 27
f 3 27 14
f 4 15 5
f 5 15 16
f 5 16 17
f 5 17 18
f 5 18 6
f 6 18 19
f 6 19 7
f 7 19 35
f 7 35 34
f 7 34 33
f 7 33 51
f 7 51 60
f 7 60 59
f 7 59 53
f 7 53 40
f 7 40 26
f 7 26 37
f 7 37 24
f 7 24 23
f 7 23 22
f 7 22 21
f 7 21 12
f 7 12 11
f 7 11 9
f 7 9 8
f 10 12 21
f 10 21 22
f 10 22 23
f 10 23 24
f 10 24 20
f 13 25 26
f 14 27 28
f 14 28 29
f 15 30 16
f 16 31 17
f 16 30 31
f 17 32 33
f 17 33 34
f 17 34 18
f 17 31 32
f 18 34 35
f 18 35 19
f 20 24 36
f 24 37 38
f 24 38 36
f 25 39 26
f 26 39 37
f 27 41 42
f 27 42 28
f 28 42 32
f 28 32 43
f 28 43 29
f 29 43 44
f 30 45 31
f 31 45 46
f 31 46 43
f 31 43 32
f 32 42 41
f 32 41 47
f 32 47 48
f 32 48 49
f 32 49 50
f 32 50 33
f 33 50 51
f 37 39 52
f 37 52 38
f 40 53 54
f 41 55 56
f 41 56 47
f 43 46 44
f 47 56 57
f 47 57 58
f 47 58 48
f 48 58 54
f 48 54 49
f 49 54 50
f 50 54 59
f 50 59 60
f 50 60 51
f 53 59 54
f 55 57 56

