# https://github.com/mikedh/trimesh
v -24.57894447 -20.69161161 29.33998909
v -5.02975466 -20.69161161 29.33998909
v -24.57894447 -20.69161161 32.82143708
v -24.57894447 1.48220983 29.33998909
v -5.02975466 -20.69161161 37.02429837
v -5.02975466 1.48220983 29.33998909
v -21.20496236 -20.69161161 37.02429837
v -24.57894447 -19.96449522 35.89290323
v -24.57894447 1.48220983 37.02429837
v -5.02975466 1.48220983 37.02429837
v -24.57894447 -18.27584650 37.02429837
v -24.57894447 -19.22869554 36.87309507
v -24.57894447 -19.51737188 36.82419811
v -24.57894447 -19.80604887 36.37133888
f 1 2 5
f 1 5 7
f 1 7 3
f 1 3 8
f 1 8 14
f 1 14 13
f 1 13 12
f 1 12 11
f 1 11 9
f 1 9 4
f 1 4 6
f 1 6 2
f 2 6 10
f 2 10 5
f 3 7 8
f 4 9 10
f 4 10 6
f 5 10 9
f 5 9 11
f 5 11 7
f 7 11 12
f 7 12 13
f 7 13 14
f 7 14 8

