# https://github.com/mikedh/trimesh
v -21.62546655 24.66272776 -3.78077066
v -19.89996324 24.66272776 -3.65923681
v -23.35228468 23.60571980 -3.76707707
v -23.35228468 24.66272776 -3.73455414
v -23.35228468 26.38886918 -3.68063401
v -18.17445992 28.11549433 -3.76279557
v -16.44764179 28.53424501 -3.72428266
v -16.44764179 28.11549433 -3.71058907
v -18.17445992 26.38886918 -3.70631272
v -19.89996324 23.60571980 -3.32887696
v -21.53077441 23.60571980 -3.61131181
v -16.51602999 26.45544598 -3.31604275
v -18.29545601 24.74377777 -3.27153472
v -24.02302114 23.60571980 -3.74739349
v -25.07910281 24.66272776 -3.68320188
v -25.07910281 26.38886918 -3.57878888
v -21.62546655 28.11549433 -3.66608618
v -18.17445992 28.53424501 -3.74910198
v -14.78658096 28.53424501 -3.38793283
v -14.80236384 28.20715547 -3.31090701
v -19.22133534 23.60571980 -3.09608588
v -17.13810557 25.37383227 -3.10977947
v -14.20790573 28.53424501 -3.20135827
v -15.43364438 27.07537051 -3.11491521
v -25.07910281 23.60571980 -3.71401633
v -25.82085966 23.60571980 -3.66608618
v -25.82085966 24.66272776 -3.63270901
v -25.00019355 28.05229591 -3.24329329
v -23.35228468 28.11549433 -3.55568320
v -25.82085966 26.35365231 -3.43072723
v -21.65702974 28.53424501 -3.59675883
v -19.89996324 28.53424501 -3.69689548
v -18.95041087 23.72295157 -3.03874364
v -13.63317623 23.60571980 -0.32654261
v -13.70682625 28.53424501 -2.09388060
v -12.60076888 23.60571980 1.14723995
v -13.17812801 23.60571980 -0.05352500
v -25.82085966 23.60571980 4.96178291
v -24.71217010 28.53424501 -3.16369960
v -23.35228468 28.53424501 -3.44698870
v -25.82085966 27.59880951 -3.13374455
v -13.38460999 28.53424501 -0.36676400
v -12.53763993 23.60571980 1.35863639
v -25.82085966 28.23320726 4.96178291
v -12.38508065 23.60571980 4.96178291
v -25.22771766 28.53424501 -2.09388060
v -25.82085966 27.97124589 -2.09388060
v -25.34871375 28.42762694 -2.09388060
v -13.17023657 28.53424501 1.03854802
v -12.45609976 23.60571980 3.08575042
v -25.49732860 28.53424501 4.96178291
v -25.43682926 28.53424501 2.87007505
v -25.82085966 28.20088502 3.77471412
v -12.38902508 23.60571980 4.81201020
v -13.12289050 28.53424501 2.69975938
v -13.09264212 28.53424501 4.37381266
v -13.08869640 28.53424501 4.96178291
v -25.39474501 28.48166028 -0.36676400
v -25.33424825 28.53424501 -0.36676400
v -25.82085966 28.02334947 -1.23117912
v -25.82085966 28.07255841 -0.36676400
v -13.16103032 28.53424501 1.35863639
v -25.41710195 28.51060671 1.35863639
v -25.38948319 28.53424501 1.35863639
v -25.82085966 28.15167609 2.09894979
v -25.82085966 28.10005624 0.42233378
f 1 2 3
f 1 3 4
f 1 4 5
f 1 5 6
f 1 6 7
f 1 7 8
f 1 8 9
f 1 9 2
f 2 10 11
f 2 11 3
f 2 9 12
f 2 12 13
f 2 13 10
f 3 14 4
f 3 11 10
f 3 10 21
f 3 21 34
f 3 34 37
f 3 37 36
f 3 36 43
f 3 43 50
f 3 50 54
f 3 54 45
f 3 45 38
f 3 38 26
f 3 26 25
f 3 25 14
f 4 14 15
f 4 15 5
f 5 15 16
f 5 16 17
f 5 17 18
f 5 18 6
f 6 18 7
f 7 18 32
f 7 32 31
f 7 31 40
f 7 40 39
f 7 39 46
f 7 46 59
f 7 59 64
f 7 64 52
f 7 52 51
f 7 51 57
f 7 57 56
f 7 56 55
f 7 55 62
f 7 62 49
f 7 49 42
f 7 42 35
f 7 35 23
f 7 23 19
f 7 19 8
f 8 19 20
f 8 20 12
f 8 12 9
f 10 13 21
f 12 22 13
f 12 20 23
f 12 23 24
f 12 24 22
f 13 22 21
f 14 25 15
f 15 25 26
f 15 26 27
f 15 27 16
f 16 28 29
f 16 29 17
f 16 27 30
f 16 30 28
f 17 29 31
f 17 31 32
f 17 32 18
f 19 23 20
f 21 33 34
f 21 22 33
f 22 24 34
f 22 34 33
f 23 35 36
f 23 36 37
f 23 37 34
f 23 34 24
f 26 38 44
f 26 44 53
f 26 53 65
f 26 65 66
f 26 66 61
f 26 61 60
f 26 60 47
f 26 47 41
f 26 41 30
f 26 30 27
f 28 39 40
f 28 40 29
f 28 30 41
f 28 41 39
f 29 40 31
f 35 42 43
f 35 43 36
f 38 45 57
f 38 57 51
f 38 51 44
f 39 41 46
f 41 47 48
f 41 48 46
f 42 49 43
f 43 49 50
f 44 51 52
f 44 52 53
f 45 54 55
f 45 55 56
f 45 56 57
f 46 48 58
f 46 58 59
f 47 60 48
f 48 60 61
f 48 61 58
f 49 62 54
f 49 54 50
f 52 63 53
f 52 64 63
f 53 63 58
f 53 58 65
f 54 62 55
f 58 61 66
f 58 66 65
f 58 63 59
f 59 63 64

