# https://github.com/mikedh/trimesh
v -0.03980512 36.37959038 37.00419797
v -0.03980512 21.19762357 37.00419797
v -0.03980512 36.54191683 36.63817740
v -0.90768608 36.35616049 37.00419797
v -21.01147411 21.19762357 37.00419797
v -0.03980512 21.19762357 9.65364980
v -0.03980512 36.86992494 35.89247611
v -0.90768608 36.84649506 35.89247611
v -2.63494034 36.77787786 35.89247611
v -2.63494034 36.25909602 37.00419797
v -21.20291810 28.17610688 37.00419797
v -21.40925342 28.11585970 35.89247611
v -21.77087028 21.19929860 32.67749612
v -21.77087028 21.19762357 32.28142786
v -10.27782534 21.19762357 9.09915450
v -0.03980512 32.92883590 9.09915450
v -0.03980512 37.41548159 34.29727806
v -0.90768608 37.41046421 34.29181554
v -2.69875500 37.43054402 34.03505425
v -4.36006671 37.25817252 34.16616615
v -4.36006671 36.63730369 35.89247611
v -4.18776660 36.13358429 37.00419797
v -21.01572859 29.39775957 37.00419797
v -21.57517180 29.84123437 34.16616615
v -21.77087028 29.84123437 32.89055345
v -21.77087028 21.19762357 9.09915450
v -0.03980512 37.90581616 9.09915450
v -0.03980512 37.64642524 33.43412308
v -0.90768608 37.64475278 33.42592802
v -2.16909188 37.63136280 33.37402964
v -3.31988563 37.60291553 33.25657531
v -4.36006671 37.54601585 32.96157256
v -6.08732096 37.01551650 34.16616615
v -6.08732096 36.40636518 35.89247611
v -7.02327107 35.89762326 36.78021562
v -6.08732096 35.95954032 36.91679003
v -4.36006671 36.11852185 37.00419797
v -20.83066568 29.62033320 37.00419797
v -20.87959030 30.80851610 35.21506396
v -21.16037585 29.86131676 35.83238331
v -21.06890769 30.99594747 34.16616615
v -21.77087028 31.30052570 30.63706333
v -21.77087028 31.20178877 9.09915450
v -1.73940588 37.84054902 9.09915450
v -0.90768608 38.24720910 15.17401765
v -0.03980512 38.25390409 15.17401765
v -0.03980512 37.88406388 32.43985491
v -0.90768608 37.89075372 32.43985491
v -2.69875500 37.78197688 32.58462567
v -4.36006671 37.71169237 32.09841822
v -6.04903190 37.43891147 32.36610454
v -5.44917240 37.64475278 31.74059013
v -7.81457457 37.13266078 32.43985491
v -7.81457457 36.72432824 34.16616615
v -7.68481800 36.12354438 35.93891262
v -8.17619207 35.80223125 36.54530566
v -7.92944109 35.60810747 37.00419797
v -7.24024131 35.73863658 37.00419797
v -6.08732096 35.91770308 37.00419797
v -5.37259493 36.00137757 37.00419797
v -20.22229785 30.19768975 37.00419797
v -20.42863317 30.44871579 36.36775853
v -19.35016240 30.84700585 37.00419797
v -19.29910990 30.88215068 37.00419797
v -19.87131656 31.14656412 35.83238331
v -18.83964381 32.32135705 34.66329992
v -19.78835737 31.90632952 34.11973093
v -20.23931578 32.10213091 32.43985491
v -20.48181228 32.25609249 30.71081369
v -21.77087028 31.54820167 29.13746698
v -21.77087028 31.47456709 20.59605510
v -20.60093264 32.31968459 18.62664013
v -20.57115255 32.28956228 16.90032889
v -19.67561809 32.87528628 15.17401765
v -21.62622302 31.29215825 9.09915450
v -2.63494034 37.79703932 9.09915450
v -0.90768608 38.27231145 16.90032889
v -3.36668301 37.75017955 9.09915450
v -4.13246090 37.68323995 9.09915450
v -4.99608738 37.58618063 9.09915450
v -2.63494034 38.11165746 18.62664013
v -2.63494034 38.14010473 20.35568135
v -0.03980512 38.26562161 16.03444201
v -0.03980512 38.03132789 31.57123806
v -0.90768608 38.18361958 30.71081369
v -2.63494034 38.09659502 30.71081369
v -4.36006671 37.93594103 30.71081369
v -6.59996615 37.56107829 31.14239086
v -6.04903190 37.72005982 30.62613702
v -7.68269012 37.40711414 30.62613702
v -9.54182818 36.97535171 30.71081369
v -9.54182818 36.73771822 32.43985491
v -9.65882195 36.23733860 34.28362049
v -9.16106680 36.02313499 35.39534235
v -9.65882195 35.65831216 35.93891262
v -9.65669470 35.11777290 37.00419797
v -8.73350740 35.39892124 37.00419797
v -19.23742312 30.92064043 37.00419797
v -18.22702150 32.07702599 35.97988405
v -17.68885070 32.63262769 35.46089894
v -16.37639240 33.74550355 34.15523984
v -15.75313581 34.24922552 33.57069814
v -18.22702150 32.80667166 34.11973093
v -19.13744729 32.49205352 33.51333660
v -19.37568801 32.63430273 32.43985491
v -19.61818450 32.76818191 30.71081369
v -20.54349905 32.30629718 28.98450245
v -21.62622302 31.66032601 28.98450245
v -21.77087028 31.56828407 28.98450245
v -21.77087028 31.51138438 22.31417000
v -20.62220376 32.34143944 20.35568135
v -19.70752478 32.87528628 16.90032889
v -18.17171580 33.70701380 15.17401765
v -16.29981557 34.56551612 9.09915450
v -16.74651822 34.31616511 9.09915450
v -17.16131417 34.07016160 9.09915450
v -18.17171580 33.44427281 9.09915450
v -18.76732147 33.07443260 9.09915450
v -0.03980512 38.27900644 17.76075326
v -2.63494034 38.16520707 22.08199259
v -2.63494034 38.18194197 23.80557129
v -0.90768608 38.28402897 18.62664013
v -0.03980512 38.28570143 18.62664013
v -5.51511430 37.49581116 9.09915450
v -7.01263551 37.62634027 25.53188254
v -6.08732096 37.77695950 25.53188254
v -6.08732096 37.81377422 27.25819249
v -4.36006671 37.98949064 23.80557129
v -4.36006671 38.01794306 25.53188254
v -0.03980512 38.17692459 30.71081369
v -0.03980512 38.22712928 29.84492682
v -0.03980512 38.26729407 28.98450245
v -0.90768608 38.26394400 28.98450245
v -2.63494034 38.18529204 28.98450245
v -4.36006671 38.05810270 28.98450245
v -7.01901659 37.62801788 29.99242755
v -6.08732096 37.82883665 28.98450245
v -9.54182818 37.03559632 28.98450245
v -11.26482795 36.49505706 30.71081369
v -11.34991374 36.18880637 32.49448519
v -10.83088683 36.02145739 33.78648672
v -12.37733201 35.97627522 31.95364746
v -10.31185991 35.85913093 34.93645004
v -11.26482795 35.16629999 35.89247611
v -10.92448222 34.72282519 37.00419797
v -17.55271241 31.91135205 37.00419797
v -17.16344206 32.35817434 36.61359351
v -14.21307106 34.32620502 35.39534235
v -15.36386418 34.05510173 34.72339271
v -16.52954862 32.95896077 35.97988405
v -14.71933517 34.98723864 32.43985491
v -16.02541111 34.38143224 32.43985491
v -16.88903759 33.94130237 32.43985491
v -18.17171580 33.28027133 32.43985491
v -14.75975083 34.52367888 34.15523984
v -18.17171580 33.55137719 30.71081369
v -18.17171580 33.62166428 28.98450245
v -19.68199917 32.79495672 28.98450245
v -19.75645068 32.84181649 22.08199259
v -20.60093264 32.33641948 23.80557129
v -20.61795057 32.34478693 22.08199259
v -21.77087028 31.57497906 27.47398108
v -21.77087028 31.53983423 24.02955493
v -21.77087028 31.56326411 25.75040238
v -19.76070388 32.85352886 20.35568135
v -19.73730487 32.86524380 18.62664013
v -18.17171580 33.72040120 16.90032889
v -17.32510596 34.16722349 20.35568135
v -14.71933517 35.36042892 9.09915450
v -15.47660346 34.98054365 9.09915450
v -4.36006671 38.04304541 27.25819249
v -2.63494034 38.18529204 25.53188254
v -0.90768608 38.28570143 20.35568135
v -0.03980512 38.29239641 22.08199259
v -0.03980512 38.29072395 20.35568135
v -6.08732096 37.39540177 9.09915450
v -9.54182818 36.97702417 16.90032889
v -9.54182818 37.02890647 20.35568135
v -7.06156013 37.63805779 27.25819249
v -9.54182818 37.00547659 18.62664013
v -0.03980512 38.27231145 28.11861557
v -0.03980512 38.27900644 26.39230562
v -0.03980512 38.28737389 23.80557129
v -7.05730564 37.63805779 28.98450245
v -7.92093213 37.42887156 28.98450245
v -11.26482795 36.55195674 28.98450245
v -9.54182818 37.03894638 27.25819249
v -11.26482795 36.58040915 20.35568135
v -11.26482795 36.57538662 22.08199259
v -11.26482795 36.57036410 23.80557129
v -11.26482795 36.55865173 27.25819249
v -12.60919294 36.04990980 30.71081369
v -12.72405882 36.08170714 28.98450245
v -13.58768659 35.79720872 28.98450245
v -11.98168058 35.83905112 33.10634267
v -11.34991374 35.72357414 34.28362049
v -13.47281942 35.75202656 30.71081369
v -12.96868320 35.65161717 32.49448519
v -12.99208092 35.22822220 34.16616615
v -12.99846329 34.55213129 35.93891262
v -12.42838451 34.26763288 36.94410517
v -12.23055816 34.30110268 37.00419797
v -16.93158241 32.25274499 37.00419797
v -14.75975083 33.81244314 35.93891262
v -16.30832325 32.56401564 37.00419797
v -16.07220913 32.67446494 37.00419797
v -13.57917763 34.05677419 36.54530566
v -14.71933517 35.25332454 30.71081369
v -16.28705213 34.52367888 30.71081369
v -17.15067990 34.07852905 30.71081369
v -16.37639240 34.58057856 28.98450245
v -17.24002017 34.12204133 28.98450245
v -18.19086033 33.70533877 22.08199259
v -18.18873244 33.71705371 20.35568135
v -17.32723256 34.16722349 22.08199259
v -14.71933517 35.36210138 9.99508649
v -14.14712980 35.59974002 9.09915450
v -7.81457457 37.08915108 9.09915450
v -9.54182818 36.77286048 9.09915450
v -11.26482795 36.54861182 15.17401765
v -9.54182818 37.04229131 22.08199259
v -11.26482795 36.57538662 16.90032889
v -7.92518661 37.43054402 27.25819249
v -9.54182818 37.04229131 23.80557129
v -12.73895015 36.08672452 27.25819249
v -11.26482795 36.58375407 18.62664013
v -12.74533123 36.09007458 25.53188254
v -14.71933517 35.35708400 28.98450245
v -13.60257664 35.80055879 27.25819249
v -13.31753660 33.90113759 37.00419797
v -12.48156361 34.21408326 37.00419797
v -15.87012829 32.76818191 37.00419797
v -14.05566165 33.60158188 37.00419797
v -16.39766352 34.58392348 27.25819249
v -17.31447040 34.16052850 23.12269534
v -17.28256242 34.14546864 25.53188254
v -14.71933517 35.36210138 27.25819249
v -13.58343211 35.81729369 9.09915450
v -13.60895772 35.80223125 25.53188254
v -11.26482795 36.38795783 9.09915450
v -11.95402709 36.21893124 9.09915450
v -12.73469567 36.09509197 23.80557129
f 1 2 6
f 1 6 16
f 1 16 27
f 1 27 46
f 1 46 83
f 1 83 119
f 1 119 123
f 1 123 175
f 1 175 174
f 1 174 183
f 1 183 182
f 1 182 181
f 1 181 132
f 1 132 131
f 1 131 130
f 1 130 84
f 1 84 47
f 1 47 28
f 1 28 17
f 1 17 7
f 1 7 3
f 1 3 4
f 1 4 10
f 1 10 22
f 1 22 37
f 1 37 60
f 1 60 59
f 1 59 58
f 1 58 57
f 1 57 97
f 1 97 96
f 1 96 145
f 1 145 202
f 1 202 231
f 1 231 230
f 1 230 233
f 1 233 232
f 1 232 206
f 1 206 205
f 1 205 203
f 1 203 146
f 1 146 98
f 1 98 64
f 1 64 63
f 1 63 61
f 1 61 38
f 1 38 23
f 1 23 11
f 1 11 5
f 1 5 2
f 2 5 14
f 2 14 26
f 2 26 15
f 2 15 6
f 3 7 8
f 3 8 4
f 4 8 9
f 4 9 10
f 5 11 12
f 5 12 13
f 5 13 14
f 6 15 16
f 7 17 18
f 7 18 8
f 8 18 19
f 8 19 9
f 9 19 20
f 9 20 21
f 9 21 22
f 9 22 10
f 11 23 24
f 11 24 12
f 12 24 25
f 12 25 13
f 13 25 42
f 13 42 70
f 13 70 109
f 13 109 162
f 13 162 164
f 13 164 163
f 13 163 110
f 13 110 71
f 13 71 43
f 13 43 26
f 13 26 14
f 15 26 43
f 15 43 75
f 15 75 118
f 15 118 117
f 15 117 116
f 15 116 115
f 15 115 114
f 15 114 170
f 15 170 169
f 15 169 217
f 15 217 238
f 15 238 241
f 15 241 240
f 15 240 219
f 15 219 218
f 15 218 176
f 15 176 124
f 15 124 80
f 15 80 79
f 15 79 78
f 15 78 76
f 15 76 44
f 15 44 27
f 15 27 16
f 17 28 29
f 17 29 18
f 18 29 30
f 18 30 19
f 19 30 31
f 19 31 20
f 20 31 32
f 20 32 33
f 20 33 34
f 20 34 21
f 21 34 35
f 21 35 36
f 21 36 37
f 21 37 22
f 23 38 39
f 23 39 40
f 23 40 24
f 24 40 41
f 24 41 42
f 24 42 25
f 27 44 45
f 27 45 46
f 28 47 48
f 28 48 29
f 29 48 30
f 30 48 49
f 30 49 31
f 31 49 50
f 31 50 32
f 32 51 33
f 32 50 52
f 32 52 51
f 33 51 53
f 33 53 54
f 33 54 55
f 33 55 34
f 34 55 56
f 34 56 35
f 35 56 57
f 35 57 58
f 35 58 59
f 35 59 36
f 36 59 60
f 36 60 37
f 38 61 62
f 38 62 39
f 39 62 63
f 39 63 64
f 39 64 65
f 39 65 66
f 39 66 67
f 39 67 41
f 39 41 40
f 41 67 68
f 41 68 42
f 42 68 69
f 42 69 70
f 43 71 72
f 43 72 73
f 43 73 74
f 43 74 75
f 44 76 45
f 45 77 46
f 45 76 78
f 45 78 79
f 45 79 80
f 45 80 81
f 45 81 82
f 45 82 120
f 45 120 77
f 46 77 83
f 47 84 48
f 48 84 85
f 48 85 49
f 49 85 86
f 49 86 50
f 50 86 87
f 50 87 52
f 51 52 88
f 51 88 53
f 52 87 89
f 52 89 88
f 53 88 90
f 53 90 91
f 53 91 92
f 53 92 54
f 54 93 94
f 54 94 55
f 54 92 93
f 55 94 56
f 56 94 95
f 56 95 96
f 56 96 97
f 56 97 57
f 61 63 62
f 64 98 65
f 65 98 99
f 65 99 66
f 66 99 100
f 66 100 101
f 66 101 102
f 66 102 103
f 66 103 104
f 66 104 67
f 67 104 68
f 68 104 105
f 68 105 69
f 69 106 107
f 69 107 108
f 69 108 109
f 69 109 70
f 69 105 106
f 71 110 111
f 71 111 72
f 72 74 73
f 72 111 74
f 74 111 112
f 74 112 113
f 74 113 114
f 74 114 115
f 74 115 116
f 74 116 117
f 74 117 118
f 74 118 75
f 77 119 83
f 77 120 121
f 77 121 122
f 77 122 123
f 77 123 119
f 80 124 125
f 80 125 126
f 80 126 127
f 80 127 128
f 80 128 81
f 81 128 129
f 81 129 82
f 82 129 171
f 82 171 120
f 84 130 85
f 85 130 131
f 85 131 132
f 85 132 133
f 85 133 134
f 85 134 86
f 86 134 135
f 86 135 87
f 87 135 89
f 88 89 136
f 88 136 90
f 89 135 137
f 89 137 136
f 90 136 91
f 91 136 138
f 91 138 139
f 91 139 92
f 92 140 141
f 92 141 93
f 92 139 142
f 92 142 140
f 93 143 94
f 93 141 143
f 94 143 95
f 95 144 145
f 95 145 96
f 95 143 144
f 98 146 147
f 98 147 99
f 99 147 100
f 100 148 149
f 100 149 101
f 100 147 150
f 100 150 148
f 101 149 102
f 102 151 152
f 102 152 153
f 102 153 154
f 102 154 104
f 102 104 103
f 102 149 155
f 102 155 151
f 104 154 105
f 105 154 156
f 105 156 106
f 106 156 157
f 106 157 158
f 106 158 107
f 107 158 159
f 107 159 160
f 107 160 108
f 108 160 161
f 108 161 109
f 109 161 162
f 110 163 111
f 111 163 164
f 111 164 162
f 111 162 161
f 111 161 165
f 111 165 166
f 111 166 112
f 112 166 167
f 112 167 113
f 113 167 168
f 113 168 169
f 113 169 170
f 113 170 114
f 120 171 121
f 121 171 135
f 121 135 172
f 121 172 122
f 122 172 173
f 122 173 174
f 122 174 175
f 122 175 123
f 124 176 177
f 124 177 125
f 125 178 179
f 125 179 127
f 125 127 126
f 125 177 180
f 125 180 178
f 127 179 137
f 127 137 135
f 127 135 171
f 127 171 129
f 127 129 128
f 132 181 133
f 133 181 182
f 133 182 183
f 133 183 174
f 133 174 173
f 133 173 134
f 134 172 135
f 134 173 172
f 136 137 184
f 136 184 185
f 136 185 138
f 137 179 184
f 138 186 139
f 138 185 187
f 138 187 188
f 138 188 189
f 138 189 190
f 138 190 191
f 138 191 186
f 139 192 142
f 139 186 193
f 139 193 194
f 139 194 192
f 140 195 141
f 140 142 195
f 141 195 196
f 141 196 143
f 142 192 197
f 142 197 151
f 142 151 198
f 142 198 195
f 143 196 199
f 143 199 200
f 143 200 144
f 144 200 201
f 144 201 145
f 145 201 202
f 146 203 147
f 147 204 150
f 147 203 205
f 147 205 206
f 147 206 204
f 148 199 155
f 148 155 149
f 148 150 204
f 148 204 207
f 148 207 200
f 148 200 199
f 151 155 199
f 151 199 198
f 151 197 208
f 151 208 152
f 152 208 209
f 152 209 153
f 153 209 154
f 154 209 210
f 154 210 156
f 156 210 211
f 156 211 212
f 156 212 157
f 157 212 213
f 157 213 158
f 158 213 159
f 159 213 165
f 159 165 161
f 159 161 160
f 165 213 214
f 165 214 166
f 166 214 167
f 167 214 168
f 168 214 215
f 168 215 216
f 168 216 169
f 169 216 217
f 176 218 177
f 177 218 219
f 177 219 220
f 177 220 180
f 178 221 179
f 178 180 222
f 178 222 221
f 179 223 184
f 179 221 224
f 179 224 223
f 180 220 222
f 184 223 185
f 185 223 187
f 186 191 225
f 186 225 193
f 187 223 224
f 187 224 226
f 187 226 188
f 188 227 189
f 188 226 227
f 189 227 190
f 190 227 225
f 190 225 191
f 192 194 197
f 193 225 194
f 194 228 197
f 194 225 229
f 194 229 228
f 195 198 199
f 195 199 196
f 197 228 208
f 200 207 201
f 201 207 230
f 201 230 231
f 201 231 202
f 204 206 232
f 204 232 207
f 207 232 233
f 207 233 230
f 208 228 209
f 209 228 211
f 209 211 210
f 211 228 234
f 211 234 215
f 211 215 235
f 211 235 236
f 211 236 212
f 212 236 213
f 213 236 235
f 213 235 215
f 213 215 214
f 215 234 237
f 215 237 216
f 216 237 217
f 217 237 239
f 217 239 238
f 219 240 220
f 220 240 241
f 220 241 238
f 220 238 222
f 221 222 226
f 221 226 224
f 222 238 226
f 225 227 229
f 226 238 242
f 226 242 227
f 227 242 239
f 227 239 229
f 228 229 237
f 228 237 234
f 229 239 237
f 238 239 242

