# https://github.com/mikedh/trimesh
v -29.77010774 1.48114911 7.79359317
v -29.49717504 6.63605215 7.52627479
v -29.51704130 6.64074019 7.52627479
v -38.28278804 1.48114911 7.79359317
v -29.54726909 -5.33073011 7.79359317
v -29.56195330 6.64074019 -1.81735339
v -29.49976607 6.64074019 7.52172570
v -37.61168878 6.64074019 7.52627479
v -38.27847051 1.48114911 7.52627479
v -38.29315215 1.21045493 7.79359317
v -37.80515902 5.66811688 7.52627479
v -37.99258268 4.52323398 7.52627479
v -38.10659303 3.66076278 7.52627479
v -38.16273367 3.08773533 7.52627479
v -38.24824015 2.21471734 7.52627479
v -38.26119528 1.90066655 7.52627479
v -37.88289242 -5.33073011 7.79359317
v -29.87547791 -5.33073011 -2.12789587
v -29.56540886 6.64074019 -2.09263526
v -37.60650673 6.64074019 6.53890295
v -38.16186914 0.48860422 -0.36586859
v -38.31992695 0.48860422 7.79359317
v -37.78874833 5.66811688 6.53890295
v -37.58491398 6.64074019 4.81100415
v -37.75592950 5.66811688 4.81100415
v -37.71187946 5.66811688 3.08537990
v -38.09363789 3.55295340 6.53890295
v -38.09709345 1.91238406 -0.36586859
v -38.22578543 2.21471734 6.53890295
v -38.11695714 1.48114911 -0.36586859
v -37.95889932 -4.64755022 7.79359317
v -37.95717283 -4.85379324 6.53776567
v -37.98480959 -5.11862802 3.08424263
v -37.99862926 -5.23581154 1.36089293
v -37.90275868 -5.33073011 6.53776567
v -30.26414745 -5.33073011 -2.99013936
v -30.27710259 6.64074019 -3.40874853
v -30.45588863 -5.33073011 -3.37234549
v -38.09795541 0.48860422 -2.09263526
v -38.14891400 -1.23868091 -0.36586859
v -38.21714782 -1.23868091 3.08424263
v -38.25083117 -1.23868091 4.81100415
v -38.06858958 1.65575271 -2.09263526
v -38.31215387 0.01752675 7.79359317
v -37.55295711 6.64074019 3.08537990
v -37.51495366 6.64074019 1.35975308
v -37.47522372 6.64074019 -0.36586859
v -37.61082682 5.66811688 -0.36586859
v -37.92866895 4.03926634 3.08537990
v -38.04267930 3.17679514 3.08537990
v -38.02972417 3.08070456 2.20948399
v -37.99258268 2.77602727 -0.36586859
v -37.98653866 -4.38388713 7.79359317
v -38.12213919 -3.07494744 7.79359317
v -38.15323409 -2.96479404 6.53776567
v -38.07377163 -4.25381344 3.08424263
v -38.00985791 -5.29791901 -0.36586859
v -37.98135661 -5.33073011 1.36089293
v -38.08240925 -4.37216865 1.36089293
v -31.98810182 6.64074019 -3.80688163
v -31.38437185 -5.33073011 -3.64876463
v -31.98810182 -5.33073011 -3.82735769
v -38.04613229 1.48114911 -2.81268358
v -38.04095024 1.44247860 -2.97193785
v -38.04008828 0.48860422 -2.96966330
v -38.03231519 -0.48167508 -2.95942784
v -38.07204514 -1.12970017 -2.16998528
v -38.07204514 -2.96479404 -1.74796429
v -38.13077681 -2.96479404 -0.36586859
v -38.26897094 -1.23868091 6.53776567
v -38.15496059 -2.96479404 1.36089293
v -37.84057145 3.94083175 -0.36586859
v -38.27155939 -1.23868091 7.79359317
v -37.32062146 6.64074019 -2.09263526
v -38.23960253 -1.70975903 7.79359317
v -38.16618923 -2.96479404 4.81100415
v -38.07550070 -4.43544781 -0.36586859
v -38.05476991 -4.23975127 -1.50453122
v -37.92089587 -4.76590544 -2.08466920
v -37.99949380 -5.33073011 -0.41592405
v -38.00381132 -5.33073011 -0.36586859
v -35.43947124 6.64074019 -3.64535281
v -33.71464978 -5.33073011 -3.79323435
v -34.80032885 -5.33073011 -3.77047860
v -35.44033320 -5.33073011 -3.74773313
v -35.44033320 -4.69090812 -3.74317889
v -37.16601663 0.48860422 -3.31205972
v -37.10469393 -2.96479404 -3.32684942
v -36.74452826 6.64074019 -3.28134820
v -37.99603824 1.48114911 -2.98786482
v -37.03818918 -4.69090812 -3.33935942
v -37.96753693 -2.96479404 -2.61134505
v -38.00294936 -1.63241802 -2.79676175
v -36.98204854 -5.33073011 -3.33708488
v -37.82243425 -5.33073011 -2.08808102
v -36.44654982 -5.33073011 -3.49292733
v -37.22734190 1.48114911 -3.26542123
v -37.26534278 2.09753446 -3.23584698
v -37.56764132 -5.33073011 -2.51124443
f 1 2 3
f 1 3 8
f 1 8 4
f 1 4 10
f 1 10 22
f 1 22 44
f 1 44 73
f 1 73 75
f 1 75 54
f 1 54 53
f 1 53 31
f 1 31 17
f 1 17 5
f 1 5 2
f 2 6 7
f 2 7 3
f 2 5 6
f 3 7 6
f 3 6 19
f 3 19 37
f 3 37 60
f 3 60 82
f 3 82 89
f 3 89 74
f 3 74 47
f 3 47 46
f 3 46 45
f 3 45 24
f 3 24 20
f 3 20 8
f 4 9 10
f 4 8 11
f 4 11 12
f 4 12 13
f 4 13 14
f 4 14 15
f 4 15 16
f 4 16 9
f 5 17 35
f 5 35 58
f 5 58 81
f 5 81 80
f 5 80 95
f 5 95 99
f 5 99 94
f 5 94 96
f 5 96 85
f 5 85 84
f 5 84 83
f 5 83 62
f 5 62 61
f 5 61 38
f 5 38 36
f 5 36 18
f 5 18 19
f 5 19 6
f 8 20 11
f 9 16 21
f 9 21 22
f 9 22 10
f 11 23 12
f 11 20 24
f 11 24 23
f 12 23 25
f 12 25 26
f 12 26 27
f 12 27 13
f 13 27 28
f 13 28 29
f 13 29 14
f 14 29 15
f 15 29 28
f 15 28 30
f 15 30 21
f 15 21 16
f 17 31 32
f 17 32 33
f 17 33 34
f 17 34 35
f 18 36 19
f 19 36 38
f 19 38 37
f 21 39 40
f 21 40 41
f 21 41 42
f 21 42 22
f 21 30 43
f 21 43 39
f 22 42 44
f 23 24 45
f 23 45 25
f 25 45 46
f 25 46 47
f 25 47 26
f 26 48 49
f 26 49 27
f 26 47 48
f 27 49 50
f 27 50 28
f 28 50 51
f 28 51 52
f 28 52 43
f 28 43 30
f 31 53 33
f 31 33 32
f 33 53 54
f 33 54 55
f 33 55 56
f 33 56 34
f 34 57 58
f 34 58 35
f 34 56 59
f 34 59 57
f 37 38 61
f 37 61 62
f 37 62 60
f 39 43 63
f 39 63 64
f 39 64 65
f 39 65 66
f 39 66 67
f 39 67 68
f 39 68 69
f 39 69 40
f 40 69 41
f 41 69 42
f 42 70 44
f 42 69 71
f 42 71 70
f 43 52 72
f 43 72 48
f 43 48 47
f 43 47 63
f 44 70 73
f 47 74 64
f 47 64 63
f 48 72 49
f 49 72 51
f 49 51 50
f 51 72 52
f 54 75 55
f 55 75 76
f 55 76 59
f 55 59 56
f 57 59 77
f 57 77 78
f 57 78 79
f 57 79 80
f 57 80 81
f 57 81 58
f 59 76 73
f 59 73 77
f 60 62 83
f 60 83 84
f 60 84 85
f 60 85 86
f 60 86 82
f 64 87 88
f 64 88 65
f 64 74 89
f 64 89 90
f 64 90 87
f 65 88 91
f 65 91 66
f 66 92 93
f 66 93 78
f 66 78 68
f 66 68 67
f 66 91 94
f 66 94 92
f 68 78 69
f 69 78 77
f 69 77 71
f 70 71 77
f 70 77 73
f 73 76 75
f 78 93 92
f 78 92 79
f 79 95 80
f 79 92 95
f 82 86 87
f 82 87 89
f 85 96 88
f 85 88 87
f 85 87 86
f 87 90 97
f 87 97 89
f 88 96 91
f 89 97 98
f 89 98 90
f 90 98 97
f 91 96 94
f 92 94 99
f 92 99 95

