# https://github.com/mikedh/trimesh
v 14.99303482 -40.61438151 0.87961538
v 14.94160408 -40.61438151 3.08665612
v 14.86414857 -40.95313454 0.87961538
v 8.66335300 -40.61438151 0.87961538
v 14.11995378 -42.43794505 3.08665612
v 14.75633018 -40.61438151 4.89742662
v 14.21413904 -42.37170274 0.87961538
v 8.66335300 -40.61438151 8.38957579
v 8.66335300 -45.51042754 0.87961538
v 14.01151530 -42.23544609 4.47322115
v 12.90730665 -43.21562636 3.08665612
v 12.29261820 -43.81665723 0.87961538
v 14.17943935 -40.61438151 6.16562776
v 8.66335300 -42.68029745 6.42588578
v 11.18097353 -42.55212007 6.30678343
v 11.18097353 -40.61438151 8.12784857
v 9.02584597 -45.56374558 0.87961538
v 8.66335300 -46.11630855 0.88476398
v 13.73391386 -41.77336324 5.62305838
v 13.05788085 -42.66575476 4.95329967
v 13.74940599 -40.61438151 6.67805424
v 12.58261258 -42.29522755 6.07152226
v 11.30738196 -40.61438151 8.08741362
v 12.67246102 -40.61438151 7.54704932
v 12.30687014 -40.61438151 7.73525775
f 1 2 3
f 1 3 7
f 1 7 12
f 1 12 17
f 1 17 9
f 1 9 4
f 1 4 8
f 1 8 16
f 1 16 23
f 1 23 25
f 1 25 24
f 1 24 21
f 1 21 13
f 1 13 6
f 1 6 2
f 2 5 3
f 2 6 5
f 3 5 7
f 4 9 18
f 4 18 14
f 4 14 8
f 5 6 10
f 5 10 11
f 5 11 12
f 5 12 7
f 6 13 10
f 8 14 15
f 8 15 16
f 9 17 18
f 10 13 19
f 10 19 20
f 10 20 11
f 11 18 12
f 11 20 18
f 12 18 17
f 13 21 19
f 14 18 15
f 15 22 23
f 15 23 16
f 15 18 22
f 18 20 22
f 19 21 22
f 19 22 20
f 21 24 22
f 22 24 25
f 22 25 23

