# https://github.com/mikedh/trimesh
v 17.30952524 -35.67698196 -10.83493153
v 17.28648002 -34.25681334 -17.63912386
v 17.29569785 -34.21304891 -10.83493153
v 17.30952524 -35.77326423 -10.83493153
v 17.25536839 -34.48001479 -40.08078665
v 17.26919578 -34.36184901 -29.71768052
v 17.27380534 -34.32829688 -26.27077528
v 17.27610948 -34.31224898 -24.54572739
v 17.28071903 -34.28307355 -21.09242562
v 16.70112267 -33.46467168 -26.27077528
v 16.70227410 -33.45008268 -24.54572739
v 16.70342681 -33.42017651 -21.09242562
v 17.29108829 -34.23347351 -14.18582210
v 16.71379735 -33.34942371 -10.83493153
v 17.24269243 -36.78860733 -10.83493153
v 16.94079657 -40.61438151 -40.08078665
v 17.25536839 -35.42460509 -40.08078665
v 17.24499785 -34.62589709 -41.02492410
v 16.68038159 -33.61638959 -40.08078665
v 16.69075213 -33.55657725 -34.89603018
v 16.69305627 -33.53688339 -33.17098229
v 16.69536040 -33.51718952 -31.44272842
v 16.69766582 -33.49968272 -29.71768052
v 16.70227410 -33.43476551 -22.81747352
v 16.69881854 -33.48144775 -27.99262749
v 15.81732503 -33.16269477 -40.08078665
v 16.70342681 -33.40631825 -19.36417175
v 16.65964050 -33.33775251 -10.83493153
v 17.08713558 -39.13002642 -10.83493153
v 16.86013636 -40.61438151 -40.41683287
v 17.24499785 -35.25027551 -41.02492410
v 16.98803972 -40.61438151 -10.83493153
v 16.96614721 -35.80462930 -41.68421835
v 16.04893380 -35.77326423 -43.06041670
v 15.89567981 -34.35382635 -42.94839786
v 16.37733302 -33.91398980 -41.71942236
v 15.70901133 -33.17071744 -41.26495564
v 15.44629222 -33.16269477 -40.08078665
v 15.83000099 -33.16415367 -33.17098229
v 15.84958936 -33.17071744 -10.83493153
v 16.49601725 -40.61438151 -41.80263371
v 5.53900687 -40.61438151 -10.83493153
v 16.61815833 -39.22630869 -41.80263371
v 16.76910691 -37.49905830 -41.80263371
v 15.95329479 -37.49905830 -42.99961118
v 14.63393566 -35.77326423 -43.48927676
v 14.63393566 -34.23347351 -43.10842918
v 14.78603694 -33.45883608 -41.82824037
v 15.46357646 -33.17071744 -41.26495564
v 5.54131165 -36.07378224 -41.80263371
v 15.44974907 -33.16415367 -33.17098229
v 15.46357646 -33.17071744 -10.83493153
v 15.77469143 -40.61438151 -42.87158818
v 5.54131165 -40.57061707 -10.83493153
v 5.54131165 -36.29114808 -36.62748488
v 5.54131165 -36.13359458 -38.33333293
v 5.54131165 -36.09274794 -40.08078665
v 5.54131165 -36.34950152 -42.99961118
v 5.54131165 -37.49905830 -43.40286458
v 5.54131165 -39.22630869 -43.43487290
v 5.54131165 -40.24311070 -43.37406738
v 5.54131165 -40.61438151 -43.35166156
v 15.85535035 -39.22630869 -42.93240399
v 11.18171199 -37.49905830 -43.50848175
v 9.45444744 -37.49905830 -43.53088758
v 7.72948703 -37.49905830 -43.51488342
v 12.90667111 -35.77326423 -43.46047956
v 14.63393566 -37.49905830 -43.38366988
v 12.90667111 -40.61438151 -43.29725770
v 12.90667111 -39.22630869 -43.37406738
v 12.90667111 -37.49905830 -43.46688123
v 12.90667111 -34.53545042 -43.03481004
v 11.61496805 -34.75792113 -42.85878485
v 7.83664930 -35.73387650 -10.83493153
v 15.53501754 -40.61438151 -42.93880566
v 5.62542805 -39.22776759 -10.83493153
v 5.75217869 -37.56397550 -10.83493153
v 6.38477855 -36.32251315 -10.83493153
v 6.42971756 -36.29990149 -10.83493153
v 7.72026920 -35.78055873 -10.83493153
v 6.00222249 -37.49905830 -43.43167207
v 5.66345273 -40.61438151 -43.35166156
v 11.18171199 -39.22630869 -43.40926625
v 11.18171199 -40.61438151 -43.32925573
v 14.63393566 -39.22630869 -43.26845021
v 14.63393566 -40.61438151 -43.17243553
f 1 2 3
f 1 3 14
f 1 14 28
f 1 28 40
f 1 40 52
f 1 52 74
f 1 74 80
f 1 80 79
f 1 79 78
f 1 78 77
f 1 77 76
f 1 76 54
f 1 54 42
f 1 42 32
f 1 32 29
f 1 29 15
f 1 15 4
f 1 4 17
f 1 17 5
f 1 5 2
f 2 6 7
f 2 7 8
f 2 8 9
f 2 9 10
f 2 10 11
f 2 11 12
f 2 12 13
f 2 13 3
f 2 5 6
f 3 13 14
f 4 15 16
f 4 16 17
f 5 17 31
f 5 31 18
f 5 18 19
f 5 19 20
f 5 20 21
f 5 21 6
f 6 21 22
f 6 22 23
f 6 23 7
f 7 10 8
f 7 23 10
f 8 10 9
f 10 24 12
f 10 12 11
f 10 23 25
f 10 25 26
f 10 26 24
f 12 27 14
f 12 14 13
f 12 24 26
f 12 26 27
f 14 27 26
f 14 26 28
f 15 29 16
f 16 30 31
f 16 31 17
f 16 29 32
f 16 32 42
f 16 42 62
f 16 62 82
f 16 82 84
f 16 84 69
f 16 69 86
f 16 86 75
f 16 75 53
f 16 53 41
f 16 41 30
f 18 31 33
f 18 33 34
f 18 34 35
f 18 35 36
f 18 36 19
f 19 36 37
f 19 37 26
f 19 26 20
f 20 26 21
f 21 26 22
f 22 25 23
f 22 26 25
f 26 37 49
f 26 49 38
f 26 38 51
f 26 51 39
f 26 39 28
f 28 39 40
f 30 41 31
f 31 41 33
f 33 41 43
f 33 43 44
f 33 44 34
f 34 45 46
f 34 46 35
f 34 44 45
f 35 37 36
f 35 46 47
f 35 47 37
f 37 47 48
f 37 48 49
f 38 49 50
f 38 50 51
f 39 51 52
f 39 52 40
f 41 53 43
f 42 54 55
f 42 55 56
f 42 56 57
f 42 57 50
f 42 50 58
f 42 58 59
f 42 59 60
f 42 60 61
f 42 61 62
f 43 53 63
f 43 63 44
f 44 63 45
f 45 63 46
f 46 64 65
f 46 65 66
f 46 66 67
f 46 67 47
f 46 63 53
f 46 53 68
f 46 68 69
f 46 69 70
f 46 70 71
f 46 71 64
f 47 67 59
f 47 59 58
f 47 58 72
f 47 72 48
f 48 73 58
f 48 58 50
f 48 50 49
f 48 72 73
f 50 57 52
f 50 52 51
f 52 57 74
f 53 75 68
f 54 76 55
f 55 76 77
f 55 77 56
f 56 77 78
f 56 78 57
f 57 78 79
f 57 79 80
f 57 80 74
f 58 73 72
f 59 67 81
f 59 81 60
f 60 81 66
f 60 66 65
f 60 65 82
f 60 82 61
f 61 82 62
f 64 71 70
f 64 70 69
f 64 69 83
f 64 83 65
f 65 83 84
f 65 84 82
f 66 81 67
f 68 85 69
f 68 75 85
f 69 84 83
f 69 85 86
f 75 86 85

