# https://github.com/mikedh/trimesh
v 7.39318094 -18.48842524 1.69246210
v 7.39318094 -18.49893730 3.08690828
v 7.39593278 -18.53907250 7.18412795
v 7.39593278 -18.51709379 3.65060211
v 7.39318094 -18.49511444 1.36190155
v 0.17508766 -18.75790625 7.18412795
v 1.89774369 -18.67954632 7.18412795
v 7.39593278 -28.24994344 7.18412795
v -5.02865405 -21.66199382 7.79392766
v 7.39593278 -19.24526512 -0.21783267
v 7.39318094 -18.94616098 -0.06125434
v 0.82039572 -19.24908798 0.24495004
v 0.16958397 -19.27680065 0.30236432
v -0.90501215 -19.32362504 0.39631544
v -1.77459557 -19.36758310 0.48939173
v -0.90501215 -18.84008839 7.18412795
v 7.39318094 -28.25089931 3.64973243
v 7.39593278 -28.24994344 -1.09295153
v -5.02865405 -25.73000976 7.79392766
v -5.02865405 -28.24994344 7.18412795
v -5.64506770 -22.01652331 7.79392766
v -1.50629060 -18.90411404 7.18412795
v -2.20250780 -19.05127770 7.18412795
v 7.39593278 -20.23336255 -0.73716513
v 5.99937094 -20.23336255 -0.69627991
v 4.27258723 -20.23336255 -0.62842432
v 2.54717943 -20.23336255 -0.53969643
v 0.90295111 -20.23336255 -0.43530916
v 0.81901980 -20.23240668 -0.42922140
v 4.26983539 -19.11434748 0.04661679
v 2.54442759 -19.18123947 0.13447501
v -0.90501215 -20.23240668 -0.27785600
v -0.90501215 -20.15022454 -0.21783267
v -0.97518418 -20.16360294 -0.21783267
v -2.46255725 -20.27923171 0.03617549
v -3.75317321 -20.88604158 0.18405703
v -3.87425454 -20.78761342 1.36190155
v -2.67444932 -19.92279048 1.36190155
v -1.21184298 -20.24196286 -0.21783267
v 7.39318094 -28.25089931 -0.21696299
v -5.02865405 -28.25089931 3.64973243
v 7.39593278 -21.96014337 -0.84937952
v 0.90295111 -28.25089931 -0.64582306
v -1.52004981 -28.25089931 -0.77978972
v 4.26983539 -28.24994344 -1.04163015
v 4.27258723 -21.96014337 -0.84937952
v -6.66049893 -25.73000976 7.79392766
v -5.80054736 -22.22771262 7.79392766
v -3.43533494 -20.00497262 7.18412795
v -4.05862820 -20.55731302 7.18412795
v -4.73833451 -21.78431116 1.36190155
v -2.63179579 -21.96109925 -0.72150576
v -2.51896999 -20.83921655 -0.21783267
v -3.25646496 -21.36097794 -0.21783267
v -3.85361573 -22.04423598 -0.21783267
v -4.34069254 -22.07577087 -0.01514589
v -6.66049893 -25.39841486 -0.06647242
v -5.29420734 -22.72844990 0.40501223
v -5.02865405 -28.25089931 0.41458385
v -2.63179579 -28.25089931 -0.61798817
v -2.63179579 -27.13857408 -0.73281159
v -6.66049893 -24.07490031 7.79392766
v -6.66049893 -25.73000976 -0.06647242
v -5.35612376 -22.64817951 1.36190155
v -6.66049893 -24.83078431 1.36190155
v -5.93676348 -22.47712538 7.79392766
v -4.35857950 -25.41179326 -0.62581528
v -4.35857950 -23.68501244 -0.51186154
v -4.47690898 -28.25089931 -0.15085191
f 1 2 3
f 1 3 4
f 1 4 5
f 1 5 6
f 1 6 7
f 1 7 2
f 2 7 3
f 3 8 18
f 3 18 42
f 3 42 24
f 3 24 10
f 3 10 4
f 3 7 9
f 3 9 19
f 3 19 8
f 4 10 5
f 5 10 11
f 5 11 12
f 5 12 13
f 5 13 14
f 5 14 15
f 5 15 16
f 5 16 6
f 6 16 9
f 6 9 7
f 8 17 40
f 8 40 18
f 8 19 47
f 8 47 20
f 8 20 41
f 8 41 17
f 9 21 48
f 9 48 66
f 9 66 62
f 9 62 47
f 9 47 19
f 9 16 22
f 9 22 23
f 9 23 21
f 10 24 11
f 11 24 25
f 11 25 26
f 11 26 27
f 11 27 28
f 11 28 29
f 11 29 30
f 11 30 31
f 11 31 12
f 12 31 32
f 12 32 33
f 12 33 14
f 12 14 13
f 14 33 34
f 14 34 15
f 15 35 36
f 15 36 37
f 15 37 38
f 15 38 23
f 15 23 22
f 15 22 16
f 15 34 39
f 15 39 35
f 17 41 59
f 17 59 69
f 17 69 60
f 17 60 44
f 17 44 43
f 17 43 40
f 18 40 43
f 18 43 44
f 18 44 45
f 18 45 46
f 18 46 42
f 20 47 41
f 21 23 49
f 21 49 50
f 21 50 37
f 21 37 51
f 21 51 48
f 23 38 37
f 23 37 49
f 24 42 46
f 24 46 52
f 24 52 25
f 25 52 26
f 26 52 27
f 27 52 28
f 28 52 29
f 29 31 30
f 29 52 32
f 29 32 31
f 32 52 39
f 32 39 34
f 32 34 33
f 35 39 53
f 35 53 36
f 36 53 54
f 36 54 55
f 36 55 56
f 36 56 57
f 36 57 58
f 36 58 51
f 36 51 37
f 37 50 49
f 39 52 53
f 41 47 63
f 41 63 59
f 44 60 61
f 44 61 45
f 45 61 52
f 45 52 46
f 47 62 65
f 47 65 57
f 47 57 63
f 48 51 64
f 48 64 65
f 48 65 66
f 51 58 64
f 52 61 67
f 52 67 68
f 52 68 57
f 52 57 55
f 52 55 54
f 52 54 53
f 55 57 56
f 57 65 58
f 57 68 67
f 57 67 63
f 58 65 64
f 59 63 69
f 60 69 63
f 60 63 67
f 60 67 61
f 62 66 65

