# https://github.com/mikedh/trimesh
v -31.35675824 21.19686453 9.09915450
v -30.94968905 21.81075019 9.09915450
v -23.28676797 21.19686453 9.09915450
v -31.87090350 21.19686453 15.17387613
v -29.87295378 23.43316561 9.09915450
v -23.28676797 30.23525322 9.09915450
v -23.28676797 21.19686453 31.87876368
v -28.07301310 26.02300170 9.09915450
v -28.52002322 25.42007709 9.09915450
v -28.93644017 24.83816373 9.09915450
v -29.51262600 23.97488331 9.09915450
v -31.88960161 21.19686453 16.88187007
v -31.25817569 22.25472158 28.98592533
v -30.61825625 23.11800199 28.98592533
v -23.39214842 30.16765236 9.09915450
v -23.28676797 30.51022375 27.25882160
v -23.28676797 28.21819628 31.02834963
v -26.77787249 21.19686453 33.50314874
v -27.36680504 26.91185790 11.71967124
v -27.33791007 26.89724317 9.99495527
v -27.32431167 26.88627954 9.09915450
v -29.75482660 24.22427549 28.98592533
v -31.90149923 21.19686453 18.60658347
v -31.96013570 21.19686453 27.23971180
v -31.96693618 21.19686453 28.96442520
v -31.95843751 21.20965242 28.98592533
v -31.21993552 22.20447829 29.99399966
v -24.01082504 29.75108617 9.09915450
v -24.65244525 29.30437452 9.09915450
v -24.66349378 29.30894162 9.99495527
v -23.28676797 30.52849474 28.98592533
v -23.28676797 29.83604459 30.41681699
v -28.53362161 21.19686453 32.85100619
v -26.50337539 27.78427252 11.71967124
v -28.98997950 25.08755590 28.98592533
v -28.12655242 26.01112466 28.98592533
v -27.31666467 26.87531849 28.98592533
v -26.45323760 27.77331147 28.98592533
v -26.46088460 27.75412706 9.09915450
v -29.64349990 24.08633351 30.13493920
v -31.96693618 21.19686453 28.98592533
v -31.55476728 21.19686453 30.33798621
v -31.54626860 21.19686453 30.35709729
v -30.25707681 21.19686453 31.56105277
v -25.51587232 28.61740490 9.09915450
v -25.52692086 28.62745253 9.99495527
v -25.54221744 28.64755036 11.71967124
v -23.64199860 30.25169736 28.98592533
v -23.28676797 30.47002809 29.39202192
v -23.28676797 29.84609222 30.40726210
v -24.55131542 29.25687149 30.13971601
v -26.28326929 27.60248120 30.17077103
v -27.97358403 25.85034459 30.15404899
v -25.97308188 28.20083871 9.09915450
v -25.57026332 28.63658931 28.98592533
v -24.70768534 29.38841695 28.98592533
f 1 2 5
f 1 5 11
f 1 11 10
f 1 10 9
f 1 9 8
f 1 8 21
f 1 21 39
f 1 39 54
f 1 54 45
f 1 45 29
f 1 29 28
f 1 28 15
f 1 15 6
f 1 6 3
f 1 3 7
f 1 7 18
f 1 18 33
f 1 33 44
f 1 44 43
f 1 43 42
f 1 42 41
f 1 41 25
f 1 25 24
f 1 24 23
f 1 23 12
f 1 12 4
f 1 4 2
f 2 4 5
f 3 6 16
f 3 16 31
f 3 31 49
f 3 49 50
f 3 50 32
f 3 32 17
f 3 17 7
f 4 8 9
f 4 9 10
f 4 10 11
f 4 11 5
f 4 12 13
f 4 13 14
f 4 14 8
f 6 15 16
f 7 17 18
f 8 19 20
f 8 20 21
f 8 14 22
f 8 22 19
f 12 23 13
f 13 24 25
f 13 25 26
f 13 26 27
f 13 27 14
f 13 23 24
f 14 27 22
f 15 28 16
f 16 28 29
f 16 29 30
f 16 30 31
f 17 32 18
f 18 32 33
f 19 34 20
f 19 22 35
f 19 35 36
f 19 36 37
f 19 37 38
f 19 38 34
f 20 34 21
f 21 34 39
f 22 27 40
f 22 40 35
f 25 41 26
f 26 41 27
f 27 41 42
f 27 42 43
f 27 43 44
f 27 44 40
f 29 45 46
f 29 46 47
f 29 47 30
f 30 47 31
f 31 47 48
f 31 48 49
f 32 50 51
f 32 51 33
f 33 51 52
f 33 52 53
f 33 53 40
f 33 40 44
f 34 47 46
f 34 46 45
f 34 45 54
f 34 54 39
f 34 38 55
f 34 55 47
f 35 40 36
f 36 40 37
f 37 40 53
f 37 53 38
f 38 53 52
f 38 52 55
f 47 55 56
f 47 56 48
f 48 56 49
f 49 56 51
f 49 51 50
f 51 56 55
f 51 55 52

