# https://github.com/mikedh/trimesh
v 0.82020113 24.08019430 106.28804422
v 0.82020113 23.88958782 110.14238659
v 1.75510242 23.80644852 111.07015966
v 2.54617290 23.95852922 106.28804422
v -0.90577063 24.07613665 106.28804422
v -0.90577063 23.84092179 111.07015966
v 0.82020113 23.84294933 111.07015966
v 2.59111996 23.71722918 111.07015966
v 3.16194925 23.77197782 108.75352901
v 3.42264276 23.80036591 107.60246959
v 3.55298983 23.82267139 106.68967662
v 3.60692636 23.83280907 106.28804422
v -2.74860494 23.93622374 106.28804422
v -1.80471418 23.80239345 111.07015966
v 2.83383467 23.73750712 110.14238659
v 4.27214467 23.47592914 111.07015966
v 4.27214467 23.71520164 106.28804422
v -3.58462264 23.83686672 106.28804422
v -3.48124399 23.79631084 107.52476450
v -2.64972119 23.71114400 111.07015966
v 5.99811659 23.09268608 111.07015966
v 4.46991217 23.67870084 106.28804422
v 4.41597563 23.66856315 106.68967662
v -3.65653812 23.82672646 106.28804422
v -3.71047465 23.81861632 106.28804422
v -4.35771400 23.45970627 111.07015966
v -3.67451707 23.56312094 111.07015966
v -2.88344643 23.73142194 110.14238659
v 5.99811659 23.22854392 108.41603161
v 6.79817607 22.84935593 111.07015966
v 7.72408820 22.70741549 108.41603161
v 7.72408820 22.79663483 106.68967662
v 5.99811659 23.31573572 106.68967662
v 5.99811659 23.33601366 106.28804422
v -4.27680904 23.68681356 106.84554995
v -4.35771400 23.50634477 110.14238659
v -4.40266138 23.69086863 106.28804422
v -5.76456051 23.38873477 106.28804422
v -6.08368593 23.11904664 110.14238659
v -6.08368593 23.07038061 111.07015966
v 6.39814601 23.21637870 106.28804422
v 7.72408820 22.56750001 111.07015966
v 8.82529414 22.17209173 111.07015966
v 7.72408820 22.81691277 106.28804422
v -6.08368593 23.31370818 106.28804422
v -6.08368593 23.29343024 106.68967662
v -7.40962748 22.91221730 106.28804422
v -7.80965754 22.77027428 106.68967662
v -7.80965754 22.68105494 108.41603161
v -7.80965754 22.54316957 111.07015966
v 9.12643997 22.29781188 106.28804422
v 8.07018140 22.68916509 106.28804422
v 9.68827995 21.79898893 111.07015966
v 9.85458428 21.87198798 108.41603161
v 9.98942577 21.92876416 106.28804422
v -7.80965754 22.79055222 106.28804422
v -8.87490558 22.15587144 111.07015966
v -8.35351856 22.34647791 111.07015966
v 11.18052583 21.06900363 111.07015966
v 11.18052583 21.12172473 110.14238659
v 11.18052583 21.31435874 106.68967662
v 11.18052583 21.33666422 106.28804422
v -8.83445326 22.40933670 106.28804422
v -9.04121055 22.22684295 108.41603161
v -10.03454279 21.91051375 106.28804422
v -9.79632265 21.80507154 110.14238659
v -9.27493563 21.98148526 111.07015966
v 12.25925905 20.47893123 111.07015966
v 12.30420578 20.50529178 110.14238659
v 12.38511042 20.55395781 108.41603161
v 12.47950023 20.61478906 106.28804422
v -9.17155699 22.28159159 106.28804422
v -9.37381922 22.19642475 106.28804422
v -11.26609516 21.29205584 106.28804422
v -11.26609516 21.26974779 106.68967662
v -11.26609516 21.07711378 110.14238659
v -11.26609516 21.02439267 111.07015966
v -10.58289823 21.36302477 111.07015966
v -9.73789138 21.77871099 111.07015966
v 13.12224485 19.92333211 111.07015966
v 13.24809622 20.00241376 108.41603161
v 13.34248604 20.06730009 106.28804422
v 13.14471757 20.19302024 106.28804422
v -12.21448066 20.76078715 106.28804422
v -12.42573302 20.52962480 108.41603161
v -12.30437542 20.45459822 111.07015966
v 14.34930216 19.05951651 111.07015966
v 14.38975513 19.08790202 110.14238659
v 14.54257557 19.20348449 106.28804422
v -12.52012155 20.58842851 106.28804422
v -12.50214260 20.57829083 106.68967662
v -12.72238379 20.46068340 106.28804422
v -13.38760241 20.03485692 106.28804422
v -12.70440483 20.19504777 111.07015966
v 15.21228797 18.38630738 111.07015966
v 15.25274093 18.41672300 110.14238659
v 15.40556137 18.54244315 106.28804422
v -13.28871882 19.97199556 108.41603161
v -14.30902013 19.37178805 106.28804422
v -14.39441982 19.02707077 111.07015966
v -13.82808479 19.42653669 111.07015966
v -13.16736122 19.89088894 111.07015966
v 16.18314748 17.52451674 111.07015966
v 16.27753601 17.60968358 108.41603161
v 16.48429330 17.55696248 106.28804422
v -14.58319817 19.17104132 106.28804422
v -14.56971299 19.15887353 106.68967662
v -14.78546041 19.01896062 106.28804422
v -15.43269879 18.49377712 106.68967662
v -14.79444924 18.71479922 111.07015966
v 16.51126237 17.51437906 106.56235348
v 17.04613328 16.70936717 111.07015966
v 17.14052181 16.80669923 108.41603161
v 17.21243761 16.88172581 106.28804422
v -15.44618397 18.50594234 106.28804422
v -16.16983322 17.84490101 106.28804422
v -16.21927502 17.48599097 111.07015966
v -15.25740563 18.34980657 111.07015966
v 17.82821444 15.84757911 111.07015966
v 17.72483580 16.30787628 106.28804422
v -16.42603232 17.60968358 106.28804422
v -17.24856516 16.83305978 106.28804422
v -17.17664935 16.75600566 108.41603161
v -16.61930443 17.10477545 111.07015966
v 18.69120025 14.83573788 111.07015966
v 18.83053680 15.01215160 106.68967662
v 18.65074729 15.24736903 106.28804422
v 17.85967729 16.15376805 106.28804422
v -17.77444723 16.24501492 106.28804422
v -18.00817231 15.95504885 106.68967662
v -17.95423674 15.89219006 108.41603161
v -17.86883705 15.79485800 111.07015966
v -17.08226082 16.65867360 111.07015966
v -17.50476425 16.19634889 111.07015966
v 19.33843992 13.97192228 111.07015966
v 19.41934456 14.07939202 108.41603161
v 19.48227024 14.16455629 106.28804422
v 18.83952563 15.02837189 106.28804422
v -17.98569959 16.00574242 106.28804422
v -18.21942467 15.73808183 106.28804422
v -18.88464329 14.97362325 106.28804422
v -18.26886646 15.32645068 111.07015966
v 20.20142572 12.68633528 111.07015966
v 20.28233036 12.81205543 108.41603161
v 20.34525605 12.91344256 106.28804422
v -19.38355630 13.91514353 111.07015966
v -19.08241047 14.31460945 111.07015966
v -18.81722255 14.88643145 108.41603161
v -19.52289285 14.10980765 106.28804422
v -18.73182285 14.77693417 111.07015966
v 20.45312976 12.28687193 111.07015966
v 20.76775947 11.86712935 110.14238659
v 20.86214929 12.03137655 106.68967662
v 20.87113812 12.04962567 106.28804422
v -19.72515508 13.81578651 106.28804422
v -20.37688853 12.82219311 106.68967662
v -20.27351117 12.65794719 110.14238659
v -19.77909194 13.31696098 111.07015966
v 20.74079169 11.82251968 111.07015966
v 21.37904124 10.84920551 108.41603161
v 21.49140873 10.84920551 106.28804422
v -20.38587865 12.84044351 106.28804422
v -20.79489818 12.17737336 106.28804422
v -20.90726566 11.95837751 106.68967662
v -20.85782387 11.87726832 108.41603161
v -20.78141429 11.75154817 111.07015966
v -20.67803564 11.91782291 111.07015966
v -20.29598389 12.53019950 111.07015966
v 21.23521092 10.84920551 111.07015966
v 22.01279703 9.73597715 106.28804422
v -20.91625578 11.97662791 106.28804422
v -21.06458117 11.70085460 106.28804422
v -21.50955860 10.84920551 106.28804422
v -20.87580282 11.56905184 111.07015966
v 22.06673259 9.04654644 111.07015966
v 22.05774247 9.18240427 110.14238659
v 22.14763852 9.39734505 106.68967662
v 22.15662864 9.42370560 106.28804422
v -21.39269606 10.84920551 108.41603161
v -22.21522762 9.32840236 106.28804422
v -22.20623750 9.30204181 106.68967662
v -21.20391772 10.93234224 111.07015966
v 22.21955432 8.69372029 111.07015966
v 22.51620252 8.53555570 106.68967662
v 22.52519264 8.55988871 106.28804422
v -22.48940823 8.66533092 106.28804422
v -22.48940823 8.26586757 109.32601484
v -22.17028217 8.95327074 109.99774191
v -22.07139601 9.05060151 111.07015966
v 22.40383890 8.25978496 111.07015966
v 22.72745745 7.39596807 110.14238659
v 22.85330882 7.39596807 106.28804422
v -22.57030901 8.46458547 106.28804422
v -22.44445764 8.13000973 111.07015966
v -22.26467070 8.58016665 111.07015966
v -22.66020505 8.19692360 106.28804422
v -22.92539555 7.39596807 106.28804422
v -22.70065802 7.51965940 109.99774191
v -22.56581652 7.76298826 111.07015966
v 22.66003413 7.46693829 111.07015966
v 22.88477166 6.46929239 111.07015966
v 22.89376178 5.66428051 111.07015966
v 22.82184598 4.77004671 111.07015966
v 22.76341278 6.49565295 106.28804422
v -22.83999714 5.96438426 106.28804422
v -23.01528645 5.61561448 111.07015966
v -22.70065802 7.33716307 111.07015966
v 22.66902425 4.42127692 111.07015966
v 22.72745745 6.18540893 106.28804422
v -21.80171302 3.44796276 111.07015966
v -22.90292283 4.13739347 111.07015966
v -21.62642114 5.38647966 106.28804422
v 22.43530174 6.05968879 106.28804422
v 21.54085052 3.96300729 111.07015966
v -21.62642114 3.37496500 111.07015966
v -20.35891087 5.32767594 106.28804422
v 21.54085052 5.77986040 106.28804422
v 20.83518022 3.93056412 111.07015966
v -20.08023776 3.36685228 111.07015966
v -19.89595448 5.31956451 106.28804422
v 21.13632605 5.76161128 106.28804422
v 19.81038514 3.89812096 111.07015966
v 19.81038514 5.71091772 106.28804422
v -19.89595448 3.36685228 111.07015966
v -3.02278266 5.45745117 106.28804422
v 19.14966158 3.88595317 111.07015966
v 19.41035444 5.70483382 106.28804422
v 3.81368334 3.67506875 111.07015966
v 2.14164827 5.51017227 106.28804422
v 7.32405814 5.56694845 106.28804422
v 17.44616269 3.86162015 111.07015966
v 8.92867215 3.74198519 111.07015966
v 7.22517455 3.71967971 111.07015966
f 1 2 3
f 1 3 4
f 1 4 12
f 1 12 17
f 1 17 22
f 1 22 34
f 1 34 41
f 1 41 44
f 1 44 52
f 1 52 51
f 1 51 55
f 1 55 62
f 1 62 71
f 1 71 83
f 1 83 82
f 1 82 89
f 1 89 97
f 1 97 105
f 1 105 114
f 1 114 120
f 1 120 128
f 1 128 127
f 1 127 138
f 1 138 137
f 1 137 145
f 1 145 154
f 1 154 161
f 1 161 170
f 1 170 178
f 1 178 185
f 1 185 192
f 1 192 204
f 1 204 209
f 1 209 213
f 1 213 217
f 1 217 221
f 1 221 223
f 1 223 227
f 1 227 230
f 1 230 229
f 1 229 225
f 1 225 220
f 1 220 216
f 1 216 212
f 1 212 205
f 1 205 197
f 1 197 196
f 1 196 193
f 1 193 186
f 1 186 180
f 1 180 173
f 1 173 172
f 1 172 171
f 1 171 163
f 1 163 162
f 1 162 155
f 1 155 149
f 1 149 141
f 1 141 140
f 1 140 139
f 1 139 129
f 1 129 122
f 1 122 121
f 1 121 116
f 1 116 115
f 1 115 108
f 1 108 106
f 1 106 99
f 1 99 93
f 1 93 92
f 1 92 90
f 1 90 84
f 1 84 74
f 1 74 65
f 1 65 73
f 1 73 72
f 1 72 63
f 1 63 56
f 1 56 47
f 1 47 45
f 1 45 38
f 1 38 37
f 1 37 25
f 1 25 24
f 1 24 18
f 1 18 13
f 1 13 5
f 1 5 6
f 1 6 2
f 2 7 3
f 2 6 7
f 3 7 6
f 3 6 14
f 3 14 20
f 3 20 27
f 3 27 26
f 3 26 40
f 3 40 50
f 3 50 58
f 3 58 57
f 3 57 67
f 3 67 79
f 3 79 78
f 3 78 77
f 3 77 86
f 3 86 94
f 3 94 102
f 3 102 101
f 3 101 100
f 3 100 110
f 3 110 118
f 3 118 117
f 3 117 124
f 3 124 133
f 3 133 134
f 3 134 132
f 3 132 142
f 3 142 150
f 3 150 147
f 3 147 146
f 3 146 158
f 3 158 168
f 3 168 167
f 3 167 166
f 3 166 174
f 3 174 182
f 3 182 189
f 3 189 195
f 3 195 194
f 3 194 199
f 3 199 207
f 3 207 206
f 3 206 211
f 3 211 210
f 3 210 215
f 3 215 219
f 3 219 224
f 3 224 228
f 3 228 233
f 3 233 232
f 3 232 231
f 3 231 226
f 3 226 222
f 3 222 218
f 3 218 214
f 3 214 208
f 3 208 203
f 3 203 202
f 3 202 201
f 3 201 200
f 3 200 190
f 3 190 183
f 3 183 175
f 3 175 169
f 3 169 159
f 3 159 151
f 3 151 143
f 3 143 135
f 3 135 125
f 3 125 119
f 3 119 112
f 3 112 103
f 3 103 95
f 3 95 87
f 3 87 80
f 3 80 68
f 3 68 59
f 3 59 53
f 3 53 43
f 3 43 42
f 3 42 30
f 3 30 21
f 3 21 16
f 3 16 8
f 3 8 9
f 3 9 4
f 4 9 10
f 4 10 11
f 4 11 12
f 5 13 14
f 5 14 6
f 8 15 9
f 8 16 15
f 9 15 16
f 9 16 10
f 10 16 17
f 10 17 11
f 11 17 12
f 13 18 19
f 13 19 14
f 14 19 20
f 16 21 22
f 16 22 23
f 16 23 17
f 17 23 22
f 18 24 19
f 19 24 25
f 19 25 26
f 19 26 27
f 19 27 28
f 19 28 20
f 20 28 27
f 21 29 22
f 21 30 31
f 21 31 32
f 21 32 29
f 22 29 33
f 22 33 34
f 25 35 36
f 25 36 26
f 25 37 35
f 26 36 37
f 26 37 38
f 26 38 39
f 26 39 40
f 29 32 41
f 29 41 33
f 30 42 31
f 31 42 43
f 31 43 32
f 32 44 41
f 32 43 44
f 33 41 34
f 35 37 36
f 38 45 46
f 38 46 39
f 39 46 47
f 39 47 48
f 39 48 49
f 39 49 50
f 39 50 40
f 43 51 52
f 43 52 44
f 43 53 54
f 43 54 55
f 43 55 51
f 45 47 46
f 47 56 48
f 48 56 57
f 48 57 58
f 48 58 49
f 49 58 50
f 53 59 54
f 54 59 55
f 55 59 60
f 55 60 61
f 55 61 62
f 56 63 64
f 56 64 57
f 57 64 65
f 57 65 66
f 57 66 67
f 59 68 60
f 60 68 61
f 61 68 62
f 62 68 69
f 62 69 70
f 62 70 71
f 63 72 64
f 64 72 73
f 64 73 65
f 65 74 75
f 65 75 76
f 65 76 77
f 65 77 78
f 65 78 66
f 66 79 67
f 66 78 79
f 68 80 81
f 68 81 69
f 69 81 82
f 69 82 70
f 70 82 83
f 70 83 71
f 74 84 85
f 74 85 86
f 74 86 75
f 75 86 76
f 76 86 77
f 80 87 81
f 81 87 82
f 82 87 88
f 82 88 89
f 84 90 91
f 84 91 85
f 85 91 92
f 85 92 93
f 85 93 86
f 86 93 94
f 87 95 96
f 87 96 88
f 88 96 97
f 88 97 89
f 90 92 91
f 93 98 94
f 93 99 100
f 93 100 101
f 93 101 98
f 94 98 102
f 95 103 96
f 96 103 97
f 97 103 104
f 97 104 105
f 98 101 102
f 99 106 107
f 99 107 100
f 100 107 108
f 100 108 109
f 100 109 110
f 103 111 104
f 103 112 113
f 103 113 114
f 103 114 111
f 104 111 105
f 105 111 114
f 106 108 107
f 108 115 109
f 109 115 116
f 109 116 117
f 109 117 118
f 109 118 110
f 112 119 113
f 113 119 114
f 114 119 120
f 116 121 117
f 117 121 122
f 117 122 123
f 117 123 124
f 119 125 126
f 119 126 127
f 119 127 128
f 119 128 120
f 122 129 130
f 122 130 131
f 122 131 132
f 122 132 123
f 123 133 124
f 123 132 134
f 123 134 133
f 125 135 126
f 126 135 136
f 126 136 137
f 126 137 138
f 126 138 127
f 129 139 130
f 130 139 140
f 130 140 141
f 130 141 131
f 131 141 132
f 132 141 142
f 135 143 144
f 135 144 145
f 135 145 136
f 136 145 137
f 141 146 147
f 141 147 148
f 141 148 142
f 141 149 146
f 142 148 150
f 143 151 144
f 144 151 145
f 145 151 152
f 145 152 153
f 145 153 154
f 146 149 155
f 146 155 156
f 146 156 157
f 146 157 158
f 147 150 148
f 151 159 152
f 152 159 160
f 152 160 161
f 152 161 153
f 153 161 154
f 155 162 156
f 156 162 163
f 156 163 164
f 156 164 165
f 156 165 166
f 156 166 157
f 157 166 167
f 157 167 168
f 157 168 158
f 159 169 160
f 160 169 170
f 160 170 161
f 163 171 164
f 164 171 172
f 164 172 165
f 165 172 166
f 166 172 173
f 166 173 174
f 169 175 176
f 169 176 177
f 169 177 170
f 170 177 178
f 173 179 174
f 173 180 181
f 173 181 179
f 174 179 182
f 175 183 176
f 176 183 177
f 177 183 184
f 177 184 178
f 178 184 185
f 179 181 182
f 180 186 181
f 181 186 187
f 181 187 188
f 181 188 189
f 181 189 182
f 183 190 184
f 184 190 191
f 184 191 185
f 185 191 192
f 186 193 187
f 187 194 195
f 187 195 188
f 187 193 196
f 187 196 197
f 187 197 198
f 187 198 199
f 187 199 194
f 188 195 189
f 190 200 191
f 191 200 201
f 191 201 192
f 192 201 202
f 192 202 203
f 192 203 204
f 197 205 206
f 197 206 207
f 197 207 198
f 198 207 199
f 203 208 209
f 203 209 204
f 205 210 211
f 205 211 206
f 205 212 210
f 208 213 209
f 208 214 213
f 210 212 215
f 212 216 215
f 213 214 217
f 214 218 217
f 215 216 220
f 215 220 219
f 217 218 221
f 218 222 223
f 218 223 221
f 219 220 224
f 220 225 224
f 222 226 223
f 223 226 227
f 224 225 229
f 224 229 230
f 224 230 227
f 224 227 228
f 226 231 227
f 227 231 232
f 227 232 233
f 227 233 228

