# https://github.com/mikedh/trimesh
v 18.08613617 28.11609642 -3.84969662
v 21.53996283 28.11609642 -3.84969662
v 18.50806967 27.69576076 -3.84969662
v 10.14776019 32.60240504 -3.67717588
v 16.36022760 29.84259807 -3.81467272
v 19.81405426 29.84259807 -3.81207912
v 23.26788092 28.11609642 -3.72387098
v 23.68780490 27.69576076 -3.73295373
v 21.95988809 27.69576076 -3.84969662
v 16.78015158 27.69576076 -3.67717588
v 8.41381416 32.60240504 -3.39179750
v 11.87567764 32.60240504 -3.69533623
v 18.08613617 31.56909971 -3.64085518
v 19.83816471 31.63971614 -3.38401670
v 23.26788092 29.49335742 -3.27764820
v 24.92145814 28.08246967 -3.32304650
v 25.33133706 27.69576076 -3.32694205
v 21.23456381 31.11081206 -3.22965116
v 15.28731069 27.69576076 -3.25170705
v 8.24303149 32.14556085 -3.21149081
v 8.01197270 32.60240504 -3.31007850
v 15.32950430 32.60240504 -3.56561504
v 17.23825140 32.60240504 -3.44238814
v 18.08613617 32.60240504 -3.35028960
v 18.62460415 32.60240504 -3.27764820
v 19.30974307 32.60240504 -3.13625581
v 24.29659599 29.10520762 -3.08696711
v 25.71710425 27.69576076 -3.20371001
v 15.07835346 27.69576076 -3.15960336
v 10.25223880 30.67318316 -3.00135257
v 8.07224947 32.00192479 -2.09334027
v 7.32683314 32.60240504 -2.09334027
v 7.38710991 32.60240504 -2.28531816
v 19.42828708 32.60240504 -2.98448902
v 22.38583807 30.68951410 -2.85866338
v 25.30722533 28.53643208 -2.09334027
v 26.35402355 27.69576076 -2.09334027
v 25.98232047 27.69576076 -2.92871117
v 14.65641996 27.69576076 -2.32293566
v 14.57203403 27.69576076 -2.09334027
v 14.06973237 27.69576076 -0.45891401
v 9.46262063 29.85316544 9.40211430
v 6.01883967 32.60240504 9.40211430
v 13.74825842 27.69576076 0.93294114
v 12.30765748 27.69576076 9.40211430
v 19.89040466 32.60240504 -2.09334027
v 20.40476091 32.23923666 -2.09334027
v 21.70270740 31.27318226 -2.20748956
v 22.47223481 30.75724875 -1.70678574
v 24.44326821 29.21665782 -2.09334027
v 25.38156749 28.61665615 -0.36681546
v 26.46452946 27.75340662 -0.36681546
v 26.40626350 27.69576076 -1.61339039
v 20.13552692 32.60240504 9.40211430
v 26.49466720 27.69576076 9.40211430
v 20.10538918 32.60240504 -0.36681546
v 20.51727762 32.31081283 -0.36681546
v 22.51844619 30.79231639 -0.36681546
v 24.51760780 29.27382252 -0.36681546
v 25.40567665 28.62770469 1.35970677
v 24.54171696 29.29159692 1.35970677
v 22.63096162 30.88070722 8.26580084
v 22.64100924 30.89271806 9.40211430
v 26.46452946 27.76445515 1.35970677
v 26.53083351 27.69576076 -0.36681546
v 25.42175028 28.62866699 3.08493220
v 20.27617185 32.52938799 9.40211430
v 20.14557326 32.60240504 9.12970907
v 26.51676941 27.69576076 6.66899208
v 26.44041772 27.74283667 9.40211430
v 20.12949963 32.60240504 0.56325016
v 20.53736902 32.32858722 1.35970677
v 21.53996283 31.67574352 6.53927603
v 23.42861725 30.17214227 3.08493220
v 24.56381917 29.32570482 4.81145700
v 22.61086893 30.86293539 6.53927603
v 23.50496636 30.19519907 9.40211430
v 24.56180964 29.33531247 6.53927603
v 20.59362674 32.38191041 6.53927603
v 21.53996283 31.69640227 8.26580084
v 21.53996283 31.69880289 9.40211430
v 25.42777886 28.62290086 4.81145700
v 26.46051041 27.76541488 3.08493220
v 26.54288809 27.69576076 1.35970677
v 20.57152581 32.37518455 9.40211430
v 20.59362674 32.38479219 8.26580084
v 20.17571229 32.60240504 8.26580084
v 26.52882399 27.69576076 4.95673980
v 26.45649393 27.75965133 4.81145700
v 26.45046535 27.75340662 6.53927603
v 26.44443677 27.74716191 8.26580084
v 25.42576933 28.61665615 6.53927603
v 25.76532515 28.31113105 9.40211430
v 20.15561960 32.60240504 2.30404234
v 23.86662438 29.90024392 9.40211430
v 24.55578364 29.33531247 8.26580084
v 20.19781321 32.60240504 5.76487018
v 26.53886904 27.69576076 3.24318814
v 20.19379416 32.60240504 7.46545126
v 24.54975506 29.33243069 9.40211430
v 25.41371475 28.60656993 9.40211430
f 1 2 9
f 1 9 3
f 1 3 4
f 1 4 5
f 1 5 2
f 2 6 7
f 2 7 8
f 2 8 9
f 2 5 6
f 3 10 4
f 3 9 8
f 3 8 17
f 3 17 28
f 3 28 38
f 3 38 37
f 3 37 53
f 3 53 65
f 3 65 84
f 3 84 98
f 3 98 88
f 3 88 69
f 3 69 55
f 3 55 45
f 3 45 44
f 3 44 41
f 3 41 40
f 3 40 39
f 3 39 29
f 3 29 19
f 3 19 10
f 4 11 21
f 4 21 33
f 4 33 32
f 4 32 43
f 4 43 54
f 4 54 68
f 4 68 87
f 4 87 99
f 4 99 97
f 4 97 94
f 4 94 71
f 4 71 56
f 4 56 46
f 4 46 34
f 4 34 26
f 4 26 25
f 4 25 24
f 4 24 23
f 4 23 22
f 4 22 12
f 4 12 5
f 4 10 11
f 5 12 6
f 6 13 14
f 6 14 7
f 6 12 13
f 7 15 16
f 7 16 17
f 7 17 8
f 7 14 18
f 7 18 15
f 10 19 20
f 10 20 21
f 10 21 11
f 12 22 13
f 13 23 24
f 13 24 25
f 13 25 14
f 13 22 23
f 14 25 26
f 14 26 18
f 15 27 16
f 15 18 27
f 16 27 28
f 16 28 17
f 18 26 27
f 19 29 20
f 20 29 30
f 20 30 31
f 20 31 32
f 20 32 33
f 20 33 21
f 26 34 35
f 26 35 27
f 27 36 37
f 27 37 38
f 27 38 28
f 27 35 36
f 29 39 30
f 30 39 40
f 30 40 41
f 30 41 31
f 31 42 43
f 31 43 32
f 31 41 44
f 31 44 45
f 31 45 42
f 34 46 35
f 35 46 47
f 35 47 48
f 35 48 49
f 35 49 50
f 35 50 36
f 36 50 51
f 36 51 52
f 36 52 53
f 36 53 37
f 42 45 55
f 42 55 70
f 42 70 93
f 42 93 101
f 42 101 100
f 42 100 95
f 42 95 77
f 42 77 63
f 42 63 81
f 42 81 85
f 42 85 67
f 42 67 54
f 42 54 43
f 46 56 47
f 47 57 49
f 47 49 48
f 47 56 57
f 49 57 58
f 49 58 59
f 49 59 51
f 49 51 50
f 51 60 52
f 51 59 61
f 51 61 62
f 51 62 63
f 51 63 60
f 52 64 65
f 52 65 53
f 52 60 66
f 52 66 64
f 54 67 68
f 55 69 70
f 56 71 72
f 56 72 57
f 57 72 73
f 57 73 74
f 57 74 58
f 58 74 61
f 58 61 59
f 60 63 75
f 60 75 66
f 61 74 76
f 61 76 62
f 62 76 73
f 62 73 63
f 63 77 78
f 63 78 66
f 63 66 75
f 63 73 79
f 63 79 80
f 63 80 81
f 64 66 82
f 64 82 83
f 64 83 84
f 64 84 65
f 66 78 82
f 67 85 86
f 67 86 68
f 68 86 87
f 69 88 89
f 69 89 90
f 69 90 91
f 69 91 70
f 70 91 92
f 70 92 93
f 71 94 79
f 71 79 72
f 72 79 73
f 73 76 74
f 77 95 78
f 78 95 96
f 78 96 82
f 79 86 81
f 79 81 80
f 79 94 97
f 79 97 86
f 81 86 85
f 82 92 83
f 82 96 92
f 83 89 88
f 83 88 98
f 83 98 84
f 83 92 89
f 86 97 99
f 86 99 87
f 89 92 90
f 90 92 91
f 92 96 100
f 92 100 101
f 92 101 93
f 95 100 96

