# https://github.com/mikedh/trimesh
v 16.24454994 9.22048105 9.40005074
v 16.34034076 9.14031358 9.40211430
v 16.24454994 9.23592172 9.40211430
v 16.24454994 10.40696705 6.39150514
v 18.08821517 8.67474559 9.40211430
v 16.36144078 10.36955539 6.39150514
v 16.24454994 14.19683478 9.40211430
v 16.24454994 13.63803225 6.39150514
v 18.16712700 8.67474559 9.40211430
v 18.08821517 10.22050313 6.39150514
v 20.55557955 14.74078843 9.40211430
v 20.55557955 14.45812201 6.39150514
v 20.55557955 9.16703565 9.40211430
v 20.55557955 10.44794233 6.39150514
f 1 2 3
f 1 3 7
f 1 7 8
f 1 8 4
f 1 4 2
f 2 5 9
f 2 9 13
f 2 13 11
f 2 11 7
f 2 7 3
f 2 4 6
f 2 6 5
f 4 8 12
f 4 12 14
f 4 14 10
f 4 10 6
f 5 6 10
f 5 10 9
f 7 11 12
f 7 12 8
f 9 10 14
f 9 14 13
f 11 13 14
f 11 14 12

