# https://github.com/mikedh/trimesh
v -0.01545152 -35.43352059 16.85783810
v -14.58418621 -35.43352059 16.85783810
v -0.01545152 -38.27853043 16.85783810
v -0.01545152 -35.43352059 7.85822991
v -13.03421149 -35.97108030 16.85783810
v -16.37117561 -35.43352059 10.61503675
v -16.54509993 -37.50008493 8.26483853
v -15.74709437 -38.54629651 9.40063224
v -14.74446968 -38.91346079 9.98343844
v -14.18518343 -38.62946669 11.13820558
v -12.88586424 -38.83688268 11.71559044
v -0.90724095 -38.26230241 16.85783810
v -4.02424112 -40.61438151 13.20377931
v -2.27476501 -40.61438151 13.24172873
v -0.90724095 -40.61438151 13.25257142
v -0.54063566 -40.61438151 13.25528338
v -0.01545152 -40.61438151 13.25799534
v -0.01545152 -36.06794407 -2.09284625
v -1.93885195 -35.43352059 -0.72392954
v -11.57461011 -36.46502738 16.85783810
v -5.80099957 -40.61438151 12.87849345
v -16.87930773 -35.43352059 8.76361002
v -15.98240314 -38.78718487 8.26483853
v -16.93046187 -37.50008493 6.53810531
v -14.53644260 -40.61438151 5.49176508
v -12.99158433 -39.60011650 9.99156918
v -14.25679948 -40.61438151 5.90108566
v -13.99932288 -40.61438151 6.25890217
v -13.11946967 -40.61438151 7.26729041
v -6.64845464 -40.61438151 12.31195128
v -0.94304897 -38.25875422 16.85783810
v -4.36015419 -40.61438151 13.16040855
v -0.01545152 -40.61438151 -7.78265493
v -0.01545152 -36.40011532 -3.20424005
v -6.16931012 -36.34686418 -10.83222471
v -7.81306678 -35.72613687 -10.83222471
v -8.86684496 -35.43352059 -10.83222471
v -2.45721567 -35.43352059 -2.26904126
v -2.39071478 -35.43352059 -2.14976651
v -10.73227019 -36.74902148 16.85783810
v -5.43950879 -40.61438151 12.95981363
v -7.81306678 -37.51478972 16.85783810
v -7.85569523 -37.50667700 16.85783810
v -9.53867109 -37.12480536 16.85783810
v -9.56936332 -37.11516941 16.85783810
v -17.18452793 -35.43352059 6.97453262
v -16.82985822 -40.61438151 -2.09284625
v -17.22715766 -35.43352059 6.70346020
v -17.04641099 -40.61438151 -3.81957689
v -17.01572005 -40.61438151 -3.48073638
v -2.63113999 -38.08734245 16.85783810
v -6.08746312 -37.73082789 16.85783810
v -6.12838630 -37.72626336 16.85783810
v -5.29457207 -40.61438151 -10.83222471
v -5.35425190 -39.72588554 -10.83222471
v -5.36277758 -39.61736085 -10.83222471
v -5.39688034 -39.22585327 -10.83222471
v -5.55375329 -37.63853122 -10.83222471
v -5.57080466 -37.50008493 -10.83222471
v -0.01545152 -40.07225727 -7.54140378
v -0.01545152 -38.41545606 -6.31615401
v -0.01545152 -38.86173287 -6.75800266
v -0.01545152 -39.27910184 -7.14563785
v -17.34822194 -35.43352059 -10.83222471
v -17.24761829 -35.43352059 6.31582758
v -17.43177421 -35.43352059 -3.69759534
v -17.05323205 -40.61438151 -5.54630754
v -17.29877242 -35.43352059 4.81137467
v -17.04811690 -40.61438151 -10.83222471
v -17.34822194 -35.57551764 -10.83222471
v -17.29365727 -36.50559870 -10.83222471
v -17.12655272 -39.31206733 -10.83222471
f 1 2 5
f 1 5 20
f 1 20 40
f 1 40 45
f 1 45 44
f 1 44 43
f 1 43 42
f 1 42 53
f 1 53 52
f 1 52 51
f 1 51 31
f 1 31 12
f 1 12 3
f 1 3 17
f 1 17 33
f 1 33 60
f 1 60 63
f 1 63 62
f 1 62 61
f 1 61 34
f 1 34 18
f 1 18 4
f 1 4 19
f 1 19 39
f 1 39 38
f 1 38 37
f 1 37 64
f 1 64 66
f 1 66 68
f 1 68 65
f 1 65 48
f 1 48 46
f 1 46 22
f 1 22 6
f 1 6 2
f 2 6 7
f 2 7 8
f 2 8 9
f 2 9 10
f 2 10 11
f 2 11 5
f 3 12 13
f 3 13 14
f 3 14 15
f 3 15 16
f 3 16 17
f 4 18 19
f 5 11 21
f 5 21 20
f 6 22 7
f 7 23 8
f 7 22 24
f 7 24 23
f 8 23 25
f 8 25 9
f 9 26 10
f 9 25 27
f 9 27 28
f 9 28 29
f 9 29 26
f 10 26 11
f 11 26 30
f 11 30 21
f 12 31 32
f 12 32 13
f 13 32 41
f 13 41 21
f 13 21 30
f 13 30 29
f 13 29 28
f 13 28 27
f 13 27 25
f 13 25 47
f 13 47 50
f 13 50 49
f 13 49 67
f 13 67 69
f 13 69 54
f 13 54 33
f 13 33 17
f 13 17 16
f 13 16 15
f 13 15 14
f 18 34 35
f 18 35 36
f 18 36 37
f 18 37 38
f 18 38 39
f 18 39 19
f 20 21 40
f 21 41 42
f 21 42 43
f 21 43 44
f 21 44 45
f 21 45 40
f 22 46 24
f 23 24 47
f 23 47 25
f 24 46 48
f 24 48 49
f 24 49 50
f 24 50 47
f 26 29 30
f 31 51 32
f 32 51 52
f 32 52 53
f 32 53 42
f 32 42 41
f 33 54 55
f 33 55 56
f 33 56 57
f 33 57 58
f 33 58 59
f 33 59 35
f 33 35 60
f 34 61 35
f 35 59 58
f 35 58 57
f 35 57 56
f 35 56 55
f 35 55 54
f 35 54 69
f 35 69 72
f 35 72 71
f 35 71 70
f 35 70 64
f 35 64 37
f 35 37 36
f 35 61 62
f 35 62 63
f 35 63 60
f 48 65 49
f 49 66 67
f 49 65 68
f 49 68 66
f 64 70 66
f 66 70 71
f 66 71 72
f 66 72 69
f 66 69 67

