# https://github.com/mikedh/trimesh
v 13.64152456 -17.23565964 9.42136046
v 16.22760019 -17.48541976 3.08590995
v 16.39601440 -17.48541976 1.35983285
v 13.35339305 -17.23565964 7.18495646
v 8.53328831 -17.23565964 9.42136046
v 16.35746161 -21.46606893 9.42136046
v 17.13764775 -20.18469138 4.37969715
v 17.13764775 -19.84340392 3.66606079
v 17.13764775 -19.59209228 3.08590995
v 17.13764775 -19.56727103 2.56223423
v 17.13764775 -19.51297524 1.35983285
v 17.13764775 -20.11953617 -0.18449667
v 15.97700770 -17.48541976 0.01573031
v 9.42608830 -17.23565964 7.18495646
v 14.63273535 -17.48541976 -0.65785963
v 12.90699274 -17.48541976 -0.84884433
v 9.80248456 -17.48541976 -0.00274910
v 9.28100813 -17.48541976 1.35983285
v 6.77406690 -17.77706472 9.42136046
v 16.35746161 -33.08224170 9.42136046
v 17.13764775 -21.91284490 7.18495646
v 17.13764775 -20.87657288 -0.53361382
v 11.09400044 -17.48541976 -0.52540075
v 17.13764775 -21.97179399 -0.87862442
v 17.13764775 -22.60627794 -1.00697677
v 17.13764775 -23.07477274 -1.06858507
v 9.34593949 -27.10040853 -1.06858507
v 7.39598295 -28.23441400 -1.06858507
v 7.39598295 -21.96093458 -0.84884433
v 7.39598295 -20.23433258 -0.73692327
v 7.39598295 -18.94674892 -0.06333334
v 7.39598295 -18.49687053 1.35983285
v 6.77406690 -18.58994875 7.18495646
v 6.77406690 -33.08224170 9.42136046
v 17.13764775 -33.08379323 7.18495646
v 17.13764775 -33.08379323 -1.06858507
v 7.39598295 -33.08379323 -1.06858507
v 6.77406690 -33.08224170 7.18495646
v 7.39598295 -33.08379323 7.18495646
f 1 2 3
f 1 3 4
f 1 4 14
f 1 14 5
f 1 5 19
f 1 19 34
f 1 34 20
f 1 20 6
f 1 6 2
f 2 6 7
f 2 7 8
f 2 8 9
f 2 9 3
f 3 9 10
f 3 10 11
f 3 11 12
f 3 12 13
f 3 13 4
f 4 13 15
f 4 15 16
f 4 16 14
f 5 14 17
f 5 17 18
f 5 18 19
f 6 20 35
f 6 35 21
f 6 21 7
f 7 21 35
f 7 35 36
f 7 36 26
f 7 26 25
f 7 25 24
f 7 24 22
f 7 22 12
f 7 12 11
f 7 11 10
f 7 10 9
f 7 9 8
f 12 22 13
f 13 22 15
f 14 16 23
f 14 23 17
f 15 22 24
f 15 24 25
f 15 25 26
f 15 26 16
f 16 26 27
f 16 27 28
f 16 28 29
f 16 29 30
f 16 30 23
f 17 23 31
f 17 31 32
f 17 32 18
f 18 32 19
f 19 32 31
f 19 31 33
f 19 33 38
f 19 38 34
f 20 34 39
f 20 39 35
f 23 30 31
f 26 36 37
f 26 37 28
f 26 28 27
f 28 37 38
f 28 38 33
f 28 33 29
f 29 33 30
f 30 33 31
f 34 38 37
f 34 37 39
f 35 39 37
f 35 37 36

