# https://github.com/mikedh/trimesh
v -4.05614878 -40.61438151 13.20054246
v -4.35996218 -40.61438151 13.16183658
v -5.42671479 -42.13889108 12.68043295
v -4.35996218 -42.31682288 12.73244390
v -4.05614878 -40.64712057 13.19207724
v -4.05614878 -40.61438151 0.84491568
v -5.43897618 -40.61438151 12.95984193
v -5.80001024 -40.61438151 12.87879964
v -6.64787186 -40.61438151 12.31272834
v -6.16921814 -44.32530395 11.36322615
v -5.64878443 -45.82846007 11.15155439
v -4.35996218 -44.40786175 12.06960660
v -4.35996218 -43.17942916 12.47117982
v -4.05614878 -43.18512325 12.47360103
v -4.05614878 -42.32109151 12.73365579
v -8.69509226 -40.61438151 0.84491568
v -4.05614878 -55.15629765 0.84491568
v -7.53933001 -40.61438151 11.49869545
v -6.98256595 -43.69471684 10.90964197
v -5.78593198 -47.86114036 9.66863762
v -5.43261825 -48.92872599 9.28399742
v -4.35996218 -46.97575774 10.84190732
v -4.35996218 -46.11172600 11.31726178
v -6.79955117 -44.84628315 10.52258313
v -4.05614878 -45.81138039 11.45273366
v -4.05614878 -44.40786175 12.07202524
v -4.05614878 -44.19577060 12.14218110
v -8.69509226 -40.61438151 6.65199988
v -8.69509226 -46.00496899 0.84491568
v -4.05614878 -54.98405994 1.36018792
v -4.35996218 -54.98405994 1.36018792
v -4.35996218 -55.15487735 0.84491568
v -8.10926341 -40.61438151 9.99279650
v -8.69509226 -40.61865272 8.44698493
v -6.91490013 -46.83056758 8.95862664
v -6.70781670 -48.02341278 8.33570455
v -5.84678511 -49.53795964 8.23531060
v -5.47984790 -50.67529201 7.63899863
v -4.35996218 -49.91801987 8.65139821
v -4.35996218 -49.05398814 9.37471425
v -4.35996218 -47.86114036 10.22503181
v -4.05614878 -47.86114036 10.22866233
v -4.05614878 -46.97718062 10.84311663
v -4.05614878 -46.82487349 10.92778431
v -4.05614878 -46.11314888 11.31847110
v -8.33769130 -40.61438151 8.91266228
v -8.64604543 -47.95081770 0.84491568
v -8.69509226 -42.70257463 6.46935689
v -4.05614878 -54.86306642 1.64201554
v -4.99256589 -55.14063827 0.84491568
v -4.05614878 -54.29653970 2.93987069
v -4.35996218 -54.29511425 2.93624273
v -8.69509226 -40.82078116 8.26313005
v -8.01798309 -53.07664180 0.84491568
v -6.94759802 -48.70951529 7.38378372
v -7.40990279 -54.38194325 0.84491568
v -5.41536135 -52.30940951 5.85853054
v -4.35996218 -50.81763642 7.78898490
v -4.05614878 -49.92228851 8.65744737
v -4.05614878 -49.05825935 9.37834220
v -8.13741929 -52.14571164 0.84491568
v -6.16331435 -54.92712424 0.84491568
v -4.05614878 -54.21397675 3.09227559
v -4.35996218 -53.80829442 3.79986536
v -5.73279855 -54.15846135 2.68223457
v -6.87629909 -54.67659479 0.84491568
v -4.35996218 -52.39623852 5.97464820
v -4.35996218 -51.68024528 6.83827339
v -4.35996218 -53.16632171 4.81347425
v -4.05614878 -50.82190763 7.79382217
v -4.05614878 -50.66390384 7.94622707
v -4.05614878 -51.53362966 7.01123927
v -4.05614878 -53.81256563 3.80349331
v -4.05614878 -53.70296028 3.97767108
v -4.05614878 -53.03394002 5.02272737
v -4.05614878 -52.39908428 5.97948804
v -4.05614878 -52.27524500 6.13189037
v -4.05614878 -51.68593936 6.84311066
v -4.05614878 -53.17201322 4.81347425
f 1 2 3
f 1 3 4
f 1 4 5
f 1 5 15
f 1 15 14
f 1 14 27
f 1 27 26
f 1 26 25
f 1 25 45
f 1 45 44
f 1 44 43
f 1 43 42
f 1 42 60
f 1 60 59
f 1 59 71
f 1 71 70
f 1 70 72
f 1 72 78
f 1 78 77
f 1 77 76
f 1 76 75
f 1 75 79
f 1 79 74
f 1 74 73
f 1 73 63
f 1 63 51
f 1 51 49
f 1 49 30
f 1 30 17
f 1 17 6
f 1 6 16
f 1 16 28
f 1 28 46
f 1 46 33
f 1 33 18
f 1 18 9
f 1 9 8
f 1 8 7
f 1 7 2
f 2 7 3
f 3 7 8
f 3 8 9
f 3 9 10
f 3 10 11
f 3 11 12
f 3 12 13
f 3 13 4
f 4 13 14
f 4 14 15
f 4 15 5
f 6 17 32
f 6 32 50
f 6 50 62
f 6 62 66
f 6 66 56
f 6 56 54
f 6 54 61
f 6 61 47
f 6 47 29
f 6 29 16
f 9 18 19
f 9 19 10
f 10 19 11
f 11 20 21
f 11 21 22
f 11 22 23
f 11 23 12
f 11 19 24
f 11 24 20
f 12 25 26
f 12 26 27
f 12 27 14
f 12 14 13
f 12 23 25
f 16 29 48
f 16 48 53
f 16 53 34
f 16 34 28
f 17 30 31
f 17 31 32
f 18 33 34
f 18 34 19
f 19 34 35
f 19 35 24
f 20 35 36
f 20 36 21
f 20 24 35
f 21 36 37
f 21 37 38
f 21 38 39
f 21 39 40
f 21 40 41
f 21 41 22
f 22 41 42
f 22 42 43
f 22 43 44
f 22 44 23
f 23 45 25
f 23 44 45
f 28 34 46
f 29 47 48
f 30 49 31
f 31 50 32
f 31 49 51
f 31 51 52
f 31 52 50
f 33 46 34
f 34 53 54
f 34 54 35
f 35 54 55
f 35 55 36
f 36 55 37
f 37 55 38
f 38 56 57
f 38 57 58
f 38 58 39
f 38 55 56
f 39 59 40
f 39 58 59
f 40 59 60
f 40 60 41
f 41 60 42
f 47 61 48
f 48 61 54
f 48 54 53
f 50 52 62
f 51 63 52
f 52 63 64
f 52 64 65
f 52 65 62
f 54 56 55
f 56 66 65
f 56 65 57
f 57 67 68
f 57 68 58
f 57 65 64
f 57 64 69
f 57 69 67
f 58 70 71
f 58 71 59
f 58 68 72
f 58 72 70
f 62 65 66
f 63 73 64
f 64 73 74
f 64 74 69
f 67 69 75
f 67 75 76
f 67 76 77
f 67 77 78
f 67 78 68
f 68 78 72
f 69 74 79
f 69 79 75

