# https://github.com/mikedh/trimesh
v -17.25222013 21.47258381 9.09915450
v -17.25222013 22.10568476 7.20143663
v -13.41328369 18.76516602 7.20143663
v -13.52548392 18.76516602 9.09915450
v -17.25222013 28.53424244 9.09915450
v -17.25222013 28.53424244 7.20143663
v -10.14547453 18.76516602 7.20143663
v -9.29229063 18.76516602 9.09915450
v -12.43621291 28.53424244 9.09915450
v -12.92786487 28.53424244 7.20143663
v -10.19534087 19.19839249 7.20143663
v -9.32423656 19.48242518 9.09915450
v -12.45179639 28.53424244 8.96429242
f 1 2 3
f 1 3 4
f 1 4 8
f 1 8 12
f 1 12 9
f 1 9 5
f 1 5 6
f 1 6 2
f 2 6 10
f 2 10 11
f 2 11 7
f 2 7 3
f 3 7 8
f 3 8 4
f 5 9 13
f 5 13 10
f 5 10 6
f 7 11 12
f 7 12 8
f 9 12 13
f 10 13 12
f 10 12 11

