# https://github.com/mikedh/trimesh
v -32.42390388 16.07511094 32.45497138
v -31.38542936 17.78916176 35.91231214
v -32.39903053 16.21645444 32.45497138
v -32.26666685 14.30272984 32.45497138
v -31.66525774 16.02799901 35.89360952
v -32.01082412 17.75438744 32.45497138
v -31.21575437 17.23613308 36.82206830
v -30.90927468 18.38706127 36.50100475
v -31.18554973 18.70452002 35.34944810
v -32.26311351 14.26907736 32.45497138
v -31.37476935 14.27805204 35.91988259
v -31.20864770 14.83668732 36.81717056
v -31.25661902 16.02799901 36.85101344
v -31.38187602 19.02085694 32.45497138
v -30.30431224 17.78916176 36.89465309
v -29.75797854 18.93896812 36.83052966
v -30.25989426 16.02799901 36.98549536
v -29.05529809 20.08989374 36.42797483
v -30.18882755 19.39664596 35.88871114
v -29.46837784 20.39389047 35.27686331
v -29.83970783 20.76631657 32.45497138
v -30.69607198 19.89134179 32.45497138
v -30.71028532 19.87676051 32.45497138
v -31.81361014 12.99139209 32.45497138
v -31.19443436 13.34138148 35.36191629
v -30.91815931 13.68576170 36.51302781
v -30.30964096 14.27805204 36.89509822
v -27.10360091 9.73716202 37.00419797
v -26.80778380 19.48190029 36.95387878
v -28.50097003 19.50096891 36.87951282
v -27.90400195 20.39837781 36.79802217
v -27.64815922 11.40634330 37.00419797
v -27.73255158 12.55053920 37.00419797
v -24.35417091 17.77906782 37.00419797
v -28.50097003 20.53972131 35.86867249
v -28.68752143 21.19595111 32.71369331
v -28.85630873 21.19595111 32.45497138
v -31.76297576 12.85565776 32.45497138
v -31.65459774 12.74123830 32.45497138
v -28.59335676 9.73716202 32.45497138
v -23.34945436 9.73716202 37.00419797
v -23.54666577 18.07072436 37.00419797
v -25.79329237 20.39837781 36.80024848
v -26.80778380 20.42529928 36.82028777
v -26.80778380 20.74163619 35.89360952
v -28.53295005 21.19595111 32.85307360
v -24.98489696 21.19595111 32.45497138
v -23.34945436 9.73716202 32.45497138
v -23.34945436 17.82505791 37.00419797
v -23.35656103 17.85310379 37.00419797
v -23.34945436 17.85646929 36.99885446
v -23.99616914 18.83464260 36.83008389
v -24.60735057 20.03717007 35.89360952
v -25.47082138 20.53523397 35.89360952
v -25.13680527 21.19595111 32.66738159
v -25.61473533 21.19595111 32.92075937
v -26.77846685 21.19595111 33.50321693
v -23.72522281 20.72817675 32.45497138
v -25.05063496 21.19595111 32.56629807
v -23.34945436 20.38716203 32.45497138
v -23.34945436 19.07357804 35.73285454
f 1 2 3
f 1 3 6
f 1 6 14
f 1 14 23
f 1 23 22
f 1 22 21
f 1 21 37
f 1 37 47
f 1 47 58
f 1 58 60
f 1 60 48
f 1 48 40
f 1 40 39
f 1 39 38
f 1 38 24
f 1 24 10
f 1 10 4
f 1 4 5
f 1 5 2
f 2 6 3
f 2 5 7
f 2 7 8
f 2 8 9
f 2 9 6
f 4 10 5
f 5 10 11
f 5 11 12
f 5 12 13
f 5 13 7
f 6 9 14
f 7 15 16
f 7 16 8
f 7 13 17
f 7 17 15
f 8 16 18
f 8 18 19
f 8 19 9
f 9 19 20
f 9 20 21
f 9 21 22
f 9 22 23
f 9 23 14
f 10 24 25
f 10 25 11
f 11 25 26
f 11 26 12
f 12 27 17
f 12 17 13
f 12 26 28
f 12 28 27
f 15 29 30
f 15 30 16
f 15 17 29
f 16 30 31
f 16 31 18
f 17 27 28
f 17 28 32
f 17 32 33
f 17 33 34
f 17 34 29
f 18 31 35
f 18 35 20
f 18 20 19
f 20 35 36
f 20 36 37
f 20 37 21
f 24 38 25
f 25 38 39
f 25 39 28
f 25 28 26
f 28 40 48
f 28 48 41
f 28 41 49
f 28 49 50
f 28 50 42
f 28 42 34
f 28 34 33
f 28 33 32
f 28 39 40
f 29 34 42
f 29 42 43
f 29 43 44
f 29 44 31
f 29 31 30
f 31 44 45
f 31 45 35
f 35 45 46
f 35 46 36
f 36 46 57
f 36 57 56
f 36 56 55
f 36 55 59
f 36 59 47
f 36 47 37
f 41 48 60
f 41 60 61
f 41 61 51
f 41 51 49
f 42 50 51
f 42 51 52
f 42 52 43
f 43 53 54
f 43 54 55
f 43 55 45
f 43 45 44
f 43 52 53
f 45 55 56
f 45 56 57
f 45 57 46
f 47 59 58
f 49 51 50
f 51 61 52
f 52 61 53
f 53 58 54
f 53 61 58
f 54 58 59
f 54 59 55
f 58 61 60

