# https://github.com/mikedh/trimesh
v -24.58085622 -17.64353418 7.79485652
v -21.98835705 -17.64353418 7.79485652
v -24.58085622 -17.64353418 9.11772910
v -24.58085622 -9.07184465 7.79485652
v -21.60417484 -17.64353418 9.11772910
v -17.03313165 -13.41820981 7.79485652
v -24.58085622 -7.33894713 9.11772910
v -23.35294595 -7.34298162 9.11772910
v -21.62633881 -7.36012917 9.11772910
v -19.90046883 -7.38332844 9.11772910
v -18.17386041 -7.41459735 9.11772910
v -17.03313165 -7.45090968 9.11772910
v -17.03313165 -9.58424959 7.79485652
v -17.03313165 -13.68046450 9.11772910
f 1 2 5
f 1 5 3
f 1 3 7
f 1 7 4
f 1 4 13
f 1 13 6
f 1 6 2
f 2 6 5
f 3 5 14
f 3 14 12
f 3 12 11
f 3 11 10
f 3 10 9
f 3 9 8
f 3 8 7
f 4 7 8
f 4 8 9
f 4 9 10
f 4 10 11
f 4 11 12
f 4 12 13
f 5 6 14
f 6 13 12
f 6 12 14

