# https://github.com/mikedh/trimesh
v -5.02859938 -33.08379323 7.18583129
v 6.77189785 -33.08379323 7.18583129
v -5.02859938 -33.08379323 9.42136046
v -5.02859938 -21.82942385 7.18583129
v 6.77189785 -33.08379323 9.42136046
v 6.77189785 -18.59014108 7.18583129
v -5.02859938 -16.59686010 9.42136046
v -5.02859938 -16.59686010 9.15789389
v -4.61037166 -21.21126441 7.18583129
v 6.77189785 -17.77668842 9.42136046
v 1.89988894 -18.67891014 7.18583129
v -4.54220731 -16.59686010 9.16095835
v -4.35851067 -16.59686010 9.16292671
v -2.55273649 -16.59686010 9.42136046
v 0.17498763 -18.75799630 7.18583129
v -0.90524204 -18.84030967 7.18583129
v -1.50716671 -18.90325529 7.18583129
v -2.20267280 -19.05012885 7.18583129
v -3.43656099 -20.00561202 7.18583129
v -4.05928110 -20.55759734 7.18583129
f 1 2 5
f 1 5 3
f 1 3 7
f 1 7 8
f 1 8 4
f 1 4 9
f 1 9 20
f 1 20 19
f 1 19 18
f 1 18 17
f 1 17 16
f 1 16 15
f 1 15 11
f 1 11 6
f 1 6 2
f 2 6 10
f 2 10 5
f 3 5 10
f 3 10 14
f 3 14 7
f 4 8 9
f 6 11 8
f 6 8 12
f 6 12 13
f 6 13 14
f 6 14 10
f 7 14 13
f 7 13 12
f 7 12 8
f 8 11 15
f 8 15 16
f 8 16 17
f 8 17 18
f 8 18 19
f 8 19 20
f 8 20 9

