# https://github.com/mikedh/trimesh
v -12.99271646 -19.74528645 -0.84969857
v -12.99271646 -16.78902582 -0.84969857
v -11.75430056 -19.74528645 -0.84715643
v -14.71963364 -19.74528645 -0.69231231
v -12.98303420 -16.78902582 -0.84884948
v -11.26667924 -18.50560142 -0.79554173
v -11.26667924 -19.74528645 -0.83192932
v -14.70907141 -16.78902582 -0.47400217
v -16.36381292 -19.74528645 -0.11861202
v -14.71963364 -16.78902582 -0.47146003
v -11.26667924 -16.78902582 -0.58907776
v -9.85926828 -18.50560142 -0.12284206
v -9.99041556 -19.74528645 -0.32761299
v -17.47812324 -19.74528645 0.87986496
v -15.94836728 -16.78902582 0.20123964
v -10.13828552 -16.78902582 0.08362191
v -9.56616763 -19.74528645 -0.12453510
v -17.47812324 -19.74528645 3.38874624
v -17.47812324 -19.64053253 1.15317590
v -16.36469289 -16.78902582 1.35963987
v -10.13476563 -16.78902582 0.09208714
v -8.95620196 -19.74528645 1.19971662
v -15.95892951 -16.78902582 4.17483360
v -16.37613510 -16.78902582 3.08666384
v -17.47812324 -19.59741585 3.08666384
v -13.87729887 -19.74528645 7.79388392
v -13.33950759 -16.78902582 7.79388392
v -17.47812324 -19.60088813 1.26064050
v -17.47812324 -19.56442656 1.35963987
v -9.85662772 -16.78902582 1.35963987
v -8.89634909 -19.74528645 1.35963987
v -8.48706454 -19.74528645 7.79388392
v -9.30299309 -16.78902582 7.79388392
f 1 2 3
f 1 3 7
f 1 7 13
f 1 13 17
f 1 17 22
f 1 22 31
f 1 31 32
f 1 32 26
f 1 26 18
f 1 18 14
f 1 14 9
f 1 9 4
f 1 4 2
f 2 5 6
f 2 6 7
f 2 7 3
f 2 4 8
f 2 8 10
f 2 10 15
f 2 15 20
f 2 20 24
f 2 24 23
f 2 23 27
f 2 27 33
f 2 33 30
f 2 30 21
f 2 21 16
f 2 16 11
f 2 11 5
f 4 9 10
f 4 10 8
f 5 11 6
f 6 11 12
f 6 12 13
f 6 13 7
f 9 14 15
f 9 15 10
f 11 16 12
f 12 16 17
f 12 17 13
f 14 18 25
f 14 25 29
f 14 29 28
f 14 28 19
f 14 19 20
f 14 20 15
f 16 21 22
f 16 22 17
f 18 23 24
f 18 24 25
f 18 26 27
f 18 27 23
f 19 28 20
f 20 28 29
f 20 29 24
f 21 30 31
f 21 31 22
f 24 29 25
f 26 32 33
f 26 33 27
f 30 33 31
f 31 33 32

