# https://github.com/mikedh/trimesh
v -4.35978625 -56.30825248 -5.54880851
v -4.05569432 -56.30671382 -5.54880851
v -7.81422142 -56.18228275 -3.82117731
v -6.08636766 -56.29442509 -5.54880851
v -7.81422142 -56.29289157 -10.72743091
v -4.05569432 -56.22990413 -6.97106385
v -4.05569432 -56.15309445 -3.82117731
v -9.54080283 -56.21300971 -20.97148357
v -7.80277022 -56.01176381 -20.97148357
v -4.05569432 -56.11776179 -3.51793705
v -4.05569432 -55.94878152 -2.09568686
v -6.08636766 -55.95799807 -2.09568686
v -7.81422142 -55.93342061 -2.09568686
v -9.54080283 -56.09779519 -3.82117731
v -7.81422142 -56.27906418 -5.54880851
v -9.54080283 -56.20532668 -12.45292136
v -9.54080283 -56.21147105 -17.63367936
v -4.05569432 -56.16999402 -7.28925333
v -6.92739212 -55.65229285 -20.97148357
v -10.88186150 -55.87350536 -20.97148357
v -4.05569432 -55.72910254 -0.91688003
v -6.08636766 -55.73371338 -0.90833762
v -7.81422142 -55.70452509 -1.04073989
v -9.43774195 -55.81052306 -2.09141565
v -10.69737044 -55.74907429 -2.66159606
v -10.88058914 -55.81973961 -3.82117731
v -9.54080283 -56.15309445 -5.54880851
v -9.54080283 -56.19918232 -10.72743091
v -10.94547932 -55.83971136 -12.45292136
v -10.97219881 -55.84738924 -19.36130541
v -10.97856059 -55.84892791 -20.97148357
v -10.91875984 -55.83049482 -5.54880851
v -10.92512162 -55.83356700 -7.27643971
v -4.05569432 -55.85661093 -8.51930950
v -6.48461397 -54.77665424 -20.97148357
v -4.05569432 -55.45258562 -0.05413738
v -4.35978625 -55.45412429 -0.05199663
v -4.05569432 -55.15609696 0.84491568
v -4.35978625 -55.15456344 0.84491568
v -4.99214552 -55.14073605 0.84491568
v -8.79393211 -55.65997588 -1.19022699
v -9.94541093 -55.45412429 -1.51055722
v -11.26992896 -55.20525701 -2.09141565
v -12.98505916 -54.32501270 -2.14052938
v -13.95331864 -53.98550834 -2.74487945
v -11.74324431 -55.46794653 -3.82117731
v -11.78141372 -55.49406265 -5.54880851
v -11.84248683 -55.51557306 -20.97148357
v -11.80940556 -55.50481785 -12.45292136
v -4.05569432 -55.77672392 -8.65811858
v -6.09654651 -53.03920956 -20.97148357
v -4.05569432 -55.37116510 0.19785355
v -4.05569432 -40.61438151 0.84491568
v -6.16398141 -54.92720657 0.84491568
v -6.87777086 -54.67680063 0.84491568
v -12.40486714 -54.07153972 -1.11121480
v -13.55507232 -53.65215350 -1.59384061
v -14.39991450 -53.06071483 -2.14052938
v -15.57429445 -52.16049877 -3.12286583
v -14.02838767 -54.06385669 -3.82117731
v -12.99269330 -54.76436552 -3.82117731
v -12.99269330 -54.82735296 -5.54880851
v -12.99269330 -54.83656950 -12.45292136
v -12.99269330 -54.84271386 -17.63367936
v -12.91380719 -54.89187391 -20.97148357
v -4.05569432 -54.76590418 -9.39700137
v -4.05569432 -52.60139025 -9.82624224
v -4.05569432 -53.03920956 -9.83905586
v -4.05569432 -54.74132158 -9.40340819
v -6.69964094 -40.63742544 -20.97148357
v -4.05569432 -40.61591760 -9.28809074
v -4.05569432 -40.96002765 -9.36070126
v -4.05569432 -46.13396716 -9.58065813
v -4.05569432 -47.60872232 -9.63831943
v -14.89613098 -40.61438151 0.84491568
v -4.05569432 -40.61438151 -7.85302693
v -7.41088568 -54.38185063 0.84491568
v -14.09709493 -52.49999797 -1.07704515
v -15.37326340 -51.47535084 -1.92911493
v -15.89492702 -51.47535084 -3.74643633
v -15.60101394 -52.20504797 -4.27390982
v -15.02591135 -52.88405153 -3.74643633
v -15.82113034 -51.00834582 -2.39252031
v -14.91903340 -53.08222010 -5.54880851
v -14.05637952 -54.09918935 -5.54880851
v -12.99269330 -54.84578605 -20.97148357
v -6.70091330 -40.61438151 -20.97148357
v -4.05951139 -40.61438151 -9.29022634
v -16.13285641 -40.61438151 -0.63926701
v -15.77150972 -47.86066178 -1.05568911
v -15.68498947 -49.27397074 -1.13470644
v -15.57556681 -50.42458760 -1.24148147
v -14.46225869 -51.31251494 -0.90833762
v -16.45349026 -49.58582031 -3.82117731
v -16.00434968 -51.31251494 -5.54880851
v -15.60992044 -52.21887536 -5.54880851
v -15.98526433 -49.74404795 -1.92911493
v -14.92030576 -53.08375876 -7.27643971
v -14.92285047 -53.08529228 -10.72743091
v -14.92539518 -53.08836446 -17.63367936
v -14.05765187 -54.09918935 -7.27643971
v -14.06274130 -54.09765583 -17.63367936
v -14.06274130 -54.09765583 -20.97148357
v -14.05892423 -54.09918935 -10.72743091
v -17.03877170 -40.61438151 -20.97148357
v -16.70414321 -40.61438151 -1.72410728
v -16.29190098 -47.86066178 -2.09568686
v -16.62271239 -47.86066178 -3.82117731
v -16.47002961 -49.58582031 -5.54880851
v -16.00307733 -51.31251494 -7.27643971
v -15.61500986 -52.22501972 -20.97148357
v -15.61373751 -52.22501972 -17.63367936
v -15.61246515 -52.22194754 -12.45292136
v -14.92412283 -53.08529228 -12.45292136
v -14.92539518 -53.08683094 -15.90604816
v -14.92539518 -53.08836446 -20.97148357
v -17.02604813 -40.83713267 -20.97148357
v -17.04131641 -40.61438151 -19.02175989
v -16.83010523 -40.61438151 -2.09568686
v -17.01714164 -40.61438151 -3.48376739
v -16.82883416 -44.40727253 -3.82117731
v -17.05403998 -40.61438151 -5.54880851
v -16.72322856 -46.13396716 -7.27643971
v -16.61762297 -47.86066178 -7.27643971
v -16.61507825 -47.86066178 -9.00193531
v -16.46621382 -49.58582031 -7.27643971
v -15.98017491 -51.31251494 -20.97148357
v -15.98653669 -51.31251494 -17.63367936
v -15.99544319 -51.31251494 -12.45292136
v -16.91408076 -42.68057791 -20.97148357
v -16.91662547 -42.68057791 -19.36130541
v -16.91917018 -42.68057791 -17.63367936
v -17.02095871 -40.95388329 -19.36130541
v -17.04767820 -40.61438151 -3.82117731
v -16.92934904 -42.68057791 -3.82117731
v -16.82628944 -44.40727253 -7.27643971
v -16.80974752 -44.40727253 -19.36130541
v -16.59599419 -47.74390859 -20.97148357
v -16.59217584 -47.86066178 -19.36130541
v -16.58836005 -47.86066178 -20.97148357
v -16.44585612 -49.58582031 -14.18055256
v -16.01071146 -51.19576175 -20.97148357
v -16.80593174 -44.40727253 -20.97148357
v -16.42422606 -49.58582031 -20.97148357
v -16.44076669 -49.58582031 -15.90604816
f 1 2 3
f 1 3 4
f 1 4 5
f 1 5 2
f 2 6 18
f 2 18 34
f 2 34 50
f 2 50 66
f 2 66 69
f 2 69 68
f 2 68 67
f 2 67 74
f 2 74 73
f 2 73 72
f 2 72 71
f 2 71 76
f 2 76 53
f 2 53 38
f 2 38 52
f 2 52 36
f 2 36 21
f 2 21 11
f 2 11 10
f 2 10 7
f 2 7 3
f 2 5 8
f 2 8 9
f 2 9 6
f 3 7 10
f 3 10 11
f 3 11 12
f 3 12 13
f 3 13 14
f 3 14 15
f 3 15 4
f 4 15 5
f 5 16 17
f 5 17 8
f 5 15 16
f 6 9 19
f 6 19 18
f 8 20 31
f 8 31 48
f 8 48 65
f 8 65 86
f 8 86 103
f 8 103 116
f 8 116 111
f 8 111 127
f 8 127 142
f 8 142 144
f 8 144 140
f 8 140 138
f 8 138 143
f 8 143 130
f 8 130 117
f 8 117 105
f 8 105 87
f 8 87 70
f 8 70 51
f 8 51 35
f 8 35 19
f 8 19 9
f 8 17 20
f 11 21 12
f 12 21 22
f 12 22 13
f 13 22 23
f 13 23 24
f 13 24 14
f 14 24 25
f 14 25 26
f 14 26 27
f 14 27 15
f 15 27 28
f 15 28 16
f 16 29 30
f 16 30 31
f 16 31 17
f 16 28 32
f 16 32 33
f 16 33 29
f 17 31 20
f 18 19 34
f 19 35 34
f 21 36 37
f 21 37 22
f 22 37 38
f 22 38 39
f 22 39 40
f 22 40 23
f 23 40 41
f 23 41 24
f 24 41 25
f 25 41 42
f 25 42 43
f 25 43 44
f 25 44 45
f 25 45 46
f 25 46 26
f 26 46 47
f 26 47 32
f 26 32 27
f 27 32 28
f 29 48 30
f 29 33 48
f 30 48 31
f 32 47 33
f 33 47 49
f 33 49 48
f 34 35 50
f 35 51 50
f 36 52 37
f 37 52 38
f 38 53 75
f 38 75 77
f 38 77 55
f 38 55 54
f 38 54 40
f 38 40 39
f 40 54 41
f 41 54 55
f 41 55 56
f 41 56 42
f 42 56 43
f 43 56 44
f 44 56 57
f 44 57 45
f 45 57 58
f 45 58 59
f 45 59 60
f 45 60 61
f 45 61 46
f 46 61 62
f 46 62 47
f 47 62 49
f 48 63 64
f 48 64 65
f 48 49 62
f 48 62 63
f 50 51 66
f 51 67 68
f 51 68 69
f 51 69 66
f 51 70 71
f 51 71 72
f 51 72 73
f 51 73 74
f 51 74 67
f 53 76 88
f 53 88 87
f 53 87 105
f 53 105 118
f 53 118 122
f 53 122 134
f 53 134 120
f 53 120 119
f 53 119 106
f 53 106 89
f 53 89 75
f 55 77 56
f 56 78 57
f 56 77 78
f 57 78 58
f 58 79 59
f 58 78 79
f 59 80 81
f 59 81 82
f 59 82 60
f 59 79 83
f 59 83 80
f 60 84 85
f 60 85 62
f 60 62 61
f 60 82 84
f 62 85 63
f 63 85 64
f 64 86 65
f 64 85 86
f 70 87 71
f 71 88 76
f 71 87 88
f 75 89 90
f 75 90 91
f 75 91 92
f 75 92 93
f 75 93 77
f 77 93 78
f 78 93 92
f 78 92 79
f 79 92 83
f 80 83 94
f 80 94 95
f 80 95 81
f 81 95 96
f 81 96 84
f 81 84 82
f 83 92 97
f 83 97 94
f 84 96 98
f 84 98 85
f 85 98 99
f 85 99 100
f 85 100 101
f 85 101 86
f 86 102 103
f 86 101 104
f 86 104 102
f 89 106 90
f 90 106 107
f 90 107 91
f 91 97 92
f 91 107 97
f 94 97 107
f 94 107 108
f 94 108 109
f 94 109 95
f 95 109 110
f 95 110 111
f 95 111 112
f 95 112 113
f 95 113 96
f 96 113 114
f 96 114 99
f 96 99 98
f 99 114 115
f 99 115 100
f 100 115 112
f 100 112 111
f 100 111 116
f 100 116 103
f 100 103 102
f 100 102 104
f 100 104 101
f 105 117 118
f 106 119 107
f 107 119 108
f 108 119 120
f 108 120 121
f 108 121 122
f 108 122 123
f 108 123 124
f 108 124 109
f 109 124 125
f 109 125 126
f 109 126 127
f 109 127 128
f 109 128 129
f 109 129 110
f 110 129 111
f 111 129 128
f 111 128 127
f 112 115 113
f 113 115 114
f 117 130 131
f 117 131 132
f 117 132 133
f 117 133 118
f 118 133 122
f 120 134 135
f 120 135 121
f 121 135 122
f 122 133 136
f 122 136 123
f 122 135 134
f 123 136 133
f 123 133 132
f 123 132 131
f 123 131 124
f 124 131 125
f 125 131 130
f 125 130 137
f 125 137 138
f 125 138 139
f 125 139 126
f 126 139 140
f 126 140 141
f 126 141 142
f 126 142 127
f 130 143 137
f 137 143 138
f 138 140 139
f 140 144 145
f 140 145 141
f 141 145 142
f 142 145 144

