# https://github.com/mikedh/trimesh
v 25.88632896 -22.49528445 31.55737722
v 26.72163296 -22.57339093 31.55737722
v 26.72163296 -20.51630172 35.89321714
v 25.88632896 -20.35186539 35.89321714
v 25.88632896 -14.17401855 31.55737722
v 28.44831729 -22.48048446 31.55737722
v 28.44831729 -20.31240047 35.89321714
v 28.44831729 -19.62341553 36.85661683
v 26.72163296 -19.69987850 36.86793231
v 25.88632896 -19.63903696 36.85553938
v 25.88632896 -14.17401855 37.06136653
v 33.32542335 -14.17401855 31.55737722
v 28.77020678 -22.30947150 31.55737722
v 29.48025121 -19.47542336 36.81512823
v 28.44831729 -18.50525341 36.96006945
v 26.72163296 -18.50525341 36.96707385
v 25.88632896 -18.50525341 36.96330245
v 30.17427603 -15.05292747 36.98000518
v 30.13130924 -14.17401855 36.92235225
v 30.17427603 -16.77950116 36.97785028
v 33.23584636 -15.05292747 31.55737722
v 31.11007948 -14.17401855 36.80758479
v 31.58999848 -15.05292747 35.89321714
v 31.61257413 -16.77950116 35.89321714
v 29.88224641 -21.67803915 31.55737722
v 29.78757484 -19.71878824 35.89321714
v 30.65127980 -18.94594099 35.89321714
v 31.10425418 -17.78255875 36.80219689
v 30.10290571 -18.41645798 36.86900976
v 31.17125295 -16.77950116 36.84314645
v 31.16979662 -15.05292747 36.84368549
v 30.99938575 -14.17401855 36.82267167
v 33.12660895 -15.92361366 31.55737722
v 30.76343244 -20.80406400 31.55737722
v 30.93894045 -20.58700820 31.55737722
v 31.46765156 -19.87006938 31.55737722
v 31.28631566 -18.08347558 35.89321714
v 32.64669253 -17.28760755 31.55737722
v 32.19444632 -18.52827419 31.55737722
v 32.58770356 -17.45450947 31.55737722
f 1 2 3
f 1 3 4
f 1 4 10
f 1 10 17
f 1 17 11
f 1 11 5
f 1 5 12
f 1 12 21
f 1 21 33
f 1 33 38
f 1 38 40
f 1 40 39
f 1 39 36
f 1 36 35
f 1 35 34
f 1 34 25
f 1 25 13
f 1 13 6
f 1 6 2
f 2 6 3
f 3 7 8
f 3 8 9
f 3 9 10
f 3 10 4
f 3 6 7
f 5 11 19
f 5 19 32
f 5 32 22
f 5 22 12
f 6 13 14
f 6 14 7
f 7 14 8
f 8 14 15
f 8 15 9
f 9 15 16
f 9 16 17
f 9 17 10
f 11 18 19
f 11 17 16
f 11 16 15
f 11 15 20
f 11 20 18
f 12 22 23
f 12 23 24
f 12 24 21
f 13 25 14
f 14 25 26
f 14 26 27
f 14 27 28
f 14 28 29
f 14 29 15
f 15 29 20
f 18 30 31
f 18 31 22
f 18 22 32
f 18 32 19
f 18 20 30
f 20 29 28
f 20 28 30
f 21 24 33
f 22 31 23
f 23 31 24
f 24 31 30
f 24 30 28
f 24 28 33
f 25 34 27
f 25 27 26
f 27 34 35
f 27 35 36
f 27 36 37
f 27 37 28
f 28 37 33
f 33 37 38
f 36 39 37
f 37 39 40
f 37 40 38

