# https://github.com/mikedh/trimesh
v 6.00218003 35.02289550 -3.74179976
v -0.03980512 35.02289550 -3.59770055
v -0.03980512 36.74919387 -3.61442516
v 0.82192055 36.74919387 -3.60541960
v 7.72761195 35.02289550 -3.71606959
v 9.45502508 33.29604649 -3.73022118
v -0.03980512 34.51512617 -3.38669778
v 10.14638684 32.60288620 -3.67618269
v -0.03980512 37.82249160 -3.18598707
v 0.82192055 37.83789367 -3.18727358
v 2.54735311 37.81313611 -3.15253786
v 2.54735311 36.74919387 -3.54880810
v 9.45502508 35.02289550 -3.61185214
v 15.32664567 32.60288620 -3.56553270
v 11.87380062 32.60288620 -3.69548032
v 4.27476625 36.74919387 -3.45617436
v -0.03980512 34.00185831 -3.16926246
v 8.41501190 32.60288620 -3.39184381
v -0.03980512 38.09094982 -2.09366447
v 0.82192055 38.15091654 -2.09366447
v 2.54735311 38.11955662 -2.09366447
v 4.27476625 37.72951823 -3.08048826
v 7.72761195 36.48183175 -3.29406405
v 9.45502508 36.25187614 -3.23616603
v 11.18045764 35.02289550 -3.42657953
v 16.06555034 34.34293477 -3.09078032
v 17.23829000 32.60288620 -3.44330928
v -0.03980512 33.84617281 -2.09366447
v 8.01287261 32.60288620 -3.31078865
v -0.03980512 38.14101043 -0.36704703
v 0.82192055 38.22298158 -0.36704703
v 2.54735311 38.19932527 -0.36704703
v 4.27476625 37.90830683 -2.09366447
v 5.41184776 37.65470006 -3.00586564
v 11.18045764 36.04062636 -3.09978588
v 17.21649912 34.15534388 -2.94024858
v 18.08614904 33.03088430 -3.22973349
v 18.08614904 32.60288620 -3.35067555
v 12.13330861 35.91189835 -2.98656287
v -0.03980512 32.68210422 9.40211430
v 7.38688348 32.60288620 -2.28536962
v -0.03980512 38.13881307 0.49368867
v 0.82192055 38.19052555 1.35957297
v -0.03980512 38.11350488 2.22030867
v 4.27476625 37.94791585 -0.36704703
v 0.82192055 38.14376356 3.08490390
v 2.54735311 38.14871404 1.35957297
v 4.26684200 37.72841697 9.40211430
v 7.72761195 37.24650646 9.40211430
v 9.45502508 37.00280065 9.40211430
v 5.61786982 37.69375844 -2.09366447
v 6.48157671 37.51771782 -2.09366447
v 7.72761195 37.19424336 -2.09366447
v 16.52909981 34.49477361 -2.25577478
v 17.33535832 34.21695990 -1.78874145
v 17.98115839 33.79886276 -2.25577478
v 19.54216878 32.84879194 -2.09366447
v 19.27869834 32.65899854 -3.12165652
v 18.62497595 32.60288620 -3.27733429
v 9.45502508 36.74478887 -2.09366447
v 11.18045764 36.28213481 -2.09366447
v 12.30961555 35.96361083 -2.09366447
v -0.03980512 37.89565789 9.40211430
v 7.32745452 32.60288620 -2.09366447
v 6.01802724 32.60288620 9.40211430
v -0.03980512 38.07444650 3.94563960
v 6.50534816 37.54907774 -0.36704703
v -0.03980512 38.02273402 5.67225960
v -0.03980512 37.90555885 9.12549447
v 0.82192055 37.92921517 9.40211430
v 2.54735311 37.91216121 9.40211430
v 11.18045764 36.63311482 9.40211430
v 9.45502508 37.00335128 8.26604528
v 7.72761195 37.32517386 1.35957297
v 7.72761195 37.31582352 -0.36704703
v 9.45502508 36.89442521 -0.36704703
v 14.63330398 35.37772473 -0.36704703
v 16.36071648 34.71537374 -0.36704703
v 17.37497891 34.23621120 -0.36704703
v 18.23670394 33.78675929 -0.36704703
v 19.65310437 32.92361010 -0.36704703
v 19.89082020 32.60288620 -2.09366447
v 19.42925196 32.60288620 -2.98527636
v 19.31039404 32.60288620 -3.13580811
v 13.34368635 35.76171654 -0.36704703
v 0.23555073 37.90666010 9.40211430
v 20.13448099 32.60288620 9.40211430
v 11.70343607 36.46587905 9.40211430
v 13.57149864 35.82662859 4.81152133
v 11.18045764 36.61276226 8.26604528
v 9.45502508 36.93733283 1.35957297
v 9.45502508 36.96759150 3.08490390
v 9.45502508 36.98189747 4.81152133
v 9.45502508 36.99345031 6.53814133
v 11.18045764 36.56929887 6.53814133
v 11.18045764 36.48073050 3.08490390
v 13.49622119 35.80627603 3.08490390
v 14.63330398 35.39477869 1.35957297
v 13.42094502 35.78372097 1.35957297
v 14.63330398 35.40248230 4.81152133
v 14.63330398 35.38597897 6.53814133
v 16.36071648 34.69061617 1.35957297
v 13.59527074 35.82828047 6.53814133
v 18.20104579 33.77630770 1.35957297
v 16.36071648 34.65540702 3.08490390
v 17.26404332 34.18009887 4.81152133
v 20.17608151 32.60288620 8.26604528
v 20.19391123 32.60288620 7.46578060
v 20.19787239 32.60288620 5.76489333
v 20.15429193 32.60288620 2.30393685
v 20.12853861 32.60288620 0.56316783
v 20.10476651 32.60288620 -0.36704703
v 20.14636703 32.60288620 9.12935399
v 19.70857089 32.82348632 9.40211430
v 12.69590634 36.13855021 9.40211430
v 13.55961259 35.79912305 9.40211430
v 13.92213257 35.64123762 9.40211430
v 14.63330398 35.35076981 8.26604528
v 17.23829000 34.16689929 6.02092647
v 18.12775085 33.73834799 4.81152133
v 15.21174892 35.05700340 9.40211430
v 16.29930630 34.54978470 9.40211430
v 16.32505962 34.56188817 8.26604528
v 16.36071648 34.61855113 4.81152133
v 16.52711859 34.50027472 6.57287963
v 17.92370937 33.80381324 6.57287963
v 18.08614904 33.68223565 8.26604528
v 18.08614904 33.65637941 9.40211430
v 14.63330398 35.32656288 9.40211430
v 17.21253796 34.15479325 7.17243616
v 17.16301383 34.12948763 9.40211430
v 17.18876586 34.14214173 8.26604528
v 17.47006473 33.97215284 9.40211430
f 1 2 3
f 1 3 4
f 1 4 5
f 1 5 6
f 1 6 2
f 2 7 17
f 2 17 28
f 2 28 40
f 2 40 63
f 2 63 69
f 2 69 68
f 2 68 66
f 2 66 44
f 2 44 42
f 2 42 30
f 2 30 19
f 2 19 9
f 2 9 3
f 2 6 8
f 2 8 7
f 3 9 10
f 3 10 4
f 4 10 11
f 4 11 12
f 4 12 5
f 5 13 14
f 5 14 15
f 5 15 6
f 5 12 16
f 5 16 13
f 6 15 8
f 7 8 17
f 8 15 14
f 8 14 27
f 8 27 38
f 8 38 59
f 8 59 84
f 8 84 83
f 8 83 82
f 8 82 112
f 8 112 111
f 8 111 110
f 8 110 109
f 8 109 108
f 8 108 107
f 8 107 113
f 8 113 87
f 8 87 65
f 8 65 64
f 8 64 41
f 8 41 29
f 8 29 18
f 8 18 17
f 9 19 20
f 9 20 10
f 10 20 21
f 10 21 11
f 11 21 22
f 11 22 16
f 11 16 12
f 13 16 23
f 13 23 24
f 13 24 25
f 13 25 26
f 13 26 27
f 13 27 14
f 16 22 23
f 17 18 29
f 17 29 28
f 19 30 31
f 19 31 20
f 20 31 32
f 20 32 21
f 21 32 33
f 21 33 34
f 21 34 22
f 22 34 24
f 22 24 23
f 24 35 26
f 24 26 25
f 24 34 35
f 26 36 37
f 26 37 38
f 26 38 27
f 26 35 39
f 26 39 36
f 28 29 41
f 28 41 40
f 30 42 31
f 31 43 32
f 31 42 44
f 31 44 43
f 32 45 33
f 32 43 46
f 32 46 47
f 32 47 48
f 32 48 49
f 32 49 50
f 32 50 45
f 33 45 51
f 33 51 34
f 34 51 52
f 34 52 53
f 34 53 39
f 34 39 35
f 36 54 55
f 36 55 56
f 36 56 57
f 36 57 58
f 36 58 37
f 36 39 54
f 37 58 59
f 37 59 38
f 39 53 60
f 39 60 61
f 39 61 62
f 39 62 54
f 40 41 64
f 40 64 65
f 40 65 87
f 40 87 114
f 40 114 128
f 40 128 133
f 40 133 131
f 40 131 122
f 40 122 121
f 40 121 129
f 40 129 117
f 40 117 116
f 40 116 115
f 40 115 88
f 40 88 72
f 40 72 50
f 40 50 49
f 40 49 48
f 40 48 71
f 40 71 70
f 40 70 86
f 40 86 63
f 43 44 66
f 43 66 46
f 45 67 51
f 45 50 67
f 46 66 68
f 46 68 69
f 46 69 70
f 46 70 71
f 46 71 47
f 47 71 48
f 50 72 73
f 50 73 74
f 50 74 67
f 51 67 75
f 51 75 52
f 52 75 76
f 52 76 53
f 53 76 60
f 54 77 78
f 54 78 55
f 54 62 77
f 55 78 79
f 55 79 80
f 55 80 56
f 56 80 81
f 56 81 57
f 57 81 82
f 57 82 83
f 57 83 58
f 58 83 84
f 58 84 59
f 60 76 61
f 61 76 62
f 62 76 85
f 62 85 77
f 63 86 69
f 67 74 75
f 69 86 70
f 72 88 89
f 72 89 90
f 72 90 91
f 72 91 92
f 72 92 93
f 72 93 94
f 72 94 73
f 73 94 75
f 73 75 74
f 75 94 93
f 75 93 92
f 75 92 91
f 75 91 76
f 76 91 90
f 76 90 95
f 76 95 96
f 76 96 97
f 76 97 85
f 77 98 78
f 77 85 99
f 77 99 97
f 77 97 89
f 77 89 98
f 78 100 101
f 78 101 102
f 78 102 79
f 78 98 103
f 78 103 100
f 79 104 80
f 79 102 105
f 79 105 106
f 79 106 104
f 80 104 107
f 80 107 108
f 80 108 109
f 80 109 81
f 81 109 110
f 81 110 111
f 81 111 112
f 81 112 82
f 85 97 99
f 87 113 114
f 88 115 103
f 88 103 89
f 89 97 90
f 89 103 98
f 90 97 95
f 95 97 96
f 100 103 101
f 101 103 116
f 101 116 117
f 101 117 118
f 101 118 102
f 102 118 105
f 103 115 116
f 104 106 119
f 104 119 120
f 104 120 114
f 104 114 113
f 104 113 107
f 105 118 121
f 105 121 122
f 105 122 123
f 105 123 124
f 105 124 125
f 105 125 119
f 105 119 106
f 114 120 126
f 114 126 127
f 114 127 128
f 117 129 118
f 118 129 121
f 119 125 130
f 119 130 120
f 120 130 126
f 122 131 132
f 122 132 130
f 122 130 123
f 123 130 125
f 123 125 124
f 126 130 127
f 127 130 132
f 127 132 133
f 127 133 128
f 131 133 132

