# https://github.com/mikedh/trimesh
v -17.03313165 -13.67954690 9.11772910
v -13.35832792 -17.64253714 7.79485652
v -13.58004216 -17.64253714 9.11772910
v -17.03313165 -7.45170539 9.11772910
v -17.03313165 -13.41913867 7.79485652
v -9.12438009 -17.64253714 7.79485652
v -7.09978679 -17.64253714 9.11772910
v -16.44578536 -7.45669382 9.11772910
v -17.03313165 -9.58385785 7.79485652
v -9.30525156 -16.77850154 7.79485652
v -7.12701445 -16.77850154 9.11772910
v -14.71972627 -7.69116090 9.11772910
v -16.44578536 -9.60979900 7.79485652
v -9.67769116 -15.02548689 7.79485652
v -7.86800390 -15.10630340 9.11772910
v -12.37909453 -9.11093327 9.11772910
v -11.52627600 -11.85669094 7.79485652
v -14.65457364 -9.99691895 7.79485652
v -9.47250919 -11.53143032 9.11772910
v -11.27636150 -9.88217979 9.11772910
f 1 2 3
f 1 3 7
f 1 7 11
f 1 11 15
f 1 15 19
f 1 19 20
f 1 20 16
f 1 16 12
f 1 12 8
f 1 8 4
f 1 4 9
f 1 9 5
f 1 5 2
f 2 6 7
f 2 7 3
f 2 5 9
f 2 9 13
f 2 13 18
f 2 18 17
f 2 17 14
f 2 14 10
f 2 10 6
f 4 8 9
f 6 10 11
f 6 11 7
f 8 12 13
f 8 13 9
f 10 14 11
f 11 14 15
f 12 16 17
f 12 17 18
f 12 18 13
f 14 17 19
f 14 19 15
f 16 20 17
f 17 20 19

