# https://github.com/mikedh/trimesh
v -23.33706786 -17.12941851 -1.25544266
v -23.33706786 -11.59910354 -0.84439302
v -21.62665143 -11.59910354 -0.83110596
v -19.90020896 -11.59910354 -0.81338817
v -18.78901714 -11.59910354 -0.80009597
v -18.78901714 -12.70981405 -0.82579011
v -18.78901714 -13.32480964 -0.83376131
v -21.62665143 -17.12941851 -0.84616325
v -23.33706786 -17.12941851 7.79384275
v -23.33706786 -10.09104696 -0.17732310
v -23.33706786 -10.07710475 -0.17112214
v -18.78901714 -11.09874161 -0.56090837
v -18.78901714 -15.13494236 -0.41385535
v -19.82675320 -17.12941851 -0.20832795
v -21.98146651 -17.12941851 7.79384275
v -23.33706786 -9.21657553 7.79384275
v -23.33706786 -9.43654881 1.35968361
v -21.62665143 -10.13597086 -0.15783508
v -19.90020896 -10.19638624 -0.14100241
v -18.78901714 -10.23511400 -0.12771535
v -18.78901714 -16.32000998 0.12387418
v -19.17098913 -17.12941851 1.35968361
v -18.78901714 -13.47042596 7.79384275
v -19.88996964 -17.12941851 4.25917450
v -18.78901714 -16.07912355 4.00935520
v -18.78901714 -9.49696387 7.79384275
v -21.62665143 -9.55505550 1.35968361
v -18.78901714 -10.04922097 0.40735882
v -18.78901714 -16.78319344 1.35968361
v -19.38468070 -17.12941851 3.08006405
v -19.38512584 -17.12864403 3.08626502
v -18.78901714 -16.54772900 3.08626502
v -18.78901714 -9.75334146 1.35968361
f 1 2 3
f 1 3 4
f 1 4 5
f 1 5 6
f 1 6 7
f 1 7 8
f 1 8 14
f 1 14 22
f 1 22 30
f 1 30 24
f 1 24 15
f 1 15 9
f 1 9 16
f 1 16 17
f 1 17 11
f 1 11 10
f 1 10 2
f 2 10 3
f 3 10 11
f 3 11 4
f 4 11 5
f 5 11 12
f 5 12 20
f 5 20 28
f 5 28 33
f 5 33 26
f 5 26 23
f 5 23 25
f 5 25 32
f 5 32 29
f 5 29 21
f 5 21 13
f 5 13 7
f 5 7 6
f 7 13 8
f 8 13 14
f 9 15 23
f 9 23 26
f 9 26 16
f 11 17 18
f 11 18 12
f 12 18 19
f 12 19 20
f 13 21 14
f 14 21 22
f 15 24 25
f 15 25 23
f 16 26 17
f 17 27 28
f 17 28 20
f 17 20 19
f 17 19 18
f 17 26 27
f 21 29 22
f 22 29 30
f 24 30 31
f 24 31 32
f 24 32 25
f 26 33 27
f 27 33 28
f 29 32 30
f 30 32 31

