# https://github.com/mikedh/trimesh
v -17.33790414 -35.40391546 -33.17828451
v -17.33790414 -34.47883377 -33.17828451
v -17.33644653 -35.34058581 -38.35548660
v -17.28686450 -36.26792919 -33.17828451
v -17.01562999 -40.61513797 -33.13961722
v -17.33644653 -34.47883377 -38.35548660
v -16.85376411 -33.61482005 -33.17828451
v -16.89897072 -33.61482005 -36.62975428
v -16.92084522 -33.61482005 -38.35548660
v -16.94125953 -33.62160767 -40.08122406
v -17.33498763 -35.31344306 -40.08122406
v -17.20520340 -37.50062012 -36.62975428
v -17.28540689 -36.24983573 -34.90299791
v -17.10312541 -39.22864499 -33.17828451
v -16.99521568 -40.95441076 -33.13961722
v -16.75022851 -40.61513797 -33.13961722
v -15.99048112 -33.15567301 -33.17828451
v -17.33498763 -34.48562139 -40.08122406
v -16.01381324 -33.15341133 -34.90299791
v -16.03714535 -33.15114965 -36.62975428
v -16.07797654 -33.14436460 -40.08122406
v -15.91902718 -33.15793469 -41.46099375
v -16.49795198 -33.91111831 -41.80390478
v -17.32478047 -34.63037671 -40.99395013
v -17.32478047 -35.16868774 -40.99395013
v -16.87126319 -42.68243563 -40.08122406
v -16.55336575 -47.85972778 -36.62975428
v -16.56357419 -47.82354087 -33.13961722
v -16.99521568 -40.95441076 -33.17624668
v -6.39519780 -40.62418470 -33.13961722
v -15.50780128 -33.15567301 -33.17828451
v -15.48446917 -33.14436460 -40.08122406
v -14.85158821 -33.44518623 -41.94534348
v -14.71888747 -34.22551260 -43.06666398
v -15.92340259 -34.34086349 -42.92115476
v -15.51509192 -33.15793469 -41.46099375
v -16.05756095 -35.77485436 -43.02291241
v -16.98646485 -35.75676090 -41.66551767
v -16.06193507 -47.85972778 -41.67569652
v -15.96277488 -49.58323186 -41.53120622
v -16.54461620 -47.85972778 -40.08122406
v -16.38129142 -49.54930407 -33.13961722
v -16.56065639 -47.85972778 -33.17624668
v -16.56065639 -47.85972778 -33.13961722
v -6.22895714 -44.40819882 -33.13961722
v -2.44334068 -40.61513797 -37.49160153
v -6.54685588 -37.50062012 -33.17828451
v -6.77725920 -36.46244664 -33.17828451
v -7.81407476 -35.89925455 -33.17828451
v -9.54210092 -35.26142182 -33.17828451
v -2.62562216 -36.53256134 -38.73909760
v -2.62562216 -36.41042283 -40.08122406
v -2.62562216 -36.37423593 -41.81305957
v -12.99086131 -34.52633165 -43.02901561
v -2.63437170 -36.49863612 -42.85603687
v -4.36093960 -36.35387822 -43.00153579
v -6.08750750 -36.21816962 -43.09515242
v -4.36093960 -37.50062012 -43.40956472
v -12.99086131 -35.77485436 -43.42483814
v -14.71888747 -35.77485436 -43.41872465
v -15.98027397 -37.50062012 -42.97304736
v -16.78668558 -37.50062012 -41.80797529
v -15.59237890 -45.37625760 -42.68000139
v -16.34775215 -49.58323186 -40.08122406
v -15.39259962 -46.52752029 -42.61589726
v -15.16365392 -47.85972778 -42.53958159
v -14.91283501 -49.58323186 -42.39509129
v -15.73966221 -51.31125673 -41.19745513
v -16.35795931 -49.58323186 -38.35446768
v -16.36525124 -49.58323186 -36.62975428
v -16.37691729 -49.58323186 -33.17624668
v -16.37691729 -49.58323186 -33.13961722
v -5.93293226 -51.31125673 -33.13961722
v -2.44334068 -40.61513797 -43.35462567
v -2.62562216 -37.34455382 -37.87419361
v -2.62562216 -39.22638331 -37.44988264
v -5.86002006 -53.03928160 -33.13961722
v -2.44334068 -53.03928160 -37.06525787
v -2.62562216 -36.50315948 -42.85806440
v -2.62562216 -37.50062012 -43.26406579
v -2.62562216 -37.50966684 -43.26508470
v -2.62562216 -39.22638331 -43.43704453
v -6.08750750 -37.50062012 -43.50216243
v -7.81407476 -37.50062012 -43.53472652
v -9.54210092 -37.50062012 -43.53268869
v -11.26575167 -37.50062012 -43.49605923
v -12.99086131 -37.50062012 -43.41872465
v -12.99086131 -42.68243563 -43.15518603
v -13.90955935 -50.60330931 -42.68610458
v -14.71888747 -37.50062012 -43.32511832
v -15.64195964 -44.40819882 -42.71968759
v -15.72945377 -42.68243563 -42.78988976
v -15.83298937 -40.61513797 -42.86824326
v -15.90007048 -39.22638331 -42.91809802
v -14.71888747 -39.22638331 -43.22539850
v -14.71888747 -40.61513797 -43.14094181
v -14.71742986 -40.95441076 -43.12059440
v -15.58654587 -52.18205550 -40.95324501
v -15.91465176 -51.31125673 -40.08122406
v -15.93652497 -51.31125673 -38.35446768
v -14.57889609 -51.23209274 -42.14884849
v -15.95110883 -51.31125673 -33.17624668
v -15.95110883 -51.31125673 -33.13961722
v -2.44334068 -40.65358913 -43.35258784
v -2.62562216 -39.23543004 -43.43704453
v -5.86439483 -53.07320940 -33.13961722
v -2.44334068 -54.56148318 -37.25960294
v -4.36093960 -39.22638331 -43.43602561
v -6.42582055 -40.61513797 -43.35156893
v -9.54064266 -42.68243563 -43.22539850
v -11.26575167 -39.22638331 -43.40143398
v -11.26429405 -51.16423973 -42.71459302
v -11.26429405 -44.40819882 -43.11347229
v -11.26429405 -42.68243563 -43.21115428
v -11.26429405 -40.61513797 -43.32511832
v -12.99086131 -47.85972778 -42.87536537
v -12.99086131 -46.13170290 -42.97000090
v -12.99086131 -44.40819882 -43.06360724
v -12.99086131 -49.58323186 -42.77972120
v -12.99086131 -50.89734589 -42.70238663
v -12.99086131 -51.76135704 -42.62403314
v -12.99086131 -53.03928160 -42.19667057
v -15.60258605 -52.20693657 -40.08122406
v -14.61826838 -52.86964779 -41.33787492
v -13.97663788 -54.01412543 -41.07229847
v -14.04517532 -54.07745765 -40.08122406
v -14.90845959 -53.07095029 -40.08122406
v -15.61716991 -52.22955338 -38.35446768
v -15.61716991 -52.22955338 -36.62975428
v -15.62300294 -52.20919567 -33.13961722
v -2.44334068 -46.13170290 -43.02595886
v -2.97268539 -40.61513797 -43.35462567
v -4.36093960 -40.61513797 -43.35360676
v -6.10792246 -54.76504479 -33.13961722
v -2.44334068 -54.87135154 -37.38374583
v -9.54064266 -49.58323186 -42.81533175
v -9.54064266 -52.08932142 -42.66575202
v -9.54064266 -53.03928160 -42.60877000
v -11.26429405 -52.02825088 -42.66168151
v -11.26429405 -53.03928160 -42.54263319
v -9.54064266 -54.76504479 -42.07355174
v -11.30366635 -54.88039826 -41.64822185
v -12.99086131 -54.34435149 -41.38061272
v -10.75390604 -55.75119960 -41.12520998
v -11.81842913 -55.49787586 -40.08122406
v -12.99086131 -54.81028357 -40.08122406
v -12.99086131 -54.83516463 -38.35446768
v -14.05392615 -54.08650438 -38.35446768
v -14.91720913 -53.09130285 -38.35446768
v -14.92158455 -53.09130285 -36.62975428
v -14.92450106 -53.09130285 -34.90299791
v -15.61571101 -52.22728912 -33.13961722
v -15.61716991 -52.22728912 -34.90299791
v -14.92450106 -53.09130285 -33.13961722
v -2.44334068 -53.03928160 -42.61385943
v -2.63437170 -53.03928160 -42.61385943
v -4.36093960 -53.03928160 -42.61284051
v -7.81553302 -52.09836814 -42.66677094
v -6.11667200 -54.78540250 -33.13961722
v -2.44334068 -55.36442894 -37.58826975
v -7.81553302 -54.76504479 -42.12544433
v -7.81553302 -55.88464652 -41.31854128
v -9.54064266 -55.84845962 -41.26664869
v -9.54064266 -56.11535345 -40.08122406
v -10.95514486 -55.82810191 -40.08122406
v -10.97847697 -55.84619536 -38.35446768
v -11.84175996 -55.51144594 -38.35446768
v -12.99086131 -54.83968800 -36.62975428
v -14.05830027 -54.09102774 -36.62975428
v -14.06121679 -54.09328685 -34.90299791
v -14.06121679 -54.09555110 -33.17624668
v -14.06121679 -54.09555110 -33.13961722
v -2.44334068 -54.76504479 -42.11628439
v -2.63437170 -54.76504479 -42.11730331
v -6.67226534 -55.82810191 -33.13961722
v -2.44334068 -55.92309767 -38.34734558
v -7.81553302 -56.19677398 -40.08122406
v -2.63437170 -55.87559979 -41.30836757
v -2.44334068 -55.87559979 -41.30734866
v -7.81553302 -56.25105947 -38.35446768
v -9.54064266 -56.16058708 -38.35446768
v -10.97993458 -55.84619536 -36.62975428
v -11.84613537 -55.51596931 -33.17624668
v -11.84321886 -55.51371020 -36.62975428
v -9.54064266 -56.17415716 -33.17624668
v -12.99086131 -54.84421136 -34.90299791
v -12.99086131 -54.84421136 -33.13961722
v -2.44334068 -54.88944499 -42.02572451
v -7.81553302 -56.15606371 -33.13961722
v -2.44334068 -56.17189806 -40.08122406
v -2.63437170 -56.17415716 -40.08122406
v -6.08896512 -56.23070177 -38.35446768
v -7.81553302 -56.24427186 -36.62975428
v -9.54064266 -56.17415716 -33.13961722
v -10.98285110 -55.84619536 -33.17624668
v -11.84613537 -55.51596931 -33.13961722
v -12.96898810 -54.85778145 -33.13961722
v -7.81553302 -56.22617841 -34.90299791
v -10.98285110 -55.84619536 -33.13961722
f 1 2 6
f 1 6 3
f 1 3 4
f 1 4 5
f 1 5 2
f 2 5 7
f 2 7 8
f 2 8 9
f 2 9 10
f 2 10 6
f 3 6 18
f 3 18 11
f 3 11 12
f 3 12 13
f 3 13 4
f 4 13 12
f 4 12 14
f 4 14 15
f 4 15 5
f 5 15 28
f 5 28 44
f 5 44 42
f 5 42 72
f 5 72 103
f 5 103 130
f 5 130 152
f 5 152 154
f 5 154 172
f 5 172 187
f 5 187 197
f 5 197 196
f 5 196 199
f 5 199 194
f 5 194 189
f 5 189 175
f 5 175 159
f 5 159 134
f 5 134 106
f 5 106 77
f 5 77 73
f 5 73 45
f 5 45 30
f 5 30 16
f 5 16 31
f 5 31 17
f 5 17 7
f 6 10 18
f 7 17 19
f 7 19 20
f 7 20 21
f 7 21 8
f 8 21 9
f 9 21 10
f 10 21 22
f 10 22 23
f 10 23 24
f 10 24 18
f 11 18 24
f 11 24 25
f 11 25 26
f 11 26 27
f 11 27 28
f 11 28 12
f 12 29 14
f 12 28 29
f 14 29 15
f 15 29 28
f 16 30 31
f 17 31 32
f 17 32 21
f 17 21 19
f 19 21 20
f 21 32 36
f 21 36 22
f 22 33 34
f 22 34 35
f 22 35 23
f 22 36 33
f 23 35 24
f 24 35 37
f 24 37 38
f 24 38 25
f 25 38 39
f 25 39 40
f 25 40 41
f 25 41 26
f 26 41 27
f 27 41 42
f 27 42 43
f 27 43 28
f 28 43 44
f 30 45 46
f 30 46 47
f 30 47 48
f 30 48 49
f 30 49 50
f 30 50 31
f 31 50 51
f 31 51 52
f 31 52 53
f 31 53 32
f 32 53 36
f 33 54 34
f 33 36 55
f 33 55 54
f 34 54 56
f 34 56 57
f 34 57 58
f 34 58 59
f 34 59 60
f 34 60 35
f 35 60 37
f 36 53 55
f 37 60 61
f 37 61 62
f 37 62 38
f 38 62 39
f 39 63 40
f 39 62 63
f 40 64 41
f 40 63 65
f 40 65 66
f 40 66 67
f 40 67 68
f 40 68 64
f 41 64 69
f 41 69 70
f 41 70 42
f 42 70 71
f 42 71 72
f 42 44 43
f 45 73 46
f 46 74 53
f 46 53 52
f 46 52 51
f 46 51 75
f 46 75 76
f 46 76 47
f 46 73 77
f 46 77 78
f 46 78 107
f 46 107 135
f 46 135 160
f 46 160 176
f 46 176 190
f 46 190 179
f 46 179 188
f 46 188 173
f 46 173 155
f 46 155 131
f 46 131 104
f 46 104 74
f 47 76 75
f 47 75 48
f 48 75 51
f 48 51 49
f 49 51 50
f 53 74 79
f 53 79 55
f 54 55 79
f 54 79 56
f 56 79 80
f 56 80 58
f 56 58 57
f 58 80 81
f 58 81 82
f 58 82 83
f 58 83 59
f 59 83 84
f 59 84 85
f 59 85 60
f 60 85 86
f 60 86 87
f 60 87 88
f 60 88 89
f 60 89 90
f 60 90 63
f 60 63 91
f 60 91 92
f 60 92 93
f 60 93 94
f 60 94 61
f 61 94 62
f 62 94 93
f 62 93 92
f 62 92 91
f 62 91 63
f 63 90 95
f 63 95 96
f 63 96 97
f 63 97 89
f 63 89 65
f 64 68 98
f 64 98 99
f 64 99 100
f 64 100 69
f 65 89 66
f 66 89 67
f 67 89 101
f 67 101 68
f 68 101 98
f 69 100 70
f 70 100 71
f 71 100 102
f 71 102 103
f 71 103 72
f 74 104 105
f 74 105 82
f 74 82 81
f 74 81 80
f 74 80 79
f 77 106 107
f 77 107 78
f 82 84 83
f 82 105 84
f 84 105 108
f 84 108 109
f 84 109 110
f 84 110 85
f 85 111 86
f 85 110 112
f 85 112 113
f 85 113 114
f 85 114 115
f 85 115 111
f 86 111 116
f 86 116 117
f 86 117 118
f 86 118 88
f 86 88 87
f 88 118 89
f 89 118 117
f 89 117 116
f 89 116 119
f 89 119 120
f 89 120 121
f 89 121 122
f 89 122 101
f 89 97 95
f 89 95 90
f 95 97 96
f 98 123 99
f 98 101 124
f 98 124 125
f 98 125 126
f 98 126 127
f 98 127 123
f 99 123 128
f 99 128 100
f 100 128 102
f 101 122 124
f 102 128 129
f 102 129 103
f 103 129 130
f 104 131 132
f 104 132 105
f 105 132 133
f 105 133 108
f 106 134 107
f 107 134 135
f 108 133 109
f 109 133 136
f 109 136 110
f 110 136 112
f 111 115 116
f 112 136 137
f 112 137 138
f 112 138 139
f 112 139 120
f 112 120 113
f 113 120 119
f 113 119 114
f 114 119 116
f 114 116 115
f 120 139 121
f 121 139 140
f 121 140 122
f 122 140 141
f 122 141 142
f 122 142 143
f 122 143 125
f 122 125 124
f 123 127 128
f 125 143 144
f 125 144 145
f 125 145 146
f 125 146 126
f 126 146 147
f 126 147 148
f 126 148 149
f 126 149 127
f 127 149 128
f 128 149 150
f 128 150 151
f 128 151 154
f 128 154 129
f 129 152 153
f 129 153 130
f 129 154 152
f 130 153 152
f 131 155 156
f 131 156 157
f 131 157 132
f 132 157 158
f 132 158 133
f 133 158 136
f 134 159 160
f 134 160 135
f 136 158 137
f 137 158 138
f 138 140 139
f 138 158 157
f 138 157 161
f 138 161 141
f 138 141 140
f 141 161 162
f 141 162 163
f 141 163 144
f 141 144 142
f 142 144 143
f 144 163 164
f 144 164 165
f 144 165 145
f 145 165 166
f 145 166 167
f 145 167 146
f 146 167 147
f 147 168 169
f 147 169 148
f 147 167 168
f 148 169 149
f 149 169 170
f 149 170 150
f 150 170 151
f 151 170 171
f 151 171 172
f 151 172 154
f 155 173 174
f 155 174 161
f 155 161 156
f 156 161 157
f 159 175 160
f 160 175 176
f 161 174 162
f 162 177 163
f 162 174 178
f 162 178 179
f 162 179 177
f 163 177 164
f 164 177 180
f 164 180 181
f 164 181 165
f 165 181 166
f 166 182 183
f 166 183 184
f 166 184 167
f 166 181 185
f 166 185 182
f 167 184 186
f 167 186 168
f 168 186 169
f 169 186 170
f 170 186 171
f 171 186 187
f 171 187 172
f 173 188 174
f 174 188 178
f 175 189 176
f 176 189 190
f 177 191 180
f 177 179 191
f 178 188 179
f 179 190 191
f 180 192 193
f 180 193 194
f 180 194 185
f 180 185 181
f 180 191 192
f 182 195 183
f 182 185 195
f 183 195 199
f 183 199 196
f 183 196 197
f 183 197 186
f 183 186 184
f 185 194 199
f 185 199 195
f 186 197 187
f 189 194 198
f 189 198 190
f 190 198 192
f 190 192 191
f 192 198 193
f 193 198 194

