# https://github.com/mikedh/trimesh
v 29.02058957 -4.17123634 8.25215356
v 29.02058957 1.48221048 8.25215356
v 27.37426053 -2.31460826 8.25215356
v 27.42976821 -2.28085157 1.35990746
v 29.02058957 -3.77224128 1.35990746
v 28.96807688 1.48221048 8.25215356
v 29.02058957 1.48221048 -0.65067062
v 26.86939872 -1.24545567 8.25215356
v 26.98340649 -1.23881535 1.35990746
v 27.47053508 -2.23325978 0.27797727
v 29.02058957 -3.68369865 0.70286203
v 27.07507535 1.48221048 7.78155660
v 27.03108449 1.47446313 8.25215356
v 29.02058957 0.48776606 -0.90434429
v 28.44801368 0.48776606 -0.69638283
v 28.43603629 1.48221048 -0.37727220
v 26.66763822 0.48776606 8.25215356
v 26.89841977 0.48776606 1.35990746
v 27.27706484 -1.23881535 0.03505881
v 29.02058957 -2.10819317 -0.71072482
v 29.02058957 -3.52542855 -0.05367938
v 27.24804636 1.48221048 1.35990746
v 29.02058957 -0.45465969 -0.89896669
v 28.44801368 -1.23881535 -0.66501261
v 27.25080978 0.48776606 0.00996160
v 27.41479583 1.48221048 0.21881848
v 27.54861326 1.48221048 0.13993495
v 29.02058957 -1.23881535 -0.88462470
f 1 2 6
f 1 6 13
f 1 13 17
f 1 17 8
f 1 8 3
f 1 3 4
f 1 4 5
f 1 5 11
f 1 11 21
f 1 21 20
f 1 20 28
f 1 28 23
f 1 23 14
f 1 14 7
f 1 7 2
f 2 7 16
f 2 16 27
f 2 27 26
f 2 26 22
f 2 22 12
f 2 12 6
f 3 8 4
f 4 9 10
f 4 10 5
f 4 8 9
f 5 10 11
f 6 12 13
f 7 14 15
f 7 15 16
f 8 17 9
f 9 18 19
f 9 19 10
f 9 17 18
f 10 19 20
f 10 20 21
f 10 21 11
f 12 22 13
f 13 22 17
f 14 23 15
f 15 24 25
f 15 25 26
f 15 26 27
f 15 27 16
f 15 23 24
f 17 22 18
f 18 22 26
f 18 26 25
f 18 25 19
f 19 25 24
f 19 24 20
f 20 24 28
f 23 28 24

