# https://github.com/mikedh/trimesh
v -26.51953393 -14.31634173 37.02505034
v -26.51048206 -14.34578412 37.02505034
v -23.41288951 -14.31634173 38.93868392
v -22.31686176 -14.31634173 37.02505034
v -24.90552713 -18.33091612 37.02505034
v -22.31686176 -14.31634173 38.93868392
v -22.31686176 -16.29107641 38.93868392
v -22.31686176 -18.55235827 37.02505034
v -22.31686176 -18.41592665 37.39260314
f 1 2 3
f 1 3 6
f 1 6 4
f 1 4 8
f 1 8 5
f 1 5 2
f 2 5 3
f 3 5 7
f 3 7 6
f 4 6 7
f 4 7 9
f 4 9 8
f 5 8 9
f 5 9 7

