# https://github.com/mikedh/trimesh
v -21.14736668 8.31334744 9.09915450
v -21.14736668 10.05834264 7.20143663
v -19.98587754 8.31468541 9.09915450
v -21.14736668 15.15142382 9.09915450
v -20.44345632 10.07976171 7.20143663
v -17.25222141 8.32740382 9.09915450
v -18.26614035 8.32071012 9.09915450
v -21.14736668 14.91581272 7.20143663
v -17.25222141 13.34150241 9.09915450
v -17.25222141 13.30669722 7.20143663
v -18.80074624 10.15138162 7.20143663
v -17.25222141 10.22835726 7.20143663
f 1 2 3
f 1 3 7
f 1 7 6
f 1 6 9
f 1 9 4
f 1 4 8
f 1 8 2
f 2 5 6
f 2 6 7
f 2 7 3
f 2 8 10
f 2 10 12
f 2 12 11
f 2 11 5
f 4 9 10
f 4 10 8
f 5 11 6
f 6 11 12
f 6 12 10
f 6 10 9

