# https://github.com/mikedh/trimesh
v -0.03980512 1.48306986 37.03772309
v -0.03980512 1.48306986 46.08804156
v -0.03980512 10.27004913 37.03772309
v 36.33340547 1.48306986 37.03772309
v -0.03980512 10.27004913 46.08804156
v 30.01227893 1.48306986 46.08804156
v 26.98355316 10.27004913 37.03772309
v 36.36191191 1.49081207 37.03772309
v 36.35478466 1.48306986 37.05101143
v 26.11769458 10.27004913 46.08804156
v 34.38789382 1.48306986 40.42096162
v 34.51973517 1.72908817 40.24998372
v 30.00871273 1.59317566 46.08804156
v 35.09340974 5.14495705 37.03772309
v 36.29421071 2.21510329 37.03772309
v 35.93788912 2.21510329 37.84566049
v 35.94858000 1.48306986 37.91476077
v 27.97055963 8.56770682 46.08804156
v 34.67651420 4.97893704 38.82634828
v 34.93663071 5.13807552 37.62064314
v 34.51973517 1.48306986 40.24909796
v 35.04352410 1.48306986 39.43673078
v 34.97582289 2.26929616 39.50760259
v 34.47341059 2.88090084 40.18974265
v 33.96030997 2.26929616 40.92503673
v 32.97686713 2.21510329 42.21490218
v 32.31054596 2.21510329 43.07865120
v 29.97308160 2.21510329 46.08804156
v 35.87018792 4.01206827 37.03772309
v 36.16949661 2.95487892 37.03772309
v 35.75972833 3.82024348 37.47978529
v 34.90812169 3.94239228 39.15590149
v 28.83285715 7.36600272 46.08804156
v 31.02066460 6.48515375 43.60044427
v 32.78445182 4.84130511 41.96242158
v 34.38789382 3.94239228 40.01965084
v 33.62893120 3.94239228 41.07386739
v 32.21077726 3.94239228 42.93602184
v 31.34847974 3.94239228 44.06731164
v 29.82342725 3.94239228 46.06500824
v 29.80561169 3.94239228 46.08804156
v 29.84124539 3.58540814 46.08804156
v 29.96239329 2.33639270 46.08804156
v 36.07329153 3.38583985 37.03772309
v 28.88986747 7.28084232 46.08804156
v 29.45641736 6.80773023 45.58839589
v 30.60733269 5.81333534 44.48456901
v 29.47423549 5.66882060 46.08804156
v 29.26400462 6.29934982 46.08804156
f 1 2 5
f 1 5 3
f 1 3 7
f 1 7 14
f 1 14 29
f 1 29 44
f 1 44 30
f 1 30 15
f 1 15 8
f 1 8 4
f 1 4 9
f 1 9 17
f 1 17 22
f 1 22 21
f 1 21 11
f 1 11 6
f 1 6 2
f 2 6 13
f 2 13 28
f 2 28 43
f 2 43 42
f 2 42 41
f 2 41 48
f 2 48 49
f 2 49 45
f 2 45 33
f 2 33 18
f 2 18 10
f 2 10 5
f 3 5 10
f 3 10 7
f 4 8 9
f 6 11 12
f 6 12 13
f 7 10 14
f 8 15 16
f 8 16 17
f 8 17 9
f 10 18 19
f 10 19 20
f 10 20 14
f 11 21 12
f 12 21 22
f 12 22 23
f 12 23 24
f 12 24 25
f 12 25 26
f 12 26 27
f 12 27 13
f 13 27 28
f 14 20 29
f 15 30 16
f 16 30 31
f 16 31 32
f 16 32 23
f 16 23 17
f 17 23 22
f 18 33 34
f 18 34 19
f 19 34 35
f 19 35 36
f 19 36 32
f 19 32 31
f 19 31 29
f 19 29 20
f 23 32 24
f 24 32 36
f 24 36 37
f 24 37 38
f 24 38 39
f 24 39 40
f 24 40 27
f 24 27 26
f 24 26 25
f 27 40 41
f 27 41 42
f 27 42 43
f 27 43 28
f 29 31 44
f 30 44 31
f 33 45 34
f 34 45 46
f 34 46 47
f 34 47 35
f 35 38 37
f 35 37 36
f 35 47 48
f 35 48 40
f 35 40 39
f 35 39 38
f 40 48 41
f 45 49 46
f 46 49 47
f 47 49 48

