# https://github.com/mikedh/trimesh
v -29.54767306 -5.33139652 7.79358803
v -29.87459793 -5.33139652 -2.12857001
v -37.88269687 -5.33139652 7.79358803
v -27.19676983 -8.64997837 7.79358803
v -29.38791448 -7.25200973 -2.97203562
v -30.26394676 -5.33139652 -2.99027316
v -27.19676983 -9.14287888 1.35928994
v -27.19676983 -9.88222996 -0.30826905
v -37.90279985 -5.33139652 6.53864565
v -37.76948930 -6.41917775 7.79358803
v -27.19676983 -27.03602651 7.79358803
v -30.45544864 -5.33139652 -3.37325634
v -27.19676983 -13.78294484 -3.05866393
v -27.19676983 -14.09738159 -3.27067018
v -37.98214909 -5.33139652 1.35928994
v -38.00436709 -5.33139652 -0.36640378
v -37.77901203 -6.41917775 6.53864565
v -37.47324507 -8.14645452 7.79358803
v -27.84533203 -26.44964382 7.79358803
v -27.84109942 -26.44539577 6.53864565
v -27.82734408 -26.43052374 3.08498109
v -27.19676983 -26.99990909 4.21340568
v -31.38438214 -5.33139652 -3.65023125
v -27.19676983 -14.64339655 -3.39263115
v -27.19676983 -16.38979533 -3.73571715
v -37.99907697 -5.33139652 -0.41655187
v -37.63194871 -6.41917775 -2.09323220
v -37.79170729 -6.41917775 -0.36640378
v -37.46583993 -8.14645452 6.53864565
v -37.02464740 -9.87373193 4.81181208
v -37.35368987 -8.61810963 7.79358803
v -28.47273118 -25.73153942 7.79358803
v -27.81676383 -26.41989975 1.35928994
v -28.70866905 -25.45959347 7.79358803
v -27.19676983 -26.97866369 2.46377776
v -31.98745084 -5.33139652 -3.82690484
v -27.19676983 -18.11494807 -3.84970177
v -37.82239051 -5.33139652 -2.08867281
v -36.37397017 -11.06986609 -3.03700428
v -36.83314809 -9.87373193 -2.09323220
v -36.30943121 -12.47633308 -1.29193832
v -37.38648811 -8.14645452 -0.36640378
v -37.42669406 -8.14645452 3.08498109
v -37.44679446 -8.14645452 4.81181208
v -37.01089463 -9.87373193 3.08498109
v -37.02570748 -9.87373193 6.53864565
v -37.02253238 -9.87373193 7.79358803
v -27.80406857 -26.40715303 -0.36640378
v -27.19676983 -26.94042095 -0.36640378
v -27.19676983 -26.95529298 0.71414985
v -29.43552300 -24.59701806 7.79358803
v -31.98745084 -6.41917775 -3.83944058
v -33.71306994 -8.14645452 -3.84172027
v -33.71306994 -6.41917775 -3.81664365
v -33.71306994 -5.33139652 -3.79385188
v -27.19676983 -21.56950161 -3.84970177
v -30.26077423 -13.32616176 -3.84970177
v -31.98745084 -8.14645452 -3.84855935
v -30.26077423 -11.59888468 -3.84855935
v -37.56846725 -5.33139652 -2.51269046
v -36.69031738 -8.14645452 -3.28548561
v -36.50410562 -9.87373193 -3.16238736
v -35.56141678 -11.62650408 -3.34590003
v -35.09906633 -13.32616176 -3.28093137
v -34.78483672 -14.75174948 -3.11793594
v -34.56900182 -15.90326818 -2.92416208
v -36.21738412 -12.22138415 -2.44315727
v -36.43956665 -11.62650408 -1.95873549
v -36.30943121 -12.47633308 -0.92149602
v -36.97068867 -9.87373193 -0.36640378
v -34.64200344 -16.05623722 -1.77294313
v -35.18053318 -15.05343885 -0.36640378
v -35.19534346 -15.05343885 1.35928994
v -35.20380868 -15.05343885 3.08498109
v -34.71077502 -16.20495756 7.79358803
v -36.89133942 -10.29652161 7.79358803
v -28.65682535 -25.41072932 1.35928994
v -28.62720221 -25.41072932 -0.36640378
v -27.75539997 -26.36041162 -1.80485883
v -27.19676983 -26.90430352 -0.94543022
v -29.42388524 -24.58214603 6.53864565
v -30.11794095 -23.68557593 7.79358803
v -30.10524569 -23.68557593 6.53864565
v -30.07456247 -23.68557593 4.81181208
v -35.43974656 -6.41917775 -3.75623438
v -35.43974656 -5.33139652 -3.74939530
v -34.80070709 -5.33139652 -3.77105495
v -33.71306994 -9.87373193 -3.84970177
v -27.19676983 -23.29678031 -3.80524519
v -28.53409762 -20.23102111 -3.84970177
v -31.98745084 -11.59888468 -3.84970177
v -36.98232900 -5.33139652 -3.33791854
v -36.88816432 -6.41917775 -3.33335915
v -35.43974656 -9.87373193 -3.60805952
v -33.71306994 -13.32616176 -3.72659838
v -31.98745084 -18.50374434 -3.55220448
v -33.45702909 -16.77859160 -3.30030618
v -33.05392750 -18.50374434 -3.11223413
v -32.88041357 -19.41518583 -2.98685619
v -32.94706756 -19.51929007 -2.09323220
v -35.89574937 -13.32616176 4.81181208
v -35.86506615 -13.32616176 6.53864565
v -36.29885096 -12.44658901 0.22972293
v -36.54854418 -11.42254526 6.53864565
v -35.19640354 -15.05343885 6.53864565
v -35.18899583 -15.05343885 7.79358803
v -33.55436630 -18.50374434 -0.36640378
v -34.27593269 -16.99529810 -0.36640378
v -34.67797678 -16.13484608 -0.36640378
v -34.68538192 -16.14971811 1.35928994
v -34.69913727 -16.18158685 4.81181208
v -34.70654241 -16.19433422 6.53864565
v -34.29815069 -17.04203888 4.81181208
v -34.30132322 -17.05691091 6.53864565
v -34.30132322 -17.06965828 7.79358803
v -36.53690386 -11.38855185 7.79358803
v -29.39849215 -24.55027665 3.90451508
v -29.38791448 -24.53540462 2.75329356
v -29.35723126 -24.49503785 -0.36640378
v -27.67075803 -26.27543004 -2.95607777
v -27.19676983 -26.81294600 -1.98266969
v -29.93702188 -23.53685559 -2.09323220
v -29.25989405 -24.39943228 -2.09323220
v -30.94319218 -22.55105457 7.79358803
v -30.94319218 -22.55955196 6.53864565
v -30.92837933 -22.55317860 4.81181208
v -30.91145145 -22.54043188 3.08498109
v -31.53673815 -21.63536311 -0.36640378
v -30.89558109 -22.52131051 1.35928994
v -33.71306994 -11.59888468 -3.82918454
v -35.43974656 -8.14645452 -3.72431868
v -36.44697437 -5.33139652 -3.49407489
v -31.98745084 -13.32616176 -3.84970177
v -30.26077423 -18.50374434 -3.84286269
v -31.98745084 -15.05343885 -3.83602361
v -28.53409762 -21.95829981 -3.80297065
v -27.19676983 -25.34274251 -3.42454685
v -31.98745084 -16.77859160 -3.74711561
v -30.26077423 -20.23102111 -3.73230018
v -31.91973677 -20.08655139 -3.23761721
v -31.29868526 -21.32942504 -3.10767475
v -31.45738633 -21.53550949 -2.09323220
v -32.32072335 -20.38186676 -2.09323220
v -32.40007517 -20.45410162 -0.36640378
v -32.99150355 -19.59152493 -0.36640378
v -35.84179064 -13.32616176 7.79358803
v -36.22796437 -12.25325289 7.79358803
v -34.29074298 -17.02716684 3.08498109
v -34.08654840 -17.46270388 7.79358803
v -30.87865321 -22.50006511 -0.36640378
v -30.01531620 -23.63246116 -0.36640378
v -29.71060674 -23.24154022 -3.19202337
v -28.09502268 -25.12391133 -3.19772002
v -27.19676983 -26.46664117 -3.05638424
v -27.19676983 -26.74283646 -2.48761384
v -31.09977823 -22.31522605 7.79358803
v -31.54625831 -21.65660979 1.35928994
v -28.61662197 -23.76418544 -3.42112474
v -27.19676983 -25.49571090 -3.38009542
v -30.27558708 -21.92643043 -3.36641726
v -32.40854040 -20.40948552 3.08498109
v -32.97775078 -19.57240420 1.35928994
v -33.50252517 -18.50374434 7.79358803
v -31.50287983 -21.68635386 7.79358803
v -32.39690007 -20.37974145 4.81181208
v -32.96293792 -19.54478480 3.08498109
v -33.34170650 -18.77356498 7.79358803
v -32.36621942 -20.33300132 7.79358803
v -32.37997220 -20.35212269 6.53864565
v -32.51645784 -20.09717280 7.79358803
v -32.92696458 -19.48954600 6.53864565
v -32.91426932 -19.46830060 7.79358803
f 1 2 6
f 1 6 12
f 1 12 23
f 1 23 36
f 1 36 55
f 1 55 87
f 1 87 86
f 1 86 132
f 1 132 92
f 1 92 60
f 1 60 38
f 1 38 26
f 1 26 16
f 1 16 15
f 1 15 9
f 1 9 3
f 1 3 10
f 1 10 18
f 1 18 31
f 1 31 47
f 1 47 76
f 1 76 116
f 1 116 147
f 1 147 146
f 1 146 106
f 1 106 75
f 1 75 115
f 1 115 149
f 1 149 163
f 1 163 167
f 1 167 172
f 1 172 170
f 1 170 168
f 1 168 164
f 1 164 156
f 1 156 124
f 1 124 82
f 1 82 51
f 1 51 34
f 1 34 32
f 1 32 19
f 1 19 11
f 1 11 4
f 1 4 2
f 2 5 6
f 2 4 7
f 2 7 8
f 2 8 5
f 3 9 10
f 4 11 22
f 4 22 35
f 4 35 50
f 4 50 49
f 4 49 80
f 4 80 121
f 4 121 155
f 4 155 154
f 4 154 159
f 4 159 137
f 4 137 89
f 4 89 56
f 4 56 37
f 4 37 25
f 4 25 24
f 4 24 14
f 4 14 13
f 4 13 8
f 4 8 7
f 5 12 6
f 5 8 13
f 5 13 14
f 5 14 12
f 9 15 10
f 10 15 16
f 10 16 17
f 10 17 18
f 11 19 20
f 11 20 21
f 11 21 22
f 12 14 24
f 12 24 25
f 12 25 23
f 16 26 27
f 16 27 28
f 16 28 18
f 16 18 17
f 18 28 29
f 18 29 30
f 18 30 31
f 19 32 20
f 20 32 21
f 21 33 22
f 21 32 34
f 21 34 33
f 22 33 35
f 23 25 36
f 25 37 36
f 26 38 27
f 27 38 39
f 27 39 40
f 27 40 41
f 27 41 28
f 28 41 42
f 28 42 43
f 28 43 44
f 28 44 29
f 29 44 45
f 29 45 30
f 30 46 31
f 30 45 41
f 30 41 46
f 31 46 47
f 33 48 49
f 33 49 50
f 33 50 35
f 33 34 51
f 33 51 48
f 36 52 53
f 36 53 54
f 36 54 55
f 36 37 52
f 37 56 90
f 37 90 133
f 37 133 88
f 37 88 91
f 37 91 57
f 37 57 58
f 37 58 59
f 37 59 52
f 38 60 61
f 38 61 62
f 38 62 39
f 39 63 64
f 39 64 65
f 39 65 66
f 39 66 67
f 39 67 40
f 39 62 63
f 40 67 68
f 40 68 41
f 41 69 46
f 41 45 70
f 41 70 42
f 41 68 67
f 41 67 66
f 41 66 71
f 41 71 72
f 41 72 73
f 41 73 74
f 41 74 75
f 41 75 69
f 42 70 45
f 42 45 43
f 43 45 44
f 46 69 47
f 47 69 76
f 48 51 77
f 48 77 78
f 48 78 79
f 48 79 49
f 49 79 80
f 51 81 78
f 51 78 77
f 51 82 83
f 51 83 84
f 51 84 81
f 52 58 53
f 52 59 58
f 53 85 86
f 53 86 87
f 53 87 54
f 53 58 88
f 53 88 85
f 54 87 55
f 56 89 90
f 57 91 58
f 58 91 88
f 60 92 93
f 60 93 61
f 61 93 94
f 61 94 62
f 62 94 63
f 63 94 64
f 64 94 95
f 64 95 96
f 64 96 97
f 64 97 65
f 65 97 98
f 65 98 99
f 65 99 66
f 66 99 100
f 66 100 71
f 69 101 102
f 69 102 103
f 69 103 104
f 69 104 76
f 69 75 105
f 69 105 106
f 69 106 101
f 71 100 107
f 71 107 108
f 71 108 109
f 71 109 72
f 72 109 73
f 73 109 110
f 73 110 111
f 73 111 112
f 73 112 75
f 73 75 74
f 75 112 113
f 75 113 114
f 75 114 115
f 75 106 105
f 76 104 116
f 78 81 117
f 78 117 118
f 78 118 119
f 78 119 79
f 79 120 121
f 79 121 80
f 79 119 122
f 79 122 123
f 79 123 120
f 81 84 117
f 82 124 125
f 82 125 83
f 83 125 126
f 83 126 127
f 83 127 128
f 83 128 84
f 84 128 129
f 84 129 118
f 84 118 117
f 85 88 130
f 85 130 131
f 85 131 132
f 85 132 86
f 88 133 134
f 88 134 135
f 88 135 130
f 89 136 90
f 89 137 136
f 90 134 133
f 90 136 134
f 92 132 131
f 92 131 93
f 93 131 94
f 94 131 95
f 95 131 130
f 95 130 138
f 95 138 96
f 96 138 139
f 96 139 140
f 96 140 99
f 96 99 98
f 96 98 97
f 99 140 141
f 99 141 120
f 99 120 122
f 99 122 142
f 99 142 143
f 99 143 100
f 100 143 144
f 100 144 145
f 100 145 107
f 101 106 102
f 102 106 146
f 102 146 103
f 103 146 147
f 103 147 104
f 104 147 116
f 107 145 115
f 107 115 114
f 107 114 113
f 107 113 148
f 107 148 108
f 108 148 109
f 109 148 110
f 110 148 113
f 110 113 111
f 111 113 112
f 115 145 149
f 118 129 150
f 118 150 151
f 118 151 119
f 119 151 122
f 120 141 152
f 120 152 153
f 120 153 154
f 120 154 155
f 120 155 121
f 120 123 122
f 122 151 150
f 122 150 128
f 122 128 142
f 124 156 145
f 124 145 125
f 125 157 126
f 125 145 144
f 125 144 157
f 126 157 128
f 126 128 127
f 128 150 129
f 128 157 144
f 128 144 143
f 128 143 142
f 130 135 138
f 134 136 139
f 134 139 138
f 134 138 135
f 136 137 158
f 136 158 139
f 137 159 153
f 137 153 158
f 139 158 160
f 139 160 140
f 140 160 152
f 140 152 141
f 145 161 162
f 145 162 163
f 145 163 149
f 145 156 161
f 152 160 158
f 152 158 153
f 153 159 154
f 156 164 165
f 156 165 162
f 156 162 161
f 162 166 167
f 162 167 163
f 162 165 166
f 164 168 169
f 164 169 165
f 165 169 166
f 166 169 170
f 166 170 171
f 166 171 167
f 167 171 172
f 168 170 169
f 170 172 171

