# https://github.com/mikedh/trimesh
v 4.05884773 -40.61579924 13.21050775
v 4.27428156 -40.61579924 13.20930101
v 4.05884773 -40.61579924 0.87961538
v 4.05884773 -42.41559840 12.74701232
v 4.27428156 -42.41701613 12.74701232
v 5.75888269 -40.61579924 12.90754538
v 5.36091554 -42.22286404 12.69269852
v 8.66273355 -40.61579924 0.87961538
v 4.05884773 -55.09072690 0.87961538
v 4.05884773 -43.27865239 12.50560936
v 4.27428156 -43.28148528 12.50681610
v 6.05408999 -40.61579924 12.72528577
v 4.27428156 -44.40671419 12.04090718
v 5.54570250 -45.80971050 11.11391888
v 6.07301967 -44.35994962 11.37825514
v 6.90906535 -40.61579924 12.13988339
v 6.61160408 -40.61579924 12.34869653
v 8.66273355 -40.61579924 8.38967871
v 8.66273355 -45.51068741 0.87961538
v 4.20442320 -55.09072690 0.87961538
v 4.05884773 -54.99010653 1.17654146
v 4.05884773 -43.42178671 12.45008624
v 4.05884773 -44.40671419 12.04211392
v 4.05884773 -44.62212454 11.94434702
v 4.27428156 -46.09881204 11.25272539
v 6.69633544 -44.90413999 10.54420676
v 6.92123443 -43.75340220 10.94131323
v 4.27428156 -46.96186345 10.83630329
v 5.39787306 -48.94731346 9.29977001
v 5.74851665 -47.85893014 9.67394575
v 7.45035465 -40.61579924 11.53033841
v 8.66273355 -42.68060879 6.42706937
v 7.69598507 -40.61579924 10.90872598
v 6.84236183 -46.89525835 9.02698397
v 6.88968539 -48.79992851 7.47838066
v 8.02589658 -53.04008438 0.87961538
v 8.66273355 -46.11723483 0.88444236
v 8.65597295 -46.13423990 0.87961538
v 4.27428156 -55.08930660 0.87961538
v 4.27428156 -54.92491659 1.36000781
v 4.05884773 -54.92775205 1.36000781
v 4.05884773 -46.10164493 11.25513888
v 4.05884773 -46.20934882 11.20323599
v 6.61115381 -47.85893014 8.67815757
v 4.05884773 -46.96469891 10.83871678
v 4.27428156 -47.85893014 10.23521066
v 4.27428156 -49.06777179 9.39150318
v 4.27428156 -49.93224351 8.67574151
v 5.44023842 -50.70318094 7.66667657
v 5.99459799 -49.44898988 8.14827575
v 8.20166897 -51.31256125 0.87961538
v 7.35120089 -54.31695401 0.87961538
v 7.47829760 -54.10012593 0.87961538
v 8.61540999 -46.62741250 0.87961538
v 6.06220271 -54.84130385 0.87961538
v 4.27428156 -54.25885015 2.96534098
v 4.05884773 -54.34529836 2.76497762
v 4.05884773 -47.85893014 10.23883090
v 4.05884773 -49.06918952 9.39150318
v 4.05884773 -49.17689341 9.30339281
v 4.05884773 -49.93366124 8.67694826
v 4.05884773 -50.84489753 7.81393286
v 4.27428156 -50.84347980 7.81151680
v 4.27428156 -51.70653378 6.85676566
v 5.34153559 -52.32442049 5.87666773
v 5.58626481 -54.13697152 2.71066125
v 4.27428156 -53.83228522 3.82835894
v 4.05884773 -53.88755361 3.72214226
v 4.05884773 -54.26026531 2.96654772
v 4.05884773 -51.70795152 6.85918172
v 4.05884773 -51.79581488 6.75175572
v 4.27428156 -52.41228385 5.99375027
v 4.27428156 -53.20447954 4.81328642
v 4.05884773 -53.20730986 4.81328642
v 4.05884773 -53.83370038 3.82956569
v 4.05884773 -52.41369901 5.99616376
f 1 2 6
f 1 6 12
f 1 12 17
f 1 17 16
f 1 16 31
f 1 31 33
f 1 33 18
f 1 18 8
f 1 8 3
f 1 3 9
f 1 9 21
f 1 21 41
f 1 41 57
f 1 57 69
f 1 69 68
f 1 68 75
f 1 75 74
f 1 74 76
f 1 76 71
f 1 71 70
f 1 70 62
f 1 62 61
f 1 61 60
f 1 60 59
f 1 59 58
f 1 58 45
f 1 45 43
f 1 43 42
f 1 42 24
f 1 24 23
f 1 23 22
f 1 22 10
f 1 10 4
f 1 4 5
f 1 5 2
f 2 5 7
f 2 7 6
f 3 8 19
f 3 19 38
f 3 38 54
f 3 54 51
f 3 51 36
f 3 36 53
f 3 53 52
f 3 52 55
f 3 55 39
f 3 39 20
f 3 20 9
f 4 10 11
f 4 11 5
f 5 11 7
f 6 7 12
f 7 11 13
f 7 13 14
f 7 14 15
f 7 15 16
f 7 16 17
f 7 17 12
f 8 18 32
f 8 32 37
f 8 37 19
f 9 20 21
f 10 22 11
f 11 22 13
f 13 23 24
f 13 24 25
f 13 25 14
f 13 22 23
f 14 26 27
f 14 27 15
f 14 25 28
f 14 28 29
f 14 29 30
f 14 30 26
f 15 27 16
f 16 27 31
f 18 33 27
f 18 27 34
f 18 34 35
f 18 35 36
f 18 36 32
f 19 37 38
f 20 39 40
f 20 40 41
f 20 41 21
f 24 42 25
f 25 42 43
f 25 43 28
f 26 30 44
f 26 44 34
f 26 34 27
f 27 33 31
f 28 43 45
f 28 45 46
f 28 46 29
f 29 47 48
f 29 48 49
f 29 49 50
f 29 50 44
f 29 44 30
f 29 46 47
f 32 36 51
f 32 51 37
f 34 44 35
f 35 44 50
f 35 50 49
f 35 49 52
f 35 52 53
f 35 53 36
f 37 51 54
f 37 54 38
f 39 55 40
f 40 55 56
f 40 56 57
f 40 57 41
f 45 58 46
f 46 58 47
f 47 59 60
f 47 60 61
f 47 61 48
f 47 58 59
f 48 61 62
f 48 62 63
f 48 63 49
f 49 63 64
f 49 64 65
f 49 65 52
f 52 65 66
f 52 66 55
f 55 66 56
f 56 66 67
f 56 67 68
f 56 68 69
f 56 69 57
f 62 70 64
f 62 64 63
f 64 70 71
f 64 71 72
f 64 72 65
f 65 72 73
f 65 73 67
f 65 67 66
f 67 73 74
f 67 74 75
f 67 75 68
f 71 76 72
f 72 76 73
f 73 76 74

