# https://github.com/mikedh/trimesh
v 21.81097735 -21.54843118 9.42136046
v 21.81097735 -10.13906636 9.42136046
v 25.88560079 -21.54843118 9.42136046
v 21.81097735 -21.54843118 32.33476263
v 25.88560079 0.92763477 9.45469132
v 25.88560079 0.74052245 9.45191503
v 25.88560079 -10.55612480 9.42136046
v 21.81097735 1.48220983 9.65191044
v 25.88560079 -21.54843118 32.44587062
v 25.88560079 -20.35136108 35.89301902
v 24.99457554 -20.17552115 35.89301902
v 24.06127307 -19.43383312 36.79577850
v 21.81097735 -18.42612995 37.54576258
v 25.88560079 1.48220983 9.48802732
v 21.81097735 1.48220983 37.79853441
v 25.88560079 -19.63898100 36.85411007
v 24.99457554 -19.57360387 36.84022221
v 21.81097735 -18.26381507 37.79853441
v 25.88560079 1.48220983 37.79853441
v 25.88560079 -11.77799298 37.79853441
v 23.00273417 -16.51667848 37.79853441
f 1 2 7
f 1 7 3
f 1 3 9
f 1 9 4
f 1 4 13
f 1 13 18
f 1 18 15
f 1 15 8
f 1 8 2
f 2 5 6
f 2 6 7
f 2 8 5
f 3 7 6
f 3 6 5
f 3 5 14
f 3 14 19
f 3 19 20
f 3 20 16
f 3 16 10
f 3 10 9
f 4 9 10
f 4 10 11
f 4 11 12
f 4 12 13
f 5 8 14
f 8 15 19
f 8 19 14
f 10 16 17
f 10 17 12
f 10 12 11
f 12 17 18
f 12 18 13
f 15 18 21
f 15 21 20
f 15 20 19
f 16 20 21
f 16 21 18
f 16 18 17

