# https://github.com/mikedh/trimesh
v -24.58085622 -20.69161418 32.82105628
v -22.11860828 -20.69161418 32.33685578
v -24.58085622 -20.69161418 29.33998909
v -24.58085622 -27.10088840 31.18376882
v -22.11860828 -28.95582472 32.51915527
v -22.11860828 -28.86508859 32.53994010
v -22.11860828 -20.69161418 29.33998909
v -24.58085622 -29.41466171 29.33998909
v -24.58085622 -28.68464682 30.50466106
v -22.11860828 -30.26840653 32.11298535
v -22.11860828 -31.22423062 29.33998909
v -24.21956871 -29.73120704 29.33998909
v -24.21667664 -29.72914477 29.83679737
v -24.58085622 -29.41259815 29.47765061
v -22.11860828 -30.41997648 31.94124809
v -22.11860828 -31.07987668 30.27295322
v -22.16199191 -31.19639058 29.33998909
v -23.71608088 -30.10652521 29.33998909
v -22.11860828 -31.01285476 30.69138999
v -22.11860828 -31.00460567 30.71353852
f 1 2 7
f 1 7 3
f 1 3 8
f 1 8 14
f 1 14 9
f 1 9 4
f 1 4 5
f 1 5 6
f 1 6 2
f 2 6 5
f 2 5 10
f 2 10 15
f 2 15 20
f 2 20 19
f 2 19 16
f 2 16 11
f 2 11 7
f 3 7 11
f 3 11 17
f 3 17 18
f 3 18 12
f 3 12 8
f 4 9 10
f 4 10 5
f 8 12 13
f 8 13 14
f 9 14 13
f 9 13 10
f 10 13 15
f 11 16 17
f 12 18 13
f 13 18 17
f 13 17 16
f 13 16 19
f 13 19 20
f 13 20 15

