# https://github.com/mikedh/trimesh
v 17.41379930 -35.41667762 -2.22838245
v 17.00263515 -40.61438151 -3.81957689
v 17.00434106 -40.61438151 -4.15841741
v 17.00263515 -40.61438151 -5.88514805
v 16.98898787 -40.61438151 -10.72650462
v 16.99410560 -40.52788957 -10.83222471
v 17.23466204 -36.90638715 -10.83222471
v 17.30972979 -35.77333370 -10.83222471
v 17.30972979 -35.67717237 -10.83222471
v 17.30631669 -35.41667762 -10.83222471
v 16.89344663 -35.41667762 6.53810531
v 16.86956132 -37.49962694 6.53810531
v 16.79108175 -40.61438151 -2.09284625
v 16.98728068 -40.61438151 -10.83222471
v 9.00797251 -35.41667762 -10.83222471
v 16.77914039 -35.41667762 8.26483853
v 16.52493410 -37.49962694 8.26483853
v 15.93633861 -38.81177261 8.26483853
v 16.15642284 -38.97916019 6.53810531
v 14.75573582 -40.61438151 4.89540681
v 5.53952404 -40.61438151 -10.83222471
v 7.83589927 -35.73263116 -10.83222471
v 1.94823785 -35.41667762 -2.20940388
v 16.41915740 -35.41667762 10.05933728
v 15.68554671 -38.56959260 9.43858166
v 14.61925017 -35.41667762 16.85783810
v 14.17908298 -40.61438151 6.16402477
v -0.01204098 -40.61438151 -7.78265493
v 5.62312198 -39.22592017 -10.83222471
v 6.42838860 -36.29941261 -10.83222471
v -0.01204098 -36.40015135 -3.20424005
v -0.01204098 -36.06791834 -2.09284625
v 1.41594317 -35.41667762 -0.36611046
v 14.68408117 -38.94710812 10.00512383
v -0.01204098 -35.41667762 16.85783810
v 14.59195304 -35.42634445 16.85783810
v 12.79545763 -38.85094679 11.73185704
v 14.14154911 -38.64997878 11.16531488
v 13.74915255 -40.61438151 6.67635348
v -0.01204098 -40.07202055 -7.54140378
v 6.38403044 -36.32230731 -10.83222471
v 5.75107680 -37.56525943 -10.83222471
v -0.01204098 -40.61438151 13.25799534
v -0.01204098 -38.41543033 -6.31615401
v -0.01204098 -35.41667762 7.90431006
v 12.90635206 -39.66041771 9.99156918
v -0.01204098 -38.27856902 16.85783810
v 12.87564311 -36.00940795 16.85783810
v 5.75960763 -40.61438151 12.90560018
v 6.05475833 -40.61438151 12.72398125
v 6.61264487 -40.61438151 12.34719132
v 12.67091335 -40.61438151 7.54649613
v -0.01204098 -39.27883167 -7.14563785
v -0.01204098 -38.86163252 -6.75800266
v 0.82222931 -40.61438151 13.26070473
v 0.82222931 -38.29332270 16.85783810
v 0.76592850 -38.29281581 16.85783810
v 6.90950148 -40.61438151 12.13846566
v 10.66457045 -36.75527905 16.85783810
v 10.63386086 -36.76494588 16.85783810
v 9.45325806 -37.13432038 16.85783810
v 7.72841666 -37.53320480 16.85783810
v 4.27532299 -40.61438151 13.20920066
v 2.53683333 -40.61438151 13.24986204
v 2.54707008 -38.14475931 16.85783810
v 6.00186998 -37.76571799 16.85783810
v 5.95921838 -37.77080484 16.85783810
v 4.23267106 -37.96108969 16.85783810
f 1 2 3
f 1 3 4
f 1 4 5
f 1 5 6
f 1 6 7
f 1 7 8
f 1 8 9
f 1 9 10
f 1 10 15
f 1 15 23
f 1 23 33
f 1 33 45
f 1 45 35
f 1 35 26
f 1 26 24
f 1 24 16
f 1 16 11
f 1 11 12
f 1 12 2
f 2 13 20
f 2 20 27
f 2 27 39
f 2 39 52
f 2 52 58
f 2 58 51
f 2 51 50
f 2 50 49
f 2 49 63
f 2 63 64
f 2 64 55
f 2 55 43
f 2 43 28
f 2 28 21
f 2 21 14
f 2 14 5
f 2 5 4
f 2 4 3
f 2 12 13
f 5 14 6
f 6 14 21
f 6 21 29
f 6 29 42
f 6 42 41
f 6 41 30
f 6 30 22
f 6 22 15
f 6 15 10
f 6 10 9
f 6 9 8
f 6 8 7
f 11 16 12
f 12 16 17
f 12 17 18
f 12 18 19
f 12 19 13
f 13 19 18
f 13 18 20
f 15 22 23
f 16 24 17
f 17 25 18
f 17 24 26
f 17 26 25
f 18 25 27
f 18 27 20
f 21 28 29
f 22 30 31
f 22 31 32
f 22 32 23
f 23 32 33
f 25 34 27
f 25 26 34
f 26 35 47
f 26 47 57
f 26 57 56
f 26 56 65
f 26 65 68
f 26 68 67
f 26 67 66
f 26 66 62
f 26 62 61
f 26 61 60
f 26 60 59
f 26 59 48
f 26 48 36
f 26 36 37
f 26 37 38
f 26 38 34
f 27 34 39
f 28 40 41
f 28 41 42
f 28 42 29
f 28 43 47
f 28 47 35
f 28 35 45
f 28 45 32
f 28 32 31
f 28 31 44
f 28 44 54
f 28 54 53
f 28 53 40
f 30 41 31
f 31 41 44
f 32 45 33
f 34 38 46
f 34 46 39
f 36 48 49
f 36 49 50
f 36 50 37
f 37 50 51
f 37 51 46
f 37 46 38
f 39 46 52
f 40 53 41
f 41 53 54
f 41 54 44
f 43 55 56
f 43 56 57
f 43 57 47
f 46 51 58
f 46 58 52
f 48 59 49
f 49 59 60
f 49 60 61
f 49 61 62
f 49 62 63
f 55 64 56
f 56 64 63
f 56 63 65
f 62 66 63
f 63 66 67
f 63 67 68
f 63 68 65

