# https://github.com/mikedh/trimesh
v -25.82085966 18.04779621 4.96178548
v -21.00355565 18.04779621 4.96178548
v -25.82085966 18.04779621 7.20143663
v -25.82085966 28.23345684 4.96178548
v -21.99212395 18.04779621 7.20143663
v -18.18729670 20.91193642 4.96178548
v -25.82085966 28.29299901 7.20143663
v -25.82085966 28.24680307 5.42414107
v -25.49731573 28.53424244 4.96178548
v -18.18729670 21.97136044 7.19924442
v -18.18729670 21.98368004 7.20143663
v -18.18729670 28.53424244 4.96178548
v -25.55783822 28.53424244 7.20143663
v -25.82085966 28.29197237 7.14465531
v -25.82085966 28.24782971 5.46097122
v -25.54364289 28.53424244 6.64832047
v -18.18729670 28.53424244 7.20143663
f 1 2 5
f 1 5 3
f 1 3 7
f 1 7 14
f 1 14 15
f 1 15 8
f 1 8 4
f 1 4 9
f 1 9 12
f 1 12 6
f 1 6 2
f 2 6 5
f 3 5 11
f 3 11 17
f 3 17 13
f 3 13 7
f 4 8 9
f 5 6 10
f 5 10 11
f 6 12 17
f 6 17 11
f 6 11 10
f 7 13 14
f 8 15 9
f 9 14 16
f 9 16 13
f 9 13 17
f 9 17 12
f 9 15 14
f 13 16 14

