# https://github.com/mikedh/trimesh
v -26.88755760 -1.23909903 52.86521208
v -26.86123050 -0.00054162 52.86521208
v -26.74539330 -2.96676818 52.86521208
v -24.27601297 -2.61439682 99.77752567
v -24.38658062 -1.23909903 99.77752567
v -24.42870090 -0.00054162 99.29119986
v 26.90184188 -0.00054162 52.86521208
v -26.71380695 -3.26128721 52.86521208
v -24.17070970 -3.47954653 99.77752567
v -24.24442147 -2.33039629 100.70312197
v -26.54005116 -4.69443734 52.86521208
v -24.27601297 -1.23909903 100.75018243
v -24.40237894 -0.00054162 99.77752567
v 24.49037499 -0.00054162 98.05184996
v 24.46931743 -1.23909903 98.05184996
v 26.83339450 -1.23909903 52.86521208
v -24.22862315 -3.90028808 97.46093619
v -24.19703166 -3.70832498 98.61138838
v -23.95483364 -4.69443734 99.77752567
v -23.33880208 -6.41947687 103.23411575
v -22.73330445 -7.97621990 106.28804422
v -22.89652631 -6.41947687 106.28804422
v -26.19254988 -6.37740290 52.86521208
v -24.28654175 -0.00054162 100.76064432
v 24.44825472 -0.00054162 98.53817577
v 24.32188874 -1.23909903 99.77752567
v 24.16920081 -2.53813776 100.69788845
v 24.21658548 -3.05354637 99.78275919
v 24.32188874 -2.96676818 98.05184996
v 26.67543703 -2.96676818 52.86521208
v -23.46516805 -6.41947687 101.50843489
v -25.93455353 -7.24255197 52.86521208
v -25.75553850 -7.82633077 52.86521208
v -25.69235551 -8.01829387 52.86521208
v -22.42792343 -8.84136929 106.28804422
v -22.64905875 -5.41495716 106.28804422
v -23.34933600 -0.00054162 101.24174176
v 24.32715313 -0.00054162 99.77752567
v 24.11128221 -3.68991763 100.36321622
v 24.17446520 -1.23909903 100.69788845
v 22.70020406 -7.66855277 106.28804422
v 22.67914135 -8.13136828 106.28804422
v 26.47535928 -4.69443734 52.86521208
v -25.65023009 -8.13399791 52.86521208
v -22.48584203 -9.00177692 104.04989056
v -21.97511374 -9.87218555 106.28804422
v -25.01314096 -9.87218555 52.86521208
v -22.37526923 -5.34395670 106.28804422
v -21.62234420 -0.00054162 101.60779449
v 24.28503285 -0.00054162 100.03899559
v 23.46892355 -6.41947687 101.50843489
v 23.98491623 -4.56558518 99.78275919
v 24.14287370 -3.90291770 99.21275889
v 24.16920081 -0.00054162 100.68743171
v 22.70020406 -6.64299608 106.28804422
v 22.38429426 -8.96233258 106.28804422
v 22.40008744 -8.99914729 105.75465280
v 22.67914135 -8.31281289 105.09052642
v 24.93792030 -9.84851895 52.86521208
v 25.55394671 -8.10244243 52.86521208
v 26.09626650 -6.39055102 52.86521208
v 24.04809922 -5.13358625 96.32616911
v -24.24442147 -10.78729809 59.41756272
v -21.17480146 -11.48152136 106.28804422
v -24.41817212 -11.17122460 52.86521208
v -21.62234420 -5.26506802 106.28804422
v -19.89535625 -5.26243840 106.28804422
v -20.38502055 -0.00054162 101.60779449
v 24.11654660 -5.49647546 93.51279193
v 24.09021950 -5.35710481 94.60049340
v 23.91120446 -0.00054162 100.76587269
v 21.53659346 -5.91458739 106.28804422
v 21.82618130 -6.08025426 106.28804422
v 21.98940316 -9.83800045 106.28804422
v 24.48511060 -10.90300197 52.86521208
v -20.80623747 -12.14418916 106.28804422
v -24.01801662 -11.89700335 52.86521208
v -5.98466726 -5.39917942 106.28804422
v -7.81169537 -0.00054162 101.46660280
v 23.26358141 -0.00054162 100.91752112
v 22.77918022 -0.00054162 100.98550536
v 21.53659346 -0.00054162 101.12146354
v 20.38351165 -5.78573524 106.28804422
v 21.11011087 -11.60774373 106.28804422
v 22.22107240 -10.33500106 98.05184996
v 24.34295145 -11.21592835 52.86521208
v -22.60693847 -14.38463666 52.86521208
v -20.69040285 -12.34404113 106.28804422
v -23.95483364 -12.01007776 52.86521208
v -23.88112186 -12.14155954 52.86521208
v 19.80960294 -5.75417976 106.28804422
v 19.32520433 -0.00054162 101.15284404
v 7.72594334 -0.00054162 101.28880222
v 22.36323155 -10.65055707 92.87481254
v 20.92056319 -11.95748499 106.28804422
v 23.41101010 -13.06719025 52.86521208
v 23.92699764 -12.06267022 52.86521208
v 24.24817697 -11.41578047 52.86521208
v -22.15413392 -15.13408233 52.86521208
v -20.55350680 -12.55704153 106.28804422
v 20.65730246 -12.43607824 106.28804422
v 22.75812265 -14.25841413 52.86521208
v 23.27937973 -13.30911650 52.86521208
v -21.21692431 -16.51464001 52.86521208
v -20.05331243 -13.32752418 106.28804422
v 20.32559434 -12.93833842 106.28804422
v 20.67309820 -12.45974517 105.79125652
v 22.60542958 -14.52926655 52.86521208
v -20.49032510 -17.35612247 52.86521208
v -18.61064407 -15.39967486 104.95979660
v -18.72647869 -15.14460082 106.28804422
v -19.25826455 -14.48193334 106.28804422
v 20.08865943 -13.29070914 106.28804422
v 22.51592463 -14.67652606 52.86521208
v -20.34816338 -17.50601160 52.86521208
v -17.69976286 -16.34108363 106.28804422
v -18.56325683 -15.34708241 106.28804422
v 19.21989977 -14.53978504 106.28804422
v 22.02625905 -15.39178599 52.86521208
v -19.63209552 -18.25808690 52.86521208
v -18.94235219 -18.97597710 52.86521208
v -18.80019175 -19.12323596 52.86521208
v -17.05740677 -17.00375175 106.28804422
v 18.52489205 -15.40230513 106.28804422
v 21.15749811 -16.51464001 52.86521208
v -18.65276564 -19.27312510 52.86521208
v -16.86259342 -17.20360371 106.28804422
v 17.86147583 -16.15963966 106.28804422
v 19.58846506 -18.36327245 52.86521208
v 19.80960294 -18.10556814 52.86521208
v 20.44142896 -17.36138172 52.86521208
v -17.93669649 -19.99890416 52.86521208
v -17.01528521 -20.86405387 52.86521208
v -15.99909944 -18.01353135 106.28804422
v 17.66139679 -16.38578786 106.28804422
v 18.81447860 -19.23105114 52.86521208
v -16.16758569 -21.49779550 52.86521208
v -14.09835828 -19.54923676 106.28804422
v -14.96185225 -18.87868041 106.28804422
v 17.46658472 -16.58826944 106.28804422
v 16.81896296 -17.25093692 106.28804422
v 16.15554673 -17.86627119 106.28804422
v 15.95546898 -18.05034607 106.28804422
v 17.73510985 -19.80957133 58.34555022
v 18.22477543 -19.73331099 52.86521208
v -15.09348262 -22.24198128 52.86521208
v -14.77757025 -22.46024125 52.86521208
v -12.99266371 -20.28290470 106.28804422
v 15.71853407 -18.25282765 106.28804422
v 17.93518888 -19.96997831 52.86521208
v 14.97613910 -18.95756909 104.95979660
v 16.65047671 -20.67209013 58.34555022
v 16.03971211 -21.49779550 52.86521208
v -14.57749251 -22.58909276 52.86521208
v -11.96068220 -21.00342516 104.95979660
v -11.89223482 -20.96397953 106.28804422
v 14.91822179 -18.91549513 106.28804422
v 14.26007125 -19.42564385 106.28804422
v 15.82910430 -21.66346302 52.86521208
v -13.09796826 -23.47527945 52.86521208
v -11.69215578 -21.07179535 106.28804422
v 14.05999221 -19.57816261 106.28804422
v 14.89189598 -22.37872295 52.86521208
v -11.66582997 -24.22472576 52.86521208
v -11.02873956 -21.42153516 106.28804422
v 12.90691169 -20.33812677 106.28804422
v 14.02840200 -23.00720533 52.86521208
v -11.47101790 -24.32465142 52.86521208
v -11.27620454 -24.41931784 52.86521208
v -10.36005765 -24.53239290 58.34555022
v -9.53868460 -22.12101864 106.28804422
v 11.84860436 -20.99027576 106.28804422
v 13.77567134 -23.15709382 52.86521208
v -10.73915301 -24.66913328 52.86521208
v -9.65451922 -25.08987419 52.86521208
v -9.49656304 -24.84794890 58.34555022
v -8.30662534 -22.69427767 104.95979660
v -10.64964420 -24.70857762 52.86521208
v -8.49090798 -22.54175955 106.28804422
v 10.98510910 -21.43994252 106.28804422
v 12.89111594 -23.65409508 52.86521208
v -7.82749111 -25.66576412 52.86521208
v -7.34309185 -22.95198326 106.28804422
v -8.20132143 -22.65746295 106.28804422
v 9.45293258 -22.15520374 106.28804422
v 11.54848645 -24.32465142 52.86521208
v -6.05838032 -26.12332103 52.86521208
v -6.08470613 -23.31224156 106.28804422
v 9.17387674 -22.26827880 106.28804422
v 10.40593600 -24.81902177 52.86521208
v 10.70078758 -24.69805913 52.86521208
v -4.59465149 -26.44676590 52.86521208
v -4.35771690 -23.69616904 106.28804422
v 8.16295601 -22.67324068 106.28804422
v 8.26299488 -22.71005540 104.95979660
v 9.45293258 -25.16350491 52.86521208
v -4.32612540 -26.49935836 52.86521208
v -2.63072750 -26.76232191 52.86521208
v -3.03088348 -23.89339074 106.28804422
v 7.29946139 -22.96776099 106.28804422
v 9.17387674 -25.25028245 52.86521208
v -0.90373811 -26.85961795 52.86521208
v -0.90373811 -24.08009523 106.28804422
v -1.30389425 -24.05116938 106.28804422
v -2.63072750 -23.95124244 106.28804422
v 6.97301831 -23.05979779 106.28804422
v 7.74700413 -25.67628261 52.86521208
v 0.41782991 -24.08272485 106.28804422
v 0.52313414 -26.85698832 52.86521208
v 0.81798601 -24.08272485 106.28804422
v 5.99895411 -23.33327854 106.28804422
v 4.23510803 -26.51776572 52.86521208
v 0.81798601 -26.85435870 52.86521208
v 2.25012342 -26.79650700 52.86521208
v 2.54497532 -26.78335889 52.86521208
v 2.14481919 -23.98805844 106.28804422
v 4.27196456 -23.70931715 106.28804422
v 2.54497532 -23.95913130 106.28804422
f 1 2 7
f 1 7 16
f 1 16 30
f 1 30 43
f 1 43 61
f 1 61 60
f 1 60 59
f 1 59 75
f 1 75 86
f 1 86 98
f 1 98 97
f 1 97 96
f 1 96 103
f 1 103 102
f 1 102 108
f 1 108 114
f 1 114 119
f 1 119 125
f 1 125 131
f 1 131 130
f 1 130 129
f 1 129 136
f 1 136 145
f 1 145 150
f 1 150 153
f 1 153 159
f 1 159 163
f 1 163 167
f 1 167 173
f 1 173 181
f 1 181 186
f 1 186 191
f 1 191 190
f 1 190 196
f 1 196 201
f 1 201 207
f 1 207 212
f 1 212 215
f 1 215 214
f 1 214 213
f 1 213 209
f 1 209 202
f 1 202 198
f 1 198 197
f 1 197 192
f 1 192 187
f 1 187 182
f 1 182 175
f 1 175 178
f 1 178 174
f 1 174 169
f 1 169 168
f 1 168 164
f 1 164 160
f 1 160 154
f 1 154 147
f 1 147 146
f 1 146 137
f 1 137 133
f 1 133 132
f 1 132 126
f 1 126 122
f 1 122 121
f 1 121 120
f 1 120 115
f 1 115 109
f 1 109 104
f 1 104 99
f 1 99 87
f 1 87 90
f 1 90 89
f 1 89 77
f 1 77 65
f 1 65 47
f 1 47 44
f 1 44 34
f 1 34 33
f 1 33 32
f 1 32 23
f 1 23 11
f 1 11 8
f 1 8 3
f 1 3 4
f 1 4 5
f 1 5 6
f 1 6 2
f 2 6 13
f 2 13 24
f 2 24 37
f 2 37 49
f 2 49 68
f 2 68 79
f 2 79 93
f 2 93 92
f 2 92 82
f 2 82 81
f 2 81 80
f 2 80 71
f 2 71 54
f 2 54 50
f 2 50 38
f 2 38 25
f 2 25 14
f 2 14 7
f 3 8 4
f 4 9 10
f 4 10 5
f 4 8 11
f 4 11 9
f 5 10 12
f 5 12 13
f 5 13 6
f 7 14 15
f 7 15 16
f 9 17 18
f 9 18 19
f 9 19 20
f 9 20 10
f 9 11 17
f 10 20 21
f 10 21 22
f 10 22 12
f 11 23 19
f 11 19 17
f 12 22 24
f 12 24 13
f 14 25 26
f 14 26 15
f 15 26 27
f 15 27 28
f 15 28 29
f 15 29 16
f 16 29 30
f 17 19 18
f 19 31 20
f 19 23 31
f 20 31 21
f 21 31 32
f 21 32 33
f 21 33 34
f 21 34 35
f 21 35 46
f 21 46 64
f 21 64 76
f 21 76 88
f 21 88 100
f 21 100 105
f 21 105 112
f 21 112 111
f 21 111 117
f 21 117 116
f 21 116 123
f 21 123 127
f 21 127 134
f 21 134 139
f 21 139 138
f 21 138 148
f 21 148 156
f 21 156 161
f 21 161 165
f 21 165 171
f 21 171 179
f 21 179 184
f 21 184 183
f 21 183 188
f 21 188 193
f 21 193 199
f 21 199 205
f 21 205 204
f 21 204 203
f 21 203 208
f 21 208 210
f 21 210 216
f 21 216 218
f 21 218 217
f 21 217 211
f 21 211 206
f 21 206 200
f 21 200 194
f 21 194 189
f 21 189 185
f 21 185 180
f 21 180 172
f 21 172 166
f 21 166 162
f 21 162 158
f 21 158 157
f 21 157 149
f 21 149 143
f 21 143 142
f 21 142 141
f 21 141 140
f 21 140 135
f 21 135 128
f 21 128 124
f 21 124 118
f 21 118 113
f 21 113 106
f 21 106 101
f 21 101 95
f 21 95 84
f 21 84 74
f 21 74 56
f 21 56 42
f 21 42 41
f 21 41 55
f 21 55 73
f 21 73 72
f 21 72 83
f 21 83 91
f 21 91 78
f 21 78 67
f 21 67 66
f 21 66 48
f 21 48 36
f 21 36 22
f 22 36 24
f 23 32 31
f 24 36 37
f 25 38 26
f 26 38 27
f 27 39 28
f 27 38 40
f 27 40 41
f 27 41 42
f 27 42 39
f 28 39 29
f 29 39 43
f 29 43 30
f 34 44 35
f 35 45 46
f 35 44 47
f 35 47 45
f 36 48 37
f 37 48 49
f 38 50 40
f 39 51 52
f 39 52 53
f 39 53 43
f 39 42 51
f 40 50 54
f 40 54 55
f 40 55 41
f 42 56 57
f 42 57 58
f 42 58 59
f 42 59 60
f 42 60 61
f 42 61 51
f 43 53 52
f 43 52 62
f 43 62 61
f 45 47 63
f 45 63 46
f 46 63 64
f 47 65 63
f 48 66 49
f 49 66 67
f 49 67 68
f 51 61 69
f 51 69 70
f 51 70 62
f 51 62 52
f 54 71 72
f 54 72 73
f 54 73 55
f 56 74 57
f 57 74 75
f 57 75 59
f 57 59 58
f 61 62 70
f 61 70 69
f 63 65 64
f 64 65 77
f 64 77 76
f 67 78 68
f 68 78 79
f 71 80 72
f 72 80 81
f 72 81 82
f 72 82 83
f 74 84 85
f 74 85 86
f 74 86 75
f 76 87 88
f 76 77 89
f 76 89 90
f 76 90 87
f 78 91 92
f 78 92 93
f 78 93 79
f 82 92 91
f 82 91 83
f 84 94 85
f 84 95 96
f 84 96 97
f 84 97 94
f 85 94 86
f 86 94 98
f 87 99 88
f 88 99 100
f 94 97 98
f 95 101 102
f 95 102 103
f 95 103 96
f 99 104 105
f 99 105 100
f 101 106 107
f 101 107 102
f 102 107 108
f 104 109 110
f 104 110 111
f 104 111 112
f 104 112 105
f 106 113 114
f 106 114 107
f 107 114 108
f 109 115 116
f 109 116 110
f 110 116 117
f 110 117 111
f 113 118 119
f 113 119 114
f 115 120 116
f 116 120 121
f 116 121 122
f 116 122 123
f 118 124 125
f 118 125 119
f 122 126 127
f 122 127 123
f 124 128 129
f 124 129 130
f 124 130 131
f 124 131 125
f 126 132 127
f 127 133 134
f 127 132 133
f 128 135 129
f 129 135 136
f 133 137 138
f 133 138 139
f 133 139 134
f 135 140 136
f 136 140 141
f 136 141 142
f 136 142 143
f 136 143 144
f 136 144 145
f 137 146 138
f 138 146 147
f 138 147 148
f 143 149 144
f 144 150 145
f 144 149 151
f 144 151 152
f 144 152 153
f 144 153 150
f 147 154 148
f 148 154 155
f 148 155 156
f 149 157 151
f 151 157 158
f 151 158 159
f 151 159 152
f 152 159 153
f 154 160 155
f 155 160 156
f 156 160 161
f 158 162 163
f 158 163 159
f 160 164 165
f 160 165 161
f 162 166 167
f 162 167 163
f 164 168 165
f 165 168 169
f 165 169 170
f 165 170 171
f 166 172 167
f 167 172 173
f 169 174 170
f 170 175 176
f 170 176 177
f 170 177 171
f 170 174 178
f 170 178 175
f 171 177 179
f 172 180 181
f 172 181 173
f 175 182 176
f 176 182 183
f 176 183 184
f 176 184 177
f 177 184 179
f 180 185 186
f 180 186 181
f 182 187 188
f 182 188 183
f 185 189 190
f 185 190 191
f 185 191 186
f 187 192 193
f 187 193 188
f 189 194 195
f 189 195 190
f 190 195 194
f 190 194 196
f 192 197 193
f 193 197 198
f 193 198 199
f 194 200 196
f 196 200 201
f 198 202 203
f 198 203 204
f 198 204 205
f 198 205 199
f 200 206 207
f 200 207 201
f 202 208 203
f 202 209 210
f 202 210 208
f 206 211 207
f 207 211 212
f 209 213 210
f 210 213 214
f 210 214 215
f 210 215 216
f 211 217 212
f 212 217 215
f 215 218 216
f 215 217 218

