# https://github.com/mikedh/trimesh
v -19.00936768 14.70978616 4.96121684
v -16.58373634 14.58685516 4.96121684
v -16.58373634 15.69659451 4.33433230
v -19.00936768 15.82205221 4.32067988
v -19.00936768 10.24472036 4.96121684
v -16.58373634 10.39375204 4.96121684
v -16.58373634 15.89109396 4.20235715
v -16.58373634 18.84142250 1.63224323
v -19.00936768 16.55037278 3.08568352
v -19.00936768 10.24051090 3.08568352
v -18.17312324 10.29439758 4.96121684
v -18.02401437 10.30365916 4.96121684
v -18.17312324 10.29102951 3.08568352
v -16.58373634 10.39206800 3.08568352
v -16.58373634 18.84142250 1.29377065
v -16.59821985 18.84142250 1.35975823
v -19.00936768 16.73560936 1.35975823
v -19.00936768 10.24556174 1.35975823
v -18.17312324 10.29271355 1.35975823
v -16.58373634 10.39291066 1.35975823
v -16.58373634 10.39206800 2.94858807
v -19.00936768 16.67330120 1.19592656
v -16.58373634 15.94161513 -0.06068828
v -19.00936768 15.29749396 -0.46457979
v -19.00936768 15.96182103 -0.14828919
v -19.00936768 10.98230249 -0.17673646
v -18.17312324 11.00503638 -0.17673646
v -16.58373634 11.05387094 -0.16706192
v -16.58373634 14.30226155 -0.70862009
v -19.00936768 14.30226155 -0.75640615
v -19.00936768 12.57534307 -0.84969857
v -18.17312324 12.57534307 -0.84969857
v -16.58373634 12.57534307 -0.84002918
v -19.00936768 13.41143957 -0.83433767
f 1 2 3
f 1 3 4
f 1 4 9
f 1 9 17
f 1 17 22
f 1 22 25
f 1 25 24
f 1 24 30
f 1 30 34
f 1 34 31
f 1 31 26
f 1 26 18
f 1 18 10
f 1 10 5
f 1 5 11
f 1 11 12
f 1 12 6
f 1 6 2
f 2 6 14
f 2 14 21
f 2 21 20
f 2 20 28
f 2 28 33
f 2 33 29
f 2 29 23
f 2 23 15
f 2 15 8
f 2 8 7
f 2 7 3
f 3 7 4
f 4 7 8
f 4 8 9
f 5 10 11
f 6 12 13
f 6 13 14
f 8 15 16
f 8 16 17
f 8 17 9
f 10 18 19
f 10 19 13
f 10 13 11
f 11 13 12
f 13 19 20
f 13 20 21
f 13 21 14
f 15 22 17
f 15 17 16
f 15 23 24
f 15 24 25
f 15 25 22
f 18 26 27
f 18 27 28
f 18 28 19
f 19 28 20
f 23 29 24
f 24 29 30
f 26 31 32
f 26 32 33
f 26 33 27
f 27 33 28
f 29 33 34
f 29 34 30
f 31 34 32
f 32 34 33

