# https://github.com/mikedh/trimesh
v -5.29400215 -40.61438151 -10.83493153
v -5.35418564 -39.72568227 -10.83493153
v -17.04873699 -40.61438151 -10.83493153
v -6.38911261 -40.61438151 -33.17448674
v -6.38793224 -40.61292003 -33.17448674
v -6.44929611 -39.22620063 -33.17448674
v -6.54606275 -37.49918952 -33.17448674
v -5.39666871 -39.22620063 -10.83493153
v -17.12544247 -39.33281613 -10.83493153
v -17.04755726 -40.61438151 -12.45545321
v -17.01687533 -40.61438151 -33.17448674
v -6.77617724 -36.46079477 -33.17448674
v -5.57131991 -37.49918952 -10.83493153
v -5.55361885 -37.63793685 -10.83493153
v -17.29419245 -36.50533882 -10.83493153
v -17.04637754 -40.61438151 -13.84415641
v -17.10420093 -39.22766210 -33.17448674
v -17.01805506 -40.61438151 -32.83551757
v -7.81346367 -35.89924168 -33.17448674
v -6.16843787 -36.34687704 -10.83493153
v -17.34965639 -35.57574664 -10.83493153
v -17.04283707 -40.61438151 -17.63630383
v -17.29183300 -36.33300334 -24.54046300
v -17.21158834 -37.50065100 -33.17448674
v -17.02867518 -40.61438151 -27.99363611
v -9.53991514 -35.26101528 -33.17448674
v -7.81346367 -35.72617546 -10.83493153
v -17.34965639 -34.48258266 -10.83493153
v -17.34729694 -35.53631516 -15.90862632
v -17.03929660 -40.61438151 -21.08947695
v -17.22220846 -37.49918952 -24.54046300
v -17.12072227 -39.22620063 -22.81278548
v -17.11718180 -39.22620063 -26.26814566
v -17.33903498 -35.40268041 -33.17448674
v -17.28711280 -36.26728079 -33.17448674
v -17.11128187 -39.22620063 -29.72131877
v -17.03221565 -40.61438151 -25.92917135
v -15.50873786 -33.15428101 -33.17448674
v -15.55594113 -33.17326730 -10.83493153
v -17.34729694 -34.48039045 -15.90862632
v -17.30363285 -34.42854417 -10.83493153
v -16.85402398 -33.61360044 -33.17448674
v -17.03457640 -40.61438151 -24.54046300
v -17.33903498 -34.47673934 -33.17448674
v -15.99138940 -33.15501175 -33.17448674
v -15.74121245 -33.17326730 -10.83493153
v -17.34375647 -34.47820081 -22.81278548
v -16.60502805 -33.61871045 -10.83493153
f 1 2 8
f 1 8 14
f 1 14 13
f 1 13 20
f 1 20 27
f 1 27 39
f 1 39 46
f 1 46 48
f 1 48 41
f 1 41 28
f 1 28 21
f 1 21 15
f 1 15 9
f 1 9 3
f 1 3 10
f 1 10 16
f 1 16 22
f 1 22 30
f 1 30 43
f 1 43 37
f 1 37 25
f 1 25 18
f 1 18 11
f 1 11 4
f 1 4 5
f 1 5 6
f 1 6 7
f 1 7 2
f 2 7 8
f 3 9 10
f 4 11 17
f 4 17 24
f 4 24 35
f 4 35 34
f 4 34 44
f 4 44 42
f 4 42 45
f 4 45 38
f 4 38 26
f 4 26 19
f 4 19 12
f 4 12 7
f 4 7 6
f 4 6 5
f 7 12 13
f 7 13 14
f 7 14 8
f 9 15 16
f 9 16 10
f 11 18 17
f 12 19 20
f 12 20 13
f 15 21 16
f 16 21 23
f 16 23 22
f 17 18 25
f 17 25 24
f 19 26 27
f 19 27 20
f 21 28 40
f 21 40 29
f 21 29 23
f 22 23 31
f 22 31 32
f 22 32 33
f 22 33 30
f 23 34 31
f 23 29 34
f 24 25 36
f 24 36 33
f 24 33 35
f 25 37 36
f 26 38 27
f 27 38 39
f 28 41 42
f 28 42 40
f 29 40 44
f 29 44 34
f 30 33 43
f 31 34 32
f 32 34 33
f 33 34 35
f 33 36 37
f 33 37 43
f 38 45 46
f 38 46 39
f 40 42 47
f 40 47 44
f 41 48 42
f 42 44 47
f 42 48 45
f 45 48 46

