# https://github.com/mikedh/trimesh
v 16.35787587 -33.08379323 7.18583129
v 19.30124954 -33.08379323 7.18583129
v 16.35787587 -33.08379323 9.42136046
v 16.35787587 -21.81870081 7.18911445
v 16.36160674 -21.81984580 7.18583129
v 19.91305235 -32.70573223 7.18583129
v 19.37772473 -33.08379323 9.41589023
v 19.37772473 -33.08379323 9.42136046
v 16.35787587 -21.46584250 9.42136046
v 19.95595354 -21.38106547 7.18583129
v 19.93170543 -32.71604230 8.26617650
v 21.18049444 -31.84191663 7.18583129
v 19.95222266 -32.72520739 9.42136046
v 19.47751531 -21.38106547 9.42136046
v 25.88560079 -21.38106547 7.18583129
v 21.72048437 -31.42261275 7.18583129
v 21.18329131 -31.85222670 8.26617650
v 21.17209998 -31.86253935 9.42136046
v 25.88560079 -21.38106547 9.42136046
v 25.88560079 -27.58242196 7.18583129
v 22.04410806 -31.15911529 7.18583129
v 21.45841751 -31.62882714 9.42136046
v 25.88560079 -27.47702350 9.42136046
v 25.88560079 -27.53201400 8.26617650
v 25.84270089 -27.62366613 7.18583129
v 22.04690493 -31.14765765 8.26617650
v 23.01777087 -30.29644726 7.18583129
v 22.03571231 -31.12359995 9.42136046
v 24.73287149 -28.57569373 9.42136046
v 25.65151034 -27.80582281 7.18583129
v 22.99165733 -30.28499090 8.26617650
v 23.55776208 -29.79809260 7.18583129
v 22.96274435 -30.25978692 9.42136046
v 23.82635925 -29.43836177 9.42136046
v 23.88138321 -29.49106100 7.18583129
v 24.22085926 -29.16799050 7.18583129
f 1 2 7
f 1 7 8
f 1 8 3
f 1 3 9
f 1 9 4
f 1 4 5
f 1 5 10
f 1 10 15
f 1 15 20
f 1 20 25
f 1 25 30
f 1 30 36
f 1 36 35
f 1 35 32
f 1 32 27
f 1 27 21
f 1 21 16
f 1 16 12
f 1 12 6
f 1 6 2
f 2 6 7
f 3 8 13
f 3 13 18
f 3 18 22
f 3 22 28
f 3 28 33
f 3 33 34
f 3 34 29
f 3 29 23
f 3 23 19
f 3 19 14
f 3 14 9
f 4 9 10
f 4 10 5
f 6 11 7
f 6 12 11
f 7 11 13
f 7 13 8
f 9 14 10
f 10 14 19
f 10 19 15
f 11 12 13
f 12 16 17
f 12 17 13
f 13 17 18
f 15 19 23
f 15 23 24
f 15 24 20
f 16 18 17
f 16 21 18
f 18 21 22
f 20 24 25
f 21 26 22
f 21 27 26
f 22 26 28
f 23 29 24
f 24 29 30
f 24 30 25
f 26 27 28
f 27 31 28
f 27 32 31
f 28 31 33
f 29 34 35
f 29 35 36
f 29 36 30
f 31 32 33
f 32 35 33
f 33 35 34

