# https://github.com/mikedh/trimesh
v 14.63429202 14.30162601 -0.84969857
v 12.90792546 14.30162601 -0.72211299
v 12.90792546 16.02815082 -0.84898842
v 12.90792546 16.91632259 -0.84898842
v 18.08782536 12.57575476 -0.84898842
v 16.36065858 12.57575476 -0.82559970
v 14.63429202 12.57575476 -0.68242164
v 12.96552371 12.62425869 -0.09552692
v 11.54315130 14.30162601 -0.04945449
v 11.06716002 16.08124501 -0.10757378
v 12.00234337 16.91632259 -0.49458630
v 13.74710957 16.91632259 -0.77385635
v 18.41181957 14.30162601 -0.72919908
v 18.41181957 12.57575476 -0.84402765
v 18.08782536 11.01309764 -0.17632992
v 16.36065858 11.11404093 -0.15293606
v 14.63429202 11.33755885 -0.00975799
v 13.57911219 11.55386590 0.23832709
v 11.85514497 13.23188677 0.21635353
v 10.27037599 16.69280467 0.38646593
v 11.04236129 16.91632259 -0.10757378
v 14.63429202 16.91632259 -0.61933643
v 18.41181957 15.72204422 -0.07780398
v 18.41181957 11.03145096 -0.17136915
v 18.08782536 10.29272770 1.35966303
v 16.36065858 10.48871563 1.35966303
v 14.63429202 10.95082679 1.35966303
v 13.48231403 11.47586491 1.35966303
v 12.61913140 12.25915925 1.35966303
v 11.76074743 13.12242294 1.35966303
v 11.04556083 14.30162601 1.35966303
v 10.27037599 16.91632259 0.38646593
v 10.46637229 15.73187571 1.35966303
v 10.24557662 16.59513811 1.35966303
v 15.41747701 16.91632259 -0.33723092
v 18.41181957 16.31656021 1.35966303
v 16.01266585 16.91632259 0.01717634
v 18.41181957 10.33074659 1.35966303
v 16.36065858 10.39301615 4.81227522
v 16.36065858 10.43431178 3.08561405
v 18.08782536 10.25405526 3.08561405
v 14.63429202 10.94033917 3.08561405
v 16.36065858 10.36941902 6.39150514
v 13.49351437 11.49290600 3.08561405
v 12.68313003 12.22900736 6.39150514
v 12.65593067 12.23621695 4.81227522
v 12.62953024 12.24736069 3.08561405
v 14.63429202 10.94558298 4.81227522
v 14.63429202 10.95279386 6.39150514
v 11.76314677 13.09226976 6.39150514
v 11.76234785 13.09947936 4.81227522
v 11.05196121 14.30162601 3.08561405
v 10.24557662 16.91632259 1.35966303
v 10.47197246 15.73646340 3.08561405
v 10.23997645 16.61283789 6.39150514
v 18.41181957 16.26609050 3.08561405
v 16.28945936 16.91632259 0.86420301
v 16.41745792 16.91632259 1.35966303
v 16.36945830 16.91632259 3.08561405
v 18.41181957 10.29534960 3.08561405
v 18.08782536 10.23045813 4.81227522
v 16.21266126 10.41726940 6.39150514
v 18.08782536 10.21997052 6.39150514
v 13.51911331 11.52502496 4.81227522
v 12.75672859 12.16804746 6.39150514
v 14.53829407 11.00195391 6.39150514
v 11.07276019 14.30162601 6.39150514
v 11.05996072 14.30162601 4.81227522
v 10.23997645 16.91632259 6.39150514
v 10.47997197 15.74105366 4.81227522
v 10.49037210 15.74891937 6.39150514
v 18.41181957 15.89836788 3.86885050
v 15.97186682 16.91632259 4.16938652
v 18.41181957 10.27175247 4.81227522
v 18.41181957 10.26782090 5.10855805
v 18.41181957 10.25995519 6.39150514
v 13.54631267 11.55452202 6.39150514
v 13.37431682 16.91632259 6.39150514
v 18.41181957 15.66960614 4.24451860
v 18.41181957 13.38199140 6.39150514
f 1 2 3
f 1 3 4
f 1 4 5
f 1 5 6
f 1 6 2
f 2 6 7
f 2 7 8
f 2 8 9
f 2 9 10
f 2 10 3
f 3 10 11
f 3 11 4
f 4 12 13
f 4 13 14
f 4 14 5
f 4 11 21
f 4 21 32
f 4 32 53
f 4 53 69
f 4 69 78
f 4 78 73
f 4 73 59
f 4 59 58
f 4 58 57
f 4 57 37
f 4 37 35
f 4 35 22
f 4 22 12
f 5 14 15
f 5 15 6
f 6 15 16
f 6 16 7
f 7 17 18
f 7 18 8
f 7 16 17
f 8 18 19
f 8 19 9
f 9 19 20
f 9 20 10
f 10 21 11
f 10 20 21
f 12 22 13
f 13 23 36
f 13 36 56
f 13 56 72
f 13 72 79
f 13 79 80
f 13 80 76
f 13 76 75
f 13 75 74
f 13 74 60
f 13 60 38
f 13 38 24
f 13 24 14
f 13 22 23
f 14 24 15
f 15 24 25
f 15 25 16
f 16 25 26
f 16 26 17
f 17 27 18
f 17 26 27
f 18 27 28
f 18 28 29
f 18 29 19
f 19 30 31
f 19 31 20
f 19 29 30
f 20 32 21
f 20 31 33
f 20 33 34
f 20 34 53
f 20 53 32
f 22 35 23
f 23 35 37
f 23 37 36
f 24 38 25
f 25 39 40
f 25 40 26
f 25 38 41
f 25 41 39
f 26 40 27
f 27 42 28
f 27 40 39
f 27 39 43
f 27 43 42
f 28 44 45
f 28 45 46
f 28 46 47
f 28 47 29
f 28 42 48
f 28 48 49
f 28 49 44
f 29 47 50
f 29 50 51
f 29 51 30
f 30 51 31
f 31 51 50
f 31 50 52
f 31 52 33
f 33 54 55
f 33 55 34
f 33 52 54
f 34 55 69
f 34 69 53
f 36 37 57
f 36 57 58
f 36 58 59
f 36 59 56
f 38 60 41
f 39 41 43
f 41 60 74
f 41 74 61
f 41 61 43
f 42 43 62
f 42 62 48
f 43 61 63
f 43 63 76
f 43 76 80
f 43 80 78
f 43 78 69
f 43 69 55
f 43 55 71
f 43 71 67
f 43 67 50
f 43 50 45
f 43 45 65
f 43 65 77
f 43 77 66
f 43 66 49
f 43 49 62
f 44 64 65
f 44 65 45
f 44 49 66
f 44 66 64
f 45 50 46
f 46 50 47
f 48 62 49
f 50 67 68
f 50 68 52
f 52 68 54
f 54 68 70
f 54 70 55
f 55 70 71
f 56 59 73
f 56 73 72
f 61 74 75
f 61 75 63
f 63 75 76
f 64 66 77
f 64 77 65
f 67 71 70
f 67 70 68
f 72 73 78
f 72 78 79
f 78 80 79

