# https://github.com/mikedh/trimesh
v 26.72145285 21.64288146 32.45025247
v 24.86246402 21.29194263 32.45025247
v 28.37388508 21.50531257 32.45025247
v 23.69151519 28.11417180 31.37184474
v 24.85106556 21.28632830 32.45025247
v 28.50636454 21.49127677 32.45025247
v 23.69151519 29.66952927 30.58898395
v 23.69151519 20.58445320 32.45025247
v 29.78130440 20.80343747 32.45025247
v 26.17301443 27.57793977 30.21673024
v 24.45362717 29.24840370 30.20545014
v 23.69151519 30.12434592 28.98490899
v 30.64028531 19.95837916 32.45025247
v 23.69151519 1.48221048 32.45025247
v 26.37244635 27.78569540 28.98490899
v 25.50776622 28.64759925 28.98490899
v 27.88242868 25.83167479 30.18288993
v 24.64451411 29.38877717 28.98490899
v 23.69151519 30.12996024 28.73674028
v 31.36393842 19.09928505 32.45025247
v 29.57759870 24.08540723 30.15130358
v 23.69151519 1.48221048 9.65028430
v 37.93521360 1.48221048 32.45025247
v 27.28128459 26.93502019 27.25900685
v 26.41802991 27.82500079 27.25900685
v 28.06903926 26.02539204 28.98490899
v 25.53483177 28.68970923 27.25900685
v 24.67157709 29.39720123 27.25900685
v 23.69151519 30.15522726 25.53310343
v 31.37106053 19.08805383 32.45025247
v 31.16308105 22.24368591 30.03398819
v 29.70438151 24.25385746 28.98490899
v 28.93229394 25.11576131 28.98490899
v 26.47643480 1.48221048 9.40211430
v 23.69151519 5.30883503 9.40211430
v 38.02495783 2.21777537 31.92232870
v 37.88820459 2.21777537 32.45025247
v 37.96085370 1.48221048 32.34872896
v 27.29410593 26.94905857 23.80494476
v 28.11035160 26.07031175 27.25900685
v 28.11747371 26.07873324 25.53310343
v 27.29552881 26.95467289 22.07904134
v 27.29410593 26.96309695 20.35539574
v 27.30550182 26.98274964 9.40211430
v 24.64736243 29.40562528 23.80494476
v 24.66303210 29.40562528 25.53310343
v 26.44224714 27.74077568 9.40211430
v 23.69151519 30.16364875 22.07904134
v 23.69151519 30.16084159 23.80494476
v 32.97648632 19.00944561 30.14453655
v 32.00069562 17.75449036 32.45025247
v 34.74572834 15.64325074 30.15581665
v 32.62035771 20.07629535 28.98490899
v 31.93801695 21.20771751 28.98490899
v 31.21863761 22.31668238 28.98490899
v 30.56763619 23.18139082 28.98490899
v 29.69440850 24.27631732 27.25900685
v 28.97360629 25.14102833 27.25900685
v 38.20729463 1.48221048 9.40211430
v 23.69151519 30.04292540 9.40211430
v 38.02780616 1.48221048 31.98098704
v 38.15886017 1.48221048 30.71306894
v 38.12609796 2.21777537 30.71306894
v 37.99504137 3.22005398 31.73733012
v 37.86256191 2.54063874 32.45025247
v 28.12317037 26.08435013 23.80494476
v 28.12174749 26.09277161 22.07904134
v 28.11889917 26.10119310 20.35539574
v 27.57615997 26.68796174 9.40211430
v 24.55191897 29.32982165 9.40211430
v 23.86957821 29.89974218 9.40211430
v 23.69151519 30.14118889 18.62723450
v 23.69151519 30.15803442 20.35539574
v 25.76702848 28.31069879 9.40211430
v 34.87393659 15.88469487 28.98490899
v 34.41381953 16.74940588 28.98490899
v 33.08617400 19.21439150 28.98490899
v 37.45800141 3.86016383 32.45025247
v 36.34260914 12.05526186 30.04075651
v 35.60186091 14.30407038 28.98490899
v 32.62890527 20.09314089 27.25900685
v 32.63602738 20.10717669 25.53310343
v 32.66024461 20.16613479 18.62723450
v 29.62033393 24.19770652 9.40211430
v 32.66309294 20.17174911 16.90133237
v 32.65881916 20.16613479 15.17317370
v 31.90097838 21.20771751 15.17317370
v 28.95366284 25.05961037 9.40211430
v 29.67446505 24.27351016 23.80494476
v 29.68443806 24.27631732 25.53310343
v 28.98500218 25.12698995 22.07904134
v 28.98642506 25.13541401 23.80494476
v 28.98072840 25.13822117 25.53310343
v 38.20586918 1.73488582 9.40211430
v 38.24290775 2.21777537 11.72136686
v 38.21726764 1.48221048 9.99320819
v 38.20729463 1.48221048 28.98490899
v 38.15173806 2.21777537 28.98490899
v 38.01213649 3.49518918 30.71306894
v 37.56911455 7.39761609 28.98490899
v 37.24289982 9.12423095 28.98490899
v 28.09040816 26.11803863 9.40211430
v 34.49216788 16.89258909 9.40211430
v 34.42236452 16.76063452 27.25900685
v 33.90384256 17.75449036 25.53310343
v 33.11751334 19.27334960 22.07904134
v 36.81697043 10.85084323 28.98490899
v 36.40386237 12.22651926 28.98490899
v 36.08192143 13.09123027 28.98490899
v 35.60613469 14.30407038 27.25900685
v 36.09046899 13.09403743 27.25900685
v 33.12463545 19.28738797 20.35539574
v 33.12890923 19.30142378 18.62723450
v 30.18871580 23.43125901 9.40211430
v 34.41809074 17.02454108 9.40211430
v 34.05484259 17.63938391 9.40211430
v 33.12463545 19.15824314 9.40211430
v 32.54913147 20.02014442 9.40211430
v 31.75140379 21.20771751 9.40211430
v 31.10325070 22.16507512 9.40211430
v 30.48358861 23.02978613 9.40211430
v 38.20302085 2.21777537 9.40211430
v 38.06057095 3.94438894 20.35539574
v 38.17595529 2.21777537 25.53310343
v 38.21584219 1.48221048 27.99223416
v 38.24148230 1.48221048 11.72136686
v 38.15458897 2.70908897 9.40211430
v 38.06341928 3.71136629 9.99320819
v 38.08621106 3.74224892 11.72136686
v 37.98364548 4.99158727 15.17317370
v 38.16598485 2.21777537 27.25900685
v 38.04632416 3.94438894 22.07904134
v 38.00786271 3.73944176 28.98490899
v 37.92239226 4.60134432 28.98490899
v 37.79703490 5.67100380 28.98490899
v 37.61897188 7.39761609 27.25900685
v 37.27708749 9.12423095 27.25900685
v 34.53347765 16.76344168 9.40211430
v 36.09474277 13.06315608 18.62723450
v 36.09474277 13.04631055 16.90133237
v 36.09046899 13.00981231 15.17317370
v 36.82124421 10.85084323 27.25900685
v 36.40243692 12.22932642 27.25900685
v 36.09189444 13.09123027 25.53310343
v 36.09331732 13.08561594 23.80494476
v 36.09474277 13.07719189 22.07904134
v 36.09474277 13.07157757 20.35539574
v 37.97652337 4.98035734 16.90133237
v 37.96940126 4.96351180 18.62723450
v 37.96227916 4.94105194 20.35539574
v 37.95373160 4.89613223 22.07904134
v 37.94376116 4.79787002 24.56524406
v 38.05487172 3.69171360 9.40211430
v 37.97224959 4.92982202 14.02257228
v 37.79418657 5.85348983 15.17317370
v 37.55771609 7.39761609 20.35539574
v 37.58478422 7.39761609 22.07904134
v 37.59902844 7.39761609 23.80494476
v 37.85971358 5.76084324 22.07904134
v 37.93236270 4.67714667 27.25900685
v 37.82979969 5.67100380 27.25900685
v 37.84404391 5.67100380 25.53310343
v 37.25287026 9.12423095 25.53310343
v 36.77138687 10.85084323 22.07904134
v 36.79275320 10.85084323 23.80494476
v 36.80842287 10.85084323 25.53310343
v 34.73148412 16.13737021 9.40211430
v 36.39816314 12.22651926 25.53310343
v 36.39104103 12.22090493 23.80494476
v 36.38391892 12.21528933 22.07904134
v 36.37679681 12.20967500 20.35539574
v 36.36682637 12.20125224 18.62723450
v 35.66453959 13.16703390 9.40211430
v 35.30983643 14.30407038 9.40211430
v 36.35257958 12.18159954 16.90133237
v 36.33548446 12.14790975 15.17317370
v 36.41953204 10.68239300 9.40211430
v 36.16739188 11.54429685 9.40211430
v 36.06340343 11.88400447 9.40211430
v 35.84830184 12.57745809 9.40211430
v 37.87396037 5.51939782 23.91549312
v 37.89960048 4.55642461 9.40211430
v 37.81555290 4.94947471 9.40211430
v 37.65315955 5.67100380 9.40211430
v 37.05059001 9.12423095 15.17317370
v 37.44518007 7.39761609 15.17317370
v 37.48649242 7.39761609 16.90133237
v 37.52210554 7.39761609 18.62723450
v 37.15885225 9.12423095 20.35539574
v 37.19304249 9.12423095 22.07904134
v 37.22580728 9.12423095 23.80494476
v 36.74716964 10.85084323 20.35539574
v 36.72010408 10.85084323 18.62723450
v 36.68876474 10.85084323 16.90133237
v 36.65315163 10.85084323 15.17317370
v 36.83548843 9.12423095 9.40211430
v 36.69303852 9.66888575 9.40211430
v 37.51640631 6.26057832 9.40211430
v 37.12324170 9.12423095 18.62723450
v 37.25144738 7.39761609 9.40211430
f 1 2 5
f 1 5 8
f 1 8 14
f 1 14 23
f 1 23 37
f 1 37 65
f 1 65 78
f 1 78 51
f 1 51 30
f 1 30 20
f 1 20 13
f 1 13 9
f 1 9 6
f 1 6 3
f 1 3 4
f 1 4 2
f 2 4 5
f 3 6 4
f 4 7 12
f 4 12 19
f 4 19 29
f 4 29 49
f 4 49 48
f 4 48 73
f 4 73 72
f 4 72 60
f 4 60 35
f 4 35 22
f 4 22 14
f 4 14 8
f 4 8 5
f 4 6 9
f 4 9 7
f 7 10 11
f 7 11 12
f 7 9 13
f 7 13 10
f 10 15 16
f 10 16 11
f 10 13 17
f 10 17 15
f 11 18 12
f 11 16 18
f 12 18 19
f 13 20 21
f 13 21 17
f 14 22 34
f 14 34 59
f 14 59 96
f 14 96 126
f 14 126 125
f 14 125 97
f 14 97 62
f 14 62 61
f 14 61 38
f 14 38 23
f 15 24 25
f 15 25 16
f 15 17 21
f 15 21 26
f 15 26 24
f 16 25 27
f 16 27 18
f 18 27 28
f 18 28 19
f 19 28 29
f 20 30 31
f 20 31 21
f 21 32 33
f 21 33 26
f 21 31 32
f 22 35 34
f 23 36 37
f 23 38 36
f 24 39 25
f 24 26 40
f 24 40 41
f 24 41 39
f 25 39 42
f 25 42 43
f 25 43 44
f 25 44 27
f 26 33 40
f 27 45 46
f 27 46 28
f 27 44 47
f 27 47 45
f 28 46 48
f 28 48 49
f 28 49 29
f 30 50 31
f 30 51 52
f 30 52 50
f 31 50 53
f 31 53 54
f 31 54 55
f 31 55 56
f 31 56 32
f 32 56 57
f 32 57 58
f 32 58 33
f 33 58 40
f 34 35 60
f 34 60 71
f 34 71 70
f 34 70 74
f 34 74 47
f 34 47 44
f 34 44 69
f 34 69 102
f 34 102 88
f 34 88 84
f 34 84 114
f 34 114 121
f 34 121 120
f 34 120 119
f 34 119 118
f 34 118 117
f 34 117 116
f 34 116 115
f 34 115 103
f 34 103 138
f 34 138 167
f 34 167 174
f 34 174 173
f 34 173 180
f 34 180 179
f 34 179 178
f 34 178 177
f 34 177 197
f 34 197 196
f 34 196 200
f 34 200 198
f 34 198 184
f 34 184 183
f 34 183 182
f 34 182 153
f 34 153 127
f 34 127 122
f 34 122 94
f 34 94 59
f 36 38 61
f 36 61 62
f 36 62 63
f 36 63 64
f 36 64 37
f 37 64 65
f 39 41 66
f 39 66 42
f 40 58 41
f 41 58 66
f 42 66 43
f 43 66 67
f 43 67 68
f 43 68 44
f 44 68 69
f 45 70 71
f 45 71 72
f 45 72 73
f 45 73 46
f 45 47 74
f 45 74 70
f 46 73 48
f 50 52 75
f 50 75 76
f 50 76 77
f 50 77 53
f 51 78 79
f 51 79 52
f 52 80 75
f 52 79 80
f 53 77 81
f 53 81 54
f 54 81 82
f 54 82 83
f 54 83 55
f 55 84 56
f 55 83 85
f 55 85 86
f 55 86 87
f 55 87 84
f 56 84 88
f 56 88 89
f 56 89 90
f 56 90 57
f 57 90 91
f 57 91 92
f 57 92 93
f 57 93 58
f 58 93 68
f 58 68 67
f 58 67 66
f 59 94 95
f 59 95 96
f 60 72 71
f 62 97 63
f 63 98 99
f 63 99 64
f 63 97 98
f 64 99 100
f 64 100 101
f 64 101 79
f 64 79 65
f 65 79 78
f 68 102 69
f 68 93 92
f 68 92 102
f 75 80 103
f 75 103 104
f 75 104 76
f 76 104 105
f 76 105 106
f 76 106 81
f 76 81 77
f 79 101 107
f 79 107 108
f 79 108 109
f 79 109 80
f 80 110 103
f 80 109 111
f 80 111 110
f 81 106 112
f 81 112 82
f 82 112 83
f 83 112 113
f 83 113 103
f 83 103 85
f 84 87 114
f 85 103 115
f 85 115 86
f 86 115 116
f 86 116 117
f 86 117 118
f 86 118 119
f 86 119 120
f 86 120 121
f 86 121 87
f 87 121 114
f 88 102 91
f 88 91 90
f 88 90 89
f 91 102 92
f 94 122 95
f 95 123 124
f 95 124 125
f 95 125 126
f 95 126 96
f 95 122 127
f 95 127 128
f 95 128 129
f 95 129 130
f 95 130 123
f 97 125 98
f 98 131 123
f 98 123 132
f 98 132 133
f 98 133 99
f 98 125 131
f 99 133 134
f 99 134 135
f 99 135 100
f 100 135 136
f 100 136 101
f 101 136 137
f 101 137 107
f 103 113 112
f 103 112 104
f 103 110 139
f 103 139 140
f 103 140 141
f 103 141 138
f 104 112 105
f 105 112 106
f 107 137 142
f 107 142 108
f 108 143 144
f 108 144 111
f 108 111 109
f 108 142 143
f 110 111 144
f 110 144 145
f 110 145 146
f 110 146 147
f 110 147 139
f 123 131 124
f 123 130 148
f 123 148 149
f 123 149 150
f 123 150 151
f 123 151 152
f 123 152 132
f 124 131 125
f 127 153 128
f 128 153 154
f 128 154 130
f 128 130 129
f 130 154 155
f 130 155 156
f 130 156 157
f 130 157 158
f 130 158 136
f 130 136 159
f 130 159 148
f 132 152 133
f 133 152 160
f 133 160 134
f 134 160 161
f 134 161 135
f 135 161 136
f 136 161 162
f 136 162 159
f 136 158 137
f 137 163 164
f 137 164 165
f 137 165 166
f 137 166 142
f 137 158 157
f 137 157 163
f 138 141 167
f 139 147 143
f 139 143 168
f 139 168 140
f 140 168 169
f 140 169 170
f 140 170 171
f 140 171 172
f 140 172 141
f 141 173 174
f 141 174 167
f 141 172 175
f 141 175 176
f 141 176 177
f 141 177 178
f 141 178 179
f 141 179 180
f 141 180 173
f 142 166 172
f 142 172 171
f 142 171 170
f 142 170 169
f 142 169 168
f 142 168 143
f 143 147 146
f 143 146 145
f 143 145 144
f 148 159 149
f 149 159 150
f 150 159 181
f 150 181 151
f 151 181 152
f 152 181 161
f 152 161 160
f 153 182 154
f 154 182 183
f 154 183 184
f 154 184 185
f 154 185 186
f 154 186 155
f 155 186 187
f 155 187 188
f 155 188 156
f 156 188 199
f 156 199 189
f 156 189 190
f 156 190 191
f 156 191 157
f 157 191 163
f 159 162 181
f 161 181 162
f 163 191 193
f 163 193 192
f 163 192 164
f 164 192 175
f 164 175 165
f 165 175 172
f 165 172 166
f 175 192 176
f 176 192 193
f 176 193 194
f 176 194 195
f 176 195 196
f 176 196 197
f 176 197 177
f 184 198 195
f 184 195 185
f 185 195 187
f 185 187 186
f 187 195 188
f 188 195 199
f 189 199 195
f 189 195 194
f 189 194 190
f 190 194 191
f 191 194 193
f 195 198 200
f 195 200 196

