# https://github.com/mikedh/trimesh
v -5.02975595 1.48221048 46.93873028
v -5.02975595 -9.88321800 46.93873028
v -5.02975595 1.48221048 37.02505034
v -29.41015563 1.48221048 46.93873028
v -5.02975595 -9.88321800 37.02505034
v -26.74018552 -9.88321800 46.93873028
v -36.35884598 1.48221048 37.02505034
v -34.48863623 1.48221048 40.08959636
v -34.52862348 0.48762390 40.14587980
v -29.41630771 1.36650901 46.93873028
v -27.34308183 -9.88321800 37.02505034
v -27.68144119 -9.02102050 46.93873028
v -36.08815953 -4.05921461 37.02505034
v -34.70395653 -5.24960291 37.02505034
v -26.79862901 -9.88321800 46.26429720
v -36.45112464 0.48762390 37.02505034
v -36.44804989 0.48762390 37.03281377
v -36.13429885 1.48221048 37.44329542
v -35.07000154 1.48221048 39.22593385
v -35.10998879 0.48762390 39.28221729
v -35.11614087 -1.23899547 39.28512866
v -34.53170081 -1.23899547 40.14879117
v -29.45322020 0.48762390 46.93873028
v -28.09977761 -8.08984752 46.93873028
v -29.43476396 -7.32221384 45.44527331
v -36.26041267 -3.72546095 37.02505034
v -36.45420197 -1.23899547 37.02505034
v -36.44804989 -1.23899547 37.04057656
v -35.98049938 -1.23899547 37.90326904
v -35.97434472 0.48762390 37.89647563
v -35.93435748 1.48221048 37.80913910
v -35.43604399 1.48221048 38.63786712
v -35.02078489 -2.96561483 39.14830145
v -34.43941958 -2.96561483 40.01099328
v -35.88514339 -2.96561483 37.80234633
v -33.82729643 -1.23899547 41.07455953
v -33.63965922 -2.96561483 41.07455953
v -29.05641478 -4.41966879 46.93873028
v -29.21636634 -2.96561483 46.93873028
v -29.22251842 -2.89441432 46.93873028
v -29.44091604 0.25399659 46.93873028
v -28.71190334 -6.39549105 46.93873028
v -31.17885732 -5.67124534 43.73832723
v -32.76607645 -5.04935084 41.71502815
v -36.34654182 -2.96561483 37.02505034
v -36.36192331 -2.81097526 37.02505034
v -32.23392522 -4.56095793 42.63594461
v -32.85835510 -3.89901283 41.95180757
v -29.02257961 -4.69112168 46.93873028
v -29.34863481 -1.23899547 46.93873028
v -28.80418199 -5.89819792 46.93873028
f 1 2 5
f 1 5 3
f 1 3 7
f 1 7 18
f 1 18 31
f 1 31 32
f 1 32 19
f 1 19 8
f 1 8 4
f 1 4 10
f 1 10 23
f 1 23 41
f 1 41 50
f 1 50 40
f 1 40 39
f 1 39 38
f 1 38 49
f 1 49 51
f 1 51 42
f 1 42 24
f 1 24 12
f 1 12 6
f 1 6 2
f 2 6 15
f 2 15 11
f 2 11 5
f 3 5 11
f 3 11 14
f 3 14 13
f 3 13 26
f 3 26 45
f 3 45 46
f 3 46 27
f 3 27 16
f 3 16 7
f 4 8 9
f 4 9 10
f 6 12 13
f 6 13 14
f 6 14 15
f 7 16 17
f 7 17 18
f 8 19 20
f 8 20 9
f 9 20 21
f 9 21 22
f 9 22 23
f 9 23 10
f 11 15 14
f 12 24 25
f 12 25 26
f 12 26 13
f 16 27 28
f 16 28 17
f 17 28 29
f 17 29 30
f 17 30 31
f 17 31 18
f 19 32 30
f 19 30 20
f 20 30 29
f 20 29 21
f 21 33 34
f 21 34 22
f 21 29 35
f 21 35 33
f 22 36 23
f 22 34 37
f 22 37 38
f 22 38 39
f 22 39 40
f 22 40 36
f 23 36 41
f 24 42 25
f 25 43 44
f 25 44 26
f 25 42 43
f 26 44 34
f 26 34 33
f 26 33 35
f 26 35 45
f 27 46 28
f 28 46 29
f 29 46 35
f 30 32 31
f 34 44 47
f 34 47 48
f 34 48 49
f 34 49 38
f 34 38 37
f 35 46 45
f 36 50 41
f 36 40 50
f 42 51 47
f 42 47 43
f 43 47 44
f 47 51 49
f 47 49 48

