# https://github.com/mikedh/trimesh
v 28.84328301 9.10935119 32.45025247
v 23.69151261 9.10935119 32.45025247
v 27.57590525 9.10935119 37.03772309
v 35.23454483 5.91320954 32.45025247
v 23.69151261 1.48295665 32.45025247
v 23.69151261 9.10935119 37.03772309
v 35.09512079 5.14422374 37.03772309
v 36.60509797 5.20469735 32.45025247
v 23.69151261 1.48295665 37.03772309
v 37.93521617 1.48295665 32.45025247
v 35.87171886 4.01239633 37.03772309
v 36.04879127 4.31401817 36.34214801
v 36.26908263 4.85454714 35.19123912
v 36.61485743 5.19648428 32.45025247
v 36.33321764 1.48295665 37.03772309
v 37.88781092 2.21535931 32.45025247
v 37.79997329 2.21535931 32.78793641
v 37.83064622 1.48295665 32.84676200
v 36.07528047 3.38600838 37.03772309
v 36.23701513 3.16277864 36.81005617
v 36.39735264 3.81977648 35.81721152
v 36.88534319 3.94221731 34.16696121
v 37.45838222 3.85859943 32.45025247
v 36.59394395 1.48295665 36.42432372
v 36.36110399 1.49116843 37.03772309
v 37.86271629 2.53863178 32.45025247
v 37.67867358 1.48295665 33.37304546
v 37.34823654 2.21535931 34.16696121
v 37.41934184 1.48295665 34.16696121
v 36.17148298 2.95448139 37.03772309
v 36.29557441 2.21535931 37.03772309
v 36.31927446 2.21535931 36.98159209
v 36.73197341 2.21535931 35.89354970
v 36.80865958 1.48295665 35.89354970
v 36.34994739 1.62032870 37.03772309
v 37.16279925 1.48295665 34.89935808
f 1 2 6
f 1 6 3
f 1 3 4
f 1 4 8
f 1 8 14
f 1 14 23
f 1 23 26
f 1 26 16
f 1 16 10
f 1 10 5
f 1 5 2
f 2 5 9
f 2 9 6
f 3 6 9
f 3 9 15
f 3 15 25
f 3 25 35
f 3 35 31
f 3 31 30
f 3 30 19
f 3 19 11
f 3 11 7
f 3 7 8
f 3 8 4
f 5 10 18
f 5 18 27
f 5 27 29
f 5 29 36
f 5 36 34
f 5 34 24
f 5 24 15
f 5 15 9
f 7 11 12
f 7 12 13
f 7 13 8
f 8 13 14
f 10 16 17
f 10 17 18
f 11 19 12
f 12 19 20
f 12 20 21
f 12 21 13
f 13 21 22
f 13 22 23
f 13 23 14
f 15 24 25
f 16 26 17
f 17 27 18
f 17 26 28
f 17 28 29
f 17 29 27
f 19 30 20
f 20 30 31
f 20 31 32
f 20 32 33
f 20 33 28
f 20 28 26
f 20 26 21
f 21 26 23
f 21 23 22
f 24 34 25
f 25 34 35
f 28 33 34
f 28 34 36
f 28 36 29
f 31 35 32
f 32 35 34
f 32 34 33

