# https://github.com/mikedh/trimesh
v 8.91517796 17.75565337 9.40211430
v 8.91590870 17.84172848 9.40211430
v 10.25601985 17.70283706 6.39150514
v 8.92102643 17.70283706 9.40211430
v 9.03069224 19.56223757 9.40211430
v 10.35325671 18.42859747 6.39150514
v 13.20455693 17.70283706 6.39150514
v 13.49772897 17.70283706 9.40211430
v 9.56878328 21.13896137 9.40211430
v 11.02367733 21.06169112 6.39150514
v 10.51190567 19.48300926 6.39150514
v 10.49874598 19.39791189 6.39150514
v 16.38412192 21.21916743 9.39592620
v 16.38412192 21.63975782 6.39150514
v 16.38412192 21.22796972 9.40211430
v 11.07412388 21.20938483 6.39150514
v 12.30749410 27.69430186 9.40211430
v 13.60300780 27.69430186 6.39150514
v 16.38412192 27.69430186 6.39150514
v 16.38412192 27.69430186 9.40211430
f 1 2 3
f 1 3 4
f 1 4 8
f 1 8 15
f 1 15 20
f 1 20 17
f 1 17 9
f 1 9 5
f 1 5 2
f 2 5 3
f 3 5 6
f 3 6 12
f 3 12 11
f 3 11 10
f 3 10 16
f 3 16 18
f 3 18 19
f 3 19 14
f 3 14 7
f 3 7 8
f 3 8 4
f 5 9 10
f 5 10 11
f 5 11 12
f 5 12 6
f 7 13 8
f 7 14 13
f 8 13 15
f 9 16 10
f 9 17 18
f 9 18 16
f 13 14 19
f 13 19 20
f 13 20 15
f 17 20 19
f 17 19 18

