# https://github.com/mikedh/trimesh
v 8.53330118 -17.23565835 9.42136046
v 9.42577246 -17.23565835 7.18583129
v 13.64201086 -17.23565835 9.42136046
v 8.78938834 -16.54385854 9.42136046
v 13.35372111 -17.23565835 7.18583129
v 9.46257560 -15.05672395 9.42136046
v 10.47005685 -15.24340014 7.18583129
v 16.36542896 -13.51860602 7.18867704
v 16.36542896 -13.81587591 9.42136046
v 16.36082840 -13.51939014 7.18583129
v 11.28968862 -11.73184786 9.42136046
v 11.56801050 -13.44095496 7.18583129
v 16.36542896 -11.69027709 7.18583129
v 16.36542896 -9.23603397 9.42136046
v 11.31422361 -11.70596429 9.42136046
v 12.44974845 -12.40090157 7.18583129
v 12.21206221 -12.65424783 7.18583129
v 12.00197929 -12.88955403 7.18583129
v 16.36542896 -10.33491390 7.18583129
v 16.36542896 -9.22348440 9.42114176
v 16.36082840 -9.22348440 9.42136046
v 13.00179295 -11.88558109 7.18583129
v 12.48041751 -10.86121522 9.42136046
v 16.36082840 -10.33491390 7.18583129
v 16.14384465 -9.22426885 9.42136046
v 14.43634087 -11.00161459 7.18583129
v 14.48387863 -9.76155132 9.42136046
v 14.75913348 -10.82356620 7.18583129
v 15.29967660 -10.61963424 7.18583129
f 1 2 5
f 1 5 3
f 1 3 9
f 1 9 14
f 1 14 21
f 1 21 25
f 1 25 27
f 1 27 23
f 1 23 15
f 1 15 11
f 1 11 6
f 1 6 4
f 1 4 2
f 2 4 6
f 2 6 7
f 2 7 12
f 2 12 18
f 2 18 17
f 2 17 16
f 2 16 22
f 2 22 26
f 2 26 28
f 2 28 29
f 2 29 24
f 2 24 19
f 2 19 13
f 2 13 10
f 2 10 5
f 3 5 8
f 3 8 9
f 5 10 8
f 6 11 7
f 7 11 12
f 8 10 13
f 8 13 19
f 8 19 20
f 8 20 14
f 8 14 9
f 11 15 16
f 11 16 17
f 11 17 18
f 11 18 12
f 14 20 21
f 15 22 16
f 15 23 22
f 19 24 20
f 20 24 25
f 20 25 21
f 22 23 26
f 23 27 28
f 23 28 26
f 24 29 25
f 25 29 27
f 27 29 28

