# https://github.com/mikedh/trimesh
v -5.02975466 1.48221048 29.33801044
v -5.02975466 1.48221048 9.29984205
v -24.57894447 1.48221048 29.33801044
v -5.02975466 -33.08379323 29.33801044
v -5.02975466 1.15739290 9.28400514
v -5.35509649 1.48221048 9.25827240
v -24.57894447 1.48221048 9.15336023
v -24.57894447 -29.41267792 29.33801044
v -19.05005479 -33.08379323 29.33801044
v -5.02975466 -33.08379323 9.11772910
v -5.02975466 0.87317752 9.27608796
v -6.08807099 0.48745665 9.15336023
v -6.08807099 1.48221048 9.18107162
v -7.08131961 1.48221048 9.15336023
v -24.57894447 -7.34200034 9.11772910
v -24.57894447 -29.44651308 27.25956777
v -24.21915445 -29.73072846 29.33801044
v -19.05770951 -33.08379323 28.98566545
v -19.70265020 -32.72514049 29.33801044
v -19.89976897 -32.62363500 28.98566545
v -5.02975466 -19.18769131 9.11772910
v -19.23186283 -33.08379323 9.11772910
v -5.02975466 0.48745665 9.26618957
v -9.47353518 -11.53417718 9.11772910
v -5.02975466 -0.57158399 9.25035266
v -5.02975466 -2.29717736 9.23451831
v -5.02975466 -4.02277073 9.22066262
v -5.02975466 -7.47734099 9.19690853
v -11.27630875 -9.88302116 9.11772910
v -12.38055600 -9.11157942 9.11772910
v -14.72110026 -7.69388604 9.11772910
v -16.44540970 -7.45703989 9.11772910
v -18.17163218 -7.41643770 9.11772910
v -19.89976897 -7.38598605 9.11772910
v -21.62599145 -7.36230143 9.11772910
v -23.35221521 -7.34538385 9.11772910
v -24.57894447 -28.56341530 9.11772910
v -24.57894447 -29.46004715 26.21836585
v -24.22298310 -29.73411198 28.68478465
v -23.71583130 -30.10629878 29.33801044
v -19.09215706 -33.08379323 27.25956777
v -19.89976897 -32.61348445 29.33801044
v -21.02506736 -31.96046578 29.33801044
v -21.31404667 -31.80144051 28.98566545
v -19.89976897 -32.63378554 27.25956777
v -19.14957005 -33.08379323 23.80539375
v -19.12469156 -33.08379323 25.53149144
v -19.38113637 -32.98567125 9.11772910
v -19.89976897 -32.65070313 23.80539375
v -21.31978836 -31.80482402 27.25956777
v -21.32744437 -31.80482402 25.53149144
v -21.35423719 -31.80482402 18.62710070
v -21.35997759 -31.80482402 16.90100302
v -21.36380495 -31.80482402 15.17490534
v -22.22883115 -31.28376250 15.17490534
v -24.57703014 -29.21305045 9.11772910
v -24.57894447 -29.20289990 9.99463364
v -24.57894447 -29.47358121 24.47049531
v -24.25168767 -29.75779659 23.80539375
v -23.35221521 -30.41081526 25.53149144
v -23.35221521 -30.39389768 27.25956777
v -22.17715727 -31.23977678 28.98566545
v -22.16184782 -31.19579107 29.33801044
v -21.29682290 -31.79467347 29.33801044
v -22.21734778 -31.28037898 18.62710070
v -19.89976897 -32.64393609 25.53149144
v -22.18481456 -31.24654381 27.25956777
v -19.84235598 -32.68115477 9.11772910
v -22.22309075 -31.28376250 16.90100302
v -23.20676775 -30.28224164 9.11772910
v -22.64603288 -30.70856470 9.11772910
v -22.07190032 -31.14503832 9.11772910
v -21.20878972 -31.76760534 9.11772910
v -24.24403295 -29.75102956 22.07929607
v -23.29671525 -30.42096581 15.17490534
v -24.06987834 -29.61568890 9.11772910
v -24.57894447 -29.45328011 22.07929607
v -24.57894447 -29.40929440 19.92167525
v -24.57894447 -29.33147352 16.13494917
v -24.57894447 -29.47019770 23.80539375
v -23.35221521 -30.42434933 23.80539375
v -24.57894447 -29.46343066 22.74637627
f 1 2 6
f 1 6 13
f 1 13 14
f 1 14 7
f 1 7 3
f 1 3 8
f 1 8 17
f 1 17 40
f 1 40 63
f 1 63 64
f 1 64 43
f 1 43 42
f 1 42 19
f 1 19 9
f 1 9 4
f 1 4 10
f 1 10 21
f 1 21 28
f 1 28 27
f 1 27 26
f 1 26 25
f 1 25 23
f 1 23 11
f 1 11 5
f 1 5 2
f 2 5 6
f 3 7 15
f 3 15 37
f 3 37 57
f 3 57 79
f 3 79 78
f 3 78 77
f 3 77 82
f 3 82 80
f 3 80 58
f 3 58 38
f 3 38 16
f 3 16 8
f 4 9 18
f 4 18 41
f 4 41 47
f 4 47 46
f 4 46 22
f 4 22 10
f 5 11 6
f 6 11 12
f 6 12 13
f 7 14 15
f 8 16 17
f 9 19 20
f 9 20 18
f 10 22 48
f 10 48 68
f 10 68 73
f 10 73 72
f 10 72 71
f 10 71 70
f 10 70 76
f 10 76 56
f 10 56 37
f 10 37 15
f 10 15 36
f 10 36 35
f 10 35 34
f 10 34 33
f 10 33 32
f 10 32 31
f 10 31 30
f 10 30 29
f 10 29 24
f 10 24 21
f 11 23 12
f 12 24 14
f 12 14 13
f 12 23 25
f 12 25 26
f 12 26 27
f 12 27 28
f 12 28 21
f 12 21 24
f 14 24 29
f 14 29 30
f 14 30 31
f 14 31 32
f 14 32 33
f 14 33 34
f 14 34 35
f 14 35 36
f 14 36 15
f 16 38 17
f 17 39 40
f 17 38 39
f 18 20 41
f 19 42 20
f 20 42 43
f 20 43 44
f 20 44 45
f 20 45 46
f 20 46 47
f 20 47 41
f 22 46 49
f 22 49 50
f 22 50 51
f 22 51 52
f 22 52 53
f 22 53 54
f 22 54 55
f 22 55 48
f 37 56 57
f 38 58 59
f 38 59 39
f 39 59 40
f 40 59 60
f 40 60 61
f 40 61 62
f 40 62 63
f 43 64 44
f 44 65 69
f 44 69 50
f 44 50 49
f 44 49 66
f 44 66 45
f 44 64 62
f 44 62 67
f 44 67 65
f 45 66 46
f 46 66 49
f 48 55 68
f 50 69 51
f 51 69 52
f 52 69 55
f 52 55 53
f 53 55 54
f 55 70 71
f 55 71 72
f 55 72 73
f 55 73 68
f 55 69 59
f 55 59 74
f 55 74 75
f 55 75 56
f 55 56 76
f 55 76 70
f 56 77 78
f 56 78 79
f 56 79 57
f 56 75 74
f 56 74 77
f 58 80 59
f 59 69 81
f 59 81 60
f 59 80 82
f 59 82 74
f 60 81 62
f 60 62 61
f 62 81 67
f 62 64 63
f 65 67 81
f 65 81 69
f 74 82 77

