# https://github.com/mikedh/trimesh
v -38.30684574 1.48221112 9.09915450
v -38.31059462 1.48221112 9.26109243
v -38.29559651 1.83633471 9.09915450
v -27.79231503 1.48221112 9.09915450
v -38.34059342 1.48221112 10.98844059
v -38.33309308 2.21560760 11.72166533
v -38.29934540 2.21560760 9.99431716
v -38.28059583 2.21560760 9.09915450
v -14.66040152 8.42534955 9.09915450
v -7.08199116 1.48221112 9.15313381
v -38.34809119 1.48221112 11.72166533
v -38.29184505 1.48221112 28.98614918
v -38.26559514 2.21560760 28.98614918
v -38.16060064 3.94204621 28.98614918
v -38.06685536 5.01121553 28.98614918
v -38.16060064 3.94204621 11.72166533
v -38.11560373 3.89514655 9.09915450
v -0.03980640 8.42534955 9.65244563
v -6.08828584 2.21560760 9.20036667
v -6.08828584 1.48221112 9.18012475
v -37.25689042 8.42534955 9.09915450
v -38.23934780 1.48221112 29.98027519
v -38.17184987 2.21560760 30.71124853
v -38.08935382 3.78435633 30.58754563
v -38.05560614 4.94596383 29.92854470
v -37.89061404 5.87443419 28.98614918
v -37.90186327 5.86219949 27.25880101
v -37.90561215 5.83297260 23.80635349
v -37.91311249 5.77859705 18.62655780
v -38.03685657 4.84264951 11.72166533
v -38.11560373 4.07186903 10.06404075
v -38.03310768 4.82429747 10.68705548
v -38.01435811 4.68971714 9.09915450
v -0.03980640 8.42534955 32.07648326
v -0.03980640 1.48221112 9.65244563
v -37.47813380 7.39492471 9.09915450
v -37.56437616 7.39492471 15.17411285
v -37.57937684 7.39492471 16.90146102
v -37.30563879 8.42534955 15.17411285
v -38.19434832 1.48221112 30.71124853
v -38.12685296 1.48221112 31.27803513
v -38.03685657 3.10397621 31.60866001
v -37.05815064 8.42534955 29.82058480
v -37.32063947 8.42534955 28.98614918
v -37.55687839 7.39492471 28.98614918
v -37.57937684 7.39492471 27.25880101
v -37.58687719 7.39492471 23.80635349
v -37.59062607 7.39492471 22.07900532
v -37.58312830 7.39492471 18.62655780
v -37.91311249 5.73917458 16.90146102
v -37.84561713 5.59303883 9.09915450
v -38.01810700 4.73457768 9.53548917
v -0.03980640 1.48221112 32.07648326
v -30.28970265 8.42534955 32.07648326
v -37.34313793 8.42534955 21.38176937
v -37.33564016 8.42534955 19.65891883
v -37.31313913 8.42534955 16.20422249
v -38.06310391 1.48221112 31.74585838
v -38.05185468 2.21560760 31.69412789
v -37.96560975 2.21560760 32.07648326
v -37.66187289 3.57228962 32.07648326
v -36.79941327 8.42534955 30.41436105
v -37.33188870 8.42534955 28.28891323
v -37.34688938 8.42534955 27.25880101
v -37.34688938 8.42534955 23.10911754
v -37.98435932 1.48221112 32.07648326
v -35.43822333 8.42534955 31.09585272
v -36.19943733 5.47205175 32.07648326
v -37.97685897 1.77992004 32.07648326
v -37.53812882 3.86660023 32.07648326
v -36.73191533 5.18249993 32.07648326
v -36.03444524 8.42534955 30.81920715
f 1 2 3
f 1 3 8
f 1 8 17
f 1 17 33
f 1 33 51
f 1 51 36
f 1 36 21
f 1 21 9
f 1 9 4
f 1 4 10
f 1 10 20
f 1 20 35
f 1 35 53
f 1 53 66
f 1 66 58
f 1 58 41
f 1 41 40
f 1 40 22
f 1 22 12
f 1 12 11
f 1 11 5
f 1 5 2
f 2 5 6
f 2 6 3
f 3 6 7
f 3 7 8
f 4 9 10
f 5 11 6
f 6 11 12
f 6 12 13
f 6 13 14
f 6 14 15
f 6 15 16
f 6 16 17
f 6 17 7
f 7 17 8
f 9 18 19
f 9 19 20
f 9 20 10
f 9 21 39
f 9 39 57
f 9 57 56
f 9 56 55
f 9 55 65
f 9 65 64
f 9 64 63
f 9 63 44
f 9 44 43
f 9 43 62
f 9 62 72
f 9 72 67
f 9 67 54
f 9 54 34
f 9 34 18
f 12 22 13
f 13 22 23
f 13 23 24
f 13 24 25
f 13 25 14
f 14 25 15
f 15 25 26
f 15 26 27
f 15 27 28
f 15 28 29
f 15 29 30
f 15 30 16
f 16 31 17
f 16 30 32
f 16 32 31
f 17 31 33
f 18 34 53
f 18 53 35
f 18 35 20
f 18 20 19
f 21 36 37
f 21 37 38
f 21 38 39
f 22 40 23
f 23 40 41
f 23 41 42
f 23 42 24
f 24 42 25
f 25 42 43
f 25 43 44
f 25 44 45
f 25 45 26
f 26 45 46
f 26 46 27
f 27 46 47
f 27 47 48
f 27 48 28
f 28 48 29
f 29 48 49
f 29 49 38
f 29 38 50
f 29 50 30
f 30 50 32
f 31 32 33
f 32 50 37
f 32 37 36
f 32 36 51
f 32 51 52
f 32 52 33
f 33 52 51
f 34 54 68
f 34 68 71
f 34 71 70
f 34 70 61
f 34 61 60
f 34 60 69
f 34 69 66
f 34 66 53
f 37 50 38
f 38 49 55
f 38 55 56
f 38 56 57
f 38 57 39
f 41 58 59
f 41 59 42
f 42 59 60
f 42 60 61
f 42 61 62
f 42 62 43
f 44 63 45
f 45 63 64
f 45 64 46
f 46 64 47
f 47 64 48
f 48 64 65
f 48 65 55
f 48 55 49
f 54 67 68
f 58 66 69
f 58 69 60
f 58 60 59
f 61 70 62
f 62 71 72
f 62 70 71
f 67 72 71
f 67 71 68

