# https://github.com/mikedh/trimesh
v -18.36979560 23.60571980 4.96178291
v -25.82085966 23.60571980 4.96178291
v -18.36979560 20.82019810 4.96178291
v -18.36979560 23.60571980 -1.99740278
v -25.82085966 18.84226388 4.96178291
v -25.82085966 23.60571980 -3.66589578
v -20.76959900 18.84226388 4.96178291
v -18.36979560 19.87552804 4.25772846
v -18.83079006 23.60571980 -2.65006895
v -18.36979560 19.76828472 -0.07795322
v -25.82085966 18.84226388 -3.63506075
v -25.07976407 23.60571980 -3.71386195
v -25.82085966 22.93521749 -3.70958045
v -20.37716899 18.84226388 4.71168058
v -20.28963883 18.84226388 4.64744265
v -19.96869236 18.84226388 4.40847634
v -18.36979560 19.73657744 4.02218683
v -19.22176246 23.60571980 -3.09545807
v -18.36979560 19.18544250 1.35842283
v -19.84614860 18.84226388 -0.23555046
v -23.76826165 18.84226388 -3.21279790
v -25.82085966 19.48245863 -3.75325997
v -25.57358508 18.84226388 -3.63334712
v -25.07976407 22.93521749 -3.73356096
v -24.02282816 23.60571980 -3.74726484
v -25.82085966 21.94951553 -3.73527459
v -19.25385698 18.84226388 3.08601544
v -18.36979560 19.29827955 3.08515863
v -19.90012534 23.60571980 -3.32928349
v -19.02189956 18.84226388 1.35842283
v -18.36979560 19.27449974 2.74512166
v -19.04669958 18.84226388 1.56741351
v -25.06298801 18.84226388 -3.62821138
v -25.82085966 21.20907092 -3.75411936
v -25.07976407 21.20907092 -3.77809987
v -25.07976407 19.48245863 -3.74641060
v -23.35321869 22.93521749 -3.78752226
v -23.35321869 23.60571980 -3.76696386
v -21.53257681 23.60571980 -3.61108024
f 1 2 5
f 1 5 7
f 1 7 3
f 1 3 8
f 1 8 17
f 1 17 28
f 1 28 31
f 1 31 19
f 1 19 10
f 1 10 4
f 1 4 9
f 1 9 18
f 1 18 29
f 1 29 39
f 1 39 38
f 1 38 25
f 1 25 12
f 1 12 6
f 1 6 2
f 2 6 13
f 2 13 26
f 2 26 34
f 2 34 22
f 2 22 11
f 2 11 5
f 3 7 8
f 4 10 9
f 5 11 23
f 5 23 33
f 5 33 21
f 5 21 20
f 5 20 30
f 5 30 32
f 5 32 27
f 5 27 16
f 5 16 15
f 5 15 14
f 5 14 7
f 6 12 13
f 7 14 8
f 8 14 15
f 8 15 16
f 8 16 17
f 9 10 18
f 10 19 20
f 10 20 21
f 10 21 18
f 11 22 23
f 12 24 13
f 12 25 24
f 13 24 26
f 16 27 28
f 16 28 17
f 18 21 29
f 19 30 20
f 19 31 32
f 19 32 30
f 21 33 29
f 22 34 35
f 22 35 36
f 22 36 23
f 23 36 33
f 24 25 37
f 24 37 35
f 24 35 26
f 25 38 37
f 26 35 34
f 27 32 28
f 28 32 31
f 29 33 36
f 29 36 39
f 35 37 36
f 36 37 39
f 37 38 39

