# https://github.com/mikedh/trimesh
v 7.39593278 -33.08379323 -3.77257818
v 7.39593278 -33.08379323 -1.06901219
v 7.39593278 -32.93696920 -3.76825551
v 15.35065578 -33.08379323 -5.47672289
v 17.00291432 -33.08379323 -1.06901219
v 7.39593278 -28.23473176 -1.06901219
v 7.39593278 -32.31876087 -3.74881380
v 16.06817096 -33.08379323 -5.48276947
v 7.39593278 -30.56653163 -3.56819835
v 17.00291432 -25.69428729 -3.30160298
v 17.00291432 -33.08379323 -4.11478934
v 17.00291432 -23.21566339 -1.06901219
v 9.34441240 -27.10360679 -1.06901219
v 7.39593278 -29.46148675 -3.01556076
v 16.98786861 -33.08379323 -4.57193715
v 17.00291432 -27.13934598 -3.67751552
v 7.39593278 -29.55614931 -3.15815218
v 17.00291432 -24.81237695 -2.64872069
v 17.00291432 -23.57789391 -1.48986503
v 9.42716639 -27.06013825 -1.06901219
v 9.38390820 -27.08235496 -1.06901219
f 1 2 6
f 1 6 14
f 1 14 17
f 1 17 9
f 1 9 7
f 1 7 3
f 1 3 4
f 1 4 8
f 1 8 15
f 1 15 11
f 1 11 5
f 1 5 2
f 2 5 12
f 2 12 20
f 2 20 21
f 2 21 13
f 2 13 6
f 3 7 4
f 4 7 9
f 4 9 10
f 4 10 8
f 5 11 16
f 5 16 10
f 5 10 18
f 5 18 19
f 5 19 12
f 6 13 14
f 8 10 16
f 8 16 15
f 9 17 10
f 10 17 18
f 11 15 16
f 12 19 17
f 12 17 20
f 13 21 17
f 13 17 14
f 17 21 20
f 17 19 18

