# https://github.com/mikedh/trimesh
v -5.02975595 -9.88321832 39.13495457
v -5.02975595 -14.31634141 39.13495457
v -5.02975595 -9.88321832 37.02505034
v -26.76766019 -9.88321832 39.13495457
v -5.02975595 -14.31634141 37.02505034
v -23.32367274 -14.31634141 39.13495457
v -27.34316931 -9.88321832 37.02505034
v -28.17697582 -12.96896021 37.02505034
v -26.51842496 -14.31634141 37.02505034
f 1 2 5
f 1 5 3
f 1 3 7
f 1 7 4
f 1 4 6
f 1 6 2
f 2 6 9
f 2 9 5
f 3 5 9
f 3 9 8
f 3 8 7
f 4 7 8
f 4 8 6
f 6 8 9

