# https://github.com/mikedh/trimesh
v 23.69151261 21.06461664 32.07651671
v 23.69151261 28.11691464 31.37318270
v 21.19201255 28.16754131 37.03502013
v 21.19898028 26.97275090 37.03502013
v 21.03869680 21.06461664 37.03502013
v 23.69151261 21.06461664 9.40211430
v 23.69151261 29.67284074 30.58869320
v 21.07586402 28.80206256 37.03502013
v -0.03980512 21.06461664 37.03502013
v 9.54703357 21.06461664 9.40211430
v 23.69151261 30.04410126 9.40211430
v 23.69151261 30.12510496 28.98455134
v 22.57184657 30.83050252 30.28842477
v 21.01314418 31.01444746 34.16487578
v 20.81569348 30.82206560 35.23610737
v 20.95042433 29.37076863 37.03502013
v -0.03980512 36.36399790 37.03502013
v -0.03980512 21.06461664 9.65369097
v -0.03980512 32.68175172 9.40211430
v 23.50567651 30.19429594 9.40211430
v 22.64618101 30.89800561 9.99453586
v 22.69728626 30.93513166 15.17486160
v 23.56839636 30.24323471 18.62660926
v 23.69151261 30.14029348 18.62660926
v 23.69151261 30.12848076 28.73568020
v 23.52425884 30.25335953 28.98455134
v 22.66244247 30.89800561 28.98455134
v 20.45098901 32.29699058 30.71312941
v 20.20475649 32.14173478 32.43900324
v 21.30815979 31.27770562 32.43900324
v 19.71693576 31.91897589 34.13241461
v 18.75290890 32.31386442 34.68696652
v 18.14197191 32.11135775 36.01248030
v 19.80520823 31.16970326 35.84476210
v 19.23608276 30.91319412 37.03502013
v 20.37433113 30.45249041 36.38849318
v 20.13971321 30.18416855 37.03502013
v 0.40155595 36.37750109 37.03502013
v -0.03980512 36.54119124 36.63736561
v -0.03980512 37.89461324 9.40211430
v 22.64153671 30.89125658 9.40211430
v 21.54045556 31.69790748 9.40211430
v 20.57178312 32.37461848 9.40211430
v 22.70425656 30.93513166 16.90073543
v 23.56839636 30.25842323 20.35518733
v 23.69151261 30.15716989 20.35518733
v 23.69151261 30.14198138 27.25867879
v 23.54284373 30.27023595 25.53280625
v 21.54045556 31.65234194 28.98455134
v 22.69961226 30.91994314 22.08105987
v 20.49280309 32.32230392 28.98455134
v 17.28247640 34.19380275 30.16128431
v 19.58684921 32.80156937 30.71312941
v 17.15703800 34.12967547 31.31366884
v 19.34061669 32.65812628 32.43900324
v 19.07812272 32.51130997 33.53458071
v 18.14197191 32.85725716 34.13241461
v 17.60072250 32.65137726 35.51473673
v 17.12683979 32.38980443 36.66712126
v 18.11177242 31.57134081 37.03502013
v 0.82201125 36.38931123 37.03502013
v -0.03980512 36.87026458 35.89345514
v -0.03980512 38.25406362 15.17486160
v 0.23430346 37.90642339 9.40211430
v 22.70657999 30.93007053 18.62660926
v 20.27676750 32.52818381 9.40211430
v 16.36026363 34.65619436 15.17486160
v 17.25924721 34.17861166 15.17486160
v 17.30802903 34.20898869 28.98455134
v 18.17216883 33.69766088 28.98455134
v 22.70657999 30.92500684 20.35518733
v 23.56142863 30.26686015 22.08105987
v 23.69151261 30.16223101 22.08105987
v 23.69151261 30.15548199 25.53280625
v 23.55213490 30.27023595 23.80422689
v 14.63430746 35.26877808 30.71312941
v 16.49267233 34.48574747 30.72665576
v 17.94916551 33.74659965 30.72665576
v 16.36026363 34.65113066 28.98455134
v 14.63430746 34.97682821 32.43900324
v 16.03737324 34.38786993 32.43900324
v 16.89918961 34.01323361 32.43900324
v 18.08621979 33.37533656 32.43900324
v 16.31380524 33.79722632 34.17569660
v 15.31493330 34.07567300 34.75729992
v 16.47641215 32.98551173 36.01248030
v 13.50999712 34.04698644 36.54268633
v 13.23356511 33.88835484 37.03502013
v 16.01182061 32.66656320 37.03502013
v 16.88525158 32.28011417 37.03502013
v 14.16274690 34.33555536 35.39300605
v 1.25175836 36.37412529 37.03502013
v 2.54796742 36.83482900 35.89345514
v 0.82201125 36.89389002 35.89345514
v -0.03980512 37.41534779 34.29742729
v -0.03980512 38.26587376 16.03509299
v 0.82201125 38.25912731 15.17486160
v 0.82201125 37.92836092 9.40211430
v 19.70764331 32.82181901 9.40211430
v 18.08621979 33.65547114 9.40211430
v 17.47063594 33.97104644 9.40211430
v 17.16400702 34.12798757 9.40211430
v 16.29986721 34.54818943 9.40211430
v 15.21272409 35.05614401 9.40211430
v 14.63430746 35.32615120 9.40211430
v 13.92115997 35.64003860 9.40211430
v 13.55877893 35.79867020 9.40211430
v 14.63430746 35.40715489 15.17486160
v 16.36026363 34.65619436 16.90073543
v 23.69151261 30.16223101 23.80422689
v 13.41475563 35.74804353 30.71312941
v 12.32993466 35.99442528 32.01429860
v 14.63430746 35.36496772 28.98455134
v 14.63430746 35.40209120 20.35518733
v 14.63430746 35.39365170 23.80422689
v 14.63430746 35.38521736 25.53280625
v 14.63430746 35.40715489 16.90073543
v 14.63430746 35.40546700 18.62660926
v 12.90602786 35.64510229 32.52827275
v 12.90602786 35.23333735 34.16487578
v 14.69702730 34.51274870 34.17569660
v 15.70751255 34.24780522 33.60491411
v 12.92228932 34.57856646 35.93673714
v 12.35781072 34.28830449 36.99714790
v 12.39730137 34.24949311 37.03502013
v 11.18239512 35.21815141 35.89345514
v 2.54796742 36.30493688 37.03502013
v 4.27624702 36.62725863 35.89345514
v 4.11596290 37.34109569 33.99715822
v 2.54796742 37.40522040 34.23791471
v 4.27624702 36.09905441 37.03502013
v 0.82201125 37.42209424 34.30283834
v -0.03980512 37.64485570 33.43449102
v -0.03980512 38.27937695 17.76096682
v 0.82201125 38.27431326 16.90073543
v 2.54796742 38.22368659 23.80422689
v 2.54796742 38.20849550 22.08105987
v 2.54796742 38.18318216 20.35518733
v 2.54796742 38.08868042 15.17486160
v 2.54796742 37.91148708 9.40211430
v 12.69463913 36.13786579 9.40211430
v 12.68767012 36.14461738 9.99453586
v 12.55061583 36.07205318 30.71312941
v 9.45643896 36.75551320 32.43900324
v 11.28925120 36.20030775 32.52827275
v 11.93270983 35.85097962 33.16668312
v 11.18239512 36.51419000 30.71312941
v 9.45643896 37.02383249 30.71312941
v 13.49605909 35.78685491 28.98455134
v 12.65747191 36.15305688 11.72041227
v 13.51231926 35.79698230 25.53280625
v 11.28925120 35.74635563 34.31095364
v 10.27411909 35.87292230 34.98182518
v 11.07786248 34.69331784 37.03502013
v 12.26953825 34.29843188 37.03502013
v 12.32761251 34.27818225 37.03502013
v 9.60046226 35.67379143 35.93944138
v 4.85001679 36.02142651 37.03502013
v 5.67698937 35.96236035 36.91869921
v 6.82917577 35.87966875 36.74286571
v 7.72815935 35.81385614 36.59137809
v 6.15319550 36.27624775 36.05846782
v 7.72815935 36.18005811 35.72844118
v 6.00220319 37.03733568 34.16487578
v 4.58520002 37.55710040 33.06118302
v 3.43533705 37.61447867 33.31005545
v 2.54796742 37.62966461 33.37497844
v 0.82201125 37.64654360 33.43990143
v -0.03980512 37.88448585 32.43900324
v -0.03980512 38.28443550 18.62660926
v 0.82201125 38.29625079 20.35518733
v 0.82201125 38.28612340 18.62660926
v 2.54796742 38.23549673 25.53280625
v 4.27624702 38.11230586 27.25867879
v 4.27624702 38.09374412 25.53280625
v 4.27624702 38.06843078 23.80422689
v 6.00220319 37.79673570 18.62660926
v 6.00220319 37.73260584 15.17486160
v 6.91744824 37.61785446 14.27946479
v 4.26695521 37.72754215 9.40211430
v 11.70505964 36.46525124 9.40211430
v 11.18239512 36.64244457 9.99453586
v 11.18239512 36.64244457 11.72041227
v 12.63191929 36.09399072 28.98455134
v 11.18239512 36.58000776 28.98455134
v 7.72815935 37.18246409 32.43900324
v 9.60046226 36.25768087 34.31095364
v 10.78516901 36.03323665 33.83214554
v 9.45643896 37.13014952 28.98455134
v 8.03478957 37.50816163 28.98455134
v 7.67705411 37.45922286 30.72665576
v 9.12193269 36.03661245 35.39841581
v 9.50522077 35.16414894 37.03502013
v 5.76758463 35.89317194 37.03502013
v 6.58294197 35.77504476 37.03502013
v 6.99410547 35.71091490 37.03502013
v 7.72815935 35.58603613 37.03502013
v 7.72815935 36.75382530 34.16487578
v 6.07189205 37.47947250 32.46605465
v 5.54458066 37.68535497 31.90879721
v 4.11596290 37.72923005 32.46605465
v 2.54796742 37.82710759 32.43900324
v 0.82201125 37.87773426 32.43900324
v -0.03980512 38.03130216 31.57336080
v -0.03980512 38.29118710 20.35518733
v 0.82201125 38.30300239 22.08105987
v 2.54796742 38.24562412 27.25867879
v 4.27624702 38.12074535 28.98455134
v 6.00220319 37.86086041 25.53280625
v 7.19620239 37.66679323 20.35518733
v 7.16832697 37.66004164 18.62660926
v 7.09631532 37.64316780 16.90073543
v 6.99875169 37.62797671 15.17486160
v 7.86289085 37.52334758 15.17486160
v 9.45643896 37.00189495 9.40211430
v 7.72815935 37.24658880 9.40211430
v 11.18239512 36.63232233 9.40211430
v 9.45643896 37.14871126 15.17486160
v 9.45643896 37.15039916 16.90073543
v 9.45643896 37.15039916 18.62660926
v 9.45643896 37.14871126 20.35518733
v 9.45643896 37.14702336 22.08105987
v 9.45643896 37.14365271 23.80422689
v 6.69676706 37.58072584 31.31366884
v 7.17064976 37.66679323 28.98455134
v 7.06843991 37.64823149 30.16128431
v 8.04408137 37.51322533 25.53280625
v 6.07189205 37.75623128 30.72665576
v 4.27624702 38.01274042 30.71312941
v 2.54796742 38.12918484 30.71312941
v 0.82201125 38.16968412 30.71312941
v -0.03980512 38.17643572 30.71312941
v -0.03980512 38.29118710 22.08105987
v -0.03980512 38.28949920 22.94129126
v 0.82201125 38.29793869 23.80422689
v 2.54796742 38.25068782 28.98455134
v 6.00220319 37.86254831 28.98455134
v 6.00220319 37.86254831 27.25867879
v 8.06034219 37.51997692 20.35518733
v 8.03246677 37.52165968 18.62660926
v 7.96045512 37.52334758 16.90073543
v 7.19155681 37.66848113 22.08105987
v 0.82201125 38.27093746 28.98455134
v -0.03980512 38.22706238 29.84478273
v -0.03980512 38.28443550 24.66445957
v -0.03980512 38.28106485 25.53280625
v -0.03980512 38.26756166 28.98455134
v 0.82201125 38.28949920 25.53280625
f 1 2 3
f 1 3 4
f 1 4 5
f 1 5 9
f 1 9 18
f 1 18 10
f 1 10 6
f 1 6 11
f 1 11 24
f 1 24 46
f 1 46 73
f 1 73 110
f 1 110 74
f 1 74 47
f 1 47 25
f 1 25 12
f 1 12 7
f 1 7 2
f 2 7 8
f 2 8 3
f 3 8 16
f 3 16 37
f 3 37 35
f 3 35 60
f 3 60 90
f 3 90 89
f 3 89 88
f 3 88 125
f 3 125 156
f 3 156 155
f 3 155 154
f 3 154 193
f 3 193 197
f 3 197 196
f 3 196 195
f 3 195 194
f 3 194 158
f 3 158 131
f 3 131 127
f 3 127 92
f 3 92 61
f 3 61 38
f 3 38 17
f 3 17 9
f 3 9 5
f 3 5 4
f 6 10 19
f 6 19 40
f 6 40 64
f 6 64 98
f 6 98 140
f 6 140 180
f 6 180 216
f 6 216 215
f 6 215 217
f 6 217 181
f 6 181 141
f 6 141 107
f 6 107 106
f 6 106 105
f 6 105 104
f 6 104 103
f 6 103 102
f 6 102 101
f 6 101 100
f 6 100 99
f 6 99 66
f 6 66 43
f 6 43 42
f 6 42 41
f 6 41 20
f 6 20 11
f 7 12 13
f 7 13 14
f 7 14 15
f 7 15 16
f 7 16 8
f 9 17 39
f 9 39 62
f 9 62 95
f 9 95 133
f 9 133 169
f 9 169 204
f 9 204 232
f 9 232 244
f 9 244 247
f 9 247 246
f 9 246 245
f 9 245 234
f 9 234 233
f 9 233 205
f 9 205 170
f 9 170 134
f 9 134 96
f 9 96 63
f 9 63 40
f 9 40 19
f 9 19 18
f 10 18 19
f 11 20 21
f 11 21 22
f 11 22 23
f 11 23 24
f 12 25 26
f 12 26 13
f 13 26 27
f 13 27 28
f 13 28 29
f 13 29 30
f 13 30 14
f 14 30 29
f 14 29 15
f 15 29 31
f 15 31 32
f 15 32 33
f 15 33 34
f 15 34 35
f 15 35 36
f 15 36 16
f 16 36 37
f 17 38 39
f 20 41 21
f 21 41 42
f 21 42 22
f 22 42 43
f 22 43 44
f 22 44 45
f 22 45 46
f 22 46 23
f 23 46 24
f 25 47 26
f 26 47 48
f 26 48 27
f 27 49 28
f 27 48 50
f 27 50 49
f 28 49 51
f 28 51 52
f 28 52 53
f 28 53 54
f 28 54 55
f 28 55 29
f 29 55 56
f 29 56 31
f 31 56 32
f 32 56 57
f 32 57 58
f 32 58 33
f 33 59 35
f 33 35 34
f 33 58 59
f 35 37 36
f 35 59 60
f 38 61 39
f 39 61 62
f 40 63 64
f 43 65 44
f 43 66 67
f 43 67 68
f 43 68 69
f 43 69 70
f 43 70 51
f 43 51 49
f 43 49 71
f 43 71 65
f 44 65 72
f 44 72 45
f 45 72 73
f 45 73 46
f 47 74 48
f 48 74 75
f 48 75 71
f 48 71 50
f 49 50 71
f 51 70 52
f 52 76 77
f 52 77 54
f 52 54 78
f 52 78 53
f 52 70 69
f 52 69 79
f 52 79 76
f 53 78 54
f 54 77 76
f 54 76 80
f 54 80 81
f 54 81 82
f 54 82 83
f 54 83 55
f 55 83 56
f 56 83 57
f 57 84 58
f 57 83 82
f 57 82 84
f 58 84 85
f 58 85 86
f 58 86 59
f 59 87 88
f 59 88 89
f 59 89 90
f 59 90 60
f 59 86 91
f 59 91 87
f 61 92 93
f 61 93 94
f 61 94 62
f 62 94 95
f 63 96 97
f 63 97 98
f 63 98 64
f 65 71 75
f 65 75 72
f 66 99 67
f 67 99 100
f 67 100 101
f 67 101 102
f 67 102 103
f 67 103 104
f 67 104 105
f 67 105 106
f 67 106 107
f 67 107 108
f 67 108 117
f 67 117 109
f 67 109 69
f 67 69 68
f 69 109 79
f 72 75 110
f 72 110 73
f 74 110 75
f 76 111 112
f 76 112 80
f 76 79 113
f 76 113 111
f 79 114 115
f 79 115 116
f 79 116 113
f 79 109 117
f 79 117 118
f 79 118 114
f 80 112 119
f 80 119 120
f 80 120 121
f 80 121 122
f 80 122 81
f 81 122 82
f 82 122 84
f 84 122 85
f 85 91 86
f 85 122 121
f 85 121 91
f 87 123 124
f 87 124 88
f 87 91 123
f 88 124 125
f 91 121 120
f 91 120 126
f 91 126 123
f 92 127 93
f 93 128 129
f 93 129 130
f 93 130 94
f 93 127 131
f 93 131 128
f 94 130 132
f 94 132 95
f 95 132 133
f 96 134 135
f 96 135 97
f 97 135 136
f 97 136 137
f 97 137 138
f 97 138 139
f 97 139 140
f 97 140 98
f 107 141 142
f 107 142 108
f 108 142 117
f 111 113 143
f 111 143 112
f 112 144 145
f 112 145 146
f 112 146 120
f 112 120 119
f 112 143 147
f 112 147 148
f 112 148 144
f 113 149 143
f 113 116 149
f 114 118 150
f 114 150 115
f 115 150 151
f 115 151 149
f 115 149 116
f 117 142 118
f 118 142 150
f 120 152 153
f 120 153 126
f 120 146 152
f 123 126 124
f 124 126 154
f 124 154 155
f 124 155 156
f 124 156 125
f 126 157 154
f 126 153 157
f 128 131 158
f 128 158 159
f 128 159 160
f 128 160 161
f 128 161 162
f 128 162 163
f 128 163 164
f 128 164 129
f 129 164 165
f 129 165 166
f 129 166 130
f 130 166 167
f 130 167 168
f 130 168 132
f 132 168 133
f 133 168 169
f 134 170 171
f 134 171 172
f 134 172 135
f 135 172 136
f 136 173 174
f 136 174 137
f 136 172 173
f 137 174 175
f 137 175 176
f 137 176 138
f 138 177 139
f 138 176 177
f 139 177 178
f 139 178 179
f 139 179 140
f 140 179 180
f 141 181 142
f 142 182 183
f 142 183 150
f 142 181 182
f 143 149 184
f 143 184 185
f 143 185 147
f 144 186 187
f 144 187 188
f 144 188 145
f 144 148 186
f 145 188 146
f 146 188 152
f 147 185 189
f 147 189 148
f 148 189 190
f 148 190 191
f 148 191 186
f 149 151 184
f 150 183 185
f 150 185 184
f 150 184 151
f 152 188 153
f 153 188 187
f 153 187 192
f 153 192 157
f 154 157 193
f 157 161 193
f 157 192 161
f 158 194 159
f 159 194 195
f 159 195 160
f 160 195 161
f 161 192 163
f 161 163 162
f 161 195 196
f 161 196 197
f 161 197 193
f 163 192 198
f 163 198 164
f 164 198 199
f 164 199 165
f 165 199 200
f 165 200 201
f 165 201 166
f 166 201 202
f 166 202 167
f 167 202 203
f 167 203 168
f 168 203 169
f 169 203 204
f 170 205 206
f 170 206 171
f 171 206 207
f 171 207 172
f 172 207 173
f 173 207 174
f 174 207 208
f 174 208 209
f 174 209 210
f 174 210 211
f 174 211 175
f 175 211 177
f 175 177 176
f 177 211 212
f 177 212 213
f 177 213 178
f 178 213 179
f 179 213 214
f 179 214 215
f 179 215 216
f 179 216 180
f 181 217 182
f 182 218 219
f 182 219 220
f 182 220 183
f 182 217 218
f 183 220 221
f 183 221 222
f 183 222 223
f 183 223 189
f 183 189 185
f 186 191 224
f 186 224 200
f 186 200 199
f 186 199 198
f 186 198 187
f 187 198 192
f 189 223 190
f 190 225 226
f 190 226 191
f 190 223 227
f 190 227 225
f 191 226 224
f 200 224 228
f 200 228 229
f 200 229 201
f 201 229 230
f 201 230 202
f 202 230 203
f 203 230 231
f 203 231 204
f 204 231 232
f 205 233 206
f 206 233 234
f 206 234 245
f 206 245 235
f 206 235 236
f 206 236 207
f 207 236 208
f 208 236 229
f 208 229 228
f 208 228 226
f 208 226 237
f 208 237 238
f 208 238 209
f 209 238 210
f 210 239 240
f 210 240 241
f 210 241 211
f 210 238 242
f 210 242 239
f 211 241 214
f 211 214 212
f 212 214 213
f 214 241 218
f 214 218 217
f 214 217 215
f 218 241 240
f 218 240 239
f 218 239 219
f 219 239 220
f 220 239 221
f 221 239 222
f 222 239 223
f 223 239 227
f 224 226 228
f 225 242 237
f 225 237 226
f 225 227 239
f 225 239 242
f 229 236 230
f 230 236 231
f 231 236 243
f 231 243 232
f 232 243 244
f 235 245 246
f 235 246 247
f 235 247 248
f 235 248 236
f 236 248 243
f 237 242 238
f 243 247 244
f 243 248 247

