# https://github.com/mikedh/trimesh
v -6.64710188 35.02253013 -3.82983808
v -7.81446264 35.02253013 -3.80958844
v -6.64710188 36.55413351 -3.38688818
v -6.64710188 33.53209501 -3.41473336
v -11.26829123 31.57000027 -3.68050022
v -16.44625108 28.53510183 -3.72353134
v -12.99427828 31.57000027 -3.80705660
v -11.26829123 33.29540838 -3.79566843
v -7.81446264 36.42721176 -3.36411184
v -12.99427828 33.29540838 -3.72226542
v -9.54044904 35.02253013 -3.70707947
v -6.64710188 37.23331718 -2.09348436
v -6.64710188 32.95924638 -2.09348436
v -10.29394400 30.63955127 -3.04265462
v -11.26829123 30.38313990 -3.24514586
v -14.78707626 28.53510183 -3.38815411
v -18.17223683 28.53510183 -3.74883953
v -16.44625108 29.84287852 -3.76655732
v -14.72026403 31.57000027 -3.75770100
v -16.44625108 31.57000027 -3.70201578
v -9.54044904 36.25655903 -3.27552289
v -18.17223683 31.57000027 -3.60329944
v -14.72026403 33.29540838 -3.59064534
v -11.26829123 35.02253013 -3.55014607
v -6.64710188 37.24789589 -1.53283954
v -11.26829123 36.09105233 -3.14643466
v -12.34285745 35.96670360 -3.03633015
v -11.26829123 36.39205407 -2.09348436
v -11.26829123 36.48381297 -0.36725802
v -6.64710188 32.53990133 9.09789115
v -9.43651848 30.19533544 9.09789115
v -9.68520887 30.00324176 9.09789115
v -13.17058907 28.53510183 1.04005066
v -13.38401691 28.53510183 -0.36725802
v -13.70694332 28.53510183 -2.09348436
v -14.20803567 28.53510183 -3.20085396
v -19.89822388 28.53510183 -3.69695208
v -19.89822388 29.84287852 -3.65266018
v -23.35205311 28.53510183 -3.44637117
v -19.89265587 31.60001708 -3.31601702
v -18.17223683 32.84947893 -3.24261401
v -12.94788036 35.06455263 -3.28817698
v -14.72026403 34.52857790 -3.20844436
v -6.64710188 37.29506443 9.09789115
v -9.54044904 36.77709566 -0.36725802
v -12.57113288 36.06103552 -2.09348436
v -15.87649007 34.29275066 -3.07809021
v -16.10662193 34.41023459 -2.09348436
v -12.70104576 36.10820406 -0.36725802
v -12.76600284 36.06618156 4.81142870
v -12.78084915 36.05160284 6.53892096
v -11.26829123 36.47266667 1.36023681
v -9.54044904 36.77881444 8.26514987
v -9.54044904 36.78824712 6.53892096
v -9.54044904 36.79167437 4.81142870
v -9.54044904 36.78738773 3.08519979
v -12.43565200 28.53510183 9.09789115
v -21.65576125 28.53510183 -3.59697496
v -24.71242740 28.53510183 -3.16415245
v -23.35205311 29.45955056 -3.20717843
v -19.31176014 32.59564058 -3.11099908
v -21.27901248 31.04431760 -3.17174285
v -7.81446264 37.08924885 9.09789115
v -13.56403928 35.76089317 -0.36725802
v -19.49178251 32.70712423 -2.09348436
v -17.06983315 34.03977170 -0.36725802
v -14.72026403 35.20776672 -0.36725802
v -13.62899508 35.81491622 4.81142870
v -13.64384267 35.82692192 6.53892096
v -11.26829123 36.42807115 6.53892096
v -11.26829123 36.44779589 4.81142870
v -11.26829123 36.46151522 3.08519979
v -13.61414878 35.82349466 8.26514987
v -9.54044904 36.77280902 9.09789115
v -25.60511482 28.53510183 9.09789115
v -25.22836863 28.53510183 -2.09348436
v -24.37279697 29.10194761 -3.07049981
v -20.35477474 32.13255940 -2.09348436
v -14.72026403 35.31581796 4.81142870
v -14.72026403 35.34497538 6.53892096
v -19.53075598 32.73628165 -0.36725802
v -18.17223683 33.47978558 -0.36725802
v -20.39374951 32.19087424 -0.36725802
v -17.14221339 34.07492940 3.08519979
v -16.27921987 34.50456651 3.08519979
v -14.72026403 35.35955409 8.26514987
v -14.72026403 35.36040833 9.09789115
v -14.14864788 35.60052736 9.09789115
v -12.75115525 36.03788352 8.26514987
v -11.26829123 36.40148675 8.26514987
v -13.58631003 35.81748924 9.09789115
v -11.26829123 36.38776742 9.09789115
v -25.51417671 28.61828487 9.09789115
v -25.58655565 28.53510183 8.33728695
v -24.48415197 29.19027669 -2.09348436
v -25.33415305 28.53510183 -0.36725802
v -23.35205311 30.00753098 -2.09348436
v -22.44080653 30.66013282 -2.09348436
v -22.48534801 30.70386638 -1.08229925
v -16.31262662 34.52257762 4.81142870
v -17.17747529 34.09122431 4.81142870
v -16.32190621 34.54058359 6.53892096
v -19.51590839 32.73027881 1.36023681
v -17.18489844 34.09122431 6.53892096
v -20.37890192 32.19087424 1.36023681
v -21.79680885 31.20811067 -0.45078328
v -22.55587182 30.75274854 4.81142870
v -22.55587182 30.75103234 6.53892096
v -16.30705862 34.55859471 8.26514987
v -15.47932700 34.98051277 9.09789115
v -12.72331650 36.03102386 9.09789115
v -25.48262638 28.58827064 6.53892096
v -24.65118190 29.30519017 9.09789115
v -24.64004846 29.30090095 8.26514987
v -24.59736212 29.27088671 4.81142870
v -24.55467578 29.24001566 1.36023681
v -24.53240375 29.22457757 -0.36725802
v -25.58470051 28.53510183 8.26514987
v -25.39168569 28.53510183 1.41465610
v -23.18687833 30.20991415 -0.45078328
v -22.50019432 30.71415845 0.06936226
v -16.29963546 34.56545437 9.09789115
v -19.49363765 32.71827311 3.08519979
v -18.17223683 33.48578843 6.53892096
v -17.16262770 34.07149957 9.09789115
v -20.35663117 32.18058218 3.08519979
v -16.74505031 34.31676205 9.09789115
v -22.51689834 30.72530733 1.36023681
v -22.53731265 30.74074285 3.08519979
v -23.42072177 30.13444758 4.81142870
v -24.00904194 29.75197643 9.09789115
v -23.39102659 30.16875104 9.09789115
v -22.53731265 30.73731302 8.26514987
v -21.62606607 31.33417303 6.53892096
v -25.46035435 28.56425925 4.81142870
v -25.49375982 28.53510183 4.87217504
v -25.54015902 28.53510183 6.53892096
v -23.40030746 30.11901206 3.08519979
v -23.37989057 30.10271972 1.36023681
v -25.43622718 28.53510183 2.87005446
v -20.28053936 32.13255940 9.09789115
v -18.17223683 33.44548213 9.09789115
v -20.93567176 31.72436323 9.09789115
v -22.52803435 30.73045078 9.09789115
v -21.62606607 31.30673182 8.26514987
f 1 2 3
f 1 3 12
f 1 12 25
f 1 25 44
f 1 44 30
f 1 30 13
f 1 13 4
f 1 4 5
f 1 5 6
f 1 6 7
f 1 7 8
f 1 8 2
f 2 9 3
f 2 8 10
f 2 10 11
f 2 11 9
f 3 9 12
f 4 13 14
f 4 14 15
f 4 15 16
f 4 16 6
f 4 6 5
f 6 16 36
f 6 36 35
f 6 35 34
f 6 34 33
f 6 33 57
f 6 57 75
f 6 75 94
f 6 94 118
f 6 118 137
f 6 137 136
f 6 136 140
f 6 140 119
f 6 119 96
f 6 96 76
f 6 76 59
f 6 59 39
f 6 39 58
f 6 58 37
f 6 37 17
f 6 17 7
f 7 17 18
f 7 18 19
f 7 19 8
f 8 19 20
f 8 20 10
f 9 11 21
f 9 21 12
f 10 20 22
f 10 22 23
f 10 23 11
f 11 23 24
f 11 24 21
f 12 21 26
f 12 26 27
f 12 27 28
f 12 28 29
f 12 29 25
f 13 30 31
f 13 31 32
f 13 32 14
f 14 32 33
f 14 33 34
f 14 34 35
f 14 35 36
f 14 36 15
f 15 36 16
f 17 37 18
f 18 37 38
f 18 38 20
f 18 20 19
f 20 38 22
f 21 24 26
f 22 38 39
f 22 39 40
f 22 40 41
f 22 41 23
f 23 41 24
f 24 42 27
f 24 27 26
f 24 41 43
f 24 43 42
f 25 29 45
f 25 45 44
f 27 46 28
f 27 42 43
f 27 43 47
f 27 47 48
f 27 48 46
f 28 46 29
f 29 46 49
f 29 49 50
f 29 50 51
f 29 51 52
f 29 52 53
f 29 53 54
f 29 54 55
f 29 55 56
f 29 56 45
f 30 44 63
f 30 63 74
f 30 74 92
f 30 92 111
f 30 111 91
f 30 91 88
f 30 88 87
f 30 87 110
f 30 110 122
f 30 122 127
f 30 127 125
f 30 125 142
f 30 142 141
f 30 141 143
f 30 143 144
f 30 144 132
f 30 132 131
f 30 131 113
f 30 113 93
f 30 93 75
f 30 75 57
f 30 57 32
f 30 32 31
f 32 57 33
f 37 58 38
f 38 58 39
f 39 59 60
f 39 60 40
f 40 61 41
f 40 60 62
f 40 62 61
f 41 61 47
f 41 47 43
f 44 45 56
f 44 56 55
f 44 55 63
f 46 48 64
f 46 64 49
f 47 61 48
f 48 61 65
f 48 65 66
f 48 66 67
f 48 67 64
f 49 64 68
f 49 68 69
f 49 69 50
f 50 69 51
f 51 70 71
f 51 71 72
f 51 72 52
f 51 69 73
f 51 73 70
f 52 72 53
f 53 72 74
f 53 74 63
f 53 63 54
f 54 63 55
f 59 76 77
f 59 77 60
f 60 77 62
f 61 62 77
f 61 77 78
f 61 78 65
f 64 67 79
f 64 79 80
f 64 80 68
f 65 81 82
f 65 82 66
f 65 78 83
f 65 83 81
f 66 82 84
f 66 84 85
f 66 85 79
f 66 79 67
f 68 80 69
f 69 80 86
f 69 86 87
f 69 87 88
f 69 88 73
f 70 73 89
f 70 89 90
f 70 90 74
f 70 74 71
f 71 74 72
f 73 91 89
f 73 88 91
f 74 90 92
f 75 93 94
f 76 95 77
f 76 96 95
f 77 95 97
f 77 97 98
f 77 98 78
f 78 98 99
f 78 99 83
f 79 85 84
f 79 84 100
f 79 100 80
f 80 100 101
f 80 101 102
f 80 102 86
f 81 103 104
f 81 104 101
f 81 101 82
f 81 83 105
f 81 105 103
f 82 101 84
f 83 99 106
f 83 106 107
f 83 107 108
f 83 108 105
f 84 101 100
f 86 102 109
f 86 109 110
f 86 110 87
f 89 111 90
f 89 91 111
f 90 111 92
f 93 112 94
f 93 113 114
f 93 114 115
f 93 115 116
f 93 116 117
f 93 117 112
f 94 112 118
f 95 96 117
f 95 117 99
f 95 99 97
f 96 119 117
f 97 99 98
f 99 117 120
f 99 120 121
f 99 121 106
f 101 104 122
f 101 122 109
f 101 109 102
f 103 123 124
f 103 124 125
f 103 125 104
f 103 105 126
f 103 126 123
f 104 125 127
f 104 127 122
f 105 108 126
f 106 121 128
f 106 128 129
f 106 129 107
f 107 129 130
f 107 130 113
f 107 113 131
f 107 131 108
f 108 132 133
f 108 133 134
f 108 134 126
f 108 131 132
f 109 122 110
f 112 135 136
f 112 136 137
f 112 137 118
f 112 117 135
f 113 130 114
f 114 130 138
f 114 138 115
f 115 138 116
f 116 138 139
f 116 139 117
f 117 119 140
f 117 140 135
f 117 139 120
f 120 139 138
f 120 138 128
f 120 128 121
f 123 141 142
f 123 142 124
f 123 126 141
f 124 142 125
f 126 134 143
f 126 143 141
f 128 138 129
f 129 138 130
f 132 144 133
f 133 144 134
f 134 145 143
f 134 144 145
f 135 140 136
f 143 145 144

