# https://github.com/mikedh/trimesh
v -17.25222013 8.32704360 9.09915450
v -17.25222013 10.22833282 7.20143663
v -16.54892215 8.32908658 9.09915450
v -17.25222013 13.34231806 9.09915450
v -17.15713688 10.23241877 7.20143663
v -14.83586322 8.36075783 9.09915450
v -17.25222013 13.30758234 7.20143663
v -13.52513656 18.76421143 9.09915450
v -16.44598220 10.27839342 7.20143663
v -14.71956417 8.40060228 9.09915450
v -15.60831102 10.39077506 7.20143663
v -14.71956417 10.58999599 7.20143663
v -14.06027120 10.80147734 7.20143663
v -13.41355257 18.76421143 7.20143663
v -9.29277950 18.76421143 9.09915450
v -12.97349988 9.15151521 9.09915450
v -13.19824128 11.19481306 7.20143663
v -10.14538061 18.76421143 7.20143663
v -9.22520052 17.75482228 9.09915450
v -10.11787764 18.53025477 7.20143663
v -12.65524865 11.58814748 7.20143663
v -11.71385146 12.75384865 7.20143663
v -11.35159392 11.19889901 9.09915450
v -9.27234847 16.47469522 9.09915450
v -10.06915758 17.75482228 7.20143663
v -11.24315286 13.60488408 7.20143663
v -9.88842119 14.31697148 9.09915450
v -9.31085366 16.02925721 9.09915450
v -10.19802967 16.29590661 7.20143663
v -10.91389941 14.30777810 7.20143663
v -9.68096854 14.78182290 9.09915450
v -10.29861274 15.77997310 7.20143663
f 1 2 3
f 1 3 6
f 1 6 10
f 1 10 16
f 1 16 23
f 1 23 27
f 1 27 31
f 1 31 28
f 1 28 24
f 1 24 19
f 1 19 15
f 1 15 8
f 1 8 4
f 1 4 7
f 1 7 2
f 2 5 6
f 2 6 3
f 2 7 14
f 2 14 18
f 2 18 20
f 2 20 25
f 2 25 29
f 2 29 32
f 2 32 30
f 2 30 26
f 2 26 22
f 2 22 21
f 2 21 17
f 2 17 13
f 2 13 12
f 2 12 11
f 2 11 9
f 2 9 5
f 4 8 7
f 5 9 6
f 6 9 11
f 6 11 12
f 6 12 13
f 6 13 10
f 7 8 14
f 8 15 18
f 8 18 14
f 10 13 16
f 13 17 16
f 15 19 20
f 15 20 18
f 16 17 21
f 16 21 22
f 16 22 23
f 19 24 25
f 19 25 20
f 22 26 23
f 23 26 27
f 24 28 25
f 25 28 29
f 26 30 27
f 27 30 31
f 28 31 32
f 28 32 29
f 30 32 31

