# https://github.com/mikedh/trimesh
v -24.58215559 1.48221048 37.02504969
v -24.58215559 -9.37358742 37.02504969
v -24.58215559 1.48221048 32.82563367
v -36.36095586 1.48221048 37.02504969
v -24.58215559 -9.37358742 32.82563367
v -27.72455722 -9.37358742 37.02504969
v -37.81509601 1.48221048 32.82563367
v -36.40257697 1.48221048 36.94570688
v -36.44419808 0.57578959 37.02504969
v -28.79240015 -9.37358742 32.82563367
v -28.03281229 -9.37358742 36.45937206
v -34.70521216 -5.24953183 37.02504969
v -37.86842435 0.48759109 32.82563367
v -37.49903441 0.48759109 34.16706285
v -37.43660274 1.48221048 34.16706285
v -36.82659204 1.48221048 35.89328404
v -36.45070009 0.48759109 37.02504969
v -36.90333225 0.48759109 35.89328404
v -28.72476584 -9.37358742 33.16191661
v -35.41927564 -5.74365355 32.82563367
v -36.08911669 -4.05832724 37.02504969
v -36.35184995 -3.90743399 36.83964264
v -36.51963635 -4.13058558 35.89328404
v -37.10883649 -4.55351130 32.82563367
v -35.71842738 -5.55238067 32.82563367
v -37.84891316 -1.23917751 32.82563367
v -37.47952580 -1.23917751 34.16706285
v -36.89942899 -1.23917751 35.89328404
v -36.45330141 -1.23917751 37.02504969
v -36.26210572 -3.72572501 37.02504969
v -36.40127502 -2.96594675 36.93830688
v -36.79407684 -2.96594675 35.89328404
v -37.34165587 -2.96594675 34.16706285
v -37.72665115 -2.96594675 32.82563367
v -37.26101239 -4.16565226 32.82563367
v -37.75136240 -2.65459698 32.82563367
v -36.44029482 -1.48995783 37.02504969
v -36.34924863 -2.96594675 37.02504969
v -36.36355718 -2.81080287 37.02504969
f 1 2 5
f 1 5 3
f 1 3 7
f 1 7 15
f 1 15 16
f 1 16 8
f 1 8 4
f 1 4 9
f 1 9 17
f 1 17 29
f 1 29 37
f 1 37 39
f 1 39 38
f 1 38 30
f 1 30 21
f 1 21 12
f 1 12 6
f 1 6 2
f 2 6 11
f 2 11 19
f 2 19 10
f 2 10 5
f 3 5 10
f 3 10 20
f 3 20 25
f 3 25 24
f 3 24 35
f 3 35 34
f 3 34 36
f 3 36 26
f 3 26 13
f 3 13 7
f 4 8 9
f 6 12 11
f 7 13 14
f 7 14 15
f 8 16 9
f 9 16 18
f 9 18 17
f 10 19 20
f 11 12 20
f 11 20 19
f 12 21 22
f 12 22 23
f 12 23 24
f 12 24 25
f 12 25 20
f 13 26 27
f 13 27 14
f 14 27 28
f 14 28 18
f 14 18 15
f 15 18 16
f 17 18 29
f 18 28 29
f 21 30 22
f 22 30 31
f 22 31 32
f 22 32 33
f 22 33 34
f 22 34 23
f 23 34 35
f 23 35 24
f 26 36 27
f 27 33 32
f 27 32 28
f 27 36 34
f 27 34 33
f 28 32 31
f 28 31 29
f 29 31 37
f 30 38 31
f 31 38 39
f 31 39 37

