# https://github.com/mikedh/trimesh
v -5.02975498 -16.59524618 9.15805856
v -5.02975498 -16.59524618 9.42133473
v -5.02975498 -16.10862704 9.15805856
v -4.54300044 -16.59524618 9.16104583
v -2.55415727 -16.59524618 9.42133473
v -5.02975498 1.48221048 9.42133473
v -5.02975498 -14.38157188 9.16346961
v -4.35947588 -16.59524618 9.16308366
v -1.34628469 -6.42579233 9.27540612
v -1.34628469 -7.17783997 9.42133473
v -4.11862258 1.48221048 9.42133473
v -5.02975498 1.48221048 9.29973656
v -5.02975498 -12.65451671 9.17040389
v -5.02975498 -10.92746122 9.17839311
v -5.02975498 -9.20040589 9.18713107
v -5.02975498 -7.47512000 9.19689824
v -5.02975498 -5.74983426 9.20800595
v -5.02975498 -4.02277877 9.22040275
v -5.02975498 -2.29572361 9.23398570
v -5.02975498 -0.56866747 9.24870335
v -5.02975498 0.48773711 9.26437302
v -5.02975498 1.15838737 9.28326668
v -1.34628469 -4.78013518 9.32530205
v -1.34628469 -3.91837703 9.42133473
v -1.34628469 -4.69519798 9.33285385
v -4.35947588 1.48221048 9.38649095
f 1 2 6
f 1 6 12
f 1 12 22
f 1 22 21
f 1 21 20
f 1 20 19
f 1 19 18
f 1 18 17
f 1 17 16
f 1 16 15
f 1 15 14
f 1 14 13
f 1 13 7
f 1 7 3
f 1 3 4
f 1 4 8
f 1 8 5
f 1 5 2
f 2 5 10
f 2 10 24
f 2 24 11
f 2 11 6
f 3 7 4
f 4 7 8
f 5 8 9
f 5 9 10
f 6 11 26
f 6 26 12
f 7 13 8
f 8 13 14
f 8 14 15
f 8 15 9
f 9 15 16
f 9 16 17
f 9 17 18
f 9 18 19
f 9 19 20
f 9 20 21
f 9 21 22
f 9 22 23
f 9 23 25
f 9 25 24
f 9 24 10
f 11 24 25
f 11 25 23
f 11 23 26
f 12 26 23
f 12 23 22

