# https://github.com/mikedh/trimesh
v 27.89621490 -10.76700889 6.55114536
v 27.86215331 -10.76222533 6.55114536
v 29.02058957 -10.76700889 6.55114536
v 25.88560079 -10.76700889 9.37550417
v 29.02058957 -8.72105762 6.55114536
v 25.88560079 -7.00849336 9.65204681
v 29.02058957 -10.76700889 32.86801511
v 25.88560079 -10.76700889 39.30556227
v 29.02058957 -7.00849336 8.75441663
v 25.88560079 -7.00849336 52.86521079
v 29.02058957 -7.61970277 45.76124277
v 25.88560079 -10.71438830 48.83041121
v 25.88560079 -10.72837135 47.94184834
v 28.18620927 -10.76700889 35.88731528
v 25.88897659 -10.76700889 39.31462894
v 29.02058957 -7.00849336 46.06045240
v 25.88560079 -7.04271512 52.86521079
v 25.89664932 -7.00849336 52.86521079
v 25.88560079 -9.92287003 49.74164107
v 25.88560079 -10.63159346 48.93014775
f 1 2 5
f 1 5 3
f 1 3 7
f 1 7 14
f 1 14 15
f 1 15 8
f 1 8 4
f 1 4 2
f 2 4 6
f 2 6 5
f 3 5 9
f 3 9 16
f 3 16 11
f 3 11 7
f 4 8 13
f 4 13 12
f 4 12 20
f 4 20 19
f 4 19 17
f 4 17 10
f 4 10 6
f 5 6 9
f 6 10 18
f 6 18 16
f 6 16 9
f 7 11 12
f 7 12 13
f 7 13 14
f 8 15 13
f 10 17 18
f 11 16 18
f 11 18 17
f 11 17 19
f 11 19 20
f 11 20 12
f 13 15 14

