# https://github.com/mikedh/trimesh
v 21.81097735 1.48221048 37.79853441
v 21.81097735 1.48221048 9.65191044
v -5.02975530 1.48221048 37.79853441
v 21.81097735 -18.26399133 37.79853441
v -4.11807388 1.48221048 9.42136046
v 21.81097735 -10.14355193 9.42136046
v 21.49832757 -9.92023984 9.42136046
v -5.02975530 1.48221048 9.42136046
v -5.02975530 -33.08379323 37.79853441
v 21.15414804 -27.13895489 37.79853441
v 21.37221632 -28.86454826 35.89301902
v 21.65859303 -28.86454826 34.16527846
v 21.81097735 -28.86454826 32.48753547
v 21.81097735 -31.32098118 9.42136046
v -5.02975530 -33.08379323 9.42136046
v 14.32047923 -33.08379323 37.79853441
v 20.95709874 -28.73935815 37.79853441
v 20.99650705 -30.14013395 35.89301902
v 21.81097735 -30.64766141 31.49311357
v 21.81097735 -31.56459436 28.04874146
v 21.45628963 -31.62888117 9.42136046
v 19.37545019 -33.08379323 9.42136046
v 14.63313159 -32.95183609 37.79853441
v 14.63313159 -33.08379323 37.57353958
v 20.65495715 -29.14199660 37.79853441
v 20.76793058 -29.82546692 36.90410892
v 20.50257026 -31.33113172 34.63193485
v 21.17779406 -30.68826361 34.09861354
v 21.81097735 -30.87097349 31.07367846
v 21.81097735 -31.55106029 28.98483308
v 21.34594325 -31.83527567 28.98483308
v 19.44638825 -33.08379323 11.72131282
v 19.99549822 -32.72852400 11.72131282
v 21.17253996 -31.86234380 9.42136046
v 19.43587747 -33.08379323 11.08799059
v 19.57249949 -32.96198664 9.42136046
v 15.32149064 -32.63040203 37.79853441
v 15.59735915 -33.08379323 36.85688764
v 20.05592551 -29.80854934 37.79853441
v 19.64606460 -30.13336691 37.79853441
v 19.77742995 -30.19765373 37.53465101
v 19.88252223 -31.05368338 35.99857315
v 19.35180417 -31.69993501 35.49580577
v 18.08280669 -32.87401521 34.29027559
v 19.88252223 -31.87926138 34.09861354
v 20.74165751 -31.50369106 33.47918174
v 21.81097735 -31.49692403 29.66259645
v 19.81421379 -32.63716906 30.71257364
v 19.05228963 -33.08379323 30.71257364
v 19.96134143 -32.72852400 9.99357098
v 19.95083324 -32.72514049 9.42136046
v 16.25156141 -32.19054489 37.79853441
v 16.05714044 -33.08379323 36.37911969
v 17.70184461 -31.74730424 37.24576818
v 16.52743121 -32.05858775 37.79853441
v 18.25620997 -31.07060096 37.79853441
v 18.85261328 -31.39203502 36.64578195
v 18.20103550 -32.10934050 35.99857315
v 17.24994576 -33.08379323 35.02359295
v 17.41546661 -33.08379323 34.77637626
v 18.71073716 -33.05334158 32.43753662
v 17.81482061 -33.08379323 34.06250319
v 18.58462591 -33.08379323 32.58197804
v 19.81421379 -32.36987126 32.43753662
v 20.90455260 -31.63564820 32.43753662
v 21.18830226 -31.79467347 30.71257364
v 18.76591035 -33.08379323 31.98199181
v 16.50378519 -33.08379323 35.89301902
v 16.76389012 -32.95183609 35.89301902
v 18.20103550 -31.14165481 37.74020285
v 18.10645271 -31.16533942 37.79853441
v 17.02662338 -33.08379323 35.29303279
v 18.65556397 -33.08379323 32.43753662
f 1 2 5
f 1 5 8
f 1 8 3
f 1 3 9
f 1 9 16
f 1 16 23
f 1 23 37
f 1 37 52
f 1 52 55
f 1 55 71
f 1 71 56
f 1 56 40
f 1 40 39
f 1 39 25
f 1 25 17
f 1 17 10
f 1 10 4
f 1 4 13
f 1 13 19
f 1 19 29
f 1 29 47
f 1 47 30
f 1 30 20
f 1 20 14
f 1 14 6
f 1 6 2
f 2 6 7
f 2 7 5
f 3 8 15
f 3 15 9
f 4 10 11
f 4 11 12
f 4 12 13
f 5 7 6
f 5 6 14
f 5 14 21
f 5 21 34
f 5 34 51
f 5 51 36
f 5 36 22
f 5 22 15
f 5 15 8
f 9 15 22
f 9 22 35
f 9 35 32
f 9 32 49
f 9 49 67
f 9 67 73
f 9 73 63
f 9 63 62
f 9 62 60
f 9 60 59
f 9 59 72
f 9 72 68
f 9 68 53
f 9 53 38
f 9 38 24
f 9 24 16
f 10 17 11
f 11 17 18
f 11 18 19
f 11 19 12
f 12 19 13
f 14 20 21
f 16 24 23
f 17 25 26
f 17 26 18
f 18 27 28
f 18 28 19
f 18 26 27
f 19 28 29
f 20 30 31
f 20 31 32
f 20 32 33
f 20 33 34
f 20 34 21
f 22 36 35
f 23 24 38
f 23 38 37
f 25 39 26
f 26 39 40
f 26 40 41
f 26 41 42
f 26 42 27
f 27 42 43
f 27 43 44
f 27 44 45
f 27 45 46
f 27 46 28
f 28 46 47
f 28 47 29
f 30 47 48
f 30 48 31
f 31 48 49
f 31 49 32
f 32 35 33
f 33 50 34
f 33 35 50
f 34 50 51
f 35 36 51
f 35 51 50
f 37 38 52
f 38 53 54
f 38 54 55
f 38 55 52
f 40 56 57
f 40 57 42
f 40 42 41
f 42 57 43
f 43 57 58
f 43 58 59
f 43 59 60
f 43 60 44
f 44 61 45
f 44 60 62
f 44 62 63
f 44 63 61
f 45 61 64
f 45 64 46
f 46 64 65
f 46 65 47
f 47 65 66
f 47 66 48
f 48 66 61
f 48 61 67
f 48 67 49
f 53 68 69
f 53 69 54
f 54 69 58
f 54 58 57
f 54 57 70
f 54 70 71
f 54 71 55
f 56 71 70
f 56 70 57
f 58 69 72
f 58 72 59
f 61 66 64
f 61 63 73
f 61 73 67
f 64 66 65
f 68 72 69

