# https://github.com/mikedh/trimesh
v -0.04045191 37.90647999 9.09915193
v -0.90646293 37.90154495 8.26579827
v -0.90646293 37.87303078 9.09915193
v -0.04045191 32.92896970 9.09915193
v -0.04045191 38.02273402 5.67200745
v -1.73948934 37.84013220 9.09915193
v -0.90646293 37.95967453 6.53829314
v -6.64710124 32.53963116 9.09915193
v -6.64710124 32.95967865 -2.09415849
v -0.04045191 33.84638637 -2.09415849
v -0.04045191 38.07483245 3.94577082
v -2.63331113 37.79735837 9.09915193
v -0.90646293 38.00518604 4.81205652
v -6.64710124 37.29505413 9.09915193
v -6.64710124 33.53326830 -3.41511932
v -0.04045191 34.00212076 -3.16941685
v -0.04045191 38.11321671 2.22080012
v -2.63331113 37.81874528 8.26579827
v -3.36414955 37.75020013 9.09915193
v -0.90646293 38.03589757 3.08581732
v -6.08571411 37.39540691 9.09915193
v -4.93383519 37.56101139 -2.09415849
v -6.64710124 37.24789589 -1.53310199
v -6.64710124 35.02317853 -3.82926173
v -6.08571411 35.02317853 -3.83812834
v -4.35951254 35.02317853 -3.80519888
v -2.63331113 35.02317853 -3.72794149
v -0.04045191 35.02317853 -3.59749471
v -0.04045191 34.51539376 -3.38725355
v -0.04045191 38.13898804 0.49329757
v -2.63331113 37.84890618 6.53829314
v -4.13185303 37.68384719 9.09915193
v -5.51333184 37.49575455 9.09915193
v -4.07041101 37.69042896 -2.09415849
v -3.96498906 37.66739532 -3.03770414
v -6.64710124 37.23309076 -2.09415849
v -4.99527721 37.58623724 9.09915193
v -6.64710124 36.55421585 -3.38725355
v -2.63331113 36.74943059 -3.57089487
v -0.90646293 36.74943059 -3.62282348
v -0.04045191 36.74943059 -3.61395687
v -0.04045191 38.14118025 -0.36665594
v -0.90646293 38.05454164 1.35958069
v -2.63331113 37.86590353 4.81205652
v -4.11568419 37.69097444 8.26579827
v -2.63331113 37.87028795 1.35958069
v -2.63331113 37.86699963 -0.36665594
v -2.63331113 37.86316069 -2.09415849
v -0.90646293 38.03096252 -2.09415849
v -0.04045191 38.09127917 -2.09415849
v -2.63331113 37.73758720 -3.12508892
v -6.08571411 36.61508312 -3.39865201
v -0.90646293 37.80722846 -3.18461308
v -0.04045191 37.82258422 -3.18588415
v -0.90646293 38.05838058 -0.36665594
v -2.63331113 37.86864636 3.08581732
f 1 2 3
f 1 3 6
f 1 6 12
f 1 12 19
f 1 19 32
f 1 32 37
f 1 37 33
f 1 33 21
f 1 21 14
f 1 14 8
f 1 8 4
f 1 4 10
f 1 10 16
f 1 16 29
f 1 29 28
f 1 28 41
f 1 41 54
f 1 54 50
f 1 50 42
f 1 42 30
f 1 30 17
f 1 17 11
f 1 11 5
f 1 5 2
f 2 6 3
f 2 5 7
f 2 7 6
f 4 8 9
f 4 9 10
f 5 11 7
f 6 7 12
f 7 11 13
f 7 13 12
f 8 14 23
f 8 23 36
f 8 36 38
f 8 38 24
f 8 24 15
f 8 15 9
f 9 15 16
f 9 16 10
f 11 17 13
f 12 18 19
f 12 13 18
f 13 20 18
f 13 17 20
f 14 21 22
f 14 22 23
f 15 24 25
f 15 25 26
f 15 26 27
f 15 27 28
f 15 28 29
f 15 29 16
f 17 30 20
f 18 20 31
f 18 31 19
f 19 31 32
f 20 30 31
f 21 33 22
f 22 34 35
f 22 35 36
f 22 36 23
f 22 33 37
f 22 37 34
f 24 38 39
f 24 39 40
f 24 40 25
f 25 40 41
f 25 41 26
f 26 41 27
f 27 41 28
f 30 42 43
f 30 43 31
f 31 43 44
f 31 44 32
f 32 44 45
f 32 45 37
f 34 46 47
f 34 47 48
f 34 48 35
f 34 37 46
f 35 48 49
f 35 49 50
f 35 50 51
f 35 51 38
f 35 38 36
f 37 45 46
f 38 51 52
f 38 52 39
f 39 52 51
f 39 51 53
f 39 53 40
f 40 53 54
f 40 54 41
f 42 55 43
f 42 50 49
f 42 49 55
f 43 55 44
f 44 55 56
f 44 56 45
f 45 56 46
f 46 56 55
f 46 55 47
f 47 55 48
f 48 55 49
f 50 54 53
f 50 53 51

