# https://github.com/mikedh/trimesh
v -19.89661060 -3.25176833 111.08305047
v -19.89661060 -5.26247442 106.28851251
v -21.62428425 -5.26451418 106.28851251
v -20.64346974 -3.25788632 111.08305047
v -18.16893694 -3.28439675 111.08305047
v 19.81288611 -5.75393533 106.28851251
v -5.47233597 -5.40522279 106.28851251
v -5.98523911 -5.39910480 106.28851251
v -21.62428425 -3.27827876 111.08305047
v -22.37564232 -5.34404483 106.28851251
v 19.81288611 -4.00425402 111.08305047
v 21.54055848 -4.06747110 111.08305047
v 20.38427841 -5.78452399 106.28851251
v -22.65009053 -5.41541901 106.28851251
v -22.65458816 -3.59640264 111.08305047
v 21.62154417 -4.10009888 111.08305047
v 21.54055848 -5.91503638 106.28851251
v -22.89754265 -6.41873262 106.28851251
v -22.88404718 -3.88189873 111.08305047
v 21.82400710 -6.08021631 106.28851251
v 22.80482033 -4.85666280 111.08305047
v -22.96953050 -6.41873262 110.14244320
v -23.07300949 -5.47863545 111.08305047
v -22.98752617 -4.71391507 111.08305047
v -22.73557385 -7.97672421 106.28851251
v 22.70134133 -6.64305075 106.28851251
v 22.89030365 -6.41873262 111.08305047
v -22.95153225 -6.41873262 111.08305047
v -22.42513171 -8.84136833 106.28851251
v -22.72657601 -7.94817403 106.68934728
v -22.79856128 -7.00195951 111.08305047
v 22.70134133 -7.66675680 106.28851251
v 22.68334308 -8.06849020 106.68934728
v 22.68334308 -8.12966816 106.28851251
v 22.57086367 -7.75240608 111.08305047
v -21.97521666 -9.87323180 106.28851251
v -21.86273982 -9.87323180 108.41612938
v -21.71876670 -9.87323180 111.08305047
v -22.41613387 -8.81077934 106.68934728
v -22.68158425 -7.82377962 108.41612938
v -22.63659248 -7.69734611 110.14244320
v -22.60959897 -7.63005015 111.08305047
v 22.56186584 -8.47022391 106.28851251
v 22.25592391 -8.61501108 111.08305047
v 22.28292000 -8.68230639 110.14244320
v 22.38639899 -8.96168450 106.28851251
v -21.78175414 -10.26272954 106.28851251
v -21.07088892 -11.29255358 110.14244320
v -21.04389412 -11.24565071 111.08305047
v -22.29915683 -8.49265547 111.08305047
v -22.37114211 -8.68638494 108.41612938
v 21.94998198 -9.33078980 111.08305047
v 21.71602533 -9.87323180 111.08305047
v 21.95448219 -9.87323180 106.68934728
v 21.99047354 -9.83856427 106.28851251
v -21.17436920 -11.48220434 106.28851251
v -21.16537136 -11.46181174 106.68934728
v -20.80543854 -12.14496235 106.28851251
v -20.58497994 -12.15719801 110.14244320
v -20.55798514 -12.11029514 111.08305047
v 20.99616227 -11.32722095 111.08305047
v 21.02315707 -11.37616310 110.14244320
v 21.11763951 -11.55153908 106.68934728
v 21.36509292 -11.09474571 106.28851251
v -20.69296042 -12.34480949 106.28851251
v -19.77513335 -13.32569155 111.08305047
v 20.78020258 -11.72079740 111.08305047
v 20.64972750 -12.41414424 106.68934728
v 20.91967679 -11.95735087 106.28851251
v 21.10864168 -11.60659890 106.28851251
v -20.05408048 -13.32569155 106.28851251
v -20.03158460 -13.32569155 106.68934728
v -19.14525253 -14.33104459 110.14244320
v -19.11375881 -14.29229850 111.08305047
v 20.51925241 -12.19186522 111.08305047
v 20.65872662 -12.43453668 106.28851251
v 20.10533128 -12.83015241 111.08305047
v 19.78139239 -13.32569155 111.08305047
v 20.09183324 -13.29102401 106.28851251
v 20.32578861 -12.93823292 106.28851251
v -19.86061667 -13.60710877 106.28851251
v -19.24873282 -14.46767433 106.68934728
v -18.56486240 -15.34659354 106.28851251
v -18.49737475 -15.26298466 108.41612938
v -18.40739251 -15.15694294 111.08305047
v 19.07502481 -14.35143703 111.08305047
v 19.21899793 -14.54108763 106.28851251
v -19.25773065 -14.48194942 106.28851251
v -18.72683120 -15.14470760 106.28851251
v -17.70102492 -16.33971092 106.28851251
v -17.63353857 -16.26425851 108.41612938
v -17.57504876 -16.20512030 110.14244320
v -17.54355504 -16.17045277 111.08305047
v 18.36865850 -15.21404203 111.08305047
v 18.40015351 -15.25074868 110.14244320
v 18.52612967 -15.40369263 106.28851251
v -16.85968462 -17.20435568 106.28851251
v -16.84618658 -17.19008123 106.68934728
v -16.68871669 -17.03509752 111.08305047
v 17.50482232 -16.21735628 111.08305047
v 17.53631604 -16.25202317 110.14244320
v 17.66229220 -16.38661444 106.28851251
v -16.66172189 -17.39196716 106.28851251
v -15.86087315 -17.88954541 110.14244320
v -15.82488051 -17.85895675 111.08305047
v 16.64548505 -17.08200039 111.08305047
v 16.68147769 -17.11462881 110.14244320
v 16.74446513 -17.17580613 108.41612938
v 16.80745386 -17.23698345 106.68934728
v 16.82095190 -17.25125855 106.28851251
v 17.46882839 -16.58850037 106.28851251
v -15.99584715 -18.01394046 106.28851251
v -15.98235039 -18.00170448 106.68934728
v -14.96554196 -18.87858457 106.28851251
v -14.80807207 -18.75418952 110.14244320
v -14.68209591 -18.79089617 111.08305047
v 16.17757304 -17.52655843 111.08305047
v 15.78614650 -17.89770252 111.08305047
v 16.15957607 -17.86711386 106.28851251
v -14.10170577 -19.54746074 106.28851251
v -14.08370881 -19.53726387 106.68934728
v -13.94423589 -19.43326191 110.14244320
v -13.90374305 -19.40471237 111.08305047
v 15.30473773 -18.29127881 111.08305047
v 14.92231032 -18.91529122 106.28851251
v 15.71866014 -18.25253304 106.28851251
v 15.94361767 -18.03841113 106.68934728
v 15.95711443 -18.05064711 106.28851251
v -13.26036418 -20.10417655 106.28851251
v -12.99041489 -20.25916090 106.68934728
v -13.53931131 -19.64534471 111.08305047
v 14.72434759 -18.76030816 111.08305047
v 14.76484043 -18.79089617 110.14244320
v 14.83682571 -18.84595615 108.41612938
v 14.25643557 -19.12941313 111.08305047
v 13.86051012 -19.43734079 111.08305047
v 13.97298953 -19.51483232 108.41612938
v 14.04047717 -19.56785318 106.68934728
v 14.05847285 -19.57804940 106.28851251
v -12.99041489 -20.28159246 106.28851251
v -12.99041489 -20.05727432 110.14244320
v -13.07589950 -19.94715437 111.08305047
v -11.89262334 -20.96474243 106.28851251
v 13.41059635 -19.73303246 111.08305047
v 12.90669041 -20.31625999 106.68934728
v 13.77952572 -19.76362177 106.28851251
v -12.23455791 -20.46512571 111.08305047
v -11.87012746 -20.95454686 106.68934728
v -11.78014394 -20.90560423 108.41612938
v -11.02878587 -21.42153645 106.28851251
v -10.82632423 -21.31753384 110.14244320
v 12.90669041 -20.05931344 111.08305047
v 12.90669041 -20.11437342 110.14244320
v 12.67723396 -20.48143992 106.28851251
v 12.90669041 -20.33869155 106.28851251
v -11.64067102 -20.83015310 111.08305047
v -11.24924448 -21.04019614 111.08305047
v -9.53956779 -22.12100192 106.28851251
v -9.53956779 -22.10060819 106.68934728
v -10.77683354 -21.29102406 111.08305047
v 11.59743809 -20.85462248 111.08305047
v 11.84939042 -20.99125351 106.28851251
v -8.20332002 -22.65936441 106.28851251
v -9.53956779 -21.91503711 110.14244320
v -9.53956779 -21.86405537 111.08305047
v 11.12502715 -21.10341257 111.08305047
v 10.73360190 -21.30937738 111.08305047
v 11.18801588 -21.33588717 106.28851251
v -7.91087549 -22.55740092 110.14244320
v -7.33948319 -22.95301761 106.28851251
v -7.31248839 -22.94282075 106.68934728
v -7.17751375 -22.89999675 108.41612938
v -7.04703867 -22.85513235 110.14244320
v -6.97505210 -22.83066297 111.08305047
v -7.76240345 -22.55740092 111.08305047
v 10.98555423 -21.43988977 106.28851251
v 10.12621632 -21.58875549 111.08305047
v 9.45134374 -22.13527573 106.68934728
v -7.39347280 -22.68587419 111.08305047
v -6.08422048 -23.31192637 106.28851251
v -6.08422048 -23.11615714 110.14244320
v -6.15620704 -23.04886247 111.08305047
v 9.45134374 -22.15566817 106.28851251
v 9.45134374 -21.89872161 111.08305047
v 9.45134374 -21.94970336 110.14244320
v 9.17689553 -22.26782723 106.28851251
v -4.35654682 -23.69734491 106.28851251
v -4.35654682 -23.45671385 111.08305047
v -5.14389816 -23.27929923 111.08305047
v 8.73148004 -22.18421836 111.08305047
v 8.16008774 -22.67567862 106.28851251
v -3.03379678 -23.89311414 106.28851251
v -2.62887349 -23.71569823 111.08305047
v 7.71467225 -22.57575424 111.08305047
v 7.86764321 -22.57371641 110.14244320
v 6.93181982 -22.84493678 111.08305047
v 7.00380638 -22.86940745 110.14244320
v 7.30075047 -22.96729270 106.28851251
v -2.62887349 -23.95225234 106.28851251
v -0.90569907 -23.97672302 108.41612938
v -0.90569907 -23.89107502 110.14244320
v -0.90569907 -23.84417151 111.08305047
v 6.72035969 -22.90203587 111.08305047
v 6.00049599 -23.33231881 106.28851251
v 6.97231202 -23.06109716 106.28851251
v -0.90569907 -24.08072562 106.28851251
v 0.81747535 -24.08480514 106.28851251
v 0.81747535 -23.89515325 110.14244320
v 0.81747535 -23.84824974 111.08305047
v 6.07698147 -23.06925491 111.08305047
v 6.00049599 -23.13655086 110.14244320
v 4.27282234 -23.46894854 111.08305047
v 4.27282234 -23.70958217 106.28851251
v 2.54514884 -23.96041009 106.28851251
v 2.54514884 -23.76872038 110.14244320
v 2.54514884 -23.72181687 111.08305047
v 3.48547131 -23.58518713 111.08305047
f 1 2 3
f 1 3 4
f 1 4 9
f 1 9 15
f 1 15 19
f 1 19 24
f 1 24 23
f 1 23 28
f 1 28 31
f 1 31 42
f 1 42 50
f 1 50 38
f 1 38 49
f 1 49 60
f 1 60 66
f 1 66 74
f 1 74 85
f 1 85 93
f 1 93 99
f 1 99 105
f 1 105 116
f 1 116 123
f 1 123 131
f 1 131 142
f 1 142 147
f 1 147 156
f 1 156 157
f 1 157 160
f 1 160 165
f 1 165 175
f 1 175 179
f 1 179 174
f 1 174 182
f 1 182 189
f 1 189 188
f 1 188 193
f 1 193 202
f 1 202 209
f 1 209 216
f 1 216 217
f 1 217 212
f 1 212 210
f 1 210 203
f 1 203 196
f 1 196 194
f 1 194 190
f 1 190 184
f 1 184 177
f 1 177 167
f 1 167 166
f 1 166 161
f 1 161 152
f 1 152 144
f 1 144 136
f 1 136 135
f 1 135 132
f 1 132 124
f 1 124 118
f 1 118 117
f 1 117 106
f 1 106 100
f 1 100 94
f 1 94 86
f 1 86 78
f 1 78 77
f 1 77 75
f 1 75 67
f 1 67 61
f 1 61 53
f 1 53 52
f 1 52 44
f 1 44 35
f 1 35 27
f 1 27 21
f 1 21 16
f 1 16 12
f 1 12 11
f 1 11 5
f 1 5 6
f 1 6 7
f 1 7 8
f 1 8 2
f 2 8 7
f 2 7 6
f 2 6 13
f 2 13 17
f 2 17 20
f 2 20 26
f 2 26 32
f 2 32 34
f 2 34 43
f 2 43 46
f 2 46 55
f 2 55 64
f 2 64 70
f 2 70 69
f 2 69 76
f 2 76 80
f 2 80 79
f 2 79 87
f 2 87 96
f 2 96 102
f 2 102 111
f 2 111 110
f 2 110 119
f 2 119 128
f 2 128 126
f 2 126 125
f 2 125 139
f 2 139 146
f 2 146 155
f 2 155 154
f 2 154 162
f 2 162 168
f 2 168 176
f 2 176 183
f 2 183 186
f 2 186 191
f 2 191 198
f 2 198 205
f 2 205 204
f 2 204 213
f 2 213 214
f 2 214 207
f 2 207 206
f 2 206 199
f 2 199 192
f 2 192 187
f 2 187 180
f 2 180 170
f 2 170 163
f 2 163 158
f 2 158 150
f 2 150 143
f 2 143 140
f 2 140 129
f 2 129 120
f 2 120 114
f 2 114 112
f 2 112 103
f 2 103 97
f 2 97 90
f 2 90 83
f 2 83 89
f 2 89 88
f 2 88 81
f 2 81 71
f 2 71 65
f 2 65 58
f 2 58 56
f 2 56 47
f 2 47 36
f 2 36 29
f 2 29 25
f 2 25 18
f 2 18 14
f 2 14 10
f 2 10 3
f 3 9 4
f 3 10 9
f 5 11 6
f 6 11 12
f 6 12 13
f 9 10 14
f 9 14 15
f 12 16 17
f 12 17 13
f 14 18 19
f 14 19 15
f 16 20 17
f 16 21 20
f 18 22 23
f 18 23 24
f 18 24 19
f 18 25 22
f 20 21 26
f 21 27 26
f 22 25 28
f 22 28 23
f 25 29 30
f 25 30 31
f 25 31 28
f 26 27 32
f 27 33 34
f 27 34 32
f 27 35 33
f 29 36 37
f 29 37 38
f 29 38 39
f 29 39 30
f 30 39 51
f 30 51 40
f 30 40 31
f 31 40 41
f 31 41 42
f 33 35 34
f 34 35 43
f 35 44 45
f 35 45 46
f 35 46 43
f 36 47 48
f 36 48 37
f 37 48 49
f 37 49 38
f 38 50 51
f 38 51 39
f 40 51 41
f 41 51 50
f 41 50 42
f 44 52 45
f 45 52 46
f 46 52 53
f 46 53 54
f 46 54 55
f 47 56 57
f 47 57 48
f 48 57 58
f 48 58 59
f 48 59 60
f 48 60 49
f 53 61 62
f 53 62 54
f 54 62 63
f 54 63 64
f 54 64 55
f 56 58 57
f 58 65 59
f 59 65 66
f 59 66 60
f 61 67 62
f 62 67 68
f 62 68 69
f 62 69 63
f 63 69 70
f 63 70 64
f 65 71 72
f 65 72 66
f 66 73 74
f 66 72 73
f 67 75 68
f 68 76 69
f 68 75 77
f 68 77 78
f 68 78 79
f 68 79 80
f 68 80 76
f 71 81 82
f 71 82 72
f 72 82 73
f 73 82 83
f 73 83 84
f 73 84 85
f 73 85 74
f 78 86 79
f 79 86 87
f 81 88 82
f 82 88 89
f 82 89 83
f 83 90 91
f 83 91 92
f 83 92 93
f 83 93 84
f 84 93 85
f 86 94 95
f 86 95 96
f 86 96 87
f 90 97 91
f 91 97 92
f 92 97 98
f 92 98 93
f 93 98 99
f 94 100 95
f 95 100 96
f 96 100 101
f 96 101 102
f 97 103 98
f 98 103 104
f 98 104 105
f 98 105 99
f 100 106 107
f 100 107 108
f 100 108 109
f 100 109 101
f 101 109 110
f 101 110 111
f 101 111 102
f 103 112 113
f 103 113 104
f 104 113 114
f 104 114 105
f 105 114 115
f 105 115 116
f 106 117 107
f 107 117 108
f 108 117 118
f 108 118 109
f 109 118 110
f 110 118 119
f 112 114 113
f 114 120 121
f 114 121 122
f 114 122 123
f 114 123 115
f 115 123 116
f 118 124 125
f 118 125 126
f 118 126 127
f 118 127 119
f 119 127 128
f 120 129 121
f 121 129 122
f 122 129 130
f 122 130 131
f 122 131 123
f 124 132 133
f 124 133 134
f 124 134 125
f 125 134 135
f 125 135 136
f 125 136 137
f 125 137 138
f 125 138 139
f 126 128 127
f 129 140 130
f 130 141 142
f 130 142 131
f 130 140 143
f 130 143 141
f 132 135 133
f 133 135 134
f 136 144 145
f 136 145 146
f 136 146 137
f 137 146 138
f 138 146 139
f 141 147 142
f 141 143 148
f 141 148 149
f 141 149 147
f 143 150 151
f 143 151 148
f 144 152 153
f 144 153 145
f 145 153 154
f 145 154 155
f 145 155 146
f 147 149 156
f 148 157 149
f 148 151 157
f 149 157 156
f 150 158 159
f 150 159 151
f 151 159 160
f 151 160 157
f 152 161 162
f 152 162 154
f 152 154 153
f 158 163 159
f 159 163 164
f 159 164 160
f 160 164 165
f 161 166 162
f 162 166 167
f 162 167 168
f 163 169 165
f 163 165 164
f 163 170 171
f 163 171 172
f 163 172 173
f 163 173 174
f 163 174 169
f 165 169 175
f 167 176 168
f 167 177 178
f 167 178 176
f 169 174 179
f 169 179 175
f 170 180 171
f 171 180 172
f 172 180 173
f 173 180 174
f 174 180 181
f 174 181 182
f 176 178 183
f 177 184 185
f 177 185 178
f 178 185 186
f 178 186 183
f 180 187 188
f 180 188 181
f 181 188 189
f 181 189 182
f 184 190 191
f 184 191 185
f 185 191 186
f 187 192 193
f 187 193 188
f 190 194 195
f 190 195 191
f 191 195 196
f 191 196 197
f 191 197 198
f 192 199 193
f 193 199 200
f 193 200 201
f 193 201 202
f 194 196 195
f 196 203 204
f 196 204 205
f 196 205 197
f 197 205 198
f 199 206 200
f 200 206 207
f 200 207 208
f 200 208 201
f 201 208 209
f 201 209 202
f 203 210 204
f 204 210 211
f 204 211 212
f 204 212 213
f 207 214 208
f 208 214 215
f 208 215 216
f 208 216 209
f 210 212 211
f 212 217 213
f 213 217 215
f 213 215 214
f 215 217 216

