# https://github.com/mikedh/trimesh
v -26.76700149 -9.88321832 39.13495457
v -23.32347719 -14.31634141 39.13495457
v -26.79896350 -9.88321832 46.26422580
v -5.02975595 -9.88321832 39.13495457
v -5.02975595 -14.31634141 39.13495457
v -23.19988493 -14.31634141 46.93873028
v -26.74143086 -9.88321832 46.93873028
v -5.02975595 -9.88321832 46.93873028
v -5.02975595 -14.31634141 46.93873028
f 1 2 3
f 1 3 7
f 1 7 8
f 1 8 4
f 1 4 5
f 1 5 2
f 2 5 9
f 2 9 6
f 2 6 3
f 3 6 7
f 4 8 9
f 4 9 5
f 6 9 8
f 6 8 7

