# https://github.com/mikedh/trimesh
v 31.90217740 6.83517274 -3.83733070
v 30.69537101 6.83517274 -3.53509907
v 33.62726389 6.83517274 -3.81955116
v 31.90217740 2.21525638 -3.79683657
v 30.22234512 6.83517274 -3.39583713
v 34.18756649 6.83517274 -3.81263489
v 35.35450657 6.83517274 -3.79584854
v 32.63487981 1.48221048 -3.77708096
v 31.90217740 1.48221048 -3.77806899
v 29.71484082 6.83517274 -2.34396749
v 31.16085282 1.48221048 -3.54003926
v 30.61563581 2.21525638 -3.38398582
v 30.64688252 1.48221048 -3.36423535
v 27.41544166 1.48221048 0.21905005
v 35.80705896 6.83517274 -3.66250969
v 37.15070865 1.48221048 -3.29904541
v 36.08721155 1.48221048 -3.53905122
v 35.35450657 1.48221048 -3.68028923
v 33.62726389 1.48221048 -3.74843814
v 29.60062463 6.83517274 -2.09408644
v 27.24842717 1.48221048 1.35882422
v 27.43591515 1.60744111 0.24472876
v 36.68953665 6.83517274 -3.36818235
v 37.98361975 1.62368456 -3.00570611
v 37.98361975 1.48221048 -3.00570611
v 27.34540416 1.75729937 1.35882422
v 29.17608723 6.83517274 6.25176462
v 27.21610494 1.48221048 2.67045530
v 27.31631106 1.79712194 3.08527956
v 36.89426126 6.83517274 -2.95830086
v 38.02348864 1.88881781 -2.09408644
v 37.99331745 1.48221048 -2.89212288
v 37.22290234 6.83517274 -2.09408644
v 27.29476205 1.82698823 4.81173489
v 27.27967645 1.84375529 6.25176462
v 37.37375314 6.83517274 6.25176462
v 27.20748276 1.48221048 3.08527956
v 27.18377756 1.48221048 4.36728235
v 37.77135363 3.94176446 -0.36664050
v 37.92651166 2.95354095 -0.36664050
v 38.04934745 2.09002511 -0.36664050
v 38.05042555 1.48221048 -1.59234827
v 38.03426443 1.48221048 -2.09408644
v 37.26169056 6.83517274 -1.53407459
v 37.49982065 5.66827254 -0.36664050
v 27.17731415 1.48221048 4.81173489
v 27.15899427 1.48221048 6.07497010
v 27.15684066 1.48221048 6.25176462
v 37.57093624 5.95488983 6.25176462
v 37.37375314 6.83517274 5.37174674
v 37.97176844 3.25063685 3.08527956
v 38.01379094 3.51629435 6.25176462
v 38.14740253 2.21525638 6.25176462
v 38.07413075 1.48221048 -0.36664050
v 37.29940583 6.83517274 -0.36664050
v 37.31448886 6.83517274 0.19337135
v 37.54507486 5.66827254 1.35882422
v 37.83600324 4.11362909 3.08527956
v 38.16464174 1.48221048 6.25176462
v 37.63127605 5.66827254 6.25176462
v 37.36297735 6.83517274 3.64529141
v 37.85863034 4.25824804 4.81173489
v 37.87694764 4.37928659 6.25176462
v 38.14524634 1.48221048 4.81173489
v 38.08382844 1.48221048 0.28818700
v 37.34250386 6.83517274 1.91883607
v 37.58386565 5.66827254 3.08527956
v 37.61080256 5.66827254 4.81173489
v 37.83600324 4.61298079 6.25176462
f 1 2 5
f 1 5 10
f 1 10 20
f 1 20 27
f 1 27 36
f 1 36 50
f 1 50 61
f 1 61 66
f 1 66 56
f 1 56 55
f 1 55 44
f 1 44 33
f 1 33 30
f 1 30 23
f 1 23 15
f 1 15 7
f 1 7 6
f 1 6 3
f 1 3 4
f 1 4 2
f 2 4 5
f 3 6 4
f 4 6 7
f 4 7 8
f 4 8 9
f 4 9 5
f 5 9 11
f 5 11 12
f 5 12 13
f 5 13 14
f 5 14 10
f 7 15 16
f 7 16 17
f 7 17 18
f 7 18 19
f 7 19 8
f 8 19 18
f 8 18 17
f 8 17 16
f 8 16 25
f 8 25 32
f 8 32 43
f 8 43 42
f 8 42 54
f 8 54 65
f 8 65 64
f 8 64 59
f 8 59 48
f 8 48 47
f 8 47 46
f 8 46 38
f 8 38 37
f 8 37 28
f 8 28 21
f 8 21 14
f 8 14 13
f 8 13 11
f 8 11 9
f 10 14 20
f 11 13 12
f 14 21 22
f 14 22 20
f 15 23 16
f 16 23 24
f 16 24 25
f 20 22 26
f 20 26 27
f 21 28 29
f 21 29 26
f 21 26 22
f 23 30 24
f 24 31 32
f 24 32 25
f 24 30 33
f 24 33 31
f 26 29 27
f 27 29 34
f 27 34 35
f 27 35 48
f 27 48 59
f 27 59 53
f 27 53 52
f 27 52 63
f 27 63 69
f 27 69 60
f 27 60 49
f 27 49 36
f 28 37 29
f 29 37 38
f 29 38 34
f 31 39 40
f 31 40 41
f 31 41 42
f 31 42 43
f 31 43 32
f 31 33 44
f 31 44 45
f 31 45 39
f 34 38 46
f 34 46 47
f 34 47 35
f 35 47 48
f 36 49 50
f 39 51 40
f 39 45 51
f 40 51 41
f 41 52 53
f 41 53 54
f 41 54 42
f 41 51 52
f 44 55 45
f 45 55 56
f 45 56 57
f 45 57 52
f 45 52 58
f 45 58 51
f 49 60 61
f 49 61 50
f 51 58 52
f 52 57 62
f 52 62 63
f 53 59 64
f 53 64 65
f 53 65 54
f 56 66 67
f 56 67 57
f 57 67 63
f 57 63 62
f 60 68 66
f 60 66 61
f 60 69 68
f 63 67 69
f 66 68 69
f 66 69 67

