# https://github.com/mikedh/trimesh
v 22.93514103 -17.48526795 -1.06858507
v 23.19559975 -16.77475652 -1.06858507
v 25.88474655 -17.48526795 -1.06858507
v 21.96674003 -17.48526795 -0.93203510
v 17.16145973 -13.32594981 -0.84073419
v 23.25537864 -16.69032556 -1.06858507
v 25.88474655 -14.11731506 -1.06858507
v 25.88474655 -17.48526795 7.18583129
v 21.91891795 -17.48526795 -0.92072412
v 17.16145973 -15.20562119 -0.23878217
v 17.16145973 -11.59940008 -0.58460071
v 18.08801447 -11.59940008 -0.61691779
v 24.97954141 -14.96091319 -1.06858507
v 21.54060994 -17.48526795 -0.83022599
v 25.88474655 -13.32594981 -0.92637961
v 21.97357139 -17.48526795 7.18583129
v 25.88474655 -11.59725354 7.18583129
v 17.16145973 -15.71936442 1.00309958
v 20.51328559 -17.48526795 -0.45047451
v 19.77972637 -17.48526795 -0.14182063
v 17.16145973 -10.51753373 0.08764611
v 18.08801447 -10.49463711 0.05613695
v 25.88474655 -12.01153988 -0.21211543
v 17.16145973 -13.40966579 7.18583129
v 17.16145973 -15.14766400 4.42735713
v 19.81388573 -17.48526795 4.26818263
v 25.88474655 -11.61585709 1.35942116
v 19.69603772 -10.43095592 7.18583129
v 17.16145973 -15.86175321 1.35942116
v 19.29040299 -17.48526795 1.35942116
v 17.16145973 -10.30788630 1.35942116
v 18.08801447 -10.25422250 1.35942116
v 19.50560236 -10.56547353 0.19107107
v 17.16145973 -10.25279126 7.18583129
v 17.16145973 -15.78877024 3.08528728
v 19.56879692 -17.48526795 3.67350196
v 19.74983692 -10.48104225 1.35942116
v 19.02054891 -10.31790369 7.18583129
v 19.33310091 -17.48526795 3.08528728
v 17.44156085 -10.22417064 7.18583129
v 18.08801447 -10.17551522 7.18583129
f 1 2 6
f 1 6 13
f 1 13 7
f 1 7 3
f 1 3 8
f 1 8 16
f 1 16 26
f 1 26 36
f 1 36 39
f 1 39 30
f 1 30 20
f 1 20 19
f 1 19 14
f 1 14 9
f 1 9 4
f 1 4 5
f 1 5 2
f 2 5 6
f 3 7 15
f 3 15 23
f 3 23 27
f 3 27 17
f 3 17 8
f 4 9 5
f 5 10 18
f 5 18 29
f 5 29 35
f 5 35 25
f 5 25 24
f 5 24 34
f 5 34 31
f 5 31 21
f 5 21 11
f 5 11 12
f 5 12 7
f 5 7 13
f 5 13 6
f 5 9 14
f 5 14 10
f 7 12 15
f 8 17 28
f 8 28 38
f 8 38 41
f 8 41 40
f 8 40 34
f 8 34 24
f 8 24 16
f 10 14 19
f 10 19 20
f 10 20 18
f 11 21 22
f 11 22 12
f 12 22 23
f 12 23 15
f 16 24 25
f 16 25 26
f 17 27 28
f 18 20 29
f 20 30 29
f 21 31 32
f 21 32 22
f 22 32 33
f 22 33 23
f 23 33 27
f 25 35 26
f 26 35 36
f 27 33 37
f 27 37 28
f 28 37 38
f 29 30 39
f 29 39 35
f 31 34 40
f 31 40 41
f 31 41 32
f 32 41 37
f 32 37 33
f 35 39 36
f 37 41 38

