# https://github.com/mikedh/trimesh
v -26.12634617 4.97155634 54.76508099
v -26.03428879 4.97155634 58.34586542
v -26.09054522 5.20253215 54.76508099
v 26.12048888 4.97155634 54.76508099
v -25.98826268 4.97155634 59.61174955
v -26.01383331 5.09658049 58.34586542
v -26.07008974 5.33179534 54.76508099
v 25.98751539 5.65389067 54.76508099
v 25.90568833 4.97155634 60.11104207
v -25.79392276 5.96115255 58.34586542
v -24.19828729 4.97155634 94.08311128
v -23.74312071 5.66872411 99.78211079
v -24.20851760 6.50786705 86.71476455
v -25.85017918 6.18789061 54.76508099
v 25.98240538 5.67508074 54.76508099
v 25.69600809 5.53522316 61.79048068
v 24.11571294 4.97155634 95.84324483
v -25.32853101 7.39574808 60.07069589
v -25.39501260 7.39574808 58.34586542
v -25.52287093 7.39998583 54.76508099
v -24.03974832 4.97155634 96.99313095
v -23.65106848 5.66872411 101.50693740
v -22.99644682 7.39574808 104.96163888
v -23.08850420 7.39574808 103.23176916
v -24.23920340 6.60958096 85.55983531
v 25.80852094 6.35529491 54.76508099
v 25.31243826 7.39574808 60.07069589
v 25.69600809 5.85731848 60.07069589
v 25.57838007 5.66872411 63.52539738
v 24.05434136 6.21755620 91.14787606
v 23.74748858 5.66872411 99.78211079
v 23.89580239 4.97155634 99.78211079
v 25.14367412 5.66872411 72.15962825
v -24.18805698 8.16708175 77.33915892
v -24.76085157 9.12277205 60.07069589
v -24.82222316 9.12277205 58.34586542
v -24.92450570 9.12277205 54.76508099
v -23.82494777 4.97155634 100.88156064
v -22.92484492 7.39574808 106.28804422
v -22.65890825 8.19674863 106.28804422
v 25.56303975 7.23470041 54.76508099
v 24.18731484 6.71765279 85.96834796
v 24.15151389 6.60746208 87.27457570
v 24.12082810 6.50574689 88.42446182
v 24.71407817 9.12277205 60.07069589
v 24.18731484 8.40653437 75.60928662
v 24.15151389 8.31965390 76.93064627
v 24.12082810 8.23912878 78.08053239
v 24.05434136 8.01239201 80.78377418
v 23.08775692 7.39574808 103.23176916
v 22.95478858 7.39574808 104.96163888
v 22.85250089 7.39574808 106.28804422
v 22.76555867 6.49727137 106.28804422
v 22.72464771 6.18365156 106.28804422
v 23.52246287 4.97155634 101.48172184
v -22.56685088 8.46374796 106.28804422
v -24.33125563 10.24163017 60.07069589
v -24.35682626 10.29460600 58.34586542
v -24.38751205 10.35393975 54.76508099
v -23.46695373 4.97155634 102.53578369
v -22.83790785 5.96539031 106.28804422
v 24.90330294 9.12277205 54.76508099
v 24.85216167 9.24143956 54.76508099
v 24.33051349 10.44717815 54.76508099
v 24.20265517 10.14203514 61.79552508
v 24.15662905 10.04244011 63.52539738
v 24.06457167 9.82629645 66.97505446
v 22.56099358 8.64174922 104.96163888
v 22.52519264 8.55910651 106.28804422
v 24.23334096 8.51884396 73.88445743
v 22.43313526 6.06074758 106.28804422
v 22.88318668 4.97155634 102.99473261
v -22.48502381 8.66505818 106.28804422
v -22.34694032 9.63982096 101.50693740
v -22.39296644 9.75424942 99.78211079
v -22.43899770 9.86655901 98.05223591
v -22.46968349 9.94496396 96.86704801
v -22.50036928 10.01489211 95.71716188
v -23.93234547 11.10408336 60.07069589
v -23.95792126 11.15705919 58.34586542
v -23.33910055 12.57682256 54.76508099
v -22.86347849 4.97155634 104.10426869
v -22.64867794 4.97155634 104.39174151
v -21.89688890 5.51615196 106.28804422
v 23.94182850 11.30115453 54.76508099
v 23.83954596 11.08077311 60.07069589
v 23.80374501 11.00448833 61.79552508
v 22.46893621 10.12508282 94.59753443
v 22.37687883 9.92589277 98.05223591
v 22.33085272 9.82205869 99.78211079
v 22.23879534 9.61227296 103.23176916
v 22.24391050 9.22236836 106.28804422
v 21.53814885 5.77891353 106.28804422
v 21.53814885 4.97155634 103.78149409
v -22.21397198 9.32832002 106.28804422
v -21.50820906 10.84979730 106.28804422
v -22.39808159 11.52789259 84.23847566
v -22.47479865 11.68682137 81.41923716
v -23.19078674 12.57682256 60.07069589
v -23.25727348 12.57682256 58.34586542
v -22.71004952 13.78891907 54.76508099
v -22.00940175 4.97155634 104.79520590
v -21.62583578 5.38689006 106.28804422
v 23.33323811 12.56622688 54.76508099
v 23.12866788 12.57682256 60.07069589
v 23.04173080 12.57682256 61.79552508
v 22.40756462 11.72496505 81.76722989
v 22.37687883 11.65927466 82.91711601
v 22.29505177 11.48551244 85.96834796
v 22.24902565 11.38591741 87.69317457
v 21.75294811 10.84979730 101.50693740
v 21.49212145 10.84979730 106.28804422
v 22.01376963 9.73517823 106.28804422
v 22.15696827 9.42367858 106.28804422
v 21.13923999 5.76196250 106.28804422
v 19.80954376 5.71110426 106.28804422
v 19.41063490 5.70474634 106.28804422
v 19.80954376 4.97155634 103.86218902
v -21.06327279 11.70165481 106.28804422
v -22.54128024 11.80972664 79.06398810
v -20.95587380 12.04070245 104.96163888
v -22.60776698 13.63422676 60.07069589
v -22.65379310 13.69779827 58.34586542
v -22.66913857 13.85037042 54.76508099
v -21.62583578 4.97155634 104.86581976
v -20.35751114 5.32755759 106.28804422
v 22.64793580 13.81646578 54.76508099
v 22.55587843 13.68084724 60.07069589
v 22.42291009 13.46894134 64.71562968
v 20.87330074 12.04917925 106.28804422
v 7.32574218 5.56700891 106.28804422
v 3.86853168 5.52886652 106.28804422
v -3.02031771 5.45681821 106.28804422
v -19.89723198 5.31907950 106.28804422
v -18.72096215 4.97155634 104.89103532
v -20.91496027 11.97713094 106.28804422
v -20.38819565 12.84170429 106.28804422
v -20.76153388 13.43715687 93.71494868
v -22.04008754 14.49879882 60.07069589
v -22.06565818 14.56237034 58.34586542
v -22.11679945 14.65137097 54.76508099
v -20.42911047 4.97155634 104.91625088
v 22.02911510 14.67891768 54.76508099
v 21.97797382 14.54541931 60.07069589
v 21.93705772 14.46701435 61.79552508
v 20.70453146 13.47953702 94.20415626
v 20.66873180 13.43079894 95.35908550
v 20.34653612 12.91375132 106.28804422
v -19.89723198 4.97155634 104.92129399
v -19.72334754 13.81858595 106.28804422
v -19.52389375 14.11101439 106.28804422
v -20.70527745 15.08789605 75.60928662
v -20.74107712 15.13875172 74.43418493
v -20.77687678 15.18748979 73.27925570
v -20.81267644 15.23199011 72.15962825
v -20.91496027 15.37184641 68.70492676
v -21.06838666 15.57951455 63.52539738
v -21.17578564 15.71089534 60.07069589
v -21.24738497 15.81684700 54.76508099
v 21.96262835 14.76791832 54.76508099
v 21.11366935 15.73420429 60.07069589
v 21.07786969 15.69182414 61.79552508
v 20.76590304 15.28284835 72.15962825
v 20.68407469 15.17477652 74.85782692
v 20.64827503 15.12603844 76.01275616
v 19.48223422 14.16610782 106.28804422
v -19.37558123 14.31232204 106.28804422
v -18.88461628 14.97558646 106.28804422
v -19.01758590 15.14510964 102.10709859
v -20.45468110 16.50977572 61.79552508
v -21.18601338 15.89737212 54.76508099
v -20.51093753 16.57122965 60.07069589
v 21.15969675 15.79989597 54.76508099
v 20.53576217 16.60089652 54.76508099
v 20.43859221 16.59453860 60.07069589
v 20.40279255 16.55427604 61.79552508
v 18.92478510 15.13451396 103.69575604
v 18.84295675 15.03067989 106.28804422
v -17.98962858 16.00544395 106.28804422
v -18.91530207 16.75558626 82.51364648
v -19.01247203 16.86577569 79.59858370
v -19.64663435 17.59049145 60.07069589
v -20.58253686 16.66870579 54.76508099
v -19.67220627 17.63287160 58.34586542
v 20.44882124 16.71108595 54.76508099
v 19.53337678 17.85537319 54.76508099
v 18.93501284 18.59915758 54.76508099
v 19.57429031 17.64134969 60.07069589
v 18.83784288 18.50380159 60.07069589
v 19.48734809 17.49725306 63.52539738
v 19.26743754 17.24932493 70.42975595
v 19.04752569 16.99927664 77.33915892
v 18.99126927 16.93782529 79.06398810
v 18.91966994 16.85730017 81.21750239
v 17.86102812 16.15377576 106.28804422
v -17.77483190 16.24489656 106.28804422
v -17.27875307 16.86365809 105.43571713
v -17.31966660 16.90392065 104.28078790
v -18.86927338 18.45294335 60.07069589
v -18.91018820 18.49744367 58.34586542
v -19.58015018 17.86596629 54.76508099
v 18.87364254 18.53346847 58.34586542
v 18.24459409 19.23275512 54.76508099
v 18.00933935 19.33446903 58.34586542
v 17.97865485 19.30691974 60.07069589
v 17.16038035 18.56101518 82.51364648
v 17.22686452 16.89544256 105.89970916
v 17.57463211 16.47587109 106.28804422
v -17.24806728 16.83187105 106.28804422
v -17.29920984 18.60975326 79.79527535
v -16.66504623 17.38494347 106.28804422
v -17.34012337 18.64789565 78.64538923
v -17.93337215 19.20520583 61.79552508
v -18.00497148 19.24758856 60.07069589
v -18.94087270 18.52499296 55.20385231
v -18.28113846 19.16494327 54.76508099
v -18.33228102 19.11620520 54.76508099
v -19.52900762 17.91894470 54.76508099
v 17.15015132 20.19904109 54.76508099
v 17.04275362 20.19692093 58.34586542
v 17.01206783 20.17149181 60.07069589
v 17.20129388 18.59915758 81.37888969
v 17.03252460 18.44234767 85.96834796
v 16.48530321 17.55658682 106.28804422
v 16.63872960 17.41461035 106.28804422
v 15.49314556 18.61611118 104.05888068
v 17.21152162 16.88272929 106.28804422
v -16.97701416 20.06766031 61.79552508
v -16.42467891 17.60956265 106.28804422
v -15.59617538 18.62882446 102.54587506
v -17.02304157 20.11004046 60.07069589
v -17.09975476 20.17361197 54.76508099
v 17.03763847 20.28592156 54.76508099
v 16.17845044 20.89196982 58.34586542
v 16.14776464 20.85806518 60.07069589
v 15.49825943 20.34525532 76.49187495
v 15.61588615 18.35122945 106.28804422
v 14.54190144 19.20308824 106.28804422
v 15.40620334 18.54194399 106.28804422
v -15.60128925 20.35796859 74.98390986
v -15.84677173 20.55080330 68.70492676
v -16.04622681 20.70973079 63.52539738
v -16.11271098 20.76058903 61.79552508
v -16.16385353 20.80932711 60.07069589
v -16.16896740 17.84477751 106.28804422
v -15.44786287 18.50592176 106.28804422
v -14.78301475 19.01872905 106.28804422
v -15.50411929 20.28592156 77.33915892
v -16.23545286 20.88984965 54.76508099
v 16.23982073 20.89196982 54.76508099
v 15.04309413 21.75654188 58.34586542
v 14.98683771 21.72263468 60.07069589
v 13.81568303 20.37703979 96.00463470
v 13.76454047 20.34313515 97.15452082
v 13.40654514 20.10792029 104.96163888
v 13.34517484 20.06766031 106.28804422
v -15.02338336 21.67389660 60.07069589
v -15.16658073 21.74594620 54.76508099
v -14.58356097 19.17130120 106.28804422
v -13.86757030 20.35584842 95.65160143
v 15.16583602 21.69085021 54.76508099
v 15.00729447 21.80527996 54.76508099
v 14.20436287 22.38377893 54.76508099
v 14.17879223 22.34351894 58.34586542
v 14.12253581 22.29901605 60.07069589
v 12.48087165 20.61437481 106.28804422
v -14.15908018 22.27358951 60.07069589
v -14.20510886 22.31173190 58.34586542
v -14.37899202 22.32020742 54.76508099
v -14.30739269 19.37261142 106.28804422
v -13.81642774 20.32194636 96.80148241
v 12.90535244 23.19537516 54.76508099
v 12.90535244 23.10637453 58.34586542
v 12.90535244 23.01737647 60.07069589
v 12.05127828 22.07651704 85.18662702
v 11.17674735 21.33485025 106.28804422
v -13.44820466 20.07613582 104.96163888
v -12.72198626 20.46180266 106.28804422
v -12.52253118 20.58894569 106.28804422
v -12.10316555 22.05956601 84.88402486
v -12.99303937 22.95380238 60.07069589
v -12.99303937 23.01101855 58.34586542
v -14.18465210 22.44099509 54.76508099
v -14.31250656 22.36682790 54.76508099
v -13.38683437 20.03587327 106.28804422
v 11.98479283 23.71454295 54.76508099
v 11.81602354 23.69758935 58.34586542
v 11.72396745 23.65097144 60.07069589
v 10.33290093 22.07863721 100.79077948
v 10.26130225 22.04897033 101.94571387
v 9.99024849 21.93030282 106.28804422
v -12.21567840 20.76058903 106.28804422
v -11.26443428 21.29034993 106.28804422
v -12.04690912 22.02777897 85.96834796
v -10.38990335 22.06592136 100.55374293
v -11.75028537 23.61282905 60.07069589
v -12.98281034 23.12332814 54.76508099
v 11.86716610 23.77387414 54.76508099
v 11.06934837 24.15106546 54.76508099
v 10.95683551 24.08749394 58.34586542
v 10.86477942 24.04511379 60.07069589
v 9.45325613 24.75287596 58.34586542
v 9.79079406 22.01506570 106.28804422
v -10.99849504 21.42596847 106.28804422
v -10.22624858 21.99387433 103.23176916
v -10.42058850 23.80778134 68.01398698
v -10.88598218 24.02816019 60.07069589
v -11.88836886 23.68063832 54.76508099
v -11.03429470 24.10868531 54.76508099
v 9.44302775 24.84399418 54.76508099
v 7.72465105 25.32078182 58.34586542
v 7.72465105 25.24025670 60.07069589
v 7.72465105 22.81818384 106.28804422
v 9.12594595 22.29689846 106.28804422
v -10.03190802 21.90911146 106.28804422
v -10.11884960 21.94513626 104.96163888
v -9.17271999 22.28206502 106.28804422
v -10.34898982 23.77599430 69.16891621
v -9.53582919 24.60242397 60.07069589
v -10.89621121 24.17225682 54.76508099
v -9.53582919 24.66811308 58.34586542
v -9.53071468 24.79525611 54.76508099
v 7.82693552 25.36316197 54.76508099
v 6.10855882 25.79544672 54.76508099
v 6.75294952 25.49878051 60.07069589
v 6.80920595 23.78446982 93.48295524
v 6.91149042 23.81413669 92.33306911
v 6.40006870 23.21656395 106.28804422
v -8.83518142 22.40920805 106.28804422
v -8.66641214 23.79506550 81.60584259
v -7.03497765 25.55387651 59.45540536
v -7.93507922 25.27416134 58.34586542
v -8.06804884 25.33985301 54.76508099
v 5.99604596 25.82087584 54.76508099
v 5.88864697 25.69373281 60.07069589
v 5.71476382 25.65982817 61.79552508
v 6.57395249 25.45640036 61.79552508
v 5.19822791 23.81413669 100.95216936
v 5.31585495 23.84380357 99.78211079
v 6.69669373 23.75692310 94.59753443
v 5.99604596 23.33523146 106.28804422
v -7.81233798 22.79063713 106.28804422
v -6.08373289 23.31404268 106.28804422
v -6.08373289 25.86113840 58.34586542
v -7.07077667 25.56658978 58.34586542
v -7.21397468 25.59625666 54.76508099
v 4.39529598 26.14720892 54.76508099
v 4.27255474 26.07728206 58.34586542
v 4.27255474 26.02430622 60.07069589
v 5.20845661 25.54328083 66.47576323
v 5.06014409 23.78446982 102.10205548
v 6.18015750 23.62342215 99.78211079
v 6.35404065 23.66792247 98.05223591
v 4.90160351 23.75692310 103.23176916
v 4.47200950 23.67851815 106.28804422
v -5.76153722 23.38820987 106.28804422
v -5.11203200 23.77811447 101.97092943
v -5.25523001 23.80778134 100.82104330
v -6.08373289 25.92258974 54.76508099
v -4.35512812 26.27435195 58.34586542
v 4.27255474 26.16840028 54.76508099
v 2.54394981 26.37818602 58.34586542
v 3.60770663 23.83320789 106.28804422
v 5.07037280 25.51361395 67.62564935
v 4.27255474 23.71454295 106.28804422
v -4.93814853 23.74632742 103.23176916
v -4.40115585 23.69123400 106.28804422
v -4.70289475 23.70182711 104.96163888
v -4.35512812 26.30190123 54.76508099
v -3.70562259 23.81837445 106.28804422
v -3.65448035 23.82685254 106.28804422
v -3.58288135 23.83744822 106.28804422
v -2.63163707 26.50744664 58.34586542
v 2.66669089 26.38030618 54.76508099
v 2.54394981 23.95823332 106.28804422
v 0.82045892 26.57313832 58.34586542
v -2.63163707 26.49685353 54.76508099
v -2.74414976 23.93704196 106.28804422
v -0.90303198 24.07478067 106.28804422
v -0.90303198 26.61763863 58.34586542
v -2.50889599 26.50744664 54.76508099
v 2.54394981 26.39301946 54.76508099
v 1.21936778 24.05147172 106.28804422
v 0.82045892 26.56678039 54.76508099
v 0.82045892 24.07901843 106.28804422
v -0.50412311 24.07689826 106.28804422
v -0.90303198 26.60916312 54.76508099
f 1 2 3
f 1 3 7
f 1 7 14
f 1 14 20
f 1 20 37
f 1 37 59
f 1 59 81
f 1 81 101
f 1 101 124
f 1 124 141
f 1 141 159
f 1 159 171
f 1 171 183
f 1 183 201
f 1 201 218
f 1 218 217
f 1 217 216
f 1 216 232
f 1 232 249
f 1 249 258
f 1 258 269
f 1 269 284
f 1 284 283
f 1 283 297
f 1 297 308
f 1 308 309
f 1 309 320
f 1 320 322
f 1 322 333
f 1 333 346
f 1 346 359
f 1 359 369
f 1 369 377
f 1 377 381
f 1 381 387
f 1 387 384
f 1 384 382
f 1 382 374
f 1 374 361
f 1 361 347
f 1 347 334
f 1 334 324
f 1 324 323
f 1 323 310
f 1 310 299
f 1 299 298
f 1 298 286
f 1 286 272
f 1 272 263
f 1 263 262
f 1 262 261
f 1 261 250
f 1 250 233
f 1 233 219
f 1 219 203
f 1 203 187
f 1 187 186
f 1 186 185
f 1 185 174
f 1 174 173
f 1 173 160
f 1 160 143
f 1 143 127
f 1 127 104
f 1 104 85
f 1 85 64
f 1 64 63
f 1 63 62
f 1 62 41
f 1 41 26
f 1 26 15
f 1 15 8
f 1 8 4
f 1 4 9
f 1 9 17
f 1 17 32
f 1 32 55
f 1 55 72
f 1 72 94
f 1 94 118
f 1 118 135
f 1 135 149
f 1 149 142
f 1 142 125
f 1 125 102
f 1 102 83
f 1 83 82
f 1 82 60
f 1 60 38
f 1 38 21
f 1 21 11
f 1 11 5
f 1 5 2
f 2 5 6
f 2 6 7
f 2 7 3
f 4 8 9
f 5 10 6
f 5 11 12
f 5 12 13
f 5 13 10
f 6 10 7
f 7 10 14
f 8 15 16
f 8 16 9
f 9 16 17
f 10 13 18
f 10 18 19
f 10 19 20
f 10 20 14
f 11 21 22
f 11 22 12
f 12 22 23
f 12 23 24
f 12 24 13
f 13 25 18
f 13 24 25
f 15 26 27
f 15 27 28
f 15 28 16
f 16 28 27
f 16 27 29
f 16 29 17
f 17 30 31
f 17 31 32
f 17 29 33
f 17 33 30
f 18 25 24
f 18 24 34
f 18 34 35
f 18 35 19
f 19 35 20
f 20 35 36
f 20 36 37
f 21 38 22
f 22 38 39
f 22 39 23
f 23 39 40
f 23 40 24
f 24 40 34
f 26 41 27
f 27 42 43
f 27 43 44
f 27 44 29
f 27 41 45
f 27 45 46
f 27 46 47
f 27 47 48
f 27 48 49
f 27 49 42
f 29 44 30
f 29 30 33
f 30 44 31
f 31 44 50
f 31 50 51
f 31 51 52
f 31 52 32
f 32 52 53
f 32 53 54
f 32 54 55
f 34 40 56
f 34 56 35
f 35 57 36
f 35 56 57
f 36 57 37
f 37 57 58
f 37 58 59
f 38 60 61
f 38 61 39
f 39 61 84
f 39 84 103
f 39 103 126
f 39 126 134
f 39 134 133
f 39 133 132
f 39 132 131
f 39 131 117
f 39 117 116
f 39 116 115
f 39 115 93
f 39 93 71
f 39 71 54
f 39 54 53
f 39 53 52
f 39 52 69
f 39 69 92
f 39 92 114
f 39 114 113
f 39 113 112
f 39 112 130
f 39 130 148
f 39 148 166
f 39 166 178
f 39 178 195
f 39 195 208
f 39 208 227
f 39 227 225
f 39 225 224
f 39 224 237
f 39 237 239
f 39 239 238
f 39 238 256
f 39 256 266
f 39 266 276
f 39 276 291
f 39 291 303
f 39 303 314
f 39 314 313
f 39 313 328
f 39 328 341
f 39 341 355
f 39 355 365
f 39 365 363
f 39 363 375
f 39 375 383
f 39 383 385
f 39 385 386
f 39 386 379
f 39 379 378
f 39 378 372
f 39 372 371
f 39 371 370
f 39 370 367
f 39 367 356
f 39 356 343
f 39 343 342
f 39 342 329
f 39 329 317
f 39 317 315
f 39 315 304
f 39 304 293
f 39 293 292
f 39 292 279
f 39 279 278
f 39 278 285
f 39 285 270
f 39 270 259
f 39 259 247
f 39 247 246
f 39 246 245
f 39 245 229
f 39 229 211
f 39 211 209
f 39 209 196
f 39 196 179
f 39 179 168
f 39 168 167
f 39 167 151
f 39 151 150
f 39 150 137
f 39 137 136
f 39 136 119
f 39 119 96
f 39 96 95
f 39 95 73
f 39 73 56
f 39 56 40
f 41 62 45
f 42 49 50
f 42 50 43
f 43 50 44
f 45 62 63
f 45 63 64
f 45 64 65
f 45 65 66
f 45 66 67
f 45 67 68
f 45 68 69
f 45 69 70
f 45 70 46
f 46 70 69
f 46 69 47
f 47 69 48
f 48 69 50
f 48 50 49
f 50 69 51
f 51 69 52
f 54 71 72
f 54 72 55
f 56 73 74
f 56 74 57
f 57 74 75
f 57 75 76
f 57 76 77
f 57 77 78
f 57 78 79
f 57 79 80
f 57 80 58
f 58 80 59
f 59 80 81
f 60 82 61
f 61 82 83
f 61 83 84
f 64 85 65
f 65 85 86
f 65 86 87
f 65 87 88
f 65 88 66
f 66 88 89
f 66 89 90
f 66 90 91
f 66 91 92
f 66 92 68
f 66 68 67
f 68 92 69
f 71 93 72
f 72 93 94
f 73 95 74
f 74 95 96
f 74 96 75
f 75 96 76
f 76 96 77
f 77 96 78
f 78 96 97
f 78 97 79
f 79 97 98
f 79 98 99
f 79 99 100
f 79 100 80
f 80 100 81
f 81 100 101
f 83 102 103
f 83 103 84
f 85 104 105
f 85 105 86
f 86 105 87
f 87 105 106
f 87 106 107
f 87 107 88
f 88 107 108
f 88 108 109
f 88 109 89
f 89 109 110
f 89 110 111
f 89 111 112
f 89 112 90
f 90 112 113
f 90 113 91
f 91 113 114
f 91 114 92
f 93 115 94
f 94 115 116
f 94 116 117
f 94 117 118
f 96 119 98
f 96 98 97
f 98 120 99
f 98 119 121
f 98 121 120
f 99 120 121
f 99 121 122
f 99 122 123
f 99 123 100
f 100 123 101
f 101 123 124
f 102 125 103
f 103 125 126
f 104 127 128
f 104 128 105
f 105 128 106
f 106 128 129
f 106 129 107
f 107 129 130
f 107 130 112
f 107 112 108
f 108 112 109
f 109 112 110
f 110 112 111
f 117 131 118
f 118 131 132
f 118 132 133
f 118 133 134
f 118 134 135
f 119 136 121
f 121 136 137
f 121 137 138
f 121 138 122
f 122 138 139
f 122 139 123
f 123 139 140
f 123 140 124
f 124 140 141
f 125 142 134
f 125 134 126
f 127 143 144
f 127 144 128
f 128 144 145
f 128 145 146
f 128 146 129
f 129 146 147
f 129 147 130
f 130 147 148
f 134 142 149
f 134 149 135
f 137 150 138
f 138 150 151
f 138 151 152
f 138 152 153
f 138 153 154
f 138 154 139
f 139 154 155
f 139 155 156
f 139 156 157
f 139 157 158
f 139 158 140
f 140 158 141
f 141 158 159
f 143 160 161
f 143 161 144
f 144 161 162
f 144 162 145
f 145 162 163
f 145 163 164
f 145 164 146
f 146 164 165
f 146 165 147
f 147 165 166
f 147 166 148
f 151 167 154
f 151 154 153
f 151 153 152
f 154 167 168
f 154 168 169
f 154 169 155
f 155 169 170
f 155 170 156
f 156 170 157
f 157 170 158
f 158 171 159
f 158 170 172
f 158 172 171
f 160 173 161
f 161 173 174
f 161 174 175
f 161 175 176
f 161 176 162
f 162 176 163
f 163 176 164
f 164 176 177
f 164 177 178
f 164 178 166
f 164 166 165
f 168 179 169
f 169 179 180
f 169 180 181
f 169 181 170
f 170 181 182
f 170 182 172
f 171 172 183
f 172 182 184
f 172 184 183
f 174 185 175
f 175 185 186
f 175 186 187
f 175 187 188
f 175 188 176
f 176 188 189
f 176 189 190
f 176 190 191
f 176 191 192
f 176 192 193
f 176 193 177
f 177 193 194
f 177 194 178
f 178 194 195
f 179 196 197
f 179 197 180
f 180 197 181
f 181 197 198
f 181 198 199
f 181 199 182
f 182 199 200
f 182 200 184
f 183 184 201
f 184 200 201
f 187 202 188
f 187 203 204
f 187 204 205
f 187 205 202
f 188 202 189
f 189 193 192
f 189 192 191
f 189 191 190
f 189 202 205
f 189 205 206
f 189 206 207
f 189 207 193
f 193 207 194
f 194 207 208
f 194 208 195
f 196 209 197
f 197 210 198
f 197 209 211
f 197 211 210
f 198 210 199
f 199 210 212
f 199 212 213
f 199 213 214
f 199 214 200
f 200 215 201
f 200 214 216
f 200 216 217
f 200 217 215
f 201 215 218
f 203 219 220
f 203 220 204
f 204 220 221
f 204 221 205
f 205 222 206
f 205 221 222
f 206 223 224
f 206 224 225
f 206 225 207
f 206 222 221
f 206 221 226
f 206 226 223
f 207 227 208
f 207 225 227
f 210 228 212
f 210 211 229
f 210 229 230
f 210 230 228
f 212 228 213
f 213 228 214
f 214 228 231
f 214 231 216
f 215 217 218
f 216 231 232
f 219 233 234
f 219 234 220
f 220 234 221
f 221 234 235
f 221 235 236
f 221 236 226
f 223 226 224
f 224 226 237
f 226 236 238
f 226 238 239
f 226 239 237
f 228 230 240
f 228 240 241
f 228 241 242
f 228 242 243
f 228 243 244
f 228 244 231
f 229 245 230
f 230 245 246
f 230 246 247
f 230 247 248
f 230 248 240
f 231 244 249
f 231 249 232
f 233 250 251
f 233 251 234
f 234 251 235
f 235 251 252
f 235 252 236
f 236 252 253
f 236 253 238
f 238 253 254
f 238 254 255
f 238 255 256
f 240 248 257
f 240 257 241
f 241 257 242
f 242 257 243
f 243 257 244
f 244 257 258
f 244 258 249
f 247 259 248
f 248 259 260
f 248 260 257
f 250 261 251
f 251 261 262
f 251 262 263
f 251 263 264
f 251 264 252
f 252 264 265
f 252 265 254
f 252 254 253
f 254 265 266
f 254 266 255
f 255 266 256
f 257 260 267
f 257 267 268
f 257 268 269
f 257 269 258
f 259 270 271
f 259 271 260
f 260 271 267
f 263 272 264
f 264 272 273
f 264 273 265
f 265 273 274
f 265 274 266
f 266 274 275
f 266 275 276
f 267 271 277
f 267 277 278
f 267 278 279
f 267 279 280
f 267 280 281
f 267 281 268
f 268 281 282
f 268 282 283
f 268 283 284
f 268 284 269
f 270 285 277
f 270 277 271
f 272 286 273
f 273 286 287
f 273 287 274
f 274 287 288
f 274 288 275
f 275 288 289
f 275 289 276
f 276 289 290
f 276 290 291
f 277 285 278
f 279 292 280
f 280 292 293
f 280 293 294
f 280 294 295
f 280 295 296
f 280 296 281
f 281 296 282
f 282 296 297
f 282 297 283
f 286 298 287
f 287 298 299
f 287 299 300
f 287 300 301
f 287 301 288
f 288 301 290
f 288 290 289
f 290 301 302
f 290 302 291
f 291 302 303
f 293 304 295
f 293 295 294
f 295 304 305
f 295 305 306
f 295 306 307
f 295 307 296
f 296 308 297
f 296 307 309
f 296 309 308
f 299 310 302
f 299 302 300
f 300 302 301
f 302 310 311
f 302 311 312
f 302 312 313
f 302 313 314
f 302 314 303
f 304 315 316
f 304 316 305
f 305 316 317
f 305 317 306
f 306 317 318
f 306 318 319
f 306 319 307
f 307 320 309
f 307 319 321
f 307 321 322
f 307 322 320
f 310 323 311
f 311 323 324
f 311 324 325
f 311 325 312
f 312 325 326
f 312 326 327
f 312 327 313
f 313 327 326
f 313 326 328
f 315 317 316
f 317 329 330
f 317 330 319
f 317 319 318
f 319 330 331
f 319 331 332
f 319 332 321
f 321 332 322
f 322 332 333
f 324 334 325
f 325 334 335
f 325 335 336
f 325 336 337
f 325 337 338
f 325 338 339
f 325 339 340
f 325 340 326
f 326 340 341
f 326 341 328
f 329 342 330
f 330 342 331
f 331 343 344
f 331 344 345
f 331 345 333
f 331 333 332
f 331 342 343
f 333 345 346
f 334 347 348
f 334 348 335
f 335 348 349
f 335 349 336
f 336 349 350
f 336 350 338
f 336 338 337
f 338 350 364
f 338 364 351
f 338 351 341
f 338 341 352
f 338 352 353
f 338 353 340
f 338 340 339
f 340 353 341
f 341 353 352
f 341 351 354
f 341 354 355
f 343 356 357
f 343 357 358
f 343 358 344
f 344 359 346
f 344 346 345
f 344 358 360
f 344 360 359
f 347 361 362
f 347 362 348
f 348 362 349
f 349 362 363
f 349 363 364
f 349 364 350
f 351 364 354
f 354 364 363
f 354 363 365
f 354 365 355
f 356 366 357
f 356 367 368
f 356 368 366
f 357 366 360
f 357 360 358
f 359 360 369
f 360 368 367
f 360 367 370
f 360 370 371
f 360 371 372
f 360 372 373
f 360 373 369
f 360 366 368
f 361 374 362
f 362 375 363
f 362 374 376
f 362 376 375
f 369 373 377
f 372 378 373
f 373 378 379
f 373 379 380
f 373 380 381
f 373 381 377
f 374 382 376
f 375 376 383
f 376 384 380
f 376 380 385
f 376 385 383
f 376 382 384
f 379 386 380
f 380 386 385
f 380 384 387
f 380 387 381

