# https://github.com/mikedh/trimesh
v 6.00118299 -56.27154583 -7.27604347
v 7.72852601 -56.22403251 -7.27604347
v 9.45460182 -56.15658861 -5.54780503
v 7.72852601 -56.20104004 -5.54780503
v 6.00118299 -56.21789844 -5.54780503
v 4.05839745 -56.22249899 -5.54780503
v 9.45460182 -56.16731809 -20.97148357
v 9.45460182 -56.15812213 -7.27604347
v 10.97157117 -55.87762733 -5.54780503
v 10.87398825 -55.83470942 -3.82170220
v 9.45460182 -56.08301578 -3.82170220
v 7.72852601 -56.12440017 -3.82170220
v 4.05839745 -56.12133829 -3.82170220
v 4.05839745 -56.15658861 -7.28460132
v 4.27510717 -56.18877704 -7.27604347
v 7.72852601 -55.96192963 -20.97148357
v 10.99818517 -55.87149326 -20.97148357
v 10.99438354 -55.87302678 -19.36088344
v 10.98931341 -55.87456029 -15.90654217
v 10.97664130 -55.87762733 -9.00214115
v 11.83714415 -55.54808569 -7.27604347
v 11.83460972 -55.54501866 -5.54780503
v 11.73702680 -55.51129671 -3.82170220
v 11.80292689 -55.58333602 -20.97148357
v 11.86122243 -55.56187706 -20.97148357
v 11.85868801 -55.56034354 -19.36088344
v 11.85235196 -55.55728166 -15.90654217
v 10.62306126 -55.73661060 -2.69877614
v 9.34688057 -55.80252098 -2.11271508
v 7.72852601 -55.90981576 -2.09560452
v 6.00118299 -55.91747821 -2.09560452
v 4.05839745 -55.91747821 -2.09560452
v 4.05839745 -55.80558802 -8.71980922
v 6.82873643 -55.66610481 -20.97148357
v 11.84094578 -55.54961407 -9.00214115
v 12.90675345 -54.93344356 -5.54780503
v 12.90675345 -54.83228286 -3.82170220
v 13.86103759 -53.98160250 -2.73299726
v 12.90928787 -54.32800254 -2.13196639
v 11.93219265 -55.52049267 -20.97148357
v 12.90675345 -54.94877360 -17.63264500
v 12.90675345 -54.94264467 -12.45434166
v 11.19208382 -55.19554644 -2.11271508
v 9.85126959 -55.42852792 -1.54804607
v 8.69928517 -55.65997588 -1.18656816
v 7.72852601 -55.68756376 -1.09031677
v 6.00118299 -55.70289379 -1.00689958
v 4.27510717 -55.70748920 -0.98551267
v 4.05839745 -55.70748920 -0.98337192
v 4.05839745 -54.76637247 -9.46414681
v 6.18240824 -53.03895226 -20.97148357
v 6.46755312 -54.76637247 -20.97148357
v 6.80339029 -55.60479497 -20.97148357
v 14.03972842 -54.15480252 -7.27604347
v 14.03719271 -54.15326900 -5.54780503
v 13.97129262 -54.08735862 -3.82170220
v 14.95979531 -52.90713149 -3.72759156
v 15.48446034 -52.14994940 -3.09019882
v 14.33627884 -53.08646558 -2.13196639
v 13.48591368 -53.69190660 -1.58226719
v 12.33519648 -54.05823722 -1.12240228
v 12.90675345 -54.95184063 -20.97148357
v 14.05240181 -54.15633604 -17.63264500
v 14.04479726 -54.15480252 -10.72610323
v 7.35213490 -54.31727306 0.87747978
v 6.06328145 -54.83994530 0.87747978
v 4.27510717 -55.08978518 0.87747978
v 4.27510717 -55.43159496 -0.12139088
v 4.05839745 -55.43312333 -0.11925527
v 4.05839745 -53.03895226 -9.94540377
v 6.65638229 -40.61591503 -20.97148357
v 4.05839745 -44.62715221 -9.56895605
v 4.05839745 -42.78170774 -9.47912176
v 4.05839745 -40.95312168 -9.38928747
v 14.90276569 -53.14011297 -7.27604347
v 14.90023126 -53.13857945 -5.54780503
v 15.53768833 -52.24191415 -4.24092889
v 15.83930759 -51.46940203 -3.72759156
v 15.70877462 -50.92987139 -2.09560452
v 15.27408796 -51.79281474 -2.09560452
v 14.06000508 -52.54080601 -1.05395490
v 14.05493624 -54.15633604 -20.97148357
v 14.85967795 -53.20909039 -20.97148357
v 14.91417187 -53.14011297 -15.90654217
v 14.91037024 -53.14011297 -12.45434166
v 14.90783453 -53.14011297 -10.72610323
v 7.47886624 -54.09962161 0.87747978
v 14.63536368 -51.19350521 -0.94273370
v 4.05839745 -55.09131870 0.87747978
v 16.95960917 -40.61591503 -20.97148357
v 4.05839745 -40.61591503 -9.31228739
v 15.55669777 -52.27563610 -5.54780503
v 15.98378117 -51.31306042 -5.54780503
v 16.38044894 -49.58563763 -3.82170220
v 16.06235465 -49.58563763 -2.09560452
v 15.53388541 -50.53901735 -1.19726161
v 14.91797350 -53.14011297 -20.97148357
v 14.21334913 -42.37245921 0.87747978
v 14.86347959 -40.95312168 0.87747978
v 4.05839745 -40.61591503 0.87747978
v 16.50971470 -47.86128188 -20.97148357
v 16.99889656 -40.61591503 -7.27604347
v 15.55669777 -52.27716962 -9.00214115
v 16.40833014 -49.58563763 -5.54780503
v 15.55669777 -52.27716962 -20.97148357
v 15.98251396 -51.31306042 -7.27604347
v 16.52618973 -47.86128188 -3.82170220
v 16.26385657 -47.86128188 -2.09560452
v 15.63400405 -49.58563763 -1.10101022
v 14.99274535 -40.61591503 0.87747978
v 16.50211144 -47.97777004 -20.97148357
v 17.00269819 -40.61591503 -5.88789089
v 17.00523261 -40.61591503 -4.15965245
v 16.40706165 -49.58563763 -7.27604347
v 15.93182039 -51.37743728 -20.97148357
v 15.96223602 -51.31306042 -19.36088344
v 15.96984057 -51.31306042 -15.90654217
v 16.64151489 -46.13385652 -3.82170220
v 16.79105731 -40.61591503 -2.09560452
v 15.74806071 -47.86128188 -0.99834173
v 16.07249234 -40.61591503 -0.59836634
v 16.39819117 -49.58563763 -12.45434166
v 16.39185512 -49.58563763 -15.90654217
v 16.38805220 -49.58563763 -17.63264500
v 16.37918173 -49.58563763 -20.97148357
v 16.87089801 -42.68054446 -3.82170220
v 17.00396540 -40.61591503 -3.82170220
v 16.98242154 -40.95312168 -3.82170220
v 15.95843567 -51.31306042 -20.97148357
v 16.35130052 -49.70212837 -20.97148357
f 1 2 3
f 1 3 4
f 1 4 5
f 1 5 6
f 1 6 7
f 1 7 2
f 2 8 3
f 2 7 8
f 3 9 10
f 3 10 11
f 3 11 4
f 3 8 9
f 4 11 12
f 4 12 5
f 5 12 6
f 6 12 13
f 6 13 32
f 6 32 49
f 6 49 69
f 6 69 89
f 6 89 100
f 6 100 91
f 6 91 74
f 6 74 73
f 6 73 72
f 6 72 70
f 6 70 50
f 6 50 33
f 6 33 14
f 6 14 15
f 6 15 7
f 7 16 34
f 7 34 53
f 7 53 52
f 7 52 51
f 7 51 71
f 7 71 90
f 7 90 101
f 7 101 111
f 7 111 125
f 7 125 130
f 7 130 129
f 7 129 115
f 7 115 105
f 7 105 97
f 7 97 83
f 7 83 82
f 7 82 62
f 7 62 40
f 7 40 25
f 7 25 24
f 7 24 17
f 7 17 18
f 7 18 19
f 7 19 20
f 7 20 9
f 7 9 8
f 7 15 16
f 9 21 22
f 9 22 23
f 9 23 10
f 9 20 24
f 9 24 25
f 9 25 26
f 9 26 27
f 9 27 21
f 10 23 28
f 10 28 11
f 11 28 29
f 11 29 30
f 11 30 12
f 12 30 31
f 12 31 32
f 12 32 13
f 14 33 34
f 14 34 16
f 14 16 15
f 17 24 18
f 18 24 19
f 19 24 20
f 21 35 36
f 21 36 22
f 21 27 35
f 22 36 23
f 23 37 38
f 23 38 39
f 23 39 28
f 23 36 37
f 25 40 41
f 25 41 42
f 25 42 36
f 25 36 26
f 26 36 27
f 27 36 35
f 28 39 43
f 28 43 44
f 28 44 45
f 28 45 29
f 29 45 30
f 30 45 46
f 30 46 47
f 30 47 48
f 30 48 31
f 31 48 49
f 31 49 32
f 33 50 51
f 33 51 52
f 33 52 53
f 33 53 34
f 36 54 55
f 36 55 37
f 36 42 54
f 37 56 38
f 37 55 56
f 38 57 58
f 38 58 59
f 38 59 60
f 38 60 39
f 38 56 57
f 39 60 61
f 39 61 43
f 40 62 41
f 41 62 63
f 41 63 64
f 41 64 54
f 41 54 42
f 43 61 44
f 44 61 45
f 45 61 65
f 45 65 66
f 45 66 67
f 45 67 46
f 46 67 47
f 47 67 68
f 47 68 69
f 47 69 48
f 48 69 49
f 50 70 51
f 51 70 72
f 51 72 73
f 51 73 74
f 51 74 71
f 54 75 76
f 54 76 55
f 54 64 86
f 54 86 75
f 55 76 56
f 56 76 57
f 57 76 77
f 57 77 58
f 58 77 78
f 58 78 79
f 58 79 80
f 58 80 59
f 59 80 81
f 59 81 60
f 60 81 61
f 61 81 65
f 62 82 63
f 63 82 83
f 63 83 84
f 63 84 85
f 63 85 64
f 64 85 86
f 65 87 98
f 65 98 99
f 65 99 110
f 65 110 100
f 65 100 89
f 65 89 67
f 65 67 66
f 65 81 88
f 65 88 87
f 67 89 69
f 67 69 68
f 71 74 91
f 71 91 100
f 71 100 110
f 71 110 121
f 71 121 119
f 71 119 127
f 71 127 113
f 71 113 112
f 71 112 102
f 71 102 90
f 75 92 76
f 75 86 92
f 76 92 77
f 77 92 93
f 77 93 78
f 78 93 94
f 78 94 79
f 79 94 95
f 79 95 96
f 79 96 80
f 80 96 81
f 81 96 88
f 83 97 84
f 84 97 92
f 84 92 85
f 85 92 86
f 87 88 98
f 88 96 99
f 88 99 98
f 90 102 101
f 92 103 93
f 92 97 103
f 93 104 94
f 93 103 105
f 93 105 106
f 93 106 114
f 93 114 104
f 94 104 107
f 94 107 108
f 94 108 95
f 95 108 109
f 95 109 96
f 96 109 110
f 96 110 99
f 97 105 103
f 101 102 112
f 101 112 113
f 101 113 111
f 104 114 107
f 105 115 116
f 105 116 117
f 105 117 106
f 106 117 114
f 107 114 111
f 107 111 118
f 107 118 119
f 107 119 108
f 108 119 120
f 108 120 109
f 109 120 110
f 110 120 121
f 111 122 123
f 111 123 124
f 111 124 125
f 111 113 126
f 111 126 118
f 111 114 122
f 113 127 128
f 113 128 126
f 114 117 122
f 115 129 116
f 116 129 124
f 116 124 123
f 116 123 117
f 117 123 122
f 118 126 119
f 119 121 120
f 119 126 128
f 119 128 127
f 124 129 130
f 124 130 125

