# https://github.com/mikedh/trimesh
v 8.92095310 17.70200598 9.40211430
v 13.49748454 17.70200598 9.40211430
v 10.25577477 17.70200598 6.39150514
v 10.24717253 17.63890018 6.39150514
v 10.23928688 17.56500315 6.39150514
v 10.23928688 16.61262176 6.39150514
v 9.09587061 16.02807620 9.40211430
v 16.24454994 14.19638450 9.40211430
v 13.20428161 17.70200598 6.39150514
v 10.49090986 15.74908662 6.39150514
v 9.65216573 14.49779020 9.40211430
v 16.24454994 9.23603880 9.40211430
v 16.24454994 13.63757682 6.39150514
v 11.07229576 14.30183443 6.39150514
v 11.76336290 13.09288471 6.39150514
v 11.17695963 12.56978278 9.40211430
v 16.12554793 9.27506373 9.40211430
v 16.24454994 9.22026235 9.40005074
v 16.24454994 10.40679337 6.39150514
v 12.68239672 12.22935086 6.39150514
v 12.91466419 10.85931875 9.40211430
v 14.63373110 10.95231528 6.39150514
v 16.21300733 10.41675737 6.39150514
v 12.75623585 12.16790723 6.39150514
v 13.54551503 11.55429817 6.39150514
v 14.53838670 11.00213402 6.39150514
f 1 2 9
f 1 9 3
f 1 3 4
f 1 4 5
f 1 5 6
f 1 6 7
f 1 7 11
f 1 11 16
f 1 16 21
f 1 21 17
f 1 17 12
f 1 12 8
f 1 8 2
f 2 8 9
f 3 9 13
f 3 13 19
f 3 19 23
f 3 23 22
f 3 22 26
f 3 26 25
f 3 25 24
f 3 24 20
f 3 20 15
f 3 15 14
f 3 14 10
f 3 10 6
f 3 6 5
f 3 5 4
f 6 10 7
f 7 10 11
f 8 12 18
f 8 18 19
f 8 19 13
f 8 13 9
f 10 14 11
f 11 14 15
f 11 15 16
f 12 17 18
f 15 20 21
f 15 21 16
f 17 21 22
f 17 22 18
f 18 22 23
f 18 23 19
f 20 24 21
f 21 25 26
f 21 26 22
f 21 24 25

