# https://github.com/mikedh/trimesh
v -29.45461992 0.48805359 46.93873028
v -29.44027279 0.25220191 46.93873028
v -26.88685259 -1.24052705 52.86521015
v -26.85816346 0.48805359 52.86521015
v -29.41636432 1.36577763 46.93873028
v -29.34942215 -1.24052705 46.93873028
v -29.21792558 -2.96612171 46.93873028
v -26.74818245 -2.96612171 52.86521015
v -26.78643806 1.48221048 52.86521015
v -29.40919332 1.48221048 46.93873028
v -29.05773988 -4.42302529 46.93873028
v -26.54017982 -4.69470171 52.86521015
v -5.02975595 1.48221048 52.86521015
v -5.02975595 1.48221048 46.93873028
v -29.02426751 -4.69470171 46.93873028
v -28.80431064 -5.90082690 46.93873028
v -28.71106711 -6.39641299 46.93873028
v -26.48040865 -4.99026216 52.86521015
v -5.02975595 -26.34225770 52.86521015
v -5.02975595 -29.01722847 46.93873028
v -26.19589994 -6.37850030 52.86521015
v -28.10140119 -8.09215294 46.93873028
v -25.69382213 -8.01751682 52.86521015
v -25.75598363 -7.82644720 52.86521015
v -25.93529714 -7.24428297 52.86521015
v -5.29274909 -26.28852026 52.86521015
v -6.08650917 -28.86198425 46.93873028
v -5.54378799 -28.95751906 46.93873028
v -27.68061268 -9.02361604 46.93873028
v -27.68061268 -9.02361604 47.13887074
v -25.01482114 -9.87447167 52.86521015
v -6.06021037 -26.12431936 52.86521015
v -7.02850201 -28.63210454 46.93873028
v -20.52003443 -20.79826313 46.93873028
v -22.15537154 -15.13186310 52.86521015
v -22.51160822 -14.54671353 52.86521015
v -22.60724209 -14.38251328 52.86521015
v -23.95807049 -12.01205963 52.86521015
v -24.41950237 -11.17314600 52.86521015
v -7.82943503 -25.66455995 52.86521015
v -7.89398750 -28.41416620 46.93873028
v -20.02273986 -21.37744138 46.93873028
v -21.21577032 -16.51413055 52.86521015
v -9.66082118 -25.08836640 52.86521015
v -10.76300037 -27.40508196 46.93873028
v -17.94031415 -19.99816056 52.86521015
v -18.65517655 -19.27269347 52.86521015
v -18.94446849 -18.97713367 52.86521015
v -19.63303210 -18.25763791 52.86521015
v -20.35267645 -17.50530274 52.86521015
v -20.49134530 -17.35602920 52.86521015
v -19.70714783 -21.68792983 46.93873028
v -10.70322920 -24.68831511 52.86521015
v -11.22204255 -27.22296901 46.93873028
v -17.01983945 -20.86394195 52.86521015
v -18.21287119 -23.07019535 46.93873028
v -12.10187389 -26.85575713 46.93873028
v -11.27942210 -24.41663804 52.86521015
v -17.45019186 -23.67325890 46.93873028
v -16.33844941 -24.54799824 46.93873028
v -16.17109014 -21.49984491 52.86521015
v -12.91476049 -26.47063320 46.93873028
v -11.47308017 -24.32408793 52.86521015
v -14.77961837 -22.45817769 52.86521015
v -15.09521040 -22.24322534 52.86521015
v -15.89853310 -24.84355805 46.93873028
v -14.68398450 -25.55409779 46.93873028
v -11.66673953 -24.22556843 52.86521015
v -14.58117835 -22.58655191 52.86521015
v -15.48969882 -25.10627845 46.93873028
v -13.10363661 -23.47323262 52.86521015
f 1 2 3
f 1 3 4
f 1 4 5
f 1 5 10
f 1 10 14
f 1 14 20
f 1 20 28
f 1 28 27
f 1 27 33
f 1 33 41
f 1 41 45
f 1 45 54
f 1 54 57
f 1 57 62
f 1 62 67
f 1 67 70
f 1 70 66
f 1 66 60
f 1 60 59
f 1 59 56
f 1 56 52
f 1 52 42
f 1 42 34
f 1 34 29
f 1 29 22
f 1 22 17
f 1 17 16
f 1 16 15
f 1 15 11
f 1 11 7
f 1 7 6
f 1 6 2
f 2 6 3
f 3 6 7
f 3 7 8
f 3 8 12
f 3 12 18
f 3 18 21
f 3 21 25
f 3 25 24
f 3 24 23
f 3 23 31
f 3 31 39
f 3 39 38
f 3 38 37
f 3 37 36
f 3 36 35
f 3 35 43
f 3 43 51
f 3 51 50
f 3 50 49
f 3 49 48
f 3 48 47
f 3 47 46
f 3 46 55
f 3 55 61
f 3 61 65
f 3 65 64
f 3 64 69
f 3 69 71
f 3 71 68
f 3 68 63
f 3 63 58
f 3 58 53
f 3 53 44
f 3 44 40
f 3 40 32
f 3 32 26
f 3 26 19
f 3 19 13
f 3 13 9
f 3 9 4
f 4 9 10
f 4 10 5
f 7 11 8
f 8 11 12
f 9 13 14
f 9 14 10
f 11 15 12
f 12 15 16
f 12 16 17
f 12 17 18
f 13 19 20
f 13 20 14
f 17 21 18
f 17 22 23
f 17 23 24
f 17 24 25
f 17 25 21
f 19 26 27
f 19 27 28
f 19 28 20
f 22 29 30
f 22 30 23
f 23 30 31
f 26 32 27
f 27 32 33
f 29 34 30
f 30 35 36
f 30 36 37
f 30 37 38
f 30 38 39
f 30 39 31
f 30 34 35
f 32 40 41
f 32 41 33
f 34 42 43
f 34 43 35
f 40 44 41
f 41 44 45
f 42 46 47
f 42 47 48
f 42 48 49
f 42 49 50
f 42 50 51
f 42 51 43
f 42 52 46
f 44 53 45
f 45 53 54
f 46 52 55
f 52 56 55
f 53 57 54
f 53 58 57
f 55 56 59
f 55 59 60
f 55 60 61
f 57 58 62
f 58 63 62
f 60 64 65
f 60 65 61
f 60 66 64
f 62 63 68
f 62 68 67
f 64 66 69
f 66 70 69
f 67 68 71
f 67 71 70
f 69 70 71

