# https://github.com/mikedh/trimesh
v -26.86428724 0.00208865 52.86521208
v -24.40533276 0.00208865 99.78186378
v -24.41059716 0.48832118 99.78186378
v -26.85902285 0.48832118 52.86521208
v 26.90101851 0.00208865 52.86521208
v -24.28949043 0.00208865 100.76025322
v -24.28949043 0.48832118 100.76534779
v -24.25789893 1.85706550 100.71948635
v -24.30001921 2.34572889 99.87358666
v -26.73791612 2.21541848 52.86521208
v 26.92734562 0.48832118 52.86521208
v 24.48945385 0.00208865 98.05440239
v -23.35224351 0.00208865 101.24435080
v -22.00956128 4.96895373 104.79609102
v -22.64667613 4.96895373 104.39352718
v -22.86255735 4.96895373 104.10816424
v -23.46281632 4.96895373 102.53357604
v -24.20524473 3.00797826 100.51055743
v -26.59574668 3.64591519 52.86521208
v 24.49471824 0.48832118 98.05440239
v 26.84309992 2.21541848 52.86521208
v 24.44732843 0.00208865 98.53849997
v -21.62518224 0.00208865 101.61124233
v -21.62518224 4.96895373 104.86743561
v -23.82613136 4.96895373 100.87745411
v -24.10520071 3.84770142 99.87358666
v -24.23683622 3.20976449 99.35891651
v -26.55889079 3.94154447 52.86521208
v 24.32622685 0.00208865 99.78186378
v 24.39993862 2.21541848 98.05440239
v 24.28410142 2.21541848 99.78186378
v 24.32622685 0.48832118 99.78186378
v 26.63248309 3.94154447 52.86521208
v 24.18405740 3.41544112 99.78186378
v -20.38254145 0.00208865 101.60614776
v -19.89812224 4.96895373 104.92348620
v -20.42992997 4.96895373 104.91329705
v -23.88405510 4.96895373 99.81753607
v -24.19998034 4.70638771 95.13962779
v -24.12626342 4.26780551 98.05440239
v -26.39039939 4.96895373 52.86521208
v 24.28410142 0.00208865 100.03665414
v 24.15246591 3.21559880 100.68890862
v 24.16825908 2.21541848 100.70419749
v 26.58509328 4.23717375 52.86521208
v 24.04189311 4.27898912 99.78186378
v -19.89812224 0.00208865 101.60105319
v -18.71866573 4.96895373 104.89290847
v -11.26281714 0.00208865 101.50423059
v 7.72432363 0.00208865 101.29021224
v 14.63256810 0.00208865 101.20867850
v 19.32406577 0.00208865 101.15262276
v 21.05112704 0.00208865 101.12714476
v 21.54081192 0.00208865 101.11695561
v -24.12099903 4.96895373 95.46575761
v -24.22630744 4.85906535 93.98798687
v -24.19471080 4.96895373 94.08480947
v 26.45345777 4.96895373 52.86521208
v 24.16825908 0.00208865 100.68890862
v 23.89445927 4.96895373 99.78186378
v 23.52061545 4.96895373 101.47875258
v 22.88349545 4.96895373 102.99219047
v 24.11560488 4.71708503 96.90276147
v 18.12354783 4.96895373 103.90433503
v 22.77818703 0.00208865 100.98446586
v 21.54081192 4.96895373 103.78203442
v 19.81375065 4.96895373 103.85847359
v 24.11560488 4.96895373 95.84284344
v 23.91025759 0.00208865 100.76534779
v 23.26787320 0.00208865 100.91821583
f 1 2 3
f 1 3 4
f 1 4 10
f 1 10 19
f 1 19 28
f 1 28 41
f 1 41 58
f 1 58 45
f 1 45 33
f 1 33 21
f 1 21 11
f 1 11 5
f 1 5 12
f 1 12 22
f 1 22 29
f 1 29 42
f 1 42 59
f 1 59 69
f 1 69 70
f 1 70 65
f 1 65 54
f 1 54 53
f 1 53 52
f 1 52 51
f 1 51 50
f 1 50 49
f 1 49 47
f 1 47 35
f 1 35 23
f 1 23 13
f 1 13 6
f 1 6 2
f 2 6 3
f 3 6 7
f 3 7 8
f 3 8 9
f 3 9 4
f 4 9 10
f 5 11 12
f 6 13 14
f 6 14 15
f 6 15 16
f 6 16 7
f 7 16 17
f 7 17 8
f 8 17 18
f 8 18 9
f 9 18 10
f 10 18 19
f 11 20 12
f 11 21 20
f 12 20 22
f 13 23 14
f 14 23 24
f 14 24 37
f 14 37 36
f 14 36 48
f 14 48 64
f 14 64 67
f 14 67 66
f 14 66 62
f 14 62 61
f 14 61 60
f 14 60 68
f 14 68 58
f 14 58 41
f 14 41 57
f 14 57 55
f 14 55 38
f 14 38 25
f 14 25 17
f 14 17 16
f 14 16 15
f 17 25 18
f 18 26 27
f 18 27 28
f 18 28 19
f 18 25 26
f 20 29 22
f 20 21 30
f 20 30 31
f 20 31 32
f 20 32 29
f 21 33 34
f 21 34 30
f 23 35 36
f 23 36 37
f 23 37 24
f 25 38 39
f 25 39 40
f 25 40 26
f 26 40 41
f 26 41 28
f 26 28 27
f 29 32 42
f 30 34 43
f 30 43 31
f 31 43 32
f 32 43 44
f 32 44 42
f 33 45 34
f 34 46 43
f 34 45 46
f 35 47 36
f 36 47 49
f 36 49 50
f 36 50 51
f 36 51 52
f 36 52 53
f 36 53 54
f 36 54 48
f 38 55 39
f 39 55 56
f 39 56 41
f 39 41 40
f 41 56 57
f 42 44 59
f 43 46 60
f 43 60 61
f 43 61 62
f 43 62 44
f 44 62 59
f 45 58 46
f 46 58 63
f 46 63 60
f 48 54 64
f 54 65 66
f 54 66 67
f 54 67 64
f 55 57 56
f 58 68 63
f 59 62 66
f 59 66 69
f 60 63 68
f 65 70 66
f 66 70 69

