# https://github.com/mikedh/trimesh
v 25.88560079 -28.31526975 28.98572077
v 26.03543268 -28.17955986 28.98572077
v 25.88560079 -28.23624856 29.89030710
v 25.88560079 -27.97513372 -1.35082437
v 26.89936149 -27.27081425 28.98572077
v 29.37107298 -24.61329110 29.92843149
v 27.68146839 -26.37752861 29.97002172
v 25.98973848 -28.13145990 30.00814610
v 29.24993023 -24.48445246 -0.36652728
v 25.88560079 -28.18986608 30.02894122
v 25.88560079 -27.94936625 -2.44603390
v 29.38595016 -24.62703487 28.98572077
v 30.06816484 -23.62037055 -0.36652728
v 30.16380386 -23.68564926 28.98572077
v 30.95228669 -22.70475370 28.98572077
v 31.55480477 -21.84067308 28.98572077
v 31.38478242 -21.59330201 30.27501549
v 30.93953482 -20.58663769 31.55391265
v 30.76419662 -20.80308754 31.55391265
v 29.88326532 -21.67747695 31.55391265
v 25.88560079 -27.75868387 30.25075452
v 25.88560079 -27.02687816 -3.26050677
v 26.37122931 -26.83963204 -3.18772128
v 28.05976868 -25.06508703 -3.20852155
v 29.73130812 -23.28538956 -3.19812141
v 30.01184666 -23.57570685 -2.09251690
v 29.21061196 -24.43806998 -2.09251690
v 28.34774581 -25.35712310 -2.09251690
v 30.93103357 -22.67898623 -0.36652728
v 32.95324426 -19.63494651 11.72234460
v 32.41023233 -20.51277025 27.25972987
v 32.41767092 -20.48184903 28.98572077
v 32.83741479 -19.51126097 29.96309002
v 31.50167198 -21.81662310 -0.36652728
v 31.46766700 -19.87029194 31.55391265
v 28.77067764 -22.30964775 31.55391265
v 25.88560079 -26.24697248 30.91619700
v 25.88560079 -27.07841439 30.55228373
v 26.85685783 -25.54952296 -3.39914089
v 25.88560079 -25.47737301 -3.55163841
v 28.56133703 -23.79043921 -3.41993600
v 31.23813593 -21.45930833 -3.12880436
v 30.87577548 -22.59996504 -2.09251690
v 30.25412959 -22.00386921 -3.38180905
v 33.57170218 -18.50631543 27.25972987
v 32.93517912 -19.64868899 27.25972987
v 32.94474302 -19.63838213 9.99288656
v 33.56001296 -18.50631543 4.81491256
v 33.56213827 -18.50631543 6.54090475
v 32.90755007 -19.61776776 28.98572077
v 33.48668972 -18.50631543 28.98572077
v 34.54083391 -16.02229656 29.93882905
v 32.19451579 -18.53036541 31.55391265
v 31.41559944 -21.73588313 -2.09251690
v 32.83528948 -19.48892848 -1.77712686
v 32.36453814 -20.42172407 -0.36652728
v 32.37622735 -20.44062030 1.35946491
v 32.38366594 -20.45951653 3.08892295
v 32.38260328 -20.47841405 4.81491256
v 28.44869810 -22.47971512 31.55391265
v 25.88560079 -24.52052744 31.22812376
v 26.72190056 -23.68564926 -3.75265788
v 28.44869810 -21.95748673 -3.79424812
v 25.88560079 -23.68564926 -3.75612116
v 30.17549307 -20.23104169 -3.74225775
v 31.61431349 -20.23104169 -3.29516530
v 33.05631930 -18.20912626 -3.15999446
v 34.56314968 -16.06180715 -3.02482877
v 32.75878084 -19.36180732 -2.92778489
v 34.26560865 -17.09939205 27.25972987
v 34.27517255 -17.17154200 3.08892295
v 34.69597907 -16.33322821 -0.36652728
v 32.93411646 -19.63838213 8.26689437
v 33.54619844 -18.50631543 3.08892295
v 34.25179412 -17.19559134 -0.36652728
v 34.26348334 -17.18528448 1.35946491
v 34.20716258 -17.01006336 28.98572077
v 36.39621022 -11.31021926 30.12251925
v 34.76823966 -15.05342599 30.25768623
v 34.58971607 -16.14598209 28.98572077
v 35.06471546 -15.05342599 28.98572077
v 35.80856675 -13.32698159 28.98572077
v 36.19643094 -12.40792848 28.98572077
v 35.16247979 -13.32698159 30.58001055
v 32.58769327 -17.45498805 31.55391265
v 34.65241018 -16.23702828 -2.09251690
v 33.50050424 -18.50631543 -0.36652728
v 33.52388267 -18.50631543 1.35946491
v 32.91073803 -19.61605028 4.81491256
v 32.92242725 -19.63151089 6.54090475
v 26.72190056 -22.57247879 31.55391265
v 25.97486387 -22.50376511 31.55391265
v 25.88560079 -22.49517509 31.55391265
v 26.72190056 -21.95748673 -3.81850652
v 28.44869810 -20.23104169 -3.84970177
v 30.17549307 -18.50631543 -3.81504324
v 25.88560079 -21.95748673 -3.81850652
v 31.90122539 -16.77987039 -3.70413594
v 33.62802293 -15.05342599 -3.52738002
v 33.63014824 -16.69397796 -3.27090175
v 34.72998405 -15.05342599 -3.15306790
v 36.28994465 -11.02849071 -3.03869218
v 35.08809389 -15.05342599 -2.09251690
v 34.65028487 -16.25420702 23.80428221
v 35.90633108 -13.41974591 18.62630822
v 35.19861008 -15.05342599 -0.36652728
v 36.25593966 -12.56425337 16.89685275
v 35.90845639 -13.42833463 16.89685275
v 36.49928525 -11.54556535 28.98572077
v 36.72562835 -10.76909464 28.98572077
v 36.61830269 -10.76909464 29.69275349
v 36.46846824 -10.76909464 30.20916557
v 33.12645457 -15.92437849 31.55391265
v 36.25381435 -12.55738213 18.62630822
v 25.88560079 -10.76909464 31.55391265
v 26.72190056 -20.23104169 -3.84970177
v 26.72190056 -18.50631543 -3.84970177
v 28.44869810 -16.77987039 -3.83583836
v 30.17549307 -11.59881906 -3.80117983
v 31.90122539 -10.76909464 -3.74572618
v 32.79597122 -10.76909464 -3.71106765
v 33.62802293 -10.76909464 -3.67640912
v 33.62802293 -11.59881906 -3.66601413
v 33.62802293 -13.32698159 -3.63481889
v 25.88560079 -20.23104169 -3.83583836
v 35.40263741 -10.76909464 -3.38874590
v 35.00839728 -13.32698159 -3.26743847
v 36.32076166 -10.76909464 -3.06641900
v 36.45996699 -10.76909464 -2.09251690
v 36.34414009 -11.23463369 -2.09251690
v 36.07847873 -12.09871496 -2.09251690
v 35.77668708 -13.32698159 -0.36652728
v 36.24956373 -12.54879276 15.17086056
v 36.51416243 -11.59881906 16.89685275
v 36.51841306 -11.59881906 18.62630822
v 36.74156819 -10.76909464 25.53027311
v 36.73731756 -10.76909464 28.18164547
v 36.08804263 -10.76909464 30.47603496
v 33.23590811 -15.05342599 31.55391265
v 35.43557974 -10.76909464 30.85034579
v 25.88560079 -10.76909464 9.37596731
v 29.31050160 -10.76909464 31.55391265
v 25.88560079 -18.47367607 -3.67294069
v 30.17549307 -10.76909464 -3.75612116
v 36.50034791 -10.76909464 -0.36652728
v 36.36433055 -11.29819427 -0.36652728
v 36.13798745 -12.16227554 -0.36652728
v 36.50141056 -11.59881906 15.17086056
v 36.72031507 -10.76909464 16.06504804
v 36.72562835 -10.76909464 16.89685275
v 36.73412960 -10.76909464 18.62630822
v 36.73731756 -10.76909464 20.35230041
v 36.73944287 -10.76909464 22.07829002
v 33.33685783 -14.05363420 31.55391265
v 34.45900942 -10.76909464 31.23158962
v 28.26486123 -10.76909464 -2.15490225
v 25.88560079 -11.61599716 1.35946491
v 30.95547466 -10.77596588 31.55391265
v 30.98947707 -10.76909464 31.54351510
v 26.72190056 -16.77987039 -3.65907728
v 25.88560079 -16.77987039 -3.35061894
v 28.82274777 -10.76909464 -3.34368724
v 36.71287648 -10.76909464 15.17086056
v 33.38574000 -13.32182784 31.55391265
v 33.62802293 -10.76909464 31.36675788
v 25.88560079 -12.01282189 -0.21056133
v 31.92672912 -11.45967292 31.55391265
v 25.88560079 -15.81787170 -3.02136549
v 32.02555611 -11.58335845 31.55391265
f 1 2 3
f 1 3 10
f 1 10 21
f 1 21 38
f 1 38 37
f 1 37 61
f 1 61 93
f 1 93 115
f 1 115 141
f 1 141 157
f 1 157 166
f 1 166 168
f 1 168 161
f 1 161 143
f 1 143 125
f 1 125 97
f 1 97 64
f 1 64 40
f 1 40 22
f 1 22 11
f 1 11 4
f 1 4 2
f 2 5 6
f 2 6 7
f 2 7 8
f 2 8 3
f 2 4 9
f 2 9 5
f 3 8 10
f 4 11 9
f 5 12 6
f 5 9 13
f 5 13 12
f 6 12 14
f 6 14 15
f 6 15 16
f 6 16 17
f 6 17 18
f 6 18 19
f 6 19 7
f 7 19 8
f 8 19 20
f 8 20 10
f 9 11 13
f 10 20 21
f 11 22 23
f 11 23 24
f 11 24 25
f 11 25 26
f 11 26 27
f 11 27 28
f 11 28 13
f 12 13 29
f 12 29 14
f 13 28 27
f 13 27 26
f 13 26 29
f 14 29 15
f 15 29 16
f 16 30 31
f 16 31 32
f 16 32 33
f 16 33 17
f 16 29 34
f 16 34 30
f 17 35 18
f 17 33 35
f 18 35 53
f 18 53 85
f 18 85 113
f 18 113 139
f 18 139 154
f 18 154 164
f 18 164 169
f 18 169 167
f 18 167 158
f 18 158 142
f 18 142 115
f 18 115 93
f 18 93 92
f 18 92 91
f 18 91 60
f 18 60 36
f 18 36 20
f 18 20 19
f 20 36 37
f 20 37 38
f 20 38 21
f 22 39 23
f 22 40 39
f 23 39 41
f 23 41 24
f 24 41 25
f 25 42 43
f 25 43 26
f 25 41 44
f 25 44 42
f 26 43 29
f 29 43 34
f 30 45 46
f 30 46 31
f 30 34 47
f 30 47 48
f 30 48 49
f 30 49 45
f 31 46 32
f 32 50 33
f 32 46 50
f 33 50 51
f 33 51 52
f 33 52 53
f 33 53 35
f 34 43 54
f 34 54 55
f 34 55 56
f 34 56 57
f 34 57 58
f 34 58 59
f 34 59 47
f 36 60 37
f 37 60 61
f 39 40 62
f 39 62 63
f 39 63 41
f 40 64 62
f 41 63 65
f 41 65 44
f 42 44 66
f 42 66 67
f 42 67 68
f 42 68 69
f 42 69 43
f 43 69 54
f 44 65 66
f 45 70 51
f 45 51 50
f 45 50 46
f 45 49 71
f 45 71 72
f 45 72 70
f 47 59 73
f 47 73 48
f 48 74 75
f 48 75 76
f 48 76 71
f 48 71 49
f 48 73 74
f 51 77 52
f 51 70 77
f 52 78 79
f 52 79 53
f 52 77 80
f 52 80 81
f 52 81 82
f 52 82 83
f 52 83 78
f 53 79 78
f 53 78 84
f 53 84 85
f 54 69 55
f 55 86 75
f 55 75 87
f 55 87 56
f 55 69 86
f 56 87 88
f 56 88 57
f 57 88 89
f 57 89 90
f 57 90 58
f 58 90 73
f 58 73 59
f 60 91 61
f 61 91 92
f 61 92 93
f 62 64 94
f 62 94 63
f 63 94 95
f 63 95 96
f 63 96 65
f 64 97 94
f 65 96 98
f 65 98 99
f 65 99 100
f 65 100 66
f 66 100 67
f 67 100 68
f 68 100 101
f 68 101 102
f 68 102 103
f 68 103 86
f 68 86 69
f 70 104 105
f 70 105 83
f 70 83 82
f 70 82 81
f 70 81 80
f 70 80 77
f 70 72 104
f 71 76 72
f 72 76 75
f 72 75 86
f 72 86 106
f 72 106 107
f 72 107 108
f 72 108 104
f 73 90 74
f 74 90 89
f 74 89 88
f 74 88 75
f 75 88 87
f 78 83 109
f 78 109 110
f 78 110 111
f 78 111 112
f 78 112 113
f 78 113 84
f 83 105 114
f 83 114 109
f 84 113 85
f 86 103 106
f 94 97 116
f 94 116 95
f 95 116 117
f 95 117 118
f 95 118 119
f 95 119 96
f 96 119 120
f 96 120 121
f 96 121 122
f 96 122 123
f 96 123 124
f 96 124 98
f 97 125 116
f 98 124 99
f 99 124 126
f 99 126 127
f 99 127 101
f 99 101 100
f 101 128 102
f 101 127 128
f 102 128 129
f 102 129 130
f 102 130 131
f 102 131 103
f 103 131 106
f 104 108 105
f 105 108 114
f 106 131 132
f 106 132 133
f 106 133 107
f 107 114 108
f 107 133 134
f 107 134 135
f 107 135 136
f 107 136 137
f 107 137 114
f 109 137 110
f 109 114 137
f 110 137 136
f 110 136 153
f 110 153 152
f 110 152 151
f 110 151 150
f 110 150 149
f 110 149 163
f 110 163 145
f 110 145 129
f 110 129 128
f 110 128 126
f 110 126 122
f 110 122 121
f 110 121 120
f 110 120 144
f 110 144 162
f 110 162 156
f 110 156 141
f 110 141 115
f 110 115 142
f 110 142 159
f 110 159 165
f 110 165 155
f 110 155 140
f 110 140 138
f 110 138 112
f 110 112 111
f 112 138 113
f 113 138 140
f 113 140 139
f 116 125 117
f 117 125 143
f 117 143 144
f 117 144 119
f 117 119 118
f 119 144 120
f 122 126 123
f 123 126 124
f 126 128 127
f 129 145 130
f 130 145 146
f 130 146 147
f 130 147 131
f 131 147 132
f 132 147 133
f 133 148 134
f 133 147 148
f 134 148 149
f 134 149 150
f 134 150 151
f 134 151 135
f 135 151 152
f 135 152 153
f 135 153 136
f 139 140 154
f 140 155 154
f 141 156 157
f 142 158 159
f 143 160 144
f 143 161 162
f 143 162 160
f 144 160 162
f 145 163 148
f 145 148 146
f 146 148 147
f 148 163 149
f 154 155 164
f 155 165 164
f 156 162 166
f 156 166 157
f 158 167 165
f 158 165 159
f 161 168 162
f 162 168 166
f 164 165 169
f 165 167 169

