# https://github.com/mikedh/trimesh
v -1.34550281 -7.17605622 9.42136046
v -1.34550281 -6.42406552 9.27497385
v -0.14022190 -5.96061994 7.32683772
v 0.11693596 -7.10996492 7.48810924
v -0.89762623 -8.13760511 9.42136046
v -1.34550281 -3.91904151 9.42136046
v -1.34550281 -4.77984154 9.32517597
v -0.14022190 -5.33758784 7.32683772
v 0.74380716 -6.48854499 7.25775224
v 1.26750249 -7.53149880 7.31884079
v 0.85167282 -9.83986075 9.42136046
v -0.87339549 -3.02116625 9.42136046
v -1.34550281 -4.69440614 9.33272777
v 0.30062022 -4.18663102 7.68292259
v 1.45196830 -3.69255786 7.31884079
v 0.85401764 -4.73389969 7.25775224
v 2.54782044 -6.41842354 7.15201671
v 2.54782044 -4.69198815 7.15201671
v 2.54860215 -7.73541501 7.27685688
v 2.54860215 -8.59863270 7.68958671
v 2.54860215 -10.44516090 9.42136046
v -0.84994631 -2.99698633 9.42136046
v 0.59138842 -2.32156505 9.42136046
v 2.54860215 -3.62888439 7.27685688
v 4.30884392 -6.30397256 7.29462871
v 3.75622821 -7.63708381 7.31884079
v 3.57801531 -3.69819984 7.31884079
v 4.20176013 -4.84754467 7.29462871
v 3.69526059 -9.29098009 8.69008865
v 2.75964368 -10.44516090 9.42136046
v 2.29378911 -2.21356205 9.42136046
v 2.54860215 -2.21114406 9.42136046
v 5.15144629 -5.52619026 7.39081320
v 5.15144629 -5.65111888 7.39081320
v 5.24524238 -9.12010961 9.42136046
v 4.27210704 -9.84389073 9.42136046
v 4.25725623 -9.85356270 9.42136046
v 4.90757645 -6.80126987 7.54186470
v 4.27367014 -2.38604420 9.42136046
v 5.86742345 -3.09934735 9.42136046
v 6.54900903 -4.69279414 9.42136046
v 6.63811580 -6.41842354 9.42136046
v 6.63733425 -6.64329551 9.42136046
v 5.97841565 -8.14727692 9.42136046
v 5.99404866 -8.11987317 9.42136046
v 5.98779558 -8.13276913 9.42136046
f 1 2 3
f 1 3 4
f 1 4 5
f 1 5 11
f 1 11 21
f 1 21 30
f 1 30 37
f 1 37 36
f 1 36 35
f 1 35 44
f 1 44 46
f 1 46 45
f 1 45 43
f 1 43 42
f 1 42 41
f 1 41 40
f 1 40 39
f 1 39 32
f 1 32 31
f 1 31 23
f 1 23 22
f 1 22 12
f 1 12 6
f 1 6 13
f 1 13 7
f 1 7 2
f 2 7 8
f 2 8 3
f 3 8 9
f 3 9 10
f 3 10 4
f 4 10 11
f 4 11 5
f 6 12 8
f 6 8 13
f 7 13 8
f 8 12 14
f 8 14 15
f 8 15 16
f 8 16 9
f 9 17 10
f 9 16 18
f 9 18 17
f 10 19 20
f 10 20 11
f 10 17 19
f 11 20 21
f 12 22 14
f 14 22 15
f 15 22 23
f 15 23 24
f 15 24 18
f 15 18 16
f 17 25 26
f 17 26 19
f 17 18 25
f 18 24 27
f 18 27 28
f 18 28 25
f 19 26 20
f 20 29 30
f 20 30 21
f 20 26 29
f 23 31 24
f 24 31 32
f 24 32 27
f 25 28 33
f 25 33 34
f 25 34 26
f 26 35 36
f 26 36 37
f 26 37 29
f 26 34 38
f 26 38 35
f 27 32 39
f 27 39 40
f 27 40 33
f 27 33 28
f 29 37 30
f 33 40 41
f 33 41 42
f 33 42 34
f 34 42 43
f 34 43 38
f 35 38 44
f 38 43 45
f 38 45 46
f 38 46 44

