# https://github.com/mikedh/trimesh
v 9.00913551 -35.41667762 -10.83493153
v 8.97200303 -35.41667762 -10.24517046
v 15.46348125 -33.17036236 -10.83493153
v 17.30746039 -35.41667762 -10.83493153
v 8.69941447 -35.41667762 -5.54053884
v 15.37993284 -33.11378173 -5.54053884
v 15.84999976 -33.17036236 -10.83493153
v 17.29564510 -34.21225642 -10.83493153
v 17.32011963 -35.41667762 -5.93699433
v 17.32011963 -35.41667762 -5.54053884
v 16.03988322 -33.11378173 -5.54053884
v 16.66016926 -33.33717358 -10.83493153
v 16.74962532 -33.40231978 -10.83493153
v 16.91165844 -33.31958959 -5.54053884
v 17.30239670 -34.17596402 -5.54053884
v 17.30070880 -34.19219461 -7.27458714
v 17.30324065 -34.18317619 -5.54779474
v 17.30324065 -34.18993808 -5.54053884
v 16.71333549 -33.34889624 -10.83493153
f 1 2 3
f 1 3 7
f 1 7 12
f 1 12 19
f 1 19 13
f 1 13 8
f 1 8 4
f 1 4 9
f 1 9 10
f 1 10 5
f 1 5 2
f 2 5 3
f 3 6 11
f 3 11 7
f 3 5 6
f 4 8 9
f 5 10 18
f 5 18 15
f 5 15 14
f 5 14 11
f 5 11 6
f 7 11 12
f 8 13 14
f 8 14 15
f 8 15 16
f 8 16 17
f 8 17 9
f 9 17 10
f 10 17 18
f 11 14 19
f 11 19 12
f 13 19 14
f 15 18 17
f 15 17 16

