# https://github.com/mikedh/trimesh
v 30.17529238 -10.76617813 -3.75500962
v 31.90235494 1.48101145 -3.77657664
v 31.90235494 -4.69174467 -3.80892461
v 31.90235494 -6.41838993 -3.79813852
v 31.90235494 -8.14503518 -3.78016858
v 31.90235494 -10.76617813 -3.74782061
v 29.02149784 -10.76617813 -3.39918205
v 32.63460707 1.48101145 -3.77657664
v 31.16101749 1.48101145 -3.53935483
v 33.62850666 0.48819060 -3.75141769
v 33.62850666 -1.23845449 -3.75141769
v 33.62850666 -2.96629861 -3.74422868
v 35.35465837 -4.69174467 -3.66155767
v 35.35465837 -6.41838993 -3.65077673
v 33.62850666 -8.14503518 -3.70828365
v 33.62850666 -9.87168027 -3.69031370
v 32.79722685 -10.76617813 -3.71188072
v 29.02149784 -9.87168027 -3.30213817
v 30.64680533 1.48101145 -3.36324216
v 29.02149784 -10.76617813 32.87009025
v 33.62850666 1.48101145 -3.74782061
v 35.35465837 1.48101145 -3.67953276
v 35.35465837 -2.96629861 -3.66874668
v 37.08171837 0.48819060 -3.34167514
v 35.35465837 -8.14503518 -3.62202585
v 33.62850666 -10.76617813 -3.67593569
v 29.02149784 -9.66064566 -3.25541220
v 29.02149784 0.48819060 -0.90120007
v 29.02149784 1.48101145 -0.64960539
v 34.45887562 -10.76617813 31.23112647
v 36.79099840 -4.63658789 32.90962722
v 35.35465837 -5.42676794 32.90962722
v 33.69664270 -6.31886791 32.90962722
v 30.09443534 -8.03112453 32.90962722
v 29.09326956 -8.49995640 32.90962722
v 29.02149784 -8.53353009 32.90962722
v 36.08781878 1.48101145 -3.53935483
v 37.15076526 1.48101145 -3.29854624
v 37.98295334 1.48101145 -3.00381752
v 37.98113679 0.48819060 -3.00022044
v 36.84914342 -4.69174467 -3.29135209
v 36.74194127 -6.41838993 -3.28416823
v 35.35465837 -9.87168027 -3.51060395
v 36.60021439 -8.14503518 -3.26260120
v 35.40280980 -10.76617813 -3.38839597
v 29.02149784 1.48101145 32.90962722
v 35.43551541 -10.76617813 30.85013867
v 37.45965586 -3.46270935 32.90962722
v 36.08781878 -10.76617813 30.47633987
v 36.46848110 -10.76617813 30.21036717
v 37.99294694 1.48101145 -2.89239562
v 38.05926643 0.48819060 -2.09088561
v 37.95388083 -0.51781953 -2.96787248
v 36.42578190 -9.87168027 -3.16196024
v 36.32130457 -10.76617813 -3.06851344
v 37.81306222 1.48101145 32.90962722
v 37.64226540 -3.03824207 32.90962722
v 36.61838503 -10.76617813 29.69279980
v 37.96023875 -5.62221458 29.87969984
v 37.93026054 -3.71331245 31.51866362
v 38.03473787 1.48101145 -2.09088561
v 38.00657363 -1.40632322 -0.52380548
v 37.98022594 -0.90751442 -2.09088561
v 38.11650318 0.48819060 -0.36565760
v 37.94388724 -2.09338353 -1.20311265
v 37.78944193 -4.69174467 -0.36565760
v 37.62409476 -4.69174467 -2.09088561
v 37.40787134 -6.41838993 -2.09088561
v 37.07536044 -8.14503518 -2.09088561
v 36.68016315 -9.87168027 -2.09088561
v 36.45939578 -10.76617813 -2.09088561
v 37.86484675 0.69682685 32.90962722
v 37.83123286 1.48101145 32.84493129
v 37.82033099 -1.34037424 32.90962722
v 36.72558718 -10.76617813 28.98473917
v 36.98632636 -9.87168027 28.98473917
v 38.02292772 -4.69174467 30.26068637
v 37.39060897 -8.14503518 28.98473917
v 37.96932407 -5.66178339 28.98473917
v 38.08833894 -4.69174467 28.98473917
v 38.08652239 -3.06821900 30.85013867
v 37.98204507 -2.56221605 31.75228835
v 37.84940350 -1.23845449 32.83055457
v 38.05108939 1.48101145 -1.59128818
v 37.90572940 -2.91114214 -0.52380548
v 38.06017471 -1.23845449 1.35956525
v 38.02928565 -2.96629861 4.81361062
v 37.98658644 -3.03344597 3.20699609
v 38.07471225 1.48101145 -0.36565760
v 38.08470584 1.48101145 0.28848547
v 38.14194002 0.48819060 1.35956525
v 38.12558593 -2.96629861 9.99288141
v 38.09742426 -2.96629861 8.26765598
v 38.09288032 -1.23845449 3.08838519
v 37.83123286 -4.69174467 1.35956525
v 37.89846063 -4.88719131 4.81361062
v 37.91208990 -5.13179929 6.54243055
v 37.56231664 -6.41838993 -0.36565760
v 37.17256900 -8.14503518 -0.36565760
v 36.73103683 -9.87168027 -0.36565760
v 36.50118671 -10.76617813 -0.36565760
v 37.87574862 0.51696786 32.90962722
v 37.96114960 1.48101145 32.34892837
v 37.82941631 -1.23845449 32.90962722
v 36.73739733 -10.76617813 28.18322787
v 37.01176577 -9.87168027 27.25951374
v 38.22461360 -2.96629861 28.98473917
v 37.41332356 -8.14503518 27.25951374
v 37.77672351 -6.53589765 27.25951374
v 37.97114320 -5.67257527 27.25951374
v 37.97840939 -5.70614863 20.35142301
v 37.97931767 -5.70974602 18.62619758
v 37.97750112 -5.70135252 16.89737764
v 38.06653520 -4.69174467 20.35142301
v 38.20280986 -1.23845449 30.70996460
v 38.01747550 -1.23845449 31.96794056
v 37.86939069 0.18123169 32.90962722
v 37.88574221 -4.53826522 3.20699609
v 38.06653520 -2.96629861 6.54243055
v 37.95842220 -4.02506779 4.81361062
v 38.21734483 1.48101145 9.99288141
v 38.24096770 1.48101145 11.72170135
v 38.16192721 0.48819060 3.08838519
v 38.14739224 -2.96629861 11.72170135
v 38.02020033 -4.51548309 9.99288141
v 37.99930486 -4.42075749 8.26765598
v 37.97840939 -4.26967609 6.54243055
v 37.96205788 -5.63180711 13.90339273
v 37.91935867 -5.28288101 8.26765598
v 37.97386802 -5.68216747 15.17215221
v 37.76945474 -6.54549018 15.17215221
v 37.37698228 -8.14503518 15.17215221
v 36.94090233 -9.87168027 15.17215221
v 36.71377704 -10.76617813 15.17215221
v 37.87665689 0.48819060 32.90962722
v 38.03292132 0.48819060 32.06139123
v 38.02837737 1.48101145 31.98231858
v 36.74103042 -10.76617813 25.53069380
v 36.73921388 -10.76617813 22.07664844
v 37.00994665 -9.87168027 25.53069380
v 37.41877321 -8.14503518 23.80546837
v 37.41695666 -8.14503518 25.53069380
v 38.30183754 -1.23845449 28.98473917
v 37.78398971 -6.56947133 20.35142301
v 37.78308144 -6.57306857 18.62619758
v 37.77854006 -6.56467507 16.89737764
v 38.20462641 0.48819060 30.70996460
v 38.21643656 1.48101145 27.99273461
v 38.28457518 0.48819060 28.98473917
v 38.23824030 0.48819060 11.72170135
v 38.17828130 -1.23845449 9.99288141
v 38.16283548 -1.23845449 8.26765598
v 38.03473787 -4.57903305 11.72170135
v 37.39333637 -8.14503518 16.89737764
v 36.99177858 -9.87168027 22.07664844
v 36.72013496 -10.76617813 16.06711160
v 38.15920238 1.48101145 30.70996460
v 36.73739733 -10.76617813 20.35142301
v 36.73467250 -10.76617813 18.62619758
v 37.00268045 -9.87168027 23.80546837
v 37.40423824 -8.14503518 18.62619758
v 37.41059616 -8.14503518 20.35142301
v 37.41514011 -8.14503518 22.07664844
v 38.20826209 1.48101145 28.98473917
v 36.72558718 -10.76617813 16.89737764
f 1 2 3
f 1 3 4
f 1 4 5
f 1 5 6
f 1 6 17
f 1 17 26
f 1 26 45
f 1 45 55
f 1 55 71
f 1 71 101
f 1 101 134
f 1 134 156
f 1 156 165
f 1 165 159
f 1 159 158
f 1 158 139
f 1 139 138
f 1 138 105
f 1 105 75
f 1 75 58
f 1 58 50
f 1 50 49
f 1 49 47
f 1 47 30
f 1 30 20
f 1 20 7
f 1 7 2
f 2 8 3
f 2 7 9
f 2 9 19
f 2 19 29
f 2 29 46
f 2 46 56
f 2 56 73
f 2 73 103
f 2 103 137
f 2 137 157
f 2 157 164
f 2 164 148
f 2 148 122
f 2 122 121
f 2 121 90
f 2 90 89
f 2 89 84
f 2 84 61
f 2 61 51
f 2 51 39
f 2 39 38
f 2 38 37
f 2 37 22
f 2 22 21
f 2 21 8
f 3 8 10
f 3 10 11
f 3 11 12
f 3 12 13
f 3 13 14
f 3 14 4
f 4 14 15
f 4 15 16
f 4 16 5
f 5 16 6
f 6 16 17
f 7 18 19
f 7 19 9
f 7 20 36
f 7 36 46
f 7 46 29
f 7 29 28
f 7 28 27
f 7 27 18
f 8 21 10
f 10 21 22
f 10 22 11
f 11 22 23
f 11 23 12
f 12 23 13
f 13 23 24
f 13 24 14
f 14 25 26
f 14 26 16
f 14 16 15
f 14 24 25
f 16 26 17
f 18 27 19
f 19 27 28
f 19 28 29
f 20 30 31
f 20 31 32
f 20 32 33
f 20 33 34
f 20 34 35
f 20 35 36
f 22 37 23
f 23 37 24
f 24 38 39
f 24 39 40
f 24 40 41
f 24 41 42
f 24 42 25
f 24 37 38
f 25 43 26
f 25 42 44
f 25 44 43
f 26 43 45
f 30 47 31
f 31 48 57
f 31 57 74
f 31 74 104
f 31 104 117
f 31 117 135
f 31 135 102
f 31 102 72
f 31 72 56
f 31 56 46
f 31 46 36
f 31 36 35
f 31 35 34
f 31 34 33
f 31 33 32
f 31 47 49
f 31 49 50
f 31 50 48
f 39 51 40
f 40 51 52
f 40 52 53
f 40 53 42
f 40 42 41
f 42 53 44
f 43 44 54
f 43 54 45
f 44 53 54
f 45 54 55
f 48 50 57
f 50 58 59
f 50 59 60
f 50 60 57
f 51 61 52
f 52 62 63
f 52 63 53
f 52 61 64
f 52 64 62
f 53 63 65
f 53 65 66
f 53 66 67
f 53 67 68
f 53 68 54
f 54 68 55
f 55 69 70
f 55 70 71
f 55 68 69
f 56 72 73
f 57 60 74
f 58 75 76
f 58 76 59
f 59 77 60
f 59 76 78
f 59 78 79
f 59 79 80
f 59 80 77
f 60 77 81
f 60 81 82
f 60 82 83
f 60 83 74
f 61 84 64
f 62 85 65
f 62 65 63
f 62 64 86
f 62 86 87
f 62 87 88
f 62 88 118
f 62 118 85
f 64 89 90
f 64 90 91
f 64 91 92
f 64 92 93
f 64 93 94
f 64 94 86
f 64 84 89
f 65 85 66
f 66 85 95
f 66 95 96
f 66 96 97
f 66 97 98
f 66 98 68
f 66 68 67
f 68 98 69
f 69 98 99
f 69 99 70
f 70 99 71
f 71 99 100
f 71 100 101
f 72 102 103
f 72 103 73
f 74 83 104
f 75 105 106
f 75 106 76
f 76 106 78
f 77 80 107
f 77 107 81
f 78 106 79
f 79 106 108
f 79 108 109
f 79 109 110
f 79 110 80
f 80 110 111
f 80 111 112
f 80 112 113
f 80 113 114
f 80 114 107
f 81 107 115
f 81 115 82
f 82 116 83
f 82 115 116
f 83 116 117
f 83 117 104
f 85 118 95
f 86 94 119
f 86 119 87
f 87 119 120
f 87 120 88
f 88 120 118
f 90 121 91
f 91 121 122
f 91 122 123
f 91 123 124
f 91 124 92
f 92 125 126
f 92 126 93
f 92 124 125
f 93 126 119
f 93 119 94
f 95 118 96
f 96 118 120
f 96 120 127
f 96 127 126
f 96 126 97
f 97 126 125
f 97 125 128
f 97 128 129
f 97 129 98
f 98 129 128
f 98 128 130
f 98 130 99
f 99 130 131
f 99 131 132
f 99 132 133
f 99 133 134
f 99 134 100
f 100 134 101
f 102 135 103
f 103 136 137
f 103 135 136
f 105 138 106
f 106 138 139
f 106 139 140
f 106 140 141
f 106 141 142
f 106 142 108
f 107 143 115
f 107 114 124
f 107 124 143
f 108 142 144
f 108 144 109
f 109 144 111
f 109 111 110
f 111 144 112
f 112 144 145
f 112 145 113
f 113 145 146
f 113 146 130
f 113 130 114
f 114 130 124
f 115 143 147
f 115 147 136
f 115 136 116
f 116 136 135
f 116 135 117
f 119 126 127
f 119 127 120
f 122 148 149
f 122 149 143
f 122 143 150
f 122 150 123
f 123 151 152
f 123 152 124
f 123 150 151
f 124 150 143
f 124 130 153
f 124 153 125
f 124 152 151
f 124 151 150
f 125 153 130
f 125 130 128
f 130 146 131
f 131 146 154
f 131 154 132
f 132 154 133
f 133 154 134
f 134 154 155
f 134 155 156
f 136 147 137
f 137 147 157
f 139 158 140
f 140 158 159
f 140 159 160
f 140 160 161
f 140 161 162
f 140 162 163
f 140 163 141
f 141 163 145
f 141 145 144
f 141 144 142
f 143 149 147
f 145 163 162
f 145 162 161
f 145 161 146
f 146 161 154
f 147 149 157
f 148 164 149
f 149 164 157
f 154 161 160
f 154 160 155
f 155 160 165
f 155 165 156
f 159 165 160

