# https://github.com/mikedh/trimesh
v 20.55557955 9.16876600 9.40211430
v 20.55557955 10.44949643 6.39168267
v 21.57659872 7.42632194 9.40211430
v 20.55557955 27.69527961 9.40211430
v 24.23500313 10.76968001 6.15480822
v 29.37424551 6.83932044 6.06430495
v 29.26668056 3.99247861 6.25315148
v 23.98230977 6.38456811 7.31892313
v 23.22935000 5.63051482 9.40211430
v 20.55557955 27.69527961 6.39168267
v 26.49729425 27.69527961 9.40211430
v 26.98731491 10.47501818 6.06430495
v 28.73738795 7.63049722 6.06430495
v 24.23500313 27.69527961 6.15480822
v 37.37165613 6.83932044 6.06430495
v 37.93680115 3.99247861 6.25315148
v 28.45225401 3.99247861 9.39950012
v 26.65608023 3.99479948 9.40178753
v 25.05796437 4.00871949 9.40178753
v 24.23500313 4.81845672 9.40211430
v 26.52119757 27.69527961 6.53968772
v 27.30659792 26.97834979 9.40211430
v 27.31854701 26.99459066 6.53968772
v 26.98731491 27.28693163 6.06430495
v 26.52290605 27.69527961 6.15480822
v 37.24701665 7.40080019 6.06430495
v 37.64825281 5.67227744 8.26576996
v 37.56800558 5.95765840 6.25315148
v 37.58849451 5.86485227 6.25315148
v 37.62776388 5.67227744 6.25315148
v 37.83435908 4.61660360 6.25315148
v 37.87533436 4.38226614 6.25315148
v 37.87875133 4.40778789 6.53968772
v 37.94021554 3.99247861 6.40638489
v 28.50347762 3.99247861 9.40178753
v 37.99826793 3.99247861 9.40178753
v 37.38189931 6.83932044 9.40211430
v 27.57807173 26.68368796 9.40211430
v 28.11760751 26.12916693 6.53968772
v 27.54221674 26.75561406 6.06430495
v 27.31854701 26.99459066 6.06430495
v 28.12102190 26.12916693 6.06430495
v 37.65166720 5.67227744 9.40178753
v 36.83212035 9.12700208 6.06430495
v 36.83553474 9.12700208 8.26576996
v 37.24872256 7.40080019 9.40211430
v 37.81216167 4.95302676 9.40178753
v 37.89753177 4.55859880 9.40178753
v 37.63288676 5.67227744 6.53968772
v 37.89411738 4.51915575 8.26576996
v 37.98119340 3.99247861 8.26576996
v 28.09199571 26.11524691 9.40211430
v 28.10394737 26.12220949 8.26576996
v 28.98496101 25.09901612 6.06430495
v 36.71943253 9.58639613 6.06430495
v 36.41722662 10.78128045 6.06430495
v 36.83382883 9.12700208 9.40211430
v 28.95593481 25.05493263 9.40211430
v 28.96617799 25.07117351 8.26576996
v 29.64571931 24.23359495 6.06430495
v 29.62011008 24.19415062 9.40211430
v 29.64401340 24.22663237 6.53968772
v 36.19697128 11.64438204 6.06430495
v 36.19526537 11.63974032 6.53968772
v 36.69040890 9.67456182 9.40211430
v 30.27403959 23.37049208 6.06430495
v 30.48404661 23.02710762 9.40211430
v 30.18866949 23.42849816 9.40211430
v 36.12355283 11.89959952 6.06430495
v 35.77524619 13.05504079 6.06430495
v 36.17819083 11.58869682 8.26576996
v 36.41722662 10.68383389 9.40211430
v 30.50965842 23.03638849 6.06430495
v 31.10553811 22.16400732 9.40211430
v 30.50795251 23.03638849 6.53968772
v 35.38937608 14.30792990 6.06430495
v 36.06208862 11.89031866 9.40211430
v 36.16453069 11.54925505 9.40211430
v 31.11065841 22.17328819 6.06430495
v 31.75093036 21.20578003 9.40211430
v 32.55681707 20.03641617 6.06430495
v 31.76629641 21.20578003 6.53968772
v 31.76800490 21.20578003 6.06430495
v 34.81057350 16.02949136 6.06430495
v 34.49129048 16.89723338 9.28514755
v 34.49129048 16.89259423 9.40211430
v 34.53226834 16.76498549 9.40211430
v 35.33644656 14.30792990 8.26576996
v 35.30742294 14.30792990 9.40211430
v 32.74463182 19.72319518 9.40211430
v 33.13562223 19.17099501 6.06430495
v 34.49641335 16.90651425 6.06430495
v 34.49641335 16.90419339 6.53968772
v 34.49299639 16.90187510 8.26576996
v 34.41616612 17.02484213 9.40211430
v 33.99614694 17.76497541 6.53968772
v 33.12367057 19.15243327 9.40211430
v 33.99102664 17.76033368 8.26576996
v 33.76052812 18.15244336 6.06430495
v 33.99785543 17.76497541 6.06430495
v 34.05078494 17.63736666 9.40211430
f 1 2 3
f 1 3 9
f 1 9 20
f 1 20 37
f 1 37 46
f 1 46 57
f 1 57 65
f 1 65 72
f 1 72 78
f 1 78 77
f 1 77 89
f 1 89 87
f 1 87 86
f 1 86 95
f 1 95 101
f 1 101 97
f 1 97 90
f 1 90 80
f 1 80 74
f 1 74 67
f 1 67 68
f 1 68 61
f 1 61 58
f 1 58 52
f 1 52 38
f 1 38 22
f 1 22 11
f 1 11 4
f 1 4 10
f 1 10 2
f 2 5 6
f 2 6 7
f 2 7 8
f 2 8 9
f 2 9 3
f 2 10 14
f 2 14 5
f 4 11 21
f 4 21 25
f 4 25 14
f 4 14 10
f 5 12 13
f 5 13 6
f 5 14 24
f 5 24 12
f 6 13 12
f 6 12 24
f 6 24 41
f 6 41 40
f 6 40 42
f 6 42 54
f 6 54 60
f 6 60 66
f 6 66 73
f 6 73 79
f 6 79 83
f 6 83 81
f 6 81 91
f 6 91 99
f 6 99 100
f 6 100 92
f 6 92 84
f 6 84 76
f 6 76 70
f 6 70 69
f 6 69 63
f 6 63 56
f 6 56 55
f 6 55 44
f 6 44 26
f 6 26 15
f 6 15 16
f 6 16 7
f 7 16 34
f 7 34 51
f 7 51 36
f 7 36 35
f 7 35 17
f 7 17 18
f 7 18 19
f 7 19 8
f 8 19 9
f 9 19 20
f 11 22 23
f 11 23 21
f 14 25 24
f 15 26 27
f 15 27 28
f 15 28 29
f 15 29 30
f 15 30 31
f 15 31 32
f 15 32 16
f 16 32 33
f 16 33 34
f 17 35 18
f 18 35 20
f 18 20 19
f 20 35 36
f 20 36 37
f 21 23 25
f 22 38 39
f 22 39 23
f 23 40 41
f 23 41 24
f 23 24 25
f 23 39 42
f 23 42 40
f 26 37 43
f 26 43 27
f 26 44 45
f 26 45 46
f 26 46 37
f 27 47 48
f 27 48 49
f 27 49 29
f 27 29 28
f 27 43 47
f 29 49 30
f 30 49 50
f 30 50 31
f 31 50 33
f 31 33 32
f 33 50 51
f 33 51 34
f 36 51 50
f 36 50 48
f 36 48 37
f 37 48 47
f 37 47 43
f 38 52 53
f 38 53 39
f 39 53 54
f 39 54 42
f 44 55 45
f 45 55 56
f 45 56 57
f 45 57 46
f 48 50 49
f 52 58 59
f 52 59 54
f 52 54 53
f 54 59 61
f 54 61 62
f 54 62 60
f 56 63 57
f 57 63 64
f 57 64 65
f 58 61 59
f 60 62 67
f 60 67 66
f 61 68 62
f 62 68 67
f 63 69 64
f 64 69 70
f 64 70 71
f 64 71 72
f 64 72 65
f 66 67 74
f 66 74 75
f 66 75 73
f 70 76 77
f 70 77 71
f 71 77 78
f 71 78 72
f 73 75 74
f 73 74 79
f 74 80 81
f 74 81 82
f 74 82 83
f 74 83 79
f 76 84 85
f 76 85 86
f 76 86 87
f 76 87 88
f 76 88 77
f 77 88 89
f 80 90 81
f 81 83 82
f 81 90 91
f 84 92 93
f 84 93 94
f 84 94 85
f 85 95 86
f 85 94 96
f 85 96 95
f 87 89 88
f 90 97 91
f 91 97 98
f 91 98 96
f 91 96 99
f 92 94 93
f 92 100 94
f 94 100 96
f 95 98 101
f 95 96 98
f 96 100 99
f 97 101 98

