# https://github.com/mikedh/trimesh
v -5.02713597 -33.08379323 37.79853505
v 14.32063619 -33.08379323 37.79853505
v -5.02713597 -33.08379323 41.45794041
v -5.02713597 1.48221048 37.79853505
v 14.63244331 -32.95183609 37.79853505
v 13.63413615 -33.08379323 38.31576214
v -1.36143493 -33.08379323 41.97710820
v -2.95453405 -28.77319331 47.71221435
v -4.49522918 -28.60740101 47.71221435
v -4.73104998 -28.58033288 47.71221435
v -5.02713597 -28.52619662 47.71221435
v -5.02713597 1.48221048 47.71221435
v 21.73588387 1.48221048 37.79853505
v 14.63244331 -32.86386466 37.94991911
v 15.32156268 -32.63040203 37.79853505
v 13.57911091 -33.08379323 38.35457835
v 15.96875990 -31.69316798 38.82813717
v 14.60099976 -31.96046578 39.38126909
v -0.39719064 -33.08379323 42.11102437
v -1.25138509 -28.90176694 47.71221435
v 21.73588387 1.48221048 47.71221435
v 21.73588387 -18.53805616 37.79853505
v 16.25174409 -32.19054489 37.79853505
v 13.54242741 -33.08379323 38.37786833
v 14.00358784 -31.56459436 40.35264675
v 16.52686900 -32.05858775 37.79853505
v 17.12166031 -31.40218557 38.39921728
v 15.15648825 -31.27361195 39.97903996
v -0.02511834 -33.08379323 42.11684678
v -0.90551510 -28.92206804 47.71221435
v 21.73588387 -17.37074299 47.71221435
v 21.15419436 -27.13895489 37.79853505
v 12.62796713 -33.08379323 38.94458610
v 12.90571138 -31.77775589 40.61174563
v 11.17898073 -32.95183609 39.89655549
v 12.65679006 -25.99870985 47.71221435
v 11.10299441 -26.77353511 47.71221435
v 18.10686696 -31.16533942 37.79853505
v 19.17853982 -29.90328780 38.72333307
v 17.98633530 -30.18750318 39.31819257
v 17.34438060 -29.79839879 40.29054057
v 16.47184376 -31.00969767 39.38126909
v 16.35917395 -30.07584713 40.60204150
v 13.00790129 -25.80923293 47.71221435
v 0.44652327 -33.08379323 42.11684678
v 0.82121555 -28.90515045 47.71221435
v 20.87120888 -19.60386383 47.71221435
v 20.85548775 -28.27243288 38.84754543
v 20.95767509 -28.73935815 37.79853505
v 11.17898073 -33.08379323 39.70829625
v 10.18591416 -33.08379323 40.19058853
v 10.43483612 -33.08379323 40.07608062
v 9.45225009 -27.32843180 47.71221435
v 18.25621898 -31.07060096 37.79853505
v 19.64494019 -30.13336691 37.79853505
v 20.05631661 -29.80854934 37.79853505
v 20.33144152 -29.42282847 38.05666326
v 19.82573576 -28.85439771 39.36089048
v 19.32003256 -28.28596695 40.51179359
v 18.49728102 -29.43974605 39.87423586
v 16.39847806 -23.78589012 47.71221435
v 14.54859514 -24.94643625 47.71221435
v 1.38194462 -33.08379323 42.03630301
v 2.54794683 -28.78334386 47.71221435
v 2.54794683 -33.08379323 41.93246942
v 20.74543727 -19.80687481 47.71221435
v 20.83190606 -19.73920448 47.65107852
v 20.47031236 -27.72091971 39.99941857
v 20.65372982 -29.14199660 37.79853505
v 10.08110556 -33.08379323 40.23134575
v 7.61284963 -27.88671201 47.71221435
v 19.44580417 -21.36667588 47.71221435
v 19.25452614 -21.53923522 47.71221435
v 18.40819290 -22.27007476 47.71221435
v 17.77933871 -22.77083519 47.71221435
v 16.96182711 -23.37648463 47.71221435
v 4.29301923 -28.62431859 47.71221435
v 3.71918899 -33.08379323 41.81310944
v 4.27467780 -33.08379323 41.75585533
v 20.21091115 -20.58170007 47.71221435
v 9.15878471 -33.08379323 40.54866878
v 6.00140877 -28.31641860 47.71221435
v 5.68436106 -33.08379323 41.49287505
v 6.00140877 -33.08379323 41.43368024
v 7.72813941 -33.08379323 40.97758882
v 7.06784168 -33.08379323 41.15226221
f 1 2 6
f 1 6 16
f 1 16 24
f 1 24 33
f 1 33 50
f 1 50 52
f 1 52 51
f 1 51 70
f 1 70 81
f 1 81 85
f 1 85 86
f 1 86 84
f 1 84 83
f 1 83 79
f 1 79 78
f 1 78 65
f 1 65 63
f 1 63 45
f 1 45 29
f 1 29 19
f 1 19 7
f 1 7 3
f 1 3 11
f 1 11 12
f 1 12 4
f 1 4 13
f 1 13 22
f 1 22 32
f 1 32 49
f 1 49 69
f 1 69 56
f 1 56 55
f 1 55 54
f 1 54 38
f 1 38 26
f 1 26 23
f 1 23 15
f 1 15 5
f 1 5 2
f 2 5 6
f 3 7 8
f 3 8 9
f 3 9 10
f 3 10 11
f 4 12 21
f 4 21 13
f 5 14 6
f 5 15 14
f 6 14 17
f 6 17 18
f 6 18 16
f 7 19 8
f 8 20 30
f 8 30 46
f 8 46 64
f 8 64 77
f 8 77 82
f 8 82 71
f 8 71 53
f 8 53 37
f 8 37 36
f 8 36 44
f 8 44 62
f 8 62 61
f 8 61 76
f 8 76 75
f 8 75 74
f 8 74 73
f 8 73 72
f 8 72 80
f 8 80 66
f 8 66 47
f 8 47 31
f 8 31 21
f 8 21 12
f 8 12 11
f 8 11 10
f 8 10 9
f 8 19 20
f 13 21 31
f 13 31 22
f 14 15 23
f 14 23 17
f 16 18 25
f 16 25 24
f 17 25 18
f 17 23 26
f 17 26 27
f 17 27 28
f 17 28 25
f 19 29 30
f 19 30 20
f 22 31 32
f 24 25 33
f 25 34 35
f 25 35 33
f 25 28 36
f 25 36 37
f 25 37 34
f 26 38 27
f 27 38 39
f 27 39 40
f 27 40 41
f 27 41 42
f 27 42 28
f 28 42 41
f 28 41 43
f 28 43 44
f 28 44 36
f 29 45 30
f 30 45 46
f 31 47 48
f 31 48 49
f 31 49 32
f 33 35 50
f 34 51 52
f 34 52 35
f 34 37 51
f 35 52 50
f 37 53 51
f 38 54 39
f 39 54 55
f 39 55 56
f 39 56 57
f 39 57 58
f 39 58 59
f 39 59 60
f 39 60 40
f 40 60 41
f 41 60 61
f 41 61 62
f 41 62 44
f 41 44 43
f 45 63 46
f 46 63 65
f 46 65 64
f 47 66 67
f 47 67 48
f 48 57 49
f 48 67 68
f 48 68 57
f 49 57 69
f 51 53 70
f 53 71 70
f 56 69 57
f 57 68 58
f 58 68 59
f 59 68 72
f 59 72 73
f 59 73 74
f 59 74 75
f 59 75 76
f 59 76 61
f 59 61 60
f 64 65 78
f 64 78 79
f 64 79 77
f 66 80 68
f 66 68 67
f 68 80 72
f 70 71 81
f 71 82 81
f 77 79 83
f 77 83 84
f 77 84 82
f 81 82 85
f 82 84 86
f 82 86 85

