# https://github.com/mikedh/trimesh
v -5.02975466 -20.69161161 37.02429837
v -5.02975466 -33.08379323 37.02429837
v -5.02975466 -20.69161161 29.33998909
v -21.20528528 -20.69161161 37.02429837
v -15.27202808 -33.08379323 37.02429837
v -5.02975466 -33.08379323 29.33998909
v -22.11693582 -20.69161161 29.33998909
v -22.11693582 -20.69161161 32.33698314
v -21.26383169 -27.73438816 37.02429837
v -15.31217357 -33.06802321 37.02429837
v -15.34897413 -33.08379323 36.96863117
v -19.05077781 -33.08379323 29.33998909
v -22.11693582 -31.22423834 29.33998909
v -22.11693582 -28.86492006 32.54009190
v -21.17350338 -28.84915133 37.02429837
v -22.11693582 -28.95589548 32.51978180
v -22.11693582 -30.26838080 32.11356299
v -17.87315971 -31.76281696 37.02429837
v -15.89094656 -33.08379323 36.46762759
v -19.02401458 -33.08379323 30.55939812
v -19.70315322 -32.72716545 29.33998909
v -21.29728733 -31.79799524 29.33998909
v -21.23372225 -31.77373427 30.71361185
v -22.11693582 -31.07988955 30.27354116
v -21.06979281 -29.26764213 37.02429837
v -22.11693582 -30.42000736 31.94204830
v -20.90418962 -29.88991840 36.97765859
v -20.91589942 -29.80864711 37.02429837
v -18.72459139 -31.30793598 37.02429837
v -18.95710458 -31.41104189 36.65493996
v -16.56339408 -32.95035918 36.03282321
v -16.42622786 -33.08379323 35.89892152
v -19.01732345 -33.08379323 30.71361185
v -19.89886456 -32.58281667 30.71361185
v -19.89886456 -32.61556859 29.33998909
v -21.02462866 -31.96296418 29.33998909
v -20.96106357 -31.60027180 32.44079406
v -22.11693582 -31.01317124 30.69179653
v -18.72291893 -32.99281652 32.44079406
v -19.89886456 -32.27471083 32.44079406
v -22.11693582 -31.00468028 30.71361185
v -21.10157471 -30.13858756 35.89290323
v -20.47763756 -31.26426675 34.45609170
v -19.90053702 -31.06533142 36.00498961
v -20.82222490 -29.91660573 37.02429837
v -20.88244378 -29.87051014 37.02429837
v -19.32511023 -31.64636739 35.50398667
v -17.36129672 -33.08379323 34.78633255
v -17.03176409 -33.08379323 35.21286274
v -18.86677627 -33.08379323 31.28833621
v -18.56400687 -33.08379323 32.44079406
v -20.76367849 -31.45592301 33.30513777
v -17.80959463 -33.08379323 33.96787665
v -18.13745480 -32.79630755 34.25222969
v -19.90053702 -31.78828982 33.99495765
f 1 2 6
f 1 6 3
f 1 3 7
f 1 7 8
f 1 8 4
f 1 4 9
f 1 9 15
f 1 15 25
f 1 25 28
f 1 28 46
f 1 46 45
f 1 45 29
f 1 29 18
f 1 18 10
f 1 10 5
f 1 5 2
f 2 5 11
f 2 11 19
f 2 19 32
f 2 32 49
f 2 49 48
f 2 48 53
f 2 53 51
f 2 51 50
f 2 50 33
f 2 33 20
f 2 20 12
f 2 12 6
f 3 6 12
f 3 12 21
f 3 21 35
f 3 35 36
f 3 36 22
f 3 22 13
f 3 13 7
f 4 8 9
f 5 10 11
f 7 13 24
f 7 24 38
f 7 38 41
f 7 41 26
f 7 26 17
f 7 17 16
f 7 16 14
f 7 14 8
f 8 14 9
f 9 14 16
f 9 16 17
f 9 17 15
f 10 18 11
f 11 18 19
f 12 20 21
f 13 22 23
f 13 23 24
f 15 17 25
f 17 26 27
f 17 27 28
f 17 28 25
f 18 29 30
f 18 30 19
f 19 30 31
f 19 31 32
f 20 33 34
f 20 34 21
f 21 34 35
f 22 36 34
f 22 34 23
f 23 37 38
f 23 38 24
f 23 34 39
f 23 39 40
f 23 40 37
f 26 41 42
f 26 42 27
f 27 43 44
f 27 44 30
f 27 30 45
f 27 45 46
f 27 46 28
f 27 42 43
f 29 45 30
f 30 47 48
f 30 48 49
f 30 49 31
f 30 44 47
f 31 49 32
f 33 50 34
f 34 50 51
f 34 51 39
f 34 36 35
f 37 52 42
f 37 42 38
f 37 40 52
f 38 42 41
f 39 51 53
f 39 53 40
f 40 53 54
f 40 54 55
f 40 55 52
f 42 52 43
f 43 52 55
f 43 55 47
f 43 47 44
f 47 54 48
f 47 55 54
f 48 54 53

