# https://github.com/mikedh/trimesh
v -0.90439005 26.88336946 52.86521079
v -0.90439005 26.60880289 54.76489702
v 0.81835845 26.56590042 54.76489702
v 0.81835845 26.82116422 52.86521079
v -2.23913211 26.77396996 52.86521079
v -2.63231200 26.49725749 54.76489702
v -2.50814997 26.50583850 54.76489702
v 2.54628032 26.39429567 54.76489702
v 4.56908715 26.36426600 52.86521079
v -2.65300564 26.73750517 52.86521079
v -4.35506058 26.56161120 52.86521079
v -4.35506058 26.29991229 54.76489702
v 2.66526898 26.37927955 54.76489702
v 4.39319093 26.14761546 54.76489702
v 5.99695102 26.12830754 52.86521079
v 4.26902874 26.16691822 54.76489702
v -6.08298221 26.23341526 52.86521079
v -6.08298221 25.92238390 54.76489702
v 5.99695102 25.82156540 54.76489702
v 6.29183541 26.06395640 52.86521079
v -7.54188630 25.83657895 52.86521079
v -7.78503699 25.77008450 52.86521079
v -7.21596105 25.59633385 54.76489702
v 6.10559277 25.79582495 54.76489702
v 7.65244513 25.71645769 52.86521079
v 7.82316798 25.36252129 54.76489702
v -8.16269660 25.65424987 52.86521079
v -8.06957528 25.34107262 54.76489702
v 8.42328415 25.48049923 52.86521079
v 7.93698278 25.32605650 54.76489702
v -9.17668694 25.30889448 52.86521079
v -9.52847937 24.79622613 54.76489702
v 9.44244754 24.84341783 54.76489702
v 9.26655164 25.17804631 52.86521079
v -9.51295894 25.17590042 52.86521079
v -11.33400221 24.35005482 52.86521079
v -10.89943520 24.17201238 54.76489702
v 11.06690143 24.15056372 54.76489702
v 11.28418493 24.34576303 52.86521079
v -12.98432328 23.12308113 54.76489702
v -11.88755836 23.67864938 54.76489702
v -11.03394477 24.10980714 54.76489702
v -13.04123068 23.47701495 52.86521079
v 11.86360762 23.77303276 54.76489702
v 12.26713505 23.90388093 52.86521079
v -14.31389213 22.36801920 54.76489702
v -14.62429696 22.56751030 52.86521079
v 11.98259676 23.71511674 54.76489702
v 13.03280037 23.50275541 52.86521079
v -14.74845915 22.49457558 52.86521079
v -14.97091570 22.35514898 52.86521079
v -14.38114692 22.32082751 54.76489702
v 12.90346513 23.19601070 54.76489702
v 13.01210689 23.12951367 54.76489702
v 14.20716617 22.38303533 54.76489702
v 14.41927663 22.59968587 52.86521079
v -16.16080194 21.47996322 52.86521079
v -15.16233268 21.74595135 54.76489702
v 15.00904670 21.80386737 54.76489702
v 16.46795079 21.11744838 52.86521079
v -16.45568761 21.23971554 52.86521079
v -16.23322977 20.89007350 54.76489702
v 15.07112715 21.75882158 54.76489702
v 16.76283518 20.90294373 52.86521079
v -16.98854900 20.79139833 52.86521079
v -17.10236508 20.17362227 54.76489702
v 15.16424975 21.69017865 54.76489702
v 16.23514685 20.89221683 54.76489702
v 17.03702737 20.28731099 54.76489702
v 17.36295263 20.44818883 52.86521079
v -17.67144038 20.20150862 52.86521079
v -18.28190393 19.16544501 54.76489702
v 17.15084218 20.19936272 54.76489702
v 17.93720227 19.99558240 52.86521079
v -18.17843523 19.74246450 52.86521079
v -19.04757054 18.92948655 52.86521079
v -18.33363829 19.11610743 54.76489702
v 18.24760709 19.23193947 54.76489702
v 18.12344491 19.84328300 52.86521079
v -19.19759926 18.78147894 52.86521079
v -19.03722316 18.62274442 54.05077114
v -19.58043192 17.86768250 54.76489702
v 18.93567153 18.59914729 54.76489702
v 19.17882157 18.87800564 52.86521079
v -19.34762798 18.62488774 52.86521079
v -20.14433546 17.71538309 52.86521079
v -20.58407552 16.66859516 54.76489702
v 19.49440073 17.90629318 54.76489702
v 20.27041344 17.58453492 52.86521079
v -20.46508638 17.31425757 52.86521079
v -21.07037689 16.55061464 52.86521079
v -21.24627342 15.81914985 54.76489702
v 19.53578770 17.85481227 54.76489702
v 21.24301617 16.36613966 52.86521079
v -21.41182258 16.10658922 52.86521079
v -22.11541002 14.65223808 54.76489702
v 20.49286999 16.65572493 54.76489702
v 21.16024223 15.80199041 54.76489702
v 21.96212404 14.76807012 54.76489702
v 22.18975365 15.13273086 52.86521079
v -22.28612965 14.87961553 52.86521079
v -22.66896360 13.84998446 54.76489702
v 22.02937754 14.68012443 54.76489702
v 22.28287111 15.00402858 52.86521079
v -22.71552490 14.23395054 52.86521079
v -22.71035314 13.78777922 54.76489702
v 22.65018462 13.81566557 54.76489702
v 22.80021720 14.15029406 52.86521079
v -22.84486014 14.03875123 52.86521079
v -23.03110535 13.70841196 52.86521079
v -23.64156376 12.57581908 52.86521079
v -22.76208621 13.68910662 54.76489702
v 23.27099684 12.68307269 54.76489702
v 23.70556386 12.46856676 52.86521079
v -24.55725908 10.68816685 52.86521079
v -23.33633198 12.57581908 54.76489702
v 23.33307858 12.56509475 54.76489702
v 23.75212516 12.37632927 52.86521079
v -24.71246343 10.35353836 52.86521079
v -24.36067035 10.41574361 54.76489702
v 23.94354213 11.30165370 54.76489702
v 24.48675219 10.90696329 52.86521079
v -25.27119391 9.12441878 52.86521079
v -24.92457260 9.12227288 54.76489702
v 24.33154784 10.44792046 54.76489702
v 25.27310713 9.14157822 52.86521079
v -25.39018048 8.81552946 52.86521079
v -25.80922706 7.63789207 52.86521079
v -25.52469262 7.39979029 54.76489702
v 24.85406055 9.24239672 54.76489702
v 24.90579876 9.12227288 54.76489702
v 25.68181018 7.98324617 52.86521079
v -25.95408273 7.05229028 52.86521079
v -26.06789753 5.33195230 54.76489702
v -25.85061660 6.18997604 54.76489702
v 25.56282362 7.23462065 54.76489702
v 25.79045322 7.66577842 52.86521079
v -26.26449141 5.73522371 52.86521079
v -26.07824620 5.27618088 54.76489702
v 25.80597366 6.35514567 54.76489702
v 26.00773416 6.95790819 52.86521079
v -26.32657315 5.37914399 52.86521079
v -26.12480750 4.97158207 54.76489702
v -26.39382665 4.97158207 52.86521079
v 25.98187020 5.67516179 54.76489702
v 26.32848637 5.66872668 52.86521079
v 26.11637720 4.97158207 54.76489702
v 26.45782160 4.97158207 52.86521079
v 25.98704196 5.65371056 54.76489702
v 26.11637720 4.98230769 54.76489702
f 1 2 3
f 1 3 4
f 1 4 9
f 1 9 15
f 1 15 20
f 1 20 25
f 1 25 29
f 1 29 34
f 1 34 39
f 1 39 45
f 1 45 49
f 1 49 56
f 1 56 60
f 1 60 64
f 1 64 70
f 1 70 74
f 1 74 79
f 1 79 84
f 1 84 89
f 1 89 94
f 1 94 100
f 1 100 104
f 1 104 108
f 1 108 114
f 1 114 118
f 1 118 122
f 1 122 126
f 1 126 132
f 1 132 137
f 1 137 141
f 1 141 146
f 1 146 148
f 1 148 144
f 1 144 142
f 1 142 138
f 1 138 133
f 1 133 128
f 1 128 127
f 1 127 123
f 1 123 119
f 1 119 115
f 1 115 111
f 1 111 110
f 1 110 109
f 1 109 105
f 1 105 101
f 1 101 95
f 1 95 91
f 1 91 90
f 1 90 86
f 1 86 85
f 1 85 80
f 1 80 76
f 1 76 75
f 1 75 71
f 1 71 65
f 1 65 61
f 1 61 57
f 1 57 51
f 1 51 50
f 1 50 47
f 1 47 43
f 1 43 36
f 1 36 35
f 1 35 31
f 1 31 27
f 1 27 22
f 1 22 21
f 1 21 17
f 1 17 11
f 1 11 10
f 1 10 5
f 1 5 6
f 1 6 7
f 1 7 2
f 2 7 6
f 2 6 12
f 2 12 18
f 2 18 23
f 2 23 28
f 2 28 32
f 2 32 37
f 2 37 42
f 2 42 41
f 2 41 40
f 2 40 46
f 2 46 52
f 2 52 58
f 2 58 62
f 2 62 66
f 2 66 72
f 2 72 77
f 2 77 82
f 2 82 87
f 2 87 92
f 2 92 96
f 2 96 102
f 2 102 106
f 2 106 112
f 2 112 116
f 2 116 120
f 2 120 124
f 2 124 129
f 2 129 135
f 2 135 134
f 2 134 139
f 2 139 143
f 2 143 147
f 2 147 150
f 2 150 149
f 2 149 145
f 2 145 140
f 2 140 136
f 2 136 131
f 2 131 130
f 2 130 125
f 2 125 121
f 2 121 117
f 2 117 113
f 2 113 107
f 2 107 103
f 2 103 99
f 2 99 98
f 2 98 97
f 2 97 93
f 2 93 88
f 2 88 83
f 2 83 78
f 2 78 73
f 2 73 69
f 2 69 68
f 2 68 67
f 2 67 63
f 2 63 59
f 2 59 55
f 2 55 54
f 2 54 53
f 2 53 48
f 2 48 44
f 2 44 38
f 2 38 33
f 2 33 30
f 2 30 26
f 2 26 24
f 2 24 19
f 2 19 14
f 2 14 16
f 2 16 13
f 2 13 8
f 2 8 3
f 3 8 4
f 4 8 9
f 5 10 6
f 6 10 11
f 6 11 12
f 8 13 9
f 9 14 15
f 9 13 16
f 9 16 14
f 11 17 12
f 12 17 18
f 14 19 15
f 15 19 20
f 17 21 18
f 18 21 22
f 18 22 23
f 19 24 20
f 20 24 26
f 20 26 25
f 22 27 28
f 22 28 23
f 25 26 29
f 26 30 29
f 27 31 28
f 28 31 32
f 29 30 33
f 29 33 34
f 31 35 32
f 32 35 36
f 32 36 37
f 33 38 39
f 33 39 34
f 36 40 41
f 36 41 42
f 36 42 37
f 36 43 40
f 38 44 45
f 38 45 39
f 40 43 46
f 43 47 46
f 44 48 45
f 45 48 49
f 46 47 50
f 46 50 51
f 46 51 52
f 48 53 49
f 49 53 54
f 49 54 55
f 49 55 56
f 51 57 52
f 52 57 58
f 55 59 56
f 56 59 60
f 57 61 62
f 57 62 58
f 59 63 60
f 60 63 64
f 61 65 66
f 61 66 62
f 63 67 64
f 64 67 68
f 64 68 69
f 64 69 70
f 65 71 72
f 65 72 66
f 69 73 70
f 70 73 74
f 71 75 72
f 72 75 76
f 72 76 77
f 73 78 79
f 73 79 74
f 76 80 81
f 76 81 77
f 77 81 82
f 78 83 84
f 78 84 79
f 80 85 82
f 80 82 81
f 82 85 86
f 82 86 87
f 83 88 89
f 83 89 84
f 86 90 87
f 87 91 92
f 87 90 91
f 88 93 89
f 89 93 94
f 91 95 92
f 92 95 96
f 93 97 94
f 94 98 99
f 94 99 100
f 94 97 98
f 95 101 96
f 96 101 102
f 99 103 100
f 100 103 104
f 101 105 106
f 101 106 102
f 103 107 104
f 104 107 108
f 105 109 106
f 106 109 110
f 106 110 111
f 106 111 112
f 107 113 108
f 108 113 114
f 111 115 116
f 111 116 112
f 113 117 114
f 114 117 118
f 115 119 120
f 115 120 116
f 117 121 122
f 117 122 118
f 119 123 120
f 120 123 124
f 121 125 122
f 122 125 126
f 123 127 124
f 124 127 128
f 124 128 129
f 125 130 126
f 126 130 131
f 126 131 132
f 128 133 134
f 128 134 135
f 128 135 129
f 131 136 132
f 132 136 137
f 133 138 134
f 134 138 139
f 136 140 141
f 136 141 137
f 138 142 139
f 139 142 144
f 139 144 143
f 140 145 141
f 141 145 146
f 143 144 148
f 143 148 147
f 145 149 146
f 146 150 148
f 146 149 150
f 147 148 150

