# https://github.com/mikedh/trimesh
v 21.29543751 19.94667708 37.03793343
v -0.03980512 19.94667708 37.03793343
v 21.27347939 19.94667708 37.62063735
v 24.84444776 17.61276863 37.03793343
v -0.03980512 19.94667708 38.71544645
v -0.03980512 10.27005170 37.03793343
v 21.19113515 19.94667708 38.71544645
v 26.27448390 10.27005170 39.19067131
v 28.00095724 12.10857219 37.03793343
v -0.03980512 15.67479077 39.19067131
v -0.03980512 10.27005170 39.19067131
v 26.98538514 10.27005170 37.03793343
v 22.54431529 15.67479077 39.19067131
v 26.83442113 10.27005170 38.32220047
f 1 2 5
f 1 5 7
f 1 7 3
f 1 3 4
f 1 4 9
f 1 9 12
f 1 12 6
f 1 6 2
f 2 6 11
f 2 11 10
f 2 10 5
f 3 7 4
f 4 8 9
f 4 7 8
f 5 10 13
f 5 13 7
f 6 12 14
f 6 14 8
f 6 8 11
f 7 13 8
f 8 14 9
f 8 13 10
f 8 10 11
f 9 14 12

