# https://github.com/mikedh/trimesh
v -27.86102229 8.83575208 39.04450533
v -27.78204613 8.83575208 44.52760239
v -22.18022173 16.38025009 47.98007275
v -22.24285667 16.38025009 39.04450533
v -0.03980512 8.83575208 39.04450533
v -27.65949851 8.83575208 46.25383757
v -22.07401276 16.38025009 49.70630776
v -0.03980512 16.38025009 39.04450533
v -0.03980512 8.83575208 52.86521015
v -27.29730015 8.83575208 47.74602990
v -22.56420582 15.30341447 50.83323100
v -21.64645465 16.38025009 51.42442588
v -0.03980512 16.38025009 52.86521015
v -25.38282165 8.83575208 52.86521015
v -25.27388786 9.12453199 52.86521015
v -24.71561280 10.35203701 52.86521015
v -24.56038273 10.68734863 52.86521015
v -23.64263413 12.57513466 52.86521015
v -23.02989089 13.70588526 52.86521015
v -22.84470576 14.03750332 52.86521015
v -22.28643070 14.87799710 52.86521015
v -22.71671106 14.23174804 52.86521015
v -21.41225099 16.10698032 52.86521015
v -21.20255788 16.38025009 52.86521015
f 1 2 3
f 1 3 4
f 1 4 8
f 1 8 5
f 1 5 9
f 1 9 14
f 1 14 10
f 1 10 6
f 1 6 2
f 2 6 7
f 2 7 3
f 3 7 12
f 3 12 24
f 3 24 13
f 3 13 8
f 3 8 4
f 5 8 13
f 5 13 9
f 6 10 11
f 6 11 7
f 7 11 12
f 9 13 24
f 9 24 23
f 9 23 21
f 9 21 22
f 9 22 20
f 9 20 19
f 9 19 18
f 9 18 17
f 9 17 16
f 9 16 15
f 9 15 14
f 10 14 15
f 10 15 16
f 10 16 17
f 10 17 18
f 10 18 19
f 10 19 20
f 10 20 11
f 11 21 12
f 11 20 22
f 11 22 21
f 12 23 24
f 12 21 23

