# https://github.com/mikedh/trimesh
v -25.82002086 20.08438491 7.20143663
v -25.82002086 20.08438491 9.09915450
v -25.82002086 28.29226055 7.20143663
v -21.28284499 20.08438491 7.20143663
v -21.14781953 19.86023403 9.09915450
v -25.82002086 28.33895822 9.09915450
v -25.55668036 28.53424244 7.20143663
v -17.25222141 22.10600124 7.20143663
v -17.25222141 21.47260182 9.09915450
v -25.60532324 28.53424244 9.09915450
v -25.58854974 28.53424244 8.41704531
v -17.25222141 28.53424244 7.20143663
v -17.25222141 28.53424244 9.09915450
f 1 2 6
f 1 6 3
f 1 3 7
f 1 7 12
f 1 12 8
f 1 8 4
f 1 4 5
f 1 5 2
f 2 5 9
f 2 9 13
f 2 13 10
f 2 10 6
f 3 6 7
f 4 8 9
f 4 9 5
f 6 10 11
f 6 11 7
f 7 11 10
f 7 10 13
f 7 13 12
f 8 12 13
f 8 13 9

