# https://github.com/mikedh/trimesh
v -18.18650421 20.91193642 4.96178548
v -14.17678381 18.04779621 4.96178548
v -13.26018664 18.04779621 7.20143663
v -18.18650421 21.97136044 7.19924442
v -18.18650421 28.53424244 4.96178548
v -10.27807106 18.04779621 4.96178548
v -10.08698086 18.04779621 7.20143663
v -18.18174670 21.97341371 7.20143663
v -18.18650421 21.98368004 7.20143663
v -18.18650421 28.53424244 7.20143663
v -13.08812519 28.53424244 4.96178548
v -10.34467487 18.93886263 4.96178548
v -10.11790401 18.53131228 7.20143663
v -12.92795878 28.53424244 7.20143663
v -10.50484128 19.80221251 4.96178548
v -10.19560846 19.19858546 7.20143663
f 1 2 3
f 1 3 4
f 1 4 9
f 1 9 10
f 1 10 5
f 1 5 11
f 1 11 15
f 1 15 12
f 1 12 6
f 1 6 2
f 2 6 7
f 2 7 3
f 3 7 13
f 3 13 16
f 3 16 14
f 3 14 10
f 3 10 9
f 3 9 8
f 3 8 4
f 4 8 9
f 5 10 14
f 5 14 11
f 6 12 13
f 6 13 7
f 11 14 15
f 12 15 16
f 12 16 13
f 14 16 15

