# https://github.com/mikedh/trimesh
v 26.52065209 27.69527961 6.15385621
v 24.23452454 27.69527961 6.15385621
v 26.98347339 27.28985200 6.15385621
v 26.52899381 27.69527961 4.95726726
v 24.23452454 27.69527961 -3.59804534
v 24.23452454 10.76532132 6.15385621
v 26.98347339 27.29154247 5.87086558
v 26.98347339 10.43929185 6.15385621
v 26.53975673 27.69527961 3.24365900
v 25.33318963 27.69527961 -3.32680825
v 26.72623094 26.38439985 -3.34051728
v 24.23452454 27.14795273 -3.74492854
v 24.23452454 11.58631163 0.25806213
v 26.98347339 10.88188153 1.35869043
v 26.98347339 27.29998711 4.13473571
v 26.98347339 27.30336548 3.08502740
v 26.54029449 27.69527961 3.08502740
v 25.71878443 27.69527961 -3.20342697
v 26.15415937 27.48242941 -3.13879795
v 26.98347339 26.25263569 -3.28959729
v 26.98347339 26.11918105 -3.33561826
v 26.98347339 24.39949533 -3.74199016
v 26.72138595 24.66133318 -3.74688404
v 24.99495120 26.38777565 -3.76255371
v 24.23452454 26.96382254 -3.75863757
v 26.98347339 11.47312979 -0.50571717
v 26.98347339 11.34812366 -0.33729267
v 24.23452454 12.57623076 -0.42346299
v 26.98347339 13.40228735 -2.80489248
v 26.98347339 12.47825159 -1.73657612
v 26.98347339 27.30843433 1.35869043
v 26.54271570 27.69527961 1.35869043
v 25.98410100 27.69527961 -2.92826861
v 26.35570373 27.69527961 -2.09398867
v 26.38342026 27.67162844 -2.09398867
v 26.98347339 27.14288389 -2.09398867
v 26.98347339 27.04828437 -2.34564510
v 26.98347339 22.67305029 -3.84872402
v 24.23452454 25.42151026 -3.84970177
v 24.23452454 26.38777565 -3.80074241
v 26.72138595 22.93489071 -3.84970177
v 24.99495120 24.66133318 -3.84970177
v 24.23452454 18.22686785 -3.21223698
v 26.98347339 14.44288203 -3.26707311
v 26.98347339 27.30505596 -0.36667137
v 26.53249054 27.69527961 -0.36667137
v 26.40629181 27.69527961 -1.61417774
v 26.98347339 27.25099946 -0.99825939
v 26.98347339 20.94660782 -3.84970177
v 24.23452454 21.96862275 -3.84970177
v 24.23452454 18.61709150 -3.35030504
v 26.98347339 14.81283546 -3.38359987
v 26.98347339 19.22016535 -3.84970177
v 24.23452454 20.24217771 -3.72730338
v 26.72138595 19.48200321 -3.84970177
v 26.98347339 17.49372031 -3.82424434
v 26.72138595 17.75556074 -3.82032307
v 24.99495120 19.48200321 -3.76353145
v 26.98347339 15.66761206 -3.52852244
f 1 2 6
f 1 6 8
f 1 8 3
f 1 3 4
f 1 4 9
f 1 9 17
f 1 17 32
f 1 32 46
f 1 46 47
f 1 47 34
f 1 34 33
f 1 33 18
f 1 18 10
f 1 10 5
f 1 5 2
f 2 5 12
f 2 12 25
f 2 25 40
f 2 40 39
f 2 39 50
f 2 50 54
f 2 54 51
f 2 51 43
f 2 43 28
f 2 28 13
f 2 13 6
f 3 7 4
f 3 8 14
f 3 14 27
f 3 27 26
f 3 26 30
f 3 30 29
f 3 29 44
f 3 44 52
f 3 52 59
f 3 59 56
f 3 56 53
f 3 53 49
f 3 49 38
f 3 38 22
f 3 22 21
f 3 21 20
f 3 20 37
f 3 37 36
f 3 36 48
f 3 48 45
f 3 45 31
f 3 31 16
f 3 16 15
f 3 15 7
f 4 7 9
f 5 10 11
f 5 11 12
f 6 13 14
f 6 14 8
f 7 15 9
f 9 15 16
f 9 16 17
f 10 18 19
f 10 19 11
f 11 20 21
f 11 21 22
f 11 22 23
f 11 23 24
f 11 24 12
f 11 19 20
f 12 24 25
f 13 26 27
f 13 27 14
f 13 28 29
f 13 29 30
f 13 30 26
f 16 31 17
f 17 31 32
f 18 33 19
f 19 33 34
f 19 34 35
f 19 35 36
f 19 36 37
f 19 37 20
f 22 38 23
f 23 38 24
f 24 39 40
f 24 40 25
f 24 38 41
f 24 41 42
f 24 42 39
f 28 43 29
f 29 43 44
f 31 45 32
f 32 45 46
f 34 47 35
f 35 48 36
f 35 47 48
f 38 49 41
f 39 42 41
f 39 41 49
f 39 49 53
f 39 53 55
f 39 55 50
f 43 51 44
f 44 51 52
f 45 48 46
f 46 48 47
f 50 55 56
f 50 56 57
f 50 57 58
f 50 58 54
f 51 54 52
f 52 58 59
f 52 54 58
f 53 56 55
f 56 59 57
f 57 59 58

