# https://github.com/mikedh/trimesh
v -22.31517129 -18.55444884 37.02505034
v -22.31517129 -16.01746250 46.93873028
v -22.31517129 -14.31817758 37.02505034
v -21.17296304 -28.84935974 37.02505034
v -21.08666151 -19.63648002 46.93873028
v -22.31517129 -14.31817758 46.93873028
v -21.06974135 -29.26821077 37.02505034
v -21.05281862 -28.84017407 37.58109331
v -20.90729397 -28.24863892 38.81059949
v -5.02975530 -14.31817758 37.02505034
v -20.95298173 -19.97082612 46.93873028
v -5.02975530 -14.31817758 46.93873028
v -20.91575404 -29.80830747 37.02505034
v -20.88191116 -29.86893031 37.02505034
v -20.53332663 -27.69017216 39.96150260
v -20.51978871 -20.79934123 46.93873028
v -20.58409096 -20.85996535 46.76405656
v -5.02975530 -33.08195609 37.02505034
v -5.02975530 -29.01653247 46.93873028
v -20.82099243 -29.91669321 37.02505034
v -20.39287597 -29.39864211 38.12937349
v -19.88692062 -28.82547701 39.31812245
v -19.38096527 -28.25047605 40.48358143
v -19.40634807 -26.57139895 42.25263369
v -20.02398520 -21.37985487 46.93873028
v -5.02975530 -33.08195609 41.45787029
v -15.27239988 -33.08195609 37.02505034
v -5.54247962 -28.95958261 46.93873028
v -6.08735505 -33.08195609 41.31716120
v -19.84969293 -30.23083277 37.58109331
v -19.24051460 -29.87444171 38.67377227
v -18.72440613 -31.30735191 37.02505034
v -18.55011387 -29.40231638 39.82467474
v -17.50097548 -28.13106751 42.08766459
v -18.65164380 -27.72323928 41.63545473
v -16.33507619 -24.54879073 46.93873028
v -17.45020987 -23.67618571 46.93873028
v -18.21337422 -23.07362775 46.93873028
v -19.70755179 -21.69031887 46.93873028
v -14.68014428 -33.08195609 37.51219436
v -15.31131932 -33.06726160 37.02505034
v -6.08735505 -28.86221968 46.93873028
v -6.73545283 -33.08195609 41.15898486
v -18.29798271 -31.11813486 37.70724637
v -18.05431164 -30.14265293 39.28901006
v -17.39944554 -29.78626187 40.27688493
v -17.13208471 -31.36613761 38.33995171
v -17.87324977 -31.76294304 37.02505034
v -17.80556400 -31.71701727 37.18807858
v -15.48730463 -25.10725877 46.93873028
v -15.89511485 -24.84455895 46.93873028
v -13.63608117 -33.08195609 38.30889862
v -14.85782134 -32.88539052 37.70433500
v -16.51275326 -32.06238553 37.70724637
v -7.02650407 -28.63258569 46.93873028
v -7.08234560 -29.77340322 45.44721433
v -7.81335818 -33.08195609 40.89115236
v -16.51275326 -30.97300645 39.35984970
v -15.18440787 -31.25775187 39.94403504
v -16.44506749 -30.05447309 40.57479969
v -14.68352779 -25.55366552 46.93873028
v -15.98141510 -31.65639443 38.79313193
v -13.57177892 -33.08195609 38.35353788
v -14.65306971 -31.91358285 39.35984970
v -7.89458187 -28.41581164 46.93873028
v -7.81335818 -32.72740217 41.35306635
v -8.54437140 -33.08195609 40.62817208
v -14.03373955 -31.53331163 40.31084874
v -14.68183604 -30.57987529 41.04641765
v -12.91522106 -26.47219760 46.93873028
v -12.60724774 -33.08195609 38.82224432
v -13.00152132 -32.64289917 39.25989767
v -10.76279388 -27.40542674 46.93873028
v -12.99475300 -31.71150587 40.53792418
v -10.03347241 -33.06175020 40.04592777
v -9.01986867 -33.08195609 40.44476523
v -11.26705747 -32.85783351 39.76159853
v -11.22136842 -27.22355695 46.93873028
v -12.10129239 -26.85614437 46.93873028
v -11.88807940 -33.08195609 39.15703491
v -11.26705747 -33.08195609 39.44427551
v -10.09946642 -33.08195609 39.98382159
v -10.01316617 -33.08195609 40.02360846
f 1 2 6
f 1 6 3
f 1 3 10
f 1 10 18
f 1 18 27
f 1 27 41
f 1 41 48
f 1 48 32
f 1 32 20
f 1 20 14
f 1 14 13
f 1 13 7
f 1 7 4
f 1 4 2
f 2 5 11
f 2 11 16
f 2 16 25
f 2 25 39
f 2 39 38
f 2 38 37
f 2 37 36
f 2 36 51
f 2 51 50
f 2 50 61
f 2 61 70
f 2 70 79
f 2 79 78
f 2 78 73
f 2 73 65
f 2 65 55
f 2 55 42
f 2 42 28
f 2 28 19
f 2 19 12
f 2 12 6
f 2 4 7
f 2 7 8
f 2 8 9
f 2 9 5
f 3 6 12
f 3 12 10
f 5 9 11
f 7 13 8
f 8 13 9
f 9 13 14
f 9 14 15
f 9 15 16
f 9 16 17
f 9 17 11
f 10 12 19
f 10 19 26
f 10 26 18
f 11 17 16
f 14 20 21
f 14 21 15
f 15 21 22
f 15 22 23
f 15 23 24
f 15 24 25
f 15 25 16
f 18 26 29
f 18 29 43
f 18 43 57
f 18 57 67
f 18 67 76
f 18 76 83
f 18 83 82
f 18 82 81
f 18 81 80
f 18 80 71
f 18 71 63
f 18 63 52
f 18 52 40
f 18 40 27
f 19 28 29
f 19 29 26
f 20 30 31
f 20 31 21
f 20 32 30
f 21 31 22
f 22 31 23
f 23 31 33
f 23 33 34
f 23 34 35
f 23 35 36
f 23 36 24
f 24 36 37
f 24 37 38
f 24 38 39
f 24 39 25
f 27 40 41
f 28 42 29
f 29 42 43
f 30 32 44
f 30 44 31
f 31 45 46
f 31 46 33
f 31 44 47
f 31 47 45
f 32 48 49
f 32 49 44
f 33 46 34
f 34 46 50
f 34 50 51
f 34 51 36
f 34 36 35
f 40 52 53
f 40 53 41
f 41 53 54
f 41 54 49
f 41 49 48
f 42 55 56
f 42 56 57
f 42 57 43
f 44 49 47
f 45 47 58
f 45 58 46
f 46 58 59
f 46 59 60
f 46 60 61
f 46 61 50
f 47 49 54
f 47 54 53
f 47 53 62
f 47 62 58
f 52 63 64
f 52 64 62
f 52 62 53
f 55 65 56
f 56 65 66
f 56 66 57
f 57 66 67
f 58 62 59
f 59 62 64
f 59 64 68
f 59 68 69
f 59 69 61
f 59 61 60
f 61 69 70
f 63 71 72
f 63 72 68
f 63 68 64
f 65 73 68
f 65 68 74
f 65 74 75
f 65 75 76
f 65 76 67
f 65 67 66
f 68 72 77
f 68 77 75
f 68 75 74
f 68 73 78
f 68 78 79
f 68 79 70
f 68 70 69
f 71 80 72
f 72 80 77
f 75 80 81
f 75 81 82
f 75 82 83
f 75 83 76
f 75 77 80

