# https://github.com/mikedh/trimesh
v -37.25542380 8.42603011 9.09915707
v -37.31385700 8.42603011 16.20466505
v -37.10568455 9.12227545 9.09915707
v -14.66309547 8.42603011 9.09915707
v -37.32481290 8.42603011 17.93074472
v -36.74777026 10.84976514 11.72142604
v -36.91942390 9.95602021 9.09915707
v -12.97579373 9.15227425 9.09915707
v -0.03980512 8.42603011 9.65241733
v -37.33576881 8.42603011 19.65911181
v -37.34307360 8.42603011 21.38290664
v -37.34672471 8.42603011 23.10898760
v -37.35037839 8.42603011 24.83735468
v -37.18968324 9.12227545 27.25844079
v -36.43003105 12.10225672 11.72142604
v -36.72585588 10.84976514 9.99305895
v -36.71124887 10.84976514 9.09915707
v -11.35422998 11.19851177 9.09915707
v -0.03980512 21.19470319 9.65241733
v -0.03980512 8.42603011 32.45268654
v -9.88970899 14.31724422 9.09915707
v -9.68153525 14.78349021 9.09915707
v -9.31266570 16.02973322 9.09915707
v -9.27249191 16.47473124 9.09915707
v -9.22501397 17.75472194 9.09915707
v -37.34672471 8.42603011 27.25844079
v -37.33211770 8.42603011 28.28951660
v -37.16411775 9.12227545 28.98452046
v -36.71489998 10.84976514 28.98452046
v -36.73681436 10.84976514 23.80627887
v -36.41542147 12.04975818 9.99305895
v -36.40811925 11.99225770 22.07791179
v -36.13785733 12.96600156 11.72142604
v -36.56150961 11.42851112 9.09915707
v -0.03980512 21.19470319 32.45268654
v -9.32362225 19.48096114 9.09915707
v -9.86049110 20.89220396 9.09915707
v -10.28049098 21.19470319 9.09915707
v -29.75751540 8.42603011 32.45268654
v -37.32116179 8.42603011 28.98452046
v -36.37159785 11.88600885 29.96987249
v -36.38620744 11.92350799 28.98452046
v -36.12325032 12.91225125 9.99305895
v -36.11229442 12.87350163 9.09915707
v -36.40081445 12.00975807 9.09915707
v -35.62655526 14.30224354 11.72142604
v -35.61194567 14.30224354 9.99305895
v -28.85543133 21.19470319 32.45268654
v -31.35716735 21.19470319 9.09915707
v -31.76255893 12.85600254 32.45268654
v -35.44029461 8.42603011 31.09468328
v -37.05820468 8.42603011 29.82127050
v -36.51038121 10.84976514 30.17105920
v -34.71351014 15.45973550 30.08875613
v -33.85524968 17.75472194 28.98452046
v -34.41403162 16.53472884 28.98452046
v -34.79386029 15.67098528 28.98452046
v -35.38916363 14.30224354 28.98452046
v -36.03194427 12.78725412 28.98452046
v -32.01090646 17.75472194 32.45268654
v -35.59368497 14.30224354 9.09915707
v -35.51698851 14.30224354 20.35411695
v -34.47611851 16.65347868 25.53235983
v -34.47977219 16.66972986 23.80627887
v -33.97212122 17.75472194 25.53235983
v -34.92898996 15.75348390 9.99305895
v -34.92168517 15.76473570 9.09915707
v -29.39595001 21.19470319 32.13033263
v -28.87003834 21.18845076 32.45268654
v -34.03786179 17.17722644 9.09915707
v -32.69386217 20.08720751 15.17358795
v -31.86846942 21.19470319 15.17358795
v -31.81368991 12.99225147 32.45268654
v -36.03559795 8.42603011 30.81805315
v -32.26290510 14.26849328 32.45268654
v -32.26655621 14.30224354 32.45268654
v -32.42360026 16.07473270 32.45268654
v -36.79890124 8.42603011 30.41339617
v -36.71855366 9.12227545 30.38367526
v -33.01159881 18.95721595 30.09332838
v -33.15038216 19.17721399 28.98452046
v -33.96116532 17.75472194 27.25844079
v -34.46516260 16.61597955 27.25844079
v -32.39803477 16.21598101 32.45268654
v -31.37908173 19.01971452 32.45268654
v -33.20881536 19.22971381 27.25844079
v -33.20151314 19.23721416 23.80627887
v -33.96846754 17.75472194 23.80627887
v -34.66237916 16.21223212 9.09915707
v -33.19420835 19.23596367 22.07791179
v -33.16864286 19.23346270 16.90195504
v -33.16133806 19.22346396 15.17358795
v -30.25421047 21.19470319 31.56106821
v -29.83786555 20.76720426 32.45268654
v -34.40307572 16.62847926 9.09915707
v -32.70116439 20.09595834 16.90195504
v -31.90133971 21.19470319 18.60746087
v -31.88673269 21.19470319 16.88137863
v -31.54342799 21.19470319 30.35624176
v -31.55438390 21.19470319 30.33795147
v -32.68655738 20.03970963 28.98452046
v -30.71073303 19.87596030 32.45268654
v -32.69751328 20.09220946 27.25844079
v -32.70116439 20.09970980 23.80627887
v -32.70116439 20.09970980 22.07791179
v -32.70116439 20.09845931 18.62803728
v -30.69612344 19.89096099 32.45268654
v -31.96707770 21.19470319 28.96623146
v -31.95977548 21.19470319 27.23786438
v -31.96707770 21.19470319 28.98452046
f 1 2 3
f 1 3 7
f 1 7 17
f 1 17 34
f 1 34 45
f 1 45 44
f 1 44 61
f 1 61 67
f 1 67 89
f 1 89 95
f 1 95 70
f 1 70 49
f 1 49 38
f 1 38 37
f 1 37 36
f 1 36 25
f 1 25 24
f 1 24 23
f 1 23 22
f 1 22 21
f 1 21 18
f 1 18 8
f 1 8 4
f 1 4 9
f 1 9 20
f 1 20 39
f 1 39 51
f 1 51 74
f 1 74 78
f 1 78 52
f 1 52 40
f 1 40 27
f 1 27 26
f 1 26 13
f 1 13 12
f 1 12 11
f 1 11 10
f 1 10 5
f 1 5 2
f 2 5 6
f 2 6 3
f 3 6 7
f 4 8 9
f 5 10 6
f 6 10 11
f 6 11 12
f 6 12 13
f 6 13 14
f 6 14 15
f 6 15 16
f 6 16 7
f 7 16 17
f 8 18 9
f 9 19 35
f 9 35 20
f 9 18 21
f 9 21 22
f 9 22 23
f 9 23 24
f 9 24 25
f 9 25 19
f 13 26 14
f 14 26 27
f 14 27 28
f 14 28 29
f 14 29 30
f 14 30 15
f 15 31 16
f 15 30 29
f 15 29 32
f 15 32 33
f 15 33 31
f 16 31 17
f 17 31 34
f 19 25 36
f 19 36 37
f 19 37 38
f 19 38 49
f 19 49 72
f 19 72 98
f 19 98 97
f 19 97 109
f 19 109 108
f 19 108 110
f 19 110 100
f 19 100 99
f 19 99 93
f 19 93 68
f 19 68 48
f 19 48 35
f 20 35 48
f 20 48 69
f 20 69 94
f 20 94 107
f 20 107 102
f 20 102 85
f 20 85 60
f 20 60 84
f 20 84 77
f 20 77 76
f 20 76 75
f 20 75 73
f 20 73 50
f 20 50 39
f 27 40 28
f 28 40 41
f 28 41 29
f 29 41 42
f 29 42 32
f 31 33 43
f 31 43 44
f 31 44 45
f 31 45 34
f 32 42 33
f 33 42 46
f 33 46 47
f 33 47 43
f 39 50 51
f 40 52 53
f 40 53 41
f 41 54 55
f 41 55 56
f 41 56 57
f 41 57 58
f 41 58 59
f 41 59 42
f 41 53 60
f 41 60 54
f 42 59 46
f 43 47 61
f 43 61 44
f 46 62 63
f 46 63 64
f 46 64 65
f 46 65 66
f 46 66 67
f 46 67 47
f 46 59 62
f 47 67 61
f 48 68 69
f 49 70 71
f 49 71 72
f 50 73 51
f 51 73 75
f 51 75 76
f 51 76 77
f 51 77 74
f 52 78 79
f 52 79 53
f 53 79 60
f 54 80 55
f 54 60 80
f 55 80 81
f 55 81 82
f 55 82 56
f 56 82 83
f 56 83 57
f 57 83 58
f 58 83 59
f 59 83 63
f 59 63 62
f 60 85 80
f 60 79 84
f 63 83 82
f 63 82 64
f 64 82 65
f 65 82 86
f 65 86 87
f 65 87 88
f 65 88 67
f 65 67 66
f 67 88 90
f 67 90 91
f 67 91 92
f 67 92 71
f 67 71 89
f 68 93 94
f 68 94 69
f 70 95 71
f 71 96 97
f 71 97 98
f 71 98 72
f 71 95 89
f 71 92 91
f 71 91 96
f 74 77 78
f 77 84 79
f 77 79 78
f 80 85 99
f 80 99 100
f 80 100 101
f 80 101 81
f 81 86 82
f 81 101 86
f 85 102 99
f 86 101 103
f 86 103 104
f 86 104 105
f 86 105 106
f 86 106 96
f 86 96 87
f 87 90 88
f 87 96 90
f 90 96 91
f 93 99 94
f 94 99 107
f 96 106 108
f 96 108 109
f 96 109 97
f 99 102 107
f 100 110 101
f 101 110 103
f 103 110 104
f 104 110 108
f 104 108 105
f 105 108 106

