# https://github.com/mikedh/trimesh
v 0.81707669 36.38938328 37.03861914
v -0.04314191 36.20170747 37.40509964
v 0.81707669 36.21997588 37.41724813
v 1.24928408 36.37277703 37.03861914
v -0.04314191 36.37941541 37.00419861
v -0.45856452 36.36779052 37.00419861
v -0.90336044 36.18343391 37.39092618
v -0.04314191 35.99575810 37.83434758
v -0.90336044 35.76988329 38.25448383
v 0.81707669 35.76656410 38.28181795
v 2.54590611 36.17845255 37.31297343
v 2.54590611 36.30301741 37.03861914
v 2.88160111 36.26481841 37.03861914
v 4.27473569 36.09873021 37.03861914
v 4.84961347 36.02067519 37.03861914
v 5.76438251 35.89278599 37.03861914
v 6.57844305 35.77320248 37.03861914
v 6.98966959 35.71009154 37.03861914
v 7.72819859 35.58552667 37.03861914
v 9.50318616 35.16367036 37.03861914
v 11.07256078 34.69199016 37.03861914
v 12.26427900 34.29836499 37.03861914
v 12.32722012 34.27677223 37.03861914
v 12.39436041 34.25019812 37.03861914
v 13.22940197 33.88813356 37.03861914
v 16.01147326 32.66574241 37.03861914
v 16.88428155 32.27876333 37.03861914
v 18.10956734 31.56957829 37.03861914
v 19.23414528 30.91187931 37.03861914
v 20.13632713 30.18442328 37.03861914
v 20.94619172 29.36728219 37.03861914
v 21.07627313 28.79927084 37.03861914
v 21.18957076 28.16482163 37.03861914
v 21.29027862 19.94690608 37.03861914
v -0.04314191 19.42207508 37.00419861
v -0.90336044 36.35450347 37.00419861
v -2.63218994 36.25817488 37.00419861
v -2.63218994 36.13195300 37.27450298
v -2.63218994 35.71673507 38.13806063
v -2.63218994 34.98761944 39.34785076
v -0.90336044 35.07232314 39.34785076
v -0.03894571 35.42110579 38.81331595
v -0.03894571 35.05405472 39.34785076
v 0.81707669 35.03412414 39.34785076
v 2.54590611 34.90789711 39.34785076
v 2.54590611 35.70843452 38.17653109
v 4.27473569 35.63036920 37.98417882
v 4.27473569 36.06053121 37.11960933
v 6.15043208 35.59217020 37.54683231
v 7.72819859 35.28657306 37.62174825
v 9.45283159 34.89129086 37.62174825
v 11.02220685 34.43787907 37.59340197
v 11.49637515 33.96785590 38.15020913
v 12.92307924 33.70876088 37.59340197
v 15.97370910 32.64083047 37.11556004
v 16.47305437 32.09440929 37.66426799
v 17.52629800 30.88862696 38.74852387
v 18.09278356 31.25567545 37.63490923
v 19.22155808 30.90689538 37.06797790
v 19.89294809 29.90540025 37.71184949
v 20.71120586 27.30615978 40.27721298
v 20.92101476 29.30084949 37.20464880
v 20.92101476 19.94690608 47.34664020
v 21.11823388 19.94690608 45.78859232
v 21.07207654 19.94690608 46.21682778
v -0.04314191 19.42207508 46.84753840
v -21.56958836 19.42207508 37.00419861
v -4.18477965 36.13195300 37.00419861
v -4.35682342 36.06053121 37.12770854
v -4.35682342 35.64864276 37.99126620
v -4.35682342 34.83814263 39.34785076
v -2.63218994 34.29172146 40.38250017
v -0.90336044 34.32493910 40.42704455
v 0.81707669 34.28674010 40.38250017
v -0.04314191 34.30667068 40.40578468
v 3.67468096 34.17878148 40.23773005
v 4.82443650 34.13393895 40.18002469
v 4.26214721 34.65877252 39.50173225
v 5.99936901 34.65877252 39.22029155
v 7.72819859 34.49434649 38.98440771
v 9.45283159 34.28175874 38.66753367
v 10.34242366 34.16715659 38.49947905
v 11.95375968 32.40000644 40.17192580
v 12.90629545 32.81688139 39.03198921
v 14.05605035 32.56111070 38.67866969
v 11.14809167 33.28524240 39.33469010
v 15.21000184 32.30201568 38.26764481
v 14.63092909 32.91320997 37.66426799
v 16.25485229 31.11782611 39.33367762
v 15.60863925 30.76240250 40.28328723
v 16.75839673 30.44849966 39.89959647
v 18.18090422 29.90373808 39.43289056
v 18.67605290 30.50995101 38.21905083
v 19.41458319 29.36063867 38.96517248
v 20.71959647 25.60876409 42.01850095
v 18.83550787 28.90224295 40.11725725
v 19.81322061 27.66822691 40.68925002
v 18.94460890 27.24968979 41.93447380
v 19.00755260 25.57554903 43.71524454
v 19.05370994 23.89476216 45.49095352
v 19.69572639 21.54298925 47.34664020
v 20.77414699 20.26744988 47.34664020
v -0.03894571 19.94690608 47.34664020
v -21.12898762 19.42207508 46.84753840
v -21.20871511 19.42207508 46.25327327
v -21.20032193 28.17312733 37.00419861
v -4.35682342 36.11700377 37.00419861
v -5.37230096 36.00074461 37.00419861
v -6.08565300 35.91604091 37.00419861
v -6.08565300 35.53237845 37.78170431
v -5.92619739 34.57074449 39.43390304
v -5.24221891 34.16217523 40.21647018
v -4.35682342 34.20867993 40.27721298
v -2.63218994 29.32243967 46.84753840
v -0.90336044 29.47357864 46.84753840
v -0.03894571 29.12479857 47.34664020
v 0.82546906 29.11981463 47.34664020
v 5.99936901 34.06086272 40.08283640
v 4.21179296 28.84577296 47.34664020
v 7.72819859 33.88979573 39.84796504
v 9.45283159 33.66557794 39.53210349
v 10.80400478 32.60263147 40.43210664
v 14.63092909 30.97499025 40.54751735
v 12.90629545 32.20070317 39.89453438
v 10.40536672 27.29287272 47.34664020
v 11.12291471 27.03710204 47.34664020
v 15.76809422 29.13974522 42.13188719
v 11.85305182 26.71323391 47.34664020
v 12.81817479 26.28473407 47.34664020
v 13.33430642 26.02730121 47.34664020
v 16.91785169 28.78266202 41.71984983
v 17.68575297 29.29752772 40.56776506
v 19.91392846 21.29385952 47.34664020
v 20.69861609 20.39699867 47.34664020
v 16.53599807 24.08908150 47.34664020
v 17.39202000 23.45961622 47.34664020
v 18.05082024 22.96634327 47.34664020
v 18.49981415 22.60593573 47.34664020
v 19.02433639 22.15418354 47.34664020
v -20.85203844 20.59796154 46.84753840
v -20.98211985 29.29752772 37.25020599
v -21.01149341 29.39385631 37.00419861
v -21.20451852 19.42207508 46.28566948
v -7.23960449 35.73666565 37.00419861
v -7.68440053 35.41280009 37.46381716
v -7.81028600 34.49434649 39.00161797
v -7.81028600 33.91802944 39.86517530
v -6.39197445 34.05421919 40.06765078
v -4.64216417 29.07497211 46.84753840
v -3.87845788 29.18790951 46.84753840
v -3.29518757 29.25102303 46.84753840
v -5.92619739 33.49617055 40.90589896
v -6.09404554 28.76937496 46.84753840
v -7.79350157 28.36744666 46.84753840
v -9.56009660 27.89244212 46.84753840
v -10.79377621 27.49051382 46.84753840
v -11.64140690 27.16332650 46.84753840
v -13.04293401 26.50894928 46.84753840
v -14.26402322 25.79976424 46.84753840
v -15.15781189 25.27825501 46.84753840
v -16.39568745 24.53419016 46.84753840
v -18.15808524 23.27194041 46.84753840
v -19.24070243 22.38338268 46.84753840
v -20.65481932 20.93677632 46.84753840
v 5.99936901 28.57671522 47.34664020
v 6.96868857 32.45813602 41.97395641
v 7.61490161 32.92317526 41.15291882
v 9.45283159 32.80193474 40.69026251
v 8.37860758 27.99043288 47.34664020
v 14.64771287 25.32808147 47.34664020
v 15.51632458 24.76504890 47.34664020
v -20.77650755 27.27460431 40.23570541
v -20.69678007 28.85573825 38.40229075
v -20.82686148 29.61807152 37.00419861
v -7.92777957 35.60711943 37.00419861
v -9.15726259 34.31829557 38.74143713
v -7.69698901 32.94310585 41.16607979
v -9.65241256 33.75692517 39.32962801
v -9.53911558 32.81688139 40.68823786
v -8.19633557 32.31862450 41.80286466
v -7.04238344 32.45315466 41.96585736
v -6.08565300 32.54449931 42.08228072
v -10.18952457 28.92217353 45.31986176
v -11.26374986 28.72951379 45.08195328
v -12.91285003 31.22744175 41.12153509
v -13.43737484 30.52655983 41.72794888
v -14.71721115 30.93180989 40.49082415
v -15.59421603 30.71091645 40.21950731
v -16.74397093 30.42192555 39.85606425
v -17.76784101 29.26929144 40.55257912
v -18.91759591 28.89227766 40.12231933
v -19.10642443 23.86486628 45.46463188
v 6.82601803 28.38737725 47.34664020
v 7.70721758 28.16814339 47.34664020
v -19.54282858 29.37890966 38.97124673
v -19.98762333 29.91370337 37.72501047
v -20.22261176 30.19771034 37.00419861
v -8.72925163 35.39785087 37.00419861
v -9.65241256 34.73350835 37.76246844
v -10.30701814 34.12563583 38.43164983
v -12.99257751 32.81189746 39.02490280
v -10.81475659 32.58436048 40.40679716
v -11.26374986 29.41544649 44.21839594
v -12.28342335 30.76738386 42.01647631
v -12.99257751 32.17579122 39.88744797
v -14.20107952 32.58768224 38.70701629
v -14.75078129 31.85524485 39.30836815
v -17.59579628 30.86371502 38.70499165
v -16.27819323 31.08294630 39.30735566
v -18.25459909 29.90041631 39.41365533
v -18.74555375 30.52988159 38.19880312
v -19.34980347 30.84710620 37.00419861
v -9.65660915 35.11716567 37.00419861
v -10.92385698 34.72188347 37.00419861
v -11.26374986 34.46943455 37.29171324
v -11.26374986 33.96619373 38.15527090
v -11.96451342 32.37177273 40.13345535
v -11.26374986 30.96004360 42.25944672
v -14.05421432 33.60080483 37.00419861
v -14.75078129 32.93148096 37.67844145
v -15.35503358 32.32028410 38.29092932
v -12.99677410 33.71042047 37.56201825
v -13.31568403 33.90142062 37.00419861
v -18.17067501 31.20086763 37.62276073
v -16.52576886 32.06949477 37.67844145
v -19.27427257 30.87368031 37.04671835
v -19.29525295 30.88198343 37.00419861
v -12.22887283 34.30168418 37.00419861
v -15.86696862 32.76871710 37.00419861
v -16.00963723 32.63584653 37.14086888
v -16.30756679 32.56442989 37.00419861
v -16.92860286 32.25218922 37.00419861
v -12.48064247 34.21366129 37.00419861
v -17.55383553 31.91005267 37.00419861
v -19.23230925 30.92018243 37.00419861
f 1 2 3
f 1 3 4
f 1 4 5
f 1 5 6
f 1 6 7
f 1 7 2
f 2 8 3
f 2 7 9
f 2 9 8
f 3 8 10
f 3 10 11
f 3 11 4
f 4 11 12
f 4 12 5
f 5 12 13
f 5 13 14
f 5 14 15
f 5 15 16
f 5 16 17
f 5 17 18
f 5 18 19
f 5 19 20
f 5 20 21
f 5 21 22
f 5 22 23
f 5 23 24
f 5 24 25
f 5 25 26
f 5 26 27
f 5 27 28
f 5 28 29
f 5 29 30
f 5 30 31
f 5 31 32
f 5 32 33
f 5 33 34
f 5 34 35
f 5 35 67
f 5 67 106
f 5 106 142
f 5 142 174
f 5 174 197
f 5 197 212
f 5 212 227
f 5 227 235
f 5 235 234
f 5 234 232
f 5 232 231
f 5 231 229
f 5 229 219
f 5 219 223
f 5 223 233
f 5 233 228
f 5 228 214
f 5 214 213
f 5 213 198
f 5 198 175
f 5 175 144
f 5 144 109
f 5 109 108
f 5 108 107
f 5 107 68
f 5 68 37
f 5 37 36
f 5 36 6
f 6 36 7
f 7 36 37
f 7 37 38
f 7 38 9
f 8 9 10
f 9 38 39
f 9 39 40
f 9 40 41
f 9 41 42
f 9 42 10
f 10 42 43
f 10 43 44
f 10 44 45
f 10 45 46
f 10 46 11
f 11 47 48
f 11 48 14
f 11 14 13
f 11 13 12
f 11 46 47
f 14 48 15
f 15 48 49
f 15 49 16
f 16 49 17
f 17 49 18
f 18 49 19
f 19 50 51
f 19 51 20
f 19 49 50
f 20 51 52
f 20 52 21
f 21 52 22
f 22 52 23
f 23 52 53
f 23 53 24
f 24 53 54
f 24 54 25
f 25 54 55
f 25 55 26
f 26 55 27
f 27 55 56
f 27 56 57
f 27 57 58
f 27 58 28
f 28 58 59
f 28 59 29
f 29 59 30
f 30 60 61
f 30 61 62
f 30 62 31
f 30 59 60
f 31 62 61
f 31 61 63
f 31 63 32
f 32 63 33
f 33 64 34
f 33 63 65
f 33 65 64
f 34 64 66
f 34 66 35
f 35 66 104
f 35 104 143
f 35 143 105
f 35 105 67
f 37 68 69
f 37 69 38
f 38 69 70
f 38 70 39
f 39 70 71
f 39 71 40
f 40 72 41
f 40 71 72
f 41 72 73
f 41 73 43
f 41 43 42
f 43 73 44
f 44 74 45
f 44 73 75
f 44 75 74
f 45 74 76
f 45 76 77
f 45 77 78
f 45 78 46
f 46 78 79
f 46 79 47
f 47 79 49
f 47 49 48
f 49 79 50
f 50 79 80
f 50 80 51
f 51 81 82
f 51 82 52
f 51 80 81
f 52 82 53
f 53 83 84
f 53 84 85
f 53 85 54
f 53 82 86
f 53 86 83
f 54 85 87
f 54 87 88
f 54 88 55
f 55 88 87
f 55 87 56
f 56 87 89
f 56 89 57
f 57 89 90
f 57 90 91
f 57 91 92
f 57 92 93
f 57 93 58
f 58 93 59
f 59 93 60
f 60 93 94
f 60 94 61
f 61 95 63
f 61 94 96
f 61 96 97
f 61 97 98
f 61 98 99
f 61 99 100
f 61 100 101
f 61 101 95
f 63 95 102
f 63 102 134
f 63 134 133
f 63 133 101
f 63 101 139
f 63 139 138
f 63 138 137
f 63 137 136
f 63 136 135
f 63 135 171
f 63 171 170
f 63 170 130
f 63 130 129
f 63 129 128
f 63 128 126
f 63 126 125
f 63 125 169
f 63 169 194
f 63 194 193
f 63 193 165
f 63 165 119
f 63 119 117
f 63 117 116
f 63 116 103
f 63 103 104
f 63 104 66
f 63 66 65
f 64 65 66
f 67 105 106
f 68 107 69
f 69 107 108
f 69 108 70
f 70 108 109
f 70 109 110
f 70 110 111
f 70 111 71
f 71 111 112
f 71 112 113
f 71 113 72
f 72 114 115
f 72 115 73
f 72 113 114
f 73 115 116
f 73 116 117
f 73 117 75
f 74 117 76
f 74 75 117
f 76 117 77
f 77 118 79
f 77 79 78
f 77 117 119
f 77 119 118
f 79 118 80
f 80 118 120
f 80 120 81
f 81 121 82
f 81 120 121
f 82 122 86
f 82 121 122
f 83 123 90
f 83 90 124
f 83 124 84
f 83 86 122
f 83 122 125
f 83 125 126
f 83 126 123
f 84 124 90
f 84 90 85
f 85 90 89
f 85 89 87
f 90 127 91
f 90 123 126
f 90 126 128
f 90 128 129
f 90 129 130
f 90 130 127
f 91 131 132
f 91 132 92
f 91 127 131
f 92 96 93
f 92 132 96
f 93 96 94
f 95 101 133
f 95 133 134
f 95 134 102
f 96 98 97
f 96 132 98
f 98 132 135
f 98 135 136
f 98 136 99
f 99 136 137
f 99 137 100
f 100 137 138
f 100 138 139
f 100 139 101
f 103 116 104
f 104 116 140
f 104 140 141
f 104 141 142
f 104 142 106
f 104 106 143
f 105 143 106
f 109 144 110
f 110 144 145
f 110 145 146
f 110 146 111
f 111 146 147
f 111 147 148
f 111 148 112
f 112 149 150
f 112 150 151
f 112 151 114
f 112 114 113
f 112 148 152
f 112 152 149
f 114 151 116
f 114 116 115
f 116 151 150
f 116 150 149
f 116 149 153
f 116 153 154
f 116 154 155
f 116 155 156
f 116 156 157
f 116 157 158
f 116 158 159
f 116 159 160
f 116 160 161
f 116 161 162
f 116 162 163
f 116 163 164
f 116 164 140
f 118 119 165
f 118 165 166
f 118 166 120
f 120 166 167
f 120 167 168
f 120 168 121
f 121 168 122
f 122 168 169
f 122 169 125
f 127 130 170
f 127 170 131
f 131 170 132
f 132 170 171
f 132 171 135
f 140 164 172
f 140 172 141
f 141 172 173
f 141 173 174
f 141 174 142
f 144 175 145
f 145 175 176
f 145 176 146
f 146 176 147
f 147 177 148
f 147 176 178
f 147 178 179
f 147 179 180
f 147 180 177
f 148 177 181
f 148 181 152
f 149 152 182
f 149 182 181
f 149 181 153
f 152 181 182
f 153 181 177
f 153 177 180
f 153 180 154
f 154 180 155
f 155 180 179
f 155 179 183
f 155 183 156
f 156 183 184
f 156 184 157
f 157 184 185
f 157 185 186
f 157 186 158
f 158 186 187
f 158 187 188
f 158 188 189
f 158 189 190
f 158 190 159
f 159 190 160
f 160 190 161
f 161 190 191
f 161 191 192
f 161 192 162
f 162 192 163
f 163 192 172
f 163 172 164
f 165 193 166
f 166 193 194
f 166 194 167
f 167 194 168
f 168 194 169
f 172 192 191
f 172 191 195
f 172 195 173
f 173 195 196
f 173 196 197
f 173 197 174
f 175 198 176
f 176 198 199
f 176 199 200
f 176 200 201
f 176 201 178
f 178 202 179
f 178 201 202
f 179 202 203
f 179 203 183
f 183 203 184
f 184 203 204
f 184 204 185
f 185 204 205
f 185 205 186
f 186 206 187
f 186 205 206
f 187 206 207
f 187 207 188
f 188 207 189
f 189 208 190
f 189 207 209
f 189 209 208
f 190 208 210
f 190 210 191
f 191 210 211
f 191 211 195
f 195 211 196
f 196 211 212
f 196 212 197
f 198 213 199
f 199 213 214
f 199 214 215
f 199 215 200
f 200 215 216
f 200 216 201
f 201 205 217
f 201 217 202
f 201 216 206
f 201 206 205
f 202 217 218
f 202 218 203
f 203 218 204
f 204 218 217
f 204 217 205
f 206 219 220
f 206 220 221
f 206 221 207
f 206 216 222
f 206 222 223
f 206 223 219
f 207 221 209
f 208 224 211
f 208 211 210
f 208 209 221
f 208 221 225
f 208 225 224
f 211 226 212
f 211 224 226
f 212 226 227
f 214 228 215
f 215 228 222
f 215 222 216
f 219 229 230
f 219 230 220
f 220 230 221
f 221 230 231
f 221 231 232
f 221 232 225
f 222 228 233
f 222 233 223
f 224 225 234
f 224 234 226
f 225 232 234
f 226 234 235
f 226 235 227
f 229 231 230

