# https://github.com/mikedh/trimesh
v 20.85656198 -15.20323150 9.42136046
v 20.85656198 -14.62947331 7.18583129
v 21.47688405 -17.23565835 9.42136046
v 20.85656198 -9.86581187 9.42136046
v 21.97117334 -17.23565835 7.18583129
v 20.85656198 -10.93903336 7.18583129
v 25.88560079 -17.23565835 9.42136046
v 20.90087061 -9.73340638 9.42136046
v 20.85656198 -9.72163676 9.41982952
v 25.88560079 -17.23565835 7.18583129
v 25.88560079 -11.59738380 7.18583129
v 25.88560079 -10.55799924 9.42136046
f 1 2 3
f 1 3 7
f 1 7 12
f 1 12 8
f 1 8 4
f 1 4 9
f 1 9 6
f 1 6 2
f 2 5 3
f 2 6 11
f 2 11 10
f 2 10 5
f 3 5 10
f 3 10 7
f 4 8 9
f 6 9 11
f 7 10 11
f 7 11 12
f 8 12 9
f 9 12 11

