# https://github.com/mikedh/trimesh
v 23.64254554 0.02987658 115.32435391
v 23.54534728 0.02987658 117.05121320
v 23.52683185 -1.23933060 117.05121320
v 23.61940383 -1.23933060 115.32435391
v 23.37409246 -2.96666719 113.59749461
v 22.80478688 -4.85762157 111.08305047
v 22.98067312 0.02987658 113.43414410
v 23.37409246 0.02987658 118.77807250
v 23.36946103 -2.96666719 117.05121320
v 23.46665929 -2.96666719 115.32435391
v 23.35557704 -1.23933060 118.77807250
v 23.26763648 -4.69400346 113.59749461
v 22.88810114 -6.41900311 111.08305047
v 21.62452372 -4.10030504 111.08305047
v 21.54121203 0.02987658 112.72434154
v 23.28152048 0.02987658 119.23506592
v 23.19821136 -2.96666719 118.77807250
v 23.08712395 -4.69400346 117.05121320
v 23.17969593 -4.69400346 115.32435391
v 23.01769883 0.02987658 120.50493180
v 22.99455712 -1.23933060 120.50493180
v 22.85107544 -6.41900311 113.59749461
v 22.93438456 -6.41900311 111.87063532
v 22.56873322 -7.75131963 111.08305047
v 21.54121203 -4.06758142 111.08305047
v 19.66204818 0.02987658 112.64461405
v 22.83718630 -2.96666719 120.50493180
v 22.57336465 -4.60050777 120.48353974
v 22.91124285 -4.69400346 118.77807250
v 22.56873322 -6.14318991 118.77807250
v 22.61964806 -6.56859635 117.11149898
v 22.76312974 -6.41900311 115.32435391
v 22.90661657 0.02987658 120.85107968
v 22.58262236 -1.23933060 121.80590544
v 22.49930809 -2.96666719 121.60755161
v 22.46228239 -7.44512040 115.32435391
v 22.55022294 -7.69522208 111.87063532
v 22.25862815 -8.61615671 111.08305047
v 19.90272941 -4.00680870 111.08305047
v 18.08373555 0.02987658 112.60377514
v 22.42988297 -3.96239844 121.43447510
v 22.30954299 -5.11473536 121.04360305
v 22.47154010 -5.80426771 119.89430872
v 22.32342699 -7.00802732 118.77807250
v 22.39285212 -7.24410446 117.72601246
v 22.42525154 -7.34928712 116.57477293
v 22.59188007 0.02987658 121.83118790
v 22.22159730 -1.23933060 122.66933766
v 22.13828818 -2.96666719 122.47098383
v 22.14291446 -8.30995748 115.32435391
v 21.94851793 -9.33140024 111.08305047
v 21.48567090 -9.87367645 115.32435391
v 7.72518945 0.02987658 112.48903920
v 9.90983337 0.02987658 112.51237645
v 12.90446218 0.02987658 112.54543457
v 19.81016000 -4.00447176 111.08305047
v -19.43938046 0.02987658 112.20511714
v -9.08083436 0.02987658 112.31013223
v 22.01331678 -4.60050777 122.09760829
v 21.49029847 -6.41900311 122.22790069
v 22.12903046 -6.39562919 120.48353974
v 21.53658446 -8.14633970 120.50493180
v 21.92074994 -8.14633970 118.77807250
v 22.14754589 -8.01310827 117.11149898
v 22.23085501 0.02987658 122.69461497
v 22.04571620 0.02987658 123.03687760
v 21.52269789 -1.23933060 123.95475484
v 21.35607321 -2.96666719 123.95475484
v 21.04133672 -4.56544656 124.02087622
v 21.38384378 -9.87367645 117.05121320
v 21.67081229 -9.87367645 111.87063532
v 21.71246427 -9.87367645 111.08305047
v 20.82842605 -11.01900126 117.05121320
v 20.87933961 -11.11249711 115.32435391
v -19.89759992 -3.25182944 111.08305047
v -21.62402438 0.02987658 112.18761548
v -19.89759992 0.02987658 112.20123189
v 20.89322489 -6.41900311 123.46664851
v 20.73585664 -7.43810828 123.19439251
v 20.95339488 -8.06686823 122.18511658
v 20.76825607 -9.20751819 121.58032910
v 20.94413845 -9.58383919 120.50493180
v 20.67105780 -10.72682658 119.61427706
v 21.09687785 -10.03963166 118.93364221
v 21.54584088 0.02987658 123.95475484
v 21.36532964 0.02987658 124.24451250
v 20.85619662 0.02987658 125.06127020
v 20.84231133 -1.23933060 125.04571375
v 20.75899835 -2.96666719 124.93097781
v 20.69419951 -3.90396331 124.84152432
v 20.55997426 -5.05630024 124.63928010
v 20.75899835 -10.89044436 118.46303753
v 20.97653787 -11.28780202 111.87063532
v 20.99505073 -11.32753775 111.08305047
v 20.34243474 -11.88150092 117.05121320
v 20.39797715 -11.97499694 115.32435391
v 20.44889071 -12.06148052 113.59749461
v 20.78214135 -11.72022040 111.08305047
v -20.64278661 -3.25884220 111.08305047
v -21.62402438 -3.27754031 111.08305047
v -22.65617571 -3.59542746 111.08305047
v -22.55897745 0.02987658 112.37430325
v 20.36094887 -6.41900311 124.33007558
v 20.06935408 -8.06686823 123.84390930
v 20.50443184 -8.58810794 122.73156348
v 20.18506649 -9.81991633 122.18511658
v 19.28251284 -11.54491566 122.12483081
v 20.53220241 -10.44633886 120.50493180
v 19.88884413 -11.60101320 120.50493180
v 19.16680044 -12.78373616 120.50493180
v 19.37971110 -13.09227298 118.77807250
v 20.32854945 -11.51920431 118.93364221
v 20.15266707 0.02987658 125.92469728
v 20.13878178 -1.23933060 125.90914082
v 20.04621238 -2.96666719 125.79440488
v 19.06034575 -4.30365824 126.65589190
v 19.81016000 -4.67997924 125.67966894
v 18.92149035 -5.45599516 126.51976390
v 19.49542222 -6.41900311 125.48131511
v 19.48153694 -13.23952895 117.05121320
v 20.10638236 -12.82814707 111.08305047
v 20.51831712 -12.18770015 111.08305047
v -22.88297166 -3.88058939 111.08305047
v -22.90611337 0.02987658 112.45987148
v 19.18068572 -8.14633970 125.10404917
v 18.98628919 -9.08129888 124.86485643
v 19.28251284 -9.74278229 123.89252902
v 19.06497332 -10.93485494 123.27607034
v 18.71320854 -12.08251718 122.63044394
v 19.00017448 -12.53830965 121.47920441
v 18.55121272 -13.64623599 120.50493180
v 18.77800738 -13.95477248 118.77807250
v 18.88909093 -14.10436572 117.05121320
v 19.28714041 0.02987658 126.87952818
v 19.27325513 -1.23933060 126.86785698
v 19.18068572 -2.96666719 126.77451310
v 18.18556138 -2.96666719 127.63794532
v 17.24135188 -3.89695120 128.28551691
v 18.07910669 -4.67530471 127.41236384
v 17.07009707 -5.04928812 128.16883577
v 17.89396788 -6.41900311 127.13038698
v 18.75949325 -6.41900311 126.34474219
v 18.93074806 -14.16046326 115.86497036
v 19.42599581 -13.48028062 115.30296185
v 19.63427761 -13.32367527 113.59749461
v 19.73610345 -13.32367527 111.87063532
v 19.78238815 -13.32367527 111.08305047
v -22.98942763 -4.71270286 111.08305047
v -23.50318694 0.02987658 113.59749461
v -23.34582126 0.02987658 113.28245964
v 18.41235733 -8.14633970 125.96553619
v 17.30614944 -9.16544520 126.62283379
v 17.99116614 -9.69837171 125.58632505
v 17.52368896 -11.20599313 125.15655929
v 18.67618155 -10.23363564 124.42730987
v 18.11613497 -11.64542379 123.99948416
v 17.56071724 -12.91463065 123.57360365
v 17.12101063 -14.06462998 122.92019645
v 18.06985026 -13.30263861 122.19872783
v 17.43111955 -14.43861340 121.76895692
v 17.69031364 -14.74715021 120.50493180
v 17.14878119 -15.83403989 119.25256758
v 17.79676961 -15.17489359 118.71778673
v 17.25523717 -15.95091015 118.10132805
v 18.10687725 -15.05101186 117.05121320
v 18.29664492 0.02987658 127.74295526
v 18.28275964 -1.23933060 127.72934400
v 17.32003601 -2.96666719 128.34385748
v 16.35731109 -2.96666719 128.91753205
v 16.44062407 -4.56077203 128.65111165
v 15.96851804 -6.41900311 128.56749377
v 16.83404469 -6.41900311 127.99381920
v 17.54683067 -8.14633970 126.83479887
v 19.05108804 -14.31940652 111.87063532
v 18.36144377 -14.88973134 115.30296185
v 18.34293091 -15.18424393 111.87063532
v 18.75486568 -14.74481263 111.08305047
v 19.07423103 -14.34979287 111.08305047
v -23.07274190 -5.47936908 111.08305047
v -23.51707608 -1.23933060 113.59749461
v -23.61427435 0.02987658 114.86541529
v 16.31102639 -8.21879905 127.77795857
v 15.39921503 -8.84288415 128.21356508
v 16.38045280 -9.79420498 127.06038035
v 15.82040621 -11.19430617 126.80952156
v 16.97289880 -10.31544469 126.30779367
v 16.48227992 -11.77631795 125.81190654
v 17.14878119 -12.35365520 124.72484318
v 16.78775999 -13.42418307 124.07143599
v 15.52418385 -14.21889839 124.84735478
v 15.87594863 -14.59989392 123.95475484
v 15.43624330 -15.85741446 122.99992908
v 16.44988050 -15.14684513 122.38541560
v 15.77412151 -16.18698697 121.84868955
v 16.94512824 -15.61198730 120.50493180
v 16.07960158 -16.48383650 120.50493180
v 15.39458617 -17.55202743 119.17672535
v 16.33416809 -16.75263758 118.63805410
v 17.30614944 -16.00467011 117.05121320
v 15.51955500 -17.66188493 118.02548582
v 17.43111955 0.02987658 128.42358497
v 17.42186184 -1.23933060 128.41386411
v 16.35731109 -1.23933060 129.04393405
v 14.81139788 -2.96666719 129.70900730
v 14.49666009 -4.64725561 129.65261193
v 14.63088663 -6.41900311 129.27923639
v 15.70006624 -7.69054723 128.40413811
v 17.89859545 -15.76158118 111.08305047
v 18.36607262 -15.21462996 111.08305047
v 17.36632071 -16.07011735 115.32435391
v -22.95239678 -6.41900311 111.08305047
v -23.50318694 -2.96666719 113.59749461
v -23.64204234 0.02987658 115.32435391
v 14.74659904 -8.21879905 128.76001199
v 14.20506659 -9.87367645 128.51498365
v 13.86718710 -10.86005817 128.33024108
v 15.06596439 -9.87367645 127.99381920
v 14.63551549 -11.60335063 127.42402989
v 15.40384388 -12.34196824 126.46725893
v 15.88983391 -13.32367527 125.21489986
v 14.74659904 -13.46859398 126.15027876
v 13.71907527 -14.14176451 126.51004305
v 14.46888953 -14.89674409 125.16822535
v 13.78387412 -15.92753558 124.83179832
v 15.02893611 -15.46239342 123.95475484
v 14.16803831 -16.26178391 123.95475484
v 13.60336287 -17.51696622 122.86963668
v 14.71419961 -16.85080780 122.36013829
v 13.99215592 -17.82082787 121.71839715
v 15.15853380 -17.34633665 120.50493180
v 14.29300714 -18.05924227 120.50493180
v 13.44599462 -19.14379436 118.77807250
v 14.74197018 -18.16442589 118.67111736
v 16.42673879 -16.86716961 117.05121320
v 16.49616520 -16.93261686 115.32435391
v 13.59873530 -19.25131557 117.05121320
v 14.63088663 -18.44958814 117.05121320
v 15.56583970 -17.70395761 117.05121320
v 17.15341005 0.02987658 128.59082588
v 16.35731109 0.02987658 129.06143570
v 14.93173785 -1.23933060 129.76540267
v 13.95050008 -2.96666719 130.06877158
v 13.83478768 -4.04186991 130.02404226
v 13.63113472 -5.19420683 129.95403564
v 13.35342522 -6.41900311 129.84708050
v 12.82577805 -8.12530304 129.67400398
v 17.50517482 -16.21737300 111.08305047
v 16.62113403 -17.05416164 111.87063532
v 16.64890588 -17.07987251 111.08305047
v 17.11638177 -16.61005646 111.08305047
v -22.79965739 -7.00101489 111.08305047
v -22.93851279 -6.41900311 111.87063532
v -23.26713843 -4.69400346 113.59749461
v -23.46153495 -2.96666719 115.32435391
v -23.61890063 -1.23933060 115.32435391
v -23.54947550 0.02987658 117.05121320
v 12.90446218 -9.87367645 129.13533273
v 13.36268164 -12.01005782 128.04048857
v 12.83503448 -11.50284250 128.55387736
v 12.21019034 -12.62479323 128.35746874
v 14.25135129 -12.98942726 126.88924904
v 12.96463216 -13.38211007 127.45903320
v 12.57121154 -14.64196724 126.87952818
v 11.87693842 -15.79196722 126.44197647
v 13.04794514 -15.15152031 126.12499631
v 12.90446218 -16.26879602 125.18183660
v 11.86768199 -17.52397898 124.66844781
v 12.97851745 -17.15934397 124.03837787
v 12.45549914 -17.93302296 123.51720828
v 11.56220192 -19.08302229 122.52154360
v 12.82577805 -18.45192572 122.12094041
v 12.04819323 -19.37052213 121.37030407
v 13.12662927 -18.92174177 120.50493180
v 12.26110261 -19.50842937 120.50493180
v 12.58509682 -19.71645773 118.77807250
v 13.68204700 -19.30975005 115.32435391
v 12.73783622 -19.81696490 117.05121320
v 14.63088663 -18.56645711 115.32435391
v 14.72808490 -18.76046125 111.08305047
v 15.63063854 -17.76239338 115.32435391
v 14.94562313 0.02987658 129.77318347
v 14.71882718 0.02987658 129.86652221
v 14.06621119 -1.23933060 130.11544609
v 12.90446218 -2.96666719 130.37796580
v 12.99703158 -4.64725561 130.21267523
v 12.48789856 -6.41900311 130.14461381
v 12.19630377 -7.53627915 130.05320998
v 11.79825429 -8.68627848 129.92486278
v 15.69543739 -17.81615270 113.59749461
v 16.17679985 -17.52631528 111.08305047
v -22.60989229 -7.62977484 111.08305047
v -22.59137687 -7.57367730 111.87063532
v -22.48492089 -7.26747839 116.09832750
v -22.70709056 -6.58262089 115.44298025
v -22.69783284 -6.30680802 117.05121320
v -23.17919273 -4.69400346 115.32435391
v -23.36896297 -2.96666719 117.05121320
v -23.52632865 -1.23933060 117.05121320
v -23.35507898 -1.23933060 118.77807250
v -23.37358926 0.02987658 118.77807250
v 11.20580829 -9.92977400 129.77512867
v 11.17803772 -11.60101320 129.21312016
v 11.05769775 -13.24887833 128.53637571
v 10.40045290 -14.24928443 128.30884902
v 11.55294549 -13.77479288 128.03076772
v 11.14100944 -15.02062582 127.40264298
v 11.29837898 -16.85781992 125.77107277
v 10.72907532 -16.18932455 126.77451310
v 10.71518940 -17.88393752 125.10016392
v 11.14100944 -18.48464934 123.92364193
v 10.40970997 -19.42194514 123.17883605
v 11.06232532 -19.59491230 122.05871458
v 8.61385782 -21.10720906 121.39364133
v 9.78023569 -20.85009526 120.50493180
v 11.17803772 -20.12783930 120.50493180
v 10.15514281 -21.02072483 119.16116890
v 11.02066947 -20.63972931 118.66139136
v 10.34491113 -21.10954664 118.00992936
v 11.27523598 -20.67946440 117.05121320
v 13.73758941 -19.34714885 114.10505295
v 12.82114920 -19.87072550 115.32435391
v 11.37243425 -20.73322500 115.32435391
v 11.46500365 -20.78231043 113.59749461
v 15.78337922 -17.89796175 111.08305047
v 13.78850297 -19.37987247 112.95381342
v 14.25597886 -19.12977014 111.08305047
v 14.08472533 0.02987658 130.12127140
v 12.90446218 -1.23933060 130.45380803
v 11.17803772 -2.96666719 130.74745094
v 11.17803772 -4.69400346 130.64827660
v 11.17803772 -6.41900311 130.47715043
v 11.20580829 -8.12530304 130.20489443
v 10.64576234 -9.39217264 130.09404889
v -22.29978208 -8.49461193 111.08305047
v -22.24424095 -8.01544554 115.44298025
v -22.10075927 -8.14633970 117.05121320
v -22.45715290 -7.16930752 117.05121320
v -23.08662590 -4.69400346 117.05121320
v -22.61451858 -6.00294638 118.77807250
v -23.19770816 -2.96666719 118.77807250
v -22.99868535 -1.23933060 120.50493180
v -23.01719562 0.02987658 120.50493180
v 10.11348697 -10.54217213 129.94820004
v 9.50252682 -11.60568805 129.76151227
v 9.45161326 -13.32367527 129.08477296
v 9.45161326 -14.54847154 128.47998034
v 8.28986425 -15.75690601 128.17078097
v 9.45161326 -15.41097105 127.93547863
v 9.77560747 -17.34166148 126.25140345
v 9.29887387 -16.77133633 126.97675732
v 8.62311489 -17.65954735 126.56254802
v 9.29887387 -18.12001434 125.67772374
v 8.49351720 -19.32844945 124.76373689
v 9.45161326 -19.09003505 124.41175341
v 9.45161326 -19.65334808 123.54832119
v 9.29424501 -20.48078637 122.07232584
v 8.91933789 -21.23810354 120.50493180
v 7.72518945 -20.88281888 122.62655354
v 7.72518945 -21.26848958 121.76312647
v 7.72518945 -21.69155778 120.50493180
v 7.72518945 -22.07255331 118.77807250
v 9.52566918 -21.37367191 118.66139136
v 9.45161326 -21.57235122 117.05121320
v 10.40970997 -21.14227026 117.05121320
v 12.90446218 -20.06005447 111.08305047
v 11.59460134 -20.85477043 111.08305047
v 12.33053031 -20.40832637 111.08305047
v 10.50690759 -21.19369199 115.32435391
v 13.40896635 -19.73281954 111.08305047
v 13.86255824 -19.43596937 111.08305047
v 12.90446218 0.02987658 130.46353403
v 11.17803772 -1.23933060 130.79412545
v 9.45161326 -4.69400346 130.86996768
v 9.45161326 -6.41900311 130.76884814
v 9.45161326 -8.14633970 130.57437957
v 9.50252682 -9.92977400 130.23406215
v -22.23035695 -8.31229507 113.59749461
v -21.71659250 -9.87367645 111.08305047
v -21.67493536 -9.87367645 111.87063532
v -21.48979784 -9.87367645 115.32435391
v -21.92024674 -8.14633970 118.77807250
v -21.38797200 -9.87367645 117.05121320
v -22.36458092 -6.86544588 118.77807250
v -22.91537108 -4.69400346 118.77807250
v -22.53120945 -5.71077137 119.79707443
v -22.60989229 -4.52337389 120.42519917
v -22.84131452 -2.96666719 120.50493180
v -22.54509345 -2.96666719 121.50837213
v -22.62377629 -1.23933060 121.70284070
v -22.73485855 0.02987658 121.40919779
v 8.96099438 -11.03302565 130.08821329
v 8.17415185 -12.18302531 129.91125152
v 7.65113354 -13.20680533 129.63316507
v 7.72056059 -15.13048332 128.70167142
v 7.14200051 -16.04440584 128.35941394
v 7.72056059 -16.68251517 127.67489383
v 7.72518945 -17.84887632 126.73756458
v 7.84090121 -18.82123461 125.64855603
v 7.34102525 -19.55050204 125.04959900
v 7.84090121 -19.99928240 124.09477324
v 6.74857925 -21.06046121 123.02132114
v 6.10522033 -21.53261485 122.35819309
v 5.99876499 -22.23617141 120.50493180
v 7.72518945 -22.25253322 117.05121320
v 5.92933794 -22.62184211 118.80334981
v 6.35515798 -22.68728935 117.05121320
v 9.45161326 -21.67285839 115.32435391
v 11.12712416 -21.10253389 111.08305047
v 9.45161326 -21.85751347 111.87063532
v 9.45161326 -21.89958615 111.08305047
v 10.12737225 -21.58871303 111.08305047
v 10.69204705 -21.28718897 111.87063532
v 12.44624271 0.02987658 130.55299266
v 11.17803772 0.02987658 130.79801586
v 10.71981826 0.02987658 130.83496437
v 9.45161326 -1.23933060 130.92831340
v 9.45161326 -2.96666719 130.91275180
v 7.72518945 -6.41900311 130.90497100
v 7.72518945 -8.14633970 130.79607065
v 7.72518945 -9.87367645 130.56270837
v -21.04546366 -11.24572886 111.08305047
v -20.97603724 -11.12184681 113.59749461
v -20.87883898 -10.94654191 117.05121320
v -21.54071140 -8.14633970 120.50493180
v -21.13340549 -10.00690820 118.83446787
v -20.73072716 -10.67306646 119.44898135
v -20.98992253 -9.49969288 120.50493180
v -20.81866899 -10.84369635 118.29774182
v -22.16555811 -6.33953164 120.42519917
v -22.36458092 -4.98384088 120.94831396
v -22.48955232 -3.83384154 121.36835887
v -22.17944211 -2.96666719 122.37180435
v -22.26275637 -1.23933060 122.56626777
v -22.63303400 0.02987658 121.72812316
v -22.36921235 0.02987658 122.36207835
v 7.65113354 -11.60568805 130.18350752
v 7.02628811 -12.55233387 130.03182307
v 5.99876499 -13.65558568 129.79846078
v 5.99876499 -15.05101186 129.15866999
v 5.99876499 -16.25944632 128.49553679
v 5.99876499 -17.12194647 127.88685891
v 5.99876499 -18.17377494 127.02343184
v 5.99876499 -19.03627445 126.18722728
v 6.10522033 -20.70751414 123.92169673
v 5.99876499 -19.77255463 125.32380020
v 5.60071552 -21.22641562 123.32468491
v 4.27234054 -22.02580546 122.22790069
v 4.33713938 -22.62885487 120.48937019
v 4.95272774 -22.78779780 119.39453118
v 7.72518945 -22.35070409 115.32435391
v 6.53566923 -22.73637479 115.32435391
v 6.70692276 -22.78078505 113.59749461
v 5.30912073 -22.86726927 118.24329165
v 5.49426018 -22.91401712 117.05121320
v 10.73370354 -21.30822467 111.08305047
v 8.72957022 -22.18241210 111.08305047
v 9.45161326 0.02987658 130.93025860
v 7.72518945 -2.96666719 130.94970031
v 7.72518945 -4.69400346 130.94191951
v 5.99876499 -6.41900311 130.94386471
v 5.99876499 -8.14633970 130.90108060
v 5.99876499 -9.87367645 130.75134134
v 5.99876499 -11.60101320 130.43047592
v -20.77701186 -11.71788314 111.08305047
v -20.48541707 -11.98434632 113.59749461
v -20.43450480 -11.90020000 115.32435391
v -20.38359124 -11.80904157 117.05121320
v -21.49442669 -6.41900311 122.22790069
v -20.82792542 -9.15375823 121.51809813
v -20.98992253 -8.02245765 122.14816806
v -20.36044824 -11.49115554 118.83446787
v -19.42086632 -13.03150058 118.77807250
v -19.21258451 -12.72296409 120.50493180
v -19.89297107 -11.60101320 120.50493180
v -20.57798776 -10.36452996 120.50493180
v -22.04521814 -4.52337389 122.05676938
v -21.16580491 -4.69400346 123.77390267
v -21.24448904 -3.08587375 124.11616530
v -22.27201409 0.02987658 122.59155023
v -21.52682611 -1.23933060 123.95475484
v -21.74436564 0.02987658 123.58721490
v 5.99876499 -12.79308586 130.11155569
v 4.27234054 -13.99684580 129.93264358
v 4.27234054 -15.05101186 129.45036770
v 4.27234054 -16.51889706 128.65500205
v 4.27234054 -17.38373415 128.08715794
v 4.10571522 -18.60151832 127.09149327
v 4.57319208 -19.24196523 126.41086356
v 4.27234054 -20.85710673 124.44481152
v 4.10571522 -19.87072550 125.77495802
v 4.27234054 -21.37600950 123.58138445
v 2.54591624 -22.28993202 122.22790069
v 2.54591624 -22.73637479 121.07082556
v 3.80023515 -22.89298014 119.90597477
v 4.33713938 -22.98180066 118.80334981
v 6.81337809 -22.80883350 112.48514880
v 7.11422931 -22.78312263 111.08305047
v 7.71593238 -22.57509427 111.08305047
v 5.67477078 -22.96076496 115.32435391
v 6.07744912 -23.07062247 111.08305047
v 4.27234054 -23.16411816 117.05121320
v 4.27234054 -23.25761385 115.32435391
v 4.27234054 -23.43058101 111.87063532
v 8.99339380 0.02987658 130.93608391
v 7.72518945 0.02987658 130.94970031
v 5.99876499 -4.69400346 130.94970031
v 4.27234054 -6.41900311 130.94970031
v 2.54591624 -8.14633970 130.94775511
v 4.27234054 -8.14633970 130.93802911
v 2.54591624 -9.87367645 130.89524499
v 4.27234054 -9.87367645 130.85052597
v 4.27234054 -11.60101320 130.59965688
v 4.27234054 -13.13434597 130.21462043
v -20.55484477 -12.10822837 111.08305047
v -19.57360571 -13.25822802 115.32435391
v -19.51806458 -13.17875656 117.05121320
v -20.79089714 -7.36564893 123.14577794
v -20.93900897 -6.41900311 123.39664188
v -19.05984512 -12.50091118 121.42280904
v -19.32366806 -11.51686689 122.08982749
v -20.22159413 -9.78719287 122.14816806
v -20.56410120 -8.51798585 122.66933766
v -18.93024743 -14.04125606 117.05121320
v -18.81916389 -13.89633735 118.77807250
v -18.59699680 -13.58780118 120.50493180
v -20.64278661 -4.69400346 124.63733490
v -20.74924130 -3.74268279 124.80068541
v -20.82792542 -2.59034555 124.90958575
v -21.54534025 0.02987658 123.95475484
v -20.88809541 -1.23933060 124.98931838
v -21.06860665 0.02987658 124.73067878
v 3.26333124 -14.16046326 129.98903895
v 2.63385744 -14.91777979 129.69150564
v 2.54591624 -16.69887698 128.75806679
v 2.54591624 -17.56137648 128.21551029
v 3.42069949 -19.37052213 126.54893676
v 2.54591624 -20.99968785 124.67039301
v 2.54591624 -21.51157787 123.80696079
v 0.81949187 -22.42082650 122.22790069
v 0.81949187 -22.80182203 121.29835224
v 2.54591624 -22.97712677 120.20934369
v 2.54591624 -23.25060238 118.77807250
v 2.54591624 -23.42123196 117.05121320
v 6.92908985 -22.84389470 111.08305047
v 6.72080804 -22.89999289 111.08305047
v 4.27234054 -23.46797980 111.08305047
v 2.54591624 -23.51239006 115.32435391
v 2.54591624 -23.59887429 113.59749461
v 2.54591624 -23.72275602 111.08305047
v 3.48549833 -23.58485006 111.08305047
v -7.81263001 0.02987658 130.94970031
v 0.81949187 -8.14633970 130.94970031
v 0.81949187 -9.87367645 130.91080660
v 2.54591624 -11.60101320 130.69689632
v 0.81949187 -11.60101320 130.73773523
v 2.63385744 -13.48028062 130.23406215
v -20.21233642 -12.64115504 111.08305047
v -19.51806458 -13.48495579 113.62666747
v -19.05521626 -14.21422354 113.07049456
v -18.98578856 -14.12072753 115.32435391
v -19.77263109 -13.32367527 111.08305047
v -20.10125287 -8.02245765 123.81474159
v -20.40673295 -6.41900311 124.26006896
v -18.76825033 -12.03576901 122.57404857
v -17.49078891 -14.40822736 121.72034235
v -18.12951962 -13.26524014 122.14622286
v -19.12001510 -10.88576967 123.23134102
v -19.31903920 -9.70772124 123.86530136
v -18.10637662 -15.05101186 117.05121320
v -17.31490652 -15.92052412 117.94575834
v -17.83329597 -15.15385725 118.62444284
v -17.20382298 -15.79897869 119.09699787
v -17.73147014 -14.69806478 120.50493180
v -19.54120629 -6.41900311 125.43464574
v -19.68006169 -4.73607678 125.82163254
v -19.12001510 -4.18912556 126.63060944
v -20.21696528 -3.08587375 125.56493814
v -20.17993700 -1.23933060 125.85274545
v -20.19382357 0.02987658 125.86830191
v -20.89735312 0.02987658 125.00487483
v 2.11546734 -14.25162201 130.02598746
v 0.81949187 -15.17021906 129.67011358
v 0.89817607 -16.94664172 128.70945222
v 1.52764987 -17.63383648 128.26607006
v 2.54591624 -18.50334745 127.41236384
v 2.54591624 -19.42662031 126.60532699
v 2.54591624 -20.19328654 125.68161414
v 0.81949187 -21.06981027 124.77929335
v 0.81949187 -21.57702511 123.91586627
v -0.90230397 -21.57702511 123.91586627
v -0.90230397 -22.41848892 122.22790069
v 0.81949187 -23.03789884 120.43686522
v -0.90230397 -22.79948444 121.29251664
v -0.90230397 -23.03789884 120.43103477
v 0.81949187 -23.37682170 118.77807250
v 0.81949187 -23.54745127 117.05121320
v 0.81949187 -23.63860938 115.32435391
v 0.81949187 -23.72509360 113.59749461
v 0.81949187 -23.84897533 111.08305047
v -9.53905383 0.02987658 130.92831340
v -7.81263001 -1.23933060 130.94970031
v -0.90230397 -8.14633970 130.94970031
v -0.90230397 -9.87367645 130.91080660
v 0.81949187 -13.32367527 130.34879809
v -0.90230397 -11.60101320 130.73773523
v -0.90230397 -13.32367527 130.35074329
v -19.46252217 -13.78180500 111.08305047
v -19.11538625 -14.29369533 111.08305047
v -18.73122205 -14.76351202 111.08305047
v -18.38408613 -15.12580815 111.87063532
v -18.22208903 -15.05101186 115.32435391
v -19.04133098 -9.02286375 124.82790792
v -19.22184094 -8.14633970 125.05154420
v -17.18067998 -14.02956942 122.87158188
v -17.61575774 -12.87956976 123.53470993
v -16.98628345 -15.56056428 120.50493180
v -15.83379215 -16.16127610 121.80396538
v -16.50492228 -15.11879668 122.33680103
v -18.17117547 -11.59867578 123.95864524
v -18.73122205 -10.17520083 124.38258055
v -17.34730594 -15.95792226 117.05121320
v -16.29664047 -16.98403923 117.18345080
v -15.57459678 -17.63617407 117.84852405
v -16.55583455 -16.53759646 118.62444284
v -15.47739852 -17.55202743 118.77807250
v -16.12075808 -16.44643835 120.50493180
v -18.80064975 -6.41900311 126.29807282
v -18.98116099 -5.34146248 126.48865099
v -19.22646979 -2.96666719 126.73561938
v -18.31003086 -4.73607678 127.20817441
v -17.29639238 -3.77774400 128.26607006
v -18.05083549 -3.10691073 127.72934400
v -19.31903920 -1.23933060 126.82701807
v -19.55972043 0.02987658 126.58004967
v 0.81949187 -14.30771956 130.04737438
v -0.90230397 -14.30771956 130.04931958
v -0.90230397 -15.17021906 129.67011358
v -0.96710274 -16.94430414 128.70750702
v -0.43019866 -17.65954735 128.28746211
v 0.37978598 -17.65954735 128.28746211
v 0.89817607 -18.34440452 127.68461469
v 0.81949187 -19.49907903 126.67922401
v 0.81949187 -20.33586766 125.68161414
v -0.90230397 -21.06981027 124.77929335
v -2.62872827 -21.50690398 123.80113033
v -2.62872827 -22.28058167 122.22790069
v -2.62872827 -22.73169961 121.05332390
v -2.62872827 -22.97245160 120.19183688
v -0.90230397 -23.37448411 118.77807250
v -0.90230397 -23.54511369 117.05121320
v -0.90230397 -23.63627308 115.32435391
v -0.90230397 -23.80690265 111.87063532
v -0.90230397 -23.84430145 111.08305047
v -9.53905383 -1.23933060 130.92636820
v -7.81263001 -2.96666719 130.94775511
v -11.26547893 0.02987658 130.78828985
v -6.08620556 -4.69400346 130.94970031
v -4.35515257 -6.41900311 130.94970031
v -2.62872827 -8.14633970 130.94580991
v -4.35515257 -8.14633970 130.93802911
v -2.62872827 -9.87367645 130.89331009
v -2.62872827 -11.60101320 130.69300591
v -2.69815549 -13.47560609 130.23406215
v -2.17050848 -14.25395960 130.02598746
v -18.40722784 -15.15619483 111.08305047
v -17.54633004 -16.17062516 111.08305047
v -17.40747593 -16.02336886 115.32435391
v -17.57872946 -11.16158255 125.12544123
v -18.05083549 -9.64928627 125.55132174
v -17.37044765 -9.12103461 126.60144173
v -18.45814140 -8.14633970 125.91497642
v -15.49128380 -15.82702778 122.95519977
v -15.91710385 -14.55548366 123.95475484
v -15.58385321 -14.18851235 124.82013226
v -16.82428764 -13.40314673 124.04809873
v -17.20382298 -12.30924462 124.68594946
v -15.19968901 -17.30893785 120.50493180
v -14.05182528 -17.79979089 121.67950344
v -14.77386897 -16.82743388 122.31735418
v -16.53732170 -16.88586901 115.32435391
v -15.62551034 -17.67824674 116.69728452
v -14.88495251 -18.23688460 117.18345080
v -13.63989052 -19.22092953 117.05121320
v -13.49177869 -19.11340833 118.77807250
v -14.61650072 -18.25090883 118.77807250
v -14.33879121 -18.02885623 120.50493180
v -17.59261474 -8.14633970 126.80174076
v -17.93975195 -6.41900311 127.09927407
v -18.32854371 -1.23933060 127.68850509
v -17.16679470 -4.69400346 128.17467137
v -16.30589690 -4.69400346 128.71334262
v -16.61137697 -3.10691073 128.75223634
v -17.39359065 -2.62540676 128.33607668
v -18.34243028 0.02987658 127.70211635
v -19.32829691 0.02987658 126.83868927
v -2.69815549 -14.91777979 129.68761524
v -2.62872827 -16.69186487 128.75417639
v -1.58269101 -17.63149890 128.26412485
v -0.96710274 -18.34440452 127.68266949
v -0.90230397 -19.49674144 126.67728396
v -0.90230397 -20.33586766 125.68161414
v -2.79072521 -20.02265568 125.85274545
v -2.62872827 -20.99501397 124.66455741
v -4.35515257 -21.36666044 123.56582285
v -4.35515257 -22.00710735 122.22790069
v -4.39680906 -22.61716694 120.47964934
v -3.85064808 -22.88830496 119.88847312
v -2.62872827 -23.24125204 118.77807250
v -2.62872827 -23.41188290 117.05121320
v -2.62872827 -23.50537860 115.32435391
v -2.62872827 -23.71574455 111.08305047
v -1.68914619 -23.78586567 111.08305047
v -11.26547893 -1.23933060 130.78246454
v -9.53905383 -2.96666719 130.90886140
v -7.81263001 -4.69400346 130.93997431
v -12.99190338 0.02987658 130.44020192
v -6.08620556 -6.41900311 130.94191951
v -6.08620556 -8.14633970 130.89913540
v -4.35515257 -9.87367645 130.84663557
v -4.35515257 -11.60101320 130.59383157
v -4.35515257 -13.11798416 130.20878483
v -3.31837238 -14.15111388 129.98709375
v -16.69006110 -17.03312466 111.08305047
v -16.54194927 -11.73424495 125.78468403
v -17.02794059 -10.27337154 126.27668076
v -15.88007685 -11.15690770 126.78812950
v -16.44937987 -9.76849364 127.02343184
v -15.45425552 -8.78678661 128.19411823
v -16.37532460 -8.18373817 127.73906486
v -13.66303351 -17.49359166 122.83074297
v -14.34342007 -16.34359232 123.65528148
v -13.83891590 -15.90416230 124.80652101
v -14.83866781 -15.51147885 124.12005570
v -14.71832655 -14.61158120 125.20906426
v -13.77874463 -14.11371541 126.48865099
v -14.81552482 -13.45223217 126.10554945
v -15.45888438 -12.30690736 126.44197647
v -15.93561798 -13.32367527 125.17406095
v -12.97338924 -18.97783996 120.65078065
v -12.10323373 -19.35182273 121.32168950
v -13.04744451 -18.23688460 122.24540235
v -15.73659389 -17.77875519 113.59749461
v -14.68129956 -18.79084729 111.08305047
v -14.71832655 -18.49633598 115.32435391
v -13.72320350 -19.27702643 115.32435391
v -12.77899272 -19.78891644 117.05121320
v -12.62625204 -19.69074558 118.77807250
v -12.39019966 -19.53647782 120.17239517
v -16.87519991 -6.41900311 127.96270114
v -17.46764591 -1.23933060 128.38663645
v -16.00967454 -6.41900311 128.54415651
v -14.71832655 -6.41900311 129.23839747
v -14.57021602 -4.60050777 129.62732947
v -14.85718195 -2.96666719 129.68956044
v -16.44475101 -1.23933060 128.99725953
v -17.47690363 0.02987658 128.39636245
v -4.35515257 -15.05101186 129.43870164
v -4.35515257 -16.50954801 128.64916645
v -2.62872827 -17.55436501 128.21161988
v -2.32324836 -19.44064454 126.62088859
v -2.79072521 -18.67631590 127.23345687
v -3.47574063 -19.36584824 126.54310116
v -4.35515257 -19.98525817 125.57271380
v -4.35515257 -20.84775767 124.42925507
v -5.65575666 -21.21706656 123.30912845
v -6.17414675 -21.51625304 122.34846709
v -6.08620556 -22.21279813 120.50493180
v -5.00314034 -22.77844746 119.34591146
v -4.39680906 -22.97245160 118.77418210
v -4.35515257 -23.15243152 117.05121320
v -4.35515257 -23.24358963 115.32435391
v -4.35515257 -23.45629316 111.08305047
v -11.26547893 -2.96666719 130.73384483
v -9.53905383 -4.69400346 130.86218688
v -12.99190338 -1.23933060 130.43242112
v -7.81263001 -6.41900311 130.90108060
v -14.13050940 0.02987658 130.10572009
v -6.08620556 -9.87367645 130.74357083
v -7.81263001 -8.14633970 130.78828985
v -6.08620556 -11.60101320 130.42074992
v -4.35515257 -13.98282125 129.92680798
v -6.08620556 -12.77438678 130.10572009
v -16.29664047 -17.40944630 111.08305047
v -14.69055599 -11.56828958 127.40652823
v -13.92685645 -10.82733470 128.31468462
v -15.10711961 -9.87367645 127.96270114
v -14.24622181 -9.87367645 128.49359674
v -14.81552482 -8.18373817 128.73667988
v -15.75973560 -7.63444969 128.38663645
v -12.51054092 -17.91432356 123.49192582
v -13.17704220 -16.92326716 124.14922341
v -11.92272249 -17.50527958 124.64316535
v -12.69105088 -16.35294266 125.26935003
v -11.93198020 -15.77093024 126.42058442
v -13.23258333 -15.26137781 125.87997311
v -12.62625204 -14.61859331 126.86396658
v -13.02430280 -13.35639889 127.44347675
v -14.30639179 -12.96137849 126.87174738
v -11.42284718 -19.95019697 120.65078065
v -9.83527683 -20.83139586 120.50493180
v -8.67815603 -21.09552113 121.37030407
v -10.86742945 -19.63231110 122.22790069
v -11.73295482 -19.12977014 122.22790069
v -15.82453444 -17.86056424 111.08305047
v -14.26473594 -19.12042108 111.08305047
v -13.84354347 -19.35883549 112.60182994
v -12.86230570 -19.84267705 115.32435391
v -11.51078773 -20.75893715 113.59749461
v -11.42284718 -20.70751414 115.32435391
v -11.32564891 -20.65375353 117.05121320
v -10.40458048 -21.09785872 117.93214194
v -11.09422411 -20.61168086 118.61472199
v -10.21481281 -21.00903819 119.08338147
v -16.44475101 0.02987658 129.01282113
v -12.89007626 -8.09257974 129.65455713
v -13.38995286 -6.41900311 129.83151889
v -13.68617522 -5.11239778 129.94236444
v -13.89445703 -3.96239844 130.01626146
v -13.99628415 -2.96666719 130.05515518
v -14.97752192 -1.23933060 129.74595581
v -6.08620556 -13.63922387 129.79068513
v -6.08620556 -15.05101186 129.14116833
v -4.35515257 -17.37204751 128.07938229
v -6.08620556 -16.24308451 128.48581594
v -4.35515257 -18.40050271 127.21595521
v -4.35515257 -19.26533979 126.43614602
v -6.08620556 -19.76086799 125.30629855
v -6.17414675 -20.69348991 123.91392107
v -6.80824860 -21.05344846 123.00381948
v -7.81263001 -21.25446535 121.73395361
v -7.81263001 -21.66584692 120.50493180
v -7.81263001 -22.04216727 118.77807250
v -5.99826436 -22.60781789 118.77418210
v -5.36879040 -22.86025651 118.19467193
v -5.54004426 -22.90466678 117.05121320
v -5.71592664 -22.95141462 115.32435391
v -5.14199478 -23.28098842 111.08305047
v -11.26547893 -4.69400346 130.63272529
v -12.99190338 -2.96666719 130.35463369
v -9.53905383 -6.41900311 130.75912214
v -14.11199526 -1.23933060 130.09988449
v -14.99140720 0.02987658 129.75373661
v -7.81263001 -9.87367645 130.54910226
v -9.53905383 -8.14633970 130.56077346
v -7.72005996 -11.59166367 130.17378152
v -7.08595811 -12.54064691 130.02793266
v -13.42235228 -11.97499694 128.02298691
v -12.26985969 -12.60141930 128.34579754
v -12.90396155 -11.48180600 128.53054525
v -12.99190338 -9.87367645 129.09838422
v -10.47400754 -19.40792092 123.15744399
v -11.19605123 -18.46594995 123.90030467
v -11.35341948 -16.83912052 125.74968071
v -10.77023054 -17.86757571 125.07877186
v -10.78411647 -16.17062516 126.75895664
v -11.19605123 -14.99958884 127.38708138
v -11.60798599 -13.75141896 128.01520611
v -8.96975082 -21.22407803 120.50493180
v -9.36780030 -20.45974939 122.05871458
v -7.81263001 -20.86879466 122.59738583
v -13.90371346 -19.40558333 111.08305047
v -13.88982817 -19.39389669 111.45059041
v -13.53806340 -19.64633532 111.08305047
v -13.15852806 -19.84501463 111.96397920
v -12.23283142 -20.46676215 111.08305047
v -11.64038541 -20.82905828 111.08305047
v -11.59872956 -20.80802130 111.87063532
v -12.93636097 -19.89410006 113.59749461
v -10.55732052 -21.17733018 115.32435391
v -10.46012226 -21.12590845 117.05121320
v -9.53905383 -21.53729002 117.05121320
v -9.59922446 -21.35263493 118.61472199
v -11.85329608 -8.63251852 129.91514192
v -12.25134555 -7.48018160 130.04154907
v -12.52442621 -6.41900311 130.12905220
v -13.06132979 -4.60050777 130.19711363
v -7.72005996 -13.19979322 129.61955381
v -7.78948766 -15.12113427 128.68806016
v -7.19704166 -16.03271920 128.34968794
v -6.08620556 -17.10792160 127.87519286
v -6.08620556 -18.15975072 127.01176064
v -6.08620556 -19.02225022 126.16972562
v -7.39606640 -19.54115299 125.03793295
v -7.90519942 -19.98292059 124.08310719
v -9.53905383 -19.63464868 123.51720828
v -7.81263001 -22.22214719 117.05121320
v -6.40094206 -22.67326513 117.05121320
v -6.58145330 -22.72235056 115.32435391
v -5.87792375 -22.99582617 113.59749461
v -6.15563261 -23.04958548 111.08305047
v -11.26547893 -6.41900311 130.45380803
v -9.57145325 -9.91107492 130.22240124
v -9.01603552 -11.01198899 130.08237769
v -11.27473535 -8.09257974 130.18934312
v -10.70080349 -9.35944902 130.08626809
v -8.23845006 -12.16198865 129.90347072
v -10.46012226 -14.23058535 128.29912817
v -11.12662353 -13.23485410 128.51692885
v -11.26547893 -11.60101320 129.18006205
v -11.27473535 -9.91107492 129.75567667
v -9.53905383 -19.06666048 124.38063535
v -9.83527683 -17.32296208 126.23001139
v -8.54393013 -19.31442523 124.74429004
v -9.37242851 -18.09430348 125.66605768
v -8.68741310 -17.64786071 126.55087681
v -9.37242851 -16.75964905 126.95537041
v -9.53905383 -15.38525954 127.91797697
v -13.07521508 -19.94785938 111.08305047
v -10.77948761 -21.29186286 111.08305047
v -9.53905383 -21.86452494 111.08305047
v -9.53905383 -21.82245227 111.87063532
v -9.53905383 -21.63779847 115.32435391
v -9.53905383 -13.32367527 129.05560010
v -8.34953360 -15.74054420 128.16300017
v -9.53905383 -14.52276003 128.46442388
v -7.78948766 -16.67550306 127.65739218
v -7.81263001 -17.83251451 126.72200813
v -7.90519942 -18.80019763 125.64077522
v -7.81263001 -22.32031805 115.32435391
v -6.74345040 -22.76676082 113.59749461
v -6.97024571 -22.82987048 111.15305710
v -6.97487457 -22.82987048 111.08305047
v -10.16852811 -10.51178594 129.94041923
v -9.57145325 -11.59166367 129.74595581
v -7.76171645 -22.55873245 111.08305047
f 1 2 3
f 1 3 4
f 1 4 5
f 1 5 6
f 1 6 7
f 1 7 15
f 1 15 26
f 1 26 40
f 1 40 55
f 1 55 54
f 1 54 53
f 1 53 58
f 1 58 57
f 1 57 77
f 1 77 76
f 1 76 102
f 1 102 124
f 1 124 150
f 1 150 149
f 1 149 181
f 1 181 213
f 1 213 256
f 1 256 300
f 1 300 342
f 1 342 390
f 1 390 434
f 1 434 435
f 1 435 479
f 1 479 481
f 1 481 529
f 1 529 531
f 1 531 580
f 1 580 579
f 1 579 634
f 1 634 695
f 1 695 694
f 1 694 756
f 1 756 814
f 1 814 842
f 1 842 777
f 1 777 716
f 1 716 656
f 1 656 600
f 1 600 551
f 1 551 505
f 1 505 504
f 1 504 457
f 1 457 415
f 1 415 414
f 1 414 413
f 1 413 371
f 1 371 327
f 1 327 282
f 1 282 281
f 1 281 240
f 1 240 239
f 1 239 201
f 1 201 166
f 1 166 134
f 1 134 113
f 1 113 87
f 1 87 86
f 1 86 85
f 1 85 66
f 1 66 65
f 1 65 47
f 1 47 33
f 1 33 20
f 1 20 16
f 1 16 8
f 1 8 2
f 2 8 11
f 2 11 3
f 3 9 10
f 3 10 4
f 3 11 17
f 3 17 9
f 4 10 12
f 4 12 5
f 5 12 13
f 5 13 6
f 6 13 24
f 6 24 38
f 6 38 51
f 6 51 72
f 6 72 94
f 6 94 98
f 6 98 122
f 6 122 121
f 6 121 147
f 6 147 178
f 6 178 177
f 6 177 209
f 6 209 208
f 6 208 247
f 6 247 250
f 6 250 249
f 6 249 290
f 6 290 324
f 6 324 279
f 6 279 326
f 6 326 370
f 6 370 369
f 6 369 365
f 6 365 367
f 6 367 366
f 6 366 408
f 6 408 455
f 6 455 411
f 6 411 410
f 6 410 456
f 6 456 498
f 6 498 497
f 6 497 544
f 6 544 545
f 6 545 500
f 6 500 546
f 6 546 550
f 6 550 549
f 6 549 599
f 6 599 653
f 6 653 712
f 6 712 711
f 6 711 772
f 6 772 837
f 6 837 890
f 6 890 922
f 6 922 925
f 6 925 910
f 6 910 909
f 6 909 866
f 6 866 865
f 6 865 908
f 6 908 863
f 6 863 861
f 6 861 805
f 6 805 743
f 6 743 804
f 6 804 783
f 6 783 723
f 6 723 666
f 6 666 665
f 6 665 609
f 6 609 608
f 6 608 607
f 6 607 561
f 6 561 557
f 6 557 514
f 6 514 464
f 6 464 421
f 6 421 378
f 6 378 334
f 6 334 291
f 6 291 251
f 6 251 211
f 6 211 179
f 6 179 148
f 6 148 123
f 6 123 101
f 6 101 100
f 6 100 99
f 6 99 75
f 6 75 56
f 6 56 39
f 6 39 25
f 6 25 14
f 6 14 15
f 6 15 7
f 8 16 11
f 9 17 18
f 9 18 10
f 10 18 19
f 10 19 12
f 11 16 20
f 11 20 21
f 11 21 27
f 11 27 17
f 12 19 32
f 12 32 22
f 12 22 23
f 12 23 13
f 13 23 24
f 14 25 15
f 15 25 26
f 17 27 28
f 17 28 29
f 17 29 18
f 18 29 30
f 18 30 31
f 18 31 32
f 18 32 19
f 20 33 34
f 20 34 21
f 21 34 35
f 21 35 27
f 22 32 36
f 22 36 23
f 23 36 37
f 23 37 24
f 24 37 38
f 25 39 40
f 25 40 26
f 27 35 41
f 27 41 28
f 28 41 42
f 28 42 43
f 28 43 29
f 29 43 30
f 30 43 44
f 30 44 45
f 30 45 31
f 31 45 32
f 32 45 46
f 32 46 36
f 33 47 34
f 34 47 65
f 34 65 48
f 34 48 49
f 34 49 35
f 35 49 41
f 36 46 50
f 36 50 38
f 36 38 37
f 38 50 52
f 38 52 51
f 39 53 54
f 39 54 55
f 39 55 40
f 39 56 57
f 39 57 58
f 39 58 53
f 41 49 59
f 41 59 42
f 42 59 60
f 42 60 61
f 42 61 43
f 43 61 62
f 43 62 44
f 44 62 63
f 44 63 45
f 45 63 64
f 45 64 46
f 46 64 50
f 48 65 66
f 48 66 67
f 48 67 68
f 48 68 49
f 49 68 69
f 49 69 59
f 50 64 70
f 50 70 52
f 51 71 72
f 51 52 71
f 52 70 73
f 52 73 74
f 52 74 71
f 56 75 76
f 56 76 77
f 56 77 57
f 59 69 78
f 59 78 60
f 60 62 61
f 60 78 79
f 60 79 80
f 60 80 62
f 62 80 81
f 62 81 82
f 62 82 63
f 63 82 83
f 63 83 84
f 63 84 70
f 63 70 64
f 66 85 67
f 67 85 86
f 67 86 87
f 67 87 88
f 67 88 89
f 67 89 68
f 68 89 90
f 68 90 69
f 69 90 91
f 69 91 78
f 70 84 92
f 70 92 73
f 71 74 93
f 71 93 72
f 72 93 94
f 73 92 95
f 73 95 96
f 73 96 74
f 74 96 97
f 74 97 98
f 74 98 93
f 75 99 76
f 76 99 100
f 76 100 101
f 76 101 102
f 78 91 103
f 78 103 79
f 79 103 104
f 79 104 105
f 79 105 80
f 80 105 81
f 81 105 106
f 81 106 107
f 81 107 108
f 81 108 82
f 82 108 83
f 83 108 109
f 83 109 110
f 83 110 111
f 83 111 112
f 83 112 92
f 83 92 84
f 87 113 114
f 87 114 88
f 88 114 89
f 89 114 115
f 89 115 90
f 90 115 116
f 90 116 117
f 90 117 91
f 91 117 118
f 91 118 119
f 91 119 103
f 92 112 95
f 93 98 94
f 95 112 111
f 95 111 120
f 95 120 96
f 96 120 97
f 97 120 121
f 97 121 122
f 97 122 98
f 101 123 124
f 101 124 102
f 103 119 125
f 103 125 104
f 104 125 126
f 104 126 127
f 104 127 105
f 105 127 128
f 105 128 106
f 106 128 107
f 107 128 129
f 107 129 130
f 107 130 108
f 108 130 109
f 109 130 110
f 110 130 131
f 110 131 132
f 110 132 111
f 111 132 133
f 111 133 120
f 113 134 135
f 113 135 114
f 114 135 136
f 114 136 115
f 115 136 116
f 116 118 117
f 116 136 137
f 116 137 138
f 116 138 139
f 116 139 118
f 118 139 140
f 118 140 141
f 118 141 142
f 118 142 119
f 119 142 125
f 120 133 143
f 120 143 144
f 120 144 145
f 120 145 121
f 121 145 146
f 121 146 147
f 123 148 149
f 123 149 150
f 123 150 124
f 125 142 151
f 125 151 126
f 126 151 152
f 126 152 153
f 126 153 154
f 126 154 155
f 126 155 127
f 127 155 128
f 128 155 156
f 128 156 157
f 128 157 129
f 129 157 158
f 129 158 159
f 129 159 130
f 130 159 160
f 130 160 131
f 131 160 161
f 131 161 132
f 132 161 162
f 132 162 163
f 132 163 164
f 132 164 133
f 133 164 165
f 133 165 143
f 134 166 135
f 135 166 167
f 135 167 136
f 136 167 137
f 137 167 168
f 137 168 138
f 138 168 169
f 138 169 170
f 138 170 140
f 138 140 139
f 140 170 171
f 140 171 172
f 140 172 141
f 141 172 173
f 141 173 142
f 142 173 151
f 143 174 147
f 143 147 146
f 143 146 145
f 143 145 144
f 143 165 175
f 143 175 176
f 143 176 177
f 143 177 174
f 147 174 178
f 148 179 149
f 149 180 181
f 149 179 180
f 151 173 152
f 152 182 183
f 152 183 184
f 152 184 185
f 152 185 186
f 152 186 153
f 152 173 182
f 153 186 154
f 154 186 187
f 154 187 188
f 154 188 155
f 155 188 156
f 156 188 157
f 157 188 189
f 157 189 158
f 158 189 190
f 158 190 191
f 158 191 192
f 158 192 193
f 158 193 160
f 158 160 159
f 160 193 194
f 160 194 195
f 160 195 161
f 161 195 162
f 162 195 196
f 162 196 197
f 162 197 198
f 162 198 164
f 162 164 163
f 164 199 165
f 164 198 200
f 164 200 199
f 165 199 175
f 166 201 202
f 166 202 167
f 167 202 168
f 168 202 169
f 169 202 203
f 169 203 204
f 169 204 205
f 169 205 170
f 170 205 206
f 170 206 171
f 171 206 207
f 171 207 172
f 172 182 173
f 172 207 182
f 174 177 178
f 175 199 176
f 176 208 209
f 176 209 177
f 176 199 210
f 176 210 208
f 179 211 212
f 179 212 180
f 180 212 181
f 181 212 213
f 182 207 183
f 183 207 214
f 183 214 215
f 183 215 216
f 183 216 217
f 183 217 184
f 184 217 185
f 185 217 216
f 185 216 218
f 185 218 219
f 185 219 186
f 186 219 187
f 187 219 188
f 188 219 220
f 188 220 190
f 188 190 189
f 190 219 221
f 190 221 222
f 190 222 223
f 190 223 224
f 190 224 225
f 190 225 192
f 190 192 191
f 190 220 219
f 192 194 193
f 192 225 224
f 192 224 226
f 192 226 227
f 192 227 228
f 192 228 194
f 194 228 229
f 194 229 230
f 194 230 196
f 194 196 195
f 196 230 197
f 197 230 231
f 197 231 232
f 197 232 233
f 197 233 200
f 197 200 198
f 199 200 234
f 199 234 235
f 199 235 210
f 200 233 232
f 200 232 236
f 200 236 237
f 200 237 238
f 200 238 234
f 201 239 202
f 202 239 203
f 203 239 240
f 203 240 241
f 203 241 204
f 204 241 242
f 204 242 243
f 204 243 205
f 205 243 244
f 205 244 206
f 206 214 207
f 206 244 245
f 206 245 246
f 206 246 214
f 208 210 247
f 210 235 248
f 210 248 249
f 210 249 250
f 210 250 247
f 211 251 252
f 211 252 253
f 211 253 212
f 212 253 254
f 212 254 255
f 212 255 213
f 213 255 298
f 213 298 256
f 214 246 257
f 214 257 215
f 215 257 216
f 216 258 218
f 216 257 259
f 216 259 260
f 216 260 258
f 218 258 261
f 218 261 219
f 219 261 222
f 219 222 221
f 222 262 263
f 222 263 264
f 222 264 265
f 222 265 224
f 222 224 223
f 222 261 262
f 224 265 264
f 224 264 266
f 224 266 267
f 224 267 268
f 224 268 227
f 224 227 226
f 227 229 228
f 227 268 269
f 227 269 270
f 227 270 271
f 227 271 229
f 229 271 272
f 229 272 273
f 229 273 231
f 229 231 230
f 231 273 232
f 232 273 274
f 232 274 275
f 232 275 236
f 234 238 235
f 235 238 248
f 236 276 237
f 236 275 277
f 236 277 276
f 237 276 278
f 237 278 238
f 238 278 279
f 238 279 280
f 238 280 248
f 240 281 241
f 241 281 282
f 241 282 283
f 241 283 242
f 242 283 284
f 242 284 243
f 243 284 285
f 243 285 244
f 244 285 286
f 244 286 245
f 245 286 287
f 245 287 246
f 246 287 288
f 246 288 257
f 248 280 289
f 248 289 249
f 249 289 290
f 251 291 292
f 251 292 252
f 252 292 293
f 252 293 294
f 252 294 295
f 252 295 296
f 252 296 253
f 253 296 254
f 254 296 338
f 254 338 297
f 254 297 298
f 254 298 255
f 256 298 299
f 256 299 300
f 257 288 301
f 257 301 302
f 257 302 259
f 258 262 261
f 258 260 262
f 259 302 260
f 260 302 303
f 260 303 304
f 260 304 305
f 260 305 262
f 262 305 263
f 263 305 306
f 263 306 264
f 264 307 267
f 264 267 266
f 264 306 308
f 264 308 307
f 267 269 268
f 267 307 309
f 267 309 310
f 267 310 269
f 269 310 311
f 269 311 270
f 270 272 271
f 270 311 272
f 272 274 273
f 272 311 312
f 272 312 313
f 272 313 314
f 272 314 315
f 272 315 274
f 274 315 316
f 274 316 317
f 274 317 275
f 275 317 318
f 275 318 319
f 275 319 277
f 276 320 278
f 276 277 321
f 276 321 320
f 277 319 322
f 277 322 323
f 277 323 321
f 278 320 279
f 279 324 289
f 279 289 280
f 279 320 325
f 279 325 326
f 282 327 283
f 283 327 328
f 283 328 284
f 284 329 330
f 284 330 285
f 284 328 329
f 285 330 331
f 285 331 286
f 286 331 287
f 287 332 288
f 287 331 332
f 288 332 333
f 288 333 301
f 289 324 290
f 291 334 292
f 292 334 293
f 293 334 335
f 293 335 336
f 293 336 337
f 293 337 295
f 293 295 294
f 295 338 296
f 295 337 339
f 295 339 338
f 297 338 384
f 297 384 340
f 297 340 299
f 297 299 298
f 299 340 387
f 299 387 341
f 299 341 342
f 299 342 300
f 301 333 343
f 301 343 302
f 302 343 344
f 302 344 345
f 302 345 303
f 303 345 304
f 304 308 306
f 304 306 305
f 304 345 346
f 304 346 347
f 304 347 348
f 304 348 308
f 307 308 349
f 307 349 309
f 308 348 350
f 308 350 351
f 308 351 349
f 309 349 352
f 309 352 353
f 309 353 354
f 309 354 310
f 310 354 311
f 311 354 355
f 311 355 356
f 311 356 312
f 312 356 313
f 313 357 314
f 313 356 358
f 313 358 359
f 313 359 360
f 313 360 357
f 314 316 315
f 314 357 316
f 316 357 361
f 316 361 362
f 316 362 318
f 316 318 317
f 318 362 363
f 318 363 364
f 318 364 319
f 319 364 322
f 320 321 365
f 320 365 325
f 321 323 366
f 321 366 367
f 321 367 365
f 322 364 368
f 322 368 323
f 323 368 366
f 325 365 369
f 325 369 370
f 325 370 326
f 327 371 328
f 328 371 372
f 328 372 329
f 329 372 373
f 329 373 330
f 330 373 374
f 330 374 331
f 331 374 375
f 331 375 332
f 332 375 333
f 333 376 343
f 333 375 376
f 334 336 377
f 334 377 335
f 334 378 379
f 334 379 380
f 334 380 336
f 335 377 336
f 336 381 337
f 336 380 382
f 336 382 381
f 337 383 339
f 337 381 383
f 338 339 384
f 339 383 385
f 339 385 384
f 340 384 386
f 340 386 387
f 341 387 388
f 341 388 389
f 341 389 390
f 341 390 342
f 343 376 391
f 343 391 344
f 344 391 392
f 344 392 345
f 345 392 393
f 345 393 394
f 345 394 346
f 346 394 347
f 347 351 350
f 347 350 348
f 347 394 395
f 347 395 396
f 347 396 351
f 349 351 352
f 351 396 397
f 351 397 398
f 351 398 353
f 351 353 352
f 353 398 399
f 353 399 400
f 353 400 355
f 353 355 354
f 355 400 401
f 355 401 358
f 355 358 356
f 357 360 361
f 358 401 359
f 359 401 402
f 359 402 403
f 359 403 360
f 360 403 361
f 361 404 363
f 361 363 362
f 361 403 405
f 361 405 406
f 361 406 404
f 363 404 407
f 363 407 364
f 364 407 368
f 366 368 408
f 368 407 409
f 368 409 410
f 368 410 411
f 368 411 412
f 368 412 408
f 371 413 372
f 372 413 414
f 372 414 415
f 372 415 416
f 372 416 417
f 372 417 373
f 373 417 418
f 373 418 374
f 374 418 419
f 374 419 375
f 375 419 420
f 375 420 376
f 376 420 391
f 378 421 422
f 378 422 423
f 378 423 379
f 379 423 380
f 380 423 382
f 381 424 383
f 381 382 425
f 381 425 426
f 381 426 427
f 381 427 424
f 382 423 428
f 382 428 425
f 383 424 385
f 384 385 386
f 385 424 429
f 385 429 430
f 385 430 386
f 386 430 431
f 386 431 387
f 387 431 388
f 388 431 432
f 388 432 433
f 388 433 389
f 389 434 390
f 389 433 435
f 389 435 434
f 391 420 436
f 391 436 392
f 392 436 437
f 392 437 393
f 393 437 438
f 393 438 439
f 393 439 394
f 394 439 395
f 395 439 440
f 395 440 441
f 395 441 396
f 396 441 397
f 397 441 442
f 397 442 443
f 397 443 398
f 398 443 399
f 399 444 400
f 399 443 445
f 399 445 444
f 400 444 401
f 401 444 446
f 401 446 402
f 402 446 447
f 402 447 403
f 403 447 448
f 403 448 449
f 403 449 405
f 404 450 407
f 404 406 451
f 404 451 452
f 404 452 450
f 405 449 453
f 405 453 406
f 406 453 454
f 406 454 451
f 407 450 409
f 408 412 455
f 409 450 410
f 410 450 456
f 411 455 412
f 415 457 416
f 416 457 458
f 416 458 459
f 416 459 417
f 417 459 418
f 418 459 460
f 418 460 461
f 418 461 419
f 419 461 462
f 419 462 420
f 420 462 463
f 420 463 436
f 421 464 422
f 422 464 465
f 422 465 423
f 423 465 466
f 423 466 467
f 423 467 428
f 424 468 429
f 424 427 469
f 424 469 470
f 424 470 468
f 425 428 426
f 426 471 472
f 426 472 473
f 426 473 474
f 426 474 475
f 426 475 427
f 426 428 471
f 427 475 469
f 428 467 471
f 429 468 430
f 430 468 476
f 430 476 431
f 431 476 432
f 432 476 477
f 432 477 478
f 432 478 433
f 433 479 435
f 433 478 480
f 433 480 481
f 433 481 479
f 436 463 437
f 437 463 482
f 437 482 438
f 438 482 483
f 438 483 484
f 438 484 439
f 439 484 485
f 439 485 440
f 440 485 486
f 440 486 441
f 441 486 442
f 442 486 487
f 442 487 488
f 442 488 443
f 443 488 445
f 444 445 489
f 444 489 446
f 445 488 490
f 445 490 489
f 446 489 491
f 446 491 447
f 447 491 492
f 447 492 493
f 447 493 448
f 448 493 494
f 448 494 449
f 449 494 495
f 449 495 453
f 450 452 496
f 450 496 497
f 450 497 498
f 450 498 456
f 451 454 499
f 451 499 452
f 452 499 500
f 452 500 496
f 453 495 501
f 453 501 454
f 454 501 502
f 454 502 503
f 454 503 499
f 457 504 458
f 458 504 505
f 458 505 551
f 458 551 601
f 458 601 657
f 458 657 658
f 458 658 602
f 458 602 552
f 458 552 507
f 458 507 506
f 458 506 460
f 458 460 459
f 460 506 507
f 460 507 508
f 460 508 509
f 460 509 461
f 461 509 510
f 461 510 511
f 461 511 462
f 462 511 512
f 462 512 463
f 463 512 513
f 463 513 482
f 464 514 465
f 465 514 515
f 465 515 466
f 466 515 516
f 466 516 467
f 467 516 472
f 467 472 471
f 468 470 517
f 468 517 518
f 468 518 476
f 469 475 519
f 469 519 520
f 469 520 521
f 469 521 522
f 469 522 470
f 470 522 517
f 472 516 523
f 472 523 524
f 472 524 473
f 473 524 525
f 473 525 519
f 473 519 474
f 474 519 475
f 476 518 477
f 477 518 526
f 477 526 527
f 477 527 478
f 478 527 528
f 478 528 480
f 480 529 481
f 480 528 530
f 480 530 531
f 480 531 529
f 482 513 483
f 483 513 532
f 483 532 484
f 484 532 533
f 484 533 534
f 484 534 485
f 485 534 535
f 485 535 486
f 486 535 487
f 487 535 536
f 487 536 488
f 488 536 490
f 489 490 537
f 489 537 491
f 490 536 537
f 491 537 538
f 491 538 492
f 492 538 539
f 492 539 540
f 492 540 493
f 493 541 494
f 493 540 541
f 494 541 542
f 494 542 495
f 495 542 543
f 495 543 501
f 496 544 497
f 496 500 545
f 496 545 544
f 499 503 546
f 499 546 500
f 501 543 502
f 502 543 547
f 502 547 548
f 502 548 503
f 503 548 549
f 503 549 550
f 503 550 546
f 507 552 508
f 508 552 553
f 508 553 509
f 509 553 510
f 510 554 511
f 510 553 555
f 510 555 554
f 511 554 512
f 512 554 556
f 512 556 513
f 513 556 532
f 514 557 515
f 515 558 559
f 515 559 560
f 515 560 523
f 515 523 516
f 515 557 561
f 515 561 558
f 517 522 562
f 517 562 563
f 517 563 518
f 518 563 526
f 519 564 520
f 519 525 565
f 519 565 566
f 519 566 564
f 520 564 567
f 520 567 521
f 521 567 522
f 522 567 568
f 522 568 562
f 523 560 569
f 523 569 570
f 523 570 524
f 524 570 571
f 524 571 572
f 524 572 573
f 524 573 525
f 525 573 565
f 526 563 574
f 526 574 575
f 526 575 527
f 527 575 576
f 527 576 577
f 527 577 528
f 528 577 578
f 528 578 530
f 530 578 579
f 530 579 580
f 530 580 531
f 532 556 581
f 532 581 533
f 533 581 582
f 533 582 534
f 534 582 583
f 534 583 584
f 534 584 535
f 535 584 585
f 535 585 536
f 536 585 586
f 536 586 587
f 536 587 537
f 537 587 588
f 537 588 538
f 538 588 589
f 538 589 539
f 539 589 590
f 539 590 591
f 539 591 540
f 540 592 541
f 540 591 593
f 540 593 594
f 540 594 592
f 541 592 595
f 541 595 542
f 542 595 596
f 542 596 543
f 543 596 597
f 543 597 547
f 547 597 598
f 547 598 548
f 548 598 599
f 548 599 549
f 551 600 601
f 552 602 603
f 552 603 553
f 553 603 605
f 553 605 555
f 554 555 604
f 554 604 556
f 555 605 606
f 555 606 604
f 556 604 581
f 558 561 607
f 558 607 608
f 558 608 559
f 559 608 609
f 559 609 610
f 559 610 611
f 559 611 560
f 560 611 569
f 562 568 612
f 562 612 613
f 562 613 563
f 563 613 574
f 564 566 614
f 564 614 615
f 564 615 567
f 565 573 616
f 565 616 617
f 565 617 618
f 565 618 614
f 565 614 566
f 567 615 619
f 567 619 620
f 567 620 568
f 568 620 612
f 569 611 621
f 569 621 570
f 570 621 622
f 570 622 623
f 570 623 624
f 570 624 572
f 570 572 571
f 572 624 625
f 572 625 626
f 572 626 616
f 572 616 573
f 574 613 627
f 574 627 628
f 574 628 575
f 575 628 576
f 576 629 577
f 576 628 630
f 576 630 631
f 576 631 632
f 576 632 629
f 577 629 578
f 578 629 633
f 578 633 579
f 579 633 634
f 581 604 635
f 581 635 582
f 582 635 636
f 582 636 637
f 582 637 583
f 583 637 638
f 583 638 639
f 583 639 640
f 583 640 584
f 584 640 641
f 584 641 642
f 584 642 586
f 584 586 585
f 586 642 643
f 586 643 587
f 587 643 588
f 588 643 701
f 588 701 644
f 588 644 590
f 588 590 589
f 590 644 645
f 590 645 591
f 591 645 646
f 591 646 593
f 592 594 595
f 593 646 647
f 593 647 648
f 593 648 594
f 594 648 649
f 594 649 595
f 595 649 650
f 595 650 596
f 596 650 651
f 596 651 597
f 597 651 598
f 598 651 652
f 598 652 599
f 599 652 653
f 600 654 655
f 600 655 601
f 600 656 654
f 601 655 657
f 602 658 659
f 602 659 603
f 603 659 660
f 603 660 661
f 603 661 605
f 604 606 636
f 604 636 635
f 605 661 662
f 605 662 606
f 606 662 663
f 606 663 664
f 606 664 636
f 609 665 610
f 610 665 666
f 610 666 667
f 610 667 611
f 611 667 621
f 612 620 668
f 612 668 669
f 612 669 670
f 612 670 671
f 612 671 613
f 613 671 627
f 614 618 672
f 614 672 673
f 614 673 674
f 614 674 675
f 614 675 615
f 615 675 676
f 615 676 619
f 616 626 617
f 617 626 677
f 617 677 678
f 617 678 679
f 617 679 672
f 617 672 618
f 619 676 620
f 620 676 668
f 621 667 680
f 621 680 622
f 622 680 681
f 622 681 623
f 623 681 682
f 623 682 683
f 623 683 684
f 623 684 685
f 623 685 625
f 623 625 624
f 625 685 686
f 625 686 677
f 625 677 626
f 627 671 687
f 627 687 688
f 627 688 628
f 628 688 630
f 629 632 689
f 629 689 633
f 630 688 690
f 630 690 631
f 631 690 691
f 631 691 692
f 631 692 693
f 631 693 632
f 632 693 689
f 633 689 694
f 633 694 695
f 633 695 634
f 636 664 637
f 637 664 696
f 637 696 697
f 637 697 638
f 638 697 698
f 638 698 639
f 639 698 699
f 639 699 700
f 639 700 642
f 639 642 640
f 640 642 641
f 642 700 701
f 642 701 643
f 644 701 702
f 644 702 703
f 644 703 645
f 645 703 704
f 645 704 646
f 646 704 705
f 646 705 647
f 647 705 706
f 647 706 707
f 647 707 648
f 648 707 708
f 648 708 649
f 649 708 709
f 649 709 650
f 650 709 710
f 650 710 651
f 651 710 711
f 651 711 652
f 652 711 712
f 652 712 653
f 654 656 713
f 654 713 714
f 654 714 715
f 654 715 655
f 655 715 657
f 656 716 713
f 657 715 717
f 657 717 658
f 658 717 659
f 659 717 660
f 660 717 718
f 660 718 661
f 661 718 719
f 661 719 662
f 662 719 720
f 662 720 663
f 663 720 721
f 663 721 722
f 663 722 664
f 664 722 696
f 666 723 667
f 667 723 680
f 668 676 724
f 668 724 725
f 668 725 669
f 669 725 670
f 670 687 671
f 670 725 726
f 670 726 727
f 670 727 728
f 670 728 729
f 670 729 687
f 672 679 730
f 672 730 731
f 672 731 732
f 672 732 733
f 672 733 674
f 672 674 673
f 674 733 732
f 674 732 734
f 674 734 735
f 674 735 736
f 674 736 737
f 674 737 738
f 674 738 676
f 674 676 675
f 676 738 737
f 676 737 724
f 677 686 678
f 678 739 740
f 678 740 741
f 678 741 730
f 678 730 679
f 678 686 739
f 680 723 681
f 681 742 743
f 681 743 744
f 681 744 682
f 681 723 742
f 682 744 745
f 682 745 683
f 683 745 746
f 683 746 747
f 683 747 684
f 684 686 685
f 684 747 748
f 684 748 686
f 686 748 739
f 687 729 749
f 687 749 688
f 688 749 690
f 689 693 750
f 689 750 694
f 690 749 751
f 690 751 691
f 691 751 752
f 691 752 753
f 691 753 754
f 691 754 692
f 692 754 755
f 692 755 693
f 693 755 750
f 694 750 756
f 696 722 757
f 696 757 697
f 697 757 758
f 697 758 759
f 697 759 698
f 698 760 700
f 698 700 699
f 698 759 761
f 698 761 760
f 700 760 701
f 701 760 702
f 702 762 703
f 702 760 762
f 703 762 763
f 703 763 764
f 703 764 704
f 704 764 765
f 704 765 705
f 705 765 766
f 705 766 767
f 705 767 706
f 706 768 707
f 706 767 768
f 707 768 769
f 707 769 708
f 708 769 770
f 708 770 709
f 709 770 710
f 710 770 771
f 710 771 772
f 710 772 711
f 713 773 774
f 713 774 714
f 713 716 775
f 713 775 773
f 714 776 715
f 714 774 776
f 715 776 717
f 716 777 775
f 717 776 718
f 718 778 719
f 718 776 779
f 718 779 778
f 719 778 720
f 720 778 780
f 720 780 721
f 721 781 722
f 721 780 782
f 721 782 781
f 722 781 757
f 723 783 742
f 724 737 725
f 725 737 726
f 726 737 784
f 726 784 785
f 726 785 786
f 726 786 727
f 727 786 728
f 728 786 785
f 728 785 787
f 728 787 788
f 728 788 789
f 728 789 729
f 729 789 749
f 730 741 790
f 730 790 791
f 730 791 731
f 731 791 732
f 732 791 792
f 732 792 793
f 732 793 794
f 732 794 795
f 732 795 735
f 732 735 734
f 735 795 794
f 735 794 796
f 735 796 797
f 735 797 798
f 735 798 737
f 735 737 736
f 737 798 784
f 739 748 740
f 740 748 799
f 740 799 800
f 740 800 801
f 740 801 802
f 740 802 803
f 740 803 741
f 741 803 790
f 742 783 804
f 742 804 743
f 743 805 806
f 743 806 744
f 744 806 745
f 745 806 807
f 745 807 746
f 746 807 808
f 746 808 809
f 746 809 810
f 746 810 747
f 747 810 811
f 747 811 812
f 747 812 748
f 748 812 813
f 748 813 799
f 749 789 751
f 750 755 814
f 750 814 756
f 751 789 752
f 752 788 815
f 752 815 816
f 752 816 817
f 752 817 753
f 752 789 788
f 753 817 818
f 753 818 754
f 754 818 819
f 754 819 820
f 754 820 755
f 755 820 814
f 757 781 821
f 757 821 822
f 757 822 758
f 758 823 759
f 758 822 824
f 758 824 823
f 759 823 825
f 759 825 762
f 759 762 761
f 760 761 762
f 762 825 826
f 762 826 763
f 763 826 827
f 763 827 764
f 764 827 828
f 764 828 765
f 765 828 829
f 765 829 766
f 766 829 830
f 766 830 767
f 767 830 831
f 767 831 832
f 767 832 833
f 767 833 768
f 768 833 834
f 768 834 769
f 769 834 770
f 770 834 835
f 770 835 771
f 771 835 772
f 772 835 836
f 772 836 837
f 773 838 774
f 773 775 839
f 773 839 838
f 774 838 840
f 774 840 776
f 775 777 841
f 775 841 839
f 776 840 779
f 777 842 841
f 778 779 843
f 778 843 780
f 779 840 844
f 779 844 843
f 780 843 845
f 780 845 846
f 780 846 782
f 781 782 821
f 782 846 821
f 784 798 847
f 784 847 785
f 785 847 848
f 785 848 849
f 785 849 850
f 785 850 787
f 787 850 788
f 788 850 815
f 790 803 851
f 790 851 852
f 790 852 792
f 790 792 791
f 792 853 793
f 792 852 854
f 792 854 853
f 793 853 794
f 794 853 855
f 794 855 856
f 794 856 796
f 796 856 857
f 796 857 797
f 797 847 798
f 797 857 848
f 797 848 847
f 799 813 800
f 800 813 858
f 800 858 801
f 801 859 802
f 801 858 831
f 801 831 830
f 801 830 860
f 801 860 859
f 802 851 803
f 802 859 851
f 805 861 862
f 805 862 806
f 806 862 863
f 806 863 864
f 806 864 807
f 807 865 866
f 807 866 867
f 807 867 808
f 807 864 868
f 807 868 865
f 808 867 869
f 808 869 809
f 809 869 870
f 809 870 810
f 810 870 811
f 811 813 812
f 811 870 871
f 811 871 872
f 811 872 813
f 813 872 832
f 813 832 858
f 814 820 842
f 815 873 874
f 815 874 816
f 815 850 873
f 816 874 875
f 816 875 817
f 817 875 876
f 817 876 818
f 818 876 839
f 818 839 819
f 819 839 841
f 819 841 820
f 820 841 842
f 821 846 877
f 821 877 822
f 822 877 878
f 822 878 879
f 822 879 824
f 823 824 880
f 823 880 881
f 823 881 825
f 824 879 880
f 825 881 826
f 826 881 882
f 826 882 827
f 827 882 883
f 827 883 828
f 828 883 884
f 828 884 829
f 829 884 885
f 829 885 860
f 829 860 830
f 831 858 832
f 832 886 887
f 832 887 833
f 832 872 886
f 833 887 834
f 834 887 835
f 835 887 888
f 835 888 836
f 836 889 837
f 836 888 890
f 836 890 889
f 837 889 890
f 838 891 840
f 838 839 876
f 838 876 891
f 840 891 844
f 843 844 892
f 843 892 893
f 843 893 845
f 844 891 894
f 844 894 895
f 844 895 892
f 845 893 846
f 846 893 896
f 846 896 877
f 848 857 897
f 848 897 898
f 848 898 899
f 848 899 849
f 849 899 850
f 850 899 900
f 850 900 873
f 851 885 901
f 851 901 854
f 851 854 852
f 851 859 860
f 851 860 885
f 853 854 902
f 853 902 855
f 854 901 903
f 854 903 904
f 854 904 902
f 855 902 905
f 855 905 906
f 855 906 907
f 855 907 897
f 855 897 856
f 856 897 857
f 861 863 862
f 863 908 864
f 864 908 868
f 865 868 908
f 866 909 867
f 867 909 869
f 869 909 910
f 869 910 911
f 869 911 912
f 869 912 870
f 870 912 871
f 871 912 886
f 871 886 872
f 873 900 895
f 873 895 894
f 873 894 874
f 874 894 891
f 874 891 875
f 875 891 876
f 877 896 913
f 877 913 878
f 878 914 879
f 878 913 915
f 878 915 914
f 879 914 916
f 879 916 880
f 880 916 917
f 880 917 881
f 881 917 882
f 882 917 918
f 882 918 883
f 883 918 903
f 883 903 884
f 884 903 885
f 885 903 901
f 886 919 888
f 886 888 887
f 886 912 919
f 888 919 920
f 888 920 890
f 890 920 921
f 890 921 922
f 892 895 923
f 892 923 893
f 893 923 924
f 893 924 896
f 895 900 923
f 896 924 913
f 897 907 914
f 897 914 915
f 897 915 913
f 897 913 898
f 898 913 899
f 899 913 924
f 899 924 923
f 899 923 900
f 902 904 905
f 903 918 905
f 903 905 904
f 905 918 917
f 905 917 916
f 905 916 914
f 905 914 906
f 906 914 907
f 910 925 919
f 910 919 911
f 911 919 912
f 919 925 921
f 919 921 920
f 921 925 922

