# https://github.com/mikedh/trimesh
v 18.09183797 27.69486020 6.39150514
v 13.60349924 27.69486020 6.39150514
v 18.09183797 23.40650402 6.39150514
v 18.09183797 27.69486020 -3.52377779
v 13.62980705 27.69486020 4.81244247
v 12.31613300 23.40650402 1.43386367
v 12.28925398 23.40650402 3.08574527
v 12.26237497 23.40650402 4.81244247
v 12.24922042 23.40650402 6.39150514
v 18.09183797 23.40650402 -1.36416289
v 18.09183797 27.69192182 -3.79909054
v 18.08783436 27.69486020 -3.79809221
v 13.66069096 27.69486020 3.08574527
v 13.70015203 27.69486020 1.35905065
v 12.31784920 23.40650402 1.35905065
v 14.63465096 23.40650402 -0.78161142
v 18.09183797 24.24486219 -2.27389397
v 16.78159504 27.69486020 -3.67739201
v 18.09183797 26.38421460 -3.64048467
v 13.74819281 27.69486020 0.93311353
v 14.06903379 27.69486020 -0.45941832
v 14.57116950 27.69486020 -2.09334541
v 14.65638394 27.69486020 -2.32376931
v 12.98984129 23.40650402 -0.11726890
v 18.09183797 25.11764733 -3.19359805
v 15.28548256 27.69486020 -3.25145490
v 18.08783436 25.12352410 -3.19459638
v 15.07845252 27.69486020 -3.15968570
f 1 2 9
f 1 9 3
f 1 3 10
f 1 10 17
f 1 17 25
f 1 25 19
f 1 19 11
f 1 11 4
f 1 4 12
f 1 12 18
f 1 18 26
f 1 26 28
f 1 28 23
f 1 23 22
f 1 22 21
f 1 21 20
f 1 20 14
f 1 14 13
f 1 13 5
f 1 5 2
f 2 5 6
f 2 6 7
f 2 7 8
f 2 8 9
f 3 9 8
f 3 8 7
f 3 7 6
f 3 6 15
f 3 15 24
f 3 24 16
f 3 16 10
f 4 11 12
f 5 13 6
f 6 13 14
f 6 14 15
f 10 16 17
f 11 18 12
f 11 19 18
f 14 20 15
f 15 20 21
f 15 21 22
f 15 22 23
f 15 23 24
f 16 24 25
f 16 25 17
f 18 19 26
f 19 25 27
f 19 27 26
f 23 28 24
f 24 28 26
f 24 26 25
f 25 26 27

