# https://github.com/mikedh/trimesh
v 27.15702849 1.48221112 6.25275266
v 26.47606943 1.48221112 9.40180811
v 26.86879920 3.79841915 9.40180811
v 27.20410954 1.62163515 6.25275266
v 38.16374890 1.48221112 6.25275266
v 38.20623712 1.48221112 9.40180811
v 27.93444735 2.70708201 6.25275266
v 27.38554578 1.98713276 6.25275266
v 27.27990031 1.84378102 6.25275266
v 27.26037883 1.78658801 6.25275266
v 28.50172025 3.98963672 9.40180811
v 28.45004636 3.98963672 9.39995811
v 29.26535803 3.98963672 6.25275266
v 38.16145377 1.60396175 6.25275266
v 38.16949188 1.48221112 6.53944843
v 38.19360618 1.48221112 8.26580341
v 38.20508956 1.73307635 9.40180811
v 37.99953900 3.98963672 9.40180811
v 37.93867688 3.98963672 6.25275266
v 38.14767270 2.21517019 6.25275266
v 38.18327038 2.21517019 8.26580341
v 38.20279185 2.21517019 9.40180811
v 38.05465816 3.69065994 9.40180811
v 37.98461036 3.98963672 8.26580341
v 37.94326971 3.98963672 6.40596549
v 38.01332008 3.51588910 6.25275266
v 38.01676278 3.53994423 6.53944843
v 38.03972952 3.65285848 8.26580341
v 38.15456324 2.70708201 9.40180811
v 37.94671498 3.98963672 6.53944843
f 1 2 3
f 1 3 4
f 1 4 10
f 1 10 9
f 1 9 8
f 1 8 7
f 1 7 13
f 1 13 19
f 1 19 26
f 1 26 20
f 1 20 14
f 1 14 5
f 1 5 15
f 1 15 16
f 1 16 6
f 1 6 2
f 2 6 17
f 2 17 22
f 2 22 29
f 2 29 23
f 2 23 18
f 2 18 11
f 2 11 3
f 3 7 8
f 3 8 9
f 3 9 10
f 3 10 4
f 3 11 12
f 3 12 13
f 3 13 7
f 5 14 15
f 6 16 17
f 11 18 24
f 11 24 30
f 11 30 25
f 11 25 19
f 11 19 13
f 11 13 12
f 14 20 15
f 15 21 22
f 15 22 16
f 15 20 21
f 16 22 17
f 18 23 24
f 19 25 26
f 20 26 27
f 20 27 28
f 20 28 29
f 20 29 21
f 21 29 22
f 23 28 24
f 23 29 28
f 24 28 30
f 25 30 26
f 26 30 27
f 27 30 28

