# https://github.com/mikedh/trimesh
v 23.69151261 9.10935377 32.45025247
v 28.84260116 9.10935377 32.45025247
v 23.69151261 9.10935377 37.03772309
v 23.69151261 20.58536405 32.45025247
v 27.57573028 9.10935377 37.03772309
v 31.58279404 12.68318333 32.45025247
v 23.69151261 17.84947326 37.03772309
v 23.69151261 19.25913111 35.89354970
v 24.53779826 20.04186582 35.89354970
v 24.85003893 21.28589861 32.45025247
v 28.00143325 12.10778871 37.03772309
v 31.14514712 13.28557019 35.52982104
v 30.94295950 13.53707738 36.68072994
v 31.14941318 14.68909396 36.82846675
v 30.17430691 16.02759247 37.00449387
v 32.25077994 14.31122336 32.45025247
v 24.84833302 17.61269144 37.03772309
v 26.72176419 19.48119271 36.94611727
v 23.69151261 18.12061000 37.02200646
v 23.69151261 18.74753313 36.63717263
v 25.74836382 20.38293199 36.78625641
v 25.40114814 20.52647543 35.89354970
v 23.94318191 18.83831944 36.83340629
v 24.86283454 21.29203268 32.45025247
v 31.36866248 14.18853680 36.02063033
v 31.66639905 16.02759247 35.89354970
v 31.19889486 16.02759247 36.86349257
v 31.14173530 17.27653201 36.82756876
v 30.23402405 17.81389616 36.89806941
v 28.45443335 19.52413378 36.88190379
v 32.40690028 16.15764044 32.45025247
v 27.88370232 20.40501619 36.80466763
v 26.72176419 20.41851166 36.81499572
v 23.69151261 18.16232374 37.00853479
v 23.69151261 18.41996243 36.91513301
v 26.72176419 20.73872097 35.89354970
v 26.72176419 21.64168758 32.45025247
v 23.69151261 18.40646696 36.92635908
v 31.32942140 17.81389616 35.96360136
v 30.84911903 18.42855116 36.58598119
v 29.69827059 18.97695613 36.82846675
v 32.00252504 17.74519148 32.45025247
v 29.03369651 20.12774538 36.54781178
v 28.45443335 20.56205252 35.94069958
v 28.50476927 21.49201008 32.45025247
v 28.37338849 21.50673288 32.45025247
v 31.13064560 18.74262639 35.43462330
v 31.99996489 17.75500754 32.45025247
v 30.13847766 19.43579955 35.99144203
v 29.42783372 20.42464573 35.39690288
v 29.76908000 20.81110506 32.45025247
v 31.37122263 19.08859931 32.45025247
v 31.36439899 19.09964012 32.45025247
v 30.63839929 19.95844091 32.45025247
v 29.78016970 20.80497099 32.45025247
f 1 2 5
f 1 5 3
f 1 3 7
f 1 7 19
f 1 19 34
f 1 34 38
f 1 38 35
f 1 35 20
f 1 20 8
f 1 8 4
f 1 4 10
f 1 10 24
f 1 24 37
f 1 37 46
f 1 46 45
f 1 45 51
f 1 51 55
f 1 55 54
f 1 54 53
f 1 53 52
f 1 52 48
f 1 48 42
f 1 42 31
f 1 31 16
f 1 16 6
f 1 6 2
f 2 6 5
f 3 5 11
f 3 11 17
f 3 17 7
f 4 8 9
f 4 9 10
f 5 6 12
f 5 12 13
f 5 13 14
f 5 14 15
f 5 15 11
f 6 16 12
f 7 17 18
f 7 18 19
f 8 20 9
f 9 21 22
f 9 22 10
f 9 20 23
f 9 23 21
f 10 22 24
f 11 15 17
f 12 16 25
f 12 25 13
f 13 25 14
f 14 25 26
f 14 26 27
f 14 27 15
f 15 27 28
f 15 28 29
f 15 29 30
f 15 30 18
f 15 18 17
f 16 31 26
f 16 26 25
f 18 30 32
f 18 32 33
f 18 33 21
f 18 21 19
f 19 21 34
f 20 35 23
f 21 33 36
f 21 36 37
f 21 37 24
f 21 24 22
f 21 23 38
f 21 38 34
f 23 35 38
f 26 31 39
f 26 39 28
f 26 28 27
f 28 39 40
f 28 40 41
f 28 41 29
f 29 41 30
f 30 41 32
f 31 42 39
f 32 41 43
f 32 43 44
f 32 44 45
f 32 45 46
f 32 46 37
f 32 37 36
f 32 36 33
f 39 47 40
f 39 42 48
f 39 48 47
f 40 47 49
f 40 49 43
f 40 43 41
f 43 49 50
f 43 50 44
f 44 50 45
f 45 50 51
f 47 48 52
f 47 52 53
f 47 53 54
f 47 54 55
f 47 55 50
f 47 50 49
f 50 55 51

