# https://github.com/mikedh/trimesh
v -0.01374689 -33.08402223 16.85783553
v -0.01374689 -35.43352059 16.85783553
v -0.01374689 -33.08402223 7.72292271
v -19.15413587 -33.08402223 16.85783553
v -14.58507904 -35.43352059 16.85783553
v -0.01374689 -35.43352059 7.85559514
v -0.78315274 -33.08402223 -0.36582742
v -17.24767747 -35.43352059 6.31570922
v -17.22493715 -35.43352059 6.70503232
v -17.18514030 -35.43352059 6.97472817
v -16.88003075 -35.43352059 8.76473700
v -18.98926342 -33.18015526 16.85783553
v -19.35312009 -33.08402223 4.81497432
v -17.29695073 -35.43352059 4.81497432
v -14.71773476 -35.38660421 16.85783553
v -16.37025190 -35.43352059 10.61346979
v -1.93915621 -35.43352059 -0.72469630
v -1.04467476 -33.08402223 -2.09275876
v -15.74866391 -34.99425525 16.85783553
v -16.59197771 -34.54095925 16.85783553
v -16.61282301 -34.52946044 16.85783553
v -18.14594961 -33.66679755 16.85783553
v -19.36638656 -33.08402223 3.08804040
v -17.43339649 -35.43352059 -3.69572218
v -2.39018731 -35.43352059 -2.14713689
v -1.46348912 -33.08402223 -3.04540261
v -19.37207164 -33.08402223 1.36110649
v -17.38791457 -35.42915161 -5.36175537
v -17.35380281 -35.43352059 -5.36175537
v -19.37396666 -33.08402223 -0.36582742
v -19.32658972 -33.08402223 -2.08406197
v -2.45651581 -35.43352059 -2.26676156
v -1.62457152 -33.34275188 -3.05410455
v -4.32696742 -35.43352059 -3.70007058
v -8.55111849 -35.43352059 -5.36175537
v -3.35478731 -33.08402223 -3.41732182
v -17.38791457 -34.41469877 -5.36175537
v -19.05938197 -33.08402223 -2.60605493
v -19.02148016 -33.08402223 -2.67347825
v -3.30551469 -35.43352059 -3.00625159
v -11.14359900 -34.49450344 -5.36175537
v -15.32226879 -33.08402223 -5.36175537
v -16.88003075 -33.57158566 -5.36175537
v -17.90148348 -33.08402223 -3.89799728
v -16.15610618 -33.08402223 -5.36175537
v -17.57931868 -33.08402223 -4.24599259
v -16.77011535 -33.43451593 -5.36175537
v -16.68294156 -33.08402223 -4.97243228
f 1 2 6
f 1 6 3
f 1 3 7
f 1 7 18
f 1 18 26
f 1 26 36
f 1 36 42
f 1 42 45
f 1 45 48
f 1 48 46
f 1 46 44
f 1 44 39
f 1 39 38
f 1 38 31
f 1 31 30
f 1 30 27
f 1 27 23
f 1 23 13
f 1 13 4
f 1 4 12
f 1 12 22
f 1 22 21
f 1 21 20
f 1 20 19
f 1 19 15
f 1 15 5
f 1 5 2
f 2 5 16
f 2 16 11
f 2 11 10
f 2 10 9
f 2 9 8
f 2 8 14
f 2 14 24
f 2 24 29
f 2 29 35
f 2 35 34
f 2 34 40
f 2 40 32
f 2 32 25
f 2 25 17
f 2 17 6
f 3 6 7
f 4 8 9
f 4 9 10
f 4 10 11
f 4 11 12
f 4 13 14
f 4 14 8
f 5 15 16
f 6 17 18
f 6 18 7
f 11 16 19
f 11 19 20
f 11 20 21
f 11 21 22
f 11 22 12
f 13 23 24
f 13 24 14
f 15 19 16
f 17 25 18
f 18 25 26
f 23 27 24
f 24 28 29
f 24 27 30
f 24 30 31
f 24 31 28
f 25 32 33
f 25 33 26
f 26 33 34
f 26 34 35
f 26 35 36
f 28 37 43
f 28 43 47
f 28 47 45
f 28 45 42
f 28 42 41
f 28 41 35
f 28 35 29
f 28 31 38
f 28 38 39
f 28 39 37
f 32 40 33
f 33 40 34
f 35 41 36
f 36 41 42
f 37 39 43
f 39 44 43
f 43 44 46
f 43 46 47
f 45 47 48
f 46 48 47

