# https://github.com/mikedh/trimesh
v 25.88560079 1.48221048 52.86520951
v 25.88560079 -7.04477257 52.86520951
v 25.88560079 1.48221048 47.71271866
v -5.02975402 1.48221048 52.86520951
v 25.55877369 -8.10134504 52.86520951
v 25.88560079 -9.92579209 49.74345054
v 25.88560079 -10.72938207 47.71271866
v -5.02975402 1.48221048 47.71271866
v -5.02975402 -26.34284049 52.86520951
v 24.93840917 -9.84840927 52.86520951
v 25.88560079 -10.63414187 48.93489046
v 25.88560079 -10.72938207 47.94524890
v 20.87123718 -19.60458813 47.71271866
v -5.02975402 -28.52741494 47.71271866
v -4.59701256 -26.44700905 52.86520951
v 24.48448278 -10.90200541 52.86520951
v 25.88560079 -10.71747704 48.83199168
v 25.86441715 -10.74426343 48.86023858
v 22.60825732 -14.53006611 52.86520951
v 20.74716376 -19.80697387 47.71271866
v -4.73016358 -28.58098771 47.71271866
v -4.32465750 -26.50058183 52.86520951
v 24.34528003 -11.21748872 52.86520951
v 24.24844199 -11.41689813 52.86520951
v 23.93069506 -12.06274676 52.86520951
v 23.41019445 -13.06872216 52.86520951
v 23.28006930 -13.30979931 52.86520951
v 22.76259198 -14.25922624 52.86520951
v 22.51747359 -14.67590275 52.86520951
v 20.21153125 -20.58377778 47.71271866
v 22.03026009 -15.39318121 52.86520951
v -4.49412278 -28.60777410 47.71271866
v -2.63000207 -26.76249301 52.86520951
v 21.15569700 -16.51523052 52.86520951
v 20.97715283 -16.72952160 52.86520951
v 20.44152031 -17.36048824 52.86520951
v 19.80905103 -18.10455373 52.86520951
v 19.58814086 -18.36348858 52.86520951
v 18.81344168 -19.22958001 52.86520951
v 19.44590967 -21.36653436 47.71271866
v -4.33373510 -28.62563083 47.71271866
v -1.25006771 -28.90242306 47.71271866
v -0.90508412 -28.92325677 47.71271866
v -0.90508412 -26.86070890 52.86520951
v -2.95380202 -28.77444380 47.71271866
v 18.22333840 -19.73256739 52.86520951
v 18.40793431 -22.26834055 47.71271866
v 19.25526202 -21.53915803 47.71271866
v 0.82285842 -28.90540004 47.71271866
v 0.82285842 -26.85475752 52.86520951
v 0.52629385 -26.85773321 52.86520951
v 17.93585143 -19.97066788 52.86520951
v 16.04146948 -21.49748931 52.86520951
v 17.77849090 -22.77132921 47.71271866
v 2.18160914 -28.81015984 47.71271866
v 2.54777573 -26.78332673 52.86520951
v 2.25423703 -26.79820777 52.86520951
v 15.82963691 -21.66416030 52.86520951
v 14.89455004 -22.37846307 52.86520951
v 16.96142444 -23.37550946 47.71271866
v 2.54777573 -28.78337345 47.71271866
v 4.29387604 -28.62265514 47.71271866
v 4.24243115 -26.51843985 52.86520951
v 14.02906584 -23.00645401 52.86520951
v 16.39855783 -23.78623233 47.71271866
v 6.00366209 -28.31610083 47.71271866
v 7.74976240 -25.67615782 52.86520951
v 13.77789314 -23.15824268 52.86520951
v 14.54956774 -24.94697401 47.71271866
v 6.08234235 -28.29526712 47.71271866
v 7.61358487 -27.88751865 47.71271866
v 9.17811450 -25.25055262 52.86520951
v 12.89122529 -23.65527866 52.86520951
v 13.00924698 -25.81008975 47.71271866
v 9.45652258 -27.33095851 47.71271866
v 9.45652258 -25.16424208 52.86520951
v 12.65518450 -26.00057014 47.71271866
v 11.54760648 -24.32493703 52.86520951
v 11.10275898 -26.77142138 47.71271866
v 10.40674007 -24.81899475 52.86520951
v 10.70330464 -24.69696817 52.86520951
f 1 2 6
f 1 6 11
f 1 11 17
f 1 17 12
f 1 12 7
f 1 7 3
f 1 3 8
f 1 8 4
f 1 4 9
f 1 9 15
f 1 15 22
f 1 22 33
f 1 33 44
f 1 44 51
f 1 51 50
f 1 50 57
f 1 57 56
f 1 56 63
f 1 63 67
f 1 67 72
f 1 72 76
f 1 76 80
f 1 80 81
f 1 81 78
f 1 78 73
f 1 73 68
f 1 68 64
f 1 64 59
f 1 59 58
f 1 58 53
f 1 53 52
f 1 52 46
f 1 46 39
f 1 39 38
f 1 38 37
f 1 37 36
f 1 36 35
f 1 35 34
f 1 34 31
f 1 31 29
f 1 29 19
f 1 19 28
f 1 28 27
f 1 27 26
f 1 26 25
f 1 25 24
f 1 24 23
f 1 23 16
f 1 16 10
f 1 10 5
f 1 5 2
f 2 5 6
f 3 7 13
f 3 13 20
f 3 20 30
f 3 30 40
f 3 40 48
f 3 48 47
f 3 47 54
f 3 54 60
f 3 60 65
f 3 65 69
f 3 69 74
f 3 74 77
f 3 77 79
f 3 79 75
f 3 75 71
f 3 71 70
f 3 70 66
f 3 66 62
f 3 62 61
f 3 61 55
f 3 55 49
f 3 49 43
f 3 43 42
f 3 42 45
f 3 45 41
f 3 41 32
f 3 32 21
f 3 21 14
f 3 14 8
f 4 8 14
f 4 14 9
f 5 10 6
f 6 10 11
f 7 12 13
f 9 14 15
f 10 16 17
f 10 17 11
f 12 17 13
f 13 17 18
f 13 18 19
f 13 19 20
f 14 21 22
f 14 22 15
f 16 23 17
f 17 23 18
f 18 23 24
f 18 24 25
f 18 25 26
f 18 26 27
f 18 27 28
f 18 28 19
f 19 29 20
f 20 29 31
f 20 31 30
f 21 32 33
f 21 33 22
f 30 31 34
f 30 34 35
f 30 35 36
f 30 36 37
f 30 37 38
f 30 38 39
f 30 39 40
f 32 41 33
f 33 42 43
f 33 43 44
f 33 41 45
f 33 45 42
f 39 46 47
f 39 47 48
f 39 48 40
f 43 49 50
f 43 50 51
f 43 51 44
f 46 52 47
f 47 52 53
f 47 53 54
f 49 55 56
f 49 56 57
f 49 57 50
f 53 58 54
f 54 58 59
f 54 59 60
f 55 61 56
f 56 61 62
f 56 62 63
f 59 64 65
f 59 65 60
f 62 66 63
f 63 66 67
f 64 68 69
f 64 69 65
f 66 70 67
f 67 70 71
f 67 71 72
f 68 73 69
f 69 73 74
f 71 75 72
f 72 75 76
f 73 77 74
f 73 78 77
f 75 79 76
f 76 79 80
f 77 78 79
f 78 81 79
f 79 81 80

