# https://github.com/mikedh/trimesh
v -8.69569821 -40.61807636 8.44710843
v -9.52072366 -40.61438151 8.11001242
v -11.19566399 -40.61438151 8.05345752
v -11.26669210 -40.61438151 8.04824717
v -11.26669210 -42.54808558 6.30843273
v -8.69569821 -40.82068081 8.26330501
v -8.69569821 -40.61438151 6.65074167
v -13.12011550 -40.61438151 7.26689416
v -12.57495510 -42.28638924 6.04128674
v -8.69569821 -42.70162004 6.46916906
v -11.26669210 -43.28727199 4.81195617
v -8.69569821 -46.00395007 0.84565928
v -8.69569821 -40.61438151 0.84565928
v -13.99977702 -40.61438151 6.26006517
v -13.72598364 -41.66380421 5.47647879
v -14.03923808 -42.18244968 4.32602918
v -13.08733270 -42.62511655 4.86553409
v -12.94163308 -43.39648624 0.84565928
v -12.99262769 -43.08783236 3.08628303
v -14.89704440 -40.61438151 0.84565928
v -14.25839475 -40.61438151 5.90213030
v -14.53765192 -40.61438151 5.49285090
v -14.86426289 -40.61438151 3.61090562
v -14.10055306 -42.31857253 3.08628303
v -14.71795604 -40.61438151 4.84693118
v -14.87276156 -40.61438151 3.08628303
f 1 2 3
f 1 3 4
f 1 4 5
f 1 5 6
f 1 6 10
f 1 10 12
f 1 12 13
f 1 13 7
f 1 7 2
f 2 7 13
f 2 13 20
f 2 20 26
f 2 26 23
f 2 23 25
f 2 25 22
f 2 22 21
f 2 21 14
f 2 14 8
f 2 8 4
f 2 4 3
f 4 8 9
f 4 9 5
f 5 10 6
f 5 9 11
f 5 11 12
f 5 12 10
f 8 14 15
f 8 15 9
f 9 15 16
f 9 16 17
f 9 17 12
f 9 12 11
f 12 18 20
f 12 20 13
f 12 17 19
f 12 19 18
f 14 21 15
f 15 21 22
f 15 22 16
f 16 23 24
f 16 24 19
f 16 19 17
f 16 22 25
f 16 25 23
f 18 19 24
f 18 24 20
f 20 24 26
f 23 26 24

