# https://github.com/mikedh/trimesh
v 23.69151261 17.84867305 37.03502013
v 23.69151261 1.48221048 37.03502013
v 23.69151261 18.12083900 37.02149378
v 21.03869680 21.06293131 37.03502013
v -0.03980512 1.48221048 37.03502013
v 23.69151261 1.48221048 9.65098673
v 23.69151261 18.16109126 37.00796872
v -0.03980512 21.06293131 37.03502013
v 23.69151261 18.40642322 36.92410898
v 23.69151261 18.41983893 36.91328816
v 23.69151261 18.74759231 36.63466008
v 23.69151261 19.25934210 35.89345514
v 23.69151261 21.06293131 32.07651671
v -0.03980512 1.48221048 9.65369097
v 21.54045556 1.48221048 9.65098673
v 23.69151261 5.30788816 9.40211430
v -0.03980512 21.06293131 9.65369097
v 23.69151261 21.06293131 9.40211430
v 8.91518954 17.75475539 9.40211430
v 9.09638006 16.02783434 9.40211430
v 9.65156686 14.49833054 9.40211430
v 11.17774954 12.56824155 9.40211430
v 12.91532031 10.86048690 9.40211430
v 9.54703357 21.06293131 9.40211430
v 9.03133807 19.56026150 9.40211430
v 8.91751298 17.84100546 9.40211430
f 1 2 6
f 1 6 16
f 1 16 18
f 1 18 13
f 1 13 12
f 1 12 11
f 1 11 10
f 1 10 9
f 1 9 7
f 1 7 3
f 1 3 4
f 1 4 8
f 1 8 5
f 1 5 2
f 2 5 14
f 2 14 15
f 2 15 6
f 3 7 4
f 4 7 9
f 4 9 10
f 4 10 11
f 4 11 12
f 4 12 13
f 4 13 18
f 4 18 24
f 4 24 17
f 4 17 8
f 5 8 17
f 5 17 14
f 6 15 16
f 14 17 19
f 14 19 20
f 14 20 21
f 14 21 22
f 14 22 23
f 14 23 16
f 14 16 15
f 16 23 22
f 16 22 21
f 16 21 20
f 16 20 19
f 16 19 26
f 16 26 25
f 16 25 24
f 16 24 18
f 17 24 25
f 17 25 26
f 17 26 19

