# https://github.com/mikedh/trimesh
v 33.38594841 -13.32102442 31.55813626
v 33.33749337 -14.05230523 31.55813626
v 32.02625339 -11.58269011 31.55813626
v 31.10265891 -14.06464349 36.80312961
v 31.10999972 -14.17368535 36.80768707
v 33.32501167 -14.17368535 31.55813626
v 31.92713823 -11.45964300 31.55813626
v 30.60194994 -12.93454258 35.89313609
v 29.46691526 -12.35732111 36.81832134
v 25.88927249 -10.76737699 39.31738367
v 30.99987462 -14.17368535 36.82287880
v 25.88560079 -14.17368535 31.55813626
v 30.95435539 -10.77538020 31.55813626
v 28.18651031 -10.76737699 35.88781895
v 25.88560079 -10.76737699 39.30826844
v 25.88560079 -14.17368535 37.06139098
v 30.13134268 -14.17368535 36.92238570
v 25.88560079 -10.76737699 31.55813626
v 29.31053505 -10.76737699 31.55813626
v 30.53660819 -10.76737699 32.06934314
f 1 2 6
f 1 6 12
f 1 12 18
f 1 18 19
f 1 19 13
f 1 13 7
f 1 7 3
f 1 3 4
f 1 4 5
f 1 5 2
f 2 5 6
f 3 7 4
f 4 8 9
f 4 9 10
f 4 10 5
f 4 7 8
f 5 10 11
f 5 11 17
f 5 17 16
f 5 16 12
f 5 12 6
f 7 13 14
f 7 14 10
f 7 10 9
f 7 9 8
f 10 15 16
f 10 16 17
f 10 17 11
f 10 14 20
f 10 20 19
f 10 19 18
f 10 18 15
f 12 16 15
f 12 15 18
f 13 19 20
f 13 20 14

