# https://github.com/mikedh/trimesh
v -4.05569496 -56.30721813 -5.54620462
v -4.05569496 -56.23041359 -6.97051837
v -2.63239289 -56.30107376 -5.54620462
v 4.05839681 -56.12134858 -3.81976730
v -4.05569496 -56.15360906 -3.81976730
v -4.05569496 -56.17050348 -7.28854318
v 4.05839681 -56.15668124 -7.28172983
v 4.05839681 -56.22119705 -5.54620462
v 4.05839681 -55.91704594 -2.09332997
v -4.05569496 -55.94776775 -2.09332997
v -4.05569496 -55.85560231 -8.51749809
v 4.05839681 -55.80491389 -8.71740088
v 4.05839681 -55.70813760 -0.98022769
v -4.05569496 -55.72964287 -0.91435333
v -4.05569496 -55.77726426 -8.65606531
v -4.05569496 -54.76650627 -9.39434602
v 4.05839681 -54.76650627 -9.46249493
v 4.05839681 -55.43317479 -0.11701160
v 2.54693307 -55.43931915 -0.10337976
v 0.82022630 -55.44393000 -0.08975307
v -4.05569496 -55.45314139 -0.05113209
v -4.05569496 -54.74192882 -9.40115937
v 4.05839681 -53.03992486 -9.94408124
v 4.05839681 -54.92779837 1.35954981
v 2.54693307 -54.94315927 1.35954981
v 0.82022630 -54.95852018 1.35954981
v -0.90568620 -54.97234242 1.35954981
v -2.63239289 -54.98616981 1.35954981
v -4.05569496 -55.37173116 0.19874381
v -4.05569496 -53.03992486 -9.83731136
v 4.05839681 -44.62668392 -9.56699027
v -4.05569496 -52.60059776 -9.82368467
v -4.05569496 -47.60826175 -9.63513918
v -4.05569496 -46.13360179 -9.57834756
v -4.05569496 -40.96000449 -9.36027414
v 4.05839681 -54.26112985 2.96559056
v 2.54693307 -54.27034639 2.97240648
v -0.90568620 -54.29185166 2.96331858
v -2.63239289 -54.30106821 2.96104661
v -4.05569496 -54.98463115 1.35954981
v 4.05839681 -42.78182353 -9.47839617
v -4.05569496 -40.61591760 -9.28530674
v 4.05839681 -40.95386013 -9.38753267
v 4.05839681 -53.83409148 3.82880922
v 2.54693307 -53.84176936 3.83562514
v -2.63239289 -53.82794712 3.82426785
v -4.05569496 -54.21350846 3.09053108
v -4.05569496 -54.29645736 2.93833202
v -4.05569496 -54.86328256 1.64123077
v -3.05573013 -40.61438151 -8.58564700
v 4.05839681 -40.61438151 -9.31029587
v -4.05569496 -40.61438151 -7.85191024
v 2.54693307 -53.22579441 4.81242446
v 4.05839681 -53.20736132 4.81242446
v 0.82022630 -53.21965005 4.81242446
v -4.05569496 -53.81258621 3.80155068
v -2.63239289 -53.20428914 4.81242446
v 4.05839681 -40.61438151 13.20836700
v -4.05569496 -40.61438151 13.20155365
v 2.54693307 -52.42394990 6.00730234
v 0.82022630 -52.42241124 6.00503037
v -0.90568620 -52.41933906 6.00275840
v -2.63239289 -52.41626688 5.99821702
v 4.05839681 -52.41319470 5.99367308
v -4.05569496 -53.70198768 3.97646690
v -4.05569496 -52.39937245 5.97777184
v -4.05569496 -53.03378049 5.02141513
v -4.05569496 -53.17202866 4.81242446
v 2.53660771 -40.61438151 13.25152935
v 4.05839681 -42.41623136 12.74722845
v -4.05569496 -40.64817550 13.19246576
v -4.02313087 -40.61438151 13.20382563
v 4.05839681 -51.79568108 6.75012700
v 2.54693307 -51.71734045 6.87052358
v 0.82022630 -51.71580436 6.86825161
v -0.90568620 -51.71273218 6.86597963
v -2.63239289 -51.70966000 6.86143568
v -4.05569496 -52.27494653 6.12997090
v 0.82022630 -40.61438151 13.26061467
v 4.05839681 -43.27952207 12.50643529
v -4.05569496 -42.32099374 12.73359918
v -2.27339038 -40.61438151 13.24017206
v 4.05839681 -51.70812391 6.85689174
v 4.05839681 -50.84483320 7.81324844
v 2.54693307 -50.85404975 7.82460831
v 0.82022630 -50.85097757 7.82460831
v -0.90568620 -50.84944148 7.82233376
v -2.63239289 -50.84636929 7.82006436
v -4.05569496 -51.53454308 7.00909080
v -4.05569496 -51.68508255 6.84099050
v -0.53953545 -40.61438151 13.25607330
v -2.63239289 -42.34557119 12.73814313
v 2.54693307 -43.26262507 12.50189392
v -2.63239289 -44.40702295 12.08845652
v 4.05839681 -43.42237851 12.44964368
v -4.05569496 -43.18428444 12.47236084
v -2.63239289 -43.20886190 12.48144873
v 4.05839681 -50.04759440 8.56970237
v 2.54693307 -49.94160414 8.68782440
v 0.82022630 -49.94621241 8.68782440
v -0.90568620 -49.94621241 8.68555500
v -2.63239289 -49.94314023 8.68328302
v -4.05569496 -49.92163496 8.65602192
v -4.05569496 -50.66357193 7.94500231
v -4.05569496 -50.82179184 7.79280326
v -0.90568620 -43.22883108 12.48826208
v 0.82022630 -43.24572807 12.49507543
v -4.05569496 -44.40702295 12.07255528
v -4.05569496 -45.81255625 11.45239917
v -4.05569496 -46.11363261 11.31837333
v -2.63239289 -46.11977697 11.32518667
v -0.90568620 -44.40702295 12.07936862
v 2.54693307 -44.40702295 12.05437949
v 4.05839681 -44.40702295 12.04302220
v 4.05839681 -49.93238760 8.67646710
v 4.05839681 -49.17662324 9.30343913
v 4.05839681 -49.06909689 9.39203065
v 2.54693307 -49.07831343 9.39657460
v 0.82022630 -49.08292171 9.39884657
v -0.90568620 -49.08292171 9.39657460
v -2.63239289 -49.07984953 9.39203065
v -4.05569496 -49.05834426 9.37840138
v -4.05569496 -46.82485033 10.92765309
v -2.63239289 -46.98306768 10.84587491
v -0.90568620 -46.98767595 10.85041886
v 0.82022630 -46.99382031 10.85268826
v 2.54693307 -46.98921204 10.85041886
v -0.90568620 -46.12438524 11.30928543
v 0.82022630 -46.13052961 11.28884282
v 2.54693307 -46.12592134 11.27066961
v 4.05839681 -44.62207565 11.94307081
v 4.05839681 -48.01379484 10.13031136
v 2.54693307 -47.86018320 10.25752129
v 0.82022630 -47.86018320 10.25979326
v -0.90568620 -47.86018320 10.25524931
v -2.63239289 -47.86018320 10.24616399
v -4.05569496 -47.86018320 10.22799078
v -4.05569496 -46.97692331 10.84133096
v 4.05839681 -47.86018320 10.23707867
v 4.05839681 -46.96463459 10.83905899
v 4.05839681 -46.10134388 11.25476836
v -4.05569496 -47.70657155 10.33475809
f 1 2 3
f 1 3 4
f 1 4 5
f 1 5 10
f 1 10 14
f 1 14 21
f 1 21 29
f 1 29 40
f 1 40 49
f 1 49 48
f 1 48 47
f 1 47 56
f 1 56 65
f 1 65 68
f 1 68 67
f 1 67 66
f 1 66 78
f 1 78 90
f 1 90 89
f 1 89 105
f 1 105 104
f 1 104 103
f 1 103 122
f 1 122 137
f 1 137 142
f 1 142 138
f 1 138 123
f 1 123 110
f 1 110 109
f 1 109 108
f 1 108 96
f 1 96 81
f 1 81 71
f 1 71 59
f 1 59 52
f 1 52 42
f 1 42 35
f 1 35 34
f 1 34 33
f 1 33 32
f 1 32 30
f 1 30 22
f 1 22 16
f 1 16 15
f 1 15 11
f 1 11 6
f 1 6 2
f 2 6 7
f 2 7 3
f 3 7 8
f 3 8 4
f 4 9 5
f 4 8 7
f 4 7 12
f 4 12 17
f 4 17 23
f 4 23 31
f 4 31 41
f 4 41 43
f 4 43 51
f 4 51 58
f 4 58 70
f 4 70 80
f 4 80 95
f 4 95 114
f 4 114 131
f 4 131 141
f 4 141 140
f 4 140 139
f 4 139 132
f 4 132 117
f 4 117 116
f 4 116 115
f 4 115 98
f 4 98 84
f 4 84 83
f 4 83 73
f 4 73 64
f 4 64 54
f 4 54 44
f 4 44 36
f 4 36 24
f 4 24 18
f 4 18 13
f 4 13 9
f 5 9 10
f 6 11 12
f 6 12 7
f 9 13 14
f 9 14 10
f 11 15 12
f 12 15 16
f 12 16 17
f 13 18 19
f 13 19 14
f 14 19 20
f 14 20 21
f 16 22 23
f 16 23 17
f 18 24 25
f 18 25 26
f 18 26 27
f 18 27 28
f 18 28 19
f 19 28 20
f 20 28 29
f 20 29 21
f 22 30 23
f 23 30 32
f 23 32 33
f 23 33 34
f 23 34 35
f 23 35 31
f 24 36 25
f 25 36 26
f 26 36 27
f 27 36 28
f 28 36 37
f 28 37 38
f 28 38 39
f 28 39 40
f 28 40 29
f 31 35 41
f 35 42 43
f 35 43 41
f 36 44 37
f 37 44 45
f 37 45 38
f 38 45 39
f 39 45 46
f 39 46 47
f 39 47 48
f 39 48 49
f 39 49 40
f 42 50 51
f 42 51 43
f 42 52 50
f 44 53 45
f 44 54 53
f 45 53 55
f 45 55 46
f 46 56 47
f 46 55 57
f 46 57 56
f 50 52 59
f 50 59 72
f 50 72 82
f 50 82 91
f 50 91 79
f 50 79 69
f 50 69 58
f 50 58 51
f 53 54 60
f 53 60 61
f 53 61 62
f 53 62 63
f 53 63 55
f 54 64 60
f 55 63 57
f 56 57 65
f 57 63 66
f 57 66 67
f 57 67 68
f 57 68 65
f 58 69 70
f 59 71 72
f 60 64 73
f 60 73 74
f 60 74 75
f 60 75 61
f 61 75 76
f 61 76 62
f 62 76 77
f 62 77 63
f 63 77 78
f 63 78 66
f 69 79 70
f 70 79 80
f 71 81 72
f 72 81 82
f 73 83 74
f 74 83 84
f 74 84 85
f 74 85 86
f 74 86 75
f 75 86 87
f 75 87 88
f 75 88 76
f 76 88 77
f 77 88 89
f 77 89 90
f 77 90 78
f 79 91 80
f 80 92 93
f 80 93 94
f 80 94 95
f 80 91 92
f 81 96 97
f 81 97 92
f 81 92 91
f 81 91 82
f 84 98 85
f 85 98 99
f 85 99 100
f 85 100 101
f 85 101 86
f 86 101 87
f 87 101 102
f 87 102 88
f 88 102 103
f 88 103 104
f 88 104 105
f 88 105 89
f 92 97 106
f 92 106 107
f 92 107 93
f 93 107 94
f 94 107 106
f 94 106 97
f 94 97 108
f 94 108 109
f 94 109 110
f 94 110 111
f 94 111 112
f 94 112 95
f 95 112 113
f 95 113 114
f 96 108 97
f 98 115 99
f 99 116 117
f 99 117 118
f 99 118 119
f 99 119 100
f 99 115 116
f 100 119 120
f 100 120 101
f 101 120 102
f 102 120 121
f 102 121 122
f 102 122 103
f 110 123 111
f 111 123 124
f 111 124 125
f 111 125 126
f 111 126 127
f 111 127 128
f 111 128 114
f 111 114 113
f 111 113 112
f 114 128 129
f 114 129 130
f 114 130 131
f 117 132 133
f 117 133 118
f 118 133 119
f 119 133 134
f 119 134 120
f 120 134 135
f 120 135 121
f 121 135 136
f 121 136 137
f 121 137 122
f 123 138 124
f 124 138 136
f 124 136 135
f 124 135 125
f 125 135 126
f 126 135 134
f 126 134 133
f 126 133 127
f 127 133 139
f 127 139 140
f 127 140 130
f 127 130 129
f 127 129 128
f 130 141 131
f 130 140 141
f 132 139 133
f 136 138 142
f 136 142 137

