# https://github.com/mikedh/trimesh
v -17.34919068 -35.43352059 -10.83493153
v -17.38899653 -35.43352059 -5.36604202
v -17.38986235 -35.42937803 -5.36175537
v -17.34919068 -34.48175929 -10.83493153
v -8.86693373 -35.43352059 -10.83493153
v -17.35524756 -35.43352059 -5.36175537
v -17.38986235 -34.41482999 -5.36175537
v -16.88103036 -33.57140297 -5.36175537
v -16.83170564 -33.50999022 -5.36175537
v -16.77026459 -33.43431781 -5.36175537
v -17.30419120 -34.42840008 -10.83493153
v -8.83231894 -35.43352059 -10.72778084
v -15.55702951 -33.17303315 -10.83493153
v -8.55021215 -35.43352059 -5.36175537
v -16.18701197 -33.10035316 -5.36175537
v -16.60498045 -33.61878249 -10.83493153
v -11.14542585 -34.49463981 -5.36175537
v -15.32251709 -33.08402223 -5.36175537
v -15.74135140 -33.17303315 -10.83493153
v -15.50337827 -33.08402223 -5.50104818
v -15.44107139 -33.08402223 -5.49729672
v -16.15845535 -33.08402223 -5.36175537
v -15.96980694 -33.08402223 -5.50104818
f 1 2 3
f 1 3 7
f 1 7 4
f 1 4 11
f 1 11 16
f 1 16 19
f 1 19 13
f 1 13 5
f 1 5 12
f 1 12 14
f 1 14 6
f 1 6 2
f 2 6 3
f 3 6 14
f 3 14 17
f 3 17 18
f 3 18 22
f 3 22 15
f 3 15 10
f 3 10 9
f 3 9 8
f 3 8 7
f 4 8 9
f 4 9 10
f 4 10 11
f 4 7 8
f 5 13 12
f 10 15 16
f 10 16 11
f 12 17 14
f 12 13 18
f 12 18 17
f 13 19 23
f 13 23 20
f 13 20 21
f 13 21 18
f 15 22 16
f 16 22 19
f 18 21 20
f 18 20 23
f 18 23 22
f 19 22 23

