# https://github.com/mikedh/trimesh
v -24.58085622 -29.22675176 7.79485652
v -24.08620155 -29.62726748 7.79485652
v -24.58085622 -29.22675176 8.26611732
v -24.58085622 -17.64504583 7.79485652
v -23.85084776 -29.81014461 7.79485652
v -24.08094488 -29.62424418 8.26611732
v -24.58085622 -29.21012622 9.11164135
v -24.58085622 -17.64504583 9.11772910
v -21.98844968 -17.64504583 7.79485652
v -23.22303950 -30.29680877 7.79485652
v -23.20727206 -30.28471688 9.11772910
v -24.07043411 -29.61517559 9.11772910
v -24.32389165 -29.41416255 9.11772910
v -24.57676769 -29.21314822 9.11772910
v -24.58085622 -28.56476613 9.11772910
v -21.60417356 -17.64504583 9.11772910
v -18.61522790 -21.88900076 7.79485652
v -22.09123653 -31.15980744 7.79485652
v -22.07313022 -31.14771426 9.11772910
v -18.61522790 -21.65171462 9.11772910
v -18.61522790 -33.08379323 7.79485652
v -21.85588016 -31.33059139 7.79485652
v -21.63570973 -31.46208282 9.11772910
v -18.61522790 -33.08379323 9.11772910
v -19.27632327 -33.08379323 7.79485652
v -21.22865727 -31.78098503 7.79485652
v -21.22223373 -31.77644880 8.26611732
v -21.21055353 -31.76738149 9.11772910
v -19.23252281 -33.08379323 9.11772910
v -19.24537117 -33.08379323 8.74048632
v -19.94384346 -32.64549277 7.79485652
v -19.84281011 -32.68327751 9.11772910
v -19.38261329 -32.98555289 9.11772910
f 1 2 3
f 1 3 7
f 1 7 15
f 1 15 8
f 1 8 4
f 1 4 9
f 1 9 17
f 1 17 21
f 1 21 25
f 1 25 31
f 1 31 26
f 1 26 22
f 1 22 18
f 1 18 10
f 1 10 5
f 1 5 2
f 2 5 6
f 2 6 3
f 3 6 7
f 4 8 16
f 4 16 9
f 5 10 6
f 6 10 11
f 6 11 12
f 6 12 13
f 6 13 7
f 7 14 15
f 7 13 14
f 8 15 14
f 8 14 13
f 8 13 12
f 8 12 11
f 8 11 19
f 8 19 23
f 8 23 28
f 8 28 32
f 8 32 33
f 8 33 29
f 8 29 24
f 8 24 20
f 8 20 16
f 9 16 17
f 10 18 11
f 11 18 19
f 16 20 17
f 17 20 24
f 17 24 21
f 18 22 19
f 19 22 23
f 21 24 29
f 21 29 30
f 21 30 25
f 22 26 27
f 22 27 23
f 23 27 28
f 25 30 31
f 26 31 27
f 27 31 28
f 28 31 32
f 29 33 30
f 30 33 31
f 31 33 32

