# https://github.com/mikedh/trimesh
v 17.16145844 -10.25258028 7.18583129
v 16.36065601 -10.33541339 7.18583129
v 17.16145844 -13.40944741 7.18583129
v 17.16145844 -10.30780235 1.35975823
v 16.36065601 -10.35452897 1.35975823
v 15.29910925 -10.61931197 7.18583129
v 15.21399902 -10.58178935 1.35975823
v 13.35783922 -17.48526795 7.18583129
v 15.80899231 -17.48526795 4.10800979
v 16.06741449 -17.48526795 3.50078309
v 17.16145844 -15.14752956 4.42735456
v 17.16145844 -10.51736327 0.08788283
v 16.36065601 -10.53718675 0.11541410
v 15.29910925 -10.62143599 0.27036629
v 14.75904986 -10.82320936 7.18583129
v 14.35052563 -11.10781583 1.35975823
v 14.43640906 -11.00161941 7.18583129
v 9.25788508 -17.48526795 7.18583129
v 16.22834894 -17.48526795 3.08626502
v 17.16145844 -15.78895614 3.08626502
v 17.16145844 -11.59915146 -0.58462644
v 16.36065601 -11.59915146 -0.55709516
v 14.68786865 -11.58145201 -0.13785818
v 13.31683178 -12.14500159 0.11383942
v 13.07775225 -11.97083927 1.35975823
v 13.00270123 -11.88588213 7.18583129
v 10.47030772 -15.24310682 7.18583129
v 9.27181217 -17.48526795 1.92293746
v 16.39624726 -17.48526795 1.35975823
v 17.16145844 -15.86187800 1.35975823
v 17.16145844 -13.32590607 -0.84026075
v 16.36065601 -13.32590607 -0.84969857
v 14.63370795 -13.32590607 -0.80014743
v 12.80849639 -13.22678930 -0.23145937
v 11.75932970 -13.73653245 0.11541410
v 12.21427757 -12.63421304 1.35975823
v 12.45026305 -12.40128881 7.18583129
v 12.21040904 -12.63208901 3.08626502
v 11.56822020 -13.44201440 7.18583129
v 11.58446751 -13.49511245 3.08626502
v 11.60613231 -13.49723647 1.35975823
v 9.28032307 -17.48526795 1.35975823
v 15.97688935 -17.48526795 0.01473198
v 17.16145844 -15.20558388 -0.23854031
v 17.16145844 -15.71957476 1.00265702
v 14.63370795 -17.48526795 -0.65777729
v 12.90830626 -17.48526795 -0.84969857
v 12.90830626 -16.77870738 -0.84969857
v 12.90830626 -15.05195294 -0.79857274
v 11.41192747 -15.05195294 -0.12605833
v 9.80103788 -17.48526795 -0.00256898
v 9.95732997 -17.09304892 0.09575111
v 12.21195671 -12.65403652 7.18583129
v 12.00227776 -12.88979268 7.18583129
v 11.09315391 -17.48526795 -0.52563232
f 1 2 6
f 1 6 15
f 1 15 17
f 1 17 26
f 1 26 37
f 1 37 53
f 1 53 54
f 1 54 39
f 1 39 27
f 1 27 18
f 1 18 8
f 1 8 3
f 1 3 11
f 1 11 20
f 1 20 30
f 1 30 45
f 1 45 44
f 1 44 31
f 1 31 21
f 1 21 12
f 1 12 4
f 1 4 5
f 1 5 2
f 2 5 7
f 2 7 6
f 3 8 9
f 3 9 10
f 3 10 11
f 4 12 13
f 4 13 5
f 5 13 14
f 5 14 7
f 6 7 15
f 7 14 16
f 7 16 17
f 7 17 15
f 8 18 28
f 8 28 42
f 8 42 51
f 8 51 55
f 8 55 47
f 8 47 46
f 8 46 43
f 8 43 29
f 8 29 19
f 8 19 10
f 8 10 9
f 10 19 11
f 11 19 20
f 12 21 22
f 12 22 13
f 13 22 14
f 14 22 23
f 14 23 24
f 14 24 25
f 14 25 16
f 16 25 26
f 16 26 17
f 18 27 28
f 19 29 20
f 20 29 30
f 21 31 32
f 21 32 33
f 21 33 22
f 22 33 23
f 23 33 34
f 23 34 24
f 24 34 35
f 24 35 36
f 24 36 25
f 25 36 26
f 26 36 38
f 26 38 37
f 27 39 40
f 27 40 41
f 27 41 42
f 27 42 28
f 29 43 44
f 29 44 45
f 29 45 30
f 31 46 47
f 31 47 32
f 31 44 46
f 32 47 48
f 32 48 33
f 33 48 49
f 33 49 34
f 34 49 50
f 34 50 35
f 35 50 51
f 35 51 52
f 35 52 42
f 35 42 41
f 35 41 36
f 36 41 40
f 36 40 39
f 36 39 38
f 37 38 53
f 38 39 54
f 38 54 53
f 42 52 51
f 43 46 44
f 47 55 48
f 48 55 49
f 49 55 51
f 49 51 50

