# https://github.com/mikedh/trimesh
v -0.03980512 19.42041549 38.46358643
v -0.03980512 19.42041549 37.00439802
v -21.36560220 19.42041549 38.46358643
v -0.03980512 16.37950134 39.04410651
v -0.03980512 16.37950134 37.00419797
v -21.57026506 19.42041549 37.00439802
v -24.35094177 17.77925307 37.00439802
v -27.85748696 8.83575208 39.04410651
v -22.24155729 16.37950134 39.04410651
v -0.03980512 8.83575208 39.04410651
v -0.03980512 8.83575208 37.00419797
v -24.64019769 16.37950134 37.00419797
v -27.73195979 12.55012365 37.00419797
v -27.86840170 8.83575208 38.89273596
v -27.91752058 8.83575208 37.00419797
f 1 2 6
f 1 6 3
f 1 3 9
f 1 9 4
f 1 4 10
f 1 10 11
f 1 11 5
f 1 5 2
f 2 5 12
f 2 12 6
f 3 6 7
f 3 7 8
f 3 8 9
f 4 9 8
f 4 8 10
f 5 11 15
f 5 15 13
f 5 13 12
f 6 12 7
f 7 12 13
f 7 13 8
f 8 13 14
f 8 14 15
f 8 15 11
f 8 11 10
f 13 15 14

