# https://github.com/mikedh/trimesh
v 16.38412321 21.21920346 9.39592620
v 20.55517172 20.84080796 6.39150514
v 20.55517172 20.54984356 9.40211430
v 16.39228867 21.22060318 9.40211430
v 16.38412321 21.22829649 9.40211430
v 16.38412321 21.63956484 6.39150514
v 20.55517172 27.69527961 6.39150514
v 20.55517172 27.69527961 9.40211430
v 16.38412321 27.69527961 9.40211430
v 16.38412321 27.69527961 6.39150514
f 1 2 3
f 1 3 4
f 1 4 5
f 1 5 9
f 1 9 10
f 1 10 6
f 1 6 2
f 2 6 10
f 2 10 7
f 2 7 8
f 2 8 3
f 3 8 9
f 3 9 5
f 3 5 4
f 7 10 9
f 7 9 8

