# https://github.com/mikedh/trimesh
v 17.13764904 -33.08379323 -1.06858507
v 19.10285455 -33.08379323 -1.06858507
v 17.13764904 -33.08379323 7.18583129
v 17.13764904 -23.07362003 -1.06858507
v 19.10628052 -33.08379323 -1.03788384
v 21.07576882 -31.75083442 -1.06858507
v 19.30151714 -33.08379323 7.18583129
v 17.13764904 -21.91319740 7.18583129
v 17.13764904 -22.60639629 -1.00717746
v 17.38169448 -22.80794452 -1.06858507
v 19.64917409 -32.73872087 -0.51430590
v 19.91291469 -32.70513014 7.18583129
v 21.93806120 -31.09580623 -1.06858507
v 23.09320914 -30.25297229 -0.36725288
v 21.95775764 -31.11412868 -0.36725288
v 21.09460716 -31.76304853 -0.36725288
v 21.97317000 -17.48526795 7.18583129
v 19.81358340 -17.48526795 4.26737470
v 17.13764904 -20.18325049 4.37968429
v 17.13764904 -22.38194694 -0.96192840
v 21.96632063 -17.48526795 -0.93203510
v 22.93479367 -17.48526795 -1.06858507
v 19.84012921 -32.64710862 1.35942116
v 21.13742215 -31.79969343 3.08528728
v 21.17938033 -31.83481253 6.53863278
v 21.18194948 -31.84244667 7.18583129
v 22.61282442 -30.58124929 -1.06858507
v 21.97830832 -31.13245113 1.35942116
v 23.95721514 -29.59336284 -0.36725288
v 25.88474398 -17.48526795 7.18583129
v 19.56868242 -17.48526795 3.67269403
v 17.13764904 -19.59235151 3.08528728
v 17.13764904 -19.84275810 3.66461476
v 17.13764904 -21.97121892 -0.87870676
v 21.54073859 -17.48526795 -0.82941806
v 25.88474398 -17.48526795 -1.06858507
v 23.97691158 -29.60252535 1.35942116
v 22.04167399 -31.16604185 6.53863278
v 21.72056156 -31.42103034 7.18583129
v 23.07094483 -30.23006858 -1.06858507
v 23.93409659 -29.56588045 -1.06858507
v 25.71605446 -28.11993278 -1.06858507
v 25.88474398 -27.58247342 7.18583129
v 19.33319997 -17.48526795 3.08528728
v 17.13764904 -19.56639492 2.56170934
v 17.13764904 -20.87645067 -0.53450408
v 20.51403562 -17.48526795 -0.45047451
v 25.88474398 -27.96113780 -1.06858507
v 23.96920282 -29.58572870 3.08528728
v 22.04424186 -31.15840771 7.18583129
v 25.82994130 -27.97640607 -0.05375142
v 25.88474398 -27.59316173 6.97413894
v 23.88100497 -29.49106357 7.18583129
v 19.29038498 -17.48526795 1.35942116
v 17.13764904 -19.51142757 1.35942116
v 17.13764904 -20.11912320 -0.18464591
v 19.78018822 -17.48526795 -0.14101270
v 25.88474398 -27.91533167 0.03997327
v 23.93580765 -29.54755800 4.81115081
v 23.01785578 -30.29419844 7.18583129
v 24.88972513 -28.72457360 3.08528728
v 23.89727415 -29.50633185 6.53863278
v 23.55817891 -29.79643815 7.18583129
f 1 2 5
f 1 5 7
f 1 7 3
f 1 3 8
f 1 8 19
f 1 19 33
f 1 33 32
f 1 32 45
f 1 45 55
f 1 55 56
f 1 56 46
f 1 46 34
f 1 34 20
f 1 20 9
f 1 9 4
f 1 4 10
f 1 10 22
f 1 22 36
f 1 36 48
f 1 48 42
f 1 42 41
f 1 41 40
f 1 40 27
f 1 27 13
f 1 13 6
f 1 6 2
f 2 6 5
f 3 7 12
f 3 12 26
f 3 26 39
f 3 39 50
f 3 50 60
f 3 60 63
f 3 63 53
f 3 53 43
f 3 43 30
f 3 30 17
f 3 17 8
f 4 9 10
f 5 6 11
f 5 11 12
f 5 12 7
f 6 13 14
f 6 14 15
f 6 15 16
f 6 16 11
f 8 17 18
f 8 18 19
f 9 20 21
f 9 21 22
f 9 22 10
f 11 23 12
f 11 16 23
f 12 23 24
f 12 24 25
f 12 25 26
f 13 27 14
f 14 28 15
f 14 27 29
f 14 29 25
f 14 25 28
f 15 28 24
f 15 24 16
f 16 24 23
f 17 30 36
f 17 36 22
f 17 22 21
f 17 21 35
f 17 35 47
f 17 47 57
f 17 57 54
f 17 54 44
f 17 44 31
f 17 31 18
f 18 31 32
f 18 32 33
f 18 33 19
f 20 34 21
f 21 34 35
f 24 28 25
f 25 29 26
f 26 29 37
f 26 37 38
f 26 38 39
f 27 40 29
f 29 40 41
f 29 41 42
f 29 42 37
f 30 43 52
f 30 52 58
f 30 58 48
f 30 48 36
f 31 44 32
f 32 44 45
f 34 46 35
f 35 46 47
f 37 42 49
f 37 49 50
f 37 50 38
f 38 50 39
f 42 51 49
f 42 48 51
f 43 53 52
f 44 54 55
f 44 55 45
f 46 56 57
f 46 57 47
f 48 58 51
f 49 51 59
f 49 59 60
f 49 60 50
f 51 61 59
f 51 58 52
f 51 52 61
f 52 53 62
f 52 62 61
f 53 63 62
f 54 57 55
f 55 57 56
f 59 63 60
f 59 61 62
f 59 62 63

