# https://github.com/mikedh/trimesh
v -19.15224728 -33.08379323 16.85783810
v -19.01011000 -33.16811869 16.85783810
v -19.15598716 -33.08379323 18.34379103
v 18.99660828 -33.08379323 16.85783810
v -18.14606540 -33.66690819 16.85783810
v -19.15972704 -33.08379323 22.08216112
v 19.05271418 -33.08379323 28.98776246
v 18.89187493 -33.14869756 16.85783810
v -18.14606540 -33.66690819 16.89986832
v -16.64988473 -34.50913104 16.85783810
v -19.14850611 -33.08379323 23.80794361
v -19.01011000 -33.16914018 22.08216112
v -19.00636883 -33.16658517 23.80794361
v 19.04897430 -33.08379323 30.71107100
v 18.04653359 -33.70063786 28.98776246
v 18.05027347 -33.66026466 16.85783810
v -18.14606540 -33.66384115 18.62812477
v -16.61248079 -34.53008311 16.85783810
v -16.61248079 -34.53008311 16.89986832
v -19.12232310 -33.08379323 25.53372482
v -18.99140674 -33.15891758 25.53372482
v -18.14232552 -33.63777907 23.80794361
v 18.76469974 -33.08379323 31.98191976
v 18.91431807 -33.16300611 30.71107100
v 16.52791107 -34.56381278 28.98776246
v 16.53539212 -34.55870277 27.26197997
v 16.56157513 -34.53570515 16.85783810
v 17.99416756 -33.69348488 16.85783810
v -15.74843620 -34.99463348 16.85783810
v -15.74843620 -34.99463348 16.89986832
v -16.59003766 -34.52752810 18.62812477
v -19.09239892 -33.08379323 27.26197997
v -19.05873486 -33.08379323 28.98776246
v -18.12736343 -33.62704702 25.53372482
v 18.65622652 -33.08379323 32.43932615
v 18.05027347 -33.64646558 30.71107100
v 15.69753053 -35.01303055 16.89986832
v 15.71997367 -35.00127701 16.85783810
v 15.60775928 -34.95937029 30.13993214
v 15.66760764 -34.98594440 28.98776246
v -14.71981247 -35.38712396 16.85783810
v -12.99172456 -36.05507641 25.53372482
v -15.72599435 -34.98338940 18.62812477
v -16.51522850 -34.50095399 23.80794361
v -18.07499740 -33.59178383 30.71107100
v -18.09369937 -33.60404940 28.98776246
v -16.56385465 -34.52037255 20.35390597
v -12.99172456 -36.04996640 27.26197997
v -14.71981247 -35.35952836 25.53372482
v -14.71981247 -35.34624130 27.26197997
v -19.02133092 -33.08379323 30.55777840
v -18.93904072 -33.12927644 30.71107100
v 18.58515853 -33.08379323 32.58272936
v 17.84828912 -33.49314983 32.43932615
v 16.25485744 -34.55921480 30.71354366
v 15.69753053 -35.01303055 16.85783810
v 15.67134752 -34.99003293 27.26197997
v 15.67508740 -34.99412145 25.53372482
v 14.63150287 -35.40041359 25.53372482
v 14.63150287 -35.40450211 23.80794361
v 14.63150287 -35.40705712 22.08216112
v 14.63150287 -35.40910009 20.35390597
v 14.63150287 -35.41063361 18.62812477
v 14.63150287 -35.41216713 16.85783810
v 15.38333308 -34.85920277 31.29210181
v 14.73623493 -35.22154264 30.71354366
v 12.90715484 -35.92986829 30.71107100
v 14.63150287 -35.38610247 28.98776246
v 14.63150287 -35.39377006 27.26197997
v -12.99172456 -35.98506207 16.85783810
v -12.99172456 -36.04638734 23.80794361
v -10.75119472 -36.75368893 18.62812477
v -10.76615681 -36.75522245 20.35390597
v -11.61897920 -36.48640657 23.80794361
v -11.59653607 -36.48998564 25.53372482
v -15.67736820 -34.95783678 22.08216112
v -16.48904548 -34.49022194 25.53372482
v -14.88065172 -35.25016230 28.85177598
v -16.27210033 -34.55103775 28.85177598
v -15.56515510 -34.90162152 29.33638044
v -16.44416050 -34.41100649 30.71107100
v -17.85805096 -33.48650630 32.43932615
v -12.99172456 -36.03667677 28.98776246
v -19.01759104 -33.08379323 30.71107100
v -18.56499619 -33.08379323 32.43932615
v 17.81462506 -33.08379323 34.06126428
v 17.50416877 -33.32552296 33.79918327
v 16.35959078 -34.19176492 32.43932615
v 12.90715484 -36.01572470 27.26197997
v 12.90715484 -36.01623673 25.53372482
v 14.59035777 -35.42647567 16.85783810
v 15.12150166 -34.74472670 32.43932615
v 14.25745706 -35.12495418 32.43932615
v 12.90715484 -35.68251652 32.43932615
v 12.90715484 -36.00754766 28.98776246
v 11.03692965 -36.33666732 32.31570301
v 10.36738836 -36.65045694 31.65555452
v 11.30624212 -36.44092336 30.71107100
v -11.57409422 -36.46443301 16.85783810
v -10.73249275 -36.74857892 16.85783810
v -9.53928861 -37.12420585 16.85783810
v -9.53928861 -37.11756232 18.62812477
v -10.76615681 -36.74806946 22.08216112
v -9.53928861 -37.10836379 20.35390597
v -11.56287201 -36.48538508 27.26197997
v -15.59881916 -34.91797561 27.26197997
v -14.61882029 -35.26907140 30.71107100
v -15.48286489 -34.86584630 30.71107100
v -15.58385707 -34.91082005 28.18668215
v -16.44416050 -34.19534141 32.43932615
v -17.53637247 -33.31990092 33.73242636
v -12.99172456 -35.91555718 30.71107100
v -11.52172819 -36.47516506 28.98776246
v -10.56043194 -36.67805512 30.22152377
v -17.80942481 -33.08379323 33.96731059
v 17.41439752 -33.08379323 34.77580763
v 17.17500795 -33.15891758 34.94888028
v 16.50546794 -33.67457578 34.29120445
v 14.57165451 -34.58374336 34.18488806
v 13.95822170 -34.99207848 33.62116528
v 10.67036488 -36.75011244 22.08216112
v 10.67410541 -36.75624651 20.35390597
v 12.90715484 -36.01419118 23.80794361
v 12.90715484 -36.01112415 22.08216112
v 12.90715484 -35.99783709 16.85783810
v 11.17906693 -35.84503080 34.16510864
v 12.96700191 -35.23278672 34.18488806
v 11.38853104 -36.47056451 28.98776246
v 11.44089835 -36.47516506 27.26197997
v 9.95593925 -36.54517941 32.80772419
v 9.40983327 -36.77157654 32.31570301
v 7.72663034 -37.14975847 32.43932615
v 7.72663034 -37.34293796 30.71107100
v 9.45097837 -36.91569633 30.71107100
v 10.44593804 -36.66885401 30.71107100
v -7.85234581 -37.50596427 16.85783810
v -7.81120070 -37.49881129 23.80794361
v -7.81120070 -37.49267722 25.53372482
v -7.81120070 -37.48092368 27.26197997
v -9.53928861 -37.09047618 22.08216112
v -14.35698887 -35.12444215 32.43932615
v -15.21729230 -34.75494929 32.43932615
v -16.56385465 -33.66537467 34.25164433
v -14.06523455 -34.99872200 33.57913377
v -17.21843385 -33.13694403 34.88459604
v -11.18508761 -36.44910041 30.76299318
v -11.26363665 -36.21810272 32.43932615
v -12.99172456 -35.65798538 32.43932615
v -9.53928861 -37.02506238 27.26197997
v -9.53928861 -37.00308625 28.98776246
v -7.81120070 -37.46252661 28.98776246
v -7.81120070 -37.35213650 30.71107100
v -9.65898340 -36.85794498 30.76299318
v -9.22509116 -36.78639711 32.43932615
v -17.36057113 -33.08379323 34.78569701
v 17.24981711 -33.08379323 35.02552657
v 17.02539091 -33.08379323 35.29255356
v 15.89951489 -33.38889378 35.89336251
v 13.58043601 -34.84029367 34.77333496
v 10.64418187 -36.73631335 23.80794361
v 9.45097837 -37.10274175 20.35390597
v 9.45097837 -37.13391641 16.85783810
v 10.63296094 -36.76442355 16.85783810
v 10.66288448 -36.75471299 16.85783810
v 11.13418066 -35.21745412 35.91561524
v 9.45097837 -35.68966951 35.89336251
v 9.40983327 -36.34177990 34.09587907
v 8.80388021 -36.69134217 33.47281738
v 12.42837697 -35.05187280 35.35436513
v 10.52448772 -36.68827514 28.98776246
v 9.45097837 -37.05112447 23.80794361
v 9.45097837 -37.08076561 22.08216112
v 7.72663034 -36.80939473 33.84616012
v 5.99854243 -37.44463900 32.43932615
v 5.99854243 -37.71089988 30.71107100
v 5.99854243 -37.80289035 28.98776246
v 7.72663034 -37.38535671 28.98776246
v -7.81120070 -37.51414132 16.85783810
v -7.81120070 -37.50647630 20.35390597
v -6.08311279 -37.80442130 28.98776246
v -14.67118761 -34.56023629 34.16016331
v -16.06637481 -33.43028847 35.54968987
v -13.56401355 -34.81167658 34.73130345
v -12.99172456 -35.20927707 34.16016331
v -17.03141159 -33.08379323 35.21343460
v -10.08913512 -36.54773441 32.43932615
v -8.91837411 -36.70360774 33.51732220
v -11.26363665 -35.78983703 34.16510864
v -6.08311279 -37.70170134 30.71107100
v -7.81120070 -37.12880640 32.43932615
v 16.50172806 -33.08379323 35.89336251
v 16.05661425 -33.08379323 36.38043900
v 15.50302723 -33.18651576 36.76119845
v 14.63150287 -33.95003518 35.89336251
v 12.96700191 -34.60214300 35.91561524
v 7.72663034 -37.50749779 22.08216112
v 7.72663034 -37.52129688 20.35390597
v 7.72663034 -37.53305042 16.85783810
v 11.68028664 -34.80043250 36.50653481
v 10.53196877 -34.97316938 36.88234957
v 9.45097837 -35.12597567 37.15432125
v 7.72663034 -36.10975816 35.89336251
v 7.72663034 -36.53291384 34.70905072
v 7.72663034 -37.48092368 23.80794361
v 6.82892233 -36.62950230 35.00821982
v 6.15190063 -36.94738045 34.32581860
v 4.27045420 -37.24532544 34.16510864
v 4.27045420 -37.63066294 32.43932615
v 4.27045420 -37.93627552 30.71107100
v 4.27045420 -38.06812716 28.98776246
v 5.99854243 -37.81106483 27.26197997
v -6.12799777 -37.72572045 16.85783810
v -6.08311279 -37.78857924 23.80794361
v -6.08311279 -37.80033535 25.53372482
v -6.08311279 -37.80595482 27.26197997
v -4.35876508 -38.00168931 28.98776246
v -4.35876508 -37.91378736 30.71107100
v -14.85820987 -33.76094422 36.03182102
v -16.42545853 -33.08379323 35.89830785
v -15.52774988 -33.15585312 36.70185955
v -12.41195452 -35.00587756 35.27030083
v -12.99172456 -34.56892279 35.86369306
v -9.53928861 -35.68455949 35.89336251
v -9.51310560 -36.33257879 34.12307585
v -6.08311279 -37.46508162 32.43932615
v -7.81120070 -36.82063881 33.86594018
v -7.81120070 -36.53598088 34.72883078
v -11.19630853 -35.17145888 35.86369306
v -4.35876508 -37.68841171 32.43932615
v 15.59653836 -33.08379323 36.85762481
v 14.63150287 -33.08379323 37.57464018
v 13.56547392 -33.09912583 38.33863304
v 14.63150287 -33.36742968 37.08509167
v 5.99854243 -37.82128742 23.80794361
v 5.99854243 -37.82077539 22.08216112
v 5.99854243 -37.80800036 20.35390597
v 5.99854243 -37.78704572 18.62812477
v 5.99854243 -37.76507216 16.85783810
v 11.13418066 -34.44729116 37.52271864
v 12.95578099 -33.70012840 37.70568133
v 9.45097837 -34.65682475 38.01721185
v 7.62937869 -35.27929142 37.69084660
v 5.99854243 -35.64316481 37.61914500
v 6.15190063 -36.42661482 35.87852779
v 5.67686393 -36.73580389 35.29255356
v 4.27045420 -36.83443790 35.53979984
v 2.54610665 -37.40835433 34.16510864
v 2.54610665 -37.79420128 32.43932615
v 0.81801857 -37.92656495 32.43932615
v 2.54610665 -38.06352918 30.71107100
v 2.54610665 -38.17851471 28.98776246
v 2.54610665 -38.18464878 27.26197997
v 2.54610665 -38.19027082 25.53372482
v 2.54610665 -38.18924676 23.80794361
v 4.27045420 -38.06301715 27.26197997
v -2.62693633 -38.08754829 16.85783810
v -4.35876508 -37.96540464 23.80794361
v -4.35876508 -37.97818223 25.53372482
v -0.93999320 -38.25875165 16.85783810
v -2.63067685 -38.15960561 27.26197997
v -2.63067685 -38.17034024 28.98776246
v -2.63067685 -38.08039273 30.71107100
v -14.37569084 -33.42160196 37.18151803
v -15.89057347 -33.08379323 36.46697533
v -14.67866737 -33.08379323 37.51035659
v -15.34820866 -33.08379323 36.96888589
v -11.72371254 -34.77692285 36.42247051
v -9.53928861 -35.13006419 37.14937591
v -10.57165351 -34.96652585 36.86009748
v -7.81120070 -36.10464814 35.89336251
v -6.21402850 -36.96935658 34.31345590
v -4.35876508 -37.28263418 34.16510864
v -6.87234759 -36.62183728 34.98843976
v -2.63067685 -37.83201947 32.43932615
v 13.63280204 -33.08379323 38.31390829
v 13.57669484 -33.08379323 38.35346777
v 12.62662016 -33.08379323 38.94191466
v 12.41341488 -33.33676704 38.70455777
v 4.27045420 -38.05484011 25.53372482
v 4.27045420 -38.04053156 23.80794361
v 5.95739733 -37.77018217 16.85783810
v 11.17906693 -33.55038657 39.03092366
v 9.52204701 -33.73487956 39.48091269
v 8.14182061 -34.81116455 38.31390829
v 6.99350210 -34.93841822 38.52901309
v 5.99854243 -35.03654020 38.69466838
v 4.27045420 -35.15868385 38.89741049
v 4.27045420 -35.87262897 37.61914500
v 4.27045420 -36.48743063 36.40269109
v 2.54610665 -36.90802874 35.71040047
v 0.81801857 -37.51976336 34.16510864
v 0.81801857 -38.17289524 30.71107100
v -0.90258870 -37.93934255 32.43932615
v -0.90258870 -38.19333528 30.71107100
v 0.81801857 -38.27561777 28.98776246
v 0.81801857 -38.28737131 25.53372482
v 0.81801857 -38.30474689 20.35390597
v 2.54610665 -38.18209377 22.08216112
v 0.81801857 -38.30372540 18.62812477
v -0.90258870 -38.26232814 16.85783810
v -0.90258870 -38.27101722 18.62812477
v -0.90258870 -38.27663926 20.35390597
v -0.90258870 -38.28430427 25.53372482
v -0.90258870 -38.28941428 28.98776246
v -12.99920560 -33.65055410 37.70320866
v -13.57897564 -33.09299176 38.33368771
v -13.63508155 -33.08379323 38.30649092
v -7.72143009 -35.27366938 37.69826397
v -8.23761190 -34.80860955 38.32627034
v -9.53928861 -34.61645155 38.01226716
v -5.72402907 -36.73018185 35.26535614
v -6.21402850 -36.40515072 35.86122039
v -6.08311279 -35.61250217 37.61914500
v -2.63067685 -37.41704083 34.16510864
v -2.63067685 -36.89576317 35.73017989
v -4.35876508 -36.82268179 35.50518570
v 11.17906693 -33.08379323 39.70590688
v 2.54610665 -38.17391673 20.35390597
v 2.54610665 -38.16165116 18.62812477
v 4.22930941 -37.96080666 16.85783810
v 2.54236628 -38.14478504 16.85783810
v 10.43471647 -33.08379323 40.07430492
v 10.14296151 -33.13489848 40.14353385
v 8.99090312 -33.28923829 40.34874863
v 7.62937869 -34.36092273 39.20152364
v 5.99854243 -34.47897786 39.55755898
v 4.27045420 -34.60776504 39.76030173
v 2.54610665 -35.22716468 39.00372623
v 2.54610665 -36.01163618 37.61914500
v 2.54610665 -36.55744498 36.57576374
v 0.81801857 -36.60957171 36.69444219
v 0.81801857 -36.94789248 35.83155094
v -0.90258870 -36.94277990 35.86369306
v -0.90258870 -37.51618687 34.16510864
v 0.81801857 -38.29350281 16.85783810
v -12.42691661 -33.28106124 38.62543881
v -12.60645782 -33.08379323 38.82076419
v -13.56775472 -33.08379323 38.35099510
v -7.08555350 -34.93995174 38.52901309
v -8.87722901 -33.24784360 40.29188239
v -9.48692259 -33.67815227 39.41910112
v -7.72143009 -34.32719306 39.20152364
v -7.81120070 -33.39400379 40.48720649
v -11.26363665 -33.47117370 38.89741049
v -4.35876508 -36.48283008 36.36807630
v -6.08311279 -35.02734166 38.65016356
v -4.35876508 -35.85576285 37.61914500
v -0.90258870 -36.62490432 36.72658431
v -2.63067685 -36.57226555 36.59307114
v 10.18784714 -33.08379323 40.18803803
v 10.07937392 -33.08379323 40.23007018
v 9.15922341 -33.08379323 40.54654539
v 7.72663034 -33.08379323 40.97675500
v 7.72663034 -33.43437699 40.53171067
v 5.99854243 -33.61580294 40.75670550
v 4.27045420 -33.74407809 40.91988877
v 2.54610665 -34.67573384 39.86661748
v 0.81801857 -34.73246113 39.95315381
v 0.81801857 -35.28440400 39.08779054
v 0.81801857 -36.12100224 37.61914500
v -11.26363665 -33.08379323 39.44382587
v -6.08311279 -34.41918353 39.51305481
v -7.81120070 -33.08379323 40.89021932
v -8.54058842 -33.08379323 40.62566436
v -9.01562577 -33.08379323 40.44270232
v -10.01058543 -33.08379323 40.02238274
v -6.08311279 -33.55600862 40.69736660
v -6.73395083 -33.08379323 41.15724566
v -10.09661616 -33.08379323 39.98282326
v -4.35876508 -35.14590625 38.81581885
v -2.63067685 -36.03105731 37.61914500
v -0.90258870 -36.14297837 37.61914500
v 5.99854243 -33.08379323 41.43168873
v 5.68060445 -33.08379323 41.49102891
v 4.27045420 -33.08379323 41.75310992
v 2.54610665 -33.13132199 41.87178901
v 2.54610665 -33.81255892 41.00642445
v 0.86664440 -33.74663310 41.23389196
v 0.32427906 -33.20797986 41.96821408
v -0.27419301 -33.20797986 41.96821408
v -0.90258870 -34.71048500 39.93584641
v -0.90258870 -35.29155699 39.07295581
v -4.35876508 -34.51679605 39.67871010
v -2.63067685 -34.61389654 39.81222327
v -6.08311279 -33.08379323 41.31548359
v -2.63067685 -35.23227469 38.94933203
v 2.54610665 -33.08379323 41.93112791
v 1.37908616 -33.08379323 42.03497099
v 1.47633782 -33.16914018 41.91876586
v 0.44397349 -33.08379323 42.11656262
v -0.86892464 -33.72976955 41.21658457
v -0.02732327 -33.08379323 42.11656262
v -0.39762786 -33.08379323 42.10914462
v -1.42251126 -33.14563053 41.88909512
v -2.63067685 -33.75072162 40.93966883
v -1.35892367 -33.08379323 41.97563209
f 1 2 3
f 1 3 6
f 1 6 11
f 1 11 20
f 1 20 32
f 1 32 33
f 1 33 51
f 1 51 84
f 1 84 85
f 1 85 115
f 1 115 155
f 1 155 185
f 1 185 219
f 1 219 264
f 1 264 266
f 1 266 265
f 1 265 307
f 1 307 338
f 1 338 337
f 1 337 361
f 1 361 369
f 1 369 366
f 1 366 365
f 1 365 364
f 1 364 363
f 1 363 368
f 1 368 385
f 1 385 396
f 1 396 393
f 1 393 392
f 1 392 390
f 1 390 388
f 1 388 387
f 1 387 375
f 1 375 374
f 1 374 373
f 1 373 353
f 1 353 352
f 1 352 351
f 1 351 350
f 1 350 322
f 1 322 317
f 1 317 277
f 1 277 276
f 1 276 275
f 1 275 231
f 1 231 230
f 1 230 192
f 1 192 191
f 1 191 157
f 1 157 156
f 1 156 116
f 1 116 86
f 1 86 53
f 1 53 35
f 1 35 23
f 1 23 14
f 1 14 7
f 1 7 4
f 1 4 8
f 1 8 16
f 1 16 28
f 1 28 27
f 1 27 38
f 1 38 56
f 1 56 64
f 1 64 91
f 1 91 125
f 1 125 164
f 1 164 163
f 1 163 162
f 1 162 198
f 1 198 238
f 1 238 281
f 1 281 320
f 1 320 321
f 1 321 335
f 1 335 300
f 1 300 259
f 1 259 256
f 1 256 212
f 1 212 178
f 1 178 136
f 1 136 101
f 1 101 100
f 1 100 99
f 1 99 70
f 1 70 41
f 1 41 29
f 1 29 18
f 1 18 10
f 1 10 5
f 1 5 2
f 2 5 6
f 2 6 3
f 4 7 8
f 5 9 6
f 5 10 9
f 6 9 12
f 6 12 13
f 6 13 11
f 7 14 15
f 7 15 8
f 8 15 16
f 9 10 17
f 9 17 12
f 10 18 19
f 10 19 17
f 11 13 20
f 12 17 19
f 12 19 13
f 13 21 20
f 13 19 22
f 13 22 21
f 14 23 24
f 14 24 15
f 15 24 25
f 15 25 26
f 15 26 27
f 15 27 28
f 15 28 16
f 18 29 30
f 18 30 19
f 19 30 31
f 19 31 22
f 20 21 32
f 21 33 32
f 21 22 34
f 21 34 33
f 22 31 34
f 23 35 36
f 23 36 24
f 24 36 25
f 25 37 38
f 25 38 26
f 25 36 39
f 25 39 40
f 25 40 37
f 26 38 27
f 29 41 42
f 29 42 30
f 30 43 44
f 30 44 45
f 30 45 46
f 30 46 47
f 30 47 31
f 30 42 48
f 30 48 49
f 30 49 50
f 30 50 43
f 31 47 46
f 31 46 34
f 33 34 52
f 33 52 51
f 34 46 52
f 35 53 54
f 35 54 55
f 35 55 36
f 36 55 39
f 37 56 38
f 37 40 57
f 37 57 58
f 37 58 59
f 37 59 60
f 37 60 61
f 37 61 62
f 37 62 63
f 37 63 64
f 37 64 56
f 39 65 66
f 39 66 67
f 39 67 68
f 39 68 40
f 39 55 65
f 40 68 69
f 40 69 59
f 40 59 57
f 41 70 71
f 41 71 42
f 42 71 72
f 42 72 73
f 42 73 74
f 42 74 75
f 42 75 48
f 43 76 77
f 43 77 44
f 43 50 78
f 43 78 76
f 44 77 45
f 45 77 79
f 45 79 80
f 45 80 81
f 45 81 82
f 45 82 52
f 45 52 46
f 48 75 83
f 48 83 50
f 48 50 49
f 50 83 78
f 51 52 84
f 52 85 84
f 52 82 85
f 53 86 87
f 53 87 54
f 54 87 88
f 54 88 55
f 55 88 65
f 57 59 58
f 59 69 89
f 59 89 60
f 60 89 61
f 61 89 62
f 62 89 63
f 63 89 64
f 64 89 90
f 64 90 91
f 65 92 93
f 65 93 94
f 65 94 66
f 65 88 92
f 66 94 67
f 67 95 68
f 67 94 96
f 67 96 97
f 67 97 98
f 67 98 95
f 68 95 89
f 68 89 69
f 70 99 71
f 71 99 100
f 71 100 72
f 72 100 101
f 72 101 73
f 73 75 74
f 73 101 102
f 73 102 103
f 73 103 75
f 75 103 104
f 75 104 105
f 75 105 83
f 76 79 77
f 76 78 106
f 76 106 79
f 78 83 107
f 78 107 108
f 78 108 80
f 78 80 109
f 78 109 106
f 79 106 109
f 79 109 80
f 80 108 81
f 81 110 82
f 81 108 110
f 82 110 111
f 82 111 85
f 83 112 107
f 83 105 113
f 83 113 114
f 83 114 112
f 85 111 115
f 86 116 87
f 87 116 117
f 87 117 118
f 87 118 88
f 88 118 119
f 88 119 120
f 88 120 92
f 89 95 121
f 89 121 122
f 89 122 90
f 90 123 91
f 90 122 123
f 91 123 124
f 91 124 125
f 92 120 93
f 93 120 94
f 94 126 96
f 94 120 127
f 94 127 126
f 95 98 128
f 95 128 129
f 95 129 121
f 96 126 130
f 96 130 97
f 97 130 131
f 97 131 132
f 97 132 133
f 97 133 134
f 97 134 135
f 97 135 98
f 98 135 128
f 101 136 137
f 101 137 138
f 101 138 102
f 102 104 103
f 102 138 104
f 104 138 139
f 104 139 140
f 104 140 105
f 105 140 113
f 107 141 142
f 107 142 110
f 107 110 108
f 107 112 141
f 110 143 111
f 110 142 144
f 110 144 143
f 111 145 115
f 111 143 145
f 112 146 147
f 112 147 148
f 112 148 141
f 112 114 146
f 113 140 149
f 113 149 150
f 113 150 114
f 114 150 151
f 114 151 152
f 114 152 153
f 114 153 154
f 114 154 146
f 115 145 155
f 116 156 117
f 117 156 157
f 117 157 158
f 117 158 159
f 117 159 119
f 117 119 118
f 119 159 120
f 120 159 127
f 121 160 161
f 121 161 162
f 121 162 122
f 121 129 128
f 121 128 160
f 122 162 163
f 122 163 164
f 122 164 123
f 123 164 124
f 124 164 125
f 126 165 166
f 126 166 167
f 126 167 168
f 126 168 130
f 126 127 169
f 126 169 165
f 127 159 169
f 128 135 170
f 128 170 171
f 128 171 172
f 128 172 161
f 128 161 160
f 130 168 131
f 131 168 132
f 132 173 174
f 132 174 175
f 132 175 133
f 132 168 173
f 133 175 176
f 133 176 177
f 133 177 134
f 134 177 135
f 135 177 170
f 136 178 179
f 136 179 137
f 137 179 180
f 137 180 138
f 138 180 139
f 139 180 151
f 139 151 140
f 140 151 149
f 141 144 142
f 141 148 144
f 143 144 181
f 143 181 182
f 143 182 145
f 144 183 181
f 144 148 184
f 144 184 183
f 145 185 155
f 145 182 185
f 146 154 186
f 146 186 147
f 147 186 187
f 147 187 188
f 147 188 148
f 148 188 184
f 149 151 150
f 151 180 189
f 151 189 152
f 152 189 190
f 152 190 154
f 152 154 153
f 154 190 187
f 154 187 186
f 157 191 158
f 158 191 192
f 158 192 193
f 158 193 194
f 158 194 159
f 159 195 169
f 159 194 195
f 161 172 196
f 161 196 162
f 162 196 197
f 162 197 198
f 165 169 199
f 165 199 200
f 165 200 166
f 166 200 201
f 166 201 202
f 166 202 203
f 166 203 167
f 167 203 168
f 168 203 173
f 169 195 199
f 170 177 204
f 170 204 171
f 171 204 172
f 172 204 196
f 173 203 205
f 173 205 206
f 173 206 174
f 174 206 207
f 174 207 208
f 174 208 209
f 174 209 175
f 175 209 210
f 175 210 176
f 176 210 211
f 176 211 197
f 176 197 196
f 176 196 204
f 176 204 177
f 178 212 213
f 178 213 214
f 178 214 215
f 178 215 180
f 178 180 179
f 180 215 216
f 180 216 217
f 180 217 189
f 181 183 218
f 181 218 182
f 182 219 185
f 182 218 220
f 182 220 219
f 183 184 188
f 183 188 221
f 183 221 222
f 183 222 218
f 187 223 224
f 187 224 188
f 187 190 225
f 187 225 226
f 187 226 227
f 187 227 223
f 188 228 221
f 188 224 223
f 188 223 228
f 189 217 229
f 189 229 225
f 189 225 190
f 192 230 193
f 193 230 231
f 193 231 232
f 193 232 233
f 193 233 195
f 193 195 194
f 195 233 199
f 197 211 198
f 198 211 234
f 198 234 235
f 198 235 236
f 198 236 237
f 198 237 238
f 199 239 200
f 199 233 240
f 199 240 239
f 200 241 201
f 200 239 241
f 201 241 242
f 201 242 202
f 202 242 243
f 202 243 244
f 202 244 205
f 202 205 203
f 205 244 245
f 205 245 206
f 206 245 207
f 207 245 246
f 207 246 247
f 207 247 248
f 207 248 208
f 208 248 209
f 209 248 249
f 209 249 250
f 209 250 210
f 210 250 251
f 210 251 252
f 210 252 253
f 210 253 254
f 210 254 255
f 210 255 235
f 210 235 234
f 210 234 211
f 212 256 213
f 213 256 257
f 213 257 258
f 213 258 214
f 214 258 216
f 214 216 215
f 216 258 259
f 216 259 260
f 216 260 261
f 216 261 217
f 217 261 262
f 217 262 229
f 218 222 263
f 218 263 220
f 219 220 264
f 220 263 265
f 220 265 266
f 220 266 264
f 221 228 267
f 221 267 222
f 222 267 263
f 223 268 269
f 223 269 228
f 223 227 270
f 223 270 268
f 225 271 226
f 225 229 272
f 225 272 271
f 226 271 227
f 227 271 273
f 227 273 270
f 228 269 267
f 229 262 274
f 229 274 272
f 231 275 232
f 232 240 233
f 232 275 276
f 232 276 277
f 232 277 278
f 232 278 240
f 235 255 279
f 235 279 236
f 236 279 280
f 236 280 281
f 236 281 237
f 237 281 238
f 239 240 278
f 239 278 282
f 239 282 241
f 241 283 284
f 241 284 242
f 241 282 283
f 242 285 243
f 242 284 285
f 243 285 286
f 243 286 287
f 243 287 288
f 243 288 289
f 243 289 244
f 244 289 245
f 245 289 246
f 246 289 290
f 246 290 247
f 247 290 291
f 247 291 249
f 247 249 248
f 249 292 250
f 249 291 293
f 249 293 294
f 249 294 292
f 250 292 251
f 251 292 295
f 251 295 252
f 252 295 296
f 252 296 297
f 252 297 253
f 253 297 299
f 253 299 254
f 254 298 255
f 254 299 298
f 255 298 318
f 255 318 279
f 256 259 257
f 257 259 258
f 259 300 261
f 259 261 260
f 261 300 301
f 261 301 302
f 261 302 303
f 261 303 304
f 261 304 262
f 262 304 294
f 262 294 274
f 263 305 306
f 263 306 307
f 263 307 265
f 263 267 305
f 267 269 305
f 268 270 308
f 268 308 309
f 268 309 310
f 268 310 269
f 269 310 306
f 269 306 305
f 270 273 311
f 270 311 312
f 270 312 313
f 270 313 308
f 271 272 311
f 271 311 273
f 272 274 314
f 272 314 315
f 272 315 316
f 272 316 311
f 274 294 293
f 274 293 314
f 277 317 278
f 278 317 282
f 279 318 319
f 279 319 280
f 280 320 281
f 280 319 321
f 280 321 320
f 282 317 322
f 282 322 323
f 282 323 283
f 283 323 324
f 283 324 325
f 283 325 284
f 284 325 285
f 285 325 326
f 285 326 286
f 286 326 327
f 286 327 287
f 287 327 328
f 287 328 329
f 287 329 288
f 288 329 330
f 288 330 289
f 289 330 290
f 290 330 331
f 290 331 332
f 290 332 291
f 291 332 333
f 291 333 334
f 291 334 293
f 292 294 295
f 293 334 314
f 294 304 295
f 295 304 296
f 296 304 297
f 297 304 299
f 298 299 318
f 299 335 318
f 299 304 303
f 299 303 302
f 299 302 301
f 299 301 300
f 299 300 335
f 306 336 337
f 306 337 338
f 306 338 307
f 306 310 336
f 308 313 339
f 308 339 309
f 309 340 341
f 309 341 310
f 309 339 342
f 309 342 343
f 309 343 340
f 310 341 344
f 310 344 336
f 311 316 345
f 311 345 312
f 312 345 313
f 313 346 339
f 313 345 347
f 313 347 346
f 314 334 315
f 315 334 333
f 315 333 348
f 315 348 349
f 315 349 316
f 316 349 345
f 318 335 319
f 319 335 321
f 322 350 323
f 323 350 351
f 323 351 324
f 324 351 352
f 324 352 353
f 324 353 354
f 324 354 326
f 324 326 325
f 326 354 355
f 326 355 327
f 327 356 357
f 327 357 328
f 327 355 356
f 328 357 358
f 328 358 359
f 328 359 360
f 328 360 329
f 329 360 331
f 329 331 330
f 331 360 348
f 331 348 332
f 332 348 333
f 336 344 337
f 337 344 361
f 339 346 362
f 339 362 343
f 339 343 342
f 340 343 363
f 340 363 364
f 340 364 365
f 340 365 366
f 340 366 341
f 341 366 344
f 343 362 367
f 343 367 368
f 343 368 363
f 344 366 369
f 344 369 361
f 345 349 347
f 346 347 370
f 346 370 362
f 347 349 371
f 347 371 370
f 348 372 371
f 348 371 349
f 348 360 372
f 353 373 355
f 353 355 354
f 355 373 356
f 356 373 374
f 356 374 375
f 356 375 376
f 356 376 377
f 356 377 357
f 357 377 358
f 358 377 378
f 358 378 379
f 358 379 380
f 358 380 381
f 358 381 382
f 358 382 359
f 359 382 372
f 359 372 360
f 362 370 367
f 367 370 383
f 367 383 384
f 367 384 385
f 367 385 368
f 370 371 386
f 370 386 381
f 370 381 384
f 370 384 383
f 371 372 382
f 371 382 386
f 375 387 376
f 376 387 388
f 376 388 389
f 376 389 377
f 377 389 390
f 377 390 379
f 377 379 378
f 379 390 392
f 379 392 380
f 380 391 381
f 380 392 393
f 380 393 394
f 380 394 391
f 381 391 395
f 381 395 385
f 381 385 384
f 381 386 382
f 385 395 391
f 385 391 394
f 385 394 396
f 388 390 389
f 393 396 394

