# https://github.com/mikedh/trimesh
v 0.81952475 23.84255309 111.07016480
v 0.81952475 23.82157271 111.50604920
v 1.74088023 23.80292349 111.13243180
v 1.75477002 23.80525464 111.07016480
v -0.90280796 23.84022193 111.07016480
v -0.90280796 23.82157271 111.46907496
v 0.81952475 23.77961196 112.36809199
v 0.81952475 23.63508049 115.32394737
v 0.81952475 23.54416553 117.04998330
v 2.54648745 23.42061444 117.04998330
v 2.40758960 23.70268392 111.77263942
v 2.22239257 23.75630043 111.07016480
v 2.54648745 23.51152939 115.32394737
v 2.54648745 23.59778205 113.59791659
v -1.80564368 23.80292349 111.07016480
v -0.90280796 23.63274934 115.32394737
v 0.81952475 23.37399138 118.77795929
v -0.90280796 23.54183438 117.04998330
v 2.54648745 23.25044029 118.77795929
v 4.27345015 23.16884994 117.04998330
v 4.27345015 23.26209605 115.32394737
v 2.59278679 23.71667084 111.07016480
v 4.27345015 23.34834870 113.59791659
v 4.27345015 23.43460135 111.86993546
v -2.64829027 23.70967738 111.07016480
v -2.62977066 23.58845744 113.59791659
v -2.62977066 23.50220478 115.32394737
v -2.62977066 23.41128983 117.04998330
v 0.81952475 23.01732758 120.50399522
v -0.90280796 23.37166023 118.77795929
v 2.54648745 22.89144533 120.50399522
v 4.27345015 22.99634721 118.77795929
v 6.00041301 22.78188116 117.04998330
v 6.00041301 22.87512727 115.32394737
v 6.00041301 22.96371107 113.59791659
v 6.00041301 23.05229487 111.86993546
v 4.27345015 23.47423095 111.07016480
v -3.67613421 23.56281476 111.07016480
v -4.35673336 23.24577798 115.32394737
v -4.35673336 23.15020072 117.04998330
v -2.62977066 23.24111567 118.77795929
v 0.75007591 22.35994251 122.38180823
v 2.54648745 22.36227366 122.06462223
v -0.90280796 23.01499643 120.50399522
v 4.27345015 22.23173168 121.75716736
v 4.27345015 22.63268738 120.50399522
v 5.94485387 22.26669897 120.45728983
v 6.00041301 22.60471355 118.77795929
v 7.30142203 22.22240707 118.77795929
v 7.56069781 22.31098830 117.04998330
v 7.72737523 22.56741510 111.07016480
v 6.00041301 23.09192190 111.07016480
v -4.35673336 23.46024403 111.07016480
v -6.08369622 23.07094410 111.07016480
v -6.08369622 22.94273070 113.59791659
v -6.08369622 22.85414689 115.32394737
v -4.35673336 22.97769799 118.77795929
v -6.08369622 22.75856963 117.04998330
v -2.62977066 22.88212072 120.50399522
v 0.12966570 22.07787560 123.10374514
v 1.28251748 22.05689522 123.05899010
v -0.82872914 22.35761135 122.37791783
v -0.20368903 22.07787560 123.10374514
v 2.54648745 21.99861640 122.92861022
v -2.62977066 22.35761135 122.05489108
v 4.27345015 21.86340954 122.62115536
v 5.32907350 22.12449865 121.49641275
v 6.48192535 21.96364911 121.00214661
v 7.03288661 22.12916096 119.85016090
v 8.16721821 21.91935721 118.77795929
v 8.42186449 22.01260332 117.04998330
v 8.52835262 22.04990176 115.75399617
v 7.86164358 22.30632599 115.23638248
v 7.72737523 22.43687055 113.59791659
v 8.77836876 22.15014133 111.86993546
v 8.82466826 22.17112171 111.07016480
v -7.81065844 22.54177242 111.07016480
v -7.73658001 22.34828674 115.32394737
v -7.59768216 22.29933253 117.04998330
v -6.08369622 22.58373317 118.77795929
v -6.01424730 22.25504321 120.44366828
v -4.35673336 22.61636931 120.50399522
v -7.34766603 22.21075130 118.77795929
v -4.35673336 22.22473822 121.73575987
v 0.75007591 21.64661234 123.79065301
v 2.54648745 21.41116591 123.95605679
v -1.35191091 22.05456407 123.05509455
v -0.82872914 21.64428118 123.79065301
v 4.27345015 21.13608988 123.95605679
v -2.62977066 21.99395410 122.91888422
v 5.89392423 20.72114469 124.00276218
v 5.94485387 21.67458617 122.13467517
v 7.72737523 21.05449954 122.22808080
v 7.65792630 21.73053384 120.45728983
v 9.62564565 20.86567616 120.67523460
v 9.44970795 21.38785438 118.77795929
v 9.44970795 21.57434660 117.04998330
v 8.60706119 22.07787560 114.60201046
v 9.28766067 21.74685191 115.23638248
v 9.53304666 21.73053384 113.59791659
v 9.29229081 21.97064257 111.07016480
v -8.35699020 22.34595559 111.07016480
v -8.66719498 22.06855099 114.40936359
v -8.59774605 22.04523946 115.32394737
v -8.46347834 21.99395410 117.04998330
v -7.09764990 22.12449865 119.82875856
v -5.38920696 22.11750519 121.47890080
v -6.54205849 21.95665565 120.97879906
v -8.21346221 21.90303914 118.77795929
v -4.35673336 21.85641608 122.59975301
v -0.90280796 20.68851113 125.27150107
v 0.81952475 20.68851113 125.27344627
v 2.54648745 20.62090770 125.18393618
v 4.27345015 20.48103853 124.99907525
v -2.62977066 21.40184130 123.95605679
v 5.24573479 20.37613666 124.86091457
v -4.35673336 21.11744066 123.95605679
v 6.39858664 20.20596251 124.60794076
v 7.72737523 20.50901237 123.36839016
v 8.59317141 20.34583167 123.09401400
v 9.01912525 20.54164850 122.22808080
v 10.31550477 20.34350052 121.36214246
v 10.64422947 20.52066813 120.21405231
v 10.93128417 20.67452421 118.77795929
v 11.10722188 20.77009890 117.04998330
v 9.69046444 21.79813727 111.07016480
v -8.87554175 22.15713479 111.07016480
v -8.74127405 22.09885597 113.25932308
v -9.53762130 21.63495657 115.32394737
v -9.53762130 21.53471700 117.04998330
v -9.53762130 21.35055594 118.77795929
v -9.69040894 20.84469579 120.64993670
v -7.72731973 21.71421577 120.44366828
v -6.01424730 21.66059925 122.12494402
v -7.96807622 20.89598115 122.38958904
v -5.96331766 20.70715778 123.99303103
v -2.62977066 20.61391424 125.17615024
v -0.90280796 19.98683415 126.13354387
v 0.81952475 19.98683415 126.13548907
v 2.54648745 19.91223726 126.04597898
v 4.27345015 19.75838118 125.86306325
v -4.35673336 20.46938277 124.98545371
v 5.52353017 18.73967000 126.66478425
v 5.96337316 19.47165196 125.67236157
v -5.30586825 20.36914320 124.85118342
v 6.67638234 18.55550893 126.48186337
v 7.72737523 19.09866752 125.39020461
v 7.72737523 19.96352262 124.23043295
v 9.00986496 18.82359150 125.06912820
v 9.37562952 19.44834043 123.90157060
v 10.83405632 18.91916876 123.55519629
v 9.88492143 20.13835908 122.22808080
v 11.31556801 19.29448435 122.36234594
v 12.41286169 18.86788340 121.87586575
v 11.20445102 20.06376219 120.67523460
v 11.79708100 20.20596251 118.77795929
v 11.97301870 20.30620208 117.04998330
v 10.35254398 21.47410703 111.07016480
v 12.02857784 20.33883821 116.06923698
v 11.34334758 20.73979391 115.42513896
v 11.17667145 20.92861729 113.59791659
v -9.73670843 21.77948804 111.07016480
v -11.14883638 20.74911853 117.04998330
v -10.97289867 20.65354384 118.77795929
v -10.69973311 20.50668121 120.17124246
v -10.37100841 20.32951360 121.32127782
v -9.21815624 20.59526502 121.92257114
v -7.50045367 20.55330427 123.44038830
v -8.64867505 20.33417591 123.07261165
v -6.45409028 20.19430674 124.59237401
v -2.62977066 19.90757495 126.04014337
v -2.62977066 19.04271986 126.95277681
v -0.90280796 19.12197905 127.02478010
v 0.81952475 19.12431020 127.02672530
v 2.54648745 19.04971331 126.95861756
v 4.27345015 18.89585723 126.81461613
v -4.35673336 19.74905657 125.84944170
v 4.27345015 17.87947720 127.67860927
v 5.17628587 16.90505792 128.28184264
v 5.92633394 17.73028343 127.39839236
v -6.01887680 19.46232735 125.66263042
v -5.58366396 18.73034539 126.65699830
v 7.72737523 17.47385662 127.04812765
v 7.72737523 18.33638057 126.25419260
v 9.62101551 17.84684106 125.78522436
v 10.15808699 18.53685971 124.70718200
v 11.31556801 18.28043290 124.06113877
v 11.98690784 18.58348276 123.02590626
v 12.95456266 18.23847215 122.36234594
v 13.56571321 18.47158743 120.95350116
v 12.95456266 19.06136908 120.42810153
v 13.83887877 18.66973541 119.80151546
v 12.90363367 19.49496349 118.77795929
v 12.90363367 19.69777378 117.04998330
v 11.17667145 21.06848645 111.07016480
v 12.26007341 20.47870738 111.07016480
v 11.69985314 20.78408582 111.07016480
v 12.75547553 19.90058150 115.42513896
v 13.08883037 19.89825034 111.86993546
v 13.12587023 19.92156187 111.07016480
v -10.58398469 21.36221170 111.07016480
v -11.26458352 20.88432539 113.59791659
v -11.41274165 20.71415123 115.24416328
v -12.08408148 20.32018899 115.76567252
v -12.01000177 20.27822824 117.04998330
v -11.83869549 20.17798867 118.77795929
v -11.27384380 20.03578836 120.64993670
v -9.69040894 20.15933945 122.38958904
v -12.47299418 18.84923418 121.84278705
v -11.38496208 19.26651052 122.34288879
v -7.96807622 20.01947029 123.99303103
v -10.89419010 18.90751300 123.53573914
v -9.60244008 19.24553014 124.04946243
v -9.06536860 18.80960458 125.05355630
v -7.81065844 19.08234945 125.37074231
v -6.73651548 18.54618432 126.47213737
v -4.35673336 18.88420147 126.80489013
v -2.62977066 18.03799559 127.81676995
v -0.90280796 18.12191709 127.88876809
v 0.81952475 18.12424824 127.89071329
v 2.54648745 18.04498905 127.82260555
v 4.27345015 17.01695326 128.36162673
v 5.85225487 16.07749870 128.62238135
v 6.32913771 16.68826072 128.13395596
v 4.27345015 16.02854449 128.94151256
v -5.98646773 17.72095882 127.39061156
v -5.24104915 16.89806447 128.27795224
v -4.35673336 17.87015259 127.66887812
v 7.72737523 16.38287971 127.91017044
v 9.08394403 17.15681985 126.77764703
v 10.23216606 16.84211680 126.50132567
v 11.17667145 17.35963014 125.32598727
v 12.21840469 17.01928441 124.96404621
v 12.83881424 17.36662360 123.88989939
v 13.91758734 17.01462210 123.26914892
v 14.26946147 17.30601363 122.22808080
v 15.43620342 16.83978565 121.23176773
v 14.63985617 17.76058841 120.51761677
v 13.96851634 18.76997498 118.77795929
v 15.66770027 17.05192055 120.08367242
v 14.83431316 18.07529403 118.77795929
v 14.10741419 18.87487686 117.04998330
v 13.00549166 19.84696498 113.59791659
v 14.18149390 18.93082452 115.32394737
v 14.32039047 19.03572640 111.86993546
v 14.35280018 19.05903792 111.07016480
v -11.26458352 21.02419455 111.07016480
v -12.19056962 20.38313012 113.59791659
v -12.82486960 19.86328305 115.24416328
v -12.99154702 19.63949496 117.04998330
v -12.99154702 19.43668467 118.77795929
v -13.89901256 18.65108619 119.74119366
v -13.02395673 19.02873294 120.39112729
v -12.04241149 18.56483354 122.99477276
v -13.62584699 18.45060706 120.89317937
v -13.02395673 18.20350486 122.34288879
v -10.21822077 18.52054164 124.68577965
v -11.38496208 18.25012792 124.04946243
v -7.81065844 18.32006250 126.23473545
v -9.68114929 17.83052300 125.76965761
v -7.81065844 17.45753855 127.03256090
v -4.35673336 17.00762865 128.35384079
v -2.62977066 17.17546907 128.46865392
v -0.90280796 17.25939057 128.52314011
v 0.81952475 17.26172172 128.52508531
v 2.54648745 17.18246253 128.47448952
v 5.88003444 14.14964051 129.60507288
v 7.72737523 14.30116544 129.13026389
v 7.72737523 15.51802461 128.49005627
v 2.54648745 16.02854449 129.14583064
v 4.27345015 14.48299536 129.71599046
v -6.39390100 16.67427380 128.12422481
v -5.92164830 16.07050524 128.61265020
v -4.35673336 16.02854449 128.92594581
v 8.75984883 15.26392896 128.33632884
v 9.49600744 16.05418717 127.44120735
v 9.90807086 14.89094452 128.10476252
v 11.17667145 15.65323147 126.92553372
v 12.19525527 15.28724049 126.64532195
v 11.17667145 16.51575541 126.18997526
v 12.78325510 15.93063607 125.59452268
v 14.05185505 15.42244735 125.07690900
v 13.37125622 16.57403423 124.42113463
v 14.56114760 15.96327221 123.87822305
v 15.68158941 15.35251276 123.33531146
v 15.13525829 16.56237847 122.22808080
v 16.01957440 15.69752080 122.22808080
v 17.16316564 15.09608596 121.20841503
v 16.41774738 16.08449216 120.64604630
v 14.97321101 18.18718679 117.04998330
v 17.36688292 15.32920124 120.05837453
v 16.70480337 16.36423049 118.77795929
v 15.84363669 17.21043636 118.77795929
v 15.04728944 18.25012792 115.32394737
v 15.21396686 18.38766593 111.07016480
v -11.80165564 20.73046930 111.07016480
v -12.26927819 20.43208432 111.86993546
v -12.70449103 20.19430674 111.07016480
v -13.16748344 19.89125689 111.07016480
v -13.13044487 19.86794536 111.86993546
v -13.05173502 19.81432884 113.59791659
v -14.14902869 18.84224072 117.04998330
v -14.01476098 18.73967000 118.77795929
v -14.87592637 18.03566444 118.77795929
v -15.72783277 17.02627787 120.01361948
v -14.69535981 17.73727689 120.45339943
v -13.97772112 16.99364173 123.23996063
v -12.90820831 17.33398746 123.87238230
v -12.27853848 17.00296634 124.94458906
v -15.49633721 16.81181181 121.16171479
v -14.31570611 17.27570864 122.22808080
v -11.26458352 17.33398746 125.30068937
v -10.29229920 16.82579873 126.48575892
v -9.13944767 17.14283293 126.76597068
v -7.81065844 16.36189933 127.89460369
v -2.62977066 16.02854449 129.13610464
v -0.90280796 16.02854449 129.23729107
v 0.81952475 16.02854449 129.23923627
v 5.22721486 13.47360622 130.01370903
v 6.37543657 13.19853019 129.91836334
v 7.89405265 12.60408881 129.81912210
v 9.44970795 12.57378383 129.40853045
v 9.38025902 14.31049005 128.62627175
v 2.54648745 14.68347192 129.80744575
v 4.27345015 13.62046884 130.06819522
v -7.81065844 15.49937539 128.47837992
v -5.95405801 14.14497821 129.59339653
v -7.81065844 14.30116544 129.10886154
v -4.35673336 14.46900844 129.70820452
v 10.69978861 13.73935763 128.43946562
v 11.23685945 14.31049005 127.83233670
v 12.82492510 14.24754893 126.98196511
v 13.96388619 13.63445576 126.68618660
v 13.34810679 14.78604264 126.22694950
v 11.85264014 13.26846477 128.18260141
v 14.58429703 14.25221124 125.64900888
v 15.74177870 13.71604610 125.06912820
v 15.20470657 14.86763299 124.48729717
v 16.28347967 14.21724394 123.86265630
v 17.32521292 13.56452117 123.23801543
v 16.88536994 14.77671803 122.22808080
v 17.59837976 13.91419409 122.22808080
v 18.77438072 13.18687700 120.86788147
v 18.07063117 14.28251622 120.46313057
v 15.96401526 17.32466285 117.04998330
v 17.51966991 15.50170654 118.77795929
v 18.97346785 13.47127506 119.71589577
v 16.82981079 16.49011273 117.04998330
v 16.03346354 17.38527282 115.32394737
v 16.09365282 17.44122049 113.59791659
v 16.15384211 17.49716815 111.86993546
v 16.18162168 17.52281083 111.07016480
v -12.30168790 20.45306470 111.07016480
v -13.82956299 19.42736006 111.07016480
v -14.22310711 18.89818838 115.32394737
v -15.08890394 18.21049832 115.32394737
v -15.01482422 18.14988835 117.04998330
v -15.88525119 17.17313792 118.77795929
v -16.74641658 16.31760743 118.77795929
v -17.42701670 15.29889625 119.97859559
v -16.47325102 16.05651832 120.57209781
v -13.43139000 16.55072271 124.39194633
v -15.17687150 16.52041772 122.22808080
v -15.73709305 15.32687008 123.30028242
v -14.62128138 15.93762953 123.84513920
v -12.25538776 15.26859126 126.62975520
v -11.26458352 16.48778158 126.16273216
v -14.11198883 15.39913582 125.05355630
v -12.84338888 15.90965570 125.57506553
v -17.21866928 15.05878752 121.12863609
v -16.06118761 15.65789377 122.22808080
v -9.55614123 16.03786910 127.42953100
v -11.26458352 15.62525764 126.90413137
v -8.81998261 15.24994204 128.32854804
v -2.62977066 14.67181616 129.80355535
v -0.90280796 14.77671803 129.84831040
v 0.81952475 14.77904919 129.85025560
v 5.88003444 12.60408881 130.18105801
v 4.27345015 12.57378383 130.36981448
v 7.43106024 12.04927574 130.10711981
v 8.57928227 11.70659629 129.99814743
v 9.44970795 11.32195737 129.87555349
v 11.04240245 10.71352779 129.57393423
v 11.23685945 12.64604956 128.73913454
v 2.54648745 13.81861682 130.14019851
v -5.28734865 13.46661276 130.00981863
v -6.44020049 13.18454585 129.91252774
v -9.44965245 14.29883429 128.61070500
v -9.53762130 12.57378383 129.38518290
v -7.96344608 12.59476420 129.80744575
v -4.35673336 13.60415077 130.06235962
v 12.97308195 12.64604956 127.89849409
v 13.58886264 11.50378728 128.17481546
v 14.57503674 12.47820656 126.96639836
v 15.59362056 11.84180315 126.62781000
v 15.11210886 12.99106017 126.22111390
v 12.44064126 12.11687917 128.46865392
v 16.24181096 12.41992774 125.57506553
v 17.32058406 11.85112776 124.92901717
v 16.89000008 13.00038478 124.39000113
v 17.64467862 12.48520002 123.87043710
v 18.87623871 11.59003994 122.95196291
v 18.51510430 12.59709535 122.31759089
v 19.15866456 12.03528883 121.80192241
v 19.32534198 12.59709535 120.37750574
v 16.89463022 16.55538501 115.32394737
v 18.38546673 14.44802807 118.77795929
v 18.49658501 14.58556351 117.04998330
v 17.63078819 15.62525764 117.04998330
v 20.46893322 11.32428852 118.77795929
v 19.71425597 12.57378383 118.77795929
v 19.05680656 13.58550155 118.77795929
v 16.95481950 16.61832614 113.59791659
v 17.01500879 16.68126726 111.86993546
v 17.04278836 16.70924109 111.07016480
v -14.39441468 19.02640179 111.07016480
v -14.36200497 19.00309026 111.86993546
v -14.29255540 18.95180490 113.59791659
v -15.25558136 18.35036749 111.07016480
v -15.15835222 18.26644599 113.59791659
v -16.07044790 17.34797438 115.32394737
v -16.00562847 17.28736440 117.04998330
v -16.87142529 16.44115853 117.04998330
v -17.56591455 15.45508348 118.77795929
v -17.94556825 14.41072962 120.53512872
v -19.02897149 13.43164547 119.61470418
v -16.92698443 14.72310152 122.22808080
v -17.38071656 13.52955388 123.19909598
v -16.34361346 14.18227665 123.82568205
v -15.26021021 14.83499685 124.45226813
v -11.91277392 13.24282209 128.16897986
v -11.30625352 14.29883429 127.80703880
v -13.40824057 14.75806881 126.20359681
v -14.01938984 13.60881308 126.66867465
v -12.89431788 14.23123086 126.95277681
v -15.79265219 13.68340996 125.03798955
v -14.63980067 14.22190625 125.62176578
v -18.88081336 13.21018595 120.50399522
v -17.64462312 13.86057757 122.22808080
v -9.96820464 14.87229530 128.09114097
v -10.75992175 13.72070841 128.43167968
v -2.62977066 13.80929221 130.13825331
v -0.90280796 13.91419409 130.17327721
v 0.81952475 13.91652524 130.17327721
v 6.00041301 10.84873465 130.59164966
v 2.54648745 12.57378383 130.49241356
v 4.27345015 10.84873465 130.73175554
v 7.89405265 11.01890751 130.28808520
v 9.44970795 10.45943214 130.12268142
v 10.37569341 10.04915054 130.01760972
v 11.62577343 9.12368547 129.86582235
v 12.90363367 9.12368547 129.37156136
v 12.97308195 10.89768885 128.72745819
v -7.48656388 12.03295767 130.10322941
v -5.95405801 12.59476420 130.17327721
v -4.35673336 12.57378383 130.36008848
v -8.63941541 11.68794706 129.99230668
v -11.30625352 12.62973149 128.72162259
v -11.11179652 10.69954087 129.55642228
v -9.53762130 11.28932123 129.86776755
v 14.04259605 10.35220040 128.42778927
v 14.62133688 10.89768885 127.80120320
v 15.93160555 10.84873465 126.89440022
v 17.13075721 9.81603526 126.45851582
v 16.79277223 10.84873465 126.13159866
v 17.62615934 10.84873465 125.26761067
v 18.81604943 9.71579569 124.63323865
v 18.53825373 10.94897421 124.01638373
v 19.19570442 10.43845176 123.48125295
v 19.53368812 10.94897421 122.31759089
v 20.61709136 9.85566486 121.17339114
v 20.30688594 10.81609851 120.56237181
v 20.79302907 10.21699354 120.02529583
v 17.69097748 15.69285849 115.32394737
v 18.55214416 14.66249155 115.32394737
v 19.15866456 13.72303956 117.04998330
v 20.91340635 10.45943214 118.77795929
v 20.56616236 11.50844959 117.04998330
v 19.91334310 12.57378383 117.04998330
v 17.74653662 15.75579962 113.59791659
v 17.80209576 15.81874074 111.86993546
v 17.82524518 15.84671457 111.07016480
v -14.79258766 18.71402732 111.07016480
v -15.77413291 17.88647066 111.07016480
v -16.13063718 17.40392204 113.59791659
v -16.61677902 17.10553706 111.07016480
v -17.07977143 16.65795573 111.07016480
v -16.93624472 16.50643080 115.32394737
v -17.67240269 15.57863458 117.04998330
v -18.53819823 14.52961584 117.04998330
v -19.12619935 13.56219002 118.46466883
v -18.54745851 14.20325703 118.93557712
v -19.57993276 12.74395798 118.93557712
v -20.51054772 11.24736048 118.77795929
v -20.85316156 10.16570818 119.94940729
v -19.44103491 12.34766201 120.50399522
v -18.54745851 12.56912152 122.28256700
v -18.93174235 11.53875457 122.89358632
v -17.67703283 12.46188849 123.84708440
v -17.37608770 11.81149816 124.89788367
v -16.94550372 12.96075518 124.35108169
v -13.03784587 12.62973149 127.86930580
v -13.64436628 11.46415769 128.15730351
v -12.49614490 12.09123649 128.45697757
v -15.17224265 12.95609288 126.18803006
v -15.65375434 11.80916701 126.60640251
v -14.64443081 12.45955734 126.93137446
v -16.29731460 12.38262930 125.54393204
v -19.21416820 11.99099692 121.74160061
v -2.62977066 12.57378383 130.48656767
v -0.90280796 12.57378383 130.54689976
v 0.81952475 12.57378383 130.54884496
v 6.00041301 9.12368547 130.83100192
v 7.72737523 9.12368547 130.67921455
v 2.54648745 10.84873465 130.80764923
v 9.44970795 9.12368547 130.40873908
v 10.75997789 9.12368547 130.11879102
v 12.00079827 8.20055026 129.98841628
v 12.89900352 7.53384186 129.78604340
v 14.63059588 7.39630385 129.04658940
v 14.62133688 9.00479668 128.58929751
v -6.08369622 10.84873465 130.58386886
v -7.96344608 11.00725175 130.28224959
v -4.35673336 10.84873465 130.72786514
v -10.43582719 10.02350786 130.00981863
v -9.53762130 10.42679600 130.11490062
v -13.03784587 10.87437733 128.70411064
v -12.99154702 9.12368547 129.33653231
v -11.67201807 9.12368547 129.85025560
v 15.54269156 8.34974404 128.30519534
v 15.19081743 9.50133093 128.07946977
v 16.33903881 9.08405587 127.40228790
v 17.42244206 8.66677953 126.72705124
v 18.12156146 9.19128761 125.72490256
v 19.08921499 8.56420881 124.99128931
v 19.48738926 9.13301008 124.01638373
v 20.61246122 8.08399262 122.95585331
v 20.40411508 9.21693029 122.31953609
v 20.87173763 8.70407797 121.80386761
v 21.08008377 9.21693029 120.56237181
v 21.52455689 9.12368547 118.77795929
v 18.69104201 14.83499685 111.07016480
v 19.21422370 13.79996760 115.32394737
v 20.01983124 12.57378383 115.32394737
v 21.70975489 9.12368547 117.04998330
v 21.00600534 10.64359320 117.04998330
v 20.62172150 11.60868916 115.32394737
v -16.21860603 17.48551239 111.07016480
v -16.19082646 17.45986971 111.86993546
v -17.50572527 16.19638749 111.07016480
v -17.73259197 15.64390686 115.32394737
v -18.59375737 14.60654388 115.32394737
v -19.20027777 13.66709189 117.04998330
v -19.91328760 12.57378383 117.04998330
v -20.60777557 11.42919040 117.04998330
v -20.96427985 10.38483653 118.77795929
v -21.53839182 9.12368547 118.77795929
v -21.12169827 9.18429415 120.51566642
v -20.67722514 9.79971719 121.09749745
v -20.34387030 10.78579352 120.51566642
v -19.57067247 10.91633808 122.28256700
v -19.25583691 10.38716640 123.44233350
v -18.57060794 10.91633808 123.99303103
v -18.87618321 9.66218047 124.59431921
v -17.67240269 10.84873465 125.22480083
v -16.83901558 10.84873465 126.08684362
v -14.69072967 10.87437733 127.76617416
v -14.09809969 10.31490195 128.41027218
v -17.18625957 9.76708105 126.43127273
v -15.97784890 10.84873465 126.86326672
v -2.62977066 10.84873465 130.80375883
v -0.90280796 10.84873465 130.83489232
v 0.81952475 10.84873465 130.83683752
v 7.72737523 7.39630385 130.85629982
v 4.27345015 9.12368547 130.90300521
v 9.44970795 7.39630385 130.66948855
v 11.32945844 7.53384186 130.27446879
v 12.32026269 7.05129453 130.09349312
v 13.52867335 5.66892352 129.91252774
v 14.63059588 5.66892352 129.42409720
v 16.10291311 5.66892352 128.64572890
v 15.76029798 7.39630385 128.43946562
v -7.81065844 9.12368547 130.67143375
v -6.08369622 9.12368547 130.82711152
v -9.53762130 9.12368547 130.39316718
v -12.05630191 8.15625836 129.97868513
v -10.80622125 9.12368547 130.10906501
v -14.69072967 8.97682284 128.56010921
v -14.71850924 7.39630385 129.00572475
v -12.96839759 7.50586803 129.76852631
v 16.62609480 7.39630385 127.83428190
v 17.70486790 7.39630385 126.97223911
v 18.57066344 7.39630385 126.13938461
v 19.32534198 7.39630385 125.27734182
v 20.24669666 7.46390728 123.92881369
v 20.81617849 6.93240574 123.33725666
v 21.11249348 7.46390728 122.31953609
v 21.81161288 7.39630385 120.50399522
v 22.19126658 7.34501849 118.88304127
v 22.24219687 7.77628175 117.04998330
v 19.26515270 13.86990218 113.59791659
v 19.31608170 13.93983677 111.86993546
v 19.33923112 13.97247291 111.07016480
v 20.20502795 12.68334800 111.07016480
v 20.68654093 11.73457012 112.95576377
v 22.28849572 7.92314308 115.32394737
v 22.40424286 8.26116023 111.07016480
v 21.80698145 9.12368547 115.32394737
v 21.05693434 10.74616392 115.32394737
v 21.02452463 11.00025829 113.55899714
v -17.86685968 15.79542921 111.07016480
v -17.84371026 15.76745538 111.86993546
v -18.73265522 14.77671803 111.07016480
v -19.25583691 13.74168878 115.32394737
v -20.01977574 12.57378383 115.32394737
v -20.74667343 11.68328476 112.44398568
v -20.66333471 11.52942996 115.32394737
v -21.05687884 10.56666516 117.04998330
v -21.71432824 9.12368547 117.04998330
v -22.28380879 7.64806835 117.04998330
v -22.22824965 7.29140197 118.76044734
v -21.81618624 7.39630385 120.50399522
v -20.92724128 8.64813030 121.74549102
v -20.44109815 9.18429415 122.28451220
v -20.66796486 8.00706458 122.89553152
v -19.52900376 9.10270509 123.99303103
v -19.14934877 8.51292344 124.96210101
v -18.18169396 9.14000354 125.69765947
v -15.24632107 9.45470787 128.06000747
v -15.60282534 8.30312098 128.28768339
v -16.39454246 9.03510166 127.38282561
v -17.48720598 8.61549417 126.70759409
v -4.35673336 9.12368547 130.90104972
v -2.62977066 9.12368547 130.93023802
v -0.90280796 9.12368547 130.93608391
v 0.81952475 9.12368547 130.93802911
v 2.54648745 9.12368547 130.93023802
v 6.00041301 7.39630385 130.92829282
v 7.72737523 5.66892352 130.92829282
v 9.44970795 3.94387434 130.89326892
v 9.44970795 5.66892352 130.82127592
v 11.17667145 5.66892352 130.56051616
v 12.66287782 5.66892352 130.19273950
v 13.74164963 4.72247678 129.99036148
v 14.53336803 4.06509428 129.71988086
v 16.49182709 3.95319895 128.71773219
v 17.15390664 4.53365341 128.22541125
v 16.96870865 5.66892352 128.09503652
v -7.81065844 7.39630385 130.84851902
v -9.53762130 7.39630385 130.65781734
v -6.08369622 7.39630385 130.92634762
v -11.39422237 7.50586803 130.26278730
v -12.38039647 7.00467147 130.08571232
v -15.80654262 7.39630385 128.41611293
v -16.14915647 5.66892352 128.62432655
v -14.71850924 5.66892352 129.38712810
v -13.57028785 5.66892352 129.89890619
v 18.17712060 5.58966432 127.12207099
v 18.81604943 6.11417241 126.40792003
v 19.50590855 5.58966432 125.77160281
v 20.47819351 5.66892352 124.51064472
v 21.00137520 5.66892352 123.64665673
v 21.70512346 5.66892352 122.22808080
v 22.26071486 5.80412909 120.60518166
v 22.38572229 6.47083878 119.52908449
v 22.46906229 6.73425775 118.37709879
v 22.52462143 6.91375651 117.04998330
v 20.71894935 11.78585548 111.86993546
v 20.74210007 11.82315392 111.07016480
v 22.57092028 7.06061914 115.32394737
v 22.21904487 8.69242221 111.07016480
v 21.89958174 9.12368547 113.59791659
v 22.61259028 7.51752379 111.71426282
v 22.65888913 7.46856958 111.07016480
v 21.19120205 10.84873465 111.86993546
v -19.07990049 14.31515236 111.07016480
v -19.30676720 13.81162337 113.59791659
v -19.77901861 13.31508783 111.07016480
v -20.29757144 12.52716077 111.07016480
v -20.12163374 12.57378383 113.59791659
v -20.68185529 11.91640003 111.07016480
v -20.77908314 11.73923243 111.29199998
v -21.20503698 10.93265615 111.07016480
v -21.10780784 10.66690473 115.32394737
v -21.81618624 9.12368547 115.32394737
v -22.33473908 7.79493097 115.32394737
v -22.57086478 6.78554311 117.04998330
v -22.52456593 6.64800510 118.17472591
v -22.44122593 6.35428114 119.32671162
v -21.70506796 5.66892352 122.22808080
v -21.14947784 7.41728422 122.28451220
v -22.29306908 5.73419451 120.54485472
v -20.28368102 7.41728422 123.89962540
v -20.87631228 6.85547770 123.28860607
v -18.61690808 7.39630385 126.09462442
v -19.37158534 7.39630385 125.23063643
v -16.67233816 7.39630385 127.80314840
v -17.75111126 7.39630385 126.94110561
v -4.35673336 7.39630385 130.94580991
v 2.54648745 7.39630385 130.94775511
v 4.27345015 7.39630385 130.94580991
v -2.62977066 7.39630385 130.94775511
v 6.00041301 5.66892352 130.94775511
v 7.72737523 3.94387434 130.94580991
v 9.44970795 2.21649272 130.92245721
v 11.17667145 2.21649272 130.77457053
v 11.17667145 3.94387434 130.69867684
v 13.06105080 4.06509428 130.25111610
v 13.88980777 3.57088990 130.04679802
v 14.87598187 2.21649272 129.74128321
v 16.35755939 2.21649272 128.98626761
v 17.28817435 3.38206652 128.32076209
v 17.95488404 3.95319895 127.67471372
v 18.99198714 4.96258552 126.59083576
v -7.81065844 5.66892352 130.92245721
v -9.53762130 5.66892352 130.81153963
v -9.53762130 3.94387434 130.88743332
v -11.26458352 5.66892352 130.54300936
v -7.81065844 3.94387434 130.94386471
v -6.08369622 5.66892352 130.94775511
v -12.70449103 5.66892352 130.18105801
v -17.01032315 5.66892352 128.06195267
v -17.20941028 4.41243475 128.20400376
v -16.55658973 3.87860206 128.68659354
v -14.60276081 4.00215316 129.69458297
v -13.79715327 4.61757491 129.98063548
v 20.62172150 4.53598456 124.73832064
v 21.12638391 3.95319895 124.08059592
v 22.10792658 3.99982200 122.15608266
v 22.36720429 4.61058145 121.24538928
v 22.52925028 5.31925189 120.09729397
v 22.64499999 5.80412909 118.88304127
v 22.86260513 5.66892352 117.04998330
v 22.95983427 5.66892352 115.32394737
v 23.04780312 5.66892352 113.59791659
v 21.23287205 10.84873465 111.07016480
v 22.61721914 7.19815586 113.59791659
v 22.06625916 9.04675743 111.07016480
v 22.88575455 6.46850762 111.07016480
v -19.38084562 13.91419409 111.07016480
v -19.35769620 13.88155795 111.86993546
v -20.32072087 12.41759659 111.86993546
v -20.78371328 11.75088819 111.07016480
v -22.07083252 9.05141973 111.07016480
v -22.00138423 9.12368547 111.86993546
v -21.90878652 9.12368547 113.59791659
v -22.26529079 8.58052687 111.07016480
v -22.44585736 8.13061568 111.07016480
v -22.61716364 6.93240574 115.32394737
v -23.04774762 5.66892352 113.59791659
v -22.95977877 5.66892352 115.32394737
v -22.86254963 5.66892352 117.04998330
v -22.67735421 5.73419451 118.76044734
v -22.58475392 5.20269425 119.99805273
v -22.42270793 4.44973320 121.14614804
v -22.14028080 3.90191359 122.11327282
v -21.04761856 5.66892352 123.57854899
v -20.51980801 5.66892352 124.44059178
v -18.87155307 6.00460823 126.37484133
v -19.53826276 5.52439205 125.75214566
v -18.24651338 5.52439205 127.07731595
v 7.72737523 2.21649272 130.94775511
v 8.99134568 0.02987658 130.93608391
v 9.44970795 0.48911239 130.93023802
v 11.17667145 0.48911239 130.79986843
v 12.90363367 0.48911239 130.46711567
v 12.90363367 2.21649272 130.42041028
v 14.01018634 2.21649272 130.09349312
v 14.95469044 0.48911239 129.77631226
v 16.35755939 0.48911239 129.06605169
v 17.43633120 0.48911239 128.42583893
v 17.37614320 2.21649272 128.38108388
v 18.23730860 2.21649272 127.68833527
v 19.09847528 3.94387434 126.69591774
v 20.07539038 3.95319895 125.55560839
v -9.53762130 2.21649272 130.91856681
v -11.26458352 3.94387434 130.68506044
v -11.26458352 2.21649272 130.76094384
v -13.12581473 4.00215316 130.23749970
v -7.81065844 2.21649272 130.94775511
v -9.53762130 0.48911239 130.92829282
v -19.04749078 4.85302134 126.55970226
v -18.02427682 3.87860206 127.62606828
v -17.34830813 3.26084658 128.30130494
v -16.44547145 2.21649272 128.93761701
v -14.92222651 2.21649272 129.71988086
v -13.94994155 3.46831918 130.03706173
v 20.73283978 3.38672883 124.89593847
v 21.44584833 2.21649272 123.95605679
v 22.18200630 2.21649272 122.57640031
v 22.46906229 3.46132572 121.53144179
v 22.65426028 3.99982200 120.60518166
v 23.05243198 3.94387434 118.77795929
v 23.22836968 3.94387434 117.04998330
v 23.32096739 3.94387434 115.32394737
v 23.34411939 3.94387434 113.59791659
v 22.89501484 5.66426121 111.07016480
v -22.56623593 7.76229483 111.07016480
v -22.70513249 7.20281817 111.86993546
v -23.12645619 5.66892352 111.86993546
v -23.40425189 3.94387434 113.59791659
v -23.31628304 3.94387434 115.32394737
v -23.22368533 3.94387434 117.04998330
v -23.05237648 3.94387434 118.77795929
v -22.68661192 3.90191359 120.54485472
v -22.52456593 3.29814502 121.46138885
v -22.22362080 2.21649272 122.47521387
v -21.15873684 3.86228399 124.05335283
v -20.68185529 4.38446092 124.69551079
v 7.72737523 0.02987658 130.94775511
v 9.44970795 0.02987658 130.93023802
v 10.71830790 0.02987658 130.83489232
v 11.17667145 0.02987658 130.79792323
v 12.44527011 0.02987658 130.55468056
v 12.90363367 0.02987658 130.46322527
v 14.08426476 0.02987658 130.12073622
v 14.08889490 0.48911239 130.12268142
v 14.95006158 0.02987658 129.77436706
v 16.35755939 0.02987658 129.06021095
v 17.14927650 0.02987658 128.59124271
v 17.43170234 0.02987658 128.42389373
v 15.97790440 0.02987658 129.25285782
v 18.30212802 0.48911239 127.74671701
v 19.23274299 2.21649272 126.82434728
v 20.09390967 2.21649272 125.85527730
v -11.26458352 0.48911239 130.79014243
v -12.99154702 2.21649272 130.39705758
v -12.99154702 0.48911239 130.44376297
v -7.81065844 0.02987658 130.94775511
v -9.53762130 0.02987658 130.92829282
v -20.10774459 3.86228399 125.53225569
v -19.14008978 3.94387434 126.65116270
v -18.28355324 2.21649272 127.64747063
v -17.41775642 2.21649272 128.35384079
v -17.48257584 0.48911239 128.39860098
v -16.44547145 0.48911239 129.01934630
v -14.99630494 0.48911239 129.75490476
v -14.05642969 2.21649272 130.07987672
v 20.80228807 2.21649272 124.99323451
v 21.55233518 0.48911239 123.95605679
v 22.23293658 0.48911239 122.70288464
v 22.54314200 2.21649272 121.71435752
v 22.92279570 2.21649272 120.50399522
v 23.27929997 2.21649272 118.77795929
v 23.45523768 2.21649272 117.04998330
v 23.54783539 2.21649272 115.32394737
v 23.64969338 0.48911239 115.32394737
v 22.82093770 4.77143099 111.07016480
v 23.64043310 0.02987658 115.32394737
v -22.70050363 7.33802503 111.07016480
v -23.53851960 2.21649272 113.59791659
v -23.01533791 5.61530700 111.07016480
v -23.54777989 2.21649272 115.32394737
v -23.45518218 2.21649272 117.04998330
v -23.28387332 2.21649272 118.77795929
v -22.92274020 2.21649272 120.50399522
v -22.58475392 2.21649272 121.61122073
v -22.27917994 0.48911239 122.60169821
v -21.44579283 2.21649272 123.95605679
v -20.78834342 3.23287275 124.85701903
v 18.29749788 0.02987658 127.74282146
v 19.29293227 0.48911239 126.88272387
v 20.15409895 0.48911239 125.92922579
v -11.26458352 0.02987658 130.78818693
v -14.13513826 0.48911239 130.10906501
v -12.99154702 0.02987658 130.44181777
v -20.13552416 2.21649272 125.80079111
v -19.27435748 2.21649272 126.78348263
v -18.34837138 0.48911239 127.70585237
v -17.47794570 0.02987658 128.39470543
v -16.44547145 0.02987658 129.01351070
v -17.70944255 0.02987658 128.20984450
v -14.99167480 0.02987658 129.75295956
v 20.85784721 0.48911239 125.06717785
v 21.54770632 0.02987658 123.95605679
v 22.04773859 0.02987658 123.03563740
v 21.36713976 0.02987658 124.24599970
v 22.22830515 0.02987658 122.69509870
v 22.49684057 0.02987658 122.06073182
v 22.59406971 0.48911239 121.84084185
v 23.02465369 0.48911239 120.50399522
v 23.38115796 0.48911239 118.77795929
v 23.55246424 0.48911239 117.04998330
v 23.54783539 0.02987658 117.04998330
v 23.61728367 0.02987658 115.78318446
v 22.66814942 4.42175937 111.07016480
v 22.97835484 0.02987658 113.43445801
v -23.50610989 0.02987658 113.59791659
v -23.61259931 0.02987658 114.86471028
v -23.64963788 0.48911239 115.32394737
v -22.89959077 4.13736002 111.07016480
v -23.55240874 0.48911239 117.04998330
v -23.38110246 0.48911239 118.77795929
v -23.02459819 0.48911239 120.50399522
v -22.63568421 0.48911239 121.73770507
v -22.63568421 0.02987658 121.72797907
v -22.27454851 0.02987658 122.59196706
v -21.54765082 0.02987658 123.95605679
v -21.55691111 0.48911239 123.95605679
v -20.84853271 2.21649272 124.93680311
v 19.28830213 0.02987658 126.87883347
v 19.92260210 0.02987658 126.17829891
v 20.14946881 0.02987658 125.92533024
v 20.66802036 0.02987658 125.29096337
v -14.13050812 0.02987658 130.10711981
v -20.19571216 0.48911239 125.87473960
v -19.33454677 0.48911239 126.84185923
v -18.34374252 0.02987658 127.70195682
v 20.85321706 0.02987658 125.06134225
v 22.58944085 0.02987658 121.83111071
v 23.37652653 0.02987658 118.77795929
v 22.90427513 0.02987658 120.85036438
v 23.01539341 0.02987658 120.50399522
v 22.48295143 0.92037436 112.69500915
v 21.53844732 0.02987658 112.72614265
v 21.53844732 3.96252356 111.07016480
v -23.34869275 0.02987658 113.28267578
v -23.64037760 0.02987658 115.32394737
v -23.54777989 0.02987658 117.04998330
v -22.90884848 0.02987658 112.45955243
v -21.79766824 3.44733880 111.07016480
v -22.56160450 0.02987658 112.37393274
v -23.42277246 0.02987658 118.31872220
v -23.37647103 0.02987658 118.77795929
v -23.01533791 0.02987658 120.50399522
v -23.11256705 0.02987658 120.04475298
v -20.89946171 0.02987658 125.00491086
v -20.90409185 0.48911239 125.01074646
v -20.19108202 0.02987658 125.86889885
v -19.32991663 0.02987658 126.83796883
v -20.38091015 0.02987658 125.63928287
v 19.66332697 0.02987658 112.64441336
v 18.08452160 0.02987658 112.60354871
v 20.83932792 3.93221857 111.07016480
v -21.62635939 3.37507306 111.07016480
v -21.62635939 0.02987658 112.18906667
v 14.63059588 0.02987658 112.56462927
v 19.81148382 3.89725128 111.07016480
v -19.89939717 3.36574845 111.07016480
v -21.16799712 0.02987658 112.19101187
v 9.90807086 0.02987658 112.51209342
v 19.14940427 3.88559552 111.07016480
v 7.72737523 0.02987658 112.48874073
v -9.53762130 0.02987658 112.30582500
v -19.44103491 0.02987658 112.20463341
v -19.89939717 0.02987658 112.20074301
v 5.51890067 3.69677215 111.07016480
v 9.44970795 3.75038866 111.07016480
v 12.33415312 3.79001826 111.07016480
f 1 2 3
f 1 3 4
f 1 4 12
f 1 12 22
f 1 22 37
f 1 37 52
f 1 52 51
f 1 51 76
f 1 76 101
f 1 101 126
f 1 126 158
f 1 158 195
f 1 195 197
f 1 197 196
f 1 196 200
f 1 200 246
f 1 246 295
f 1 295 352
f 1 352 415
f 1 415 482
f 1 482 542
f 1 542 603
f 1 603 604
f 1 604 669
f 1 669 736
f 1 736 738
f 1 738 671
f 1 671 607
f 1 607 674
f 1 674 739
f 1 739 797
f 1 797 848
f 1 848 886
f 1 886 916
f 1 916 934
f 1 934 938
f 1 938 942
f 1 942 949
f 1 949 948
f 1 948 947
f 1 947 939
f 1 939 935
f 1 935 921
f 1 921 891
f 1 891 852
f 1 852 850
f 1 850 798
f 1 798 748
f 1 748 747
f 1 747 744
f 1 744 683
f 1 683 743
f 1 743 681
f 1 681 679
f 1 679 678
f 1 678 740
f 1 740 676
f 1 676 613
f 1 613 611
f 1 611 550
f 1 550 487
f 1 487 486
f 1 486 548
f 1 548 484
f 1 484 419
f 1 419 483
f 1 483 416
f 1 416 354
f 1 354 299
f 1 299 298
f 1 298 353
f 1 353 296
f 1 296 247
f 1 247 201
f 1 201 162
f 1 162 127
f 1 127 102
f 1 102 77
f 1 77 54
f 1 54 53
f 1 53 38
f 1 38 25
f 1 25 15
f 1 15 5
f 1 5 6
f 1 6 2
f 2 7 3
f 2 6 7
f 3 7 8
f 3 8 9
f 3 9 10
f 3 10 4
f 4 11 12
f 4 10 13
f 4 13 14
f 4 14 11
f 5 15 6
f 6 15 16
f 6 16 8
f 6 8 7
f 8 16 18
f 8 18 9
f 9 17 19
f 9 19 10
f 9 18 30
f 9 30 17
f 10 19 20
f 10 20 21
f 10 21 13
f 11 14 22
f 11 22 12
f 13 21 23
f 13 23 14
f 14 23 24
f 14 24 22
f 15 18 16
f 15 25 26
f 15 26 27
f 15 27 28
f 15 28 18
f 17 29 19
f 17 30 44
f 17 44 29
f 18 28 41
f 18 41 30
f 19 31 32
f 19 32 20
f 19 29 31
f 20 32 33
f 20 33 34
f 20 34 21
f 21 34 35
f 21 35 36
f 21 36 23
f 22 24 37
f 23 36 24
f 24 36 52
f 24 52 37
f 25 38 26
f 26 38 27
f 27 38 39
f 27 39 28
f 28 39 40
f 28 40 41
f 29 42 43
f 29 43 31
f 29 44 42
f 30 41 44
f 31 43 45
f 31 45 46
f 31 46 32
f 32 46 47
f 32 47 48
f 32 48 33
f 33 48 49
f 33 49 50
f 33 50 34
f 34 50 51
f 34 51 35
f 35 51 36
f 36 51 52
f 38 53 39
f 39 53 54
f 39 54 55
f 39 55 56
f 39 56 58
f 39 58 40
f 40 57 41
f 40 58 57
f 41 57 59
f 41 59 44
f 42 60 61
f 42 61 43
f 42 44 62
f 42 62 63
f 42 63 60
f 43 64 45
f 43 61 64
f 44 59 65
f 44 65 62
f 45 64 66
f 45 66 67
f 45 67 46
f 46 67 47
f 47 67 68
f 47 68 69
f 47 69 48
f 48 69 49
f 49 69 70
f 49 70 71
f 49 71 50
f 50 71 72
f 50 72 73
f 50 73 74
f 50 74 51
f 51 74 73
f 51 73 72
f 51 72 75
f 51 75 76
f 54 77 55
f 55 77 78
f 55 78 56
f 56 78 79
f 56 79 58
f 57 58 80
f 57 80 81
f 57 81 82
f 57 82 59
f 58 79 83
f 58 83 80
f 59 82 84
f 59 84 65
f 60 85 61
f 60 63 85
f 61 85 86
f 61 86 64
f 62 65 87
f 62 87 63
f 63 87 88
f 63 88 85
f 64 86 89
f 64 89 66
f 65 84 90
f 65 90 87
f 66 89 91
f 66 91 92
f 66 92 67
f 67 92 68
f 68 93 94
f 68 94 69
f 68 92 93
f 69 94 70
f 70 94 95
f 70 95 96
f 70 96 71
f 71 96 97
f 71 97 72
f 72 98 75
f 72 97 99
f 72 99 100
f 72 100 98
f 75 98 101
f 75 101 76
f 77 102 103
f 77 103 78
f 78 103 104
f 78 104 79
f 79 104 105
f 79 105 83
f 80 83 106
f 80 106 81
f 81 107 82
f 81 106 108
f 81 108 107
f 82 107 84
f 83 105 109
f 83 109 106
f 84 110 90
f 84 107 110
f 85 88 111
f 85 111 112
f 85 112 86
f 86 113 114
f 86 114 89
f 86 112 113
f 87 90 115
f 87 115 88
f 88 115 111
f 89 114 116
f 89 116 91
f 90 110 117
f 90 117 115
f 91 116 118
f 91 118 119
f 91 119 92
f 92 119 93
f 93 119 120
f 93 120 121
f 93 121 94
f 94 121 122
f 94 122 95
f 95 122 123
f 95 123 96
f 96 123 124
f 96 124 97
f 97 124 125
f 97 125 126
f 97 126 100
f 97 100 99
f 98 100 126
f 98 126 101
f 102 127 128
f 102 128 103
f 103 128 129
f 103 129 130
f 103 130 104
f 104 130 105
f 105 130 131
f 105 131 109
f 106 109 131
f 106 131 132
f 106 132 133
f 106 133 108
f 107 108 134
f 107 134 110
f 108 133 135
f 108 135 134
f 110 134 136
f 110 136 117
f 111 115 137
f 111 137 138
f 111 138 139
f 111 139 112
f 112 139 113
f 113 140 114
f 113 139 140
f 114 140 141
f 114 141 116
f 115 117 142
f 115 142 137
f 116 143 144
f 116 144 118
f 116 141 143
f 117 136 145
f 117 145 142
f 118 146 147
f 118 147 148
f 118 148 119
f 118 144 146
f 119 148 120
f 120 149 150
f 120 150 151
f 120 151 152
f 120 152 122
f 120 122 121
f 120 148 149
f 122 152 153
f 122 153 154
f 122 154 155
f 122 155 123
f 123 155 156
f 123 156 124
f 124 156 157
f 124 157 125
f 125 158 126
f 125 157 159
f 125 159 160
f 125 160 161
f 125 161 158
f 127 162 128
f 128 162 129
f 129 162 163
f 129 163 130
f 130 163 164
f 130 164 131
f 131 164 165
f 131 165 132
f 132 165 166
f 132 166 167
f 132 167 133
f 133 167 135
f 134 135 168
f 134 168 136
f 135 167 169
f 135 169 168
f 136 168 170
f 136 170 145
f 137 142 171
f 137 171 138
f 138 171 172
f 138 172 173
f 138 173 174
f 138 174 139
f 139 174 175
f 139 175 140
f 140 175 176
f 140 176 141
f 141 176 143
f 142 145 177
f 142 177 171
f 143 176 178
f 143 178 179
f 143 179 180
f 143 180 146
f 143 146 144
f 145 170 181
f 145 181 182
f 145 182 177
f 146 183 184
f 146 184 147
f 146 180 183
f 147 184 149
f 147 149 148
f 149 184 185
f 149 185 186
f 149 186 150
f 150 186 151
f 151 186 187
f 151 187 188
f 151 188 152
f 152 188 153
f 153 188 154
f 154 188 189
f 154 189 190
f 154 190 191
f 154 191 155
f 155 191 156
f 156 191 192
f 156 192 193
f 156 193 157
f 157 193 194
f 157 194 159
f 158 161 195
f 159 196 197
f 159 197 195
f 159 195 160
f 159 194 198
f 159 198 199
f 159 199 200
f 159 200 196
f 160 195 161
f 162 201 163
f 163 201 202
f 163 202 203
f 163 203 204
f 163 204 205
f 163 205 164
f 164 205 206
f 164 206 165
f 165 206 207
f 165 207 166
f 166 208 167
f 166 207 209
f 166 209 210
f 166 210 208
f 167 208 169
f 168 169 211
f 168 211 170
f 169 208 212
f 169 212 213
f 169 213 211
f 170 211 214
f 170 214 215
f 170 215 216
f 170 216 181
f 171 177 217
f 171 217 172
f 172 217 218
f 172 218 219
f 172 219 173
f 173 219 220
f 173 220 174
f 174 220 175
f 175 221 176
f 175 220 221
f 176 221 178
f 177 182 217
f 178 221 222
f 178 222 179
f 179 223 224
f 179 224 180
f 179 222 225
f 179 225 223
f 180 224 183
f 181 216 182
f 182 226 227
f 182 227 228
f 182 228 217
f 182 216 226
f 183 224 229
f 183 229 230
f 183 230 184
f 184 230 185
f 185 231 186
f 185 230 231
f 186 231 232
f 186 232 233
f 186 233 187
f 187 233 188
f 188 233 234
f 188 234 235
f 188 235 189
f 189 235 236
f 189 236 190
f 190 192 191
f 190 236 237
f 190 237 238
f 190 238 192
f 192 239 193
f 192 238 240
f 192 240 241
f 192 241 239
f 193 239 194
f 194 239 242
f 194 242 243
f 194 243 198
f 198 243 199
f 199 243 242
f 199 242 244
f 199 244 200
f 200 244 245
f 200 245 246
f 201 247 202
f 202 247 203
f 203 248 204
f 203 247 248
f 204 248 249
f 204 249 250
f 204 250 205
f 205 250 251
f 205 251 206
f 206 251 252
f 206 252 253
f 206 253 207
f 207 253 209
f 208 210 212
f 209 254 210
f 209 253 255
f 209 255 256
f 209 256 254
f 210 254 212
f 211 213 214
f 212 257 213
f 212 254 258
f 212 258 257
f 213 257 214
f 214 259 215
f 214 257 260
f 214 260 259
f 215 259 216
f 216 259 261
f 216 261 226
f 217 228 218
f 218 228 262
f 218 262 263
f 218 263 219
f 219 263 264
f 219 264 265
f 219 265 220
f 220 265 266
f 220 266 221
f 221 266 222
f 222 266 225
f 223 225 267
f 223 267 268
f 223 268 269
f 223 269 224
f 224 269 229
f 225 266 270
f 225 270 271
f 225 271 267
f 226 261 272
f 226 272 227
f 227 272 273
f 227 273 274
f 227 274 262
f 227 262 228
f 229 269 275
f 229 275 230
f 230 275 276
f 230 276 231
f 231 276 277
f 231 277 278
f 231 278 279
f 231 279 280
f 231 280 233
f 231 233 232
f 233 280 279
f 233 279 281
f 233 281 282
f 233 282 283
f 233 283 234
f 234 283 235
f 235 283 284
f 235 284 285
f 235 285 286
f 235 286 236
f 236 286 237
f 237 240 238
f 237 286 287
f 237 287 288
f 237 288 289
f 237 289 240
f 239 241 290
f 239 290 242
f 240 289 291
f 240 291 292
f 240 292 293
f 240 293 241
f 241 293 290
f 242 290 294
f 242 294 244
f 244 294 295
f 244 295 245
f 245 295 246
f 247 296 248
f 248 296 297
f 248 297 298
f 248 298 299
f 248 299 300
f 248 300 301
f 248 301 249
f 249 301 250
f 250 301 302
f 250 302 303
f 250 303 251
f 251 303 252
f 252 255 253
f 252 303 304
f 252 304 305
f 252 305 306
f 252 306 255
f 254 256 307
f 254 307 308
f 254 308 309
f 254 309 258
f 255 306 310
f 255 310 311
f 255 311 256
f 256 311 307
f 257 258 309
f 257 309 312
f 257 312 313
f 257 313 260
f 259 260 314
f 259 314 261
f 260 313 314
f 261 314 315
f 261 315 272
f 262 274 263
f 263 274 316
f 263 316 264
f 264 316 317
f 264 317 265
f 265 318 270
f 265 270 266
f 265 317 318
f 267 271 319
f 267 319 320
f 267 320 268
f 268 320 321
f 268 321 322
f 268 322 323
f 268 323 275
f 268 275 269
f 270 324 271
f 270 318 324
f 271 325 319
f 271 324 325
f 272 315 326
f 272 326 273
f 273 327 274
f 273 326 328
f 273 328 327
f 274 327 329
f 274 329 316
f 275 323 330
f 275 330 277
f 275 277 276
f 277 330 331
f 277 331 278
f 278 331 279
f 279 332 333
f 279 333 334
f 279 334 281
f 279 331 335
f 279 335 332
f 281 334 282
f 282 334 336
f 282 336 337
f 282 337 338
f 282 338 284
f 282 284 283
f 284 338 285
f 285 338 339
f 285 339 340
f 285 340 341
f 285 341 287
f 285 287 286
f 287 341 288
f 288 341 342
f 288 342 343
f 288 343 344
f 288 344 291
f 288 291 289
f 290 293 345
f 290 345 294
f 291 346 292
f 291 344 347
f 291 347 346
f 292 348 293
f 292 346 348
f 293 348 345
f 294 345 349
f 294 349 295
f 295 349 350
f 295 350 351
f 295 351 352
f 296 353 297
f 297 353 298
f 299 354 355
f 299 355 300
f 300 355 302
f 300 302 301
f 302 355 356
f 302 356 357
f 302 357 303
f 303 357 304
f 304 357 358
f 304 358 305
f 305 310 306
f 305 358 359
f 305 359 360
f 305 360 361
f 305 361 310
f 307 362 308
f 307 311 363
f 307 363 364
f 307 364 365
f 307 365 362
f 308 362 309
f 309 366 367
f 309 367 313
f 309 313 312
f 309 362 368
f 309 368 369
f 309 369 366
f 310 363 311
f 310 361 370
f 310 370 371
f 310 371 363
f 313 372 314
f 313 367 366
f 313 366 373
f 313 373 372
f 314 374 315
f 314 372 374
f 315 374 326
f 316 329 375
f 316 375 317
f 317 375 376
f 317 376 377
f 317 377 318
f 318 377 324
f 319 378 320
f 319 325 379
f 319 379 378
f 320 380 381
f 320 381 321
f 320 378 380
f 321 381 322
f 322 382 383
f 322 383 384
f 322 384 330
f 322 330 323
f 322 381 382
f 324 385 325
f 324 377 385
f 325 385 379
f 326 374 328
f 327 386 329
f 327 328 387
f 327 387 386
f 328 374 388
f 328 388 389
f 328 389 390
f 328 390 387
f 329 386 391
f 329 391 375
f 330 384 335
f 330 335 331
f 332 335 333
f 333 335 392
f 333 392 393
f 333 393 394
f 333 394 395
f 333 395 396
f 333 396 336
f 333 336 334
f 335 384 397
f 335 397 393
f 335 393 392
f 336 396 337
f 337 396 398
f 337 398 399
f 337 399 400
f 337 400 339
f 337 339 338
f 339 400 340
f 340 401 402
f 340 402 403
f 340 403 342
f 340 342 341
f 340 400 401
f 342 403 343
f 343 404 405
f 343 405 347
f 343 347 344
f 343 403 404
f 345 348 406
f 345 406 349
f 346 347 407
f 346 407 408
f 346 408 409
f 346 409 348
f 347 405 410
f 347 410 411
f 347 411 412
f 347 412 407
f 348 409 406
f 349 406 413
f 349 413 414
f 349 414 415
f 349 415 350
f 350 415 351
f 351 415 352
f 354 416 417
f 354 417 418
f 354 418 355
f 355 418 419
f 355 419 420
f 355 420 356
f 356 420 421
f 356 421 422
f 356 422 357
f 357 422 358
f 358 422 423
f 358 423 359
f 359 423 424
f 359 424 360
f 360 425 370
f 360 370 361
f 360 424 426
f 360 426 425
f 362 365 368
f 363 371 364
f 364 371 427
f 364 427 428
f 364 428 429
f 364 429 430
f 364 430 365
f 365 430 368
f 366 431 432
f 366 432 373
f 366 369 433
f 366 433 434
f 366 434 435
f 366 435 431
f 368 433 369
f 368 430 436
f 368 436 437
f 368 437 433
f 370 425 438
f 370 438 439
f 370 439 427
f 370 427 371
f 372 373 440
f 372 440 374
f 373 432 440
f 374 440 441
f 374 441 388
f 375 391 442
f 375 442 376
f 376 442 443
f 376 443 377
f 377 444 385
f 377 443 444
f 378 379 445
f 378 445 380
f 379 385 446
f 379 446 447
f 379 447 445
f 380 445 448
f 380 448 381
f 381 448 449
f 381 449 450
f 381 450 382
f 382 450 383
f 383 450 451
f 383 451 452
f 383 452 453
f 383 453 397
f 383 397 384
f 385 444 446
f 386 387 454
f 386 454 455
f 386 455 456
f 386 456 391
f 387 390 457
f 387 457 454
f 388 441 389
f 389 441 458
f 389 458 459
f 389 459 460
f 389 460 457
f 389 457 390
f 391 456 442
f 393 461 462
f 393 462 395
f 393 395 394
f 393 397 453
f 393 453 461
f 395 462 463
f 395 463 464
f 395 464 465
f 395 465 399
f 395 399 398
f 395 398 396
f 399 465 464
f 399 464 466
f 399 466 467
f 399 467 468
f 399 468 402
f 399 402 401
f 399 401 400
f 402 469 470
f 402 470 404
f 402 404 403
f 402 468 469
f 404 470 471
f 404 471 472
f 404 472 405
f 405 472 473
f 405 473 410
f 406 409 474
f 406 474 413
f 407 412 408
f 408 475 409
f 408 412 476
f 408 476 543
f 408 543 475
f 409 475 474
f 410 473 477
f 410 477 478
f 410 478 411
f 411 479 412
f 411 478 479
f 412 479 476
f 413 474 414
f 414 474 415
f 415 474 480
f 415 480 481
f 415 481 482
f 416 483 417
f 417 483 418
f 418 483 419
f 419 484 421
f 419 421 420
f 421 484 485
f 421 485 486
f 421 486 487
f 421 487 488
f 421 488 422
f 422 488 423
f 423 488 489
f 423 489 424
f 424 489 490
f 424 490 491
f 424 491 492
f 424 492 426
f 425 426 438
f 426 491 493
f 426 493 494
f 426 494 495
f 426 495 496
f 426 496 438
f 426 492 491
f 427 439 428
f 428 439 497
f 428 497 498
f 428 498 499
f 428 499 500
f 428 500 501
f 428 501 429
f 429 501 436
f 429 436 430
f 431 435 434
f 431 434 502
f 431 502 503
f 431 503 504
f 431 504 458
f 431 458 441
f 431 441 432
f 432 441 440
f 433 437 434
f 434 503 502
f 434 437 505
f 434 505 506
f 434 506 507
f 434 507 503
f 436 501 500
f 436 500 508
f 436 508 506
f 436 506 505
f 436 505 437
f 438 496 509
f 438 509 439
f 439 509 497
f 442 456 510
f 442 510 443
f 443 510 511
f 443 511 512
f 443 512 444
f 444 512 446
f 445 513 514
f 445 514 448
f 445 447 513
f 446 515 447
f 446 512 515
f 447 515 513
f 448 514 516
f 448 516 449
f 449 516 450
f 450 517 518
f 450 518 451
f 450 516 517
f 451 518 452
f 452 519 520
f 452 520 521
f 452 521 461
f 452 461 453
f 452 518 519
f 454 522 455
f 454 457 523
f 454 523 522
f 455 522 456
f 456 522 524
f 456 524 510
f 457 460 525
f 457 525 526
f 457 526 523
f 458 504 459
f 459 525 460
f 459 504 527
f 459 527 528
f 459 528 529
f 459 529 525
f 461 521 530
f 461 530 531
f 461 531 462
f 462 531 463
f 463 532 464
f 463 531 532
f 464 532 533
f 464 533 534
f 464 534 467
f 464 467 466
f 467 535 536
f 467 536 469
f 467 469 468
f 467 534 535
f 469 536 537
f 469 537 538
f 469 538 470
f 470 538 471
f 471 538 539
f 471 539 540
f 471 540 473
f 471 473 472
f 473 540 541
f 473 541 477
f 474 475 542
f 474 542 480
f 475 543 542
f 476 479 544
f 476 544 543
f 477 541 545
f 477 545 546
f 477 546 478
f 478 546 547
f 478 547 479
f 479 547 544
f 480 542 481
f 481 542 482
f 484 548 549
f 484 549 485
f 485 549 486
f 486 549 548
f 487 550 551
f 487 551 488
f 488 551 489
f 489 551 552
f 489 552 490
f 490 552 553
f 490 553 491
f 491 553 554
f 491 554 493
f 493 554 494
f 494 555 556
f 494 556 495
f 494 554 555
f 495 556 557
f 495 557 558
f 495 558 559
f 495 559 560
f 495 560 496
f 496 560 509
f 497 509 498
f 498 509 561
f 498 561 562
f 498 562 563
f 498 563 500
f 498 500 499
f 500 563 564
f 500 564 565
f 500 565 566
f 500 566 506
f 500 506 508
f 503 507 506
f 503 506 567
f 503 567 568
f 503 568 527
f 503 527 504
f 506 566 569
f 506 569 570
f 506 570 567
f 509 560 559
f 509 559 561
f 510 524 571
f 510 571 511
f 511 571 572
f 511 572 573
f 511 573 512
f 512 573 515
f 513 574 514
f 513 515 575
f 513 575 638
f 513 638 574
f 514 574 576
f 514 576 516
f 515 573 575
f 516 576 577
f 516 577 517
f 517 577 518
f 518 577 578
f 518 578 519
f 519 579 580
f 519 580 520
f 519 578 579
f 520 580 581
f 520 581 582
f 520 582 530
f 520 530 521
f 522 523 583
f 522 583 584
f 522 584 524
f 523 526 585
f 523 585 583
f 524 584 571
f 525 529 586
f 525 586 587
f 525 587 585
f 525 585 526
f 527 568 528
f 528 568 588
f 528 588 589
f 528 589 590
f 528 590 586
f 528 586 529
f 530 582 591
f 530 591 533
f 530 533 532
f 530 532 531
f 533 592 593
f 533 593 534
f 533 591 592
f 534 593 535
f 535 594 595
f 535 595 536
f 535 593 594
f 536 595 537
f 537 595 596
f 537 596 597
f 537 597 539
f 537 539 538
f 539 597 598
f 539 598 540
f 540 598 541
f 541 598 599
f 541 599 600
f 541 600 545
f 542 543 601
f 542 601 602
f 542 602 603
f 543 544 604
f 543 604 601
f 544 547 605
f 544 605 604
f 545 600 606
f 545 606 607
f 545 607 608
f 545 608 609
f 545 609 546
f 546 609 547
f 547 609 610
f 547 610 605
f 550 611 612
f 550 612 551
f 551 612 613
f 551 613 552
f 552 613 614
f 552 614 553
f 553 614 615
f 553 615 554
f 554 615 616
f 554 616 617
f 554 617 555
f 555 617 618
f 555 618 556
f 556 618 619
f 556 619 557
f 557 619 620
f 557 620 621
f 557 621 622
f 557 622 558
f 558 623 559
f 558 622 623
f 559 624 561
f 559 623 624
f 561 624 562
f 562 564 563
f 562 624 625
f 562 625 626
f 562 626 564
f 564 626 627
f 564 627 628
f 564 628 565
f 565 628 569
f 565 569 566
f 567 570 629
f 567 629 568
f 568 629 630
f 568 630 588
f 569 631 570
f 569 628 632
f 569 632 631
f 570 631 629
f 571 584 633
f 571 633 572
f 572 633 634
f 572 634 635
f 572 635 636
f 572 636 573
f 573 636 637
f 573 637 575
f 574 638 639
f 574 639 640
f 574 640 641
f 574 641 576
f 575 637 638
f 576 641 642
f 576 642 577
f 577 642 643
f 577 643 578
f 578 643 644
f 578 644 579
f 579 644 580
f 580 644 645
f 580 645 646
f 580 646 581
f 581 646 647
f 581 647 648
f 581 648 582
f 582 648 591
f 583 649 584
f 583 585 650
f 583 650 649
f 584 649 651
f 584 651 633
f 585 587 652
f 585 652 650
f 586 653 652
f 586 652 587
f 586 590 653
f 588 630 589
f 589 630 654
f 589 654 655
f 589 655 656
f 589 656 590
f 590 656 657
f 590 657 653
f 591 648 592
f 592 658 659
f 592 659 593
f 592 648 658
f 593 659 594
f 594 659 660
f 594 660 661
f 594 661 595
f 595 661 596
f 596 662 663
f 596 663 597
f 596 661 662
f 597 663 598
f 598 663 664
f 598 664 665
f 598 665 599
f 599 665 666
f 599 666 600
f 600 666 667
f 600 667 670
f 600 670 606
f 601 604 602
f 602 604 603
f 604 605 668
f 604 668 669
f 605 610 668
f 606 670 607
f 607 671 672
f 607 672 608
f 607 670 673
f 607 673 674
f 608 672 609
f 609 675 610
f 609 672 675
f 610 675 668
f 611 613 612
f 613 676 614
f 614 676 677
f 614 677 678
f 614 678 679
f 614 679 680
f 614 680 615
f 615 680 616
f 616 680 681
f 616 681 682
f 616 682 683
f 616 683 684
f 616 684 617
f 617 684 618
f 618 684 685
f 618 685 619
f 619 685 686
f 619 686 620
f 620 686 687
f 620 687 688
f 620 688 621
f 621 688 689
f 621 689 622
f 622 690 691
f 622 691 623
f 622 689 692
f 622 692 690
f 623 691 625
f 623 625 624
f 625 693 626
f 625 691 694
f 625 694 693
f 626 693 627
f 627 695 628
f 627 693 696
f 627 696 695
f 628 695 632
f 629 631 630
f 630 631 632
f 630 632 697
f 630 697 654
f 632 695 698
f 632 698 697
f 633 651 634
f 634 651 699
f 634 699 635
f 635 699 636
f 636 700 701
f 636 701 637
f 636 699 702
f 636 702 700
f 637 701 638
f 638 703 639
f 638 701 703
f 639 703 704
f 639 704 705
f 639 705 640
f 640 705 706
f 640 706 641
f 641 706 707
f 641 707 642
f 642 707 708
f 642 708 643
f 643 708 644
f 644 708 709
f 644 709 645
f 645 709 710
f 645 710 711
f 645 711 646
f 646 712 647
f 646 711 712
f 647 712 713
f 647 713 714
f 647 714 658
f 647 658 648
f 649 715 651
f 649 650 716
f 649 716 717
f 649 717 715
f 650 652 718
f 650 718 716
f 651 715 719
f 651 719 720
f 651 720 699
f 652 653 718
f 653 721 718
f 653 657 721
f 654 697 722
f 654 722 655
f 655 722 723
f 655 723 724
f 655 724 656
f 656 725 726
f 656 726 657
f 656 724 725
f 657 726 721
f 658 714 659
f 659 714 660
f 660 714 727
f 660 727 661
f 661 727 662
f 662 727 728
f 662 728 729
f 662 729 663
f 663 729 730
f 663 730 664
f 664 730 731
f 664 731 665
f 665 731 732
f 665 732 666
f 666 732 733
f 666 733 667
f 667 733 734
f 667 734 735
f 667 735 670
f 668 675 669
f 669 675 736
f 670 735 737
f 670 737 673
f 671 738 672
f 672 738 736
f 672 736 675
f 673 737 674
f 674 737 735
f 674 735 739
f 676 740 741
f 676 741 677
f 677 741 678
f 678 741 740
f 679 681 742
f 679 742 680
f 680 742 681
f 681 743 682
f 682 743 683
f 683 744 745
f 683 745 684
f 684 745 746
f 684 746 685
f 685 746 747
f 685 747 748
f 685 748 686
f 686 748 749
f 686 749 687
f 687 749 750
f 687 750 751
f 687 751 752
f 687 752 688
f 688 752 753
f 688 753 689
f 689 753 754
f 689 754 692
f 690 692 755
f 690 755 756
f 690 756 757
f 690 757 694
f 690 694 691
f 692 754 755
f 693 694 758
f 693 758 696
f 694 757 758
f 695 696 759
f 695 759 698
f 696 760 759
f 696 758 760
f 697 698 722
f 698 761 722
f 698 759 761
f 699 720 702
f 700 703 701
f 700 702 720
f 700 720 780
f 700 780 829
f 700 829 810
f 700 810 762
f 700 762 703
f 703 762 704
f 704 762 763
f 704 763 764
f 704 764 705
f 705 765 706
f 705 764 765
f 706 765 766
f 706 766 767
f 706 767 707
f 707 767 708
f 708 767 709
f 709 767 768
f 709 768 710
f 710 768 769
f 710 769 770
f 710 770 711
f 711 770 771
f 711 771 772
f 711 772 712
f 712 772 773
f 712 773 713
f 713 773 774
f 713 774 714
f 714 774 775
f 714 775 727
f 715 717 776
f 715 776 719
f 716 718 777
f 716 777 717
f 717 777 778
f 717 778 776
f 718 721 779
f 718 779 777
f 719 780 720
f 719 776 781
f 719 781 780
f 721 726 779
f 722 761 723
f 723 761 782
f 723 782 783
f 723 783 784
f 723 784 724
f 724 785 725
f 724 784 785
f 725 785 786
f 725 786 787
f 725 787 726
f 726 787 779
f 727 788 728
f 727 775 788
f 728 789 790
f 728 790 729
f 728 788 789
f 729 790 791
f 729 791 730
f 730 791 792
f 730 792 731
f 731 792 793
f 731 793 732
f 732 793 733
f 733 793 794
f 733 794 734
f 734 794 795
f 734 795 735
f 735 795 796
f 735 796 739
f 739 796 797
f 744 747 745
f 745 747 746
f 748 798 749
f 749 798 799
f 749 799 750
f 750 799 800
f 750 800 801
f 750 801 802
f 750 802 751
f 751 802 803
f 751 803 752
f 752 803 804
f 752 804 753
f 753 804 754
f 754 804 805
f 754 805 755
f 755 805 806
f 755 806 756
f 756 806 807
f 756 807 808
f 756 808 757
f 757 808 809
f 757 809 758
f 758 809 760
f 759 760 782
f 759 782 761
f 760 809 782
f 762 810 763
f 763 811 764
f 763 810 829
f 763 829 830
f 763 830 864
f 763 864 866
f 763 866 905
f 763 905 873
f 763 873 871
f 763 871 870
f 763 870 872
f 763 872 908
f 763 908 930
f 763 930 929
f 763 929 931
f 763 931 927
f 763 927 898
f 763 898 897
f 763 897 896
f 763 896 925
f 763 925 926
f 763 926 924
f 763 924 923
f 763 923 919
f 763 919 918
f 763 918 889
f 763 889 888
f 763 888 917
f 763 917 920
f 763 920 922
f 763 922 936
f 763 936 940
f 763 940 946
f 763 946 945
f 763 945 944
f 763 944 943
f 763 943 941
f 763 941 937
f 763 937 933
f 763 933 932
f 763 932 915
f 763 915 887
f 763 887 849
f 763 849 885
f 763 885 884
f 763 884 911
f 763 911 913
f 763 913 912
f 763 912 910
f 763 910 879
f 763 879 878
f 763 878 876
f 763 876 875
f 763 875 877
f 763 877 909
f 763 909 904
f 763 904 903
f 763 903 902
f 763 902 901
f 763 901 861
f 763 861 821
f 763 821 820
f 763 820 819
f 763 819 822
f 763 822 818
f 763 818 816
f 763 816 815
f 763 815 814
f 763 814 813
f 763 813 812
f 763 812 811
f 764 811 812
f 764 812 765
f 765 813 814
f 765 814 766
f 765 812 813
f 766 815 816
f 766 816 817
f 766 817 767
f 766 814 815
f 767 817 768
f 768 817 769
f 769 817 816
f 769 816 818
f 769 818 770
f 770 819 820
f 770 820 821
f 770 821 771
f 770 818 822
f 770 822 819
f 771 821 823
f 771 823 772
f 772 823 773
f 773 823 824
f 773 824 774
f 774 824 825
f 774 825 788
f 774 788 775
f 776 778 826
f 776 826 781
f 777 779 827
f 777 827 778
f 778 827 828
f 778 828 826
f 779 787 827
f 780 781 830
f 780 830 829
f 781 826 830
f 782 809 831
f 782 831 832
f 782 832 783
f 783 833 784
f 783 832 833
f 784 834 785
f 784 833 834
f 785 834 835
f 785 835 836
f 785 836 786
f 786 837 838
f 786 838 787
f 786 836 837
f 787 838 827
f 788 839 789
f 788 825 839
f 789 839 840
f 789 840 841
f 789 841 790
f 790 841 880
f 790 880 842
f 790 842 791
f 791 842 843
f 791 843 792
f 792 843 793
f 793 844 845
f 793 845 794
f 793 843 844
f 794 845 846
f 794 846 795
f 795 846 796
f 796 846 847
f 796 847 797
f 797 847 849
f 797 849 848
f 798 850 799
f 799 850 800
f 800 851 801
f 800 850 852
f 800 852 851
f 801 851 853
f 801 853 802
f 802 853 854
f 802 854 803
f 803 854 855
f 803 855 804
f 804 855 856
f 804 856 805
f 805 856 806
f 806 857 807
f 806 856 857
f 807 857 858
f 807 858 859
f 807 859 808
f 808 859 860
f 808 860 809
f 809 860 831
f 821 861 823
f 823 861 901
f 823 901 862
f 823 862 824
f 824 862 863
f 824 863 825
f 825 863 839
f 826 864 830
f 826 828 866
f 826 866 864
f 827 838 865
f 827 865 828
f 828 865 866
f 831 860 832
f 832 860 867
f 832 867 868
f 832 868 833
f 833 869 834
f 833 868 869
f 834 869 835
f 835 870 871
f 835 871 836
f 835 869 872
f 835 872 870
f 836 871 873
f 836 873 837
f 837 873 905
f 837 905 865
f 837 865 838
f 839 874 840
f 839 863 874
f 840 875 876
f 840 876 841
f 840 874 877
f 840 877 875
f 841 876 878
f 841 878 879
f 841 879 880
f 842 880 881
f 842 881 843
f 843 881 882
f 843 882 844
f 844 882 845
f 845 882 883
f 845 883 847
f 845 847 846
f 847 883 884
f 847 884 885
f 847 885 849
f 848 849 887
f 848 887 886
f 851 888 889
f 851 889 890
f 851 890 853
f 851 852 888
f 852 891 888
f 853 890 854
f 854 890 892
f 854 892 893
f 854 893 855
f 855 893 894
f 855 894 856
f 856 894 857
f 857 895 858
f 857 894 895
f 858 895 896
f 858 896 897
f 858 897 898
f 858 898 899
f 858 899 859
f 859 900 860
f 859 899 900
f 860 900 867
f 862 901 902
f 862 902 863
f 863 902 903
f 863 903 904
f 863 904 874
f 865 905 866
f 867 900 906
f 867 906 868
f 868 906 907
f 868 907 869
f 869 908 872
f 869 907 930
f 869 930 908
f 874 904 909
f 874 909 877
f 879 910 880
f 880 910 881
f 881 911 882
f 881 910 912
f 881 912 913
f 881 913 911
f 882 911 884
f 882 884 883
f 886 887 914
f 886 914 915
f 886 915 916
f 887 915 914
f 888 891 917
f 889 918 890
f 890 918 919
f 890 919 892
f 891 920 917
f 891 921 922
f 891 922 920
f 892 919 923
f 892 923 893
f 893 923 924
f 893 924 894
f 894 925 896
f 894 896 895
f 894 924 926
f 894 926 925
f 898 927 899
f 899 927 928
f 899 928 900
f 900 928 906
f 906 929 930
f 906 930 907
f 906 928 931
f 906 931 929
f 915 932 916
f 916 932 933
f 916 933 934
f 921 935 936
f 921 936 922
f 927 931 928
f 933 937 938
f 933 938 934
f 935 939 936
f 936 939 940
f 937 941 938
f 938 941 943
f 938 943 944
f 938 944 945
f 938 945 946
f 938 946 940
f 938 940 942
f 939 947 940
f 940 947 948
f 940 948 949
f 940 949 942

