# https://github.com/mikedh/trimesh
v -25.82085966 7.85226806 9.09915450
v -25.82085966 9.47641384 7.20143663
v -23.52318442 7.64529206 9.09915450
v -25.82085966 20.08328366 9.09915450
v -23.09274196 9.66634361 7.20143663
v -25.82085966 20.08328366 7.20143663
v -21.14774749 8.31369994 9.09915450
v -21.14774749 10.05837995 7.20143663
v -21.14774749 20.08328366 9.09915450
v -21.28268932 20.08328366 7.20143663
v -21.14774749 14.91499193 7.20143663
v -21.14774749 20.08328366 8.72763668
f 1 2 3
f 1 3 7
f 1 7 9
f 1 9 4
f 1 4 6
f 1 6 2
f 2 5 3
f 2 6 10
f 2 10 11
f 2 11 8
f 2 8 5
f 3 5 8
f 3 8 7
f 4 9 12
f 4 12 10
f 4 10 6
f 7 8 11
f 7 11 12
f 7 12 9
f 10 12 11

