# https://github.com/mikedh/trimesh
v -18.61464511 -33.08379323 7.79485652
v -5.02975466 -33.08379323 7.79485652
v -18.61464511 -33.08379323 9.11772910
v -18.61464511 -21.88900076 7.79485652
v -5.02975466 -33.08379323 9.11772910
v -5.02975466 -21.66229358 7.79485652
v -18.61464511 -21.65171462 9.11772910
v -13.35807962 -17.64504583 7.79485652
v -5.02975466 -19.18967575 9.11772910
v -9.12543438 -17.64504583 7.79485652
v -5.02975466 -21.42954110 7.88978281
v -13.58015023 -17.64504583 9.11772910
v -5.02975466 -19.91967327 8.61616332
v -7.09887079 -17.64504583 9.11772910
f 1 2 5
f 1 5 3
f 1 3 7
f 1 7 4
f 1 4 8
f 1 8 10
f 1 10 6
f 1 6 2
f 2 6 11
f 2 11 13
f 2 13 9
f 2 9 5
f 3 5 9
f 3 9 14
f 3 14 12
f 3 12 7
f 4 7 8
f 6 10 11
f 7 12 8
f 8 12 14
f 8 14 10
f 9 13 10
f 9 10 14
f 10 13 11

