# https://github.com/mikedh/trimesh
v -25.82107322 28.27395611 6.54168695
v -25.82107322 28.27395611 6.53865079
v -26.41918372 27.72397903 6.54168695
v -25.82107322 9.78685726 6.54168695
v -25.82107322 28.24767790 5.46051065
v -26.41918372 27.72397903 6.53865079
v -27.28333896 26.84551782 6.54168695
v -28.00389674 9.09985548 6.54168695
v -25.82107322 9.78685726 6.53865079
v -25.82107322 28.20075123 3.77497143
v -25.82107322 28.15194883 2.09955187
v -26.38905370 27.69957654 4.81261486
v -27.25214114 26.81360985 4.81261486
v -28.00389674 25.89009769 1.34536220
v -28.00389674 25.95204049 3.01065694
v -28.00389674 26.00835352 4.81261486
v -28.00389674 26.05528019 6.53865079
v -28.00389674 26.05528019 6.54168695
v -26.35721520 27.67329833 3.08556773
v -26.32537670 27.64702011 1.35953438
v -26.29353562 27.61698787 -0.36650155
v -28.00389674 9.11487289 3.08556773
v -25.82107322 9.80938144 1.35953438
v -25.82107322 28.09938982 0.42211250
v -27.15683662 26.71224844 -0.36650155
v -27.97932186 25.84880336 -0.36650155
v -28.00389674 25.82064684 -0.41914032
v -25.82107322 28.07123331 -0.36650155
v -25.82107322 28.02243091 -1.23103503
v -26.24096890 27.56442886 -2.09354611
v -28.00389674 9.12613498 1.77256782
v -25.82107322 9.90135648 0.32087460
v -28.00389674 9.12988901 1.35953438
v -27.92782294 25.79624435 -2.09354611
v -28.00389674 25.71365567 -2.09354611
v -25.82107322 27.96987190 -2.09354611
v -26.11724284 27.43491351 -3.09474791
v -27.81819958 25.67986683 -3.07753958
v -28.00389674 9.37015212 -0.18225300
v -28.00389674 10.84926855 -2.17453437
v -25.82107322 10.33120201 -0.08000648
v -28.00389674 25.35326100 -3.12106987
v -25.82107322 27.59821514 -3.13422827
v -26.73843587 26.30868113 -3.24659704
v -28.00389674 10.85865491 -2.18262908
v -27.77097444 11.91731217 -2.80825799
v -25.82107322 10.84926855 -0.45963445
v -28.00389674 24.59117732 -3.31746306
v -25.82107322 26.35185377 -3.43084045
v -26.80702991 24.66062818 -3.56447262
v -28.00389674 12.13692811 -3.02185951
v -28.00389674 12.78075726 -3.26785530
v -27.52950715 13.06982277 -3.11094248
v -25.82107322 16.27770767 -3.30024958
v -28.00389674 22.93561631 -3.58978081
v -25.82107322 24.66062818 -3.63229733
v -26.80702991 22.93561631 -3.67785516
v -28.00389674 14.30304889 -3.55940892
v -25.82107322 17.75682666 -3.59281697
v -28.00389674 21.20872613 -3.69101356
v -25.82107322 22.93561631 -3.70923566
v -28.00389674 15.99239618 -3.71328559
v -26.80702991 17.75682666 -3.80034617
v -25.82107322 19.48183853 -3.75276595
v -25.82107322 21.94828563 -3.73555762
v -25.82107322 21.20872613 -3.75377972
v -28.00389674 19.48183853 -3.73353008
v -28.00389674 17.75682666 -3.77503798
f 1 2 6
f 1 6 3
f 1 3 7
f 1 7 18
f 1 18 8
f 1 8 4
f 1 4 9
f 1 9 23
f 1 23 32
f 1 32 41
f 1 41 47
f 1 47 54
f 1 54 59
f 1 59 64
f 1 64 66
f 1 66 65
f 1 65 61
f 1 61 56
f 1 56 49
f 1 49 43
f 1 43 36
f 1 36 29
f 1 29 28
f 1 28 24
f 1 24 11
f 1 11 10
f 1 10 5
f 1 5 2
f 2 5 6
f 3 6 7
f 4 8 9
f 5 10 6
f 6 10 11
f 6 11 12
f 6 12 7
f 7 13 14
f 7 14 15
f 7 15 16
f 7 16 17
f 7 17 18
f 7 12 19
f 7 19 20
f 7 20 21
f 7 21 13
f 8 22 9
f 8 18 17
f 8 17 16
f 8 16 15
f 8 15 14
f 8 14 27
f 8 27 35
f 8 35 42
f 8 42 48
f 8 48 55
f 8 55 60
f 8 60 67
f 8 67 68
f 8 68 62
f 8 62 58
f 8 58 52
f 8 52 51
f 8 51 45
f 8 45 40
f 8 40 39
f 8 39 33
f 8 33 31
f 8 31 22
f 9 22 23
f 11 24 12
f 12 24 19
f 13 25 14
f 13 21 25
f 14 25 26
f 14 26 27
f 19 24 20
f 20 24 21
f 21 24 28
f 21 28 29
f 21 29 30
f 21 30 25
f 22 31 23
f 23 31 33
f 23 33 32
f 25 30 34
f 25 34 27
f 25 27 26
f 27 34 35
f 29 36 30
f 30 36 37
f 30 37 38
f 30 38 34
f 32 33 39
f 32 39 40
f 32 40 41
f 34 38 35
f 35 38 42
f 36 43 37
f 37 43 44
f 37 44 42
f 37 42 38
f 40 45 41
f 41 45 46
f 41 46 47
f 42 44 48
f 43 49 44
f 44 49 50
f 44 50 48
f 45 51 46
f 46 51 52
f 46 52 53
f 46 53 54
f 46 54 47
f 48 50 55
f 49 56 50
f 50 56 57
f 50 57 55
f 52 58 59
f 52 59 54
f 52 54 53
f 55 57 60
f 56 61 57
f 57 61 60
f 58 62 63
f 58 63 59
f 59 63 64
f 60 61 65
f 60 65 66
f 60 66 67
f 62 68 63
f 63 66 64
f 63 68 66
f 66 68 67

