# https://github.com/mikedh/trimesh
v -37.98777113 1.48301840 32.07648454
v -36.37193749 1.48221048 37.00672338
v -37.87633380 1.48301840 32.61162819
v -37.96548367 2.21654933 32.07648454
v -0.03980512 1.48301840 32.07648454
v -35.93361902 1.48221048 37.81045648
v -35.90018525 2.21574140 37.74737834
v -36.30135965 2.21574140 37.00672338
v -36.36822206 2.21654933 36.88260301
v -36.40165326 1.48301840 36.94568050
v -36.82511256 1.48301840 35.89370665
v -37.43058703 1.48301840 34.16822457
v -0.03980512 1.48221048 37.00672338
v -37.85404633 2.21654933 32.56075837
v -37.66089000 3.57293287 32.07648454
v -0.03980512 8.42409006 32.07648454
v -35.43586645 1.48221048 38.64064083
v -35.03841005 2.21574140 39.18595818
v -36.30879053 3.11972822 36.77476018
v -34.91211354 3.94212211 39.03742053
v -36.76939646 2.21654933 35.89370665
v -37.38601210 2.21654933 34.16822457
v -0.03980512 1.48221048 52.86365798
v -37.53459607 3.86779925 32.07648454
v -36.46851566 3.79428560 35.79400292
v -36.33479086 4.83399131 35.15101644
v -0.03980512 9.73523483 32.45698605
v -30.29120015 8.42409006 32.07648454
v -26.78465238 1.48221048 52.86365798
v -26.73636202 2.21574140 52.86365798
v -26.59520891 3.64725573 52.86365798
v -34.74124211 4.95274630 38.78510926
v -36.12305992 3.34673515 37.00672338
v -36.08591586 4.27091886 36.30269467
v -26.55806228 3.94212211 52.86365798
v -26.32404645 5.37929194 52.86365798
v -26.26461234 5.73393978 52.86365798
v -25.94887494 7.04912419 52.86365798
v -25.80772184 7.63643317 52.86365798
v -0.03980512 8.83447844 52.86365798
v -36.72853439 5.18298366 32.07648454
v -25.38054711 8.83447844 52.86365798
v -27.29354612 8.83447844 47.74622062
v -0.03980512 9.73523483 37.00468877
v -28.58992950 9.73523483 32.45698605
v -36.20106605 5.47300376 32.07648454
v -27.65757389 8.83447844 46.25270206
v -27.10038979 9.73523483 37.00468877
f 1 2 3
f 1 3 4
f 1 4 15
f 1 15 24
f 1 24 41
f 1 41 46
f 1 46 28
f 1 28 16
f 1 16 5
f 1 5 13
f 1 13 2
f 2 6 7
f 2 7 8
f 2 8 9
f 2 9 10
f 2 10 11
f 2 11 12
f 2 12 3
f 2 13 23
f 2 23 29
f 2 29 17
f 2 17 6
f 3 12 14
f 3 14 4
f 4 14 15
f 5 16 27
f 5 27 44
f 5 44 40
f 5 40 23
f 5 23 13
f 6 17 18
f 6 18 7
f 7 19 8
f 7 18 20
f 7 20 19
f 8 19 9
f 9 19 21
f 9 21 10
f 10 21 11
f 11 21 22
f 11 22 12
f 12 22 14
f 14 22 15
f 15 22 25
f 15 25 26
f 15 26 24
f 16 28 45
f 16 45 27
f 17 29 30
f 17 30 18
f 18 30 31
f 18 31 20
f 19 20 32
f 19 32 33
f 19 33 34
f 19 34 25
f 19 25 22
f 19 22 21
f 20 31 35
f 20 35 36
f 20 36 37
f 20 37 38
f 20 38 39
f 20 39 32
f 23 40 42
f 23 42 39
f 23 39 38
f 23 38 37
f 23 37 36
f 23 36 35
f 23 35 31
f 23 31 30
f 23 30 29
f 24 26 41
f 25 34 26
f 26 34 32
f 26 32 42
f 26 42 43
f 26 43 41
f 27 45 48
f 27 48 44
f 28 46 45
f 32 39 42
f 32 34 33
f 40 44 48
f 40 48 42
f 41 43 47
f 41 47 45
f 41 45 46
f 42 48 43
f 43 48 45
f 43 45 47

