# https://github.com/mikedh/trimesh
v -32.24569677 -15.05415737 32.82604536
v -32.19092754 -16.77786022 32.82604536
v -31.66123097 -16.77786022 35.89298299
v -31.62221633 -15.05415737 35.89298299
v -31.30785034 -13.90110065 35.89298299
v -31.77227206 -13.37398867 32.82604536
v -28.79066594 -9.37476361 32.82563367
v -28.93772154 -10.61724133 32.82563367
v -31.34611367 -18.05092950 35.89298299
v -31.57945022 -18.53568384 32.82604536
v -31.18705495 -17.76854804 36.80348662
v -31.24632695 -16.77786022 36.84089377
v -31.22982105 -15.05415737 36.83061714
v -31.16529752 -14.12112281 36.78951064
v -28.03213559 -9.37476361 36.45901634
v -28.72314227 -9.37476361 33.16229420
v -24.58160754 -9.37476361 32.82563367
v -24.58160754 -10.61724133 32.82563367
v -26.80768088 -21.39361793 32.82604536
v -28.53257182 -21.07241030 32.82604536
v -29.92658830 -20.34527718 32.82604536
v -30.27096595 -20.16172978 32.82604536
v -30.46003633 -19.99583070 32.82604536
v -31.08351677 -19.31576191 32.82604536
v -31.47366066 -18.71099566 32.82604536
v -30.95746985 -19.15221649 34.16734202
v -30.72413329 -18.91454505 35.89298299
v -29.55970191 -19.48519117 36.82157364
v -30.18543374 -18.40743570 36.87624509
v -30.25971157 -16.77786022 36.97695552
v -30.25971157 -15.05415737 36.96338993
v -27.72452120 -9.37476361 37.02504969
v -24.58085622 -10.61724133 32.82604536
v -24.58160754 -9.37476361 37.02504969
v -24.58085622 -20.68884176 32.82604536
v -25.08054113 -20.97357560 32.82604536
v -25.08054113 -20.20526264 35.89298299
v -26.80768088 -20.53235477 35.89298299
v -27.88283117 -20.40528378 35.89298299
v -28.53257182 -20.32762886 35.89298299
v -28.53257182 -20.74767120 34.16734202
v -29.86131345 -19.72639215 35.89298299
v -28.53257182 -19.63461780 36.86021326
v -28.53257182 -18.50509260 36.98599903
v -28.17768855 -12.97041878 37.02463865
v -27.24659372 -10.61724133 37.02504969
v -24.58085622 -10.61724133 37.02463865
v -24.58160754 -10.61724133 37.02504969
v -24.58085622 -19.96523882 35.89298299
v -24.58085622 -19.80640009 36.37063774
v -24.58085622 -19.51695892 36.82403987
v -25.08054113 -19.59461383 36.84829248
v -26.80768088 -19.71462575 36.86925677
v -27.88283117 -19.66638555 36.86350222
v -27.88283117 -19.66520904 36.86391326
v -27.88283117 -18.50509260 36.99134254
v -24.90647657 -18.33095793 37.02463865
v -24.58085622 -18.27448151 37.02463865
v -24.58085622 -19.22869490 36.87295613
v -26.80768088 -18.50391609 36.99997501
f 1 2 3
f 1 3 4
f 1 4 5
f 1 5 6
f 1 6 7
f 1 7 8
f 1 8 2
f 2 9 3
f 2 8 10
f 2 10 9
f 3 9 11
f 3 11 12
f 3 12 13
f 3 13 4
f 4 13 14
f 4 14 5
f 5 14 15
f 5 15 6
f 6 15 16
f 6 16 7
f 7 16 15
f 7 15 32
f 7 32 34
f 7 34 17
f 7 17 18
f 7 18 8
f 8 18 19
f 8 19 20
f 8 20 21
f 8 21 22
f 8 22 23
f 8 23 24
f 8 24 25
f 8 25 10
f 9 10 25
f 9 25 26
f 9 26 27
f 9 27 11
f 11 27 28
f 11 28 29
f 11 29 30
f 11 30 12
f 12 30 13
f 13 31 32
f 13 32 14
f 13 30 31
f 14 32 15
f 17 33 35
f 17 35 18
f 17 34 47
f 17 47 33
f 18 35 36
f 18 36 19
f 19 36 37
f 19 37 38
f 19 38 39
f 19 39 40
f 19 40 41
f 19 41 20
f 20 41 42
f 20 42 21
f 21 42 22
f 22 42 23
f 23 42 27
f 23 27 26
f 23 26 24
f 24 26 25
f 27 42 28
f 28 43 44
f 28 44 29
f 28 42 40
f 28 40 43
f 29 44 30
f 30 45 32
f 30 32 31
f 30 44 45
f 32 46 48
f 32 48 34
f 32 45 46
f 33 47 58
f 33 58 59
f 33 59 51
f 33 51 50
f 33 50 49
f 33 49 35
f 34 48 58
f 34 58 47
f 35 49 36
f 36 49 37
f 37 49 50
f 37 50 38
f 38 50 51
f 38 51 52
f 38 52 53
f 38 53 54
f 38 54 43
f 38 43 39
f 39 43 40
f 40 42 41
f 43 55 44
f 43 54 55
f 44 55 53
f 44 53 56
f 44 56 57
f 44 57 45
f 45 57 46
f 46 57 48
f 48 57 58
f 51 59 52
f 52 59 58
f 52 58 57
f 52 57 53
f 53 57 60
f 53 60 56
f 53 55 54
f 56 60 57

