# https://github.com/mikedh/trimesh
v -6.66168252 -24.07700504 7.79363434
v -8.01477003 -20.36979417 7.79363434
v -6.66168252 -25.72966626 7.79363434
v -6.66168252 -24.83039836 1.35945719
v -8.48763382 -19.74528709 7.79363434
v -8.89601653 -19.74528709 1.35945719
v -17.11689233 -25.72966626 7.79363434
v -6.66168252 -25.72966626 -0.06890134
v -6.66168252 -25.40100846 -0.06890134
v -13.87746612 -19.74528709 7.79363434
v -8.60943205 -20.88767931 0.35326373
v -8.95640394 -19.74528709 1.19977837
v -17.11689233 -21.92462031 7.79363434
v -17.11689233 -25.72966626 -3.37840752
v -16.94187062 -25.72966626 -3.33903522
v -9.53980772 -23.68566213 -0.78526510
v -9.53980772 -21.95918492 -0.56215371
v -11.26647854 -19.74528709 -0.83229469
v -9.99015440 -19.74528709 -0.32701090
v -9.56539572 -19.74528709 -0.12467919
v -17.11689233 -19.74528709 3.41122154
v -17.11689233 -20.17763874 4.38241683
v -17.11689233 -25.67401064 -3.35762784
v -11.75367146 -19.74528709 -0.84760929
v -17.11689233 -19.74528709 0.87057895
v -17.11689233 -20.15127561 -0.19795870
v -14.71981890 -19.74528709 -0.69230202
v -12.99314872 -19.74528709 -0.84870024
v -16.36358392 -19.74528709 -0.11811800
v -17.11689233 -19.83316332 0.63324907
f 1 2 5
f 1 5 10
f 1 10 13
f 1 13 7
f 1 7 3
f 1 3 8
f 1 8 9
f 1 9 4
f 1 4 2
f 2 4 6
f 2 6 5
f 3 7 14
f 3 14 15
f 3 15 8
f 4 9 6
f 5 6 12
f 5 12 20
f 5 20 19
f 5 19 18
f 5 18 24
f 5 24 28
f 5 28 27
f 5 27 29
f 5 29 25
f 5 25 21
f 5 21 10
f 6 9 11
f 6 11 12
f 7 13 22
f 7 22 21
f 7 21 25
f 7 25 30
f 7 30 26
f 7 26 23
f 7 23 14
f 8 15 9
f 9 15 16
f 9 16 17
f 9 17 18
f 9 18 19
f 9 19 20
f 9 20 11
f 10 21 22
f 10 22 13
f 11 20 12
f 14 23 18
f 14 18 15
f 15 18 16
f 16 18 17
f 18 23 24
f 23 26 27
f 23 27 28
f 23 28 24
f 25 29 30
f 26 30 29
f 26 29 27

