# https://github.com/mikedh/trimesh
v 19.44888150 -33.08379580 11.71932388
v 19.43554556 -33.08379580 11.08575979
v 19.38601242 -33.08379580 12.62692193
v 16.77600902 -35.41622477 8.26212143
v 16.89222059 -35.41622477 6.53680851
v 17.41422127 -35.41622477 -2.22787300
v 17.37040409 -35.41622477 -3.85234168
v 19.10405615 -33.08379580 -1.03527995
v 18.99927521 -33.08379580 16.85580284
v 18.05052948 -33.66011028 16.85580284
v 16.41784773 -35.41622477 10.05977984
v 17.31896563 -35.41622477 -5.54038445
v 18.98403394 -33.08379580 -2.09195084
v -0.01374689 -33.08379580 16.85580284
v 16.56073118 -34.53531148 16.85580284
v 15.69581047 -35.01252881 16.85580284
v 15.67294922 -35.02212101 16.85580284
v 14.63275722 -35.41142867 16.85580284
v 14.61751595 -35.41622477 16.85580284
v 8.70023719 -35.41622477 -5.54038445
v 17.30182034 -34.17591514 -5.54038445
v 17.96479915 -33.08379580 -3.73395720
v -0.01374689 -35.41622477 16.85580284
v -0.01374689 -33.08379580 7.72282236
v 2.54862933 -33.08379580 -3.54542201
v 15.37956104 -33.11416254 -5.54038445
v 4.17559513 -35.41622477 -3.71203510
v 1.43223358 -33.48474893 -3.16177499
v 1.25315294 -33.08379580 -3.19465814
v 16.91127249 -33.31966420 -5.54038445
v 16.06730771 -33.08379580 -5.48119479
v -0.01374689 -35.41622477 7.90478092
v 0.54254630 -33.08379580 -0.36444314
v 15.34907852 -33.08379580 -5.47461816
v 16.03872922 -33.11416254 -5.54038445
v 2.46480432 -35.41622477 -2.61371223
v 1.94851895 -35.41622477 -2.20814311
v 0.95595540 -33.08379580 -2.68167073
v 0.58636348 -33.08379580 -0.89278116
v 0.74448820 -33.08379580 -2.09195084
v 1.41508765 -35.41622477 -0.36444314
f 1 2 8
f 1 8 13
f 1 13 22
f 1 22 31
f 1 31 34
f 1 34 25
f 1 25 29
f 1 29 38
f 1 38 40
f 1 40 39
f 1 39 33
f 1 33 24
f 1 24 14
f 1 14 9
f 1 9 3
f 1 3 4
f 1 4 5
f 1 5 6
f 1 6 2
f 2 6 7
f 2 7 8
f 3 9 4
f 4 9 10
f 4 10 11
f 4 11 19
f 4 19 23
f 4 23 32
f 4 32 41
f 4 41 37
f 4 37 36
f 4 36 27
f 4 27 20
f 4 20 12
f 4 12 7
f 4 7 6
f 4 6 5
f 7 12 8
f 8 12 13
f 9 14 23
f 9 23 19
f 9 19 18
f 9 18 17
f 9 17 16
f 9 16 15
f 9 15 10
f 10 15 11
f 11 15 16
f 11 16 17
f 11 17 18
f 11 18 19
f 12 20 26
f 12 26 35
f 12 35 30
f 12 30 21
f 12 21 13
f 13 21 22
f 14 24 32
f 14 32 23
f 20 25 26
f 20 27 28
f 20 28 29
f 20 29 25
f 21 30 22
f 22 30 31
f 24 33 32
f 25 34 26
f 26 34 31
f 26 31 35
f 27 36 28
f 28 36 37
f 28 37 38
f 28 38 29
f 30 35 31
f 32 33 39
f 32 39 40
f 32 40 41
f 37 40 38
f 37 41 40

