# https://github.com/mikedh/trimesh
v -17.47913057 -19.74528645 3.38746488
v -17.47913057 -19.59728591 3.08544166
v -19.38500233 -17.12941915 3.07746273
v -19.89095253 -17.12941915 4.25820447
v -21.98227444 -17.12941915 7.79358803
v -21.44399043 -19.74528645 7.79358803
v -17.47913057 -19.74528645 0.88009911
v -17.47913057 -19.56451083 1.35991776
v -19.17197073 -17.12941915 1.35991776
v -27.19489153 -17.12941915 7.79358803
v -27.19489153 -19.74528645 7.79358803
v -17.47913057 -19.64055954 1.15363132
v -18.34932597 -19.74528645 0.00366286
v -19.82723307 -17.12941915 -0.20718553
v -17.47913057 -19.60087077 1.26076400
v -27.19489153 -17.12941915 -3.76764313
v -27.19489153 -19.74528645 -3.84970177
v -18.55570117 -19.74528645 -0.15247806
v -23.60664021 -19.74528645 -3.31745791
v -25.43262496 -17.12941915 -3.30264248
v -26.80591836 -17.12941915 -3.73573258
v -27.19489153 -18.11728308 -3.84970177
v -26.80591836 -19.74528645 -3.84970177
v -23.83488991 -19.74528645 -3.41661167
v -26.42550563 -17.12941915 -3.65481122
v -25.05696715 -19.74528645 -3.70951869
v -25.56672284 -19.74528645 -3.81664880
v -26.80591836 -18.50546376 -3.84970177
f 1 2 3
f 1 3 4
f 1 4 5
f 1 5 6
f 1 6 11
f 1 11 17
f 1 17 23
f 1 23 27
f 1 27 26
f 1 26 24
f 1 24 19
f 1 19 18
f 1 18 13
f 1 13 7
f 1 7 12
f 1 12 15
f 1 15 8
f 1 8 2
f 2 8 9
f 2 9 3
f 3 9 14
f 3 14 20
f 3 20 25
f 3 25 21
f 3 21 16
f 3 16 10
f 3 10 5
f 3 5 4
f 5 10 11
f 5 11 6
f 7 9 12
f 7 13 14
f 7 14 9
f 8 15 9
f 9 15 12
f 10 16 22
f 10 22 17
f 10 17 11
f 13 18 14
f 14 18 19
f 14 19 20
f 16 21 22
f 17 22 28
f 17 28 23
f 19 24 20
f 20 24 25
f 21 25 26
f 21 26 27
f 21 27 28
f 21 28 22
f 23 28 27
f 24 26 25

