# https://github.com/mikedh/trimesh
v -25.82085966 9.47552872 7.20143663
v -25.82085966 9.80106159 4.96178548
v -17.60476324 10.33047127 4.96178548
v -23.09181310 9.66682090 7.20143663
v -25.82085966 18.04593335 7.20143663
v -25.82085966 18.04593335 4.96178548
v -17.60476324 10.21385060 7.20143663
v -17.60476324 14.52883879 4.96178548
v -21.99150642 18.04593335 7.20143663
v -21.00380523 18.04593335 4.96178548
v -17.60476324 13.30808922 7.20143663
f 1 2 3
f 1 3 4
f 1 4 7
f 1 7 11
f 1 11 9
f 1 9 5
f 1 5 6
f 1 6 2
f 2 6 10
f 2 10 8
f 2 8 3
f 3 7 4
f 3 8 11
f 3 11 7
f 5 9 10
f 5 10 6
f 8 10 9
f 8 9 11

