# https://github.com/mikedh/trimesh
v 17.00291561 -33.08379323 -4.11506723
v 25.88473111 -25.47780399 -3.55175677
v 25.88473111 -27.02610625 -3.26070232
v 24.69440232 -28.40175654 -3.17452171
v 17.96543726 -33.08379323 -3.73515108
v 17.00291561 -33.08379323 -1.06858507
v 17.00291561 -27.13749470 -3.67759785
v 18.08803634 -27.13749470 -3.79449513
v 24.99437742 -20.23325320 -3.82282404
v 25.88473111 -20.23325320 -3.83654336
v 25.88473111 -21.95977800 -3.82103322
v 25.88473111 -23.68444638 -3.75602854
v 25.88473111 -27.95063217 -2.44659996
v 25.84560583 -27.99147494 -2.47642122
v 22.79718104 -30.01689161 -3.16348862
v 18.98447779 -33.08379323 -2.09441579
v 20.89995848 -31.61717652 -3.10116502
v 19.10272847 -33.08379323 -1.06858507
v 17.00291561 -23.21661284 -1.06858507
v 17.00291561 -25.69315516 -3.30155667
v 18.00021672 -25.31814705 -3.47481844
v 25.88473111 -16.78020488 -3.35374259
v 25.88473111 -18.47331263 -3.67521009
v 25.88473111 -27.97476578 -1.35187931
v 25.85864845 -28.00261353 -1.32504275
v 23.93446968 -29.56762496 -1.06858507
v 23.03802823 -30.20253988 -2.09441579
v 21.04690215 -31.72856497 -2.09441579
v 21.07559514 -31.75084214 -1.06858507
v 17.38201225 -22.80633253 -1.06858507
v 17.00291561 -23.23517844 -1.09094973
v 17.00291561 -24.81132845 -2.64848397
v 17.36549220 -24.68137440 -2.86200315
v 25.88473111 -15.81854905 -3.02303280
v 25.88473111 -27.97476578 -1.17832421
v 25.85864845 -28.00261353 -1.20516592
v 25.71692156 -28.11957127 -1.06858507
v 23.07106833 -30.23224278 -1.06858507
v 22.61285015 -30.58311730 -1.06858507
v 17.00291561 -23.57862722 -1.48995251
v 23.25540179 -16.69109361 -1.06858507
v 25.81865091 -15.86496112 -3.00275743
v 24.97959544 -14.96271301 -1.06858507
v 25.88473111 -14.11801557 -1.06858507
v 25.88473111 -27.96177076 -1.06858507
f 1 2 3
f 1 3 4
f 1 4 5
f 1 5 16
f 1 16 18
f 1 18 6
f 1 6 19
f 1 19 31
f 1 31 40
f 1 40 32
f 1 32 20
f 1 20 7
f 1 7 8
f 1 8 9
f 1 9 10
f 1 10 11
f 1 11 12
f 1 12 2
f 2 12 11
f 2 11 10
f 2 10 23
f 2 23 22
f 2 22 34
f 2 34 44
f 2 44 45
f 2 45 35
f 2 35 24
f 2 24 13
f 2 13 3
f 3 13 14
f 3 14 4
f 4 14 15
f 4 15 5
f 5 15 17
f 5 17 16
f 6 18 29
f 6 29 39
f 6 39 38
f 6 38 26
f 6 26 37
f 6 37 45
f 6 45 44
f 6 44 43
f 6 43 41
f 6 41 30
f 6 30 19
f 7 20 21
f 7 21 22
f 7 22 23
f 7 23 9
f 7 9 8
f 9 23 10
f 13 24 14
f 14 24 25
f 14 25 26
f 14 26 27
f 14 27 28
f 14 28 17
f 14 17 15
f 16 17 28
f 16 28 18
f 18 28 29
f 19 30 31
f 20 32 33
f 20 33 34
f 20 34 22
f 20 22 21
f 24 35 36
f 24 36 25
f 25 36 37
f 25 37 26
f 26 38 27
f 27 38 28
f 28 38 39
f 28 39 29
f 30 40 31
f 30 41 40
f 32 40 42
f 32 42 34
f 32 34 33
f 34 42 43
f 34 43 44
f 35 45 36
f 36 45 37
f 40 41 42
f 41 43 42

