# https://github.com/mikedh/trimesh
v 24.23392503 27.69527961 6.39050166
v 24.23392503 27.69527961 -3.59808136
v 18.09183926 27.69527961 6.39050166
v 24.23392503 16.91632259 6.39050166
v 23.68856137 27.69527961 -3.73341687
v 24.23392503 27.14873492 -3.74544315
v 18.09183926 27.69527961 -3.52390130
v 18.09183926 21.82678266 6.39050166
v 21.81918012 16.91632259 6.39050166
v 24.23392503 16.91632259 -1.22424226
v 21.96168406 27.69527961 -3.84869829
v 24.23392503 26.38905958 -3.80058289
v 18.50852638 27.69527961 -3.84869829
v 18.09183926 27.69211480 -3.79857593
v 18.09183926 19.94130977 4.24121227
v 19.23607633 16.91632259 3.08536704
v 19.38880157 16.91632259 3.35703639
v 19.94558814 16.91632259 4.34647179
v 24.23392503 17.39217622 -2.09337629
v 21.54078619 16.91632259 -0.80420765
v 23.26766479 26.38905958 -3.84869829
v 24.23392503 25.42258321 -3.84869829
v 21.54078619 24.66185036 -3.84869829
v 24.23392503 20.24307055 -3.72740116
v 18.09183926 26.38378233 -3.64018620
v 18.09183926 19.43802521 3.08536704
v 19.20481032 16.91632259 1.35911755
v 18.09183926 19.35572729 1.35911755
v 24.23392503 17.61902363 -2.45727284
v 19.89688480 16.91632259 -0.17966970
v 24.23392503 18.22676493 -3.21213406
v 24.23392503 21.96922226 -3.84869829
v 23.26766479 22.93464371 -3.84869829
v 24.23392503 18.61715325 -3.35047486
v 18.09183926 25.11660268 -3.19308345
v 19.56618017 16.91632259 0.54210769
v 18.09183926 19.85584703 -0.04233238
v 23.94711348 18.39136078 -3.13995581
f 1 2 5
f 1 5 11
f 1 11 13
f 1 13 7
f 1 7 3
f 1 3 8
f 1 8 9
f 1 9 4
f 1 4 10
f 1 10 19
f 1 19 29
f 1 29 31
f 1 31 34
f 1 34 24
f 1 24 32
f 1 32 22
f 1 22 12
f 1 12 6
f 1 6 2
f 2 6 5
f 3 7 14
f 3 14 25
f 3 25 35
f 3 35 37
f 3 37 28
f 3 28 26
f 3 26 15
f 3 15 8
f 4 9 18
f 4 18 17
f 4 17 16
f 4 16 27
f 4 27 36
f 4 36 30
f 4 30 20
f 4 20 10
f 5 6 11
f 6 12 11
f 7 13 14
f 8 15 16
f 8 16 17
f 8 17 18
f 8 18 9
f 10 20 19
f 11 12 21
f 11 21 22
f 11 22 32
f 11 32 33
f 11 33 23
f 11 23 13
f 12 22 21
f 13 23 24
f 13 24 14
f 14 24 25
f 15 26 16
f 16 26 28
f 16 28 27
f 19 20 29
f 20 30 31
f 20 31 29
f 23 33 24
f 24 34 25
f 24 33 32
f 25 34 35
f 27 28 37
f 27 37 36
f 30 38 31
f 30 36 37
f 30 37 35
f 30 35 38
f 31 38 35
f 31 35 34

