# https://github.com/mikedh/trimesh
v 26.98448973 10.47252493 6.06397560
v 26.98448973 10.88335587 1.35847172
v 29.60059118 6.83517274 -2.09326822
v 28.73601654 7.62677278 6.06397560
v 26.98448973 27.29052356 6.06397560
v 26.98448973 11.34829605 -0.33682953
v 29.71552781 6.83517274 -2.34460045
v 29.37478327 6.83517274 6.06397560
v 29.21102365 7.99952693 -3.08793457
v 27.22453672 27.08009971 6.06397560
v 26.98448973 27.29252794 5.87086558
v 26.98448973 11.47254701 -0.50568115
v 30.22206724 6.83517274 -3.39555410
v 37.37464083 6.83517274 6.06397560
v 28.99538687 9.12379868 -3.27716448
v 26.98448973 12.47858094 -1.73712675
v 26.98448973 13.40244945 -2.80554603
v 27.38219314 12.93349922 -3.17818054
v 27.31709583 26.99793301 6.06397560
v 27.32116634 27.00193920 4.81215172
v 26.98448973 27.30054289 4.13480775
v 30.69503909 6.83517274 -3.53432201
v 26.98448973 17.49271683 -3.82447077
v 30.17527951 9.12379868 -3.72355192
v 37.37362449 6.83517274 5.37207608
v 37.24851672 7.39630642 4.81215172
v 37.24953306 7.39630642 6.06397560
v 26.98448973 14.81330118 -3.38390863
v 26.98448973 15.66902979 -3.52849671
v 26.98448973 14.44455450 -3.26745906
v 27.53883323 26.76145480 6.06397560
v 28.16132820 26.14420621 -0.36691324
v 27.32523428 27.00394615 3.08579673
v 26.98448973 27.30455164 3.08579673
v 31.90239354 6.83517274 -3.83708884
v 26.98448973 19.21820471 -3.84873431
v 30.17527951 10.84928656 -3.84776171
v 37.36243701 6.83517274 3.64572110
v 37.24342987 7.39630642 3.08579673
v 36.82945213 9.12379868 -0.36691324
v 36.83250373 9.12379868 3.08579673
v 36.83453641 9.12379868 6.06397560
v 28.15014073 26.14220183 1.35847172
v 28.11860841 26.13418688 6.06397560
v 28.12674429 26.13819564 4.81215172
v 29.02386759 25.16623102 -0.36691324
v 28.93334116 25.08205994 -2.09326822
v 28.07080177 26.04600704 -2.09326822
v 27.24793058 26.90975317 -2.09326822
v 27.32930222 27.00795234 -0.36691324
v 27.32828588 27.00594796 1.35847172
v 26.98448973 27.30856040 1.35847172
v 33.62747488 6.83517274 -3.81961806
v 31.90239354 7.39630642 -3.84388160
v 33.62747488 7.39630642 -3.83417619
v 28.44918183 16.02975895 -3.84873431
v 26.98448973 22.67318923 -3.84873431
v 30.17527951 12.57677882 -3.84873431
v 31.90239354 9.12379868 -3.84873431
v 37.34209218 6.83517274 1.91839609
v 37.22715554 7.39630642 1.35847172
v 36.81724574 9.12379868 -2.09326822
v 36.41750708 10.78315361 -0.36691324
v 36.72061611 9.58272701 6.06397560
v 28.98216671 25.10210116 6.06397560
v 28.99030259 25.11813106 4.81215172
v 29.01369645 25.15420474 1.35847172
v 29.66365323 24.27442615 3.08579673
v 29.66975643 24.29045861 1.35847172
v 29.67280803 24.30248489 -0.36691324
v 29.60669437 24.21831381 -2.09326822
v 29.46327444 24.01991110 -3.08016920
v 27.84499644 25.80752703 -3.11801827
v 26.98448973 27.04803479 -2.34557305
v 26.98448973 27.14222519 -2.09326822
v 26.98448973 27.25044369 -0.99767789
v 26.98448973 27.30455164 -0.36691324
v 34.18792157 6.83517274 -3.81282530
v 33.62747488 9.12379868 -3.84873431
v 35.35458890 7.39630642 -3.80894519
v 35.35458890 6.83517274 -3.79633226
v 26.98448973 24.39867968 -3.74199016
v 28.44918183 21.20822954 -3.84582166
v 30.17527951 17.75524683 -3.84873431
v 37.31463037 6.83517274 0.19301113
v 37.20376167 7.39630642 -0.36691324
v 37.14781915 7.39630642 -2.09326822
v 36.34325497 10.46651436 -3.11801827
v 36.41140388 10.74307245 -2.09326822
v 35.96894543 12.57677882 -0.36691324
v 36.20187287 11.64689974 -0.36691324
v 36.41852342 10.78916546 3.08579673
v 36.20288921 11.65291159 3.08579673
v 36.20288921 11.65491597 4.81215172
v 36.41954233 10.77714175 6.06397560
v 29.64636256 24.23835504 6.06397560
v 29.65449844 24.25438493 4.81215172
v 30.27190656 23.37460891 6.06397560
v 30.50992086 23.04193591 6.06397560
v 30.52721153 23.04995086 3.08579673
v 30.53636632 23.05796838 -0.36691324
v 31.09579667 22.15614418 -1.71092315
v 30.53229581 23.05395962 1.35847172
v 30.57298292 22.81347265 -2.20874519
v 31.02052823 22.04993007 -2.86182819
v 32.93988259 18.88753610 -3.10346015
v 31.40195731 20.89960396 -3.22281723
v 29.84368976 22.93371742 -3.26939911
v 28.43188859 24.62112723 -3.30627558
v 26.98448973 26.25242470 -3.28977740
v 33.62747488 10.84928656 -3.84873431
v 33.62747488 12.57677882 -3.82738342
v 35.35458890 9.12379868 -3.73228474
v 36.66060565 7.39630642 -3.37323576
v 35.80721849 6.83517274 -3.66338451
v 28.44918183 22.93371742 -3.71481911
v 30.17527951 19.48073728 -3.82544337
v 26.98448973 26.11815442 -3.33538669
v 31.90239354 16.02975895 -3.83223613
v 31.90239354 14.30226669 -3.84873431
v 37.29937239 6.83517274 -0.36691324
v 37.26173945 6.83517274 -1.53333871
v 36.51210145 9.12379868 -3.28589729
v 37.22308760 6.83517274 -2.09326822
v 34.87347860 14.30226669 -3.26745906
v 34.65682548 15.59688498 -3.10346015
v 35.39018916 14.30226669 -2.09326822
v 36.17746009 11.60681857 -2.09326822
v 35.51529693 14.30226669 -0.36691324
v 35.96894543 12.57677882 1.35847172
v 36.19882128 11.64088788 6.06397560
v 31.11105208 22.17818978 6.06397560
v 31.11715528 22.18620473 3.08579673
v 31.12325847 22.19622663 -0.36691324
v 31.79559278 21.20822954 -0.36691324
v 33.15958730 19.20016787 -0.36691324
v 33.09448999 19.11199060 -2.09326822
v 34.40864262 16.74721109 -2.47075544
v 33.26638806 17.75524683 -3.27327922
v 31.94714858 19.47071538 -3.38293603
v 30.33700388 21.36855161 -3.47027449
v 33.62747488 14.30226669 -3.71384651
v 35.14810692 12.57677882 -3.38099597
v 36.89353053 6.83517274 -2.95789947
v 36.69010271 6.83517274 -3.36838305
v 31.90239354 17.75524683 -3.71869922
v 33.75156631 16.11593441 -3.38778874
v 34.75752305 16.11593441 -1.97487860
v 35.49393832 14.30226669 1.35847172
v 36.12660443 11.89540165 6.06397560
v 34.89687246 16.02975895 -0.36691324
v 31.77016366 21.20822954 6.06397560
v 31.78237004 21.20822954 3.08579673
v 32.56353779 20.04587973 4.81215172
v 33.14839726 19.18814416 3.08579673
v 34.00076551 17.76727311 6.06397560
v 34.01093921 17.77328368 3.08579673
v 34.02212669 17.77929681 -0.36691324
v 34.50018540 16.90953755 -1.31985040
v 34.01500715 17.59292038 -1.97487860
v 35.46240600 14.30226669 3.08579673
v 34.82974247 16.02975895 4.81215172
v 34.81346557 16.02975895 6.06397560
v 35.77772143 13.05173961 6.06397560
v 34.50323699 16.91755507 -0.36691324
v 34.50120174 16.91154193 3.08579673
v 34.49815271 16.90753317 6.06397560
v 32.55946985 20.03986659 6.06397560
v 32.71916153 19.80138400 6.06397560
v 33.14127772 19.18213360 4.81215172
v 33.13720978 19.17612046 6.06397560
v 33.76275378 18.15605844 6.06397560
v 35.42172147 14.30226669 4.81215172
v 35.39120550 14.30226669 6.06397560
f 1 2 3
f 1 3 4
f 1 4 8
f 1 8 14
f 1 14 27
f 1 27 42
f 1 42 64
f 1 64 95
f 1 95 131
f 1 131 150
f 1 150 164
f 1 164 174
f 1 174 163
f 1 163 167
f 1 167 156
f 1 156 172
f 1 172 171
f 1 171 169
f 1 169 168
f 1 168 152
f 1 152 132
f 1 132 99
f 1 99 98
f 1 98 96
f 1 96 65
f 1 65 44
f 1 44 31
f 1 31 19
f 1 19 10
f 1 10 5
f 1 5 11
f 1 11 21
f 1 21 34
f 1 34 52
f 1 52 77
f 1 77 76
f 1 76 75
f 1 75 74
f 1 74 110
f 1 110 118
f 1 118 82
f 1 82 57
f 1 57 36
f 1 36 23
f 1 23 29
f 1 29 28
f 1 28 30
f 1 30 17
f 1 17 16
f 1 16 12
f 1 12 6
f 1 6 2
f 2 6 3
f 3 7 13
f 3 13 22
f 3 22 35
f 3 35 53
f 3 53 78
f 3 78 81
f 3 81 115
f 3 115 145
f 3 145 144
f 3 144 124
f 3 124 122
f 3 122 121
f 3 121 85
f 3 85 60
f 3 60 38
f 3 38 25
f 3 25 14
f 3 14 8
f 3 8 4
f 3 6 9
f 3 9 7
f 5 10 11
f 6 12 9
f 7 9 13
f 9 15 13
f 9 12 16
f 9 16 17
f 9 17 18
f 9 18 15
f 10 19 20
f 10 20 11
f 11 20 21
f 13 15 23
f 13 23 24
f 13 24 22
f 14 25 26
f 14 26 27
f 15 18 28
f 15 28 29
f 15 29 23
f 17 30 18
f 18 30 28
f 19 31 32
f 19 32 20
f 20 32 33
f 20 33 34
f 20 34 21
f 22 24 35
f 23 36 37
f 23 37 35
f 23 35 24
f 25 38 39
f 25 39 26
f 26 39 40
f 26 40 41
f 26 41 27
f 27 41 42
f 31 43 32
f 31 44 45
f 31 45 43
f 32 46 47
f 32 47 48
f 32 48 49
f 32 49 50
f 32 50 51
f 32 51 33
f 32 43 46
f 33 51 34
f 34 51 52
f 35 37 54
f 35 54 55
f 35 55 53
f 36 56 37
f 36 57 84
f 36 84 120
f 36 120 111
f 36 111 79
f 36 79 59
f 36 59 58
f 36 58 56
f 37 58 59
f 37 59 54
f 37 56 58
f 38 60 61
f 38 61 39
f 39 61 62
f 39 62 40
f 40 62 63
f 40 63 41
f 41 63 64
f 41 64 42
f 43 45 46
f 44 65 66
f 44 66 67
f 44 67 46
f 44 46 45
f 46 67 68
f 46 68 69
f 46 69 70
f 46 70 71
f 46 71 47
f 47 71 72
f 47 72 48
f 48 73 49
f 48 72 73
f 49 73 74
f 49 74 75
f 49 75 76
f 49 76 50
f 50 76 77
f 50 77 52
f 50 52 51
f 53 55 78
f 54 59 79
f 54 79 55
f 55 79 80
f 55 80 81
f 55 81 78
f 57 82 83
f 57 83 84
f 60 85 86
f 60 86 61
f 61 86 62
f 62 86 87
f 62 87 88
f 62 88 89
f 62 89 90
f 62 90 91
f 62 91 63
f 63 91 93
f 63 93 92
f 63 92 64
f 64 92 93
f 64 93 94
f 64 94 95
f 65 96 97
f 65 97 66
f 66 97 67
f 67 97 68
f 68 97 98
f 68 98 99
f 68 99 69
f 69 99 100
f 69 100 70
f 70 101 102
f 70 102 71
f 70 100 103
f 70 103 101
f 71 102 104
f 71 104 105
f 71 105 72
f 72 105 106
f 72 106 107
f 72 107 108
f 72 108 109
f 72 109 73
f 73 110 74
f 73 109 110
f 79 111 80
f 80 111 112
f 80 112 113
f 80 113 114
f 80 114 115
f 80 115 81
f 82 116 117
f 82 117 83
f 82 118 116
f 83 117 119
f 83 119 84
f 84 119 120
f 85 121 86
f 86 121 122
f 86 122 87
f 87 123 88
f 87 122 124
f 87 124 123
f 88 125 126
f 88 126 127
f 88 127 128
f 88 128 89
f 88 123 125
f 89 128 129
f 89 129 90
f 90 94 93
f 90 93 91
f 90 129 130
f 90 130 94
f 94 131 95
f 94 130 129
f 94 129 131
f 96 98 97
f 99 132 100
f 100 132 103
f 101 103 132
f 101 132 133
f 101 133 134
f 101 134 102
f 102 105 104
f 102 134 135
f 102 135 136
f 102 136 137
f 102 137 105
f 105 137 106
f 106 137 138
f 106 138 126
f 106 126 139
f 106 139 140
f 106 140 107
f 107 140 108
f 108 116 109
f 108 140 141
f 108 141 116
f 109 116 118
f 109 118 110
f 111 120 119
f 111 119 112
f 112 142 113
f 112 119 146
f 112 146 142
f 113 123 114
f 113 142 125
f 113 125 143
f 113 143 123
f 114 123 144
f 114 144 145
f 114 145 115
f 116 141 140
f 116 140 146
f 116 146 117
f 117 146 119
f 123 124 144
f 123 143 125
f 125 142 147
f 125 147 139
f 125 139 126
f 126 138 127
f 127 129 128
f 127 138 148
f 127 148 129
f 129 149 150
f 129 150 131
f 129 148 151
f 129 151 149
f 132 152 153
f 132 153 133
f 133 153 135
f 133 135 134
f 135 153 136
f 136 153 152
f 136 152 154
f 136 154 155
f 136 155 156
f 136 156 157
f 136 157 158
f 136 158 159
f 136 159 137
f 137 159 160
f 137 160 138
f 138 160 159
f 138 159 148
f 139 147 146
f 139 146 140
f 142 146 147
f 148 159 151
f 149 161 150
f 149 151 162
f 149 162 163
f 149 163 161
f 150 161 164
f 151 159 165
f 151 165 166
f 151 166 167
f 151 167 162
f 152 168 154
f 154 168 169
f 154 169 155
f 155 169 170
f 155 170 171
f 155 171 172
f 155 172 156
f 156 167 157
f 157 167 158
f 158 167 166
f 158 166 165
f 158 165 159
f 161 173 164
f 161 163 173
f 162 167 163
f 163 174 173
f 164 173 174
f 169 171 170

