# https://github.com/mikedh/trimesh
v 22.51280614 15.67538771 47.98134960
v 22.50397812 15.67538771 46.52853037
v 22.47750178 15.67538771 49.70682108
v 27.97002959 8.56907438 46.08870444
v 22.50103716 15.67538771 46.08870444
v 22.22449966 15.67538771 51.31619967
v 22.50397812 15.35584739 51.05880541
v 28.83494901 7.36732139 46.08870444
v -0.03980512 15.67538771 46.08870444
v 22.38336026 15.13216737 52.20978250
v 22.11270725 15.67538771 51.78521487
v 28.89084522 7.28257396 46.08870444
v -0.03980512 1.48221048 46.08870444
v -0.03980512 15.67538771 52.86521015
v 22.28627778 15.00157393 52.86521015
v 22.06269296 15.67538771 51.95371527
v 22.19213626 15.13077794 52.86521015
v 25.27524788 9.14007944 52.86521015
v 29.26446777 6.30033271 46.08870444
v 22.80405357 14.14853669 52.86521015
v 23.75428649 12.37439050 52.86521015
v 24.48681908 10.90450220 52.86521015
v -0.03980512 1.48221048 52.86521015
v 30.01465125 1.48221048 46.08870444
v 21.77438648 15.67538771 52.86521015
v 25.68123125 7.98278560 52.86521015
v 29.47334008 5.66958607 46.08870444
v 25.79008271 7.66463342 52.86521015
v 26.87858438 1.48221048 52.86521015
v 30.00876676 1.59335513 46.08870444
v 26.84328260 2.21576456 52.86521015
v 29.80577636 3.94267531 46.08870444
v 26.01072400 6.95747592 52.86521015
v 26.33139130 5.66958607 52.86521015
v 29.97346241 2.21576456 46.08870444
v 26.80797824 2.51168844 52.86521015
v 29.84107814 3.58562299 46.08870444
v 26.58733695 4.23859920 52.86521015
v 26.63440771 3.94267531 52.86521015
f 1 2 5
f 1 5 9
f 1 9 14
f 1 14 25
f 1 25 16
f 1 16 11
f 1 11 6
f 1 6 3
f 1 3 4
f 1 4 2
f 2 4 5
f 3 6 7
f 3 7 8
f 3 8 4
f 4 8 12
f 4 12 19
f 4 19 27
f 4 27 32
f 4 32 37
f 4 37 35
f 4 35 30
f 4 30 24
f 4 24 13
f 4 13 9
f 4 9 5
f 6 10 7
f 6 11 10
f 7 10 12
f 7 12 8
f 9 13 23
f 9 23 14
f 10 11 15
f 10 15 12
f 11 16 17
f 11 17 15
f 12 18 19
f 12 15 20
f 12 20 21
f 12 21 22
f 12 22 18
f 13 24 29
f 13 29 23
f 14 23 29
f 14 29 31
f 14 31 36
f 14 36 39
f 14 39 38
f 14 38 34
f 14 34 33
f 14 33 28
f 14 28 26
f 14 26 18
f 14 18 22
f 14 22 21
f 14 21 20
f 14 20 15
f 14 15 17
f 14 17 25
f 16 25 17
f 18 26 19
f 19 26 28
f 19 28 27
f 24 30 31
f 24 31 29
f 27 28 33
f 27 33 34
f 27 34 32
f 30 35 31
f 31 35 37
f 31 37 32
f 31 32 36
f 32 34 38
f 32 38 39
f 32 39 36

