# https://github.com/mikedh/trimesh
v -24.58085879 1.48220983 32.82522199
v -24.58085879 1.48220983 9.15209688
v -37.81578558 1.48220983 32.82522199
v -24.58085879 -20.68945542 32.82522199
v -29.77065580 1.48220983 7.79717481
v -24.58085879 -9.07182986 7.79717481
v -37.87785703 1.48220983 32.60961094
v -37.86841148 0.48528824 32.82522199
v -24.99377387 -20.92277782 32.82522199
v -24.58085879 -27.10127049 31.18363760
v -38.28267740 1.48220983 7.79717481
v -24.58085879 -29.22541122 7.79717481
v -38.06272567 1.48220983 31.74471596
v -37.90754449 0.48528824 32.68066479
v -37.85086866 -1.06312208 32.82522199
v -25.08148542 -20.97125988 32.82522199
v -24.58085879 -28.68301167 30.50250230
v -26.80736955 -21.39245236 32.82522199
v -28.53460193 -21.07428603 32.82522199
v -29.92853350 -20.34704742 32.82522199
v -30.27263069 -20.16220836 32.82522199
v -38.29347120 1.20949584 7.79717481
v -38.31236486 1.48220983 9.26235320
v -24.58085879 -29.46479179 22.74539981
v -25.08148542 -28.82845913 7.79717481
v -38.12749621 1.48220983 31.27674219
v -38.07486774 0.48528824 31.81576981
v -38.07621857 -1.23887196 31.80596919
v -37.89000166 -1.23887196 32.67086417
v -37.84816956 -1.23887196 32.82522199
v -25.08148542 -28.46484047 30.28934076
v -24.58085879 -29.41328000 29.47589839
v -30.46154926 -19.99554895 32.82522199
v -38.32855685 0.48528824 8.26759938
v -38.31911131 0.48528824 7.79717481
v -38.34340058 1.48220983 10.98724157
v -24.58085879 -29.47085382 23.80630460
v -25.11657107 -29.00724002 23.80630460
v -26.02606543 -28.07091940 8.26759938
v -26.02201808 -28.06789096 7.79717481
v -38.19496584 1.48220983 30.71321175
v -38.22465331 0.48528824 30.71321175
v -38.20980958 -1.23887196 30.71321175
v -38.05192930 -2.96606189 31.66631230
v -38.03303821 -3.83874732 31.58545783
v -37.75236330 -2.65698603 32.82522199
v -25.98693500 -28.04667901 29.91202079
v -26.10028409 -28.15576461 27.25853342
v -25.09497832 -29.01935893 27.25853342
v -24.58085879 -29.44661086 27.25853342
v -26.05305380 -28.11031227 28.98587387
v -31.08497053 -19.31679369 32.82522199
v -29.40496586 -24.55593729 29.86056818
v -38.35419438 0.48528824 9.99493983
v -38.31236486 0.01561371 7.79717481
v -38.36499076 0.48528824 11.71983077
v -38.34744794 1.48220983 11.71983077
v -24.58085879 -29.47388226 24.47028947
v -26.10298318 -28.15576461 25.53119425
v -26.88563555 -27.31337966 7.79717481
v -38.24084530 1.48220983 29.98062512
v -38.33260420 0.48528824 28.98587387
v -38.29482203 -1.23887196 28.98587387
v -38.12749621 -2.96606189 30.71321175
v -37.72672319 -2.96606189 32.82522199
v -38.05597665 -4.01449655 30.71321175
v -37.76180884 -6.42044175 28.98587387
v -37.44739655 -8.14763168 28.98587387
v -37.06686802 -9.87482160 28.98587387
v -36.30850235 -12.47772733 29.85811867
v -27.69662456 -26.30130686 29.88506973
v -25.10712296 -29.01935893 25.53119425
v -26.96389899 -27.26489889 27.25853342
v -27.85855219 -26.46493526 11.71983077
v -24.58085879 -29.45873234 26.21722987
v -26.91532044 -27.21944655 28.98587387
v -31.47359891 -18.71076216 32.82522199
v -31.43446590 -21.55608075 30.18643555
v -30.98511691 -22.63481655 28.98587387
v -30.15658251 -23.68325121 28.98587387
v -29.43330506 -24.58926814 28.98587387
v -28.61286794 -25.45286246 28.98587387
v -27.74925046 -26.35584966 28.98587387
v -38.27188102 -1.23887196 7.79717481
v -38.29347120 1.48220983 28.98587387
v -27.85315658 -26.45887580 9.99493983
v -27.84505929 -26.44978534 7.79717481
v -27.14876764 -27.07702753 7.79717481
v -38.18012211 -2.96606189 28.98587387
v -37.26117964 -4.16600412 32.82522199
v -38.07621857 -4.18721542 28.98587387
v -37.96421774 -5.05081038 28.98587387
v -37.78744638 -6.42044175 27.25853342
v -37.49327857 -8.14763168 27.25853342
v -37.08306001 -9.87482160 27.25853342
v -36.59187635 -11.59898165 28.98587387
v -36.31120144 -12.48681780 28.98587387
v -35.99139353 -13.35041276 28.98587387
v -35.27081517 -15.05033129 28.98587387
v -34.66898152 -16.08664577 29.99042574
v -31.57885328 -18.53501356 32.82522199
v -37.10869755 -4.55386445 32.82522199
v -27.79243339 -26.40130199 27.25853342
v -28.65604830 -25.47710542 27.25853342
v -29.45219614 -24.61350981 27.25853342
v -28.72216967 -25.50437682 11.71983077
v -32.89721794 -19.45618105 29.92672172
v -31.58964709 -21.77122094 28.98587387
v -30.94328481 -22.54997262 7.79717481
v -29.47108723 -24.64078121 11.71983077
v -38.23949704 -1.71157622 7.79717481
v -28.47253048 -25.73163848 7.79717481
v -38.17472650 -2.96606189 25.53119425
v -38.06812129 -4.18115532 18.62673791
v -38.06947212 -4.18418505 20.35162628
v -38.07351948 -4.18721542 25.53119425
v -37.97501412 -5.04475029 18.62673791
v -37.97366329 -5.04778001 20.35162628
v -37.96826767 -5.05081038 25.53119425
v -37.78879721 -6.42044175 25.53119425
v -37.47573575 -8.14763168 8.26759938
v -37.35294112 -8.61730621 7.79717481
v -37.02233683 -9.87482160 7.79717481
v -36.31659963 -12.49893864 20.35162628
v -36.31795046 -12.50196869 22.07896673
v -36.31659963 -12.49893864 23.80630460
v -35.99139353 -13.35344313 27.25853342
v -35.27756162 -15.05033129 27.25853342
v -34.72565477 -16.19573136 27.25853342
v -34.71890832 -16.18058016 28.98587387
v -32.92555457 -19.50769348 28.98587387
v -32.45326456 -20.37128909 28.98587387
v -34.25471560 -17.04417577 28.98587387
v -32.45461282 -20.41674142 23.80630460
v -32.45191373 -20.42886162 22.07896673
v -32.44516728 -20.43795208 20.35162628
v -32.43707000 -20.44401282 18.62673791
v -32.42762446 -20.45007228 16.90184697
v -31.09981426 -22.31362049 7.79717481
v -30.11880034 -23.68325121 7.79717481
v -32.41817891 -20.45007228 15.17450909
v -29.44005151 -24.60138962 8.26759938
v -28.70867677 -25.45892449 7.79717481
v -28.71002503 -25.46498394 8.26759938
v -38.17202483 -2.96606189 23.80630460
v -38.12209802 -3.07817721 7.79717481
v -38.08971404 -3.39028409 7.79717481
v -37.95881956 -4.65082921 7.79717481
v -37.76990355 -6.42044175 7.79717481
v -37.47303665 -8.14763168 7.79717481
v -36.89144492 -10.29601376 7.79717481
v -36.30580583 -12.47166724 17.46292662
v -36.31120144 -12.48378775 18.62673791
v -35.97790063 -13.36253360 20.35162628
v -35.98464708 -13.36556365 22.07896673
v -35.98734617 -13.36253360 23.80630460
v -35.99004527 -13.35647318 25.53119425
v -35.27351169 -15.05033129 25.53119425
v -34.71486097 -16.21997239 9.99493983
v -34.72430651 -16.19876109 25.53119425
v -34.29789596 -17.08053763 9.99493983
v -32.97953130 -19.58647796 16.90184697
v -33.52738822 -18.50471115 22.07896673
v -33.51389275 -18.50471115 23.80630460
v -32.94984384 -19.55314646 23.80630460
v -32.95794112 -19.56526665 22.07896673
v -32.96468757 -19.57435712 20.35162628
v -32.97278228 -19.58041786 18.62673791
v -33.49904902 -18.50471115 25.53119425
v -32.97953130 -19.58647796 15.17450909
v -31.50193553 -21.68637830 7.79717481
v -29.43600415 -24.59532888 7.79717481
v -36.53655135 -11.38990075 7.79717481
v -36.30040764 -12.45348630 16.31136804
v -35.18849923 -15.05033129 7.79717481
v -36.02917827 -13.15951297 16.89204635
v -35.96980335 -13.34738272 18.62673791
v -34.71081362 -16.20482183 7.79717481
v -34.71216188 -16.20785156 8.26759938
v -34.30194332 -17.06841680 7.79717481
v -34.30194332 -17.07144717 8.26759938
v -34.08738978 -17.46233723 7.79717481
v -33.50174812 -18.50471115 7.79717481
v -33.34117132 -18.77439542 7.79717481
v -32.91340993 -19.46830189 7.79717481
v -32.36555301 -20.33189621 7.79717481
v -36.22753982 -12.25349572 7.79717481
v -35.84161053 -13.32617174 7.79717481
f 1 2 5
f 1 5 11
f 1 11 23
f 1 23 36
f 1 36 57
f 1 57 85
f 1 85 61
f 1 61 41
f 1 41 26
f 1 26 13
f 1 13 7
f 1 7 3
f 1 3 8
f 1 8 15
f 1 15 30
f 1 30 46
f 1 46 65
f 1 65 90
f 1 90 102
f 1 102 101
f 1 101 77
f 1 77 52
f 1 52 33
f 1 33 21
f 1 21 20
f 1 20 19
f 1 19 18
f 1 18 16
f 1 16 9
f 1 9 4
f 1 4 10
f 1 10 17
f 1 17 32
f 1 32 50
f 1 50 75
f 1 75 58
f 1 58 37
f 1 37 24
f 1 24 12
f 1 12 6
f 1 6 2
f 2 6 5
f 3 7 8
f 4 9 10
f 5 6 12
f 5 12 25
f 5 25 40
f 5 40 60
f 5 60 88
f 5 88 87
f 5 87 112
f 5 112 143
f 5 143 172
f 5 172 140
f 5 140 109
f 5 109 139
f 5 139 171
f 5 171 186
f 5 186 185
f 5 185 184
f 5 184 183
f 5 183 182
f 5 182 180
f 5 180 178
f 5 178 175
f 5 175 188
f 5 188 187
f 5 187 173
f 5 173 151
f 5 151 123
f 5 123 122
f 5 122 150
f 5 150 149
f 5 149 148
f 5 148 147
f 5 147 146
f 5 146 111
f 5 111 84
f 5 84 55
f 5 55 35
f 5 35 22
f 5 22 11
f 7 13 14
f 7 14 8
f 8 14 15
f 9 16 10
f 10 16 18
f 10 18 19
f 10 19 20
f 10 20 21
f 10 21 17
f 11 22 23
f 12 24 25
f 13 26 27
f 13 27 14
f 14 27 28
f 14 28 29
f 14 29 15
f 15 29 30
f 17 31 32
f 17 21 33
f 17 33 31
f 22 34 23
f 22 35 34
f 23 34 36
f 24 37 38
f 24 38 39
f 24 39 40
f 24 40 25
f 26 41 42
f 26 42 27
f 27 42 28
f 28 43 44
f 28 44 29
f 28 42 43
f 29 44 45
f 29 45 30
f 30 45 46
f 31 47 32
f 31 33 47
f 32 48 49
f 32 49 50
f 32 47 51
f 32 51 48
f 33 52 53
f 33 53 47
f 34 54 36
f 34 35 55
f 34 55 54
f 36 54 56
f 36 56 57
f 37 58 38
f 38 58 59
f 38 59 60
f 38 60 39
f 39 60 40
f 41 61 42
f 42 62 43
f 42 61 62
f 43 63 64
f 43 64 45
f 43 45 44
f 43 62 63
f 45 65 46
f 45 64 66
f 45 66 67
f 45 67 68
f 45 68 69
f 45 69 70
f 45 70 65
f 47 53 71
f 47 71 51
f 48 59 72
f 48 72 49
f 48 51 73
f 48 73 74
f 48 74 59
f 49 72 58
f 49 58 75
f 49 75 50
f 51 71 53
f 51 53 76
f 51 76 73
f 52 77 78
f 52 78 53
f 53 79 80
f 53 80 81
f 53 81 82
f 53 82 83
f 53 83 76
f 53 78 79
f 54 55 84
f 54 84 56
f 56 84 63
f 56 63 62
f 56 62 57
f 57 62 85
f 58 72 59
f 59 74 86
f 59 86 87
f 59 87 88
f 59 88 60
f 61 85 62
f 63 84 89
f 63 89 64
f 64 89 66
f 65 70 90
f 66 91 92
f 66 92 67
f 66 89 91
f 67 92 93
f 67 93 94
f 67 94 68
f 68 94 69
f 69 94 95
f 69 95 96
f 69 96 70
f 70 97 98
f 70 98 99
f 70 99 100
f 70 100 101
f 70 101 102
f 70 102 90
f 70 96 97
f 73 76 83
f 73 83 103
f 73 103 74
f 74 103 104
f 74 104 105
f 74 105 106
f 74 106 86
f 77 101 107
f 77 107 78
f 78 107 108
f 78 108 79
f 79 108 109
f 79 109 110
f 79 110 105
f 79 105 80
f 80 105 81
f 81 105 104
f 81 104 103
f 81 103 82
f 82 103 83
f 84 111 89
f 86 106 87
f 87 106 112
f 89 111 113
f 89 113 114
f 89 114 115
f 89 115 116
f 89 116 91
f 91 116 117
f 91 117 118
f 91 118 119
f 91 119 92
f 92 119 93
f 93 120 94
f 93 119 118
f 93 118 120
f 94 121 95
f 94 120 121
f 95 121 122
f 95 122 123
f 95 123 124
f 95 124 96
f 96 124 125
f 96 125 126
f 96 126 97
f 97 126 98
f 98 126 125
f 98 125 127
f 98 127 128
f 98 128 99
f 99 128 129
f 99 129 130
f 99 130 100
f 100 130 107
f 100 107 101
f 105 110 106
f 106 110 112
f 107 131 132
f 107 132 108
f 107 130 133
f 107 133 131
f 108 132 134
f 108 134 135
f 108 135 136
f 108 136 137
f 108 137 138
f 108 138 109
f 109 140 110
f 109 138 141
f 109 141 139
f 110 140 142
f 110 142 143
f 110 143 144
f 110 144 112
f 111 145 113
f 111 146 114
f 111 114 145
f 112 144 143
f 113 145 114
f 114 146 147
f 114 147 148
f 114 148 149
f 114 149 117
f 114 117 115
f 115 117 116
f 117 120 118
f 117 149 120
f 120 149 121
f 121 149 150
f 121 150 122
f 123 151 152
f 123 152 153
f 123 153 124
f 124 153 154
f 124 154 155
f 124 155 125
f 125 155 156
f 125 156 157
f 125 157 127
f 127 157 128
f 128 157 156
f 128 156 155
f 128 155 158
f 128 158 159
f 128 159 160
f 128 160 129
f 129 133 130
f 129 160 161
f 129 161 162
f 129 162 163
f 129 163 164
f 129 164 133
f 131 165 132
f 131 133 165
f 132 165 166
f 132 166 167
f 132 167 168
f 132 168 162
f 132 162 134
f 133 164 169
f 133 169 165
f 134 162 135
f 135 162 170
f 135 170 136
f 136 170 137
f 137 170 138
f 138 170 141
f 139 141 170
f 139 170 171
f 140 172 142
f 142 172 143
f 151 173 174
f 151 174 152
f 152 174 175
f 152 175 176
f 152 176 153
f 153 176 177
f 153 177 154
f 154 177 175
f 154 175 178
f 154 178 179
f 154 179 155
f 155 179 159
f 155 159 158
f 159 179 180
f 159 180 181
f 159 181 161
f 159 161 160
f 161 181 170
f 161 170 162
f 162 168 163
f 163 168 167
f 163 167 166
f 163 166 164
f 164 166 165
f 164 165 169
f 170 181 180
f 170 180 182
f 170 182 183
f 170 183 184
f 170 184 185
f 170 185 186
f 170 186 171
f 173 187 174
f 174 187 188
f 174 188 175
f 175 177 176
f 178 180 179

