# https://github.com/mikedh/trimesh
v -0.90553110 29.47423219 46.84844185
v -2.63376575 29.32295427 46.84844185
v -2.23999070 26.77416551 52.86521015
v -0.90553110 26.88222190 52.86521015
v -0.10923062 29.47153052 46.84844185
v -2.65564186 26.73769557 52.86521015
v -3.88071956 29.18788121 46.84844185
v -4.35762491 26.56075182 52.86521015
v -0.03922619 26.85250613 52.86521015
v -0.03922619 29.47017969 46.84844185
v -4.64201783 29.07442148 46.84844185
v -6.08585949 26.23388097 52.86521015
v 0.81832814 26.82143953 52.86521015
v 4.21354326 28.84615377 47.34728699
v 5.99865628 28.57601022 47.34728699
v 6.82558384 28.38826236 47.34728699
v 7.70938984 28.16809708 47.34728699
v 8.37880699 27.98845165 47.34728699
v 9.46387626 27.61565762 47.34728699
v 10.40456072 27.29013503 47.34728699
v 11.12648091 27.03349982 47.34728699
v 11.85277779 26.71068147 47.34728699
v 12.81533804 26.27980417 47.34728699
v 13.33162148 26.02317152 47.34728699
v 14.64857998 25.32620574 47.34728699
v 15.51488497 24.76160877 47.34728699
v 16.53432432 24.08490292 47.34728699
v 17.39187848 23.45682192 47.34728699
v 18.04817003 22.96381399 47.34728699
v 18.49882354 22.60452572 47.34728699
v 19.02385652 22.15338848 47.34728699
v 19.69327431 21.54151749 47.34728699
v 19.91203858 21.29298727 47.34728699
v 20.69521328 20.39746696 47.34728699
v 20.77396816 20.26914807 47.34728699
v 20.92272710 19.95038223 47.34728699
v 21.50463918 18.39166440 47.34728699
v 22.50657686 15.67538771 47.34728699
v -0.03922619 16.38180933 46.84844185
v -6.08585949 28.77051224 46.84844185
v -7.79659305 28.36800243 46.84844185
v -9.55982965 27.88985110 46.84844185
v -7.78784222 25.77058881 52.86521015
v 4.27042203 26.40001806 52.86521015
v 4.56794087 26.36354813 52.86521015
v 6.29617544 26.06504222 52.86521015
v 5.99865628 26.12717541 52.86521015
v 7.65251139 25.71655804 52.86521015
v 8.42255984 25.48018532 52.86521015
v 9.26698841 25.17762691 52.86521015
v 9.35886954 25.14115698 52.86521015
v 11.28399196 24.34559063 52.86521015
v 11.63401351 24.18890681 52.86521015
v 12.26842928 23.90255583 52.86521015
v 13.03410232 23.50274769 52.86521015
v 14.42106487 22.60047322 52.86521015
v 16.46869439 21.12009601 52.86521015
v 16.75746272 20.90533406 52.86521015
v 17.36562728 20.45014433 52.86521015
v 17.93878853 19.99765625 52.86521015
v 18.12692491 19.84637834 52.86521015
v 19.18136628 18.88061983 52.86521015
v 20.26643555 17.58799305 52.86521015
v 21.24212204 16.36695016 52.86521015
v 21.43463512 16.11706911 52.86521015
v 21.77153044 15.67538771 52.86521015
v 22.06030005 15.67538771 51.95350750
v 22.10842832 15.67538771 51.78506628
v 22.22218395 15.67538771 51.31566834
v 22.47595025 15.67538771 49.70782005
v 22.51532769 15.67538771 47.98100321
v -0.03922619 15.67538771 47.34728699
v -22.18250400 16.38180933 46.84844185
v -10.22924679 27.67238748 46.84844185
v -8.16411626 25.65442741 52.86521015
v -0.03922619 15.67538771 52.86521015
v -22.17812987 16.38180933 47.98159179
v -20.84804512 20.59737232 46.84844185
v -10.79365721 27.48868955 46.84844185
v -9.17918019 25.30729407 52.86521015
v -21.20244209 16.38180933 52.86521015
v -21.64434477 16.38180933 51.42344749
v -22.07312250 16.38180933 49.70782005
v -20.82616805 20.44879349 47.23126293
v -20.65553204 20.93640066 46.84844185
v -11.64246183 27.15911704 46.84844185
v -9.51170138 25.17627608 52.86521015
v -21.07118353 16.55334718 52.86521015
v -20.14362531 17.71766021 52.86521015
v -19.34732437 18.62668628 52.86521015
v -19.19856543 18.78472094 52.86521015
v -19.24231829 22.38300960 46.84844185
v -13.04255064 26.50537279 46.84844185
v -11.33181643 24.35099140 52.86521015
v -19.04543108 18.93194636 52.86521015
v -18.17912609 19.74507354 52.86521015
v -17.66721806 20.20566661 52.86521015
v -16.98905073 20.79322517 52.86521015
v -16.45526693 21.24166074 52.86521015
v -18.15724901 23.26907407 46.84844185
v -13.03817522 23.47573359 52.86521015
v -14.26325260 25.79625207 46.84844185
v -14.62640040 22.56940662 52.86521015
v -16.15774777 21.48343679 52.86521015
v -14.97204783 22.35734633 52.86521015
v -16.39838783 24.53063682 46.84844185
v -15.15580879 25.27622747 46.84844185
v -14.74890814 22.49646932 52.86521015
f 1 2 3
f 1 3 4
f 1 4 5
f 1 5 10
f 1 10 39
f 1 39 73
f 1 73 78
f 1 78 85
f 1 85 92
f 1 92 100
f 1 100 106
f 1 106 107
f 1 107 102
f 1 102 93
f 1 93 86
f 1 86 79
f 1 79 74
f 1 74 42
f 1 42 41
f 1 41 40
f 1 40 11
f 1 11 7
f 1 7 2
f 2 6 3
f 2 7 8
f 2 8 6
f 3 6 8
f 3 8 12
f 3 12 43
f 3 43 75
f 3 75 80
f 3 80 87
f 3 87 94
f 3 94 101
f 3 101 103
f 3 103 108
f 3 108 105
f 3 105 104
f 3 104 99
f 3 99 98
f 3 98 97
f 3 97 96
f 3 96 95
f 3 95 91
f 3 91 90
f 3 90 89
f 3 89 88
f 3 88 81
f 3 81 76
f 3 76 66
f 3 66 65
f 3 65 64
f 3 64 63
f 3 63 62
f 3 62 61
f 3 61 60
f 3 60 59
f 3 59 58
f 3 58 57
f 3 57 56
f 3 56 55
f 3 55 54
f 3 54 53
f 3 53 52
f 3 52 51
f 3 51 50
f 3 50 49
f 3 49 48
f 3 48 46
f 3 46 47
f 3 47 45
f 3 45 44
f 3 44 13
f 3 13 9
f 3 9 4
f 4 9 10
f 4 10 5
f 7 11 8
f 8 11 12
f 9 13 10
f 10 13 14
f 10 14 15
f 10 15 16
f 10 16 17
f 10 17 18
f 10 18 19
f 10 19 20
f 10 20 21
f 10 21 22
f 10 22 23
f 10 23 24
f 10 24 25
f 10 25 26
f 10 26 27
f 10 27 28
f 10 28 29
f 10 29 30
f 10 30 31
f 10 31 32
f 10 32 33
f 10 33 34
f 10 34 35
f 10 35 36
f 10 36 37
f 10 37 38
f 10 38 39
f 11 40 12
f 12 40 41
f 12 41 42
f 12 42 43
f 13 44 14
f 14 44 45
f 14 45 15
f 15 46 16
f 15 45 47
f 15 47 46
f 16 46 17
f 17 46 48
f 17 48 18
f 18 48 49
f 18 49 19
f 19 49 20
f 20 49 21
f 21 49 50
f 21 50 51
f 21 51 52
f 21 52 22
f 22 52 53
f 22 53 23
f 23 53 54
f 23 54 24
f 24 54 55
f 24 55 25
f 25 55 56
f 25 56 26
f 26 56 27
f 27 56 57
f 27 57 28
f 28 57 58
f 28 58 59
f 28 59 29
f 29 59 60
f 29 60 30
f 30 60 61
f 30 61 31
f 31 61 32
f 32 62 33
f 32 61 62
f 33 62 34
f 34 63 64
f 34 64 65
f 34 65 66
f 34 66 35
f 34 62 63
f 35 66 67
f 35 67 68
f 35 68 69
f 35 69 36
f 36 69 70
f 36 70 71
f 36 71 37
f 37 71 38
f 38 71 70
f 38 70 69
f 38 69 68
f 38 68 67
f 38 67 66
f 38 66 76
f 38 76 72
f 38 72 73
f 38 73 39
f 42 74 75
f 42 75 43
f 72 76 73
f 73 76 77
f 73 77 78
f 74 79 75
f 75 79 80
f 76 81 82
f 76 82 83
f 76 83 77
f 77 83 78
f 78 84 85
f 78 83 84
f 79 86 80
f 80 86 87
f 81 88 85
f 81 85 84
f 81 84 82
f 82 84 83
f 85 89 90
f 85 90 91
f 85 91 92
f 85 88 89
f 86 93 94
f 86 94 87
f 91 95 92
f 92 95 96
f 92 96 97
f 92 97 98
f 92 98 99
f 92 99 100
f 93 101 94
f 93 102 103
f 93 103 101
f 99 104 100
f 100 104 105
f 100 105 106
f 102 107 103
f 103 107 108
f 105 108 106
f 106 108 107

