# https://github.com/mikedh/trimesh
v -16.58373634 10.39126779 3.08568352
v -16.58373634 10.39292224 1.35975823
v -16.44620862 10.40119449 1.35975823
v -16.44620862 10.40036726 3.08568352
v -16.58373634 10.39374946 4.96121684
v -16.58373634 11.05387995 -0.16706192
v -16.44620862 11.05801607 -0.16649585
v -14.71968896 10.86030807 3.08568352
v -14.71968896 10.81977406 4.81217745
v -14.71968896 10.81729110 4.96121684
v -14.71968896 11.32521223 0.03544990
v -14.71968896 10.91076878 1.35975823
v -16.29691193 10.43593792 4.96121684
v -16.44620862 10.40284893 4.96121684
v -16.58373634 14.58781232 4.96121684
v -16.58373634 12.57598633 -0.84002918
v -16.44620862 12.57598633 -0.83888676
v -14.71968896 12.57598633 -0.63694100
v -13.41256324 11.44350666 4.96121684
v -14.60136624 10.87106199 4.96121684
v -13.69814875 11.61226179 0.31703566
v -13.07122433 12.58673896 -0.08059828
v -13.57858712 11.53615583 1.35975823
v -13.49805299 11.48734957 3.08568352
v -13.41875778 11.44598833 4.81217745
v -16.58373634 15.69630376 4.33433230
v -14.44835153 18.84143794 4.96121684
v -16.08009028 18.84143794 4.15684821
v -16.49390977 18.84143794 3.08568352
v -16.58373634 14.30241850 -0.70862009
v -14.07975537 18.84143794 -0.76493827
v -12.99316802 18.84143794 -0.84969857
v -12.99316802 17.75528285 -0.84969857
v -12.99316802 16.02802474 -0.84742403
v -12.99316802 14.30241850 -0.76095524
v -12.54899336 12.07716595 4.96121684
v -12.71563605 12.15327063 1.35975823
v -11.91339659 13.16911032 0.16287596
v -16.58373634 15.89153137 4.20235715
v -10.33865144 18.84143794 4.96121684
v -16.52860175 18.84143794 2.68008610
v -16.58373634 15.94116486 -0.06068828
v -16.17920930 18.84143794 -0.02940040
v -15.74556471 18.84143794 -0.28823040
v -14.71968896 18.84143794 -0.65343918
v -12.23615061 18.84143794 -0.55218070
v -11.09938558 17.88102359 -0.10562858
v -11.15204236 16.08179306 -0.10392010
v -11.60860609 14.30241850 -0.08799313
v -11.79940940 13.01690097 1.35975823
v -11.78392241 12.94079630 4.96121684
v -11.07274714 14.30241850 1.35975823
v -10.35723570 16.69311857 0.39041808
v -16.58373634 18.84143794 1.63224323
v -10.33865144 18.84143794 4.94358396
v -10.25501941 17.75528285 4.96121684
v -16.58373634 18.84143794 1.29377065
v -16.53975192 18.84143794 1.09296217
v -11.23629320 18.84143794 -0.14828919
v -10.35723570 17.38964695 0.39041808
v -11.79073704 12.98215753 3.08568352
v -11.04796771 14.30241850 3.08568352
v -11.02566609 14.30241850 4.81217745
v -11.09133204 14.18164369 4.96121684
v -10.53998547 15.68554855 1.35975823
v -10.52387903 15.62516243 3.08568352
v -10.32068536 16.54835296 1.35975823
v -10.27794112 17.75528285 3.08568352
v -10.34050916 18.84143794 4.81217745
v -10.31387137 16.47390016 4.96121684
v -10.31325191 16.47390016 4.81217745
v -10.30705738 16.48879020 3.08568352
v -10.70476979 18.84143794 0.43934142
v -10.41237029 18.54115407 0.72889323
v -10.33059790 17.88102359 1.32676444
v -10.50777194 15.61027239 4.81217745
v -10.55113627 15.49694131 4.96121684
v -11.02442718 14.30241850 4.96121684
v -10.37396223 18.81331230 3.08568352
v -10.36776705 18.84143794 3.50493337
v -10.50653304 15.61027239 4.96121684
v -10.44210600 18.84143794 0.94904050
v -10.39254713 18.70080973 1.88026656
v -10.41422865 18.84143794 1.76137520
v -10.37829841 18.84143794 3.08568352
f 1 2 3
f 1 3 4
f 1 4 14
f 1 14 5
f 1 5 15
f 1 15 26
f 1 26 39
f 1 39 54
f 1 54 57
f 1 57 42
f 1 42 30
f 1 30 16
f 1 16 6
f 1 6 2
f 2 6 7
f 2 7 3
f 3 8 9
f 3 9 10
f 3 10 4
f 3 7 11
f 3 11 12
f 3 12 8
f 4 10 13
f 4 13 14
f 5 14 13
f 5 13 10
f 5 10 20
f 5 20 19
f 5 19 36
f 5 36 51
f 5 51 64
f 5 64 78
f 5 78 77
f 5 77 81
f 5 81 70
f 5 70 56
f 5 56 40
f 5 40 27
f 5 27 15
f 6 16 17
f 6 17 7
f 7 17 18
f 7 18 11
f 8 12 19
f 8 19 20
f 8 20 9
f 9 20 10
f 11 21 12
f 11 18 22
f 11 22 21
f 12 21 23
f 12 23 24
f 12 24 25
f 12 25 19
f 15 27 28
f 15 28 29
f 15 29 26
f 16 30 31
f 16 31 32
f 16 32 33
f 16 33 34
f 16 34 17
f 17 35 18
f 17 34 35
f 18 35 22
f 19 25 36
f 21 37 23
f 21 22 38
f 21 38 37
f 22 35 38
f 23 37 24
f 24 37 25
f 25 37 36
f 26 29 39
f 27 40 55
f 27 55 69
f 27 69 80
f 27 80 85
f 27 85 84
f 27 84 82
f 27 82 73
f 27 73 59
f 27 59 46
f 27 46 32
f 27 32 31
f 27 31 45
f 27 45 44
f 27 44 43
f 27 43 58
f 27 58 57
f 27 57 54
f 27 54 41
f 27 41 29
f 27 29 28
f 29 41 39
f 30 42 43
f 30 43 44
f 30 44 45
f 30 45 31
f 32 46 47
f 32 47 33
f 33 47 34
f 34 47 48
f 34 48 35
f 35 49 38
f 35 48 49
f 36 37 50
f 36 50 51
f 37 38 50
f 38 52 50
f 38 49 53
f 38 53 52
f 39 41 54
f 40 56 55
f 42 57 58
f 42 58 43
f 46 59 47
f 47 60 53
f 47 53 48
f 47 59 60
f 48 53 49
f 50 52 61
f 50 61 51
f 51 61 52
f 51 52 62
f 51 62 63
f 51 63 64
f 52 53 65
f 52 65 66
f 52 66 62
f 53 60 67
f 53 67 65
f 55 56 68
f 55 68 69
f 56 70 71
f 56 71 72
f 56 72 67
f 56 67 68
f 59 73 60
f 60 73 74
f 60 74 75
f 60 75 67
f 62 66 63
f 63 66 76
f 63 76 77
f 63 77 78
f 63 78 64
f 65 67 66
f 66 67 72
f 66 72 76
f 67 75 68
f 68 75 79
f 68 79 80
f 68 80 69
f 70 81 71
f 71 81 72
f 72 81 76
f 73 82 74
f 74 83 75
f 74 82 83
f 75 83 79
f 76 81 77
f 79 84 85
f 79 85 80
f 79 83 84
f 82 84 83

