# https://github.com/mikedh/trimesh
v -18.78901714 -9.75295197 1.35925392
v -18.78901714 -10.04910647 0.40748233
v -18.78901714 -9.84248715 5.63683431
v -16.44630768 -10.00502749 5.63683431
v -16.44630768 -9.91755876 1.35925392
v -16.44630768 -10.31702276 -0.09285098
v -18.78901714 -10.23506383 -0.12777196
v -18.17311809 -10.25641439 -0.12015583
v -18.78901714 -13.70695563 5.63683431
v -14.88538349 -10.40035922 5.63683431
v -15.13774236 -10.47749696 0.11477085
v -14.91097214 -10.35696916 1.35925392
v -16.44630768 -11.59943932 -0.76525218
v -18.78901714 -11.09873212 -0.56080031
v -18.78901714 -15.67948009 4.29330298
v -13.54328791 -16.78627076 5.63683431
v -14.47331365 -10.60146842 5.63683431
v -14.04800821 -10.86800718 1.35925392
v -12.04324772 -12.39423456 0.37065217
v -12.99356812 -12.04918054 0.07604181
v -14.62508173 -11.48235502 -0.26238188
v -14.02241828 -10.83357073 5.63683431
v -18.17311809 -11.59943932 -0.79318999
v -12.99356812 -13.32539854 -0.59699235
v -14.71949599 -13.32539854 -0.83890220
v -18.78901714 -11.59943932 -0.80080612
v -18.78901714 -16.06861342 4.02472640
v -13.60152556 -16.78902582 5.40000360
v -11.46529165 -16.78902582 5.63683431
v -18.78901714 -16.07894408 4.00948642
v -18.78901714 -16.54796957 3.08565007
v -15.95923570 -16.78902582 4.17520668
v -12.99356812 -11.62147865 1.35925392
v -11.99207042 -12.35291096 1.35925392
v -11.27822822 -13.32539854 1.35925392
v -10.55291423 -14.64776167 1.35925392
v -10.32173129 -15.66295103 0.32747696
v -11.71235654 -13.32539854 0.06588354
v -13.48152137 -11.23165704 5.63683431
v -12.99356812 -11.60494911 3.08565007
v -11.15734148 -15.07270882 -0.14300936
v -11.26675643 -16.77869452 -0.58810515
v -12.99356812 -15.05204685 -0.84906561
v -16.44630768 -13.32539854 -0.84842750
v -18.78901714 -12.71036210 -0.82620694
v -9.79142298 -16.78902582 4.82220707
v -9.77465785 -16.78351571 5.63683431
v -18.78901714 -16.78351571 1.35925392
v -16.37571698 -16.78902582 3.08565007
v -11.99207042 -12.35015590 3.08565007
v -11.25881481 -13.32539854 4.81204880
v -11.26146245 -13.32539854 3.08565007
v -10.51232490 -14.52241268 5.63683431
v -10.53614845 -14.59679536 3.08565007
v -10.22731703 -15.38539205 5.63683431
v -9.85671906 -16.78902582 1.35925392
v -10.13554976 -16.78902582 0.09191732
v -10.13996184 -16.77869452 0.08429605
v -12.99356812 -11.59875056 5.63683431
v -10.13819675 -16.78902582 0.08302498
v -11.26675643 -16.78902582 -0.58937622
v -12.98386142 -16.78902582 -0.84906561
v -12.99356812 -16.77869452 -0.84969857
v -18.78901714 -13.32539854 -0.83319010
v -12.99356812 -16.78902582 -0.84969857
v -9.79142298 -16.78902582 4.81204880
v -18.78901714 -16.32068861 0.12366319
v -14.71949599 -16.78902582 -0.47190774
v -15.94864645 -16.78902582 0.20112642
v -16.36512902 -16.78902582 1.35925392
v -16.37571698 -16.78902582 3.07549180
v -12.47737732 -11.99545949 5.63683431
v -12.01324763 -12.36393054 5.63683431
v -11.64882619 -12.82124784 5.63683431
v -11.25881481 -13.32539854 5.63683431
v -10.89880609 -13.88395921 5.63683431
v -18.78901714 -15.13538299 -0.41349512
f 1 2 7
f 1 7 14
f 1 14 26
f 1 26 45
f 1 45 64
f 1 64 77
f 1 77 67
f 1 67 48
f 1 48 31
f 1 31 30
f 1 30 27
f 1 27 15
f 1 15 9
f 1 9 3
f 1 3 4
f 1 4 5
f 1 5 6
f 1 6 2
f 2 6 8
f 2 8 7
f 3 9 16
f 3 16 29
f 3 29 47
f 3 47 55
f 3 55 53
f 3 53 76
f 3 76 75
f 3 75 74
f 3 74 73
f 3 73 72
f 3 72 59
f 3 59 39
f 3 39 22
f 3 22 17
f 3 17 10
f 3 10 4
f 4 10 5
f 5 11 6
f 5 10 12
f 5 12 11
f 6 11 13
f 6 13 8
f 7 8 13
f 7 13 14
f 9 15 16
f 10 17 12
f 11 12 18
f 11 18 19
f 11 19 20
f 11 20 21
f 11 21 13
f 12 17 22
f 12 22 18
f 13 23 14
f 13 21 24
f 13 24 25
f 13 25 23
f 14 23 26
f 15 27 16
f 16 28 29
f 16 27 30
f 16 30 31
f 16 31 32
f 16 32 28
f 18 22 33
f 18 33 19
f 19 33 34
f 19 34 35
f 19 35 36
f 19 36 37
f 19 37 38
f 19 38 24
f 19 24 20
f 20 24 21
f 22 39 40
f 22 40 33
f 23 25 26
f 24 38 41
f 24 41 42
f 24 42 43
f 24 43 25
f 25 43 44
f 25 44 26
f 26 44 45
f 28 32 49
f 28 49 71
f 28 71 70
f 28 70 69
f 28 69 68
f 28 68 65
f 28 65 62
f 28 62 61
f 28 61 60
f 28 60 57
f 28 57 56
f 28 56 66
f 28 66 46
f 28 46 29
f 29 46 47
f 31 48 32
f 32 48 49
f 33 40 34
f 34 50 51
f 34 51 52
f 34 52 35
f 34 40 39
f 34 39 50
f 35 52 53
f 35 53 54
f 35 54 36
f 36 54 55
f 36 55 56
f 36 56 37
f 37 56 57
f 37 57 58
f 37 58 41
f 37 41 38
f 39 59 50
f 41 58 60
f 41 60 42
f 42 60 61
f 42 61 43
f 43 62 63
f 43 63 44
f 43 61 62
f 44 64 45
f 44 63 65
f 44 65 64
f 46 66 47
f 47 66 56
f 47 56 55
f 48 67 68
f 48 68 69
f 48 69 70
f 48 70 71
f 48 71 49
f 50 59 72
f 50 72 73
f 50 73 74
f 50 74 75
f 50 75 51
f 51 75 76
f 51 76 52
f 52 76 53
f 53 55 54
f 57 60 58
f 62 65 63
f 64 65 77
f 65 68 67
f 65 67 77

