# https://github.com/mikedh/trimesh
v 18.09106993 23.40649887 -1.36501713
v 14.63439237 22.93511199 -0.83202195
v 14.63439237 23.40649887 -0.78115342
v 18.09106993 23.40649887 6.39150514
v 18.09106993 21.20393003 -0.72724358
v 14.63439237 16.91695555 -0.61942906
v 13.74735530 16.91695555 -0.77355788
v 12.90797563 16.91695555 -0.84872597
v 12.90797563 17.75554787 -0.84948244
v 12.90797563 19.48228109 -0.84037396
v 12.90797563 21.20837878 -0.69079938
v 12.98945276 23.40649887 -0.11680576
v 18.09106993 21.82524914 6.39150514
v 12.24923071 23.40649887 6.39150514
v 18.09106993 19.85583417 -0.04316089
v 18.08722584 19.85900927 -0.04847160
v 16.01260538 16.91695555 0.01758288
v 15.41765969 16.91695555 -0.33775067
v 12.00172070 16.91695555 -0.49415404
v 11.01398863 17.88451260 -0.10769728
v 11.27840980 19.48228109 -0.16767429
v 11.59586726 21.20837878 -0.01810486
v 12.83572019 22.92303940 -0.17754438
v 11.90102699 22.33856846 0.24763626
v 12.31764207 23.40649887 1.35994091
v 13.37455354 16.91695555 6.39150514
v 15.97186553 16.91695555 4.16917296
v 18.09106993 19.94096241 4.24130232
v 12.25922302 23.40649887 5.25034926
v 12.25999236 23.40141716 4.81225978
v 11.81877924 22.62889733 6.39150514
v 18.09106993 19.35522040 1.35994091
v 16.41769078 16.91695555 1.35994091
v 16.28932299 16.91695555 0.86414898
v 11.04242947 16.91695555 -0.10769728
v 10.26992378 16.91695555 0.38657914
v 10.26992378 17.39469778 0.38657914
v 10.50359741 19.48228109 1.35994091
v 11.13236282 21.20837878 1.35994091
v 12.31610469 23.40649887 1.43510644
v 10.23917753 16.91695555 6.39150514
v 16.36926404 16.91695555 3.08571954
v 18.09106993 19.43780908 3.08571954
v 12.26306711 23.40649887 4.81225978
v 11.79264512 22.53805184 4.81225978
v 12.28920124 23.40649887 3.08571954
v 11.77880872 22.55456803 6.39150514
v 10.24532639 16.91695555 1.35994091
v 10.32911088 18.51472405 1.35994091
v 10.24532639 17.65135873 1.35994091
v 10.49053034 19.48228109 3.08571954
v 11.07394506 21.20837878 6.39150514
v 11.08778146 21.20837878 4.81225978
v 11.10699803 21.20837878 3.08571954
v 10.23917753 17.56559237 6.39150514
v 11.71808425 22.44085100 6.39150514
v 10.32757350 18.52552557 3.08571954
v 10.24455770 17.66215767 3.08571954
v 10.49514183 19.48228109 4.81225978
v 11.02321290 21.06098868 6.39150514
v 10.24763246 17.63928871 6.39150514
v 10.33679712 18.49375911 4.81225978
v 10.49821658 19.39778581 6.39150514
v 10.51205234 19.48228109 6.39150514
v 10.35293958 18.42896027 6.39150514
f 1 2 3
f 1 3 12
f 1 12 25
f 1 25 40
f 1 40 46
f 1 46 44
f 1 44 29
f 1 29 14
f 1 14 4
f 1 4 13
f 1 13 28
f 1 28 43
f 1 43 32
f 1 32 15
f 1 15 5
f 1 5 6
f 1 6 7
f 1 7 8
f 1 8 9
f 1 9 10
f 1 10 2
f 2 10 11
f 2 11 3
f 3 11 12
f 4 14 31
f 4 31 47
f 4 47 56
f 4 56 52
f 4 52 60
f 4 60 64
f 4 64 63
f 4 63 65
f 4 65 61
f 4 61 55
f 4 55 41
f 4 41 26
f 4 26 13
f 5 15 16
f 5 16 17
f 5 17 18
f 5 18 6
f 6 18 17
f 6 17 34
f 6 34 33
f 6 33 42
f 6 42 27
f 6 27 26
f 6 26 41
f 6 41 48
f 6 48 36
f 6 36 35
f 6 35 19
f 6 19 8
f 6 8 7
f 8 19 9
f 9 19 20
f 9 20 10
f 10 20 21
f 10 21 11
f 11 21 22
f 11 22 23
f 11 23 12
f 12 23 22
f 12 22 24
f 12 24 25
f 13 26 27
f 13 27 28
f 14 29 30
f 14 30 31
f 15 32 33
f 15 33 34
f 15 34 17
f 15 17 16
f 19 35 20
f 20 35 36
f 20 36 37
f 20 37 21
f 21 37 22
f 22 37 38
f 22 38 24
f 24 38 39
f 24 39 25
f 25 39 40
f 27 42 28
f 28 42 43
f 29 44 30
f 30 45 31
f 30 44 46
f 30 46 45
f 31 45 47
f 32 43 42
f 32 42 33
f 36 48 50
f 36 50 37
f 37 49 38
f 37 50 49
f 38 51 52
f 38 52 53
f 38 53 54
f 38 54 39
f 38 49 51
f 39 54 45
f 39 45 40
f 40 45 46
f 41 55 50
f 41 50 48
f 45 54 47
f 47 54 56
f 49 50 57
f 49 57 51
f 50 55 58
f 50 58 57
f 51 59 60
f 51 60 52
f 51 57 59
f 52 56 53
f 53 56 54
f 55 61 57
f 55 57 58
f 57 62 59
f 57 61 62
f 59 63 64
f 59 64 60
f 59 62 63
f 61 65 62
f 62 65 63

