# https://github.com/mikedh/trimesh
v 5.23527066 -53.03889051 -34.74663056
v -2.43994976 -53.03889051 -37.06526302
v -2.43994976 -54.56111782 -37.25925816
v 5.23527066 -54.76447873 -35.11165409
v 5.53889172 -40.61425028 -34.79427768
v -2.62212221 -40.61425028 -37.40220465
v -2.43994976 -54.87307031 -37.38433762
v -2.43994976 -55.36468109 -37.58854764
v 5.23527066 -55.41404184 -35.46476970
v 5.53889172 -40.61425028 -43.35151747
v 5.53889172 -39.22627524 -34.85043633
v -2.62212221 -39.22627524 -37.44900267
v -2.62212221 -40.00022310 -37.42262925
v -2.62212221 -40.20358402 -37.41582105
v 5.23527066 -55.67071051 -35.65961908
v 5.23527066 -55.84247993 -35.90892377
v 5.23527066 -56.14850419 -37.39454735
v 5.23527066 -56.23537437 -38.35603722
v 5.23527066 -56.24327353 -39.11927105
v -2.62212221 -40.61425028 -43.35491385
v -2.43994976 -56.17219653 -40.08161001
v -2.43994976 -55.92342702 -38.34837993
v 5.53889172 -39.22627524 -43.43490378
v 5.23527066 -56.19391278 -40.08161001
v 5.23527066 -56.05175878 -40.61765679
v 5.23527066 -55.86814319 -41.28899791
v 5.23527066 -54.76447873 -42.09987884
v 5.23527066 -53.03889051 -42.61806374
v 5.23527066 -52.64796699 -42.64188472
v 5.53889172 -37.50068702 -35.01635986
v -2.62212221 -37.34471077 -37.87444062
v -2.62212221 -39.23614791 -43.43745621
v -2.43994976 -52.12475957 -42.66911238
v -2.43994976 -53.03889051 -42.61380797
v -2.43994976 -54.76447873 -42.11689677
v -2.43994976 -55.87604235 -41.30771403
v 4.27327133 -39.22627524 -43.43745621
v 5.53889172 -37.50068702 -43.40681673
v 5.23527066 -49.58376190 -42.82482103
v 5.23527066 -46.13455638 -43.02988014
v 5.23527066 -43.64291688 -43.17623331
v -0.90586439 -55.87604235 -41.30516159
v 0.82078055 -55.87406627 -41.30091097
v 2.54662656 -55.87209020 -41.29665520
v 4.27327133 -55.87011927 -41.29155034
v 2.54662656 -54.76447873 -42.10753614
v 0.82078055 -54.76447873 -42.11094281
v -0.90586439 -54.76447873 -42.11434434
v 4.27327133 -53.03889051 -42.61806374
v 2.54662656 -53.03889051 -42.61720950
v 5.53889172 -36.51943124 -35.44434510
v -2.62212221 -36.53325091 -38.74148021
v -2.62212221 -39.22627524 -43.43745621
v -0.90506530 -39.22627524 -43.43830016
v 0.82078055 -39.22627524 -43.43915440
v 0.82078055 -40.61622379 -43.35662233
v 4.27327133 -46.13455638 -43.02988014
v -0.90586439 -46.13455638 -43.02732771
v -2.43994976 -46.13455638 -43.02648376
v 4.27327133 -40.61622379 -43.35576809
v 5.53889172 -36.34963532 -42.99839671
v -2.62212221 -37.50068702 -43.26472448
v 5.53889172 -36.29040448 -36.62961534
v -2.62212221 -36.40886615 -40.09011640
v -2.62212221 -36.50363549 -42.85801294
v 5.53889172 -36.07519997 -41.80803190
v 5.53889172 -36.13443081 -38.33561262
v 5.53889172 -36.09296922 -40.08161001
v -2.62212221 -36.37530115 -41.81313676
f 1 2 3
f 1 3 4
f 1 4 5
f 1 5 2
f 2 5 6
f 2 6 3
f 3 6 7
f 3 7 4
f 4 7 8
f 4 8 9
f 4 9 5
f 5 10 23
f 5 23 38
f 5 38 61
f 5 61 66
f 5 66 68
f 5 68 67
f 5 67 63
f 5 63 51
f 5 51 30
f 5 30 11
f 5 11 12
f 5 12 13
f 5 13 14
f 5 14 6
f 5 9 15
f 5 15 16
f 5 16 17
f 5 17 18
f 5 18 19
f 5 19 10
f 6 14 13
f 6 13 12
f 6 12 31
f 6 31 52
f 6 52 64
f 6 64 69
f 6 69 65
f 6 65 62
f 6 62 53
f 6 53 32
f 6 32 20
f 6 20 21
f 6 21 22
f 6 22 8
f 6 8 7
f 8 15 9
f 8 22 15
f 10 19 24
f 10 24 25
f 10 25 26
f 10 26 27
f 10 27 28
f 10 28 29
f 10 29 23
f 11 30 12
f 12 30 31
f 15 22 16
f 16 22 17
f 17 22 21
f 17 21 18
f 18 21 19
f 19 21 24
f 20 32 33
f 20 33 34
f 20 34 35
f 20 35 36
f 20 36 21
f 21 36 24
f 23 37 38
f 23 29 39
f 23 39 40
f 23 40 41
f 23 41 37
f 24 36 42
f 24 42 25
f 25 42 43
f 25 43 44
f 25 44 45
f 25 45 26
f 26 45 27
f 27 46 28
f 27 45 44
f 27 44 43
f 27 43 42
f 27 42 46
f 28 46 47
f 28 47 48
f 28 48 35
f 28 35 49
f 28 49 29
f 29 49 50
f 29 50 39
f 30 51 31
f 31 51 52
f 32 53 54
f 32 54 55
f 32 55 56
f 32 56 57
f 32 57 58
f 32 58 59
f 32 59 33
f 33 59 58
f 33 58 39
f 33 39 50
f 33 50 34
f 34 50 35
f 35 48 42
f 35 42 36
f 35 50 49
f 37 41 40
f 37 40 60
f 37 60 55
f 37 55 38
f 38 55 54
f 38 54 53
f 38 53 62
f 38 62 61
f 39 58 57
f 39 57 40
f 40 57 55
f 40 55 60
f 42 48 47
f 42 47 46
f 51 63 52
f 52 63 64
f 55 57 56
f 61 65 66
f 61 62 65
f 63 67 64
f 64 67 68
f 64 68 69
f 65 69 66
f 66 69 68

