# https://github.com/mikedh/trimesh
v -17.11689362 -21.92462031 7.79358803
v -17.11689362 -25.72966626 7.79358803
v -17.11689362 -20.17763874 4.38210035
v -21.44399815 -19.74528709 7.79358803
v -27.19472686 -25.72966626 7.79358803
v -17.11689362 -25.72966626 -3.37781573
v -17.11689362 -19.74528709 3.41096939
v -27.19472686 -19.74528709 7.79358803
v -27.19472686 -25.72966626 -3.30144346
v -17.77197713 -25.72966626 -3.52371090
v -25.05682563 -19.74528709 -3.71064053
v -23.83446279 -19.74528709 -3.41770777
v -17.11689362 -25.67401064 -3.35843577
v -17.11689362 -19.74528709 0.87030621
v -27.19472686 -19.74528709 -3.84970177
v -27.19472686 -25.49532881 -3.38009542
v -27.12369359 -25.72966626 -3.32652007
v -19.58332271 -25.72966626 -3.82348273
v -25.56688237 -19.74528709 -3.81778607
v -23.60656302 -19.74528709 -3.31854372
v -17.11689362 -20.15127561 -0.19770654
v -17.11689362 -19.83316332 0.63322334
v -18.55630197 -19.74528709 -0.15211784
v -26.80601614 -19.74528709 -3.84970177
v -27.19472686 -21.57077139 -3.84970177
v -27.19472686 -25.34418211 -3.42454685
v -26.97866810 -25.58496369 -3.42454685
v -26.92144680 -25.72966626 -3.39605327
v -21.30982435 -25.72966626 -3.84970177
v -23.35301542 -25.41213933 -3.84970177
v -25.07951449 -25.41213933 -3.80638761
v -26.80601614 -23.68566213 -3.80638761
v -27.19472686 -23.29666323 -3.80524519
v -26.82180159 -25.72966626 -3.42454685
v -24.76183961 -25.72966626 -3.80638761
v -23.03533796 -25.72966626 -3.84970177
f 1 2 6
f 1 6 13
f 1 13 21
f 1 21 22
f 1 22 14
f 1 14 7
f 1 7 3
f 1 3 4
f 1 4 8
f 1 8 5
f 1 5 2
f 2 5 9
f 2 9 17
f 2 17 28
f 2 28 34
f 2 34 35
f 2 35 36
f 2 36 29
f 2 29 18
f 2 18 10
f 2 10 6
f 3 7 4
f 4 7 14
f 4 14 23
f 4 23 20
f 4 20 12
f 4 12 11
f 4 11 19
f 4 19 24
f 4 24 15
f 4 15 8
f 5 8 15
f 5 15 25
f 5 25 33
f 5 33 26
f 5 26 16
f 5 16 9
f 6 10 11
f 6 11 12
f 6 12 13
f 9 16 17
f 10 18 19
f 10 19 11
f 12 20 13
f 13 20 21
f 14 22 23
f 15 24 29
f 15 29 36
f 15 36 30
f 15 30 25
f 16 26 27
f 16 27 17
f 17 27 28
f 18 29 24
f 18 24 19
f 20 23 21
f 21 23 22
f 25 30 31
f 25 31 32
f 25 32 33
f 26 33 27
f 27 34 28
f 27 33 32
f 27 32 31
f 27 31 35
f 27 35 34
f 30 36 35
f 30 35 31

