# https://github.com/mikedh/trimesh
v -18.78901714 -9.49639909 7.79451688
v -18.78901714 -9.84261323 5.63683431
v -18.78901714 -13.47036678 7.79451688
v -16.44610699 -9.60989999 7.79451688
v -18.67293937 -9.85046543 5.63683431
v -18.78901714 -13.70736281 5.63683431
v -13.34080053 -16.78902582 7.79451688
v -14.65479878 -9.99751717 7.79451688
v -16.44610699 -10.00465568 5.63683431
v -13.54323902 -16.78688443 5.63683431
v -13.32222721 -16.78902582 6.56644451
v -9.30222890 -16.78902582 7.79451688
v -14.47278875 -10.60142902 5.63683431
v -14.88509660 -10.40012507 5.63683431
v -11.52627471 -11.85636609 7.79451688
v -14.02333556 -10.83342825 5.63683431
v -11.46591432 -16.78902582 5.63683431
v -13.32129835 -16.78902582 6.53940726
v -9.75353853 -16.78902582 6.53940726
v -9.77489714 -16.78331501 5.63683431
v -9.67739140 -15.02583232 7.79451688
v -10.51222133 -14.52257220 5.63683431
v -10.89852821 -13.88368229 5.63683431
v -11.25883283 -13.32545644 5.63683431
v -11.64885321 -12.82148295 5.63683431
v -12.01380083 -12.36390899 5.63683431
v -12.47718305 -11.99556563 5.63683431
v -12.99349608 -11.59866854 5.63683431
v -13.48194977 -11.23103919 5.63683431
v -10.22713499 -15.38560947 5.63683431
f 1 2 6
f 1 6 3
f 1 3 7
f 1 7 12
f 1 12 21
f 1 21 15
f 1 15 8
f 1 8 4
f 1 4 2
f 2 5 9
f 2 9 14
f 2 14 13
f 2 13 16
f 2 16 29
f 2 29 28
f 2 28 27
f 2 27 26
f 2 26 25
f 2 25 24
f 2 24 23
f 2 23 22
f 2 22 30
f 2 30 20
f 2 20 17
f 2 17 10
f 2 10 6
f 2 4 5
f 3 6 7
f 4 8 9
f 4 9 5
f 6 10 7
f 7 10 11
f 7 11 18
f 7 18 17
f 7 17 19
f 7 19 12
f 8 13 14
f 8 14 9
f 8 15 16
f 8 16 13
f 10 17 18
f 10 18 11
f 12 19 20
f 12 20 21
f 15 21 22
f 15 22 23
f 15 23 24
f 15 24 25
f 15 25 26
f 15 26 27
f 15 27 28
f 15 28 29
f 15 29 16
f 17 20 19
f 20 30 21
f 21 30 22

