# https://github.com/mikedh/trimesh
v -25.82107322 28.33938792 9.09915193
v -25.82107322 28.33301713 8.82878709
v -26.46021304 27.75316990 9.09915193
v -25.82107322 7.85141125 9.09915193
v -25.82107322 28.27566974 6.54193653
v -26.44696458 27.74467380 8.26602469
v -26.90703533 27.30500707 9.09915193
v -26.18113598 7.46059838 9.09915193
v -25.82107322 9.78636324 6.54193653
v -26.41918372 27.72343355 6.54193653
v -27.32351147 26.88658316 9.09915193
v -26.88780203 6.80216094 9.09915193
v -28.00389674 6.64286293 8.79624358
v -28.00389674 9.10031476 6.54193653
v -27.28333896 26.84410266 6.54193653
v -27.31004945 26.87596175 8.26602469
v -28.00389674 26.05610356 6.54193653
v -28.00389674 26.09433601 8.26602469
v -28.00389674 26.10070680 9.02280024
v -28.00389674 26.10070680 9.09915193
v -27.71498818 6.64286293 9.09915193
v -28.00389674 6.64286293 9.09915193
f 1 2 3
f 1 3 7
f 1 7 11
f 1 11 20
f 1 20 22
f 1 22 21
f 1 21 12
f 1 12 8
f 1 8 4
f 1 4 9
f 1 9 5
f 1 5 2
f 2 5 6
f 2 6 3
f 3 6 7
f 4 8 9
f 5 10 6
f 5 9 14
f 5 14 17
f 5 17 15
f 5 15 10
f 6 10 11
f 6 11 7
f 8 12 9
f 9 12 13
f 9 13 14
f 10 15 16
f 10 16 11
f 11 16 17
f 11 17 18
f 11 18 19
f 11 19 20
f 12 21 13
f 13 21 22
f 13 22 20
f 13 20 19
f 13 19 18
f 13 18 17
f 13 17 14
f 15 17 16

