# https://github.com/mikedh/trimesh
v 7.72851057 -56.29193441 -38.35364432
v 6.00137596 -56.28579519 -38.35364432
v 7.72851057 -56.20292863 -40.08003018
v 9.45449826 -56.11238419 -40.08003018
v 9.45449826 -56.18911668 -38.35364432
v 9.45449826 -56.17530473 -26.26894329
v 9.45449826 -56.17069903 -22.81617672
v 9.45449826 -56.16763199 -20.97148357
v 5.23592806 -56.23668661 -38.35364432
v 5.23592806 -56.24282582 -39.11825213
v 5.23592806 -56.19371723 -40.08003018
v 6.00137596 -56.19678941 -40.08003018
v 5.23592806 -56.05253583 -40.61678711
v 5.23592806 -55.86991857 -41.28937871
v 6.00137596 -55.86991857 -41.28718650
v 7.72851057 -55.86838505 -41.28061502
v 9.45449826 -55.83001624 -41.23460949
v 10.94867133 -55.82541568 -40.08003018
v 10.68701873 -55.73794342 -41.10753850
v 11.02785462 -55.85764014 -38.35364432
v 11.03014975 -55.85917366 -36.62725846
v 11.02785462 -55.86070717 -34.90087260
v 11.02441192 -55.86224584 -33.17448674
v 11.00260818 -55.87145209 -22.81617672
v 10.99916549 -55.87145209 -20.97148357
v 9.55892991 -56.14768083 -20.97148357
v 7.84441852 -55.97580334 -20.97148357
v 5.23592806 -56.14921434 -37.39186627
v 7.72851057 -55.96199139 -20.97148357
v 6.82879367 -55.66581663 -20.97148357
v 7.72851057 -54.76653714 -42.09342057
v 5.23592806 -54.76653714 -42.09999205
v 9.45449826 -54.76653714 -42.04303062
v 11.81051729 -55.54458125 -40.08003018
v 11.22868497 -54.89390660 -41.65525134
v 12.90762055 -54.36753436 -41.42521339
v 13.90488307 -54.02225102 -41.10096702
v 11.88970186 -55.57527219 -38.35364432
v 11.89199699 -55.57527219 -36.62725846
v 11.88970186 -55.57527219 -34.90087260
v 11.88625917 -55.57373867 -33.17448674
v 11.88281518 -55.57220515 -31.45029308
v 11.80363189 -55.58294492 -20.97148357
v 5.23592806 -55.84382819 -35.90866132
v 6.80354724 -55.60596312 -20.97148357
v 6.00137596 -53.03856630 -42.61922159
v 11.18048595 -53.03856630 -42.55787574
v 5.23592806 -53.03856630 -42.61922159
v 12.90762055 -54.88623386 -40.08003018
v 12.90762055 -53.03856630 -42.22925010
v 15.50693049 -52.19146245 -40.96075307
v 14.00013356 -54.10818976 -40.08003018
v 14.54179980 -52.87589507 -41.35510384
v 12.90762055 -54.94454870 -38.35364432
v 12.90762055 -54.94915440 -36.62725846
v 12.90762055 -54.95222144 -34.90087260
v 12.90762055 -54.95682714 -31.45029308
v 12.90762055 -54.95836065 -29.72390722
v 12.90762055 -54.95989417 -27.99533430
v 12.90762055 -54.95682714 -24.54256258
v 12.90762055 -54.95222144 -20.97148357
v 11.86215901 -55.56146023 -21.08979085
v 11.86101144 -55.56146023 -20.97148357
v 5.23592806 -55.67195070 -35.65890893
v 6.46730032 -54.76653714 -20.97148357
v 6.44779172 -54.64990232 -20.97148357
v 6.18269642 -53.03856630 -20.97148357
v 7.69637810 -52.86822233 -42.63017750
v 9.28694923 -52.86822233 -42.62360087
v 11.18048595 -51.89067941 -42.65427637
v 12.90762055 -50.79803776 -42.69809484
v 13.82799363 -50.58626308 -42.68713379
v 12.90762055 -51.66202318 -42.61265011
v 6.00137596 -52.16997776 -42.67179861
v 5.23592806 -50.54482722 -42.76819409
v 14.49589591 -51.22158969 -42.15914570
v 15.68021799 -51.31213156 -41.21488989
v 16.32631525 -49.58569938 -40.08003018
v 15.87416167 -51.31213156 -40.08003018
v 15.52070128 -52.21448065 -40.08003018
v 14.86427593 -53.07846350 -40.08003018
v 14.03226668 -54.13580852 -38.35364432
v 14.04948144 -54.15115399 -31.45029308
v 14.05407170 -54.15422617 -29.72390722
v 14.05636683 -54.15729320 -27.99533430
v 14.05636683 -54.15729320 -24.54256258
v 14.05521927 -54.15729320 -22.81617672
v 14.05407170 -54.15575968 -20.97148357
v 5.23592806 -55.41567313 -35.46392061
v 6.65665438 -40.61438151 -20.97148357
v 5.23592806 -40.61438151 -35.23169045
v 5.23592806 -51.87226434 -34.78914194
v 5.23592806 -53.03856630 -34.74532347
v 5.23592806 -54.76653714 -35.10900388
v 7.10077436 -52.17458089 -42.67179861
v 8.25181577 -52.17765049 -42.67179861
v 8.59953769 -52.17765049 -42.67179861
v 12.90762055 -47.86079815 -42.88430917
v 12.90762055 -49.58569938 -42.77915514
v 15.48397790 -45.23815353 -42.66741934
v 14.82755256 -49.58569938 -42.39575513
v 12.90762055 -46.13436597 -42.98508907
v 12.90762055 -44.40793123 -43.08367676
v 12.90762055 -42.67996296 -43.18226446
v 12.90762055 -40.61438151 -43.29837954
v 14.63360760 -40.61438151 -43.17350591
v 14.63360760 -40.95353078 -43.15159410
v 5.23592806 -49.58569938 -42.82516067
v 15.91088504 -49.58569938 -41.53255963
v 15.89137515 -51.31213156 -38.35364432
v 16.50075031 -47.86079815 -40.08003018
v 16.33664334 -49.58569938 -36.62725846
v 15.94531329 -51.31213156 -26.26894329
v 15.93957546 -51.31213156 -27.99533430
v 15.93154122 -51.31213156 -29.72390722
v 15.92350826 -51.31213156 -31.45029308
v 15.53332449 -52.23443182 -38.35364432
v 14.89526020 -53.09688115 -38.35364432
v 14.90444072 -53.11069310 -34.90087260
v 14.90903098 -53.11683231 -33.17448674
v 14.91706522 -53.12910560 -29.72390722
v 14.91936035 -53.13524482 -27.99533430
v 14.92050792 -53.13831700 -26.26894329
v 14.91936035 -53.13985052 -24.54256258
v 14.91936035 -53.13985052 -22.81617672
v 14.85968567 -53.20890513 -20.97148357
v 16.95978929 -40.61438151 -20.97148357
v 5.23592806 -40.61438151 -43.35315391
v 5.23592806 -45.36859516 -43.07491822
v 9.45449826 -40.61438151 -43.34001094
v 10.84309147 -40.61438151 -43.33343431
v 11.18048595 -40.95353078 -43.31152250
v 15.56431004 -44.08719960 -42.72218856
v 11.18048595 -40.61438151 -43.33124210
v 12.56793223 -40.61438151 -43.30495617
v 15.53447206 -40.61438151 -42.94127575
v 15.65152758 -42.67996296 -42.78572148
v 15.99925014 -47.86079815 -41.65305913
v 16.49616005 -40.61438151 -41.80860825
v 16.86109610 -40.61438151 -40.41961172
v 16.71075990 -44.40793123 -40.08003018
v 16.50304545 -47.86079815 -36.62725846
v 16.38025210 -49.58569938 -20.97148357
v 16.37566184 -49.58569938 -22.81617672
v 16.35615195 -49.58569938 -29.72390722
v 15.55398196 -52.27126197 -27.99533430
v 15.95908407 -51.31213156 -21.08979085
v 15.55053926 -52.26512276 -29.72390722
v 15.54709656 -52.25898354 -31.45029308
v 15.55627709 -52.27432901 -26.26894329
v 15.55627709 -52.27586767 -24.54256258
v 15.55627709 -52.27740119 -21.08979085
v 15.55627709 -52.27740119 -20.97148357
v 14.91821279 -53.13985052 -20.97148357
v 16.50993084 -47.86079815 -20.97148357
v 16.50993084 -47.86079815 -21.08979085
v 16.50878327 -47.86079815 -24.54256258
v 16.50648814 -47.86079815 -29.72390722
v 16.94028068 -40.61438151 -40.08003018
v 15.77432092 -40.61438151 -42.87335841
v 15.75481102 -40.95353078 -42.86021545
v 16.50189788 -47.97743041 -20.97148357
v 15.95908407 -51.31213156 -20.97148357
f 1 2 12
f 1 12 3
f 1 3 4
f 1 4 5
f 1 5 6
f 1 6 7
f 1 7 8
f 1 8 2
f 2 9 10
f 2 10 11
f 2 11 12
f 2 8 9
f 3 13 14
f 3 14 15
f 3 15 16
f 3 16 17
f 3 17 4
f 3 12 13
f 4 18 5
f 4 17 19
f 4 19 18
f 5 18 20
f 5 20 21
f 5 21 22
f 5 22 23
f 5 23 24
f 5 24 25
f 5 25 6
f 6 25 7
f 7 25 26
f 7 26 8
f 8 26 25
f 8 25 43
f 8 43 63
f 8 63 61
f 8 61 88
f 8 88 126
f 8 126 154
f 8 154 153
f 8 153 163
f 8 163 143
f 8 143 162
f 8 162 155
f 8 155 127
f 8 127 90
f 8 90 67
f 8 67 66
f 8 66 65
f 8 65 45
f 8 45 30
f 8 30 29
f 8 29 27
f 8 27 9
f 9 28 44
f 9 44 64
f 9 64 89
f 9 89 94
f 9 94 93
f 9 93 92
f 9 92 91
f 9 91 128
f 9 128 129
f 9 129 108
f 9 108 75
f 9 75 48
f 9 48 32
f 9 32 14
f 9 14 13
f 9 13 11
f 9 11 10
f 9 27 29
f 9 29 30
f 9 30 28
f 11 13 12
f 14 31 15
f 14 32 31
f 15 31 16
f 16 31 33
f 16 33 17
f 17 33 19
f 18 34 20
f 18 19 34
f 19 33 35
f 19 35 36
f 19 36 37
f 19 37 34
f 20 38 21
f 20 34 38
f 21 38 22
f 22 38 39
f 22 39 23
f 23 39 24
f 24 39 40
f 24 40 25
f 25 40 41
f 25 41 42
f 25 42 43
f 28 30 44
f 30 45 44
f 31 32 46
f 31 46 47
f 31 47 33
f 32 48 46
f 33 47 35
f 34 37 49
f 34 49 38
f 35 47 50
f 35 50 36
f 36 50 37
f 37 51 52
f 37 52 49
f 37 50 53
f 37 53 51
f 38 49 54
f 38 54 55
f 38 55 56
f 38 56 57
f 38 57 58
f 38 58 59
f 38 59 39
f 39 59 40
f 40 59 60
f 40 60 61
f 40 61 41
f 41 61 42
f 42 61 62
f 42 62 43
f 43 62 63
f 44 45 65
f 44 65 66
f 44 66 67
f 44 67 64
f 46 48 68
f 46 68 69
f 46 69 47
f 47 69 70
f 47 70 71
f 47 71 72
f 47 72 73
f 47 73 50
f 48 74 68
f 48 75 74
f 49 52 54
f 50 73 72
f 50 72 76
f 50 76 53
f 51 53 76
f 51 76 77
f 51 77 78
f 51 78 79
f 51 79 80
f 51 80 81
f 51 81 52
f 52 81 82
f 52 82 54
f 54 82 83
f 54 83 84
f 54 84 85
f 54 85 55
f 55 85 56
f 56 85 57
f 57 85 58
f 58 85 59
f 59 85 86
f 59 86 87
f 59 87 60
f 60 87 88
f 60 88 61
f 61 63 62
f 64 67 89
f 67 90 91
f 67 91 92
f 67 92 93
f 67 93 94
f 67 94 89
f 68 74 95
f 68 95 96
f 68 96 97
f 68 97 69
f 69 97 98
f 69 98 99
f 69 99 71
f 69 71 70
f 71 99 72
f 72 100 101
f 72 101 76
f 72 99 98
f 72 98 102
f 72 102 103
f 72 103 104
f 72 104 105
f 72 105 106
f 72 106 107
f 72 107 100
f 74 75 95
f 75 108 95
f 76 101 77
f 77 101 109
f 77 109 78
f 78 110 79
f 78 109 111
f 78 111 112
f 78 112 113
f 78 113 114
f 78 114 115
f 78 115 116
f 78 116 110
f 79 110 117
f 79 117 80
f 80 117 118
f 80 118 81
f 81 118 82
f 82 118 119
f 82 119 120
f 82 120 121
f 82 121 83
f 83 121 122
f 83 122 84
f 84 122 85
f 85 122 123
f 85 123 124
f 85 124 125
f 85 125 86
f 86 125 126
f 86 126 87
f 87 126 88
f 90 127 159
f 90 159 140
f 90 140 139
f 90 139 160
f 90 160 136
f 90 136 106
f 90 106 105
f 90 105 135
f 90 135 134
f 90 134 131
f 90 131 130
f 90 130 128
f 90 128 91
f 95 108 96
f 96 108 129
f 96 129 97
f 97 129 128
f 97 128 130
f 97 130 131
f 97 131 132
f 97 132 98
f 98 132 102
f 100 133 109
f 100 109 101
f 100 107 133
f 102 132 134
f 102 134 103
f 103 134 104
f 104 134 135
f 104 135 105
f 106 136 137
f 106 137 133
f 106 133 107
f 109 133 138
f 109 138 139
f 109 139 111
f 110 116 117
f 111 139 140
f 111 140 141
f 111 141 127
f 111 127 142
f 111 142 143
f 111 143 144
f 111 144 145
f 111 145 112
f 112 145 113
f 113 146 114
f 113 145 144
f 113 144 147
f 113 147 146
f 114 146 148
f 114 148 149
f 114 149 117
f 114 117 115
f 115 117 116
f 117 120 119
f 117 119 118
f 117 149 121
f 117 121 120
f 121 149 148
f 121 148 146
f 121 146 122
f 122 146 150
f 122 150 123
f 123 150 151
f 123 151 152
f 123 152 153
f 123 153 125
f 123 125 124
f 125 153 154
f 125 154 126
f 127 155 156
f 127 156 157
f 127 157 158
f 127 158 142
f 127 141 159
f 131 134 132
f 133 137 138
f 136 160 161
f 136 161 137
f 137 161 138
f 138 161 160
f 138 160 139
f 140 159 141
f 142 158 143
f 143 158 162
f 143 163 147
f 143 147 144
f 146 147 150
f 147 163 153
f 147 153 152
f 147 152 151
f 147 151 150
f 155 162 156
f 156 162 157
f 157 162 158

