# https://github.com/mikedh/trimesh
v 21.81097735 -31.56483879 28.04731214
v 22.20104919 -31.33443033 27.25928217
v 21.81097735 -31.55307239 28.98662519
v 21.81097735 -31.32070329 9.42136046
v 23.26836465 -30.47358399 22.07951220
v 23.26836465 -30.50103550 23.80459612
v 23.26836465 -30.52358670 25.53193914
v 23.26836465 -30.54319695 27.25928217
v 22.21142102 -31.30599593 28.98662519
v 21.81097735 -31.49816680 29.66175765
v 21.81097735 -21.54941150 9.42136046
v 22.03632469 -31.12363083 9.42136046
v 24.05608844 -29.65881909 15.17465576
v 24.14503247 -29.74215780 19.17576812
v 24.16098517 -29.75686516 20.35442572
v 23.26836465 -30.43926767 20.35442572
v 24.17773808 -29.77059220 22.07951220
v 24.19289314 -29.78333764 23.80459612
v 24.20685175 -29.79314212 25.53193914
v 24.21762240 -29.80098596 27.25928217
v 24.22599757 -29.80686916 28.98662519
v 23.26836465 -30.52064575 28.98662519
v 24.19648250 -29.78137700 29.92593952
v 21.81097735 -30.87165020 31.07298632
v 25.88560079 -21.54941150 9.42136046
v 21.81097735 -21.54941150 32.33518718
v 22.96324609 -30.25984224 9.42136046
v 24.90443764 -28.79503179 15.17465576
v 23.24922141 -29.98825394 9.42136046
v 24.73293324 -28.57540813 9.42136046
v 25.88560079 -27.47728980 9.42136046
v 25.88560079 -27.78907634 15.17465576
v 25.88560079 -28.24597199 27.05154970
v 25.88560079 -28.30970174 28.71566985
v 25.88560079 -28.31656526 28.98662519
v 25.08910302 -29.04308857 28.98662519
v 25.88560079 -28.23616751 29.89206962
v 25.88560079 -28.19008607 30.02754793
v 21.81097735 -30.64810654 31.49296690
v 25.88560079 -21.54941150 32.44582817
v 21.81097735 -28.86562506 32.48872935
v 25.88560079 -27.75966290 30.25108644
v 25.88560079 -26.24876973 30.91718504
v 25.88560079 -27.07824071 30.55365386
f 1 2 3
f 1 3 10
f 1 10 24
f 1 24 39
f 1 39 41
f 1 41 26
f 1 26 11
f 1 11 4
f 1 4 2
f 2 5 6
f 2 6 7
f 2 7 8
f 2 8 9
f 2 9 3
f 2 4 5
f 3 9 10
f 4 11 25
f 4 25 31
f 4 31 30
f 4 30 29
f 4 29 27
f 4 27 12
f 4 12 13
f 4 13 14
f 4 14 15
f 4 15 16
f 4 16 5
f 5 16 15
f 5 15 6
f 6 15 17
f 6 17 18
f 6 18 7
f 7 19 8
f 7 18 19
f 8 20 21
f 8 21 22
f 8 22 9
f 8 19 20
f 9 22 23
f 9 23 10
f 10 23 24
f 11 26 40
f 11 40 25
f 12 27 13
f 13 28 14
f 13 27 29
f 13 29 30
f 13 30 31
f 13 31 28
f 14 28 32
f 14 32 33
f 14 33 34
f 14 34 15
f 15 34 35
f 15 35 17
f 17 35 18
f 18 35 36
f 18 36 19
f 19 36 20
f 20 36 21
f 21 36 23
f 21 23 22
f 23 36 35
f 23 35 37
f 23 37 38
f 23 38 39
f 23 39 24
f 25 40 43
f 25 43 44
f 25 44 42
f 25 42 38
f 25 38 37
f 25 37 35
f 25 35 34
f 25 34 33
f 25 33 32
f 25 32 31
f 26 41 40
f 28 31 32
f 38 42 41
f 38 41 39
f 40 41 43
f 41 42 44
f 41 44 43

