# https://github.com/mikedh/trimesh
v 4.27369909 -32.31931149 -3.82334893
v 7.39593278 -30.56752996 -3.56794619
v 5.99962374 -32.31931149 -3.78670918
v 6.76467475 -33.08332237 -3.78994089
v -5.02975466 -32.31931149 -3.71342968
v 7.39593278 -29.55704986 -3.15736484
v 7.39593278 -32.31931149 -3.74791324
v -5.02975466 -31.67167815 -3.56687067
v -5.02975466 -30.83292115 -3.33948808
v 7.39593278 -33.08332237 -3.77270168
v -5.02975466 -33.08332237 -3.56363896
v 7.39593278 -29.46196276 -3.01511820
v -1.52073857 -28.25090060 -0.78008819
v -5.02975466 -28.25090060 0.41177927
v -4.47755578 -28.25090060 -0.15290518
v -2.63243374 -28.25090060 -0.61844616
v 7.39593278 -33.08332237 7.18583129
v -5.02975466 -33.08332237 7.18583129
v 7.39593278 -28.25090060 -1.09260675
v 4.27126630 -28.25090060 -1.04195950
v -5.02975466 -28.25090060 7.18583129
v 7.39593278 -28.25090060 7.18583129
f 1 2 3
f 1 3 4
f 1 4 5
f 1 5 2
f 2 6 12
f 2 12 19
f 2 19 22
f 2 22 17
f 2 17 10
f 2 10 7
f 2 7 3
f 2 5 8
f 2 8 9
f 2 9 6
f 3 7 10
f 3 10 4
f 4 10 17
f 4 17 18
f 4 18 11
f 4 11 5
f 5 11 18
f 5 18 21
f 5 21 14
f 5 14 9
f 5 9 8
f 6 9 13
f 6 13 12
f 9 14 15
f 9 15 16
f 9 16 13
f 12 13 20
f 12 20 19
f 13 16 15
f 13 15 14
f 13 14 21
f 13 21 22
f 13 22 19
f 13 19 20
f 17 22 21
f 17 21 18

