# https://github.com/mikedh/trimesh
v 16.36542896 -13.81547806 9.42136046
v 16.36542896 -13.51867516 7.18867704
v 20.85607054 -15.20350360 9.42136046
v 16.36542896 -9.23623048 9.42136046
v 17.00763967 -13.43328512 7.18583129
v 20.85607054 -14.62991973 7.18583129
v 16.36542896 -11.68956710 7.18583129
v 20.85607054 -9.86575912 9.42136046
v 17.86304151 -9.18852998 9.42136046
v 16.36542896 -9.22327470 9.42114176
v 20.85607054 -10.93931479 7.18583129
v 16.36542896 -10.33451959 7.18583129
v 20.85607054 -9.72147997 9.41982952
v 19.81429098 -9.27333080 9.42136046
v 18.08810195 -9.18794108 9.42136046
v 18.08810195 -10.17551796 7.18583129
v 17.44149524 -10.22380736 7.18583129
v 19.69516805 -10.43109840 7.18583129
v 19.01954929 -10.31803057 7.18583129
f 1 2 3
f 1 3 8
f 1 8 14
f 1 14 15
f 1 15 9
f 1 9 4
f 1 4 10
f 1 10 12
f 1 12 7
f 1 7 2
f 2 5 6
f 2 6 3
f 2 7 5
f 3 6 11
f 3 11 13
f 3 13 8
f 4 9 10
f 5 7 12
f 5 12 17
f 5 17 16
f 5 16 19
f 5 19 18
f 5 18 11
f 5 11 6
f 8 13 14
f 9 15 16
f 9 16 10
f 10 16 17
f 10 17 12
f 11 18 13
f 13 18 14
f 14 18 19
f 14 19 16
f 14 16 15

