# https://github.com/mikedh/trimesh
v -22.33490118 16.38113778 38.46450822
v -22.18028606 16.38113778 46.84840518
v -21.70319223 18.58075022 38.46450822
v -0.03956138 16.38113778 38.46450822
v -0.03956138 15.67538771 38.71579928
v -0.03956138 15.67538771 47.34576988
v -21.12891172 19.42029198 46.84840518
v -21.20842693 19.42029198 46.28582691
v -21.21284480 19.42029198 46.25278520
v -21.69435649 18.61085451 38.46450822
v -0.03956138 19.94667708 47.34576988
v -0.03956138 19.42029198 38.46450822
v 22.79471866 15.67998569 38.71579928
v 22.77704719 15.67538771 38.71579928
v 22.50757777 15.67538771 47.34576988
v -21.36304205 19.42029198 38.46450822
v 20.92167988 19.94667708 47.34576988
v -0.03956138 19.94667708 38.71579928
v 21.19115059 19.94667708 38.71579928
v 22.78588293 15.67538771 38.72884190
v 21.14697447 19.94667708 44.06246826
v 21.11605196 19.94667708 45.78846254
v 21.50921271 18.38884437 47.34576988
v 21.07187585 19.94667708 46.21626542
v 20.97027258 19.94667708 46.98231138
f 1 2 3
f 1 3 10
f 1 10 16
f 1 16 12
f 1 12 4
f 1 4 14
f 1 14 5
f 1 5 6
f 1 6 2
f 2 7 8
f 2 8 9
f 2 9 10
f 2 10 3
f 2 6 11
f 2 11 7
f 4 12 13
f 4 13 14
f 5 14 20
f 5 20 15
f 5 15 6
f 6 15 23
f 6 23 17
f 6 17 11
f 7 11 8
f 8 11 9
f 9 16 10
f 9 11 16
f 11 17 25
f 11 25 24
f 11 24 22
f 11 22 21
f 11 21 19
f 11 19 18
f 11 18 16
f 12 16 18
f 12 18 19
f 12 19 13
f 13 20 14
f 13 19 21
f 13 21 22
f 13 22 15
f 13 15 20
f 15 22 24
f 15 24 23
f 17 23 25
f 23 24 25

