# https://github.com/mikedh/trimesh
v -27.19571232 -17.12941915 -3.76794675
v -27.19571232 -16.38971749 -3.73512021
v -26.90865633 -17.12941915 -3.74530935
v -27.19571232 -17.12941915 7.79472530
v -27.19571232 -14.64299258 -3.39214743
v -26.80667483 -16.77824810 -3.70795430
v -26.80667483 -17.12941915 -3.73625233
v -23.33706786 -17.12941915 7.79472530
v -27.19571232 -8.64817211 7.79472530
v -26.42632642 -17.12941915 -3.65588674
v -27.19571232 -14.09672579 -3.26989828
v -26.79912046 -15.13861727 -3.36384939
v -23.33706786 -9.21685406 7.79472530
v -23.33706786 -17.12941915 -1.25506185
v -27.19571232 -9.14296668 1.35969905
v -23.33706786 -9.43685499 1.35969905
v -25.43371334 -17.12941915 -3.30272482
v -25.55004713 -16.77824810 -3.26197339
v -27.19571232 -13.78208288 -3.05822652
v -23.33706786 -10.07776376 -0.17066928
v -23.33706786 -10.09104664 -0.17746205
v -23.33706786 -11.59950670 -0.84417174
v -25.15572209 -17.12941915 -3.12501173
v -23.33706786 -9.44266615 1.34498397
v -27.19571232 -9.88183822 -0.30763609
f 1 2 3
f 1 3 7
f 1 7 10
f 1 10 17
f 1 17 23
f 1 23 14
f 1 14 8
f 1 8 4
f 1 4 9
f 1 9 15
f 1 15 25
f 1 25 19
f 1 19 11
f 1 11 5
f 1 5 2
f 2 5 6
f 2 6 7
f 2 7 3
f 4 8 13
f 4 13 9
f 5 10 6
f 5 11 12
f 5 12 10
f 6 10 7
f 8 14 22
f 8 22 21
f 8 21 20
f 8 20 24
f 8 24 16
f 8 16 13
f 9 13 16
f 9 16 15
f 10 12 17
f 11 18 17
f 11 17 12
f 11 19 20
f 11 20 21
f 11 21 22
f 11 22 18
f 14 23 22
f 15 16 24
f 15 24 20
f 15 20 25
f 17 18 22
f 17 22 23
f 19 25 20

