# https://github.com/mikedh/trimesh
v -20.76958228 18.84226388 4.96094410
v -20.37686795 18.84226388 4.71183753
v -25.82019325 18.84226388 4.96094410
v -19.00936897 14.70981704 4.96094410
v -20.28952434 18.84226388 4.64703612
v -25.82019325 18.84226388 -3.63578119
v -25.82019325 9.80115294 4.96094410
v -19.00936897 10.24457884 4.96094410
v -19.00936897 15.82147843 4.32050491
v -19.25339898 18.84226388 3.08590737
v -19.96881844 18.84226388 4.40887001
v -25.06276930 18.84226388 -3.62820623
v -25.82019325 17.75626832 -3.59285814
v -25.82019325 9.80380829 3.08590737
v -19.00936897 10.24103837 3.08590737
v -19.00936897 16.55078703 3.08590737
v -19.02137080 18.84226388 1.35898890
v -19.04670730 18.84226388 1.56770169
v -23.76861158 18.84226388 -3.21246341
v -19.00936897 12.57588598 -0.84931262
v -25.03476459 17.75715344 -3.42791235
v -25.82019325 16.27641087 -3.30083108
v -25.82019325 9.81000411 1.35898890
v -19.00936897 10.24546396 1.35898890
v -19.00936897 16.73576889 1.35898890
v -19.84613702 18.84226388 -0.23580262
v -19.00936897 16.67381323 1.19488192
v -19.00936897 15.96132187 -0.14827890
v -19.00936897 14.30267838 -0.75589669
v -19.00936897 13.41140097 -0.83416270
v -19.00936897 10.98185222 -0.17689084
v -25.82019325 10.84909101 -0.45966018
v -25.82019325 9.90028225 0.32048350
v -23.87262577 9.96489326 0.44671568
v -19.00936897 15.29751197 -0.46471359
v -25.82019325 10.33131780 -0.08010940
f 1 2 5
f 1 5 11
f 1 11 10
f 1 10 18
f 1 18 17
f 1 17 26
f 1 26 19
f 1 19 12
f 1 12 6
f 1 6 3
f 1 3 7
f 1 7 8
f 1 8 4
f 1 4 2
f 2 4 5
f 3 6 13
f 3 13 22
f 3 22 32
f 3 32 36
f 3 36 33
f 3 33 23
f 3 23 14
f 3 14 7
f 4 8 15
f 4 15 24
f 4 24 31
f 4 31 20
f 4 20 30
f 4 30 29
f 4 29 35
f 4 35 28
f 4 28 27
f 4 27 25
f 4 25 16
f 4 16 9
f 4 9 10
f 4 10 11
f 4 11 5
f 6 12 13
f 7 14 15
f 7 15 8
f 9 16 17
f 9 17 18
f 9 18 10
f 12 19 20
f 12 20 21
f 12 21 13
f 13 21 22
f 14 23 24
f 14 24 15
f 16 25 17
f 17 25 27
f 17 27 28
f 17 28 26
f 19 26 29
f 19 29 30
f 19 30 20
f 20 31 22
f 20 22 21
f 22 31 32
f 23 33 34
f 23 34 24
f 24 34 31
f 26 28 35
f 26 35 29
f 31 34 33
f 31 33 36
f 31 36 32

