# https://github.com/mikedh/trimesh
v -15.97170196 -33.08379323 -5.49966390
v -15.50521025 -33.08379323 -5.49966390
v -16.68337254 -33.08379323 -4.97387831
v -22.85191535 -30.03325342 -3.17265885
v -27.19571232 -26.46805375 -3.05553000
v -27.19571232 -25.80151260 -3.27807532
v -27.19571232 -25.73025163 -3.30150521
v -27.12411042 -25.73025163 -3.32623190
v -26.92015771 -25.73025163 -3.39651126
v -26.82251947 -25.73025163 -3.42384184
v -24.76127612 -25.73025163 -3.80646995
v -23.35312091 -25.73025163 -3.84160706
v -23.03417239 -25.73025163 -3.84941874
v -15.44228714 -33.08379323 -5.49576321
v -21.30706608 -25.73025163 -3.84941874
v -19.58213140 -25.73025163 -3.82339010
v -17.57947178 -33.08379323 -4.24636310
v -21.00330350 -31.62258500 -3.09457295
v -27.19571232 -26.74445874 -2.48679048
v -27.19571232 -25.73025163 7.79472530
v -5.02975595 -30.83295975 -3.33924621
v -5.02975595 -31.67153406 -3.56699932
v -5.02975595 -32.31935781 -3.71276584
v -5.02975595 -32.78003579 -3.62296243
v -5.02975595 -33.08379323 -3.56309863
v -17.77040759 -25.73025163 -3.52405053
v -18.06115072 -33.08379323 -3.72447821
v -19.02017178 -33.08379323 -2.67550064
v -19.05922631 -33.08379323 -2.60782516
v -19.32610341 -33.08379323 -2.08724222
v -21.22678669 -31.78598182 -2.09375195
v -22.09033855 -31.13167922 -2.09375195
v -25.94594685 -28.00555964 -1.25300859
v -27.19571232 -26.81355967 -1.98182574
v -23.12312928 -30.26791122 -2.09375195
v -27.19571232 -27.03670065 7.79472530
v -5.02975595 -25.73025163 7.79472530
v -5.02975595 -25.73025163 -0.32246695
v -16.94157086 -25.73025163 -3.33924621
v -5.02975595 -33.08379323 7.79472530
v -19.37383801 -33.08379323 -0.36671769
v -19.98136189 -32.72532832 -0.36671769
v -21.32659399 -31.86156161 -0.36671769
v -22.19014585 -31.21733493 -0.36671769
v -25.95462821 -28.01347681 -0.36671769
v -26.81817879 -27.27279676 -0.36671769
v -27.19571232 -26.94240603 -0.36671769
v -27.19571232 -26.90569552 -0.94586249
v -23.22076753 -30.35356822 -0.36671769
v -24.08432068 -29.61648654 -0.36671769
v -27.19571232 -27.03598020 7.70883030
v -26.88327095 -27.31454524 7.79472530
v -19.27403071 -33.08379323 7.79472530
v -19.37166767 -33.08379323 1.35901720
v -19.36515923 -33.08379323 3.08474952
v -19.35431011 -33.08379323 4.81178635
v -19.98353223 -32.71237318 1.35901720
v -21.31357581 -31.84932434 1.35901720
v -22.17712639 -31.21589662 1.35901720
v -19.98353223 -32.69509795 3.08474952
v -24.11252608 -29.64599775 4.81178635
v -24.11035703 -29.64023934 3.08474952
v -24.09950920 -29.62872252 1.35901720
v -26.01103902 -28.06170414 6.53882061
v -26.84638419 -27.29439080 3.08474952
v -27.19571232 -26.96615883 1.35901720
v -27.19571232 -26.95752122 0.71479567
v -27.19571232 -27.01870497 5.96097261
v -26.87459217 -27.30950727 6.53882061
v -26.64894121 -27.51969054 7.79472530
v -19.76655878 -32.76131967 7.79472530
v -19.31742463 -33.08379323 6.53882061
v -19.97919155 -32.67710227 4.81178635
v -21.26801155 -31.81333556 4.81178635
v -21.85600881 -31.33034438 7.79472530
v -22.09033855 -31.15975083 7.79472530
v -22.10769612 -31.17126765 6.53882061
v -22.13156342 -31.18710457 4.81178635
v -22.15326167 -31.20365935 3.08474952
v -19.96183399 -32.65838873 6.53882061
v -23.23812510 -30.30822009 6.53882061
v -24.09950920 -29.63879973 6.53882061
v -26.01971780 -28.06890215 7.79472530
v -27.19571232 -26.98775287 3.08474952
v -27.19571232 -26.98055486 2.46395530
v -27.19571232 -27.00070929 4.21311493
v -19.94230737 -32.64543102 7.79472530
v -21.22678669 -31.78238218 7.79472530
v -23.22293658 -30.29670327 7.79472530
v -24.08648973 -29.62800336 7.79472530
v -25.07805559 -28.83189668 7.79472530
f 1 2 14
f 1 14 25
f 1 25 40
f 1 40 53
f 1 53 72
f 1 72 56
f 1 56 55
f 1 55 54
f 1 54 41
f 1 41 30
f 1 30 29
f 1 29 28
f 1 28 27
f 1 27 17
f 1 17 3
f 1 3 4
f 1 4 5
f 1 5 6
f 1 6 7
f 1 7 8
f 1 8 9
f 1 9 10
f 1 10 11
f 1 11 12
f 1 12 13
f 1 13 15
f 1 15 2
f 2 15 16
f 2 16 14
f 3 17 18
f 3 18 4
f 4 18 5
f 5 18 19
f 5 19 34
f 5 34 48
f 5 48 47
f 5 47 67
f 5 67 66
f 5 66 85
f 5 85 84
f 5 84 86
f 5 86 68
f 5 68 51
f 5 51 36
f 5 36 20
f 5 20 7
f 5 7 6
f 7 20 37
f 7 37 38
f 7 38 39
f 7 39 26
f 7 26 16
f 7 16 15
f 7 15 13
f 7 13 12
f 7 12 11
f 7 11 10
f 7 10 9
f 7 9 8
f 14 21 22
f 14 22 23
f 14 23 24
f 14 24 25
f 14 16 21
f 16 26 21
f 17 27 18
f 18 28 29
f 18 29 30
f 18 30 31
f 18 31 32
f 18 32 19
f 18 27 28
f 19 33 34
f 19 32 35
f 19 35 33
f 20 36 52
f 20 52 70
f 20 70 83
f 20 83 91
f 20 91 90
f 20 90 89
f 20 89 76
f 20 76 75
f 20 75 88
f 20 88 87
f 20 87 71
f 20 71 53
f 20 53 40
f 20 40 37
f 21 38 37
f 21 37 40
f 21 40 25
f 21 25 24
f 21 24 23
f 21 23 22
f 21 26 39
f 21 39 38
f 30 41 42
f 30 42 43
f 30 43 31
f 31 43 44
f 31 44 32
f 32 44 33
f 32 33 35
f 33 45 46
f 33 46 47
f 33 47 48
f 33 48 34
f 33 44 49
f 33 49 50
f 33 50 45
f 36 51 52
f 41 54 42
f 42 54 55
f 42 55 56
f 42 56 57
f 42 57 43
f 43 58 59
f 43 59 44
f 43 57 60
f 43 60 58
f 44 59 61
f 44 61 62
f 44 62 49
f 45 63 64
f 45 64 46
f 45 50 63
f 46 64 65
f 46 65 66
f 46 66 67
f 46 67 47
f 49 62 63
f 49 63 50
f 51 68 52
f 52 68 69
f 52 69 70
f 53 71 72
f 56 72 73
f 56 73 60
f 56 60 57
f 58 74 75
f 58 75 76
f 58 76 77
f 58 77 78
f 58 78 79
f 58 79 59
f 58 60 73
f 58 73 80
f 58 80 74
f 59 79 81
f 59 81 82
f 59 82 61
f 61 82 83
f 61 83 62
f 62 83 64
f 62 64 63
f 64 83 65
f 65 83 69
f 65 69 84
f 65 84 85
f 65 85 66
f 68 86 69
f 69 83 70
f 69 86 84
f 71 87 72
f 72 87 80
f 72 80 73
f 74 88 75
f 74 80 88
f 76 89 77
f 77 89 78
f 78 89 79
f 79 89 81
f 80 87 88
f 81 89 90
f 81 90 82
f 82 91 83
f 82 90 91

