# https://github.com/mikedh/trimesh
v -0.03980512 21.19595111 37.00419797
v -0.03980512 9.73716202 37.00419797
v -0.03980512 21.19595111 32.45497138
v -21.01072922 21.19595111 37.00419797
v -0.03980512 9.73716202 32.45497138
v -23.34945179 9.73716202 37.00419797
v -21.87092202 21.19595111 32.45497138
v -23.34945179 20.38716203 32.45497138
v -23.34945179 19.07357804 35.73285454
v -23.34945179 17.85646929 36.99885446
v -23.34945179 17.82505791 37.00419797
v -23.34945179 9.73716202 32.45497138
f 1 2 5
f 1 5 3
f 1 3 7
f 1 7 4
f 1 4 11
f 1 11 6
f 1 6 2
f 2 6 12
f 2 12 5
f 3 5 12
f 3 12 8
f 3 8 7
f 4 7 8
f 4 8 9
f 4 9 10
f 4 10 11
f 6 11 10
f 6 10 9
f 6 9 8
f 6 8 12

