# https://github.com/mikedh/trimesh
v -27.71504735 6.64074019 9.09915193
v -27.79594299 1.48221048 9.09915193
v -28.16722924 6.64074019 8.62539788
v -37.62884308 6.64074019 9.09915193
v -29.83698816 1.48221048 7.52689231
v -29.49681225 6.63720486 7.52689231
v -29.33917126 6.64074019 7.65372143
v -38.31022925 1.48221048 9.09915193
v -37.62469538 6.64074019 8.26615592
v -37.84663862 5.59348139 9.09915193
v -38.27807942 1.48221048 7.52689231
v -29.51651898 6.64074019 7.52689231
v -38.28326404 2.21539275 9.09915193
v -37.61224970 6.64074019 7.52689231
v -37.81863648 5.66821336 8.26615592
v -38.01465144 4.68912277 9.09915193
v -38.26563374 2.21539275 8.26615592
v -38.26148346 1.90131623 7.52689231
v -38.11732508 3.89484294 9.09915193
v -38.11732508 3.74184496 8.26615592
v -37.69521918 6.22415985 7.52689231
v -37.80515388 5.66821336 7.52689231
v -38.00324268 4.60429300 8.26615592
v -38.24904035 2.21539275 7.52689231
v -38.16399702 3.08793989 7.52689231
v -38.05821003 4.03117807 7.52689231
v -38.10695325 3.66105353 7.52689231
v -37.99287085 4.52400589 7.52689231
f 1 2 3
f 1 3 7
f 1 7 12
f 1 12 14
f 1 14 9
f 1 9 4
f 1 4 10
f 1 10 16
f 1 16 19
f 1 19 13
f 1 13 8
f 1 8 2
f 2 5 6
f 2 6 7
f 2 7 3
f 2 8 11
f 2 11 5
f 4 9 10
f 5 11 18
f 5 18 24
f 5 24 25
f 5 25 27
f 5 27 26
f 5 26 28
f 5 28 22
f 5 22 21
f 5 21 14
f 5 14 12
f 5 12 6
f 6 12 7
f 8 13 11
f 9 14 15
f 9 15 10
f 10 15 16
f 11 13 17
f 11 17 18
f 13 19 20
f 13 20 17
f 14 21 15
f 15 21 22
f 15 22 16
f 16 23 20
f 16 20 19
f 16 22 23
f 17 24 18
f 17 20 24
f 20 25 24
f 20 23 26
f 20 26 27
f 20 27 25
f 22 28 23
f 23 28 26

