# https://github.com/mikedh/trimesh
v 29.02058957 -7.00812574 8.75087616
v 25.88560079 -7.00812574 9.65482052
v 27.37422966 -2.31583559 8.25304897
v 29.02058957 -4.17081083 8.25304897
v 29.02058957 -7.00812574 46.05722583
v 25.88560079 -1.23875296 9.46267796
v 26.66781318 0.48823627 8.25304897
v 26.86942702 -1.24540163 8.25304897
v 25.88560079 -7.00812574 52.86520951
v 29.02058957 1.48221048 8.25304897
v 29.02058957 -6.41805720 46.48954789
v 25.89664932 -7.00812574 52.86520951
v 25.88560079 0.48823627 9.45394514
v 25.88560079 0.92954073 9.45394514
v 25.88560079 1.48221048 9.48888156
v 27.03114881 1.47389963 8.25304897
v 25.88560079 1.48221048 52.86520951
v 28.96811547 1.48221048 8.25304897
v 29.02058957 1.48221048 47.53760175
v 29.02058957 -4.90216337 47.03977584
v 26.47908758 -4.69106861 52.86520951
v 26.09918173 -6.38980034 52.86520951
v 27.03268233 1.48221048 8.26615077
v 26.87893946 1.48221048 52.86520951
v 26.92742538 0.48823627 52.86520951
v 29.02058957 0.40097243 47.66424175
v 29.02058957 -4.69106861 47.10964610
v 26.67701943 -2.96491046 52.86520951
v 26.83751390 -1.23875296 52.86520951
v 29.02058957 -2.96491046 47.45463098
v 29.02058957 -1.31188837 47.59000380
v 29.02058957 -0.96615796 47.60747201
f 1 2 3
f 1 3 4
f 1 4 10
f 1 10 19
f 1 19 26
f 1 26 32
f 1 32 31
f 1 31 30
f 1 30 27
f 1 27 20
f 1 20 11
f 1 11 5
f 1 5 12
f 1 12 9
f 1 9 2
f 2 6 7
f 2 7 8
f 2 8 3
f 2 9 17
f 2 17 15
f 2 15 14
f 2 14 13
f 2 13 6
f 3 8 7
f 3 7 16
f 3 16 18
f 3 18 10
f 3 10 4
f 5 11 12
f 6 13 7
f 7 13 14
f 7 14 15
f 7 15 16
f 9 12 22
f 9 22 21
f 9 21 28
f 9 28 29
f 9 29 25
f 9 25 24
f 9 24 17
f 10 18 23
f 10 23 15
f 10 15 17
f 10 17 24
f 10 24 19
f 11 20 21
f 11 21 22
f 11 22 12
f 15 23 16
f 16 23 18
f 19 24 25
f 19 25 26
f 20 27 21
f 21 27 28
f 25 29 30
f 25 30 31
f 25 31 32
f 25 32 26
f 27 30 29
f 27 29 28

