# https://github.com/mikedh/trimesh
v 29.02145667 -8.53413764 32.90962657
v 29.02145667 1.48221048 32.90962657
v 30.09468749 -8.03116345 32.90962657
v 29.02145667 -8.03704601 42.85799061
v 37.81277662 1.48221048 32.90962657
v 29.02145667 1.48221048 47.53897896
v 33.69582706 -6.31928554 32.90962657
v 29.02145667 -7.91645002 44.52616150
v 37.67840599 1.48221048 33.37324809
v 37.81624504 1.43416776 32.90962657
v 29.02145667 0.40076659 47.66463349
v 34.52025750 1.48221048 40.24957815
v 35.35422353 -5.42706963 32.90962657
v 29.60141712 -7.48602943 44.52616150
v 29.02145667 -7.61937149 45.76537439
v 36.79069221 -4.63584107 32.90962657
v 37.41920033 1.48221048 34.16761540
v 37.51369435 0.48802657 34.16761540
v 37.86479014 0.69686415 32.90962657
v 29.02145667 -0.96599072 47.60974977
v 34.51852328 0.48802657 40.24668961
v 35.13316284 0.48802657 39.34833256
v 35.04560310 1.48221048 39.43643521
v 29.40463026 -7.37915952 45.51406531
v 36.72653920 -4.38484398 34.16761540
v 36.50721272 -4.18286992 35.59169822
v 29.02145667 -6.41831161 46.49185910
v 37.45907693 -3.46223399 32.90962657
v 37.16346309 1.48221048 34.89987718
v 36.91119171 0.48802657 35.89500281
v 37.49462058 -1.23855741 34.16761540
v 37.87346121 0.48802657 32.92695841
v 36.89645347 -1.23855741 35.89500281
v 37.87605995 0.51646033 32.90962657
v 29.02145667 -1.31209164 47.59097383
v 34.47691246 -1.71113816 40.19180589
v 34.97971844 -1.17678894 39.50865045
v 35.96019203 -1.23855741 37.97768839
v 35.96886309 0.48802657 38.00801911
v 35.95152353 1.48221048 37.91413875
v 32.73442467 -5.41530419 41.83109081
v 29.57281032 -6.41831161 45.73648778
v 37.64286234 -3.03769595 32.90962657
v 37.33944454 -2.96612300 34.16761540
v 36.64331756 -3.11123018 36.05820859
v 36.20986209 -3.78284340 36.74280910
v 29.02145667 -4.90252520 47.04213852
v 36.80889630 1.48221048 35.89500281
v 36.35723674 1.48221048 37.05189011
v 36.40751863 0.48802657 37.14576919
v 37.82924907 -1.23855741 32.90962657
v 37.86912567 0.18212453 32.90962657
v 37.87692963 0.48802657 32.90962657
v 36.38844486 -1.23855741 37.11399501
v 29.02145667 -2.96612300 47.45665401
v 33.72183510 -2.96612300 41.07283127
v 34.42836479 -2.96612300 40.10803652
v 35.91424567 -3.11123018 37.57183881
v 36.30869164 -2.63276751 36.96234271
v 34.98145265 -2.96612300 39.24578692
v 32.84712278 -4.26424767 42.04773637
v 32.26542812 -4.77996826 42.69334009
v 37.81971090 -1.33954444 32.90962657
v 29.02145667 -4.69172698 47.11290933
f 1 2 5
f 1 5 10
f 1 10 19
f 1 19 34
f 1 34 53
f 1 53 52
f 1 52 51
f 1 51 63
f 1 63 43
f 1 43 28
f 1 28 16
f 1 16 13
f 1 13 7
f 1 7 3
f 1 3 4
f 1 4 8
f 1 8 15
f 1 15 27
f 1 27 47
f 1 47 64
f 1 64 55
f 1 55 35
f 1 35 20
f 1 20 11
f 1 11 6
f 1 6 2
f 2 6 12
f 2 12 23
f 2 23 40
f 2 40 49
f 2 49 48
f 2 48 29
f 2 29 17
f 2 17 9
f 2 9 5
f 3 7 4
f 4 7 8
f 5 9 10
f 6 11 12
f 7 13 8
f 8 14 15
f 8 13 16
f 8 16 14
f 9 17 18
f 9 18 10
f 10 18 19
f 11 20 21
f 11 21 12
f 12 21 22
f 12 22 23
f 14 24 15
f 14 16 25
f 14 25 26
f 14 26 24
f 15 24 27
f 16 28 25
f 17 29 30
f 17 30 18
f 18 31 32
f 18 32 19
f 18 30 33
f 18 33 31
f 19 32 34
f 20 35 36
f 20 36 21
f 21 36 37
f 21 37 22
f 22 37 38
f 22 38 39
f 22 39 23
f 23 39 40
f 24 41 42
f 24 42 27
f 24 26 41
f 25 28 26
f 26 28 43
f 26 43 44
f 26 44 45
f 26 45 46
f 26 46 41
f 27 42 41
f 27 41 47
f 29 48 30
f 30 48 49
f 30 49 50
f 30 50 33
f 31 44 51
f 31 51 32
f 31 33 44
f 32 51 52
f 32 52 53
f 32 53 34
f 33 50 54
f 33 54 45
f 33 45 44
f 35 55 36
f 36 56 57
f 36 57 37
f 36 55 56
f 37 57 38
f 38 58 59
f 38 59 54
f 38 54 50
f 38 50 39
f 38 57 60
f 38 60 58
f 39 50 40
f 40 50 49
f 41 60 57
f 41 57 61
f 41 61 62
f 41 62 47
f 41 46 60
f 43 63 44
f 44 63 51
f 45 54 59
f 45 59 46
f 46 59 58
f 46 58 60
f 47 62 64
f 55 64 61
f 55 61 56
f 56 61 57
f 61 64 62

