mtllib material.mtl
usemtl mtl_myvention_visual
v 182.26472473 208.77090454 550.70629883
v 174.30976868 208.77090454 558.66125488
v 188.18911743 209.25000000 556.63067627
v 180.23417664 209.25000000 564.58563232
v 194.11352539 208.77090454 562.55505371
v 186.15856934 208.77090454 570.51000977
v 199.96069336 207.33987427 568.40222168
v 192.00573730 207.33987427 576.35717773
v 205.65440369 204.97555542 574.09594727
v 197.69944763 204.97555542 582.05090332
v 211.12042236 201.70878601 579.56195068
v 203.16546631 201.70878601 587.51690674
v 216.28749084 197.58213806 584.72906494
v 208.33255005 197.58213806 592.68402100
v 221.08827209 192.64941406 589.52984619
v 213.13331604 192.64941406 597.48480225
v 225.46014404 186.97491455 593.90173340
v 217.50520325 186.97491455 601.85662842
v 229.34614563 180.63261414 597.78771973
v 221.39118958 180.63261414 605.74267578
v 232.69558716 173.70521545 601.13714600
v 224.74064636 173.70521545 609.09210205
v 235.46482849 166.28300476 603.90637207
v 227.50988770 166.28300476 611.86132812
v 237.61776733 158.46275330 606.05932617
v 229.66281128 158.46275330 614.01428223
v 239.12631226 150.34640503 607.56787109
v 231.17137146 150.34640503 615.52282715
v 239.97082520 142.03976440 608.41235352
v 232.01586914 142.03976440 616.36730957
v 240.14027405 133.65112305 608.58184814
v 232.18533325 133.65112305 616.53680420
v 239.63246155 125.28985596 608.07403564
v 231.67752075 125.28985596 616.02899170
v 238.45401001 117.06494904 606.89556885
v 230.49906921 117.06494904 614.85052490
v 236.62028503 109.08363342 605.06182861
v 228.66532898 109.08363342 613.01678467
v 234.15518188 101.44995117 602.59674072
v 226.20022583 101.44995117 610.55169678
v 231.09083557 94.26342010 599.53240967
v 223.13587952 94.26342010 607.48736572
v 227.46720886 87.61773682 595.90875244
v 219.51225281 87.61773682 603.86370850
v 223.33152771 81.59952545 591.77307129
v 215.37657166 81.59952545 599.72802734
v 218.73770142 76.28725433 587.17926025
v 210.78274536 76.28725433 595.13421631
v 213.74563599 71.75016022 582.18719482
v 205.79067993 71.75016022 590.14215088
v 208.42041016 68.04740906 576.86193848
v 200.46545410 68.04740906 584.81689453
v 202.83142090 65.22726440 571.27301025
v 194.87648010 65.22726440 579.22796631
v 197.05155945 63.32649231 565.49310303
v 189.09660339 63.32649231 573.44805908
v 191.15615845 62.36986923 559.59771729
v 183.20121765 62.36986923 567.55267334
v 185.22207642 62.36986923 553.66363525
v 177.26713562 62.36986923 561.61859131
v 179.32669067 63.32649231 547.76824951
v 171.37173462 63.32649231 555.72320557
v 173.54681396 65.22726440 541.98840332
v 165.59187317 65.22726440 549.94335938
v 167.95783997 68.04740906 536.39941406
v 160.00288391 68.04740906 544.35437012
v 162.63261414 71.75016022 531.07415771
v 154.67765808 71.75016022 539.02911377
v 157.64054871 76.28725433 526.08209229
v 149.68559265 76.28725433 534.03704834
v 153.04672241 81.59952545 521.48828125
v 145.09178162 81.59952545 529.44323730
v 148.91104126 87.61773682 517.35260010
v 140.95608521 87.61773682 525.30755615
v 145.28741455 94.26342010 513.72894287
v 137.33245850 94.26342010 521.68389893
v 142.22306824 101.44995117 510.66461182
v 134.26811218 101.44995117 518.61956787
v 139.75796509 109.08363342 508.19952393
v 131.80300903 109.08363342 516.15447998
v 137.92422485 117.06494904 506.36578369
v 129.96928406 117.06494904 514.32073975
v 136.74577332 125.28985596 505.18734741
v 128.79083252 125.28985596 513.14227295
v 136.23797607 133.65112305 504.67953491
v 128.28302002 133.65112305 512.63446045
v 136.40742493 142.03976440 504.84896851
v 128.45246887 142.03976440 512.80395508
v 137.25193787 150.34640503 505.69348145
v 129.29698181 150.34640503 513.64843750
v 138.76048279 158.46275330 507.20202637
v 130.80552673 158.46275330 515.15698242
v 140.91340637 166.28300476 509.35498047
v 132.95846558 166.28300476 517.30993652
v 143.68264771 173.70521545 512.12420654
v 135.72770691 173.70521545 520.07916260
v 147.03210449 180.63261414 515.47363281
v 139.07714844 180.63261414 523.42858887
v 150.91810608 186.97491455 519.35968018
v 142.96315002 186.97491455 527.31463623
v 155.28997803 192.64941406 523.73156738
v 147.33502197 192.64941406 531.68646240
v 160.09074402 197.58213806 528.53228760
v 152.13580322 197.58213806 536.48724365
v 165.25782776 201.70878601 533.69940186
v 157.30287170 201.70878601 541.65435791
v 170.72384644 204.97555542 539.16540527
v 162.76889038 204.97555542 547.12036133
v 176.41755676 207.33987427 544.85913086
v 168.46260071 207.33987427 552.81408691
v 108.63961029 46.50000000 508.90097046
v 108.63961029 225.00000000 508.90097046
v 116.59455872 46.50000000 500.94601440
v 116.59455872 225.00000000 500.94601440
v 243.87377930 225.00000000 628.22521973
v 243.87377930 46.50000000 628.22521973
v 76.81980896 46.50000000 477.08117676
v 76.81980896 225.00000000 477.08117676
v -194.11352539 208.77090454 562.55505371
v -186.15856934 208.77090454 570.51000977
v -188.18911743 209.25000000 556.63067627
v -180.23417664 209.25000000 564.58563232
v -182.26472473 208.77090454 550.70629883
v -174.30976868 208.77090454 558.66125488
v -176.41755676 207.33987427 544.85913086
v -168.46260071 207.33987427 552.81408691
v -170.72384644 204.97555542 539.16540527
v -162.76889038 204.97555542 547.12036133
v -165.25782776 201.70878601 533.69940186
v -157.30287170 201.70878601 541.65435791
v -160.09074402 197.58213806 528.53228760
v -152.13580322 197.58213806 536.48724365
v -155.28997803 192.64941406 523.73156738
v -147.33502197 192.64941406 531.68646240
v -150.91810608 186.97491455 519.35968018
v -142.96315002 186.97491455 527.31463623
v -147.03210449 180.63261414 515.47363281
v -139.07714844 180.63261414 523.42858887
v -143.68264771 173.70521545 512.12420654
v -135.72770691 173.70521545 520.07916260
v -140.91340637 166.28300476 509.35498047
v -132.95846558 166.28300476 517.30993652
v -138.76048279 158.46275330 507.20202637
v -130.80552673 158.46275330 515.15698242
v -137.25193787 150.34640503 505.69348145
v -129.29698181 150.34640503 513.64843750
v -136.40742493 142.03976440 504.84896851
v -128.45246887 142.03976440 512.80395508
v -136.23797607 133.65112305 504.67953491
v -128.28302002 133.65112305 512.63446045
v -136.74577332 125.28985596 505.18734741
v -128.79083252 125.28985596 513.14227295
v -137.92422485 117.06494904 506.36578369
v -129.96928406 117.06494904 514.32073975
v -139.75796509 109.08363342 508.19952393
v -131.80300903 109.08363342 516.15447998
v -142.22306824 101.44995117 510.66461182
v -134.26811218 101.44995117 518.61956787
v -145.28741455 94.26342010 513.72894287
v -137.33245850 94.26342010 521.68389893
v -148.91104126 87.61773682 517.35260010
v -140.95608521 87.61773682 525.30755615
v -153.04672241 81.59952545 521.48828125
v -145.09178162 81.59952545 529.44323730
v -157.64054871 76.28725433 526.08209229
v -149.68559265 76.28725433 534.03704834
v -162.63261414 71.75016022 531.07415771
v -154.67765808 71.75016022 539.02911377
v -167.95783997 68.04740906 536.39941406
v -160.00288391 68.04740906 544.35437012
v -173.54681396 65.22726440 541.98840332
v -165.59187317 65.22726440 549.94335938
v -179.32669067 63.32649231 547.76824951
v -171.37173462 63.32649231 555.72320557
v -185.22207642 62.36986923 553.66363525
v -177.26713562 62.36986923 561.61859131
v -191.15615845 62.36986923 559.59771729
v -183.20121765 62.36986923 567.55267334
v -197.05155945 63.32649231 565.49310303
v -189.09660339 63.32649231 573.44805908
v -202.83142090 65.22726440 571.27301025
v -194.87648010 65.22726440 579.22796631
v -208.42041016 68.04740906 576.86193848
v -200.46545410 68.04740906 584.81689453
v -213.74563599 71.75016022 582.18719482
v -205.79067993 71.75016022 590.14215088
v -218.73770142 76.28725433 587.17926025
v -210.78274536 76.28725433 595.13421631
v -223.33152771 81.59952545 591.77307129
v -215.37657166 81.59952545 599.72802734
v -227.46720886 87.61773682 595.90875244
v -219.51225281 87.61773682 603.86370850
v -231.09083557 94.26342010 599.53240967
v -223.13587952 94.26342010 607.48736572
v -234.15518188 101.44995117 602.59674072
v -226.20022583 101.44995117 610.55169678
v -236.62028503 109.08363342 605.06182861
v -228.66532898 109.08363342 613.01678467
v -238.45401001 117.06494904 606.89556885
v -230.49906921 117.06494904 614.85052490
v -239.63246155 125.28985596 608.07403564
v -231.67752075 125.28985596 616.02899170
v -240.14027405 133.65112305 608.58184814
v -232.18533325 133.65112305 616.53680420
v -239.97082520 142.03976440 608.41235352
v -232.01586914 142.03976440 616.36730957
v -239.12631226 150.34640503 607.56787109
v -231.17137146 150.34640503 615.52282715
v -237.61776733 158.46275330 606.05932617
v -229.66281128 158.46275330 614.01428223
v -235.46482849 166.28300476 603.90637207
v -227.50988770 166.28300476 611.86132812
v -232.69558716 173.70521545 601.13714600
v -224.74064636 173.70521545 609.09210205
v -229.34614563 180.63261414 597.78771973
v -221.39118958 180.63261414 605.74267578
v -225.46014404 186.97491455 593.90173340
v -217.50520325 186.97491455 601.85662842
v -221.08827209 192.64941406 589.52984619
v -213.13331604 192.64941406 597.48480225
v -216.28749084 197.58213806 584.72906494
v -208.33255005 197.58213806 592.68402100
v -211.12042236 201.70878601 579.56195068
v -203.16546631 201.70878601 587.51690674
v -205.65440369 204.97555542 574.09594727
v -197.69944763 204.97555542 582.05090332
v -199.96069336 207.33987427 568.40222168
v -192.00573730 207.33987427 576.35717773
v -108.63961029 225.00000000 508.90097046
v -108.63961029 46.50000000 508.90097046
v -116.59455872 225.00000000 500.94601440
v -116.59455872 46.50000000 500.94601440
v -243.87377930 225.00000000 628.22521973
v -243.87377930 46.50000000 628.22521973
v 45.00000000 225.00000000 668.00000000
v 204.09902954 225.00000000 668.00000000
v 45.00000000 46.50000000 668.00000000
v 204.09902954 46.50000000 668.00000000
v -45.00000000 46.50000000 668.00000000
v -204.09902954 46.50000000 668.00000000
v -45.00000000 225.00000000 668.00000000
v -204.09902954 225.00000000 668.00000000
v -235.91883850 46.50000000 668.00000000
v -235.91883850 225.00000000 668.00000000
v 235.91883850 225.00000000 668.00000000
v 235.91883850 46.50000000 668.00000000
v 235.91883850 46.50000000 713.00000000
v 235.91883850 225.00000000 713.00000000
v -235.91883850 46.50000000 713.00000000
v -235.91883850 225.00000000 713.00000000
v -76.81980896 225.00000000 477.08117676
v -76.81980896 46.50000000 477.08117676
v -45.00000000 46.50000000 508.90097046
v -45.00000000 225.00000000 508.90097046
v 45.00000000 46.50000000 508.90097046
v 45.00000000 225.00000000 508.90097046
v 45.00000000 225.00000000 0.00000000
v 45.00000000 46.50000000 0.00000000
v -45.00000000 46.50000000 0.00000000
v -45.00000000 225.00000000 0.00000000
v 900.00000000 225.00000000 0.00000000
v 900.00000000 -495.00000000 0.00000000
v 900.00000000 225.00000000 -730.00000000
v 900.00000000 -495.00000000 -730.00000000
v -900.00000000 225.00000000 0.00000000
v -900.00000000 225.00000000 -730.00000000
v -900.00000000 -495.00000000 0.00000000
v -900.00000000 -495.00000000 -730.00000000
f 1 2 3
f 3 2 4
f 3 4 5
f 5 4 6
f 5 6 7
f 7 6 8
f 7 8 9
f 9 8 10
f 9 10 11
f 11 10 12
f 11 12 13
f 13 12 14
f 13 14 15
f 15 14 16
f 15 16 17
f 17 16 18
f 17 18 19
f 19 18 20
f 19 20 21
f 21 20 22
f 21 22 23
f 23 22 24
f 23 24 25
f 25 24 26
f 25 26 27
f 27 26 28
f 27 28 29
f 29 28 30
f 29 30 31
f 31 30 32
f 31 32 33
f 33 32 34
f 33 34 35
f 35 34 36
f 35 36 37
f 37 36 38
f 37 38 39
f 39 38 40
f 39 40 41
f 41 40 42
f 41 42 43
f 43 42 44
f 43 44 45
f 45 44 46
f 45 46 47
f 47 46 48
f 47 48 49
f 49 48 50
f 49 50 51
f 51 50 52
f 51 52 53
f 53 52 54
f 53 54 55
f 55 54 56
f 55 56 57
f 57 56 58
f 57 58 59
f 59 58 60
f 59 60 61
f 61 60 62
f 61 62 63
f 63 62 64
f 63 64 65
f 65 64 66
f 65 66 67
f 67 66 68
f 67 68 69
f 69 68 70
f 69 70 71
f 71 70 72
f 71 72 73
f 73 72 74
f 73 74 75
f 75 74 76
f 75 76 77
f 77 76 78
f 77 78 79
f 79 78 80
f 79 80 81
f 81 80 82
f 81 82 83
f 83 82 84
f 83 84 85
f 85 84 86
f 85 86 87
f 87 86 88
f 87 88 89
f 89 88 90
f 89 90 91
f 91 90 92
f 91 92 93
f 93 92 94
f 93 94 95
f 95 94 96
f 95 96 97
f 97 96 98
f 97 98 99
f 99 98 100
f 99 100 101
f 101 100 102
f 101 102 103
f 103 102 104
f 103 104 105
f 105 104 106
f 105 106 107
f 107 106 108
f 107 108 109
f 109 108 110
f 109 110 1
f 1 110 2
f 3 5 1
f 1 5 7
f 1 7 9
f 9 11 1
f 1 11 13
f 1 13 15
f 15 17 1
f 1 17 19
f 1 19 21
f 21 23 1
f 1 23 25
f 1 25 27
f 27 29 1
f 1 29 31
f 1 31 33
f 33 35 1
f 1 35 37
f 1 37 109
f 109 37 39
f 109 39 41
f 41 43 109
f 109 43 45
f 109 45 47
f 47 49 109
f 109 49 51
f 109 51 53
f 53 55 109
f 109 55 57
f 109 57 59
f 59 61 109
f 109 61 63
f 109 63 107
f 107 63 65
f 107 65 105
f 105 65 67
f 105 67 103
f 103 67 69
f 103 69 101
f 101 69 71
f 101 71 99
f 99 71 73
f 99 73 97
f 97 73 75
f 97 75 95
f 95 75 77
f 95 77 93
f 93 77 79
f 93 79 91
f 91 79 81
f 91 81 89
f 89 81 83
f 89 83 87
f 87 83 85
f 111 112 113
f 113 112 114
f 2 114 4
f 4 114 115
f 4 115 6
f 6 115 8
f 8 115 10
f 10 115 12
f 12 115 14
f 14 115 16
f 16 115 18
f 18 115 20
f 20 115 22
f 22 115 24
f 24 115 26
f 26 115 28
f 28 115 30
f 30 115 32
f 32 115 116
f 32 116 34
f 34 116 36
f 36 116 38
f 38 116 40
f 40 116 42
f 42 116 44
f 44 116 46
f 46 116 48
f 48 116 50
f 50 116 52
f 52 116 54
f 54 116 56
f 56 116 58
f 58 116 113
f 58 113 60
f 60 113 62
f 62 113 64
f 64 113 66
f 66 113 68
f 68 113 70
f 70 113 72
f 72 113 74
f 74 113 76
f 76 113 78
f 78 113 80
f 80 113 82
f 82 113 84
f 84 113 86
f 86 113 114
f 86 114 88
f 88 114 90
f 90 114 92
f 92 114 94
f 94 114 96
f 96 114 98
f 98 114 100
f 100 114 102
f 102 114 104
f 104 114 106
f 106 114 108
f 108 114 110
f 110 114 2
f 111 117 112
f 112 117 118
f 119 120 121
f 121 120 122
f 121 122 123
f 123 122 124
f 123 124 125
f 125 124 126
f 125 126 127
f 127 126 128
f 127 128 129
f 129 128 130
f 129 130 131
f 131 130 132
f 131 132 133
f 133 132 134
f 133 134 135
f 135 134 136
f 135 136 137
f 137 136 138
f 137 138 139
f 139 138 140
f 139 140 141
f 141 140 142
f 141 142 143
f 143 142 144
f 143 144 145
f 145 144 146
f 145 146 147
f 147 146 148
f 147 148 149
f 149 148 150
f 149 150 151
f 151 150 152
f 151 152 153
f 153 152 154
f 153 154 155
f 155 154 156
f 155 156 157
f 157 156 158
f 157 158 159
f 159 158 160
f 159 160 161
f 161 160 162
f 161 162 163
f 163 162 164
f 163 164 165
f 165 164 166
f 165 166 167
f 167 166 168
f 167 168 169
f 169 168 170
f 169 170 171
f 171 170 172
f 171 172 173
f 173 172 174
f 173 174 175
f 175 174 176
f 175 176 177
f 177 176 178
f 177 178 179
f 179 178 180
f 179 180 181
f 181 180 182
f 181 182 183
f 183 182 184
f 183 184 185
f 185 184 186
f 185 186 187
f 187 186 188
f 187 188 189
f 189 188 190
f 189 190 191
f 191 190 192
f 191 192 193
f 193 192 194
f 193 194 195
f 195 194 196
f 195 196 197
f 197 196 198
f 197 198 199
f 199 198 200
f 199 200 201
f 201 200 202
f 201 202 203
f 203 202 204
f 203 204 205
f 205 204 206
f 205 206 207
f 207 206 208
f 207 208 209
f 209 208 210
f 209 210 211
f 211 210 212
f 211 212 213
f 213 212 214
f 213 214 215
f 215 214 216
f 215 216 217
f 217 216 218
f 217 218 219
f 219 218 220
f 219 220 221
f 221 220 222
f 221 222 223
f 223 222 224
f 223 224 225
f 225 224 226
f 225 226 227
f 227 226 228
f 227 228 119
f 119 228 120
f 121 123 119
f 119 123 227
f 227 123 225
f 225 123 223
f 223 123 221
f 221 123 219
f 219 123 217
f 217 123 215
f 215 123 213
f 213 123 211
f 211 123 209
f 209 123 207
f 207 123 205
f 205 123 203
f 203 123 201
f 201 123 199
f 199 123 197
f 197 123 125
f 197 125 195
f 195 125 193
f 193 125 191
f 191 125 189
f 189 125 187
f 187 125 185
f 185 125 183
f 183 125 181
f 181 125 179
f 179 125 177
f 177 125 175
f 175 125 173
f 173 125 171
f 171 125 127
f 171 127 169
f 169 127 129
f 169 129 167
f 167 129 131
f 167 131 165
f 165 131 133
f 165 133 163
f 163 133 135
f 163 135 161
f 161 135 137
f 161 137 159
f 159 137 139
f 159 139 157
f 157 139 141
f 157 141 155
f 155 141 143
f 155 143 153
f 153 143 145
f 153 145 151
f 151 145 147
f 151 147 149
f 229 230 231
f 231 230 232
f 120 233 122
f 122 233 231
f 122 231 124
f 124 231 126
f 126 231 128
f 128 231 130
f 130 231 132
f 132 231 134
f 134 231 136
f 136 231 138
f 138 231 140
f 140 231 142
f 142 231 144
f 144 231 146
f 146 231 148
f 148 231 150
f 150 231 232
f 150 232 152
f 152 232 154
f 154 232 156
f 156 232 158
f 158 232 160
f 160 232 162
f 162 232 164
f 164 232 166
f 166 232 168
f 168 232 170
f 170 232 172
f 172 232 174
f 174 232 176
f 176 232 234
f 176 234 178
f 178 234 180
f 180 234 182
f 182 234 184
f 184 234 186
f 186 234 188
f 188 234 190
f 190 234 192
f 192 234 194
f 194 234 196
f 196 234 198
f 198 234 200
f 200 234 202
f 202 234 204
f 204 234 233
f 204 233 206
f 206 233 208
f 208 233 210
f 210 233 212
f 212 233 214
f 214 233 216
f 216 233 218
f 218 233 220
f 220 233 222
f 222 233 224
f 224 233 226
f 226 233 228
f 228 233 120
f 235 236 237
f 237 236 238
f 239 240 241
f 241 240 242
f 240 243 242
f 242 243 244
f 236 245 238
f 238 245 246
f 247 246 248
f 248 246 245
f 249 247 250
f 250 247 248
f 243 249 244
f 244 249 250
f 229 251 230
f 230 251 252
f 253 252 254
f 254 252 251
f 240 253 242
f 242 253 254
f 234 240 233
f 233 240 242
f 253 240 230
f 230 240 234
f 230 234 232
f 230 252 253
f 231 233 229
f 229 233 242
f 229 242 254
f 254 251 229
f 238 116 236
f 236 116 115
f 255 238 256
f 256 238 236
f 117 255 118
f 118 255 256
f 117 111 255
f 255 111 238
f 238 111 116
f 116 111 113
f 118 256 112
f 112 256 236
f 112 236 115
f 115 114 112
f 254 253 241
f 241 253 239
f 256 255 257
f 257 255 258
f 259 258 253
f 253 258 255
f 253 255 239
f 239 255 237
f 239 237 249
f 249 237 247
f 247 237 238
f 247 238 246
f 243 240 249
f 249 240 239
f 253 254 259
f 259 254 260
f 255 256 237
f 237 256 235
f 261 262 263
f 263 262 264
f 265 260 266
f 266 260 257
f 266 257 263
f 263 257 261
f 257 260 256
f 256 260 254
f 256 254 235
f 235 254 241
f 235 241 248
f 248 241 250
f 250 241 242
f 250 242 244
f 245 236 248
f 248 236 235
f 267 265 268
f 268 265 266
f 262 267 264
f 264 267 268
f 260 265 259
f 259 265 267
f 259 267 262
f 259 262 258
f 258 262 261
f 258 261 257
f 264 268 263
f 263 268 266

