# https://github.com/mikedh/trimesh
v 249.40001628 -121.87793624 77.30541943
v 252.59335208 -121.87793624 76.26644189
v 253.80539948 -121.76817530 54.48297646
v 253.64488047 -121.76817530 54.50346482
v 241.01817501 -121.87793624 77.30541943
v 249.40001628 -148.80038205 77.30541943
v 253.74450779 -121.87793624 73.13194032
v 252.59335208 -148.80038205 76.26644189
v 253.80539948 -121.76817530 47.40620562
v 253.80539948 -121.87793624 68.94089788
v 234.78091440 -121.76817530 54.50346482
v 238.18734112 -121.87793624 76.69959435
v 225.53847960 -139.13840622 77.22640040
v 225.53847960 -140.41789618 77.30541943
v 225.53847960 -148.80038205 77.30541943
v 249.40001628 -152.18724608 76.26644189
v 252.22809190 -151.75761640 75.92108918
v 253.74450779 -148.80038205 73.13194032
v 234.51249328 -121.76817530 47.40620562
v 253.80539948 -148.80038205 47.40620562
v 253.80539948 -148.80038205 68.94089788
v 234.47098440 -121.76817530 47.81301779
v 234.79752395 -121.87793624 73.13194032
v 234.81411850 -121.87793624 73.23144771
v 236.70688760 -121.87793624 76.30741486
v 225.53847960 -136.08395803 76.51228346
v 225.53847960 -152.18724608 76.26644189
v 245.21048227 -153.64235055 73.13194032
v 249.40001628 -153.58902910 73.13194032
v 252.62102467 -152.21547332 73.13194032
v 225.53847960 -133.07968327 47.40620562
v 252.64869726 -152.24370056 47.40620562
v 252.64869726 -152.24056754 68.94089788
v 252.64869726 -152.24370056 54.50346482
v 225.53847960 -133.31801832 68.94089788
v 225.53847960 -133.38073885 73.14949802
v 225.53847960 -133.83231473 75.52305586
v 225.59659803 -133.81350157 75.58159028
v 225.53847960 -133.91071540 75.61085937
v 225.53847960 -135.03967008 76.19034601
v 225.53847960 -153.64235055 73.13194032
v 245.21048227 -153.80541795 68.94089788
v 249.40001628 -153.69565701 68.94089788
v 225.53847960 -153.80228493 47.40620562
v 252.20041931 -152.44439429 47.40620562
v 225.53847960 -153.80541795 68.94089788
v 245.21048227 -153.80541795 54.50346482
v 249.40001628 -153.69565701 54.50346482
v 245.21048227 -153.80228493 47.40620562
v 225.53847960 -153.80541795 54.50346482
v 249.40001628 -153.69252399 47.40620562
v 248.82166517 -153.70820412 47.40620562
f 1 2 3
f 1 3 4
f 1 4 11
f 1 11 5
f 1 5 14
f 1 14 15
f 1 15 6
f 1 6 8
f 1 8 2
f 2 7 3
f 2 8 18
f 2 18 7
f 3 9 19
f 3 19 22
f 3 22 11
f 3 11 4
f 3 7 10
f 3 10 21
f 3 21 20
f 3 20 9
f 5 12 13
f 5 13 14
f 5 11 12
f 6 15 27
f 6 27 16
f 6 16 17
f 6 17 8
f 7 18 21
f 7 21 10
f 8 17 18
f 9 20 32
f 9 32 45
f 9 45 51
f 9 51 52
f 9 52 49
f 9 49 44
f 9 44 31
f 9 31 19
f 11 22 23
f 11 23 24
f 11 24 25
f 11 25 12
f 12 25 13
f 13 25 26
f 13 26 40
f 13 40 39
f 13 39 37
f 13 37 36
f 13 36 35
f 13 35 31
f 13 31 44
f 13 44 50
f 13 50 46
f 13 46 41
f 13 41 27
f 13 27 15
f 13 15 14
f 16 27 41
f 16 41 28
f 16 28 29
f 16 29 17
f 17 29 30
f 17 30 18
f 18 30 21
f 19 31 22
f 20 21 34
f 20 34 32
f 21 30 33
f 21 33 34
f 22 31 35
f 22 35 36
f 22 36 23
f 23 36 37
f 23 37 24
f 24 37 25
f 25 37 38
f 25 38 39
f 25 39 40
f 25 40 26
f 28 41 46
f 28 46 42
f 28 42 29
f 29 42 43
f 29 43 30
f 30 43 33
f 32 34 45
f 33 43 34
f 34 43 45
f 37 39 38
f 42 46 50
f 42 50 47
f 42 47 48
f 42 48 43
f 43 48 45
f 44 49 47
f 44 47 50
f 45 48 51
f 47 49 52
f 47 52 48
f 48 52 51

