# https://github.com/mikedh/trimesh
v -199.58316529 127.85341656 44.66310873
v -225.49217373 131.74774131 44.66310873
v -199.58316529 153.80541795 44.66310873
v -199.58316529 129.08039457 73.12927574
v -225.49217373 153.80286956 44.66310873
v -225.49217373 133.40658259 73.14524819
v -211.33670014 153.80541795 44.66310873
v -199.58316529 153.80541795 68.94034885
v -225.49217373 133.84351268 75.48414784
v -199.58316529 131.82140496 76.44271223
v -225.49217373 153.80286956 68.94034885
v -211.33670014 153.80541795 68.94034885
v -211.33923355 153.64283025 73.12927574
v -199.58316529 153.64029685 73.12927574
v -225.49217373 133.97560957 75.63112662
v -199.58316529 136.19078082 77.22234545
v -225.49217373 139.18582138 77.22553844
v -225.49217373 136.08407795 76.50342028
v -225.49217373 135.06795728 76.19028980
v -225.49217373 153.64283025 73.12927574
v -211.33923355 152.18976450 76.26378106
v -199.58316529 152.18723109 76.26378106
v -199.58316529 140.42296299 77.30541943
v -225.49217373 140.42296299 77.30541943
v -225.49217373 152.18976450 76.26378106
v -199.58316529 151.80363744 76.38519717
v -199.58316529 148.80096668 77.30541943
v -225.49217373 148.80096668 77.30541943
v -225.49217373 151.18887424 76.57371480
f 1 2 5
f 1 5 7
f 1 7 3
f 1 3 8
f 1 8 14
f 1 14 22
f 1 22 26
f 1 26 27
f 1 27 23
f 1 23 16
f 1 16 10
f 1 10 4
f 1 4 2
f 2 4 6
f 2 6 9
f 2 9 15
f 2 15 19
f 2 19 18
f 2 18 17
f 2 17 24
f 2 24 28
f 2 28 29
f 2 29 25
f 2 25 20
f 2 20 11
f 2 11 5
f 3 7 12
f 3 12 8
f 4 9 6
f 4 10 9
f 5 11 12
f 5 12 7
f 8 13 14
f 8 12 20
f 8 20 13
f 9 10 15
f 10 16 17
f 10 17 18
f 10 18 19
f 10 19 15
f 11 20 12
f 13 20 25
f 13 25 21
f 13 21 22
f 13 22 14
f 16 23 24
f 16 24 17
f 21 25 26
f 21 26 22
f 23 27 28
f 23 28 24
f 25 29 26
f 26 29 27
f 27 29 28

