# https://github.com/mikedh/trimesh
v -24.72743874 -153.80313939 45.27327357
v -24.72743874 -130.53010243 45.27327357
v 0.04248151 -153.80313939 45.27327357
v -24.72743874 -153.80313939 68.93897534
v -24.72743874 -130.54155523 46.50876903
v 25.52067590 -130.44542071 68.93897534
v 25.52067590 -130.42253011 46.17010492
v 0.04248151 -134.67292583 45.27327357
v 0.04248151 -153.80313939 68.93897534
v 25.52067590 -153.80086082 46.17010492
v -24.72743874 -153.70701987 71.46013969
v -24.72743874 -131.04510340 71.61065624
v 25.52067590 -130.50493327 73.13150934
v 0.04248151 -153.64292020 73.13150934
v 25.52067590 -153.80086082 68.93897534
v 25.52067590 -153.70701987 71.40369645
v -24.72743874 -153.64292020 73.13150934
v -24.72743874 -131.08629748 73.13150934
v 25.52067590 -130.56444582 73.29456924
v 0.04248151 -152.18950966 76.26728511
v 25.52067590 -153.64064163 73.13150934
v -24.72743874 -152.18950966 76.26728511
v -24.72743874 -132.66561380 76.08227526
v 25.52067590 -132.37491670 76.21084187
v 25.52067590 -152.18721610 76.26414833
v 25.52067590 -148.80200103 77.30522830
v 0.04740009 -148.80200103 77.30522830
v -24.72743874 -148.79972246 77.30522830
v -24.72743874 -136.23163012 77.03554798
v 25.52067590 -133.50103816 76.60281150
v 25.52067590 -137.95743427 77.30836133
v -24.72743874 -140.42252827 77.30522830
v 25.52067590 -136.23163012 77.12021471
f 1 2 8
f 1 8 3
f 1 3 9
f 1 9 4
f 1 4 11
f 1 11 17
f 1 17 22
f 1 22 28
f 1 28 32
f 1 32 29
f 1 29 23
f 1 23 18
f 1 18 12
f 1 12 5
f 1 5 2
f 2 5 6
f 2 6 7
f 2 7 8
f 3 8 7
f 3 7 10
f 3 10 15
f 3 15 9
f 4 9 11
f 5 12 13
f 5 13 6
f 6 13 19
f 6 19 24
f 6 24 30
f 6 30 33
f 6 33 31
f 6 31 26
f 6 26 25
f 6 25 21
f 6 21 16
f 6 16 15
f 6 15 10
f 6 10 7
f 9 14 11
f 9 15 16
f 9 16 14
f 11 14 17
f 12 18 13
f 13 18 19
f 14 20 22
f 14 22 17
f 14 16 21
f 14 21 20
f 18 23 19
f 19 23 24
f 20 21 25
f 20 25 26
f 20 26 27
f 20 27 22
f 22 27 28
f 23 29 30
f 23 30 24
f 26 31 27
f 27 31 28
f 28 31 32
f 29 32 31
f 29 31 33
f 29 33 30

