# https://github.com/mikedh/trimesh
v 253.80539948 124.25356653 68.93798409
v 253.80539948 108.32680741 68.93798409
v 253.80539948 124.25512555 54.50235927
v 253.74756587 124.25356653 73.13149810
v 253.76759326 108.32680741 71.69120056
v 253.80539948 108.32680741 54.50235927
v 253.80539948 124.25512555 47.38579222
v 233.79967678 124.25512555 54.50235927
v 249.40072083 124.25356653 77.30541943
v 252.59299231 124.25356653 76.26683914
v 253.74756587 108.32680741 73.13149810
v 234.94534594 108.32680741 54.50235927
v 253.80539948 110.15725322 43.94345090
v 253.80539948 124.23174027 43.94345090
v 253.06906277 124.25512555 43.94345090
v 231.07900858 124.25512555 43.94345090
v 234.20455703 124.25356653 74.66324185
v 234.78295311 124.25356653 75.82919699
v 236.54259098 124.25356653 76.49545654
v 241.02291203 124.25356653 77.30541943
v 249.40072083 108.32680741 77.30541943
v 252.59299231 108.32680741 76.26683914
v 232.31588036 110.15725322 43.94345090
v 234.94534594 108.32680741 68.93798409
v 233.84640238 124.25356653 73.14783032
v 235.06546536 108.32680741 73.13149810
v 236.79396781 108.32680741 76.28969975
v 238.01304579 108.32680741 76.62609560
v 241.02291203 108.32680741 77.30541943
v 234.94756454 108.32680741 69.10128010
f 1 2 6
f 1 6 13
f 1 13 14
f 1 14 7
f 1 7 3
f 1 3 4
f 1 4 5
f 1 5 2
f 2 5 11
f 2 11 22
f 2 22 21
f 2 21 29
f 2 29 28
f 2 28 27
f 2 27 26
f 2 26 30
f 2 30 24
f 2 24 12
f 2 12 6
f 3 7 15
f 3 15 16
f 3 16 8
f 3 8 20
f 3 20 9
f 3 9 10
f 3 10 4
f 4 10 22
f 4 22 11
f 4 11 5
f 6 12 23
f 6 23 13
f 7 14 15
f 8 16 17
f 8 17 18
f 8 18 19
f 8 19 20
f 9 21 22
f 9 22 10
f 9 20 29
f 9 29 21
f 12 24 23
f 13 23 16
f 13 16 15
f 13 15 14
f 16 25 17
f 16 23 26
f 16 26 25
f 17 25 26
f 17 26 18
f 18 26 27
f 18 27 19
f 19 27 28
f 19 28 29
f 19 29 20
f 23 24 30
f 23 30 26

