# https://github.com/mikedh/trimesh
v 210.83073848 -153.80541795 44.67219863
v 210.83073848 -133.81670955 44.67219863
v 225.53294808 -153.80541795 44.67219863
v 210.83073848 -153.80541795 68.94185915
v 225.53294808 -131.73162645 44.67219863
v 210.83073848 -135.34000611 73.17795012
v 225.53294808 -153.80541795 68.94185915
v 210.83073848 -153.64336991 73.13322201
v 225.53294808 -133.37808552 73.14919821
v 210.83073848 -136.92164597 76.26716143
v 225.53294808 -133.82967639 75.52281227
v 225.53294808 -153.64336991 73.13322201
v 210.83073848 -152.48522860 75.63143018
v 225.53294808 -136.08329844 76.51314916
v 225.53294808 -135.03751144 76.19049217
v 225.53294808 -133.90962109 75.61226099
v 210.83073848 -140.42198861 77.30541943
v 225.53294808 -153.20041361 74.08842101
v 225.53294808 -152.18920985 76.26716143
v 210.83073848 -152.18920985 76.26716143
v 225.53294808 -139.14285842 77.22555343
v 210.83073848 -148.80338016 77.30541943
v 225.53294808 -140.42198861 77.30541943
v 225.53294808 -148.80338016 77.30541943
f 1 2 5
f 1 5 3
f 1 3 7
f 1 7 4
f 1 4 8
f 1 8 13
f 1 13 20
f 1 20 22
f 1 22 17
f 1 17 10
f 1 10 6
f 1 6 2
f 2 6 5
f 3 5 9
f 3 9 11
f 3 11 16
f 3 16 15
f 3 15 14
f 3 14 21
f 3 21 23
f 3 23 24
f 3 24 19
f 3 19 18
f 3 18 12
f 3 12 7
f 4 7 12
f 4 12 8
f 5 6 9
f 6 10 11
f 6 11 9
f 8 12 13
f 10 14 15
f 10 15 16
f 10 16 11
f 10 17 14
f 12 18 13
f 13 18 19
f 13 19 20
f 14 17 21
f 17 22 24
f 17 24 23
f 17 23 21
f 19 24 22
f 19 22 20

