# https://github.com/mikedh/trimesh
v -234.34861639 -122.70967293 47.95483044
v -252.90164810 -122.70967293 47.95483044
v -234.43523189 -122.70967293 68.94211025
v -215.33618373 -135.31720546 68.94211025
v -215.33618373 -135.30807620 47.95483044
v -253.80539948 -122.71880218 47.95483044
v -253.80539948 -122.70967293 47.98643337
v -234.48417610 -122.70967293 73.13382163
v -215.33618373 -135.46636161 72.59944161
v -215.33618373 -137.51180965 47.95483044
v -253.80539948 -144.64045441 47.95483044
v -253.80539948 -122.70967293 68.94211025
v -236.56654590 -122.70967293 76.32285514
v -215.33618373 -135.49070629 73.13382163
v -215.33618373 -153.80237487 47.96057557
v -215.87089729 -153.80237487 47.95483044
v -253.80539948 -148.80137143 47.98643337
v -253.79409659 -148.82571611 47.95483044
v -253.74891502 -122.70967293 73.13382163
v -253.80539948 -148.80137143 68.94211025
v -241.01747045 -122.70967293 77.30541943
v -215.33618373 -136.99435022 76.26539255
v -215.33618373 -136.80259088 75.86604756
v -215.33618373 -153.80237487 68.94211025
v -245.23869452 -153.80237487 47.95483044
v -252.64935684 -152.24394041 47.95483044
v -253.48909849 -122.70967293 73.83770751
v -253.74891502 -148.80137143 73.13382163
v -252.64935684 -152.24394041 68.94211025
v -252.62300342 -152.21653765 73.13382163
v -249.40343413 -122.70967293 77.30541943
v -215.33618373 -140.41866070 77.30541943
v -215.33618373 -153.78411636 69.47649027
v -245.21234110 -153.80237487 68.94211025
v -249.40343413 -153.69583690 68.94211025
v -249.40343413 -153.69583690 47.95483044
v -252.59287238 -148.80137143 76.26539255
v -252.59287238 -122.70967293 76.26539255
v -252.22761220 -151.75996992 75.92063196
v -249.40343413 -153.58931392 73.13382163
v -251.87365490 -122.70967293 76.50098057
v -249.40343413 -148.80137143 77.30541943
v -215.33618373 -148.80137143 77.30541943
v -215.33618373 -153.64106137 73.13382163
v -245.21234110 -153.64106137 73.13382163
v -249.40343413 -152.18914989 76.26539255
v -215.33618373 -152.18914989 76.26539255
v -215.33618373 -153.45843127 73.53316662
f 1 2 7
f 1 7 12
f 1 12 19
f 1 19 27
f 1 27 38
f 1 38 41
f 1 41 31
f 1 31 21
f 1 21 13
f 1 13 8
f 1 8 3
f 1 3 4
f 1 4 5
f 1 5 10
f 1 10 16
f 1 16 25
f 1 25 36
f 1 36 26
f 1 26 18
f 1 18 11
f 1 11 6
f 1 6 2
f 2 6 7
f 3 8 4
f 4 9 14
f 4 14 23
f 4 23 22
f 4 22 32
f 4 32 43
f 4 43 47
f 4 47 48
f 4 48 44
f 4 44 33
f 4 33 24
f 4 24 15
f 4 15 10
f 4 10 5
f 4 8 9
f 6 11 17
f 6 17 20
f 6 20 12
f 6 12 7
f 8 13 14
f 8 14 9
f 10 15 16
f 11 18 17
f 12 20 28
f 12 28 19
f 13 21 22
f 13 22 23
f 13 23 14
f 15 24 34
f 15 34 25
f 15 25 16
f 17 18 26
f 17 26 29
f 17 29 20
f 19 28 27
f 20 29 30
f 20 30 28
f 21 31 42
f 21 42 43
f 21 43 32
f 21 32 22
f 24 33 34
f 25 34 35
f 25 35 36
f 26 36 35
f 26 35 29
f 27 37 38
f 27 28 37
f 28 30 39
f 28 39 37
f 29 35 30
f 30 35 40
f 30 40 39
f 31 41 42
f 33 44 45
f 33 45 34
f 34 45 40
f 34 40 35
f 37 39 42
f 37 42 41
f 37 41 38
f 39 40 46
f 39 46 42
f 40 45 46
f 42 46 47
f 42 47 43
f 44 48 45
f 45 48 46
f 46 48 47

