# https://github.com/mikedh/trimesh
v 225.65227300 -90.12381296 47.40620469
v 225.85068816 -94.81433176 47.40620469
v 225.65227300 -90.12381296 54.50085646
v 225.65227300 -79.28738607 47.40620469
v 226.00224280 -95.34658687 54.50085646
v 225.84792989 -94.31533322 54.50085646
v 226.15381244 -96.83524023 47.40620469
v 225.65227300 -79.28738607 54.50085646
v 253.80264121 -79.28738607 47.40620469
v 226.19791469 -96.62732854 54.50085646
v 234.50937524 -121.76816781 47.40620469
v 234.47078952 -121.76816781 47.81177263
v 253.80264121 -79.28738607 54.50085646
v 253.80264121 -121.76816781 47.40620469
v 234.77944532 -121.76816781 54.50085646
v 253.80264121 -119.46033236 54.50085646
v 253.80264121 -121.76816781 54.48141182
v 253.64832830 -121.76816781 54.50085646
f 1 2 3
f 1 3 8
f 1 8 4
f 1 4 9
f 1 9 14
f 1 14 11
f 1 11 7
f 1 7 2
f 2 5 6
f 2 6 3
f 2 7 5
f 3 6 5
f 3 5 10
f 3 10 15
f 3 15 18
f 3 18 16
f 3 16 13
f 3 13 8
f 4 8 13
f 4 13 9
f 5 7 10
f 7 11 12
f 7 12 10
f 9 13 16
f 9 16 17
f 9 17 14
f 10 12 15
f 11 14 17
f 11 17 18
f 11 18 15
f 11 15 12
f 16 18 17

