# https://github.com/mikedh/trimesh
v -215.33618373 -137.51263413 47.95770207
v -215.33618373 -135.30549783 47.95770207
v -211.70680228 -153.80541795 47.95770207
v -215.33618373 -153.80541795 47.96057651
v -215.33618373 -135.31630602 68.94063367
v -194.91505739 -126.49858400 68.94063367
v -194.91505739 -126.49858400 47.95770207
v -181.07176238 -153.80541795 47.95770207
v -215.33618373 -153.80541795 68.94063367
v -215.33618373 -135.48920724 73.13377291
v -194.91505739 -126.60934931 73.13377291
v -190.72215050 -126.20682257 68.94063367
v -194.88486639 -126.49588570 47.95770207
v -181.07176238 -126.20682257 47.95770207
v -181.07176238 -153.80541795 68.94063367
v -215.33618373 -153.64332494 73.13377291
v -215.33618373 -136.99394548 76.26641191
v -198.19223544 -128.93534583 75.92440584
v -194.91505739 -128.33020657 76.27216079
v -190.72215050 -126.36350399 73.13377291
v -190.72215050 -126.20682257 47.95770207
v -181.07176238 -126.31488958 71.86347217
v -181.07176238 -126.20682257 68.94063367
v -181.07176238 -153.64332494 73.13377291
v -215.33618373 -152.18991441 76.26641191
v -215.33618373 -140.41945520 77.30391662
v -194.91505739 -132.03938282 77.31541439
v -190.72215050 -128.23024946 76.27216079
v -181.07176238 -126.36350399 73.13377291
v -181.07176238 -152.18991441 76.26641191
v -215.33618373 -148.80222589 77.30391662
v -181.07176238 -132.03938282 77.31541439
v -181.07176238 -128.23024946 76.27216079
v -181.07176238 -148.80222589 77.30391662
f 1 2 7
f 1 7 13
f 1 13 21
f 1 21 14
f 1 14 8
f 1 8 3
f 1 3 4
f 1 4 9
f 1 9 16
f 1 16 25
f 1 25 31
f 1 31 26
f 1 26 17
f 1 17 10
f 1 10 5
f 1 5 2
f 2 5 6
f 2 6 7
f 3 8 15
f 3 15 9
f 3 9 4
f 5 10 11
f 5 11 6
f 6 11 12
f 6 12 13
f 6 13 7
f 8 14 23
f 8 23 22
f 8 22 29
f 8 29 33
f 8 33 32
f 8 32 34
f 8 34 30
f 8 30 24
f 8 24 15
f 9 15 24
f 9 24 16
f 10 17 18
f 10 18 11
f 11 18 19
f 11 19 20
f 11 20 12
f 12 21 13
f 12 20 22
f 12 22 23
f 12 23 14
f 12 14 21
f 16 24 30
f 16 30 25
f 17 26 19
f 17 19 18
f 19 26 27
f 19 27 28
f 19 28 20
f 20 28 33
f 20 33 29
f 20 29 22
f 25 30 34
f 25 34 31
f 26 31 27
f 27 31 34
f 27 34 32
f 27 32 33
f 27 33 28

