# https://github.com/mikedh/trimesh
v 194.88879392 -126.46373093 44.66900751
v 194.87978458 -126.45797455 43.82295109
v 194.87978458 -148.09386158 44.66900751
v 225.52996495 -131.73150653 44.66900751
v 225.52996495 -99.16238353 43.21599985
v 225.52996495 -95.38734622 42.71940168
v 209.99035224 -109.39246441 41.15604095
v 209.40224227 -108.81035817 38.36038243
v 205.41457126 -113.20785633 35.40838728
v 194.87978458 -126.39456445 39.62946332
v 194.87978458 -153.79966158 44.66900751
v 225.52996495 -153.79966158 44.66900751
v 225.52996495 -94.94355795 38.97193203
v 209.31222391 -108.71814369 35.40838728
v 207.23887843 -111.08115192 35.40838728
v 205.41457126 -113.20785633 6.06776796
v 194.87978458 -126.35999620 35.44057484
v 194.87978458 -153.79966158 6.03558133
v 225.52996495 -153.79966158 6.06776796
v 225.52996495 -94.92627382 34.79223933
v 209.31222391 -108.71814369 6.06776796
v 207.23887843 -111.08115192 6.06776796
v 205.42657870 -113.21362020 1.87888042
v 194.87978458 -126.35999620 6.06776796
v 207.25388399 -111.08115192 1.87888042
v 225.52996495 -153.64404449 1.87888042
v 194.87978458 -153.63251674 1.85588488
v 194.91279382 -153.64404449 1.87888042
v 225.52996495 -94.92627382 9.64970613
v 209.31523702 -108.72390756 1.87888042
v 225.52996495 -94.93203020 6.06776796
v 209.40825349 -108.81612204 -0.40179212
v 194.87978458 -126.53289741 1.87888042
v 194.87978458 -126.52712604 1.91106517
v 225.52996495 -152.19166830 -1.26163987
v 194.87978458 -152.19166830 -1.26163987
v 225.52996495 -95.07611954 1.87888042
v 216.68747851 -104.05553733 -0.88919170
v 211.67662627 -107.89397724 -0.87999499
v 208.42707583 -111.08115192 -0.87999499
v 194.87978458 -128.31954828 -1.26163987
v 194.87978458 -152.16284144 -1.27083658
v 225.52996495 -148.80276555 -2.30541439
v 225.52996495 -97.77340245 -0.62710036
v 215.52028289 -106.53957191 -1.45475961
v 211.67662627 -111.08115192 -1.91917116
v 194.87978458 -132.00238609 -2.29621768
v 194.87978458 -148.80276555 -2.30541439
v 225.52996495 -106.89113821 -2.30541439
v 225.52996495 -102.48211980 -1.52373121
v 220.06004155 -106.89113821 -2.28242260
v 215.86833391 -111.08115192 -2.30541439
v 194.87978458 -132.03696933 -2.30541439
v 224.25174919 -106.89113821 -2.30541439
f 1 2 3
f 1 3 11
f 1 11 12
f 1 12 4
f 1 4 5
f 1 5 6
f 1 6 7
f 1 7 8
f 1 8 9
f 1 9 2
f 2 9 10
f 2 10 17
f 2 17 24
f 2 24 34
f 2 34 33
f 2 33 41
f 2 41 47
f 2 47 53
f 2 53 48
f 2 48 42
f 2 42 36
f 2 36 27
f 2 27 18
f 2 18 11
f 2 11 3
f 4 12 19
f 4 19 26
f 4 26 35
f 4 35 43
f 4 43 49
f 4 49 50
f 4 50 44
f 4 44 37
f 4 37 31
f 4 31 29
f 4 29 20
f 4 20 13
f 4 13 6
f 4 6 5
f 6 13 8
f 6 8 7
f 8 13 14
f 8 14 15
f 8 15 9
f 9 16 24
f 9 24 17
f 9 17 10
f 9 15 22
f 9 22 16
f 11 18 19
f 11 19 12
f 13 20 14
f 14 21 22
f 14 22 15
f 14 20 29
f 14 29 21
f 16 23 24
f 16 22 25
f 16 25 23
f 18 26 19
f 18 27 28
f 18 28 26
f 21 30 22
f 21 29 31
f 21 31 30
f 22 30 25
f 23 25 32
f 23 32 33
f 23 33 34
f 23 34 24
f 25 30 32
f 26 28 36
f 26 36 35
f 27 36 28
f 30 31 37
f 30 37 32
f 32 37 38
f 32 38 39
f 32 39 40
f 32 40 41
f 32 41 33
f 35 36 42
f 35 42 43
f 37 44 38
f 38 45 39
f 38 44 45
f 39 46 40
f 39 45 46
f 40 46 47
f 40 47 41
f 42 48 43
f 43 48 53
f 43 53 52
f 43 52 54
f 43 54 49
f 44 50 51
f 44 51 45
f 45 51 46
f 46 51 52
f 46 52 53
f 46 53 47
f 49 54 50
f 50 54 51
f 51 54 52

