# https://github.com/mikedh/trimesh
v -225.49770525 153.78113323 47.94851660
v -225.49770525 153.78113323 6.07679977
v -245.20916310 153.78113323 47.94851660
v -225.49770525 133.25658697 47.94851660
v -245.20916310 153.78113323 6.07679977
v -225.49770525 153.68396437 3.12039552
v -249.39920679 153.68396437 47.94851660
v -235.14143756 112.29485577 47.94851660
v -225.83580253 -94.31068614 45.49878606
v -225.65566087 -90.08432780 45.49878606
v -225.49770525 99.25144999 43.17695129
v -245.20916310 153.63539493 1.88077298
v -249.39920679 153.58682549 1.88077298
v -249.39920679 153.68396437 6.07679977
v -225.49770525 153.63539493 1.88077298
v -252.62210399 152.25089604 47.94851660
v -253.80539948 112.29485577 47.94851660
v -253.80539948 -94.31068614 45.49878606
v -225.78036740 -94.31068614 39.59581699
v -225.77206263 -94.31068614 35.40471085
v -225.65566087 -90.08432780 6.07188099
v -225.49770525 95.02509914 38.86778506
v -225.49770525 95.51089099 42.56697758
v -249.39920679 152.17804188 -1.26255804
v -252.22857159 151.74082696 -0.90837963
v -252.62210399 152.20232660 1.88077298
v -252.64980656 152.22661132 6.07679977
v -225.49770525 152.17804188 -1.26255804
v -252.64980656 152.22661132 47.94851660
v -253.80539948 148.77752143 47.94851660
v -253.80539948 -94.31068614 6.07188099
v -225.77206263 -94.31068614 6.07188099
v -225.66398063 -90.08432780 1.88077298
v -225.49770525 98.01269689 -0.63290920
v -225.49770525 95.14654523 1.88077298
v -225.49770525 95.02509914 6.07188099
v -249.39920679 148.77752143 -2.30541439
v -252.59437144 148.77752143 -1.26255804
v -253.74720609 148.77752143 1.88077298
v -253.80539948 148.77752143 6.07679977
v -225.49770525 148.77752143 -2.30541439
v -253.74720609 -94.31068614 1.88077298
v -253.80539948 112.29485577 6.07188099
v -253.76660389 112.29485577 3.10072040
v -225.80531171 -94.31068614 1.88077298
v -226.09629363 -94.31068614 -0.55420123
v -226.01315594 -90.08432780 -0.67718010
v -225.49770525 106.87832128 -2.30541439
v -225.49770525 102.45765519 -1.51834960
v -249.39920679 -94.31068614 -2.30541439
v -252.59437144 112.29485577 -1.26255804
v -252.59437144 -94.31068614 -1.25763738
v -228.44903332 -94.31068614 -1.59214067
v -228.44903332 -90.08432780 -1.72495710
v -232.64183527 -94.28639393 -2.30541439
v -236.83186397 -94.31068614 -2.30541439
v -232.64183527 -94.31068614 -2.30049748
f 1 2 5
f 1 5 3
f 1 3 7
f 1 7 16
f 1 16 29
f 1 29 30
f 1 30 17
f 1 17 8
f 1 8 4
f 1 4 11
f 1 11 23
f 1 23 22
f 1 22 36
f 1 36 35
f 1 35 34
f 1 34 49
f 1 49 48
f 1 48 41
f 1 41 28
f 1 28 15
f 1 15 6
f 1 6 2
f 2 6 5
f 3 5 14
f 3 14 7
f 4 8 9
f 4 9 10
f 4 10 11
f 5 6 12
f 5 12 13
f 5 13 14
f 6 15 12
f 7 14 16
f 8 17 18
f 8 18 9
f 9 18 31
f 9 31 42
f 9 42 52
f 9 52 50
f 9 50 56
f 9 56 57
f 9 57 53
f 9 53 46
f 9 46 45
f 9 45 32
f 9 32 20
f 9 20 19
f 9 19 10
f 10 19 20
f 10 20 32
f 10 32 21
f 10 21 36
f 10 36 22
f 10 22 23
f 10 23 11
f 12 15 28
f 12 28 24
f 12 24 13
f 13 24 25
f 13 25 26
f 13 26 14
f 14 26 27
f 14 27 16
f 16 27 29
f 17 30 40
f 17 40 43
f 17 43 31
f 17 31 18
f 21 32 33
f 21 33 34
f 21 34 35
f 21 35 36
f 24 28 41
f 24 41 37
f 24 37 25
f 25 37 38
f 25 38 39
f 25 39 26
f 26 39 40
f 26 40 27
f 27 40 30
f 27 30 29
f 31 43 44
f 31 44 42
f 32 45 33
f 33 45 46
f 33 46 47
f 33 47 48
f 33 48 49
f 33 49 34
f 37 41 48
f 37 48 55
f 37 55 56
f 37 56 50
f 37 50 51
f 37 51 38
f 38 51 42
f 38 42 39
f 39 44 40
f 39 42 44
f 40 44 43
f 42 51 52
f 46 53 47
f 47 53 54
f 47 54 48
f 48 54 55
f 50 52 51
f 53 57 55
f 53 55 54
f 55 57 56

