# https://github.com/mikedh/trimesh
v -249.39817244 -148.80137143 -2.30541439
v -249.39817244 -152.19219297 -1.25750622
v -252.22476399 -151.75996992 -0.90820349
v -252.59503102 -148.80137143 -1.25750622
v -249.39817244 -122.70967293 -2.30541439
v -181.06843448 -148.80137143 -2.30541439
v -224.72057921 -153.48277596 1.53199867
v -245.21166652 -153.64408946 1.88130139
v -249.39817244 -153.59235701 1.88130139
v -181.06843448 -152.19219297 -1.25750622
v -252.62348312 -152.21349457 1.88130139
v -253.74843532 -148.80137143 1.88130139
v -252.59503102 -122.70967293 -1.25750622
v -208.43735936 -122.70967293 -2.30541439
v -181.06843448 -132.04509422 -2.30541439
v -224.72057921 -153.64408946 1.88130139
v -194.87393826 -153.80541795 6.07293221
v -224.72057921 -153.78715944 5.60063375
v -245.21166652 -153.80237487 6.07293221
v -249.39817244 -153.69279382 6.07293221
v -181.06843448 -153.64104638 1.88621830
v -252.65196520 -152.24394041 6.07293221
v -253.80539948 -148.80137143 6.07293221
v -253.74843532 -122.70967293 1.88130139
v -207.49040517 -122.70967293 -2.30049373
v -181.06843448 -128.23422197 -1.25750622
v -194.87393826 -153.64408946 1.92557604
v -181.06843448 -153.80541795 6.07293221
v -194.87393826 -153.80541795 47.95482763
v -245.24014860 -153.80237487 47.95482763
v -249.39817244 -153.69279382 47.95482763
v -252.65196520 -152.24394041 47.95482763
v -253.80539948 -148.80137143 43.78779259
v -253.80539948 -122.70967293 6.07293221
v -204.24373293 -122.70967293 -1.81343893
v -181.06843448 -126.93146664 0.92686691
v -203.28253770 -122.70967293 -1.52809347
v -201.19640526 -122.70967293 -0.74093124
v -181.06843448 -153.80541795 47.95482763
v -253.79115844 -148.82571611 47.95482763
v -253.80539948 -144.64045441 47.95482763
v -253.80539948 -122.70967293 44.73238576
v -181.06843448 -126.36530286 1.88621830
v -200.79770112 -122.70967293 -0.48018530
v -181.06843448 -126.21007553 47.95482763
v -253.80539948 -122.71880218 47.95482763
v -252.89406288 -122.70967293 47.95482763
v -181.06843448 -126.21007553 6.07293221
v -200.30643022 -122.70967293 0.96622465
v -200.16401982 -122.70967293 31.20797293
v -200.17114034 -122.70967293 35.40452627
v -200.65529072 -122.70967293 38.70076389
v -201.40288535 -122.70967293 40.31444422
v -202.16472101 -122.70967293 40.98353136
v -203.53886142 -122.70967293 42.01176066
v -234.34669760 -122.70967293 47.95482763
v -200.16401982 -122.70967293 4.33625802
f 1 2 3
f 1 3 4
f 1 4 13
f 1 13 5
f 1 5 14
f 1 14 15
f 1 15 6
f 1 6 10
f 1 10 2
f 2 7 8
f 2 8 9
f 2 9 3
f 2 10 7
f 3 9 11
f 3 11 12
f 3 12 4
f 4 12 24
f 4 24 13
f 5 13 24
f 5 24 34
f 5 34 42
f 5 42 47
f 5 47 56
f 5 56 55
f 5 55 54
f 5 54 53
f 5 53 52
f 5 52 51
f 5 51 50
f 5 50 57
f 5 57 49
f 5 49 44
f 5 44 38
f 5 38 37
f 5 37 35
f 5 35 25
f 5 25 14
f 6 15 26
f 6 26 36
f 6 36 43
f 6 43 48
f 6 48 45
f 6 45 39
f 6 39 28
f 6 28 21
f 6 21 10
f 7 16 8
f 7 10 16
f 8 16 28
f 8 28 17
f 8 17 18
f 8 18 19
f 8 19 9
f 9 19 20
f 9 20 11
f 10 21 16
f 11 22 23
f 11 23 12
f 11 20 22
f 12 23 34
f 12 34 24
f 14 25 15
f 15 25 26
f 16 21 27
f 16 27 28
f 17 28 39
f 17 39 29
f 17 29 30
f 17 30 19
f 17 19 18
f 19 30 20
f 20 30 31
f 20 31 32
f 20 32 22
f 21 28 27
f 22 32 33
f 22 33 23
f 23 33 41
f 23 41 46
f 23 46 42
f 23 42 34
f 25 35 26
f 26 35 37
f 26 37 38
f 26 38 36
f 29 39 45
f 29 45 56
f 29 56 47
f 29 47 46
f 29 46 41
f 29 41 40
f 29 40 32
f 29 32 31
f 29 31 30
f 32 40 33
f 33 40 41
f 36 38 43
f 38 44 43
f 42 46 47
f 43 44 49
f 43 49 48
f 45 48 57
f 45 57 50
f 45 50 51
f 45 51 52
f 45 52 53
f 45 53 54
f 45 54 55
f 45 55 56
f 48 49 57

