# https://github.com/mikedh/trimesh
v -232.63819256 94.28535208 77.31541439
v -232.63819256 98.48095727 77.00400033
v -241.01854977 112.30050722 77.30295723
v -249.39889199 112.30050722 77.30295723
v -249.40165025 -94.32224387 77.30295723
v -232.63819256 -94.27898109 77.31541439
v -228.44663483 90.11137828 76.73306829
v -228.44663483 94.28535208 76.60538613
v -237.24311522 112.30050722 76.26594345
v -252.59560066 112.30050722 76.26594345
v -249.40165025 -108.63921085 77.30295723
v -228.44663483 -94.27898109 76.60538613
v -228.44663483 -90.10500729 76.73306829
v -241.01854977 -108.63921085 77.30295723
v -232.63819256 -94.32224387 77.31230010
v -226.00777432 90.11137828 75.69293648
v -226.10698190 94.28535208 75.56525806
v -226.25303501 96.53455192 75.36595096
v -236.70297506 112.30050722 75.35349380
v -253.74753588 112.30050722 73.13309834
v -252.59560066 -94.32224387 76.26594345
v -252.59284240 -108.63921085 76.26594345
v -226.10698190 -94.27898109 75.56525806
v -226.00777432 -90.10500729 75.69293648
v -232.64095083 -98.49621767 77.00400033
v -228.44939309 -94.32224387 76.60227184
v -226.10698190 -94.32224387 75.56214377
v -238.35644972 -108.63921085 76.70192539
v -225.66054779 90.11137828 73.13309834
v -225.85344642 94.28535208 73.13309834
v -226.20067295 96.59943110 73.13309834
v -235.39950019 112.30050722 73.13309834
v -253.78884989 112.30050722 70.16218884
v -253.74753588 -94.32224387 73.13309834
v -253.74753588 -108.63921085 73.12998405
v -225.66054779 -90.10500729 73.13309834
v -236.84628490 -108.63921085 76.28774348
v -228.70292857 -98.15019038 75.89847216
v -226.25579327 -96.52818093 75.36283667
v -225.85620469 -94.32224387 73.13309834
v -225.85344642 -94.27898109 73.13309834
v -225.65227300 90.11137828 68.94143754
v -225.85620469 96.44804135 45.50115269
v -226.01053259 97.46450680 45.50115269
v -234.63339221 112.30050722 45.50115269
v -235.23415422 112.30050722 68.94143754
v -253.79988295 112.30050722 68.94143754
v -253.80539948 -94.32224387 68.93832325
v -253.80539948 -108.63921085 68.93832325
v -225.65227300 -90.10500729 68.94143754
v -235.10737899 -108.63921085 73.12998405
v -226.20067295 -96.61469150 73.12998405
v -226.09320557 -97.11210853 46.58176560
v -225.85068816 -94.32224387 68.98192145
v -225.84792989 -94.27898109 68.94143754
v -225.65227300 90.11137828 45.50115269
v -253.79988295 112.30050722 45.50115269
v -253.80539948 -94.32224387 46.58176560
v -253.80539948 -108.63921085 46.58176560
v -225.65227300 -90.10500729 45.50115269
v -225.83139530 -94.30061248 45.50115269
v -235.00817141 -108.63921085 68.93832325
v -234.88141116 -108.63921085 46.58176560
v -253.79988295 -94.30061248 45.50115269
v -242.40745589 -94.32224387 45.50115269
f 1 2 3
f 1 3 4
f 1 4 5
f 1 5 11
f 1 11 6
f 1 6 13
f 1 13 7
f 1 7 8
f 1 8 2
f 2 8 3
f 3 8 9
f 3 9 19
f 3 19 32
f 3 32 46
f 3 46 45
f 3 45 57
f 3 57 47
f 3 47 33
f 3 33 20
f 3 20 10
f 3 10 4
f 4 10 5
f 5 10 21
f 5 21 11
f 6 12 13
f 6 11 14
f 6 14 15
f 6 15 12
f 7 13 24
f 7 24 16
f 7 16 8
f 8 16 17
f 8 17 18
f 8 18 9
f 9 18 19
f 10 20 34
f 10 34 21
f 11 21 22
f 11 22 35
f 11 35 49
f 11 49 59
f 11 59 63
f 11 63 62
f 11 62 51
f 11 51 37
f 11 37 28
f 11 28 14
f 12 23 24
f 12 24 13
f 12 15 25
f 12 25 26
f 12 26 27
f 12 27 23
f 14 25 15
f 14 28 25
f 16 24 36
f 16 36 29
f 16 29 17
f 17 29 30
f 17 30 18
f 18 31 32
f 18 32 19
f 18 30 31
f 20 33 34
f 21 34 35
f 21 35 22
f 23 27 24
f 24 27 36
f 25 28 37
f 25 37 26
f 26 37 38
f 26 38 39
f 26 39 27
f 27 39 40
f 27 40 41
f 27 41 36
f 29 42 43
f 29 43 30
f 29 36 50
f 29 50 42
f 30 43 31
f 31 44 45
f 31 45 46
f 31 46 32
f 31 43 44
f 33 47 48
f 33 48 49
f 33 49 34
f 34 49 35
f 36 41 50
f 37 51 39
f 37 39 38
f 39 51 52
f 39 52 40
f 40 52 53
f 40 53 54
f 40 54 41
f 41 55 50
f 41 54 55
f 42 50 60
f 42 60 56
f 42 56 43
f 43 56 60
f 43 60 61
f 43 61 65
f 43 65 64
f 43 64 57
f 43 57 45
f 43 45 44
f 47 57 58
f 47 58 48
f 48 58 59
f 48 59 49
f 50 55 61
f 50 61 60
f 51 62 52
f 52 62 53
f 53 62 63
f 53 63 61
f 53 61 54
f 54 61 55
f 57 64 59
f 57 59 58
f 59 64 65
f 59 65 63
f 61 63 65

