# https://github.com/mikedh/trimesh
v -181.06841949 -148.80222589 -2.29762304
v -181.06841949 -149.82879499 -1.98587169
v -181.06841949 -132.03938282 -2.29762304
v -24.72743687 -148.80222589 -2.29762304
v -181.06841949 -152.19261271 -1.26105523
v -24.72743687 -152.19261271 -1.26105523
v -181.06841949 -128.23024946 -1.26105523
v -35.63886157 -132.03938282 -2.29762304
v -24.72743687 -138.74992564 -2.29762304
v -181.06841949 -152.63296065 -0.31021849
v -24.72743687 -153.64602324 1.87982107
v -181.06841949 -126.92812374 0.92898433
v -35.63886157 -128.23024946 -1.26105523
v -31.44569235 -132.03938282 -2.26644641
v -27.25252312 -136.22941151 -2.29762304
v -24.72743687 -136.22941151 -2.24306487
v -181.06841949 -153.64602324 1.87982107
v -24.72743687 -153.80541795 6.07285163
v -181.06841949 -126.36350399 1.87982107
v -35.63886157 -126.36350399 1.87982107
v -31.44569235 -128.50040948 -1.22208725
v -24.72743687 -131.81245559 -1.28443677
v -24.72743687 -134.37617254 -1.88455419
v -181.06841949 -153.80541795 6.07285163
v -24.72743687 -153.80541795 68.93714837
v -181.06841949 -126.20682257 6.07285163
v -35.63886157 -126.20682257 6.07285163
v -31.44569235 -126.97405484 1.87982107
v -28.30846624 -129.16227305 -0.86357657
v -24.72743687 -130.32931876 1.87982107
v -181.06841949 -153.80541795 68.93714837
v -24.72743687 -153.70815915 71.45452572
v -181.06841949 -126.20682257 68.93714837
v -35.63886157 -126.20682257 68.93714837
v -31.44569235 -126.88760424 6.07285163
v -27.74223500 -128.76244462 1.87982107
v -24.72743687 -130.21585515 6.07285163
v -181.06841949 -153.64332494 73.13017893
v -24.72743687 -153.64332494 73.13017893
v -181.06841949 -126.31488958 71.85979948
v -35.63886157 -126.36350399 73.13017893
v -31.44569235 -126.97405484 73.13017893
v -31.44569235 -126.88760424 68.93714837
v -24.72743687 -130.21315685 10.26588407
v -181.06841949 -153.20297700 74.08101567
v -24.72743687 -152.77073896 75.01626223
v -181.06841949 -126.36350399 73.13017893
v -35.63886157 -128.23024946 76.27105523
v -31.44569235 -128.50040948 76.23208725
v -28.30846624 -129.16227305 75.87357657
v -27.78814362 -128.76244462 73.13017893
v -27.77283825 -128.75434971 68.93714837
v -24.72743687 -130.21315685 31.24662799
v -181.06841949 -152.18991441 76.26326014
v -24.72743687 -152.18991441 76.26326014
v -181.06841949 -128.23024946 76.27105523
v -35.63886157 -132.03938282 77.30762304
v -31.44569235 -132.03938282 77.27644641
v -181.06841949 -130.88582861 76.99587169
v -27.05357580 -131.81515390 76.45031245
v -24.72743687 -132.66342518 76.08400667
v -24.72743687 -131.08304453 73.13017893
v -24.72743687 -130.27799106 41.44083785
v -24.72743687 -130.25367635 39.59372182
v -24.72743687 -130.22396505 35.41627818
v -181.06841949 -148.80222589 77.29982795
v -24.72743687 -150.15567932 76.88676284
v -27.25252312 -136.22941151 77.30762304
v -181.06841949 -132.03938282 77.30762304
v -24.72743687 -136.22941151 77.03484342
v -181.06841949 -136.22941151 77.30762304
v -24.72743687 -148.80222589 77.29982795
v -24.72743687 -140.41945520 77.29982795
f 1 2 5
f 1 5 10
f 1 10 17
f 1 17 24
f 1 24 31
f 1 31 38
f 1 38 45
f 1 45 54
f 1 54 66
f 1 66 71
f 1 71 69
f 1 69 59
f 1 59 56
f 1 56 47
f 1 47 40
f 1 40 33
f 1 33 26
f 1 26 19
f 1 19 12
f 1 12 7
f 1 7 3
f 1 3 8
f 1 8 15
f 1 15 9
f 1 9 4
f 1 4 2
f 2 4 6
f 2 6 5
f 3 7 13
f 3 13 8
f 4 9 16
f 4 16 23
f 4 23 22
f 4 22 30
f 4 30 37
f 4 37 44
f 4 44 53
f 4 53 65
f 4 65 64
f 4 64 63
f 4 63 62
f 4 62 61
f 4 61 70
f 4 70 73
f 4 73 72
f 4 72 67
f 4 67 55
f 4 55 46
f 4 46 39
f 4 39 32
f 4 32 25
f 4 25 18
f 4 18 11
f 4 11 6
f 5 6 10
f 6 11 10
f 7 12 13
f 8 13 14
f 8 14 15
f 9 15 16
f 10 11 17
f 11 18 24
f 11 24 17
f 12 19 20
f 12 20 13
f 13 20 21
f 13 21 14
f 14 21 22
f 14 22 23
f 14 23 16
f 14 16 15
f 18 25 31
f 18 31 24
f 19 26 27
f 19 27 20
f 20 27 28
f 20 28 21
f 21 28 29
f 21 29 22
f 22 29 30
f 25 32 31
f 26 33 34
f 26 34 27
f 27 34 43
f 27 43 35
f 27 35 28
f 28 35 36
f 28 36 29
f 29 36 30
f 30 36 37
f 31 32 38
f 32 39 38
f 33 40 34
f 34 41 42
f 34 42 43
f 34 40 41
f 35 43 53
f 35 53 44
f 35 44 37
f 35 37 36
f 38 39 46
f 38 46 45
f 40 47 41
f 41 48 49
f 41 49 42
f 41 47 56
f 41 56 48
f 42 49 50
f 42 50 51
f 42 51 43
f 43 51 52
f 43 52 53
f 45 46 54
f 46 55 54
f 48 57 58
f 48 58 49
f 48 56 59
f 48 59 57
f 49 58 60
f 49 60 50
f 50 60 61
f 50 61 62
f 50 62 51
f 51 62 63
f 51 63 64
f 51 64 65
f 51 65 52
f 52 65 53
f 54 55 67
f 54 67 66
f 57 68 58
f 57 59 69
f 57 69 71
f 57 71 68
f 58 68 70
f 58 70 60
f 60 70 61
f 66 67 72
f 66 72 68
f 66 68 71
f 68 72 73
f 68 73 70

