# https://github.com/mikedh/trimesh
v 25.53724985 -148.80222589 -2.29762304
v 25.53724985 -150.79863977 -1.68971053
v 25.53724985 -140.41945520 -2.29762304
v 194.86320502 -148.80222589 -2.29762304
v 25.53724985 -152.19261271 -1.26105523
v 194.86320502 -152.19261271 -1.26105523
v 25.53724985 -136.22941151 -2.25865506
v 27.26134507 -136.22941151 -2.29762304
v 194.86320502 -132.03938282 -2.29762304
v 25.53724985 -153.64602324 1.87982107
v 194.86320502 -153.63251674 1.85643954
v 190.71874765 -153.64602324 1.87982107
v 25.53724985 -131.81245559 -1.33899120
v 31.43896158 -132.03938282 -2.26644641
v 35.63315016 -132.03938282 -2.29762304
v 194.86320502 -132.00965652 -2.28982795
v 25.53724985 -153.80541795 6.07285163
v 194.86320502 -153.80541795 6.07285163
v 25.53724985 -130.93175972 0.53150566
v 28.30575295 -129.16227305 -0.86357657
v 31.43896158 -128.50040948 -1.22208725
v 35.63315016 -128.23024946 -1.26105523
v 190.71874765 -128.23024946 -1.26105523
v 194.86320502 -128.32209668 -1.26105523
v 25.53724985 -153.80541795 68.93714837
v 194.86320502 -153.80541795 68.93714837
v 25.53724985 -130.32931876 1.87982107
v 27.74210759 -128.76244462 1.87982107
v 31.43896158 -126.97405484 1.87982107
v 35.63315016 -126.36350399 1.87982107
v 190.71874765 -126.36350399 1.87982107
v 194.86320502 -126.53370690 1.87982107
v 25.53724985 -153.64332494 73.13017893
v 194.86320502 -153.64332494 73.13017893
v 25.53724985 -130.22936165 6.07285163
v 27.70894845 -128.75434971 6.07285163
v 31.43896158 -126.88760424 6.07285163
v 35.63315016 -126.20682257 6.07285163
v 190.71874765 -126.20682257 6.07285163
v 194.86320502 -126.36350399 6.07285163
v 25.53724985 -152.78694376 74.97729425
v 194.86320502 -152.20072260 76.23988235
v 190.71874765 -152.18991441 76.26326014
v 25.53724985 -130.22666335 10.26588407
v 27.70894845 -128.75434971 39.59372182
v 31.43896158 -126.88760424 68.93714837
v 35.63315016 -126.20682257 68.93714837
v 190.71874765 -126.20682257 68.93714837
v 194.86320502 -126.36350399 35.44745294
v 25.53724985 -152.18991441 76.26326014
v 194.86320502 -148.82923889 77.29203660
v 25.53724985 -130.22666335 35.41627818
v 27.77525923 -128.75434971 68.93714837
v 31.43896158 -126.97405484 73.13017893
v 27.79183879 -128.76244462 73.13017893
v 35.63315016 -126.36350399 73.13017893
v 190.71874765 -126.36350399 73.13017893
v 194.86320502 -126.60665101 73.13017893
v 194.86320502 -126.49588570 68.93714837
v 25.53724985 -148.80222589 77.29982795
v 194.86320502 -148.80222589 77.29982795
v 25.53724985 -130.25367635 39.59372182
v 28.30575295 -129.16227305 75.87357657
v 31.43896158 -128.50040948 76.23208725
v 25.53724985 -130.44548067 68.93714837
v 25.68645097 -130.38605806 73.13017893
v 35.63315016 -128.23024946 76.27105523
v 190.71874765 -128.23024946 76.27105523
v 194.86320502 -128.33020657 76.27105523
v 25.53724985 -137.95568037 77.30762304
v 194.86320502 -136.26453441 77.30762304
v 25.53724985 -130.50221997 73.13017893
v 25.53724985 -130.56165758 73.29384595
v 25.53724985 -132.37436205 76.20870571
v 27.04583317 -131.81515390 76.45031245
v 31.43896158 -132.03938282 77.27644641
v 35.63315016 -132.03938282 77.30762304
v 194.86320502 -132.03938282 77.30762304
v 27.26134507 -136.22941151 77.30762304
v 25.53724985 -136.22941151 77.12057448
v 25.53724985 -133.50088826 76.60618812
f 1 2 5
f 1 5 10
f 1 10 17
f 1 17 25
f 1 25 33
f 1 33 41
f 1 41 50
f 1 50 60
f 1 60 70
f 1 70 80
f 1 80 81
f 1 81 74
f 1 74 73
f 1 73 72
f 1 72 65
f 1 65 62
f 1 62 52
f 1 52 44
f 1 44 35
f 1 35 27
f 1 27 19
f 1 19 13
f 1 13 7
f 1 7 3
f 1 3 8
f 1 8 15
f 1 15 9
f 1 9 4
f 1 4 2
f 2 4 6
f 2 6 5
f 3 7 8
f 4 9 16
f 4 16 24
f 4 24 32
f 4 32 40
f 4 40 49
f 4 49 59
f 4 59 58
f 4 58 69
f 4 69 78
f 4 78 71
f 4 71 61
f 4 61 51
f 4 51 42
f 4 42 34
f 4 34 26
f 4 26 18
f 4 18 11
f 4 11 6
f 5 6 12
f 5 12 10
f 6 11 12
f 7 13 14
f 7 14 8
f 8 14 15
f 9 15 16
f 10 12 18
f 10 18 17
f 11 18 12
f 13 19 20
f 13 20 21
f 13 21 14
f 14 21 22
f 14 22 15
f 15 22 16
f 16 23 24
f 16 22 23
f 17 18 26
f 17 26 25
f 19 27 20
f 20 28 29
f 20 29 21
f 20 27 28
f 21 29 30
f 21 30 22
f 22 30 31
f 22 31 23
f 23 31 24
f 24 31 32
f 25 26 34
f 25 34 33
f 27 35 28
f 28 36 37
f 28 37 29
f 28 35 36
f 29 37 38
f 29 38 30
f 30 38 39
f 30 39 31
f 31 39 40
f 31 40 32
f 33 34 41
f 34 42 43
f 34 43 41
f 35 44 36
f 36 45 46
f 36 46 37
f 36 44 52
f 36 52 45
f 37 46 47
f 37 47 38
f 38 47 48
f 38 48 39
f 39 48 49
f 39 49 40
f 41 43 50
f 42 51 43
f 43 51 50
f 45 53 46
f 45 52 53
f 46 54 47
f 46 53 55
f 46 55 54
f 47 54 56
f 47 56 57
f 47 57 48
f 48 57 58
f 48 58 59
f 48 59 49
f 50 51 60
f 51 61 60
f 52 62 55
f 52 55 53
f 54 55 63
f 54 63 64
f 54 64 56
f 55 62 65
f 55 65 66
f 55 66 63
f 56 64 67
f 56 67 68
f 56 68 57
f 57 68 69
f 57 69 58
f 60 61 70
f 61 71 70
f 63 66 72
f 63 72 73
f 63 73 74
f 63 74 75
f 63 75 64
f 64 76 67
f 64 75 76
f 65 72 66
f 67 76 77
f 67 77 78
f 67 78 68
f 68 78 69
f 70 79 80
f 70 71 78
f 70 78 77
f 70 77 79
f 74 81 75
f 75 81 76
f 76 79 77
f 76 81 80
f 76 80 79

