# https://github.com/mikedh/trimesh
v 225.65227300 -79.28739357 43.94018670
v 253.80264121 -79.28739357 43.94018670
v 225.65227300 -79.28739357 54.50085646
v 225.65227300 90.11107847 43.94018670
v 253.80264121 -79.28739357 54.50085646
v 253.80264121 110.15702087 43.94018670
v 225.65227300 90.11107847 54.50085646
v 225.89477542 98.02932143 43.94018670
v 253.80264121 110.15702087 54.50085646
v 232.31300217 110.15702087 43.94018670
v 225.84792989 94.30199161 54.50085646
v 226.19791469 96.61998317 54.50085646
v 226.04082853 95.58152655 54.50085646
v 235.15146625 110.15702087 54.50085646
f 1 2 5
f 1 5 3
f 1 3 7
f 1 7 4
f 1 4 8
f 1 8 10
f 1 10 6
f 1 6 2
f 2 6 9
f 2 9 5
f 3 5 9
f 3 9 14
f 3 14 12
f 3 12 13
f 3 13 11
f 3 11 7
f 4 7 8
f 6 10 14
f 6 14 9
f 7 11 8
f 8 12 10
f 8 11 13
f 8 13 12
f 10 12 14

