# https://github.com/mikedh/trimesh
v -24.72743874 -148.79738393 -2.30541439
v -24.72743874 -152.18841535 -1.26161738
v -24.72743874 -138.74311993 -2.30541439
v 0.04248151 -148.79738393 -2.30541439
v -24.72743874 -153.63989210 1.87926268
v 25.52067590 -152.18841535 -1.26161738
v -24.72743874 -136.22638342 -2.24373570
v -10.47833969 -119.46644852 -2.25322473
v -14.66404361 -127.84854463 -2.30541439
v 0.04248151 -115.27752912 -2.30541439
v 25.52067590 -148.79738393 -2.30066987
v -24.72743874 -153.73751068 4.39860754
v 25.52067590 -153.63989210 1.87926268
v 25.52067590 -153.73751068 4.35116239
v -24.72743874 -134.37170535 -1.88315257
v -14.66404361 -123.65961774 -2.12512283
v -10.37504999 -115.23084849 -1.23789481
v -6.28771839 -115.27752912 -2.05869962
v -2.09709640 -115.27752912 -2.30541439
v -6.28771839 -119.46644852 -2.30541439
v -10.47833969 -123.65961774 -2.30541439
v -14.72798494 -119.49615982 -1.29008447
v 2.09352513 -111.93742816 -1.26161738
v 2.09352513 -115.27752912 -2.30066987
v 10.47968790 -123.65961774 -2.30066987
v 14.66539088 -127.84854463 -2.30066987
v 25.52067590 -140.41530281 -2.30066987
v -24.72743874 -153.80117562 6.06868051
v 25.52067590 -153.80117562 6.06868051
v -24.72743874 -131.81677288 -1.28533995
v -8.91423505 -112.86688836 -0.59263704
v -6.28771839 -112.36184113 -1.01964338
v -13.37537754 -116.59744865 -0.84409633
v -2.09709640 -111.93742816 -1.26161738
v 2.09352513 -110.57083550 1.87926268
v 6.28414689 -112.36184113 -1.01489886
v 6.28414689 -115.27752912 -2.05869962
v 10.47968790 -119.46644852 -2.24848021
v 25.52067590 -136.22638342 -2.25796924
v -24.72743874 -153.80117562 45.27271892
v 25.52067590 -153.80117562 46.16468958
v -24.72743874 -130.33132750 1.87926268
v -17.19710672 -120.91369043 -0.67803831
v -11.28006713 -114.11040846 1.87926268
v -9.17983793 -112.70137000 1.87926268
v -6.28771839 -111.50028820 1.87926268
v -2.09709640 -110.57083550 1.87926268
v -15.87892984 -118.48606536 1.87926268
v -13.78361943 -116.20698932 1.87926268
v 2.09352513 -110.44775544 6.06868051
v 6.28414689 -111.50028820 1.87926268
v 8.91066355 -112.86688836 -0.59263704
v 10.37639727 -115.23084849 -1.23789481
v 14.72933221 -119.49615982 -1.29008447
v 25.52067590 -131.81677288 -1.33752962
v -24.72743874 -130.53504932 45.27271892
v 0.04740009 -153.80117562 46.16468958
v 25.52067590 -130.42470375 46.16468958
v -24.72743874 -130.22098193 6.06868051
v -11.28498591 -114.10191630 6.06868051
v -9.18967456 -112.69712017 6.06868051
v -6.28771839 -111.45784990 6.06868051
v -2.09709640 -110.44775544 6.06868051
v -15.88876740 -118.48182303 6.06868051
v -13.78853821 -116.19850466 6.06868051
v 2.09352513 -110.44775544 35.40884449
v 6.28414689 -111.45784990 6.06868051
v 9.18610306 -112.70137000 1.87926268
v 11.28141440 -114.11040846 1.87926268
v 13.37180697 -116.59744865 -0.83935181
v 17.19845399 -120.91369043 -0.68278282
v 25.52067590 -130.93399331 0.53655749
v -2.09709640 -112.65043955 41.99899432
v -6.28771839 -112.90932666 41.86614791
v -8.44697061 -113.14275229 41.72381246
v -12.91303281 -117.05156542 41.87089242
v -13.43440103 -116.54226837 39.59826233
v -15.52971144 -118.83832872 39.59826233
v -15.88876740 -118.48182303 35.40409998
v -24.72743874 -130.28040454 41.44388421
v 0.04740009 -134.83855662 46.16468958
v 25.52067590 -130.33982715 43.77344849
v 15.89011468 -118.48182303 35.40884449
v 13.78988549 -116.19850466 35.40884449
v 13.43574831 -116.54226837 39.59826233
v 12.90946131 -117.05156542 41.87563694
v 8.44831788 -113.14275229 41.72855698
v 6.28414689 -112.90932666 41.87089242
v 2.09352513 -112.65043955 41.99899432
v -24.72743874 -130.21673959 10.26284285
v -11.28498591 -114.10191630 35.40409998
v -9.18967456 -112.69712017 35.40409998
v -6.28771839 -111.45784990 35.40409998
v -2.09709640 -110.44775544 35.40409998
v -13.78853821 -116.19850466 35.40409998
v 0.04740009 -110.44775544 35.40884449
v 2.09352513 -111.28383939 39.59826233
v 6.28414689 -112.04777373 39.59826233
v 6.28414689 -111.45784990 35.40884449
v 9.19102184 -112.69712017 6.06868051
v 11.28633318 -114.10191630 6.06868051
v 13.78496671 -116.20698932 1.87926268
v 15.88027712 -118.48606536 1.87926268
v 25.52067590 -130.33132750 1.87926268
v -2.09709640 -111.28383939 39.59826233
v -6.28771839 -112.04777373 39.59826233
v -8.83553738 -112.91356899 39.59826233
v -10.93084873 -114.44568750 39.59826233
v -24.72743874 -130.21673959 31.24314830
v -24.72743874 -130.22948158 35.40409998
v -24.72743874 -130.25493556 39.59826233
v 25.52067590 -130.25493556 39.59826233
v 25.52067590 -130.22948158 35.62709218
v 15.89011468 -118.48182303 6.06868051
v 13.78988549 -116.19850466 6.06868051
v 11.28633318 -114.10191630 35.40884449
v 10.93219600 -114.44568750 39.59826233
v 8.83688465 -112.91356899 39.59826233
v 9.19102184 -112.69712017 35.40884449
v 25.52067590 -130.22948158 6.47670878
v 25.52067590 -130.23372391 6.06868051
f 1 2 5
f 1 5 12
f 1 12 28
f 1 28 40
f 1 40 56
f 1 56 80
f 1 80 111
f 1 111 110
f 1 110 109
f 1 109 90
f 1 90 59
f 1 59 42
f 1 42 30
f 1 30 15
f 1 15 7
f 1 7 3
f 1 3 9
f 1 9 21
f 1 21 20
f 1 20 19
f 1 19 10
f 1 10 4
f 1 4 6
f 1 6 2
f 2 6 13
f 2 13 5
f 3 7 8
f 3 8 9
f 4 10 27
f 4 27 11
f 4 11 6
f 5 13 14
f 5 14 12
f 6 11 27
f 6 27 39
f 6 39 55
f 6 55 72
f 6 72 104
f 6 104 121
f 6 121 120
f 6 120 113
f 6 113 112
f 6 112 82
f 6 82 58
f 6 58 41
f 6 41 29
f 6 29 14
f 6 14 13
f 7 15 16
f 7 16 8
f 8 17 18
f 8 18 19
f 8 19 20
f 8 20 21
f 8 21 9
f 8 16 22
f 8 22 17
f 10 19 34
f 10 34 23
f 10 23 24
f 10 24 25
f 10 25 26
f 10 26 27
f 12 14 28
f 14 29 28
f 15 30 22
f 15 22 16
f 17 31 32
f 17 32 18
f 17 22 33
f 17 33 31
f 18 32 34
f 18 34 19
f 22 30 33
f 23 35 36
f 23 36 37
f 23 37 24
f 23 34 47
f 23 47 35
f 24 37 38
f 24 38 25
f 25 38 26
f 26 38 39
f 26 39 27
f 28 29 41
f 28 41 57
f 28 57 40
f 30 42 43
f 30 43 33
f 31 33 44
f 31 44 45
f 31 45 46
f 31 46 32
f 32 46 47
f 32 47 34
f 33 43 48
f 33 48 49
f 33 49 44
f 35 50 51
f 35 51 36
f 35 47 63
f 35 63 50
f 36 51 52
f 36 52 53
f 36 53 37
f 37 53 38
f 38 53 54
f 38 54 39
f 39 54 55
f 40 57 81
f 40 81 56
f 41 58 81
f 41 81 57
f 42 59 48
f 42 48 43
f 44 49 65
f 44 65 60
f 44 60 45
f 45 61 62
f 45 62 46
f 45 60 61
f 46 62 63
f 46 63 47
f 48 59 64
f 48 64 49
f 49 64 65
f 50 66 99
f 50 99 67
f 50 67 51
f 50 63 94
f 50 94 96
f 50 96 66
f 51 67 68
f 51 68 52
f 52 68 69
f 52 69 70
f 52 70 53
f 53 70 54
f 54 70 55
f 55 70 71
f 55 71 72
f 56 73 74
f 56 74 75
f 56 75 76
f 56 76 77
f 56 77 78
f 56 78 79
f 56 79 80
f 56 81 58
f 56 58 73
f 58 82 83
f 58 83 84
f 58 84 85
f 58 85 86
f 58 86 87
f 58 87 88
f 58 88 89
f 58 89 73
f 59 90 64
f 60 65 95
f 60 95 91
f 60 91 92
f 60 92 61
f 61 92 93
f 61 93 62
f 62 93 94
f 62 94 63
f 64 79 95
f 64 95 65
f 64 90 109
f 64 109 79
f 66 96 105
f 66 105 97
f 66 97 98
f 66 98 99
f 67 99 119
f 67 119 100
f 67 100 68
f 68 100 101
f 68 101 69
f 69 101 115
f 69 115 102
f 69 102 70
f 70 102 103
f 70 103 71
f 71 104 72
f 71 103 104
f 73 105 74
f 73 89 97
f 73 97 105
f 74 105 75
f 75 105 106
f 75 106 107
f 75 107 108
f 75 108 77
f 75 77 76
f 77 95 79
f 77 79 78
f 77 108 91
f 77 91 95
f 79 109 110
f 79 110 111
f 79 111 80
f 82 112 83
f 83 112 113
f 83 113 120
f 83 120 114
f 83 114 115
f 83 115 84
f 84 115 101
f 84 101 116
f 84 116 117
f 84 117 85
f 85 117 87
f 85 87 86
f 87 118 98
f 87 98 97
f 87 97 88
f 87 117 118
f 88 97 89
f 91 108 107
f 91 107 92
f 92 107 93
f 93 107 106
f 93 106 94
f 94 106 105
f 94 105 96
f 98 118 99
f 99 118 119
f 100 119 116
f 100 116 101
f 102 115 114
f 102 114 103
f 103 114 120
f 103 120 121
f 103 121 104
f 116 119 118
f 116 118 117

