# https://github.com/mikedh/trimesh
v -225.49494699 148.80012721 77.30254499
v -225.49494699 151.18900916 76.57264673
v -249.40154532 148.80012721 77.30254499
v -225.49494699 140.41869068 77.30254499
v -249.40154532 152.18844533 76.26516769
v -225.49494699 152.18844533 76.26516769
v -252.22842169 151.75779629 75.92033590
v -252.59425151 148.80012721 76.26516769
v -251.66582566 112.30456217 76.56977229
v -249.40154532 112.30456217 77.30254499
v -225.49494699 139.17955533 77.23070644
v -241.02066344 112.30456217 77.30254499
v -245.21109688 153.64290521 73.13292595
v -249.40154532 153.58601600 73.13292595
v -225.49494699 153.64290521 73.13292595
v -252.62198406 152.21688244 73.13292595
v -253.74720609 148.80012721 73.13292595
v -253.41183710 112.30456217 74.04673599
v -252.59425151 112.30456217 76.26516769
v -225.49494699 136.07970071 76.50655331
v -239.91483921 112.30456217 77.00081483
v -237.24316019 112.30456217 76.26516769
v -245.21109688 153.80541795 68.94031325
v -249.40154532 153.69571698 68.94031325
v -225.49494699 153.80541795 68.94031325
v -252.65247488 152.24125710 68.94031325
v -253.80539948 148.80012721 68.94031325
v -253.78875995 112.30456217 70.16160046
v -253.74720609 112.30456217 73.13292595
v -225.49494699 135.06401476 76.19332914
v -236.70272022 112.30456217 75.35423209
v -225.49494699 133.97112739 75.63297420
v -245.21109688 153.80541795 47.94851941
v -249.40154532 153.69571698 47.94851941
v -252.62474233 152.25750688 47.94851941
v -225.49494699 153.80541795 47.94851941
v -252.65247488 152.24125710 47.94851941
v -253.80539948 148.80012721 47.94851941
v -253.80539948 112.30456217 68.94031325
v -235.39459828 112.30456217 73.13292595
v -225.49494699 133.83706674 75.48354447
v -225.49494699 133.26827961 47.94851941
v -253.80539948 112.30456217 47.94851941
v -235.23385441 112.30456217 68.94031325
v -225.49494699 133.40235525 73.14729066
v -225.49494699 133.34140360 68.94031325
v -235.13962370 112.30456217 47.94851941
f 1 2 3
f 1 3 10
f 1 10 12
f 1 12 4
f 1 4 11
f 1 11 20
f 1 20 30
f 1 30 32
f 1 32 41
f 1 41 45
f 1 45 46
f 1 46 42
f 1 42 36
f 1 36 25
f 1 25 15
f 1 15 6
f 1 6 2
f 2 5 3
f 2 6 5
f 3 5 7
f 3 7 8
f 3 8 9
f 3 9 10
f 4 12 11
f 5 6 15
f 5 15 13
f 5 13 14
f 5 14 7
f 7 14 16
f 7 16 17
f 7 17 8
f 8 17 18
f 8 18 19
f 8 19 9
f 9 19 18
f 9 18 29
f 9 29 28
f 9 28 39
f 9 39 43
f 9 43 47
f 9 47 44
f 9 44 40
f 9 40 31
f 9 31 22
f 9 22 21
f 9 21 12
f 9 12 10
f 11 12 21
f 11 21 22
f 11 22 20
f 13 15 25
f 13 25 23
f 13 23 14
f 14 23 24
f 14 24 16
f 16 24 26
f 16 26 27
f 16 27 17
f 17 27 28
f 17 28 29
f 17 29 18
f 20 22 30
f 22 31 32
f 22 32 30
f 23 25 36
f 23 36 33
f 23 33 34
f 23 34 24
f 24 34 35
f 24 35 26
f 26 35 37
f 26 37 38
f 26 38 27
f 27 38 43
f 27 43 39
f 27 39 28
f 31 40 32
f 32 40 41
f 33 36 42
f 33 42 47
f 33 47 43
f 33 43 38
f 33 38 37
f 33 37 35
f 33 35 34
f 40 44 45
f 40 45 41
f 42 46 47
f 44 47 46
f 44 46 45

