# https://github.com/mikedh/trimesh
v 0.04036023 148.80405474 77.30533323
v -25.60922519 137.86674133 77.30846626
v 0.04036023 140.42252827 77.30533323
v 0.04036023 152.18880510 76.26740878
v -25.60922519 148.80405474 77.30533323
v -25.60922519 136.22947147 77.13286674
v -25.60922519 133.40271503 76.59666162
v 0.04036023 136.94362214 76.26740878
v 0.04036023 152.93052343 74.66819998
v -25.60922519 152.75829679 75.04134895
v -25.60922519 152.18880510 76.26740878
v -25.60922519 132.33952397 76.22350890
v -25.60922519 130.46343938 73.20695687
v 0.04036023 135.37754250 73.13170422
v 0.04036023 153.64236555 73.13170422
v -25.60922519 153.64236555 73.13170422
v -25.60922519 130.43818027 73.13170422
v 0.04036023 135.19612664 68.94239507
v 0.04036023 153.80541795 68.94239507
v -25.60922519 153.70667508 71.49486159
v -25.60922519 130.38305995 68.94239507
v 0.04036023 134.67027250 45.27719922
v -25.60922519 153.80541795 68.94239507
v 0.04036023 153.80541795 45.27719922
v -25.60922519 130.34862661 45.27719922
v -25.60922519 153.80541795 45.27719922
f 1 2 3
f 1 3 8
f 1 8 14
f 1 14 18
f 1 18 22
f 1 22 24
f 1 24 19
f 1 19 15
f 1 15 9
f 1 9 4
f 1 4 11
f 1 11 5
f 1 5 2
f 2 5 11
f 2 11 10
f 2 10 16
f 2 16 20
f 2 20 23
f 2 23 26
f 2 26 25
f 2 25 21
f 2 21 17
f 2 17 13
f 2 13 12
f 2 12 7
f 2 7 6
f 2 6 3
f 3 6 7
f 3 7 8
f 4 9 10
f 4 10 11
f 7 12 8
f 8 12 13
f 8 13 14
f 9 15 10
f 10 15 16
f 13 17 14
f 14 17 18
f 15 19 20
f 15 20 16
f 17 21 22
f 17 22 18
f 19 23 20
f 19 24 26
f 19 26 23
f 21 25 22
f 22 25 26
f 22 26 24

