# https://github.com/mikedh/trimesh
v 225.53847960 124.25801873 -2.30541439
v 225.53847960 148.79891297 -2.30541439
v 249.40001628 124.25801873 -2.30541439
v 225.53847960 124.25801873 42.55750354
v 249.40001628 148.79891297 -2.30541439
v 225.53847960 152.18864021 -1.26118640
v 252.59614033 124.25801873 -1.26118640
v 234.20533654 124.25801873 74.66367282
v 225.59659803 133.81407121 75.57542916
v 225.53847960 133.78513941 75.23254240
v 249.40001628 152.18864021 -1.26118640
v 252.22809190 151.75769135 -0.91051204
v 252.59614033 148.79891297 -1.26118640
v 225.53847960 153.64345986 1.87930015
v 253.75005430 124.25801873 1.87930015
v 234.78368765 124.25801873 75.82479726
v 234.30496386 124.52120814 75.68452302
v 225.53847960 133.90951616 75.60659455
v 245.21048227 153.64345986 1.87930015
v 249.40001628 153.58850443 1.87930015
v 252.62102467 152.21467882 1.87930015
v 253.75005430 148.79891297 1.87930015
v 225.53847960 153.80252478 6.07180229
v 253.80539948 124.25801873 6.07180229
v 236.54362532 124.25801873 76.49497310
v 225.53847960 136.08739087 76.51055579
v 245.21048227 153.80252478 6.07180229
v 249.40001628 153.69262892 6.07180229
v 252.64869726 152.24070245 6.07180229
v 253.80539948 148.79891297 6.07180229
v 225.53847960 153.80252478 68.93599409
v 253.80539948 124.25801873 68.93599409
v 241.01817501 124.25801873 77.30541568
v 225.53847960 140.41711667 77.30541568
v 249.37234369 153.69552210 48.00464222
v 245.21048227 153.80252478 68.93599409
v 249.40001628 153.69262892 68.93599409
v 252.65700203 152.22046518 48.00464222
v 252.64869726 152.24070245 68.93599409
v 253.80539948 148.79891297 68.93599409
v 225.53847960 153.64056668 73.12849623
v 253.74450779 124.25801873 73.12849623
v 249.40001628 124.25801873 77.30541568
v 225.53847960 148.79891297 77.30541568
v 245.21048227 153.64056668 73.12849623
v 249.40001628 153.58561125 73.12849623
v 252.62102467 152.21467882 73.12849623
v 253.74450779 148.79891297 73.12849623
v 225.53847960 152.63116178 75.30267577
v 252.59335208 124.25801873 76.26118769
v 249.40001628 148.79891297 77.30541568
v 225.53847960 152.18574703 76.26118769
v 249.40001628 152.18574703 76.26118769
v 252.22809190 151.75769135 75.91830843
v 252.59335208 148.79891297 76.26118769
f 1 2 5
f 1 5 3
f 1 3 7
f 1 7 15
f 1 15 24
f 1 24 32
f 1 32 42
f 1 42 50
f 1 50 43
f 1 43 33
f 1 33 25
f 1 25 16
f 1 16 8
f 1 8 4
f 1 4 10
f 1 10 18
f 1 18 26
f 1 26 34
f 1 34 44
f 1 44 52
f 1 52 49
f 1 49 41
f 1 41 31
f 1 31 23
f 1 23 14
f 1 14 6
f 1 6 2
f 2 6 11
f 2 11 5
f 3 5 13
f 3 13 7
f 4 8 9
f 4 9 10
f 5 11 12
f 5 12 13
f 6 14 19
f 6 19 11
f 7 13 22
f 7 22 15
f 8 16 17
f 8 17 9
f 9 17 18
f 9 18 10
f 11 19 20
f 11 20 12
f 12 20 21
f 12 21 22
f 12 22 13
f 14 23 27
f 14 27 19
f 15 22 30
f 15 30 24
f 16 18 17
f 16 25 26
f 16 26 18
f 19 27 20
f 20 27 28
f 20 28 21
f 21 28 29
f 21 29 30
f 21 30 22
f 23 31 36
f 23 36 27
f 24 30 40
f 24 40 32
f 25 33 34
f 25 34 26
f 27 35 28
f 27 36 35
f 28 35 37
f 28 37 39
f 28 39 29
f 29 38 30
f 29 39 38
f 30 38 40
f 31 41 45
f 31 45 36
f 32 40 48
f 32 48 42
f 33 43 51
f 33 51 44
f 33 44 34
f 35 36 37
f 36 45 46
f 36 46 37
f 37 46 47
f 37 47 39
f 38 39 40
f 39 47 40
f 40 47 48
f 41 49 45
f 42 48 55
f 42 55 50
f 43 50 55
f 43 55 51
f 44 51 53
f 44 53 52
f 45 49 53
f 45 53 46
f 46 53 54
f 46 54 47
f 47 54 48
f 48 54 55
f 49 52 53
f 51 55 54
f 51 54 53

