# https://github.com/mikedh/trimesh
v 253.80539948 -79.27681772 47.40133837
v 253.80539948 124.20070229 43.93218174
v 253.06654435 124.22792517 43.93218174
v 225.66023299 -79.27681772 47.40133837
v 253.80539948 -148.79014349 47.40133837
v 253.80539948 124.22792517 43.78621483
v 231.08394048 124.22792517 43.93218174
v 225.89545000 97.99031597 43.93218174
v 225.65747473 90.09725717 43.93218174
v 225.53847960 99.13344423 43.21207607
v 225.53847960 -133.05847162 47.40133837
v 252.64593899 -152.21953577 47.40133837
v 253.80539948 -148.79014349 6.07311584
v 253.80539948 124.22792517 6.07311584
v 225.53847960 124.22792517 42.56008754
v 225.53847960 -153.77093965 47.40133837
v 249.40001628 -153.66204816 47.40133837
v 252.64593899 -152.21953577 6.07311584
v 252.61826640 -152.19231290 1.88384979
v 253.75005430 -148.79014349 1.88384979
v 253.75005430 -79.27681772 1.87898535
v 253.75005430 124.22792517 1.87898535
v 225.53847960 124.22792517 -2.30054620
v 225.53847960 -153.77093965 6.07311584
v 245.21048227 -153.77093965 47.40133837
v 249.40001628 -153.66204816 6.07311584
v 252.22809190 -151.72961402 -0.90899050
v 249.40001628 -153.58040953 1.88384979
v 252.59614033 -148.79014349 -1.25444814
v 252.59614033 -79.27681772 -1.25931258
v 252.59614033 124.22792517 -1.25931258
v 249.40001628 124.22792517 -2.30054620
v 232.64463851 -79.27681772 -2.30541064
v 225.53847960 -106.87529318 -2.30541064
v 245.21048227 -153.77093965 6.07311584
v 225.53847960 -153.63482529 1.88384979
v 249.40001628 -152.16509002 -1.25444814
v 249.40001628 -148.79014349 -2.30541064
v 245.21048227 -153.63482529 1.88384979
v 249.40001628 -79.27681772 -2.30541064
v 225.53847960 -148.79014349 -2.30541064
v 225.53847960 -152.16509002 -1.25444814
f 1 2 3
f 1 3 7
f 1 7 4
f 1 4 11
f 1 11 16
f 1 16 25
f 1 25 17
f 1 17 12
f 1 12 5
f 1 5 13
f 1 13 14
f 1 14 6
f 1 6 2
f 2 6 3
f 3 6 14
f 3 14 22
f 3 22 31
f 3 31 32
f 3 32 23
f 3 23 15
f 3 15 7
f 4 7 8
f 4 8 9
f 4 9 10
f 4 10 11
f 5 12 18
f 5 18 13
f 7 15 8
f 8 15 9
f 9 15 10
f 10 15 23
f 10 23 34
f 10 34 41
f 10 41 42
f 10 42 36
f 10 36 24
f 10 24 16
f 10 16 11
f 12 17 26
f 12 26 18
f 13 18 19
f 13 19 20
f 13 20 21
f 13 21 22
f 13 22 14
f 16 24 35
f 16 35 25
f 17 25 35
f 17 35 26
f 18 26 19
f 19 27 20
f 19 26 28
f 19 28 27
f 20 27 29
f 20 29 30
f 20 30 21
f 21 30 31
f 21 31 22
f 23 32 40
f 23 40 33
f 23 33 34
f 24 36 39
f 24 39 35
f 26 35 28
f 27 28 37
f 27 37 38
f 27 38 29
f 28 35 39
f 28 39 37
f 29 38 30
f 30 38 40
f 30 40 31
f 31 40 32
f 33 40 38
f 33 38 41
f 33 41 34
f 36 42 37
f 36 37 39
f 37 42 41
f 37 41 38

