# https://github.com/mikedh/trimesh
v 14.24296265 -32.54746862 17.46528027
v 14.93283990 -32.23825889 17.46528027
v 14.93283990 -32.23825889 18.01181177
v 14.24296265 -32.54463284 18.01181177
v 14.24296265 -4.59672750 17.46528027
v 15.20755250 -32.10776682 17.46528027
v 14.90598837 -32.22407711 18.37699839
v 14.38341615 -32.45952768 18.37699839
v 14.24296265 -32.54179417 18.07874363
v 15.42029948 -32.00564410 18.01181177
v 15.39138267 -31.99713388 18.37699839
v 14.24296265 -4.59672750 18.37699839
v 28.36273767 -3.56697851 17.46528027
v 15.42029948 -32.00564410 17.46528027
v 14.24296265 -32.51910216 18.37699839
v 14.24296265 -32.53328394 18.20011719
v 15.69088007 -31.87231626 17.46528027
v 16.03788470 -31.69927305 18.01181177
v 16.03788470 -31.67374237 18.37699839
v 28.38958920 -3.56697851 18.37699839
v 28.37512935 -3.56697851 18.17709207
v 28.36480295 -3.56697851 18.01181177
v 28.36273767 -3.56697851 17.49142793
v 35.34413587 -3.56697851 17.46528027
v 16.03788470 -31.69927305 17.46528027
v 16.39315045 -31.51488385 17.46528027
v 16.85169177 -31.27659171 18.01181177
v 16.32085697 -31.52906563 18.37699839
v 35.31934962 -3.56697851 18.37699839
v 35.25325488 -4.37829594 17.46528027
v 35.34207059 -3.56697851 18.01181177
v 35.25325488 -4.37829594 18.01181177
v 16.85169177 -31.27659171 17.46528027
v 16.82690551 -31.26240993 18.37699839
v 17.33708461 -31.00993602 18.01181177
v 17.31229836 -30.99859001 18.37699839
v 17.13053493 -31.09787696 18.37699839
v 35.34000531 -3.56697851 18.07383678
v 35.23053390 -4.37829594 18.37699839
v 35.12106250 -5.34847335 17.46528027
v 35.05703014 -5.68321230 18.37699839
v 35.12106250 -5.34847335 18.01181177
v 17.33708461 -31.00993602 17.46528027
v 17.98152137 -30.63548026 18.01181177
v 17.98152137 -30.61278825 18.37699839
v 17.57874840 -30.84540304 18.37699839
v 35.07562055 -5.63498672 17.46528027
v 35.01159109 -5.96688990 18.37699839
v 35.01778693 -5.99809430 18.01181177
v 17.98152137 -30.63548026 17.46528027
v 18.64661382 -30.23833249 18.01181177
v 18.62802341 -30.22698649 18.37699839
v 35.01778693 -5.99809430 17.46528027
v 34.97441027 -6.18248496 18.37699839
v 34.93103650 -6.48601951 18.01181177
v 18.64661382 -30.23833249 17.46528027
v 18.92132497 -30.06812796 17.46528027
v 19.13200667 -29.93196144 18.01181177
v 19.11341770 -29.92061544 18.37699839
v 34.93103650 -6.48601951 17.46528027
v 34.74720634 -7.29166394 18.37699839
v 34.77199259 -7.29166394 18.01181177
v 19.13407195 -29.93196144 17.46528027
v 19.86939114 -29.44687274 18.01181177
v 19.85080218 -29.43268806 18.37699839
v 34.77199259 -7.29166394 17.46528027
v 34.53032880 -8.26467785 18.37699839
v 34.55304978 -8.26467785 18.01181177
v 34.67697814 -7.71718033 17.46528027
v 19.86939114 -29.44687274 17.46528027
v 20.35684927 -29.11780679 18.01181177
v 20.33619503 -29.10362501 18.37699839
v 34.28246629 -9.23485453 18.37699839
v 34.30725543 -9.23485453 18.01181177
v 34.55304978 -8.26467785 17.46528027
v 34.44564365 -8.69019352 17.46528027
v 20.35684927 -29.11780679 17.46528027
v 21.16446194 -28.53059536 17.46528027
v 20.89801191 -28.72349480 18.01181177
v 20.89801191 -28.69512834 18.37699839
v 34.21637154 -9.47881677 18.37699839
v 34.09657374 -9.98659965 18.01181177
v 34.30725543 -9.23485453 17.46528027
v 21.50526929 -28.27812435 17.46528027
v 21.50526929 -28.27812435 18.01181177
v 21.10662687 -28.54194137 18.37699839
v 34.08417917 -9.94972152 18.37699839
v 33.99329817 -10.25325679 18.37699839
v 33.94992151 -10.47452486 18.01181177
v 34.01395097 -10.26176702 17.46528027
v 34.09657374 -9.98659965 17.46528027
v 21.77791516 -28.06536289 17.46528027
v 21.48668032 -28.26110100 18.37699839
v 21.99066213 -27.89799414 18.01181177
v 21.97207317 -27.88380946 18.37699839
v 21.79030829 -28.02565043 18.37699839
v 33.93752983 -10.43764672 18.37699839
v 33.72271758 -11.18088162 18.01181177
v 33.85077940 -10.78373313 17.46528027
v 33.94992151 -10.47452486 17.46528027
v 21.99066213 -27.89799414 17.46528027
v 22.59791951 -27.41290543 18.01181177
v 22.57933055 -27.39588498 18.37699839
v 33.69793133 -11.18088162 18.37699839
v 33.57193479 -11.54398920 18.37699839
v 33.38397407 -12.15105830 18.01181177
v 33.72271758 -11.18088162 17.46528027
v 22.59791951 -27.41290543 17.46528027
v 22.87263212 -27.18312642 17.46528027
v 23.08331236 -27.00157299 18.01181177
v 23.06678867 -26.99022699 18.37699839
v 33.35918782 -12.15105830 18.37699839
v 33.38397407 -12.15105830 17.46528027
v 33.27450266 -12.38083732 18.37699839
v 33.11339347 -12.81486321 18.37699839
v 33.12578805 -12.84323256 18.01181177
v 23.32704287 -26.79165311 17.46528027
v 23.63893340 -26.51932296 18.01181177
v 23.62240972 -26.50230251 18.37699839
v 33.12578805 -12.84323256 17.46528027
v 32.99359277 -13.11839849 18.37699839
v 32.93369387 -13.33115704 18.01181177
v 23.63893340 -26.51932296 17.46528027
v 23.91157928 -26.27252350 17.46528027
v 24.12432625 -26.07678539 18.01181177
v 24.10780257 -26.06543939 18.37699839
v 32.93369387 -13.33115704 17.46528027
v 32.91923691 -13.29995192 18.37699839
v 32.78704454 -13.61767187 18.37699839
v 32.58462396 -14.09708612 18.37699839
v 32.60941021 -14.09708612 18.01181177
v 24.12432625 -26.07678539 17.46528027
v 24.34946490 -25.86686261 17.46528027
v 24.63863591 -25.59453536 18.01181177
v 24.62211367 -25.57751491 18.37699839
v 32.60941021 -14.09708612 17.46528027
v 32.22316237 -14.90273055 18.37699839
v 32.23555405 -14.92826123 18.01181177
v 24.63863591 -25.59453536 17.46528027
v 24.99390166 -25.25128473 18.01181177
v 24.99390166 -25.21724382 18.37699839
v 32.23555405 -14.92826123 17.46528027
v 32.08064070 -15.20626582 18.37699839
v 32.00835012 -15.41334993 18.01181177
v 32.10749223 -15.20342860 17.46528027
v 25.12402876 -25.12362844 17.46528027
v 25.12402876 -25.12362844 18.01181177
v 25.10750652 -25.10660798 18.37699839
v 31.99389027 -15.38781925 18.37699839
v 31.67167189 -16.03743948 18.37699839
v 31.69852342 -16.03743948 18.01181177
v 32.00835012 -15.41334993 17.46528027
v 25.59702993 -24.63570396 17.46528027
v 25.59702993 -24.63570396 18.01181177
v 25.58050479 -24.61868350 18.37699839
v 31.52708783 -16.31828130 18.37699839
v 31.27509475 -16.84875692 18.01181177
v 31.69852342 -16.03743948 17.46528027
v 25.86967580 -24.34918914 17.46528027
v 26.08242277 -24.12224735 18.01181177
v 25.88413565 -24.29812778 18.37699839
v 31.26270308 -16.82322624 18.37699839
v 30.99831832 -17.31115217 18.37699839
v 31.01071290 -17.33384562 18.01181177
v 31.27509475 -16.84875692 17.46528027
v 26.08242277 -24.12224735 17.46528027
v 26.27451405 -23.90949024 17.46528027
v 26.52030840 -23.63716009 18.01181177
v 26.23320556 -23.92367347 18.37699839
v 26.06589764 -24.10522690 18.37699839
v 30.84547025 -17.57780931 18.37699839
v 30.63479145 -17.98063008 18.01181177
v 30.63685673 -17.98063008 17.46528027
v 30.84753843 -17.61752322 17.46528027
v 31.01071290 -17.33384562 17.46528027
v 26.52030840 -23.63716009 17.46528027
v 26.50585144 -23.62013819 18.37699839
v 27.00776942 -23.08398813 18.01181177
v 30.61000520 -17.98063008 18.37699839
v 30.22788503 -18.62457875 18.37699839
v 30.24027960 -18.64159921 18.01181177
v 30.24027960 -18.64159921 17.46528027
v 27.00776942 -23.08398813 17.46528027
v 26.99330956 -23.06696768 18.37699839
v 27.41673823 -22.59606220 18.01181177
v 30.03785902 -18.92811403 18.37699839
v 30.06884401 -18.91676658 17.46528027
v 29.93458635 -19.12952369 18.01181177
v 27.41673823 -22.59606220 17.46528027
v 27.40021310 -22.57904175 18.37699839
v 27.90213108 -21.98899310 18.01181177
v 27.88767122 -21.97197265 18.37699839
v 29.92012650 -19.10966746 18.37699839
v 29.93458635 -19.12952369 17.46528027
v 29.73836162 -19.38767060 18.37699839
v 29.44919061 -19.86992208 18.01181177
v 27.90213108 -21.98899310 17.46528027
v 28.28011780 -21.50390440 18.01181177
v 28.26772322 -21.48688394 18.37699839
v 28.03019290 -21.79041922 18.37699839
v 29.44919061 -19.86992208 17.46528027
v 29.43473365 -19.84722863 18.37699839
v 29.10631944 -20.33515311 18.37699839
v 29.12077639 -20.35501079 18.01181177
v 28.28011780 -21.50390440 17.46528027
v 28.53417326 -21.16065522 17.46528027
v 28.72833272 -20.89399807 18.01181177
v 28.70148118 -20.89399807 18.37699839
v 29.12077639 -20.35501079 17.46528027
f 1 2 3
f 1 3 4
f 1 4 9
f 1 9 16
f 1 16 15
f 1 15 12
f 1 12 5
f 1 5 13
f 1 13 24
f 1 24 30
f 1 30 40
f 1 40 47
f 1 47 53
f 1 53 60
f 1 60 66
f 1 66 69
f 1 69 75
f 1 75 76
f 1 76 83
f 1 83 91
f 1 91 90
f 1 90 100
f 1 100 99
f 1 99 107
f 1 107 113
f 1 113 120
f 1 120 127
f 1 127 136
f 1 136 142
f 1 142 145
f 1 145 152
f 1 152 158
f 1 158 165
f 1 165 175
f 1 175 174
f 1 174 173
f 1 173 182
f 1 182 187
f 1 187 194
f 1 194 201
f 1 201 209
f 1 209 206
f 1 206 205
f 1 205 197
f 1 197 189
f 1 189 183
f 1 183 176
f 1 176 167
f 1 167 166
f 1 166 159
f 1 159 153
f 1 153 146
f 1 146 139
f 1 139 133
f 1 133 132
f 1 132 124
f 1 124 123
f 1 123 117
f 1 117 109
f 1 109 108
f 1 108 101
f 1 101 92
f 1 92 84
f 1 84 78
f 1 78 77
f 1 77 70
f 1 70 63
f 1 63 57
f 1 57 56
f 1 56 50
f 1 50 43
f 1 43 33
f 1 33 26
f 1 26 25
f 1 25 17
f 1 17 14
f 1 14 6
f 1 6 2
f 2 6 3
f 3 7 8
f 3 8 9
f 3 9 4
f 3 6 10
f 3 10 11
f 3 11 7
f 5 12 23
f 5 23 13
f 6 14 10
f 7 11 19
f 7 19 28
f 7 28 34
f 7 34 37
f 7 37 36
f 7 36 46
f 7 46 45
f 7 45 52
f 7 52 59
f 7 59 65
f 7 65 72
f 7 72 80
f 7 80 86
f 7 86 93
f 7 93 96
f 7 96 95
f 7 95 103
f 7 103 111
f 7 111 119
f 7 119 126
f 7 126 135
f 7 135 141
f 7 141 148
f 7 148 155
f 7 155 161
f 7 161 170
f 7 170 169
f 7 169 177
f 7 177 184
f 7 184 190
f 7 190 192
f 7 192 200
f 7 200 199
f 7 199 208
f 7 208 203
f 7 203 202
f 7 202 195
f 7 195 193
f 7 193 186
f 7 186 180
f 7 180 179
f 7 179 171
f 7 171 163
f 7 163 162
f 7 162 156
f 7 156 150
f 7 150 149
f 7 149 143
f 7 143 137
f 7 137 130
f 7 130 129
f 7 129 128
f 7 128 121
f 7 121 115
f 7 115 114
f 7 114 112
f 7 112 105
f 7 105 104
f 7 104 97
f 7 97 88
f 7 88 87
f 7 87 81
f 7 81 73
f 7 73 67
f 7 67 61
f 7 61 54
f 7 54 48
f 7 48 41
f 7 41 39
f 7 39 29
f 7 29 20
f 7 20 12
f 7 12 15
f 7 15 8
f 8 15 16
f 8 16 9
f 10 14 17
f 10 17 18
f 10 18 11
f 11 18 19
f 12 20 21
f 12 21 22
f 12 22 23
f 13 23 22
f 13 22 21
f 13 21 20
f 13 20 29
f 13 29 38
f 13 38 31
f 13 31 24
f 17 25 18
f 18 25 26
f 18 26 27
f 18 27 28
f 18 28 19
f 24 31 32
f 24 32 30
f 26 33 27
f 27 34 28
f 27 33 43
f 27 43 35
f 27 35 36
f 27 36 37
f 27 37 34
f 29 39 38
f 30 32 42
f 30 42 40
f 31 38 32
f 32 38 39
f 32 39 41
f 32 41 42
f 35 43 50
f 35 50 44
f 35 44 45
f 35 45 46
f 35 46 36
f 40 42 47
f 41 48 49
f 41 49 42
f 42 49 47
f 44 50 56
f 44 56 51
f 44 51 52
f 44 52 45
f 47 49 53
f 48 54 49
f 49 54 55
f 49 55 60
f 49 60 53
f 51 56 57
f 51 57 58
f 51 58 59
f 51 59 52
f 54 61 62
f 54 62 55
f 55 62 66
f 55 66 60
f 57 63 58
f 58 63 64
f 58 64 59
f 59 64 65
f 61 67 62
f 62 67 68
f 62 68 69
f 62 69 66
f 63 70 64
f 64 70 77
f 64 77 71
f 64 71 65
f 65 71 72
f 67 73 74
f 67 74 68
f 68 75 69
f 68 74 76
f 68 76 75
f 71 77 78
f 71 78 79
f 71 79 80
f 71 80 72
f 73 81 74
f 74 81 82
f 74 82 91
f 74 91 83
f 74 83 76
f 78 84 85
f 78 85 79
f 79 85 80
f 80 85 86
f 81 87 82
f 82 87 88
f 82 88 89
f 82 89 90
f 82 90 91
f 84 92 85
f 85 93 86
f 85 92 94
f 85 94 95
f 85 95 96
f 85 96 93
f 88 97 89
f 89 98 99
f 89 99 100
f 89 100 90
f 89 97 98
f 92 101 94
f 94 101 108
f 94 108 102
f 94 102 95
f 95 102 103
f 97 104 98
f 98 104 105
f 98 105 106
f 98 106 113
f 98 113 107
f 98 107 99
f 102 109 110
f 102 110 111
f 102 111 103
f 102 108 109
f 105 112 106
f 106 112 114
f 106 114 115
f 106 115 116
f 106 116 120
f 106 120 113
f 109 117 110
f 110 117 118
f 110 118 111
f 111 118 119
f 115 121 122
f 115 122 116
f 116 122 127
f 116 127 120
f 117 123 118
f 118 123 124
f 118 124 125
f 118 125 126
f 118 126 119
f 121 128 122
f 122 128 129
f 122 129 130
f 122 130 131
f 122 131 136
f 122 136 127
f 124 132 125
f 125 132 133
f 125 133 134
f 125 134 126
f 126 134 135
f 130 137 131
f 131 137 138
f 131 138 142
f 131 142 136
f 133 139 134
f 134 139 140
f 134 140 135
f 135 140 141
f 137 143 144
f 137 144 138
f 138 144 145
f 138 145 142
f 139 146 140
f 140 146 147
f 140 147 148
f 140 148 141
f 143 149 144
f 144 149 150
f 144 150 151
f 144 151 158
f 144 158 152
f 144 152 145
f 146 153 154
f 146 154 147
f 147 154 155
f 147 155 148
f 150 156 151
f 151 156 157
f 151 157 165
f 151 165 158
f 153 159 154
f 154 159 160
f 154 160 161
f 154 161 155
f 156 162 157
f 157 162 163
f 157 163 164
f 157 164 175
f 157 175 165
f 159 166 160
f 160 166 167
f 160 167 168
f 160 168 169
f 160 169 170
f 160 170 161
f 163 171 164
f 164 171 172
f 164 172 173
f 164 173 174
f 164 174 175
f 167 176 168
f 168 177 169
f 168 176 183
f 168 183 178
f 168 178 184
f 168 184 177
f 171 179 172
f 172 179 180
f 172 180 181
f 172 181 173
f 173 181 182
f 178 185 184
f 178 183 189
f 178 189 185
f 180 186 181
f 181 187 182
f 181 186 188
f 181 188 187
f 184 185 190
f 185 189 197
f 185 197 191
f 185 191 192
f 185 192 190
f 186 193 188
f 187 188 194
f 188 193 195
f 188 195 196
f 188 196 201
f 188 201 194
f 191 198 199
f 191 199 200
f 191 200 192
f 191 197 205
f 191 205 198
f 195 202 196
f 196 202 203
f 196 203 204
f 196 204 209
f 196 209 201
f 198 205 206
f 198 206 207
f 198 207 199
f 199 207 208
f 203 208 204
f 204 208 207
f 204 207 206
f 204 206 209

