# https://github.com/mikedh/trimesh
v -2.61596567 25.43779674 6.37172210
v 0.00478110 27.66521383 6.37172210
v -2.61596567 25.43779674 7.38878396
v -2.61596567 35.42859699 6.37172210
v 0.00478110 27.66521383 7.38878396
v 0.00478110 35.52337971 6.37172210
v -2.61596567 35.42859699 7.38878396
v -2.42968589 35.44439507 6.37172210
v 0.00478110 35.52436745 7.38878396
v -0.50915626 35.52337971 6.37172210
v -2.42968589 35.44439507 7.38878396
v -1.48083899 35.49770999 6.37172210
v -0.48606370 35.52337971 7.38878396
v -1.45774644 35.49869773 6.37172210
v -0.55431497 35.52239196 7.38878396
v -1.45774644 35.49869773 7.38878396
f 1 2 5
f 1 5 3
f 1 3 7
f 1 7 4
f 1 4 8
f 1 8 12
f 1 12 14
f 1 14 10
f 1 10 6
f 1 6 2
f 2 6 9
f 2 9 5
f 3 5 9
f 3 9 13
f 3 13 15
f 3 15 16
f 3 16 11
f 3 11 7
f 4 7 11
f 4 11 8
f 6 10 9
f 8 11 12
f 9 10 13
f 10 14 15
f 10 15 13
f 11 16 12
f 12 16 14
f 14 16 15

