# https://github.com/mikedh/trimesh
v 0.00435819 -20.09003802 14.73847973
v 4.91527212 -25.31744899 14.73847973
v 0.00435819 -20.09003802 15.64563280
v 0.00435819 20.08692086 14.73847973
v 5.52663616 -25.31744899 14.73847973
v 4.91527212 -25.31744899 15.64563280
v 0.00435819 20.08692086 15.64563280
v 4.87851456 24.17583269 14.73847973
v 5.52663616 -25.31744899 15.64563280
v 5.52663616 24.17583269 14.73847973
v 4.87851456 24.17583269 15.64563280
v 5.52663616 24.17583269 15.64563280
f 1 2 6
f 1 6 3
f 1 3 7
f 1 7 4
f 1 4 8
f 1 8 10
f 1 10 5
f 1 5 2
f 2 5 9
f 2 9 6
f 3 6 9
f 3 9 12
f 3 12 11
f 3 11 7
f 4 7 11
f 4 11 8
f 5 10 12
f 5 12 9
f 8 11 12
f 8 12 10

