# https://github.com/mikedh/trimesh
v 0.48865739 35.52541892 11.32163248
v 1.45985223 35.49956382 11.32163248
v 1.45985223 35.49956382 10.07975060
v 1.46202468 35.49867166 8.77964115
v 0.48865739 35.52363750 8.77964115
v -0.00454398 35.52363750 8.77964115
v -0.00671716 35.52452966 10.07975060
v -0.00671716 35.52452966 11.32163248
v 2.31806643 35.45141934 11.32163248
v 1.94653551 35.47192441 8.77964115
v -0.00454398 27.66963115 8.77964115
v -0.00671716 27.92551727 10.07975060
v -0.00671716 29.62488611 11.32163248
v 2.43104707 35.44428500 11.32163248
v 2.43321952 35.44428500 10.07950149
v 2.43321952 35.44428500 8.77964115
v 2.25723120 26.41783998 8.77964115
v 2.26157683 26.41783998 9.17726396
v -0.00454398 27.67408903 9.26459951
v -0.00671716 27.93532518 10.11035613
v 2.54185453 26.41783998 10.07950149
v 4.10184886 27.31299531 11.32163248
v 3.28926127 35.37295899 11.32163248
v 2.58965359 35.43180353 10.07950149
v 2.91773035 35.40416412 8.77964115
v 22.18953292 26.41783998 8.77964115
v 2.26374928 26.41783998 9.26459951
v 22.18953292 26.41783998 10.07950149
v 20.24931714 27.31299531 11.32163248
v 3.40441436 35.36315108 11.32163248
v 3.40441436 35.36315108 8.77964115
v 22.18953292 27.74184932 8.77964115
v 22.18953292 27.74184932 10.07950149
v 20.24931714 29.19424779 11.32163248
v 4.26262856 35.26953280 11.32163248
v 3.56084771 35.34621174 10.07975060
v 3.56084771 35.34621174 10.07950149
v 3.88892519 35.31054873 8.77964115
v 21.99181788 27.90055143 8.77964115
v 21.99181788 27.90055143 10.07950149
v 20.44268582 29.05872721 10.07950149
v 20.35577897 29.12113747 10.07950149
v 20.24931714 29.19424779 10.07975060
v 19.92558529 29.41268659 11.32163248
v 21.91360085 27.96207243 10.07950149
v 21.50513459 28.28126096 10.07950149
v 20.99455142 28.65751261 10.07950149
v 4.37560848 35.25616207 11.32163248
v 4.37778166 35.25705133 10.07950149
v 4.37778166 35.25705133 8.77964115
v 21.50513459 28.28126096 8.77964115
v 20.62519224 28.92677236 8.77964115
v 20.35577897 29.12113747 8.77964115
v 19.86909424 29.45013391 8.77964115
v 19.78218739 29.50808629 11.32163248
v 20.89460695 28.73062293 8.77964115
v 20.89460695 28.73062293 9.26459951
v 5.23599585 35.13758084 11.32163248
v 4.53204255 35.23565410 10.07975060
v 5.34897577 35.12153075 8.77964115
v 19.49973651 29.69443070 8.77964115
v 19.25205068 29.85848284 10.07950149
v 19.13037877 29.93694319 11.32163248
v 5.34897577 35.12153075 11.32163248
v 5.45109270 35.10548066 10.07975060
v 5.67053481 35.06981765 8.77964115
v 19.13255123 29.93694319 8.77964115
v 19.13255123 29.93694319 10.07950149
v 18.70235899 30.20709219 11.32163248
v 5.99426630 35.01810746 11.32163248
v 5.99426630 35.01810746 10.07975060
v 5.99426630 35.01721530 8.77964115
v 18.64586794 30.24275810 8.77964115
v 18.64586794 30.24275810 10.07950149
v 18.64369549 30.24364735 11.32163248
v 6.40273255 34.94410498 10.07975060
v 6.48094959 34.92983920 11.32163248
v 6.40273255 34.94410498 10.07950149
v 6.48094959 34.92983920 8.77964115
v 6.23978112 34.97352580 8.77964115
v 18.31127382 30.44247324 8.77964115
v 17.97885070 30.64129623 10.07975060
v 18.56765091 30.29001042 11.32163248
v 7.19793907 34.78896859 11.32163248
v 7.29353791 34.77024494 10.07950149
v 6.88507093 34.85048670 8.77964115
v 17.97885070 30.64040408 8.77964115
v 17.97885070 30.64129623 11.32163248
v 17.43784882 30.95424547 10.07950149
v 7.29136473 34.77024494 11.32163248
v 7.29353791 34.77024494 8.77964115
v 7.44997125 34.73547409 10.07950149
v 17.65512029 30.82763775 8.77964115
v 17.33355944 31.01398216 11.32163248
v 17.33355944 31.01219786 8.77964115
v 17.33355944 31.01398216 10.07975060
v 8.14957965 34.57766123 11.32163248
v 8.26473275 34.55269829 10.07950149
v 8.26473275 34.55269829 8.77964115
v 16.84905006 31.27878403 11.32163248
v 17.09239098 31.14415271 8.77964115
v 16.84905006 31.27878403 10.23625998
v 8.26255957 34.55180614 11.32163248
v 8.74924358 34.42876703 8.77964115
v 9.23592686 34.30394362 11.32163248
v 16.03646247 31.70050370 10.07950149
v 16.03428857 31.70139585 11.32163248
v 16.84687761 31.27699972 8.77964115
v 16.84905006 31.27699972 9.26459951
v 16.03646247 31.70050370 8.77964115
v 9.23592686 34.30394362 8.77964115
v 9.35759804 34.27006492 10.07950149
v 9.98333359 34.09442057 11.32163248
v 9.98550677 34.09442057 10.07950149
v 15.41724356 32.01077648 9.26459951
v 15.41724356 32.00988432 11.32163248
v 15.41724356 32.01077648 8.77964115
v 9.60963023 34.19962817 8.77964115
v 10.46784515 33.94998424 11.32163248
v 10.22884841 34.02220240 8.77964115
v 9.98550677 34.09442057 8.77964115
v 10.47001760 33.94998424 10.07950149
v 15.17607509 32.12401057 8.77964115
v 15.33902652 32.04733164 10.07950149
v 14.93056027 32.23813103 11.32163248
v 11.17614336 33.72173753 11.32163248
v 11.17614336 33.72262679 10.23625998
v 10.82416671 33.83675014 8.77964115
v 10.47001760 33.94998424 8.77964115
v 14.93273273 32.23724177 8.77964115
v 14.93273273 32.23724177 10.07950149
v 14.09190034 32.61170912 10.07950149
v 14.08972643 32.61170912 11.32163248
v 12.03435756 33.42394622 11.32163248
v 11.17614336 33.72262679 8.77964115
v 14.09190034 32.61081696 8.77964115
v 13.32493862 32.93267906 8.77964115
v 13.44878153 32.88096886 10.07950149
v 13.32493862 32.93267906 11.32163248
v 14.00064713 32.64915354 11.32163248
v 12.14733820 33.38382534 11.32163248
v 12.14733820 33.38382534 8.77964115
v 13.24672159 32.96388709 10.07950149
v 12.83825534 33.12526276 8.77964115
v 12.83825534 33.12615492 11.20816955
v 12.83825534 33.12615492 11.32163248
v 12.26031740 33.34192015 10.07950149
f 1 2 3
f 1 3 4
f 1 4 5
f 1 5 6
f 1 6 7
f 1 7 8
f 1 8 13
f 1 13 22
f 1 22 29
f 1 29 34
f 1 34 44
f 1 44 55
f 1 55 63
f 1 63 69
f 1 69 75
f 1 75 83
f 1 83 88
f 1 88 94
f 1 94 100
f 1 100 107
f 1 107 116
f 1 116 125
f 1 125 133
f 1 133 140
f 1 140 139
f 1 139 146
f 1 146 141
f 1 141 134
f 1 134 126
f 1 126 119
f 1 119 113
f 1 113 105
f 1 105 103
f 1 103 97
f 1 97 90
f 1 90 84
f 1 84 77
f 1 77 70
f 1 70 64
f 1 64 58
f 1 58 48
f 1 48 35
f 1 35 30
f 1 30 23
f 1 23 14
f 1 14 9
f 1 9 2
f 2 9 3
f 3 9 10
f 3 10 4
f 4 10 16
f 4 16 25
f 4 25 31
f 4 31 38
f 4 38 50
f 4 50 60
f 4 60 66
f 4 66 72
f 4 72 80
f 4 80 79
f 4 79 86
f 4 86 91
f 4 91 99
f 4 99 104
f 4 104 111
f 4 111 118
f 4 118 121
f 4 121 120
f 4 120 129
f 4 129 128
f 4 128 135
f 4 135 142
f 4 142 144
f 4 144 137
f 4 137 136
f 4 136 130
f 4 130 123
f 4 123 117
f 4 117 110
f 4 110 108
f 4 108 101
f 4 101 95
f 4 95 93
f 4 93 87
f 4 87 81
f 4 81 73
f 4 73 67
f 4 67 61
f 4 61 54
f 4 54 53
f 4 53 52
f 4 52 56
f 4 56 51
f 4 51 39
f 4 39 32
f 4 32 26
f 4 26 17
f 4 17 11
f 4 11 6
f 4 6 5
f 6 11 12
f 6 12 7
f 7 12 20
f 7 20 13
f 7 13 8
f 9 14 15
f 9 15 16
f 9 16 10
f 11 17 18
f 11 18 19
f 11 19 12
f 12 19 21
f 12 21 20
f 13 20 21
f 13 21 22
f 14 23 24
f 14 24 15
f 15 24 16
f 16 24 25
f 17 26 28
f 17 28 21
f 17 21 27
f 17 27 18
f 18 27 19
f 19 27 21
f 21 28 29
f 21 29 22
f 23 25 24
f 23 30 31
f 23 31 25
f 26 32 33
f 26 33 28
f 28 33 34
f 28 34 29
f 30 35 36
f 30 36 37
f 30 37 31
f 31 37 38
f 32 39 40
f 32 40 33
f 33 40 34
f 34 41 42
f 34 42 53
f 34 53 43
f 34 43 44
f 34 40 45
f 34 45 46
f 34 46 47
f 34 47 41
f 35 48 49
f 35 49 38
f 35 38 36
f 36 38 37
f 38 49 50
f 39 51 45
f 39 45 40
f 41 52 53
f 41 53 42
f 41 47 52
f 43 54 44
f 43 53 54
f 44 54 55
f 45 51 46
f 46 51 47
f 47 51 56
f 47 56 57
f 47 57 52
f 48 58 49
f 49 58 59
f 49 59 50
f 50 59 58
f 50 58 60
f 52 57 56
f 54 61 55
f 55 61 62
f 55 62 63
f 58 64 60
f 60 64 65
f 60 65 66
f 61 67 62
f 62 67 68
f 62 68 63
f 63 68 69
f 64 70 65
f 65 70 71
f 65 71 66
f 66 71 72
f 67 73 74
f 67 74 68
f 68 74 69
f 69 74 75
f 70 76 78
f 70 78 71
f 70 77 76
f 71 78 79
f 71 79 80
f 71 80 72
f 73 81 82
f 73 82 83
f 73 83 74
f 74 83 75
f 76 77 79
f 76 79 78
f 77 84 85
f 77 85 86
f 77 86 79
f 81 87 82
f 82 88 83
f 82 87 89
f 82 89 88
f 84 90 85
f 85 91 86
f 85 90 92
f 85 92 91
f 87 93 89
f 88 89 94
f 89 93 95
f 89 95 96
f 89 96 94
f 90 97 98
f 90 98 92
f 91 92 99
f 92 98 99
f 94 96 102
f 94 102 100
f 95 101 96
f 96 101 102
f 97 103 98
f 98 104 99
f 98 103 105
f 98 105 104
f 100 102 110
f 100 110 106
f 100 106 107
f 101 108 109
f 101 109 102
f 102 109 110
f 104 105 111
f 105 112 111
f 105 113 114
f 105 114 112
f 106 110 117
f 106 117 115
f 106 115 107
f 107 115 116
f 108 110 109
f 111 112 118
f 112 114 118
f 113 119 122
f 113 122 114
f 114 120 121
f 114 121 118
f 114 122 120
f 115 117 123
f 115 123 124
f 115 124 116
f 116 124 125
f 119 126 127
f 119 127 128
f 119 128 122
f 120 122 129
f 122 128 129
f 123 130 131
f 123 131 125
f 123 125 124
f 125 131 132
f 125 132 133
f 126 134 127
f 127 134 135
f 127 135 128
f 130 136 132
f 130 132 131
f 132 136 137
f 132 137 138
f 132 138 139
f 132 139 140
f 132 140 133
f 134 141 142
f 134 142 135
f 137 143 139
f 137 139 138
f 137 144 145
f 137 145 143
f 139 143 146
f 141 147 142
f 141 146 147
f 142 147 145
f 142 145 144
f 143 145 146
f 145 147 146

