# https://github.com/mikedh/trimesh
v 0.00435801 35.52536678 15.64563280
v 0.00435801 35.52536678 14.73847973
v -0.48633852 35.52536678 15.64563280
v 0.00435801 29.91015539 15.64563280
v 0.00435801 29.90915606 14.73847973
v -0.48633852 35.52536678 14.73847973
v -1.03575069 35.51037395 15.64563280
v 0.00435801 29.90915606 15.09619021
v -4.91414086 25.31725451 15.64563280
v -4.91414086 25.31725451 14.73847973
v -1.10075739 35.50837819 14.73847973
v -1.45829480 35.49838490 14.73847973
v -1.45829480 35.49838490 15.64563280
v -10.70708578 25.31725451 15.64563280
v -10.70708578 25.31725451 14.73847973
v -2.07271404 35.46440772 14.73847973
v -2.43025163 35.44442114 15.64563280
v -10.70708578 33.87247977 15.64563280
v -10.70708578 33.87347910 14.73847973
v -2.43025163 35.44442114 14.73847973
v -3.40220810 35.36347550 14.73847973
v -2.97966398 35.39845201 15.64563280
v -10.46697965 33.95042742 15.64563280
v -10.70708578 33.87347910 15.28161930
v -10.46697965 33.95042742 14.73847973
v -4.01662733 35.29552114 14.73847973
v -3.95162063 35.30251645 15.64563280
v -3.40220810 35.36247618 15.64563280
v -10.19227429 34.03237238 15.64563280
v -10.15977076 34.04236567 14.73847973
v -4.37416475 35.25554799 14.73847973
v -4.37416475 35.25554799 15.64563280
v -9.98047740 34.09533010 15.64563280
v -9.98047740 34.09533010 14.73847973
v -4.98858398 35.17060504 14.73847973
v -4.92357728 35.17959900 15.64563280
v -9.70577132 34.17227842 14.73847973
v -9.65544352 34.18626902 15.64563280
v -5.34612139 35.12063860 14.73847973
v -5.34612139 35.12063860 15.64563280
v -9.23289977 34.30418983 15.64563280
v -9.23289977 34.30418983 14.73847973
v -5.70994987 35.06267752 15.64563280
v -5.99094702 35.01770772 14.73847973
v -8.81035457 34.41211734 15.64563280
v -8.87536163 34.39612808 14.73847973
v -5.99094702 35.01770772 15.64563280
v -6.17024001 34.98572920 14.73847973
v -8.26094240 34.55202338 15.64563280
v -8.26094240 34.55202338 14.73847973
v -6.47640106 34.93076612 15.64563280
v -6.47640106 34.93076612 14.73847973
v -7.83839865 34.64695962 15.64563280
v -7.28898648 34.76987417 14.73847973
v -7.28898648 34.76987417 15.64563280
f 1 2 6
f 1 6 3
f 1 3 7
f 1 7 13
f 1 13 17
f 1 17 22
f 1 22 28
f 1 28 27
f 1 27 32
f 1 32 36
f 1 36 40
f 1 40 43
f 1 43 47
f 1 47 51
f 1 51 55
f 1 55 53
f 1 53 49
f 1 49 45
f 1 45 41
f 1 41 38
f 1 38 33
f 1 33 29
f 1 29 23
f 1 23 18
f 1 18 14
f 1 14 9
f 1 9 4
f 1 4 8
f 1 8 5
f 1 5 2
f 2 5 10
f 2 10 15
f 2 15 19
f 2 19 25
f 2 25 30
f 2 30 34
f 2 34 37
f 2 37 42
f 2 42 46
f 2 46 50
f 2 50 54
f 2 54 52
f 2 52 48
f 2 48 44
f 2 44 39
f 2 39 35
f 2 35 31
f 2 31 26
f 2 26 21
f 2 21 20
f 2 20 16
f 2 16 12
f 2 12 11
f 2 11 6
f 3 6 7
f 4 9 8
f 5 8 9
f 5 9 10
f 6 11 7
f 7 11 12
f 7 12 13
f 9 14 15
f 9 15 10
f 12 16 13
f 13 16 17
f 14 18 24
f 14 24 19
f 14 19 15
f 16 20 17
f 17 20 21
f 17 21 22
f 18 23 24
f 19 24 23
f 19 23 25
f 21 26 27
f 21 27 28
f 21 28 22
f 23 29 30
f 23 30 25
f 26 31 32
f 26 32 27
f 29 33 30
f 30 33 34
f 31 35 36
f 31 36 32
f 33 37 34
f 33 38 37
f 35 39 40
f 35 40 36
f 37 38 41
f 37 41 42
f 39 43 40
f 39 44 43
f 41 45 46
f 41 46 42
f 43 44 47
f 44 48 47
f 45 49 46
f 46 49 50
f 47 48 51
f 48 52 51
f 49 53 50
f 50 53 54
f 51 52 54
f 51 54 55
f 53 55 54

