# https://github.com/mikedh/trimesh
v -29.76899163 -19.38468565 16.55744361
v -29.44910213 -19.87083306 16.55744361
v -29.76899163 -19.38468565 17.46519338
v -29.76899163 1.13435607 16.55744361
v -29.28423894 -20.11649272 16.55744361
v -29.44910213 -19.87083306 17.46519338
v -29.76899163 1.14211318 17.46519338
v -29.76899163 1.15762884 16.71338525
v -29.76477707 1.15762884 16.55744361
v -29.12124695 -20.35698048 17.46519338
v -29.12124695 -20.35698048 16.55744361
v -29.76618193 1.15762884 17.46519338
v -29.76899163 1.15762884 17.36256375
v -24.98468597 -4.92697165 16.55744361
v -29.76477707 1.15762884 16.74404003
v -28.73016758 -20.89484533 17.46519338
v -28.73016758 -20.89484533 16.55744361
v -29.76571268 1.15762884 17.44449134
v -24.98468597 -4.92697165 17.46519338
v -24.98468597 -25.25724305 16.55744361
v -29.76524343 1.15762884 17.17125745
v -28.47771973 -21.23876797 17.46519338
v -28.28100837 -21.50511663 16.55744361
v -24.98468597 -25.25982972 17.46519338
v -25.12425890 -25.12277683 16.55744361
v -28.28100837 -21.50511663 17.46519338
v -28.09038567 -21.75077483 16.55744361
v -25.12425890 -25.12277683 17.46519338
v -25.35890710 -24.88228907 16.55744361
v -27.90210632 -21.99126259 17.46519338
v -27.90210632 -21.99126259 16.55744361
v -25.59683427 -24.63662797 17.46519338
v -25.59683427 -24.63662797 16.55744361
v -27.66090020 -22.29381302 16.55744361
v -27.41641512 -22.59894722 17.46519338
v -26.08299182 -24.12462256 17.46519338
v -26.08299182 -24.12462256 16.55744361
v -27.41641512 -22.59894722 16.55744361
v -27.00847460 -23.08509463 17.46519338
v -26.30124813 -23.88413480 16.55744361
v -26.52231416 -23.63847515 17.46519338
v -27.00847460 -23.08509463 16.55744361
v -26.52231416 -23.63847515 16.55744361
f 1 2 6
f 1 6 3
f 1 3 7
f 1 7 13
f 1 13 8
f 1 8 4
f 1 4 9
f 1 9 14
f 1 14 20
f 1 20 25
f 1 25 29
f 1 29 33
f 1 33 37
f 1 37 40
f 1 40 43
f 1 43 42
f 1 42 38
f 1 38 34
f 1 34 31
f 1 31 27
f 1 27 23
f 1 23 17
f 1 17 11
f 1 11 5
f 1 5 2
f 2 5 6
f 3 6 10
f 3 10 16
f 3 16 22
f 3 22 26
f 3 26 30
f 3 30 35
f 3 35 39
f 3 39 41
f 3 41 36
f 3 36 32
f 3 32 28
f 3 28 24
f 3 24 19
f 3 19 12
f 3 12 7
f 4 8 9
f 5 10 6
f 5 11 10
f 7 12 13
f 8 13 12
f 8 12 18
f 8 18 21
f 8 21 15
f 8 15 9
f 9 15 19
f 9 19 14
f 10 11 17
f 10 17 16
f 12 19 18
f 14 19 24
f 14 24 20
f 15 21 19
f 16 17 22
f 17 23 22
f 18 19 21
f 20 24 25
f 22 23 26
f 23 27 26
f 24 28 25
f 25 28 29
f 26 27 30
f 27 31 30
f 28 32 29
f 29 32 33
f 30 31 34
f 30 34 35
f 32 36 37
f 32 37 33
f 34 38 35
f 35 38 42
f 35 42 39
f 36 40 37
f 36 41 40
f 39 42 43
f 39 43 41
f 40 41 43

