# https://github.com/mikedh/trimesh
v -35.52651904 -0.48454869 14.73847973
v -35.49868266 -1.45622437 14.73847973
v -35.51517883 -0.90678178 15.64563280
v -35.52651904 -0.48454869 15.64563280
v -35.52651904 0.48712698 14.73847973
v -35.47909582 -1.81349746 14.73847973
v -35.47600224 -1.87845674 15.64563280
v -35.49868266 -1.45622437 15.64563280
v -35.52651904 0.48712698 15.64563280
v -35.49971385 1.45880266 15.64563280
v -35.50899168 1.10152884 14.73847973
v -35.44610638 -2.40354032 14.73847973
v -35.44610638 -2.40354032 15.64563280
v -35.49868266 1.45880266 14.73847973
v -35.44507519 2.43047834 15.64563280
v -35.44507519 2.43047834 14.73847973
v -29.28626656 -2.40354032 14.73847973
v -29.28626656 -2.40354032 15.64563280
v -35.39971435 2.97992165 15.64563280
v -35.39455839 3.04488019 14.73847973
v -24.99551348 4.92597915 14.73847973
v -24.99551348 4.92597915 15.64563280
v -35.36465963 3.40215401 15.64563280
v -35.36465963 3.40215401 14.73847973
v -24.99551348 25.24455551 14.73847973
v -24.99551348 25.24726383 15.64563280
v -35.30486790 3.95159732 15.64563280
v -35.29764956 4.01655587 14.73847973
v -25.12334647 25.12275904 14.73847973
v -25.12334647 25.12275904 15.64563280
v -35.25744468 4.37382969 15.64563280
v -35.25744468 4.37382969 14.73847973
v -25.59654750 24.63556741 14.73847973
v -25.59654750 24.63556741 15.64563280
v -35.18218508 4.92327300 15.64563280
v -35.12342165 5.34821188 14.73847973
v -26.08314823 24.12401821 14.73847973
v -25.80788962 24.41362661 15.64563280
v -35.12342165 5.34821188 15.64563280
v -35.05847396 5.76232434 14.73847973
v -26.36046923 23.81816855 14.73847973
v -26.08314823 24.12401821 15.64563280
v -35.02032856 6.00321328 15.64563280
v -35.02032856 6.00321328 14.73847973
v -26.52232574 23.63682657 15.64563280
v -26.52232574 23.63682657 14.73847973
v -34.98218317 6.21432910 15.64563280
v -34.93166927 6.48769768 14.73847973
v -26.70170961 23.43382957 14.73847973
v -27.00892937 23.08467566 15.64563280
v -34.93166927 6.48769768 15.64563280
v -34.83166687 6.99654144 14.73847973
v -27.00892937 23.08467566 14.73847973
v -27.41717982 22.59748402 15.64563280
v -34.84197588 6.94240968 15.64563280
v -34.77290343 7.29156360 15.64563280
v -34.77290343 7.29156360 14.73847973
v -27.41717982 22.59748402 14.73847973
v -27.62852194 22.33494296 15.64563280
v -34.65022351 7.84100618 15.64563280
v -34.55537706 8.26323855 15.09619021
v -34.63475853 7.90596545 14.73847973
v -27.59553251 22.37554323 14.73847973
v -27.90274936 21.99120280 14.73847973
v -27.90274936 21.99120280 15.64563280
v -34.55537706 8.26323855 15.64563280
v -34.39867361 8.87764113 14.73847973
v -34.55434587 8.26323855 14.73847973
v -28.14295905 21.68535459 14.73847973
v -28.11718506 21.71783422 15.64563280
v -34.41516978 8.81268258 15.64563280
v -34.30692074 9.23491495 15.64563280
v -34.30692074 9.23491495 14.73847973
v -28.28213515 21.50671804 15.64563280
v -28.28213515 21.50671804 14.73847973
v -34.18836268 9.65985347 15.64563280
v -34.09660981 9.98464765 14.73847973
v -28.73162167 20.89502161 15.64563280
v -28.73162167 20.89502161 14.73847973
v -34.09660981 9.98464765 15.64563280
v -34.03372451 10.19576384 15.64563280
v -34.04300234 10.16328420 14.73847973
v -28.90172772 20.66225330 15.64563280
v -29.12234766 20.35640654 14.73847973
v -33.95021827 10.47183857 15.64563280
v -33.95021827 10.47183857 14.73847973
v -29.12234766 20.35640654 15.64563280
v -29.32956502 20.05055688 14.73847973
v -29.30791579 20.08303651 15.64563280
v -33.82135120 10.87241809 15.64563280
v -33.72237999 11.17826558 14.73847973
v -29.45018546 19.87192033 14.73847973
v -29.45018546 19.87192033 15.64563280
v -33.72237999 11.17826558 15.64563280
v -33.50897838 11.78996128 14.73847973
v -29.66152468 19.54983375 15.64563280
v -29.93575500 19.13030826 14.73847973
v -33.38423318 12.14723510 15.64563280
v -33.38423318 12.14723510 14.73847973
v -29.93575500 19.13030826 15.64563280
v -30.12956976 18.82446004 14.73847973
v -33.23887283 12.53969398 15.64563280
v -33.22134547 12.58570656 14.73847973
v -30.10895172 18.85693968 15.64563280
v -30.24194356 18.64582350 14.73847973
v -30.24194356 18.64582350 15.64563280
v -33.12649903 12.84012844 15.64563280
v -33.12649903 12.84012844 14.73847973
v -30.63885380 17.97999531 14.73847973
v -30.63885380 17.97999531 15.09619021
v -30.63782261 17.97999531 15.64563280
v -33.05536419 13.01876644 14.73847973
v -32.93268427 13.32461320 15.64563280
v -31.01308363 17.33311382 14.73847973
v -31.01308363 17.33311382 15.09619021
v -30.80071032 17.69850755 15.64563280
v -32.93268427 13.32461320 14.73847973
v -32.61000243 14.09058573 15.64563280
v -31.27700203 16.84592363 14.73847973
v -31.01205244 17.33311382 15.64563280
v -31.27700203 16.84592363 15.64563280
v -31.16256874 17.05703981 15.64563280
v -32.61000243 14.09058573 14.73847973
v -32.39866031 14.56424443 15.64563280
v -31.43267429 16.54819460 14.73847973
v -31.46050777 16.49406284 15.64563280
v -32.23680380 14.92693128 14.73847973
v -32.23680380 14.92693128 15.64563280
v -31.69865508 16.03664396 14.73847973
v -31.69865508 16.03664396 15.64563280
v -32.13783259 15.13804746 15.64563280
v -32.00896551 15.41141604 14.73847973
v -31.81308837 15.80658108 14.73847973
v -32.00896551 15.41141604 15.64563280
f 1 2 3
f 1 3 4
f 1 4 9
f 1 9 5
f 1 5 11
f 1 11 14
f 1 14 16
f 1 16 20
f 1 20 24
f 1 24 28
f 1 28 32
f 1 32 36
f 1 36 40
f 1 40 44
f 1 44 48
f 1 48 52
f 1 52 57
f 1 57 62
f 1 62 68
f 1 68 67
f 1 67 73
f 1 73 77
f 1 77 82
f 1 82 86
f 1 86 91
f 1 91 95
f 1 95 99
f 1 99 103
f 1 103 108
f 1 108 112
f 1 112 117
f 1 117 123
f 1 123 127
f 1 127 132
f 1 132 133
f 1 133 129
f 1 129 125
f 1 125 119
f 1 119 114
f 1 114 109
f 1 109 105
f 1 105 101
f 1 101 97
f 1 97 92
f 1 92 88
f 1 88 84
f 1 84 79
f 1 79 75
f 1 75 69
f 1 69 64
f 1 64 63
f 1 63 58
f 1 58 53
f 1 53 49
f 1 49 46
f 1 46 41
f 1 41 37
f 1 37 33
f 1 33 29
f 1 29 25
f 1 25 21
f 1 21 17
f 1 17 12
f 1 12 6
f 1 6 2
f 2 6 7
f 2 7 8
f 2 8 3
f 3 8 7
f 3 7 13
f 3 13 18
f 3 18 22
f 3 22 26
f 3 26 30
f 3 30 34
f 3 34 38
f 3 38 42
f 3 42 45
f 3 45 50
f 3 50 54
f 3 54 59
f 3 59 65
f 3 65 70
f 3 70 74
f 3 74 78
f 3 78 83
f 3 83 87
f 3 87 89
f 3 89 93
f 3 93 96
f 3 96 100
f 3 100 104
f 3 104 106
f 3 106 111
f 3 111 116
f 3 116 120
f 3 120 122
f 3 122 121
f 3 121 126
f 3 126 130
f 3 130 134
f 3 134 131
f 3 131 128
f 3 128 124
f 3 124 118
f 3 118 113
f 3 113 107
f 3 107 102
f 3 102 98
f 3 98 94
f 3 94 90
f 3 90 85
f 3 85 81
f 3 81 80
f 3 80 76
f 3 76 72
f 3 72 71
f 3 71 66
f 3 66 60
f 3 60 56
f 3 56 55
f 3 55 51
f 3 51 47
f 3 47 43
f 3 43 39
f 3 39 35
f 3 35 31
f 3 31 27
f 3 27 23
f 3 23 19
f 3 19 15
f 3 15 10
f 3 10 9
f 3 9 4
f 5 9 10
f 5 10 11
f 6 12 7
f 7 12 13
f 10 14 11
f 10 15 16
f 10 16 14
f 12 17 18
f 12 18 13
f 15 19 20
f 15 20 16
f 17 21 22
f 17 22 18
f 19 23 20
f 20 23 24
f 21 25 26
f 21 26 22
f 23 27 24
f 24 27 28
f 25 29 26
f 26 29 30
f 27 31 28
f 28 31 32
f 29 33 34
f 29 34 30
f 31 35 32
f 32 35 36
f 33 37 38
f 33 38 34
f 35 39 36
f 36 39 40
f 37 41 42
f 37 42 38
f 39 43 40
f 40 43 44
f 41 45 42
f 41 46 45
f 43 47 44
f 44 47 48
f 45 46 49
f 45 49 50
f 47 51 48
f 48 51 52
f 49 53 50
f 50 53 58
f 50 58 54
f 51 55 52
f 52 55 56
f 52 56 57
f 54 58 59
f 56 60 57
f 57 60 61
f 57 61 62
f 58 63 59
f 59 63 64
f 59 64 65
f 60 66 61
f 61 66 67
f 61 67 68
f 61 68 62
f 64 69 65
f 65 69 70
f 66 71 67
f 67 71 72
f 67 72 73
f 69 74 70
f 69 75 74
f 72 76 73
f 73 76 77
f 74 75 79
f 74 79 78
f 76 80 77
f 77 80 81
f 77 81 82
f 78 79 83
f 79 84 83
f 81 85 86
f 81 86 82
f 83 84 87
f 84 88 89
f 84 89 87
f 85 90 86
f 86 90 91
f 88 92 89
f 89 92 93
f 90 94 91
f 91 94 95
f 92 96 93
f 92 97 96
f 94 98 95
f 95 98 99
f 96 97 100
f 97 101 100
f 98 102 99
f 99 102 103
f 100 101 104
f 101 105 106
f 101 106 104
f 102 107 108
f 102 108 103
f 105 109 110
f 105 110 106
f 106 110 111
f 107 112 108
f 107 113 112
f 109 114 115
f 109 115 110
f 110 115 116
f 110 116 111
f 112 113 117
f 113 118 123
f 113 123 117
f 114 119 121
f 114 121 115
f 115 120 116
f 115 121 122
f 115 122 120
f 118 124 123
f 119 125 121
f 121 125 126
f 123 124 127
f 124 128 127
f 125 129 130
f 125 130 126
f 127 128 131
f 127 131 132
f 129 133 130
f 130 133 134
f 131 134 132
f 132 134 133

