# https://github.com/mikedh/trimesh
v 0.03574780 35.50151903 18.37700129
v 0.03574780 35.49640941 18.46000062
v 0.21450311 35.36664149 19.27010582
v 0.03574780 29.93481129 18.37700129
v -0.48810400 35.50151903 18.37700129
v 0.03574780 35.48414808 18.65679309
v 0.21450311 35.19498287 19.77355610
v 0.21450311 30.02677272 19.27010582
v 0.03574780 35.46269003 18.98397914
v 0.03574780 35.41875432 19.11590503
v -0.48810400 35.19498287 19.77355610
v -4.93463869 25.06394058 18.37700129
v -0.85306251 35.49129980 18.37700129
v -0.48810400 35.46269003 18.98397914
v 0.21450311 34.64014970 20.25931392
v 0.21450311 30.08194726 19.55426570
v -5.00167121 25.06394058 19.27010582
v -4.98677541 25.06394058 19.18929053
v -4.95201760 25.06394058 18.98354465
v -4.94208659 25.06394058 18.63932076
v -0.84809701 35.35846727 19.27010582
v -1.46132646 35.17965403 19.75586364
v -1.46132646 34.62788837 20.24184160
v -0.48810400 34.64014970 20.25931392
v -25.14886556 25.06394058 18.37700129
v -1.45884407 35.47392886 18.37700129
v -1.45884407 35.43408026 18.98397914
v 0.21450311 34.50527507 20.32352877
v 0.21450311 30.58466760 20.04002352
v 0.21450311 30.93411986 20.34012921
v 0.21450311 31.07001989 20.45654378
v -6.16357999 25.76693221 20.55810746
v -6.26040554 25.76693221 20.59982437
v -7.29073023 25.76693221 20.60834328
v -24.91797135 25.06394058 19.27010582
v -1.46132646 35.34007673 19.27010582
v -2.43206654 35.15308927 19.72419505
v -2.43206654 34.60847532 20.21017012
v -4.37602835 34.06283888 20.46265852
v -3.40280589 34.09758076 20.47489088
v -0.48810400 34.15480030 20.48843251
v -2.43206654 34.12312592 20.48166314
v -1.46132646 34.14253897 20.48603122
v -25.09424717 25.06394058 18.98397914
v -25.10417673 25.10890168 18.37700129
v -2.43206654 35.41977393 18.37700129
v -2.43206654 35.38094783 18.98397914
v -1.83621599 35.32577039 19.27010582
v 0.21450311 34.15480030 20.48843251
v 0.21450311 31.58704367 20.51857459
v 0.21450311 32.55876497 20.56531421
v -4.37602835 32.55876497 20.56531421
v -5.34925081 32.55876497 20.56509696
v -6.31999088 32.55876497 20.56356756
v -9.23717516 31.58704367 20.56531421
v -12.14939465 30.61532237 20.56509696
v -14.09087335 29.64462358 20.56531421
v -16.03483589 28.67290228 20.56531421
v -17.97879842 27.70118098 20.56422219
v -18.95202016 26.72945968 20.56531421
v -19.92276096 25.76693221 20.56531421
v -20.88356930 25.76693221 20.56182090
v -22.02313294 25.76693221 20.51355187
v -22.17209666 25.76693221 20.50306616
v -22.66615471 25.76693221 20.46353329
v -23.00628714 25.76693221 20.35825617
v -23.50282902 25.76693221 20.04985170
v -23.65923992 25.76693221 19.94785064
v -23.70144491 25.76693221 19.91924087
v -24.81121697 25.23253749 19.27010582
v -25.08679710 25.06394058 19.00079973
v -2.43206654 35.29307351 19.27010582
v -3.40280589 35.11528277 19.67220968
v -3.40280589 34.58293016 20.15796750
v -5.03891214 34.03422911 20.45020891
v -7.29073023 33.27197582 20.49629679
v -6.31999088 33.39458913 20.50153675
v -4.37602835 33.53048626 20.52447207
v -3.40280589 33.53048626 20.53670154
v -0.48810400 33.53048626 20.55046331
v -1.46132646 33.53048626 20.54805913
v -2.43206654 33.53048626 20.54369105
v -24.53563683 25.50228966 19.27010582
v -24.59025522 25.55439959 18.98397914
v -24.61756441 25.58096725 18.37700129
v -3.40528900 35.33905422 18.37700129
v -3.40528900 35.30022523 18.98397914
v -3.86210756 35.18782825 19.27010582
v -4.37602835 35.06010534 19.59161453
v 0.21450311 33.53048626 20.55046331
v -7.29073023 32.55876497 20.55832470
v -10.20791451 31.58704367 20.56269568
v -13.12013400 30.61532237 20.55941672
v -15.06161415 29.64462358 20.56072888
v -17.00557524 28.67290228 20.55854484
v -19.92276096 26.72945968 20.55789021
v -18.95202016 27.70118098 20.54740450
v -21.95858209 25.84765481 20.51180232
v -21.69044913 26.46174962 20.47816694
v -22.34091951 26.23286856 20.43994334
v -22.83994379 26.00705210 20.31326320
v -23.47055215 26.37387531 19.62394065
v -4.37602835 34.54818827 20.07737235
v -5.68938252 33.97087745 20.43361136
v -9.23717516 33.08907547 20.45938246
v -8.26395270 33.17388228 20.48384718
v -8.26395270 32.55876497 20.54565785
v -24.25508902 25.76693221 19.27010582
v -24.07633371 26.04077149 18.98397914
v -24.29729545 25.88443880 18.37700129
v -4.37602835 35.23074436 18.37700129
v -4.37602835 35.19293786 18.98397914
v -4.73602136 35.09893433 19.27010582
v -5.04884315 35.01616963 19.51866352
v -7.29073023 34.32850393 19.86157815
v -6.31999088 34.42557497 19.92251693
v -11.17865458 31.58704367 20.55133519
v -14.09087335 30.61532237 20.53648430
v -16.03483589 29.64462358 20.53648430
v -18.04086543 28.74136065 20.50940104
v -18.95202016 28.43686949 20.48559384
v -19.88303691 27.68381004 20.49651404
v -20.92080950 26.76215656 20.50699685
v -20.61543633 27.34661911 20.47292409
v -19.53049108 28.24374992 20.46069462
v -21.26342288 27.10956382 20.42006683
v -21.95858209 26.76215656 20.29622537
v -22.80022119 26.71106624 19.81876922
v -22.45015919 27.29552878 19.57457959
v -23.53758539 26.43313985 19.27010582
v -23.80571835 26.18995245 19.27010582
v -6.31999088 33.87993853 20.40827475
v -9.73123465 33.04718187 20.44300215
v -11.17865458 32.25427092 20.48930728
v -9.23717516 32.55876497 20.52119601
v -23.92240665 26.23184606 18.37700129
v -24.10364435 26.06631665 18.37700129
v -23.58972284 26.48014307 18.98397914
v -23.61951587 26.50568533 18.37700129
v -5.68193390 35.05601823 18.37700129
v -5.94013585 35.00697291 18.65613845
v -5.36166421 35.05704073 18.98157786
v -5.65958949 34.97631813 19.27010582
v -5.69683042 34.96610180 19.30396134
v -9.23717516 34.09860326 19.59685739
v -8.26395270 34.21815196 19.75739305
v -8.26395270 33.65923168 20.24315087
v -7.29073023 33.75936733 20.34733597
v -12.23628847 31.67594049 20.50634222
v -13.12013400 31.43071098 20.49738881
v -14.09087335 31.21511375 20.47467363
v -15.00451047 30.60714815 20.49367537
v -16.03483589 30.25974089 20.47467363
v -16.93605960 29.62112052 20.49105394
v -17.76031907 29.28188748 20.47379886
v -20.18096146 27.99545581 20.37944194
v -18.40830706 29.11227096 20.43382860
v -20.92080950 27.68381004 20.20754869
v -21.77734439 27.65213276 19.72484969
v -22.49981280 27.33742238 19.27010582
v -22.75056613 27.12591226 19.27010582
v -21.39748936 28.19981421 19.48786682
v -11.17865458 33.31693404 19.81571040
v -10.38170504 32.89084629 20.39625963
v -12.61366111 32.06013174 20.43972609
v -11.96815623 32.14494144 20.46746398
v -23.03111394 26.96651207 18.98397914
v -23.27193626 26.80915688 18.37700129
v -5.96248027 35.01106002 18.37700129
v -6.17351100 34.97325352 18.37700129
v -7.29321262 34.74437246 18.37700129
v -7.29321262 34.70350136 18.98397914
v -6.28771546 34.90275015 18.98157786
v -5.75889815 34.95996969 19.27010582
v -9.76102696 34.02911949 19.49092563
v -14.63955268 31.12519443 20.45173831
v -16.56613558 30.15245063 20.45042905
v -18.95202016 28.92323850 20.33095566
v -19.91531089 28.66268305 20.01665371
v -17.21412358 29.93072418 20.36852174
v -20.89350031 28.38169206 19.67963657
v -22.54698402 27.37625138 18.98397914
v -20.29764831 29.08263869 18.98397914
v -20.89598270 28.65246673 18.98397914
v -21.45211065 28.24272742 18.98397914
v -21.94120246 27.86160078 18.98397914
v -19.64966177 29.30334553 19.65408272
v -18.51258051 30.16062775 19.51560471
v -12.14939465 33.14935962 19.62197385
v -13.04068736 32.58533263 19.82597597
v -11.17865458 32.74064282 20.30146822
v -14.09087335 32.27572897 19.73467787
v -13.12013400 31.91606038 20.38555957
v -23.06090553 26.99205723 18.37700129
v -7.65817186 34.66263026 18.37700129
v -8.26395270 34.48585912 18.98397914
v -9.53261732 34.12210342 19.27010582
v -9.81564680 34.04444833 19.27010582
v -10.02667681 33.98007417 19.27010582
v -11.18113770 33.65412497 18.98397914
v -12.66331472 33.05739820 19.49005086
v -15.29002306 30.92696814 20.38621420
v -18.04086543 29.62112052 20.22611593
v -18.88250453 29.63440435 19.79736330
v -16.03483589 30.74304529 20.23703613
v -16.93357721 30.57342877 19.97231537
v -17.97879842 30.31696043 19.69230632
v -22.57677705 27.40077404 18.37700129
v -19.81352128 29.41267790 18.98397914
v -20.15116988 29.23079716 18.37700129
v -20.33240758 29.10613885 18.37700129
v -20.89598270 28.69946704 18.37700129
v -21.10452959 28.54619897 18.37700129
v -21.48438462 28.26623047 18.37700129
v -21.78727540 28.02917519 18.37700129
v -21.96851310 27.88612344 18.37700129
v -16.65551324 31.17322015 19.57632625
v -17.27122581 30.97805846 18.98397914
v -18.26679196 30.34965732 19.27010582
v -18.54982217 30.18310540 19.27010582
v -19.07615563 29.89904691 18.98397914
v -14.71899932 32.13880933 19.57173802
v -16.03483589 31.33159784 19.75105817
v -15.00451047 31.55434679 19.97886749
v -14.09087335 31.70046315 20.22043569
v -8.26395270 34.52571062 18.37700129
v -8.62891121 34.43374919 18.37700129
v -9.23469277 34.24062962 18.98397914
v -9.88268004 34.06386138 18.98397914
v -10.36680852 33.91570291 18.98397914
v -11.18113770 33.69601567 18.37700129
v -12.15187704 33.31897614 18.98397914
v -12.44235442 33.17081768 19.27010582
v -12.75765860 33.09418219 18.98397914
v -13.24426947 32.90004301 18.98397914
v -14.09087335 32.54548113 18.98397914
v -19.11091490 29.92254996 18.37700129
v -19.84579526 29.43617806 18.37700129
v -16.78461349 31.24372352 18.98397914
v -16.03483589 31.63098228 18.98397914
v -17.31094840 30.99951652 18.37700129
v -17.97879842 30.57036416 18.98397914
v -18.58954476 30.20967307 18.98397914
v -14.86051442 32.20420599 18.98397914
v -15.34464290 31.97430242 18.98397914
v -9.23469277 34.27945861 18.37700129
v -9.48048059 34.21406485 18.37700129
v -9.94474777 34.08327443 18.37700129
v -10.25012094 33.99233550 18.37700129
v -10.43135864 33.93613846 18.37700129
v -12.15187704 33.35984724 18.37700129
v -12.38276980 33.27504043 18.37700129
v -12.80979460 33.11461774 18.37700129
v -13.11268538 32.99404654 18.37700129
v -13.29640692 32.92047856 18.37700129
v -13.61419349 32.78764603 18.37700129
v -14.09087335 32.58737474 18.37700129
v -18.92719336 30.03903405 18.37700129
v -16.82433754 31.26518157 18.37700129
v -16.03483589 31.67491798 18.37700129
v -15.38933173 31.99678008 18.37700129
v -17.57659898 30.84624554 18.37700129
v -17.97879842 30.61225776 18.37700129
v -18.62430258 30.23010862 18.37700129
v -14.90271941 32.22464154 18.37700129
v -15.20809258 32.08261229 18.37700129
f 1 2 3
f 1 3 8
f 1 8 4
f 1 4 12
f 1 12 25
f 1 25 45
f 1 45 85
f 1 85 110
f 1 110 137
f 1 137 136
f 1 136 139
f 1 139 168
f 1 168 194
f 1 194 208
f 1 208 216
f 1 216 215
f 1 215 214
f 1 214 213
f 1 213 212
f 1 212 211
f 1 211 210
f 1 210 238
f 1 238 237
f 1 237 258
f 1 258 264
f 1 264 263
f 1 263 262
f 1 262 241
f 1 241 259
f 1 259 260
f 1 260 261
f 1 261 266
f 1 266 265
f 1 265 257
f 1 257 256
f 1 256 255
f 1 255 254
f 1 254 253
f 1 253 252
f 1 252 251
f 1 251 231
f 1 231 250
f 1 250 249
f 1 249 248
f 1 248 247
f 1 247 246
f 1 246 227
f 1 227 226
f 1 226 195
f 1 195 171
f 1 171 170
f 1 170 169
f 1 169 140
f 1 140 111
f 1 111 86
f 1 86 46
f 1 46 26
f 1 26 13
f 1 13 5
f 1 5 2
f 2 5 6
f 2 6 3
f 3 7 15
f 3 15 28
f 3 28 49
f 3 49 90
f 3 90 51
f 3 51 50
f 3 50 31
f 3 31 30
f 3 30 29
f 3 29 16
f 3 16 8
f 3 6 9
f 3 9 10
f 3 10 11
f 3 11 7
f 4 8 12
f 5 13 14
f 5 14 6
f 6 14 9
f 7 11 24
f 7 24 15
f 8 16 17
f 8 17 18
f 8 18 19
f 8 19 20
f 8 20 12
f 9 14 10
f 10 14 11
f 11 14 21
f 11 21 22
f 11 22 23
f 11 23 24
f 12 20 19
f 12 19 18
f 12 18 17
f 12 17 35
f 12 35 71
f 12 71 44
f 12 44 25
f 13 26 14
f 14 26 27
f 14 27 21
f 15 24 28
f 16 29 17
f 17 29 30
f 17 30 31
f 17 31 32
f 17 32 33
f 17 33 34
f 17 34 35
f 21 27 36
f 21 36 22
f 22 36 37
f 22 37 38
f 22 38 23
f 23 38 39
f 23 39 40
f 23 40 24
f 24 41 28
f 24 40 42
f 24 42 43
f 24 43 41
f 25 44 45
f 26 46 47
f 26 47 27
f 27 47 48
f 27 48 36
f 28 41 49
f 31 50 33
f 31 33 32
f 33 50 51
f 33 51 34
f 34 51 52
f 34 52 53
f 34 53 54
f 34 54 55
f 34 55 56
f 34 56 57
f 34 57 58
f 34 58 59
f 34 59 60
f 34 60 61
f 34 61 35
f 35 61 62
f 35 62 63
f 35 63 64
f 35 64 65
f 35 65 66
f 35 66 67
f 35 67 68
f 35 68 69
f 35 69 70
f 35 70 71
f 36 48 37
f 37 48 72
f 37 72 73
f 37 73 74
f 37 74 38
f 38 74 75
f 38 75 39
f 39 75 76
f 39 76 77
f 39 77 78
f 39 78 40
f 40 78 79
f 40 79 42
f 41 80 90
f 41 90 49
f 41 43 81
f 41 81 80
f 42 79 82
f 42 82 43
f 43 82 81
f 44 71 70
f 44 70 83
f 44 83 84
f 44 84 45
f 45 84 85
f 46 86 87
f 46 87 47
f 47 73 72
f 47 72 48
f 47 87 88
f 47 88 89
f 47 89 73
f 51 90 80
f 51 80 52
f 52 80 53
f 53 80 54
f 54 91 92
f 54 92 55
f 54 80 81
f 54 81 82
f 54 82 91
f 55 92 56
f 56 92 93
f 56 93 94
f 56 94 57
f 57 94 58
f 58 94 59
f 59 94 95
f 59 95 96
f 59 96 62
f 59 62 60
f 60 62 61
f 62 96 63
f 63 96 97
f 63 97 98
f 63 98 64
f 64 98 99
f 64 99 65
f 65 99 100
f 65 100 66
f 66 100 101
f 66 101 67
f 67 101 68
f 68 101 102
f 68 102 69
f 69 102 70
f 70 102 83
f 73 89 103
f 73 103 74
f 74 103 104
f 74 104 75
f 75 104 105
f 75 105 106
f 75 106 76
f 76 106 107
f 76 107 78
f 76 78 77
f 78 107 91
f 78 91 79
f 79 91 82
f 83 108 109
f 83 109 84
f 83 102 108
f 84 109 110
f 84 110 85
f 86 111 112
f 86 112 87
f 87 112 113
f 87 113 114
f 87 114 88
f 88 114 89
f 89 114 115
f 89 115 116
f 89 116 103
f 91 107 117
f 91 117 92
f 92 117 93
f 93 118 94
f 93 117 118
f 94 118 119
f 94 119 95
f 95 97 96
f 95 119 97
f 97 119 120
f 97 120 121
f 97 121 122
f 97 122 123
f 97 123 98
f 98 123 99
f 99 123 122
f 99 122 124
f 99 124 100
f 100 124 125
f 100 125 126
f 100 126 127
f 100 127 101
f 101 128 102
f 101 127 128
f 102 128 129
f 102 129 130
f 102 130 131
f 102 131 108
f 103 116 104
f 104 116 115
f 104 115 132
f 104 132 133
f 104 133 105
f 105 133 134
f 105 134 106
f 106 134 135
f 106 135 107
f 107 135 117
f 108 131 109
f 109 136 137
f 109 137 110
f 109 131 130
f 109 130 138
f 109 138 139
f 109 139 136
f 111 140 141
f 111 141 112
f 112 141 142
f 112 142 143
f 112 143 144
f 112 144 113
f 113 144 114
f 114 144 145
f 114 145 146
f 114 146 115
f 115 146 147
f 115 147 148
f 115 148 132
f 117 135 134
f 117 134 149
f 117 149 150
f 117 150 118
f 118 150 151
f 118 151 152
f 118 152 119
f 119 152 153
f 119 153 154
f 119 154 120
f 120 154 121
f 121 154 155
f 121 155 125
f 121 125 122
f 122 125 124
f 125 156 126
f 125 155 157
f 125 157 156
f 126 156 127
f 127 156 158
f 127 158 159
f 127 159 128
f 128 159 129
f 129 160 161
f 129 161 138
f 129 138 130
f 129 159 162
f 129 162 160
f 132 148 133
f 133 163 164
f 133 164 165
f 133 165 166
f 133 166 134
f 133 148 147
f 133 147 146
f 133 146 163
f 134 166 150
f 134 150 149
f 138 161 167
f 138 167 168
f 138 168 139
f 140 169 141
f 141 169 170
f 141 170 171
f 141 171 172
f 141 172 173
f 141 173 174
f 141 174 144
f 141 144 143
f 141 143 142
f 144 174 172
f 144 172 175
f 144 175 145
f 145 175 163
f 145 163 146
f 150 166 151
f 151 176 153
f 151 153 152
f 151 166 165
f 151 165 176
f 153 176 177
f 153 177 154
f 154 177 155
f 155 177 157
f 156 157 178
f 156 178 179
f 156 179 158
f 157 177 180
f 157 180 178
f 158 179 181
f 158 181 159
f 159 181 162
f 160 182 161
f 160 162 182
f 161 182 167
f 162 183 184
f 162 184 185
f 162 185 186
f 162 186 182
f 162 181 187
f 162 187 188
f 162 188 183
f 163 189 190
f 163 190 165
f 163 165 191
f 163 191 164
f 163 175 189
f 164 191 165
f 165 190 192
f 165 192 193
f 165 193 176
f 167 194 168
f 167 182 194
f 171 195 172
f 172 174 173
f 172 195 196
f 172 196 175
f 175 196 197
f 175 197 198
f 175 198 199
f 175 199 200
f 175 200 201
f 175 201 189
f 176 202 177
f 176 193 202
f 177 202 180
f 178 180 203
f 178 203 204
f 178 204 187
f 178 187 179
f 179 187 181
f 180 202 205
f 180 205 206
f 180 206 207
f 180 207 203
f 182 208 194
f 182 186 208
f 183 209 210
f 183 210 211
f 183 211 184
f 183 188 209
f 184 211 212
f 184 212 213
f 184 213 185
f 185 213 214
f 185 214 186
f 186 214 215
f 186 215 216
f 186 216 208
f 187 204 207
f 187 207 188
f 188 207 217
f 188 217 218
f 188 218 219
f 188 219 220
f 188 220 221
f 188 221 209
f 189 201 192
f 189 192 190
f 192 222 223
f 192 223 224
f 192 224 225
f 192 225 193
f 192 201 222
f 193 225 202
f 195 226 196
f 196 226 227
f 196 227 228
f 196 228 197
f 197 228 229
f 197 229 198
f 198 229 199
f 199 229 230
f 199 230 200
f 200 231 232
f 200 232 233
f 200 233 201
f 200 230 231
f 201 233 234
f 201 234 235
f 201 235 236
f 201 236 222
f 202 225 224
f 202 224 223
f 202 223 205
f 203 207 204
f 205 223 206
f 206 223 207
f 207 223 217
f 209 221 237
f 209 237 238
f 209 238 210
f 217 239 218
f 217 223 222
f 217 222 240
f 217 240 239
f 218 239 259
f 218 259 241
f 218 241 242
f 218 242 219
f 219 242 220
f 220 242 243
f 220 243 221
f 221 243 237
f 222 236 244
f 222 244 245
f 222 245 240
f 227 246 228
f 228 246 247
f 228 247 229
f 229 248 249
f 229 249 230
f 229 247 248
f 230 249 250
f 230 250 231
f 231 251 232
f 232 251 252
f 232 252 234
f 232 234 233
f 234 252 253
f 234 253 254
f 234 254 235
f 235 254 255
f 235 255 256
f 235 256 236
f 236 256 257
f 236 257 244
f 237 243 258
f 239 240 260
f 239 260 259
f 240 245 261
f 240 261 260
f 241 262 242
f 242 262 263
f 242 263 243
f 243 263 264
f 243 264 258
f 244 265 266
f 244 266 261
f 244 261 245
f 244 257 265

