# https://github.com/mikedh/trimesh
v -25.60874800 6.27196938 20.69494888
v -25.57863489 7.28969022 20.69494888
v -25.17462217 5.60027267 20.69494888
v -24.49206609 5.52394422 23.84331558
v -24.37412501 5.70967818 24.42521607
v -24.37412501 6.13457687 24.42521607
v -25.46320517 8.24125983 20.69494888
v -20.08807747 -0.38138464 20.69494888
v -20.14579378 -0.38138464 23.84331558
v -20.08556756 -0.38138464 24.81494563
v -19.92747663 -0.38138464 26.80789411
v -23.11691864 6.31776616 25.24538408
v -23.16208685 7.28969022 25.21964195
v -23.72670186 7.28969022 24.73352785
v -24.29131541 6.78337446 24.31326662
v -23.30261276 9.66861353 24.27435363
v -24.27374895 11.17738573 20.69494888
v 0.02723757 -0.38138464 20.69494888
v -19.04667833 -0.38138464 26.81028815
v -19.92747663 0.48622324 26.81028815
v -22.67526453 7.28969022 25.41121329
v -22.51215379 8.26161428 25.36990625
v -22.40675935 8.90277859 25.32919736
v -22.26623344 9.55157619 25.26514038
v -22.99646765 8.26161428 25.08733805
v -23.56609957 8.26161428 24.60182210
v -19.88230697 1.45814730 26.81028815
v -19.79447900 2.43007136 26.81028815
v -19.66649828 3.40199470 26.81028815
v -23.42808357 9.01981666 24.45754364
v -22.50964388 11.01455017 24.50543756
v -22.35155295 11.66334776 24.32703708
v -23.23736963 13.11868918 20.69494888
v 0.02723757 -0.38138464 26.81028815
v 0.02723757 20.08499172 20.69494888
v -19.28758030 5.31276648 26.81028815
v -19.66148136 3.43761498 26.81028815
v -19.51593563 4.33575454 26.81028815
v -18.99649030 6.31776616 26.81028815
v -18.65521225 7.31004466 26.81028815
v -21.47075465 10.88987955 25.34176863
v -18.25119953 8.23108261 26.81028815
v -22.11065098 10.20546167 25.16336815
v -22.69784936 10.20546167 24.67725405
v -22.85594174 9.28696839 24.86164181
v -21.30011563 11.53613248 25.26933032
v -21.90989885 11.27661329 24.88738394
v -21.72922309 12.14930979 24.66468133
v -21.52345114 12.87189117 24.48388537
v -21.32771883 13.52068876 24.19832353
v -22.62758641 14.08552391 20.69494888
v 0.02723757 19.92724549 26.81028815
v -5.59882740 25.17614348 20.69494888
v 0.02723757 20.08499172 21.90005836
v -17.74430229 9.28187978 26.81028815
v -17.24493332 10.17238606 26.81028815
v -20.46950680 12.73704405 25.32919736
v -21.12194978 12.14930979 25.15079543
v -20.24867830 13.38584165 25.22682553
v -20.89861282 13.12886641 24.85565452
v -20.65018256 14.09061324 24.55931731
v -20.45946862 14.64781583 24.38690267
v -21.26247569 16.03445992 20.69494888
v 0.02723757 19.92978871 26.78334828
v -5.52354535 24.49172488 23.84331558
v -5.70924092 24.37468754 24.42461792
v -6.31902414 23.11525657 25.25137137
v -0.48718795 19.92724549 26.81028815
v -6.27134529 25.60613006 20.69494888
v 0.02723757 19.95777571 26.24574991
v 0.02723757 19.98067483 25.78717384
v 0.02723757 20.00357394 25.27411986
v 0.02723757 20.02392838 24.81494563
v 0.02723757 20.04428283 24.30189165
v 0.02723757 20.05954794 23.84331558
v 0.02723757 20.07226983 23.33085975
v 0.02723757 20.08244705 22.87168697
v -16.72799644 11.00437294 26.81028815
v -19.60125515 13.86416967 25.36032718
v -19.38293800 14.51042260 25.28309933
v -16.41934142 11.46489192 26.81028815
v -19.92496672 14.14913191 25.08554071
v -19.90489180 15.00910652 24.62756423
v -19.56863358 15.71387812 24.46293277
v -19.30263686 16.36267572 24.00675074
v -20.59246625 16.98094164 20.69494888
v -6.13332857 24.37468754 24.42461792
v -6.40183374 23.90399062 24.73532374
v -7.29015960 23.16105335 25.21964195
v -0.53988589 19.92469938 26.81028815
v -7.29015960 25.57814016 20.69494888
v -16.40177495 11.49033497 26.81028815
v -15.87982116 12.19765124 26.81028815
v -18.48708314 15.57394167 25.31063881
v -19.16963922 15.06253730 25.14480960
v -18.89611423 15.96830869 24.80836020
v -18.65521225 16.73414363 24.50543756
v -18.36161378 17.38294122 24.09415581
v -19.68657466 17.96304293 20.69494888
v -6.78326236 24.29072364 24.31326662
v -7.29015960 23.72588850 24.73352785
v -8.24122086 25.46110572 20.69494888
v -8.26380569 22.99821779 25.08733805
v -9.55112518 22.26545919 25.26514038
v -8.90370130 22.40794031 25.32919736
v -8.26380569 22.51225720 25.36990625
v -7.29015960 22.67509277 25.41121329
v -2.43197022 19.78476437 26.81028815
v -1.51102207 19.87381471 26.81028815
v -1.45832413 19.87890260 26.81028815
v -8.26380569 23.56559905 24.60122395
v -15.09187064 13.14922085 26.81028815
v -18.19097476 16.22273926 25.15318948
v -17.54355016 16.57385273 25.32081603
v -17.95258270 16.97839698 24.83649782
v -17.71168072 17.71115702 24.51980472
v -17.38294932 18.35995317 24.09415581
v -18.73300349 18.93751021 20.69494888
v -18.93626408 18.73142253 20.69494888
v -9.66906698 23.30353447 24.27435363
v -9.02164310 23.42820581 24.45754364
v -11.17972343 24.27291531 20.69494888
v -9.28763837 22.85573667 24.86164181
v -10.20607806 22.11025763 25.16336815
v -11.53605730 21.29862301 25.26933032
v -10.88863342 21.46909258 25.34176863
v -10.20607806 22.69799044 24.67725405
v -8.23118340 18.25054839 26.81028815
v -7.30772606 18.65509263 26.81028815
v -6.35917399 18.98585165 26.81028815
v -6.31902414 18.99857354 26.81028815
v -5.33283140 19.29371301 26.81028815
v -4.34162030 19.51506724 26.81028815
v -3.40310641 19.65245903 26.81028815
v -14.16088575 14.16185380 26.81028815
v -17.22234849 17.22265032 25.16815624
v -16.57492388 17.54323212 25.32081603
v -16.97893660 17.95032104 24.83649782
v -16.73301626 18.65509263 24.50543756
v -17.96512934 19.68553536 20.69494888
v -16.36413502 19.30389023 24.00675074
v -16.98144651 20.59130675 20.69494888
v -11.66152738 22.35196486 24.32703708
v -11.01410350 22.50971254 24.50543756
v -13.11948661 23.23738325 20.69494888
v -11.27508040 21.91180105 24.88738394
v -12.15085889 21.12306701 25.15079543
v -13.38548188 20.25037051 25.22682553
v -12.74056718 20.46918008 25.32919736
v -9.28262000 17.74168724 26.81028815
v -13.15210818 15.09306897 26.81028815
v -16.22360766 18.18948505 25.15318948
v -15.57367459 18.48716918 25.31063881
v -15.96765057 18.89425809 24.80836020
v -15.71420195 19.56849802 24.46293277
v -14.64770807 20.45900430 24.38690267
v -16.03540362 21.26300346 20.69494888
v -13.52098942 21.32661146 24.19832353
v -12.87356482 21.52252192 24.48388537
v -12.15085889 21.72861104 24.66468133
v -14.08560298 22.62675132 20.69494888
v -13.12952335 20.89916810 24.85565452
v -14.14833766 19.92469938 25.08554071
v -14.51220053 19.38276334 25.28309933
v -14.09062279 20.64982687 24.55931731
v -13.86226746 19.60157436 25.36032718
v -11.46328516 16.41865117 26.81028815
v -11.00406531 16.72651107 26.81028815
v -10.19603987 17.22773966 26.81028815
v -10.17094658 17.24300477 26.81028815
v -12.19853846 15.87925835 26.81028815
v -15.06426744 19.16904166 25.14480960
v -15.00906104 19.90434493 24.62756423
v -11.52351065 16.37539761 26.81028815
v -11.48837918 16.40083994 26.81028815
f 1 2 7
f 1 7 17
f 1 17 33
f 1 33 51
f 1 51 63
f 1 63 86
f 1 86 99
f 1 99 119
f 1 119 118
f 1 118 140
f 1 140 142
f 1 142 157
f 1 157 161
f 1 161 145
f 1 145 122
f 1 122 102
f 1 102 91
f 1 91 69
f 1 69 53
f 1 53 35
f 1 35 18
f 1 18 8
f 1 8 3
f 1 3 4
f 1 4 5
f 1 5 6
f 1 6 2
f 2 6 7
f 3 8 9
f 3 9 10
f 3 10 11
f 3 11 4
f 4 11 5
f 5 12 13
f 5 13 6
f 5 11 12
f 6 13 14
f 6 14 15
f 6 15 7
f 7 15 16
f 7 16 17
f 8 18 34
f 8 34 19
f 8 19 11
f 8 11 10
f 8 10 9
f 11 19 20
f 11 20 12
f 12 20 13
f 13 21 22
f 13 22 23
f 13 23 24
f 13 24 25
f 13 25 26
f 13 26 14
f 13 20 27
f 13 27 28
f 13 28 29
f 13 29 21
f 14 26 15
f 15 26 30
f 15 30 16
f 16 30 31
f 16 31 32
f 16 32 17
f 17 32 33
f 18 35 54
f 18 54 77
f 18 77 76
f 18 76 75
f 18 75 74
f 18 74 73
f 18 73 72
f 18 72 71
f 18 71 70
f 18 70 64
f 18 64 52
f 18 52 34
f 19 34 52
f 19 52 68
f 19 68 90
f 19 90 110
f 19 110 109
f 19 109 108
f 19 108 134
f 19 134 133
f 19 133 132
f 19 132 131
f 19 131 130
f 19 130 129
f 19 129 128
f 19 128 150
f 19 150 170
f 19 170 169
f 19 169 168
f 19 168 167
f 19 167 175
f 19 175 174
f 19 174 171
f 19 171 151
f 19 151 135
f 19 135 112
f 19 112 93
f 19 93 92
f 19 92 81
f 19 81 78
f 19 78 56
f 19 56 55
f 19 55 42
f 19 42 40
f 19 40 39
f 19 39 36
f 19 36 38
f 19 38 37
f 19 37 29
f 19 29 28
f 19 28 27
f 19 27 20
f 21 36 22
f 21 29 37
f 21 37 38
f 21 38 36
f 22 36 39
f 22 39 40
f 22 40 23
f 23 41 24
f 23 40 42
f 23 42 41
f 24 43 44
f 24 44 45
f 24 45 25
f 24 41 46
f 24 46 43
f 25 45 26
f 26 45 30
f 30 45 44
f 30 44 31
f 31 47 48
f 31 48 32
f 31 44 43
f 31 43 47
f 32 48 49
f 32 49 50
f 32 50 33
f 33 50 51
f 35 53 54
f 41 55 56
f 41 56 57
f 41 57 46
f 41 42 55
f 43 46 47
f 46 58 48
f 46 48 47
f 46 57 59
f 46 59 58
f 48 58 49
f 49 60 61
f 49 61 62
f 49 62 50
f 49 58 60
f 50 62 51
f 51 62 63
f 52 64 53
f 52 53 65
f 52 65 66
f 52 66 67
f 52 67 68
f 53 69 65
f 53 64 70
f 53 70 71
f 53 71 72
f 53 72 73
f 53 73 74
f 53 74 75
f 53 75 76
f 53 76 77
f 53 77 54
f 56 78 57
f 57 79 80
f 57 80 59
f 57 78 81
f 57 81 79
f 58 59 60
f 59 80 82
f 59 82 61
f 59 61 60
f 61 82 83
f 61 83 62
f 62 83 84
f 62 84 85
f 62 85 86
f 62 86 63
f 65 69 66
f 66 69 87
f 66 87 88
f 66 88 67
f 67 88 89
f 67 89 68
f 68 89 90
f 69 91 87
f 79 81 92
f 79 92 93
f 79 93 80
f 80 93 94
f 80 94 95
f 80 95 82
f 82 95 83
f 83 95 84
f 84 95 96
f 84 96 97
f 84 97 98
f 84 98 85
f 85 98 86
f 86 98 99
f 87 100 101
f 87 101 89
f 87 89 88
f 87 91 102
f 87 102 100
f 89 103 104
f 89 104 105
f 89 105 106
f 89 106 107
f 89 107 108
f 89 108 109
f 89 109 110
f 89 110 90
f 89 101 111
f 89 111 103
f 93 112 94
f 94 113 95
f 94 112 114
f 94 114 113
f 95 113 96
f 96 113 97
f 97 115 116
f 97 116 98
f 97 113 115
f 98 116 117
f 98 117 118
f 98 118 119
f 98 119 99
f 100 102 120
f 100 120 121
f 100 121 111
f 100 111 101
f 102 122 120
f 103 111 123
f 103 123 104
f 104 124 125
f 104 125 126
f 104 126 105
f 104 123 127
f 104 127 124
f 105 126 128
f 105 128 129
f 105 129 130
f 105 130 106
f 106 130 131
f 106 131 132
f 106 132 107
f 107 132 133
f 107 133 134
f 107 134 108
f 111 121 123
f 112 135 114
f 113 114 136
f 113 136 115
f 114 137 136
f 114 135 137
f 115 136 116
f 116 136 138
f 116 138 139
f 116 139 117
f 117 140 118
f 117 139 141
f 117 141 142
f 117 142 140
f 120 122 143
f 120 143 144
f 120 144 121
f 121 144 127
f 121 127 123
f 122 145 143
f 124 127 144
f 124 144 146
f 124 146 125
f 125 147 148
f 125 148 149
f 125 149 126
f 125 146 147
f 126 149 150
f 126 150 128
f 135 151 137
f 136 137 152
f 136 152 138
f 137 153 152
f 137 151 153
f 138 152 139
f 139 152 154
f 139 154 155
f 139 155 141
f 141 155 156
f 141 156 142
f 142 156 157
f 143 158 159
f 143 159 160
f 143 160 144
f 143 145 158
f 144 160 146
f 145 161 158
f 146 160 147
f 147 160 159
f 147 159 162
f 147 162 148
f 148 163 164
f 148 164 149
f 148 162 165
f 148 165 163
f 149 164 166
f 149 166 167
f 149 167 168
f 149 168 169
f 149 169 170
f 149 170 150
f 151 171 153
f 152 153 172
f 152 172 154
f 153 164 172
f 153 171 164
f 154 172 155
f 155 172 173
f 155 173 156
f 156 165 159
f 156 159 158
f 156 158 161
f 156 161 157
f 156 173 165
f 159 165 162
f 163 173 172
f 163 172 164
f 163 165 173
f 164 171 166
f 166 171 174
f 166 174 175
f 166 175 167

