# https://github.com/mikedh/trimesh
v -35.36796755 0.01287955 19.27002761
v -35.32726445 0.01287955 19.38955893
v -30.02621888 0.01287955 19.27002761
v -35.36689870 -0.48641483 19.27002761
v -35.19551526 -0.48641483 19.77410646
v -35.19551526 0.01287955 19.77410646
v -24.42632184 -4.96408368 19.27002761
v -30.08084596 0.01287955 19.55414694
v -24.42632184 -5.09789454 20.69480985
v -24.42632184 -4.98205820 19.95584817
v -35.34119133 -1.45903987 19.27002761
v -35.18051953 -1.45903987 19.75681083
v -34.64066761 -0.48641483 20.25991352
v -34.62888711 -1.45903987 20.24261789
v -34.64066761 0.01287955 20.25991352
v -24.42632184 -20.39027261 19.27002761
v -30.58427886 0.01287955 20.04009304
v -31.07057545 0.01287955 20.45672047
v -31.58793234 0.01287955 20.51864700
v -32.55945377 0.01287955 20.56551407
v -25.17718857 -5.59918576 20.69480985
v -24.42632184 -11.04748208 20.69480985
v -35.29513241 -2.43166418 19.27002761
v -35.15481216 -2.43166418 19.72514804
v -34.60960441 -2.43166418 20.21095510
v -34.15437102 -0.48641483 20.48851941
v -34.09867509 -3.40229201 20.47513130
v -34.12331072 -2.43166418 20.48196439
v -34.14259052 -1.45903987 20.48628902
v -34.06439666 -4.37491669 20.46299452
v -34.15437102 0.01287955 20.48851941
v -24.42632184 -20.39027261 20.56551407
v -28.82761807 -20.39027261 19.27002761
v -33.53097231 0.01287955 20.55044883
v -25.60885518 -6.27223410 20.69480985
v -25.40105561 -5.91673663 20.69480985
v -24.54093472 -10.94962027 20.69480985
v -25.75667185 -20.39027261 20.56383984
v -24.78515331 -20.39027261 20.56551407
v -35.22550671 -3.40229201 19.27002761
v -35.11625255 -3.40229201 19.67354212
v -34.58389704 -3.40229201 20.15934918
v -34.03547695 -5.04596782 20.45058257
v -33.53097231 -0.48641483 20.55044883
v -33.83517380 0.01287955 20.52032124
v -33.53097231 -1.45903987 20.54807941
v -33.53097231 -4.37491669 20.52492394
v -33.53097231 -3.40229201 20.53706072
v -33.53097231 -2.43166418 20.54375478
v -33.27497033 -7.29079351 20.49660963
v -33.39815136 -6.31816919 20.50177138
v -28.52876950 -20.39027261 19.85570094
v -29.30427186 -19.65331393 19.65471128
v -29.36639825 -19.74718133 19.27002761
v -25.61313926 -7.10305945 20.69480985
v -30.61534206 -13.12055066 20.55951521
v -29.64489237 -15.06380353 20.56091137
v -28.67230209 -17.00705640 20.55853905
v -27.70078356 -17.97968144 20.56425695
v -26.72926502 -19.92293286 20.55812194
v -25.45461384 -8.93646725 20.69480985
v -26.74532959 -20.39027261 20.53454936
v -35.13338886 -4.37491669 19.27002761
v -35.01770714 -5.05395665 19.52025376
v -35.06269431 -4.37491669 19.59347994
v -34.54962151 -4.37491669 20.07928701
v -33.97335056 -5.69305316 20.43412406
v -33.09073464 -9.23404638 20.45992702
v -33.17535607 -8.26341855 20.48405574
v -32.55945377 -6.31816919 20.56370080
v -32.55945377 -5.34754173 20.56523310
v -32.55945377 -8.26341855 20.54598516
v -32.55945377 -7.29079351 20.55853905
v -27.90858313 -20.39027261 20.33258356
v -28.66373393 -19.91893844 20.01735758
v -28.92401999 -18.95230648 20.33146547
v -29.63418072 -18.88240415 19.79795711
v -30.31542465 -17.97968144 19.69237005
v -30.15903982 -18.51292620 19.51565105
v -30.18153196 -18.54887597 19.27002761
v -31.58793234 -10.20467421 20.56300272
v -31.58793234 -11.17729852 20.55142499
v -30.61534206 -14.09317570 20.53650168
v -29.64489237 -16.03642857 20.53650168
v -27.70078356 -18.95230648 20.54765940
v -27.68364434 -19.88498733 20.49689060
v -27.45334974 -20.39027261 20.48057112
v -35.03805869 -5.19975041 19.27002761
v -34.96843588 -5.70104163 19.31242812
v -34.09974394 -9.23404638 19.59947592
v -34.22078439 -8.26341855 19.75932219
v -34.33111029 -7.29079351 19.86295404
v -34.42751221 -6.31816919 19.92334826
v -33.88337621 -6.31816919 20.40929725
v -33.04896269 -9.73533724 20.44332947
v -32.25524938 -11.17729852 20.48949556
v -32.55945377 -9.23404638 20.52171740
v -27.99641689 -20.18256573 20.38028485
v -29.11146801 -18.40907421 20.43398502
v -29.92874521 -17.21476328 20.36856808
v -29.62132849 -18.04358924 20.22615938
v -30.57356722 -16.93515686 19.97216764
v -31.33086151 -16.03642857 19.75025581
v -31.17233320 -16.65555334 19.57548623
v -31.20875222 -16.72145980 19.27002761
v -31.67683785 -12.23380418 20.50637408
v -31.43047577 -13.12055066 20.49758578
v -31.21517689 -14.09317570 20.47457225
v -30.60784275 -15.00388870 20.49354212
v -30.25651059 -16.03642857 20.47457225
v -29.62132849 -16.93915128 20.49089173
v -28.74192779 -18.04358924 20.50944159
v -28.43772340 -18.95230648 20.48572998
v -28.24384782 -19.53348427 20.46090317
v -34.98021637 -5.65710375 19.27002761
v -34.97057647 -5.71701931 19.27002761
v -34.95986482 -5.77693450 19.27002761
v -34.03012113 -9.76329817 19.49277656
v -33.31888576 -11.17729852 19.81678504
v -33.66164976 -8.26341855 20.24512925
v -33.76126691 -7.29079351 20.34890013
v -32.89257497 -10.38042573 20.39688240
v -32.06030205 -12.61326817 20.43970292
v -32.14599522 -11.96618319 20.46759723
v -29.28177972 -17.76198851 20.47373513
v -30.15046876 -16.56767613 20.45058257
v -30.92597112 -15.28948529 20.38586371
v -30.74280718 -16.03642857 20.23606287
v -31.55472855 -15.00388870 19.97844459
v -32.27560093 -14.09317570 19.73393634
v -32.13849591 -14.71829210 19.57088353
v -32.17170259 -14.79019019 19.27002761
v -31.12520253 -14.64040238 20.45183680
v -34.04618860 -9.81722210 19.27002761
v -33.05753085 -12.66519561 19.49026521
v -33.15072044 -12.14792635 19.62263138
v -32.58515825 -13.04066374 19.82599335
v -32.74154597 -11.17729852 20.30259500
v -31.91677236 -13.12055066 20.38558564
v -31.70040173 -14.09317570 20.21974340
v -33.07359832 -12.70713556 19.27002761
f 1 2 6
f 1 6 15
f 1 15 31
f 1 31 45
f 1 45 34
f 1 34 20
f 1 20 19
f 1 19 18
f 1 18 17
f 1 17 8
f 1 8 3
f 1 3 7
f 1 7 16
f 1 16 33
f 1 33 54
f 1 54 80
f 1 80 105
f 1 105 132
f 1 132 141
f 1 141 134
f 1 134 117
f 1 117 116
f 1 116 115
f 1 115 88
f 1 88 63
f 1 63 40
f 1 40 23
f 1 23 11
f 1 11 4
f 1 4 5
f 1 5 2
f 2 5 6
f 3 8 9
f 3 9 10
f 3 10 7
f 4 11 12
f 4 12 5
f 5 13 15
f 5 15 6
f 5 12 14
f 5 14 13
f 7 10 9
f 7 9 22
f 7 22 32
f 7 32 16
f 8 17 9
f 9 17 18
f 9 18 19
f 9 19 20
f 9 20 21
f 9 21 36
f 9 36 35
f 9 35 55
f 9 55 61
f 9 61 37
f 9 37 22
f 11 23 24
f 11 24 12
f 12 24 25
f 12 25 14
f 13 26 31
f 13 31 15
f 13 14 27
f 13 27 28
f 13 28 29
f 13 29 26
f 14 25 30
f 14 30 27
f 16 32 39
f 16 39 38
f 16 38 62
f 16 62 87
f 16 87 74
f 16 74 52
f 16 52 33
f 20 34 35
f 20 35 36
f 20 36 21
f 22 37 38
f 22 38 39
f 22 39 32
f 23 40 41
f 23 41 24
f 24 41 42
f 24 42 25
f 25 42 43
f 25 43 30
f 26 44 45
f 26 45 31
f 26 29 46
f 26 46 44
f 27 30 47
f 27 47 48
f 27 48 28
f 28 48 49
f 28 49 29
f 29 49 46
f 30 43 50
f 30 50 51
f 30 51 47
f 33 52 53
f 33 53 54
f 34 45 44
f 34 44 55
f 34 55 35
f 37 56 57
f 37 57 58
f 37 58 59
f 37 59 60
f 37 60 38
f 37 61 56
f 38 60 62
f 40 63 64
f 40 64 65
f 40 65 41
f 41 65 66
f 41 66 42
f 42 66 67
f 42 67 43
f 43 67 68
f 43 68 69
f 43 69 50
f 44 46 70
f 44 70 71
f 44 71 55
f 46 49 70
f 47 51 50
f 47 50 72
f 47 72 73
f 47 73 48
f 48 73 49
f 49 73 70
f 50 69 72
f 52 74 75
f 52 75 53
f 53 75 76
f 53 76 77
f 53 77 78
f 53 78 79
f 53 79 54
f 54 79 80
f 55 70 61
f 55 71 70
f 56 61 81
f 56 81 82
f 56 82 83
f 56 83 57
f 57 84 58
f 57 83 84
f 58 84 85
f 58 85 60
f 58 60 59
f 60 85 62
f 61 70 81
f 62 85 86
f 62 86 87
f 63 88 64
f 64 88 89
f 64 89 90
f 64 90 91
f 64 91 92
f 64 92 65
f 65 92 93
f 65 93 66
f 66 93 67
f 67 93 92
f 67 92 94
f 67 94 95
f 67 95 68
f 68 95 96
f 68 96 69
f 69 97 72
f 69 96 97
f 70 73 81
f 72 97 82
f 72 82 73
f 73 82 81
f 74 87 98
f 74 98 75
f 75 98 76
f 76 98 99
f 76 99 100
f 76 100 101
f 76 101 77
f 77 101 78
f 78 101 100
f 78 100 102
f 78 102 103
f 78 103 104
f 78 104 79
f 79 104 105
f 79 105 80
f 82 96 106
f 82 106 107
f 82 107 83
f 82 97 96
f 83 107 108
f 83 108 109
f 83 109 84
f 84 109 110
f 84 110 111
f 84 111 112
f 84 112 85
f 85 113 86
f 85 112 113
f 86 113 114
f 86 114 87
f 87 114 98
f 88 115 89
f 89 115 116
f 89 116 117
f 89 117 118
f 89 118 90
f 90 118 119
f 90 119 91
f 91 120 92
f 91 119 95
f 91 95 120
f 92 120 121
f 92 121 94
f 94 121 95
f 95 119 122
f 95 122 123
f 95 123 124
f 95 124 96
f 95 121 120
f 96 124 107
f 96 107 106
f 98 114 99
f 99 125 126
f 99 126 100
f 99 114 125
f 100 126 127
f 100 127 128
f 100 128 102
f 102 128 103
f 103 128 127
f 103 127 129
f 103 129 130
f 103 130 131
f 103 131 104
f 104 131 132
f 104 132 105
f 107 124 108
f 108 133 110
f 108 110 109
f 108 124 123
f 108 123 133
f 110 126 111
f 110 133 126
f 111 126 125
f 111 125 113
f 111 113 112
f 113 125 114
f 117 134 118
f 118 134 135
f 118 135 136
f 118 136 119
f 119 136 130
f 119 130 137
f 119 137 123
f 119 123 138
f 119 138 122
f 122 138 123
f 123 137 130
f 123 130 139
f 123 139 133
f 126 133 127
f 127 133 139
f 127 139 140
f 127 140 129
f 129 140 130
f 130 140 139
f 130 136 135
f 130 135 131
f 131 135 132
f 132 135 141
f 134 141 135

