# https://github.com/mikedh/trimesh
v 0.00503871 -35.52457352 7.38878396
v 0.00503871 -35.51761587 6.37172210
v 0.51084249 -35.51761587 6.37172210
v 0.55604257 -35.51761587 7.38878396
v 0.00503871 35.51748801 7.38878396
v 0.00503871 35.51748801 6.37172210
v 1.48155649 -35.49675452 6.37172210
v 1.46003327 -35.49675452 7.38878396
v 0.48716709 35.52443986 7.38878396
v 0.48716709 35.51748801 6.37172210
v 2.45442340 -35.44111652 6.37172210
v 2.43074727 -35.44111652 7.38878396
v 1.46003327 35.49662087 6.37172210
v 1.46003327 35.49662087 7.38878396
v 3.42513740 -35.35765953 6.37172210
v 3.40361345 -35.35765953 7.38878396
v 2.36187179 35.44794052 7.38878396
v 2.43074727 35.44098287 6.37172210
v 3.47033676 -35.35070189 7.38878396
v 4.39800358 -35.25334119 6.37172210
v 3.37993732 35.36448352 6.37172210
v 3.33473797 35.36448352 7.38878396
v 4.44320294 -35.24638354 7.38878396
v 5.34719364 -35.12119805 6.37172210
v 5.34719364 -35.12119805 7.38878396
v 3.40361345 35.35752588 7.38878396
v 4.35280351 35.26016518 6.37172210
v 5.99290164 -35.01687971 6.37172210
v 5.39239335 -35.11424620 7.38878396
v 4.37432746 35.25320753 7.38878396
v 5.34719364 35.12107019 6.37172210
v 5.34719364 35.12107019 7.38878396
v 6.49655360 -34.92647086 6.37172210
v 5.99290164 -35.01687971 7.38878396
v 5.99290164 35.01675185 6.37172210
v 5.99290164 35.01675185 7.38878396
v 7.31444995 -34.76650873 6.37172210
v 6.53529570 -34.91951321 7.38878396
v 6.47933473 34.92633721 6.37172210
v 6.47933473 34.92633721 7.38878396
v 8.26148855 -34.55091439 6.37172210
v 8.26148855 -34.55091439 7.38878396
v 7.35964930 -34.75259923 7.38878396
v 7.27140277 34.77333272 6.37172210
v 7.23266068 34.78029036 7.38878396
v 9.23435400 -34.30054920 6.37172210
v 9.23435400 -34.30054920 7.38878396
v 8.23996460 34.55773838 6.37172210
v 8.26148855 34.55078653 7.38878396
v 9.98337559 -34.09190672 6.37172210
v 9.28816352 -34.28663971 7.38878396
v 9.16547852 34.32128270 7.38878396
v 9.21067860 34.30737320 6.37172210
v 10.48702719 -33.94585988 6.37172210
v 9.98337559 -34.09190672 7.38878396
v 10.01781333 34.08482121 7.38878396
v 9.99413721 34.09177886 6.37172210
v 10.43537058 -33.95976938 7.38878396
v 11.19945814 -33.71635605 6.37172210
v 11.17578273 -33.72330790 7.38878396
v 10.46980832 33.94572623 7.38878396
v 10.46980832 33.94572623 6.37172210
v 12.14864892 -33.38252807 6.37172210
v 12.14864892 -33.38252807 7.38878396
v 11.17578273 33.72318004 7.38878396
v 11.17578273 33.72318004 6.37172210
v 12.83955591 -33.12520524 6.37172210
v 12.83955591 -33.12520524 7.38878396
v 12.14864892 33.38240021 7.38878396
v 12.14864892 33.38240021 6.37172210
v 13.31307557 -32.93742990 6.37172210
v 13.37979743 -32.90961091 7.38878396
v 12.83955591 33.12507738 7.38878396
v 12.82233704 33.13202923 6.37172210
v 14.09222910 -32.61055958 6.37172210
v 14.09222910 -32.61055958 7.38878396
v 13.32383646 32.93034440 7.38878396
v 13.32383646 32.93034440 6.37172210
v 14.93164940 -32.23500890 6.37172210
v 14.93164940 -32.23500890 7.38878396
v 14.09222910 32.61043172 7.38878396
v 14.09222910 32.61043172 6.37172210
v 15.40731979 -32.01245692 6.37172210
v 15.38364438 -32.02636642 7.38878396
v 14.87353625 32.26269424 7.38878396
v 14.93164940 32.23487525 6.37172210
v 16.03580928 -31.69949609 6.37172210
v 16.09177025 -31.67167709 7.38878396
v 14.96608714 32.22096575 7.38878396
v 15.41808213 32.00537141 6.37172210
v 16.84724837 -31.27525927 6.37172210
v 16.84724837 -31.27525927 7.38878396
v 15.41808213 32.00537141 7.38878396
v 16.03580928 31.69936823 6.37172210
v 17.32076804 -31.01793644 6.37172210
v 17.33368110 -31.01098459 7.32058918
v 17.33368110 -31.01098459 7.38878396
v 16.03580928 31.69936823 7.38878396
v 16.84724837 31.27513141 6.37172210
v 17.99660834 -30.62847627 6.37172210
v 17.97938947 -30.63543391 7.38878396
v 16.84724837 31.27513141 7.38878396
v 17.33368110 31.01085093 6.37172210
v 18.64662106 -30.23901609 6.37172210
v 18.64662106 -30.23901609 7.38878396
v 18.02674172 -30.60761491 7.38878396
v 17.33368110 31.01085093 7.38878396
v 17.93419084 30.66311926 7.38878396
v 17.97938947 30.63530026 6.37172210
v 19.12013927 -29.93996476 6.37172210
v 19.09861750 -29.95387426 7.38878396
v 18.64662106 30.23888244 6.37172210
v 18.64662106 30.23888244 7.38878396
v 19.13090161 -29.93300712 6.37172210
v 19.13090161 -29.93300712 7.38878396
v 18.68105880 30.21802109 7.38878396
v 19.13305524 29.93287926 6.37172210
v 19.86916086 -29.44618045 6.37172210
v 19.86916086 -29.44618045 7.38878396
v 19.13305524 29.93287926 7.38878396
v 19.85194199 29.45996209 6.37172210
v 20.35559359 -29.11931012 6.37172210
v 20.35559359 -29.11931012 7.38878396
v 19.90359860 29.42518544 7.38878396
v 20.35559359 29.11918226 6.37172210
v 20.91090180 -28.71594045 6.37172210
v 20.39433569 -29.09149113 7.38878396
v 20.35559359 29.11918226 7.38878396
v 20.89583656 28.72971629 6.37172210
v 21.50495501 -28.27779413 6.37172210
v 21.50495501 -28.27779413 7.38878396
v 20.93888301 -28.69507331 7.38878396
v 20.89583656 28.72971629 7.38878396
v 21.46190710 28.31243712 7.38878396
v 21.48988686 28.29157577 6.37172210
v 21.98062540 -27.90919531 6.37172210
v 21.99353991 -27.89528581 7.38878396
v 21.51786807 28.27070863 6.37172210
v 21.99138773 27.89515795 7.38878396
v 21.99353991 27.89515795 7.38858409
v 21.99138773 -27.89528581 6.37172210
v 21.99353991 -27.89528581 6.37351509
v 21.99353991 27.34573564 7.38878396
v 21.99353991 27.89515795 6.37172210
v 21.99353991 -27.88137631 6.37172210
f 1 2 3
f 1 3 4
f 1 4 8
f 1 8 12
f 1 12 16
f 1 16 19
f 1 19 23
f 1 23 25
f 1 25 29
f 1 29 34
f 1 34 38
f 1 38 43
f 1 43 42
f 1 42 47
f 1 47 51
f 1 51 55
f 1 55 58
f 1 58 60
f 1 60 64
f 1 64 68
f 1 68 72
f 1 72 76
f 1 76 80
f 1 80 84
f 1 84 88
f 1 88 92
f 1 92 97
f 1 97 101
f 1 101 106
f 1 106 105
f 1 105 111
f 1 111 115
f 1 115 119
f 1 119 123
f 1 123 127
f 1 127 132
f 1 132 131
f 1 131 137
f 1 137 143
f 1 143 139
f 1 139 134
f 1 134 133
f 1 133 128
f 1 128 124
f 1 124 120
f 1 120 116
f 1 116 113
f 1 113 108
f 1 108 107
f 1 107 102
f 1 102 98
f 1 98 93
f 1 93 89
f 1 89 85
f 1 85 81
f 1 81 77
f 1 77 73
f 1 73 69
f 1 69 65
f 1 65 61
f 1 61 56
f 1 56 52
f 1 52 49
f 1 49 45
f 1 45 40
f 1 40 36
f 1 36 32
f 1 32 30
f 1 30 26
f 1 26 22
f 1 22 17
f 1 17 14
f 1 14 9
f 1 9 5
f 1 5 6
f 1 6 2
f 2 6 10
f 2 10 13
f 2 13 18
f 2 18 21
f 2 21 27
f 2 27 31
f 2 31 35
f 2 35 39
f 2 39 44
f 2 44 48
f 2 48 53
f 2 53 57
f 2 57 62
f 2 62 66
f 2 66 70
f 2 70 74
f 2 74 78
f 2 78 82
f 2 82 86
f 2 86 90
f 2 90 94
f 2 94 99
f 2 99 103
f 2 103 109
f 2 109 112
f 2 112 117
f 2 117 121
f 2 121 125
f 2 125 129
f 2 129 135
f 2 135 138
f 2 138 144
f 2 144 145
f 2 145 141
f 2 141 136
f 2 136 130
f 2 130 126
f 2 126 122
f 2 122 118
f 2 118 114
f 2 114 110
f 2 110 104
f 2 104 100
f 2 100 95
f 2 95 91
f 2 91 87
f 2 87 83
f 2 83 79
f 2 79 75
f 2 75 71
f 2 71 67
f 2 67 63
f 2 63 59
f 2 59 54
f 2 54 50
f 2 50 46
f 2 46 41
f 2 41 37
f 2 37 33
f 2 33 28
f 2 28 24
f 2 24 20
f 2 20 15
f 2 15 11
f 2 11 7
f 2 7 3
f 3 7 4
f 4 7 8
f 5 9 6
f 6 9 10
f 7 11 8
f 8 11 12
f 9 13 10
f 9 14 13
f 11 15 16
f 11 16 12
f 13 14 17
f 13 17 18
f 15 19 16
f 15 20 23
f 15 23 19
f 17 21 18
f 17 22 21
f 20 24 25
f 20 25 23
f 21 22 26
f 21 26 27
f 24 28 29
f 24 29 25
f 26 30 27
f 27 30 32
f 27 32 31
f 28 33 38
f 28 38 34
f 28 34 29
f 31 32 36
f 31 36 35
f 33 37 38
f 35 36 40
f 35 40 39
f 37 41 42
f 37 42 43
f 37 43 38
f 39 40 44
f 40 45 44
f 41 46 47
f 41 47 42
f 44 45 48
f 45 49 48
f 46 50 51
f 46 51 47
f 48 52 53
f 48 49 52
f 50 54 55
f 50 55 51
f 52 56 57
f 52 57 53
f 54 58 55
f 54 59 60
f 54 60 58
f 56 61 62
f 56 62 57
f 59 63 64
f 59 64 60
f 61 65 66
f 61 66 62
f 63 67 68
f 63 68 64
f 65 69 70
f 65 70 66
f 67 71 68
f 68 71 72
f 69 73 74
f 69 74 70
f 71 75 72
f 72 75 76
f 73 77 74
f 74 77 78
f 75 79 80
f 75 80 76
f 77 81 82
f 77 82 78
f 79 83 84
f 79 84 80
f 81 85 82
f 82 85 86
f 83 87 84
f 84 87 88
f 85 89 86
f 86 89 90
f 87 91 88
f 88 91 92
f 89 93 90
f 90 93 98
f 90 98 94
f 91 95 96
f 91 96 97
f 91 97 92
f 94 98 102
f 94 102 99
f 95 100 96
f 96 100 97
f 97 100 101
f 99 102 107
f 99 107 103
f 100 104 105
f 100 105 106
f 100 106 101
f 103 107 108
f 103 108 109
f 104 110 111
f 104 111 105
f 108 112 109
f 108 113 112
f 110 114 115
f 110 115 111
f 112 116 117
f 112 113 116
f 114 118 119
f 114 119 115
f 116 120 117
f 117 120 121
f 118 122 123
f 118 123 119
f 120 124 121
f 121 124 125
f 122 126 127
f 122 127 123
f 124 128 125
f 125 128 133
f 125 133 129
f 126 130 131
f 126 131 132
f 126 132 127
f 129 133 134
f 129 134 135
f 130 136 131
f 131 136 137
f 134 138 135
f 134 139 140
f 134 140 138
f 136 141 142
f 136 142 137
f 137 142 145
f 137 145 144
f 137 144 140
f 137 140 143
f 138 140 144
f 139 143 140
f 141 145 142

