# https://github.com/mikedh/trimesh
v -0.04244172 35.49639493 0.44730098
v -0.04244172 35.25550744 -0.23528407
v -0.48679836 35.49639493 0.44730098
v -0.04244172 27.69414513 0.44730098
v -0.04244172 34.91207432 -0.35730067
v -0.48679836 35.25550744 -0.23528407
v -1.45963847 35.24293327 -0.22969941
v -1.45963847 35.47317864 0.44730098
v -0.04244172 27.81120274 0.11540794
v -2.62014385 25.61419131 0.44730098
v -2.76251055 25.61419131 -0.14062880
v -0.04244172 34.50285350 -0.50258860
v -0.48679836 34.50285350 -0.50258860
v -1.45963847 34.50285350 -0.49700395
v -2.43032133 34.50285350 -0.48173884
v -2.43032133 35.21584422 -0.21452699
v -3.40316144 35.17521354 -0.18688759
v -2.43032133 35.42093836 0.44730098
v -0.04244172 27.93019529 -0.22160050
v -22.07694463 25.61419131 0.44730098
v -3.40316144 25.61419131 -0.40784064
v -0.04244172 33.53156380 -0.50342282
v -7.29020740 33.53156380 -0.50342282
v -3.40316144 34.50285350 -0.45418633
v -8.26304751 33.53156380 -0.48564925
v -4.37384431 34.50285350 -0.40895873
v -4.37384431 35.12297036 -0.14165420
v -3.40316144 35.34257650 0.44730098
v -0.04244172 28.67220709 -0.48890504
v -22.07694463 27.79572328 0.44730098
v -22.07694463 25.61419131 -0.50007435
v -4.37384431 25.61419131 -0.50342282
v -0.04244172 29.64446716 -0.50342282
v -10.20657048 32.55930663 -0.50342282
v -11.17725335 32.55930663 -0.49802355
v -9.23373037 33.53156380 -0.40672255
v -8.26304751 34.27551054 -0.21834472
v -12.14793621 32.55930663 -0.41938072
v -5.34668442 35.05622099 -0.06366020
v -5.93772262 35.00784768 0.00111948
v -4.37384431 35.24293327 0.44730098
v -0.04244172 29.20138792 -0.49681856
v -22.07694463 27.55870565 -0.16157126
v -21.49884882 28.27653370 0.44730098
v -21.46433577 28.24944465 -0.04300161
v -22.07694463 25.75640015 -0.50007435
v -21.90653589 25.61419131 -0.50286668
v -21.86770834 25.61419131 -0.50342282
v -13.12077560 31.58704657 -0.50342282
v -14.09145991 31.58704657 -0.46461411
v -11.17725335 33.37097310 -0.23081750
v -9.23373037 34.16038786 -0.13941802
v -12.14793621 33.21424938 -0.15216887
v -14.09145991 32.33002584 -0.19730957
v -8.26304751 34.51833296 0.44730098
v -5.98302118 35.01655488 0.44730098
v -5.34668442 35.11426606 0.44730098
v -9.89379504 34.06848436 -0.04179083
v -21.82025181 27.68350300 -0.19852035
v -22.07694463 26.73156262 -0.42012225
v -19.85515998 29.43937302 0.44730098
v -18.58464226 30.20460401 -0.05835362
v -19.72573386 29.35230396 -0.13904725
v -20.89486750 28.45163639 -0.15813009
v -21.86770834 26.72866022 -0.46759182
v -19.92418609 27.70091739 -0.50342282
v -21.86770834 25.75640015 -0.50342282
v -17.00782300 29.64446716 -0.50342282
v -16.03498217 30.61575686 -0.46759182
v -16.03498217 31.38969505 -0.20028728
v -14.81192097 32.18297967 -0.09521003
v -12.76917406 33.09815923 -0.04225429
v -9.23373037 34.28808760 0.44730098
v -12.14793621 33.36613577 0.44730098
v -9.97144941 34.09170065 0.44730098
v -19.99968321 28.74960149 -0.28479864
v -20.89486750 27.70091739 -0.42542883
v -18.63856981 30.23749496 0.44730098
v -16.83309977 31.26973504 0.44730098
v -16.73818815 31.21845933 -0.09921314
v -17.98066239 30.37390190 -0.16957747
v -18.92545974 29.66381359 -0.23155903
v -18.95134525 28.67220709 -0.49746740
v -17.98066239 29.64446716 -0.43687621
v -17.04017808 30.66896461 -0.26087847
v -14.91546158 32.23135008 0.44730098
v -12.82741465 33.12234588 0.44730098
f 1 2 6
f 1 6 3
f 1 3 8
f 1 8 18
f 1 18 28
f 1 28 41
f 1 41 57
f 1 57 56
f 1 56 55
f 1 55 73
f 1 73 75
f 1 75 74
f 1 74 87
f 1 87 86
f 1 86 79
f 1 79 78
f 1 78 61
f 1 61 44
f 1 44 30
f 1 30 20
f 1 20 10
f 1 10 4
f 1 4 9
f 1 9 19
f 1 19 29
f 1 29 42
f 1 42 33
f 1 33 22
f 1 22 12
f 1 12 5
f 1 5 2
f 2 5 6
f 3 6 7
f 3 7 8
f 4 10 11
f 4 11 9
f 5 12 13
f 5 13 6
f 6 13 14
f 6 14 7
f 7 14 15
f 7 15 16
f 7 16 8
f 8 16 17
f 8 17 18
f 9 11 19
f 10 20 31
f 10 31 47
f 10 47 48
f 10 48 32
f 10 32 21
f 10 21 11
f 11 21 19
f 12 22 23
f 12 23 13
f 13 23 14
f 14 23 15
f 15 24 16
f 15 23 25
f 15 25 24
f 16 24 17
f 17 24 26
f 17 26 27
f 17 27 18
f 18 27 28
f 19 21 29
f 20 30 43
f 20 43 60
f 20 60 46
f 20 46 31
f 21 32 29
f 22 33 32
f 22 32 48
f 22 48 67
f 22 67 66
f 22 66 68
f 22 68 49
f 22 49 34
f 22 34 23
f 23 34 35
f 23 35 25
f 24 25 26
f 25 36 37
f 25 37 26
f 25 35 38
f 25 38 36
f 26 37 27
f 27 37 39
f 27 39 28
f 28 39 40
f 28 40 41
f 29 32 42
f 30 44 45
f 30 45 43
f 31 46 47
f 32 33 42
f 34 49 35
f 35 49 50
f 35 50 38
f 36 38 51
f 36 51 37
f 37 51 52
f 37 52 40
f 37 40 39
f 38 53 51
f 38 50 54
f 38 54 53
f 40 55 56
f 40 56 57
f 40 57 41
f 40 52 58
f 40 58 55
f 43 59 60
f 43 45 59
f 44 61 45
f 45 61 62
f 45 62 63
f 45 63 64
f 45 64 59
f 46 60 65
f 46 65 66
f 46 66 67
f 46 67 47
f 47 67 48
f 49 68 69
f 49 69 50
f 50 69 70
f 50 70 54
f 51 53 52
f 52 53 58
f 53 54 71
f 53 71 72
f 53 72 58
f 54 70 71
f 55 58 73
f 58 72 74
f 58 74 75
f 58 75 73
f 59 64 63
f 59 63 76
f 59 76 77
f 59 77 60
f 60 77 65
f 61 78 62
f 62 78 79
f 62 79 80
f 62 80 81
f 62 81 63
f 63 81 82
f 63 82 76
f 65 77 83
f 65 83 66
f 66 83 68
f 68 83 69
f 69 83 84
f 69 84 85
f 69 85 70
f 70 85 81
f 70 81 80
f 70 80 71
f 71 86 72
f 71 80 86
f 72 86 87
f 72 87 74
f 76 82 77
f 77 82 84
f 77 84 83
f 79 86 80
f 81 85 82
f 82 85 84

