# https://github.com/mikedh/trimesh
v -22.15849710 -27.41144265 8.77964115
v -1.22305098 -27.41144265 8.77964115
v -22.15849710 -27.41144265 10.07968397
v -22.15849710 25.78211911 8.77964115
v -0.00660564 -22.29307149 8.77964115
v -0.00660564 -22.29307149 9.26448364
v -1.24039803 -27.41144265 9.26448364
v -1.78248613 -27.41144265 10.07968397
v -22.15849710 25.78211911 10.07968397
v -2.57176692 25.78211911 8.77964115
v -0.00660564 22.29350702 8.77964115
v -0.00660564 -22.16810614 9.56697035
v -1.64588005 -27.41144265 10.03158005
v -0.00660564 -21.94941678 10.07968397
v -2.83413708 25.78211911 10.07968397
v -2.57393502 25.78211911 9.26448364
v -0.00660564 22.29350702 9.26448364
v -0.00660564 21.94985231 10.07968397
v -2.74740330 25.78211911 10.02382004
v -2.73656131 25.78211911 9.99645871
v -0.00660564 22.16333357 9.57766172
f 1 2 7
f 1 7 13
f 1 13 8
f 1 8 3
f 1 3 9
f 1 9 4
f 1 4 10
f 1 10 11
f 1 11 5
f 1 5 2
f 2 5 6
f 2 6 7
f 3 8 14
f 3 14 18
f 3 18 15
f 3 15 9
f 4 9 15
f 4 15 19
f 4 19 20
f 4 20 16
f 4 16 10
f 5 11 17
f 5 17 21
f 5 21 18
f 5 18 14
f 5 14 12
f 5 12 6
f 6 12 7
f 7 12 14
f 7 14 13
f 8 13 14
f 10 16 17
f 10 17 11
f 15 18 19
f 16 20 17
f 17 20 21
f 18 21 20
f 18 20 19

