# https://github.com/mikedh/trimesh
v -35.36698850 0.01287955 19.27002761
v -35.32719493 0.01287955 19.38955893
v -35.36698850 0.48690032 19.27002761
v -30.02679241 0.01287955 19.27002761
v -35.19588023 0.01287955 19.77410646
v -35.19588023 0.48690032 19.77410646
v -35.36002506 0.84691651 19.27002761
v -30.08150928 0.01287955 19.55414694
v -25.20489749 4.99709697 19.27002761
v -25.20489749 5.04509879 19.54480249
v -34.91136117 0.01287955 20.02335645
v -34.64076899 0.48690032 20.25991352
v -34.62883208 1.45894315 20.24261789
v -35.18095692 1.45894315 19.75681083
v -35.34112181 1.45894315 19.27002761
v -30.32623478 0.01287955 19.79070401
v -25.20489749 5.44111615 20.54738133
v -25.20489749 20.44576971 19.27002761
v -34.64076899 0.01287955 20.25991352
v -34.15430150 0.48690032 20.48851941
v -34.14335812 1.45894315 20.48628902
v -34.12346424 2.43098524 20.48196439
v -34.09859399 3.40302734 20.47513130
v -34.06377389 4.37506980 20.46299452
v -34.60993173 2.43098524 20.21109413
v -35.32719493 1.83495945 19.27002761
v -35.15509023 2.43098524 19.72528707
v -30.58488715 0.01287955 20.04009304
v -25.20489749 5.55112090 20.63316140
v -31.07036110 0.01287955 20.45672047
v -30.82065924 0.01287955 20.24289597
v -28.84594200 20.44576971 19.27002761
v -25.20489749 20.44576971 20.56551407
v -34.15430150 0.01287955 20.48851941
v -33.83496524 0.01287955 20.52032124
v -33.53154583 0.48690032 20.55044883
v -33.53154583 1.45894315 20.54821844
v -33.53154583 2.43098524 20.54389381
v -33.53154583 3.40302734 20.53706072
v -33.53154583 4.37506980 20.52492394
v -33.39823826 6.31915435 20.50177138
v -33.27488053 7.29119645 20.49660963
v -34.03492370 5.04709889 20.45058257
v -34.58406504 3.40302734 20.15962725
v -35.29536124 2.43098524 19.27002761
v -35.11629310 3.40302734 19.67382019
v -25.20489749 5.61312382 20.68100173
v -31.58766585 0.01287955 20.51864700
v -25.20489749 5.65112547 20.69480985
v -29.17721516 20.02575035 19.27002761
v -29.30355929 19.65373498 19.65485032
v -28.51267596 20.44576971 19.83673107
v -25.23573765 20.44576971 20.56551407
v -25.20489749 8.68125708 20.69480985
v -33.53154583 0.01287955 20.55044883
v -25.60879725 6.27115181 20.69480985
v -25.57895062 7.29119645 20.69480985
v -32.55960439 5.34711226 20.56523310
v -32.55960439 6.31915435 20.56370080
v -32.55960439 7.29119645 20.55853905
v -32.55960439 8.26323927 20.54598516
v -33.17539952 8.26323927 20.48405574
v -33.08984538 9.23528137 20.45978798
v -33.97324629 5.69512708 20.43426309
v -34.55024138 4.37506980 20.07970412
v -35.27248096 2.83300293 19.27002761
v -35.06257266 4.37506980 19.59389705
v -32.55960439 0.01287955 20.56551407
v -30.03972575 18.77369559 19.27002761
v -30.16009998 18.51368470 19.51550912
v -30.31529140 17.97966220 19.69223101
v -29.63483246 18.88370142 19.79795711
v -28.92353626 18.95170357 20.33160450
v -28.66389035 19.91774607 20.01749662
v -28.15056264 20.44576971 20.11820290
v -25.75702523 20.44576971 20.56370080
v -25.46355276 8.24123811 20.69480985
v -26.20767909 20.44576971 20.56021329
v -27.70090232 17.97966220 20.56425695
v -28.67284376 17.00761938 20.55853905
v -31.58766585 10.20532336 20.56286368
v -31.58766585 11.17536607 20.55128595
v -32.55960439 9.23528137 20.52171740
v -32.25519145 11.17536607 20.48935653
v -33.04806185 9.73330341 20.44319043
v -33.88371221 6.31915435 20.40943629
v -34.33137967 7.29119645 19.86323211
v -34.42787718 6.31915435 19.92362923
v -35.19090386 3.85904716 19.27002761
v -35.01780562 5.05509932 19.52067087
v -30.18298026 18.54968661 19.27002761
v -30.34911506 18.26767456 19.27002761
v -31.07135464 16.97161892 19.27002761
v -31.17183208 16.65360351 19.57493008
v -31.33000701 16.03557801 19.74941869
v -30.57295024 16.93361546 19.97174764
v -29.92930136 17.21562895 20.36856808
v -29.62090558 18.04366414 20.22615938
v -27.99636475 20.18175862 20.38028485
v -29.11155781 18.40968064 20.43384309
v -27.88594036 20.44576971 20.32002967
v -29.64478230 15.06353518 20.56077233
v -30.61572731 13.11945099 20.55937617
v -26.74687059 20.44576971 20.53162090
v -26.72896377 19.92374639 20.55812194
v -29.64478230 16.03557801 20.53636264
v -27.70090232 18.95170357 20.54765940
v -30.61572731 14.09149236 20.53636264
v -31.67620639 12.23141117 20.50637408
v -31.42849449 13.11945099 20.49744675
v -32.14576060 11.96339987 20.46745819
v -32.05821649 12.61142841 20.43942484
v -32.89187689 10.37933113 20.39660433
v -33.31765760 11.17536607 19.81580889
v -34.22095528 8.26323927 19.75932219
v -33.66087057 8.26323927 20.24512925
v -33.76134802 7.29119645 20.34904207
v -35.10137269 4.73708536 19.27002761
v -34.09958752 9.23528137 19.59905881
v -34.96906155 5.70312750 19.31410236
v -31.20863925 16.71960701 19.27002761
v -31.40760417 16.33559101 19.27002761
v -32.13780072 14.71551964 19.56990737
v -30.92511662 15.28754416 20.38544371
v -30.74206854 16.03557801 20.23536479
v -32.27508823 14.09149236 19.73309922
v -31.55384219 15.00153190 19.97774651
v -30.15114657 16.56760041 20.45044353
v -27.60639478 20.44576971 20.43621541
v -28.24407375 19.53373007 20.46090317
v -29.28167254 17.76165354 20.47373513
v -27.18757751 20.44576971 20.50246946
v -30.25659749 16.03557801 20.47443322
v -30.60677390 15.00353200 20.49340308
v -28.74148461 18.04366414 20.50944159
v -29.62090558 16.93761567 20.49089173
v -27.68399194 19.88374427 20.49689060
v -28.43806520 18.95170357 20.48586901
v -31.21361272 14.09149236 20.47443322
v -31.12407865 14.63951706 20.45169776
v -31.91396844 13.11945099 20.38516563
v -32.58547108 13.03944675 19.82487526
v -32.74066250 11.17536607 20.30161885
v -33.14953283 12.14740817 19.62095714
v -34.02995023 9.76330428 19.49221752
v -34.98099846 5.65712543 19.27002761
v -34.30849939 8.71525888 19.27002761
v -34.96010814 5.78113091 19.27002761
v -32.05324302 15.03553370 19.27002761
v -32.17162438 14.78752345 19.27002761
v -32.34571906 14.39750568 19.27002761
v -33.05701526 12.66343117 19.48886904
v -31.70008021 14.09149236 20.21890628
v -27.42732663 20.44576971 20.47875785
v -33.98120326 10.02731610 19.27002761
v -34.04586708 9.81530631 19.27002761
v -34.12445777 9.53129416 19.27002761
v -32.98837440 12.91344152 19.27002761
v -33.07293210 12.70343184 19.27002761
v -33.17042605 12.43942075 19.27002761
f 1 2 3
f 1 3 7
f 1 7 15
f 1 15 26
f 1 26 45
f 1 45 66
f 1 66 89
f 1 89 118
f 1 118 146
f 1 146 148
f 1 148 147
f 1 147 157
f 1 157 156
f 1 156 155
f 1 155 160
f 1 160 159
f 1 159 158
f 1 158 151
f 1 151 150
f 1 150 149
f 1 149 122
f 1 122 121
f 1 121 93
f 1 93 92
f 1 92 91
f 1 91 69
f 1 69 50
f 1 50 32
f 1 32 18
f 1 18 9
f 1 9 4
f 1 4 8
f 1 8 16
f 1 16 28
f 1 28 31
f 1 31 30
f 1 30 48
f 1 48 68
f 1 68 55
f 1 55 35
f 1 35 34
f 1 34 19
f 1 19 11
f 1 11 5
f 1 5 2
f 2 5 6
f 2 6 3
f 3 6 7
f 4 9 10
f 4 10 8
f 5 11 6
f 6 11 12
f 6 12 13
f 6 13 14
f 6 14 7
f 7 14 15
f 8 10 17
f 8 17 16
f 9 18 33
f 9 33 54
f 9 54 49
f 9 49 47
f 9 47 29
f 9 29 17
f 9 17 10
f 11 19 12
f 12 20 21
f 12 21 22
f 12 22 23
f 12 23 13
f 12 19 34
f 12 34 20
f 13 23 24
f 13 24 25
f 13 25 14
f 14 26 15
f 14 25 27
f 14 27 26
f 16 17 28
f 17 29 30
f 17 30 31
f 17 31 28
f 18 32 52
f 18 52 75
f 18 75 101
f 18 101 129
f 18 129 154
f 18 154 132
f 18 132 104
f 18 104 78
f 18 78 76
f 18 76 53
f 18 53 33
f 20 34 35
f 20 35 36
f 20 36 37
f 20 37 21
f 21 37 38
f 21 38 22
f 22 38 39
f 22 39 23
f 23 39 40
f 23 40 24
f 24 40 41
f 24 41 42
f 24 42 43
f 24 43 25
f 25 43 44
f 25 44 27
f 26 27 45
f 27 44 46
f 27 46 45
f 29 47 30
f 30 47 49
f 30 49 48
f 32 50 51
f 32 51 52
f 33 53 54
f 35 55 36
f 36 55 56
f 36 56 57
f 36 57 58
f 36 58 59
f 36 59 37
f 37 59 38
f 38 59 60
f 38 60 39
f 39 60 40
f 40 60 61
f 40 61 42
f 40 42 41
f 42 61 62
f 42 62 43
f 43 62 63
f 43 63 64
f 43 64 44
f 44 65 46
f 44 64 65
f 45 46 66
f 46 65 67
f 46 67 66
f 48 49 68
f 49 54 77
f 49 77 57
f 49 57 56
f 49 56 68
f 50 69 70
f 50 70 51
f 51 70 71
f 51 71 72
f 51 72 73
f 51 73 74
f 51 74 52
f 52 74 75
f 53 76 54
f 54 76 78
f 54 78 79
f 54 79 80
f 54 80 77
f 55 68 56
f 57 77 59
f 57 59 58
f 59 77 81
f 59 81 60
f 60 81 82
f 60 82 61
f 61 82 83
f 61 83 62
f 62 83 84
f 62 84 63
f 63 84 85
f 63 85 64
f 64 86 87
f 64 87 88
f 64 88 65
f 64 85 86
f 65 88 67
f 66 67 89
f 67 88 87
f 67 87 90
f 67 90 89
f 69 91 70
f 70 91 92
f 70 92 93
f 70 93 94
f 70 94 71
f 71 94 95
f 71 95 96
f 71 96 97
f 71 97 98
f 71 98 72
f 72 98 73
f 73 99 74
f 73 98 97
f 73 97 100
f 73 100 99
f 74 99 101
f 74 101 75
f 77 80 102
f 77 102 103
f 77 103 81
f 78 104 105
f 78 105 79
f 79 105 80
f 80 106 102
f 80 105 107
f 80 107 106
f 81 103 82
f 82 84 83
f 82 103 108
f 82 108 109
f 82 109 84
f 84 109 110
f 84 110 111
f 84 111 85
f 85 111 112
f 85 112 113
f 85 113 114
f 85 114 115
f 85 115 116
f 85 116 117
f 85 117 86
f 86 117 87
f 87 117 116
f 87 116 115
f 87 115 90
f 89 90 118
f 90 115 119
f 90 119 120
f 90 120 118
f 93 121 94
f 94 121 122
f 94 122 123
f 94 123 95
f 95 124 125
f 95 125 96
f 95 123 126
f 95 126 127
f 95 127 124
f 96 125 97
f 97 125 124
f 97 124 128
f 97 128 100
f 99 129 101
f 99 100 130
f 99 130 129
f 100 128 131
f 100 131 130
f 102 106 108
f 102 108 103
f 104 132 107
f 104 107 105
f 106 133 134
f 106 134 108
f 106 107 135
f 106 135 136
f 106 136 133
f 107 132 137
f 107 137 138
f 107 138 135
f 108 134 139
f 108 139 110
f 108 110 109
f 110 139 111
f 111 139 112
f 112 139 140
f 112 140 141
f 112 141 126
f 112 126 142
f 112 142 114
f 112 114 143
f 112 143 113
f 113 143 114
f 114 142 144
f 114 144 145
f 114 145 119
f 114 119 115
f 118 120 146
f 119 145 120
f 120 147 148
f 120 148 146
f 120 145 147
f 122 149 123
f 123 150 151
f 123 151 152
f 123 152 126
f 123 149 150
f 124 127 153
f 124 153 141
f 124 141 140
f 124 140 128
f 126 153 127
f 126 152 144
f 126 144 142
f 126 141 153
f 128 140 133
f 128 133 136
f 128 136 131
f 129 130 154
f 130 138 137
f 130 137 154
f 130 131 138
f 131 136 138
f 132 154 137
f 133 140 139
f 133 139 134
f 135 138 136
f 144 152 145
f 145 155 156
f 145 156 157
f 145 157 147
f 145 152 155
f 151 158 152
f 152 158 159
f 152 159 160
f 152 160 155

