# https://github.com/mikedh/trimesh
v 24.99356565 4.92434836 12.18473397
v 29.72547462 1.31912545 12.18473397
v 24.99356565 4.92434836 13.00402142
v 24.99356565 25.24618919 12.18473397
v 29.72547462 1.33083788 12.88387602
v 29.72547462 19.45065832 12.18473397
v 29.72547462 1.33552314 13.00402142
v 24.99356565 25.24618919 13.00402142
v 24.99356565 25.24853254 12.89301771
v 25.12280928 25.12203200 12.18473397
v 29.45170486 19.86763625 12.18473397
v 29.72547462 19.45065832 13.00402142
v 25.12280928 25.12203200 13.00402142
v 25.59854775 24.63243328 12.18473397
v 29.12142234 20.35723497 12.18473397
v 29.12142234 20.35723497 13.00402142
v 29.44985393 19.86997960 13.00402142
v 25.59623046 24.63477663 13.00402142
v 26.08216208 24.12409642 12.18473397
v 26.08216208 24.12409642 13.00402142
v 28.73230686 20.89368338 12.18473397
v 28.73091938 20.89602673 13.00402142
v 29.06212883 20.43922483 13.00402142
v 26.52223174 23.63684106 13.00402142
v 26.52408267 23.63449770 12.18473397
v 28.28343731 21.50275403 12.18473397
v 28.28158348 21.50509594 13.00402142
v 27.00769700 23.08399206 13.00402142
v 27.00769700 23.08399206 12.18473397
v 27.90173424 21.99235130 12.18473397
v 27.90173424 21.99235130 13.00402142
v 27.41626608 22.59673670 13.00402142
v 27.41811991 22.59439335 12.18473397
f 1 2 3
f 1 3 8
f 1 8 9
f 1 9 4
f 1 4 10
f 1 10 14
f 1 14 19
f 1 19 25
f 1 25 29
f 1 29 33
f 1 33 30
f 1 30 26
f 1 26 21
f 1 21 15
f 1 15 11
f 1 11 6
f 1 6 2
f 2 5 3
f 2 6 12
f 2 12 7
f 2 7 5
f 3 5 7
f 3 7 12
f 3 12 17
f 3 17 16
f 3 16 23
f 3 23 22
f 3 22 27
f 3 27 31
f 3 31 32
f 3 32 28
f 3 28 24
f 3 24 20
f 3 20 18
f 3 18 13
f 3 13 8
f 4 9 10
f 6 11 12
f 8 13 9
f 9 13 10
f 10 13 14
f 11 15 16
f 11 16 17
f 11 17 12
f 13 18 14
f 14 18 20
f 14 20 19
f 15 21 22
f 15 22 23
f 15 23 16
f 19 24 25
f 19 20 24
f 21 26 22
f 22 26 27
f 24 28 29
f 24 29 25
f 26 30 31
f 26 31 27
f 28 32 29
f 29 32 33
f 30 33 32
f 30 32 31

