# https://github.com/mikedh/trimesh
v -29.93464270 0.00559821 18.37700129
v -35.50308550 0.00559821 18.37700129
v -29.94163221 0.00559821 18.49230066
v -25.30192798 -4.94380020 18.98313044
v -25.30192798 -4.92785801 18.37700129
v -35.50308550 -0.48661814 18.37700129
v -35.48410984 0.00559821 18.68400090
v -29.97259113 0.00559821 18.98383142
v -25.30192798 -5.01620447 19.13086021
v -29.99955273 0.00559821 19.12526686
v -30.02651723 0.00559821 19.26547994
v -25.30192798 -6.78047827 18.37700129
v -35.48610850 -1.09308728 18.37700129
v -35.46513707 -0.48661814 18.98383142
v -35.46513707 0.00559821 18.98383142
v -25.30192798 -5.08462338 19.27002472
v -30.11140225 0.00559821 19.27002472
v -30.02751656 -0.00237289 19.27002472
v -25.30192798 -6.78047827 19.27002472
v -34.84897119 -6.78047827 18.37700129
v -35.47512167 -1.45843013 18.37700129
v -35.43617681 -1.45843013 18.98383142
v -35.34130430 -1.45843013 19.27002472
v -35.36726947 -0.48661814 19.27002472
v -35.36726947 0.00559821 19.27002472
v -34.66522213 -6.78047827 19.27002472
v -34.80902700 -6.78047827 18.98514068
v -35.00975306 -5.94284663 18.66441985
v -35.01374748 -5.96808873 18.37700129
v -35.42219490 -2.43024195 18.37700129
v -35.38324714 -2.43024195 18.98383142
v -35.29536704 -2.43024195 19.27002472
v -34.95982138 -5.77611766 19.27002472
v -34.90589527 -6.28693293 18.98645285
v -35.09963183 -5.35232004 18.37700129
v -34.97080820 -5.71567021 19.27002472
v -35.05968764 -5.36361246 18.98645285
v -35.19650010 -4.37320154 18.98383142
v -35.23444853 -4.37320154 18.37700129
v -35.34130430 -3.40138936 18.37700129
v -35.30335587 -3.40138936 18.98383142
v -35.22546036 -3.40138936 19.27002472
v -34.97979347 -5.65588645 19.27002472
v -35.03771689 -5.19821195 19.27002472
v -35.13358583 -4.37320154 19.27002472
f 1 2 7
f 1 7 15
f 1 15 25
f 1 25 17
f 1 17 11
f 1 11 10
f 1 10 8
f 1 8 3
f 1 3 4
f 1 4 5
f 1 5 12
f 1 12 20
f 1 20 29
f 1 29 35
f 1 35 39
f 1 39 40
f 1 40 30
f 1 30 21
f 1 21 13
f 1 13 6
f 1 6 2
f 2 6 7
f 3 8 4
f 4 9 16
f 4 16 19
f 4 19 12
f 4 12 5
f 4 8 10
f 4 10 11
f 4 11 9
f 6 13 14
f 6 14 7
f 7 14 15
f 9 11 16
f 11 17 18
f 11 18 16
f 12 19 26
f 12 26 27
f 12 27 20
f 13 21 22
f 13 22 14
f 14 22 23
f 14 23 24
f 14 24 25
f 14 25 15
f 16 18 17
f 16 17 25
f 16 25 24
f 16 24 23
f 16 23 32
f 16 32 42
f 16 42 45
f 16 45 44
f 16 44 43
f 16 43 36
f 16 36 33
f 16 33 26
f 16 26 19
f 20 27 28
f 20 28 29
f 21 30 31
f 21 31 22
f 22 31 32
f 22 32 23
f 26 33 27
f 27 33 34
f 27 34 28
f 28 35 29
f 28 34 36
f 28 36 37
f 28 37 38
f 28 38 39
f 28 39 35
f 30 40 41
f 30 41 31
f 31 41 42
f 31 42 32
f 33 36 34
f 36 43 37
f 37 43 38
f 38 43 44
f 38 44 45
f 38 45 41
f 38 41 40
f 38 40 39
f 41 45 42

