# https://github.com/mikedh/trimesh
v 0.00439929 35.52614307 14.73830593
v 0.00439929 35.52514084 13.82658781
v -0.48693667 35.52514084 13.82658781
v -0.48693667 35.52514084 14.73830593
v 0.00439929 29.90996711 14.73830593
v 0.00439929 29.90896778 13.82658781
v -1.16112772 35.50715292 13.82658781
v -1.10110643 35.50815515 14.73830593
v 0.00439929 29.90896778 14.43404071
v -4.91314805 25.31809452 14.73830593
v -4.91314805 25.31809452 13.82658781
v -1.45844181 35.49816186 13.82658781
v -1.45844181 35.49816186 14.73830593
v -14.25551060 25.31809452 14.73830593
v -14.25551060 25.31809452 13.82658781
v -2.13263286 35.46118669 13.82658781
v -2.07261157 35.46418468 14.73830593
v -14.25551060 32.54017455 14.73830593
v -14.25551060 32.54017455 13.82658781
v -2.42994695 35.44419810 13.82658781
v -2.42994695 35.44419810 14.73830593
v -14.09219710 32.61312556 14.73830593
v -14.09219710 32.61312556 13.82658781
v -3.10553416 35.38823569 13.82658781
v -3.04411707 35.39323233 14.73830593
v -13.81163335 32.73104636 14.73830593
v -13.32867221 32.93390722 14.12424588
v -13.32727749 32.93390722 13.82658781
v -3.40284825 35.36325247 13.82658781
v -3.40284825 35.36325247 14.73830593
v -13.32867221 32.93390722 14.73830593
v -12.84292018 33.12677479 14.73830593
v -12.99087878 33.06781439 13.82658781
v -4.37435339 35.25632428 13.82658781
v -4.01701801 35.29529810 14.73830593
v -12.84152402 33.12677479 13.82658781
v -12.58748159 33.22171103 14.73830593
v -12.14918682 33.38459874 13.82658781
v -4.37435339 35.25532495 14.73830593
v -5.34585853 35.12141778 13.82658781
v -4.98852351 35.17038490 14.73830593
v -12.14918682 33.38459874 14.73830593
v -11.79045601 33.50951484 14.73830593
v -11.85047657 33.48852894 13.82658781
v -5.79392354 35.04946611 13.82658781
v -5.99213282 35.01748758 14.73830593
v -5.75484001 35.05546208 14.73830593
v -5.34585853 35.12041845 14.73830593
v -11.17628588 33.72236899 14.73830593
v -11.17628588 33.72236899 13.82658781
v -5.99213282 35.01748758 13.82658781
v -6.14148758 34.99150503 13.82658781
v -6.47788557 34.93054597 14.73830593
v -10.91526408 33.80631261 14.73830593
v -10.95993046 33.79232201 13.82658781
v -6.47788557 34.93054597 13.82658781
v -6.99155507 34.82961666 14.73830593
v -10.46719834 33.95021596 14.73830593
v -10.46719834 33.95021596 13.82658781
v -7.04180538 34.81962337 13.82658781
v -7.28886916 34.77065626 13.82658781
v -7.28886916 34.77065626 14.73830593
v -10.16011328 34.04215132 14.73830593
v -10.12940492 34.05114528 13.82658781
v -7.90303929 34.63274887 14.73830593
v -8.26037466 34.55180614 13.82658781
v -9.98005015 34.09511575 14.73830593
v -9.98144632 34.09511575 14.12424588
v -9.98144632 34.09511575 13.82658781
v -8.26037466 34.55180614 14.73830593
v -8.93456535 34.38092090 13.82658781
v -9.23327560 34.30497191 14.73830593
v -9.23327560 34.30497191 13.82658781
f 1 2 3
f 1 3 4
f 1 4 8
f 1 8 13
f 1 13 17
f 1 17 21
f 1 21 25
f 1 25 30
f 1 30 35
f 1 35 39
f 1 39 41
f 1 41 48
f 1 48 47
f 1 47 46
f 1 46 53
f 1 53 57
f 1 57 62
f 1 62 65
f 1 65 70
f 1 70 72
f 1 72 67
f 1 67 63
f 1 63 58
f 1 58 54
f 1 54 49
f 1 49 43
f 1 43 42
f 1 42 37
f 1 37 32
f 1 32 31
f 1 31 26
f 1 26 22
f 1 22 18
f 1 18 14
f 1 14 10
f 1 10 5
f 1 5 9
f 1 9 6
f 1 6 2
f 2 6 11
f 2 11 15
f 2 15 19
f 2 19 23
f 2 23 28
f 2 28 33
f 2 33 36
f 2 36 38
f 2 38 44
f 2 44 50
f 2 50 55
f 2 55 59
f 2 59 64
f 2 64 69
f 2 69 73
f 2 73 71
f 2 71 66
f 2 66 61
f 2 61 60
f 2 60 56
f 2 56 52
f 2 52 51
f 2 51 45
f 2 45 40
f 2 40 34
f 2 34 29
f 2 29 24
f 2 24 20
f 2 20 16
f 2 16 12
f 2 12 7
f 2 7 3
f 3 7 4
f 4 7 8
f 5 10 9
f 6 9 10
f 6 10 11
f 7 12 13
f 7 13 8
f 10 14 15
f 10 15 11
f 12 16 13
f 13 16 17
f 14 18 19
f 14 19 15
f 16 20 21
f 16 21 17
f 18 22 23
f 18 23 19
f 20 24 21
f 21 24 25
f 22 26 23
f 23 26 27
f 23 27 28
f 24 29 30
f 24 30 25
f 26 31 27
f 27 31 32
f 27 32 33
f 27 33 28
f 29 34 30
f 30 34 35
f 32 36 33
f 32 37 38
f 32 38 36
f 34 39 35
f 34 40 41
f 34 41 39
f 37 42 38
f 38 42 43
f 38 43 44
f 40 45 46
f 40 46 47
f 40 47 48
f 40 48 41
f 43 49 50
f 43 50 44
f 45 51 46
f 46 51 52
f 46 52 53
f 49 54 55
f 49 55 50
f 52 56 53
f 53 56 57
f 54 58 55
f 55 58 59
f 56 60 57
f 57 60 61
f 57 61 62
f 58 63 59
f 59 63 64
f 61 65 62
f 61 66 65
f 63 67 68
f 63 68 69
f 63 69 64
f 65 66 70
f 66 71 70
f 67 72 68
f 68 72 73
f 68 73 69
f 70 71 72
f 71 73 72

