# https://github.com/mikedh/trimesh
v 0.48689988 35.52449780 12.18025872
v 1.45879207 35.49946244 12.18025872
v 0.48689988 35.52449780 11.32163827
v 0.48324581 35.52449780 12.18464997
v 1.45879207 35.49946244 11.32163827
v 1.45513800 35.49946244 12.18464997
v 2.42703020 35.44597372 12.18464997
v 0.00460784 35.52449780 11.32163827
v 0.00460784 35.52449780 12.18025872
v 0.00460784 32.75220896 12.18464997
v 2.31741831 35.45166265 11.32163827
v 3.39892168 35.36403455 12.18464997
v 3.40257538 35.36403455 12.18025872
v 3.40257538 35.36403455 11.32163827
v 2.43068355 35.44483536 11.32163827
v 0.00460784 29.62484845 11.32163827
v 0.00460784 29.90025769 12.18025872
v 0.48689988 29.90025769 12.18464997
v 4.37081351 35.25705712 12.18464997
v 4.26120162 35.26957625 11.32163827
v 4.37446722 35.25705712 12.18025872
v 4.52061653 23.89932274 11.32349500
v 0.00460784 29.76255307 11.75496174
v 4.52609726 23.89932274 11.32163827
v 4.80378070 23.89932274 12.18025872
v 4.88598925 24.19635224 12.18464997
v 5.34270571 35.12276760 12.18464997
v 4.37446722 35.25705712 11.32163827
v 18.66785463 23.89932274 11.32163827
v 5.24040123 23.89932274 12.18464997
v 5.99672299 35.01806690 12.18464997
v 5.91816777 35.03058603 11.32163827
v 5.34635941 35.12162923 11.32163827
v 5.23309382 35.13756346 11.32163827
v 18.66785463 30.22915274 11.32163827
v 18.66785463 23.89932274 12.18464997
v 6.47901538 34.93043590 12.18464997
v 6.47901538 34.93043590 11.32163827
v 5.99306928 35.01806690 11.32163827
v 18.66785463 30.22915274 12.18025872
v 18.56920494 30.28833328 11.32163827
v 18.64410536 30.24394860 12.18464997
v 18.66785463 29.74776010 12.18464997
v 7.28648974 34.77111102 12.18464997
v 7.29014308 34.77111102 12.18025872
v 7.29014308 34.77111102 11.32163827
v 18.64775943 30.24053350 12.18464997
v 17.97912588 30.63998986 11.32163827
v 17.97730102 30.64112823 12.18464997
v 8.25838121 34.55374107 12.18464997
v 8.26203456 34.55260560 11.32163827
v 17.33424304 31.01326960 11.32163827
v 17.33424304 31.01326960 12.18464997
v 9.23027341 34.30564682 12.18464997
v 9.23392676 34.30450845 11.32163827
v 16.90493137 31.24770925 11.32163827
v 16.85195246 31.27729807 12.18464997
v 9.97746073 34.09624543 12.18464997
v 9.98111407 34.09510996 11.32163827
v 16.84829694 31.27843644 11.32163827
v 16.03534293 31.70178979 11.32163827
v 16.03351662 31.70292816 12.18464997
v 10.46706017 33.94943967 12.18464997
v 10.46706017 33.95057514 11.32163827
v 15.41786343 32.01133842 11.32163827
v 15.41786343 32.01020295 12.18464997
v 11.17223005 33.72296569 12.18464997
v 11.17588339 33.72182732 12.18025872
v 11.09367484 33.74914231 11.32163827
v 14.98855031 32.21163578 11.32163827
v 14.92826327 32.24008914 12.18464997
v 12.14412152 33.38610207 12.18464997
v 11.17588339 33.72182732 11.32163827
v 14.93191733 32.23781240 11.32163827
v 14.09155998 32.61223051 11.32163827
v 14.09155998 32.61223051 12.18025872
v 14.08790592 32.61336887 12.18464997
v 12.14777559 33.38382824 11.32163827
v 12.03450963 33.42365946 11.32163827
v 12.83650434 33.12776543 12.18464997
v 12.84015696 33.12662706 12.18025872
v 12.75977471 33.15621878 11.32163827
v 14.00204329 32.64978500 11.32163827
v 13.32610306 32.93315990 12.18464997
v 12.89678994 33.10386844 11.32163827
v 13.32610306 32.93315990 11.32163827
f 1 2 5
f 1 5 3
f 1 3 8
f 1 8 9
f 1 9 4
f 1 4 6
f 1 6 2
f 2 6 7
f 2 7 5
f 3 5 11
f 3 11 15
f 3 15 14
f 3 14 20
f 3 20 28
f 3 28 34
f 3 34 33
f 3 33 32
f 3 32 39
f 3 39 38
f 3 38 46
f 3 46 51
f 3 51 55
f 3 55 59
f 3 59 64
f 3 64 69
f 3 69 73
f 3 73 79
f 3 79 78
f 3 78 82
f 3 82 85
f 3 85 86
f 3 86 83
f 3 83 75
f 3 75 74
f 3 74 70
f 3 70 65
f 3 65 61
f 3 61 60
f 3 60 56
f 3 56 52
f 3 52 48
f 3 48 41
f 3 41 35
f 3 35 29
f 3 29 24
f 3 24 16
f 3 16 8
f 4 9 10
f 4 10 18
f 4 18 26
f 4 26 30
f 4 30 36
f 4 36 43
f 4 43 47
f 4 47 42
f 4 42 49
f 4 49 53
f 4 53 57
f 4 57 62
f 4 62 66
f 4 66 71
f 4 71 77
f 4 77 84
f 4 84 80
f 4 80 72
f 4 72 67
f 4 67 63
f 4 63 58
f 4 58 54
f 4 54 50
f 4 50 44
f 4 44 37
f 4 37 31
f 4 31 27
f 4 27 19
f 4 19 12
f 4 12 7
f 4 7 6
f 5 7 11
f 7 12 13
f 7 13 14
f 7 14 15
f 7 15 11
f 8 16 23
f 8 23 17
f 8 17 10
f 8 10 9
f 10 17 18
f 12 19 21
f 12 21 13
f 13 20 14
f 13 21 20
f 16 22 23
f 16 24 22
f 17 23 22
f 17 22 25
f 17 25 26
f 17 26 18
f 19 27 21
f 20 21 28
f 21 27 28
f 22 24 29
f 22 29 36
f 22 36 30
f 22 30 25
f 25 30 26
f 27 31 32
f 27 32 33
f 27 33 34
f 27 34 28
f 29 35 40
f 29 40 43
f 29 43 36
f 31 37 38
f 31 38 39
f 31 39 32
f 35 41 42
f 35 42 40
f 37 44 45
f 37 45 46
f 37 46 38
f 40 42 47
f 40 47 43
f 41 48 42
f 42 48 49
f 44 50 45
f 45 50 46
f 46 50 51
f 48 52 49
f 49 52 53
f 50 54 55
f 50 55 51
f 52 56 57
f 52 57 53
f 54 58 59
f 54 59 55
f 56 60 57
f 57 60 61
f 57 61 62
f 58 63 64
f 58 64 59
f 61 65 62
f 62 65 66
f 63 67 68
f 63 68 64
f 64 68 69
f 65 70 71
f 65 71 66
f 67 72 68
f 68 72 73
f 68 73 69
f 70 74 71
f 71 74 75
f 71 75 76
f 71 76 77
f 72 78 79
f 72 79 73
f 72 80 81
f 72 81 82
f 72 82 78
f 75 83 76
f 76 83 84
f 76 84 77
f 80 84 81
f 81 85 82
f 81 84 86
f 81 86 85
f 83 86 84

