# https://github.com/mikedh/trimesh
v -0.00660564 35.52501629 10.07968397
v -0.00660564 35.52406330 8.77964115
v -0.48797945 35.52406330 8.77964115
v -0.48797945 35.52406330 10.07968397
v -0.00660564 27.92506250 10.07968397
v -0.00660564 27.67042772 8.77964115
v -0.97369092 35.51166583 8.77964115
v -1.30328044 35.50308030 10.07968397
v -0.00660564 27.67424255 9.26448364
v -2.83413708 25.78212201 10.07968397
v -2.74740330 25.78212201 10.02382004
v -2.57393502 25.78212201 9.26448364
v -2.57176692 25.78212201 8.77964115
v -1.45940167 35.49831248 8.77964115
v -1.45940167 35.49831248 10.07968397
v -2.73656131 25.78212201 9.99645871
v -22.15849710 25.78212201 10.07968397
v -22.15849710 25.78212201 8.77964115
v -2.43082389 35.44490487 8.77964115
v -2.43082389 35.44490487 10.07968397
v -22.15849710 27.76675143 10.07968397
v -22.15849710 27.76675143 8.77964115
v -2.91870275 35.40389763 8.77964115
v -3.24612416 35.37624084 10.07968397
v -21.99153387 27.90026756 10.07968397
v -21.99153387 27.90026756 8.77964115
v -3.40224539 35.36289039 8.77964115
v -3.40224539 35.36289039 10.07968397
v -21.58388302 28.21975154 10.07968397
v -21.50582240 28.28078881 8.77964115
v -4.37583572 35.25702815 8.77964115
v -4.37583572 35.25702815 10.07968397
v -21.50582240 28.28078881 10.07968397
v -20.89651567 28.72997699 8.77964115
v -5.34725795 35.12160606 8.77964115
v -5.34725795 35.12160606 10.07968397
v -20.89651567 28.72902401 10.07968397
v -20.89651567 28.72997699 9.26448364
v -20.35659568 29.12098974 8.77964115
v -5.67034277 35.07010732 8.77964115
v -5.88717794 35.03482087 10.07968397
v -20.35442757 29.12098974 10.07968397
v -19.86871610 29.45001225 10.07968397
v -19.86871610 29.45001225 8.77964115
v -5.99125876 35.01765269 8.77964115
v -5.99125876 35.01765269 10.07968397
v -19.13147645 29.93639573 10.07968397
v -19.50226366 29.69224956 8.77964115
v -6.47696951 34.93086750 8.77964115
v -6.47913835 34.93086750 10.07968397
v -18.88862071 30.08993899 8.77964115
v -19.13147645 29.93639573 8.77964115
v -18.64576498 30.24252926 10.07968397
v -6.88462037 34.85075898 8.77964115
v -7.16000064 34.79639839 10.07968397
v -18.64576498 30.24252926 8.77964115
v -17.98008017 30.64021869 10.07968397
v -18.31400663 30.44089749 8.77964115
v -7.29010167 34.77064757 8.77964115
v -7.29010167 34.77064757 10.07968397
v -17.33391124 31.01311029 10.07968397
v -17.33391124 31.01311029 8.77964115
v -17.98008017 30.63926281 8.77964115
v -7.77798125 34.66192638 8.77964115
v -8.10540266 34.58849454 10.07968397
v -16.84820122 31.27823657 10.07968397
v -16.84820122 31.27823657 8.77964115
v -8.26152389 34.55320520 8.77964115
v -8.26152389 34.55320520 10.07968397
v -16.03506906 31.70167393 10.07968397
v -16.03506906 31.70167393 8.77964115
v -9.23511423 34.30429411 8.77964115
v -9.23511423 34.30429411 10.07968397
v -15.41708845 32.01066930 10.07968397
v -15.72716281 31.85617306 8.77964115
v -9.98319587 34.09543438 8.77964115
v -9.98319587 34.09543438 10.07968397
v -15.17423271 32.12511128 8.77964115
v -15.41708845 32.01066930 8.77964115
v -14.93137698 32.23860028 10.07968397
v -10.46890734 33.95047376 8.77964115
v -10.46890734 33.95047376 10.07968397
v -14.93137698 32.23860028 8.77964115
v -14.79693973 32.29868457 10.07968397
v -10.82451706 33.83698477 8.77964115
v -11.06303585 33.75973520 10.07968397
v -14.09222462 32.61244775 8.77964115
v -14.09222462 32.61244775 10.07968397
v -11.17578984 33.72349577 8.77964115
v -11.17578984 33.72349577 10.07968397
v -13.32679666 32.93384060 9.26448364
v -13.71059397 32.77266768 8.77964115
v -13.32679666 32.93384060 10.07968397
v -11.66366942 33.55374021 8.77964115
v -12.14721206 33.38493764 10.07968397
v -12.84108518 33.12648513 10.07968397
v -12.83891707 33.12648513 8.77964115
v -13.32462710 32.93384060 8.77964115
v -12.14721206 33.38493764 8.77964115
f 1 2 3
f 1 3 4
f 1 4 8
f 1 8 15
f 1 15 20
f 1 20 24
f 1 24 28
f 1 28 32
f 1 32 36
f 1 36 41
f 1 41 46
f 1 46 50
f 1 50 55
f 1 55 60
f 1 60 65
f 1 65 69
f 1 69 73
f 1 73 77
f 1 77 82
f 1 82 86
f 1 86 90
f 1 90 95
f 1 95 96
f 1 96 93
f 1 93 88
f 1 88 84
f 1 84 80
f 1 80 74
f 1 74 70
f 1 70 66
f 1 66 61
f 1 61 57
f 1 57 53
f 1 53 47
f 1 47 43
f 1 43 42
f 1 42 37
f 1 37 33
f 1 33 29
f 1 29 25
f 1 25 21
f 1 21 17
f 1 17 10
f 1 10 5
f 1 5 9
f 1 9 6
f 1 6 2
f 2 6 13
f 2 13 18
f 2 18 22
f 2 22 26
f 2 26 30
f 2 30 34
f 2 34 39
f 2 39 44
f 2 44 48
f 2 48 52
f 2 52 51
f 2 51 56
f 2 56 58
f 2 58 63
f 2 63 62
f 2 62 67
f 2 67 71
f 2 71 75
f 2 75 79
f 2 79 78
f 2 78 83
f 2 83 87
f 2 87 92
f 2 92 98
f 2 98 97
f 2 97 99
f 2 99 94
f 2 94 89
f 2 89 85
f 2 85 81
f 2 81 76
f 2 76 72
f 2 72 68
f 2 68 64
f 2 64 59
f 2 59 54
f 2 54 49
f 2 49 45
f 2 45 40
f 2 40 35
f 2 35 31
f 2 31 27
f 2 27 23
f 2 23 19
f 2 19 14
f 2 14 7
f 2 7 3
f 3 7 4
f 4 7 8
f 5 10 11
f 5 11 9
f 6 9 12
f 6 12 13
f 7 14 8
f 8 14 15
f 9 11 16
f 9 16 12
f 10 17 18
f 10 18 13
f 10 13 12
f 10 12 16
f 10 16 11
f 14 19 20
f 14 20 15
f 17 21 22
f 17 22 18
f 19 23 20
f 20 23 24
f 21 25 26
f 21 26 22
f 23 27 24
f 24 27 28
f 25 29 26
f 26 29 30
f 27 31 32
f 27 32 28
f 29 33 30
f 30 33 38
f 30 38 34
f 31 35 36
f 31 36 32
f 33 37 38
f 34 38 39
f 35 40 36
f 36 40 41
f 37 42 39
f 37 39 38
f 39 42 43
f 39 43 44
f 40 45 41
f 41 45 46
f 43 47 48
f 43 48 44
f 45 49 50
f 45 50 46
f 47 51 52
f 47 52 48
f 47 53 51
f 49 54 50
f 50 54 55
f 51 53 56
f 53 57 58
f 53 58 56
f 54 59 55
f 55 59 60
f 57 61 62
f 57 62 63
f 57 63 58
f 59 64 60
f 60 64 65
f 61 66 67
f 61 67 62
f 64 68 65
f 65 68 69
f 66 70 71
f 66 71 67
f 68 72 73
f 68 73 69
f 70 74 75
f 70 75 71
f 72 76 77
f 72 77 73
f 74 78 79
f 74 79 75
f 74 80 78
f 76 81 82
f 76 82 77
f 78 80 83
f 80 84 83
f 81 85 82
f 82 85 86
f 83 84 87
f 84 88 87
f 85 89 90
f 85 90 86
f 87 88 93
f 87 93 91
f 87 91 92
f 89 94 90
f 90 94 95
f 91 93 96
f 91 96 97
f 91 97 98
f 91 98 92
f 94 99 95
f 95 99 96
f 96 99 97

