# https://github.com/mikedh/trimesh
v 0.47971530 35.52285252 1.83140039
v 1.45338710 35.49503353 1.83140039
v 1.45338710 35.49503353 0.51707731
v 0.47971530 35.51589488 0.51707731
v -0.48004682 35.51589488 0.51707731
v -0.48004682 35.51589488 1.83140039
v 2.08627373 35.46026268 1.83140039
v 2.42705881 35.43939553 0.51707731
v 2.42705881 35.41853418 0.44730388
v 1.54379947 35.46721453 0.44730388
v 0.57012767 35.49503353 0.44730388
v -0.48004682 35.49503353 0.44730388
v -1.45371862 35.49503353 0.51707731
v -0.82778674 35.50894302 1.83140039
v 2.42705881 35.43939553 1.83140039
v 3.05299060 35.39071518 1.83140039
v 3.40073061 35.35594433 0.51707731
v 3.49809782 35.33508298 0.44730388
v 2.52442602 35.41158233 0.44730388
v -1.36330624 35.47416638 0.44730388
v -1.45371862 35.49503353 1.83140039
v -2.42739033 35.41853418 0.44730388
v -2.42739033 35.43939553 0.51707731
v 4.02666240 35.29335448 1.83140039
v 4.36744766 35.25163178 0.51707731
v 4.48567912 35.23076463 0.44730388
v -2.42739033 35.43939553 1.83140039
v -3.40106213 35.34203483 0.44730388
v -3.40106213 35.35594433 0.51707731
v -2.76817540 35.41158233 1.83140039
v 4.36744766 35.25163178 1.83140039
v 5.00033420 35.16817479 1.83140039
v 5.34111945 35.11949444 0.51707731
v 5.42457681 35.10558494 0.44730388
v -4.36777918 35.23772228 0.44730388
v -4.36777918 35.25163178 0.51707731
v -3.74184739 35.32117348 1.83140039
v -3.40106213 35.35594433 1.83140039
v 5.34111945 35.11949444 1.83140039
v 5.98791550 35.01518188 0.51707731
v 5.98096075 35.01518188 0.44730388
v -5.34145098 35.11254258 0.44730388
v -5.34145098 35.11949444 0.51707731
v -4.71551882 35.20990328 1.83140039
v -4.36777918 35.25163178 1.83140039
v 5.98791550 35.01518188 1.83140039
v 6.47475158 34.92477304 1.48889999
v 6.99636140 34.82741234 1.83140039
v 7.28846305 34.76482249 1.48889999
v 7.28846305 34.74396114 0.51707731
v 8.25517974 34.54228210 0.51707731
v 8.35950171 34.50055360 0.44730388
v -5.98129227 35.01518188 0.44730388
v -5.98824702 35.01518188 0.51707731
v -5.57095916 35.08472359 1.83140039
v -5.34145098 35.11949444 1.83140039
v 6.47475158 34.92477304 1.83140039
v 7.28846305 34.76482249 1.83140039
v 7.91439485 34.62573330 1.83140039
v 8.25517974 34.54923974 1.48889999
v 9.22885118 34.29888035 0.51707731
v 9.31230890 34.27106135 0.44730388
v -8.25551126 34.51446310 0.44730388
v -8.25551126 34.54228210 0.51707731
v -7.28879458 34.74396114 0.51707731
v -7.28879458 34.76482249 1.48889999
v -5.98824702 35.01518188 1.83140039
v -6.47508310 34.92477304 1.48889999
v -6.30121292 34.95954389 1.83140039
v 8.25517974 34.54923974 1.83140039
v 8.88806628 34.38928920 1.83140039
v 9.22885118 34.29888035 1.83140039
v 9.71568726 34.16674880 1.83140039
v 9.97996991 34.09024945 0.51707731
v 9.96606041 34.09024945 0.44730388
v -9.22918270 34.28497085 0.44730388
v -9.22918270 34.29888035 0.51707731
v -8.60325091 34.46578275 1.83140039
v -8.25551126 34.54923974 1.48889999
v -7.28879458 34.76482249 1.83140039
v -6.76022928 34.86914084 1.83140039
v 9.97996991 34.09024945 1.83140039
v 10.14688462 34.04156910 1.83140039
v 10.46680527 33.94420841 1.48889999
v 11.17619478 33.72166801 1.48889999
v 10.46680527 33.93725076 0.51707731
v 11.17619478 33.70775851 0.51707731
v 10.39030302 33.95116026 0.44730388
v -9.96639193 34.09024945 0.44730388
v -9.98030143 34.09024945 0.51707731
v -9.49346535 34.22933865 1.83140039
v -8.25551126 34.54923974 1.83140039
v 10.46680527 33.94420841 1.83140039
v 11.17619478 33.72166801 1.83140039
v 12.14291219 33.38089977 0.51707731
v 12.22636918 33.34612892 0.44730388
v -10.46018204 33.93725076 0.51707731
v -12.14324371 33.36003842 0.44730388
v -11.17652630 33.70775851 0.51707731
v -11.17652630 33.72166801 1.48889999
v -10.46713679 33.94420841 1.48889999
v -10.29326733 33.99984061 1.83140039
v -9.98030143 34.09024945 1.83140039
v 12.14291219 33.38089977 1.83140039
v 12.59497380 33.21399737 1.83140039
v 12.83143673 33.12358853 0.51707731
v 12.82448198 33.11663667 0.44730388
v -12.82481350 33.11663667 0.44730388
v -12.14324371 33.38089977 0.51707731
v -11.51731192 33.60344017 1.83140039
v -11.17652630 33.72166801 1.83140039
v -10.71750994 33.86770906 1.83140039
v 12.83143673 33.12358853 1.83140039
v 13.31827353 32.92886713 1.48889999
v 14.09025506 32.60896603 1.48889999
v 14.09025506 32.59505653 0.51707731
v 13.24872459 32.94277663 0.44730388
v -12.83176825 33.12358853 0.51707731
v -14.91125281 32.22647509 0.44730388
v -14.09058659 32.59505653 0.51707731
v -12.14324371 33.38089977 1.83140039
v -12.38666139 33.29049672 1.83140039
v 13.31827353 32.92886713 1.83140039
v 14.92483079 32.23343274 0.51707731
v 14.09025506 32.60896603 1.83140039
v 15.09870097 32.15693339 1.83140039
v 14.17371350 32.54637619 0.44730388
v -12.83176825 33.12358853 1.83140039
v -14.09058659 32.60896603 1.48889999
v -13.31860506 32.92886713 1.48889999
v -13.15168962 32.99840883 1.83140039
v -14.92516231 32.23343274 0.51707731
v -16.83077814 31.26677181 0.44730388
v -15.41199912 31.99698284 0.51707731
v 14.91092129 32.22647509 0.44730388
v 15.41166759 32.00393470 1.48889999
v 15.41166759 31.99698284 0.51707731
v 15.34211865 32.01784419 0.44730388
v 15.81504596 31.80921330 1.83140039
v -14.09058659 32.60896603 1.83140039
v -13.58984173 32.81759693 1.83140039
v -14.92516231 32.23343274 1.83140039
v -15.63455255 31.89962214 1.83140039
v -15.24508368 32.08738590 1.83140039
v -18.63206983 30.23056918 0.44730388
v -17.97831903 30.62696962 0.51707731
v -16.84468764 31.27372366 0.51707731
v -16.03097616 31.69794310 1.48889999
v 16.03064464 31.69794310 1.48889999
v 16.84435611 31.27372366 0.51707731
v 16.11410163 31.63535325 0.44730388
v 16.03064464 31.69794310 1.83140039
v -16.03097616 31.69794310 1.83140039
v -18.64597932 30.23752683 0.51707731
v -19.84915967 29.43776830 0.44730388
v -19.12586138 29.93152944 0.51707731
v -17.97831903 30.63392147 1.48889999
v -17.33152299 31.00946056 1.48889999
v -16.84468764 31.27372366 1.83140039
v 16.83044661 31.26677181 0.44730388
v 16.84435611 31.27372366 1.83140039
v 17.01127010 31.18332061 1.83140039
v 17.33119147 31.00946056 1.48889999
v 17.97798751 30.62696962 0.51707731
v 17.26164398 31.02337006 0.44730388
v -18.64597932 30.23752683 1.83140039
v -18.21478196 30.49483807 1.83140039
v -18.95894595 30.04279964 1.83140039
v -21.49744687 28.27639177 0.44730388
v -20.34990597 29.11091535 0.51707731
v -19.87002391 29.44472594 0.51707731
v -17.97831903 30.63392147 1.83140039
v -17.33152299 31.00946056 1.83140039
v 17.33119147 31.00946056 1.83140039
v 17.97798751 30.63392147 1.48889999
v 18.64564780 30.23752683 0.51707731
v 18.63869305 30.23056918 0.44730388
v 18.04753501 30.57133163 0.44730388
v -19.87002391 29.44472594 1.83140039
v -21.50440162 28.27639177 0.51707731
v -20.89237932 28.72147256 0.51707731
v -22.58239502 27.40013968 0.44730388
v -22.59630452 27.40709154 0.51707731
v -21.99123842 27.89390082 0.51707731
v -20.34990597 29.11786720 1.48889999
v -20.18299053 29.23609505 1.83140039
v 17.97798751 30.63392147 1.83140039
v 18.64564780 30.23752683 1.83140039
v 18.81256324 30.13320848 1.83140039
v 19.12552986 29.93152944 0.51707731
v 19.06293566 29.96630608 0.44730388
v -21.81736824 28.03298423 1.83140039
v -21.50440162 28.27639177 1.83140039
v -20.89237932 28.72842441 1.48889999
v -23.07618657 27.00373924 0.51707731
v -23.62561467 26.50302625 0.44730388
v -22.59630452 27.40709154 1.83140039
v -22.19988235 27.72699263 1.83140039
v -20.34990597 29.11786720 1.83140039
v -20.54464040 28.97878380 1.83140039
v 19.12552986 29.93152944 1.83140039
v 19.60541046 29.61858599 1.83140039
v 19.86969239 29.44472594 0.51707731
v 19.84882814 29.43776830 0.44730388
v -20.89237932 28.72842441 1.83140039
v -23.07618657 27.00373924 1.83140039
v -23.63256942 26.51692995 0.51707731
v -23.27787575 26.82987920 1.83140039
v -24.62015398 25.57809382 0.44730388
v -24.11940623 26.07880681 0.51707731
v 19.86969239 29.44472594 1.83140039
v 20.03660782 29.33345575 1.83140039
v 20.35652920 29.11786720 1.48889999
v 20.35652920 29.11091535 0.51707731
v 20.28698025 29.13873435 0.44730388
v -23.95249079 26.23180550 1.83140039
v -23.63256942 26.51692995 1.83140039
v -24.63406348 25.59200332 0.51707731
v -25.57991519 24.61839054 0.44730388
v -25.12089594 25.11910353 0.51707731
v -24.11940623 26.07880681 1.83140039
v 20.35652920 29.11786720 1.83140039
v 20.89204780 28.72842441 1.48889999
v 21.50407009 28.27639177 0.51707731
v 21.49711534 28.27639177 0.44730388
v 20.96159674 28.65888271 0.44730388
v -24.63406348 25.59200332 1.83140039
v -26.50489976 23.62391206 0.44730388
v -26.08065715 24.11767320 0.51707731
v -25.59382469 24.63229424 0.51707731
v -25.12089594 25.11910353 1.83140039
v 20.89204780 28.72842441 1.83140039
v 21.28847141 28.43634231 1.83140039
v 21.50407009 28.27639177 1.83140039
v 21.99090690 27.89390082 0.51707731
v 21.92135795 27.94258117 0.44730388
v -26.51880926 23.63782156 0.51707731
v -27.40207113 22.58075613 0.44730388
v -27.00564752 23.08147057 0.51707731
v -26.23366743 23.95076790 1.83140039
v -26.08065715 24.11767320 1.83140039
v -25.59382469 24.63229424 1.83140039
v 21.99090690 27.89390082 1.83140039
v 22.38037431 27.58095158 1.83140039
v 22.59597299 27.40709154 0.51707731
v 22.58206349 27.40013968 0.44730388
v -26.51880926 23.63782156 1.83140039
v -28.27141771 21.49587315 0.44730388
v -27.89586124 21.98963429 0.51707731
v -27.40902298 22.59466418 0.51707731
v -27.00564752 23.08147057 1.83140039
v 22.59597299 27.40709154 1.83140039
v 22.76288843 27.26800813 1.83140039
v 23.07585505 27.00373924 0.51707731
v 23.01326086 27.03851009 0.44730388
v -29.43286955 19.84768588 0.44730388
v -29.10599343 20.34840177 0.51707731
v -28.27837535 21.50282790 0.51707731
v -27.89586124 21.98963429 1.83140039
v -27.72894725 22.19826519 1.83140039
v -27.40902298 22.59466418 1.83140039
v 23.07585505 27.00373924 1.83140039
v 23.43750492 26.69079000 1.83140039
v 23.63223790 26.51692995 0.51707731
v 23.62528315 26.50302625 0.44730388
v -30.23267442 18.63762465 0.44730388
v -29.93361730 19.13138579 0.51707731
v -29.44677905 19.86159538 0.51707731
v -28.98080794 20.54312317 1.83140039
v -28.27837535 21.50282790 1.83140039
v 23.80610808 26.36393705 1.83140039
v 24.11907470 26.07880681 0.51707731
v 24.05648196 26.11357766 0.44730388
v -30.23962628 18.64457940 0.51707731
v -31.26894078 16.82948684 0.44730388
v -30.62909804 17.97695967 0.51707731
v -29.93361730 19.13138579 1.83140039
v -29.44677905 19.86854868 1.48889999
v -29.23118471 20.18149647 1.83140039
v 24.11907470 26.07880681 1.83140039
v 24.45290557 25.76585757 1.83140039
v 24.63372906 25.59200332 0.51707731
v 24.16080320 26.01621696 0.44730388
v -30.49695490 18.21340811 1.83140039
v -30.23962628 18.64457940 1.83140039
v -30.63604989 17.97695967 1.48889999
v -32.22870199 14.91007883 0.44730388
v -31.68622574 16.03668741 0.51707731
v -31.27589263 16.84339634 0.51707731
v -31.01161215 17.33020273 1.48889999
v -29.44677905 19.86854868 1.83140039
v 24.63372906 25.59200332 1.83140039
v 24.61981956 25.57809382 0.44730388
v 25.12056731 25.11910353 0.51707731
v -30.63604989 17.97695967 1.83140039
v -30.87946902 17.55969643 1.83140039
v -32.23565385 14.92398833 0.51707731
v -33.11891571 12.83072027 0.44730388
v -32.59730661 14.08946329 0.51707731
v -32.00615001 15.41079472 1.48889999
v -31.69318339 16.03668741 1.48889999
v -31.54713076 16.32181765 1.83140039
v -31.27589263 16.84339634 1.83140039
v -31.01161215 17.33020273 1.83140039
v 25.12056731 25.11910353 1.83140039
v 25.15533816 25.05651368 0.44730388
v 25.42657629 24.80615429 1.83140039
v 25.59349027 24.63229424 0.51707731
v -32.23565385 14.92398833 1.83140039
v -32.60425846 14.08946329 1.48889999
v -33.36233484 12.14223773 0.44730388
v -33.38319619 12.14223773 0.51707731
v -33.12586757 12.83767502 0.51707731
v -32.93113458 13.32448141 1.48889999
v -32.81985859 13.59570215 1.83140039
v -32.00615001 15.41079472 1.83140039
v -31.69318339 16.03668741 1.83140039
v 26.01773289 24.16635355 0.44730388
v 25.59349027 24.63229424 1.83140039
v 26.08032853 24.11767320 0.51707731
v -32.60425846 14.08946329 1.83140039
v -34.09258643 9.97247250 0.44730388
v -33.38319619 12.14223773 1.83140039
v -33.29278735 12.39259567 1.83140039
v -33.70312046 11.17557897 0.51707731
v -33.71702996 11.17557897 1.48889999
v -33.12586757 12.83767502 1.83140039
v -32.93113458 13.32448141 1.83140039
v 26.51848064 23.63782156 0.51707731
v 26.50457114 23.62391206 0.44730388
v 26.08032853 24.11767320 1.83140039
v -34.28731941 9.22835414 0.44730388
v -34.30122891 9.22835414 0.51707731
v -34.09258643 9.97942652 0.51707731
v -33.71702996 11.17557897 1.83140039
v -33.94653379 10.46623291 1.48889999
v 26.51848064 23.63782156 1.83140039
v 27.00531310 23.08147057 0.51707731
v 26.94272325 23.13015237 0.44730388
v -34.50987718 8.25474136 0.44730388
v -34.53769618 8.25474136 0.51707731
v -34.54464804 8.25474136 1.48889999
v -34.46119104 8.60246000 1.83140039
v -34.30122891 9.22835414 1.83140039
v -34.23168141 9.49262013 1.83140039
v -34.09258643 9.97942652 1.83140039
v -34.00217179 10.29237359 1.83140039
v -33.94653379 10.46623291 1.83140039
v 27.00531310 23.08147057 1.83140039
v 27.40869436 22.59466418 0.51707731
v 27.40173671 22.58075613 0.44730388
v -35.01757679 5.98761470 0.44730388
v -34.74633867 7.28808332 0.51707731
v -34.76720002 7.28808332 1.48889999
v -34.54464804 8.25474136 1.83140039
v -34.69070067 7.62884722 1.83140039
v 27.40869436 22.59466418 1.83140039
v 27.58256599 22.37907853 1.83140039
v 27.89553261 21.98963429 0.51707731
v 27.93726111 21.92008969 0.44730388
v -35.01757679 5.99456909 0.51707731
v -35.10798564 5.34085776 0.44730388
v -35.25403827 4.36724498 0.51707731
v -35.11494328 5.34085776 0.51707731
v -34.87152415 6.76650463 1.83140039
v -34.76720002 7.28808332 1.83140039
v -34.92716215 6.48137512 1.48889999
v 27.89553261 21.98963429 1.83140039
v 28.14590359 21.67668650 1.83140039
v 28.27804093 21.50282790 0.51707731
v 28.27108908 21.49587315 0.44730388
v -35.01757679 5.99456909 1.83140039
v -34.96193879 6.30751579 1.83140039
v -35.12189513 5.34085776 1.48889999
v -35.24012877 4.36724498 0.44730388
v -35.35836241 3.40058695 0.51707731
v -35.32358576 3.74135121 1.83140039
v -35.25403827 4.36724498 1.83140039
v 28.27804093 21.50282790 1.83140039
v 28.86224568 20.70307371 1.83140039
v 29.11262245 20.34840177 0.51707731
v 28.66055505 20.96734116 0.44730388
v -35.12189513 5.34085776 1.83140039
v -35.34445291 3.40058695 0.44730388
v -35.35836241 3.40058695 1.83140039
v -35.44181940 2.42697417 0.51707731
v -35.41400040 2.76773861 1.83140039
v 29.11262245 20.34840177 1.83140039
v 29.13348380 20.28581192 0.44730388
v 29.44645042 19.86854868 1.48889999
v 29.44645042 19.86159538 0.51707731
v -35.42095226 2.42697417 0.44730388
v -35.47659025 1.79412601 1.83140039
v -35.44181940 2.42697417 1.83140039
v -35.49049975 1.45336157 0.51707731
v 29.44645042 19.86854868 1.83140039
v 29.43254092 19.84768588 0.44730388
v 29.93328868 19.13138579 0.51707731
v 29.96110767 19.06184120 0.44730388
v -35.46963840 1.45336157 0.44730388
v -35.49049975 1.45336157 1.83140039
v -35.51831875 0.47974892 0.51707731
v -35.52527639 0.47974892 1.83140039
v 29.93328868 19.13138579 1.83140039
v 30.23929765 18.64457940 0.51707731
v 30.23234000 18.63762465 0.44730388
v -35.49745740 0.47974892 0.44730388
v -35.51831875 -0.47995499 0.51707731
v -35.52527639 -0.47995499 1.83140039
v 30.23929765 18.64457940 1.83140039
v 30.63572126 17.97695967 1.48889999
v 30.62876362 17.97695967 0.51707731
v 30.57312562 18.05345756 0.44730388
v -35.49745740 -0.57036189 0.44730388
v -35.49049975 -1.45356764 0.51707731
v -35.50440925 -1.11280320 1.83140039
v 30.63572126 17.97695967 1.83140039
v 31.01127773 17.33020273 1.48889999
v 31.27556400 16.84339634 0.51707731
v 31.02518723 17.26065813 0.44730388
v -35.46963840 -1.45356764 0.44730388
v -35.49049975 -1.45356764 1.83140039
v -35.44181940 -2.42718024 0.51707731
v 31.01127773 17.33020273 1.83140039
v 31.18514937 17.01725494 1.83140039
v 31.26860636 16.82948684 0.44730388
v 31.27556400 16.84339634 1.83140039
v 31.69284897 16.03668741 1.48889999
v 31.68589712 16.03668741 0.51707731
v -35.42095226 -2.42718024 0.44730388
v -35.44181940 -2.42718024 1.83140039
v -35.41400040 -2.52454148 0.44730388
v -35.33749526 -3.49815408 0.44730388
v -35.35836241 -3.40079302 0.51707731
v 31.63025912 16.11318675 0.44730388
v 31.69284897 16.03668741 1.83140039
v 32.00581559 15.41079472 1.48889999
v 32.23532522 14.92398833 0.51707731
v 32.22836757 14.91007883 0.44730388
v -35.35836241 -3.40079302 1.83140039
v -35.24012877 -4.36745105 0.44730388
v -35.25403827 -4.36745105 0.51707731
v 32.00581559 15.41079472 1.83140039
v 32.23532522 14.92398833 1.83140039
v 32.36746256 14.63190478 1.83140039
v 32.60392984 14.08946329 1.48889999
v 32.59697219 14.08946329 0.51707731
v 32.54829184 14.17291594 0.44730388
v -35.25403827 -4.36745105 1.83140039
v -35.22621927 -4.48567564 0.44730388
v -35.10103378 -5.42451648 0.44730388
v -35.11494328 -5.34106383 0.51707731
v -35.12189513 -5.34106383 1.48889999
v 32.72215768 13.81824255 1.83140039
v 32.93080596 13.32448141 1.48889999
v 33.12553894 12.83767502 0.51707731
v 33.11858129 12.83072027 0.44730388
v -35.12189513 -5.34106383 1.83140039
v -35.01757679 -5.98782077 0.44730388
v -35.01757679 -5.99477516 0.51707731
v 32.93080596 13.32448141 1.83140039
v 33.12553894 12.83767502 1.83140039
v 33.21594778 12.59427182 1.83140039
v 33.38286756 12.14223773 0.51707731
v 33.34809092 12.22569038 0.44730388
v -35.01757679 -5.99477516 1.83140039
v -34.92716215 -6.40508329 0.44730388
v -34.53769618 -8.25494742 0.51707731
v -34.74633867 -7.28828939 0.51707731
v -34.76720002 -7.28828939 1.48889999
v -34.92716215 -6.48158118 1.48889999
v 33.38286756 12.14223773 1.83140039
v 33.50109541 11.80147311 1.83140039
v 33.71669554 11.17557897 1.48889999
v 33.70278604 11.17557897 0.51707731
v 34.09225780 9.97247250 0.44730388
v -34.92716215 -6.48158118 1.83140039
v -34.49596769 -8.35926287 0.44730388
v -34.27340991 -9.31201285 0.44730388
v -34.30122891 -9.22856021 0.51707731
v -34.54464804 -8.25494742 1.48889999
v -34.62810503 -7.91418281 1.83140039
v -34.76720002 -7.28828939 1.83140039
v 33.71669554 11.17557897 1.83140039
v 33.80015253 10.92522175 1.83140039
v 33.94620516 10.46623291 1.48889999
v 34.09225780 9.97942652 0.51707731
v 34.30090028 9.22835414 0.51707731
v 34.27308128 9.31180678 0.44730388
v -34.09258643 -9.97267857 0.44730388
v -34.30122891 -9.22856021 1.83140039
v -34.39164355 -8.88779559 1.83140039
v -34.09258643 -9.97963259 0.51707731
v -34.16909157 -9.71536660 1.83140039
v 33.94620516 10.46623291 1.83140039
v 34.04357166 10.15328584 1.83140039
v 34.16875715 9.71516053 1.83140039
v 34.30090028 9.22835414 1.83140039
v 34.39130913 8.88758952 1.83140039
v 34.55127126 8.25474136 1.48889999
v 34.53736176 8.25474136 0.51707731
v 34.49563327 8.35905680 0.44730388
v -33.34146769 -12.22589645 0.44730388
v -33.38319619 -12.14244380 0.51707731
v -33.70312046 -11.17578504 0.51707731
v -33.71702996 -11.17578504 1.48889999
v -33.94653379 -10.46643898 1.48889999
v -34.04390028 -10.15349191 1.83140039
v 34.55127126 8.25474136 1.83140039
v 34.62777640 7.91397674 1.83140039
v 34.76687139 7.28808332 1.48889999
v 34.74600425 7.28808332 0.51707731
v 35.01724237 5.98761470 0.44730388
v 34.92683352 6.40487722 0.44730388
v -33.11891571 -12.83092634 0.44730388
v -33.50142983 -11.80167918 1.83140039
v -33.12586757 -12.83788109 0.51707731
v -33.21628220 -12.59447789 1.83140039
v -33.38319619 -12.14244380 1.83140039
v -33.71702996 -11.17578504 1.83140039
v -33.80048695 -10.92542782 1.83140039
v -33.94653379 -10.46643898 1.83140039
v 34.76687139 7.28808332 1.83140039
v 34.92683352 6.48137512 1.48889999
v 35.01724237 5.99456909 0.51707731
v 35.12156651 5.34085776 0.51707731
v 35.10069936 5.42431041 0.44730388
v -32.59730661 -14.08966936 0.51707731
v -32.54862047 -14.17312201 0.44730388
v -32.93113458 -13.32468748 1.48889999
v -33.12586757 -12.83788109 1.83140039
v 34.92683352 6.48137512 1.83140039
v 35.01724237 5.99456909 1.83140039
v 35.12156651 5.34085776 1.83140039
v 35.25370385 4.36724498 0.51707731
v 35.22588485 4.48546957 0.44730388
v -32.60425846 -14.08966936 1.48889999
v -32.23565385 -14.92419440 0.51707731
v -32.22870199 -14.91028490 0.44730388
v -32.93113458 -13.32468748 1.83140039
v -32.72249210 -13.81844862 1.83140039
v 35.25370385 4.36724498 1.83140039
v 35.36498563 3.40058695 1.48889999
v 35.35802799 3.40058695 0.51707731
v 35.33716664 3.49794801 0.44730388
v 35.23979435 4.36724498 0.44730388
v -32.36779698 -14.63211085 1.83140039
v -32.00615001 -15.41100079 1.48889999
v -32.23565385 -14.92419440 1.83140039
v -31.68622574 -16.03689347 0.51707731
v -31.63058775 -16.11339282 0.44730388
v 35.36498563 3.40058695 1.83140039
v 35.39280463 3.05286794 1.83140039
v 35.44148498 2.42697417 0.51707731
v 35.41366598 2.52433541 0.44730388
v -32.00615001 -15.41100079 1.83140039
v -31.69318339 -16.03689347 1.48889999
v -31.26894078 -16.82969291 0.44730388
v -31.27589263 -16.84360241 0.51707731
v 35.44148498 2.42697417 1.83140039
v 35.42062363 2.42697417 0.44730388
v 35.49017112 1.45336157 0.51707731
v -31.69318339 -16.03689347 1.83140039
v -31.02552165 -17.26086420 0.44730388
v -30.57346004 -18.05366363 0.44730388
v -30.62909804 -17.97716574 0.51707731
v -31.01161215 -17.33040880 1.48889999
v -31.27589263 -16.84360241 1.83140039
v 35.49017112 1.45336157 1.83140039
v 35.46930398 1.45336157 0.44730388
v 35.50408062 1.11259713 1.83140039
v 35.52494197 0.47974892 1.48889999
v 35.51799012 0.47974892 0.51707731
v 35.49712298 0.57015582 0.44730388
v -30.23267442 -18.63783072 0.44730388
v -30.63604989 -17.97716574 1.48889999
v -30.23962628 -18.64478547 0.51707731
v -31.01161215 -17.33040880 1.83140039
v 35.52494197 0.47974892 1.83140039
v 35.51799012 -0.47995499 0.51707731
v 35.49712298 -0.47995499 0.44730388
v -29.96143630 -19.06204727 0.44730388
v -29.93361730 -19.13159186 0.51707731
v -30.63604989 -17.97716574 1.83140039
v -30.23962628 -18.64478547 1.83140039
v 35.51799012 -0.47995499 1.83140039
v 35.51103248 -0.82767377 1.83140039
v 35.49017112 -1.45356764 0.51707731
v 35.46930398 -1.45356764 0.44730388
v -29.43286955 -19.84789195 0.44730388
v -29.44677905 -19.86180145 0.51707731
v -29.44677905 -19.86875475 1.48889999
v -29.93361730 -19.13159186 1.83140039
v 35.49017112 -1.45356764 1.83140039
v 35.47626163 -1.79433207 1.83140039
v 35.44148498 -2.42718024 0.51707731
v 35.42062363 -2.42718024 0.44730388
v -29.13381822 -20.28601799 0.44730388
v -29.10599343 -20.34860784 0.51707731
v -29.11295108 -20.34860784 1.48889999
v -29.44677905 -19.86875475 1.83140039
v 35.44148498 -2.42718024 1.83140039
v 35.41366598 -2.76794467 1.83140039
v 35.35802799 -3.40079302 0.51707731
v 35.34411849 -3.40079302 0.44730388
v -28.66088947 -20.96059248 0.44730388
v -28.27837535 -21.50303397 0.51707731
v -28.86258010 -20.70327978 1.83140039
v -29.11295108 -20.34860784 1.83140039
v 35.35802799 -3.40079302 1.83140039
v 35.32325714 -3.74155727 1.83140039
v 35.25370385 -4.36745105 0.51707731
v 35.23979435 -4.36745105 0.44730388
v -28.27141771 -21.49607922 0.44730388
v -27.89586124 -21.98984036 0.51707731
v -28.14623222 -21.67689257 1.83140039
v -28.27837535 -21.50303397 1.83140039
v 35.25370385 -4.36745105 1.83140039
v 35.12156651 -5.34106383 0.51707731
v 35.10765701 -5.34106383 0.44730388
v -27.93758973 -21.92029576 0.44730388
v -27.89586124 -21.98984036 1.83140039
v -27.40902298 -22.59487025 0.51707731
v -27.58289462 -22.37928460 1.83140039
v 35.12156651 -5.34106383 1.83140039
v 35.01724237 -5.99477516 0.51707731
v 35.01724237 -5.98782077 0.44730388
v -27.40207113 -22.58096220 0.44730388
v -27.40902298 -22.59487025 1.83140039
v -27.00564752 -23.08167664 0.51707731
v 35.01724237 -5.99477516 1.83140039
v 34.96160437 -6.30772186 1.83140039
v 34.92683352 -6.48158118 1.48889999
v 34.76687139 -7.28828939 1.48889999
v 34.74600425 -7.28828939 0.51707731
v 34.53736176 -8.25494742 0.51707731
v 34.51650041 -8.25494742 0.44730388
v -26.94305188 -23.13035844 0.44730388
v -27.00564752 -23.08167664 1.83140039
v -26.51880926 -23.63802763 0.51707731
v 34.87118974 -6.76671070 1.83140039
v 34.76687139 -7.28828939 1.83140039
v 34.55127126 -8.25494742 1.48889999
v 34.30090028 -9.22856021 0.51707731
v 34.28699078 -9.22856021 0.44730388
v -26.50489976 -23.62411813 0.44730388
v -26.51880926 -23.63802763 1.83140039
v -26.11543380 -24.05528942 0.44730388
v -26.08065715 -24.11787927 0.51707731
v 34.55127126 -8.25494742 1.83140039
v 34.30090028 -9.22856021 1.83140039
v 34.23135279 -9.49282620 1.83140039
v 34.09225780 -9.97963259 0.51707731
v 34.09225780 -9.97267857 0.44730388
v -26.08065715 -24.11787927 1.83140039
v -26.01110966 -24.16655962 0.44730388
v -25.59382469 -24.63250321 0.51707731
v 34.09225780 -9.97963259 1.83140039
v 34.00184316 -10.29257966 1.83140039
v 33.94620516 -10.46643898 1.48889999
v 33.71669554 -11.17578504 1.48889999
v 33.70278604 -11.17578504 0.51707731
v 33.38286756 -12.14244380 0.51707731
v 33.36200042 -12.14244380 0.44730388
v -25.59382469 -24.63250321 1.83140039
v -25.57991519 -24.61859371 0.44730388
v -25.15567258 -25.05672265 0.44730388
v -25.12089594 -25.11930670 0.51707731
v -25.42691071 -24.80636325 1.83140039
v 33.94620516 -10.46643898 1.83140039
v 33.71669554 -11.17578504 1.83140039
v 33.38286756 -12.14244380 1.83140039
v 33.29245293 -12.39280174 1.83140039
v 33.12553894 -12.83788109 0.51707731
v 33.11858129 -12.83092634 0.44730388
v -24.62015398 -25.57829699 0.44730388
v -25.12089594 -25.11930670 1.83140039
v -24.63406348 -25.59220649 0.51707731
v 33.12553894 -12.83788109 1.83140039
v 32.93080596 -13.32468748 1.48889999
v 32.59697219 -14.08966936 0.51707731
v 32.22836757 -14.91028490 0.44730388
v -24.16113472 -26.01642593 0.44730388
v -24.63406348 -25.59220649 1.83140039
v -24.11940623 -26.07901578 0.51707731
v -24.45323420 -25.76606654 1.83140039
v 32.93080596 -13.32468748 1.83140039
v 32.81952417 -13.59590822 1.83140039
v 32.60392984 -14.08966936 1.48889999
v 32.23532522 -14.92419440 0.51707731
v 31.68589712 -16.03689347 0.51707731
v 31.26860636 -16.82969291 0.44730388
v -24.05681348 -26.11378663 0.44730388
v -24.11940623 -26.07901578 1.83140039
v -23.62561467 -26.50322942 0.44730388
v -23.63256942 -26.51713892 0.51707731
v -23.80643961 -26.36414023 1.83140039
v 32.47874435 -14.38175291 1.83140039
v 32.23532522 -14.92419440 1.83140039
v 32.00581559 -15.41100079 1.48889999
v 31.69284897 -16.03689347 1.48889999
v 31.27556400 -16.84360241 0.51707731
v 30.62876362 -17.97716574 0.51707731
v 30.23234000 -18.63783072 0.44730388
v -23.01359238 -27.03871906 0.44730388
v -23.07618657 -27.00394241 0.51707731
v -23.43783644 -26.69099897 1.83140039
v 32.00581559 -15.41100079 1.83140039
v 31.69284897 -16.03689347 1.83140039
v 31.54679634 -16.32202372 1.83140039
v 31.27556400 -16.84360241 1.83140039
v 31.01127773 -17.33040880 1.48889999
v 30.63572126 -17.97716574 1.48889999
v 30.23929765 -18.64478547 0.51707731
v 29.93328868 -19.13159186 0.51707731
v 29.43254092 -19.84789195 0.44730388
v -22.58239502 -27.40034286 0.44730388
v -22.59630452 -27.40730050 0.51707731
v -22.76321995 -27.26821131 1.83140039
v -23.07618657 -27.00394241 1.83140039
v 31.01127773 -17.33040880 1.83140039
v 30.87914039 -17.55990249 1.83140039
v 30.63572126 -17.97716574 1.83140039
v 30.49662628 -18.21361418 1.83140039
v 30.23929765 -18.64478547 1.83140039
v 29.93328868 -19.13159186 1.83140039
v 29.44645042 -19.86875475 1.83140039
v 29.44645042 -19.86180145 0.51707731
v 29.11262245 -20.34860784 0.51707731
v 28.27108908 -21.49607922 0.44730388
v -21.92168948 -27.94278435 0.44730388
v -21.99123842 -27.89410400 0.51707731
v -22.38070584 -27.58116055 1.83140039
v -22.59630452 -27.40730050 1.83140039
v 29.23085029 -20.18170254 1.83140039
v 28.98047931 -20.54332924 1.83140039
v 28.27804093 -21.50303397 0.51707731
v 27.89553261 -21.98984036 0.51707731
v 27.40173671 -22.58096220 0.44730388
v -21.49744687 -28.27659494 0.44730388
v -21.99123842 -27.89410400 1.83140039
v -21.50440162 -28.27659494 0.51707731
v 28.27804093 -21.50303397 1.83140039
v 27.89553261 -21.98984036 1.83140039
v 27.72861283 -22.19847125 1.83140039
v 27.40869436 -22.59487025 0.51707731
v 27.00531310 -23.08167664 0.51707731
v 26.50457114 -23.62411813 0.44730388
v -20.96192826 -28.65908588 0.44730388
v -20.34990597 -29.11111852 0.51707731
v -20.89237932 -28.72167573 0.51707731
v -21.50440162 -28.27659494 1.83140039
v -20.89237932 -28.72862758 1.48889999
v -21.28880293 -28.43654549 1.83140039
v 27.40869436 -22.59487025 1.83140039
v 27.00531310 -23.08167664 1.83140039
v 26.51848064 -23.63802763 0.51707731
v 26.08032853 -24.11787927 0.51707731
v 25.57958077 -24.61859371 0.44730388
v -20.28731178 -29.13893752 0.44730388
v -20.35686072 -29.11807617 1.48889999
v -19.87002391 -29.44492912 0.51707731
v -20.89237932 -28.72862758 1.83140039
v 26.51848064 -23.63802763 1.83140039
v 26.23333301 -23.95097397 1.83140039
v 25.59349027 -24.63250321 0.51707731
v 26.08032853 -24.11787927 1.83140039
v 25.12056731 -25.11930670 0.51707731
v 24.61981956 -25.57829699 0.44730388
v -19.84915967 -29.43797726 0.44730388
v -20.03693935 -29.33365892 1.83140039
v -20.35686072 -29.11807617 1.83140039
v -19.06326719 -29.96650925 0.44730388
v -19.12586138 -29.93173840 0.51707731
v -19.60574199 -29.61878916 1.83140039
v -19.87002391 -29.44492912 1.83140039
v 25.59349027 -24.63250321 1.83140039
v 25.12056731 -25.11930670 1.83140039
v 24.63372906 -25.59220649 0.51707731
v 24.11907470 -26.07901578 0.51707731
v 23.62528315 -26.50322942 0.44730388
v -18.64597932 -30.23773000 0.51707731
v -18.63206983 -30.23077815 0.44730388
v -18.81289476 -30.13341165 1.83140039
v -19.12586138 -29.93173840 1.83140039
v 24.63372906 -25.59220649 1.83140039
v 24.11907470 -26.07901578 1.83140039
v 23.95215927 -26.23200868 1.83140039
v 23.63223790 -26.51713892 0.51707731
v 23.07585505 -27.00394241 0.51707731
v 22.58206349 -27.40034286 0.44730388
v -18.64597932 -30.23773000 1.83140039
v -17.97831903 -30.62717279 0.51707731
v -17.97831903 -30.63413044 1.48889999
v -18.04786653 -30.57154059 0.44730388
v 23.63223790 -26.51713892 1.83140039
v 23.27754423 -26.83008816 1.83140039
v 23.07585505 -27.00394241 1.83140039
v 22.59597299 -27.40730050 0.51707731
v 21.99090690 -27.89410400 0.51707731
v 21.49711534 -28.26964309 0.44730388
v -17.97831903 -30.63413044 1.83140039
v -17.26197550 -31.02357324 0.44730388
v -16.84468764 -31.27393263 0.51707731
v -17.33152299 -31.00966374 1.48889999
v 22.59597299 -27.40730050 1.83140039
v 22.19955083 -27.72720160 1.83140039
v 21.81703671 -28.03319319 1.83140039
v 21.50407009 -28.27659494 0.51707731
v 20.35652920 -29.11111852 0.51707731
v 19.84882814 -29.43797726 0.44730388
v -17.33152299 -31.00966374 1.83140039
v -16.83077814 -31.26697498 0.44730388
v -16.84468764 -31.27393263 1.83140039
v -17.01160162 -31.18352378 1.83140039
v -16.11443315 -31.63556222 0.44730388
v -15.41199912 -31.99718602 0.51707731
v -16.03097616 -31.69814627 1.48889999
v 21.50407009 -28.27659494 1.83140039
v 20.89204780 -28.72862758 1.48889999
v 20.35652920 -29.11807617 1.48889999
v 19.86969239 -29.44492912 0.51707731
v 18.63869305 -30.23077815 0.44730388
v -16.03097616 -31.69814627 1.83140039
v -15.34245017 -32.01805316 0.44730388
v -14.92516231 -32.23363591 0.51707731
v -15.41199912 -32.00414366 1.48889999
v -15.81537748 -31.80941647 1.83140039
v 20.89204780 -28.72862758 1.83140039
v 20.35652920 -29.11807617 1.83140039
v 20.18265901 -29.23629822 1.83140039
v 19.86969239 -29.44492912 1.83140039
v 18.95861442 -30.04300860 1.83140039
v 19.12552986 -29.93173840 0.51707731
v 18.64564780 -30.23773000 0.51707731
v 17.97798751 -30.62717279 0.51707731
v 16.83044661 -31.26697498 0.44730388
v -14.91125281 -32.22668406 0.44730388
v -15.09903250 -32.15713656 1.83140039
v -14.17404503 -32.54658515 0.44730388
v -14.09058659 -32.59526550 0.51707731
v -14.09058659 -32.60917500 1.48889999
v 18.64564780 -30.23773000 1.83140039
v 18.21445044 -30.49504124 1.83140039
v 17.97798751 -30.63413044 1.48889999
v 17.33119147 -31.00966374 1.48889999
v 16.84435611 -31.27393263 0.51707731
v 15.41166759 -31.99718602 0.51707731
v 14.91092129 -32.22668406 0.44730388
v -14.09058659 -32.60917500 1.83140039
v -13.24905611 -32.94297980 0.44730388
v -12.83176825 -33.12379749 0.51707731
v -13.31860506 -32.92907609 1.48889999
v 17.97798751 -30.63413044 1.83140039
v 17.56069965 -30.87753219 1.83140039
v 17.33119147 -31.00966374 1.83140039
v 16.84435611 -31.27393263 1.83140039
v 16.03064464 -31.69814627 1.48889999
v 15.63422102 -31.89982532 1.83140039
v 14.92483079 -32.23363591 0.51707731
v 14.09025506 -32.59526550 0.51707731
v 12.82448198 -33.11683985 0.44730388
v -13.31860506 -32.92907609 1.83140039
v -12.82481350 -33.11683985 0.44730388
v -12.21974596 -33.34633789 0.44730388
v -12.14324371 -33.38110874 0.51707731
v -12.59530532 -33.21420054 1.83140039
v -12.83176825 -33.12379749 1.83140039
v 16.03064464 -31.69814627 1.83140039
v 15.24475216 -32.08759486 1.83140039
v 14.92483079 -32.23363591 1.83140039
v 14.09025506 -32.60917500 1.48889999
v 12.83143673 -33.12379749 0.51707731
v 12.14291219 -33.38110874 0.51707731
v 12.14291219 -33.36024739 0.44730388
v -11.17652630 -33.70796168 0.51707731
v -10.39063455 -33.95136922 0.44730388
v -11.17652630 -33.72187118 1.48889999
v -12.14324371 -33.38110874 1.83140039
v 14.09025506 -32.60917500 1.83140039
v 13.58951021 -32.81780590 1.83140039
v 13.31827353 -32.92907609 1.48889999
v 13.15135810 -32.99861779 1.83140039
v 12.83839148 -33.12379749 1.83140039
v 12.14291219 -33.38110874 1.83140039
v 11.51698040 -33.60364913 1.83140039
v 11.17619478 -33.72187118 1.48889999
v 11.17619478 -33.70796168 0.51707731
v 9.96606041 -34.09045263 0.44730388
v -9.96639193 -34.09045263 0.44730388
v -10.46018204 -33.93745973 0.51707731
v -9.98030143 -34.09045263 0.51707731
v -10.46713679 -33.94441158 1.48889999
v -11.17652630 -33.72187118 1.83140039
v 11.17619478 -33.72187118 1.83140039
v 10.71717842 -33.86791223 1.83140039
v 10.46680527 -33.94441158 1.48889999
v 9.97996991 -34.09045263 0.51707731
v 10.46680527 -33.93745973 0.51707731
v 9.22885118 -34.29908352 0.51707731
v 9.22885118 -34.28517402 0.44730388
v -9.31264042 -34.27127032 0.44730388
v -9.22918270 -34.29908352 0.51707731
v -9.71601878 -34.16695197 1.83140039
v -9.98030143 -34.09045263 1.83140039
v -10.14721614 -34.04177228 1.83140039
v -10.46713679 -33.94441158 1.83140039
v 10.29293581 -34.00004957 1.83140039
v 9.97996991 -34.09045263 1.83140039
v 9.49313383 -34.22954182 1.83140039
v 8.60291938 -34.46599172 1.83140039
v 8.25517974 -34.54249106 0.51707731
v 8.25517974 -34.51467207 0.44730388
v -8.35983323 -34.50076257 0.44730388
v -8.25551126 -34.54249106 0.51707731
v -8.25551126 -34.54944292 1.48889999
v -8.88839781 -34.38949237 1.83140039
v -9.22918270 -34.29908352 1.83140039
v 8.25517974 -34.54944292 1.83140039
v 8.25517974 -34.54944292 1.48889999
v 7.28846305 -34.74416431 0.51707731
v 5.98096075 -35.01538506 0.44730388
v 7.28846305 -34.76503146 1.48889999
v -5.98129227 -35.01538506 0.44730388
v -7.28879458 -34.74416431 0.51707731
v -7.28879458 -34.76503146 1.48889999
v -7.91472637 -34.62594226 1.83140039
v -8.25551126 -34.54944292 1.83140039
v 7.28846305 -34.76503146 1.83140039
v 5.98791550 -35.01538506 0.51707731
v 5.34111945 -35.11970340 0.51707731
v 5.34111945 -35.11274576 0.44730388
v 6.75989775 -34.86934401 1.83140039
v 6.30088139 -34.95975286 1.83140039
v 6.47475158 -34.92498201 1.48889999
v -5.42490833 -35.10579390 0.44730388
v -5.98824702 -35.01538506 0.51707731
v -6.99669293 -34.82761551 1.83140039
v -7.28879458 -34.76503146 1.83140039
v 5.98791550 -35.01538506 1.83140039
v 5.57062763 -35.08493255 1.83140039
v 5.34111945 -35.11970340 1.83140039
v 4.71518730 -35.21010646 1.83140039
v 4.36744766 -35.25183495 0.51707731
v 4.36744766 -35.23792545 0.44730388
v -5.34145098 -35.11970340 0.51707731
v -4.48601064 -35.23097360 0.44730388
v -4.36777918 -35.25183495 0.51707731
v -6.47508310 -34.92498201 1.48889999
v -5.98824702 -35.01538506 1.83140039
v -6.47508310 -34.92498201 1.83140039
v 4.36744766 -35.25183495 1.83140039
v 3.74151586 -35.32137665 1.83140039
v 3.40073061 -35.35615330 0.51707731
v 3.40073061 -35.34224380 0.44730388
v -5.00066572 -35.16838375 1.83140039
v -5.34145098 -35.11970340 1.83140039
v -3.49842934 -35.33528615 0.44730388
v -3.40106213 -35.35615330 0.51707731
v -4.36777918 -35.25183495 1.83140039
v -4.02699392 -35.29356345 1.83140039
v 3.40073061 -35.35615330 1.83140039
v 2.76784388 -35.41178550 1.83140039
v 2.42705881 -35.43960450 0.51707731
v 2.42705881 -35.41873735 0.44730388
v -2.52475755 -35.41178550 0.44730388
v -2.42739033 -35.43960450 0.51707731
v -3.05332212 -35.39092415 1.83140039
v 2.42705881 -35.43960450 1.83140039
v 1.45338710 -35.49523670 0.51707731
v 1.36297472 -35.47437535 0.44730388
v -2.42739033 -35.41873735 0.44730388
v -1.45371862 -35.49523670 0.51707731
v -2.08660525 -35.46046585 1.83140039
v -2.42739033 -35.43960450 1.83140039
v 1.45338710 -35.49523670 1.83140039
v 0.82745521 -35.50914620 1.83140039
v 0.47971530 -35.51610384 0.51707731
v 0.47971530 -35.49523670 0.44730388
v -1.54413100 -35.46742349 0.44730388
v -1.45371862 -35.49523670 1.83140039
v -0.57045920 -35.49523670 0.44730388
v -0.48004682 -35.51610384 0.51707731
v -0.48004682 -35.52305570 1.83140039
v 0.47971530 -35.51610384 1.83140039
f 1 2 3
f 1 3 4
f 1 4 5
f 1 5 6
f 1 6 14
f 1 14 21
f 1 21 27
f 1 27 30
f 1 30 38
f 1 38 37
f 1 37 45
f 1 45 44
f 1 44 56
f 1 56 55
f 1 55 67
f 1 67 69
f 1 69 81
f 1 81 80
f 1 80 92
f 1 92 78
f 1 78 91
f 1 91 103
f 1 103 102
f 1 102 112
f 1 112 111
f 1 111 110
f 1 110 121
f 1 121 122
f 1 122 128
f 1 128 131
f 1 131 141
f 1 141 140
f 1 140 142
f 1 142 144
f 1 144 143
f 1 143 153
f 1 153 159
f 1 159 173
f 1 173 172
f 1 172 167
f 1 167 166
f 1 166 168
f 1 168 179
f 1 179 186
f 1 186 199
f 1 199 200
f 1 200 205
f 1 205 193
f 1 193 192
f 1 192 198
f 1 198 197
f 1 197 206
f 1 206 208
f 1 208 217
f 1 217 216
f 1 216 221
f 1 221 227
f 1 227 231
f 1 231 242
f 1 242 241
f 1 241 240
f 1 240 247
f 1 247 251
f 1 251 261
f 1 261 260
f 1 260 259
f 1 259 270
f 1 270 269
f 1 269 279
f 1 279 291
f 1 291 277
f 1 277 285
f 1 285 284
f 1 284 295
f 1 295 296
f 1 296 304
f 1 304 303
f 1 303 302
f 1 302 317
f 1 317 316
f 1 316 309
f 1 309 321
f 1 321 315
f 1 315 328
f 1 328 327
f 1 327 324
f 1 324 323
f 1 323 335
f 1 335 348
f 1 348 347
f 1 347 346
f 1 346 345
f 1 345 344
f 1 344 343
f 1 343 355
f 1 355 356
f 1 356 366
f 1 366 365
f 1 365 373
f 1 373 372
f 1 372 383
f 1 383 378
f 1 378 377
f 1 377 385
f 1 385 387
f 1 387 394
f 1 394 393
f 1 393 401
f 1 401 403
f 1 403 409
f 1 409 416
f 1 416 422
f 1 422 431
f 1 431 440
f 1 440 449
f 1 449 458
f 1 458 466
f 1 466 477
f 1 477 483
f 1 483 482
f 1 482 492
f 1 492 491
f 1 491 494
f 1 494 508
f 1 508 522
f 1 522 521
f 1 521 520
f 1 520 516
f 1 516 519
f 1 519 518
f 1 518 531
f 1 531 540
f 1 540 541
f 1 541 547
f 1 547 549
f 1 549 556
f 1 556 563
f 1 563 568
f 1 568 578
f 1 578 584
f 1 584 585
f 1 585 593
f 1 593 601
f 1 601 609
f 1 609 608
f 1 608 617
f 1 617 616
f 1 616 622
f 1 622 624
f 1 624 629
f 1 629 639
f 1 639 647
f 1 647 655
f 1 655 665
f 1 665 669
f 1 669 677
f 1 677 684
f 1 684 686
f 1 686 694
f 1 694 697
f 1 697 707
f 1 707 720
f 1 720 719
f 1 719 734
f 1 734 733
f 1 733 741
f 1 741 752
f 1 752 754
f 1 754 763
f 1 763 772
f 1 772 771
f 1 771 776
f 1 776 775
f 1 775 785
f 1 785 784
f 1 784 792
f 1 792 802
f 1 802 812
f 1 812 815
f 1 815 814
f 1 814 824
f 1 824 828
f 1 828 839
f 1 839 850
f 1 850 863
f 1 863 868
f 1 868 867
f 1 867 879
f 1 879 894
f 1 894 907
f 1 907 906
f 1 906 905
f 1 905 904
f 1 904 918
f 1 918 917
f 1 917 928
f 1 928 927
f 1 927 939
f 1 939 938
f 1 938 951
f 1 951 950
f 1 950 957
f 1 957 956
f 1 956 960
f 1 960 961
f 1 961 968
f 1 968 975
f 1 975 974
f 1 974 981
f 1 981 984
f 1 984 985
f 1 985 977
f 1 977 976
f 1 976 969
f 1 969 963
f 1 963 962
f 1 962 953
f 1 953 952
f 1 952 943
f 1 943 942
f 1 942 941
f 1 941 940
f 1 940 934
f 1 934 933
f 1 933 929
f 1 929 919
f 1 919 911
f 1 911 910
f 1 910 909
f 1 909 908
f 1 908 896
f 1 896 895
f 1 895 886
f 1 886 885
f 1 885 884
f 1 884 883
f 1 883 881
f 1 881 880
f 1 880 871
f 1 871 870
f 1 870 859
f 1 859 869
f 1 869 857
f 1 857 856
f 1 856 855
f 1 855 854
f 1 854 844
f 1 844 843
f 1 843 833
f 1 833 832
f 1 832 831
f 1 831 830
f 1 830 829
f 1 829 819
f 1 819 808
f 1 808 807
f 1 807 806
f 1 806 798
f 1 798 797
f 1 797 796
f 1 796 788
f 1 788 787
f 1 787 786
f 1 786 778
f 1 778 777
f 1 777 767
f 1 767 765
f 1 765 764
f 1 764 756
f 1 756 755
f 1 755 745
f 1 745 744
f 1 744 743
f 1 743 736
f 1 736 735
f 1 735 727
f 1 727 726
f 1 726 725
f 1 725 724
f 1 724 723
f 1 723 722
f 1 722 721
f 1 721 711
f 1 711 710
f 1 710 709
f 1 709 708
f 1 708 699
f 1 699 698
f 1 698 688
f 1 688 687
f 1 687 679
f 1 679 673
f 1 673 672
f 1 672 671
f 1 671 670
f 1 670 659
f 1 659 658
f 1 658 652
f 1 652 651
f 1 651 650
f 1 650 642
f 1 642 641
f 1 641 632
f 1 632 631
f 1 631 625
f 1 625 618
f 1 618 611
f 1 611 610
f 1 610 603
f 1 603 602
f 1 602 595
f 1 595 594
f 1 594 587
f 1 587 586
f 1 586 579
f 1 579 571
f 1 571 569
f 1 569 560
f 1 560 553
f 1 553 552
f 1 552 542
f 1 542 534
f 1 534 533
f 1 533 532
f 1 532 523
f 1 523 510
f 1 510 509
f 1 509 499
f 1 499 498
f 1 498 497
f 1 497 496
f 1 496 495
f 1 495 485
f 1 485 484
f 1 484 473
f 1 473 472
f 1 472 463
f 1 463 462
f 1 462 461
f 1 461 454
f 1 454 445
f 1 445 444
f 1 444 443
f 1 443 436
f 1 436 427
f 1 427 425
f 1 425 424
f 1 424 417
f 1 417 410
f 1 410 404
f 1 404 396
f 1 396 388
f 1 388 380
f 1 380 379
f 1 379 369
f 1 369 368
f 1 368 358
f 1 358 357
f 1 357 349
f 1 349 337
f 1 337 331
f 1 331 319
f 1 319 307
f 1 307 305
f 1 305 292
f 1 292 281
f 1 281 280
f 1 280 271
f 1 271 263
f 1 263 262
f 1 262 253
f 1 253 252
f 1 252 244
f 1 244 243
f 1 243 234
f 1 234 233
f 1 233 232
f 1 232 222
f 1 222 212
f 1 212 211
f 1 211 202
f 1 202 201
f 1 201 189
f 1 189 188
f 1 188 187
f 1 187 174
f 1 174 162
f 1 162 161
f 1 161 152
f 1 152 139
f 1 139 126
f 1 126 125
f 1 125 123
f 1 123 113
f 1 113 105
f 1 105 104
f 1 104 94
f 1 94 93
f 1 93 83
f 1 83 82
f 1 82 73
f 1 73 72
f 1 72 71
f 1 71 70
f 1 70 59
f 1 59 58
f 1 58 48
f 1 48 57
f 1 57 46
f 1 46 39
f 1 39 32
f 1 32 31
f 1 31 24
f 1 24 16
f 1 16 15
f 1 15 7
f 1 7 2
f 2 7 3
f 3 7 8
f 3 8 9
f 3 9 10
f 3 10 11
f 3 11 4
f 4 11 12
f 4 12 5
f 5 12 13
f 5 13 14
f 5 14 6
f 7 15 8
f 8 15 16
f 8 16 17
f 8 17 18
f 8 18 19
f 8 19 9
f 9 19 18
f 9 18 26
f 9 26 34
f 9 34 41
f 9 41 52
f 9 52 62
f 9 62 75
f 9 75 88
f 9 88 96
f 9 96 107
f 9 107 117
f 9 117 127
f 9 127 135
f 9 135 138
f 9 138 151
f 9 151 160
f 9 160 165
f 9 165 178
f 9 178 177
f 9 177 191
f 9 191 204
f 9 204 215
f 9 215 226
f 9 226 225
f 9 225 236
f 9 236 246
f 9 246 255
f 9 255 265
f 9 265 273
f 9 273 283
f 9 283 293
f 9 293 306
f 9 306 318
f 9 318 330
f 9 330 339
f 9 339 351
f 9 351 360
f 9 360 371
f 9 371 382
f 9 382 389
f 9 389 397
f 9 397 399
f 9 399 406
f 9 406 413
f 9 413 420
f 9 420 426
f 9 426 435
f 9 435 439
f 9 439 448
f 9 448 457
f 9 457 465
f 9 465 476
f 9 476 489
f 9 489 502
f 9 502 514
f 9 514 513
f 9 513 527
f 9 527 536
f 9 536 546
f 9 546 545
f 9 545 555
f 9 555 561
f 9 561 570
f 9 570 574
f 9 574 581
f 9 581 589
f 9 589 597
f 9 597 605
f 9 605 613
f 9 613 620
f 9 620 627
f 9 627 637
f 9 637 645
f 9 645 654
f 9 654 664
f 9 664 675
f 9 675 682
f 9 682 692
f 9 692 704
f 9 704 716
f 9 716 730
f 9 730 739
f 9 739 748
f 9 748 759
f 9 759 769
f 9 769 781
f 9 781 791
f 9 791 801
f 9 801 811
f 9 811 823
f 9 823 837
f 9 837 849
f 9 849 862
f 9 862 875
f 9 875 889
f 9 889 901
f 9 901 913
f 9 913 922
f 9 922 932
f 9 932 945
f 9 945 955
f 9 955 965
f 9 965 971
f 9 971 979
f 9 979 982
f 9 982 980
f 9 980 972
f 9 972 966
f 9 966 958
f 9 958 947
f 9 947 936
f 9 936 924
f 9 924 914
f 9 914 902
f 9 902 890
f 9 890 877
f 9 877 865
f 9 865 864
f 9 864 851
f 9 851 840
f 9 840 838
f 9 838 825
f 9 825 816
f 9 816 813
f 9 813 803
f 9 803 795
f 9 795 783
f 9 783 773
f 9 773 770
f 9 770 760
f 9 760 749
f 9 749 740
f 9 740 731
f 9 731 717
f 9 717 705
f 9 705 695
f 9 695 693
f 9 693 683
f 9 683 676
f 9 676 667
f 9 667 666
f 9 666 656
f 9 656 648
f 9 648 646
f 9 646 638
f 9 638 628
f 9 628 621
f 9 621 614
f 9 614 606
f 9 606 598
f 9 598 590
f 9 590 582
f 9 582 575
f 9 575 565
f 9 565 564
f 9 564 558
f 9 558 551
f 9 551 539
f 9 539 529
f 9 529 515
f 9 515 503
f 9 503 490
f 9 490 479
f 9 479 478
f 9 478 467
f 9 467 459
f 9 459 451
f 9 451 450
f 9 450 441
f 9 441 433
f 9 433 432
f 9 432 430
f 9 430 421
f 9 421 414
f 9 414 407
f 9 407 400
f 9 400 392
f 9 392 384
f 9 384 375
f 9 375 362
f 9 362 352
f 9 352 340
f 9 340 332
f 9 332 322
f 9 322 311
f 9 311 298
f 9 298 287
f 9 287 275
f 9 275 266
f 9 266 256
f 9 256 248
f 9 248 238
f 9 238 228
f 9 228 219
f 9 219 209
f 9 209 196
f 9 196 182
f 9 182 169
f 9 169 155
f 9 155 145
f 9 145 133
f 9 133 119
f 9 119 108
f 9 108 98
f 9 98 89
f 9 89 76
f 9 76 63
f 9 63 53
f 9 53 42
f 9 42 35
f 9 35 28
f 9 28 22
f 9 22 20
f 9 20 12
f 9 12 11
f 9 11 10
f 12 20 13
f 13 21 14
f 13 20 22
f 13 22 23
f 13 23 27
f 13 27 21
f 16 24 17
f 17 24 25
f 17 25 26
f 17 26 18
f 22 28 23
f 23 28 29
f 23 29 30
f 23 30 27
f 24 31 25
f 25 31 32
f 25 32 33
f 25 33 34
f 25 34 26
f 28 35 36
f 28 36 29
f 29 36 37
f 29 37 38
f 29 38 30
f 32 39 33
f 33 39 46
f 33 46 40
f 33 40 34
f 34 40 41
f 35 42 36
f 36 42 43
f 36 43 44
f 36 44 45
f 36 45 37
f 40 46 57
f 40 57 47
f 40 47 48
f 40 48 49
f 40 49 41
f 41 49 50
f 41 50 51
f 41 51 52
f 42 53 43
f 43 53 54
f 43 54 55
f 43 55 56
f 43 56 44
f 47 57 48
f 48 58 49
f 49 58 59
f 49 59 60
f 49 60 51
f 49 51 50
f 51 60 61
f 51 61 62
f 51 62 52
f 53 63 64
f 53 64 65
f 53 65 66
f 53 66 54
f 54 67 55
f 54 66 68
f 54 68 69
f 54 69 67
f 59 70 60
f 60 70 71
f 60 71 61
f 61 71 72
f 61 72 73
f 61 73 74
f 61 74 75
f 61 75 62
f 63 76 64
f 64 76 77
f 64 77 78
f 64 78 79
f 64 79 66
f 64 66 65
f 66 79 92
f 66 92 80
f 66 80 81
f 66 81 69
f 66 69 68
f 73 82 74
f 74 82 83
f 74 83 84
f 74 84 85
f 74 85 86
f 74 86 75
f 75 86 87
f 75 87 88
f 76 89 77
f 77 89 90
f 77 90 91
f 77 91 78
f 78 92 79
f 83 93 84
f 84 93 94
f 84 94 85
f 85 94 104
f 85 104 95
f 85 95 87
f 85 87 86
f 87 95 96
f 87 96 88
f 89 97 90
f 89 98 99
f 89 99 97
f 90 97 100
f 90 100 101
f 90 101 102
f 90 102 103
f 90 103 91
f 95 104 105
f 95 105 106
f 95 106 96
f 96 106 107
f 97 99 100
f 98 108 109
f 98 109 99
f 99 109 100
f 100 109 110
f 100 110 111
f 100 111 112
f 100 112 101
f 101 112 102
f 105 113 106
f 106 113 123
f 106 123 114
f 106 114 115
f 106 115 116
f 106 116 117
f 106 117 107
f 108 118 109
f 108 119 120
f 108 120 118
f 109 121 110
f 109 118 122
f 109 122 121
f 114 123 125
f 114 125 115
f 115 124 116
f 115 125 126
f 115 126 124
f 116 124 127
f 116 127 117
f 118 128 122
f 118 120 129
f 118 129 130
f 118 130 131
f 118 131 128
f 119 132 120
f 119 133 134
f 119 134 132
f 120 132 129
f 124 135 127
f 124 126 136
f 124 136 137
f 124 137 138
f 124 138 135
f 126 139 136
f 129 140 141
f 129 141 130
f 129 132 142
f 129 142 140
f 130 141 131
f 132 134 143
f 132 143 144
f 132 144 142
f 133 145 146
f 133 146 147
f 133 147 134
f 134 147 148
f 134 148 143
f 136 139 137
f 137 139 149
f 137 149 150
f 137 150 151
f 137 151 138
f 139 152 149
f 143 148 153
f 145 154 146
f 145 155 156
f 145 156 154
f 146 154 157
f 146 157 158
f 146 158 147
f 147 159 153
f 147 153 148
f 147 158 173
f 147 173 159
f 149 152 161
f 149 161 150
f 150 160 151
f 150 161 162
f 150 162 163
f 150 163 164
f 150 164 165
f 150 165 160
f 154 166 167
f 154 167 157
f 154 156 168
f 154 168 166
f 155 169 170
f 155 170 171
f 155 171 156
f 156 171 168
f 157 167 172
f 157 172 173
f 157 173 158
f 162 174 163
f 163 174 187
f 163 187 175
f 163 175 164
f 164 175 176
f 164 176 177
f 164 177 178
f 164 178 165
f 168 171 179
f 169 180 181
f 169 181 170
f 169 182 183
f 169 183 184
f 169 184 180
f 170 181 194
f 170 194 185
f 170 185 171
f 171 185 186
f 171 186 179
f 175 187 188
f 175 188 176
f 176 188 189
f 176 189 190
f 176 190 191
f 176 191 177
f 180 192 193
f 180 193 205
f 180 205 194
f 180 194 181
f 180 184 192
f 182 195 183
f 182 196 195
f 183 195 206
f 183 206 197
f 183 197 198
f 183 198 184
f 184 198 192
f 185 199 186
f 185 194 200
f 185 200 199
f 189 201 190
f 190 201 202
f 190 202 203
f 190 203 191
f 191 203 204
f 194 205 200
f 195 196 207
f 195 207 208
f 195 208 206
f 196 209 210
f 196 210 207
f 202 211 203
f 203 211 212
f 203 212 213
f 203 213 214
f 203 214 215
f 203 215 204
f 207 210 216
f 207 216 217
f 207 217 208
f 209 218 210
f 209 219 220
f 209 220 218
f 210 218 227
f 210 227 221
f 210 221 216
f 212 222 213
f 213 222 232
f 213 232 223
f 213 223 224
f 213 224 214
f 214 224 225
f 214 225 226
f 214 226 215
f 218 220 231
f 218 231 227
f 219 228 229
f 219 229 230
f 219 230 220
f 220 230 242
f 220 242 231
f 223 232 233
f 223 233 224
f 224 233 234
f 224 234 243
f 224 243 235
f 224 235 225
f 225 235 236
f 228 237 229
f 228 238 239
f 228 239 237
f 229 237 240
f 229 240 241
f 229 241 242
f 229 242 230
f 235 243 244
f 235 244 245
f 235 245 236
f 236 245 246
f 237 247 240
f 237 239 251
f 237 251 247
f 238 248 249
f 238 249 250
f 238 250 239
f 239 250 261
f 239 261 251
f 244 252 245
f 245 252 253
f 245 253 254
f 245 254 255
f 245 255 246
f 248 256 257
f 248 257 258
f 248 258 249
f 249 258 270
f 249 270 259
f 249 259 260
f 249 260 250
f 250 260 261
f 253 262 254
f 254 262 263
f 254 263 264
f 254 264 265
f 254 265 255
f 256 266 267
f 256 267 268
f 256 268 257
f 257 268 269
f 257 269 258
f 258 269 270
f 263 271 264
f 264 271 272
f 264 272 265
f 265 272 273
f 266 274 267
f 266 275 276
f 266 276 274
f 267 277 291
f 267 291 278
f 267 278 268
f 267 274 285
f 267 285 277
f 268 278 269
f 269 278 279
f 271 280 272
f 272 280 281
f 272 281 282
f 272 282 283
f 272 283 273
f 274 284 285
f 274 276 286
f 274 286 284
f 275 287 288
f 275 288 289
f 275 289 276
f 276 289 290
f 276 290 286
f 278 291 279
f 281 292 282
f 282 293 283
f 282 292 305
f 282 305 294
f 282 294 293
f 284 286 295
f 286 290 296
f 286 296 295
f 287 297 288
f 287 298 299
f 287 299 297
f 288 297 300
f 288 300 301
f 288 301 289
f 289 302 303
f 289 303 304
f 289 304 290
f 289 301 302
f 290 304 296
f 293 294 306
f 294 305 307
f 294 307 308
f 294 308 306
f 297 309 316
f 297 316 300
f 297 299 310
f 297 310 321
f 297 321 309
f 298 311 312
f 298 312 313
f 298 313 299
f 299 313 314
f 299 314 315
f 299 315 310
f 300 316 317
f 300 317 301
f 301 317 302
f 306 308 318
f 307 319 308
f 308 319 331
f 308 331 320
f 308 320 318
f 310 315 321
f 311 322 312
f 312 323 324
f 312 324 313
f 312 322 325
f 312 325 326
f 312 326 335
f 312 335 323
f 313 324 327
f 313 327 328
f 313 328 314
f 314 328 315
f 318 320 329
f 318 329 330
f 320 331 337
f 320 337 329
f 322 332 333
f 322 333 334
f 322 334 325
f 325 334 326
f 326 336 348
f 326 348 335
f 326 334 336
f 329 337 349
f 329 349 338
f 329 338 339
f 329 339 330
f 332 340 341
f 332 341 333
f 333 341 342
f 333 342 343
f 333 343 344
f 333 344 345
f 333 345 334
f 334 345 346
f 334 346 347
f 334 347 336
f 336 347 348
f 338 349 357
f 338 357 350
f 338 350 351
f 338 351 339
f 340 352 341
f 341 352 353
f 341 353 354
f 341 354 342
f 342 355 343
f 342 354 356
f 342 356 355
f 350 357 358
f 350 358 359
f 350 359 360
f 350 360 351
f 352 361 354
f 352 354 353
f 352 362 363
f 352 363 364
f 352 364 361
f 354 365 366
f 354 366 356
f 354 361 367
f 354 367 365
f 358 368 359
f 359 368 369
f 359 369 370
f 359 370 371
f 359 371 360
f 361 372 373
f 361 373 367
f 361 364 374
f 361 374 383
f 361 383 372
f 362 375 363
f 363 376 377
f 363 377 378
f 363 378 383
f 363 383 374
f 363 374 364
f 363 375 384
f 363 384 376
f 365 367 373
f 369 379 370
f 370 379 380
f 370 380 381
f 370 381 382
f 370 382 371
f 376 385 377
f 376 384 386
f 376 386 387
f 376 387 385
f 380 388 381
f 381 389 382
f 381 388 396
f 381 396 390
f 381 390 391
f 381 391 389
f 384 392 386
f 386 393 394
f 386 394 387
f 386 392 400
f 386 400 395
f 386 395 393
f 389 391 397
f 390 396 404
f 390 404 398
f 390 398 391
f 391 398 399
f 391 399 397
f 393 395 401
f 395 402 403
f 395 403 401
f 395 400 407
f 395 407 402
f 398 404 410
f 398 410 405
f 398 405 406
f 398 406 399
f 402 408 409
f 402 409 403
f 402 407 414
f 402 414 408
f 405 410 417
f 405 417 411
f 405 411 412
f 405 412 413
f 405 413 406
f 408 414 415
f 408 415 409
f 409 415 416
f 411 417 424
f 411 424 418
f 411 418 412
f 412 418 419
f 412 419 413
f 413 419 420
f 414 421 415
f 415 422 416
f 415 421 430
f 415 430 423
f 415 423 431
f 415 431 422
f 418 424 425
f 418 425 419
f 419 426 420
f 419 425 427
f 419 427 436
f 419 436 428
f 419 428 429
f 419 429 426
f 423 430 432
f 423 432 433
f 423 433 434
f 423 434 440
f 423 440 431
f 426 429 435
f 428 436 443
f 428 443 437
f 428 437 429
f 429 437 438
f 429 438 439
f 429 439 435
f 433 441 442
f 433 442 434
f 434 442 449
f 434 449 440
f 437 443 444
f 437 444 438
f 438 444 445
f 438 445 446
f 438 446 447
f 438 447 448
f 438 448 439
f 441 450 442
f 442 450 451
f 442 451 452
f 442 452 453
f 442 453 458
f 442 458 449
f 445 454 446
f 446 454 455
f 446 455 447
f 447 455 456
f 447 456 457
f 447 457 448
f 451 459 452
f 452 459 460
f 452 460 453
f 453 460 466
f 453 466 458
f 454 461 455
f 455 461 462
f 455 462 456
f 456 462 463
f 456 463 464
f 456 464 465
f 456 465 457
f 459 467 468
f 459 468 469
f 459 469 470
f 459 470 460
f 460 470 471
f 460 471 477
f 460 477 466
f 463 472 464
f 464 472 473
f 464 473 474
f 464 474 475
f 464 475 465
f 465 475 476
f 467 478 468
f 468 478 479
f 468 479 480
f 468 480 481
f 468 481 482
f 468 482 470
f 468 470 469
f 470 483 477
f 470 477 471
f 470 482 483
f 473 484 474
f 474 484 485
f 474 485 486
f 474 486 487
f 474 487 475
f 475 487 476
f 476 487 488
f 476 488 489
f 479 490 480
f 480 491 492
f 480 492 481
f 480 490 493
f 480 493 494
f 480 494 491
f 481 492 482
f 485 495 486
f 486 495 496
f 486 496 487
f 487 497 488
f 487 496 497
f 488 498 499
f 488 499 500
f 488 500 501
f 488 501 489
f 488 497 498
f 489 501 502
f 490 503 504
f 490 504 505
f 490 505 493
f 493 505 506
f 493 506 507
f 493 507 508
f 493 508 494
f 499 509 500
f 500 509 510
f 500 510 511
f 500 511 501
f 501 511 512
f 501 512 513
f 501 513 514
f 501 514 502
f 503 515 504
f 504 516 506
f 504 506 505
f 504 515 517
f 504 517 518
f 504 518 519
f 504 519 516
f 506 520 521
f 506 521 507
f 506 516 520
f 507 521 522
f 507 522 508
f 510 523 511
f 511 523 532
f 511 532 524
f 511 524 525
f 511 525 513
f 511 513 512
f 513 525 526
f 513 526 527
f 515 528 517
f 515 529 528
f 517 528 530
f 517 530 540
f 517 540 531
f 517 531 518
f 524 532 533
f 524 533 525
f 525 533 534
f 525 534 526
f 526 534 542
f 526 542 535
f 526 535 527
f 527 535 536
f 528 537 530
f 528 529 538
f 528 538 537
f 529 539 538
f 530 537 541
f 530 541 540
f 535 542 552
f 535 552 543
f 535 543 544
f 535 544 545
f 535 545 546
f 535 546 536
f 537 538 547
f 537 547 541
f 538 548 556
f 538 556 549
f 538 549 547
f 538 539 550
f 538 550 548
f 539 551 550
f 543 552 553
f 543 553 554
f 543 554 544
f 544 554 545
f 545 554 555
f 548 550 557
f 548 557 563
f 548 563 556
f 550 551 558
f 550 558 559
f 550 559 557
f 553 560 554
f 554 561 555
f 554 560 569
f 554 569 562
f 554 562 570
f 554 570 561
f 557 559 568
f 557 568 563
f 558 564 559
f 559 564 565
f 559 565 566
f 559 566 567
f 559 567 578
f 559 578 568
f 562 569 571
f 562 571 572
f 562 572 573
f 562 573 574
f 562 574 570
f 565 575 577
f 565 577 566
f 566 576 567
f 566 577 576
f 567 576 584
f 567 584 578
f 571 579 572
f 572 579 586
f 572 586 580
f 572 580 573
f 573 580 581
f 573 581 574
f 575 582 583
f 575 583 577
f 576 577 585
f 576 585 584
f 577 583 593
f 577 593 585
f 580 586 587
f 580 587 588
f 580 588 589
f 580 589 581
f 582 590 591
f 582 591 583
f 583 591 592
f 583 592 601
f 583 601 593
f 587 594 588
f 588 595 596
f 588 596 597
f 588 597 589
f 588 594 595
f 590 598 591
f 591 598 599
f 591 599 600
f 591 600 592
f 592 600 609
f 592 609 601
f 595 602 596
f 596 602 603
f 596 603 604
f 596 604 605
f 596 605 597
f 598 606 599
f 599 606 607
f 599 607 608
f 599 608 600
f 600 608 609
f 603 610 604
f 604 610 611
f 604 611 612
f 604 612 613
f 604 613 605
f 606 614 607
f 607 614 615
f 607 615 616
f 607 616 617
f 607 617 608
f 611 618 612
f 612 619 620
f 612 620 613
f 612 618 625
f 612 625 619
f 614 621 615
f 615 622 616
f 615 621 623
f 615 623 624
f 615 624 622
f 619 625 631
f 619 631 626
f 619 626 627
f 619 627 620
f 621 628 623
f 623 629 624
f 623 628 630
f 623 630 639
f 623 639 629
f 626 631 632
f 626 632 633
f 626 633 634
f 626 634 627
f 627 634 635
f 627 635 636
f 627 636 637
f 628 638 630
f 630 638 640
f 630 640 647
f 630 647 639
f 632 641 633
f 633 641 634
f 634 641 642
f 634 642 650
f 634 650 643
f 634 643 636
f 634 636 635
f 636 643 644
f 636 644 645
f 636 645 637
f 638 646 640
f 640 646 648
f 640 648 649
f 640 649 655
f 640 655 647
f 643 650 651
f 643 651 644
f 644 651 652
f 644 652 653
f 644 653 654
f 644 654 645
f 648 656 649
f 649 656 657
f 649 657 665
f 649 665 655
f 652 658 653
f 653 658 659
f 653 659 660
f 653 660 661
f 653 661 662
f 653 662 654
f 654 662 663
f 654 663 664
f 656 666 657
f 657 666 667
f 657 667 668
f 657 668 669
f 657 669 665
f 659 670 660
f 660 670 671
f 660 671 661
f 661 671 672
f 661 672 663
f 661 663 662
f 663 672 673
f 663 673 674
f 663 674 675
f 663 675 664
f 667 676 668
f 668 677 669
f 668 676 678
f 668 678 684
f 668 684 677
f 673 679 674
f 674 679 687
f 674 687 680
f 674 680 681
f 674 681 675
f 675 681 682
f 676 683 678
f 678 683 685
f 678 685 686
f 678 686 684
f 680 687 688
f 680 688 681
f 681 688 689
f 681 689 690
f 681 690 682
f 682 690 691
f 682 691 692
f 683 693 685
f 685 694 686
f 685 693 695
f 685 695 696
f 685 696 697
f 685 697 694
f 688 698 689
f 689 698 690
f 690 698 699
f 690 699 708
f 690 708 700
f 690 700 691
f 691 700 701
f 691 701 702
f 691 702 692
f 692 702 703
f 692 703 704
f 695 705 706
f 695 706 696
f 696 706 707
f 696 707 697
f 700 708 709
f 700 709 701
f 701 709 710
f 701 710 702
f 702 710 711
f 702 711 721
f 702 721 712
f 702 712 703
f 703 712 713
f 703 713 714
f 703 714 704
f 704 714 715
f 704 715 716
f 705 717 718
f 705 718 706
f 706 718 719
f 706 719 720
f 706 720 707
f 712 721 722
f 712 722 713
f 713 723 724
f 713 724 714
f 713 722 723
f 714 724 725
f 714 725 726
f 714 726 715
f 715 726 727
f 715 727 728
f 715 728 716
f 716 728 729
f 716 729 730
f 717 731 718
f 718 732 733
f 718 733 734
f 718 734 719
f 718 731 732
f 727 735 729
f 727 729 728
f 729 735 736
f 729 736 737
f 729 737 730
f 730 738 739
f 730 737 738
f 731 740 732
f 732 741 733
f 732 740 742
f 732 742 752
f 732 752 741
f 736 743 737
f 737 743 744
f 737 744 738
f 738 744 745
f 738 745 746
f 738 746 739
f 739 746 747
f 739 747 748
f 740 749 750
f 740 750 751
f 740 751 742
f 742 751 761
f 742 761 753
f 742 753 754
f 742 754 752
f 745 755 746
f 746 755 756
f 746 756 747
f 747 756 764
f 747 764 757
f 747 757 748
f 748 757 758
f 748 758 759
f 749 760 750
f 750 761 751
f 750 760 762
f 750 762 761
f 753 761 772
f 753 772 763
f 753 763 754
f 757 764 765
f 757 765 758
f 758 766 759
f 758 765 767
f 758 767 777
f 758 777 766
f 759 766 768
f 759 768 769
f 760 770 762
f 761 762 771
f 761 771 772
f 762 770 773
f 762 773 774
f 762 774 775
f 762 775 776
f 762 776 771
f 766 777 778
f 766 778 768
f 768 778 786
f 768 786 779
f 768 779 769
f 769 779 780
f 769 780 781
f 773 782 774
f 773 783 782
f 774 782 784
f 774 784 785
f 774 785 775
f 779 786 787
f 779 787 780
f 780 787 788
f 780 788 789
f 780 789 781
f 781 789 790
f 781 790 791
f 782 792 784
f 782 783 795
f 782 795 793
f 782 793 794
f 782 794 802
f 782 802 792
f 788 796 789
f 789 796 797
f 789 797 790
f 790 798 806
f 790 806 799
f 790 799 791
f 790 797 798
f 791 799 800
f 791 800 801
f 793 795 803
f 793 803 804
f 793 804 805
f 793 805 794
f 794 805 812
f 794 812 802
f 799 806 807
f 799 807 800
f 800 808 809
f 800 809 801
f 800 807 808
f 801 809 810
f 801 810 811
f 803 813 804
f 804 814 815
f 804 815 805
f 804 813 816
f 804 816 817
f 804 817 818
f 804 818 824
f 804 824 814
f 805 815 812
f 808 819 809
f 809 819 829
f 809 829 820
f 809 820 821
f 809 821 810
f 810 821 822
f 810 822 811
f 811 822 823
f 816 825 817
f 817 825 826
f 817 826 827
f 817 827 828
f 817 828 818
f 818 828 824
f 820 829 830
f 820 830 821
f 821 830 831
f 821 831 822
f 822 832 833
f 822 833 834
f 822 834 823
f 822 831 832
f 823 835 836
f 823 836 837
f 823 834 835
f 825 838 826
f 826 839 827
f 826 838 840
f 826 840 841
f 826 841 842
f 826 842 839
f 827 839 828
f 833 843 835
f 833 835 834
f 835 843 844
f 835 844 845
f 835 845 836
f 836 845 846
f 836 846 847
f 836 847 837
f 837 847 848
f 837 848 849
f 839 842 850
f 840 851 841
f 841 851 852
f 841 852 842
f 842 852 853
f 842 853 863
f 842 863 850
f 844 854 845
f 845 855 846
f 845 854 855
f 846 855 856
f 846 856 857
f 846 857 847
f 847 857 869
f 847 869 858
f 847 858 848
f 848 858 859
f 848 859 860
f 848 860 849
f 849 860 861
f 849 861 862
f 851 864 852
f 852 864 865
f 852 865 866
f 852 866 867
f 852 867 868
f 852 868 863
f 852 863 853
f 858 869 859
f 859 870 860
f 860 871 880
f 860 880 872
f 860 872 861
f 860 870 871
f 861 872 873
f 861 873 862
f 862 873 874
f 862 874 875
f 865 876 866
f 865 877 876
f 866 876 878
f 866 878 894
f 866 894 879
f 866 879 867
f 872 881 882
f 872 882 873
f 872 880 881
f 873 882 883
f 873 883 884
f 873 884 874
f 874 885 886
f 874 886 887
f 874 887 888
f 874 888 875
f 874 884 885
f 875 888 889
f 876 877 890
f 876 890 891
f 876 891 878
f 878 891 892
f 878 892 893
f 878 893 907
f 878 907 894
f 881 883 882
f 886 895 887
f 887 895 896
f 887 896 897
f 887 897 898
f 887 898 899
f 887 899 888
f 888 899 889
f 889 899 898
f 889 898 900
f 889 900 901
f 890 892 891
f 890 902 903
f 890 903 892
f 892 903 904
f 892 904 905
f 892 905 906
f 892 906 893
f 893 906 907
f 896 908 897
f 897 908 898
f 898 908 909
f 898 909 910
f 898 910 900
f 900 910 911
f 900 911 912
f 900 912 901
f 901 912 913
f 902 914 915
f 902 915 903
f 903 916 917
f 903 917 918
f 903 918 904
f 903 915 916
f 911 919 920
f 911 920 912
f 912 921 922
f 912 922 913
f 912 920 923
f 912 923 921
f 914 924 915
f 915 925 926
f 915 926 916
f 915 924 925
f 916 926 927
f 916 927 928
f 916 928 917
f 919 929 923
f 919 923 920
f 921 923 922
f 922 930 931
f 922 931 932
f 922 923 930
f 923 929 933
f 923 933 934
f 923 934 935
f 923 935 930
f 924 936 937
f 924 937 926
f 924 926 925
f 926 937 938
f 926 938 939
f 926 939 927
f 930 940 941
f 930 941 931
f 930 935 934
f 930 934 940
f 931 942 943
f 931 943 944
f 931 944 932
f 931 941 942
f 932 944 945
f 936 946 937
f 936 947 948
f 936 948 946
f 937 949 938
f 937 946 957
f 937 957 950
f 937 950 951
f 937 951 949
f 938 949 951
f 943 952 944
f 944 952 953
f 944 953 954
f 944 954 955
f 944 955 945
f 946 948 956
f 946 956 957
f 947 958 959
f 947 959 948
f 948 960 956
f 948 959 961
f 948 961 960
f 953 962 954
f 954 962 963
f 954 963 964
f 954 964 955
f 955 964 965
f 958 966 967
f 958 967 959
f 959 968 961
f 959 967 968
f 963 969 964
f 964 969 976
f 964 976 970
f 964 970 965
f 965 970 971
f 966 972 967
f 967 972 973
f 967 973 974
f 967 974 975
f 967 975 968
f 970 976 977
f 970 977 978
f 970 978 979
f 970 979 971
f 972 980 973
f 973 981 974
f 973 980 982
f 973 982 983
f 973 983 984
f 973 984 981
f 977 985 978
f 978 985 984
f 978 984 983
f 978 983 982
f 978 982 979

