# https://github.com/mikedh/trimesh
v 1.07035802 -35.50206110 4.61412280
v 1.45949450 -35.49510925 4.61412280
v 1.07035802 -35.50206110 5.35150583
v 1.07035802 35.50204910 4.61412280
v 2.43028743 -35.43949443 4.61412280
v 1.45949450 -35.49510925 5.35150583
v 1.07035802 35.50204910 5.35150583
v 1.25058915 35.50204910 4.61412280
v 2.63919206 -35.42559072 4.61412280
v 2.43028743 -35.43949443 5.35150583
v 1.49021590 35.49509725 5.35150583
v 1.45949450 35.49509725 4.61412280
v 3.40312899 -35.36302404 4.61412280
v 3.40312899 -35.36302404 5.35150583
v 2.22138281 35.45338613 4.61412280
v 2.46305673 35.43948243 5.35150583
v 4.37392193 -35.25180019 4.61412280
v 4.34934496 -35.25875205 5.35150583
v 2.43028743 35.43948243 4.61412280
v 3.40312899 35.36301784 5.35150583
v 3.40312899 35.36301784 4.61412280
v 4.58487518 -35.22399278 4.61412280
v 5.34676349 -35.11972078 4.61412280
v 5.31399419 -35.12667264 5.35150583
v 4.40669123 35.25178820 5.35150583
v 4.16501730 35.27959561 4.61412280
v 5.48603336 -35.09886522 4.61412280
v 6.00419949 -35.01544299 5.35150583
v 5.36314814 35.11970879 5.35150583
v 5.34676349 35.11970879 4.61412280
v 4.37392193 35.25178820 4.61412280
v 5.99191100 -35.01544299 4.61412280
v 6.37285552 -34.94592446 4.61412280
v 6.47730711 -34.92507470 5.35150583
v 5.99191100 35.01543679 5.35150583
v 5.99191100 35.01543679 4.61412280
v 7.29039799 -34.76518208 4.61412280
v 7.26991681 -34.77213393 5.35150583
v 6.46501898 34.93201455 5.35150583
v 6.50393270 34.92506270 5.35150583
v 6.47730711 34.92506270 4.61412280
v 7.49930334 -34.72347676 4.61412280
v 8.23661395 -34.55663229 5.35150583
v 7.31497496 34.76517588 5.35150583
v 7.11631056 34.79993514 4.61412280
v 8.26323955 -34.54968044 4.61412280
v 9.20331108 -34.31332903 5.35150583
v 8.05228630 34.59833720 4.61412280
v 7.29039799 34.76517588 4.61412280
v 8.29396094 34.54272238 5.35150583
v 9.39583106 -34.25771421 4.61412280
v 9.99592079 -34.09087553 5.35150583
v 8.26323955 34.54967423 4.61412280
v 9.23403248 34.29941333 5.35150583
v 9.02512786 34.35502815 4.61412280
v 9.98363267 -34.09087553 4.61412280
v 10.36457682 -33.97964589 4.61412280
v 10.47107704 -33.94489241 5.35150583
v 9.98363267 34.09086353 5.35150583
v 9.82183336 34.13952650 4.61412280
v 9.23403248 34.29941333 4.61412280
v 11.17766698 -33.72243892 4.61412280
v 11.15923443 -33.72939077 5.35150583
v 10.48746168 33.94488042 5.35150583
v 10.08808498 34.06305612 4.61412280
v 12.14846064 -33.38180392 4.61412280
v 12.11569134 -33.39570763 5.35150583
v 11.17766698 33.72242692 5.35150583
v 11.17766698 33.72242692 4.61412280
v 11.02610862 33.77108989 4.61412280
v 10.46902914 33.94488042 4.61412280
v 12.29797037 -33.32619489 4.61412280
v 12.83866521 -33.12459695 4.61412280
v 12.82023266 -33.13154881 5.35150583
v 12.17098898 33.37484587 5.35150583
v 12.14846064 33.38179772 4.61412280
v 13.32406240 -32.92995087 4.61412280
v 12.83866521 -33.12459695 5.35150583
v 12.83866521 33.12458496 5.35150583
v 12.83866521 33.12458496 4.61412280
v 13.32406240 -32.92995087 5.35150583
v 14.09209586 -32.61017143 4.61412280
v 13.31177355 32.93689072 5.35150583
v 12.94311824 33.08287963 4.61412280
v 14.09209586 -32.61017143 5.35150583
v 14.93181016 -32.23478297 4.61412280
v 14.90313666 -32.24868667 5.35150583
v 13.92620003 32.67968376 4.61412280
v 13.32406240 32.92993887 4.61412280
v 14.09209586 32.61016523 5.35150583
v 15.55033388 -31.94281673 4.61412280
v 15.41720735 -32.00538341 5.35150583
v 14.09209586 32.61016523 4.61412280
v 14.93181016 32.23477676 5.35150583
v 14.74953113 32.31819320 4.61412280
v 16.03572963 -31.69950768 4.61412280
v 16.03572963 -31.69950768 5.35150583
v 15.40491850 32.01232327 5.35150583
v 15.03626320 32.18611379 4.61412280
v 14.93181016 32.23477676 4.61412280
v 16.20981706 -31.60913938 4.61412280
v 16.84677188 -31.27545624 5.35150583
v 15.43359200 31.99841956 5.35150583
v 15.41720735 32.00537141 4.61412280
v 16.84677188 -31.27545624 4.61412280
v 17.33216907 -31.01129742 5.35150583
v 16.03572963 31.69950147 4.61412280
v 16.03572963 31.69950147 5.35150583
v 17.33216907 -31.01129742 4.61412280
v 17.97936340 -30.63590896 5.35150583
v 16.06235522 31.68559777 5.35150583
v 16.84677188 31.27545004 4.61412280
v 17.97936340 -30.63590896 4.61412280
v 18.12273088 -30.55248672 4.61412280
v 18.65932992 -30.23271308 5.35150583
v 16.84677188 31.27545004 5.35150583
v 16.95122492 31.21983522 4.61412280
v 18.64499172 -30.23966493 4.61412280
v 19.13243826 -29.93378920 4.61412280
v 19.13243826 -29.93378920 5.35150583
v 17.31988023 31.01823728 5.35150583
v 17.33216907 31.01128542 4.61412280
v 19.86974887 -29.44717688 4.61412280
v 19.85131488 -29.46108059 5.35150583
v 17.33216907 31.01128542 5.35150583
v 17.97936340 30.63589696 4.61412280
v 20.35514462 -29.12044559 4.61412280
v 20.35514462 -29.12044559 5.35150583
v 17.97936340 30.63589696 5.35150583
v 18.64703962 30.23965293 4.61412280
v 21.50617013 -28.27930037 4.61412280
v 20.88150415 -28.73810527 5.35150583
v 18.64703962 30.23965293 5.35150583
v 19.15701451 29.91987929 5.35150583
v 19.13243826 29.93378300 4.61412280
v 21.50617013 -28.27930037 5.35150583
v 21.88711429 -27.98037649 4.61412280
v 21.99361522 -27.89696005 4.61592739
v 19.86974887 29.44716489 4.61412280
v 19.71204609 29.55144268 4.61412280
v 19.86974887 29.44716489 5.35150583
v 21.99361522 -27.89696005 5.35150583
v 21.99156732 -27.89696005 4.61412280
v 21.99361522 -27.76487484 4.61412280
v 19.97420046 29.37765215 4.61412280
v 20.35514462 29.12043939 5.35150583
v 20.35719252 29.12043939 4.61412280
v 21.99361522 27.88304435 5.35150583
v 21.99361522 27.89694805 4.61412280
v 20.91222555 28.71724351 5.35150583
v 21.50617013 28.27928837 4.61412280
v 21.99361522 27.89694805 5.34941159
v 21.99156732 27.89694805 5.35150583
v 21.50617013 28.27928837 5.35150583
f 1 2 6
f 1 6 3
f 1 3 7
f 1 7 4
f 1 4 8
f 1 8 12
f 1 12 15
f 1 15 19
f 1 19 21
f 1 21 26
f 1 26 31
f 1 31 30
f 1 30 36
f 1 36 41
f 1 41 45
f 1 45 49
f 1 49 48
f 1 48 53
f 1 53 55
f 1 55 61
f 1 61 60
f 1 60 65
f 1 65 71
f 1 71 70
f 1 70 69
f 1 69 76
f 1 76 80
f 1 80 84
f 1 84 89
f 1 89 88
f 1 88 93
f 1 93 95
f 1 95 100
f 1 100 99
f 1 99 104
f 1 104 107
f 1 107 112
f 1 112 117
f 1 117 122
f 1 122 126
f 1 126 130
f 1 130 135
f 1 135 140
f 1 140 139
f 1 139 145
f 1 145 147
f 1 147 151
f 1 151 149
f 1 149 144
f 1 144 143
f 1 143 137
f 1 137 131
f 1 131 127
f 1 127 123
f 1 123 119
f 1 119 118
f 1 118 114
f 1 114 113
f 1 113 109
f 1 109 105
f 1 105 101
f 1 101 96
f 1 96 91
f 1 91 86
f 1 86 82
f 1 82 77
f 1 77 73
f 1 73 72
f 1 72 66
f 1 66 62
f 1 62 57
f 1 57 56
f 1 56 51
f 1 51 46
f 1 46 42
f 1 42 37
f 1 37 33
f 1 33 32
f 1 32 27
f 1 27 23
f 1 23 22
f 1 22 17
f 1 17 13
f 1 13 9
f 1 9 5
f 1 5 2
f 2 5 10
f 2 10 6
f 3 6 10
f 3 10 14
f 3 14 18
f 3 18 24
f 3 24 28
f 3 28 34
f 3 34 38
f 3 38 43
f 3 43 47
f 3 47 52
f 3 52 58
f 3 58 63
f 3 63 67
f 3 67 74
f 3 74 78
f 3 78 81
f 3 81 85
f 3 85 87
f 3 87 92
f 3 92 97
f 3 97 102
f 3 102 106
f 3 106 110
f 3 110 115
f 3 115 120
f 3 120 124
f 3 124 128
f 3 128 132
f 3 132 136
f 3 136 142
f 3 142 148
f 3 148 153
f 3 153 154
f 3 154 150
f 3 150 146
f 3 146 141
f 3 141 134
f 3 134 133
f 3 133 129
f 3 129 125
f 3 125 121
f 3 121 116
f 3 116 111
f 3 111 108
f 3 108 103
f 3 103 98
f 3 98 94
f 3 94 90
f 3 90 83
f 3 83 79
f 3 79 75
f 3 75 68
f 3 68 64
f 3 64 59
f 3 59 54
f 3 54 50
f 3 50 44
f 3 44 40
f 3 40 39
f 3 39 35
f 3 35 29
f 3 29 25
f 3 25 20
f 3 20 16
f 3 16 11
f 3 11 7
f 4 7 8
f 5 9 10
f 7 11 8
f 8 11 12
f 9 13 14
f 9 14 10
f 11 15 12
f 11 16 15
f 13 17 18
f 13 18 14
f 15 16 19
f 16 20 21
f 16 21 19
f 17 22 18
f 18 22 23
f 18 23 24
f 20 25 26
f 20 26 21
f 23 27 24
f 24 27 28
f 25 29 30
f 25 30 31
f 25 31 26
f 27 32 28
f 28 32 33
f 28 33 34
f 29 35 36
f 29 36 30
f 33 37 38
f 33 38 34
f 35 39 36
f 36 39 40
f 36 40 41
f 37 42 38
f 38 42 43
f 40 44 45
f 40 45 41
f 42 46 43
f 43 46 47
f 44 48 49
f 44 49 45
f 44 50 48
f 46 51 47
f 47 51 52
f 48 50 53
f 50 54 55
f 50 55 53
f 51 56 52
f 52 56 57
f 52 57 58
f 54 59 60
f 54 60 61
f 54 61 55
f 57 62 63
f 57 63 58
f 59 64 65
f 59 65 60
f 62 66 67
f 62 67 63
f 64 68 69
f 64 69 70
f 64 70 71
f 64 71 65
f 66 72 67
f 67 72 73
f 67 73 74
f 68 75 69
f 69 75 76
f 73 77 81
f 73 81 78
f 73 78 74
f 75 79 80
f 75 80 76
f 77 82 85
f 77 85 81
f 79 83 80
f 80 83 84
f 82 86 87
f 82 87 85
f 83 88 89
f 83 89 84
f 83 90 88
f 86 91 87
f 87 91 92
f 88 90 93
f 90 94 95
f 90 95 93
f 91 96 97
f 91 97 92
f 94 98 99
f 94 99 100
f 94 100 95
f 96 101 97
f 97 101 102
f 98 103 104
f 98 104 99
f 101 105 102
f 102 105 109
f 102 109 106
f 103 107 104
f 103 108 107
f 106 109 113
f 106 113 110
f 107 108 111
f 107 111 112
f 110 113 114
f 110 114 115
f 111 116 112
f 112 116 117
f 114 118 115
f 115 118 119
f 115 119 120
f 116 121 117
f 117 121 122
f 119 123 124
f 119 124 120
f 121 125 122
f 122 125 129
f 122 129 126
f 123 127 124
f 124 127 128
f 126 129 133
f 126 133 130
f 127 131 132
f 127 132 128
f 130 133 134
f 130 134 135
f 131 136 132
f 131 137 138
f 131 138 142
f 131 142 136
f 134 139 140
f 134 140 135
f 134 141 139
f 137 143 138
f 138 143 144
f 138 144 149
f 138 149 152
f 138 152 148
f 138 148 142
f 139 141 145
f 141 146 147
f 141 147 145
f 146 150 147
f 147 150 151
f 148 152 153
f 149 151 154
f 149 154 152
f 150 154 151
f 152 154 153

