# https://github.com/mikedh/trimesh
v 2.87758413 16.88002826 79.61631598
v 2.42927073 16.95633064 79.61631598
v 2.87758413 9.89549449 79.61631598
v 2.87758413 17.48859345 68.53420519
v 2.42927073 17.08288332 77.29548047
v 1.92519767 17.49231559 70.95324721
v 2.05679190 16.99913667 79.61631598
v 2.32667224 9.34276136 79.61631598
v 2.87758413 0.91591075 76.62869350
v 2.82851491 17.48114918 68.81332497
v 2.87758413 19.43339456 32.34160516
v 2.40027571 17.44764994 70.57591801
v 1.76237731 17.47928666 71.46496730
v 1.45681152 17.08846653 79.23898679
v 1.45681152 17.06799477 79.61631598
v 2.78390646 19.42222814 32.77579182
v 2.42927073 19.52830762 31.62312828
v 2.42927073 19.78513224 26.81088775
v 2.12816498 19.46130914 33.56663170
v 1.99657075 19.44456097 34.17656120
v 1.79806421 19.42780990 34.82267509
v -6.30056263 1.45375533 79.61631598
v -6.93846102 0.91591075 79.61631598
v 2.87758413 0.91591075 26.81088775
v 2.87758413 19.44269845 32.16586232
v 1.45681152 17.40112321 73.40847362
v 1.45681152 18.07482582 60.77569412
v 1.07094965 17.50161949 72.11108119
v 1.08433269 17.09032760 79.61631598
v 2.87758413 19.69952452 27.28642635
v 2.87758413 19.72371841 26.81088775
v 2.37797112 19.79071690 26.81088775
v 1.45681152 19.88004676 26.81088775
v 1.45681152 19.83166041 27.73612143
v -17.10244930 0.91591075 79.61631598
v -19.90830835 0.91591075 26.81088775
v 0.72300580 18.46006275 54.33525146
v 0.65386310 17.48487132 72.75719218
v 0.48435159 17.12382684 79.61631598
v 1.15124500 19.45200525 35.27236728
v 0.81668274 19.43339456 35.92364871
v 0.48435159 19.92843455 26.81088775
v -17.07122390 1.45933853 79.61631598
v -17.10467969 0.91591075 79.58013448
v -19.43323031 0.91591075 35.89780520
v -19.88154226 1.45933853 26.81088775
v 0.48435159 18.07482582 61.74744728
v 0.00704316 17.49417521 72.92776458
v 0.39290431 17.46253849 73.31543176
v -0.48810835 17.12382684 79.61631598
v -0.48810835 19.92657348 26.81088775
v -0.48810835 19.87818569 27.73612143
v -0.16915951 19.44269845 36.07354514
v 0.16763314 19.44269845 36.07354514
v -17.50169421 1.06479554 72.09557277
v -17.02884656 1.83154942 79.61631598
v -17.49054083 1.91715787 70.93774168
v -18.46969192 1.96926708 52.57782705
v -18.59236461 1.45933853 51.05817211
v -17.50392460 0.91591075 72.14726269
v -18.47638308 1.11690475 53.69947736
v -19.45107340 1.15412612 35.28787570
v -19.44438224 1.99346097 34.16622321
v -19.87708149 1.50958739 26.81088775
v -18.85109229 1.45933853 46.19941120
v -0.00856954 17.49417521 72.92776458
v -1.45833789 17.06799477 79.61631598
v -0.39443068 17.46253849 73.31543176
v -0.65538948 17.48487132 72.75719218
v -1.07024564 17.50161949 72.10591075
v -0.53940795 19.92471241 26.81088775
v -0.48810835 19.72371841 30.65137512
v -0.81820911 19.43339456 35.92364871
v -16.95970314 2.43080855 79.61631598
v -17.03330733 2.43080855 78.26723363
v -19.79455721 2.43080855 26.81088775
v -0.48810835 18.17718317 59.80394169
v -2.43079710 16.95633064 79.61631598
v -1.45833789 17.08846653 79.23898679
v -1.92226327 17.49231559 70.94290922
v -1.45833789 17.40112321 73.40847362
v -1.15277137 19.45200525 35.27236728
v -1.45833789 19.83166041 27.73612143
v -1.80182097 19.42780990 34.82267509
v -1.45833789 19.88004676 26.81088775
v -16.79242274 3.40227857 79.61631598
v -19.51575605 4.33652721 26.81088775
v -19.66742375 3.40227857 26.81088775
v -19.78786605 2.48291848 26.81088775
v -2.80327629 16.89305574 79.61631598
v -2.43079710 17.08288332 77.29548047
v -2.82558051 17.48114918 68.79781945
v -2.93933129 17.49789735 68.14653801
v -1.99809712 19.44456097 34.17656120
v -2.12969208 19.46130914 33.56663170
v -2.43079710 19.78513224 26.81088775
v -2.43079710 19.52830762 31.62312828
v -2.78543284 19.42222814 32.77579182
v -2.92371859 19.43897632 32.12968083
v -16.72774009 3.69074208 79.61631598
v -19.28825377 5.31358079 26.81088775
v -16.60729779 4.21555917 79.61631598
v -3.40325703 16.78883733 79.61631598
v -4.34226081 19.51528014 26.81088775
v -3.40325703 19.65299779 26.81088775
v -18.99607029 6.31854969 26.81088775
v -16.61844972 4.25464090 79.23898679
v -16.52923428 4.51518874 79.61631598
v -16.48016434 4.70129418 79.61631598
v -16.50916080 4.81481830 78.53601543
v -3.68651969 16.72556098 79.61631598
v -5.33256383 19.29381584 26.81088775
v -18.98268797 6.35949248 26.81088775
v -16.52700389 4.87809428 77.88473689
v -16.27719775 5.34707967 79.61631598
v -16.39540822 4.97300771 79.61631598
v -4.20843583 16.60645257 79.61631598
v -6.31840644 18.99976839 26.81088775
v -4.87532925 16.52642806 77.85889048
v -4.69466580 16.47804026 79.61631598
v -18.65481542 7.30863039 26.81088775
v -15.92256057 6.31854969 79.61631598
v -7.30870946 18.65361247 26.81088775
v -5.80318073 16.51340057 72.75719218
v -5.34594615 16.27332558 79.61631598
v -18.25111264 8.22985155 26.81088775
v -15.63929863 6.99783405 79.61631598
v -8.22986907 18.24976341 26.81088775
v -6.99645106 15.63870542 79.61631598
v -6.56375181 15.81922766 79.61631598
v -6.31840644 15.91972538 79.61631598
v -6.31840644 15.94205821 79.23898679
v -17.74257736 9.28320788 26.81088775
v -15.49878286 7.29746398 79.61631598
v -15.48093977 7.63059242 77.29548047
v -8.27224713 18.22929310 26.81088775
v -7.56743715 15.45073890 78.26723363
v -7.48268103 15.40979539 79.61631598
v -17.24519546 10.17093052 26.81088775
v -15.55231358 7.78133756 74.90745240
v -15.00363135 8.26148972 79.61631598
v -15.40956597 7.48356943 79.61631598
v -15.24674633 7.79622611 79.61631598
v -9.27816285 17.74169593 26.81088775
v -7.73917833 15.53262594 75.53805787
v -7.79493870 15.24788384 79.61631598
v -16.72774009 11.00282109 26.81088775
v -14.65568677 8.87377633 79.61631598
v -10.17032816 17.24293380 26.81088775
v -8.26332558 15.02641953 79.23898679
v -8.26332558 15.00222564 79.61631598
v -16.41771208 11.46250149 26.81088775
v -14.34566020 9.35951098 79.61631598
v -14.51517100 9.62191952 74.38022388
v -11.00004121 16.72742205 26.81088775
v -8.87445862 14.65793078 79.61631598
v -8.48636709 14.87753547 79.61631598
v -16.39986899 11.48855646 26.81088775
v -14.16053526 9.63308594 79.61631598
v -11.46173692 16.41848751 26.81088775
v -9.36068858 14.34527265 79.61631598
v -16.37533474 11.52391604 26.81088775
v -13.85943024 10.06857245 79.61631598
v -11.48627117 16.40173789 26.81088775
v -9.63279859 14.15916865 79.61631598
v -15.88018323 12.19575686 26.81088775
v -13.63638873 10.36820237 79.61631598
v -11.52195807 16.37568292 26.81088775
v -10.06772895 13.85953800 79.61631598
v -15.09061786 13.15047653 26.81088775
v -13.51148566 10.56919565 79.23898679
v -13.57839869 10.65480409 77.29548047
v -13.49810334 10.55244675 79.61631598
v -12.19554192 15.88064293 26.81088775
v -10.36883469 13.63807369 79.61631598
v -14.16053526 14.16102972 26.81088775
v -13.31297840 10.77577285 79.61631598
v -13.01187338 11.13309519 79.61631598
v -12.75537608 11.43458546 79.61631598
v -12.63047301 11.65791228 78.69108230
v -13.13900683 15.10086084 26.81088775
v -10.61418006 13.54688132 78.26723363
v -10.55395891 13.50035604 79.61631598
v -13.16800185 15.07666839 26.81088775
v -12.10855614 12.10828734 79.61631598
v -11.80745039 12.40791727 79.61631598
v -11.61786612 12.59402271 79.61631598
v -12.59478683 11.62069090 79.61631598
v -12.40966189 11.80679635 79.61631598
v -10.77700042 13.31424915 79.61631598
v -11.43274118 12.75593426 79.61631598
v -11.13163616 13.01461995 79.61631598
f 1 2 7
f 1 7 15
f 1 15 29
f 1 29 39
f 1 39 50
f 1 50 67
f 1 67 78
f 1 78 90
f 1 90 103
f 1 103 111
f 1 111 117
f 1 117 120
f 1 120 125
f 1 125 131
f 1 131 130
f 1 130 129
f 1 129 138
f 1 138 146
f 1 146 151
f 1 151 157
f 1 157 156
f 1 156 161
f 1 161 165
f 1 165 169
f 1 169 175
f 1 175 183
f 1 183 190
f 1 190 192
f 1 192 191
f 1 191 187
f 1 187 186
f 1 186 185
f 1 185 189
f 1 189 188
f 1 188 179
f 1 179 178
f 1 178 177
f 1 177 173
f 1 173 167
f 1 167 163
f 1 163 159
f 1 159 153
f 1 153 148
f 1 148 141
f 1 141 143
f 1 143 142
f 1 142 134
f 1 134 127
f 1 127 122
f 1 122 115
f 1 115 116
f 1 116 109
f 1 109 108
f 1 108 102
f 1 102 100
f 1 100 86
f 1 86 74
f 1 74 56
f 1 56 43
f 1 43 35
f 1 35 23
f 1 23 22
f 1 22 8
f 1 8 3
f 1 3 9
f 1 9 24
f 1 24 31
f 1 31 30
f 1 30 25
f 1 25 11
f 1 11 4
f 1 4 2
f 2 5 6
f 2 6 7
f 2 4 5
f 3 8 9
f 4 10 5
f 4 11 10
f 5 12 6
f 5 10 11
f 5 11 12
f 6 13 14
f 6 14 15
f 6 15 7
f 6 12 11
f 6 11 16
f 6 16 17
f 6 17 18
f 6 18 19
f 6 19 20
f 6 20 21
f 6 21 13
f 8 22 9
f 9 22 23
f 9 23 35
f 9 35 44
f 9 44 60
f 9 60 45
f 9 45 36
f 9 36 24
f 11 25 18
f 11 18 16
f 13 26 14
f 13 21 27
f 13 27 26
f 14 26 28
f 14 28 15
f 15 28 29
f 16 18 17
f 18 30 31
f 18 31 24
f 18 24 36
f 18 36 46
f 18 46 64
f 18 64 76
f 18 76 89
f 18 89 88
f 18 88 87
f 18 87 101
f 18 101 106
f 18 106 113
f 18 113 121
f 18 121 126
f 18 126 133
f 18 133 139
f 18 139 147
f 18 147 152
f 18 152 158
f 18 158 162
f 18 162 166
f 18 166 170
f 18 170 176
f 18 176 184
f 18 184 181
f 18 181 174
f 18 174 168
f 18 168 164
f 18 164 160
f 18 160 155
f 18 155 149
f 18 149 144
f 18 144 136
f 18 136 128
f 18 128 123
f 18 123 118
f 18 118 112
f 18 112 104
f 18 104 105
f 18 105 96
f 18 96 85
f 18 85 71
f 18 71 51
f 18 51 42
f 18 42 33
f 18 33 32
f 18 32 20
f 18 20 19
f 18 25 30
f 20 32 33
f 20 33 34
f 20 34 21
f 21 34 27
f 26 27 28
f 27 34 28
f 28 37 38
f 28 38 39
f 28 39 29
f 28 34 40
f 28 40 41
f 28 41 37
f 33 42 34
f 34 42 40
f 35 43 44
f 36 45 46
f 37 47 38
f 37 41 42
f 37 42 47
f 38 48 49
f 38 49 39
f 38 47 48
f 39 49 48
f 39 48 66
f 39 66 50
f 40 42 41
f 42 51 52
f 42 52 53
f 42 53 54
f 42 54 48
f 42 48 47
f 43 55 44
f 43 56 57
f 43 57 58
f 43 58 59
f 43 59 55
f 44 55 60
f 45 60 55
f 45 55 61
f 45 61 62
f 45 62 46
f 46 63 64
f 46 62 61
f 46 61 65
f 46 65 58
f 46 58 63
f 48 54 53
f 48 53 66
f 50 66 68
f 50 68 69
f 50 69 70
f 50 70 67
f 51 71 52
f 52 72 66
f 52 66 53
f 52 71 73
f 52 73 72
f 55 59 65
f 55 65 61
f 56 74 75
f 56 75 57
f 57 75 58
f 58 76 63
f 58 65 59
f 58 75 76
f 63 76 64
f 66 77 69
f 66 69 68
f 66 72 77
f 67 70 79
f 67 79 80
f 67 80 78
f 69 77 72
f 69 72 73
f 69 73 70
f 70 81 79
f 70 73 82
f 70 82 83
f 70 83 84
f 70 84 81
f 71 85 83
f 71 83 82
f 71 82 73
f 74 86 87
f 74 87 75
f 75 87 88
f 75 88 89
f 75 89 76
f 78 80 91
f 78 91 92
f 78 92 93
f 78 93 90
f 79 81 80
f 80 81 84
f 80 84 94
f 80 94 95
f 80 95 96
f 80 96 97
f 80 97 98
f 80 98 99
f 80 99 91
f 83 85 94
f 83 94 84
f 85 96 94
f 86 100 87
f 87 100 102
f 87 102 101
f 90 93 103
f 91 99 104
f 91 104 92
f 92 104 93
f 93 104 103
f 94 96 95
f 96 105 99
f 96 99 98
f 96 98 97
f 99 105 104
f 101 102 107
f 101 107 108
f 101 108 109
f 101 109 110
f 101 110 106
f 102 108 107
f 103 104 111
f 104 112 111
f 106 110 114
f 106 114 115
f 106 115 113
f 109 116 110
f 110 116 115
f 110 115 114
f 111 112 117
f 112 118 119
f 112 119 120
f 112 120 117
f 113 115 121
f 115 122 121
f 118 123 124
f 118 124 125
f 118 125 119
f 119 125 120
f 121 122 127
f 121 127 126
f 123 128 129
f 123 129 130
f 123 130 131
f 123 131 132
f 123 132 124
f 124 132 131
f 124 131 125
f 126 127 134
f 126 134 135
f 126 135 133
f 128 136 137
f 128 137 138
f 128 138 129
f 133 135 140
f 133 140 141
f 133 141 139
f 134 142 135
f 135 142 143
f 135 143 141
f 135 141 140
f 136 144 137
f 137 145 146
f 137 146 138
f 137 144 145
f 139 141 148
f 139 148 147
f 144 149 150
f 144 150 145
f 145 150 146
f 146 150 151
f 147 148 153
f 147 153 154
f 147 154 152
f 149 155 156
f 149 156 157
f 149 157 150
f 150 157 151
f 152 154 159
f 152 159 158
f 153 159 154
f 155 160 161
f 155 161 156
f 158 159 163
f 158 163 162
f 160 164 161
f 161 164 165
f 162 163 166
f 163 167 166
f 164 168 169
f 164 169 165
f 166 167 171
f 166 171 172
f 166 172 170
f 167 173 171
f 168 174 169
f 169 174 175
f 170 172 171
f 170 171 177
f 170 177 178
f 170 178 179
f 170 179 180
f 170 180 176
f 171 173 177
f 174 181 182
f 174 182 183
f 174 183 175
f 176 180 185
f 176 185 186
f 176 186 187
f 176 187 184
f 179 188 180
f 180 188 189
f 180 189 185
f 181 184 182
f 182 190 183
f 182 184 190
f 184 187 191
f 184 191 192
f 184 192 190

