# https://github.com/mikedh/trimesh
v -35.45134923 2.33004651 17.91125611
v -29.77234301 1.12530707 15.64563859
v -35.45134923 2.33004651 18.01178280
v -35.44520264 2.43162250 17.46503117
v -35.45032383 2.33004651 17.46503117
v -24.99083257 4.92850354 15.64563859
v -24.98468597 4.92850354 16.55760582
v -29.77234301 1.12530707 16.55733933
v -29.77234301 19.37592446 15.64563859
v -35.42778535 2.33004651 18.37699839
v -35.44520264 2.43162250 18.01178280
v -35.41036806 2.85682461 17.46503117
v -24.99083257 25.24843696 15.64563859
v -24.98468597 4.92850354 17.03965888
v -24.98468597 25.25316132 16.55760582
v -29.76619641 1.16074052 17.46503117
v -24.98468597 4.93086572 17.46503117
v -25.00620195 4.92614136 18.01178280
v -25.00620195 4.93559009 18.37699839
v -30.24055609 18.64363221 17.46503117
v -29.93729599 19.13025177 17.46503117
v -29.66067018 19.54600588 15.64563859
v -35.36426279 3.40486306 17.46503117
v -35.31816042 3.82770227 17.46503117
v -35.25771117 4.37574072 17.46503117
v -35.12349696 5.34898129 17.46503117
v -35.01899613 6.00332009 17.46503117
v -34.96981756 6.27733896 17.46503117
v -34.93088429 6.48993965 17.46503117
v -34.77310620 7.29073661 17.46503117
v -34.67782526 7.71593945 17.46503117
v -34.55487885 8.26397718 17.46503117
v -34.30694101 9.23485557 17.46503117
v -34.21473338 9.56556824 17.46503117
v -34.09588856 9.98604527 17.46503117
v -34.01392621 10.26006485 17.46503117
v -33.94937826 10.47030337 17.46503117
v -33.72193101 11.17897380 17.46503117
v -33.57337281 11.60653809 17.46503117
v -33.38281094 12.14985146 17.46503117
v -33.12565322 12.84434880 17.46503117
v -32.93201515 13.32624399 17.46503117
v -32.79062895 13.66168103 17.46503117
v -32.60928407 14.08924605 17.46503117
v -32.23532943 14.92547573 17.46503117
v -32.00788218 15.41209674 17.46503117
v -31.69744719 16.03336355 17.46503117
v -31.27636478 16.84597287 17.46503117
v -31.01203216 17.33023025 17.46503117
v -30.84810747 17.61606002 17.46503117
v -30.63705212 17.97984469 17.46503117
v -30.46390753 18.27039882 17.46503117
v -29.36355378 2.33004651 18.37699839
v -35.42163875 2.43162250 18.37699839
v -35.39192537 2.79776862 18.37699839
v -35.34172431 3.40486306 18.37699839
v -35.36426279 3.40486306 18.01178280
v -25.12402427 25.11851262 15.64563859
v -25.00620195 25.23898823 18.01178280
v -24.98468597 25.25552495 17.03965888
v -24.98468597 25.25316132 17.46503117
v -25.00620195 25.20355406 18.37699839
v -30.24055609 18.64363221 18.01178280
v -29.93729599 19.13025177 18.01178280
v -29.45064022 19.86963201 18.01178280
v -29.72418984 19.45387790 17.46503117
v -29.44961483 19.86963201 16.55760582
v -29.44961483 19.86726838 15.64563859
v -35.25771117 4.37574072 18.01178280
v -35.12349696 5.34898129 18.01178280
v -35.01899613 6.00332009 18.01178280
v -34.93088429 6.48757747 18.01178280
v -34.77310620 7.29073661 18.01178280
v -34.55487885 8.26397718 18.01178280
v -34.30694101 9.23485557 18.01178280
v -34.09588856 9.98604527 18.01178280
v -33.94937826 10.47030337 18.01178280
v -33.72193101 11.17897380 18.01178280
v -33.38281094 12.14985146 18.01178280
v -33.12565322 12.84434880 18.01178280
v -32.93201515 13.32624399 18.01178280
v -32.60928407 14.08924605 18.01178280
v -32.23532943 14.92547573 18.01178280
v -32.00788218 15.41209674 18.01178280
v -31.69642469 16.03336355 18.01178280
v -31.27636478 16.84597287 18.01178280
v -31.01203216 17.33023025 18.01178280
v -30.63705212 17.97984469 18.01178280
v -35.30176564 3.77100919 18.37699839
v -25.36273931 24.87520357 16.55760582
v -25.12402427 25.12087625 17.46503117
v -25.39142729 24.84449376 15.64563859
v -25.12402427 25.12087625 18.01178280
v -25.10762949 25.10434243 18.37699839
v -30.22826289 18.62237113 18.37699839
v -30.03872352 18.92709981 18.37699839
v -29.92295200 19.10899214 18.37699839
v -29.74058463 19.38773537 18.37699839
v -29.12278795 20.35625157 17.46503117
v -29.43629623 19.84837093 18.37699839
v -29.12278795 20.35625157 18.01178280
v -29.12176255 20.35388939 15.64563859
v -35.23414728 4.37574072 18.37699839
v -35.05895190 5.68205615 18.37699839
v -35.01284663 5.97261101 18.37699839
v -34.97493876 6.18521170 18.37699839
v -34.74851691 7.29073661 18.37699839
v -34.53029246 8.26397718 18.37699839
v -34.43808192 8.63012403 18.37699839
v -34.28337713 9.23485557 18.37699839
v -34.21678128 9.48052753 18.37699839
v -34.08461786 9.94825036 18.37699839
v -33.99343273 10.25061613 18.37699839
v -33.93708506 10.43486992 18.37699839
v -33.69631923 11.17897380 18.37699839
v -33.56927701 11.54511992 18.37699839
v -33.35822166 12.14985146 18.37699839
v -33.27420852 12.38135105 18.37699839
v -33.11438253 12.81127680 18.37699839
v -32.91971906 13.29553563 18.37699839
v -32.78550485 13.61443595 18.37699839
v -32.58469769 14.08924605 18.37699839
v -32.45663007 14.37743800 18.37699839
v -32.22303623 14.89712955 18.37699839
v -32.08165003 15.20185678 18.37699839
v -31.99456359 15.38374911 18.37699839
v -31.67081001 16.03336355 18.37699839
v -31.52635051 16.31446896 18.37699839
v -31.26304329 16.82234960 18.37699839
v -30.99871357 17.30896916 18.37699839
v -30.84503417 17.57590293 18.37699839
v -30.61144033 17.97984469 18.37699839
v -25.59735855 24.63189451 15.64563859
v -25.59633315 24.63425814 17.46503117
v -25.59633315 24.63425814 18.01178280
v -25.58096666 24.61772142 18.37699839
v -28.73244141 20.89484058 17.46503117
v -28.90148730 20.65861806 15.64563859
v -29.10844396 20.33499194 18.37699839
v -28.70375343 20.89484058 18.37699839
v -28.73244141 20.89484058 18.01178280
v -25.80841391 24.40984364 15.64563859
v -25.87091106 24.34842692 17.46503117
v -26.08401432 24.12401387 18.01178280
v -25.88525216 24.29881965 18.37699839
v -28.53573005 21.16177290 17.46503117
v -28.47733159 21.23736416 15.64563859
v -28.73141601 20.89247839 15.64563859
v -28.26934953 21.48539902 18.37699839
v -28.28266812 21.50429648 18.01178280
v -26.08401432 24.12401387 17.46503117
v -26.08298892 24.11928950 15.64563859
v -26.52353942 23.63739431 18.01178280
v -26.50817293 23.61849685 18.37699839
v -26.23257252 23.92322408 18.37699839
v -26.06762243 24.10511641 18.37699839
v -28.28266812 21.50429648 17.46503117
v -28.28164272 21.50429648 16.55760582
v -28.28164272 21.50193574 15.64563859
v -28.03165699 21.79012770 18.37699839
v -27.90358938 21.99091748 18.01178280
v -28.06956487 21.77831534 17.46503117
v -26.52251402 23.63503068 15.64563859
v -26.52353942 23.63739431 17.46503117
v -27.00916979 23.08226858 18.01178280
v -26.99380040 23.06573331 18.37699839
v -28.11669263 21.71453499 15.64563859
v -27.88822289 21.97202003 18.37699839
v -27.90358938 21.99091748 17.46503117
v -27.70687801 22.20115600 18.37699839
v -27.41795901 22.59801121 18.01178280
v -26.73356938 23.39408380 15.64563859
v -26.76430526 23.36101181 16.55760582
v -27.00916979 23.08226858 17.46503117
v -27.40259252 22.58147449 18.37699839
v -27.90256398 21.98855386 15.64563859
v -27.00814439 23.08226858 16.55760582
v -27.23969033 22.80588754 15.64563859
v -27.41693651 22.59564902 16.55760582
v -27.62798897 22.33107889 15.64563859
v -27.00814439 23.07990640 15.64563859
v -27.41591111 22.59328684 15.64563859
f 1 2 8
f 1 8 3
f 1 3 11
f 1 11 4
f 1 4 5
f 1 5 2
f 2 6 7
f 2 7 14
f 2 14 8
f 2 5 9
f 2 9 22
f 2 22 68
f 2 68 102
f 2 102 138
f 2 138 148
f 2 148 147
f 2 147 159
f 2 159 167
f 2 167 176
f 2 176 180
f 2 180 182
f 2 182 178
f 2 178 181
f 2 181 172
f 2 172 163
f 2 163 152
f 2 152 142
f 2 142 133
f 2 133 92
f 2 92 58
f 2 58 13
f 2 13 6
f 3 8 10
f 3 10 54
f 3 54 11
f 4 11 12
f 4 12 9
f 4 9 5
f 6 13 15
f 6 15 7
f 7 15 60
f 7 60 61
f 7 61 17
f 7 17 14
f 8 16 10
f 8 14 17
f 8 17 18
f 8 18 19
f 8 19 16
f 9 20 21
f 9 21 22
f 9 12 23
f 9 23 24
f 9 24 25
f 9 25 26
f 9 26 27
f 9 27 28
f 9 28 29
f 9 29 30
f 9 30 31
f 9 31 32
f 9 32 33
f 9 33 34
f 9 34 35
f 9 35 36
f 9 36 37
f 9 37 38
f 9 38 39
f 9 39 40
f 9 40 41
f 9 41 42
f 9 42 43
f 9 43 44
f 9 44 45
f 9 45 46
f 9 46 47
f 9 47 48
f 9 48 49
f 9 49 50
f 9 50 51
f 9 51 52
f 9 52 20
f 10 16 53
f 10 53 19
f 10 19 62
f 10 62 94
f 10 94 136
f 10 136 145
f 10 145 156
f 10 156 155
f 10 155 154
f 10 154 166
f 10 166 175
f 10 175 170
f 10 170 168
f 10 168 160
f 10 160 149
f 10 149 140
f 10 140 139
f 10 139 100
f 10 100 98
f 10 98 97
f 10 97 96
f 10 96 95
f 10 95 132
f 10 132 131
f 10 131 130
f 10 130 129
f 10 129 128
f 10 128 127
f 10 127 126
f 10 126 125
f 10 125 124
f 10 124 123
f 10 123 122
f 10 122 121
f 10 121 120
f 10 120 119
f 10 119 118
f 10 118 117
f 10 117 116
f 10 116 115
f 10 115 114
f 10 114 113
f 10 113 112
f 10 112 111
f 10 111 110
f 10 110 109
f 10 109 108
f 10 108 107
f 10 107 106
f 10 106 105
f 10 105 104
f 10 104 103
f 10 103 89
f 10 89 56
f 10 56 55
f 10 55 54
f 11 54 55
f 11 55 56
f 11 56 57
f 11 57 12
f 12 57 23
f 13 58 59
f 13 59 60
f 13 60 15
f 16 19 53
f 17 19 18
f 17 61 62
f 17 62 19
f 20 63 64
f 20 64 21
f 20 52 63
f 21 64 65
f 21 65 66
f 21 66 67
f 21 67 68
f 21 68 22
f 23 57 24
f 24 57 69
f 24 69 25
f 25 69 70
f 25 70 26
f 26 70 71
f 26 71 27
f 27 71 28
f 28 71 72
f 28 72 29
f 29 72 73
f 29 73 30
f 30 73 31
f 31 73 74
f 31 74 32
f 32 74 75
f 32 75 33
f 33 75 34
f 34 75 76
f 34 76 35
f 35 76 36
f 36 76 77
f 36 77 37
f 37 77 78
f 37 78 38
f 38 78 39
f 39 78 79
f 39 79 40
f 40 79 80
f 40 80 41
f 41 80 81
f 41 81 42
f 42 81 43
f 43 81 82
f 43 82 44
f 44 82 83
f 44 83 45
f 45 83 84
f 45 84 46
f 46 84 47
f 47 84 85
f 47 85 86
f 47 86 48
f 48 86 87
f 48 87 49
f 49 87 50
f 50 87 88
f 50 88 51
f 51 88 52
f 52 88 63
f 56 89 57
f 57 89 69
f 58 90 91
f 58 91 59
f 58 92 90
f 59 93 94
f 59 94 62
f 59 62 61
f 59 61 60
f 59 91 93
f 63 88 95
f 63 95 96
f 63 96 64
f 64 96 97
f 64 97 98
f 64 98 65
f 65 99 67
f 65 67 66
f 65 98 100
f 65 100 139
f 65 139 101
f 65 101 99
f 67 99 102
f 67 102 68
f 69 89 103
f 69 103 104
f 69 104 70
f 70 104 105
f 70 105 71
f 71 105 106
f 71 106 72
f 72 106 73
f 73 106 107
f 73 107 108
f 73 108 74
f 74 108 109
f 74 109 75
f 75 109 110
f 75 110 111
f 75 111 76
f 76 111 112
f 76 112 113
f 76 113 77
f 77 113 114
f 77 114 78
f 78 115 116
f 78 116 117
f 78 117 79
f 78 114 115
f 79 117 118
f 79 118 80
f 80 118 119
f 80 119 81
f 81 119 120
f 81 120 121
f 81 121 122
f 81 122 82
f 82 122 123
f 82 123 83
f 83 123 124
f 83 124 125
f 83 125 84
f 84 125 126
f 84 126 127
f 84 127 85
f 85 127 128
f 85 128 86
f 86 128 129
f 86 129 130
f 86 130 87
f 87 130 131
f 87 131 88
f 88 131 132
f 88 132 95
f 90 93 91
f 90 92 133
f 90 133 134
f 90 134 135
f 90 135 93
f 93 135 136
f 93 136 94
f 99 101 141
f 99 141 137
f 99 137 138
f 99 138 102
f 101 140 141
f 101 139 140
f 133 142 143
f 133 143 134
f 134 143 135
f 135 143 144
f 135 144 136
f 136 144 145
f 137 141 146
f 137 146 147
f 137 147 148
f 137 148 138
f 140 149 141
f 141 149 150
f 141 150 146
f 142 151 143
f 142 152 151
f 143 151 144
f 144 151 164
f 144 164 153
f 144 153 154
f 144 154 155
f 144 155 156
f 144 156 145
f 146 150 157
f 146 157 158
f 146 158 147
f 147 158 159
f 149 160 161
f 149 161 150
f 150 161 162
f 150 162 157
f 151 152 163
f 151 163 164
f 153 164 174
f 153 174 165
f 153 165 166
f 153 166 154
f 157 162 158
f 158 162 167
f 158 167 159
f 160 168 161
f 161 169 162
f 161 168 170
f 161 170 171
f 161 171 169
f 162 169 167
f 163 172 173
f 163 173 164
f 164 173 174
f 165 174 171
f 165 171 175
f 165 175 166
f 167 169 176
f 169 171 176
f 170 175 171
f 171 174 177
f 171 177 178
f 171 178 179
f 171 179 180
f 171 180 176
f 172 181 177
f 172 177 173
f 173 177 174
f 177 181 178
f 178 182 179
f 179 182 180

