# https://github.com/mikedh/trimesh
v 24.99356565 -25.25082996 13.00402142
v 24.99356565 -25.24848661 12.18473397
v 25.12188237 -25.12431783 12.18473397
v 25.12373620 -25.12197737 13.00402142
v 24.99356565 -4.92487451 13.00402142
v 24.99356565 -4.92487451 12.18473397
v 25.59715738 -24.63702191 12.18473397
v 25.52442941 -24.71199185 13.00402142
v 29.72547462 -1.33573645 13.00402142
v 29.72547462 -1.31933732 12.18473397
v 25.67127571 -24.55970862 13.00402142
v 25.59715738 -24.63702191 13.00402142
v 26.08077171 -24.12629535 12.18473397
v 26.08262264 -24.12629535 13.00402142
v 29.72547462 -19.45010838 13.00402142
v 29.72547462 -19.45010838 12.18473397
v 26.52223174 -23.63899654 12.18473397
v 26.52223174 -23.63899654 13.00402142
v 29.44846356 -19.86946442 13.00402142
v 29.44846356 -19.86946442 12.18473397
v 27.00630663 -23.08610120 12.18473397
v 26.59634718 -23.55465753 13.00402142
v 29.12049542 -20.35676323 13.00402142
v 29.11910505 -20.35910659 12.18473397
v 27.00816046 -23.08375785 13.00402142
v 27.41580552 -22.59880239 12.18473397
v 27.35373127 -22.67377233 13.00402142
v 28.78928598 -20.81360424 13.00402142
v 28.72767519 -20.89794470 12.18473397
v 27.90358807 -21.98968104 12.18473397
v 27.41580552 -22.59880239 13.00402142
v 28.72952901 -20.89560279 13.00402142
v 28.28112002 -21.50706894 12.18473397
v 27.90127079 -21.99202440 13.00402142
v 28.34921632 -21.41335651 13.00402142
v 28.28112002 -21.50472559 13.00402142
v 28.22321688 -21.57969408 13.00402142
f 1 2 3
f 1 3 4
f 1 4 8
f 1 8 12
f 1 12 11
f 1 11 14
f 1 14 18
f 1 18 22
f 1 22 25
f 1 25 27
f 1 27 31
f 1 31 34
f 1 34 37
f 1 37 36
f 1 36 35
f 1 35 32
f 1 32 28
f 1 28 23
f 1 23 19
f 1 19 15
f 1 15 9
f 1 9 5
f 1 5 6
f 1 6 2
f 2 6 10
f 2 10 16
f 2 16 20
f 2 20 24
f 2 24 29
f 2 29 33
f 2 33 30
f 2 30 26
f 2 26 21
f 2 21 17
f 2 17 13
f 2 13 7
f 2 7 3
f 3 7 8
f 3 8 4
f 5 9 10
f 5 10 6
f 7 11 12
f 7 12 8
f 7 13 14
f 7 14 11
f 9 15 16
f 9 16 10
f 13 17 14
f 14 17 18
f 15 19 20
f 15 20 16
f 17 21 22
f 17 22 18
f 19 23 24
f 19 24 20
f 21 25 22
f 21 26 27
f 21 27 25
f 23 28 24
f 24 28 29
f 26 30 31
f 26 31 27
f 28 32 29
f 29 32 33
f 30 34 31
f 30 33 34
f 32 35 33
f 33 35 36
f 33 36 37
f 33 37 34

