# https://github.com/mikedh/trimesh
v -2.61596567 -35.42392517 6.37172210
v -2.42946575 -35.44155971 6.37172210
v -2.61596567 -35.42392517 7.38878396
v -2.61596567 24.53201956 6.37172210
v -2.36122788 -35.44743981 7.38878396
v -2.42946575 -35.44155971 7.38878396
v -1.45746013 -35.49446620 6.37172210
v -1.38947879 -35.50034631 7.38878396
v -2.61596567 24.53201956 7.38878396
v 0.00478110 22.29226872 6.37172210
v -0.48622410 -35.52386095 6.37172210
v -0.48622410 -35.52386095 7.38878396
v 0.00478110 22.29226872 7.38878396
v 0.00478110 -35.52386095 6.37172210
v 0.00478110 -35.52386095 7.38878396
f 1 2 6
f 1 6 3
f 1 3 9
f 1 9 4
f 1 4 10
f 1 10 14
f 1 14 11
f 1 11 7
f 1 7 2
f 2 5 6
f 2 7 8
f 2 8 5
f 3 6 5
f 3 5 8
f 3 8 12
f 3 12 15
f 3 15 13
f 3 13 9
f 4 9 13
f 4 13 10
f 7 11 8
f 8 11 12
f 10 13 15
f 10 15 14
f 11 14 15
f 11 15 12

