# https://github.com/mikedh/trimesh
v 21.61396585 0.01795295 -0.29401564
v 21.93065316 0.01795295 -0.20140537
v 21.61396585 0.01795295 0.44730098
v 21.61396585 1.46023358 -0.42077688
v 21.86867015 2.43094686 -0.50165590
v 25.25283500 4.37513026 -0.50342282
v 25.25283500 3.90632048 -0.45958560
v 25.25283500 3.40441771 -0.39387900
v 22.11874133 0.01795295 0.18428342
v 25.25283500 3.09003899 -0.26506696
v 25.25283500 2.78393298 -0.12657447
v 22.24698419 0.01795295 0.44730098
v 21.61396585 28.18793233 0.44730098
v 21.61396585 2.43094686 -0.50211935
v 22.84081580 3.40441771 -0.50342282
v 25.25283500 22.37192826 -0.50342282
v 25.25283500 2.71223259 0.15878171
v 25.25283500 2.70395988 0.19237943
v 25.25283500 2.65707905 0.44730098
v 21.92637777 27.94249717 0.44730098
v 21.61396585 28.14932348 0.11512987
v 21.61396585 3.40441771 -0.50342282
v 21.86867015 25.75563545 -0.50342282
v 24.78439599 23.81145132 -0.49570047
v 25.25283500 23.34264154 -0.49179006
v 25.25283500 24.96141523 0.44730098
v 22.58753808 27.40474529 0.44730098
v 21.61396585 28.01143927 -0.10805357
v 22.51593544 27.34683056 -0.09921314
v 21.61396585 26.00934332 -0.50342282
v 23.81224889 24.78216460 -0.49570047
v 24.82179985 24.82077056 -0.27716898
v 25.25283500 24.38229692 -0.27428396
v 25.25283500 24.90626097 0.28219448
v 25.05762118 25.15996884 0.44730098
v 23.01821695 27.04348356 0.44730098
v 21.61396585 27.85424919 -0.18949453
v 21.82093554 27.68051370 -0.19852035
v 23.62629841 26.50848925 0.44730098
v 23.53367801 26.42575640 -0.12611101
v 22.84010324 26.74013657 -0.24831300
v 21.61396585 26.72634873 -0.47699420
v 22.84081580 25.75563545 -0.48769426
v 25.25283500 24.62773209 -0.18614026
v 23.83967829 25.78872627 -0.27083700
v 24.52292232 25.48537927 -0.13672417
v 25.25283500 24.86489455 0.21238918
v 24.62337949 25.58189996 0.44730098
v 21.61396585 27.68602884 -0.24933840
v 24.05947126 26.11689427 0.44730098
v 21.86867015 26.72634873 -0.46759182
v 21.61396585 26.98281416 -0.45651520
f 1 2 9
f 1 9 12
f 1 12 3
f 1 3 13
f 1 13 21
f 1 21 28
f 1 28 37
f 1 37 49
f 1 49 52
f 1 52 42
f 1 42 30
f 1 30 22
f 1 22 14
f 1 14 4
f 1 4 5
f 1 5 6
f 1 6 7
f 1 7 8
f 1 8 2
f 2 8 10
f 2 10 11
f 2 11 9
f 3 12 19
f 3 19 26
f 3 26 35
f 3 35 48
f 3 48 50
f 3 50 39
f 3 39 36
f 3 36 27
f 3 27 20
f 3 20 13
f 4 14 5
f 5 14 6
f 6 14 15
f 6 15 22
f 6 22 30
f 6 30 23
f 6 23 16
f 6 16 25
f 6 25 33
f 6 33 44
f 6 44 47
f 6 47 34
f 6 34 26
f 6 26 19
f 6 19 18
f 6 18 17
f 6 17 11
f 6 11 10
f 6 10 8
f 6 8 7
f 9 11 12
f 11 17 12
f 12 17 18
f 12 18 19
f 13 20 21
f 14 22 15
f 16 23 24
f 16 24 25
f 20 27 21
f 21 27 29
f 21 29 28
f 23 30 31
f 23 31 24
f 24 31 32
f 24 32 25
f 25 32 33
f 26 34 35
f 27 36 29
f 28 29 38
f 28 38 37
f 29 36 39
f 29 39 40
f 29 40 41
f 29 41 38
f 30 42 43
f 30 43 31
f 31 43 32
f 32 44 33
f 32 43 45
f 32 45 46
f 32 46 44
f 34 47 46
f 34 46 35
f 35 46 48
f 37 38 49
f 38 41 49
f 39 50 40
f 40 50 46
f 40 46 45
f 40 45 41
f 41 45 51
f 41 51 52
f 41 52 49
f 42 51 43
f 42 52 51
f 43 51 45
f 44 46 47
f 46 50 48

