# https://github.com/mikedh/trimesh
v 24.98794913 4.59604856 11.32157165
v 25.04363927 2.94236426 10.07980273
v 24.98794913 4.92480747 12.18011679
v 24.98794913 25.25103232 11.32157165
v 27.92514171 0.00577707 10.07980273
v 27.93442243 0.00577707 10.11091517
v 25.04363927 25.19170694 10.07980273
v 24.98794913 5.22637668 12.18464997
v 29.89908266 0.00083402 12.18011679
v 24.98794913 25.25350312 11.91083097
v 25.04570165 25.19665145 10.07980273
v 25.04363927 25.19665145 10.08041971
v 35.52388761 0.00577707 10.07980273
v 29.62371977 0.00083402 11.32157165
v 29.74335247 0.00083402 11.69511208
v 29.89908266 0.48779320 12.18464997
v 24.98794913 25.10272033 12.18464997
v 32.72901684 0.00083402 12.18464997
v 24.98794913 25.25103232 12.18011679
v 25.12408379 25.12002175 12.18464997
v 25.04363927 25.19912225 11.32157165
v 25.12408379 25.12002175 11.32157165
v 25.12305260 25.12002175 10.07980273
v 35.52388761 0.00577707 11.32157165
v 35.52285642 0.00083402 11.32157165
v 35.52388761 0.48779320 10.07980273
v 35.52285642 0.00083402 12.18011679
v 35.52285642 0.48284942 12.18464997
v 25.59952101 24.63306474 12.18464997
v 25.59745862 24.63553554 12.18011679
v 25.54279678 24.69238722 11.32157165
v 25.59745862 24.63306474 10.07980273
v 35.52388761 0.48779320 11.32157165
v 35.51976284 0.64599275 10.07980273
v 35.52285642 0.48779320 12.18011679
v 35.49604254 1.45429554 12.18464997
v 26.08320775 24.12385600 12.18464997
v 25.65417995 24.57621017 11.32157165
v 25.59745862 24.63553554 11.32157165
v 26.08320775 24.12385600 10.07980273
v 35.49604254 1.45923932 10.07980273
v 35.49604254 1.45923932 11.32157165
v 35.44963313 2.31697993 11.32157165
v 35.44344598 2.43068617 11.32157165
v 35.44241190 2.43068617 12.18011679
v 35.44241190 2.42574239 12.18464997
v 26.52255037 23.63689754 12.18011679
v 26.47201329 23.69375066 11.32157165
v 26.52461275 23.63442529 12.18464997
v 26.52255037 23.63689754 10.07980273
v 35.48779011 1.61743960 10.07980273
v 35.44344598 2.43068617 10.07980273
v 35.37331627 3.29089830 11.32157165
v 35.36403265 3.40213301 12.18011679
v 35.36403265 3.39966076 12.18464997
v 27.00933069 23.08319839 12.18464997
v 26.57927169 23.57262911 11.32157165
v 27.00933069 23.08319839 11.32157165
v 27.00829950 23.08319839 10.07980273
v 35.36403265 3.40213301 10.07980273
v 35.25677715 4.37605139 11.32157165
v 35.25677715 4.37110760 12.18464997
v 27.41979415 22.59376623 12.18464997
v 27.41773177 22.59623848 11.32157165
v 27.07533563 23.00409789 10.07980273
v 35.25677715 4.37605139 10.07980273
v 35.12373607 5.34255445 12.18464997
v 27.90348379 21.99310153 11.32157165
v 27.90348379 21.99310153 12.18464997
v 27.82510455 22.08950345 10.07980273
v 27.41670057 22.59623848 10.07980273
v 35.12270487 5.34996976 10.07980273
v 35.12270487 5.34996976 11.32157165
v 35.10723410 5.45626069 10.07980273
v 35.03194844 5.92838853 11.32157165
v 35.01957414 6.00254525 12.18011679
v 35.01957414 6.00007300 12.18464997
v 28.28507099 21.50367081 12.18464997
v 28.28300861 21.50614161 11.32157165
v 27.96432988 21.91400103 10.07980273
v 35.01957414 6.00501678 10.07980273
v 35.01957414 6.00501678 11.32157165
v 35.00925933 6.06186990 11.32157165
v 34.93088008 6.48950444 12.18464997
v 28.73369433 20.89311709 12.18464997
v 28.73163195 20.89558935 10.07980273
v 28.28300861 21.50367081 10.07980273
v 34.94531966 6.41287619 10.07980273
v 34.93088008 6.49197597 11.32157165
v 34.77205631 7.29286345 11.32157165
v 34.77205631 7.29039192 12.18011679
v 34.77205631 7.28791967 12.18464997
v 29.12249987 20.35424857 12.18464997
v 28.77701017 20.83379172 11.32157165
v 29.12249987 20.35424857 11.20825355
v 29.12146868 20.35424857 10.07980273
v 34.93088008 6.49197597 10.07980273
v 34.77205631 7.29286345 11.20825355
v 34.57816914 8.15060405 11.32157165
v 34.55341765 8.25936651 12.18464997
v 29.44942813 19.87223316 12.18464997
v 29.45045932 19.86976091 10.07980273
v 34.77102512 7.29286345 10.07980273
v 34.55238645 8.26431029 10.07980273
v 34.55238645 8.26431029 11.32157165
v 34.30693391 9.23575641 11.32157165
v 34.30693391 9.23328488 12.18464997
v 29.93621135 19.13314259 12.18464997
v 29.93621135 19.13314259 11.32157165
v 29.93621135 19.13067033 10.07980273
v 34.30693391 9.23575641 10.07980273
v 34.12026508 9.90069100 11.32157165
v 34.09551358 9.98720680 12.18464997
v 30.24250999 18.64865493 12.18464997
v 30.24354118 18.64618267 10.07980273
v 34.09654478 9.98473455 10.07980273
v 34.09654478 9.98473455 11.32157165
v 34.08004281 10.04158767 11.32157165
v 33.94906701 10.47169374 12.18464997
v 30.63956796 17.97877729 11.32157165
v 30.64059915 17.97630503 12.18464997
v 30.63956796 17.97877729 12.18011679
v 30.57562539 18.08506822 10.07980273
v 33.97381850 10.39506622 10.07980273
v 33.95009820 10.47169374 11.20825355
v 33.91400071 10.58787223 10.07980273
v 33.72217591 11.17617785 12.18464997
v 30.68288379 17.90462129 11.32157165
v 30.63956796 17.97630503 10.07980273
v 31.01290563 17.33361783 12.18464997
v 33.95009820 10.47169374 10.23659598
v 33.72114472 11.17865010 10.07980273
v 33.74795860 11.09707807 11.32157165
v 33.66751697 11.33685037 10.07980273
v 33.38493574 12.14762469 12.18464997
v 31.01290563 17.33361783 10.07980273
v 31.27898490 16.84171486 12.18464997
v 31.27795370 16.84665792 11.32157165
v 31.05622146 17.25451733 10.07980273
v 33.38287336 12.15256847 10.07980273
v 33.42309562 12.03886223 11.32157165
v 33.12607481 12.83975043 10.07980273
v 33.12710600 12.83727818 12.18464997
v 31.69976317 16.03341134 12.18464997
v 31.69873198 16.03588360 12.18011679
v 31.27795370 16.84665792 10.07980273
v 32.93218764 13.32423664 10.07980273
v 33.10441689 12.89660356 11.32157165
v 32.93218764 13.32423664 12.18464997
v 32.00812708 15.41297152 12.18464997
v 31.73482658 15.96419986 11.32157165
v 31.69873198 16.03588360 11.32157165
v 31.69976317 16.03341134 10.07980273
v 32.61041533 14.09051766 10.07980273
v 32.61041533 14.09051766 11.32157165
v 32.61144653 14.08804685 12.18464997
v 32.23501528 14.93095611 12.18464997
v 32.00812708 15.41297152 10.07980273
v 31.95862410 15.51431794 10.07980273
v 32.54956924 14.22647128 10.07980273
v 32.28039350 14.82960823 11.32157165
v 32.23604647 14.92848386 11.32157165
v 32.23604647 14.92601160 10.07980273
f 1 2 3
f 1 3 8
f 1 8 17
f 1 17 19
f 1 19 10
f 1 10 4
f 1 4 7
f 1 7 2
f 2 5 6
f 2 6 3
f 2 7 11
f 2 11 23
f 2 23 32
f 2 32 40
f 2 40 50
f 2 50 59
f 2 59 65
f 2 65 71
f 2 71 70
f 2 70 80
f 2 80 87
f 2 87 86
f 2 86 96
f 2 96 102
f 2 102 110
f 2 110 115
f 2 115 123
f 2 123 129
f 2 129 136
f 2 136 139
f 2 139 146
f 2 146 153
f 2 153 159
f 2 159 158
f 2 158 163
f 2 163 160
f 2 160 154
f 2 154 147
f 2 147 142
f 2 142 140
f 2 140 134
f 2 134 132
f 2 132 126
f 2 126 124
f 2 124 116
f 2 116 111
f 2 111 104
f 2 104 103
f 2 103 97
f 2 97 88
f 2 88 81
f 2 81 74
f 2 74 72
f 2 72 66
f 2 66 60
f 2 60 52
f 2 52 51
f 2 51 41
f 2 41 34
f 2 34 26
f 2 26 13
f 2 13 5
f 3 6 9
f 3 9 8
f 4 10 11
f 4 11 12
f 4 12 7
f 5 13 25
f 5 25 14
f 5 14 6
f 6 14 15
f 6 15 9
f 7 12 11
f 8 9 16
f 8 16 18
f 8 18 28
f 8 28 36
f 8 36 46
f 8 46 55
f 8 55 62
f 8 62 67
f 8 67 77
f 8 77 84
f 8 84 92
f 8 92 100
f 8 100 107
f 8 107 113
f 8 113 119
f 8 119 127
f 8 127 135
f 8 135 143
f 8 143 149
f 8 149 156
f 8 156 157
f 8 157 150
f 8 150 144
f 8 144 137
f 8 137 130
f 8 130 121
f 8 121 114
f 8 114 108
f 8 108 101
f 8 101 93
f 8 93 85
f 8 85 78
f 8 78 69
f 8 69 63
f 8 63 56
f 8 56 49
f 8 49 37
f 8 37 29
f 8 29 20
f 8 20 17
f 9 15 14
f 9 14 25
f 9 25 27
f 9 27 18
f 9 18 16
f 10 19 20
f 10 20 21
f 10 21 11
f 11 21 22
f 11 22 23
f 13 24 27
f 13 27 25
f 13 26 33
f 13 33 24
f 17 20 19
f 18 27 28
f 20 29 30
f 20 30 31
f 20 31 22
f 20 22 21
f 22 31 23
f 23 31 32
f 24 28 27
f 24 33 28
f 26 34 33
f 28 33 35
f 28 35 36
f 29 37 30
f 30 37 38
f 30 38 39
f 30 39 31
f 31 39 32
f 32 38 40
f 32 39 38
f 33 34 36
f 33 36 35
f 34 41 42
f 34 42 36
f 36 42 43
f 36 43 44
f 36 44 45
f 36 45 46
f 37 47 48
f 37 48 40
f 37 40 38
f 37 49 47
f 40 48 50
f 41 51 42
f 42 51 43
f 43 51 44
f 44 51 52
f 44 52 53
f 44 53 54
f 44 54 45
f 45 54 55
f 45 55 46
f 47 50 48
f 47 49 56
f 47 56 57
f 47 57 50
f 50 57 58
f 50 58 59
f 52 60 53
f 53 60 54
f 54 60 66
f 54 66 61
f 54 61 62
f 54 62 55
f 56 58 57
f 56 63 64
f 56 64 58
f 58 64 65
f 58 65 59
f 61 66 67
f 61 67 62
f 63 68 64
f 63 69 68
f 64 68 70
f 64 70 71
f 64 71 65
f 66 72 67
f 67 72 73
f 67 73 74
f 67 74 75
f 67 75 76
f 67 76 77
f 68 69 78
f 68 78 79
f 68 79 80
f 68 80 70
f 72 74 73
f 74 81 75
f 75 81 82
f 75 82 76
f 76 82 83
f 76 83 84
f 76 84 77
f 78 85 86
f 78 86 79
f 79 86 87
f 79 87 80
f 81 88 83
f 81 83 82
f 83 88 89
f 83 89 84
f 84 89 90
f 84 90 91
f 84 91 92
f 85 93 94
f 85 94 86
f 86 94 95
f 86 95 96
f 88 97 89
f 89 97 98
f 89 98 90
f 90 98 99
f 90 99 100
f 90 100 91
f 91 100 92
f 93 101 95
f 93 95 94
f 95 101 102
f 95 102 96
f 97 103 98
f 98 103 104
f 98 104 99
f 99 104 105
f 99 105 100
f 100 105 106
f 100 106 107
f 101 108 109
f 101 109 102
f 102 109 110
f 104 111 106
f 104 106 105
f 106 111 112
f 106 112 113
f 106 113 107
f 108 114 109
f 109 114 115
f 109 115 110
f 111 116 112
f 112 116 117
f 112 117 113
f 113 117 118
f 113 118 119
f 114 120 115
f 114 121 122
f 114 122 120
f 115 120 123
f 116 124 118
f 116 118 117
f 118 124 125
f 118 125 119
f 119 125 126
f 119 126 127
f 120 128 129
f 120 129 123
f 120 122 128
f 121 130 122
f 122 130 128
f 124 126 131
f 124 131 125
f 125 131 126
f 126 132 133
f 126 133 127
f 127 133 132
f 127 132 134
f 127 134 135
f 128 136 129
f 128 130 136
f 130 137 138
f 130 138 139
f 130 139 136
f 134 140 141
f 134 141 135
f 135 141 140
f 135 140 142
f 135 142 143
f 137 144 145
f 137 145 138
f 138 145 152
f 138 152 146
f 138 146 139
f 142 147 148
f 142 148 143
f 143 148 149
f 144 150 145
f 145 150 151
f 145 151 152
f 146 152 153
f 147 149 148
f 147 154 155
f 147 155 149
f 149 155 156
f 150 157 158
f 150 158 159
f 150 159 151
f 151 159 153
f 151 153 152
f 154 160 161
f 154 161 155
f 155 161 156
f 156 161 157
f 157 161 162
f 157 162 158
f 158 162 163
f 160 163 161
f 161 163 162

