# https://github.com/mikedh/trimesh
v 26.63782657 20.44576971 20.53245512
v 26.63782657 19.92374639 20.55881712
v 26.63782657 20.44576971 19.27002761
v 25.75483698 20.44576971 20.56370080
v 26.63782657 18.95170357 20.56551407
v 18.63001337 19.60173367 20.69480985
v 19.59927401 18.62969085 20.69480985
v 20.54316037 17.63164665 20.69480985
v 22.55272523 14.78752345 20.69480985
v 24.26288682 11.62938579 20.69480985
v 25.45035742 8.93526837 20.69480985
v 26.63782657 4.87709169 19.27002761
v -25.20489749 20.44576971 19.27002761
v 17.64552963 20.44576971 20.69480985
v 26.63782657 8.17123512 20.56955774
v 25.60767205 7.10318866 20.69480985
v 26.63782657 5.32311098 19.99741156
v 20.08644102 0.01287955 20.69480985
v 20.08644102 0.01287955 19.27002761
v -25.20489749 4.99709697 19.27002761
v -25.20489749 20.44576971 20.56551407
v -17.13618896 20.44576971 20.69480985
v 26.63782657 7.29119645 20.56941870
v 25.60767205 6.27115181 20.69480985
v 26.63782657 5.33911183 20.01972990
v 26.63782657 5.35911253 20.03535130
v 26.63782657 6.19714934 20.49061365
v 26.63782657 6.25515169 20.50623505
v 25.17124922 5.59912308 20.69480985
v -20.08456678 0.01287955 20.69480985
v -20.08964019 0.01287955 19.27002761
v -20.08964019 0.01287955 19.95584817
v -25.20489749 5.04509879 19.54480249
v -25.20489749 8.68125708 20.69480985
v -25.00698693 9.23528137 20.69480985
v -24.27115938 11.17536607 20.69480985
v -23.23593001 13.11945099 20.69480985
v -22.62697088 14.08749215 20.69480985
v -21.26188768 16.03557801 20.69480985
v -20.59203176 16.98161800 20.69480985
v -19.68366791 17.96366135 20.69480985
v -18.93769355 18.73169481 20.69480985
v -18.72963184 18.93770428 20.69480985
v -17.96335807 19.68573523 20.69480985
v 26.63782657 7.18719166 20.56565311
v 25.39960889 5.91513693 20.69480985
v -25.17445128 5.59912308 20.69480985
v -25.20489749 5.61312382 20.68100173
v -25.20489749 5.55112090 20.63316140
v -25.20489749 5.44111615 20.54738133
v -25.20489749 5.65112547 20.69480985
f 1 2 5
f 1 5 15
f 1 15 23
f 1 23 45
f 1 45 28
f 1 28 27
f 1 27 26
f 1 26 25
f 1 25 17
f 1 17 12
f 1 12 3
f 1 3 13
f 1 13 21
f 1 21 22
f 1 22 14
f 1 14 4
f 1 4 2
f 2 4 6
f 2 6 7
f 2 7 8
f 2 8 9
f 2 9 10
f 2 10 11
f 2 11 5
f 3 12 19
f 3 19 31
f 3 31 20
f 3 20 13
f 4 14 6
f 5 11 16
f 5 16 15
f 6 14 22
f 6 22 44
f 6 44 43
f 6 43 42
f 6 42 41
f 6 41 40
f 6 40 39
f 6 39 38
f 6 38 37
f 6 37 36
f 6 36 35
f 6 35 34
f 6 34 51
f 6 51 47
f 6 47 30
f 6 30 18
f 6 18 29
f 6 29 46
f 6 46 24
f 6 24 16
f 6 16 11
f 6 11 10
f 6 10 9
f 6 9 8
f 6 8 7
f 12 17 18
f 12 18 19
f 13 20 33
f 13 33 50
f 13 50 49
f 13 49 48
f 13 48 51
f 13 51 34
f 13 34 21
f 15 16 24
f 15 24 23
f 17 25 18
f 18 25 26
f 18 26 27
f 18 27 28
f 18 28 29
f 18 30 32
f 18 32 31
f 18 31 19
f 20 32 30
f 20 30 33
f 20 31 32
f 21 34 35
f 21 35 36
f 21 36 37
f 21 37 38
f 21 38 39
f 21 39 40
f 21 40 41
f 21 41 42
f 21 42 43
f 21 43 44
f 21 44 22
f 23 24 45
f 24 46 28
f 24 28 45
f 28 46 29
f 30 47 48
f 30 48 49
f 30 49 50
f 30 50 33
f 47 51 48

