# https://github.com/mikedh/trimesh
v 0.00429718 35.52658335 16.55735671
v 0.00429718 35.52585051 15.64563859
v -0.48727847 35.52585051 15.64563859
v -0.48727847 35.52585051 16.55735671
v 0.00429718 29.91002504 16.55735671
v 0.00429718 29.91002504 15.64563859
v -1.45868042 35.49881649 15.64563859
v -1.45868042 35.49881649 16.55735671
v -3.85976638 28.06292643 16.55735671
v -3.85976638 28.06292643 15.64563859
v -2.00901081 35.46812986 15.64563859
v -2.43008236 35.44401851 16.55735671
v -20.00344300 28.06292643 16.55735671
v -20.00344300 28.06292643 15.64563859
v -2.43008236 35.44401851 15.64563859
v -3.40344241 35.36291356 16.55735671
v -20.00344300 29.35911098 16.55735671
v -20.00344300 29.35911098 15.64563859
v -3.40344241 35.36291356 15.64563859
v -3.89305996 35.30884553 16.55735671
v -19.86831057 29.44971100 16.55735671
v -19.86831057 29.44971100 15.64563859
v -4.37484400 35.25550744 15.64563859
v -4.37484400 35.25550744 16.55735671
v -19.13192397 29.93559917 16.55735671
v -19.54907859 29.66087063 15.64563859
v -4.92517439 35.17952079 15.64563859
v -5.34624558 35.12106729 16.06807082
v -4.86446191 35.18755887 16.55735671
v -18.88711448 30.08976809 16.55735671
v -19.13192397 29.93559917 15.64563859
v -5.34624558 35.12106729 15.64563859
v -5.99254124 35.01804373 16.55735671
v -5.67135188 35.06919199 16.55735671
v -5.34624558 35.12033735 16.55735671
v -18.64426598 30.24174428 16.55735671
v -18.64426598 30.24174428 15.64563859
v -5.99254124 35.01804373 15.64563859
v -6.20405570 34.98005186 15.64563859
v -6.47824257 34.93036638 16.55735671
v -18.31524203 30.43975043 16.55735671
v -18.35636948 30.41490914 15.64563859
v -6.47824257 34.93036638 15.64563859
v -6.88756260 34.84999428 16.55735671
v -17.98034376 30.63995221 16.55735671
v -17.98034376 30.63995221 15.64563859
v -6.93848275 34.83976347 15.64563859
v -7.29100758 34.77035211 15.64563859
v -7.29100758 34.77035211 16.06807082
v -7.29100758 34.76962217 16.55735671
v -17.33600549 31.01404879 16.55735671
v -17.33600549 31.01477873 16.06807082
v -17.70028258 30.80288626 15.64563859
v -8.26240953 34.55188724 15.64563859
v -8.26240953 34.55188724 16.55735671
v -7.78062585 34.66002331 16.55735671
v -17.09119744 31.14775609 16.55735671
v -17.33600549 31.01477873 15.64563859
v -8.81273992 34.41233169 15.64563859
v -8.75202708 34.42767501 16.55735671
v -16.84834750 31.27927645 16.55735671
v -16.84834750 31.27927645 15.64563859
v -9.23381075 34.30492267 15.64563859
v -9.23381075 34.30419272 16.55735671
v -16.44490251 31.48970614 16.55735671
v -16.49582194 31.46340207 15.64563859
v -9.65684114 34.18655868 15.64563859
v -9.98194670 34.09522582 16.55735671
v -16.03558176 31.70232566 16.55735671
v -16.03558176 31.70232566 15.64563859
v -9.98194670 34.09522582 15.64563859
v -10.19150379 34.03238976 15.64563859
v -10.46568921 33.94982492 16.55735671
v -15.41670465 32.01066351 16.55735671
v -15.76727066 31.83603586 15.64563859
v -10.46568921 33.94982492 15.64563859
v -10.82408981 33.83511066 16.55735671
v -15.41670465 32.01066351 15.64563859
v -15.17189515 32.12537488 16.55735671
v -14.93100332 32.23862635 16.06807082
v -10.86717609 33.82123013 15.64563859
v -11.17661465 33.72185919 15.64563859
v -11.17661465 33.72185919 16.55735671
v -14.93100332 32.23862635 15.64563859
v -14.93100332 32.23789641 16.55735671
v -14.09277787 32.61345577 16.55735671
v -14.56672768 32.40156330 15.64563859
v -11.66623219 33.55234694 16.55735671
v -11.72498621 33.53188822 15.64563859
v -13.32897490 32.93494421 16.55735671
v -14.09277787 32.61345577 15.64563859
v -12.14801587 33.38502743 15.64563859
v -12.14801587 33.38502743 16.55735671
v -13.32897490 32.93494421 15.64563859
v -12.84327357 33.12710500 16.55735671
v -12.54166888 33.23889659 15.64563859
v -12.84327357 33.12710500 16.06807082
v -12.84131546 33.12710500 15.64563859
f 1 2 3
f 1 3 4
f 1 4 8
f 1 8 12
f 1 12 16
f 1 16 20
f 1 20 24
f 1 24 29
f 1 29 35
f 1 35 34
f 1 34 33
f 1 33 40
f 1 40 44
f 1 44 50
f 1 50 56
f 1 56 55
f 1 55 60
f 1 60 64
f 1 64 68
f 1 68 73
f 1 73 77
f 1 77 83
f 1 83 88
f 1 88 93
f 1 93 95
f 1 95 90
f 1 90 86
f 1 86 85
f 1 85 79
f 1 79 74
f 1 74 69
f 1 69 65
f 1 65 61
f 1 61 57
f 1 57 51
f 1 51 45
f 1 45 41
f 1 41 36
f 1 36 30
f 1 30 25
f 1 25 21
f 1 21 17
f 1 17 13
f 1 13 9
f 1 9 5
f 1 5 6
f 1 6 2
f 2 6 10
f 2 10 14
f 2 14 18
f 2 18 22
f 2 22 26
f 2 26 31
f 2 31 37
f 2 37 42
f 2 42 46
f 2 46 53
f 2 53 58
f 2 58 62
f 2 62 66
f 2 66 70
f 2 70 75
f 2 75 78
f 2 78 84
f 2 84 87
f 2 87 91
f 2 91 94
f 2 94 98
f 2 98 96
f 2 96 92
f 2 92 89
f 2 89 82
f 2 82 81
f 2 81 76
f 2 76 72
f 2 72 71
f 2 71 67
f 2 67 63
f 2 63 59
f 2 59 54
f 2 54 48
f 2 48 47
f 2 47 43
f 2 43 39
f 2 39 38
f 2 38 32
f 2 32 27
f 2 27 23
f 2 23 19
f 2 19 15
f 2 15 11
f 2 11 7
f 2 7 3
f 3 7 8
f 3 8 4
f 5 9 10
f 5 10 6
f 7 11 8
f 8 11 12
f 9 13 14
f 9 14 10
f 11 15 12
f 12 15 19
f 12 19 16
f 13 17 18
f 13 18 14
f 16 19 20
f 17 21 22
f 17 22 18
f 19 23 20
f 20 23 24
f 21 25 26
f 21 26 22
f 23 27 24
f 24 27 28
f 24 28 29
f 25 30 31
f 25 31 26
f 27 32 28
f 28 32 38
f 28 38 33
f 28 33 34
f 28 34 35
f 28 35 29
f 30 36 37
f 30 37 31
f 33 38 39
f 33 39 40
f 36 41 37
f 37 41 42
f 39 43 40
f 40 43 44
f 41 45 46
f 41 46 42
f 43 47 44
f 44 47 48
f 44 48 49
f 44 49 50
f 45 51 52
f 45 52 53
f 45 53 46
f 48 54 55
f 48 55 49
f 49 55 56
f 49 56 50
f 51 57 52
f 52 58 53
f 52 57 58
f 54 59 55
f 55 59 60
f 57 61 62
f 57 62 58
f 59 63 60
f 60 63 64
f 61 65 66
f 61 66 62
f 63 67 68
f 63 68 64
f 65 69 66
f 66 69 70
f 67 71 68
f 68 71 72
f 68 72 73
f 69 74 75
f 69 75 70
f 72 76 73
f 73 76 77
f 74 78 75
f 74 79 80
f 74 80 84
f 74 84 78
f 76 81 77
f 77 81 82
f 77 82 83
f 79 85 80
f 80 86 87
f 80 87 84
f 80 85 86
f 82 88 83
f 82 89 88
f 86 90 94
f 86 94 91
f 86 91 87
f 88 89 92
f 88 92 93
f 90 95 97
f 90 97 94
f 92 96 97
f 92 97 95
f 92 95 93
f 94 97 98
f 96 98 97

