# https://github.com/mikedh/trimesh
v -24.99538313 4.59038932 11.32163827
v -20.68699697 1.56642024 11.32163827
v -24.99538313 4.92460326 12.18025872
v -24.99538313 25.24481620 11.32163827
v -20.68657551 1.57711595 11.32163827
v -20.68657551 1.56909381 11.32256519
v -20.68657551 2.33912302 12.18025872
v -24.78407577 4.93262469 12.18464997
v -24.99538313 5.23742795 12.18464997
v -20.73760935 2.43003009 12.18464997
v -24.99538313 25.24481620 12.18025872
v -24.63687898 25.59507372 11.32163827
v -20.68657551 28.88106682 11.32163827
v -20.68657551 2.48083075 12.18464997
v -24.99538313 25.10043780 12.18464997
v -24.63687898 25.59507372 12.18464997
v -24.12400459 26.08168893 11.32163827
v -20.89703851 28.72866483 11.32163827
v -20.89957014 28.72599126 12.18464997
v -20.68657551 28.87839325 12.18025872
v -20.68657551 28.65914920 12.18464997
v -24.12611477 26.07901537 12.18464997
v -23.63812511 26.52017995 12.18464997
v -23.63812511 26.52017995 11.32163827
v -21.50565440 28.27947955 11.32163827
v -21.50565440 28.27947955 12.18464997
v -23.08560633 27.00412159 12.18464997
v -23.14760672 26.94797380 11.32163827
v -21.99195533 27.89981569 11.32163827
v -21.99153387 27.89981569 12.18025872
v -21.99448551 27.89713923 12.18464997
v -22.59761813 27.41319758 12.18464997
v -22.59761813 27.41319758 12.18025872
v -22.59719667 27.41319758 11.32163827
v -23.02613613 27.05224579 11.32163827
v -23.08307615 27.00412159 11.32163827
f 1 2 3
f 1 3 9
f 1 9 15
f 1 15 11
f 1 11 4
f 1 4 12
f 1 12 17
f 1 17 24
f 1 24 28
f 1 28 36
f 1 36 35
f 1 35 34
f 1 34 29
f 1 29 25
f 1 25 18
f 1 18 13
f 1 13 5
f 1 5 2
f 2 5 6
f 2 6 7
f 2 7 3
f 3 8 9
f 3 7 10
f 3 10 8
f 4 11 16
f 4 16 12
f 5 13 20
f 5 20 21
f 5 21 14
f 5 14 7
f 5 7 6
f 7 14 10
f 8 10 14
f 8 14 21
f 8 21 19
f 8 19 26
f 8 26 31
f 8 31 32
f 8 32 27
f 8 27 23
f 8 23 22
f 8 22 16
f 8 16 15
f 8 15 9
f 11 15 16
f 12 16 17
f 13 18 19
f 13 19 20
f 16 22 17
f 17 22 23
f 17 23 24
f 18 25 26
f 18 26 19
f 19 21 20
f 23 27 24
f 24 27 28
f 25 29 26
f 26 29 30
f 26 30 31
f 27 32 33
f 27 33 34
f 27 34 35
f 27 35 36
f 27 36 28
f 29 34 33
f 29 33 32
f 29 32 30
f 30 32 31

