# https://github.com/mikedh/trimesh
v 0.48778551 35.50266608 18.37721853
v 0.48778551 35.46281748 18.98392121
v 1.09487127 35.48529514 18.37721853
v 0.03800136 35.50266608 18.37721853
v 0.03800136 35.49755937 18.45999193
v 0.21496512 35.31874323 19.41088663
v 0.48778551 35.19510453 19.77364011
v 1.46108908 35.17977859 19.75638792
v 1.46108908 35.34020128 19.27023906
v 1.45863131 35.43420481 18.98392121
v 0.03800136 35.46281748 18.98392121
v 1.45863131 35.47405631 18.37721853
v 0.03800136 29.93486922 18.37721853
v 0.21496512 35.19510453 19.77364011
v 0.03800136 35.36574644 19.27023906
v 0.48778551 34.64026557 20.25935158
v 1.46108908 34.62800424 20.24209940
v 2.43193488 34.60961079 20.21064806
v 2.43193488 35.15423342 19.72493658
v 2.43193488 35.29421767 19.27023906
v 2.43193488 35.38209488 18.98392121
v 2.43193488 35.42092388 18.37721853
v 4.93647238 25.06598268 18.37721853
v 4.95121900 25.06598268 18.98326658
v 0.03800136 29.94406305 18.53599306
v 0.21496512 34.64026557 20.25935158
v 0.03800136 30.02785315 19.27023906
v 0.21496512 32.55885476 20.56554304
v 0.21496512 33.53059054 20.55047200
v 0.21496512 33.98120385 20.50591932
v 0.21496512 34.15491037 20.48844699
v 0.21496512 34.50538803 20.32334049
v 0.48778551 34.15491037 20.48844699
v 1.46108908 34.14264904 20.48604571
v 2.43193488 34.12221349 20.48167763
v 3.40523917 34.09768794 20.47490826
v 4.37608497 34.06396855 20.46267879
v 5.04215937 34.03433628 20.45022918
v 3.40523917 34.58304602 20.15888862
v 3.40523917 35.11540443 19.67295990
v 3.40278140 35.30137229 18.98392121
v 4.37608497 35.06124950 19.59237054
v 3.40278140 35.34020128 18.37721853
v 25.14727401 25.06598268 18.37721853
v 5.09131621 25.06598268 19.27001892
v 0.03800136 30.00230799 19.13832766
v 0.03800136 29.97267572 18.98392121
v 0.21496512 30.08200809 19.55415273
v 0.21496512 30.58473422 20.04008145
v 0.21496512 30.93418938 20.34015818
v 0.21496512 31.07008941 20.45656116
v 0.21496512 31.44202512 20.50111385
v 0.21496512 31.58712188 20.51836893
v 0.21496512 32.28705470 20.55243880
v 6.25878937 25.76693800 20.59961291
v 7.29353863 25.76693800 20.60791169
v 4.37608497 32.55885476 20.56554304
v 0.48778551 33.53059054 20.55047200
v 1.46108908 33.53059054 20.54807072
v 2.43193488 33.53059054 20.54370264
v 3.40523917 33.53059054 20.53693327
v 4.37608497 33.53059054 20.52448366
v 6.32023506 33.39571011 20.50155124
v 7.29353863 33.27309391 20.49631128
v 8.26192738 33.17398077 20.48386167
v 9.23523095 33.08917106 20.45940273
v 5.69102866 33.97098462 20.43384888
v 4.37608497 34.54932664 20.07830216
v 4.37608497 35.19408202 18.98392121
v 5.04953268 35.01628839 19.51942823
v 6.32023506 34.42568794 19.92258645
v 7.29353863 34.32861690 19.86165346
v 4.00986716 35.27276252 18.37721853
v 25.10549338 25.10787629 18.37721853
v 25.09074386 25.06598268 18.98392121
v 6.38413852 25.06598268 19.27023906
v 5.80654673 25.76693800 20.48779236
v 7.30336971 25.76693800 20.60791169
v 5.34693077 32.55885476 20.56510565
v 6.32023506 32.55885476 20.56357625
v 7.29353863 32.55885476 20.55833339
v 8.26192738 32.55885476 20.54566654
v 9.23523095 32.55885476 20.52120760
v 11.17938104 32.25333821 20.48910452
v 9.73171418 33.04727746 20.44280229
v 6.32023506 33.88106820 20.40829792
v 4.37608497 35.23188852 18.37721853
v 5.69840196 34.96622056 19.30649298
v 5.66153470 34.97643979 19.27023906
v 5.36167811 35.05818199 18.98304933
v 5.93926991 35.00709167 18.65851367
v 8.26192738 34.21826203 19.75725980
v 9.23523095 34.09768794 19.59652138
v 8.26192738 33.65933596 20.24297128
v 7.29353863 33.75947161 20.34736493
v 24.61884051 25.57994764 18.37721853
v 24.59180359 25.55440248 18.98392121
v 25.06125063 25.06598268 19.02498059
v 24.53527344 25.50127005 19.27023906
v 24.88182910 25.06598268 19.27023906
v 12.15022612 30.61538899 20.56510565
v 9.23523095 31.58712188 20.56532290
v 19.92191094 25.76693800 20.56532290
v 18.95106442 26.72947706 20.56554304
v 17.97776158 27.70120995 20.56423088
v 16.03361076 28.67294283 20.56554304
v 14.09191916 29.64467571 20.56554304
v 10.20853452 31.58712188 20.56270147
v 11.17938104 31.58712188 20.55112664
v 12.23379318 31.67601870 20.50613946
v 13.11861487 31.42976379 20.49740330
v 11.96834682 32.14400294 20.46726412
v 12.60984207 32.05919324 20.43952623
v 10.38058346 32.88991937 20.39606556
v 11.17938104 33.31601002 19.81535412
v 5.35184703 35.09701099 18.37721853
v 7.29108086 34.70463972 18.98392121
v 5.76476392 34.96008845 19.27023906
v 5.71069081 34.96928517 19.27023906
v 9.76120814 34.02820706 19.49059832
v 5.96384833 35.01220128 18.37721853
v 6.28582556 34.90286891 18.98304933
v 7.29108086 34.74448832 18.37721853
v 24.10515072 26.06632534 18.37721853
v 24.07565749 26.03976057 18.98392121
v 23.47102878 26.37388979 19.62382188
v 23.70206492 25.76693800 19.91887300
v 23.50298123 25.76693800 20.04990963
v 22.83936460 25.76693800 20.39300964
v 22.17083243 25.76693800 20.50308064
v 21.94962737 25.76693800 20.51574750
v 21.01810661 25.76693800 20.55593210
v 20.89275747 25.76693800 20.56117496
v 15.06276569 29.64467571 20.56095482
v 13.11861487 30.61538899 20.55942541
v 17.00691505 28.67294283 20.55855353
v 19.92191094 26.72947706 20.55789890
v 14.09191916 30.61538899 20.53649588
v 14.09191916 31.21416366 20.47447087
v 14.64001627 31.12526684 20.45197584
v 13.11861487 31.91511898 20.38536550
v 14.09191916 32.27581587 19.73433028
v 13.03996479 32.58439992 19.82518230
v 11.17938104 32.73971301 20.30106559
v 12.15022612 33.14945811 19.62120046
v 8.26438515 34.48495248 18.98392121
v 7.90062511 34.60859119 18.37721853
v 9.23523095 34.24074258 18.98392121
v 12.66145668 33.05647418 19.48950630
v 11.18183881 33.65320385 18.98392121
v 10.36583612 33.91580719 18.98392121
v 9.88164247 34.06396855 18.98392121
v 23.61849930 26.50569982 18.37721853
v 23.59146383 26.48015465 18.98392121
v 23.53739001 26.43315434 19.27023906
v 22.45102686 27.29555485 19.57468098
v 22.80003884 26.71006112 19.81863018
v 22.83936460 26.00603829 20.31307782
v 22.34042288 26.23288015 20.44018375
v 21.69401209 26.46176411 20.47818432
v 21.95454291 25.84766060 20.51181681
v 16.03361076 29.64467571 20.53649588
v 18.95106442 27.70120995 20.54741608
v 15.00377632 30.60721477 20.49347260
v 16.03361076 30.25980172 20.47468812
v 15.28888629 30.92703766 20.38624027
v 16.56696125 30.15251146 20.45066657
v 14.09191916 31.69951885 20.22003885
v 15.00377632 31.55442500 19.97871397
v 16.03361076 31.33167025 19.75136231
v 14.71621003 32.13889623 19.57140491
v 8.26438515 34.52582359 18.37721853
v 9.23523095 34.27956868 18.37721853
v 14.09191916 32.54455132 18.98392121
v 13.24642324 32.89911609 18.98392121
v 12.70324022 33.07282262 19.27023906
v 12.15022612 33.31703252 18.98392121
v 11.18183881 33.69510035 18.37721853
v 10.43219807 33.93624564 18.37721853
v 9.94308816 34.08236200 18.37721853
v 23.06302743 26.99207751 18.37721853
v 23.03353420 26.96653235 18.98392121
v 22.50018226 27.33642595 19.27023906
v 21.39661328 28.19984897 19.48819703
v 21.78003692 27.65216173 19.72493658
v 21.95454291 26.76319355 20.29626013
v 21.26389082 27.10958699 20.42009000
v 19.53357175 28.24480718 20.46071200
v 20.61502081 27.34766478 20.47294146
v 19.88258518 27.68383900 20.49674866
v 20.92225070 26.76319355 20.50701134
v 18.04166503 28.74242660 20.50941552
v 16.93809461 29.62219806 20.49106842
v 18.95106442 28.43792965 20.48560832
v 17.21583127 29.93078211 20.36854781
v 16.03361076 30.74311481 20.23707379
v 17.76147061 29.28295923 20.47381624
v 18.41034062 29.11333981 20.43384888
v 16.93563829 30.57349539 19.97259924
v 17.97776158 30.31702126 19.69283351
v 16.65544386 31.17227006 19.57664777
v 15.34541644 31.97438353 18.98392121
v 14.78994457 32.17159311 19.27023906
v 14.85630724 32.20428999 18.98392121
v 14.09191916 32.58644493 18.37721853
v 13.29312086 32.92057415 18.37721853
v 12.99326572 33.04114534 18.37721853
v 12.75731260 33.09325817 18.98392121
v 12.15022612 33.35790362 18.37721853
v 11.78646680 33.48460693 18.37721853
v 22.57883378 27.40080011 18.37721853
v 22.54442501 27.37627745 18.98392121
v 19.65154759 29.30441728 19.65461570
v 20.89275747 28.38275222 19.67994941
v 21.93979630 27.86163264 18.98392121
v 21.45560264 28.24378468 18.98392121
v 20.89275747 28.65352978 18.98392121
v 20.30041760 29.08370754 18.98392121
v 18.51356984 30.16170818 19.51636941
v 20.92225070 27.68383900 20.20802953
v 20.17998400 27.99548767 20.37968815
v 18.95106442 28.92430734 20.33142202
v 18.04166503 29.62219806 20.22659097
v 18.88224542 29.63547899 19.79831918
v 16.72426430 31.20905405 19.27023906
v 16.03361076 31.63106048 18.98392121
v 17.27236142 30.97812798 18.98392121
v 15.38965774 31.99686408 18.37721853
v 15.08734338 32.13889623 18.37721853
v 14.90054710 32.22472554 18.37721853
v 12.80646944 33.11369372 18.37721853
v 21.97174875 27.88615530 18.37721853
v 19.91699540 28.66374611 20.01693178
v 21.48509588 28.26626523 18.37721853
v 21.27617967 28.42055871 18.37721853
v 20.89275747 28.70053010 18.37721853
v 20.33482783 29.10720770 18.37721853
v 19.81622395 29.41374965 18.98392121
v 18.55043783 30.18418874 19.27023906
v 17.97776158 30.57145039 18.98392121
v 19.07641502 29.90012734 18.98392121
v 16.78570999 31.24379594 18.98392121
v 16.03361076 31.67499619 18.37721853
v 17.31168718 31.00060854 18.37721853
v 20.03251347 29.31259150 18.37721853
v 19.84571864 29.43724981 18.37721853
v 19.57289752 29.61913055 18.37721853
v 18.58976215 30.20973390 18.98392121
v 17.97776158 30.61436649 18.37721853
v 18.62663014 30.23119195 18.37721853
v 19.10836602 29.92260789 18.37721853
v 17.00937282 31.16511834 18.37721853
v 16.82257654 31.26525399 18.37721853
f 1 2 3
f 1 3 12
f 1 12 22
f 1 22 43
f 1 43 73
f 1 73 87
f 1 87 116
f 1 116 121
f 1 121 123
f 1 123 147
f 1 147 172
f 1 172 173
f 1 173 180
f 1 180 179
f 1 179 178
f 1 178 210
f 1 210 209
f 1 209 231
f 1 231 207
f 1 207 206
f 1 206 205
f 1 205 230
f 1 230 229
f 1 229 228
f 1 228 243
f 1 243 253
f 1 253 252
f 1 252 244
f 1 244 249
f 1 249 250
f 1 250 251
f 1 251 247
f 1 247 246
f 1 246 245
f 1 245 237
f 1 237 236
f 1 236 235
f 1 235 234
f 1 234 232
f 1 232 211
f 1 211 181
f 1 181 153
f 1 153 124
f 1 124 96
f 1 96 74
f 1 74 44
f 1 44 23
f 1 23 13
f 1 13 4
f 1 4 5
f 1 5 2
f 2 6 7
f 2 7 8
f 2 8 9
f 2 9 10
f 2 10 3
f 2 5 11
f 2 11 6
f 3 10 12
f 4 13 25
f 4 25 47
f 4 47 46
f 4 46 27
f 4 27 15
f 4 15 11
f 4 11 5
f 6 14 7
f 6 11 15
f 6 15 14
f 7 14 26
f 7 26 16
f 7 16 17
f 7 17 8
f 8 17 18
f 8 18 19
f 8 19 9
f 9 19 10
f 10 19 20
f 10 20 21
f 10 21 12
f 12 21 22
f 13 23 24
f 13 24 25
f 14 15 26
f 15 27 28
f 15 28 29
f 15 29 30
f 15 30 31
f 15 31 32
f 15 32 26
f 16 26 32
f 16 32 33
f 16 33 34
f 16 34 35
f 16 35 36
f 16 36 17
f 17 36 37
f 17 37 18
f 18 37 38
f 18 38 39
f 18 39 19
f 19 39 40
f 19 40 20
f 20 40 21
f 21 41 43
f 21 43 22
f 21 40 42
f 21 42 41
f 23 44 75
f 23 75 98
f 23 98 100
f 23 100 76
f 23 76 45
f 23 45 24
f 24 45 27
f 24 27 46
f 24 46 47
f 24 47 25
f 27 48 49
f 27 49 50
f 27 50 51
f 27 51 52
f 27 52 53
f 27 53 54
f 27 54 28
f 27 45 48
f 28 54 55
f 28 55 56
f 28 56 78
f 28 78 57
f 28 57 58
f 28 58 29
f 29 58 30
f 30 58 33
f 30 33 31
f 31 33 32
f 33 58 59
f 33 59 34
f 34 59 60
f 34 60 35
f 35 60 61
f 35 61 36
f 36 61 62
f 36 62 37
f 37 62 63
f 37 63 64
f 37 64 38
f 38 64 65
f 38 65 66
f 38 66 67
f 38 67 39
f 39 68 40
f 39 67 68
f 40 68 42
f 41 69 43
f 41 42 70
f 41 70 69
f 42 68 71
f 42 71 72
f 42 72 70
f 43 69 73
f 44 74 75
f 45 76 56
f 45 56 55
f 45 55 77
f 45 77 49
f 45 49 48
f 49 77 50
f 50 77 51
f 51 77 55
f 51 55 52
f 52 55 53
f 53 55 54
f 56 76 100
f 56 100 78
f 57 78 79
f 57 79 58
f 58 79 80
f 58 80 59
f 59 80 60
f 60 80 81
f 60 81 61
f 61 81 62
f 62 81 82
f 62 82 64
f 62 64 63
f 64 82 65
f 65 82 83
f 65 83 84
f 65 84 66
f 66 84 85
f 66 85 67
f 67 85 86
f 67 86 72
f 67 72 71
f 67 71 68
f 69 87 73
f 69 70 88
f 69 88 89
f 69 89 90
f 69 90 91
f 69 91 87
f 70 72 92
f 70 92 93
f 70 93 88
f 72 94 92
f 72 86 95
f 72 95 94
f 74 96 97
f 74 97 75
f 75 97 99
f 75 99 98
f 78 101 102
f 78 102 80
f 78 80 79
f 78 100 103
f 78 103 104
f 78 104 105
f 78 105 106
f 78 106 107
f 78 107 101
f 80 102 108
f 80 108 81
f 81 108 109
f 81 109 82
f 82 109 83
f 83 109 84
f 84 109 110
f 84 110 111
f 84 111 112
f 84 112 85
f 85 92 94
f 85 94 95
f 85 95 86
f 85 112 113
f 85 113 114
f 85 114 115
f 85 115 92
f 87 91 116
f 88 117 118
f 88 118 119
f 88 119 89
f 88 93 120
f 88 120 117
f 89 119 90
f 90 119 91
f 91 121 116
f 91 119 118
f 91 118 122
f 91 122 117
f 91 117 123
f 91 123 121
f 92 115 93
f 93 115 120
f 96 124 97
f 97 124 125
f 97 125 126
f 97 126 99
f 98 99 100
f 99 127 100
f 99 126 127
f 100 127 128
f 100 128 129
f 100 129 130
f 100 130 131
f 100 131 132
f 100 132 133
f 100 133 103
f 101 108 102
f 101 107 134
f 101 134 135
f 101 135 108
f 103 133 104
f 104 133 105
f 105 136 134
f 105 134 106
f 105 133 137
f 105 137 136
f 106 134 107
f 108 135 109
f 109 135 138
f 109 138 111
f 109 111 110
f 111 138 139
f 111 139 112
f 112 139 113
f 113 139 140
f 113 140 141
f 113 141 142
f 113 142 143
f 113 143 115
f 113 115 144
f 113 144 114
f 114 144 115
f 115 143 142
f 115 142 145
f 115 145 120
f 117 122 118
f 117 120 146
f 117 146 147
f 117 147 123
f 120 148 146
f 120 145 149
f 120 149 150
f 120 150 151
f 120 151 152
f 120 152 148
f 124 153 154
f 124 154 125
f 125 154 155
f 125 155 126
f 126 156 157
f 126 157 158
f 126 158 127
f 126 155 156
f 127 158 128
f 128 158 129
f 129 158 159
f 129 159 130
f 130 159 160
f 130 160 161
f 130 161 131
f 131 161 132
f 132 137 133
f 132 161 137
f 134 138 135
f 134 136 162
f 134 162 138
f 136 137 163
f 136 163 162
f 137 161 163
f 138 162 164
f 138 164 139
f 139 164 165
f 139 165 140
f 140 166 141
f 140 165 167
f 140 167 166
f 141 166 168
f 141 168 142
f 142 168 169
f 142 169 170
f 142 170 171
f 142 171 149
f 142 149 145
f 146 148 172
f 146 172 147
f 148 152 173
f 148 173 172
f 149 171 174
f 149 174 175
f 149 175 176
f 149 176 177
f 149 177 150
f 150 178 151
f 150 177 178
f 151 178 179
f 151 179 152
f 152 179 180
f 152 180 173
f 153 181 154
f 154 181 182
f 154 182 156
f 154 156 155
f 156 182 183
f 156 183 184
f 156 184 185
f 156 185 157
f 157 185 186
f 157 186 158
f 158 186 159
f 159 186 187
f 159 187 188
f 159 188 189
f 159 189 160
f 160 189 190
f 160 190 191
f 160 191 161
f 161 191 163
f 162 163 192
f 162 192 193
f 162 193 165
f 162 165 164
f 163 191 190
f 163 190 194
f 163 194 192
f 165 193 167
f 166 169 168
f 166 167 195
f 166 195 196
f 166 196 170
f 166 170 169
f 167 193 197
f 167 197 198
f 167 198 195
f 170 196 199
f 170 199 200
f 170 200 201
f 170 201 171
f 171 202 203
f 171 203 174
f 171 201 202
f 174 203 204
f 174 204 205
f 174 205 175
f 175 206 207
f 175 207 208
f 175 208 176
f 175 205 206
f 176 208 177
f 177 208 209
f 177 209 210
f 177 210 178
f 181 211 182
f 182 211 212
f 182 212 183
f 183 212 184
f 184 213 214
f 184 214 185
f 184 212 215
f 184 215 216
f 184 216 217
f 184 217 218
f 184 218 219
f 184 219 213
f 185 214 220
f 185 220 186
f 186 220 187
f 187 220 221
f 187 221 188
f 188 194 190
f 188 190 189
f 188 221 198
f 188 198 197
f 188 197 194
f 192 194 193
f 193 194 197
f 195 199 196
f 195 198 222
f 195 222 223
f 195 223 200
f 195 200 199
f 198 221 222
f 200 223 224
f 200 224 213
f 200 213 219
f 200 219 201
f 201 225 226
f 201 226 202
f 201 219 227
f 201 227 225
f 202 228 204
f 202 204 203
f 202 226 228
f 204 228 229
f 204 229 230
f 204 230 205
f 207 231 208
f 208 231 209
f 211 232 215
f 211 215 212
f 213 222 233
f 213 233 214
f 213 224 222
f 214 233 220
f 215 232 216
f 216 234 235
f 216 235 236
f 216 236 237
f 216 237 217
f 216 232 234
f 217 237 218
f 218 238 219
f 218 237 238
f 219 239 240
f 219 240 227
f 219 238 241
f 219 241 239
f 220 233 221
f 221 233 222
f 222 224 223
f 225 242 226
f 225 227 242
f 226 242 243
f 226 243 228
f 227 240 244
f 227 244 242
f 237 245 238
f 238 245 246
f 238 246 247
f 238 247 241
f 239 248 240
f 239 241 248
f 240 249 244
f 240 248 250
f 240 250 249
f 241 247 251
f 241 251 250
f 241 250 248
f 242 252 253
f 242 253 243
f 242 244 252

