# https://github.com/mikedh/trimesh
v 0.00446175 -35.52501091 13.00409962
v 0.48634065 -35.52501091 13.00409962
v 0.00446175 -35.52501091 13.82658492
v 0.00446175 -29.90535612 13.00409962
v 1.30910012 -35.50276208 13.00409962
v 1.16053876 -35.50721127 13.82658492
v 0.48634065 -35.52501091 13.82658492
v 0.00446175 -29.90646842 13.82658492
v 0.00446175 -29.90535612 13.07744457
v 4.87403098 -24.15997563 13.00409962
v 1.45820162 -35.49831000 13.00409962
v 1.45820162 -35.49831000 13.82658492
v 4.87403098 -24.15997563 13.82658492
v 5.52337893 -24.15997563 13.00409962
v 2.43006259 -35.44490528 13.00409962
v 2.13239982 -35.46159552 13.82658492
v 5.52337893 -24.15997563 13.82658492
v 5.52337893 -35.09332981 13.00409962
v 3.40138343 -35.36368737 13.00409962
v 2.43006259 -35.44490528 13.82658492
v 5.52337893 -35.09332981 13.82658492
v 5.34564576 -35.12114591 13.00409962
v 3.40138343 -35.36368737 13.82658492
v 4.37324449 -35.25688084 13.00409962
v 5.34564576 -35.12114591 13.82658492
v 5.19654409 -35.14228244 13.00409962
v 4.37324449 -35.25688084 13.82658492
f 1 2 7
f 1 7 3
f 1 3 8
f 1 8 9
f 1 9 4
f 1 4 10
f 1 10 14
f 1 14 18
f 1 18 22
f 1 22 26
f 1 26 24
f 1 24 19
f 1 19 15
f 1 15 11
f 1 11 5
f 1 5 2
f 2 5 6
f 2 6 7
f 3 7 6
f 3 6 12
f 3 12 16
f 3 16 20
f 3 20 23
f 3 23 27
f 3 27 25
f 3 25 21
f 3 21 17
f 3 17 13
f 3 13 8
f 4 9 13
f 4 13 10
f 5 11 6
f 6 11 12
f 8 13 9
f 10 13 17
f 10 17 14
f 11 15 16
f 11 16 12
f 14 17 21
f 14 21 18
f 15 19 23
f 15 23 20
f 15 20 16
f 18 21 25
f 18 25 22
f 19 24 27
f 19 27 23
f 22 25 26
f 24 26 27
f 25 27 26

