# https://github.com/mikedh/trimesh
v -4.92083383 -24.63112442 16.55719739
v -4.91495915 -25.31799065 17.46519338
v 0.00421970 -29.91061925 17.46519338
v 0.00421970 -29.90955041 17.25057230
v 0.00421970 -29.90848446 16.79657576
v -4.92083383 -24.63112442 15.64563859
v -20.00148490 -24.63112442 16.55719739
v -18.23512337 -25.31799065 17.46519338
v 0.00421970 -35.52607975 17.46519338
v 0.00421970 -29.90848446 16.55737409
v 0.00226159 -29.90741851 15.64563859
v -20.00148490 -24.63112442 15.64563859
v -20.00148490 -29.36027003 16.55719739
v -18.23512337 -30.48762883 17.46519338
v 0.00421970 -35.52607975 16.55826624
v -0.48730671 -35.52714570 17.46519338
v 0.00421970 -35.51648040 16.55737409
v 0.00226159 -35.52501380 15.64563859
v -20.00148490 -29.36027003 15.64563859
v -19.86832216 -29.44986204 16.55719739
v -17.97858987 -30.64014669 17.46519338
v -19.13005277 -29.93621656 16.55719739
v -19.05368087 -29.98421041 16.55719739
v -18.64244402 -30.24125227 16.55719739
v -18.23512337 -30.48762883 16.55737409
v 0.00226159 -35.52607975 16.55737409
v -1.45860945 -35.49834765 17.46519338
v -1.46056755 -35.49834765 16.55719739
v -1.46056755 -35.49834765 15.64563859
v -0.48730671 -35.52501380 15.64563859
v -19.86832216 -29.44986204 15.64563859
v -19.45121099 -29.72503665 15.64563859
v -17.33431967 -31.01344670 17.46519338
v -17.97858987 -30.64014669 16.55737409
v -19.13005277 -29.93621656 15.64563859
v -19.05563898 -29.98421041 15.64563859
v -18.64244402 -30.24125227 15.64563859
v -17.97663176 -30.64014669 15.64563859
v -2.00692525 -35.46848365 17.46519338
v -2.43187029 -35.44502115 16.55737409
v -2.43382912 -35.44395520 15.64563859
v -17.33431967 -31.01344670 15.64563859
v -16.84866612 -31.27795312 17.46519338
v -2.43187029 -35.44502115 17.46519338
v -2.91752166 -35.40449185 16.55719739
v -3.40513186 -35.36289370 15.64563859
v -17.12282547 -31.12863311 15.64563859
v -16.49422011 -31.46353572 17.46519338
v -16.84866612 -31.27795312 16.55737409
v -3.40317303 -35.36396254 17.46519338
v -3.40317303 -35.36396254 16.55737409
v -4.37839270 -35.25623779 15.64563859
v -16.84670802 -31.27795312 15.64563859
v -16.43938738 -31.49126493 16.55737409
v -16.03402629 -31.70137889 15.64563859
v -16.03402629 -31.70137889 17.46519338
v -16.38847374 -31.51686512 15.64563859
v -4.37643424 -35.25623779 17.46519338
v -4.37839270 -35.25623779 16.55719739
v -5.34773734 -35.12185268 16.55737409
v -4.79942117 -35.19757574 15.64563859
v -15.72461959 -31.85709749 16.55737409
v -15.68349504 -31.87629619 15.64563859
v -15.76574270 -31.83576689 17.46519338
v -5.34773734 -35.12078384 17.46519338
v -5.34773734 -35.12185268 17.03987033
v -5.99592520 -35.01839463 16.55737409
v -5.34969544 -35.12078384 15.64563859
v -15.41717100 -32.00961535 17.46519338
v -15.41521145 -32.00961535 15.64563859
v -15.41717100 -32.00961535 16.55737409
v -5.99592520 -35.01839463 17.46519338
v -6.48157657 -34.93093743 16.55737409
v -5.99788330 -35.01732868 15.64563859
v -14.92956081 -32.23786206 17.46519338
v -14.92956081 -32.23786206 15.64563859
v -6.20741866 -34.97999723 17.46519338
v -6.48157657 -34.93093743 17.03987033
v -7.29230092 -34.76988617 15.64563859
v -6.48353467 -34.92986858 15.64563859
v -14.56336327 -32.40211117 17.46519338
v -14.50853198 -32.42664252 16.55737409
v -14.45565879 -32.45010792 15.64563859
v -6.48157657 -34.92986858 17.46519338
v -7.29230092 -34.76988617 17.46519338
v -7.71528785 -34.67496151 15.64563859
v -7.77403608 -34.66216142 16.55737409
v -8.26360366 -34.55230476 16.55737409
v -14.09142081 -32.61222513 17.46519338
v -14.09142081 -32.61222513 16.55737409
v -14.08946270 -32.61222513 15.64563859
v -8.26360366 -34.55230476 17.46519338
v -8.26360366 -34.55123881 15.64563859
v -8.74533881 -34.42965090 16.55737409
v -8.68854869 -34.44351695 15.64563859
v -13.70759888 -32.77434233 16.55737409
v -13.32573650 -32.93432764 17.46519338
v -13.65864335 -32.79354103 15.64563859
v -9.23490639 -34.30486225 17.46519338
v -9.23490639 -34.30486225 16.55737409
v -9.23686522 -34.30379630 15.64563859
v -13.32573650 -32.93326169 15.64563859
v -13.32573650 -32.93432764 16.55737409
v -12.84008440 -33.12630885 17.46519338
v -9.98100820 -34.09475119 17.46519338
v -9.98296631 -34.09475119 16.55719739
v -9.98296631 -34.09475119 15.64563859
v -12.83812630 -33.12630885 15.64563859
v -12.84008440 -33.12630885 16.55737409
v -12.49347082 -33.25643015 16.55737409
v -12.14881533 -33.38441666 17.46519338
v -10.46470147 -33.94969788 17.46519338
v -10.46470147 -33.94862904 15.64563859
v -10.46470147 -33.94969788 16.55737409
v -12.14685650 -33.38335071 15.64563859
v -12.14881533 -33.38441666 16.55737409
v -11.65924703 -33.55400132 16.55737409
v -11.72387029 -33.53160476 17.46519338
v -11.17555376 -33.72038522 17.46519338
v -10.77410816 -33.84944058 15.64563859
v -11.17555376 -33.72038522 15.64563859
f 1 2 3
f 1 3 4
f 1 4 5
f 1 5 10
f 1 10 6
f 1 6 12
f 1 12 7
f 1 7 8
f 1 8 2
f 2 8 14
f 2 14 21
f 2 21 33
f 2 33 43
f 2 43 48
f 2 48 56
f 2 56 64
f 2 64 69
f 2 69 75
f 2 75 81
f 2 81 89
f 2 89 97
f 2 97 104
f 2 104 111
f 2 111 118
f 2 118 119
f 2 119 112
f 2 112 105
f 2 105 99
f 2 99 92
f 2 92 85
f 2 85 84
f 2 84 77
f 2 77 72
f 2 72 65
f 2 65 58
f 2 58 50
f 2 50 44
f 2 44 39
f 2 39 27
f 2 27 16
f 2 16 9
f 2 9 3
f 3 9 15
f 3 15 17
f 3 17 10
f 3 10 5
f 3 5 4
f 6 10 11
f 6 11 18
f 6 18 30
f 6 30 29
f 6 29 41
f 6 41 46
f 6 46 52
f 6 52 61
f 6 61 68
f 6 68 74
f 6 74 80
f 6 80 79
f 6 79 86
f 6 86 93
f 6 93 95
f 6 95 101
f 6 101 107
f 6 107 113
f 6 113 120
f 6 120 121
f 6 121 115
f 6 115 108
f 6 108 102
f 6 102 98
f 6 98 91
f 6 91 83
f 6 83 76
f 6 76 70
f 6 70 63
f 6 63 55
f 6 55 57
f 6 57 53
f 6 53 47
f 6 47 42
f 6 42 38
f 6 38 37
f 6 37 36
f 6 36 35
f 6 35 32
f 6 32 31
f 6 31 19
f 6 19 12
f 7 12 19
f 7 19 13
f 7 13 14
f 7 14 8
f 9 16 15
f 10 17 18
f 10 18 11
f 13 20 14
f 13 19 31
f 13 31 20
f 14 20 22
f 14 22 23
f 14 23 24
f 14 24 37
f 14 37 25
f 14 25 34
f 14 34 21
f 15 16 26
f 15 26 18
f 15 18 17
f 16 27 28
f 16 28 29
f 16 29 30
f 16 30 18
f 16 18 26
f 20 32 22
f 20 31 32
f 21 34 42
f 21 42 33
f 22 35 36
f 22 36 23
f 22 32 35
f 23 36 24
f 24 36 37
f 25 37 38
f 25 38 34
f 27 39 28
f 28 39 29
f 29 39 40
f 29 40 41
f 33 42 47
f 33 47 49
f 33 49 43
f 34 38 42
f 39 44 40
f 40 44 50
f 40 50 51
f 40 51 45
f 40 45 41
f 41 45 46
f 43 49 48
f 45 51 46
f 46 51 52
f 47 53 49
f 48 54 55
f 48 55 56
f 48 49 54
f 49 53 57
f 49 57 54
f 50 58 59
f 50 59 52
f 50 52 51
f 52 59 66
f 52 66 60
f 52 60 61
f 54 57 55
f 55 62 56
f 55 63 62
f 56 62 64
f 58 65 66
f 58 66 59
f 60 66 72
f 60 72 67
f 60 67 74
f 60 74 68
f 60 68 61
f 62 69 64
f 62 63 70
f 62 70 71
f 62 71 69
f 65 72 66
f 67 72 78
f 67 78 73
f 67 73 80
f 67 80 74
f 69 71 76
f 69 76 75
f 70 76 71
f 72 77 78
f 73 78 85
f 73 85 79
f 73 79 80
f 75 76 81
f 76 82 81
f 76 83 82
f 77 84 78
f 78 84 85
f 79 85 87
f 79 87 88
f 79 88 86
f 81 82 89
f 82 83 90
f 82 90 89
f 83 91 90
f 85 92 87
f 86 88 93
f 87 92 88
f 88 92 94
f 88 94 95
f 88 95 93
f 89 90 96
f 89 96 97
f 90 91 96
f 91 98 96
f 92 99 94
f 94 99 100
f 94 100 101
f 94 101 95
f 96 98 102
f 96 102 103
f 96 103 97
f 97 103 109
f 97 109 104
f 99 105 106
f 99 106 107
f 99 107 100
f 100 107 101
f 102 108 103
f 103 108 109
f 104 110 111
f 104 109 110
f 105 112 106
f 106 112 114
f 106 114 107
f 107 114 113
f 108 110 109
f 108 115 110
f 110 115 116
f 110 116 111
f 111 117 118
f 111 116 117
f 112 119 121
f 112 121 114
f 113 114 120
f 114 121 120
f 115 121 116
f 116 121 117
f 117 121 119
f 117 119 118

