# https://github.com/mikedh/trimesh
v 29.72604236 -19.45044439 12.59874867
v 29.72604236 -19.44663535 13.00402142
v 29.72604236 -19.44663535 12.18473397
v 29.93268039 -19.13437260 12.18473397
v 29.93495133 -19.13056647 13.00402142
v 29.72604236 19.45272071 13.00402142
v 29.72604236 19.44891167 12.18473397
v 30.24206681 -18.64313441 12.18473397
v 30.19551546 -18.71929485 13.00402142
v 29.93608680 19.13284279 13.00402142
v 29.93608680 19.13284279 12.18473397
v 30.63774020 -17.98053014 12.18473397
v 30.30280862 -18.54412554 13.00402142
v 30.24320227 18.64541073 13.00402142
v 30.24149907 18.64921977 12.18473397
v 31.01184257 -17.33696816 12.18473397
v 30.63887567 -17.98053014 13.00402142
v 30.57983706 18.08181823 13.00402142
v 30.64228208 17.97519129 12.18473397
v 31.01297514 -17.33315912 13.00402142
v 30.69621107 -17.88152128 13.00402142
v 31.27865179 -16.84572707 12.18473397
v 31.23834552 -16.92189041 13.00402142
v 30.64057887 17.97900032 13.00402142
v 31.01411061 17.33162931 12.18473397
v 31.69816714 -16.03841999 12.18473397
v 31.34280001 -16.72386978 13.00402142
v 31.27865179 -16.84572707 13.00402142
v 31.01411061 17.33162931 13.00402142
v 31.05441688 17.25927790 13.00402142
v 31.27921952 16.84800629 13.00402142
v 31.28035499 16.84419725 12.18473397
v 31.74698942 -15.93940822 13.00402142
v 31.69930261 -16.03461095 13.00402142
v 32.00812129 -15.41770643 12.18473397
v 31.70157355 16.03308113 12.18473397
v 31.63572212 16.15874746 13.00402142
v 32.00925676 -15.41389739 13.00402142
v 32.23803355 -14.92646533 12.18473397
v 32.20283689 -15.00262578 13.00402142
v 31.70043808 16.03308113 13.00402142
v 32.00982449 15.41236757 13.00402142
v 32.00982449 15.41236757 12.18473397
v 32.29480122 -14.80079901 13.00402142
v 32.23803355 -14.92646533 13.00402142
v 32.61042982 -14.09630693 12.18473397
v 32.04445341 15.34001327 13.00402142
v 32.23916901 14.92493552 12.18473397
v 32.61156529 -14.09250079 13.00402142
v 32.93230640 -13.33088766 12.18473397
v 32.23803355 14.92493552 13.00402142
v 32.61270076 14.08716194 12.18473397
v 32.61099755 14.09096808 13.00402142
v 32.93344187 -13.32707862 13.00402142
v 33.09807043 -12.91580701 13.00402142
v 33.12758974 -12.83964657 12.18473397
v 32.88405474 13.44359996 13.00402142
v 32.93344187 13.32554881 12.18473397
v 33.12758974 -12.83964657 13.00402142
v 33.38474746 -12.15038774 12.18473397
v 33.16732537 -12.73682866 13.00402142
v 32.93344187 13.32554881 13.00402142
v 33.12588653 12.84192578 12.18473397
v 33.38588293 -12.14657943 13.00402142
v 33.72194998 -11.17933194 12.18473397
v 33.43754389 -11.99806540 13.00402142
v 33.12702200 12.83811675 13.00402142
v 33.38474746 12.14504961 13.00402142
v 33.38588293 12.14124130 12.18473397
v 33.95015903 -10.47484059 12.18473397
v 33.75828210 -11.06889813 13.00402142
v 33.72308545 -11.17552362 13.00402142
v 33.72194998 11.17399381 13.00402142
v 33.72308545 11.17018549 12.18473397
v 34.09775556 -9.98360022 12.18473397
v 34.07504907 -10.05976139 13.00402142
v 33.95129450 -10.47103227 13.00402142
v 33.95072677 10.46950173 13.00402142
v 33.95072677 10.46950173 12.18473397
v 34.09775556 -9.98360022 13.00402142
v 34.30666163 -9.23341202 12.18473397
v 34.30779710 -9.23341202 13.00402142
v 34.09718782 9.98206967 13.00402142
v 34.09605235 9.98587799 12.18473397
v 34.55303529 -8.26235622 12.18473397
v 34.55417076 -8.25854791 13.00402142
v 34.30722936 9.23188148 13.00402142
v 34.30779710 9.22807389 12.18473397
v 34.77102512 -7.29130041 12.18473397
v 34.58766421 -8.11003388 13.00402142
v 34.51670317 8.40934042 13.00402142
v 34.55473850 8.25320978 12.18473397
v 34.79657028 -7.16563409 13.00402142
v 34.77216059 -7.28749210 13.00402142
v 34.93111181 -6.48779947 12.18473397
v 34.55417076 8.25701809 13.00402142
v 34.73980261 7.43447631 13.00402142
v 34.77329606 7.28596228 13.00402142
v 34.77329606 7.28215397 12.18473397
v 34.93167954 -6.48399116 13.00402142
v 35.01966973 -5.99655910 12.18473397
v 35.00604409 -6.07272027 13.00402142
v 34.93224728 6.48626893 12.18473397
v 34.93224728 6.48626893 13.00402142
v 35.03556630 -5.89754951 13.00402142
v 35.01966973 -5.99655910 13.00402142
v 35.12242101 -5.34538050 12.18473397
v 34.94587001 6.41391535 13.00402142
v 35.02023746 6.00264482 12.18473397
v 35.12242101 -5.34538050 13.00402142
v 35.14285656 -5.19686611 13.00402142
v 35.25525643 -4.37813264 12.18473397
v 35.25582417 -4.37432469 13.00402142
v 35.02023746 5.99883687 13.00402142
v 35.12412421 5.34385032 13.00402142
v 35.12469194 5.34004201 12.18473397
v 35.36311732 -3.40326889 12.18473397
v 35.36311732 -3.39946058 13.00402142
v 35.25752737 4.37279451 13.00402142
v 35.25809510 4.36898620 12.18473397
v 35.44259148 -2.43221291 12.18473397
v 35.44259148 -2.42840478 13.00402142
v 35.36482053 3.39793040 13.00402142
v 35.36538826 3.39412245 12.18473397
v 35.49595275 -1.46115702 12.18473397
v 35.49595275 -1.45734898 13.00402142
v 35.43180742 2.57538898 13.00402142
v 35.44429469 2.42306647 12.18473397
v 35.52433948 -0.49010112 12.18473397
v 35.50049463 -1.30883450 13.00402142
v 35.44372695 2.42687460 13.00402142
v 35.49708822 1.45581870 13.00402142
v 35.49708822 1.45201057 12.18473397
v 35.52433948 -0.48629308 13.00402142
v 35.52490722 0.48095473 12.18473397
v 35.52036534 0.63327720 13.00402142
v 35.52433948 0.48476281 13.00402142
f 1 2 6
f 1 6 7
f 1 7 3
f 1 3 4
f 1 4 5
f 1 5 2
f 2 5 9
f 2 9 13
f 2 13 17
f 2 17 21
f 2 21 20
f 2 20 23
f 2 23 28
f 2 28 27
f 2 27 34
f 2 34 33
f 2 33 38
f 2 38 40
f 2 40 45
f 2 45 44
f 2 44 49
f 2 49 54
f 2 54 55
f 2 55 59
f 2 59 61
f 2 61 64
f 2 64 66
f 2 66 72
f 2 72 71
f 2 71 77
f 2 77 76
f 2 76 80
f 2 80 82
f 2 82 86
f 2 86 90
f 2 90 94
f 2 94 93
f 2 93 100
f 2 100 102
f 2 102 106
f 2 106 105
f 2 105 110
f 2 110 111
f 2 111 113
f 2 113 118
f 2 118 122
f 2 122 126
f 2 126 130
f 2 130 134
f 2 134 137
f 2 137 136
f 2 136 132
f 2 132 131
f 2 131 127
f 2 127 123
f 2 123 119
f 2 119 115
f 2 115 114
f 2 114 108
f 2 108 104
f 2 104 98
f 2 98 97
f 2 97 96
f 2 96 91
f 2 91 87
f 2 87 83
f 2 83 78
f 2 78 73
f 2 73 68
f 2 68 67
f 2 67 62
f 2 62 57
f 2 57 53
f 2 53 51
f 2 51 47
f 2 47 42
f 2 42 41
f 2 41 37
f 2 37 31
f 2 31 30
f 2 30 29
f 2 29 24
f 2 24 18
f 2 18 14
f 2 14 10
f 2 10 6
f 3 7 11
f 3 11 15
f 3 15 19
f 3 19 25
f 3 25 32
f 3 32 36
f 3 36 43
f 3 43 48
f 3 48 52
f 3 52 58
f 3 58 63
f 3 63 69
f 3 69 74
f 3 74 79
f 3 79 84
f 3 84 88
f 3 88 92
f 3 92 99
f 3 99 103
f 3 103 109
f 3 109 116
f 3 116 120
f 3 120 124
f 3 124 128
f 3 128 133
f 3 133 135
f 3 135 129
f 3 129 125
f 3 125 121
f 3 121 117
f 3 117 112
f 3 112 107
f 3 107 101
f 3 101 95
f 3 95 89
f 3 89 85
f 3 85 81
f 3 81 75
f 3 75 70
f 3 70 65
f 3 65 60
f 3 60 56
f 3 56 50
f 3 50 46
f 3 46 39
f 3 39 35
f 3 35 26
f 3 26 22
f 3 22 16
f 3 16 12
f 3 12 8
f 3 8 4
f 4 8 9
f 4 9 5
f 6 10 11
f 6 11 7
f 8 12 13
f 8 13 9
f 10 14 15
f 10 15 11
f 12 16 17
f 12 17 13
f 14 18 15
f 15 18 19
f 16 20 21
f 16 21 17
f 16 22 23
f 16 23 20
f 18 24 19
f 19 24 25
f 22 26 27
f 22 27 28
f 22 28 23
f 24 29 25
f 25 29 30
f 25 30 31
f 25 31 32
f 26 33 34
f 26 34 27
f 26 35 33
f 31 36 32
f 31 37 36
f 33 35 38
f 35 39 40
f 35 40 38
f 36 41 42
f 36 42 43
f 36 37 41
f 39 44 45
f 39 45 40
f 39 46 44
f 42 47 43
f 43 47 48
f 44 46 49
f 46 50 54
f 46 54 49
f 47 51 48
f 48 51 53
f 48 53 52
f 50 55 54
f 50 56 55
f 52 53 57
f 52 57 58
f 55 56 59
f 56 60 61
f 56 61 59
f 57 62 58
f 58 62 63
f 60 64 61
f 60 65 66
f 60 66 64
f 62 67 63
f 63 67 68
f 63 68 69
f 65 70 71
f 65 71 72
f 65 72 66
f 68 73 74
f 68 74 69
f 70 75 76
f 70 76 77
f 70 77 71
f 73 78 79
f 73 79 74
f 75 80 76
f 75 81 82
f 75 82 80
f 78 83 84
f 78 84 79
f 81 85 82
f 82 85 86
f 83 87 84
f 84 87 88
f 85 89 90
f 85 90 86
f 87 91 88
f 88 91 92
f 89 93 94
f 89 94 90
f 89 95 93
f 91 96 92
f 92 96 97
f 92 97 98
f 92 98 99
f 93 95 100
f 95 101 102
f 95 102 100
f 98 103 99
f 98 104 103
f 101 105 106
f 101 106 102
f 101 107 105
f 103 104 108
f 103 108 109
f 105 107 110
f 107 111 110
f 107 112 113
f 107 113 111
f 108 114 109
f 109 115 116
f 109 114 115
f 112 117 113
f 113 117 118
f 115 119 120
f 115 120 116
f 117 121 122
f 117 122 118
f 119 123 124
f 119 124 120
f 121 125 126
f 121 126 122
f 123 127 124
f 124 127 128
f 125 129 130
f 125 130 126
f 127 131 128
f 128 131 132
f 128 132 133
f 129 134 130
f 129 135 134
f 132 135 133
f 132 136 135
f 134 135 137
f 135 136 137

