# https://github.com/mikedh/trimesh
v -27.66416757 0.52308906 8.77964115
v -27.65791090 0.52308906 8.77964115
v -27.66416757 0.52308906 9.26944842
v -27.66416757 22.28678689 8.77964115
v -27.66208201 0.52308906 9.21727187
v -25.00128931 2.67163377 8.77964115
v -25.00128931 2.67163377 9.15644606
v -27.66416757 0.87634095 9.67183036
v -27.66286410 0.52308906 9.26448364
v -25.00128931 2.75873759 9.81690104
v -25.00128931 2.79744999 9.98577024
v -27.66416757 22.28678689 10.07968397
v -27.49420056 22.49970621 10.07968397
v -27.41573442 22.59648759 8.77964115
v -27.66260340 0.52308906 9.25863250
v -25.00128931 25.23861746 8.77964115
v -25.00128931 2.67405388 9.26448364
v -27.66416757 0.88359912 9.67946581
v -25.00128931 2.91358721 10.06657683
v -27.66416757 1.44735021 10.07968397
v -27.41599511 22.59648759 10.07968397
v -27.35004231 22.67633252 10.07968397
v -27.00750714 23.08281315 8.77964115
v -25.12277004 25.12248097 8.77964115
v -25.00128931 25.24103613 10.07968397
v -25.00128931 2.93294378 10.07968397
v -27.00776783 23.08281315 10.07968397
v -27.00776783 23.08281315 9.26448364
v -26.52159290 23.63930607 8.77964115
v -25.12303074 25.12248097 9.26448364
v -25.59668944 24.63615252 8.77964115
v -25.12303074 25.12248097 10.07968397
v -26.60005904 23.54978358 10.07968397
v -26.52185360 23.63930607 10.07968397
v -26.08286437 24.12563162 8.77964115
v -25.67515558 24.55388893 10.07968397
v -25.59668944 24.63615252 10.07968397
v -26.08260367 24.12563162 10.07968397
v -26.08286437 24.12563162 9.26448364
f 1 2 5
f 1 5 15
f 1 15 9
f 1 9 3
f 1 3 8
f 1 8 18
f 1 18 20
f 1 20 12
f 1 12 4
f 1 4 14
f 1 14 23
f 1 23 29
f 1 29 35
f 1 35 31
f 1 31 24
f 1 24 16
f 1 16 6
f 1 6 2
f 2 6 7
f 2 7 5
f 3 9 10
f 3 10 11
f 3 11 8
f 4 12 13
f 4 13 14
f 5 7 15
f 6 16 25
f 6 25 26
f 6 26 19
f 6 19 11
f 6 11 10
f 6 10 17
f 6 17 7
f 7 17 15
f 8 11 18
f 9 15 17
f 9 17 10
f 11 19 20
f 11 20 18
f 12 20 26
f 12 26 25
f 12 25 32
f 12 32 37
f 12 37 36
f 12 36 38
f 12 38 34
f 12 34 33
f 12 33 27
f 12 27 22
f 12 22 21
f 12 21 13
f 13 21 14
f 14 21 22
f 14 22 23
f 16 24 25
f 19 26 20
f 22 27 28
f 22 28 23
f 23 28 29
f 24 30 25
f 24 31 30
f 25 30 32
f 27 33 28
f 28 33 29
f 29 33 34
f 29 34 35
f 30 31 37
f 30 37 32
f 31 35 36
f 31 36 37
f 34 38 39
f 34 39 35
f 35 39 36
f 36 39 38

