# https://github.com/mikedh/trimesh
v -0.00671643 35.52531753 11.32163248
v -0.00671643 35.52416469 10.07980273
v -0.48663759 35.52416469 10.07980273
v -0.48663759 35.52416469 11.32163248
v -0.00671643 29.62443424 11.32163248
v -0.00671643 27.92612845 10.07980273
v -0.59931482 35.52186188 11.32163248
v -1.45899904 35.49883387 10.07980273
v -2.65671494 23.76384851 10.07980273
v -0.00671643 27.93533966 10.11056179
v -4.45954834 23.76384851 11.32163248
v -1.45899904 35.49883387 11.32163248
v -2.42996976 35.44471949 10.07980273
v -14.21794163 23.76384851 10.07980273
v -14.21794163 23.76384851 11.32163248
v -2.42996976 35.44471949 11.32163248
v -2.54403771 35.43550829 11.32163248
v -3.24513967 35.37678830 10.07980273
v -14.21794163 32.55702700 10.07980273
v -14.21794163 32.55702700 11.32163248
v -3.40233120 35.36297150 11.32163248
v -3.40233120 35.36297150 10.07980273
v -14.09274456 32.61229423 10.07980273
v -14.09274456 32.61229423 11.32163248
v -4.21750148 35.27431220 10.07980273
v -4.37469301 35.25704264 10.23650619
v -4.37469301 35.25588979 11.32163248
v -13.41668122 32.89668874 11.32163248
v -13.32626223 32.93353356 10.07980273
v -4.37469301 35.25704264 10.07980273
v -5.34705446 35.12117736 11.32163248
v -4.48737024 35.24092303 11.32163248
v -13.32765405 32.93353356 11.32163248
v -13.32765405 32.93353356 11.20833176
v -13.27061989 32.95656157 11.32163248
v -12.84077669 33.12581601 10.07980273
v -5.34705446 35.12117736 10.07980273
v -5.42217285 35.10966336 11.32163248
v -12.84077669 33.12581601 11.32163248
v -12.72949056 33.16841639 10.07980273
v -5.88818270 35.03482377 10.07980273
v -5.99251336 35.01755131 11.32163248
v -12.22870371 33.35494329 11.32163248
v -12.14802166 33.38487971 10.07980273
v -5.99112226 35.01755131 10.07980273
v -5.99251336 35.01755131 10.23650619
v -6.07041358 35.00373450 10.07980273
v -6.42096437 34.94040891 11.32163248
v -12.14802166 33.38487971 11.32163248
v -11.17705059 33.72338859 10.07980273
v -6.47799853 34.93004776 10.07980273
v -6.47799853 34.93004776 11.32163248
v -11.17705059 33.72338859 11.32163248
v -10.46760242 33.95021307 10.07980273
v -6.57259153 34.91162535 11.32163248
v -7.15823444 34.79648528 10.07980273
v -10.46760242 33.95021307 11.32163248
v -10.41056826 33.96748263 11.32163248
v -10.06001746 34.07225864 10.07980273
v -7.28899589 34.77000162 11.32163248
v -7.28899589 34.77000162 10.07980273
v -9.98072651 34.09528665 11.32163248
v -9.98211688 34.09528665 10.23650619
v -9.98211688 34.09528665 10.07980273
v -8.10416581 34.58808322 10.07980273
v -8.26135734 34.55239125 11.32163248
v -9.31996593 34.28066070 11.32163248
v -9.23232769 34.30484156 10.07980273
v -8.26135734 34.55239125 10.07980273
v -9.07652726 34.34513914 10.07980273
v -9.23232769 34.30484156 11.32163248
f 1 2 3
f 1 3 4
f 1 4 7
f 1 7 12
f 1 12 16
f 1 16 17
f 1 17 21
f 1 21 27
f 1 27 32
f 1 32 31
f 1 31 38
f 1 38 42
f 1 42 48
f 1 48 52
f 1 52 55
f 1 55 60
f 1 60 66
f 1 66 71
f 1 71 67
f 1 67 62
f 1 62 58
f 1 58 57
f 1 57 53
f 1 53 49
f 1 49 43
f 1 43 39
f 1 39 35
f 1 35 33
f 1 33 28
f 1 28 24
f 1 24 20
f 1 20 15
f 1 15 11
f 1 11 5
f 1 5 10
f 1 10 6
f 1 6 2
f 2 6 9
f 2 9 14
f 2 14 19
f 2 19 23
f 2 23 29
f 2 29 36
f 2 36 40
f 2 40 44
f 2 44 50
f 2 50 54
f 2 54 59
f 2 59 64
f 2 64 68
f 2 68 70
f 2 70 69
f 2 69 65
f 2 65 61
f 2 61 56
f 2 56 51
f 2 51 47
f 2 47 45
f 2 45 41
f 2 41 37
f 2 37 30
f 2 30 25
f 2 25 22
f 2 22 18
f 2 18 13
f 2 13 8
f 2 8 3
f 3 7 4
f 3 8 7
f 5 9 10
f 5 11 9
f 6 10 9
f 7 8 12
f 8 13 16
f 8 16 12
f 9 11 15
f 9 15 14
f 13 17 16
f 13 18 17
f 14 15 20
f 14 20 19
f 17 18 21
f 18 22 21
f 19 20 24
f 19 24 23
f 21 22 25
f 21 25 26
f 21 26 27
f 23 24 28
f 23 28 29
f 25 30 26
f 26 30 37
f 26 37 31
f 26 31 32
f 26 32 27
f 28 33 34
f 28 34 29
f 29 34 35
f 29 35 36
f 31 37 38
f 33 35 34
f 35 39 36
f 36 39 40
f 37 41 38
f 38 41 42
f 39 43 40
f 40 43 44
f 41 45 46
f 41 46 42
f 42 46 47
f 42 47 48
f 43 49 44
f 44 49 53
f 44 53 50
f 45 47 46
f 47 51 48
f 48 51 52
f 50 53 57
f 50 57 54
f 51 55 52
f 51 56 55
f 54 57 58
f 54 58 59
f 55 56 60
f 56 61 60
f 58 62 59
f 59 62 63
f 59 63 64
f 60 61 65
f 60 65 66
f 62 67 63
f 63 67 64
f 64 67 68
f 65 69 66
f 66 69 70
f 66 70 71
f 67 71 68
f 68 71 70

