# https://github.com/mikedh/trimesh
v 0.00579980 -20.08183773 17.46529765
v 0.00757469 -20.08183773 15.64563859
v 4.79697331 -26.15130346 15.64563859
v 0.00579980 -20.08183773 18.37699839
v 0.00579980 20.07995453 17.46529765
v 0.00757469 20.08511917 15.64563859
v 18.14089839 -26.15130346 15.64563859
v 4.79697331 -26.15130346 16.55760582
v 4.80939975 -23.88881282 18.37699839
v 0.00579980 20.07478843 18.37699839
v 0.00579980 20.07995453 18.19225290
v 0.00757469 20.08511917 16.55760582
v 4.64253392 26.61948137 16.55760582
v 4.81472516 23.92825404 15.64563859
v 18.14089839 -26.15130346 16.55760582
v 18.14089839 23.92825404 15.64563859
v 14.23908265 -23.88881282 18.37699839
v 4.94076189 24.99234808 18.37699839
v 4.64430918 26.61948137 17.46503117
v 4.64253392 26.61948137 17.16184348
v 16.92668488 26.61948137 16.55760582
v 16.92490926 -24.50867333 17.46529765
v 18.14089839 23.92825404 16.55760582
v 16.92668488 22.04801102 17.46503117
v 14.23908265 24.99234808 18.37699839
v 16.92668488 26.61948137 17.46503117
f 1 2 3
f 1 3 8
f 1 8 4
f 1 4 10
f 1 10 11
f 1 11 5
f 1 5 6
f 1 6 2
f 2 6 14
f 2 14 16
f 2 16 7
f 2 7 3
f 3 7 15
f 3 15 8
f 4 8 9
f 4 9 17
f 4 17 25
f 4 25 18
f 4 18 10
f 5 11 12
f 5 12 6
f 6 12 20
f 6 20 13
f 6 13 14
f 7 16 23
f 7 23 15
f 8 15 17
f 8 17 9
f 10 18 19
f 10 19 11
f 11 19 20
f 11 20 12
f 13 20 19
f 13 19 26
f 13 26 21
f 13 21 16
f 13 16 14
f 15 22 17
f 15 23 26
f 15 26 24
f 15 24 22
f 16 21 26
f 16 26 23
f 17 22 24
f 17 24 26
f 17 26 25
f 18 25 26
f 18 26 19

