# https://github.com/mikedh/trimesh
v 26.63782657 4.87754646 19.27023327
v 27.63464406 4.17326511 18.37700129
v 29.93452553 0.00559893 18.37700129
v 29.94233188 0.00559893 18.50384074
v 29.95361126 0.00559893 18.68411677
v 29.97269699 0.00559893 18.98393570
v 30.02735304 0.00559893 19.26787254
v 30.08200908 0.01360225 19.55417011
v 26.63782657 5.32372507 19.99713638
v 26.63782657 20.44576971 19.27023327
v 27.63464406 20.14765109 18.37700129
v 35.49986896 0.00559893 18.37700129
v 30.18004179 0.00559893 19.27023327
v 32.55887024 0.01360225 20.56543876
v 31.58720977 0.01360225 20.51843844
v 31.07015124 0.01360225 20.45662778
v 30.58605607 0.01360225 20.03984393
v 26.63782657 5.35973928 20.03533971
v 26.63782657 5.33973134 20.01967197
v 26.63782657 20.44576971 20.53238850
v 28.78935550 20.44576971 19.27023327
v 29.23701137 20.14765109 18.37700129
v 35.49292869 0.00559893 18.49246577
v 35.50073794 0.48779176 18.37700129
v 35.36366478 0.00559893 19.27023327
v 33.53139390 0.01360225 20.55020262
v 32.55887024 4.37534606 20.56543876
v 26.63782657 7.29251223 20.56951718
v 26.63782657 7.18847051 20.56565311
v 26.63782657 6.25609815 20.50620608
v 26.63782657 6.19807480 20.49032399
v 26.74800475 20.44576971 20.53153110
v 26.63782657 19.92356101 20.55878526
v 26.72891902 19.92356101 20.55814221
v 28.51347412 20.44576971 19.83681797
v 29.30554795 19.65345256 19.65503860
v 29.19016457 20.14765109 18.98393570
v 29.43741591 19.85153112 18.37700129
v 35.46083141 0.00559893 18.98393570
v 35.47297687 1.46018072 18.37700129
v 35.46083141 0.48779176 18.98393570
v 35.19362536 0.01360225 19.77178918
v 34.63925855 0.01360225 20.25768024
v 34.40328369 0.01360225 20.36992370
v 34.15256223 0.01360225 20.48817761
v 33.85065484 0.01360225 20.51843844
v 33.53139390 0.48779176 20.55020262
v 32.55887024 5.34773466 20.56501007
v 31.58720977 9.23528861 20.56543876
v 26.63782657 8.17286374 20.56951718
v 27.42816534 20.44576971 20.47873468
v 27.70057659 18.95117204 20.54762754
v 27.68409490 19.88354441 20.49676315
v 26.63782657 18.95117204 20.56543876
v 26.72891902 18.95117204 20.56543876
v 27.70057659 17.97878308 20.56415267
v 28.67310314 17.00639556 20.55857091
v 27.88623451 20.44576971 20.32013395
v 28.66442781 19.91755924 20.01773994
v 28.92469359 18.95117204 20.33193761
v 29.63521930 18.88314382 19.79861753
v 30.31711495 17.97878308 19.69259599
v 30.16095606 18.51299676 19.51618113
v 29.41399396 19.81551763 18.98393570
v 29.90069028 19.07722217 18.98393570
v 29.61960370 19.57342080 18.37700129
v 35.36453376 0.48779176 19.27023327
v 35.43220136 1.46018072 18.98393570
v 35.41918691 2.43256969 18.37700129
v 35.38101545 2.43256969 18.98393570
v 35.33850487 1.46018072 19.27023327
v 35.17887584 1.46018072 19.75504969
v 35.19362536 0.48779176 19.77200352
v 34.63925855 0.48779176 20.25768024
v 34.15342831 0.48779176 20.48817761
v 33.53139390 1.46018072 20.54784189
v 32.55887024 6.32012327 20.56350673
v 31.58720977 10.20567602 20.56286368
v 30.61728727 12.14645229 20.56501007
v 29.64476071 14.09122877 20.56543876
v 28.67310314 16.03400515 20.56543876
v 27.99641268 20.18166303 20.38044127
v 28.24539909 19.53340565 20.46092055
v 28.43886336 18.95117204 20.48560253
v 29.64476071 16.03400515 20.53625257
v 28.74337479 18.04280964 20.50942421
v 29.64476071 15.06161763 20.56071730
v 29.11295266 18.40895504 20.43388074
v 29.92932033 17.21447755 20.36863760
v 29.62133876 18.04280964 20.22656201
v 30.57477669 16.93436568 19.97181136
v 31.32954804 16.03400515 19.74968518
v 31.17165408 16.65225370 19.57520236
v 30.97905590 17.26849924 18.98393570
v 30.57217554 17.97878308 18.98393570
v 30.18351193 18.54901170 19.27023327
v 29.92324614 19.10923545 18.37700129
v 30.20953793 18.59102696 18.98393570
v 35.15458491 2.43256969 19.72393146
v 35.34023993 3.40295710 18.37700129
v 35.11467838 3.40495793 19.67285272
v 35.30206847 3.40295710 18.98393570
v 35.06175740 4.37534606 19.59323084
v 34.62797916 1.46018072 20.24072641
v 34.60889343 2.43256969 20.20981963
v 34.09704009 3.40495793 20.47487060
v 34.12306609 2.43256969 20.48152411
v 34.14215183 1.46018072 20.48603122
v 33.53139390 2.43256969 20.54354912
v 32.55887024 7.29251223 20.55835656
v 31.58720977 11.17406333 20.55106001
v 30.61728727 13.11884126 20.55943120
v 29.28212600 17.76269632 20.47379886
v 29.62133876 16.93636723 20.49096704
v 30.61728727 14.09122877 20.53625257
v 30.60861193 15.00159418 20.49332777
v 30.25725371 16.03400515 20.47444191
v 30.15141175 16.56621872 20.45040588
v 30.92700390 15.28570771 20.38559143
v 30.74395003 16.03400515 20.23557624
v 31.55337742 14.99959262 19.97760747
v 32.27517961 14.09122877 19.73294570
v 32.13810645 14.71547909 19.56983495
v 31.97327223 15.34172951 18.98393570
v 31.62798529 16.03400515 18.98393570
v 31.20895946 16.72028047 19.27023327
v 31.00074568 17.31051595 18.37700129
v 31.24366079 16.78230548 18.98393570
v 30.61381713 17.97878308 18.37700129
v 30.23035873 18.62504180 18.37700129
v 34.58373641 3.40495793 20.15874379
v 35.27430740 4.01120005 18.37700129
v 34.54903508 4.37534606 20.07911900
v 35.19622651 4.37534606 18.98393570
v 35.01751175 5.05361698 19.52025955
v 34.33041090 7.29251223 19.86300038
v 34.42757463 6.32012327 19.92330770
v 34.06320485 4.37534606 20.46285259
v 34.03544378 5.04761449 20.45040588
v 33.53139390 3.40495793 20.53689561
v 33.53139390 4.37534606 20.52466325
v 32.55887024 8.26490047 20.54590985
v 32.25435881 11.17406333 20.48925225
v 31.67483498 12.23048571 20.50620608
v 31.42758075 13.11884126 20.49740619
v 32.55887024 9.23528861 20.52144222
v 31.21329568 14.09122877 20.47444191
v 31.12393830 14.63944899 20.45169197
v 31.91427707 13.11884126 20.38516274
v 31.69999200 14.09122877 20.21883386
v 32.05742441 12.60863609 20.43924525
v 32.58489624 13.03880805 19.82458560
v 33.14880447 12.14645229 19.62048500
v 33.05597696 12.66065767 19.48849828
v 32.54325175 14.09122877 18.98393570
v 32.20317290 14.85553575 18.98393570
v 31.99495911 15.38574632 18.37700129
v 31.67223093 16.03400515 18.37700129
v 31.16557990 17.00639556 18.37700129
v 31.26448159 16.82232209 18.37700129
v 33.97384747 5.69587368 20.43409509
v 35.23353189 4.37534606 18.37700129
v 35.00883642 5.94797466 18.66608829
v 35.06002233 5.36574177 18.98758252
v 34.98107536 5.65785863 19.27023327
v 34.96806091 5.70187617 19.31422981
v 34.09877516 9.23528861 19.59838100
v 34.22022982 8.26490047 19.75891376
v 33.66066071 8.26490047 20.24480483
v 33.76129747 7.29251223 20.34889144
v 33.88362111 6.32012327 20.40919877
v 33.27459825 7.29251223 20.49654880
v 33.39779088 6.32012327 20.50169896
v 33.08981221 9.23528861 20.45963446
v 33.17483047 8.26490047 20.48388484
v 32.14504672 11.96037726 20.46735971
v 33.04730163 9.73348735 20.44289498
v 32.89027376 10.37774524 20.39632336
v 32.74018615 11.17406333 20.30124808
v 33.31710883 11.17406333 19.81535702
v 34.02936960 9.76149897 19.49171640
v 33.65458653 11.17606416 18.98393570
v 33.31710883 12.14845312 18.98393570
v 33.07245865 12.70267438 19.27023327
v 32.89894909 13.24288983 18.98393570
v 32.91976989 13.29290986 18.37700129
v 32.58402726 14.09122877 18.37700129
v 32.35152544 14.61343747 18.37700129
v 32.22399370 14.89755101 18.37700129
v 35.15111478 4.98358901 18.37700129
v 34.97153104 5.71988328 19.27023327
v 35.09992887 5.35373716 18.37700129
v 35.01404162 5.96998342 18.37700129
v 34.74857064 7.29251223 18.37700129
v 34.70866411 7.29251223 18.98393570
v 34.90559851 6.29011154 18.98758252
v 34.48917384 8.26289964 18.98393570
v 34.24365467 9.23528861 18.98393570
v 34.04585418 9.81552066 19.27023327
v 33.91658738 10.36574026 18.98393570
v 33.69623102 11.17606416 18.37700129
v 33.35788434 12.14845312 18.37700129
v 33.09414843 12.75669607 18.98393570
v 33.11410314 12.80671610 18.37700129
v 34.61236356 7.89875435 18.37700129
v 34.52994645 8.26289964 18.37700129
v 34.28269512 9.23528861 18.37700129
v 34.06580600 9.88154661 18.98393570
v 33.93740817 10.42776527 18.37700129
v 34.08489463 9.94557245 18.37700129
f 1 2 3
f 1 3 4
f 1 4 5
f 1 5 6
f 1 6 7
f 1 7 8
f 1 8 9
f 1 9 19
f 1 19 18
f 1 18 31
f 1 31 30
f 1 30 29
f 1 29 28
f 1 28 50
f 1 50 54
f 1 54 33
f 1 33 20
f 1 20 10
f 1 10 11
f 1 11 2
f 2 11 22
f 2 22 38
f 2 38 66
f 2 66 97
f 2 97 130
f 2 130 129
f 2 129 127
f 2 127 159
f 2 159 160
f 2 160 158
f 2 158 157
f 2 157 189
f 2 189 188
f 2 188 187
f 2 187 186
f 2 186 204
f 2 204 202
f 2 202 201
f 2 201 209
f 2 209 210
f 2 210 207
f 2 207 206
f 2 206 205
f 2 205 194
f 2 194 193
f 2 193 192
f 2 192 190
f 2 190 162
f 2 162 132
f 2 132 100
f 2 100 69
f 2 69 40
f 2 40 24
f 2 24 12
f 2 12 3
f 3 12 23
f 3 23 39
f 3 39 25
f 3 25 13
f 3 13 7
f 3 7 6
f 3 6 5
f 3 5 4
f 7 13 14
f 7 14 15
f 7 15 16
f 7 16 17
f 7 17 8
f 8 17 18
f 8 18 19
f 8 19 9
f 10 20 32
f 10 32 51
f 10 51 58
f 10 58 35
f 10 35 21
f 10 21 22
f 10 22 11
f 12 24 23
f 13 25 14
f 14 25 26
f 14 26 47
f 14 47 27
f 14 27 50
f 14 50 28
f 14 28 29
f 14 29 15
f 15 29 30
f 15 30 16
f 16 30 31
f 16 31 18
f 16 18 17
f 20 33 34
f 20 34 32
f 21 35 36
f 21 36 37
f 21 37 22
f 22 37 38
f 23 24 39
f 24 40 41
f 24 41 39
f 25 39 42
f 25 42 43
f 25 43 44
f 25 44 45
f 25 45 46
f 25 46 26
f 26 46 47
f 27 48 49
f 27 49 50
f 27 47 48
f 32 34 52
f 32 52 53
f 32 53 51
f 33 54 55
f 33 55 34
f 34 55 56
f 34 56 57
f 34 57 52
f 35 58 59
f 35 59 36
f 36 59 60
f 36 60 61
f 36 61 62
f 36 62 63
f 36 63 37
f 37 64 38
f 37 63 64
f 38 64 65
f 38 65 66
f 39 41 67
f 39 67 42
f 40 68 41
f 40 69 70
f 40 70 68
f 41 68 71
f 41 71 72
f 41 72 67
f 42 73 43
f 42 67 73
f 43 73 74
f 43 74 44
f 44 74 75
f 44 75 45
f 45 75 46
f 46 75 47
f 47 75 76
f 47 76 77
f 47 77 48
f 48 77 49
f 49 77 78
f 49 78 79
f 49 79 80
f 49 80 50
f 50 80 81
f 50 81 55
f 50 55 54
f 51 82 58
f 51 53 83
f 51 83 82
f 52 84 53
f 52 57 85
f 52 85 86
f 52 86 84
f 53 84 83
f 55 81 56
f 56 81 87
f 56 87 57
f 57 87 85
f 58 82 59
f 59 82 60
f 60 82 88
f 60 88 89
f 60 89 90
f 60 90 61
f 61 90 62
f 62 90 89
f 62 89 91
f 62 91 92
f 62 92 93
f 62 93 63
f 63 93 94
f 63 94 95
f 63 95 96
f 63 96 65
f 63 65 64
f 65 97 66
f 65 96 98
f 65 98 97
f 67 72 73
f 68 70 99
f 68 99 71
f 69 100 102
f 69 102 70
f 70 101 99
f 70 102 103
f 70 103 101
f 71 99 72
f 72 104 73
f 72 99 105
f 72 105 104
f 73 104 74
f 74 104 106
f 74 106 107
f 74 107 108
f 74 108 75
f 75 108 76
f 76 108 109
f 76 109 77
f 77 110 78
f 77 109 110
f 78 111 112
f 78 112 79
f 78 110 111
f 79 112 87
f 79 87 80
f 80 87 81
f 82 83 88
f 83 84 113
f 83 113 88
f 84 86 114
f 84 114 113
f 85 87 115
f 85 115 116
f 85 116 117
f 85 117 114
f 85 114 86
f 87 112 115
f 88 113 118
f 88 118 89
f 89 118 119
f 89 119 120
f 89 120 91
f 91 120 92
f 92 120 119
f 92 119 121
f 92 121 122
f 92 122 123
f 92 123 93
f 93 123 124
f 93 124 125
f 93 125 126
f 93 126 94
f 94 127 95
f 94 126 128
f 94 128 127
f 95 127 129
f 95 129 98
f 95 98 96
f 97 98 130
f 98 129 130
f 99 101 131
f 99 131 105
f 100 132 102
f 101 103 133
f 101 133 131
f 102 132 134
f 102 134 135
f 102 135 103
f 103 135 136
f 103 136 137
f 103 137 133
f 104 105 138
f 104 138 106
f 105 131 139
f 105 139 138
f 106 140 107
f 106 138 141
f 106 141 140
f 107 140 109
f 107 109 108
f 109 140 110
f 110 140 141
f 110 141 142
f 110 142 111
f 111 143 144
f 111 144 145
f 111 145 115
f 111 115 112
f 111 142 146
f 111 146 143
f 113 114 118
f 114 117 118
f 115 145 147
f 115 147 116
f 116 147 117
f 117 147 148
f 117 148 118
f 118 148 119
f 119 148 149
f 119 149 150
f 119 150 121
f 121 150 122
f 122 150 149
f 122 149 151
f 122 151 152
f 122 152 153
f 122 153 154
f 122 154 123
f 123 154 155
f 123 155 156
f 123 156 124
f 124 156 157
f 124 157 158
f 124 158 125
f 125 158 128
f 125 128 126
f 127 128 159
f 128 158 160
f 128 160 159
f 131 133 161
f 131 161 139
f 132 162 134
f 133 137 161
f 134 162 163
f 134 163 164
f 134 164 165
f 134 165 166
f 134 166 135
f 135 166 167
f 135 167 168
f 135 168 136
f 136 168 169
f 136 169 170
f 136 170 171
f 136 171 161
f 136 161 137
f 138 139 172
f 138 172 173
f 138 173 141
f 139 161 174
f 139 174 175
f 139 175 172
f 141 173 172
f 141 172 142
f 142 172 175
f 142 175 146
f 143 176 145
f 143 145 144
f 143 146 175
f 143 175 174
f 143 174 177
f 143 177 176
f 145 176 147
f 147 176 151
f 147 151 148
f 148 151 149
f 151 176 177
f 151 177 178
f 151 178 179
f 151 179 180
f 151 180 152
f 152 180 153
f 153 180 181
f 153 181 154
f 154 181 182
f 154 182 183
f 154 183 184
f 154 184 185
f 154 185 155
f 155 185 186
f 155 186 187
f 155 187 156
f 156 187 188
f 156 188 189
f 156 189 157
f 161 171 177
f 161 177 174
f 162 190 163
f 163 191 164
f 163 190 192
f 163 192 193
f 163 193 194
f 163 194 195
f 163 195 196
f 163 196 191
f 164 191 165
f 165 191 166
f 166 191 196
f 166 196 195
f 166 195 181
f 166 181 167
f 167 181 180
f 167 180 168
f 168 180 177
f 168 177 169
f 169 177 170
f 170 177 171
f 177 180 178
f 178 180 179
f 181 195 197
f 181 197 198
f 181 198 199
f 181 199 200
f 181 200 182
f 182 201 183
f 182 200 201
f 183 202 203
f 183 203 184
f 183 201 202
f 184 203 185
f 185 203 186
f 186 203 204
f 194 205 195
f 195 205 197
f 197 205 206
f 197 206 198
f 198 207 208
f 198 208 199
f 198 206 207
f 199 208 200
f 200 208 209
f 200 209 201
f 202 204 203
f 207 210 208
f 208 210 209

