# https://github.com/mikedh/trimesh
v 0.48628145 35.52607355 17.46519338
v 0.48628145 35.52607355 16.55744361
v 0.00587656 35.52607355 17.46519338
v 1.03294981 35.51125162 17.46519338
v 0.97000006 35.51299538 16.55744361
v 0.00587656 35.52607355 16.55744361
v 0.00587656 29.91008297 17.46519338
v 1.45868852 35.49904532 17.46519338
v 1.45868852 35.49904532 16.55744361
v 0.00587656 35.43801095 16.55744361
v 0.00587656 29.91008297 16.55833286
v 4.64096070 26.61948137 16.96227027
v 4.64261756 26.61948137 17.46519338
v 2.43109559 35.44498598 17.46519338
v 2.43109559 35.44498598 16.55744361
v 0.48628145 29.91095485 16.55744361
v 4.64096070 26.61948137 16.55744361
v 16.92774504 26.61948137 17.46519338
v 2.97776395 35.39964831 17.46519338
v 2.91315770 35.40487958 16.55744361
v 16.92774504 26.61948137 16.55744361
v 16.92774504 31.23713374 17.46519338
v 3.40184616 35.36389841 17.46519338
v 3.40184616 35.36389841 16.55744361
v 16.92774504 31.23713374 16.55744361
v 16.84988718 31.27898679 17.46519338
v 4.37425287 35.25578261 17.46519338
v 4.37425287 35.25665449 17.03993116
v 3.88556477 35.31071384 16.55744361
v 16.84988718 31.27898679 16.55744361
v 16.44071271 31.49173377 16.55744361
v 16.03651026 31.70186510 17.46519338
v 5.34665994 35.12150758 17.46519338
v 4.37425287 35.25665449 16.55744361
v 16.03651026 31.70186510 16.55744361
v 15.72507450 31.85706522 16.55744361
v 15.41695245 32.01052158 17.46519338
v 5.99272241 35.01862305 17.46519338
v 5.99437927 35.01862305 17.03993116
v 5.34665994 35.12150758 16.55744361
v 15.41695245 32.01052158 16.55744361
v 15.14361863 32.13869347 17.46519338
v 6.20642020 34.98025751 17.46519338
v 5.99437927 35.01862305 16.55744361
v 14.93157843 32.23809048 16.55744361
v 14.93157843 32.23809048 17.46519338
v 6.47975401 34.93055756 17.46519338
v 6.47975401 34.93055756 16.55744361
v 14.50915199 32.42642486 16.55744361
v 14.56381962 32.40200938 17.46519338
v 7.28981722 34.77012618 17.46519338
v 6.88230105 34.85121375 16.55744361
v 14.09169612 32.61214071 16.55744361
v 14.09169612 32.61214071 17.46519338
v 7.28981722 34.77012618 16.55744361
v 7.83648558 34.64718556 17.46519338
v 8.26222429 34.55214793 16.55744361
v 7.77353583 34.66201038 16.55744361
v 13.75706869 32.75339078 17.46519338
v 13.70737163 32.77431585 16.55744361
v 8.26222429 34.55127606 17.46519338
v 8.80723579 34.41264163 17.46519338
v 9.23297450 34.30452583 16.55744361
v 13.32801771 32.93387825 17.03993116
v 13.32636085 32.93387825 17.46519338
v 13.32801771 32.93387825 16.55744361
v 9.23297450 34.30365396 17.46519338
v 9.65208722 34.18681648 17.46519338
v 9.97843109 34.09526637 17.46519338
v 9.97843109 34.09526637 16.55744361
v 13.08615696 33.02978775 16.55744361
v 12.84098539 33.12656913 17.46519338
v 10.19212887 34.03161637 17.46519338
v 10.22360411 34.02202571 16.55744361
v 12.84098539 33.12656913 16.55744361
v 12.49310598 33.25648478 16.55744361
v 12.14853884 33.38378479 17.46519338
v 10.46546341 33.94965692 17.46519338
v 10.46546341 33.94965692 16.55744361
v 12.14853884 33.38378479 16.55744361
v 11.72280014 33.53113800 17.46519338
v 11.17613178 33.72121614 17.03993116
v 10.81831267 33.83630696 16.55744361
v 11.17613178 33.72034426 17.46519338
v 11.17613178 33.72121614 16.55744361
f 1 2 6
f 1 6 3
f 1 3 7
f 1 7 13
f 1 13 18
f 1 18 22
f 1 22 26
f 1 26 32
f 1 32 37
f 1 37 42
f 1 42 46
f 1 46 50
f 1 50 54
f 1 54 59
f 1 59 65
f 1 65 72
f 1 72 77
f 1 77 81
f 1 81 84
f 1 84 78
f 1 78 73
f 1 73 69
f 1 69 68
f 1 68 67
f 1 67 62
f 1 62 61
f 1 61 56
f 1 56 51
f 1 51 47
f 1 47 43
f 1 43 38
f 1 38 33
f 1 33 27
f 1 27 23
f 1 23 19
f 1 19 14
f 1 14 8
f 1 8 4
f 1 4 5
f 1 5 2
f 2 5 9
f 2 9 15
f 2 15 20
f 2 20 24
f 2 24 29
f 2 29 34
f 2 34 40
f 2 40 44
f 2 44 48
f 2 48 52
f 2 52 55
f 2 55 58
f 2 58 57
f 2 57 63
f 2 63 70
f 2 70 74
f 2 74 79
f 2 79 83
f 2 83 85
f 2 85 80
f 2 80 76
f 2 76 75
f 2 75 71
f 2 71 66
f 2 66 60
f 2 60 53
f 2 53 49
f 2 49 45
f 2 45 41
f 2 41 36
f 2 36 35
f 2 35 31
f 2 31 30
f 2 30 25
f 2 25 21
f 2 21 17
f 2 17 16
f 2 16 10
f 2 10 6
f 3 6 10
f 3 10 11
f 3 11 7
f 4 8 9
f 4 9 5
f 7 11 17
f 7 17 12
f 7 12 13
f 8 14 15
f 8 15 9
f 10 16 11
f 11 16 17
f 12 17 21
f 12 21 18
f 12 18 13
f 14 19 15
f 15 19 20
f 18 21 25
f 18 25 22
f 19 23 24
f 19 24 20
f 22 25 30
f 22 30 26
f 23 27 28
f 23 28 29
f 23 29 24
f 26 30 31
f 26 31 32
f 27 33 28
f 28 34 29
f 28 33 40
f 28 40 34
f 31 35 32
f 32 35 36
f 32 36 37
f 33 38 39
f 33 39 44
f 33 44 40
f 36 41 37
f 37 41 42
f 38 43 39
f 39 43 44
f 41 45 42
f 42 45 46
f 43 47 48
f 43 48 44
f 45 49 46
f 46 49 50
f 47 51 52
f 47 52 48
f 49 53 54
f 49 54 50
f 51 55 52
f 51 56 57
f 51 57 58
f 51 58 55
f 53 59 54
f 53 60 59
f 56 61 57
f 57 61 62
f 57 62 63
f 59 60 64
f 59 64 65
f 60 66 64
f 62 67 63
f 63 67 68
f 63 68 69
f 63 69 70
f 64 66 71
f 64 71 72
f 64 72 65
f 69 73 70
f 70 73 74
f 71 75 72
f 72 75 76
f 72 76 77
f 73 78 79
f 73 79 74
f 76 80 77
f 77 80 85
f 77 85 82
f 77 82 81
f 78 83 79
f 78 84 82
f 78 82 83
f 81 82 84
f 82 85 83

