# https://github.com/mikedh/trimesh
v 18.32078917 8.06702974 26.81088775
v 2.87758485 8.06702974 26.81088775
v 18.26636775 8.19485549 26.81088775
v 15.38210484 8.06702974 75.18657219
v 2.87758485 19.72537672 26.81088775
v 2.87758485 8.06702974 77.99328138
v 18.25125181 8.22909481 26.81088775
v 15.20675159 8.26219215 76.32373020
v 15.31105690 8.06702974 76.32373020
v 17.74333062 9.28251124 26.81088775
v 17.50751218 9.72989990 26.81088775
v 2.87758485 19.44347619 32.16586232
v 3.35073665 19.66032186 26.81088775
v 14.83336903 8.06702974 77.96227033
v 2.87758485 9.89538731 79.61631598
v 14.75929848 9.04055635 76.32373020
v 15.28687025 8.06702974 76.62869350
v 17.24448014 10.17158153 26.81088775
v 2.87758485 17.48957540 68.53420519
v 2.92293483 19.43891114 32.12968083
v 4.30006429 19.52450728 26.81088775
v 15.01325836 8.06702974 77.65730413
v 14.68976113 8.92642648 77.06288016
v 7.73759837 14.87714732 79.61631598
v 7.84946164 14.67513806 79.61631598
v 7.84946164 14.62149728 79.61631598
v 7.83283368 14.46171618 79.61631598
v 7.37782116 13.98807776 79.61631598
v 6.36198021 13.03965965 79.61631598
v 3.34317868 10.27429805 79.61631598
v 2.87758485 16.88012385 79.61631598
v 14.48417456 9.57582440 75.35197704
v 14.03823203 10.20582085 75.35197704
v 13.62101224 10.71141462 75.88437311
v 16.75016575 10.96820665 26.81088775
v 16.72749112 11.00472778 26.81088775
v 15.15384365 8.06702974 77.33166486
v 2.94409815 17.49984677 68.16204354
v 4.80193846 19.42863833 26.81088775
v 3.40213329 16.78996121 79.61631598
v 8.87739664 14.66943175 77.99328138
v 12.70040589 11.73515750 75.94640101
v 6.99536932 15.64181637 79.61631598
v 14.51591991 9.62375887 74.38022388
v 16.71086171 11.02983700 26.81088775
v 16.40096984 11.48977882 26.81088775
v 13.64519889 10.74108890 75.35197704
v 13.23553635 11.22728121 75.35197704
v 12.75029123 11.78879901 75.35197704
v 5.27962561 19.30766161 26.81088775
v 4.21087636 16.60735342 79.61631598
v 10.66721198 13.51101555 76.63903149
v 10.28929477 13.90476270 76.31855976
v 8.98018992 14.73106138 77.29548047
v 12.27260335 12.27499060 75.35197704
v 11.73293826 12.70069455 75.97741207
v 7.02560264 15.65208773 79.23898679
v 6.75501408 15.74339163 79.61631598
v 8.26214753 15.14763522 77.29548047
v 7.57131512 15.43980712 78.26723363
v 7.63178175 15.48203528 77.29548047
v 15.88095531 12.19738330 26.81088775
v 15.54385418 12.62651104 26.81088775
v 15.08884093 13.15607277 26.81088775
v 14.63685318 13.66737286 26.81088775
v 14.20753861 14.13530497 26.81088775
v 5.33253392 19.29282520 26.81088775
v 4.69763315 16.47838786 79.61631598
v 4.81100845 16.50920195 78.52050990
v 10.70953862 13.62286217 75.98775005
v 9.52741370 14.45372734 76.32373020
v 10.20615279 14.03829476 75.35197704
v 9.04216858 14.76073565 76.32373020
v 11.78584620 12.75091155 75.35197704
v 14.13497865 14.20720595 26.81088775
v 8.23040218 18.24967940 26.81088775
v 8.19563423 18.26565708 26.81088775
v 7.75573836 18.46652507 26.81088775
v 7.30828452 18.65483918 26.81088775
v 6.31814154 15.92371690 79.61631598
v 7.77992501 15.55279500 74.90228196
v 7.74062170 15.53339354 75.54839585
v 9.72846563 17.50669579 26.81088775
v 9.28101180 17.74294437 26.81088775
v 6.26674490 19.01663098 26.81088775
v 4.87601009 16.52746215 77.86922847
v 5.34613891 16.27523589 79.61631598
v 11.22652909 13.23710386 75.35197704
v 10.73977194 13.64683013 75.35197704
v 11.48653563 16.40077911 26.81088775
v 11.02698846 16.71006994 26.81088775
v 11.00129050 16.72719033 26.81088775
v 12.19702078 15.88034748 26.81088775
v 10.17138483 17.24305546 26.81088775
v 13.66787352 14.63747495 26.81088775
v 13.15844175 15.08942939 26.81088775
v 6.31814154 19.00065331 26.81088775
v 5.80417441 16.51262573 72.75719218
v 5.94627136 16.05839022 79.61631598
v 13.14785900 15.09855949 26.81088775
v 12.62633390 15.54480616 26.81088775
f 1 2 5
f 1 5 13
f 1 13 21
f 1 21 39
f 1 39 50
f 1 50 67
f 1 67 85
f 1 85 97
f 1 97 79
f 1 79 78
f 1 78 77
f 1 77 76
f 1 76 84
f 1 84 83
f 1 83 94
f 1 94 92
f 1 92 91
f 1 91 90
f 1 90 93
f 1 93 101
f 1 101 100
f 1 100 96
f 1 96 95
f 1 95 75
f 1 75 66
f 1 66 65
f 1 65 64
f 1 64 63
f 1 63 62
f 1 62 46
f 1 46 45
f 1 45 36
f 1 36 35
f 1 35 18
f 1 18 11
f 1 11 10
f 1 10 7
f 1 7 3
f 1 3 4
f 1 4 9
f 1 9 17
f 1 17 37
f 1 37 22
f 1 22 14
f 1 14 6
f 1 6 2
f 2 6 15
f 2 15 31
f 2 31 19
f 2 19 12
f 2 12 5
f 3 7 4
f 4 8 9
f 4 7 10
f 4 10 11
f 4 11 8
f 5 12 13
f 6 14 15
f 8 16 17
f 8 17 9
f 8 11 16
f 11 18 16
f 12 19 20
f 12 20 13
f 13 20 21
f 14 22 23
f 14 23 24
f 14 24 25
f 14 25 26
f 14 26 27
f 14 27 28
f 14 28 29
f 14 29 30
f 14 30 15
f 15 30 29
f 15 29 28
f 15 28 27
f 15 27 26
f 15 26 25
f 15 25 24
f 15 24 43
f 15 43 58
f 15 58 80
f 15 80 99
f 15 99 87
f 15 87 68
f 15 68 51
f 15 51 40
f 15 40 31
f 16 32 33
f 16 33 34
f 16 34 23
f 16 23 17
f 16 18 35
f 16 35 36
f 16 36 32
f 17 23 37
f 19 31 38
f 19 38 21
f 19 21 20
f 21 38 40
f 21 40 39
f 22 37 23
f 23 41 24
f 23 34 42
f 23 42 41
f 24 41 43
f 31 40 38
f 32 44 33
f 32 36 45
f 32 45 46
f 32 46 44
f 33 47 34
f 33 44 46
f 33 46 47
f 34 47 48
f 34 48 49
f 34 49 42
f 39 40 51
f 39 51 50
f 41 42 52
f 41 52 53
f 41 53 54
f 41 54 43
f 42 49 55
f 42 55 56
f 42 56 52
f 43 57 58
f 43 54 59
f 43 59 60
f 43 60 61
f 43 61 57
f 46 62 47
f 47 62 63
f 47 63 48
f 48 63 64
f 48 64 49
f 49 64 65
f 49 65 66
f 49 66 55
f 50 51 68
f 50 68 69
f 50 69 67
f 52 56 70
f 52 70 53
f 53 71 54
f 53 70 72
f 53 72 71
f 54 71 73
f 54 73 59
f 55 74 56
f 55 66 75
f 55 75 74
f 56 74 70
f 57 61 76
f 57 76 77
f 57 77 78
f 57 78 79
f 57 79 58
f 58 79 80
f 59 81 82
f 59 82 61
f 59 61 60
f 59 73 83
f 59 83 81
f 61 82 84
f 61 84 76
f 67 69 86
f 67 86 85
f 68 87 69
f 69 87 86
f 70 74 88
f 70 88 89
f 70 89 72
f 71 72 90
f 71 90 91
f 71 91 92
f 71 92 73
f 72 89 93
f 72 93 90
f 73 92 94
f 73 94 83
f 74 75 95
f 74 95 96
f 74 96 88
f 79 97 87
f 79 87 98
f 79 98 80
f 80 98 99
f 81 83 84
f 81 84 82
f 85 86 97
f 86 87 97
f 87 99 98
f 88 96 100
f 88 100 101
f 88 101 89
f 89 101 93

