# https://github.com/mikedh/trimesh
v -25.00128931 -25.23927540 8.77964115
v -24.63675732 -25.59423122 8.77964115
v -24.63703540 -25.59423122 10.07968397
v -25.00128931 -25.23927540 10.07968397
v -25.00128931 -2.67239019 8.77964115
v -24.12474322 -26.08024394 8.77964115
v -24.12474322 -26.08024394 10.07968397
v -25.00128931 -3.27035091 10.07968397
v -25.00128931 -2.67239019 9.26448364
v -22.29735312 0.12355594 8.77964115
v -23.63860740 -26.51710995 8.77964115
v -24.04627129 -26.15123394 10.07968397
v -24.78424088 -2.95908388 10.07968397
v -25.00128931 -2.94270068 10.07828491
v -22.29707505 0.12355594 9.26448364
v -22.29735312 0.12355594 9.12183162
v -25.00128931 -2.79798917 9.98577024
v -22.15849710 0.12355594 8.77964115
v -23.08401899 -27.00312557 8.77964115
v -23.08429707 -27.00312557 10.07968397
v -23.63860740 -26.51710995 10.07968397
v -22.15849710 -0.92492395 10.07968397
v -22.15849710 -0.85393249 10.06136005
v -22.15849710 0.12355594 9.59306007
v -22.21192499 0.12355594 9.46682022
v -22.15849710 -27.76490960 8.77964115
v -22.59788317 -27.41268819 8.77964115
v -22.59788317 -27.41268819 10.07968397
v -22.15849710 -27.76490960 10.07968397
v -22.15849710 -27.76764110 9.26448364
v -22.29484901 -27.65569600 8.77964115
f 1 2 3
f 1 3 4
f 1 4 8
f 1 8 14
f 1 14 17
f 1 17 9
f 1 9 5
f 1 5 10
f 1 10 18
f 1 18 26
f 1 26 31
f 1 31 27
f 1 27 19
f 1 19 11
f 1 11 6
f 1 6 2
f 2 6 3
f 3 7 12
f 3 12 21
f 3 21 20
f 3 20 28
f 3 28 29
f 3 29 22
f 3 22 13
f 3 13 8
f 3 8 4
f 3 6 7
f 5 9 16
f 5 16 10
f 6 11 12
f 6 12 7
f 8 13 14
f 9 15 16
f 9 17 15
f 10 16 15
f 10 15 25
f 10 25 24
f 10 24 18
f 11 19 20
f 11 20 21
f 11 21 12
f 13 22 14
f 14 22 23
f 14 23 24
f 14 24 17
f 15 17 25
f 17 24 25
f 18 24 23
f 18 23 22
f 18 22 29
f 18 29 30
f 18 30 26
f 19 27 20
f 20 27 28
f 26 30 31
f 27 31 30
f 27 30 28
f 28 30 29

