# https://github.com/mikedh/trimesh
v 24.98964654 4.92340479 13.00409962
v 29.90506705 -0.08085605 13.00409962
v 24.98964654 4.92340479 13.82658492
v 24.98964654 25.25042403 13.00409962
v 35.52387023 -0.08085605 13.00409962
v 29.90609824 -0.08085605 13.82658492
v 24.98964654 25.25290352 13.82658492
v 25.04946434 25.19338987 13.00409962
v 35.52490142 0.48702053 13.00409962
v 35.52387023 -0.08085605 13.82658492
v 25.12372172 25.12147295 13.82658492
v 25.12372172 25.12147295 13.00409962
v 35.49705635 1.45910680 13.00409962
v 35.52490142 0.48702053 13.15223781
v 35.52387023 0.48702053 13.82658492
v 25.59607984 24.63543126 13.82658492
v 25.59711103 24.63543126 13.00409962
v 35.44342571 2.43119307 13.00409962
v 35.49705635 1.45910680 13.82658492
v 25.93333160 24.28081725 13.82658492
v 26.08287754 24.12458884 13.00409962
v 35.36401237 3.40328007 13.00409962
v 35.41970541 2.72877075 13.82658492
v 35.44342571 2.43119307 13.82658492
v 26.08184635 24.12458884 13.82658492
v 26.52223464 23.63854571 13.00409962
v 26.21695271 23.97580036 13.82658492
v 26.52223464 23.63854571 13.82658492
v 35.34854161 3.55206855 13.00409962
v 35.36401237 3.40328007 13.82658492
v 26.85948640 23.25417487 13.82658492
v 27.00800115 23.08306805 13.00409962
v 35.25778227 4.37536634 13.00409962
v 35.25675108 4.37536634 13.82658492
v 27.00800115 23.08306805 13.82658492
v 27.41641671 22.59702491 13.00409962
v 35.21652882 4.67294329 13.82658492
v 35.12370710 5.34497239 13.00409962
v 35.12370710 5.34745261 13.15223781
v 35.12370710 5.34745261 13.82658492
v 27.41641671 22.59702491 13.82658492
v 27.75366847 22.17793681 13.82658492
v 27.82895703 22.08370444 13.00409962
v 35.10823633 5.44664469 13.00409962
v 35.02057057 6.00212307 13.15223781
v 35.01953938 6.00212307 13.82658492
v 27.90218322 21.99195157 13.82658492
v 27.90218322 21.99195157 13.00409962
v 35.02057057 6.00212307 13.00409962
v 34.94528200 6.41625146 13.00409962
v 34.93187651 6.48816621 13.82658492
v 28.01872524 21.84316165 13.82658492
v 28.28275081 21.50590699 13.00409962
v 34.93187651 6.48816621 13.00409962
v 34.90815332 6.61215612 13.00409962
v 34.88340182 6.73366727 13.82658492
v 28.28171962 21.50590699 13.82658492
v 28.73138863 20.89587321 13.00409962
v 28.73138863 20.89587321 13.82658492
v 34.77304695 7.28914493 13.00409962
v 34.77304695 7.29162515 13.15223781
v 34.77304695 7.29162515 13.82658492
v 29.12227104 20.35775491 13.00409962
v 29.12227104 20.35775491 13.82658492
v 34.55439960 8.26123120 13.00409962
v 34.55439960 8.26371142 13.15223781
v 34.55439960 8.26371142 13.82658492
v 29.17280812 20.28335995 13.00409962
v 29.22334519 20.20896643 13.82658492
v 34.30687598 9.23331747 13.00409962
v 34.30687598 9.23579769 13.15223781
v 34.30687598 9.23579769 13.82658492
v 29.45024208 19.87171177 13.15223781
v 29.45024208 19.86923228 13.00409962
v 29.45024208 19.87171177 13.82658492
v 34.27490615 9.34986890 13.00409962
v 34.09648105 9.98470124 13.82658492
v 29.93600859 19.13272692 13.00409962
v 29.93600859 19.13272692 13.82658492
v 34.09648105 9.98470124 13.00409962
v 33.99540690 10.32195517 13.82658492
v 29.98344919 19.05833341 13.00409962
v 30.24335000 18.64668524 13.82658492
v 33.97271779 10.39634941 13.00409962
v 33.95002868 10.47074438 13.82658492
v 30.24335000 18.64668524 13.00409962
v 30.63939126 17.97961440 13.82658492
v 33.95002868 10.47074438 13.00409962
v 33.91496238 10.57985588 13.00409962
v 33.72210060 11.17749073 13.00409962
v 33.72106941 11.17749073 13.82658492
v 30.63939126 17.97961440 13.00409962
v 31.01274052 17.33486337 13.82658492
v 33.67053234 11.32627921 13.00409962
v 33.61793288 11.47506769 13.82658492
v 31.01274052 17.33486337 13.00409962
v 31.09421623 17.18607489 13.82658492
v 31.05399397 17.26046985 13.00409962
v 33.38381765 12.14957628 13.00409962
v 33.38381765 12.14957628 13.82658492
v 31.27779729 16.84882023 13.82658492
v 31.27779729 16.84882023 13.15223781
v 31.27779729 16.84634074 13.00409962
v 33.34462658 12.25620901 13.00409962
v 33.30543551 12.36284030 13.82658492
v 31.69961834 16.03544187 13.82658492
v 31.69961834 16.03544187 13.00409962
v 33.12701041 12.83896401 13.00409962
v 33.12701041 12.83896401 13.82658492
v 31.91414093 15.60395484 13.82658492
v 32.00902503 15.41300917 13.00409962
v 32.93311745 13.32500714 13.00409962
v 32.93311745 13.32500714 13.82658492
v 32.00902503 15.41300917 13.82658492
v 32.23695311 14.92696604 13.00409962
v 32.61030237 14.09126933 13.00409962
v 32.83410568 13.56058950 13.82658492
v 32.23695311 14.92696604 13.82658492
v 32.55357814 14.22022040 13.00409962
v 32.61030237 14.09126933 13.82658492
f 1 2 3
f 1 3 7
f 1 7 4
f 1 4 8
f 1 8 12
f 1 12 17
f 1 17 21
f 1 21 26
f 1 26 32
f 1 32 36
f 1 36 43
f 1 43 48
f 1 48 53
f 1 53 58
f 1 58 63
f 1 63 68
f 1 68 74
f 1 74 78
f 1 78 82
f 1 82 86
f 1 86 92
f 1 92 96
f 1 96 98
f 1 98 103
f 1 103 107
f 1 107 111
f 1 111 115
f 1 115 119
f 1 119 116
f 1 116 112
f 1 112 108
f 1 108 104
f 1 104 99
f 1 99 94
f 1 94 90
f 1 90 89
f 1 89 88
f 1 88 84
f 1 84 80
f 1 80 76
f 1 76 70
f 1 70 65
f 1 65 60
f 1 60 55
f 1 55 54
f 1 54 50
f 1 50 49
f 1 49 44
f 1 44 38
f 1 38 33
f 1 33 29
f 1 29 22
f 1 22 18
f 1 18 13
f 1 13 9
f 1 9 5
f 1 5 2
f 2 5 10
f 2 10 6
f 2 6 3
f 3 6 10
f 3 10 15
f 3 15 19
f 3 19 24
f 3 24 23
f 3 23 30
f 3 30 34
f 3 34 37
f 3 37 40
f 3 40 46
f 3 46 51
f 3 51 56
f 3 56 62
f 3 62 67
f 3 67 72
f 3 72 77
f 3 77 81
f 3 81 85
f 3 85 91
f 3 91 95
f 3 95 100
f 3 100 105
f 3 105 109
f 3 109 113
f 3 113 117
f 3 117 120
f 3 120 118
f 3 118 114
f 3 114 110
f 3 110 106
f 3 106 101
f 3 101 97
f 3 97 93
f 3 93 87
f 3 87 83
f 3 83 79
f 3 79 75
f 3 75 69
f 3 69 64
f 3 64 59
f 3 59 57
f 3 57 52
f 3 52 47
f 3 47 42
f 3 42 41
f 3 41 35
f 3 35 31
f 3 31 28
f 3 28 27
f 3 27 25
f 3 25 20
f 3 20 16
f 3 16 11
f 3 11 7
f 4 7 8
f 5 9 14
f 5 14 10
f 7 11 12
f 7 12 8
f 9 13 19
f 9 19 14
f 10 14 15
f 11 16 17
f 11 17 12
f 13 18 24
f 13 24 19
f 14 19 15
f 16 20 17
f 17 20 21
f 18 22 23
f 18 23 24
f 20 25 21
f 21 25 27
f 21 27 28
f 21 28 26
f 22 29 30
f 22 30 23
f 26 28 31
f 26 31 32
f 29 33 30
f 30 33 34
f 31 35 32
f 32 35 41
f 32 41 36
f 33 37 34
f 33 38 39
f 33 39 40
f 33 40 37
f 36 41 42
f 36 42 43
f 38 44 39
f 39 44 40
f 40 44 45
f 40 45 46
f 42 47 43
f 43 47 48
f 44 49 45
f 45 49 50
f 45 50 51
f 45 51 46
f 47 52 48
f 48 52 53
f 50 54 51
f 51 55 56
f 51 54 55
f 52 57 53
f 53 57 59
f 53 59 58
f 55 60 61
f 55 61 62
f 55 62 56
f 58 59 64
f 58 64 63
f 60 65 66
f 60 66 61
f 61 66 67
f 61 67 62
f 63 64 69
f 63 69 68
f 65 70 71
f 65 71 66
f 66 71 72
f 66 72 67
f 68 69 73
f 68 73 74
f 69 75 73
f 70 76 71
f 71 76 72
f 72 76 77
f 73 78 74
f 73 75 79
f 73 79 78
f 76 80 77
f 77 80 81
f 78 79 82
f 79 83 82
f 80 84 81
f 81 84 88
f 81 88 85
f 82 83 86
f 83 87 92
f 83 92 86
f 85 88 89
f 85 89 90
f 85 90 91
f 87 93 96
f 87 96 92
f 90 94 95
f 90 95 91
f 93 97 98
f 93 98 96
f 94 99 100
f 94 100 95
f 97 101 98
f 98 102 103
f 98 101 102
f 99 104 105
f 99 105 100
f 101 106 107
f 101 107 102
f 102 107 103
f 104 108 105
f 105 108 109
f 106 110 107
f 107 110 111
f 108 112 113
f 108 113 109
f 110 114 111
f 111 114 118
f 111 118 115
f 112 116 117
f 112 117 113
f 115 118 119
f 116 119 120
f 116 120 117
f 118 120 119

