# https://github.com/mikedh/trimesh
v 19.56104316 -4.06586809 26.81088775
v 19.51611826 -4.33607285 26.81088775
v -5.93404140 -4.06586809 26.81088775
v 16.63840602 -4.06586809 79.61631598
v 19.28899543 -5.31284727 26.81088775
v 16.60595970 -4.20562930 79.61631598
v -5.93404140 -4.06586809 76.47362663
v -5.93404140 -19.10881586 26.81088775
v 3.48778410 -4.06586809 79.61631598
v 18.99698141 -6.31912725 26.81088775
v 16.50862073 -4.80815435 78.50500437
v 16.52609305 -4.50533888 79.61631598
v -5.93404140 -13.11151325 79.61631598
v -5.15034454 -12.34438064 79.61631598
v 3.28062866 -4.24289919 79.61631598
v -5.31007929 -19.28895140 26.81088775
v -4.87080982 -16.52634157 77.85889048
v -5.34502104 -16.27321881 79.61631598
v -5.66199367 -16.46733193 74.38022388
v -5.80176067 -16.51236545 72.75719218
v -5.85417330 -16.53100076 72.10591075
v -5.93404140 -16.49528417 72.17827664
v 18.65505018 -7.30832449 26.81088775
v 16.52609305 -4.87337648 77.85372294
v 16.29397937 -5.34701129 79.23898679
v 16.47617585 -4.69168691 79.61631598
v 16.39131690 -4.96655086 79.61631598
v 16.27151620 -5.34701129 79.61631598
v -5.93404140 -16.06047184 79.61631598
v -4.77596772 -19.42250083 26.81088775
v -4.20441824 -16.60553910 79.61631598
v -4.39160702 -16.55739897 79.61631598
v -4.69110877 -16.47820144 79.61631598
v 18.25072318 -8.23074774 26.81088775
v 16.49364528 -5.74610629 73.40847362
v 16.53108390 -5.85480938 72.10591075
v 15.94206500 -6.31912725 79.23898679
v 15.81976742 -6.56448565 79.61631598
v 15.64006637 -6.99774395 79.61631598
v 15.91960182 -6.31912725 79.61631598
v -4.33420282 -19.51722852 26.81088775
v -3.40075581 -16.78878125 79.61631598
v 18.23075688 -8.27267610 26.81088775
v 15.41044812 -7.48380229 79.61631598
v -4.28428562 -19.52654545 26.81088775
v -3.02887441 -16.85400267 79.61631598
v 17.74406635 -9.28206051 26.81088775
v 15.24821795 -7.79593541 79.61631598
v 15.55271200 -7.78040671 74.89711442
v -3.40075581 -19.66785924 26.81088775
v -2.93652774 -17.49845681 68.14653801
v -2.42737476 -16.95649470 79.61631598
v 17.24489725 -10.17187305 26.81088775
v 15.00362569 -8.26180514 79.61631598
v 14.87883270 -8.48697565 79.61631598
v -3.34834246 -19.67562359 26.81088775
v -2.42737476 -17.18787699 75.35197704
v -2.05549336 -16.99997710 79.61631598
v -1.91822178 -17.49224648 70.94290922
v 16.72825583 -11.00422780 26.81088775
v 14.65919904 -8.87830703 79.61631598
v -2.42737476 -19.79519691 26.81088775
v -1.45649058 -17.06830367 79.61631598
v -1.45649058 -17.34937867 74.38022388
v -1.45649058 -17.24533405 76.32373020
v -2.37745828 -19.79985610 26.81088775
v -1.95815583 -18.46746688 52.55715144
v -1.45649058 -19.88216024 26.81088775
v 16.41877092 -11.46388576 26.81088775
v 14.38964674 -9.43113937 78.26723363
v 14.34472184 -9.36436465 79.61631598
v -1.08460918 -17.09004414 79.61631598
v -1.06713831 -17.50156341 72.10591075
v -1.40407723 -19.88526540 26.81088775
v -1.14201338 -19.45200566 35.27753772
v 15.87966777 -12.19685508 26.81088775
v 14.16002849 -9.63456941 79.61631598
v 13.85803132 -10.06627585 79.61631598
v -0.48560568 -17.12420815 79.61631598
v -0.65282743 -17.48603327 72.75202174
v -0.82004918 -19.43492438 35.92364871
v -0.48560568 -19.92719376 26.81088775
v -0.48560568 -19.87905363 27.73612143
v 15.09347550 -13.15033646 26.81088775
v 13.49862922 -10.55233347 79.61631598
v 13.57849587 -10.65637808 77.29548047
v 13.59846217 -10.68277702 76.70622694
v 0.48777537 -17.12420815 79.61631598
v -0.48560568 -17.35248528 75.35197704
v -0.00390673 -17.49379906 72.92776458
v -0.48560568 -19.82780834 28.70787169
v 0.48777537 -19.92874634 26.81088775
v -0.17362463 -19.44268873 36.07871558
v 14.16002849 -14.16127489 26.81088775
v 13.01193869 -11.13467135 79.61631598
v 12.75486641 -11.43438093 79.61631598
v 12.59263624 -11.62072897 79.61631598
v 1.45865991 -17.06830367 79.61631598
v 0.00607642 -17.49379906 72.92776458
v 0.65499712 -17.48603327 72.75719218
v 1.07180343 -17.50311600 72.11108119
v 1.45865991 -19.88371282 26.81088775
v 0.82970624 -19.43492438 35.92881626
v 0.48777537 -19.77656160 29.67962485
v 0.18078590 -19.44268873 36.07871558
v 13.16668114 -15.07748565 26.81088775
v 12.40794289 -11.80863031 79.61631598
v 12.10844186 -12.11144578 79.61631598
v 11.80894011 -12.41115464 79.61631598
v 11.62175206 -12.59595081 79.61631598
v 1.83054132 -17.02637531 79.61631598
v 1.45865991 -17.24533405 76.32373020
v 1.76315324 -17.47982294 71.46496730
v 1.92787920 -17.49224648 70.95324721
v 0.48777537 -18.02333762 62.71919755
v 1.45865991 -18.02333762 61.74744728
v 1.42122201 -17.45652844 72.43672046
v 1.45865991 -17.34937867 74.38022388
v 1.15666238 -19.45200566 35.28270526
v 2.43204061 -19.79830352 26.81088775
v 1.80308693 -19.42715858 34.82267509
v 1.96282095 -18.46901946 52.56232043
v 13.14921026 -15.09301435 26.81088775
v 11.13506153 -13.01212783 79.61631598
v 2.43204061 -16.95804873 79.61631598
v 2.43204061 -17.18787699 75.35197704
v 3.40292515 -19.66941182 26.81088775
v 12.19579696 -15.88033485 26.81088775
v 10.68081733 -13.59912490 76.69588896
v 10.77565943 -13.31183814 79.61631598
v 3.40292515 -16.79033528 79.61631598
v 2.94368937 -17.50000939 68.16204354
v 4.33138057 -19.51722852 26.81088775
v 11.48697591 -16.40055648 26.81088775
v 10.55103348 -13.49818545 79.61631598
v 10.06434295 -13.86001201 79.61631598
v 4.21157987 -16.60709313 79.61631598
v 5.31224863 -19.28584479 26.81088775
v 11.46201731 -16.41763776 26.81088775
v 9.52523980 -14.45321940 76.32373020
v 9.36051348 -14.34606962 79.61631598
v 4.51108162 -16.52789415 79.61631598
v 6.31807564 -18.99545431 26.81088775
v 4.81058338 -16.50926029 78.51534236
v 4.69827004 -16.47820144 79.61631598
v 11.00028538 -16.72821903 26.81088775
v 9.17332543 -14.46564294 79.61631598
v 6.36050439 -18.98147819 26.81088775
v 5.34719074 -16.27477140 79.61631598
v 4.92539214 -16.54342285 77.29548047
v 4.87547530 -16.52634157 77.86922847
v 4.97031776 -16.39434471 79.61631598
v 10.16916821 -17.24533405 26.81088775
v 8.87382368 -14.65664944 79.61631598
v 7.30643070 -18.65536822 26.81088775
v 5.80393073 -16.51236545 72.75719218
v 6.31807564 -15.92381580 79.61631598
v 9.28064610 -17.74381521 26.81088775
v 8.48447068 -14.87871479 79.61631598
v 8.22739912 -18.25006217 26.81088775
v 6.99944194 -15.64118822 79.61631598
v 8.26982787 -18.22987283 26.81088775
v 8.25984472 -15.00449988 79.61631598
v 7.69079140 -15.51074539 76.32373020
v 7.57099070 -15.45173430 78.26723363
v 7.48613175 -15.41135852 79.61631598
v 7.29894370 -15.49987443 79.61631598
f 1 2 5
f 1 5 10
f 1 10 23
f 1 23 34
f 1 34 43
f 1 43 47
f 1 47 53
f 1 53 60
f 1 60 69
f 1 69 76
f 1 76 84
f 1 84 94
f 1 94 106
f 1 106 123
f 1 123 128
f 1 128 134
f 1 134 139
f 1 139 146
f 1 146 153
f 1 153 158
f 1 158 162
f 1 162 160
f 1 160 155
f 1 155 148
f 1 148 143
f 1 143 138
f 1 138 133
f 1 133 127
f 1 127 120
f 1 120 102
f 1 102 92
f 1 92 82
f 1 82 74
f 1 74 68
f 1 68 66
f 1 66 62
f 1 62 56
f 1 56 50
f 1 50 45
f 1 45 41
f 1 41 30
f 1 30 16
f 1 16 8
f 1 8 3
f 1 3 7
f 1 7 9
f 1 9 4
f 1 4 2
f 2 4 6
f 2 6 5
f 3 8 22
f 3 22 29
f 3 29 13
f 3 13 7
f 4 9 15
f 4 15 14
f 4 14 13
f 4 13 29
f 4 29 18
f 4 18 33
f 4 33 32
f 4 32 31
f 4 31 42
f 4 42 46
f 4 46 52
f 4 52 58
f 4 58 63
f 4 63 72
f 4 72 79
f 4 79 88
f 4 88 98
f 4 98 111
f 4 111 125
f 4 125 131
f 4 131 137
f 4 137 142
f 4 142 145
f 4 145 152
f 4 152 149
f 4 149 157
f 4 157 161
f 4 161 167
f 4 167 166
f 4 166 163
f 4 163 159
f 4 159 154
f 4 154 147
f 4 147 141
f 4 141 136
f 4 136 135
f 4 135 130
f 4 130 124
f 4 124 110
f 4 110 109
f 4 109 108
f 4 108 107
f 4 107 97
f 4 97 96
f 4 96 95
f 4 95 85
f 4 85 78
f 4 78 77
f 4 77 71
f 4 71 61
f 4 61 55
f 4 55 54
f 4 54 48
f 4 48 44
f 4 44 39
f 4 39 38
f 4 38 40
f 4 40 28
f 4 28 27
f 4 27 26
f 4 26 12
f 4 12 6
f 5 6 11
f 5 11 10
f 6 12 11
f 7 13 14
f 7 14 15
f 7 15 9
f 8 16 17
f 8 17 18
f 8 18 19
f 8 19 20
f 8 20 21
f 8 21 22
f 10 11 24
f 10 24 25
f 10 25 23
f 11 12 26
f 11 26 27
f 11 27 28
f 11 28 25
f 11 25 24
f 16 30 31
f 16 31 32
f 16 32 33
f 16 33 17
f 17 33 18
f 18 29 19
f 19 29 20
f 20 29 21
f 21 29 22
f 23 25 35
f 23 35 36
f 23 36 37
f 23 37 38
f 23 38 39
f 23 39 34
f 25 28 40
f 25 40 37
f 25 37 35
f 30 41 42
f 30 42 31
f 34 39 44
f 34 44 43
f 35 37 36
f 37 40 38
f 41 45 42
f 42 45 46
f 43 44 47
f 44 48 49
f 44 49 47
f 45 50 51
f 45 51 46
f 46 51 52
f 47 49 54
f 47 54 55
f 47 55 53
f 48 54 49
f 50 56 57
f 50 57 51
f 51 57 52
f 52 57 59
f 52 59 58
f 53 55 61
f 53 61 60
f 56 62 59
f 56 59 57
f 58 59 63
f 59 64 65
f 59 65 63
f 59 62 66
f 59 66 67
f 59 67 68
f 59 68 64
f 60 61 70
f 60 70 69
f 61 71 70
f 63 65 73
f 63 73 72
f 64 73 65
f 64 68 73
f 66 68 67
f 68 74 75
f 68 75 73
f 69 70 77
f 69 77 78
f 69 78 76
f 70 71 77
f 72 73 79
f 73 80 79
f 73 75 81
f 73 81 80
f 74 82 83
f 74 83 81
f 74 81 75
f 76 78 85
f 76 85 86
f 76 86 87
f 76 87 84
f 79 80 89
f 79 89 90
f 79 90 99
f 79 99 88
f 80 81 91
f 80 91 89
f 81 83 91
f 82 92 83
f 83 92 93
f 83 93 91
f 84 87 95
f 84 95 96
f 84 96 97
f 84 97 94
f 85 95 86
f 86 95 87
f 88 99 100
f 88 100 101
f 88 101 98
f 89 91 90
f 90 91 93
f 90 93 105
f 90 105 99
f 92 102 103
f 92 103 104
f 92 104 99
f 92 99 105
f 92 105 93
f 94 97 107
f 94 107 108
f 94 108 109
f 94 109 110
f 94 110 106
f 98 101 112
f 98 112 113
f 98 113 114
f 98 114 111
f 99 115 100
f 99 104 115
f 100 115 104
f 100 104 103
f 100 103 101
f 101 116 113
f 101 113 117
f 101 117 118
f 101 118 112
f 101 103 119
f 101 119 102
f 101 102 116
f 102 119 103
f 102 120 121
f 102 121 122
f 102 122 113
f 102 113 116
f 106 110 123
f 110 124 123
f 111 114 125
f 112 118 113
f 113 118 117
f 113 122 114
f 114 126 125
f 114 122 120
f 114 120 127
f 114 127 126
f 120 122 121
f 123 124 129
f 123 129 128
f 124 130 129
f 125 126 127
f 125 127 132
f 125 132 131
f 127 133 132
f 128 129 135
f 128 135 136
f 128 136 134
f 129 130 135
f 131 132 133
f 131 133 137
f 133 138 137
f 134 136 140
f 134 140 139
f 136 141 140
f 137 138 142
f 138 143 144
f 138 144 145
f 138 145 142
f 139 140 146
f 140 141 146
f 141 147 146
f 143 148 149
f 143 149 150
f 143 150 151
f 143 151 144
f 144 151 149
f 144 149 152
f 144 152 145
f 146 147 154
f 146 154 153
f 148 155 149
f 149 156 157
f 149 151 150
f 149 155 156
f 153 154 159
f 153 159 158
f 155 160 161
f 155 161 157
f 155 157 156
f 158 159 163
f 158 163 164
f 158 164 165
f 158 165 166
f 158 166 162
f 160 162 166
f 160 166 167
f 160 167 161
f 163 166 165
f 163 165 164

