# https://github.com/mikedh/trimesh
v -24.99460105 -25.24769294 7.06393256
v -24.63535536 -25.59449770 6.37172210
v -24.60030644 -25.62917876 7.38878396
v -24.99460105 -25.24769294 7.38878396
v -24.99460105 -25.24075847 6.37172210
v -24.12277208 -26.08002379 6.37172210
v -24.12496337 -26.08002379 7.32058918
v -24.12496337 -26.08002379 7.38878396
v -24.99460105 25.24007446 7.38878396
v -24.99460105 25.24007446 6.37172210
v -23.64962029 -26.51005962 6.37172210
v -23.67152442 -26.48925330 7.38878396
v -24.63535536 25.59381369 7.38878396
v -24.63535536 25.59381369 6.37172210
v -23.08227379 -27.00252308 7.38878396
v -23.08227379 -27.00252308 6.37172210
v -24.16001084 26.04465873 7.38878396
v -24.12277208 26.07933979 6.37172210
v -22.58283530 -27.42562443 6.37172210
v -22.63102613 -27.38400890 7.38878396
v -24.12277208 26.07933979 7.38878396
v -23.63647694 26.51631298 6.37172210
v -21.99139484 -27.89727868 6.37172210
v -21.99139484 -27.89727868 7.38878396
v -22.55435878 -27.44643364 7.38878396
v -23.63647694 26.51631298 7.38878396
v -23.06913189 27.01571091 6.37172210
v -21.51824160 -28.27182713 6.37172210
v -21.50509825 -28.27876160 7.38878396
v -23.08227379 27.00183907 7.38878396
v -22.59597865 27.41106857 7.38878396
v -22.59597865 27.41106857 6.37172210
v -20.89613332 -28.72960953 7.38878396
v -20.89613332 -28.72960953 6.37172210
v -21.99139484 27.89659467 7.38878396
v -21.99139484 27.89659467 6.37172210
v -20.35726479 -29.11802982 7.38878396
v -20.35726479 -29.11802982 6.37172210
v -21.95634591 27.92433835 7.38878396
v -21.50509825 28.27807759 6.37172210
v -19.85344519 -29.45789722 6.37172210
v -19.90382585 -29.42321616 7.38878396
v -21.50509825 28.27807759 7.38878396
v -20.89613332 28.72892552 6.37172210
v -19.13276254 -29.92955147 6.37172210
v -19.13276254 -29.92955147 7.38878396
v -20.89613332 28.72892552 7.38878396
v -20.36821686 29.11040844 6.37172210
v -18.65741947 -30.23473781 6.37172210
v -18.64646595 -30.24167518 7.38878396
v -20.39450355 29.08960213 7.38878396
v -20.35507351 29.11734581 7.38878396
v -19.86877837 29.44334137 7.38878396
v -19.13276254 29.93580193 6.37172210
v -18.64646595 -30.24167518 6.37172210
v -18.60046496 -30.26941886 7.38878396
v -19.18314465 29.90112377 7.38878396
v -19.09771362 29.95661114 7.38878396
v -18.64646595 30.24099117 7.38878396
v -18.64646595 30.24099117 6.37172210
v -17.98054797 -30.63703284 6.37172210
v -17.93454698 -30.66477652 7.38878396
v -17.98054797 30.63634883 7.38878396
v -17.98054797 30.63634883 6.37172210
v -17.33215300 -31.01158129 6.37172210
v -17.33434284 -31.01158129 7.32058918
v -17.33434284 -31.01158129 7.38878396
v -17.33215300 31.01089728 7.38878396
v -17.34748618 31.00395991 6.37172210
v -16.84804770 -31.27515210 6.37172210
v -16.84804770 -31.27515210 7.38878396
v -16.84804770 31.27446809 7.38878396
v -16.84804770 31.27446809 7.32058918
v -16.84585642 31.27446809 6.37172210
v -16.02221972 -31.70518792 6.37172210
v -16.03536307 -31.69825345 7.38878396
v -16.09231757 31.66982575 7.38878396
v -16.05507736 31.69063207 6.37172210
v -15.41763591 -32.01037716 6.37172210
v -15.41763591 -32.01037716 7.38878396
v -15.46144707 31.98888393 7.38878396
v -15.40668385 32.01662762 6.37172210
v -14.94448267 -32.23233244 6.37172210
v -14.96638825 -32.21846059 7.38878396
v -15.41763591 32.00969315 7.38878396
v -14.93133932 32.23858290 7.38878396
v -14.93133932 32.23858290 6.37172210
v -14.09236945 -32.60688089 6.37172210
v -14.03760623 -32.63462457 7.38878396
v -14.15151378 32.58538767 7.38878396
v -14.11208519 32.59925951 6.37172210
v -13.32787709 -32.93287644 6.37172210
v -13.32787709 -32.93287644 7.38878396
v -13.32787709 32.93219243 7.38878396
v -13.34540155 32.92525506 6.37172210
v -12.85253401 -33.12015067 6.37172210
v -12.79338968 -33.14095988 7.38878396
v -12.84158195 33.12640403 7.38878396
v -12.84158195 33.12640403 7.32058918
v -13.32787709 32.93219243 6.37172210
v -12.14937583 -33.38372148 6.37172210
v -12.14937583 -33.38372148 7.38878396
v -12.14937583 33.38303747 7.38878396
v -12.14937583 33.38303747 6.37172210
v -12.84158195 33.11946666 6.37172210
v -11.17897466 -33.72358887 6.37172210
v -11.17897466 -33.72358887 7.38878396
v -11.17897466 33.72290486 7.38878396
v -11.20088023 33.71597039 6.37172210
v -10.46924552 -33.94554415 6.37172210
v -10.46924552 -33.94554415 7.38878396
v -10.48676926 33.94486014 6.37172210
v -10.43638715 33.95873198 7.38878396
v -9.99609300 -34.09120285 6.37172210
v -10.01799785 -34.08426548 7.38878396
v -9.98294965 34.09051884 7.38878396
v -9.98294965 34.09051884 6.37172210
v -9.21188562 -34.30622076 6.37172210
v -9.16588463 -34.32009260 7.38878396
v -9.25131494 34.29860228 6.37172210
v -9.28636314 34.28472754 7.38878396
v -8.23929317 -34.55591973 6.37172210
v -8.26338931 -34.54898525 7.38878396
v -9.23379048 34.29860228 7.38878396
v -8.33129515 34.53442940 7.38878396
v -8.26338931 34.54830124 6.37172210
v -7.29079685 -34.77093764 6.37172210
v -7.29079685 -34.77093764 7.38878396
v -7.29079685 34.77025363 7.38878396
v -7.29079685 34.77025363 6.37172210
v -6.47811367 -34.93046818 6.37172210
v -6.48030351 -34.93046818 7.32058918
v -6.48030351 -34.93046818 7.38878396
v -6.44306475 34.93672154 7.38878396
v -6.47811367 34.92978417 6.37172210
v -5.97648391 -35.02063660 6.37172210
v -5.99400764 -35.01370213 7.38878396
v -5.99181709 35.01301812 7.38878396
v -5.99181709 35.01301812 6.37172210
v -5.32370782 -35.12467977 6.37172210
v -5.27770683 -35.13161424 7.38878396
v -5.36313714 35.11705839 6.37172210
v -5.39161439 35.11012392 7.38878396
v -4.37521151 -35.25646373 6.37172210
v -4.37521151 -35.25646373 7.38878396
v -5.34780396 35.11705839 7.38878396
v -4.37521151 35.25577972 7.38878396
v -4.37521151 35.25577972 6.37172210
v -3.40261978 -35.36050689 6.37172210
v -3.40261978 -35.36050689 7.38878396
v -3.47052562 35.35288552 7.38878396
v -3.42671519 35.35982289 6.37172210
v -2.61622184 -35.42293164 6.37172210
v -3.33471321 -35.36744137 7.38878396
v -3.40261978 35.35982289 7.38878396
v -2.61622184 35.42224763 7.38878396
v -2.61622184 35.42224763 6.37172210
v -2.61622184 -35.42293164 7.38878396
f 1 2 3
f 1 3 4
f 1 4 9
f 1 9 10
f 1 10 5
f 1 5 2
f 2 5 10
f 2 10 14
f 2 14 18
f 2 18 22
f 2 22 27
f 2 27 32
f 2 32 36
f 2 36 40
f 2 40 44
f 2 44 48
f 2 48 54
f 2 54 60
f 2 60 64
f 2 64 69
f 2 69 74
f 2 74 78
f 2 78 82
f 2 82 87
f 2 87 91
f 2 91 95
f 2 95 100
f 2 100 105
f 2 105 104
f 2 104 109
f 2 109 112
f 2 112 117
f 2 117 120
f 2 120 126
f 2 126 130
f 2 130 135
f 2 135 139
f 2 139 142
f 2 142 148
f 2 148 152
f 2 152 157
f 2 157 153
f 2 153 149
f 2 149 144
f 2 144 140
f 2 140 136
f 2 136 131
f 2 131 127
f 2 127 122
f 2 122 118
f 2 118 114
f 2 114 110
f 2 110 106
f 2 106 101
f 2 101 96
f 2 96 92
f 2 92 88
f 2 88 83
f 2 83 79
f 2 79 75
f 2 75 70
f 2 70 65
f 2 65 61
f 2 61 55
f 2 55 49
f 2 49 45
f 2 45 41
f 2 41 38
f 2 38 34
f 2 34 28
f 2 28 23
f 2 23 19
f 2 19 16
f 2 16 11
f 2 11 6
f 2 6 7
f 2 7 3
f 3 7 8
f 3 8 12
f 3 12 15
f 3 15 20
f 3 20 25
f 3 25 24
f 3 24 29
f 3 29 33
f 3 33 37
f 3 37 42
f 3 42 46
f 3 46 50
f 3 50 56
f 3 56 62
f 3 62 67
f 3 67 71
f 3 71 76
f 3 76 80
f 3 80 84
f 3 84 89
f 3 89 93
f 3 93 97
f 3 97 102
f 3 102 107
f 3 107 111
f 3 111 115
f 3 115 119
f 3 119 123
f 3 123 128
f 3 128 133
f 3 133 137
f 3 137 141
f 3 141 145
f 3 145 150
f 3 150 154
f 3 154 158
f 3 158 156
f 3 156 155
f 3 155 151
f 3 151 147
f 3 147 146
f 3 146 143
f 3 143 138
f 3 138 134
f 3 134 129
f 3 129 125
f 3 125 124
f 3 124 121
f 3 121 116
f 3 116 113
f 3 113 108
f 3 108 103
f 3 103 98
f 3 98 94
f 3 94 90
f 3 90 86
f 3 86 85
f 3 85 81
f 3 81 77
f 3 77 72
f 3 72 68
f 3 68 63
f 3 63 59
f 3 59 58
f 3 58 57
f 3 57 53
f 3 53 52
f 3 52 51
f 3 51 47
f 3 47 43
f 3 43 39
f 3 39 35
f 3 35 31
f 3 31 30
f 3 30 26
f 3 26 21
f 3 21 17
f 3 17 13
f 3 13 9
f 3 9 4
f 6 11 7
f 7 11 8
f 8 11 12
f 9 13 14
f 9 14 10
f 11 15 12
f 11 16 15
f 13 17 14
f 14 17 18
f 15 16 19
f 15 19 20
f 17 21 18
f 18 21 26
f 18 26 22
f 19 23 24
f 19 24 25
f 19 25 20
f 22 26 27
f 23 28 24
f 24 28 29
f 26 30 27
f 27 30 31
f 27 31 32
f 28 33 29
f 28 34 33
f 31 35 36
f 31 36 32
f 33 34 38
f 33 38 37
f 35 39 36
f 36 39 40
f 37 38 41
f 37 41 42
f 39 43 40
f 40 43 47
f 40 47 44
f 41 45 46
f 41 46 42
f 44 47 48
f 45 49 46
f 46 49 50
f 47 51 48
f 48 51 52
f 48 52 53
f 48 53 54
f 49 55 50
f 50 55 56
f 53 57 54
f 54 57 58
f 54 58 59
f 54 59 60
f 55 61 62
f 55 62 56
f 59 63 64
f 59 64 60
f 61 65 66
f 61 66 62
f 62 66 67
f 63 68 69
f 63 69 64
f 65 70 66
f 66 70 71
f 66 71 67
f 68 72 69
f 69 72 73
f 69 73 74
f 70 75 71
f 71 75 76
f 72 77 78
f 72 78 73
f 73 78 74
f 75 79 80
f 75 80 76
f 77 81 78
f 78 81 82
f 79 83 80
f 80 83 84
f 81 85 82
f 82 85 86
f 82 86 87
f 83 88 89
f 83 89 84
f 86 90 87
f 87 90 91
f 88 92 89
f 89 92 93
f 90 94 95
f 90 95 91
f 92 96 93
f 93 96 97
f 94 98 95
f 95 98 99
f 95 99 100
f 96 101 102
f 96 102 97
f 98 103 104
f 98 104 99
f 99 104 105
f 99 105 100
f 101 106 107
f 101 107 102
f 103 108 109
f 103 109 104
f 106 110 111
f 106 111 107
f 108 112 109
f 108 113 112
f 110 114 111
f 111 114 115
f 112 113 116
f 112 116 117
f 114 118 119
f 114 119 115
f 116 120 117
f 116 121 120
f 118 122 119
f 119 122 123
f 120 121 124
f 120 124 125
f 120 125 126
f 122 127 128
f 122 128 123
f 125 129 130
f 125 130 126
f 127 131 132
f 127 132 133
f 127 133 128
f 129 134 130
f 130 134 135
f 131 136 132
f 132 136 133
f 133 136 137
f 134 138 139
f 134 139 135
f 136 140 141
f 136 141 137
f 138 142 139
f 138 143 142
f 140 144 141
f 141 144 145
f 142 143 146
f 142 146 147
f 142 147 148
f 144 149 150
f 144 150 145
f 147 151 152
f 147 152 148
f 149 153 154
f 149 154 150
f 151 155 152
f 152 155 156
f 152 156 157
f 153 158 154
f 153 157 156
f 153 156 158

