# https://github.com/mikedh/trimesh
v 7.10220771 25.60957992 20.69494888
v 8.93543882 25.45179603 20.69494888
v 6.27074221 25.60711491 20.69494888
v 5.70975376 24.37443843 24.42461792
v 6.13550406 24.37443843 24.42461792
v 6.78164257 24.29061647 24.31326662
v 9.66923223 23.30447732 24.27435363
v 11.63269254 24.26596346 20.69494888
v 5.91511511 25.40002500 20.69494888
v 5.52442678 24.49031134 23.84331558
v 6.31832620 23.11464539 25.25137137
v 6.40347626 23.90355758 24.73532374
v 0.02974169 19.92694714 26.81028815
v 7.29003881 23.16148639 25.21964195
v 7.29003881 23.72605216 24.73352785
v 8.26175141 23.56580471 24.60122395
v 9.02058887 23.43021027 24.45754364
v 11.01410219 22.50816865 24.50543756
v 11.66274554 22.35285122 24.32703708
v 14.78575028 22.55747611 20.69494888
v 5.59955893 25.17568002 20.69494888
v 0.48804983 19.92694714 26.81028815
v 0.02974169 19.92941215 26.78334828
v 0.02974169 0.42848883 26.81028815
v 7.29003881 22.67581258 25.41121329
v 8.26175141 22.51063511 25.36990625
v 8.90288097 22.40709015 25.32919736
v 9.55152505 22.26409923 25.26514038
v 8.26175141 22.99630892 25.08733805
v 1.45976244 19.88010614 26.81028815
v 2.37888283 19.79135270 26.81028815
v 3.35059544 19.66068828 26.81028815
v 9.28605696 22.85578301 24.86164181
v 10.20768147 22.69800057 24.67725405
v 10.20768147 22.11124826 25.16336815
v 11.27456205 21.91155340 24.88738394
v 12.15110669 21.72911795 24.66468133
v 12.87237735 21.52202950 24.48388537
v 13.52102142 21.32726610 24.19832353
v 14.64800801 20.45946196 24.38690267
v 17.63076419 20.54574894 20.69494888
v 0.02974169 20.08472813 20.69494888
v 0.02974169 20.08472813 21.90005836
v 0.02974169 20.08226312 22.87168697
v 0.02974169 20.07240308 23.33085975
v 0.02974169 20.06007512 23.84331558
v 0.02974169 20.04281715 24.30189165
v 0.02974169 20.02309561 24.81494563
v 0.02974169 20.00337262 25.27411986
v 0.02974169 19.98118463 25.78717384
v 19.92731311 0.42848883 26.81028815
v 0.02974169 0.42848883 20.69494888
v 3.40318838 19.65329325 26.81028815
v 4.29976811 19.52263028 26.81028815
v 4.34234314 19.51523235 26.81028815
v 4.80315539 19.42648036 26.81028815
v 5.33409157 19.29335238 26.81028815
v 6.31832620 18.99997550 26.81028815
v 7.30756979 18.65482615 26.81028815
v 7.33261384 18.64496465 26.81028815
v 7.75586002 18.46499422 26.81028815
v 10.88888194 21.47025557 25.34176863
v 11.53752529 21.30014663 25.26933032
v 12.15110669 21.12264265 25.15079543
v 13.13033309 20.89829478 24.85565452
v 14.09202779 20.64929389 24.55931731
v 15.00864262 19.90475914 24.62756423
v 15.71488714 19.56947128 24.46293277
v 16.73418518 18.65482615 24.50543756
v 17.38282780 18.36144927 24.09415581
v 18.63002496 19.60152077 20.69494888
v 20.08509121 0.42848883 24.81494563
v 25.17406182 5.60079478 20.69494888
v 24.49035578 5.52436857 23.84331558
v 24.37515200 5.70926975 24.42521607
v 23.11793548 6.31821151 25.25137137
v 19.92731311 0.48765779 26.81028815
v 20.08759387 0.42848883 20.69494888
v 8.19663645 18.26530080 26.81028815
v 9.25099500 17.75743898 26.81028815
v 9.28104801 17.74264602 26.81028815
v 9.72933824 17.50597309 26.81028815
v 12.73964330 20.46932491 25.32919736
v 8.22919429 18.25050783 26.81028815
v 13.38578326 20.24990705 25.22682553
v 14.14962968 19.92448213 25.08554071
v 15.06374039 19.16761943 25.14480960
v 15.96783320 18.89396554 24.80836020
v 16.97711188 17.95220093 24.83649782
v 17.71341013 17.71306154 24.51980472
v 16.22328338 18.19134032 25.15318948
v 18.35954864 17.38270515 24.09415581
v 19.60173757 18.63017169 20.69494888
v 20.14519577 0.42848883 23.84331558
v 25.39945827 5.91635966 20.69494888
v 25.60732446 6.27136978 20.69494888
v 25.61233269 7.10219295 20.69494888
v 24.37515200 6.13577534 24.42521607
v 23.90432183 6.40203347 24.73592189
v 23.16301535 7.28955914 25.22024010
v 19.88724147 1.40723295 26.81028815
v 10.17261951 17.24217924 26.81028815
v 11.00408500 16.72692239 26.81028815
v 11.48994131 16.40149457 26.81028815
v 13.86412577 19.60152077 25.36032718
v 14.51026429 19.38210437 25.28309933
v 15.57464075 18.48718221 25.31063881
v 17.22254560 17.22245625 25.16815624
v 17.95133005 16.97838829 24.83649782
v 18.65507046 16.73431742 24.50543756
v 16.57390152 17.54295260 25.32081603
v 20.54590346 17.63170603 20.69494888
v 25.45204903 8.93641397 20.69494888
v 24.29000194 6.78169733 24.31326662
v 23.56622571 8.26337324 24.60182210
v 23.72650937 7.28955914 24.73412600
v 22.99772347 8.26337324 25.08733805
v 22.26643489 9.55275149 25.26514038
v 22.40668273 8.90436448 25.32919736
v 22.51186716 8.26337324 25.36990625
v 22.67715905 7.28955914 25.41121329
v 19.67687117 3.35239468 26.81028815
v 19.79708174 2.43035378 26.81028815
v 19.80209141 2.37858131 26.81028815
v 19.88473736 1.45900542 26.81028815
v 12.19869067 15.87884124 26.81028815
v 12.62694508 15.54355338 26.81028815
v 13.14786334 15.09732553 26.81028815
v 13.66627749 14.63630472 26.81028815
v 17.54311001 16.57406997 25.32081603
v 18.18924853 16.22399060 25.15318948
v 18.89549305 15.97005969 24.80836020
v 19.56918117 15.71366232 24.46293277
v 14.13460209 14.20733340 26.81028815
v 20.46075195 14.64863123 24.38690267
v 22.55694703 14.78669068 20.69494888
v 24.26495789 11.63104192 20.69494888
v 23.30326319 9.66862294 24.27435363
v 23.42848344 9.02023594 24.45754364
v 22.85497296 9.28649335 24.86164181
v 22.11116236 10.20606923 25.16336815
v 21.29973052 11.53735846 25.26933032
v 21.47003063 10.88897146 25.34176863
v 22.69719487 10.20606923 24.67725405
v 18.46723864 7.75797644 26.81028815
v 18.64505255 7.33393586 26.81028815
v 18.65507046 7.30928213 26.81028815
v 18.99566925 6.31821151 26.81028815
v 19.01069683 6.26643903 26.81028815
v 19.28367872 5.31234865 26.81028815
v 19.30120897 5.24824894 26.81028815
v 19.42142099 4.77243662 26.81028815
v 19.51658896 4.33113880 26.81028815
v 19.52660542 4.28183205 26.81028815
v 19.66935737 3.40170142 26.81028815
v 18.48727446 15.57560287 25.31063881
v 14.20723013 14.13337293 26.81028815
v 14.63548598 13.66495564 26.81028815
v 19.16847493 15.06280958 25.14480960
v 19.90477173 15.00857210 24.62756423
v 20.64858377 14.09146195 24.55931731
v 21.52262430 12.87604345 24.48388537
v 21.32728013 13.52196617 24.19832353
v 22.35158495 11.66309141 24.32703708
v 22.50936305 11.01470441 24.50543756
v 21.91080852 11.27603107 24.88738394
v 21.12191805 12.15123024 25.15079543
v 20.25038164 13.38637173 25.22682553
v 20.46826575 12.74045046 25.32919736
v 21.73049049 12.15123024 24.66468133
v 17.50554394 9.73025619 26.81028815
v 17.74346386 9.28156333 26.81028815
v 18.24935453 8.23132375 26.81028815
v 19.38385491 14.51057178 25.28309933
v 15.08878444 13.15462881 26.81028815
v 15.54458702 12.62704401 26.81028815
v 15.86014320 12.22519216 26.81028815
v 19.92480755 14.14816445 25.08554071
v 20.89902572 13.12997581 24.85565452
v 19.60173757 13.86218405 25.36032718
v 16.40109729 11.49051746 26.81028815
v 16.72667138 11.00484292 26.81028815
v 16.74921132 10.97032769 26.81028815
v 17.24508553 10.17155401 26.81028815
v 15.90772719 12.16109173 26.81028815
f 1 2 8
f 1 8 20
f 1 20 41
f 1 41 71
f 1 71 93
f 1 93 112
f 1 112 136
f 1 136 137
f 1 137 113
f 1 113 97
f 1 97 96
f 1 96 95
f 1 95 73
f 1 73 78
f 1 78 52
f 1 52 42
f 1 42 21
f 1 21 9
f 1 9 3
f 1 3 4
f 1 4 5
f 1 5 2
f 2 5 6
f 2 6 7
f 2 7 8
f 3 9 10
f 3 10 4
f 4 11 12
f 4 12 5
f 4 10 13
f 4 13 11
f 5 12 14
f 5 14 15
f 5 15 16
f 5 16 6
f 6 16 17
f 6 17 7
f 7 18 19
f 7 19 8
f 7 17 18
f 8 19 20
f 9 21 10
f 10 21 13
f 11 14 12
f 11 13 22
f 11 22 14
f 13 23 50
f 13 50 49
f 13 49 48
f 13 48 47
f 13 47 46
f 13 46 45
f 13 45 44
f 13 44 43
f 13 43 42
f 13 42 52
f 13 52 24
f 13 24 51
f 13 51 77
f 13 77 101
f 13 101 125
f 13 125 124
f 13 124 123
f 13 123 122
f 13 122 155
f 13 155 154
f 13 154 153
f 13 153 152
f 13 152 151
f 13 151 150
f 13 150 149
f 13 149 148
f 13 148 147
f 13 147 146
f 13 146 145
f 13 145 173
f 13 173 172
f 13 172 171
f 13 171 184
f 13 184 183
f 13 183 182
f 13 182 181
f 13 181 185
f 13 185 177
f 13 177 176
f 13 176 175
f 13 175 158
f 13 158 157
f 13 157 134
f 13 134 129
f 13 129 128
f 13 128 127
f 13 127 126
f 13 126 104
f 13 104 103
f 13 103 102
f 13 102 82
f 13 82 81
f 13 81 80
f 13 80 84
f 13 84 79
f 13 79 61
f 13 61 60
f 13 60 59
f 13 59 58
f 13 58 57
f 13 57 56
f 13 56 55
f 13 55 54
f 13 54 53
f 13 53 32
f 13 32 31
f 13 31 30
f 13 30 22
f 13 21 23
f 14 25 26
f 14 26 27
f 14 27 28
f 14 28 29
f 14 29 16
f 14 16 15
f 14 22 30
f 14 30 31
f 14 31 32
f 14 32 25
f 16 29 33
f 16 33 17
f 17 33 34
f 17 34 18
f 18 34 35
f 18 35 36
f 18 36 37
f 18 37 19
f 19 37 38
f 19 38 39
f 19 39 20
f 20 39 40
f 20 40 41
f 21 42 43
f 21 43 44
f 21 44 45
f 21 45 46
f 21 46 47
f 21 47 48
f 21 48 49
f 21 49 50
f 21 50 23
f 24 52 78
f 24 78 94
f 24 94 72
f 24 72 51
f 25 32 53
f 25 53 54
f 25 54 55
f 25 55 56
f 25 56 57
f 25 57 26
f 26 57 58
f 26 58 27
f 27 58 59
f 27 59 60
f 27 60 61
f 27 61 62
f 27 62 28
f 28 62 63
f 28 63 35
f 28 35 34
f 28 34 33
f 28 33 29
f 35 63 36
f 36 63 37
f 37 64 38
f 37 63 64
f 38 64 65
f 38 65 66
f 38 66 40
f 38 40 39
f 40 67 68
f 40 68 41
f 40 66 67
f 41 69 70
f 41 70 71
f 41 68 69
f 51 72 73
f 51 73 74
f 51 74 75
f 51 75 76
f 51 76 77
f 61 79 62
f 62 80 81
f 62 81 82
f 62 82 83
f 62 83 63
f 62 79 84
f 62 84 80
f 63 83 85
f 63 85 64
f 64 85 65
f 65 85 66
f 66 85 86
f 66 86 67
f 67 86 87
f 67 87 68
f 68 87 88
f 68 88 69
f 69 89 90
f 69 90 70
f 69 88 91
f 69 91 89
f 70 90 92
f 70 92 93
f 70 93 71
f 72 94 73
f 73 95 74
f 73 94 78
f 74 95 96
f 74 96 75
f 75 96 97
f 75 97 98
f 75 98 99
f 75 99 76
f 76 99 100
f 76 100 77
f 77 100 101
f 82 102 83
f 83 102 103
f 83 103 104
f 83 104 105
f 83 105 106
f 83 106 85
f 85 106 86
f 86 106 87
f 87 107 91
f 87 91 88
f 87 106 107
f 89 108 90
f 89 91 108
f 90 108 109
f 90 109 110
f 90 110 92
f 91 107 111
f 91 111 108
f 92 110 112
f 92 112 93
f 97 113 98
f 98 114 115
f 98 115 116
f 98 116 100
f 98 100 99
f 98 113 114
f 100 117 118
f 100 118 119
f 100 119 120
f 100 120 121
f 100 121 122
f 100 122 123
f 100 123 124
f 100 124 125
f 100 125 101
f 100 116 115
f 100 115 117
f 104 126 105
f 105 126 106
f 106 126 107
f 107 126 127
f 107 127 128
f 107 128 129
f 107 129 111
f 108 111 130
f 108 130 131
f 108 131 109
f 109 131 110
f 110 131 132
f 110 132 133
f 110 133 112
f 111 129 134
f 111 134 130
f 112 135 136
f 112 133 135
f 113 137 138
f 113 138 114
f 114 138 139
f 114 139 115
f 115 139 140
f 115 140 117
f 117 140 118
f 118 141 142
f 118 142 143
f 118 143 119
f 118 140 144
f 118 144 141
f 119 143 145
f 119 145 146
f 119 146 147
f 119 147 120
f 120 147 148
f 120 148 149
f 120 149 121
f 121 149 150
f 121 150 151
f 121 151 152
f 121 152 153
f 121 153 154
f 121 154 155
f 121 155 122
f 130 156 131
f 130 134 157
f 130 157 158
f 130 158 156
f 131 156 159
f 131 159 132
f 132 159 133
f 133 159 160
f 133 160 135
f 135 161 162
f 135 162 163
f 135 163 136
f 135 160 161
f 136 163 164
f 136 164 137
f 137 164 138
f 138 164 165
f 138 165 139
f 139 165 144
f 139 144 140
f 141 144 165
f 141 165 166
f 141 166 142
f 142 167 168
f 142 168 169
f 142 169 143
f 142 166 170
f 142 170 167
f 143 169 171
f 143 171 172
f 143 172 173
f 143 173 145
f 156 174 159
f 156 158 175
f 156 175 176
f 156 176 177
f 156 177 174
f 159 174 178
f 159 178 160
f 160 178 161
f 161 179 162
f 161 178 168
f 161 168 179
f 162 170 164
f 162 164 163
f 162 179 167
f 162 167 170
f 164 170 165
f 165 170 166
f 167 179 168
f 168 178 174
f 168 174 169
f 169 174 180
f 169 180 181
f 169 181 182
f 169 182 183
f 169 183 184
f 169 184 171
f 174 177 180
f 177 185 180
f 180 185 181

