# https://github.com/mikedh/trimesh
v 0.00453543 -20.08226932 12.18473108
v 0.00636246 -20.32461815 11.32163827
v 0.00453543 -20.08226932 13.00402142
v 0.00453543 20.08461082 12.18473108
v 4.20085918 -23.02922925 11.32163827
v 4.91699271 -25.31215399 12.18473108
v 4.91699271 -25.31215399 13.00402142
v 0.00636246 20.32695965 11.32163827
v 0.00453543 20.08461082 13.00402142
v 18.66785463 -23.02922925 11.32163827
v 15.27352704 -25.31215399 12.18473108
v 15.27352704 -25.31215399 13.00402142
v 4.88776270 24.20453805 13.00402142
v 4.88776270 24.20453805 12.18473108
v 4.52238852 23.89918081 11.32361376
v 4.52056185 23.89433189 11.32163827
v 18.66785463 -23.02922925 12.18440376
v 18.66785463 23.89918081 11.32163827
v 15.27352704 24.20453805 13.00402142
v 15.27352704 24.20453805 12.18473108
v 4.52786926 23.89918081 11.32163827
v 18.66785463 23.89918081 12.18440376
f 1 2 3
f 1 3 9
f 1 9 4
f 1 4 8
f 1 8 2
f 2 5 6
f 2 6 7
f 2 7 3
f 2 8 16
f 2 16 21
f 2 21 18
f 2 18 10
f 2 10 5
f 3 7 12
f 3 12 19
f 3 19 13
f 3 13 9
f 4 9 8
f 5 10 11
f 5 11 6
f 6 11 12
f 6 12 7
f 8 9 13
f 8 13 14
f 8 14 15
f 8 15 16
f 10 17 12
f 10 12 11
f 10 18 22
f 10 22 17
f 12 17 22
f 12 22 19
f 13 19 20
f 13 20 14
f 14 20 18
f 14 18 21
f 14 21 15
f 15 21 16
f 18 20 19
f 18 19 22

