# https://github.com/mikedh/trimesh
v 5.52700403 -0.49025645 13.00409962
v 20.08653661 -0.49025645 13.00409962
v 5.52700403 -0.49025645 13.82658492
v 5.52700403 35.09030824 13.00409962
v 20.08653661 -0.49025645 13.82658492
v 24.98861535 4.92606967 13.00409962
v 5.52700403 35.09030824 13.82658492
v 5.52700403 35.09379286 13.15231892
v 5.99568274 35.01368144 13.00409962
v 24.98861535 4.92606967 13.82658492
v 24.98861535 25.25036030 13.00409962
v 5.99568274 35.01368144 13.82658492
v 6.40720564 34.94401808 13.00409962
v 24.98861535 25.25036030 13.82658492
v 24.63424755 25.59170786 13.00409962
v 6.33290337 34.95446614 13.82658492
v 7.29121845 34.76985679 13.00409962
v 6.48150863 34.92660080 13.82658492
v 7.29121845 34.76985679 13.82658492
v 24.63424755 25.59170786 13.82658492
v 24.19986392 26.00620629 13.00409962
v 8.26477547 34.55041866 13.15231892
v 8.26287023 34.55041866 13.00409962
v 8.26477547 34.55041866 13.82658492
v 24.27797668 25.92957660 13.82658492
v 24.04744745 26.14553301 13.00409962
v 24.12174972 26.07586965 13.82658492
v 9.23642653 34.30311519 13.15231892
v 9.23452201 34.30311519 13.00409962
v 9.23642653 34.30311519 13.82658492
v 23.63592383 26.51823343 13.00409962
v 23.63592383 26.51823343 13.15231892
v 23.63401786 26.51823343 13.82658492
v 9.46505124 34.24041527 13.82658492
v 9.98326552 34.09064050 13.00409962
v 23.07960470 27.00587694 13.00409962
v 23.08151067 27.00587694 13.82658492
v 9.98326552 34.09064050 13.82658492
v 10.46909141 33.94782916 13.00409962
v 22.59568478 27.40992442 13.00409962
v 22.59378026 27.40992442 13.82658492
v 10.32048542 33.98962718 13.82658492
v 10.46909141 33.94782916 13.15231892
v 10.68628323 33.87816580 13.82658492
v 11.17973008 33.71794298 13.00409962
v 21.91552854 27.95678033 13.00409962
v 21.98792629 27.89756793 13.82658492
v 11.17973008 33.71794298 13.82658492
v 11.47694134 33.61692966 13.82658492
v 12.15138186 33.38355885 13.00409962
v 21.50400492 28.27723178 13.00409962
v 21.50210040 28.27723178 13.82658492
v 12.15138186 33.38007424 13.82658492
v 12.36285867 33.30344454 13.82658492
v 12.84296956 33.12231981 13.82658492
v 12.84296956 33.12231981 13.00409962
v 20.89434191 28.72656189 13.00409962
v 20.89434191 28.72656189 13.82658492
v 13.18018946 32.98995943 13.82658492
v 13.25449318 32.96209409 13.00409962
v 20.35517069 29.11667670 13.00409962
v 20.35517069 29.11667670 13.82658492
v 13.32879545 32.93074413 13.82658492
v 13.44691757 32.88198267 13.00409962
v 20.28086697 29.16892277 13.00409962
v 19.86934480 29.44757620 13.82658492
v 14.09468542 32.61029268 13.82658492
v 14.09468542 32.61029268 13.00409962
v 19.86934480 29.44757620 13.00409962
v 19.35684697 29.78544494 13.82658492
v 14.93487766 32.23759516 13.82658492
v 14.22233447 32.55456199 13.00409962
v 19.05772902 29.98050234 13.00409962
v 18.98152223 30.02926670 13.82658492
v 15.41689452 32.00770608 13.82658492
v 14.93487766 32.23759516 13.15231892
v 14.93487766 32.23411054 13.00409962
v 18.64620685 30.24173849 13.00409962
v 18.64430233 30.24173849 13.82658492
v 15.41689452 32.00770608 13.00409962
v 16.03417850 31.69770558 13.82658492
v 17.97748205 30.63882253 13.00409962
v 17.97938657 30.63882253 13.15231892
v 17.97938657 30.63882253 13.82658492
v 16.03417850 31.69770558 13.00409962
v 16.28376015 31.56882692 13.82658492
v 16.15801562 31.63500566 13.00409962
v 17.43259438 30.95578936 13.00409962
v 17.33352469 31.01152005 13.82658492
v 16.84769880 31.27624081 13.82658492
v 16.84769880 31.27624081 13.00409962
v 17.33352469 31.01152005 13.00409962
f 1 2 5
f 1 5 3
f 1 3 7
f 1 7 8
f 1 8 4
f 1 4 9
f 1 9 13
f 1 13 17
f 1 17 23
f 1 23 29
f 1 29 35
f 1 35 39
f 1 39 45
f 1 45 50
f 1 50 56
f 1 56 60
f 1 60 64
f 1 64 68
f 1 68 72
f 1 72 77
f 1 77 80
f 1 80 85
f 1 85 87
f 1 87 91
f 1 91 92
f 1 92 88
f 1 88 82
f 1 82 78
f 1 78 73
f 1 73 69
f 1 69 65
f 1 65 61
f 1 61 57
f 1 57 51
f 1 51 46
f 1 46 40
f 1 40 36
f 1 36 31
f 1 31 26
f 1 26 21
f 1 21 15
f 1 15 11
f 1 11 6
f 1 6 2
f 2 6 10
f 2 10 5
f 3 5 10
f 3 10 14
f 3 14 20
f 3 20 25
f 3 25 27
f 3 27 33
f 3 33 37
f 3 37 41
f 3 41 47
f 3 47 52
f 3 52 58
f 3 58 62
f 3 62 66
f 3 66 70
f 3 70 74
f 3 74 79
f 3 79 84
f 3 84 89
f 3 89 90
f 3 90 86
f 3 86 81
f 3 81 75
f 3 75 71
f 3 71 67
f 3 67 63
f 3 63 59
f 3 59 55
f 3 55 54
f 3 54 53
f 3 53 49
f 3 49 48
f 3 48 44
f 3 44 42
f 3 42 38
f 3 38 34
f 3 34 30
f 3 30 24
f 3 24 19
f 3 19 18
f 3 18 16
f 3 16 12
f 3 12 7
f 4 8 9
f 6 11 14
f 6 14 10
f 7 12 8
f 8 13 9
f 8 12 13
f 11 15 20
f 11 20 14
f 12 16 13
f 13 16 18
f 13 18 19
f 13 19 17
f 15 21 20
f 17 19 24
f 17 24 22
f 17 22 23
f 20 21 25
f 21 26 27
f 21 27 25
f 22 28 29
f 22 29 23
f 22 24 30
f 22 30 28
f 26 31 32
f 26 32 33
f 26 33 27
f 28 30 34
f 28 34 35
f 28 35 29
f 31 36 37
f 31 37 32
f 32 37 33
f 34 38 35
f 35 38 43
f 35 43 39
f 36 40 37
f 37 40 41
f 38 42 43
f 39 43 44
f 39 44 45
f 40 46 47
f 40 47 41
f 42 44 43
f 44 48 45
f 45 49 50
f 45 48 49
f 46 51 52
f 46 52 47
f 49 53 50
f 50 53 54
f 50 54 55
f 50 55 56
f 51 57 58
f 51 58 52
f 55 59 60
f 55 60 56
f 57 61 62
f 57 62 58
f 59 63 60
f 60 63 64
f 61 65 62
f 62 65 66
f 63 67 64
f 64 67 68
f 65 69 66
f 66 69 70
f 67 71 72
f 67 72 68
f 69 73 70
f 70 73 74
f 71 75 80
f 71 80 76
f 71 76 72
f 72 76 77
f 73 78 74
f 74 78 79
f 75 81 85
f 75 85 80
f 76 80 77
f 78 82 83
f 78 83 84
f 78 84 79
f 81 86 87
f 81 87 85
f 82 88 83
f 83 88 84
f 84 88 89
f 86 90 87
f 87 90 91
f 88 92 89
f 89 92 91
f 89 91 90

