# https://github.com/mikedh/trimesh
v -24.99263715 4.92628692 12.18473397
v -20.09103925 0.00532955 12.18473397
v -24.99263715 4.92628692 13.00402142
v -24.99263715 25.24647595 12.18473397
v -10.16152755 0.00532955 12.18473397
v -20.09103925 0.00532955 13.00402142
v -24.99263715 25.24647595 13.00402142
v -24.55852001 25.66960627 13.00402142
v -24.63692243 25.59297658 12.18473397
v -10.16152755 0.00532955 13.00402142
v -10.16152755 34.04222953 12.18473397
v -24.12295167 26.07940930 13.00402142
v -24.12585552 26.07940930 12.18473397
v -10.16152755 34.03889843 13.00402142
v -10.47223337 33.94894146 12.18473397
v -10.46932952 33.94894146 13.00402142
v -23.71206531 26.45256159 13.00402142
v -23.63801939 26.51919510 12.18473397
v -11.18221016 33.71905238 12.18473397
v -11.17930632 33.72238637 13.00402142
v -23.63801939 26.51919510 13.00402142
v -23.08339477 27.00562783 13.00402142
v -23.08484742 27.00229673 12.18473397
v -12.15352811 33.38254794 12.18473397
v -12.00253097 33.43585417 13.00402142
v -22.59700984 27.41209687 13.00402142
v -22.59700984 27.41209687 12.18473397
v -12.84317798 33.12600429 12.18473397
v -12.73718974 33.16598614 13.00402142
v -12.15062426 33.38254794 13.00402142
v -21.99157008 27.89852960 13.00402142
v -21.99302128 27.89519850 12.18473397
v -12.84317798 33.12600429 13.00402142
v -13.33246676 32.93276596 12.18473397
v -21.50518515 28.27834697 13.00402142
v -21.50518515 28.27834697 12.18473397
v -12.91867655 33.09601864 13.00402142
v -14.09761520 32.60958880 12.18473397
v -14.09471135 32.61291990 13.00402142
v -13.32956291 32.93276596 13.00402142
v -21.41226350 28.34831158 13.00402142
v -20.89829274 28.72479786 12.18473397
v -14.93390716 32.23643362 12.18473397
v -14.93390716 32.23643362 13.00402142
v -20.89684009 28.72479786 13.00402142
v -20.35818736 29.11793962 12.18473397
v -15.42174330 32.00987853 12.18473397
v -15.00795453 32.20311687 13.00402142
v -20.35528352 29.11793962 13.00402142
v -19.94439715 29.39780673 13.00402142
v -19.87035123 29.44778186 12.18473397
v -16.04170374 31.70002866 12.18473397
v -15.42029210 32.00987853 13.00402142
v -19.86889858 29.44778186 13.00402142
v -19.13278861 29.93421169 13.00402142
v -19.13569246 29.93088060 12.18473397
v -16.03879989 31.70002866 13.00402142
v -16.85040843 31.27689834 12.18473397
v -16.85040843 31.27689834 13.00402142
v -18.72044960 30.19408933 13.00402142
v -18.64640368 30.24073047 12.18473397
v -17.33388952 31.01369250 12.18473397
v -16.92590700 31.23691939 13.00402142
v -18.64640368 30.24073047 13.00402142
v -17.98288698 30.63720622 12.18473397
v -17.33969721 31.01035851 12.18473397
v -17.33679337 31.01035851 13.00402142
v -17.97998313 30.63720622 13.00402142
f 1 2 6
f 1 6 3
f 1 3 7
f 1 7 4
f 1 4 9
f 1 9 13
f 1 13 18
f 1 18 23
f 1 23 27
f 1 27 32
f 1 32 36
f 1 36 42
f 1 42 46
f 1 46 51
f 1 51 56
f 1 56 61
f 1 61 65
f 1 65 66
f 1 66 62
f 1 62 58
f 1 58 52
f 1 52 47
f 1 47 43
f 1 43 38
f 1 38 34
f 1 34 28
f 1 28 24
f 1 24 19
f 1 19 15
f 1 15 11
f 1 11 5
f 1 5 2
f 2 5 10
f 2 10 6
f 3 6 10
f 3 10 14
f 3 14 16
f 3 16 20
f 3 20 25
f 3 25 30
f 3 30 29
f 3 29 33
f 3 33 37
f 3 37 40
f 3 40 39
f 3 39 44
f 3 44 48
f 3 48 53
f 3 53 57
f 3 57 59
f 3 59 63
f 3 63 67
f 3 67 68
f 3 68 64
f 3 64 60
f 3 60 55
f 3 55 54
f 3 54 50
f 3 50 49
f 3 49 45
f 3 45 41
f 3 41 35
f 3 35 31
f 3 31 26
f 3 26 22
f 3 22 21
f 3 21 17
f 3 17 12
f 3 12 8
f 3 8 7
f 4 7 8
f 4 8 9
f 5 11 14
f 5 14 10
f 8 12 13
f 8 13 9
f 11 15 16
f 11 16 14
f 12 17 13
f 13 17 18
f 15 19 20
f 15 20 16
f 17 21 18
f 18 21 22
f 18 22 23
f 19 24 20
f 20 24 25
f 22 26 27
f 22 27 23
f 24 28 29
f 24 29 30
f 24 30 25
f 26 31 27
f 27 31 32
f 28 33 29
f 28 34 33
f 31 35 36
f 31 36 32
f 33 34 37
f 34 38 39
f 34 39 40
f 34 40 37
f 35 41 36
f 36 41 42
f 38 43 39
f 39 43 44
f 41 45 42
f 42 45 46
f 43 47 48
f 43 48 44
f 45 49 46
f 46 49 50
f 46 50 51
f 47 52 53
f 47 53 48
f 50 54 51
f 51 54 55
f 51 55 56
f 52 57 53
f 52 58 59
f 52 59 57
f 55 60 61
f 55 61 56
f 58 62 63
f 58 63 59
f 60 64 61
f 61 64 65
f 62 66 67
f 62 67 63
f 64 68 65
f 65 68 67
f 65 67 66

