# https://github.com/mikedh/trimesh
v 24.98897743 -25.25570495 12.18011679
v 24.98897743 -25.25323415 11.32157165
v 25.04363637 -25.19883590 10.07980273
v 25.12407800 -25.12219172 10.07980273
v 25.12510919 -25.12219172 11.32157165
v 25.12304681 -25.12466542 12.18464997
v 24.98897743 -25.11477351 12.18464997
v 24.98897743 -4.59083074 11.32157165
v 25.04363637 -2.93180582 10.07980273
v 25.59848112 -24.63511595 10.07980273
v 25.59848112 -24.63511595 12.18464997
v 24.98897743 -5.23119921 12.18464997
v 24.98897743 -4.92461381 12.18011679
v 27.93439347 0.00301226 10.11091517
v 27.92511274 0.00301226 10.07980273
v 26.08422736 -24.12331475 10.07980273
v 26.08422736 -24.12578845 11.32157165
v 26.08216497 -24.12825925 12.18464997
v 29.89903632 -0.48653649 12.18464997
v 29.89903632 0.00054001 12.18011679
v 29.62470752 0.00301226 11.32157165
v 35.52482321 0.00301226 10.07980273
v 26.52253299 -23.63871267 10.07980273
v 26.13579273 -24.06892084 11.32157165
v 26.52356418 -23.63871267 12.18464997
v 32.72894732 0.00054001 12.18464997
v 35.52379202 0.00301226 11.32157165
v 35.52379202 -0.48900874 10.07980273
v 35.52482321 0.00301226 10.23659598
v 26.95258909 -23.14916320 11.32157165
v 26.52356418 -23.63871267 11.32157165
v 27.00931041 -23.08240658 10.07980273
v 27.00724803 -23.08487884 12.18464997
v 35.52276083 -0.49148099 12.18464997
v 35.52276083 0.00054001 12.18011679
v 35.52379202 -0.48900874 11.32157165
v 35.52069845 -0.60274250 11.32157165
v 35.49594696 -1.46068804 10.07980273
v 27.35067246 -22.67445013 10.07980273
v 27.41770859 -22.59780306 11.32157165
v 27.41770859 -22.59780306 12.18464997
v 35.49491576 -1.46316029 12.18464997
v 35.49594696 -1.46068804 11.32157165
v 35.48975981 -1.57442180 11.32157165
v 35.44231920 -2.43236733 10.07980273
v 27.41667740 -22.59533081 10.07980273
v 27.49505665 -22.49890426 10.07980273
v 27.90242363 -21.99204902 10.07980273
v 27.90345483 -21.99204902 11.32157165
v 27.90551721 -21.98957677 12.18464997
v 35.44128801 -2.43731256 12.18464997
v 35.44231920 -2.43236733 11.32157165
v 35.36290877 -3.40651888 10.07980273
v 28.28297675 -21.50497325 10.07980273
v 27.94780185 -21.93518142 11.32157165
v 28.28297675 -21.50497325 11.32157165
v 28.28194556 -21.50497325 12.18464997
v 35.36187758 -3.40899186 12.18464997
v 35.36290877 -3.40651888 11.32157165
v 35.27318352 -4.21996025 10.07980273
v 28.73056310 -20.89427470 10.07980273
v 28.67899773 -20.96597582 11.32157165
v 28.72953191 -20.89674550 12.18464997
v 35.25461918 -4.38067116 12.18464997
v 35.25565037 -4.37572593 11.32157165
v 35.25565037 -4.37572593 10.07980273
v 29.12143103 -20.35527727 10.07980273
v 29.12246222 -20.35527727 11.32157165
v 29.12246222 -20.35527727 12.18011679
v 29.12039984 -20.35774808 12.18464997
v 35.24018250 -4.48945969 11.32157165
v 35.12054980 -5.34987748 12.18464997
v 35.12158099 -5.34740522 12.18011679
v 35.12261218 -5.34740522 11.32157165
v 35.12261218 -5.34740522 10.07980273
v 29.45041588 -19.86820150 10.07980273
v 29.45041588 -19.86820150 11.32157165
v 29.44938468 -19.86820150 12.18464997
v 35.01845025 -6.00013641 12.18464997
v 35.01948145 -6.00013641 11.32157165
v 35.01948145 -6.00260866 10.23659598
v 35.01948145 -6.00260866 10.07980273
v 29.93513092 -19.12893278 10.07980273
v 29.87944078 -19.21794257 11.32157165
v 29.93616211 -19.13140648 12.18011679
v 29.93719330 -19.12893278 12.18464997
v 34.93079029 -6.48721219 12.18011679
v 34.92975910 -6.49215741 12.18464997
v 34.93079029 -6.48968444 10.23659598
v 34.93079029 -6.48968444 10.07980273
v 30.19399185 -18.72097633 10.07980273
v 29.93616211 -19.13140648 11.32157165
v 30.24349193 -18.64432926 11.32157165
v 30.24246074 -18.64432926 12.18464997
v 34.77093822 -7.29076382 12.18011679
v 34.91325713 -6.58116575 11.32157165
v 34.76990703 -7.29570905 12.18464997
v 34.79672091 -7.16219582 10.07980273
v 30.24349193 -18.64185701 10.07980273
v 30.63848463 -17.97923536 10.07980273
v 30.63848463 -17.97923536 12.18011679
v 30.63642224 -17.98170906 12.18464997
v 34.77093822 -7.29076382 10.07980273
v 34.58839416 -8.10914969 10.07980273
v 34.55229956 -8.26738834 12.18464997
v 34.55333075 -8.26491609 12.18011679
v 31.01285059 -17.33392238 10.07980273
v 31.01285059 -17.33392238 11.32157165
v 31.01388178 -17.33145013 12.18464997
v 34.55333075 -8.26244312 11.20825355
v 34.55229956 -8.26244312 10.07980273
v 34.30581582 -9.23906764 12.18464997
v 34.30684701 -9.23659539 12.18011679
v 34.30788110 -9.23659539 11.32157165
v 34.30788110 -9.23659539 10.07980273
v 31.27789577 -16.84684661 10.07980273
v 31.27789577 -16.84684661 11.32157165
v 31.27686458 -16.84684661 12.18464997
v 34.09646077 -9.98822465 12.18464997
v 34.09749197 -9.98822465 11.32157165
v 34.09749197 -9.98822465 10.07980273
v 31.69866825 -16.03587677 10.07980273
v 31.69866825 -16.03587677 12.18011679
v 31.69660587 -16.03835047 12.18464997
v 33.95104829 -10.47282817 12.18464997
v 34.07377166 -10.06734325 10.07980273
v 32.00806336 -15.41281551 10.07980273
v 32.00702927 -15.41528776 12.18464997
v 33.72106362 -11.18489849 12.18464997
v 33.75922350 -11.06622022 10.07980273
v 33.95001710 -10.47530042 11.32157165
v 33.96754735 -10.41843354 11.32157165
v 33.95001710 -10.47282817 10.07980273
v 32.19988525 -15.00733131 10.07980273
v 32.23701104 -14.92821199 11.32157165
v 32.23597985 -14.92821199 12.18464997
v 33.68393783 -11.29368702 11.32157165
v 33.72209481 -11.17995326 10.07980273
v 33.38382634 -12.15410553 12.18464997
v 33.38485753 -12.15163328 12.18011679
v 32.23701104 -14.92821199 10.07980273
v 32.60931462 -14.09499187 12.18464997
v 33.38485753 -12.15163328 10.07980273
v 33.12703069 -12.84145115 12.18464997
v 33.35495008 -12.23322486 11.32157165
v 32.61137701 -14.09004592 10.07980273
v 32.93108403 -13.33099918 12.18464997
v 33.16828414 -12.73018964 10.07980273
v 33.12703069 -12.84145115 11.32157165
v 32.93417760 -13.32358242 12.18464997
v 32.93314641 -13.32605467 10.07980273
v 33.09609205 -12.91809678 10.07980273
f 1 2 3
f 1 3 4
f 1 4 5
f 1 5 6
f 1 6 7
f 1 7 12
f 1 12 13
f 1 13 8
f 1 8 2
f 2 8 9
f 2 9 3
f 3 9 15
f 3 15 22
f 3 22 28
f 3 28 38
f 3 38 45
f 3 45 53
f 3 53 60
f 3 60 66
f 3 66 75
f 3 75 82
f 3 82 90
f 3 90 98
f 3 98 103
f 3 103 104
f 3 104 111
f 3 111 115
f 3 115 121
f 3 121 126
f 3 126 133
f 3 133 130
f 3 130 138
f 3 138 143
f 3 143 148
f 3 148 152
f 3 152 151
f 3 151 146
f 3 146 141
f 3 141 134
f 3 134 127
f 3 127 122
f 3 122 116
f 3 116 107
f 3 107 100
f 3 100 99
f 3 99 91
f 3 91 83
f 3 83 76
f 3 76 67
f 3 67 61
f 3 61 54
f 3 54 48
f 3 48 47
f 3 47 46
f 3 46 39
f 3 39 32
f 3 32 23
f 3 23 16
f 3 16 10
f 3 10 4
f 4 10 5
f 5 10 6
f 6 10 11
f 6 11 18
f 6 18 25
f 6 25 33
f 6 33 41
f 6 41 50
f 6 50 57
f 6 57 63
f 6 63 70
f 6 70 78
f 6 78 86
f 6 86 94
f 6 94 102
f 6 102 109
f 6 109 118
f 6 118 124
f 6 124 128
f 6 128 136
f 6 136 142
f 6 142 147
f 6 147 150
f 6 150 144
f 6 144 139
f 6 139 129
f 6 129 125
f 6 125 119
f 6 119 112
f 6 112 105
f 6 105 97
f 6 97 88
f 6 88 79
f 6 79 72
f 6 72 64
f 6 64 58
f 6 58 51
f 6 51 42
f 6 42 34
f 6 34 26
f 6 26 19
f 6 19 12
f 6 12 7
f 8 13 9
f 9 13 14
f 9 14 15
f 10 16 17
f 10 17 18
f 10 18 11
f 12 19 20
f 12 20 13
f 13 20 14
f 14 20 21
f 14 21 27
f 14 27 29
f 14 29 22
f 14 22 15
f 16 23 24
f 16 24 17
f 17 24 18
f 18 24 25
f 19 26 20
f 20 26 21
f 21 26 27
f 22 29 36
f 22 36 28
f 23 30 31
f 23 31 24
f 23 32 30
f 24 31 25
f 25 31 30
f 25 30 33
f 26 34 35
f 26 35 27
f 27 35 34
f 27 34 36
f 27 36 29
f 28 37 38
f 28 36 37
f 30 32 33
f 32 39 40
f 32 40 33
f 33 40 41
f 34 42 37
f 34 37 36
f 37 42 43
f 37 43 38
f 38 44 45
f 38 43 44
f 39 46 40
f 40 46 47
f 40 47 48
f 40 48 49
f 40 49 50
f 40 50 41
f 42 51 44
f 42 44 43
f 44 51 52
f 44 52 45
f 45 52 59
f 45 59 53
f 48 54 49
f 49 54 55
f 49 55 50
f 50 55 54
f 50 54 56
f 50 56 57
f 51 58 59
f 51 59 52
f 53 59 60
f 54 61 62
f 54 62 56
f 56 62 63
f 56 63 57
f 58 64 59
f 59 64 65
f 59 65 60
f 60 65 66
f 61 67 68
f 61 68 62
f 62 68 63
f 63 68 69
f 63 69 70
f 64 71 65
f 64 72 73
f 64 73 74
f 64 74 71
f 65 71 66
f 66 71 75
f 67 76 68
f 68 76 77
f 68 77 69
f 69 77 78
f 69 78 70
f 71 74 75
f 72 79 73
f 73 79 74
f 74 79 80
f 74 80 81
f 74 81 82
f 74 82 75
f 76 83 84
f 76 84 77
f 77 84 85
f 77 85 78
f 78 85 86
f 79 87 80
f 79 88 87
f 80 87 81
f 81 87 89
f 81 89 90
f 81 90 82
f 83 91 92
f 83 92 84
f 84 92 85
f 85 93 94
f 85 94 86
f 85 92 93
f 87 88 97
f 87 97 95
f 87 95 96
f 87 96 89
f 89 96 90
f 90 96 98
f 91 93 92
f 91 99 93
f 93 99 100
f 93 100 101
f 93 101 94
f 94 101 102
f 95 97 103
f 95 103 96
f 96 103 98
f 97 104 103
f 97 105 106
f 97 106 104
f 100 107 108
f 100 108 101
f 101 108 109
f 101 109 102
f 104 106 110
f 104 110 111
f 105 112 113
f 105 113 106
f 106 113 114
f 106 114 115
f 106 115 110
f 107 116 117
f 107 117 108
f 108 117 109
f 109 117 118
f 110 115 111
f 112 119 113
f 113 119 114
f 114 119 120
f 114 120 121
f 114 121 115
f 116 122 123
f 116 123 117
f 117 123 118
f 118 123 124
f 119 125 120
f 120 125 126
f 120 126 121
f 122 127 128
f 122 128 123
f 123 128 124
f 125 129 130
f 125 130 131
f 125 131 132
f 125 132 126
f 126 132 133
f 127 134 128
f 128 134 135
f 128 135 136
f 129 137 138
f 129 138 130
f 129 139 140
f 129 140 137
f 130 133 131
f 131 133 132
f 134 141 135
f 135 141 142
f 135 142 136
f 137 140 143
f 137 143 138
f 139 144 140
f 140 144 145
f 140 145 143
f 141 146 142
f 142 146 151
f 142 151 147
f 143 145 148
f 144 149 145
f 144 150 149
f 145 149 148
f 147 151 150
f 148 149 152
f 149 150 151
f 149 151 152

