# https://github.com/mikedh/trimesh
v 15.27562418 -32.07868780 12.18473397
v 15.42212289 -32.00828870 12.18473397
v 15.41831820 -32.01099703 13.00402142
v 15.27562418 -32.07597947 13.00402142
v 15.27562418 -4.41750584 12.18473397
v 16.03761097 -31.69961775 12.18473397
v 15.94343219 -31.74835603 13.00402142
v 15.27562418 -4.41750584 13.00402142
v 22.86315587 -4.41750584 12.18473397
v 16.84906599 -31.27722896 12.18473397
v 16.72539832 -31.34221141 13.00402142
v 16.03761097 -31.69961775 13.00402142
v 22.85459351 -4.41750584 13.00402142
v 24.99215500 -4.92383390 12.18473397
v 24.99215500 -4.92383390 13.00402142
v 16.85001753 -31.27722896 13.00402142
v 17.33327558 -31.01458797 12.18473397
v 24.99215500 -25.25003629 12.18473397
v 24.99215500 -25.25003629 13.00402142
v 17.33517865 -31.01187964 13.00402142
v 17.33803180 -31.01187964 12.18473397
v 24.71152029 -25.52350770 13.00402142
v 24.63732085 -25.59390680 12.18473397
v 17.88312369 -30.69508660 13.00402142
v 17.98110716 -30.63822624 12.18473397
v 17.98110716 -30.63822624 13.00402142
v 24.55836228 -25.66971965 13.00402142
v 24.12171931 -26.08398635 12.18473397
v 18.64701355 -30.24020370 12.18473397
v 18.54427386 -30.30248071 13.00402142
v 24.12362093 -26.08128092 13.00402142
v 23.63846126 -26.51991677 13.00402142
v 23.63846126 -26.51991677 12.18473397
v 19.13217467 -29.93424107 13.00402142
v 18.72026435 -30.19417664 13.00402142
v 18.64701355 -30.24020370 13.00402142
v 19.13598081 -29.93153564 12.18473397
v 23.55284340 -26.59572962 13.00402142
v 23.08290394 -27.00729089 13.00402142
v 23.08100232 -27.00729089 12.18473397
v 19.75812674 -29.52268269 13.00402142
v 19.87038033 -29.44686984 12.18473397
v 22.59774427 -27.41343551 13.00402142
v 22.59679273 -27.41343551 12.18473397
v 19.94458122 -29.39813156 13.00402142
v 20.35363838 -29.12195183 12.18473397
v 21.99081710 -27.90080964 13.00402142
v 21.99367171 -27.89810131 12.18473397
v 20.35554000 -29.11924350 13.00402142
v 20.89587711 -28.72663761 12.18473397
v 20.89587711 -28.72663761 13.00402142
v 21.50470590 -28.27987969 13.00402142
v 21.50565598 -28.27987969 12.18473397
f 1 2 3
f 1 3 4
f 1 4 8
f 1 8 5
f 1 5 9
f 1 9 14
f 1 14 18
f 1 18 23
f 1 23 28
f 1 28 33
f 1 33 40
f 1 40 44
f 1 44 48
f 1 48 53
f 1 53 50
f 1 50 46
f 1 46 42
f 1 42 37
f 1 37 29
f 1 29 25
f 1 25 21
f 1 21 17
f 1 17 10
f 1 10 6
f 1 6 2
f 2 6 7
f 2 7 3
f 3 7 12
f 3 12 11
f 3 11 16
f 3 16 20
f 3 20 24
f 3 24 26
f 3 26 30
f 3 30 36
f 3 36 35
f 3 35 34
f 3 34 41
f 3 41 45
f 3 45 49
f 3 49 51
f 3 51 52
f 3 52 47
f 3 47 43
f 3 43 39
f 3 39 38
f 3 38 32
f 3 32 31
f 3 31 27
f 3 27 22
f 3 22 19
f 3 19 15
f 3 15 13
f 3 13 8
f 3 8 4
f 5 8 13
f 5 13 9
f 6 10 11
f 6 11 12
f 6 12 7
f 9 13 15
f 9 15 14
f 10 16 11
f 10 17 16
f 14 15 19
f 14 19 18
f 16 17 20
f 17 21 20
f 18 19 22
f 18 22 23
f 20 21 24
f 21 25 26
f 21 26 24
f 22 27 23
f 23 27 28
f 25 29 30
f 25 30 26
f 27 31 28
f 28 31 32
f 28 32 33
f 29 34 35
f 29 35 36
f 29 36 30
f 29 37 34
f 32 38 33
f 33 38 39
f 33 39 40
f 34 37 41
f 37 42 41
f 39 43 44
f 39 44 40
f 41 42 45
f 42 46 45
f 43 47 48
f 43 48 44
f 45 46 49
f 46 50 51
f 46 51 49
f 47 52 53
f 47 53 48
f 50 53 51
f 51 53 52

