# https://github.com/mikedh/trimesh
v -5.07614438 -25.75894668 19.27002472
v -5.43510619 -25.75894668 20.04060863
v 1.47804870 -29.85223238 19.27002472
v -24.16639206 -25.75894668 19.27002472
v -5.52296386 -25.75894668 20.15041025
v 1.47804870 -29.97920797 19.68093425
v 1.47804870 -29.97262399 19.66376897
v 1.47804870 -35.34036100 19.27002472
v -23.53883672 -26.43332275 19.27002472
v -23.47357041 -26.37406689 19.62485308
v -23.70702087 -25.75894668 19.92412455
v -5.80410909 -25.75894668 20.48899155
v 1.47804870 -30.51720317 20.15761701
v 1.47804870 -35.18046839 19.75548998
v 0.84547210 -35.35917156 19.27002472
v -22.50211415 -27.33719396 19.27002472
v -22.45190874 -27.29581016 19.57558472
v -22.83848390 -26.00819088 20.31393521
v -22.80083092 -26.71078568 19.81995393
v -23.52879564 -25.75894668 20.04100257
v -6.25845975 -25.75894668 20.60469066
v 1.47804870 -31.00535069 20.46972913
v 1.47804870 -30.53037114 20.16849376
v 1.47804870 -35.16918032 19.76557885
v 0.48400037 -35.19551625 19.77357059
v 0.48400037 -35.36669694 19.27002472
v -21.42271879 -28.21849193 19.27002472
v -21.39761536 -28.19968138 19.48871263
v -20.89557138 -28.38214724 19.68067066
v -21.77916925 -27.65227800 19.72613868
v -21.95739448 -26.76345465 20.29716387
v -22.34396964 -26.23392333 20.44038072
v -22.83848390 -25.75894668 20.39700985
v -7.29016105 -25.75894668 20.60862136
v 1.47804870 -32.55914483 20.56551407
v 1.47804870 -32.53939288 20.56525048
v 1.47804870 -31.58755388 20.53485061
v 1.47804870 -31.57250602 20.53354135
v 1.47804870 -31.01569737 20.47300519
v 1.47804870 -34.62836382 20.24134628
v 0.48400037 -34.64152890 20.25942689
v -0.48745589 -35.19551625 19.77370094
v -0.48745589 -35.36669694 19.27002472
v -19.74588844 -29.36690616 19.27002472
v -18.55102281 -30.18330858 19.27002472
v -18.51336839 -30.16073533 19.51636072
v -19.65301024 -29.30389051 19.65472577
v -20.92318327 -27.68331802 20.20871892
v -19.91658395 -28.66337286 20.01728517
v -21.26457283 -27.11052011 20.42033332
v -22.19837756 -25.75894668 20.50222614
v -19.53252015 -28.24388647 20.46081917
v -20.61693533 -27.34754064 20.47313554
v -21.69633213 -26.46247998 20.47824805
v -6.31870479 -32.55914483 20.56367763
v -5.34724853 -32.55914483 20.56525048
v -4.37579228 -32.55914483 20.56551407
v -19.92411367 -25.75894668 20.56551407
v -18.95265886 -26.72865484 20.56551407
v -17.97869270 -27.70118718 20.56433226
v -16.03577873 -28.67277813 20.56551407
v -14.09286621 -29.64437198 20.56551407
v -12.14744307 -30.61596293 20.56512014
v -9.23558420 -31.58755388 20.56551407
v 0.48400037 -33.53167718 20.55057628
v 1.47804870 -33.51098383 20.54847914
v 1.47804870 -34.61801715 20.24684983
v 1.45545663 -34.14303760 20.48623978
v 0.48400037 -34.15526417 20.48859762
v -0.48745589 -34.64152890 20.25956014
v -1.45891287 -34.62930232 20.24239485
v -1.45891287 -35.18046839 19.75653565
v -1.45891287 -35.34130240 19.27002472
v -16.72358057 -31.21039269 19.27002472
v -16.65580435 -31.17371008 19.57663329
v -17.97869270 -30.31686526 19.69298703
v -18.88237273 -29.63496381 19.79846691
v -18.95265886 -28.92390802 20.33162478
v -20.18015765 -27.99558077 20.37997492
v -21.95739448 -25.84829826 20.51192108
v -21.94986476 -25.75894668 20.51624571
v -19.88395079 -27.68331802 20.49672259
v -18.41044910 -29.11295787 20.43408930
v -17.76281160 -29.28225866 20.47379307
v -18.95265886 -28.43764040 20.48571549
v -20.92318327 -26.76345465 20.50720541
v -10.20704046 -31.58755388 20.56289265
v -7.29016105 -32.55914483 20.55843767
v -2.43036913 -33.53167718 20.54376057
v -1.45891287 -33.53167718 20.54821555
v -0.48745589 -33.53167718 20.55057628
v -20.89557138 -25.75894668 20.56184408
v -17.00723499 -28.67277813 20.55856802
v -15.06432247 -29.64437198 20.56092585
v -19.92411367 -26.72865484 20.55817408
v -13.11890005 -30.61596293 20.55948624
v 1.45545663 -33.53167718 20.54808520
v 1.47804870 -33.53167718 20.54795485
v 1.47804870 -34.14209620 20.48610943
v 1.47804870 -34.12986963 20.48741870
v -0.48745589 -34.15526417 20.48859762
v -1.45891287 -34.14303760 20.48623978
v -2.43036913 -34.12422704 20.48191515
v -3.40182538 -34.09789111 20.47510233
v -4.37579228 -34.06402979 20.46278597
v -2.43036913 -34.60955037 20.21094641
v -2.43036913 -35.15507095 19.72509010
v -2.43036913 -35.29521451 19.27002472
v -14.79070768 -32.17257837 19.27002472
v -14.71791165 -32.13965845 19.57165402
v -16.03577873 -31.33172280 19.75155928
v -17.21558347 -29.93029879 20.36870712
v -18.04395756 -29.62179584 20.22680243
v -16.93694886 -30.57363773 19.97260503
v -18.95265886 -27.70118718 20.54769126
v -20.92318327 -25.75894668 20.56066516
v -16.56794596 -30.15226855 20.45073029
v -16.93945877 -29.62179584 20.49108870
v -18.04395756 -28.74238066 20.50956325
v -11.17849672 -31.58755388 20.55123091
v -4.37579228 -33.53167718 20.52476173
v -3.40182538 -33.53167718 20.53694775
v -8.26161731 -32.55914483 20.54585771
v -16.03577873 -29.64437198 20.53668706
v -14.09286621 -30.61596293 20.53668706
v -6.31870479 -33.39623771 20.50170186
v -7.29016105 -33.27396620 20.49645900
v -5.04351122 -34.03487256 20.45046960
v -3.40182538 -34.58415583 20.15905952
v -3.40182538 -35.11556995 19.67333356
v -3.40182538 -35.22561488 19.27002472
v -12.70471300 -33.07362829 19.27002472
v -12.66454867 -33.05763903 19.48976120
v -14.09286621 -32.27697782 19.73465469
v -15.29024321 -30.92728428 20.38639669
v -16.03577873 -30.74387702 20.23728524
v -15.00407743 -31.55557536 19.97902391
v -14.64260570 -31.12574230 20.45190921
v -16.03577873 -30.25855080 20.47484164
v -11.17849672 -32.25440457 20.48938549
v -9.23558420 -32.55914483 20.52135533
v -12.23279082 -31.67690547 20.50641753
v -8.26161731 -33.17426794 20.48388194
v -15.00407743 -30.60843755 20.49370723
v -14.09286621 -31.21509388 20.47470839
v -13.11890005 -31.43048256 20.49750757
v -9.23558420 -33.08961755 20.45950991
v -5.69114909 -33.97185691 20.43395895
v -4.37579228 -34.55029741 20.07860630
v -4.37579228 -35.06195668 19.59275000
v -5.05104240 -35.01775158 19.51963678
v -4.37579228 -35.13249771 19.27002472
v -9.81293558 -34.04521924 19.27002472
v -12.14744307 -33.14981190 19.62170736
v -9.76022098 -34.02922998 19.49094011
v -13.11890005 -31.91674729 20.38560881
v -14.09286621 -31.70136151 20.22051100
v -11.17849672 -33.31722990 19.81576254
v -13.04108275 -32.58548077 19.82572107
v -12.61434471 -32.06065064 20.43972319
v -9.73260837 -33.04823375 20.44299926
v -11.96419657 -32.14530103 20.46750164
v -6.31870479 -33.88250243 20.40867159
v -7.29016105 -34.32926615 19.86201554
v -6.31870479 -34.42614312 19.92281238
v -5.19663519 -35.03750354 19.27002472
v -8.26161731 -34.22016261 19.75771747
v -9.23558420 -34.09882961 19.59720498
v -5.69867954 -34.96790101 19.30763134
v -5.76645576 -34.96037852 19.27002472
v -10.38024587 -32.89115953 20.39635232
v -11.17849672 -32.74067219 20.30161885
v -8.26161731 -33.66053267 20.24357377
v -7.29016105 -33.75928953 20.34787184
v -5.65851593 -34.97824768 19.27002472
v -5.71123089 -34.97072520 19.27002472
f 1 2 3
f 1 3 8
f 1 8 15
f 1 15 26
f 1 26 43
f 1 43 73
f 1 73 108
f 1 108 131
f 1 131 152
f 1 152 166
f 1 166 175
f 1 175 176
f 1 176 170
f 1 170 153
f 1 153 132
f 1 132 109
f 1 109 74
f 1 74 45
f 1 45 44
f 1 44 27
f 1 27 16
f 1 16 9
f 1 9 4
f 1 4 11
f 1 11 20
f 1 20 33
f 1 33 51
f 1 51 81
f 1 81 116
f 1 116 92
f 1 92 58
f 1 58 34
f 1 34 21
f 1 21 12
f 1 12 5
f 1 5 2
f 2 5 6
f 2 6 7
f 2 7 3
f 3 7 6
f 3 6 13
f 3 13 23
f 3 23 22
f 3 22 39
f 3 39 38
f 3 38 37
f 3 37 36
f 3 36 35
f 3 35 66
f 3 66 98
f 3 98 100
f 3 100 99
f 3 99 67
f 3 67 40
f 3 40 24
f 3 24 14
f 3 14 8
f 4 9 10
f 4 10 11
f 5 12 6
f 6 12 13
f 8 14 15
f 9 16 17
f 9 17 10
f 10 18 11
f 10 17 19
f 10 19 18
f 11 18 20
f 12 21 22
f 12 22 23
f 12 23 13
f 14 24 25
f 14 25 15
f 15 25 26
f 16 27 28
f 16 28 17
f 17 28 29
f 17 29 30
f 17 30 19
f 18 19 31
f 18 31 32
f 18 32 33
f 18 33 20
f 19 30 31
f 21 34 35
f 21 35 36
f 21 36 37
f 21 37 38
f 21 38 39
f 21 39 22
f 24 40 25
f 25 40 41
f 25 41 70
f 25 70 42
f 25 42 26
f 26 42 43
f 27 44 28
f 28 44 45
f 28 45 46
f 28 46 47
f 28 47 29
f 29 48 30
f 29 47 49
f 29 49 48
f 30 48 31
f 31 48 50
f 31 50 32
f 32 51 33
f 32 50 52
f 32 52 53
f 32 53 54
f 32 54 51
f 34 55 56
f 34 56 57
f 34 57 35
f 34 58 59
f 34 59 60
f 34 60 61
f 34 61 62
f 34 62 63
f 34 63 64
f 34 64 55
f 35 65 66
f 35 57 91
f 35 91 65
f 40 67 41
f 41 67 68
f 41 68 69
f 41 69 70
f 42 70 71
f 42 71 72
f 42 72 43
f 43 72 73
f 45 74 46
f 46 74 75
f 46 75 76
f 46 76 47
f 47 76 77
f 47 77 78
f 47 78 49
f 48 49 79
f 48 79 50
f 49 78 79
f 50 79 52
f 51 80 81
f 51 54 80
f 52 82 53
f 52 79 83
f 52 83 84
f 52 84 85
f 52 85 82
f 53 82 54
f 54 82 86
f 54 86 80
f 55 64 87
f 55 87 88
f 55 88 89
f 55 89 90
f 55 90 91
f 55 91 56
f 56 91 57
f 58 92 59
f 59 92 60
f 60 93 94
f 60 94 61
f 60 92 95
f 60 95 93
f 61 94 62
f 62 94 63
f 63 94 96
f 63 96 87
f 63 87 64
f 65 69 97
f 65 97 66
f 65 91 101
f 65 101 69
f 66 97 98
f 67 99 68
f 68 97 69
f 68 99 100
f 68 100 98
f 68 98 97
f 69 101 70
f 70 101 102
f 70 102 103
f 70 103 104
f 70 104 71
f 71 104 105
f 71 105 106
f 71 106 72
f 72 106 107
f 72 107 73
f 73 107 108
f 74 109 110
f 74 110 75
f 75 111 76
f 75 110 111
f 76 112 113
f 76 113 77
f 76 111 114
f 76 114 112
f 77 113 78
f 78 113 83
f 78 83 79
f 80 86 115
f 80 115 95
f 80 95 116
f 80 116 81
f 82 85 115
f 82 115 86
f 83 113 112
f 83 112 117
f 83 117 84
f 84 117 118
f 84 118 85
f 85 118 119
f 85 119 115
f 87 96 120
f 87 120 88
f 88 121 122
f 88 122 89
f 88 120 123
f 88 123 121
f 89 122 103
f 89 103 102
f 89 102 90
f 90 102 101
f 90 101 91
f 92 116 95
f 93 95 115
f 93 115 124
f 93 124 94
f 94 124 125
f 94 125 96
f 96 125 120
f 103 122 104
f 104 122 121
f 104 121 105
f 105 121 126
f 105 126 127
f 105 127 128
f 105 128 106
f 106 129 107
f 106 128 129
f 107 129 130
f 107 130 108
f 108 130 131
f 109 132 133
f 109 133 110
f 110 133 134
f 110 134 111
f 111 135 136
f 111 136 114
f 111 134 137
f 111 137 135
f 112 114 136
f 112 136 135
f 112 135 117
f 115 119 124
f 117 135 138
f 117 138 139
f 117 139 118
f 118 139 124
f 118 124 119
f 120 140 141
f 120 141 123
f 120 125 142
f 120 142 140
f 121 123 127
f 121 127 126
f 123 141 143
f 123 143 127
f 124 139 144
f 124 144 125
f 125 144 145
f 125 145 146
f 125 146 142
f 127 143 128
f 128 143 147
f 128 147 148
f 128 148 129
f 129 148 149
f 129 149 130
f 130 149 150
f 130 150 131
f 131 150 151
f 131 151 152
f 132 153 133
f 133 154 134
f 133 153 155
f 133 155 154
f 134 156 157
f 134 157 137
f 134 154 158
f 134 158 159
f 134 159 160
f 134 160 156
f 135 137 157
f 135 157 156
f 135 156 138
f 138 156 160
f 138 160 145
f 138 145 139
f 139 145 144
f 140 161 147
f 140 147 143
f 140 143 141
f 140 142 146
f 140 146 162
f 140 162 161
f 145 160 162
f 145 162 146
f 147 161 148
f 148 163 164
f 148 164 165
f 148 165 149
f 148 161 163
f 149 165 150
f 150 165 164
f 150 164 151
f 151 166 152
f 151 164 167
f 151 167 168
f 151 168 169
f 151 169 166
f 153 170 155
f 154 155 158
f 155 168 158
f 155 170 169
f 155 169 168
f 158 160 159
f 158 168 167
f 158 167 161
f 158 161 171
f 158 171 172
f 158 172 160
f 160 172 171
f 160 171 161
f 160 161 162
f 161 167 173
f 161 173 174
f 161 174 163
f 163 174 164
f 164 174 173
f 164 173 167
f 166 169 175
f 169 170 176
f 169 176 175

