# https://github.com/mikedh/trimesh
v -10.70708578 -23.42212046 14.73847973
v -4.64048299 -23.42212046 14.73847973
v -10.70708578 -23.42212046 15.64563280
v -10.70708578 25.31724871 14.73847973
v -4.64048299 -23.42212046 15.64563280
v 0.00435801 -20.08727031 14.73847973
v -10.70708578 25.31724871 15.64563280
v -4.91414086 25.31724871 14.73847973
v 0.00435801 -20.08727031 15.64563280
v 0.00435801 20.08835903 14.73847973
v -4.91414086 25.31724871 15.64563280
v 0.00435801 20.08835903 15.64563280
f 1 2 5
f 1 5 3
f 1 3 7
f 1 7 4
f 1 4 8
f 1 8 10
f 1 10 6
f 1 6 2
f 2 6 9
f 2 9 5
f 3 5 9
f 3 9 12
f 3 12 11
f 3 11 7
f 4 7 11
f 4 11 8
f 6 10 12
f 6 12 9
f 8 11 12
f 8 12 10

