# https://github.com/mikedh/trimesh
v -20.29827253 -29.16069972 4.61412280
v -19.87097690 -29.44583865 4.61412280
v -20.29827253 -29.16069972 5.35150583
v -20.29827253 29.16042703 4.61412280
v -19.13165604 -29.93265952 4.61412280
v -19.15749231 -29.91875003 5.35150583
v -19.87097690 -29.44583865 5.35150583
v -20.29827253 29.16042703 5.35150583
v -19.88687636 29.43861121 5.35150583
v -19.87097690 29.44556596 4.61412280
v -18.75007173 -30.17606996 4.61412280
v -18.64672520 -30.23865981 5.35150583
v -19.13165604 29.93238683 5.35150583
v -19.13165604 29.93238683 4.61412280
v -19.29064926 29.82806849 4.61412280
v -18.64672520 -30.23865981 4.61412280
v -17.99683848 -30.62811709 5.35150583
v -18.66262467 30.23143526 5.35150583
v -18.64672520 30.23838712 4.61412280
v -17.83983233 -30.71852883 4.61412280
v -17.33303937 -31.01061962 4.61412280
v -17.33303937 -31.01061962 5.35150583
v -17.97895194 30.63479915 5.35150583
v -18.12403277 30.55134505 4.61412280
v -16.95145506 -31.21925631 4.61412280
v -16.84612290 -31.27489430 5.35150583
v -17.33303937 31.01034692 5.35150583
v -17.33303937 31.01034692 4.61412280
v -16.84612290 -31.27489430 4.61412280
v -16.06307779 -31.68521293 5.35150583
v -16.82624785 31.28853111 5.35150583
v -16.84612290 31.27462161 4.61412280
v -16.03525445 -31.69912243 4.61412280
v -15.40126719 -32.01903511 5.35150583
v -16.03525445 31.69884974 5.35150583
v -16.21014713 31.60844089 4.61412280
v -15.41716666 -32.00512561 4.61412280
v -15.03558091 -32.18594330 4.61412280
v -14.93223582 -32.23462655 4.61412280
v -14.75138047 -32.31808065 4.61412280
v -14.93223582 -32.23462655 5.35150583
v -15.55032361 31.94226018 4.61412280
v -16.03525445 31.69884974 4.61412280
v -15.41716666 32.00485292 5.35150583
v -14.09155550 -32.61017433 4.61412280
v -14.09155550 -32.61017433 5.35150583
v -14.90441103 32.24826336 5.35150583
v -14.93223582 32.23435386 4.61412280
v -13.92659962 -32.67971893 4.61412280
v -13.34428636 -32.92312936 5.35150583
v -14.09155550 32.60990164 5.35150583
v -14.09155550 32.60990164 4.61412280
v -13.32441130 -32.93008411 4.61412280
v -12.94282700 -33.08308570 4.61412280
v -12.83749339 -33.12481420 5.35150583
v -13.32441130 32.92981142 5.35150583
v -13.32441130 32.92981142 4.61412280
v -12.83749339 -33.12481420 4.61412280
v -12.69042405 -33.18044930 4.61412280
v -12.17170720 -33.37517649 5.35150583
v -12.83948046 33.12454151 5.35150583
v -12.83749339 33.12454151 4.61412280
v -12.14785800 -33.38213124 4.61412280
v -11.17600926 -33.72290817 4.61412280
v -11.17600926 -33.72290817 5.35150583
v -12.82159392 33.13149626 5.35150583
v -12.11605980 33.39576805 5.35150583
v -12.14785800 33.38185855 4.61412280
v -11.02297798 -33.77158852 4.61412280
v -10.48637459 -33.94545436 5.35150583
v -11.15812272 33.72959023 5.35150583
v -11.17600926 33.72263548 4.61412280
v -10.08889010 -34.06368220 4.61412280
v -9.98355649 -34.09150120 5.35150583
v -10.46848733 33.94518166 5.35150583
v -10.36315445 33.97995252 4.61412280
v -9.82257548 -34.14018155 4.61412280
v -9.26013510 -34.29318314 5.35150583
v -9.96368288 34.09818326 5.35150583
v -9.98355649 34.09122851 4.61412280
v -9.23429883 -34.30013789 4.61412280
v -9.23429883 -34.30013789 5.35150583
v -9.23429883 34.29986520 5.35150583
v -9.39527985 34.25813670 4.61412280
v -9.02562014 -34.35577299 4.61412280
v -8.29424902 -34.54354832 5.35150583
v -9.20846256 34.30681994 5.35150583
v -9.23429883 34.29986520 4.61412280
v -8.26245008 -34.55050307 4.61412280
v -8.05377067 -34.59918342 4.61412280
v -7.31643761 -34.76609451 5.35150583
v -8.23661381 34.55718513 5.35150583
v -8.26245008 34.55023038 4.61412280
v -7.29060133 -34.76609451 4.61412280
v -7.11570792 -34.80086826 4.61412280
v -6.47774580 -34.92605085 4.61412280
v -6.49960793 -34.92605085 5.35150583
v -7.26873921 34.77277657 5.35150583
v -7.49928002 34.72409332 4.61412280
v -5.99281497 -35.01645970 4.61412280
v -6.46184634 -34.93300560 5.35150583
v -7.29060133 34.76582182 4.61412280
v -6.47774580 34.92577816 5.35150583
v -6.37241220 34.94663951 4.61412280
v -5.99281497 -35.01645970 5.35150583
v -5.34690311 -35.12077804 4.61412280
v -5.99082753 35.01618701 5.35150583
v -5.99082753 35.01618701 4.61412280
v -5.34690311 -35.12077804 5.35150583
v -4.37505436 -35.25291539 4.61412280
v -4.40685294 -35.25291539 5.35150583
v -5.48602272 35.09964110 4.61412280
v -5.34690311 35.12050535 5.35150583
v -4.16637495 -35.28073438 4.61412280
v -3.43500383 -35.35723373 5.35150583
v -5.34690311 35.12050535 4.61412280
v -4.34921773 35.25959744 5.35150583
v -3.40320562 -35.35723373 4.61412280
v -3.19253841 -35.37809798 4.61412280
v -2.46315508 -35.44068783 5.35150583
v -4.58373342 35.22482370 4.61412280
v -4.37505436 35.25264269 4.61412280
v -3.37736862 35.36391579 5.35150583
v -3.61188431 35.33609679 4.61412280
v -2.43135614 -35.44068783 4.61412280
v -2.22068966 -35.45459733 4.61412280
v -1.49130633 -35.49632582 5.35150583
v -2.43135614 35.44041514 5.35150583
v -2.64003556 35.42650564 4.61412280
v -3.40320562 35.35696104 4.61412280
v -1.45950740 -35.49632582 4.61412280
v -1.24884091 -35.50328057 4.61412280
v -0.48765865 -35.52414482 5.35150583
v -2.43135614 35.44041514 4.61412280
v -1.45950740 35.49605313 5.35150583
v -0.48765865 -35.51719007 4.61412280
v 0.00323413 -35.51719007 4.61412280
v 0.00323413 -35.51719007 5.35150583
v -1.45950740 35.49605313 4.61412280
v -0.48765865 35.51691738 5.35150583
v -0.69633806 35.51691738 4.61412280
v 0.00323413 35.51691738 4.61412280
v 0.00323413 35.52387213 5.35150583
f 1 2 7
f 1 7 3
f 1 3 8
f 1 8 4
f 1 4 10
f 1 10 15
f 1 15 14
f 1 14 19
f 1 19 24
f 1 24 28
f 1 28 32
f 1 32 36
f 1 36 43
f 1 43 42
f 1 42 48
f 1 48 52
f 1 52 57
f 1 57 62
f 1 62 68
f 1 68 72
f 1 72 76
f 1 76 80
f 1 80 84
f 1 84 88
f 1 88 93
f 1 93 99
f 1 99 102
f 1 102 104
f 1 104 108
f 1 108 112
f 1 112 116
f 1 116 121
f 1 121 122
f 1 122 124
f 1 124 130
f 1 130 129
f 1 129 134
f 1 134 139
f 1 139 141
f 1 141 142
f 1 142 137
f 1 137 136
f 1 136 132
f 1 132 131
f 1 131 126
f 1 126 125
f 1 125 119
f 1 119 118
f 1 118 114
f 1 114 110
f 1 110 106
f 1 106 100
f 1 100 96
f 1 96 95
f 1 95 94
f 1 94 90
f 1 90 89
f 1 89 85
f 1 85 81
f 1 81 77
f 1 77 73
f 1 73 69
f 1 69 64
f 1 64 63
f 1 63 59
f 1 59 58
f 1 58 54
f 1 54 53
f 1 53 49
f 1 49 45
f 1 45 40
f 1 40 39
f 1 39 38
f 1 38 37
f 1 37 33
f 1 33 29
f 1 29 25
f 1 25 21
f 1 21 20
f 1 20 16
f 1 16 11
f 1 11 5
f 1 5 2
f 2 5 6
f 2 6 7
f 3 7 6
f 3 6 12
f 3 12 17
f 3 17 22
f 3 22 26
f 3 26 30
f 3 30 34
f 3 34 41
f 3 41 46
f 3 46 50
f 3 50 55
f 3 55 60
f 3 60 65
f 3 65 70
f 3 70 74
f 3 74 78
f 3 78 82
f 3 82 86
f 3 86 91
f 3 91 97
f 3 97 101
f 3 101 105
f 3 105 109
f 3 109 111
f 3 111 115
f 3 115 120
f 3 120 127
f 3 127 133
f 3 133 138
f 3 138 143
f 3 143 140
f 3 140 135
f 3 135 128
f 3 128 123
f 3 123 117
f 3 117 113
f 3 113 107
f 3 107 103
f 3 103 98
f 3 98 92
f 3 92 87
f 3 87 83
f 3 83 79
f 3 79 75
f 3 75 71
f 3 71 67
f 3 67 66
f 3 66 61
f 3 61 56
f 3 56 51
f 3 51 47
f 3 47 44
f 3 44 35
f 3 35 31
f 3 31 27
f 3 27 23
f 3 23 18
f 3 18 13
f 3 13 9
f 3 9 8
f 4 8 9
f 4 9 10
f 5 11 6
f 6 11 12
f 9 13 14
f 9 14 15
f 9 15 10
f 11 16 12
f 12 16 17
f 13 18 14
f 14 18 19
f 16 20 17
f 17 20 21
f 17 21 22
f 18 23 24
f 18 24 19
f 21 25 22
f 22 25 26
f 23 27 24
f 24 27 28
f 25 29 26
f 26 29 30
f 27 31 28
f 28 31 32
f 29 33 30
f 30 33 34
f 31 35 36
f 31 36 32
f 33 37 34
f 34 37 38
f 34 38 39
f 34 39 40
f 34 40 41
f 35 42 43
f 35 43 36
f 35 44 42
f 40 45 46
f 40 46 41
f 42 44 47
f 42 47 48
f 45 49 46
f 46 49 50
f 47 51 52
f 47 52 48
f 49 53 50
f 50 53 54
f 50 54 55
f 51 56 57
f 51 57 52
f 54 58 55
f 55 58 59
f 55 59 60
f 56 61 57
f 57 61 62
f 59 63 60
f 60 63 64
f 60 64 65
f 61 66 62
f 62 66 67
f 62 67 68
f 64 69 70
f 64 70 65
f 67 71 72
f 67 72 68
f 69 73 70
f 70 73 74
f 71 75 76
f 71 76 72
f 73 77 74
f 74 77 78
f 75 79 76
f 76 79 80
f 77 81 78
f 78 81 82
f 79 83 84
f 79 84 80
f 81 85 82
f 82 85 86
f 83 87 84
f 84 87 88
f 85 89 86
f 86 89 90
f 86 90 91
f 87 92 93
f 87 93 88
f 90 94 91
f 91 94 95
f 91 95 96
f 91 96 97
f 92 98 99
f 92 99 93
f 96 100 97
f 97 100 101
f 98 102 99
f 98 103 104
f 98 104 102
f 100 105 101
f 100 106 109
f 100 109 105
f 103 107 104
f 104 107 108
f 106 110 111
f 106 111 109
f 107 112 108
f 107 113 112
f 110 114 111
f 111 114 115
f 112 113 116
f 113 117 116
f 114 118 115
f 115 118 119
f 115 119 120
f 116 117 121
f 117 122 121
f 117 123 124
f 117 124 122
f 119 125 120
f 120 125 126
f 120 126 127
f 123 128 129
f 123 129 130
f 123 130 124
f 126 131 127
f 127 131 132
f 127 132 133
f 128 134 129
f 128 135 139
f 128 139 134
f 132 136 133
f 133 136 137
f 133 137 138
f 135 140 141
f 135 141 139
f 137 142 143
f 137 143 138
f 140 143 141
f 141 143 142

