# https://github.com/mikedh/trimesh
v 21.61396585 -28.16185750 0.44730098
v 21.61396585 -28.01015939 -0.10805357
v 22.51593544 -27.34545218 -0.09921314
v 22.58753808 -27.40613027 0.44730098
v 21.61396585 0.01519539 0.44730098
v 21.61396585 -27.68470260 -0.24933840
v 21.82093554 -27.68194214 -0.19852035
v 22.84010324 -26.74142018 -0.24831300
v 23.53367801 -26.42699367 -0.12611101
v 23.62629841 -26.50973809 0.44730098
v 22.24698419 0.01519539 0.44730098
v 21.61396585 0.01519539 -0.29401564
v 21.61396585 -26.72762944 -0.47699420
v 21.86867015 -26.72762944 -0.46759182
v 23.83967829 -25.78710748 -0.27083700
v 24.52292232 -25.48647170 -0.13672417
v 24.62373577 -25.58300687 0.44730098
v 25.25283500 -2.66294871 0.44730098
v 25.25283500 -2.78430633 -0.12657447
v 22.11874133 0.01519539 0.18428342
v 21.61396585 -1.20389890 -0.42077688
v 21.93065316 0.01519539 -0.20140537
v 25.25283500 -3.40212763 -0.39387900
v 25.25283500 -4.37574765 -0.50342282
v 21.61396585 -25.75401086 -0.50342282
v 21.86867015 -25.75401086 -0.50342282
v 22.84081580 -25.75401086 -0.48769426
v 24.82179985 -24.82176161 -0.27716898
v 25.25283500 -24.62593371 -0.18614026
v 25.25283500 -24.93208751 0.44730098
v 21.61396585 -2.17751820 -0.50211935
v 25.25283500 -21.86780638 -0.50342282
v 22.84081580 -3.40212763 -0.50342282
v 21.61396585 -3.14837993 -0.50342282
v 22.84081580 -24.78314986 -0.50342282
v 23.81224889 -24.78314986 -0.49570047
v 24.78439599 -23.81228596 -0.49570047
v 25.25283500 -23.82331913 -0.39080860
v 25.25283500 -22.83866738 -0.49579317
v 24.78439599 -22.83866738 -0.50342282
v 23.81224889 -23.81228596 -0.50342282
f 1 2 3
f 1 3 4
f 1 4 10
f 1 10 17
f 1 17 30
f 1 30 18
f 1 18 11
f 1 11 5
f 1 5 12
f 1 12 21
f 1 21 31
f 1 31 34
f 1 34 25
f 1 25 13
f 1 13 6
f 1 6 2
f 2 6 7
f 2 7 3
f 3 7 8
f 3 8 9
f 3 9 10
f 3 10 4
f 5 11 20
f 5 20 22
f 5 22 12
f 6 13 14
f 6 14 8
f 6 8 7
f 8 14 15
f 8 15 9
f 9 15 16
f 9 16 17
f 9 17 10
f 11 18 19
f 11 19 20
f 12 22 23
f 12 23 24
f 12 24 21
f 13 25 26
f 13 26 27
f 13 27 14
f 14 27 15
f 15 27 28
f 15 28 16
f 16 28 29
f 16 29 30
f 16 30 17
f 18 30 29
f 18 29 38
f 18 38 39
f 18 39 32
f 18 32 24
f 18 24 23
f 18 23 19
f 19 23 22
f 19 22 20
f 21 24 31
f 24 32 40
f 24 40 41
f 24 41 35
f 24 35 26
f 24 26 25
f 24 25 34
f 24 34 33
f 24 33 31
f 26 35 37
f 26 37 36
f 26 36 27
f 27 36 28
f 28 36 37
f 28 37 38
f 28 38 29
f 31 33 34
f 32 39 40
f 35 41 37
f 37 41 40
f 37 40 39
f 37 39 38

