# https://github.com/mikedh/trimesh
v 15.04405796 -25.31829190 14.73830593
v 15.04405796 -32.18561309 14.73830593
v 15.04405796 -25.31829190 13.82658781
v 4.91554875 -25.31829190 14.73830593
v 14.93070076 -32.23857752 14.73830593
v 14.93217223 -32.23857752 14.12424588
v 15.04405796 -32.18561309 13.82658781
v 4.91554875 -25.31829190 13.82658781
v 0.00439929 -29.90716650 14.73830593
v 14.62301755 -32.37648490 14.73830593
v 14.09303725 -32.61332294 14.73830593
v 14.93217223 -32.23857752 13.82658781
v 0.00439929 -29.90716650 13.82658781
v 0.00439929 -35.52634045 14.73830593
v 13.32898373 -32.93510393 14.73830593
v 14.09303725 -32.61332294 13.82658781
v 0.00439929 -35.52533822 13.82658781
v 0.48726992 -35.52533822 14.73830593
v 0.48726992 -35.52533822 13.82658781
v 12.84316798 -33.12697217 14.73830593
v 13.32898373 -32.93510393 13.82658781
v 1.16152288 -35.50735030 13.82658781
v 1.10116414 -35.50835253 14.73830593
v 12.58701103 -33.22290774 14.73830593
v 12.84316798 -33.12697217 13.82658781
v 1.45890033 -35.49835924 13.82658781
v 1.45890033 -35.49835924 14.73830593
v 12.14830567 -33.38579544 14.73830593
v 12.14830567 -33.38579544 13.82658781
v 2.13315293 -35.46138407 13.82658781
v 2.07279420 -35.46438206 14.73830593
v 11.17667489 -33.72356570 14.73830593
v 11.17667489 -33.72356570 13.82658781
v 2.43053075 -35.44439548 14.73830593
v 2.43053075 -35.44439548 13.82658781
v 10.96026661 -33.79351872 13.82658781
v 10.46856278 -33.95041334 14.73830593
v 3.10478299 -35.38843307 13.82658781
v 3.04442425 -35.39342971 14.73830593
v 10.46856278 -33.95041334 13.82658781
v 9.98274775 -34.09631246 14.73830593
v 3.40216080 -35.36344985 13.82658781
v 3.40216080 -35.36344985 14.73830593
v 9.98274775 -34.09631246 13.82658781
v 9.23341478 -34.30616862 14.73830593
v 4.07641341 -35.28949951 13.82658781
v 4.37379122 -35.25652166 14.73830593
v 9.23341478 -34.30616862 13.82658781
v 8.87567823 -34.39710754 14.73830593
v 4.37379122 -35.25652166 13.82658781
v 4.98915692 -35.17158160 14.73830593
v 8.26031253 -34.55300284 13.82658781
v 8.26031253 -34.55300284 14.73830593
v 5.34689348 -35.12161516 13.82658781
v 5.34689348 -35.12161516 14.73830593
v 7.90257525 -34.63394558 14.73830593
v 7.29015395 -34.77185296 13.82658781
v 5.79590460 -35.04966349 13.82658781
v 5.99464721 -35.01868429 14.12424588
v 5.75615593 -35.05665879 14.73830593
v 7.29015395 -34.77085363 14.73830593
v 7.29015395 -34.77185296 14.12424588
v 7.04283020 -34.82082008 13.82658781
v 5.99464721 -35.01768496 13.82658781
v 5.99464721 -35.01868429 14.73830593
v 6.14333575 -34.99170241 13.82658781
v 6.48046223 -34.93174268 13.82658781
v 6.99277613 -34.82981404 14.73830593
v 6.48046223 -34.93174268 14.12424588
v 6.17277902 -34.98670577 14.73830593
v 6.48046223 -34.93074335 14.73830593
f 1 2 7
f 1 7 3
f 1 3 8
f 1 8 4
f 1 4 9
f 1 9 14
f 1 14 18
f 1 18 23
f 1 23 27
f 1 27 31
f 1 31 34
f 1 34 39
f 1 39 43
f 1 43 47
f 1 47 51
f 1 51 55
f 1 55 60
f 1 60 65
f 1 65 70
f 1 70 71
f 1 71 68
f 1 68 61
f 1 61 56
f 1 56 53
f 1 53 49
f 1 49 45
f 1 45 41
f 1 41 37
f 1 37 32
f 1 32 28
f 1 28 24
f 1 24 20
f 1 20 15
f 1 15 11
f 1 11 10
f 1 10 5
f 1 5 2
f 2 5 6
f 2 6 12
f 2 12 7
f 3 7 12
f 3 12 16
f 3 16 21
f 3 21 25
f 3 25 29
f 3 29 33
f 3 33 36
f 3 36 40
f 3 40 44
f 3 44 48
f 3 48 52
f 3 52 57
f 3 57 63
f 3 63 67
f 3 67 66
f 3 66 64
f 3 64 58
f 3 58 54
f 3 54 50
f 3 50 46
f 3 46 42
f 3 42 38
f 3 38 35
f 3 35 30
f 3 30 26
f 3 26 22
f 3 22 19
f 3 19 17
f 3 17 13
f 3 13 8
f 4 8 13
f 4 13 9
f 5 10 6
f 6 10 11
f 6 11 16
f 6 16 12
f 9 13 17
f 9 17 14
f 11 15 21
f 11 21 16
f 14 17 19
f 14 19 18
f 15 20 25
f 15 25 21
f 18 22 23
f 18 19 22
f 20 24 25
f 22 26 27
f 22 27 23
f 24 28 29
f 24 29 25
f 26 30 27
f 27 30 31
f 28 32 33
f 28 33 29
f 30 34 31
f 30 35 34
f 32 36 33
f 32 37 36
f 34 35 38
f 34 38 39
f 36 37 40
f 37 41 44
f 37 44 40
f 38 42 43
f 38 43 39
f 41 45 48
f 41 48 44
f 42 46 43
f 43 46 47
f 45 49 48
f 46 50 47
f 47 50 51
f 48 49 52
f 49 53 52
f 50 54 51
f 51 54 55
f 52 53 56
f 52 56 57
f 54 58 59
f 54 59 60
f 54 60 55
f 56 61 62
f 56 62 57
f 57 62 63
f 58 64 59
f 59 65 60
f 59 64 66
f 59 66 67
f 59 67 69
f 59 69 65
f 61 68 62
f 62 68 69
f 62 69 63
f 63 69 67
f 65 69 70
f 68 71 69
f 69 71 70

