# https://github.com/mikedh/trimesh
v 21.99353991 -27.89956120 7.32058918
v 22.03592594 -27.86132891 7.38878396
v 21.99353991 -27.89410110 7.38878396
v 21.99353991 -27.89410110 6.37351509
v 22.00678609 -27.88863810 6.37172210
v 22.59752557 -27.41345289 6.37172210
v 22.59752557 -27.41345289 7.38878396
v 21.99353991 27.34207144 7.38878396
v 21.99353991 -27.88317510 6.37172210
v 23.07170566 -27.01473517 6.37172210
v 23.12336372 -26.97103987 7.38878396
v 22.55513955 27.44584812 7.38878396
v 21.99353991 27.89372413 7.38858409
v 21.99353991 27.89372413 6.37172210
v 23.09687282 -26.99288607 6.37172210
v 23.63992984 -26.51770086 6.37172210
v 23.63992984 -26.51770086 7.38878396
v 22.59752557 27.41307592 7.38878396
v 21.99353991 27.89918423 7.31889466
v 22.59752557 27.41307592 6.37172210
v 24.11410992 -26.09167394 6.37172210
v 24.12603235 -26.08075084 7.38878396
v 23.08362809 27.00343220 7.38878396
v 23.08362809 27.00343220 6.37172210
v 24.13795188 -26.06982485 6.37172210
v 24.16179384 -26.04797865 7.38878396
v 23.63860464 26.51732389 7.38878396
v 23.63860464 26.51732389 6.37172210
v 24.63730057 -25.59463964 6.37172210
v 24.63730057 -25.59463964 7.38878396
v 24.12470715 26.08037387 7.38878396
v 24.12470715 26.08037387 6.37172210
v 25.12340019 -25.11945443 6.37172210
v 25.12340019 -25.11945443 7.38878396
v 24.63730057 25.59426267 7.38878396
v 24.63730057 25.59426267 6.37172210
v 25.59758318 -24.63334612 6.37172210
v 25.15651418 -25.08668513 7.38878396
v 25.12340019 25.11907746 7.38878396
v 25.12340019 25.11907746 6.37172210
v 25.59758318 -24.63334612 7.38878396
v 26.08368569 -24.12539016 6.37172210
v 25.63069717 24.60019985 7.38878396
v 25.60817896 24.62204605 6.37172210
v 26.08368569 -24.12539016 7.38878396
v 26.52210429 -23.63928186 6.37172210
v 26.08236194 24.12501320 6.37172210
v 26.08236194 24.12501320 7.38878396
v 26.52210429 -23.63928186 7.38878396
v 27.00820681 -23.08216761 6.37172210
v 27.03734666 -23.04939687 7.38878396
v 26.52210429 23.63890489 6.37172210
v 26.52210429 23.63890489 7.38878396
v 27.01747884 -23.07124451 6.37172210
v 27.41616181 -22.59605930 6.37172210
v 27.41616181 -22.59605930 7.38878396
v 27.00820681 23.08179064 6.37172210
v 27.00820681 23.08179064 7.38878396
v 27.89034189 -22.00617432 6.37172210
v 27.86782658 -22.03348351 7.38878396
v 27.41616181 22.59568233 6.37172210
v 27.41616181 22.59568233 7.38878396
v 28.28107947 -21.50367991 6.37172210
v 27.92875378 -21.95701747 7.38878396
v 27.90226432 21.98941125 6.37172210
v 27.90226432 21.98941125 7.38878396
v 28.71817432 -20.90833337 6.37172210
v 28.69830650 -20.93564257 7.38878396
v 28.28107947 -21.50367991 7.38878396
v 28.28240322 21.50330294 7.32058918
v 28.27313119 21.51422604 6.37172210
v 28.28240322 21.50330294 7.38878396
v 29.11023275 -20.36760523 6.37172210
v 28.73009385 -20.89194728 7.32058918
v 28.73009385 -20.89194728 7.38878396
v 28.73936589 20.88064576 6.37172210
v 28.73009385 20.89157031 7.38878396
v 29.44798852 -19.86511082 6.37172210
v 29.44798852 -19.86511082 7.38878396
v 29.14202299 -20.31844838 7.38878396
v 29.11950478 -20.35121913 7.38878396
v 29.11950478 20.35630371 7.38878396
v 29.11950478 20.35630371 7.32058918
v 29.11950478 20.35084216 6.37172210
v 29.92217150 -19.14960151 6.37172210
v 29.89965329 -19.18237370 7.38878396
v 29.44798852 19.87019540 7.38878396
v 29.44798852 19.87019540 7.32058918
v 29.44004023 19.88111850 6.37172210
v 30.24138031 -18.64164555 6.37172210
v 30.24138031 -18.64164555 7.38878396
v 29.95528260 -19.09498312 7.38878396
v 29.93409104 19.13283844 7.38878396
v 29.93409104 19.13283844 6.37172210
v 30.63873953 -17.98075608 6.37172210
v 30.63873953 -17.98075608 7.38878396
v 30.24270695 18.64673013 7.38878396
v 30.24270695 18.64673013 7.32058918
v 30.23475867 18.65765323 6.37172210
v 31.00431140 -17.34717580 6.37172210
v 30.98709108 -17.37994654 7.38878396
v 30.64006617 17.98037911 7.38878396
v 30.64006617 17.98037911 6.37172210
v 30.25197899 18.63034404 6.37172210
v 31.01358343 -17.33078970 6.37172210
v 31.03212460 -17.29801896 7.38878396
v 31.01358343 17.33041273 7.38878396
v 31.01358343 17.33041273 6.37172210
v 31.27716293 -16.84468139 6.37172210
v 31.27716293 -16.84468139 7.38878396
v 31.25861886 16.88253672 7.38878396
v 31.28775871 16.82791833 6.37172210
v 31.69836411 -16.03631995 6.37172210
v 31.69836411 -16.03631995 7.38878396
v 31.30762653 16.78968459 7.38878396
v 31.69968786 16.03594298 7.38878396
v 31.69968786 16.03594298 7.32058918
v 31.69836411 16.03594298 6.37172210
v 32.00830378 -15.41366421 6.37172210
v 31.98710931 -15.45735951 7.38878396
v 32.00830378 15.41328725 7.38878396
v 32.00830378 15.41328725 6.37172210
v 32.01360167 -15.40273967 6.37172210
v 32.02419745 -15.38089202 7.38878396
v 32.23612179 14.92717749 7.38878396
v 32.23612179 14.92717749 6.37172210
v 32.23612179 -14.92755446 6.37172210
v 32.23612179 -14.92755446 7.38878396
v 32.61096279 14.09150685 7.38878396
v 32.61096279 14.09150685 6.37172210
v 32.61096279 -14.09188382 6.37172210
v 32.61096279 -14.09188382 7.38878396
v 32.93282489 13.32138059 7.38878396
v 32.93282489 13.32138059 6.37172210
v 32.93414864 -13.32721911 6.37172210
v 32.93414864 -13.32721911 7.38878396
v 33.12620516 12.84073238 7.38878396
v 33.12223102 12.85165693 6.37172210
v 33.12752891 -12.84110935 6.37172210
v 33.12752891 -12.84110935 7.38878396
v 33.14474923 12.79157554 7.38878396
v 33.13282680 12.82434774 6.37172210
v 33.38448966 -12.14744913 6.37172210
v 33.38448966 -12.14744913 7.38878396
v 33.38316302 12.14707216 7.38878396
v 33.38316302 12.14707216 6.37172210
v 33.72224254 -11.17523107 6.37172210
v 33.72224254 -11.17523107 7.38878396
v 33.72091879 11.17485410 7.38878396
v 33.39111130 12.12522452 6.37172210
v 33.95403759 -10.45972248 6.37172210
v 33.95006344 -10.47064630 7.38878396
v 33.73681246 11.12569726 7.38878396
v 33.72091879 11.17485410 6.37172210
v 34.09708644 -9.98453727 6.37172210
v 34.09708644 -9.98453727 7.38878396
v 33.95006344 10.46480778 7.38878396
v 33.95006344 10.46480778 6.37172210
v 33.72621668 11.15846873 6.37172210
v 34.30768413 -9.23079566 6.37172210
v 34.30768413 -9.23079566 7.38878396
v 34.09708644 9.98416030 7.38878396
v 34.09708644 9.98416030 6.37172210
v 34.53550504 -8.32958208 7.38878396
v 34.55272246 -8.25857760 6.37172210
v 34.30636038 9.23041869 7.38878396
v 34.31298492 9.20857105 6.37172210
v 34.55272246 -8.25857760 7.38878396
v 34.77127133 -7.28636025 6.37172210
v 34.75537766 -7.35736474 7.38878396
v 34.32358070 9.16487575 7.38878396
v 34.55272246 8.25820063 7.38878396
v 34.55272246 8.25820063 7.32058918
v 34.55139871 8.25820063 6.37172210
v 34.77127133 -7.28636025 7.38878396
v 34.93418800 -6.47253726 6.37172210
v 34.77127133 7.28598328 7.38878396
v 34.77524258 7.26959719 6.37172210
v 34.55669660 8.23635298 6.37172210
v 34.93816215 -6.45068961 7.38878396
v 35.01895716 -5.99735205 6.37172210
v 35.02028091 -5.99735205 7.32058918
v 34.78319086 7.23136417 7.38878396
v 34.93153761 6.48308411 6.37172210
v 35.02028091 -5.99735205 7.38878396
v 35.12227038 -5.34192449 6.37172210
v 35.11564874 -5.39108133 7.38878396
v 34.93153761 6.48308411 7.38878396
v 35.01365927 6.03520846 7.38878396
v 35.02028091 5.99697508 6.37172210
v 35.25604720 -4.36970678 6.37172210
v 35.24677517 -4.44071127 7.38878396
v 35.02028091 5.99697508 7.38878396
v 35.02293130 5.98058935 6.37172210
v 35.25604720 -4.36970678 7.38878396
v 35.36201082 -3.42479827 6.37172210
v 35.12359413 5.34154752 7.38878396
v 35.12359413 5.34154752 7.32058918
v 35.12624453 5.31969987 6.37172210
v 35.36466121 -3.39748872 7.38878396
v 35.36466121 -3.39748872 6.37172210
v 35.13286617 5.27600458 7.38878396
v 35.25604720 4.36932981 6.37172210
v 35.44148208 -2.45258057 6.37172210
v 35.43750794 -2.49627568 7.38878396
v 35.25604720 4.36932981 7.38878396
v 35.25869760 4.34748217 6.37172210
v 35.49446389 -1.48036278 6.37172210
v 35.44280583 -2.42527101 7.38878396
v 35.26399549 4.30378688 7.38878396
v 35.36730871 3.37526410 6.37172210
v 35.52360374 -0.50814498 6.37172210
v 35.49578764 -1.45305322 7.32058918
v 35.49578764 -1.45305322 7.38878396
v 35.36466121 3.39711175 7.38878396
v 35.44413248 2.42489404 6.37172210
v 35.44413248 2.42489404 7.38878396
v 35.52360374 -0.48083547 7.38878396
v 35.52227710 -0.55184014 7.38878396
v 35.52492749 0.48045850 6.37172210
v 35.44545623 2.40304640 6.37172210
v 35.49578764 1.45267625 7.38878396
v 35.52360374 0.48045850 7.38878396
v 35.49578764 1.45267625 6.37172210
f 1 2 3
f 1 3 8
f 1 8 13
f 1 13 19
f 1 19 14
f 1 14 9
f 1 9 4
f 1 4 5
f 1 5 6
f 1 6 7
f 1 7 2
f 2 7 11
f 2 11 17
f 2 17 22
f 2 22 26
f 2 26 30
f 2 30 34
f 2 34 38
f 2 38 41
f 2 41 45
f 2 45 49
f 2 49 51
f 2 51 56
f 2 56 60
f 2 60 64
f 2 64 69
f 2 69 68
f 2 68 75
f 2 75 81
f 2 81 80
f 2 80 79
f 2 79 86
f 2 86 92
f 2 92 91
f 2 91 96
f 2 96 101
f 2 101 106
f 2 106 110
f 2 110 114
f 2 114 120
f 2 120 124
f 2 124 128
f 2 128 132
f 2 132 136
f 2 136 140
f 2 140 144
f 2 144 148
f 2 148 152
f 2 152 156
f 2 156 161
f 2 161 164
f 2 164 168
f 2 168 170
f 2 170 175
f 2 175 180
f 2 180 185
f 2 185 187
f 2 187 192
f 2 192 195
f 2 195 200
f 2 200 205
f 2 205 209
f 2 209 214
f 2 214 219
f 2 219 218
f 2 218 223
f 2 223 222
f 2 222 217
f 2 217 215
f 2 215 210
f 2 210 206
f 2 206 202
f 2 202 197
f 2 197 193
f 2 193 189
f 2 189 188
f 2 188 183
f 2 183 177
f 2 177 172
f 2 172 171
f 2 171 166
f 2 166 162
f 2 162 157
f 2 157 153
f 2 153 149
f 2 149 145
f 2 145 141
f 2 141 137
f 2 137 133
f 2 133 129
f 2 129 125
f 2 125 121
f 2 121 116
f 2 116 115
f 2 115 111
f 2 111 107
f 2 107 102
f 2 102 97
f 2 97 93
f 2 93 87
f 2 87 82
f 2 82 77
f 2 77 72
f 2 72 66
f 2 66 62
f 2 62 58
f 2 58 53
f 2 53 48
f 2 48 43
f 2 43 39
f 2 39 35
f 2 35 31
f 2 31 27
f 2 27 23
f 2 23 18
f 2 18 12
f 2 12 8
f 2 8 3
f 4 9 5
f 5 9 14
f 5 14 20
f 5 20 24
f 5 24 28
f 5 28 32
f 5 32 36
f 5 36 40
f 5 40 44
f 5 44 47
f 5 47 52
f 5 52 57
f 5 57 61
f 5 61 65
f 5 65 71
f 5 71 76
f 5 76 84
f 5 84 89
f 5 89 94
f 5 94 99
f 5 99 104
f 5 104 103
f 5 103 108
f 5 108 112
f 5 112 118
f 5 118 122
f 5 122 126
f 5 126 130
f 5 130 134
f 5 134 138
f 5 138 142
f 5 142 146
f 5 146 150
f 5 150 154
f 5 154 159
f 5 159 158
f 5 158 163
f 5 163 167
f 5 167 174
f 5 174 179
f 5 179 178
f 5 178 184
f 5 184 190
f 5 190 194
f 5 194 199
f 5 199 203
f 5 203 207
f 5 207 211
f 5 211 216
f 5 216 221
f 5 221 224
f 5 224 220
f 5 220 212
f 5 212 208
f 5 208 204
f 5 204 201
f 5 201 196
f 5 196 191
f 5 191 186
f 5 186 181
f 5 181 176
f 5 176 169
f 5 169 165
f 5 165 160
f 5 160 155
f 5 155 151
f 5 151 147
f 5 147 143
f 5 143 139
f 5 139 135
f 5 135 131
f 5 131 127
f 5 127 123
f 5 123 119
f 5 119 113
f 5 113 109
f 5 109 105
f 5 105 100
f 5 100 95
f 5 95 90
f 5 90 85
f 5 85 78
f 5 78 73
f 5 73 67
f 5 67 63
f 5 63 59
f 5 59 55
f 5 55 54
f 5 54 50
f 5 50 46
f 5 46 42
f 5 42 37
f 5 37 33
f 5 33 29
f 5 29 25
f 5 25 21
f 5 21 16
f 5 16 15
f 5 15 10
f 5 10 6
f 6 10 7
f 7 10 11
f 8 12 13
f 10 15 11
f 11 15 16
f 11 16 17
f 12 18 13
f 13 18 19
f 14 19 20
f 16 21 17
f 17 21 22
f 18 20 19
f 18 23 24
f 18 24 20
f 21 25 26
f 21 26 22
f 23 27 28
f 23 28 24
f 25 29 26
f 26 29 30
f 27 31 32
f 27 32 28
f 29 33 34
f 29 34 30
f 31 35 36
f 31 36 32
f 33 37 38
f 33 38 34
f 35 39 40
f 35 40 36
f 37 41 38
f 37 42 45
f 37 45 41
f 39 43 40
f 40 43 44
f 42 46 49
f 42 49 45
f 43 47 44
f 43 48 47
f 46 50 51
f 46 51 49
f 47 48 53
f 47 53 52
f 50 54 51
f 51 54 55
f 51 55 56
f 52 53 58
f 52 58 57
f 55 59 56
f 56 59 60
f 57 58 62
f 57 62 61
f 59 63 64
f 59 64 60
f 61 62 66
f 61 66 65
f 63 67 68
f 63 68 69
f 63 69 64
f 65 66 72
f 65 72 70
f 65 70 71
f 67 73 74
f 67 74 75
f 67 75 68
f 70 76 71
f 70 72 76
f 72 77 76
f 73 75 74
f 73 78 79
f 73 79 80
f 73 80 81
f 73 81 75
f 76 77 82
f 76 82 83
f 76 83 84
f 78 85 79
f 79 85 86
f 82 87 88
f 82 88 83
f 83 88 89
f 83 89 84
f 85 90 91
f 85 91 92
f 85 92 86
f 87 93 94
f 87 94 88
f 88 94 89
f 90 95 96
f 90 96 91
f 93 97 98
f 93 98 94
f 94 98 99
f 95 100 101
f 95 101 96
f 97 102 103
f 97 103 98
f 98 103 104
f 98 104 99
f 100 105 101
f 101 105 106
f 102 107 108
f 102 108 103
f 105 109 106
f 106 109 110
f 107 111 108
f 108 111 112
f 109 113 114
f 109 114 110
f 111 115 112
f 112 115 116
f 112 116 117
f 112 117 118
f 113 119 120
f 113 120 114
f 116 121 122
f 116 122 117
f 117 122 118
f 119 123 124
f 119 124 120
f 121 125 126
f 121 126 122
f 123 127 124
f 124 127 128
f 125 129 130
f 125 130 126
f 127 131 132
f 127 132 128
f 129 133 134
f 129 134 130
f 131 135 136
f 131 136 132
f 133 137 138
f 133 138 134
f 135 139 140
f 135 140 136
f 137 141 142
f 137 142 138
f 139 143 144
f 139 144 140
f 141 145 142
f 142 145 146
f 143 147 148
f 143 148 144
f 145 149 150
f 145 150 146
f 147 151 148
f 148 151 152
f 149 153 159
f 149 159 154
f 149 154 150
f 151 155 156
f 151 156 152
f 153 157 158
f 153 158 159
f 155 160 161
f 155 161 156
f 157 162 163
f 157 163 158
f 160 164 161
f 160 165 164
f 162 166 167
f 162 167 163
f 164 165 168
f 165 169 170
f 165 170 168
f 166 171 167
f 167 171 172
f 167 172 173
f 167 173 174
f 169 175 170
f 169 176 175
f 172 177 178
f 172 178 173
f 173 178 179
f 173 179 174
f 175 176 180
f 176 181 182
f 176 182 180
f 177 183 178
f 178 183 184
f 180 182 185
f 181 186 182
f 182 186 187
f 182 187 185
f 183 188 184
f 184 189 190
f 184 188 189
f 186 191 192
f 186 192 187
f 189 193 190
f 190 193 194
f 191 195 192
f 191 196 195
f 193 197 194
f 194 197 198
f 194 198 199
f 195 196 200
f 196 201 200
f 197 202 198
f 198 202 199
f 199 202 203
f 200 201 204
f 200 204 205
f 202 206 203
f 203 206 210
f 203 210 207
f 204 208 214
f 204 214 209
f 204 209 205
f 207 210 211
f 208 212 213
f 208 213 214
f 210 215 211
f 211 215 217
f 211 217 216
f 212 218 219
f 212 219 214
f 212 214 213
f 212 220 218
f 216 217 221
f 217 222 221
f 218 220 223
f 220 224 222
f 220 222 223
f 221 222 224

