# https://github.com/mikedh/trimesh
v 25.25283500 -24.92908083 0.44730098
v 25.25283500 -24.62626392 -0.18614026
v 25.48752666 -24.51881145 -0.13672417
v 25.58380982 -24.62138024 0.44730098
v 25.25283500 24.95823765 0.44730098
v 25.78941666 -23.83990364 -0.27074431
v 25.25283500 -23.82525116 -0.39080860
v 26.42829773 -23.53219870 -0.12592563
v 26.51054104 -23.62499870 0.44730098
v 25.58380982 24.62122342 0.44730098
v 25.25283500 24.90451142 0.28219448
v 25.75732227 -22.83864131 -0.48760157
v 26.72918550 -21.86668249 -0.46731374
v 26.74322535 -22.83864131 -0.24803492
v 25.25283500 -22.83864131 -0.49579317
v 27.34800758 -22.51139877 -0.09893506
v 27.40718233 -22.58466116 0.44730098
v 26.11938635 24.05954123 0.44730098
v 25.48752666 24.51866041 -0.13672417
v 25.25283500 24.62611289 -0.18614026
v 25.75732227 -21.86668249 -0.50342282
v 27.70104873 -19.92276775 -0.50342282
v 28.67291197 -18.95081038 -0.49756010
v 27.70104873 -20.89472512 -0.42477999
v 27.68399642 -21.81784138 -0.19777882
v 25.25283500 -21.86668249 -0.50342282
v 28.24966289 -21.46129388 -0.04225429
v 28.27674325 -21.49548252 0.44730098
v 26.51054104 23.62484766 0.44730098
v 26.42829773 23.53204767 -0.12592563
v 25.78941666 23.83975260 -0.27074431
v 25.25283500 24.38190009 -0.27428396
v 29.64477230 -17.00689419 -0.50342282
v 30.61563331 -16.03493682 -0.46740643
v 29.64477230 -17.97885156 -0.43753085
v 29.66382907 -18.92638910 -0.23212098
v 28.74913614 -19.99603014 -0.28489133
v 29.35191102 -19.72251528 -0.13923263
v 28.45025571 -20.89472512 -0.15756815
v 25.25283500 22.36960518 -0.50342282
v 30.20542475 -18.58449408 -0.05919364
v 29.43816613 -19.84950391 0.44730098
v 27.04511535 23.01432146 0.44730098
v 27.34800758 22.51124774 -0.09893506
v 26.74322535 22.83848883 -0.24803492
v 26.72918550 21.86653146 -0.46731374
v 25.75732227 22.83848883 -0.48760157
v 25.25283500 23.82510013 -0.39080860
v 31.58749654 -13.11906326 -0.50342282
v 31.58749654 -14.09102063 -0.46442872
v 31.38891107 -16.03493682 -0.20010190
v 30.66979403 -17.04108427 -0.26078578
v 30.37492540 -17.97885156 -0.17022631
v 25.25283500 23.34156256 -0.49179006
v 25.75732227 21.86653146 -0.50342282
v 30.23751913 -18.63822032 0.44730098
v 31.21941331 -16.73826301 -0.09893506
v 31.27156669 -16.83594668 0.44730098
v 27.40718233 22.58451013 0.44730098
v 28.24966289 21.46114285 -0.04225429
v 27.68399642 21.81768890 -0.19777882
v 27.70104873 20.89457409 -0.42477999
v 28.67291197 18.95065790 -0.49756010
v 32.55935977 -11.17514779 -0.49728202
v 33.53122300 -7.28731686 -0.50342282
v 32.32968214 -14.09102063 -0.19712419
v 32.55935977 -12.14710589 -0.41919533
v 32.18224782 -14.80899930 -0.09502464
v 27.70104873 19.92261672 -0.50342282
v 32.23038940 -14.91156809 0.44730098
v 27.94476621 21.92514282 0.44730098
v 28.45025571 20.89457409 -0.15747546
v 28.27674325 21.49533148 0.44730098
v 28.66187880 20.96295280 0.44730098
v 29.13828058 20.28404789 0.44730098
v 29.43816613 19.84935288 0.44730098
v 30.20542475 18.58434305 -0.05919364
v 29.35191102 19.72236425 -0.13923263
v 28.74913614 19.99587911 -0.28489133
v 29.66382907 18.92623807 -0.23212098
v 29.64477230 17.97870053 -0.43753085
v 30.61563331 16.03478578 -0.46740643
v 29.64477230 17.00674315 -0.50342282
v 33.53122300 -8.25927423 -0.48527270
v 33.53122300 -9.23123232 -0.40848948
v 34.50308623 -1.45557019 -0.49625662
v 34.50308623 -2.42752801 -0.48192422
v 33.53122300 7.28716510 -0.50342282
v 34.50308623 -0.48361245 -0.50239743
v 33.21429093 -12.14710589 -0.15189080
v 33.36874372 -11.17514779 -0.22997749
v 33.09995322 -12.76739944 -0.04300161
v 33.12302179 -12.83089447 0.44730098
v 29.96772642 19.06299549 0.44730098
v 30.23751913 18.63806928 0.44730098
v 30.57752267 18.05196436 0.44730098
v 31.02784921 17.26560553 0.44730098
v 31.27156669 16.83579565 0.44730098
v 31.21941331 16.73811198 -0.09893506
v 30.37492540 17.97870053 -0.17022631
v 30.66979403 17.04093179 -0.26078578
v 31.38891107 16.03478578 -0.20010190
v 31.58749654 14.09086959 -0.46442872
v 31.58749654 13.11891222 -0.50342282
v 34.50308623 -3.39948556 -0.45502634
v 34.50308623 -4.37144330 -0.40737139
v 34.27441372 -8.25927423 -0.21797395
v 35.24226516 -1.45557019 -0.22895788
v 35.25530278 -0.48361245 -0.23509869
v 35.21618702 -2.42752801 -0.21471817
v 32.55935977 11.17499676 -0.49728202
v 33.53122300 8.25912320 -0.48527270
v 34.50308623 2.42737662 -0.48192422
v 34.50308623 1.45541888 -0.49625662
v 34.50308623 0.48346110 -0.50239743
v 34.16208047 -9.23123232 -0.14119074
v 34.07081133 -9.89548476 -0.04476854
v 33.36573704 -12.14710589 0.44730098
v 31.63463589 16.11293185 0.44730098
v 32.18224782 14.80884826 -0.09502464
v 32.32968214 14.09086959 -0.19712419
v 32.55935977 12.14695413 -0.41919533
v 35.17707126 -3.39948556 -0.18782029
v 35.12190831 -4.37144330 -0.14016534
v 35.00957795 -5.93927475 -0.00027668
v 35.05471286 -5.34340139 -0.06301136
v 35.47093766 -1.45557019 0.44730098
v 35.49801803 -0.48361245 0.44730098
v 35.25530278 0.48346110 -0.23509869
v 35.49902025 0.48346110 0.44730098
v 33.53122300 9.23108057 -0.40848948
v 34.27441372 8.25912320 -0.21797395
v 34.50308623 4.37129226 -0.40737139
v 34.50308623 3.39933453 -0.45502634
v 35.21618702 2.42737662 -0.21471817
v 35.24226516 1.45541888 -0.22895788
v 34.29146314 -9.23123232 0.44730098
v 34.09488502 -9.96874787 0.44730098
v 32.01876631 15.34122695 0.44730098
v 32.23038940 14.91141706 0.44730098
v 33.09995322 12.76724840 -0.04300161
v 33.21429093 12.14695413 -0.15189080
v 33.36874372 11.17499676 -0.22997749
v 35.42179386 -2.42752801 0.44730098
v 35.34556679 -3.39948556 0.44730098
v 35.01760155 -5.98811695 0.44730098
v 34.51612385 -8.25927423 0.44730098
v 35.24025781 -4.37144330 0.44730098
v 35.11288248 -5.34340139 0.44730098
v 35.49701291 0.57626110 0.44730098
v 34.16208047 9.23108057 -0.14119074
v 35.00957795 5.93912335 -0.00027668
v 35.05471286 5.34325000 -0.06301136
v 35.12190831 4.37129226 -0.14016534
v 35.17707126 3.39933453 -0.18782029
v 35.46792809 1.54821888 0.44730098
v 35.47093766 1.45541888 0.44730098
v 32.55033395 14.17390079 0.44730098
v 32.94349309 13.25566965 0.44730098
v 33.12302179 12.83074344 0.44730098
v 33.34768250 12.22510092 0.44730098
v 34.07081133 9.89533372 -0.04476854
v 34.92934198 6.40800772 0.44730098
v 35.01760155 5.98796555 0.44730098
v 35.10586111 5.42139715 0.44730098
v 35.23022976 4.48851317 0.44730098
v 35.33854832 3.50190260 0.44730098
v 34.27742040 9.31411248 0.44730098
v 34.50107888 8.36169127 0.44730098
v 35.41677694 2.52506083 0.44730098
v 34.09488502 9.96859684 0.44730098
f 1 2 3
f 1 3 4
f 1 4 9
f 1 9 17
f 1 17 28
f 1 28 42
f 1 42 56
f 1 56 58
f 1 58 70
f 1 70 93
f 1 93 118
f 1 118 138
f 1 138 137
f 1 137 147
f 1 147 146
f 1 146 149
f 1 149 148
f 1 148 145
f 1 145 144
f 1 144 127
f 1 127 128
f 1 128 130
f 1 130 150
f 1 150 157
f 1 157 156
f 1 156 170
f 1 170 167
f 1 167 166
f 1 166 165
f 1 165 164
f 1 164 163
f 1 163 169
f 1 169 168
f 1 168 171
f 1 171 161
f 1 161 160
f 1 160 159
f 1 159 158
f 1 158 140
f 1 140 139
f 1 139 119
f 1 119 98
f 1 98 97
f 1 97 96
f 1 96 95
f 1 95 94
f 1 94 76
f 1 76 75
f 1 75 74
f 1 74 73
f 1 73 71
f 1 71 59
f 1 59 43
f 1 43 29
f 1 29 18
f 1 18 10
f 1 10 5
f 1 5 11
f 1 11 20
f 1 20 32
f 1 32 48
f 1 48 54
f 1 54 40
f 1 40 26
f 1 26 15
f 1 15 7
f 1 7 2
f 2 6 3
f 2 7 6
f 3 6 8
f 3 8 4
f 4 8 9
f 5 10 11
f 6 7 12
f 6 12 13
f 6 13 14
f 6 14 8
f 7 15 12
f 8 14 16
f 8 16 9
f 9 16 17
f 10 18 19
f 10 19 11
f 11 19 20
f 12 15 21
f 12 21 22
f 12 22 23
f 12 23 13
f 13 24 14
f 13 23 24
f 14 24 25
f 14 25 16
f 15 26 21
f 16 25 27
f 16 27 17
f 17 27 28
f 18 29 30
f 18 30 19
f 19 30 31
f 19 31 20
f 20 31 32
f 21 26 40
f 21 40 55
f 21 55 69
f 21 69 83
f 21 83 104
f 21 104 88
f 21 88 65
f 21 65 49
f 21 49 33
f 21 33 22
f 22 33 23
f 23 33 34
f 23 34 35
f 23 35 24
f 24 35 36
f 24 36 37
f 24 37 25
f 25 37 38
f 25 38 39
f 25 39 27
f 27 39 38
f 27 38 41
f 27 41 42
f 27 42 28
f 29 43 44
f 29 44 30
f 30 45 31
f 30 44 45
f 31 45 46
f 31 46 47
f 31 47 32
f 32 47 48
f 33 49 34
f 34 49 50
f 34 50 51
f 34 51 52
f 34 52 35
f 35 52 36
f 36 38 37
f 36 52 53
f 36 53 38
f 38 53 41
f 40 54 55
f 41 56 42
f 41 53 57
f 41 57 58
f 41 58 56
f 43 59 60
f 43 60 44
f 44 60 61
f 44 61 45
f 45 61 62
f 45 62 46
f 46 62 63
f 46 63 47
f 47 54 48
f 47 63 54
f 49 64 50
f 49 65 64
f 50 66 51
f 50 64 67
f 50 67 66
f 51 57 53
f 51 53 52
f 51 66 68
f 51 68 57
f 54 63 69
f 54 69 55
f 57 68 58
f 58 68 70
f 59 71 60
f 60 72 61
f 60 71 73
f 60 73 74
f 60 74 75
f 60 75 76
f 60 76 77
f 60 77 78
f 60 78 72
f 61 72 78
f 61 78 79
f 61 79 62
f 62 79 80
f 62 80 81
f 62 81 63
f 63 81 82
f 63 82 83
f 63 83 69
f 64 65 84
f 64 84 85
f 64 85 67
f 65 86 87
f 65 87 84
f 65 88 115
f 65 115 89
f 65 89 86
f 66 67 90
f 66 90 68
f 67 85 91
f 67 91 90
f 68 90 92
f 68 92 70
f 70 92 93
f 76 94 77
f 77 94 95
f 77 95 96
f 77 96 97
f 77 97 98
f 77 98 99
f 77 99 100
f 77 100 78
f 78 100 80
f 78 80 79
f 80 100 101
f 80 101 81
f 81 101 82
f 82 102 103
f 82 103 104
f 82 104 83
f 82 101 102
f 84 87 105
f 84 105 106
f 84 106 107
f 84 107 85
f 85 107 91
f 86 108 87
f 86 89 109
f 86 109 108
f 87 108 110
f 87 110 105
f 88 104 111
f 88 111 112
f 88 112 113
f 88 113 114
f 88 114 115
f 89 115 129
f 89 129 109
f 90 91 116
f 90 116 117
f 90 117 92
f 91 107 116
f 92 118 93
f 92 117 118
f 98 119 99
f 99 119 120
f 99 120 102
f 99 102 100
f 100 102 101
f 102 120 121
f 102 121 103
f 103 121 122
f 103 122 111
f 103 111 104
f 105 110 123
f 105 123 106
f 106 123 124
f 106 124 107
f 107 125 116
f 107 124 126
f 107 126 125
f 108 127 110
f 108 109 128
f 108 128 127
f 109 129 130
f 109 130 128
f 110 127 123
f 111 122 131
f 111 131 112
f 112 131 132
f 112 132 133
f 112 133 134
f 112 134 113
f 113 134 135
f 113 135 136
f 113 136 114
f 114 136 129
f 114 129 115
f 116 125 117
f 117 125 137
f 117 137 138
f 117 138 118
f 119 139 120
f 120 139 140
f 120 140 141
f 120 141 142
f 120 142 121
f 121 142 122
f 122 142 143
f 122 143 131
f 123 127 144
f 123 144 124
f 124 144 145
f 124 145 126
f 125 146 147
f 125 147 137
f 125 126 145
f 125 145 148
f 125 148 149
f 125 149 146
f 129 136 130
f 130 136 150
f 131 143 132
f 132 143 151
f 132 151 152
f 132 152 153
f 132 153 154
f 132 154 133
f 133 155 134
f 133 154 155
f 134 155 135
f 135 155 156
f 135 156 157
f 135 157 136
f 136 157 150
f 140 158 141
f 141 158 159
f 141 159 160
f 141 160 161
f 141 161 162
f 141 162 142
f 142 162 151
f 142 151 143
f 151 162 152
f 152 163 164
f 152 164 165
f 152 165 166
f 152 166 167
f 152 167 153
f 152 162 168
f 152 168 169
f 152 169 163
f 153 167 154
f 154 167 170
f 154 170 155
f 155 170 156
f 161 171 162
f 162 171 168

