# https://github.com/mikedh/trimesh
v -35.52672759 0.48434113 10.07968397
v -35.49748347 1.45741781 10.07968397
v -35.49748347 1.45741781 8.77964115
v -35.51210553 0.96869767 8.77964115
v -35.52595710 0.48434113 8.77964115
v -35.52595710 -0.48437195 8.77964115
v -35.52595710 -0.48437195 10.07968397
v -35.44515050 2.42613089 10.07968397
v -35.44515050 2.42613089 8.77964115
v -35.51210553 -0.96872849 8.77964115
v -35.49748347 -1.45744864 10.07968397
v -35.36587910 3.39920780 10.07968397
v -35.36587910 3.39920780 8.77964115
v -35.49748347 -1.45744864 8.77964115
v -35.48901669 -1.61453725 10.07968397
v -35.27506762 4.21519565 10.07968397
v -35.25736357 4.37228435 8.77964115
v -35.47131553 -1.94180513 8.77964115
v -35.44515050 -2.42616172 9.26448364
v -35.44515050 -2.42616172 10.07968397
v -35.25736357 4.37228435 10.07968397
v -35.14577185 5.18827256 10.07968397
v -35.12422401 5.34536090 9.26448364
v -35.12345351 5.34536090 8.77964115
v -35.44438000 -2.42616172 8.77964115
v -35.36587910 -3.39923863 8.77964115
v -35.36587910 -3.39923863 10.07968397
v -35.12422401 5.34536090 10.07968397
v -35.03725633 5.89517099 10.07968397
v -35.02032567 5.99989703 8.77964115
v -35.25736357 -4.37231517 8.77964115
v -35.25736357 -4.37231517 10.07968397
v -35.02032567 5.99989703 10.07968397
v -35.00647410 6.07844138 10.07968397
v -34.97645948 6.24425683 8.77964115
v -35.23581573 -4.52940388 10.07968397
v -35.12345351 -5.34539172 8.77964115
v -34.93181989 6.48425362 10.07968397
v -34.93181989 6.48861735 9.26448364
v -34.93181989 6.48425362 8.77964115
v -35.12345351 -5.34539172 10.07968397
v -35.02032567 -5.99992785 8.77964115
v -35.10729045 -5.45011740 10.07968397
v -34.77251239 7.28715062 10.07968397
v -34.77251239 7.28715062 9.26448364
v -34.77174189 7.28715062 8.77964115
v -34.97568898 -6.24428765 8.77964115
v -34.94644485 -6.40574009 10.07968397
v -35.02032567 -5.99992785 10.07968397
v -34.55394324 8.26022753 10.07968397
v -34.66245877 7.77587094 8.77964115
v -34.93181989 -6.48428444 8.77964115
v -34.93181989 -6.48428444 10.07968397
v -34.34691996 9.07621573 10.07968397
v -34.30690046 9.23330443 8.77964115
v -34.55317564 8.26022753 8.77964115
v -34.90642535 -6.61519145 10.07968397
v -34.77174189 -7.28718144 8.77964115
v -34.30690046 9.23330443 10.07968397
v -34.09756859 9.98383878 8.77964115
v -34.77174189 -7.28718144 10.07968397
v -34.55317564 -8.26025835 8.77964115
v -34.55394324 -8.26025835 10.07968397
v -34.73711008 -7.44427014 10.07968397
v -34.09756859 9.98383878 10.07968397
v -33.95057166 10.46819536 8.77964115
v -34.30767096 -9.23333526 8.77964115
v -34.30767096 -9.23333526 10.07968397
v -33.95057166 10.46819536 10.07968397
v -33.75894094 11.06164100 10.07968397
v -33.72200053 11.17509379 8.77964115
v -34.20300502 -9.60860207 8.77964115
v -34.09756859 -9.98386960 10.07968397
v -33.72200053 11.17509379 10.07968397
v -33.55268526 11.66381412 8.77964115
v -34.09756859 -9.98386960 8.77964115
v -33.97520149 -10.39404557 10.07968397
v -33.43878494 11.99108200 10.07968397
v -33.38414338 12.14817070 8.77964115
v -33.38414338 12.14817070 10.07968397
v -34.02445537 -10.22822940 8.77964115
v -33.95134216 -10.46822619 8.77964115
v -33.91440175 -10.58604271 10.07968397
v -33.16865332 12.72852658 10.07968397
v -33.12709283 12.83761564 8.77964115
v -33.83744184 -10.82167576 8.77964115
v -33.72353863 -11.17512462 10.07968397
v -33.12709283 12.83761564 10.07968397
v -32.93315352 13.32633668 8.77964115
v -33.72276813 -11.17512462 8.77964115
v -33.55499385 -11.65948120 8.77964115
v -33.38568148 -12.14820153 8.77964115
v -33.38568148 -12.14820153 10.07968397
v -32.93315352 13.32633668 10.07968397
v -32.77153452 13.71033096 8.77964115
v -33.12786333 -12.84201020 8.77964115
v -33.12786333 -12.84201020 10.07968397
v -32.66302189 13.96778125 10.07968397
v -32.61068893 14.08996006 8.77964115
v -33.03089367 -13.08637072 8.77964115
v -32.96547673 -13.24782171 10.07968397
v -32.61068893 14.08996006 10.07968397
v -32.29745871 14.79249693 10.07968397
v -32.23665897 14.92776550 8.77964115
v -32.93392112 -13.32636606 8.77964115
v -32.93392112 -13.32636606 10.07968397
v -32.23665897 14.92776550 10.07968397
v -32.20048616 15.00630985 10.07968397
v -32.00885544 15.41212426 8.77964115
v -32.61222702 -14.08999233 8.77964115
v -32.61222702 -14.08999233 10.07968397
v -32.00885544 15.41212426 10.07968397
v -31.85339463 15.72629876 8.77964115
v -32.42521349 -14.50889360 8.77964115
v -32.23742946 -14.92779777 10.07968397
v -31.74872869 15.93575230 10.07968397
v -31.69870432 16.03611388 10.07968397
v -31.69870432 16.03611388 8.77964115
v -32.23742946 -14.92779777 8.77964115
v -32.12275576 -15.17215830 8.77964115
v -32.00962594 -15.41215363 10.07968397
v -31.27849958 16.84773980 10.07968397
v -31.27849958 16.84773980 8.77964115
v -32.00962594 -15.41215363 8.77964115
v -31.70024242 -16.03614325 10.07968397
v -31.23617148 16.92628125 10.07968397
v -31.01375274 17.33209566 8.77964115
v -31.69947482 -16.03614325 8.77964115
v -31.49014005 -16.44195766 8.77964115
v -31.27926718 -16.84776917 10.07968397
v -31.01375274 17.33209566 10.07968397
v -30.64049328 17.97790251 8.77964115
v -31.27926718 -16.84776917 8.77964115
v -31.14612471 -17.09212970 8.77964115
v -31.01452324 -17.33212504 10.07968397
v -30.64049328 17.97790251 10.07968397
v -30.44116628 18.31390004 8.77964115
v -31.01452324 -17.33212504 8.77964115
v -30.82827731 -17.65502991 8.77964115
v -30.64049328 -17.97793478 10.07968397
v -30.24260688 18.64552949 10.07968397
v -30.24260688 18.64552949 8.77964115
v -30.64049328 -17.97793478 8.77964115
v -30.57661734 -18.08702384 10.07968397
v -30.19335301 18.72407384 10.07968397
v -29.93553485 19.12988825 9.26448364
v -29.93476436 19.12988825 8.77964115
v -30.24260688 -18.64556176 8.77964115
v -30.24260688 -18.64556176 10.07968397
v -29.93553485 19.12988825 10.07968397
v -29.69156827 19.50078987 8.77964115
v -30.08868707 -18.88992229 8.77964115
v -29.93553485 -19.12991763 10.07968397
v -29.52764358 19.74951268 10.07968397
v -29.44914268 19.86732921 8.77964115
v -29.93553485 -19.12991763 8.77964115
v -29.69310926 -19.50082215 8.77964115
v -29.44914268 -19.86736148 10.07968397
v -29.44914268 19.86732921 10.07968397
v -29.12129040 20.35605026 8.77964115
v -29.44914268 -19.86736148 8.77964115
v -29.17439387 -20.27753818 10.07968397
v -29.12129040 20.35605026 10.07968397
v -28.92504249 20.62659320 8.77964115
v -29.12129040 -20.35608253 8.77964115
v -29.12129040 -20.35608253 10.07968397
v -28.73032979 20.89277095 10.07968397
v -28.50560535 21.20258317 8.77964115
v -29.05818206 -20.44335435 10.07968397
v -28.73032979 -20.89280033 8.77964115
v -28.65798707 -20.99316191 10.07968397
v -28.35399413 21.40767152 10.07968397
v -28.28164852 21.50367081 8.77964115
v -28.50637585 -21.19825026 8.77964115
v -28.28164852 -21.50370019 8.77964115
v -28.28164852 -21.50370019 10.07968397
v -28.28164852 21.50367081 10.07968397
v -28.22085167 21.58221516 10.07968397
v -28.09232639 21.74803133 8.77964115
v -27.96380401 -21.91387688 10.07968397
v -27.90223377 -21.99242123 8.77964115
v -27.90223377 21.99239186 10.07968397
v -27.90223377 21.99239186 8.77964115
v -27.90223377 -21.99242123 10.07968397
v -27.66442537 -22.28478140 8.77964115
v -27.66442537 -22.28914369 10.07968397
v -27.66442537 22.28911432 10.07968397
v -27.66442537 22.28474913 8.77964115
f 1 2 3
f 1 3 4
f 1 4 5
f 1 5 6
f 1 6 7
f 1 7 11
f 1 11 15
f 1 15 20
f 1 20 27
f 1 27 32
f 1 32 36
f 1 36 41
f 1 41 43
f 1 43 49
f 1 49 48
f 1 48 53
f 1 53 57
f 1 57 61
f 1 61 64
f 1 64 63
f 1 63 68
f 1 68 73
f 1 73 77
f 1 77 83
f 1 83 87
f 1 87 93
f 1 93 97
f 1 97 101
f 1 101 106
f 1 106 111
f 1 111 115
f 1 115 121
f 1 121 125
f 1 125 130
f 1 130 135
f 1 135 140
f 1 140 144
f 1 144 149
f 1 149 153
f 1 153 158
f 1 158 162
f 1 162 166
f 1 166 169
f 1 169 171
f 1 171 176
f 1 176 180
f 1 180 184
f 1 184 186
f 1 186 187
f 1 187 182
f 1 182 178
f 1 178 177
f 1 177 172
f 1 172 167
f 1 167 163
f 1 163 159
f 1 159 154
f 1 154 150
f 1 150 145
f 1 145 141
f 1 141 136
f 1 136 131
f 1 131 126
f 1 126 122
f 1 122 117
f 1 117 116
f 1 116 112
f 1 112 108
f 1 108 107
f 1 107 103
f 1 103 102
f 1 102 98
f 1 98 94
f 1 94 88
f 1 88 84
f 1 84 80
f 1 80 78
f 1 78 74
f 1 74 70
f 1 70 69
f 1 69 65
f 1 65 59
f 1 59 54
f 1 54 50
f 1 50 44
f 1 44 38
f 1 38 34
f 1 34 33
f 1 33 29
f 1 29 28
f 1 28 22
f 1 22 21
f 1 21 16
f 1 16 12
f 1 12 8
f 1 8 2
f 2 8 9
f 2 9 3
f 3 9 13
f 3 13 17
f 3 17 24
f 3 24 30
f 3 30 35
f 3 35 40
f 3 40 46
f 3 46 51
f 3 51 56
f 3 56 55
f 3 55 60
f 3 60 66
f 3 66 71
f 3 71 75
f 3 75 79
f 3 79 85
f 3 85 89
f 3 89 95
f 3 95 99
f 3 99 104
f 3 104 109
f 3 109 113
f 3 113 118
f 3 118 123
f 3 123 127
f 3 127 132
f 3 132 137
f 3 137 142
f 3 142 147
f 3 147 151
f 3 151 155
f 3 155 160
f 3 160 164
f 3 164 168
f 3 168 173
f 3 173 179
f 3 179 183
f 3 183 188
f 3 188 185
f 3 185 181
f 3 181 175
f 3 175 174
f 3 174 170
f 3 170 165
f 3 165 161
f 3 161 157
f 3 157 156
f 3 156 152
f 3 152 148
f 3 148 143
f 3 143 139
f 3 139 138
f 3 138 134
f 3 134 133
f 3 133 129
f 3 129 128
f 3 128 124
f 3 124 120
f 3 120 119
f 3 119 114
f 3 114 110
f 3 110 105
f 3 105 100
f 3 100 96
f 3 96 92
f 3 92 91
f 3 91 90
f 3 90 86
f 3 86 82
f 3 82 81
f 3 81 76
f 3 76 72
f 3 72 67
f 3 67 62
f 3 62 58
f 3 58 52
f 3 52 47
f 3 47 42
f 3 42 37
f 3 37 31
f 3 31 26
f 3 26 25
f 3 25 18
f 3 18 14
f 3 14 10
f 3 10 6
f 3 6 5
f 3 5 4
f 6 10 7
f 7 10 11
f 8 12 13
f 8 13 9
f 10 14 11
f 11 14 15
f 12 16 13
f 13 16 17
f 14 18 15
f 15 18 19
f 15 19 20
f 16 21 17
f 17 21 22
f 17 22 23
f 17 23 24
f 18 25 19
f 19 26 27
f 19 27 20
f 19 25 26
f 22 28 23
f 23 28 29
f 23 29 30
f 23 30 24
f 26 31 32
f 26 32 27
f 29 33 30
f 30 33 34
f 30 34 35
f 31 36 32
f 31 37 36
f 34 38 39
f 34 39 35
f 35 39 40
f 36 37 41
f 37 42 43
f 37 43 41
f 38 44 39
f 39 44 45
f 39 45 46
f 39 46 40
f 42 47 48
f 42 48 49
f 42 49 43
f 44 50 45
f 45 50 51
f 45 51 46
f 47 52 48
f 48 52 53
f 50 54 55
f 50 55 56
f 50 56 51
f 52 57 53
f 52 58 57
f 54 59 55
f 55 59 65
f 55 65 60
f 57 58 61
f 58 62 63
f 58 63 64
f 58 64 61
f 60 65 69
f 60 69 66
f 62 67 63
f 63 67 68
f 66 69 70
f 66 70 71
f 67 72 68
f 68 72 73
f 70 74 71
f 71 74 75
f 72 76 73
f 73 76 77
f 74 78 75
f 75 78 80
f 75 80 79
f 76 81 77
f 77 81 82
f 77 82 83
f 79 80 84
f 79 84 85
f 82 86 83
f 83 86 87
f 84 88 85
f 85 88 94
f 85 94 89
f 86 90 87
f 87 90 91
f 87 91 92
f 87 92 93
f 89 94 95
f 92 96 97
f 92 97 93
f 94 98 95
f 95 98 99
f 96 100 97
f 97 100 101
f 98 102 99
f 99 102 103
f 99 103 104
f 100 105 106
f 100 106 101
f 103 107 104
f 104 107 108
f 104 108 109
f 105 110 111
f 105 111 106
f 108 112 109
f 109 112 113
f 110 114 111
f 111 114 115
f 112 116 113
f 113 116 117
f 113 117 118
f 114 119 115
f 115 119 120
f 115 120 121
f 117 122 123
f 117 123 118
f 120 124 121
f 121 124 125
f 122 126 123
f 123 126 127
f 124 128 125
f 125 128 129
f 125 129 130
f 126 131 127
f 127 131 136
f 127 136 132
f 129 133 130
f 130 133 134
f 130 134 135
f 132 136 137
f 134 138 135
f 135 138 139
f 135 139 140
f 136 141 137
f 137 141 142
f 139 143 140
f 140 143 144
f 141 145 142
f 142 145 146
f 142 146 147
f 143 148 144
f 144 148 149
f 145 150 146
f 146 150 151
f 146 151 147
f 148 152 149
f 149 152 153
f 150 154 151
f 151 154 155
f 152 156 153
f 153 156 157
f 153 157 158
f 154 159 155
f 155 159 163
f 155 163 160
f 157 161 158
f 158 161 162
f 160 163 164
f 161 165 162
f 162 165 166
f 163 167 168
f 163 168 164
f 165 169 166
f 165 170 171
f 165 171 169
f 167 172 168
f 168 172 173
f 170 174 171
f 171 174 175
f 171 175 176
f 172 177 173
f 173 177 178
f 173 178 179
f 175 180 176
f 175 181 180
f 178 182 179
f 179 182 183
f 180 181 184
f 181 185 186
f 181 186 184
f 182 187 183
f 183 187 188
f 185 188 187
f 185 187 186

