# https://github.com/mikedh/trimesh
v -4.29594590 -22.62784520 13.82926428
v -4.29594590 -22.62784520 14.73830593
v -4.29594590 -22.20257864 13.82658781
v -4.03367313 -22.15827941 13.82658781
v 0.00397838 -20.08953256 13.82658781
v 0.00397838 -20.08953256 14.73830593
v -4.29594590 22.62764493 14.73830593
v -4.29594590 22.62764493 13.82658781
v 0.00397838 20.08933229 13.82658781
v 0.00397838 20.08933229 14.73830593
f 1 2 7
f 1 7 8
f 1 8 3
f 1 3 4
f 1 4 5
f 1 5 6
f 1 6 2
f 2 6 10
f 2 10 7
f 3 8 9
f 3 9 5
f 3 5 4
f 5 9 10
f 5 10 6
f 7 10 9
f 7 9 8

