# https://github.com/mikedh/trimesh
v 18.66847450 -30.22829576 11.32157165
v 20.25082193 -29.19248127 10.07980273
v 19.13269606 -29.93151826 11.32157165
v 19.13082340 -29.93442645 12.18464997
v 18.66847450 -30.22538467 12.18011679
v 18.66847450 -2.91595197 11.32157165
v 20.35751839 -29.11974172 10.07980273
v 20.35751839 -29.11974172 10.23659598
v 20.35689417 -29.11974172 11.32157165
v 19.87083365 -29.44561561 12.18464997
v 19.87083365 -29.44561561 11.32157165
v 19.21880200 -29.87623365 11.32157165
v 20.25082193 -0.50389946 10.07980273
v 18.66847450 -29.74821528 12.18464997
v 18.66847450 -2.91595197 12.18464997
v 20.80988559 -28.79095674 10.07980273
v 20.89723851 -28.72694755 12.18464997
v 20.35439874 -29.11974172 12.18464997
v 20.25082193 -0.50389946 11.32157165
v 21.95234584 -0.50389946 10.07980273
v 20.42864887 -2.91595197 12.18464997
v 20.89723851 -28.72694755 11.32157165
v 21.40825763 -28.35160833 10.07980273
v 21.50684214 -28.27886877 11.32157165
v 21.50621793 -28.27886877 12.18464997
v 20.33068858 -0.50389946 11.32157165
v 25.04216779 -2.93049873 10.07980273
v 21.94111425 -0.50389946 10.10782449
v 21.05572338 -2.91595197 12.18011679
v 21.20048123 -3.13417064 12.18464997
v 21.50684214 -28.27886877 10.07980273
v 21.98915880 -27.90062136 12.18464997
v 24.98725974 -4.92647995 12.18011679
v 25.04216779 -25.19761063 10.07980273
v 25.04216779 -4.58896677 11.32157165
v 24.78073178 -4.93229923 12.18464997
v 21.99227844 -27.89771317 10.07980273
v 22.06216194 -27.84242856 11.32157165
v 22.59688977 -27.41181052 12.18464997
v 24.98725974 -5.22907745 12.18464997
v 25.04216779 -25.19761063 11.32157165
v 24.98725974 -25.25289235 11.32157165
v 24.71521636 -25.51766525 10.07980273
v 22.59751399 -27.41181052 10.07980273
v 22.59751399 -27.41181052 11.32157165
v 23.08107908 -27.00446670 12.18464997
v 22.67488521 -27.34779843 10.07980273
v 23.08295028 -27.00446670 12.18011679
v 24.98725974 -25.11323252 12.18464997
v 24.98725974 -25.25289235 12.18011679
v 24.63722237 -25.59331589 11.32157165
v 24.63722237 -25.59331589 11.20825355
v 24.63659670 -25.59331589 10.07980273
v 23.63827008 -26.51856405 12.18464997
v 23.08295028 -27.00446670 10.07980273
v 23.14784149 -26.94918499 11.32157165
v 24.63659670 -25.59331589 12.18464997
v 24.12245794 -26.08212673 12.18464997
v 24.18422950 -26.02393393 11.32157165
v 24.55423462 -25.67187472 10.07980273
v 23.63827008 -26.51856405 10.07980273
v 23.71688829 -26.44873559 10.07980273
v 24.12433060 -26.07921854 10.07980273
f 1 2 3
f 1 3 4
f 1 4 5
f 1 5 14
f 1 14 15
f 1 15 6
f 1 6 13
f 1 13 2
f 2 7 8
f 2 8 9
f 2 9 10
f 2 10 11
f 2 11 12
f 2 12 3
f 2 13 20
f 2 20 27
f 2 27 34
f 2 34 43
f 2 43 53
f 2 53 60
f 2 60 63
f 2 63 62
f 2 62 61
f 2 61 55
f 2 55 47
f 2 47 44
f 2 44 37
f 2 37 31
f 2 31 23
f 2 23 16
f 2 16 7
f 3 12 4
f 4 12 11
f 4 11 10
f 4 10 18
f 4 18 17
f 4 17 25
f 4 25 32
f 4 32 39
f 4 39 46
f 4 46 54
f 4 54 58
f 4 58 57
f 4 57 49
f 4 49 40
f 4 40 36
f 4 36 30
f 4 30 21
f 4 21 15
f 4 15 14
f 4 14 5
f 6 15 19
f 6 19 13
f 7 16 8
f 8 16 17
f 8 17 9
f 9 18 10
f 9 17 18
f 13 19 26
f 13 26 28
f 13 28 20
f 15 21 26
f 15 26 19
f 16 22 17
f 16 23 22
f 17 22 23
f 17 23 24
f 17 24 25
f 20 28 27
f 21 29 26
f 21 30 29
f 23 31 24
f 24 31 32
f 24 32 25
f 26 29 33
f 26 33 28
f 27 28 33
f 27 33 35
f 27 35 41
f 27 41 34
f 29 30 36
f 29 36 33
f 31 37 32
f 32 37 38
f 32 38 39
f 33 36 40
f 33 40 35
f 34 41 50
f 34 50 42
f 34 42 43
f 35 40 49
f 35 49 41
f 37 44 38
f 38 44 45
f 38 45 39
f 39 45 47
f 39 47 48
f 39 48 46
f 41 49 50
f 42 50 43
f 43 51 52
f 43 52 53
f 43 50 51
f 44 47 45
f 46 48 54
f 47 55 48
f 48 56 54
f 48 55 56
f 49 57 50
f 50 57 51
f 51 57 58
f 51 58 59
f 51 59 52
f 52 59 60
f 52 60 53
f 54 56 61
f 54 61 62
f 54 62 58
f 55 61 56
f 58 62 63
f 58 63 59
f 59 63 60

