# https://github.com/mikedh/trimesh
v 29.26819912 -20.09840631 18.37700418
v 29.21756646 -20.09840631 18.98390673
v 29.07973150 -20.30341790 18.98390673
v 29.10223522 -20.33721694 18.37700418
v 0.53100938 -20.09840631 18.37700418
v 29.18380942 -20.09840631 19.08940689
v 28.19646094 -21.40106187 19.48962216
v 28.39618188 -21.18275197 19.27023037
v 28.64934808 -20.89684399 18.98390673
v 28.94189653 -20.56051335 18.37700418
v 4.93891566 -25.05581022 18.37700418
v 5.06831209 -25.75894378 19.27023037
v 0.53100938 -20.09840631 19.27023037
v 29.14724268 -20.09840631 19.19558775
v 27.65074629 -21.78282577 19.72716697
v 27.29350216 -22.45493235 19.57651742
v 27.12472276 -22.75690925 19.27023037
v 27.37226665 -22.55245091 18.98390673
v 27.85890793 -21.94461856 18.98390673
v 28.21615206 -21.42599585 19.27023037
v 28.37930625 -20.89739724 19.68133688
v 28.23865869 -21.45868549 18.98390673
v 28.69716814 -20.89684399 18.37700418
v 25.15284129 -25.05581022 18.37700418
v 5.45650066 -25.75894378 20.09607573
v 24.26394552 -25.75894378 19.27023037
v 1.77433667 -20.39096345 20.69458391
v 29.08254410 -20.09840631 19.27023037
v 28.52557903 -20.39096345 19.85512741
v 27.67887812 -20.92565652 20.20928665
v 26.76185342 -21.96179543 20.29777215
v 26.70840526 -22.80345190 19.82109519
v 26.37085225 -23.47500378 19.62552509
v 26.43273533 -23.54093921 19.27023037
v 26.47774278 -23.59413102 18.98390673
v 26.96438696 -23.03727602 18.98390673
v 27.39758298 -22.58181814 18.37700418
v 27.70138184 -22.20337666 18.37700418
v 27.88422426 -21.97509374 18.37700418
v 26.98970329 -23.06775121 18.37700418
v 28.02768444 -21.79280023 18.37700418
v 28.20208615 -20.39096345 20.10719290
v 28.26397502 -21.48860742 18.37700418
v 25.28223555 -24.92504586 18.37700418
v 25.09939313 -25.05581022 18.98390673
v 5.43680954 -25.02367238 20.69458391
v 5.52401112 -25.75894378 20.14961948
v 24.53680285 -25.50074038 19.27023037
v 24.46366357 -25.43147965 19.64707873
v 24.25550626 -25.75894378 19.29042261
v 17.19779266 -20.39096345 20.69458391
v 26.25833361 -20.39096345 20.56004528
v 26.74216229 -20.39096345 20.53440743
v 27.23442879 -20.39096345 20.50173662
v 27.44821564 -20.39096345 20.48040891
v 27.68450332 -20.39096345 20.42414235
v 27.90391539 -20.39096345 20.33225624
v 27.10784713 -21.26808017 20.42051291
v 26.23301728 -22.34688462 20.44047921
v 26.00516741 -22.84112950 20.31456088
v 25.68449003 -23.73542308 19.96039874
v 25.42851122 -24.46626123 19.64730466
v 25.77731754 -24.24684483 19.27023037
v 26.18800983 -23.81022502 19.27023037
v 26.50305911 -23.62239030 18.37700418
v 26.03610895 -24.08006408 18.98390673
v 26.06424078 -24.10832337 18.37700418
v 25.57759660 -24.62140631 18.37700418
v 25.55228027 -24.59425643 18.98390673
v 25.09095532 -25.05581022 19.00977052
v 5.76311285 -25.53897268 20.51898011
v 5.60277416 -25.17604541 20.69458391
v 6.14848809 -25.75894378 20.55664177
v 24.81247278 -25.23145457 19.27023037
v 25.22879028 -24.81533694 19.27023037
v 24.71683267 -24.72058898 19.97128997
v 23.99390080 -24.97491382 20.29504934
v 23.73510939 -25.68469510 19.95971803
v 23.70416640 -25.75894378 19.92387254
v 16.98119465 -20.59375914 20.69458391
v 21.86730440 -24.78375235 20.56390067
v 22.83777581 -23.81188767 20.56435543
v 23.81105838 -22.84112950 20.56435543
v 24.78153124 -21.86926337 20.56390067
v 25.75200121 -20.89739724 20.56185856
v 24.78153124 -22.84112950 20.53713024
v 26.76185342 -20.92565652 20.50718224
v 26.45805166 -21.69915877 20.47814087
v 27.34413482 -20.62035432 20.47315002
v 25.51852613 -22.84112950 20.47632470
v 25.28786365 -23.34867124 20.44864764
v 24.97281147 -23.99639709 20.29527528
v 25.49883500 -24.53940052 19.27023037
v 25.88139546 -24.30114604 18.37700418
v 6.26100672 -25.75894378 20.60451397
v 6.27225859 -25.60823341 20.69458391
v 24.32583150 -24.32718652 20.45091568
v 23.34692083 -25.28963289 20.44841880
v 23.01499158 -25.75894378 20.36016214
v 23.52695064 -25.75894378 20.04094174
v 16.03322696 -21.26475632 20.69458391
v 20.89402039 -25.75894378 20.56185856
v 23.81105838 -23.81188767 20.53917235
v 25.84482872 -21.96179543 20.51194715
v 24.70276675 -23.72877393 20.47519213
v 7.29336266 -25.75894378 20.60859818
v 19.92073637 -25.75894378 20.56549090
v 7.29336266 -25.57831147 20.69458391
v 23.72667013 -24.70451861 20.47519213
v 22.83777581 -25.52013316 20.47609876
v 22.67181047 -25.75894378 20.46407496
v 14.08947153 -22.62836080 20.69458391
v 22.03045570 -25.75894378 20.51398636
v 22.83777581 -24.78375235 20.53690141
v 13.12462678 -23.23785436 20.69458391
v 11.17805947 -24.27344001 20.69458391
v 8.24414295 -25.46306134 20.69458391
v 22.19360699 -25.75894378 20.50196255
f 1 2 3
f 1 3 4
f 1 4 10
f 1 10 23
f 1 23 43
f 1 43 41
f 1 41 39
f 1 39 38
f 1 38 37
f 1 37 40
f 1 40 65
f 1 65 67
f 1 67 94
f 1 94 68
f 1 68 44
f 1 44 24
f 1 24 11
f 1 11 5
f 1 5 13
f 1 13 28
f 1 28 14
f 1 14 6
f 1 6 2
f 2 6 7
f 2 7 3
f 3 8 9
f 3 9 10
f 3 10 4
f 3 7 8
f 5 11 12
f 5 12 13
f 6 14 7
f 7 15 16
f 7 16 17
f 7 17 18
f 7 18 19
f 7 19 20
f 7 20 8
f 7 14 21
f 7 21 15
f 8 20 22
f 8 22 9
f 9 23 10
f 9 22 23
f 11 24 26
f 11 26 12
f 12 25 13
f 12 26 50
f 12 50 79
f 12 79 100
f 12 100 99
f 12 99 111
f 12 111 118
f 12 118 113
f 12 113 102
f 12 102 107
f 12 107 106
f 12 106 95
f 12 95 73
f 12 73 47
f 12 47 25
f 13 25 27
f 13 27 51
f 13 51 28
f 14 28 29
f 14 29 21
f 15 21 30
f 15 30 31
f 15 31 32
f 15 32 16
f 16 32 33
f 16 33 34
f 16 34 35
f 16 35 17
f 17 35 36
f 17 36 18
f 18 37 38
f 18 38 39
f 18 39 19
f 18 36 40
f 18 40 37
f 19 39 41
f 19 41 22
f 19 22 20
f 21 29 42
f 21 42 30
f 22 41 43
f 22 43 23
f 24 44 45
f 24 45 26
f 25 46 27
f 25 47 46
f 26 45 48
f 26 48 49
f 26 49 50
f 27 46 72
f 27 72 96
f 27 96 108
f 27 108 117
f 27 117 116
f 27 116 115
f 27 115 112
f 27 112 101
f 27 101 80
f 27 80 51
f 28 52 53
f 28 53 54
f 28 54 55
f 28 55 56
f 28 56 57
f 28 57 42
f 28 42 29
f 28 51 52
f 30 42 57
f 30 57 31
f 31 58 59
f 31 59 60
f 31 60 32
f 31 57 58
f 32 60 61
f 32 61 33
f 33 61 62
f 33 62 63
f 33 63 64
f 33 64 34
f 34 64 35
f 35 65 40
f 35 40 36
f 35 64 66
f 35 66 67
f 35 67 65
f 44 68 69
f 44 69 45
f 45 69 70
f 45 70 48
f 46 47 71
f 46 71 72
f 47 73 71
f 48 70 74
f 48 74 49
f 49 74 75
f 49 75 62
f 49 62 76
f 49 76 77
f 49 77 78
f 49 78 79
f 49 79 50
f 51 80 81
f 51 81 82
f 51 82 83
f 51 83 84
f 51 84 85
f 51 85 52
f 52 85 86
f 52 86 53
f 53 87 54
f 53 86 87
f 54 87 88
f 54 88 89
f 54 89 55
f 55 89 56
f 56 89 58
f 56 58 57
f 58 89 59
f 59 89 88
f 59 88 90
f 59 90 91
f 59 91 92
f 59 92 60
f 60 92 61
f 61 92 62
f 62 92 76
f 62 75 93
f 62 93 63
f 63 66 64
f 63 93 69
f 63 69 66
f 66 69 67
f 67 69 94
f 68 94 69
f 69 93 70
f 70 93 75
f 70 75 74
f 71 73 72
f 72 73 95
f 72 95 96
f 76 92 77
f 77 92 97
f 77 97 98
f 77 98 99
f 77 99 100
f 77 100 78
f 78 100 79
f 80 101 102
f 80 102 81
f 81 102 103
f 81 103 82
f 82 103 83
f 83 103 84
f 84 103 86
f 84 86 85
f 86 90 104
f 86 104 87
f 86 103 105
f 86 105 90
f 87 104 88
f 88 104 90
f 90 105 91
f 91 105 97
f 91 97 92
f 95 106 96
f 96 106 107
f 96 107 102
f 96 102 108
f 97 105 109
f 97 109 98
f 98 109 110
f 98 110 111
f 98 111 99
f 101 112 102
f 102 113 114
f 102 114 103
f 102 112 115
f 102 115 116
f 102 116 117
f 102 117 108
f 103 114 109
f 103 109 105
f 109 114 110
f 110 113 118
f 110 118 111
f 110 114 113

