# https://github.com/mikedh/trimesh
v 0.48718374 35.52671660 16.55735671
v 0.48718374 35.52558402 15.64563859
v 0.00607353 35.52558402 15.64563859
v 0.00607353 35.52558402 16.55735671
v 1.45828010 35.49947982 16.55735671
v 1.45828010 35.49947982 15.64563859
v 0.90970794 35.51423223 15.64563859
v 0.00607353 29.90870998 15.64563859
v 0.00607353 29.90870998 16.55735671
v 2.43115135 35.44500046 16.55735671
v 2.43115135 35.44500046 15.64563859
v 4.81362155 23.93318985 15.64563859
v 4.81362155 23.93318985 16.55735671
v 3.40224770 35.36328433 16.55735671
v 2.85367627 35.40981829 15.64563859
v 18.14089839 23.93318985 15.64563859
v 18.14089839 23.93318985 16.55735671
v 4.37511931 35.25659946 16.55735671
v 3.40224770 35.36328433 15.64563859
v 18.14089839 30.54428312 15.64563859
v 18.14089839 30.54428312 16.55735671
v 4.37511931 35.25659946 15.64563859
v 4.85800443 35.18963863 16.55735671
v 17.97934457 30.64075167 15.64563859
v 17.97934457 30.64075167 16.55735671
v 5.34621567 35.12153944 15.64563859
v 5.34621567 35.12153944 16.55735671
v 17.33668198 31.01415306 15.64563859
v 17.33668198 31.01415306 16.55735671
v 5.66754732 35.07046649 16.55735671
v 5.99420511 35.01826098 15.64563859
v 17.09523834 31.14580667 16.55735671
v 16.85024636 31.27859575 15.64563859
v 5.99420511 35.01826098 16.55735671
v 6.48064110 34.93086750 15.64563859
v 16.85024636 31.27859575 16.55735671
v 16.39043923 31.51806970 15.64563859
v 6.47886548 34.93086750 16.55735671
v 6.48064110 34.93086750 16.06807082
v 7.29018364 34.77084164 15.64563859
v 16.44014787 31.49196549 16.55735671
v 16.03537624 31.70193173 15.64563859
v 16.03537624 31.70193173 16.55735671
v 6.88186149 34.85142230 16.55735671
v 7.29018364 34.76970617 16.55735671
v 7.77306875 34.66188583 16.55735671
v 8.26305561 34.55179455 16.55735671
v 8.26305561 34.55179455 15.64563859
v 15.68564011 31.87671579 15.64563859
v 15.72469649 31.85742150 16.55735671
v 8.74416510 34.42922180 16.55735671
v 8.68557981 34.44397421 15.64563859
v 15.41756798 32.01064034 15.64563859
v 15.41756798 32.01064034 16.55735671
v 9.23237635 34.30437521 15.64563859
v 9.23237635 34.30437521 16.55735671
v 15.20630552 32.10937982 15.64563859
v 14.93113235 32.23762992 16.55735671
v 9.97978308 34.09554445 15.64563859
v 9.97978308 34.09554445 16.55735671
v 14.93113235 32.23762992 15.64563859
v 14.45712316 32.44986419 15.64563859
v 14.09140936 32.61216389 16.55735671
v 10.46444381 33.94913553 15.64563859
v 10.46444381 33.94913553 16.55735671
v 14.09140936 32.61216389 15.64563859
v 13.32802351 32.93448944 16.06807082
v 13.70616519 32.77446068 16.55735671
v 10.77512356 33.85039605 15.64563859
v 11.17634395 33.72101048 16.55735671
v 13.66000779 32.79375497 15.64563859
v 13.08658131 33.02982541 16.55735671
v 13.32802351 32.93335397 16.55735671
v 13.32624789 32.93335397 15.64563859
v 12.84158788 33.12629685 15.64563859
v 11.17634395 33.72101048 15.64563859
v 12.14921593 33.38392962 16.55735671
v 12.84158788 33.12629685 16.55735671
v 12.14921593 33.38392962 15.64563859
f 1 2 3
f 1 3 4
f 1 4 9
f 1 9 13
f 1 13 17
f 1 17 21
f 1 21 25
f 1 25 29
f 1 29 32
f 1 32 36
f 1 36 41
f 1 41 43
f 1 43 50
f 1 50 54
f 1 54 58
f 1 58 63
f 1 63 68
f 1 68 73
f 1 73 72
f 1 72 78
f 1 78 77
f 1 77 70
f 1 70 65
f 1 65 60
f 1 60 56
f 1 56 51
f 1 51 47
f 1 47 46
f 1 46 45
f 1 45 44
f 1 44 38
f 1 38 34
f 1 34 30
f 1 30 27
f 1 27 23
f 1 23 18
f 1 18 14
f 1 14 10
f 1 10 5
f 1 5 6
f 1 6 7
f 1 7 2
f 2 7 6
f 2 6 11
f 2 11 15
f 2 15 19
f 2 19 22
f 2 22 26
f 2 26 31
f 2 31 35
f 2 35 40
f 2 40 48
f 2 48 52
f 2 52 55
f 2 55 59
f 2 59 64
f 2 64 69
f 2 69 76
f 2 76 79
f 2 79 75
f 2 75 74
f 2 74 71
f 2 71 66
f 2 66 62
f 2 62 61
f 2 61 57
f 2 57 53
f 2 53 49
f 2 49 42
f 2 42 37
f 2 37 33
f 2 33 28
f 2 28 24
f 2 24 20
f 2 20 16
f 2 16 12
f 2 12 8
f 2 8 3
f 3 8 9
f 3 9 4
f 5 10 11
f 5 11 6
f 8 12 13
f 8 13 9
f 10 14 15
f 10 15 11
f 12 16 17
f 12 17 13
f 14 18 22
f 14 22 19
f 14 19 15
f 16 20 21
f 16 21 17
f 18 23 22
f 20 24 25
f 20 25 21
f 22 23 26
f 23 27 26
f 24 28 29
f 24 29 25
f 26 27 30
f 26 30 31
f 28 32 29
f 28 33 32
f 30 34 31
f 31 34 39
f 31 39 35
f 32 33 36
f 33 37 36
f 34 38 39
f 35 39 40
f 36 37 41
f 37 42 43
f 37 43 41
f 38 44 39
f 39 44 40
f 40 45 46
f 40 46 47
f 40 47 48
f 40 44 45
f 42 49 50
f 42 50 43
f 47 51 48
f 48 51 52
f 49 53 50
f 50 53 54
f 51 55 52
f 51 56 55
f 53 57 54
f 54 57 58
f 55 56 60
f 55 60 59
f 57 61 58
f 58 61 62
f 58 62 63
f 59 60 65
f 59 65 64
f 62 66 63
f 63 66 67
f 63 67 68
f 64 65 69
f 65 70 69
f 66 71 67
f 67 72 73
f 67 73 68
f 67 71 74
f 67 74 75
f 67 75 72
f 69 70 76
f 70 77 79
f 70 79 76
f 72 75 78
f 75 79 77
f 75 77 78

