# https://github.com/mikedh/trimesh
v -35.50294936 0.00559893 18.37700129
v -35.46530218 0.00559893 18.98383142
v -35.50294936 0.48667873 18.37700129
v -29.93344640 0.00559893 18.37700129
v -35.36719126 0.00559893 19.27002472
v -35.46530218 0.48667873 18.98383142
v -35.49268379 0.85143159 18.37700129
v -29.94029108 0.00559893 18.49230066
v -23.84943102 4.79273784 18.37700129
v -23.84943102 4.79273784 18.98383142
v -23.84943102 4.79470970 19.27002472
v -30.11027547 0.00559893 19.27002472
v -35.36719126 0.48667873 19.27002472
v -35.35920822 0.84748859 19.27002472
v -35.34095381 1.45869693 19.27002472
v -35.43564094 1.45869693 18.98383142
v -35.47557065 1.45869693 18.37700129
v -29.97109358 0.00559893 18.98383142
v -23.84943102 20.14786109 18.37700129
v -30.02585391 0.00559893 19.26547994
v -29.99847230 0.00559893 19.12526686
v -23.84943102 20.14786109 19.27002472
v -35.32726445 1.83330766 19.27002472
v -35.45617787 1.82344979 18.37700129
v -35.29532069 2.43071441 19.27002472
v -35.38316314 2.43071441 18.98383142
v -29.23640150 20.14786109 18.37700129
v -29.02877283 20.14786109 19.27002472
v -35.42195159 2.43071441 18.37700129
v -35.27250413 2.83292906 19.27002472
v -35.19036509 3.85818107 19.27002472
v -35.30330663 3.40273261 18.98383142
v -35.39229035 2.79546799 18.37700129
v -29.43604713 19.85014365 18.37700129
v -29.41323057 19.81662558 18.98383142
v -29.18963001 20.14786109 18.98383142
v -29.13715221 20.14786109 19.14484792
v -29.17822028 20.02562000 19.27002472
v -35.10138138 4.73753216 19.27002472
v -35.34209507 3.40273261 18.37700129
v -35.19720977 4.37475045 18.98383142
v -29.92089831 19.11077934 18.37700129
v -29.89808175 19.07726128 18.98383142
v -30.03840200 18.77362896 19.27002472
v -34.98045390 5.65631583 19.27002472
v -35.30216537 3.76748546 18.37700129
v -35.23485695 4.37475045 18.37700129
v -35.06031041 5.36648475 18.98750142
v -35.00897387 5.94614654 18.66607960
v -30.03726074 18.92741698 18.37700129
v -30.20724513 18.59026661 18.98383142
v -30.18100478 18.54886108 19.27002472
v -34.95991696 5.78052878 19.27002472
v -35.06031041 5.67997530 18.37700129
v -34.90630080 6.28921214 18.98750142
v -34.70893770 7.29080468 18.98383142
v -34.74886451 7.29080468 18.37700129
v -34.97588885 6.18471493 18.37700129
v -35.01353603 5.96980637 18.37700129
v -30.22777916 18.62378467 18.37700129
v -30.47647880 18.20974101 18.37700129
v -30.56888630 17.97905826 18.98383142
v -30.34870664 18.26691710 19.27002472
v -34.30850808 8.71432762 19.27002472
v -34.48989930 8.26282216 18.98383142
v -34.53096737 8.26282216 18.37700129
v -30.61223690 17.97905826 18.37700129
v -30.84610592 17.57487174 18.37700129
v -30.97730186 17.26926829 18.98383142
v -31.07198899 16.97155085 19.27002472
v -34.12369307 9.53255780 19.27002472
v -34.24462055 9.23484036 18.98383142
v -34.43856276 8.62757574 18.37700129
v -30.99897716 17.30870123 18.37700129
v -31.26364868 16.82367770 18.37700129
v -31.24197049 16.78227362 18.98383142
v -31.20774709 16.72115235 19.27002472
v -34.04611908 9.81647364 19.27002472
v -34.06665312 9.88350906 18.98383142
v -34.21724184 9.47932326 18.37700129
v -34.28340899 9.23484036 18.37700129
v -31.52603768 16.31696728 18.37700129
v -31.62756949 16.03502186 18.98383142
v -31.40739272 16.33471189 19.27002472
v -33.98109029 10.02743920 19.27002472
v -33.91720566 10.36853259 18.98383142
v -34.08490463 9.94660219 18.37700129
v -33.93773970 10.43162500 18.37700129
v -33.99364128 10.24826264 18.37700129
v -31.67092298 16.03502186 18.37700129
v -31.99491698 15.38635316 18.37700129
v -31.97323878 15.34100536 18.98383142
v -32.05309819 15.03540191 19.27002472
v -33.16996549 12.43875308 19.27002472
v -33.65595503 11.17690490 18.98383142
v -33.69702600 11.17690490 18.37700129
v -32.08161817 15.20299080 18.37700129
v -32.20254565 14.85598183 18.98383142
v -32.17060188 14.78697600 19.27002472
v -33.31827168 12.14892237 18.98383142
v -33.07299583 12.70295245 19.27002472
v -33.57039510 11.54165775 18.37700129
v -32.22422094 14.89935849 18.37700129
v -32.45694870 14.37884575 18.37700129
v -32.54365279 14.09295805 18.98383142
v -32.34514842 14.39659036 19.27002472
v -33.35934265 12.14892237 18.37700129
v -33.09352986 12.75815886 18.98383142
v -32.98857427 12.91391801 19.27002472
v -32.89959055 13.24318238 18.98383142
v -32.58472086 14.09295805 18.37700129
v -32.78664901 13.61385083 18.37700129
v -33.27492108 12.37763181 18.37700129
v -33.11406390 12.80942153 18.37700129
v -32.92012458 13.29444506 18.37700129
f 1 2 6
f 1 6 3
f 1 3 7
f 1 7 17
f 1 17 24
f 1 24 29
f 1 29 33
f 1 33 40
f 1 40 46
f 1 46 47
f 1 47 54
f 1 54 59
f 1 59 58
f 1 58 57
f 1 57 66
f 1 66 73
f 1 73 81
f 1 81 80
f 1 80 87
f 1 87 89
f 1 89 88
f 1 88 96
f 1 96 102
f 1 102 107
f 1 107 113
f 1 113 114
f 1 114 115
f 1 115 112
f 1 112 111
f 1 111 104
f 1 104 103
f 1 103 97
f 1 97 91
f 1 91 90
f 1 90 82
f 1 82 75
f 1 75 74
f 1 74 68
f 1 68 67
f 1 67 61
f 1 61 60
f 1 60 50
f 1 50 42
f 1 42 34
f 1 34 27
f 1 27 19
f 1 19 9
f 1 9 4
f 1 4 8
f 1 8 18
f 1 18 21
f 1 21 20
f 1 20 12
f 1 12 5
f 1 5 2
f 2 5 13
f 2 13 6
f 3 6 7
f 4 9 10
f 4 10 11
f 4 11 8
f 5 12 11
f 5 11 22
f 5 22 28
f 5 28 38
f 5 38 44
f 5 44 52
f 5 52 63
f 5 63 70
f 5 70 77
f 5 77 84
f 5 84 93
f 5 93 99
f 5 99 106
f 5 106 109
f 5 109 101
f 5 101 94
f 5 94 85
f 5 85 78
f 5 78 71
f 5 71 64
f 5 64 53
f 5 53 45
f 5 45 39
f 5 39 31
f 5 31 30
f 5 30 25
f 5 25 23
f 5 23 15
f 5 15 14
f 5 14 13
f 6 13 14
f 6 14 15
f 6 15 16
f 6 16 17
f 6 17 7
f 8 11 18
f 9 19 22
f 9 22 11
f 9 11 10
f 11 12 20
f 11 20 21
f 11 21 18
f 15 23 16
f 16 24 17
f 16 23 25
f 16 25 26
f 16 26 24
f 19 27 36
f 19 36 37
f 19 37 28
f 19 28 22
f 24 26 29
f 25 30 26
f 26 30 31
f 26 31 32
f 26 32 33
f 26 33 29
f 27 34 35
f 27 35 36
f 28 37 38
f 31 39 32
f 32 40 33
f 32 39 41
f 32 41 40
f 34 42 43
f 34 43 35
f 35 43 44
f 35 44 36
f 36 44 37
f 37 44 38
f 39 45 41
f 40 41 46
f 41 47 46
f 41 45 48
f 41 48 49
f 41 49 47
f 42 50 51
f 42 51 43
f 43 51 44
f 44 51 52
f 45 53 49
f 45 49 48
f 47 49 54
f 49 53 55
f 49 55 56
f 49 56 57
f 49 57 58
f 49 58 59
f 49 59 54
f 50 60 51
f 51 61 62
f 51 62 63
f 51 63 52
f 51 60 61
f 53 64 56
f 53 56 55
f 56 64 65
f 56 65 66
f 56 66 57
f 61 67 62
f 62 67 68
f 62 68 69
f 62 69 63
f 63 69 70
f 64 71 65
f 65 71 72
f 65 72 66
f 66 72 73
f 68 74 69
f 69 74 75
f 69 75 76
f 69 76 70
f 70 76 77
f 71 78 72
f 72 78 79
f 72 79 80
f 72 80 81
f 72 81 73
f 75 82 76
f 76 82 83
f 76 83 84
f 76 84 77
f 78 85 86
f 78 86 79
f 79 87 80
f 79 86 88
f 79 88 89
f 79 89 87
f 82 90 83
f 83 90 91
f 83 91 92
f 83 92 84
f 84 92 93
f 85 94 95
f 85 95 86
f 86 95 96
f 86 96 88
f 91 97 92
f 92 97 98
f 92 98 99
f 92 99 93
f 94 100 95
f 94 101 100
f 95 100 102
f 95 102 96
f 97 103 98
f 98 103 104
f 98 104 105
f 98 105 106
f 98 106 99
f 100 107 102
f 100 101 108
f 100 108 107
f 101 109 110
f 101 110 108
f 104 111 105
f 105 111 112
f 105 112 110
f 105 110 109
f 105 109 106
f 107 108 113
f 108 114 113
f 108 110 115
f 108 115 114
f 110 112 115

