# https://github.com/mikedh/trimesh
v -6.81624166 25.02355610 7.38892010
v -2.66543680 25.02355610 7.38892010
v -6.81624166 25.02355610 8.77950501
v -6.81624166 34.86280596 7.38892010
v -2.66543680 25.02355610 8.29247268
v 1.07005569 27.45869746 7.38892010
v -2.66698069 25.02355610 8.77950501
v -6.81624166 34.86280596 8.77950501
v -6.47580942 34.92962196 7.38892010
v 1.07005569 27.45869746 8.29247268
v 1.07005569 35.50834053 7.38892010
v 1.07005569 27.46281064 8.66108309
v 1.07005569 27.46486723 8.77950501
v -6.47580942 34.92962196 8.77950501
v -6.44184311 34.93578883 7.38892010
v 0.48568547 35.52375916 7.38892010
v 0.48568547 35.52478746 8.77950501
v 0.97047365 35.51142542 8.77950501
v 1.07005569 35.50834053 8.77950501
v -5.99024894 35.01699516 8.77950501
v -5.99024894 35.01699516 7.38892010
v 0.00475720 35.52375916 7.38892010
v -0.48697831 35.52273087 7.38892010
v -0.00219031 35.52375916 8.77950501
v -5.34489432 35.12081529 8.77950501
v -5.39043982 35.11362012 7.38892010
v -0.97331038 35.51039712 8.77950501
v -0.48697831 35.52273087 8.77950501
v -1.45809838 35.49806048 7.38892010
v -4.86010614 35.18865668 8.77950501
v -5.34489432 35.12081529 7.38892010
v -1.45809838 35.49806048 8.77950501
v -2.43076234 35.44358113 7.38892010
v -4.37300212 35.25650097 8.77950501
v -4.37300212 35.25650097 7.38892010
v -2.43076234 35.44358113 8.77950501
v -3.40188223 35.36237479 7.38892010
v -3.40188223 35.36237479 8.77950501
f 1 2 5
f 1 5 7
f 1 7 3
f 1 3 8
f 1 8 4
f 1 4 9
f 1 9 15
f 1 15 21
f 1 21 26
f 1 26 31
f 1 31 35
f 1 35 37
f 1 37 33
f 1 33 29
f 1 29 23
f 1 23 22
f 1 22 16
f 1 16 11
f 1 11 6
f 1 6 2
f 2 6 10
f 2 10 5
f 3 7 13
f 3 13 19
f 3 19 18
f 3 18 17
f 3 17 24
f 3 24 28
f 3 28 27
f 3 27 32
f 3 32 36
f 3 36 38
f 3 38 34
f 3 34 30
f 3 30 25
f 3 25 20
f 3 20 14
f 3 14 8
f 4 8 14
f 4 14 9
f 5 10 7
f 6 11 19
f 6 19 13
f 6 13 12
f 6 12 10
f 7 10 12
f 7 12 13
f 9 14 15
f 11 16 17
f 11 17 18
f 11 18 19
f 14 20 15
f 15 20 21
f 16 22 17
f 17 22 23
f 17 23 24
f 20 25 26
f 20 26 21
f 23 27 28
f 23 28 24
f 23 29 27
f 25 30 31
f 25 31 26
f 27 29 32
f 29 33 36
f 29 36 32
f 30 34 35
f 30 35 31
f 33 37 38
f 33 38 36
f 34 38 37
f 34 37 35

