# https://github.com/mikedh/trimesh
v 0.82646095 5.88719193 87.37267776
v 0.82646095 7.12625433 86.47236648
v 1.02423755 7.27927764 86.47236648
v 0.87550953 5.93076085 87.37267776
v 0.82646095 16.69445144 87.37267776
v 0.82646095 16.74227150 86.47236648
v 7.28346786 11.67125405 87.37267776
v 6.60074377 12.33647974 86.47236648
v 1.10493009 16.67851142 87.37267776
v 0.82646095 16.72420537 86.82796244
v 1.03373081 16.73058080 86.47236648
v 7.80322458 12.14732634 87.37267776
v 7.53424871 13.20042270 86.47236648
v 8.28342599 12.58726783 87.37267776
v 1.45855455 16.65725758 87.37267776
v 1.45855455 16.70614069 86.47236648
v 8.52629548 12.85293289 87.37267776
v 7.82774869 13.56172787 86.47236648
v 2.26152722 16.56905740 87.37267776
v 2.44664601 16.59030979 86.47236648
v 2.32639797 16.57862199 87.01954971
v 8.90286214 13.35769678 87.36545073
v 8.90839973 13.35450907 87.37267776
v 7.98834301 13.86139762 86.47236648
v 2.74726622 16.49785884 87.37267776
v 2.81292810 16.50742343 87.01954971
v 2.87067880 16.52867582 86.47236648
v 8.01365934 14.09412103 86.47236648
v 8.01761465 14.51493406 86.47236648
v 8.90286214 13.77957287 87.36545073
v 8.90839973 13.77107133 87.37267776
v 3.40230201 16.37140174 87.37267776
v 2.90706976 16.52123734 86.50841183
v 2.91181639 16.52230039 86.47236648
v 7.91160614 14.68283434 86.47236648
v 8.90523519 13.78063592 87.37267776
v 4.37378036 16.13867978 87.37267776
v 3.94974739 16.29064004 86.47236648
v 3.40230201 16.39053092 87.01954971
v 3.37144882 16.42666028 86.47236648
v 7.96381890 14.70621285 87.01954971
v 8.13548911 14.58294491 87.37267776
v 7.33409907 15.00375794 86.47236648
v 4.37378036 16.18862449 86.47236648
v 5.34525834 15.84219774 87.37267776
v 5.34525834 15.89320551 86.47236648
v 4.92043460 16.02285032 86.47236648
v 7.95907281 14.69558665 87.37267776
v 6.54141043 15.44157404 86.47236648
v 7.28900544 15.06858107 87.01954971
v 5.99080088 15.61372509 87.37267776
v 6.05488030 15.63922970 86.47236648
v 6.01611612 15.62435274 87.01954971
v 7.28900544 15.04732723 87.37267776
v 6.26768774 15.55315418 86.47236648
v 6.47653951 15.41713249 87.37267776
f 1 2 3
f 1 3 4
f 1 4 7
f 1 7 12
f 1 12 14
f 1 14 17
f 1 17 23
f 1 23 31
f 1 31 36
f 1 36 42
f 1 42 48
f 1 48 54
f 1 54 56
f 1 56 51
f 1 51 45
f 1 45 37
f 1 37 32
f 1 32 25
f 1 25 19
f 1 19 15
f 1 15 9
f 1 9 5
f 1 5 10
f 1 10 6
f 1 6 2
f 2 6 11
f 2 11 16
f 2 16 20
f 2 20 27
f 2 27 34
f 2 34 40
f 2 40 38
f 2 38 44
f 2 44 47
f 2 47 46
f 2 46 52
f 2 52 55
f 2 55 49
f 2 49 43
f 2 43 35
f 2 35 29
f 2 29 28
f 2 28 24
f 2 24 18
f 2 18 13
f 2 13 8
f 2 8 3
f 3 7 4
f 3 8 7
f 5 9 10
f 6 10 11
f 7 8 12
f 8 13 14
f 8 14 12
f 9 15 16
f 9 16 10
f 10 16 11
f 13 17 14
f 13 18 17
f 15 19 16
f 16 19 21
f 16 21 20
f 17 18 22
f 17 22 23
f 18 24 22
f 19 25 26
f 19 26 27
f 19 27 21
f 20 21 27
f 22 24 28
f 22 28 29
f 22 29 30
f 22 30 31
f 22 31 23
f 25 32 26
f 26 33 27
f 26 32 33
f 27 33 34
f 29 35 30
f 30 35 36
f 30 36 31
f 32 37 38
f 32 38 39
f 32 39 40
f 32 40 34
f 32 34 33
f 35 41 42
f 35 42 36
f 35 43 41
f 37 44 38
f 37 45 46
f 37 46 47
f 37 47 44
f 38 40 39
f 41 48 42
f 41 43 49
f 41 49 50
f 41 50 48
f 45 51 46
f 46 51 53
f 46 53 52
f 48 50 54
f 49 55 56
f 49 56 50
f 50 56 54
f 51 56 53
f 52 53 55
f 53 56 55

