# https://github.com/mikedh/trimesh
v -22.07694463 -15.10996528 -0.50342282
v -0.04244172 -15.10996528 -0.50342282
v -22.07694463 -15.10996528 0.44730098
v -22.07694463 24.78104941 -0.50342282
v -0.04244172 -15.10996528 0.44730098
v -0.04244172 20.89439595 -0.50342282
v -22.07694463 25.61418842 0.44730098
v -22.07694463 25.61418842 -0.50007435
v -21.90653589 25.61418842 -0.50286668
v -21.86770834 25.61418842 -0.50342282
v -0.04244172 22.24575503 0.44730098
v -4.37384431 25.61418842 -0.50342282
v -3.40316144 25.61418842 -0.40784064
v -0.04244172 21.44052047 -0.34445712
v -2.62014385 25.61418842 0.44730098
v -0.04244172 22.14211159 0.23230624
v -2.76251055 25.61418842 -0.14062880
v -0.04244172 21.93083610 -0.20103461
f 1 2 5
f 1 5 3
f 1 3 7
f 1 7 8
f 1 8 4
f 1 4 10
f 1 10 12
f 1 12 6
f 1 6 2
f 2 6 14
f 2 14 18
f 2 18 16
f 2 16 11
f 2 11 5
f 3 5 11
f 3 11 15
f 3 15 7
f 4 8 9
f 4 9 10
f 6 12 13
f 6 13 14
f 7 15 17
f 7 17 13
f 7 13 12
f 7 12 10
f 7 10 9
f 7 9 8
f 11 16 17
f 11 17 15
f 13 17 18
f 13 18 14
f 16 18 17

