# https://github.com/mikedh/trimesh
v -24.99551058 4.92515000 14.73847973
v -20.09050772 0.00536720 14.73847973
v -24.99551058 4.92515000 15.64563280
v -24.99551058 25.24411522 14.73847973
v -10.70708651 0.00536720 14.73847973
v -20.09050772 0.00536720 15.64563280
v -24.99551058 25.24411522 15.64563280
v -24.84725363 25.38998537 15.64563280
v -24.81508683 25.41982330 14.73847973
v -10.70708651 0.00536720 15.64563280
v -10.70708651 33.87362682 14.73847973
v -24.63606214 25.59221477 15.64563280
v -24.63606214 25.59221477 14.73847973
v -10.70708651 33.87031021 15.64563280
v -11.17842575 33.72112634 14.73847973
v -11.17842575 33.72112634 15.64563280
v -10.86932827 33.82058129 15.64563280
v -24.41367816 25.80438821 15.64563280
v -24.12276339 26.07955124 14.73847973
v -11.79242498 33.50895290 14.73847973
v -12.15047509 33.38297374 15.64563280
v -24.12276339 26.07955124 15.64563280
v -23.81646331 26.35802798 14.73847973
v -12.15047509 33.38297374 14.73847973
v -12.58824629 33.22052632 14.73847973
v -12.54209178 33.23710649 15.64563280
v -23.84863156 26.32819294 15.64563280
v -23.63743862 26.51715879 15.64563280
v -23.63743862 26.51715879 14.73847973
v -12.84419614 33.12438799 14.73847973
v -12.84419614 33.12438799 15.64563280
v -23.08218110 27.00449526 15.64563280
v -23.08218110 27.00449526 14.73847973
v -13.02322083 33.05476808 14.73847973
v -13.05539053 33.04150452 15.64563280
v -22.80804926 27.23656259 15.64563280
v -22.77588101 27.26308390 14.73847973
v -13.32952236 32.93210553 15.64563280
v -13.32952236 32.93210553 14.73847973
v -22.59685632 27.41226777 15.64563280
v -22.59685632 27.41226777 14.73847973
v -13.76169877 32.75308374 15.64563280
v -13.81205047 32.72987613 14.73847973
v -21.98985095 27.89960424 15.64563280
v -21.98985095 27.89960424 14.73847973
v -14.09317470 32.61053020 14.73847973
v -14.09317470 32.61053020 15.64563280
v -21.50452472 28.27753882 15.64563280
v -21.68354941 28.13829900 14.73847973
v -14.62465544 32.37514626 14.73847973
v -14.56870895 32.39835386 15.64563280
v -21.28074458 28.44329996 14.73847973
v -21.50452472 28.27753882 14.73847973
v -21.24018341 28.47313789 15.64563280
v -14.93375219 32.23590933 15.09619021
v -14.93235313 32.23590933 15.64563280
v -14.93375219 32.23590933 14.73847973
v -20.69751454 28.87096346 14.73847973
v -20.66115056 28.89748478 15.64563280
v -15.14354753 32.13976811 15.64563280
v -15.41907842 32.01047523 14.73847973
v -20.35485047 29.11960517 14.73847973
v -20.35485047 29.11960517 15.64563280
v -15.41907842 32.01047523 15.64563280
v -15.81069512 31.81487616 14.73847973
v -20.08071719 29.30525729 15.64563280
v -19.86952425 29.44781083 14.73847973
v -15.76873634 31.83476715 15.64563280
v -16.03727338 31.69884395 15.64563280
v -16.03727338 31.69884395 14.73847973
v -19.86952425 29.44781083 15.64563280
v -19.54923791 29.65998427 15.64563280
v -19.13104630 29.93515019 14.73847973
v -16.55196973 31.43362786 14.73847973
v -16.85127597 31.27781077 15.64563280
v -19.13104630 29.93515019 15.64563280
v -18.85691447 30.10753876 15.64563280
v -18.64572153 30.24014825 14.73847973
v -16.85127597 31.27781077 14.73847973
v -17.33660219 31.01259469 15.64563280
v -18.64572153 30.24014825 15.64563280
v -17.97997300 30.63797382 14.73847973
v -17.33660219 31.01259469 14.73847973
v -17.74360421 30.77721364 14.73847973
v -17.70164543 30.80041835 15.64563280
v -17.97997300 30.63797382 15.64563280
f 1 2 6
f 1 6 3
f 1 3 7
f 1 7 4
f 1 4 9
f 1 9 13
f 1 13 19
f 1 19 23
f 1 23 29
f 1 29 33
f 1 33 37
f 1 37 41
f 1 41 45
f 1 45 49
f 1 49 53
f 1 53 52
f 1 52 58
f 1 58 62
f 1 62 67
f 1 67 73
f 1 73 78
f 1 78 82
f 1 82 84
f 1 84 83
f 1 83 79
f 1 79 74
f 1 74 70
f 1 70 65
f 1 65 61
f 1 61 57
f 1 57 50
f 1 50 46
f 1 46 43
f 1 43 39
f 1 39 34
f 1 34 30
f 1 30 25
f 1 25 24
f 1 24 20
f 1 20 15
f 1 15 11
f 1 11 5
f 1 5 2
f 2 5 10
f 2 10 6
f 3 6 10
f 3 10 14
f 3 14 17
f 3 17 16
f 3 16 21
f 3 21 26
f 3 26 31
f 3 31 35
f 3 35 38
f 3 38 42
f 3 42 47
f 3 47 51
f 3 51 56
f 3 56 60
f 3 60 64
f 3 64 68
f 3 68 69
f 3 69 75
f 3 75 80
f 3 80 85
f 3 85 86
f 3 86 81
f 3 81 77
f 3 77 76
f 3 76 72
f 3 72 71
f 3 71 66
f 3 66 63
f 3 63 59
f 3 59 54
f 3 54 48
f 3 48 44
f 3 44 40
f 3 40 36
f 3 36 32
f 3 32 28
f 3 28 27
f 3 27 22
f 3 22 18
f 3 18 12
f 3 12 8
f 3 8 7
f 4 7 8
f 4 8 9
f 5 11 14
f 5 14 10
f 8 12 13
f 8 13 9
f 11 15 16
f 11 16 17
f 11 17 14
f 12 18 13
f 13 18 19
f 15 20 16
f 16 20 21
f 18 22 19
f 19 22 23
f 20 24 21
f 21 24 25
f 21 25 26
f 22 27 23
f 23 27 28
f 23 28 29
f 25 30 31
f 25 31 26
f 28 32 33
f 28 33 29
f 30 34 31
f 31 34 35
f 32 36 33
f 33 36 37
f 34 38 35
f 34 39 38
f 36 40 41
f 36 41 37
f 38 39 42
f 39 43 42
f 40 44 45
f 40 45 41
f 42 43 46
f 42 46 47
f 44 48 49
f 44 49 45
f 46 50 47
f 47 50 51
f 48 52 53
f 48 53 49
f 48 54 52
f 50 55 56
f 50 56 51
f 50 57 55
f 52 54 58
f 54 59 58
f 55 57 60
f 55 60 56
f 57 61 60
f 58 59 62
f 59 63 62
f 60 61 64
f 61 65 64
f 62 63 66
f 62 66 67
f 64 65 68
f 65 69 68
f 65 70 69
f 66 71 67
f 67 71 72
f 67 72 73
f 69 70 74
f 69 74 75
f 72 76 73
f 73 76 77
f 73 77 78
f 74 79 75
f 75 79 83
f 75 83 80
f 77 81 78
f 78 81 86
f 78 86 82
f 80 83 84
f 80 84 85
f 82 86 84
f 84 86 85

