# https://github.com/mikedh/trimesh
v 14.24401412 1.89762968 17.46503117
v 18.14303029 1.89162791 15.64563859
v 14.24401412 1.89762968 18.37699839
v 14.24401412 32.54633853 17.46503117
v 20.43000449 1.89162791 15.64563859
v 18.14303029 1.89162791 16.55733933
v 18.14303029 30.54189922 15.64563859
v 20.42895157 1.89762968 18.37699839
v 14.24401412 32.51933348 18.37699839
v 14.24401412 32.54333765 18.01178280
v 14.93263279 32.23727074 18.01178280
v 14.93263279 32.23727074 17.46503117
v 16.92794345 31.23205020 16.55760582
v 20.43000449 1.89162791 16.06699908
v 24.98921205 4.92529193 15.64563859
v 24.99974121 4.92529193 16.55760582
v 20.42895157 1.89162791 16.55733933
v 17.33753504 31.01300311 16.55760582
v 17.70079831 30.80295578 17.46503117
v 17.98193124 30.63791879 17.46503117
v 18.35677659 30.41587082 17.46503117
v 18.64738576 30.24183408 17.46503117
v 18.64843868 30.23883320 15.64563859
v 24.99974121 4.92529193 17.03965888
v 24.99974121 4.92829281 17.46503117
v 24.99236935 4.93129370 18.01178280
v 24.99236935 4.94029490 18.37699839
v 14.90630845 32.22527010 18.37699839
v 14.24401412 32.52533524 18.31203043
v 15.41908870 32.00922100 18.01178280
v 15.14532473 32.13825029 17.46503117
v 15.41908870 32.00922100 17.46503117
v 16.03821491 31.70015321 17.46503117
v 16.49518772 31.46310082 17.46503117
v 16.85213205 31.27706055 17.46503117
v 24.98921205 25.24574022 15.64563859
v 24.99974121 25.23673757 16.55760582
v 17.06482544 31.16303568 17.46503117
v 17.33753504 31.01300311 18.01178280
v 17.98193124 30.63791879 18.01178280
v 18.64738576 30.24183408 18.01178280
v 18.86007915 30.10680303 17.46503117
v 19.13384167 29.93276629 15.64563859
v 24.99974121 25.23673757 17.46503117
v 24.99236935 25.21273340 18.37699839
v 15.39171288 31.99721747 18.37699839
v 16.03821491 31.70015321 18.01178280
v 16.85213205 31.27706055 18.01178280
v 24.63542647 25.59081571 15.64563859
v 24.84811841 25.38677014 17.46503117
v 24.99236935 25.24574022 17.46503117
v 17.01112527 31.16603657 18.37699839
v 17.31437088 31.00099958 18.37699839
v 17.98193124 30.61391462 18.37699839
v 18.62738036 30.22683256 18.37699839
v 18.80953773 30.11280479 18.37699839
v 19.11383626 29.92076565 18.37699839
v 19.13384167 29.93276629 18.01178280
v 19.54869783 29.65970620 17.46503117
v 19.87089593 29.44666088 15.64563859
v 24.99236935 25.24574022 18.01178280
v 24.99236935 25.22173605 18.28903718
v 24.61963128 25.57581129 18.37699839
v 16.03821491 31.67314816 18.37699839
v 16.82791498 31.26505702 18.37699839
v 24.34481585 25.86687668 15.64563859
v 24.63647794 25.59081571 17.46503117
v 24.63647794 25.59081571 18.01178280
v 19.57396781 29.61769673 18.37699839
v 19.86984301 29.44666088 18.01178280
v 19.87089593 29.44666088 17.46503117
v 20.35629891 29.11958779 17.46503117
v 20.35735183 29.11658690 15.64563859
v 24.42589183 25.75885358 18.37699839
v 24.12264622 26.07692402 15.64563859
v 24.12264622 26.07692402 17.46503117
v 24.12159330 26.07692402 18.01178280
v 19.84983761 29.43465734 18.37699839
v 20.35629891 29.11958779 18.01178280
v 20.89645353 28.72650106 15.64563859
v 24.10474520 26.06191960 18.37699839
v 23.63513740 26.51201731 15.64563859
v 23.63619032 26.51801908 17.46503117
v 23.84888226 26.32597704 17.46503117
v 23.63619032 26.51801908 18.01178280
v 23.80150103 26.33797768 18.37699839
v 20.33524059 29.10458337 18.37699839
v 20.89540207 28.69649513 18.37699839
v 20.89540207 28.72650106 18.01178280
v 20.89645353 28.72650106 16.55733933
v 21.23760557 28.47444716 17.46503117
v 21.50399768 28.27640335 15.64563859
v 23.08234634 27.00112361 15.64563859
v 23.08129343 27.00412449 17.46503117
v 23.61934366 26.50301466 18.37699839
v 23.08129343 27.00412449 18.01178280
v 21.48504519 28.26439982 18.37699839
v 21.50399768 28.27640335 18.01178280
v 21.71669106 28.11136637 17.46503117
v 21.98940066 27.89832104 17.46503117
v 21.98940066 27.89532016 15.64563859
v 22.59589044 27.40921475 15.64563859
v 22.59694336 27.41221273 17.46503117
v 23.06339385 26.98912297 18.37699839
v 22.59589044 27.41221273 18.01178280
v 22.76014824 27.24417776 18.37699839
v 21.97150109 27.88331663 18.37699839
v 21.98940066 27.89832104 18.01178280
v 22.25368693 27.68527572 15.64563859
v 22.33160417 27.62526095 17.46503117
v 22.35055666 27.58025060 18.37699839
v 22.57799087 27.39721121 18.37699839
f 1 2 6
f 1 6 3
f 1 3 9
f 1 9 29
f 1 29 10
f 1 10 4
f 1 4 7
f 1 7 2
f 2 5 14
f 2 14 17
f 2 17 6
f 2 7 23
f 2 23 43
f 2 43 60
f 2 60 73
f 2 73 80
f 2 80 92
f 2 92 101
f 2 101 109
f 2 109 102
f 2 102 93
f 2 93 82
f 2 82 75
f 2 75 66
f 2 66 49
f 2 49 36
f 2 36 15
f 2 15 5
f 3 6 17
f 3 17 8
f 3 8 27
f 3 27 45
f 3 45 63
f 3 63 74
f 3 74 81
f 3 81 86
f 3 86 95
f 3 95 104
f 3 104 106
f 3 106 112
f 3 112 111
f 3 111 107
f 3 107 97
f 3 97 88
f 3 88 87
f 3 87 78
f 3 78 69
f 3 69 57
f 3 57 56
f 3 56 55
f 3 55 54
f 3 54 53
f 3 53 52
f 3 52 65
f 3 65 64
f 3 64 46
f 3 46 28
f 3 28 9
f 4 10 11
f 4 11 12
f 4 12 13
f 4 13 7
f 5 15 16
f 5 16 24
f 5 24 14
f 7 13 18
f 7 18 19
f 7 19 20
f 7 20 21
f 7 21 22
f 7 22 23
f 8 17 24
f 8 24 25
f 8 25 26
f 8 26 27
f 9 28 29
f 10 29 11
f 11 29 28
f 11 28 30
f 11 30 31
f 11 31 12
f 12 31 13
f 13 31 32
f 13 32 33
f 13 33 34
f 13 34 35
f 13 35 18
f 14 24 17
f 15 36 37
f 15 37 16
f 16 37 44
f 16 44 25
f 16 25 24
f 18 38 39
f 18 39 19
f 18 35 38
f 19 40 20
f 19 39 40
f 20 40 21
f 21 41 22
f 21 40 41
f 22 42 43
f 22 43 23
f 22 41 42
f 25 44 45
f 25 45 27
f 25 27 26
f 28 46 30
f 30 46 47
f 30 47 33
f 30 33 32
f 30 32 31
f 33 47 34
f 34 47 48
f 34 48 35
f 35 48 38
f 36 49 50
f 36 50 51
f 36 51 37
f 37 51 61
f 37 61 44
f 38 48 39
f 39 48 52
f 39 52 53
f 39 53 54
f 39 54 40
f 40 54 41
f 41 54 55
f 41 55 56
f 41 56 57
f 41 57 58
f 41 58 42
f 42 58 43
f 43 59 60
f 43 58 59
f 44 61 62
f 44 62 45
f 45 62 63
f 46 64 47
f 47 64 65
f 47 65 48
f 48 65 52
f 49 66 67
f 49 67 50
f 50 61 51
f 50 67 68
f 50 68 61
f 57 69 58
f 58 69 70
f 58 70 59
f 59 70 71
f 59 71 60
f 60 72 73
f 60 71 79
f 60 79 72
f 61 68 63
f 61 63 62
f 63 68 74
f 66 68 67
f 66 75 76
f 66 76 68
f 68 76 77
f 68 77 74
f 69 78 70
f 70 78 79
f 70 79 71
f 72 79 90
f 72 90 80
f 72 80 73
f 74 77 81
f 75 82 83
f 75 83 84
f 75 84 76
f 76 84 77
f 77 84 85
f 77 85 86
f 77 86 81
f 78 87 79
f 79 87 88
f 79 88 89
f 79 89 90
f 80 91 92
f 80 90 91
f 82 93 83
f 83 93 94
f 83 94 96
f 83 96 85
f 83 85 84
f 85 95 86
f 85 96 95
f 88 97 89
f 89 97 98
f 89 98 91
f 89 91 90
f 91 98 92
f 92 99 100
f 92 100 101
f 92 98 99
f 93 102 103
f 93 103 94
f 94 103 96
f 95 96 104
f 96 103 105
f 96 105 106
f 96 106 104
f 97 107 108
f 97 108 98
f 98 108 99
f 99 108 100
f 100 109 101
f 100 108 110
f 100 110 109
f 102 109 103
f 103 109 110
f 103 110 105
f 105 110 108
f 105 108 111
f 105 111 112
f 105 112 106
f 107 111 108

