# https://github.com/mikedh/trimesh
v 0.47931367 35.52419076 6.37172210
v 1.45299624 35.49637465 6.37172210
v 1.48777062 35.49637465 5.35160432
v 0.51408805 35.51723601 5.35160432
v -0.48045913 35.51723601 5.35160432
v -0.50827863 35.51723601 6.37172210
v 2.42667881 35.44073666 6.37172210
v 2.46145310 35.44073666 5.35160432
v -1.45414171 35.49637465 5.35160432
v -1.47500632 35.49637465 6.37172210
v 3.37254193 35.36423442 6.37172210
v 3.42818065 35.35727967 5.35160432
v -2.42782428 35.44073666 5.35160432
v -2.44868889 35.44073666 6.37172210
v 4.34622423 35.25991607 6.37172210
v 4.40186331 35.25296132 5.35160432
v -3.37368740 35.36423442 5.35160432
v -3.42237137 35.35727967 6.37172210
v 5.34077150 35.12082398 6.37172210
v 5.34077150 35.12082398 5.35160432
v -4.34736970 35.25991607 5.35160432
v -4.39605403 35.25296132 6.37172210
v 5.98757478 35.01650274 6.37172210
v 5.98757478 35.01650274 5.35160432
v -5.34191697 35.12082398 5.35160432
v -5.34191697 35.12082398 6.37172210
v 6.47441630 34.92609389 6.37172210
v 6.49528054 34.92609389 5.35160432
v -5.98872025 35.01650274 5.35160432
v -5.98872025 35.01650274 6.37172210
v 7.26727221 34.77309230 6.37172210
v 7.28813646 34.76613755 5.35160432
v -6.47556176 34.92609389 5.35160432
v -6.48947126 34.92609389 6.37172210
v 8.23399976 34.55749796 6.37172210
v 8.28963848 34.54358847 5.35160432
v -7.26841768 34.77309230 5.35160432
v -7.28928193 34.76613755 6.37172210
v 9.20768206 34.30712988 6.37172210
v 9.25636603 34.29322038 5.35160432
v -8.23514523 34.55749796 5.35160432
v -8.25600948 34.55054322 6.37172210
v 9.99358323 34.09153555 6.37172210
v 9.97967301 34.09153555 5.35160432
v -9.22969250 34.30017513 5.35160432
v -9.22969250 34.30017513 6.37172210
v -8.28382920 34.54358847 6.37172210
v 10.46651488 33.94548870 6.37172210
v 10.45260466 33.95244345 5.35160432
v -9.95995423 34.09849030 5.35160432
v -9.98081848 34.09153555 6.37172210
v 11.17591163 33.72293962 6.37172210
v 11.17591163 33.72293962 5.35160432
v -10.46766035 33.94548870 5.35160432
v -10.48156985 33.94548870 6.37172210
v 12.14263991 33.38216269 6.37172210
v 12.17045891 33.37520794 5.35160432
v -11.15619285 33.72989437 5.35160432
v -11.17705710 33.72293962 6.37172210
v 12.83812644 33.12484276 6.37172210
v 12.83812644 33.12484276 5.35160432
v -11.17705710 33.72293962 5.35160432
v -11.19792208 33.71598487 6.37172210
v 13.32496904 32.93011267 6.37172210
v 13.31105809 32.93706742 5.35160432
v -12.11596566 33.39607219 5.35160432
v -12.16464963 33.37520794 6.37172210
v 14.09000451 32.61019709 6.37172210
v 14.09000451 32.61019709 5.35160432
v -12.83927191 33.12484276 5.35160432
v -12.83927191 33.12484276 6.37172210
v 14.93154512 32.23464641 6.37172210
v 14.93154512 32.23464641 5.35160432
v -13.31915831 32.93011267 5.35160432
v -13.31220356 32.93706742 6.37172210
v 15.41838627 32.00514548 6.37172210
v 15.40447677 32.01210023 5.35160432
v -14.09114998 32.61019709 5.35160432
v -14.11201422 32.60324234 6.37172210
v 16.03041436 31.69913940 6.37172210
v 16.05823480 31.68522990 5.35160432
v -14.90487014 32.24855591 5.35160432
v -14.93269059 32.23464641 6.37172210
v 16.85804547 31.26795362 6.37172210
v 16.84413597 31.27490837 5.35160432
v -15.41257699 32.00514548 5.35160432
v -15.40562224 32.01210023 6.37172210
v 17.33097712 31.01063079 6.37172210
v 17.33097712 31.01063079 5.35160432
v -16.01765033 31.70609415 5.35160432
v -16.03155983 31.69913940 6.37172210
v 17.97778040 30.63508012 6.37172210
v 17.99168990 30.62812537 5.35160432
v -16.03155983 31.69913940 5.35160432
v -16.82441574 31.28881787 5.35160432
v -16.84528144 31.27490837 6.37172210
v 18.64544794 30.23866519 6.37172210
v 18.64544794 30.23866519 5.35160432
v -17.33212259 31.01063079 5.35160432
v -17.34603209 31.00367604 6.37172210
v 19.13228909 29.93266201 6.37172210
v 19.13228909 29.93266201 5.35160432
v -17.97892587 30.63508012 5.35160432
v -17.99283537 30.62812537 6.37172210
v 19.84864131 29.45974774 6.37172210
v 19.86950556 29.44583824 5.35160432
v -18.64659340 30.23866519 5.35160432
v -18.64659340 30.23866519 6.37172210
v 19.86950556 29.44583824 6.37172210
v 20.35634671 29.11897081 5.35160432
v -19.12647981 29.93266201 5.35160432
v -19.11952506 29.93961676 6.37172210
v 20.35634671 29.11897081 6.37172210
v 20.89187255 28.72951064 5.35160432
v -19.88456053 29.43888349 5.35160432
v -19.87065103 29.44583824 6.37172210
v 20.89187255 28.72951064 6.37172210
v 21.48999259 28.29136721 6.37172210
v 21.50390209 28.27745772 5.35160432
v -20.35053743 29.11897081 5.35160432
v -20.34358268 29.12592266 6.37172210
v 21.51781159 28.27050297 6.37172210
v 21.97683374 27.90886179 5.35160432
v -20.89301802 28.72951064 5.35160432
v -20.89301802 28.72951064 6.37172210
v 21.99074324 27.89495229 6.37172210
v 22.58190708 27.42203802 6.37172210
v 22.59581658 27.40812852 5.35160432
v -21.50504756 28.27745772 5.35160432
v -21.50504756 28.27745772 6.37172210
v 23.08265773 27.00475885 6.37172210
v 23.08265773 27.00475885 6.34865063
v 23.09656867 26.99084935 5.35160432
v -21.99188871 27.89495229 5.35160432
v -22.00579821 27.88799754 6.37172210
v 23.62513832 26.52488983 6.37172210
v 23.63209307 26.51793508 5.35160432
v -22.61087299 27.39421902 5.35160432
v -22.59000730 27.40812852 6.37172210
v 24.11893422 26.07979166 6.37172210
v 24.11893422 26.07979166 5.35160432
v -23.07684845 27.00475885 5.35160432
v -23.06989370 27.01171360 6.37172210
v 24.61968632 25.60687738 6.37172210
v 24.63359582 25.59296789 5.35160432
v -23.65410424 26.50402558 5.35160432
v -23.63323854 26.51793508 6.37172210
v 25.10652747 25.13396022 5.35160432
v 25.12043697 25.12005072 6.37172210
v -24.12007969 26.07979166 5.35160432
v -24.12007969 26.07979166 6.37172210
v 25.13434646 25.10614412 5.35160432
v 25.60727811 24.61931745 6.37172210
v -24.62083179 25.60687738 5.35160432
v -24.63474128 25.59296789 6.37172210
v 25.59336862 24.63322695 5.35160432
v 26.08020977 24.11858418 6.37172210
v 26.08716452 24.11162943 5.35160432
v -25.12158243 25.12005072 6.37172210
v -25.12158243 25.12005072 5.35160432
v 26.53227717 23.62480421 6.37172210
v 26.51836767 23.63871371 5.35160432
v -25.59451409 24.63322695 6.37172210
v -25.59451409 24.63322695 5.35160432
v 27.00520882 23.08234245 5.35160432
v 27.00520882 23.08234245 6.37172210
v -26.08830998 24.11162943 6.37172210
v -26.08135523 24.11858418 5.35160432
v 27.42249958 22.58160918 6.37172210
v 27.40859008 22.59551868 5.35160432
v -26.51951314 23.63871371 5.35160432
v -26.51951314 23.63871371 6.37172210
v 27.89543123 21.99046417 6.37172210
v 27.88847648 22.00437367 5.35160432
v -27.00635429 23.08234245 5.35160432
v -27.00635429 23.08234245 6.37172210
v 28.27099639 21.51754845 6.37172210
v 28.27795114 21.50363895 5.35160432
v -27.40278080 22.60942673 5.35160432
v -27.40973555 22.59551868 6.37172210
v 28.73697329 20.87772164 6.37172210
v 29.12644505 20.34221462 5.35160432
v 28.71610614 20.90554064 5.35160432
v -27.43059980 22.57465443 5.35160432
v -27.88962195 22.00437367 6.37172210
v 29.11949030 20.34916937 6.37172210
v 29.44636932 19.86929890 6.37172210
v 29.44636932 19.86929890 5.35160432
v -27.89657670 21.99046417 5.35160432
v -28.27909661 21.50363895 5.35160432
v -28.27909661 21.50363895 6.37172210
v 29.46027882 19.84843610 6.37172210
v 29.93321047 19.13210705 5.35160432
v -28.73811876 20.87772164 5.35160432
v -28.71725161 20.90554064 6.37172210
v 29.93321047 19.13210705 6.37172210
v 30.23922524 18.64528328 5.35160432
v -29.11368102 20.34916937 5.35160432
v -29.12759052 20.34221462 6.37172210
v 30.23922524 18.64528328 6.37172210
v 30.62869700 17.99154697 5.35160432
v -29.44751479 19.86929890 5.35160432
v -29.44751479 19.86929890 6.37172210
v 30.63565175 17.97763747 6.37172210
v 31.00426216 17.34476541 5.35160432
v -29.93435594 19.13210705 5.35160432
v -29.93435594 19.13210705 6.37172210
v 31.01121690 17.33085591 6.37172210
v 31.26854553 16.85794019 6.37172210
v 31.27550028 16.84403214 5.35160432
v -30.23341596 18.65919278 5.35160432
v -30.24037070 18.64528328 6.37172210
v 31.70670343 16.01643000 6.37172210
v 31.68583919 16.05120229 5.35160432
v -30.25428020 18.62441903 5.35160432
v -30.62984247 17.99154697 6.37172210
v 32.00576345 15.41137549 6.37172210
v 32.01271820 15.39746599 5.35160432
v -30.65070961 17.95677322 5.35160432
v -31.01236237 17.33085591 6.37172210
v 32.23527308 14.92455172 6.37172210
v 32.23527308 14.92455172 5.35160432
v -31.01236237 17.33085591 5.35160432
v -31.26969100 16.85794019 5.35160432
v -31.27664575 16.84403214 6.37172210
v 32.61083824 14.08999482 6.37172210
v 32.61083824 14.08999482 5.35160432
v -31.70784890 16.00947525 5.35160432
v -31.68698465 16.05120229 6.37172210
v 32.93076251 13.32498397 6.37172210
v 32.92380776 13.34584822 5.35160432
v -32.00690892 15.41137549 5.35160432
v -32.01386367 15.39746599 6.37172210
v 33.13245314 12.82425070 6.37172210
v 32.93771726 13.31107447 5.35160432
v -32.23641855 14.92455172 5.35160432
v -32.23641855 14.92455172 6.37172210
v 33.38282991 12.14269539 6.37172210
v 33.37587516 12.16355964 5.35160432
v 33.12549839 12.83815875 5.35160432
v -32.61893846 14.06913057 5.35160432
v -32.59807421 14.11085762 6.37172210
v 33.71666367 11.17600043 6.37172210
v 33.70970892 11.19686468 5.35160432
v -32.93190798 13.32498397 5.35160432
v -32.93190798 13.32498397 6.37172210
v 33.72361842 11.15513691 6.37172210
v 33.71666367 11.17600043 5.35160432
v -33.12664386 12.83815875 5.35160432
v -33.12664386 12.83815875 6.37172210
v 33.94617330 10.46662757 6.37172210
v 33.95312805 10.45271808 5.35160432
v -33.38397538 12.14269539 5.35160432
v -33.37702063 12.16355964 6.37172210
v 34.09222594 9.99371186 6.37172210
v 34.09918069 9.97284833 5.35160432
v -33.71780914 11.17600043 5.35160432
v -33.71085439 11.19686468 6.37172210
v 34.30782607 9.20783748 6.37172210
v 34.30087132 9.24956525 5.35160432
v -33.72476389 11.15513691 5.35160432
v -33.71780914 11.17600043 6.37172210
v 34.55124809 8.25505202 6.37172210
v 34.54429334 8.28287101 5.35160432
v -33.94731877 10.46662757 5.35160432
v -33.94731877 10.46662757 6.37172210
v 34.55124809 8.25505202 5.35160432
v 34.77380297 7.26749353 6.37172210
v -34.09337141 9.99371186 5.35160432
v -34.09337141 9.97980236 6.37172210
v 34.76684822 7.28835705 5.35160432
v 34.92681035 6.48161915 6.37172210
v 34.93376510 6.46770966 5.35160432
v 34.92681035 6.50248340 5.35160432
v -34.30897153 9.20783748 5.35160432
v -34.30201679 9.24956525 6.37172210
v 35.01722499 6.00870380 6.37172210
v 35.01722499 5.99479430 5.35160432
v -34.55239356 8.25505202 5.35160432
v -34.54543881 8.28287101 6.37172210
v 35.12154623 5.34105835 6.37172210
v 35.12154623 5.34105835 5.35160432
v -34.55934831 8.22723374 5.35160432
v -34.55239356 8.25505202 6.37172210
v 35.25368937 4.36740900 6.37172210
v 35.25368937 4.36740900 5.35160432
v -34.77494844 7.26749353 5.35160432
v -34.76799369 7.28835705 6.37172210
v 35.36496825 3.40071404 6.37172210
v 35.36496825 3.40071404 5.35160432
v -34.92795582 6.48161915 5.35160432
v -34.92795582 6.50248340 6.37172210
v 35.44147050 2.42706451 6.37172210
v 35.44147050 2.45488314 5.35160432
v -35.01837046 5.99479430 5.35160432
v -35.01837046 5.99479430 6.37172210
v 35.49015664 1.45341507 6.37172210
v 35.49015664 1.48123361 5.35160432
v -35.12269170 5.34105835 5.35160432
v -35.12269170 5.34105835 6.37172210
v 35.51797564 0.47976562 6.37172210
v 35.52493039 0.47976562 5.37677002
v 35.52493039 0.47976562 5.35160432
v -35.25483484 4.36740900 5.35160432
v -35.25483484 4.36740900 6.37172210
v 35.51797564 -0.50779314 6.37172210
v 35.52493039 0.47281096 5.35160432
v -35.36611372 3.37289540 5.35160432
v -35.35915897 3.42157792 6.37172210
v 35.51797564 -0.48692920 5.35160432
v 35.49015664 -1.47448801 6.37172210
v 35.49015664 -1.46057869 5.35160432
v -35.44261597 2.44792857 6.37172210
v -35.44261597 2.42706451 5.35160432
v 35.44147050 -2.44813754 6.37172210
v 35.44147050 -2.43422822 5.35160432
v -35.49130211 1.47427904 6.37172210
v -35.49130211 1.45341507 5.35160432
v 35.35801351 -3.42178689 6.37172210
v 35.36496825 -3.37310437 5.35160432
v -35.52607586 0.47976562 6.37172210
v -35.51912111 0.47976562 5.35160432
v 35.25368937 -4.36761797 6.37172210
v 35.25368937 -4.37457235 5.35160432
v -35.51912111 -0.51474779 5.35160432
v -35.51912111 -0.47997459 6.37172210
v 35.12154623 -5.34126732 6.37172210
v 35.12154623 -5.34126732 5.35160432
v -35.49130211 -1.48839724 5.35160432
v -35.49130211 -1.45362403 6.37172210
v 35.01722499 -5.99500326 6.37172210
v 35.01722499 -6.00891276 5.35160432
v -35.44261597 -2.45509211 5.35160432
v -35.44261597 -2.42727347 6.37172210
v 34.93376510 -6.46791862 6.37172210
v 34.92681035 -6.48878287 5.35160432
v -35.36611372 -3.37310437 6.37172210
v -35.35915897 -3.42874164 5.35160432
v 34.92681035 -6.50269237 6.37172210
v 34.77380297 -7.26770249 5.35160432
v -35.25483484 -4.36761797 5.35160432
v -35.25483484 -4.36761797 6.37172210
v 34.76684822 -7.28856602 6.37172210
v 34.55820284 -8.23439746 5.35160432
v -35.12269170 -5.34126732 5.35160432
v -35.12269170 -5.34126732 6.37172210
v 34.55124809 -8.25526098 6.37172210
v 34.54429334 -8.28307998 6.37172210
v 34.30087132 -9.24977422 6.37172210
v 34.30087132 -9.23586544 5.35160432
v -35.01837046 -5.99500326 5.35160432
v -35.01837046 -5.99500326 6.37172210
v 34.09222594 -9.98001132 6.37172210
v 34.09222594 -9.99392082 5.35160432
v -34.92795582 -6.50269237 5.35160432
v -34.92795582 -6.48182812 6.37172210
v 33.95312805 -10.45988179 6.37172210
v 33.94617330 -10.47379129 5.35160432
v -34.77494844 -7.26770249 6.37172210
v -34.76799369 -7.28856602 5.35160432
v 33.71666367 -11.17620940 6.37172210
v 33.71666367 -11.18316415 5.35160432
v -34.55239356 -8.25526098 6.37172210
v -34.55239356 -8.25526098 5.35160432
v 33.70970892 -11.19707364 6.37172210
v 33.38282991 -12.14985911 5.35160432
v -34.54543881 -8.28307998 5.35160432
v -34.30201679 -9.24977422 5.35160432
v -34.30897153 -9.20804645 6.37172210
v 33.37587516 -12.16376861 6.37172210
v 33.12549839 -12.83836772 6.37172210
v 33.12549839 -12.83836772 5.35160432
v -34.09337141 -9.99392082 6.37172210
v -34.09337141 -9.98001132 5.35160432
v 32.93771726 -13.31128344 6.37172210
v 32.93076251 -13.33214768 5.35160432
v -33.95427352 -10.45292704 5.35160432
v -33.94731877 -10.46683654 6.37172210
v 32.92380776 -13.34605718 6.37172210
v 32.61083824 -14.09020378 6.37172210
v 32.61083824 -14.09020378 5.35160432
v -33.71085439 -11.20402839 5.35160432
v -33.72476389 -11.15534587 6.37172210
v 32.23527308 -14.92476068 6.37172210
v 32.23527308 -14.92476068 5.35160432
v -33.37702063 -12.16376861 5.35160432
v -33.38397538 -12.14290436 6.37172210
v -33.71780914 -11.17620940 6.37172210
v 32.01271820 -15.39767495 6.37172210
v 32.00576345 -15.41158445 5.35160432
v -33.12664386 -12.83836772 5.35160432
v -33.13359861 -12.82445967 6.37172210
v 31.68583919 -16.05141126 6.37172210
v 31.70670343 -16.01663896 5.35160432
v -32.93886272 -13.31128344 5.35160432
v -32.92495323 -13.34605718 5.35160432
v -32.93190798 -13.32519293 6.37172210
v 31.27550028 -16.84424111 6.37172210
v 31.26854553 -16.85814916 5.35160432
v -32.61893846 -14.06933954 6.37172210
v -32.59807421 -14.11802133 5.35160432
v 31.00426216 -17.34497438 6.37172210
v 31.01121690 -17.33106488 5.35160432
v -32.23641855 -14.92476068 6.37172210
v -32.23641855 -14.92476068 5.35160432
v 30.62869700 -17.99175594 6.37172210
v 30.64956414 -17.96393694 5.35160432
v -32.01386367 -15.39767495 5.35160432
v -32.00690892 -15.41158445 6.37172210
v 30.23922524 -18.64549224 6.37172210
v 30.23922524 -18.64549224 5.35160432
v -31.68698465 -16.05141126 5.35160432
v -31.69393940 -16.03054701 6.37172210
v 29.93321047 -19.13231601 6.37172210
v 29.93321047 -19.13231601 5.35160432
v -31.27664575 -16.84424111 5.35160432
v -31.26969100 -16.85814916 6.37172210
v 29.44636932 -19.86950787 6.37172210
v 29.46027882 -19.84864507 5.35160432
v -31.01236237 -17.33106488 5.35160432
v -31.01236237 -17.33106488 6.37172210
v 29.12644505 -20.34242359 6.37172210
v 29.44636932 -19.86950787 5.35160432
v -30.63679722 -17.97784644 5.35160432
v -30.63679722 -17.97784644 6.37172210
v 28.71610614 -20.90574960 6.37172210
v 28.29186064 -21.48993986 5.35160432
v 28.73697329 -20.87793060 5.35160432
v 29.11949030 -20.34937834 5.35160432
v -30.24037070 -18.64549224 5.35160432
v -30.24037070 -18.64549224 6.37172210
v 28.27795114 -21.50384791 6.37172210
v 27.88847648 -22.00458263 6.37172210
v 27.89543123 -21.99067313 5.35160432
v -29.93435594 -19.13231601 5.35160432
v -29.93435594 -19.13231601 6.37172210
v 27.40859008 -22.59572764 6.37172210
v 27.40163533 -22.60963569 5.35160432
v -29.44751479 -19.86950787 5.35160432
v -29.44751479 -19.86950787 6.37172210
v 27.00520882 -23.08255141 6.37172210
v 27.00520882 -23.08255141 5.35160432
v -29.12759052 -20.34242359 5.35160432
v -29.11368102 -20.34937834 6.37172210
v 26.51836767 -23.63892268 6.37172210
v 26.53227717 -23.62501318 5.35160432
v -28.73811876 -20.87793060 6.37172210
v -28.27909661 -21.50384791 5.35160432
v 26.08020977 -24.12574790 6.37172210
v 26.08020977 -24.12574790 6.34865063
v 26.08020977 -24.11879315 5.35160432
v -28.27909661 -21.50384791 6.37172210
v -27.91048620 -21.97676363 5.35160432
v 25.59336862 -24.63343591 6.37172210
v 25.60727811 -24.61952642 5.35160432
v -27.89657670 -21.99067313 6.37172210
v -27.88266720 -22.01153738 5.35160432
v 25.12043697 -25.12025968 6.37172210
v 25.12043697 -25.12025968 5.35160432
v -27.42364505 -22.58181814 6.37172210
v -27.40973555 -22.59572764 5.35160432
v 24.63359582 -25.59317685 6.37172210
v 24.61968632 -25.60708635 5.35160432
v -27.00635429 -23.08255141 6.37172210
v -27.00635429 -23.08255141 5.35160432
v 24.11197947 -26.08695537 6.37172210
v 24.11893422 -26.08000062 5.35160432
v -26.51951314 -23.63892268 6.37172210
v -26.51951314 -23.63892268 5.35160432
v 23.63209307 -26.51814404 6.37172210
v 23.61818357 -26.53205354 5.35160432
v -26.08135523 -24.12574790 6.37172210
v -26.08830998 -24.11183840 5.35160432
v -26.08135523 -24.12574790 6.34865063
v 23.08265773 -27.00496781 6.37172210
v 23.08265773 -27.00496781 5.35160432
v -25.59451409 -24.63343591 6.37172210
v -25.59451409 -24.63343591 5.35160432
v 22.59581658 -27.40833749 6.37172210
v 22.59581658 -27.40833749 5.35160432
v -25.12158243 -25.12025968 6.37172210
v -25.12158243 -25.12025968 5.35160432
v 22.00465274 -27.88820651 6.37172210
v 21.99074324 -27.89516126 5.35160432
v -24.62083179 -25.60708635 6.37172210
v -24.63474128 -25.59317685 5.35160432
v 21.50390209 -28.27766668 6.37172210
v 21.51781159 -28.27071193 5.35160432
v -24.10617019 -26.09391012 5.35160432
v -24.12007969 -26.08000062 6.37172210
v 20.89187255 -28.72971960 6.37172210
v 21.48999259 -28.29157618 5.35160432
v -23.63323854 -26.51814404 5.35160432
v -23.61932904 -26.53205354 6.37172210
v 20.35634671 -29.11917978 6.37172210
v 20.89187255 -28.72971960 5.35160432
v -23.06293895 -27.01887731 5.35160432
v -23.07684845 -27.00496781 6.37172210
v 20.35634671 -29.11917978 5.35160432
v 19.86950556 -29.44604721 6.37172210
v 19.88341506 -29.43909246 5.35160432
v -22.59696205 -27.40833749 5.35160432
v -22.59696205 -27.40833749 6.37172210
v 19.13228909 -29.93287098 6.37172210
v 19.13228909 -29.93287098 5.35160432
v -21.99188871 -27.89516126 5.35160432
v -21.99188871 -27.89516126 6.37172210
v 18.64544794 -30.23887416 6.37172210
v 18.65935743 -30.23191941 5.35160432
v -21.50504756 -28.27766668 5.35160432
v -21.49113806 -28.29157618 6.37172210
v 17.99168990 -30.62833433 6.37172210
v 17.97778040 -30.63528908 5.35160432
v -20.89301802 -28.72971960 5.35160432
v -20.89301802 -28.72971960 6.37172210
v 17.34488662 -31.00388501 6.37172210
v 17.33097712 -31.01083976 5.35160432
v -20.35053743 -29.11917978 5.35160432
v -20.35053743 -29.11917978 6.37172210
v 16.84413597 -31.27511734 6.37172210
v 16.85804547 -31.26816259 5.35160432
v -19.87065103 -29.44604721 5.35160432
v -19.87065103 -29.44604721 6.37172210
v 16.03041436 -31.69934836 6.37172210
v 16.03041436 -31.69934836 5.35160432
v -19.15429880 -29.91896148 5.35160432
v -19.84978678 -29.45995671 6.37172210
v 15.40447677 -32.01230919 6.37172210
v 15.41838627 -32.00535444 5.35160432
v -18.64659340 -30.23887416 6.37172210
v -19.12647981 -29.93287098 6.37172210
v -18.64659340 -30.23887416 5.35160432
v 14.93154512 -32.23485538 6.37172210
v 14.90372467 -32.24876488 5.35160432
v -17.99283537 -30.62833433 5.35160432
v -17.97892587 -30.63528908 6.37172210
v 14.11086876 -32.60345131 6.37172210
v 14.09000451 -32.61040606 5.35160432
v -17.33212259 -31.01083976 6.37172210
v -17.33212259 -31.01083976 5.35160432
v 13.31105809 -32.93727638 6.37172210
v 13.32496904 -32.93032163 5.35160432
v -16.85919094 -31.26816259 6.37172210
v -16.84528144 -31.27511734 5.35160432
v 12.83812644 -33.12505172 6.37172210
v 12.83812644 -33.12505172 5.35160432
v -16.05938027 -31.68543887 5.35160432
v -16.03155983 -31.69934836 6.37172210
v 12.16350416 -33.37541691 6.37172210
v 12.11482019 -33.39628116 5.35160432
v -15.43344124 -31.99839969 5.35160432
v -16.01765033 -31.70630311 6.37172210
v 11.19677661 -33.71619384 6.37172210
v 11.17591163 -33.72314859 5.35160432
v -14.93269059 -32.23485538 5.35160432
v -14.93269059 -32.23485538 6.37172210
v -15.41257699 -32.00535444 6.37172210
v 11.17591163 -33.72314859 6.37172210
v 11.15504739 -33.73010334 5.35160432
v -14.09114998 -32.61040606 5.35160432
v -14.09114998 -32.61040606 6.37172210
v 10.48042438 -33.94569767 6.37172210
v 10.46651488 -33.94569767 5.35160432
v -13.34002400 -32.92336688 5.35160432
v -13.31915831 -32.93032163 6.37172210
v 9.97967301 -34.09174451 6.37172210
v 9.99358323 -34.09174451 5.35160432
v -12.83927191 -33.12505172 5.35160432
v -12.83927191 -33.12505172 6.37172210
v 9.24941128 -34.30038410 6.37172210
v 9.20768206 -34.30733885 5.35160432
v -12.17160438 -33.37541691 5.35160432
v -12.14378538 -33.38237166 6.37172210
v 8.28268373 -34.54379743 6.37172210
v 8.23399976 -34.55770693 5.35160432
v -11.17705710 -33.72314859 6.37172210
v -11.17705710 -33.72314859 5.35160432
v 8.25486401 -34.55075218 6.37172210
v 7.30900143 -34.76634652 6.37172210
v 7.26727221 -34.77330127 5.35160432
v -10.46766035 -33.94569767 6.37172210
v -10.44679538 -33.95265242 5.35160432
v 6.49528054 -34.92630286 6.37172210
v 6.47441630 -34.92630286 5.35160432
v -9.98777395 -34.09174451 6.37172210
v -9.98081848 -34.09174451 5.35160432
v 5.98757478 -35.01671170 6.37172210
v 5.98757478 -35.01671170 5.35160432
v -9.25751150 -34.29342935 5.35160432
v -9.20882753 -34.30733885 6.37172210
v 5.34077150 -35.12103294 6.37172210
v 5.34077150 -35.12103294 5.35160432
v -8.29078395 -34.54379743 5.35160432
v -8.23514523 -34.55770693 6.37172210
v 4.39490856 -35.25317029 6.37172210
v 4.34622423 -35.26012504 5.35160432
v -7.28928193 -34.76634652 5.35160432
v -7.26841768 -34.77330127 6.37172210
v 3.42122590 -35.35748863 6.37172210
v 3.37254193 -35.36444338 5.35160432
v -6.49642601 -34.92630286 5.35160432
v -6.47556176 -34.92630286 6.37172210
v 2.44754342 -35.44094562 6.37172210
v 2.42667881 -35.44094562 5.35160432
v -5.98872025 -35.01671170 6.37172210
v -5.98872025 -35.01671170 5.35160432
v 1.48081569 -35.49658362 6.37172210
v 1.45299624 -35.49658362 5.35160432
v -5.34191697 -35.12103294 6.37172210
v -5.34191697 -35.12103294 5.35160432
v 0.50713316 -35.51744497 6.37172210
v 0.47931367 -35.51744497 5.35160432
v -4.40300878 -35.25317029 5.35160432
v -4.34736970 -35.26012504 6.37172210
v -0.48045913 -35.52439972 6.37172210
v -0.51523352 -35.51744497 5.35160432
v -3.42932612 -35.35748863 5.35160432
v -3.37368740 -35.36444338 6.37172210
v -1.45414171 -35.49658362 6.37172210
v -1.48891609 -35.49658362 5.35160432
v -2.45564364 -35.44094562 5.35160432
v -2.42782428 -35.44094562 6.37172210
f 1 2 3
f 1 3 4
f 1 4 5
f 1 5 6
f 1 6 10
f 1 10 14
f 1 14 18
f 1 18 22
f 1 22 26
f 1 26 30
f 1 30 34
f 1 34 38
f 1 38 42
f 1 42 47
f 1 47 46
f 1 46 51
f 1 51 55
f 1 55 59
f 1 59 63
f 1 63 67
f 1 67 71
f 1 71 75
f 1 75 79
f 1 79 83
f 1 83 87
f 1 87 91
f 1 91 96
f 1 96 100
f 1 100 104
f 1 104 108
f 1 108 112
f 1 112 116
f 1 116 121
f 1 121 125
f 1 125 130
f 1 130 135
f 1 135 139
f 1 139 143
f 1 143 147
f 1 147 151
f 1 151 155
f 1 155 159
f 1 159 163
f 1 163 167
f 1 167 172
f 1 172 176
f 1 176 180
f 1 180 185
f 1 185 191
f 1 191 195
f 1 195 199
f 1 199 203
f 1 203 207
f 1 207 212
f 1 212 216
f 1 216 220
f 1 220 225
f 1 225 229
f 1 229 233
f 1 233 237
f 1 237 242
f 1 242 246
f 1 246 250
f 1 250 254
f 1 254 258
f 1 258 262
f 1 262 266
f 1 266 270
f 1 270 276
f 1 276 280
f 1 280 284
f 1 284 288
f 1 288 292
f 1 292 296
f 1 296 300
f 1 300 305
f 1 305 309
f 1 309 313
f 1 313 317
f 1 317 321
f 1 321 326
f 1 326 330
f 1 330 334
f 1 334 337
f 1 337 342
f 1 342 346
f 1 346 352
f 1 352 356
f 1 356 359
f 1 359 363
f 1 363 369
f 1 369 373
f 1 373 378
f 1 378 383
f 1 383 388
f 1 388 387
f 1 387 392
f 1 392 397
f 1 397 400
f 1 400 404
f 1 404 409
f 1 409 413
f 1 413 417
f 1 417 421
f 1 421 425
f 1 425 431
f 1 431 436
f 1 436 440
f 1 440 444
f 1 444 447
f 1 447 452
f 1 452 456
f 1 456 460
f 1 460 464
f 1 464 468
f 1 468 472
f 1 472 477
f 1 477 481
f 1 481 485
f 1 485 490
f 1 490 494
f 1 494 498
f 1 498 503
f 1 503 507
f 1 507 511
f 1 511 515
f 1 515 519
f 1 519 523
f 1 523 527
f 1 527 531
f 1 531 530
f 1 530 536
f 1 536 539
f 1 539 543
f 1 543 548
f 1 548 552
f 1 552 557
f 1 557 556
f 1 556 561
f 1 561 565
f 1 565 569
f 1 569 573
f 1 573 576
f 1 576 581
f 1 581 585
f 1 585 590
f 1 590 594
f 1 594 598
f 1 598 602
f 1 602 605
f 1 605 609
f 1 609 614
f 1 614 618
f 1 618 622
f 1 622 619
f 1 619 615
f 1 615 611
f 1 611 607
f 1 607 603
f 1 603 599
f 1 599 595
f 1 595 591
f 1 591 587
f 1 587 583
f 1 583 579
f 1 579 578
f 1 578 574
f 1 574 570
f 1 570 566
f 1 566 562
f 1 562 558
f 1 558 553
f 1 553 549
f 1 549 545
f 1 545 541
f 1 541 537
f 1 537 533
f 1 533 528
f 1 528 524
f 1 524 520
f 1 520 516
f 1 516 512
f 1 512 508
f 1 508 504
f 1 504 500
f 1 500 495
f 1 495 491
f 1 491 487
f 1 487 483
f 1 483 479
f 1 479 475
f 1 475 470
f 1 470 466
f 1 466 462
f 1 462 458
f 1 458 454
f 1 454 449
f 1 449 445
f 1 445 441
f 1 441 437
f 1 437 433
f 1 433 432
f 1 432 426
f 1 426 422
f 1 422 418
f 1 418 414
f 1 414 410
f 1 410 406
f 1 406 402
f 1 402 398
f 1 398 393
f 1 393 389
f 1 389 384
f 1 384 380
f 1 380 379
f 1 379 375
f 1 375 371
f 1 371 370
f 1 370 365
f 1 365 361
f 1 361 357
f 1 357 353
f 1 353 349
f 1 349 348
f 1 348 347
f 1 347 343
f 1 343 339
f 1 339 335
f 1 335 331
f 1 331 327
f 1 327 323
f 1 323 319
f 1 319 315
f 1 315 311
f 1 311 306
f 1 306 301
f 1 301 297
f 1 297 293
f 1 293 289
f 1 289 285
f 1 285 281
f 1 281 277
f 1 277 272
f 1 272 268
f 1 268 263
f 1 263 259
f 1 259 255
f 1 255 251
f 1 251 247
f 1 247 243
f 1 243 238
f 1 238 234
f 1 234 230
f 1 230 226
f 1 226 221
f 1 221 217
f 1 217 213
f 1 213 209
f 1 209 208
f 1 208 204
f 1 204 200
f 1 200 196
f 1 196 192
f 1 192 187
f 1 187 186
f 1 186 181
f 1 181 177
f 1 177 173
f 1 173 169
f 1 169 166
f 1 166 161
f 1 161 157
f 1 157 153
f 1 153 149
f 1 149 144
f 1 144 140
f 1 140 136
f 1 136 131
f 1 131 127
f 1 127 126
f 1 126 122
f 1 122 118
f 1 118 117
f 1 117 113
f 1 113 109
f 1 109 105
f 1 105 101
f 1 101 97
f 1 97 92
f 1 92 88
f 1 88 84
f 1 84 80
f 1 80 76
f 1 76 72
f 1 72 68
f 1 68 64
f 1 64 60
f 1 60 56
f 1 56 52
f 1 52 48
f 1 48 43
f 1 43 39
f 1 39 35
f 1 35 31
f 1 31 27
f 1 27 23
f 1 23 19
f 1 19 15
f 1 15 11
f 1 11 7
f 1 7 2
f 2 7 8
f 2 8 3
f 3 8 12
f 3 12 16
f 3 16 20
f 3 20 24
f 3 24 28
f 3 28 32
f 3 32 36
f 3 36 40
f 3 40 44
f 3 44 49
f 3 49 53
f 3 53 57
f 3 57 61
f 3 61 65
f 3 65 69
f 3 69 73
f 3 73 77
f 3 77 81
f 3 81 85
f 3 85 89
f 3 89 93
f 3 93 98
f 3 98 102
f 3 102 106
f 3 106 110
f 3 110 114
f 3 114 119
f 3 119 123
f 3 123 128
f 3 128 133
f 3 133 137
f 3 137 141
f 3 141 145
f 3 145 148
f 3 148 152
f 3 152 156
f 3 156 158
f 3 158 162
f 3 162 165
f 3 165 170
f 3 170 174
f 3 174 178
f 3 178 183
f 3 183 182
f 3 182 188
f 3 188 193
f 3 193 197
f 3 197 201
f 3 201 205
f 3 205 210
f 3 210 214
f 3 214 218
f 3 218 222
f 3 222 227
f 3 227 231
f 3 231 235
f 3 235 240
f 3 240 239
f 3 239 244
f 3 244 248
f 3 248 252
f 3 252 256
f 3 256 260
f 3 260 264
f 3 264 267
f 3 267 271
f 3 271 274
f 3 274 273
f 3 273 278
f 3 278 282
f 3 282 286
f 3 286 290
f 3 290 294
f 3 294 298
f 3 298 303
f 3 303 307
f 3 307 310
f 3 310 312
f 3 312 316
f 3 316 320
f 3 320 324
f 3 324 328
f 3 328 332
f 3 332 336
f 3 336 340
f 3 340 344
f 3 344 350
f 3 350 354
f 3 354 358
f 3 358 362
f 3 362 366
f 3 366 372
f 3 372 376
f 3 376 381
f 3 381 385
f 3 385 390
f 3 390 394
f 3 394 399
f 3 399 403
f 3 403 407
f 3 407 411
f 3 411 415
f 3 415 419
f 3 419 423
f 3 423 429
f 3 429 428
f 3 428 427
f 3 427 434
f 3 434 438
f 3 438 442
f 3 442 446
f 3 446 451
f 3 451 455
f 3 455 459
f 3 459 463
f 3 463 467
f 3 467 471
f 3 471 476
f 3 476 480
f 3 480 484
f 3 484 488
f 3 488 492
f 3 492 496
f 3 496 499
f 3 499 501
f 3 501 505
f 3 505 509
f 3 509 513
f 3 513 517
f 3 517 521
f 3 521 525
f 3 525 529
f 3 529 534
f 3 534 538
f 3 538 542
f 3 542 546
f 3 546 550
f 3 550 554
f 3 554 559
f 3 559 563
f 3 563 567
f 3 567 571
f 3 571 575
f 3 575 580
f 3 580 584
f 3 584 588
f 3 588 592
f 3 592 596
f 3 596 600
f 3 600 604
f 3 604 608
f 3 608 612
f 3 612 616
f 3 616 620
f 3 620 621
f 3 621 617
f 3 617 613
f 3 613 610
f 3 610 606
f 3 606 601
f 3 601 597
f 3 597 593
f 3 593 589
f 3 589 586
f 3 586 582
f 3 582 577
f 3 577 572
f 3 572 568
f 3 568 564
f 3 564 560
f 3 560 555
f 3 555 551
f 3 551 547
f 3 547 544
f 3 544 540
f 3 540 535
f 3 535 532
f 3 532 526
f 3 526 522
f 3 522 518
f 3 518 514
f 3 514 510
f 3 510 506
f 3 506 502
f 3 502 497
f 3 497 493
f 3 493 489
f 3 489 486
f 3 486 482
f 3 482 478
f 3 478 473
f 3 473 469
f 3 469 465
f 3 465 461
f 3 461 457
f 3 457 453
f 3 453 448
f 3 448 443
f 3 443 439
f 3 439 435
f 3 435 430
f 3 430 424
f 3 424 420
f 3 420 416
f 3 416 412
f 3 412 408
f 3 408 405
f 3 405 401
f 3 401 396
f 3 396 395
f 3 395 391
f 3 391 386
f 3 386 382
f 3 382 377
f 3 377 374
f 3 374 368
f 3 368 367
f 3 367 364
f 3 364 360
f 3 360 355
f 3 355 351
f 3 351 345
f 3 345 341
f 3 341 338
f 3 338 333
f 3 333 329
f 3 329 325
f 3 325 322
f 3 322 318
f 3 318 314
f 3 314 308
f 3 308 304
f 3 304 299
f 3 299 295
f 3 295 291
f 3 291 287
f 3 287 283
f 3 283 279
f 3 279 275
f 3 275 269
f 3 269 265
f 3 265 261
f 3 261 257
f 3 257 253
f 3 253 249
f 3 249 245
f 3 245 241
f 3 241 236
f 3 236 232
f 3 232 228
f 3 228 224
f 3 224 223
f 3 223 219
f 3 219 215
f 3 215 211
f 3 211 206
f 3 206 202
f 3 202 198
f 3 198 194
f 3 194 190
f 3 190 189
f 3 189 184
f 3 184 179
f 3 179 175
f 3 175 171
f 3 171 168
f 3 168 164
f 3 164 160
f 3 160 154
f 3 154 150
f 3 150 146
f 3 146 142
f 3 142 138
f 3 138 134
f 3 134 129
f 3 129 124
f 3 124 120
f 3 120 115
f 3 115 111
f 3 111 107
f 3 107 103
f 3 103 99
f 3 99 95
f 3 95 94
f 3 94 90
f 3 90 86
f 3 86 82
f 3 82 78
f 3 78 74
f 3 74 70
f 3 70 66
f 3 66 62
f 3 62 58
f 3 58 54
f 3 54 50
f 3 50 45
f 3 45 41
f 3 41 37
f 3 37 33
f 3 33 29
f 3 29 25
f 3 25 21
f 3 21 17
f 3 17 13
f 3 13 9
f 3 9 5
f 3 5 4
f 5 9 6
f 6 9 10
f 7 11 8
f 8 11 12
f 9 13 14
f 9 14 10
f 11 15 16
f 11 16 12
f 13 17 14
f 14 17 18
f 15 19 16
f 16 19 20
f 17 21 22
f 17 22 18
f 19 23 24
f 19 24 20
f 21 25 26
f 21 26 22
f 23 27 28
f 23 28 24
f 25 29 30
f 25 30 26
f 27 31 28
f 28 31 32
f 29 33 34
f 29 34 30
f 31 35 36
f 31 36 32
f 33 37 34
f 34 37 38
f 35 39 36
f 36 39 40
f 37 41 42
f 37 42 38
f 39 43 40
f 40 43 44
f 41 45 46
f 41 46 47
f 41 47 42
f 43 48 49
f 43 49 44
f 45 50 46
f 46 50 51
f 48 52 49
f 49 52 53
f 50 54 55
f 50 55 51
f 52 56 57
f 52 57 53
f 54 58 55
f 55 58 59
f 56 60 57
f 57 60 61
f 58 62 63
f 58 63 59
f 60 64 65
f 60 65 61
f 62 66 63
f 63 66 67
f 64 68 65
f 65 68 69
f 66 70 71
f 66 71 67
f 68 72 73
f 68 73 69
f 70 74 75
f 70 75 71
f 72 76 77
f 72 77 73
f 74 78 75
f 75 78 79
f 76 80 81
f 76 81 77
f 78 82 79
f 79 82 83
f 80 84 81
f 81 84 85
f 82 86 87
f 82 87 83
f 84 88 89
f 84 89 85
f 86 90 87
f 87 90 94
f 87 94 91
f 88 92 93
f 88 93 89
f 91 94 95
f 91 95 96
f 92 97 93
f 93 97 98
f 95 99 100
f 95 100 96
f 97 101 102
f 97 102 98
f 99 103 104
f 99 104 100
f 101 105 102
f 102 105 106
f 103 107 104
f 104 107 108
f 105 109 106
f 106 109 113
f 106 113 110
f 107 111 112
f 107 112 108
f 110 113 117
f 110 117 114
f 111 115 112
f 112 115 116
f 114 117 118
f 114 118 119
f 115 120 121
f 115 121 116
f 118 122 119
f 119 122 123
f 120 124 121
f 121 124 125
f 122 126 123
f 123 126 127
f 123 127 128
f 124 129 130
f 124 130 125
f 127 131 132
f 127 132 128
f 128 132 133
f 129 134 135
f 129 135 130
f 131 136 132
f 132 136 137
f 132 137 133
f 134 138 135
f 135 138 139
f 136 140 141
f 136 141 137
f 138 142 143
f 138 143 139
f 140 144 141
f 141 144 145
f 142 146 143
f 143 146 147
f 144 148 145
f 144 149 148
f 146 150 151
f 146 151 147
f 148 149 152
f 149 153 152
f 150 154 151
f 151 154 155
f 152 153 156
f 153 157 158
f 153 158 156
f 154 159 155
f 154 160 159
f 157 161 158
f 158 161 162
f 159 160 164
f 159 164 163
f 161 165 162
f 161 166 165
f 163 164 167
f 164 168 167
f 165 166 169
f 165 169 170
f 167 168 171
f 167 171 172
f 169 173 174
f 169 174 170
f 171 175 176
f 171 176 172
f 173 177 174
f 174 177 178
f 175 179 176
f 176 179 180
f 177 181 182
f 177 182 183
f 177 183 178
f 179 184 185
f 179 185 180
f 181 186 182
f 182 186 187
f 182 187 188
f 184 189 185
f 185 189 190
f 185 190 191
f 187 192 188
f 188 192 193
f 190 194 191
f 191 194 195
f 192 196 193
f 193 196 200
f 193 200 197
f 194 198 199
f 194 199 195
f 197 200 201
f 198 202 199
f 199 202 203
f 200 204 201
f 201 204 208
f 201 208 205
f 202 206 207
f 202 207 203
f 205 208 209
f 205 209 210
f 206 211 207
f 207 211 212
f 209 213 210
f 210 213 214
f 211 215 212
f 212 215 216
f 213 217 218
f 213 218 214
f 215 219 216
f 216 219 220
f 217 221 218
f 218 221 222
f 219 223 220
f 220 223 224
f 220 224 225
f 221 226 227
f 221 227 222
f 224 228 229
f 224 229 225
f 226 230 231
f 226 231 227
f 228 232 233
f 228 233 229
f 230 234 231
f 231 234 235
f 232 236 233
f 233 236 237
f 234 238 239
f 234 239 240
f 234 240 235
f 236 241 237
f 237 241 242
f 238 243 244
f 238 244 239
f 241 245 246
f 241 246 242
f 243 247 248
f 243 248 244
f 245 249 250
f 245 250 246
f 247 251 252
f 247 252 248
f 249 253 254
f 249 254 250
f 251 255 252
f 252 255 256
f 253 257 258
f 253 258 254
f 255 259 260
f 255 260 256
f 257 261 262
f 257 262 258
f 259 263 260
f 260 263 264
f 261 265 266
f 261 266 262
f 263 267 264
f 263 268 267
f 265 269 266
f 266 269 270
f 267 268 271
f 268 272 273
f 268 273 274
f 268 274 271
f 269 275 276
f 269 276 270
f 272 277 273
f 273 277 278
f 275 279 276
f 276 279 280
f 277 281 282
f 277 282 278
f 279 283 284
f 279 284 280
f 281 285 286
f 281 286 282
f 283 287 284
f 284 287 288
f 285 289 290
f 285 290 286
f 287 291 292
f 287 292 288
f 289 293 294
f 289 294 290
f 291 295 292
f 292 295 296
f 293 297 298
f 293 298 294
f 295 299 300
f 295 300 296
f 297 301 302
f 297 302 298
f 298 302 303
f 299 304 305
f 299 305 300
f 301 306 302
f 302 306 307
f 302 307 303
f 304 308 305
f 305 308 309
f 306 310 307
f 306 311 312
f 306 312 310
f 308 313 309
f 308 314 313
f 311 315 316
f 311 316 312
f 313 314 318
f 313 318 317
f 315 319 320
f 315 320 316
f 317 318 321
f 318 322 321
f 319 323 320
f 320 323 324
f 321 322 325
f 321 325 326
f 323 327 324
f 324 327 328
f 325 329 330
f 325 330 326
f 327 331 332
f 327 332 328
f 329 333 334
f 329 334 330
f 331 335 332
f 332 335 336
f 333 337 334
f 333 338 337
f 335 339 340
f 335 340 336
f 337 338 341
f 337 341 342
f 339 343 340
f 340 343 347
f 340 347 344
f 341 345 346
f 341 346 342
f 344 347 348
f 344 348 349
f 344 349 350
f 345 351 352
f 345 352 346
f 349 353 354
f 349 354 350
f 351 355 352
f 352 355 356
f 353 357 354
f 354 357 358
f 355 359 356
f 355 360 359
f 357 361 362
f 357 362 358
f 359 360 364
f 359 364 363
f 361 365 362
f 362 365 370
f 362 370 366
f 363 364 367
f 363 367 368
f 363 368 369
f 366 370 371
f 366 371 372
f 368 373 369
f 368 374 373
f 371 375 376
f 371 376 372
f 373 377 378
f 373 374 377
f 375 379 376
f 376 379 380
f 376 380 381
f 377 382 383
f 377 383 378
f 380 384 385
f 380 385 381
f 382 386 387
f 382 387 388
f 382 388 383
f 384 389 385
f 385 389 390
f 386 391 392
f 386 392 387
f 389 393 394
f 389 394 390
f 391 395 392
f 392 396 397
f 392 395 396
f 393 398 394
f 394 398 399
f 396 400 397
f 396 401 400
f 398 402 399
f 399 402 403
f 400 401 404
f 401 405 404
f 402 406 407
f 402 407 403
f 404 405 408
f 404 408 409
f 406 410 407
f 407 410 411
f 408 412 409
f 409 412 413
f 410 414 415
f 410 415 411
f 412 416 417
f 412 417 413
f 414 418 419
f 414 419 415
f 416 420 417
f 417 420 421
f 418 422 423
f 418 423 419
f 420 424 425
f 420 425 421
f 422 426 427
f 422 427 428
f 422 428 429
f 422 429 423
f 424 430 431
f 424 431 425
f 426 432 427
f 427 432 433
f 427 433 434
f 430 435 436
f 430 436 431
f 433 437 438
f 433 438 434
f 435 439 440
f 435 440 436
f 437 441 438
f 438 441 442
f 439 443 440
f 440 443 444
f 441 445 446
f 441 446 442
f 443 447 444
f 443 448 447
f 445 449 446
f 446 449 450
f 446 450 451
f 447 448 452
f 448 453 452
f 449 454 455
f 449 455 450
f 450 455 451
f 452 453 456
f 453 457 460
f 453 460 456
f 454 458 455
f 455 458 459
f 457 461 460
f 458 462 463
f 458 463 459
f 460 461 465
f 460 465 464
f 462 466 463
f 463 466 467
f 464 465 469
f 464 469 468
f 466 470 471
f 466 471 467
f 468 469 474
f 468 474 472
f 469 473 474
f 470 475 471
f 471 475 476
f 472 474 478
f 472 478 477
f 473 478 474
f 475 479 480
f 475 480 476
f 477 478 482
f 477 482 481
f 479 483 480
f 480 483 484
f 481 482 485
f 482 486 485
f 483 487 488
f 483 488 484
f 485 486 489
f 485 489 490
f 487 491 492
f 487 492 488
f 489 493 494
f 489 494 490
f 491 495 499
f 491 499 496
f 491 496 492
f 493 497 494
f 494 497 498
f 495 500 501
f 495 501 499
f 497 502 503
f 497 503 498
f 500 504 501
f 501 504 505
f 502 506 507
f 502 507 503
f 504 508 509
f 504 509 505
f 506 510 511
f 506 511 507
f 508 512 509
f 509 512 513
f 510 514 511
f 511 514 515
f 512 516 517
f 512 517 513
f 514 518 519
f 514 519 515
f 516 520 521
f 516 521 517
f 518 522 523
f 518 523 519
f 520 524 521
f 521 524 525
f 522 526 527
f 522 527 523
f 524 528 529
f 524 529 525
f 526 530 531
f 526 531 527
f 526 532 530
f 528 533 534
f 528 534 529
f 530 532 535
f 530 535 536
f 533 537 534
f 534 537 538
f 535 539 536
f 535 540 539
f 537 541 542
f 537 542 538
f 539 540 543
f 540 544 543
f 541 545 546
f 541 546 542
f 543 544 547
f 543 547 548
f 545 549 550
f 545 550 546
f 547 551 552
f 547 552 548
f 549 553 550
f 550 553 554
f 551 555 556
f 551 556 557
f 551 557 552
f 553 558 559
f 553 559 554
f 555 560 561
f 555 561 556
f 558 562 559
f 559 562 563
f 560 564 561
f 561 564 565
f 562 566 567
f 562 567 563
f 564 568 569
f 564 569 565
f 566 570 567
f 567 570 571
f 568 572 569
f 569 572 573
f 570 574 575
f 570 575 571
f 572 576 573
f 572 577 576
f 574 578 575
f 575 578 579
f 575 579 580
f 576 577 582
f 576 582 581
f 579 583 580
f 580 583 584
f 581 582 585
f 582 586 585
f 583 587 588
f 583 588 584
f 585 586 589
f 585 589 590
f 587 591 592
f 587 592 588
f 589 593 590
f 590 593 594
f 591 595 596
f 591 596 592
f 593 597 598
f 593 598 594
f 595 599 600
f 595 600 596
f 597 601 598
f 598 601 602
f 599 603 600
f 600 603 604
f 601 605 602
f 601 606 605
f 603 607 604
f 604 607 608
f 605 606 610
f 605 610 609
f 607 611 612
f 607 612 608
f 609 610 613
f 609 613 614
f 611 615 612
f 612 615 616
f 613 617 618
f 613 618 614
f 615 619 620
f 615 620 616
f 617 621 618
f 618 621 622
f 619 622 620
f 620 622 621

