# https://github.com/mikedh/trimesh
v 21.99349212 -27.89959886 7.39041764
v 22.29681015 -27.65381320 8.77950501
v 21.99349212 -27.89413876 8.77950501
v 21.99349212 -27.85590356 7.38892010
v 22.03587669 -27.86136656 7.38892010
v 22.59747923 -27.41349055 7.38892010
v 22.59747923 -27.41349055 8.77950501
v 21.99349212 27.59881784 8.77950501
v 21.99349212 27.89922189 7.38892010
v 23.12331882 -26.97107463 7.38892010
v 23.08358319 -27.00384683 8.77950501
v 22.29416120 27.65343623 8.77950501
v 21.99349212 27.89376179 8.77855203
v 22.59747923 27.41311358 8.77950501
v 22.59747923 27.41311358 7.38892010
v 23.63988639 -26.51773852 7.38892010
v 23.63988639 -26.51773852 8.77950501
v 23.08358319 27.00346986 8.77950501
v 23.08358319 27.00346986 7.38892010
v 24.12599035 -26.08078560 7.38892010
v 24.12599035 -26.08078560 8.77950501
v 23.36041032 26.76314720 8.77950501
v 23.63856264 26.51736155 7.38892010
v 24.16175329 -26.04801341 7.38892010
v 24.63726002 -25.59467440 8.77950501
v 23.63856264 26.51736155 8.77950501
v 23.88227722 26.29888509 8.77950501
v 24.12466660 26.08040863 7.38892010
v 24.63726002 -25.59467440 7.38892010
v 24.87965085 -25.35981474 8.77950501
v 24.12466660 26.08040863 8.77950501
v 24.63726002 25.59429743 7.38892010
v 25.12336543 -25.11948919 7.38892010
v 25.12336543 -25.11948919 8.77950501
v 24.63726002 25.59429743 8.77950501
v 24.67169776 25.56152813 7.38892010
v 25.15647653 -25.08671989 7.38892010
v 25.36177923 -24.87916653 8.77950501
v 25.12336543 25.11911222 8.77950501
v 25.12336543 25.11911222 7.38892010
v 25.59754552 -24.63338088 7.38892010
v 25.83993635 -24.38213223 8.77950501
v 25.35913173 24.87878956 8.77950501
v 25.63065951 24.60023172 7.38892010
v 26.08365093 -24.12542348 7.38892010
v 26.08365093 -24.12542348 8.77950501
v 25.59754552 24.63300391 8.77950501
v 26.08232718 24.12504651 8.77950501
v 26.08232718 24.12504651 7.38892010
v 26.52207243 -23.63931372 7.38892010
v 26.52207243 -23.63931372 8.77950501
v 26.52207243 23.63893675 8.77950501
v 26.52207243 23.63893675 7.38892010
v 27.03731479 -23.04942728 7.38892010
v 27.00817494 -23.08219948 8.77950501
v 26.76578411 23.36037890 8.77950501
v 27.00817494 23.08182251 7.38892010
v 27.41612994 -22.59608972 7.38892010
v 27.41612994 -22.59608972 8.77950501
v 27.00817494 23.08182251 8.77950501
v 27.41612994 22.59571275 7.38892010
v 27.86779761 -22.03351393 7.38892010
v 27.65852077 -22.29568567 8.77950501
v 27.41612994 22.59571275 8.77950501
v 27.90223535 21.98944166 7.38892010
v 27.92872481 -21.95704644 7.38892010
v 27.90223535 -21.98981863 8.77950501
v 27.90223535 21.98944166 8.77950501
v 28.09164438 21.74911756 8.77950501
v 28.28237425 21.50333191 7.38892010
v 28.28105051 -21.50370888 7.38892010
v 28.09296813 -21.74949453 8.77950501
v 28.28237425 21.50333191 8.77950501
v 28.50754766 21.19746487 8.77950501
v 28.73006778 20.89159783 7.38892010
v 28.69828044 -20.93567009 7.38892010
v 28.28237425 -21.50370888 8.29251324
v 28.28237425 -21.50370888 8.77950501
v 28.73139153 20.89159783 8.77950501
v 29.12080536 20.35633123 8.29251324
v 29.11948161 20.35633123 7.38892010
v 28.73006778 -20.89197479 7.38892010
v 28.73006778 -20.89197479 8.77950501
v 29.12080536 20.35633123 8.77950501
v 29.44796535 19.87022292 7.38892010
v 29.11948161 -20.35124665 7.38892010
v 28.92345095 -20.62434150 8.77950501
v 29.44796535 19.87022292 8.77950501
v 29.93406786 19.13286451 7.38892010
v 29.14199692 -20.31847590 7.38892010
v 29.11948161 -20.35124665 8.77950501
v 29.93406786 19.13286451 8.77950501
v 30.24268378 18.64675475 7.38892010
v 29.44796535 -19.86513689 7.38892010
v 29.28372203 -20.11092254 8.77950501
v 30.24268378 18.64675475 8.77950501
v 30.64004590 17.98040373 7.38892010
v 29.89963012 -19.18239977 7.38892010
v 29.69035328 -19.49918991 8.77950501
v 29.44796535 -19.86513689 8.77950501
v 30.64004590 17.98040373 8.77950501
v 31.01356315 17.33043591 7.38892010
v 29.95526232 -19.09500919 7.38892010
v 30.08771540 -18.88745583 8.77950501
v 29.93406786 -19.12777993 8.77950501
v 31.01356315 17.33043591 8.77950501
v 31.25860148 16.88255989 7.38892010
v 30.24136003 -18.64167017 7.38892010
v 30.24136003 -18.64167017 8.77950501
v 31.14469248 17.09011180 8.77950501
v 31.30760915 16.78970776 7.38892010
v 31.27714555 16.84432615 8.77950501
v 30.63871925 -17.98078070 7.38892010
v 30.44004109 -18.31395694 8.77950501
v 31.48906989 16.44014543 8.77950501
v 31.69967048 16.03596470 8.77950501
v 31.69967048 16.03596470 7.38892010
v 30.98707370 -17.37997116 7.38892010
v 30.63871925 -17.98078070 8.77950501
v 31.85464176 15.72463611 8.77950501
v 32.00828640 15.41330752 7.38892010
v 31.03210722 -17.29804213 7.38892010
v 31.14601623 -17.09048877 8.77950501
v 31.01356315 -17.33081287 8.77950501
v 30.82547788 -17.65852756 8.77950501
v 32.00828640 15.41330752 8.77950501
v 32.23610730 14.92719776 7.38892010
v 31.27714555 -16.84470312 7.38892010
v 31.27714555 -16.84470312 8.77950501
v 32.23610730 14.92719776 8.77950501
v 32.61095121 14.09152712 7.38892010
v 31.69834673 -16.03634167 7.38892010
v 31.69834673 -16.03634167 8.77950501
v 32.61095121 14.09152712 8.77950501
v 32.93281041 13.32685952 8.77950501
v 32.93281041 13.32139797 7.38892010
v 31.98709483 -15.45737978 7.38892010
v 32.00828640 -15.41368449 8.77950501
v 33.12619357 12.84074976 7.38892010
v 33.12619357 12.84074976 8.77950501
v 32.02418297 -15.38091375 7.38892010
v 32.23743105 -14.92757473 8.77950501
v 33.14473764 12.79159292 7.38892010
v 33.25599625 12.49118888 8.77950501
v 32.23743105 -14.92757473 7.38892010
v 32.61095121 -14.09190409 8.77950501
v 33.38315143 12.14708810 7.38892010
v 33.38315143 12.14708810 8.77950501
v 32.61095121 -14.09190409 7.38892010
v 32.93413705 -13.32723649 8.77950501
v 33.55269264 11.66097906 8.77950501
v 33.72091010 11.17486931 7.38892010
v 32.93413705 -13.32723649 7.38892010
v 33.12751732 -12.84112673 8.77950501
v 33.72091010 11.17486931 8.77950501
v 33.95005186 10.47028382 8.29251324
v 33.73680377 11.12571246 7.38892010
v 33.12751732 -12.84112673 7.38892010
v 33.38447808 -12.14746506 8.77950501
v 33.95005186 10.47028382 8.77950501
v 34.09707775 9.98417406 7.38892010
v 33.95005186 10.46482154 7.38892010
v 33.38447808 -12.14746506 7.38892010
v 33.72223385 -11.17524627 8.77950501
v 34.09707775 9.98417406 8.77950501
v 34.30635169 9.23043100 7.38892010
v 33.72223385 -11.17524627 7.38892010
v 33.95005186 -10.47066078 8.77950501
v 34.30635169 9.23043100 8.77950501
v 34.32357201 9.16488806 7.38892010
v 33.95005186 -10.47066078 7.38892010
v 34.09707775 -9.98455103 8.77950501
v 34.55271667 8.25821221 8.77950501
v 34.55271667 8.25821221 7.38892010
v 34.09707775 -9.98455103 7.38892010
v 34.30767834 -9.23080797 8.77950501
v 34.66265153 7.77210246 8.77950501
v 34.77126264 7.28599270 7.38892010
v 34.30767834 -9.23080797 7.38892010
v 34.53549635 -8.32959367 7.38892010
v 34.55271667 -8.25858918 8.77950501
v 34.77126264 7.28599270 8.77950501
v 34.78318507 7.23137358 7.38892010
v 34.55271667 -8.25858918 7.38892010
v 34.75536897 -7.35737488 7.38892010
v 34.77126264 -7.28636967 8.77950501
v 34.85206055 6.88727353 8.77950501
v 34.93153182 6.48855508 8.77950501
v 34.93153182 6.48309280 7.38892010
v 34.77126264 -7.28636967 7.38892010
v 34.93815346 -6.45069830 7.38892010
v 34.93153182 -6.48346977 8.77950501
v 35.02027512 6.00244532 8.29251324
v 35.01365348 6.03521679 7.38892010
v 35.02027512 6.00244532 8.77950501
v 35.02027512 -5.99736038 7.38892010
v 35.02027512 -5.99736038 8.77950501
v 35.12358834 5.34155476 7.38892010
v 35.02027512 5.99698341 7.38892010
v 35.12358834 5.34155476 8.77950501
v 35.11564295 -5.39108893 7.38892010
v 35.12226459 -5.34193173 8.77950501
v 35.13286037 5.27601182 7.38892010
v 35.25736806 4.36933561 8.77950501
v 35.24676938 -4.44071742 7.38892010
v 35.25604431 -4.36971257 8.77950501
v 35.25604431 4.36933561 7.38892010
v 35.36465542 3.39711645 7.38892010
v 35.26398970 4.30379267 7.38892010
v 35.36465542 3.39711645 8.77950501
v 35.25604431 -4.36971257 7.38892010
v 35.31034986 -3.88360318 8.77950501
v 35.44412669 2.42489730 7.38892010
v 35.44412669 2.42489730 8.77950501
v 35.36465542 -3.39749342 7.38892010
v 35.36332878 -3.39749342 8.77950501
v 35.49578475 1.45267824 7.38892010
v 35.49578475 1.45267824 8.77950501
v 35.43750505 -2.49627912 7.38892010
v 35.40306441 -2.91684576 8.77950501
v 35.51035467 0.96656876 8.77950501
v 35.52359795 0.48045918 7.38892010
v 35.44280294 -2.42527427 7.38892010
v 35.44280294 -2.42527427 8.77950501
v 35.52359795 0.48045918 8.77950501
v 35.52359795 -0.48083615 7.38892010
v 35.49578475 -1.45305521 7.38892010
v 35.46929239 -1.94462661 8.77950501
v 35.52359795 -0.48083615 8.77950501
v 35.52227420 -0.55184091 7.38892010
v 35.51035467 -0.97240755 8.77950501
v 35.49578475 -1.45305521 8.77950501
f 1 2 3
f 1 3 8
f 1 8 13
f 1 13 9
f 1 9 4
f 1 4 5
f 1 5 6
f 1 6 7
f 1 7 2
f 2 7 11
f 2 11 17
f 2 17 21
f 2 21 25
f 2 25 30
f 2 30 34
f 2 34 38
f 2 38 42
f 2 42 46
f 2 46 51
f 2 51 55
f 2 55 59
f 2 59 63
f 2 63 67
f 2 67 72
f 2 72 78
f 2 78 83
f 2 83 87
f 2 87 91
f 2 91 95
f 2 95 100
f 2 100 99
f 2 99 105
f 2 105 104
f 2 104 109
f 2 109 114
f 2 114 119
f 2 119 125
f 2 125 124
f 2 124 123
f 2 123 129
f 2 129 133
f 2 133 138
f 2 138 142
f 2 142 146
f 2 146 150
f 2 150 154
f 2 154 159
f 2 159 164
f 2 164 168
f 2 168 172
f 2 172 176
f 2 176 181
f 2 181 186
f 2 186 192
f 2 192 197
f 2 197 202
f 2 202 206
f 2 206 212
f 2 212 216
f 2 216 220
f 2 220 224
f 2 224 228
f 2 228 232
f 2 232 231
f 2 231 229
f 2 229 225
f 2 225 221
f 2 221 218
f 2 218 214
f 2 214 210
f 2 210 204
f 2 204 200
f 2 200 195
f 2 195 188
f 2 188 187
f 2 187 182
f 2 182 177
f 2 177 173
f 2 173 169
f 2 169 165
f 2 165 160
f 2 160 155
f 2 155 151
f 2 151 148
f 2 148 144
f 2 144 140
f 2 140 135
f 2 135 134
f 2 134 130
f 2 130 126
f 2 126 120
f 2 120 116
f 2 116 115
f 2 115 112
f 2 112 110
f 2 110 106
f 2 106 101
f 2 101 96
f 2 96 92
f 2 92 88
f 2 88 84
f 2 84 79
f 2 79 74
f 2 74 73
f 2 73 69
f 2 69 68
f 2 68 64
f 2 64 60
f 2 60 56
f 2 56 52
f 2 52 48
f 2 48 47
f 2 47 43
f 2 43 39
f 2 39 35
f 2 35 31
f 2 31 27
f 2 27 26
f 2 26 22
f 2 22 18
f 2 18 14
f 2 14 12
f 2 12 8
f 2 8 3
f 4 9 15
f 4 15 19
f 4 19 23
f 4 23 28
f 4 28 32
f 4 32 36
f 4 36 40
f 4 40 44
f 4 44 49
f 4 49 53
f 4 53 57
f 4 57 61
f 4 61 65
f 4 65 70
f 4 70 75
f 4 75 81
f 4 81 85
f 4 85 89
f 4 89 93
f 4 93 97
f 4 97 102
f 4 102 107
f 4 107 111
f 4 111 117
f 4 117 121
f 4 121 127
f 4 127 131
f 4 131 136
f 4 136 139
f 4 139 143
f 4 143 147
f 4 147 152
f 4 152 157
f 4 157 162
f 4 162 161
f 4 161 166
f 4 166 170
f 4 170 174
f 4 174 178
f 4 178 183
f 4 183 189
f 4 189 194
f 4 194 199
f 4 199 198
f 4 198 203
f 4 203 207
f 4 207 209
f 4 209 208
f 4 208 213
f 4 213 217
f 4 217 222
f 4 222 226
f 4 226 230
f 4 230 227
f 4 227 223
f 4 223 219
f 4 219 215
f 4 215 211
f 4 211 205
f 4 205 201
f 4 201 196
f 4 196 191
f 4 191 190
f 4 190 185
f 4 185 184
f 4 184 180
f 4 180 179
f 4 179 175
f 4 175 171
f 4 171 167
f 4 167 163
f 4 163 158
f 4 158 153
f 4 153 149
f 4 149 145
f 4 145 141
f 4 141 137
f 4 137 132
f 4 132 128
f 4 128 122
f 4 122 118
f 4 118 113
f 4 113 108
f 4 108 103
f 4 103 98
f 4 98 94
f 4 94 90
f 4 90 86
f 4 86 82
f 4 82 76
f 4 76 71
f 4 71 66
f 4 66 62
f 4 62 58
f 4 58 54
f 4 54 50
f 4 50 45
f 4 45 41
f 4 41 37
f 4 37 33
f 4 33 29
f 4 29 24
f 4 24 20
f 4 20 16
f 4 16 10
f 4 10 6
f 4 6 5
f 6 10 7
f 7 10 11
f 8 12 13
f 9 13 14
f 9 14 15
f 10 16 17
f 10 17 11
f 12 14 13
f 14 18 19
f 14 19 15
f 16 20 21
f 16 21 17
f 18 22 19
f 19 22 23
f 20 24 21
f 21 24 25
f 22 26 23
f 23 26 27
f 23 27 28
f 24 29 25
f 25 29 30
f 27 31 28
f 28 31 35
f 28 35 32
f 29 33 30
f 30 33 34
f 32 35 36
f 33 37 34
f 34 37 38
f 35 39 36
f 36 39 40
f 37 41 38
f 38 41 42
f 39 43 40
f 40 43 44
f 41 45 42
f 42 45 46
f 43 47 44
f 44 48 49
f 44 47 48
f 45 50 51
f 45 51 46
f 48 52 53
f 48 53 49
f 50 54 51
f 51 54 55
f 52 56 53
f 53 56 57
f 54 58 59
f 54 59 55
f 56 60 57
f 57 60 64
f 57 64 61
f 58 62 63
f 58 63 59
f 61 64 68
f 61 68 65
f 62 66 67
f 62 67 63
f 65 68 69
f 65 69 70
f 66 71 72
f 66 72 67
f 69 73 70
f 70 74 79
f 70 79 75
f 70 73 74
f 71 76 77
f 71 77 72
f 72 77 78
f 75 79 80
f 75 80 81
f 76 82 83
f 76 83 78
f 76 78 77
f 79 84 80
f 80 84 88
f 80 88 85
f 80 85 81
f 82 86 87
f 82 87 83
f 85 88 92
f 85 92 89
f 86 90 91
f 86 91 87
f 89 92 96
f 89 96 93
f 90 94 95
f 90 95 91
f 93 96 101
f 93 101 97
f 94 98 99
f 94 99 100
f 94 100 95
f 97 101 106
f 97 106 102
f 98 103 104
f 98 104 105
f 98 105 99
f 102 106 107
f 103 108 104
f 104 108 109
f 106 110 107
f 107 110 112
f 107 112 111
f 108 113 114
f 108 114 109
f 111 115 116
f 111 116 117
f 111 112 115
f 113 118 119
f 113 119 114
f 116 120 117
f 117 120 121
f 118 122 123
f 118 123 124
f 118 124 125
f 118 125 119
f 120 126 121
f 121 126 130
f 121 130 127
f 122 128 123
f 123 128 129
f 127 130 134
f 127 134 131
f 128 132 133
f 128 133 129
f 131 135 136
f 131 134 135
f 132 137 133
f 133 137 138
f 135 139 136
f 135 140 139
f 137 141 138
f 138 141 142
f 139 140 143
f 140 144 143
f 141 145 142
f 142 145 149
f 142 149 146
f 143 144 147
f 144 148 147
f 146 149 153
f 146 153 150
f 147 148 151
f 147 151 152
f 150 153 158
f 150 158 154
f 151 155 152
f 152 156 157
f 152 155 160
f 152 160 156
f 154 158 163
f 154 163 159
f 156 161 162
f 156 162 157
f 156 160 165
f 156 165 161
f 159 163 167
f 159 167 164
f 161 165 169
f 161 169 166
f 164 167 171
f 164 171 168
f 166 169 170
f 168 171 175
f 168 175 172
f 169 173 170
f 170 173 174
f 172 175 179
f 172 179 176
f 173 177 174
f 174 177 178
f 176 179 180
f 176 180 181
f 177 182 178
f 178 182 183
f 180 184 181
f 181 184 185
f 181 185 186
f 182 187 183
f 183 187 188
f 183 188 189
f 185 190 186
f 186 190 191
f 186 191 192
f 188 193 194
f 188 194 189
f 188 195 193
f 191 196 197
f 191 197 192
f 193 195 200
f 193 200 198
f 193 198 199
f 193 199 194
f 196 201 197
f 197 201 202
f 198 200 203
f 200 204 203
f 201 205 202
f 202 205 206
f 203 204 207
f 204 208 209
f 204 209 207
f 204 210 208
f 205 211 206
f 206 211 215
f 206 215 212
f 208 210 214
f 208 214 213
f 212 215 216
f 213 214 218
f 213 218 217
f 215 219 224
f 215 224 220
f 215 220 216
f 217 221 222
f 217 218 221
f 219 223 224
f 221 225 222
f 222 225 229
f 222 229 226
f 223 227 228
f 223 228 224
f 226 229 230
f 227 230 231
f 227 231 232
f 227 232 228
f 229 231 230

