# https://github.com/mikedh/trimesh
v -25.00418592 -25.24012121 17.46528027
v -24.63802024 -25.59311313 17.46528027
v -25.00418592 -25.24012121 18.01186680
v -25.00418592 -4.92665519 17.46528027
v -24.12337168 -26.08011359 17.46528027
v -24.63802024 -25.59311313 18.01186680
v -25.00418592 -25.20743592 18.37699839
v -24.62166021 -25.58004075 18.37699839
v -25.00418592 -4.92665519 18.01186680
v -20.09049903 0.00544686 17.46528027
v -23.85031883 -26.32851777 17.46528027
v -24.12337168 -26.08011359 18.01186680
v -25.00418592 -4.93972902 18.37699839
v -24.10701310 -26.06377094 18.37699839
v -25.00418592 -4.93319211 18.22589408
v -20.09049903 0.00544686 18.37699839
v -12.14932658 0.00544686 17.46528027
v -23.63766600 -26.51808611 17.46528027
v -23.63766600 -26.51808611 18.01186680
v -23.62130742 -26.50501373 18.37699839
v -12.14932658 0.00544686 18.37699839
v -12.14932658 -33.38511764 17.46528027
v -23.08401030 -27.00508657 17.46528027
v -23.08401030 -27.00508657 18.01186680
v -23.41117029 -26.68804733 18.37699839
v -12.14932658 -32.81313657 18.37699839
v -12.14932658 -33.38185027 18.01177701
v -12.84391227 -33.12690845 18.01186680
v -12.84391227 -33.12690845 17.46528027
v -22.59830317 -27.41364407 17.46528027
v -23.06513602 -26.98874682 18.37699839
v -22.59830317 -27.41364407 18.01186680
v -12.58344227 -33.19881378 18.37699839
v -12.14932658 -33.35896709 18.37691149
v -12.81245369 -33.11383317 18.37699839
v -12.99490796 -33.04192784 18.37699839
v -13.32961795 -32.93406984 18.01186680
v -13.32961795 -32.93406984 17.46528027
v -21.99054179 -27.90064453 17.46528027
v -22.57942889 -27.39730142 18.37699839
v -21.99054179 -27.90064453 18.01186680
v -21.97292608 -27.88430188 18.37699839
v -22.35167606 -27.58033502 18.37699839
v -13.29941794 -32.92099456 18.37699839
v -14.09340933 -32.58761267 18.37699839
v -14.09340933 -32.61049296 18.01186680
v -14.09340933 -32.61049296 17.46528027
v -21.50483611 -28.27978700 17.46528027
v -21.50483611 -28.27978700 18.01186680
v -21.66967467 -28.12290106 18.37699839
v -14.90627644 -32.22481285 18.37699839
v -14.93270073 -32.23788813 18.01186680
v -14.56527503 -32.40131170 17.46528027
v -20.89581469 -28.72756453 17.46528027
v -21.27582325 -28.42033029 18.37699839
v -21.48721895 -28.26344435 18.37699839
v -20.89581469 -28.72756453 18.01186680
v -15.08873072 -32.13983514 18.37699839
v -15.41840641 -32.00909686 18.01186680
v -14.93270073 -32.23788813 17.46528027
v -20.35600187 -29.11977937 17.46528027
v -20.67309471 -28.86157018 18.37699839
v -20.35600187 -29.11977937 18.01186680
v -15.39198212 -31.99602158 18.37699839
v -15.41840641 -32.00909686 17.46528027
v -16.03749352 -31.67571496 18.37699839
v -16.03749352 -31.70185972 18.01186680
v -20.08294903 -29.30608324 17.46528027
v -20.33586902 -29.10343673 18.37699839
v -19.87029475 -29.44989390 18.01186680
v -16.03749352 -31.70185972 17.46528027
v -16.54584921 -31.41096813 18.37699839
v -16.82771063 -31.26388720 18.37699839
v -16.85161776 -31.27696248 18.01186680
v -16.49551779 -31.46326344 17.46528027
v -19.87029475 -29.44989390 17.46528027
v -19.85016189 -29.43355125 18.37699839
v -19.54816906 -29.66234252 17.46528027
v -19.13292765 -29.93362699 18.01186680
v -19.11153622 -29.92055171 18.37699839
v -19.57333477 -29.61658485 18.37699839
v -17.01016491 -31.16583421 18.37699839
v -17.33732489 -31.01221854 18.01186680
v -17.06427205 -31.16256395 17.46528027
v -16.85161776 -31.27696248 17.46528027
v -19.13292765 -29.93362699 17.46528027
v -18.85861623 -30.10685558 17.46528027
v -18.64596339 -30.24086123 18.01186680
v -18.80828481 -30.11339032 18.37699839
v -17.31341631 -30.99914327 18.37699839
v -17.71607487 -30.76708173 18.37699839
v -17.98157772 -30.63961082 18.01186680
v -17.69971629 -30.80303729 17.46528027
v -17.33732489 -31.01221854 17.46528027
v -18.64596339 -30.24086123 17.46528027
v -18.62583054 -30.22778885 18.37699839
v -17.98157772 -30.61346606 18.37699839
v -18.39681913 -30.36506187 18.37699839
v -17.98157772 -30.63961082 17.46528027
f 1 2 6
f 1 6 3
f 1 3 7
f 1 7 13
f 1 13 15
f 1 15 9
f 1 9 4
f 1 4 10
f 1 10 17
f 1 17 22
f 1 22 29
f 1 29 38
f 1 38 47
f 1 47 53
f 1 53 60
f 1 60 65
f 1 65 71
f 1 71 75
f 1 75 85
f 1 85 84
f 1 84 94
f 1 94 93
f 1 93 99
f 1 99 95
f 1 95 87
f 1 87 86
f 1 86 78
f 1 78 76
f 1 76 68
f 1 68 61
f 1 61 54
f 1 54 48
f 1 48 39
f 1 39 30
f 1 30 23
f 1 23 18
f 1 18 11
f 1 11 5
f 1 5 2
f 2 5 12
f 2 12 6
f 3 6 8
f 3 8 7
f 4 9 16
f 4 16 10
f 5 11 12
f 6 12 8
f 7 8 14
f 7 14 20
f 7 20 25
f 7 25 31
f 7 31 40
f 7 40 43
f 7 43 42
f 7 42 50
f 7 50 56
f 7 56 55
f 7 55 62
f 7 62 69
f 7 69 77
f 7 77 81
f 7 81 80
f 7 80 89
f 7 89 96
f 7 96 98
f 7 98 97
f 7 97 91
f 7 91 90
f 7 90 82
f 7 82 73
f 7 73 72
f 7 72 66
f 7 66 64
f 7 64 58
f 7 58 51
f 7 51 45
f 7 45 44
f 7 44 36
f 7 36 35
f 7 35 33
f 7 33 26
f 7 26 21
f 7 21 16
f 7 16 13
f 8 12 14
f 9 15 16
f 10 16 21
f 10 21 17
f 11 18 19
f 11 19 12
f 12 19 20
f 12 20 14
f 13 16 15
f 17 21 26
f 17 26 34
f 17 34 27
f 17 27 22
f 18 23 24
f 18 24 19
f 19 24 20
f 20 24 25
f 22 27 28
f 22 28 29
f 23 30 32
f 23 32 24
f 24 31 25
f 24 32 40
f 24 40 31
f 26 33 34
f 27 34 28
f 28 35 36
f 28 36 37
f 28 37 38
f 28 38 29
f 28 34 33
f 28 33 35
f 30 39 41
f 30 41 32
f 32 41 42
f 32 42 43
f 32 43 40
f 36 44 37
f 37 44 45
f 37 45 46
f 37 46 47
f 37 47 38
f 39 48 49
f 39 49 41
f 41 49 50
f 41 50 42
f 45 51 52
f 45 52 46
f 46 53 47
f 46 52 53
f 48 54 57
f 48 57 49
f 49 55 56
f 49 56 50
f 49 57 55
f 51 58 52
f 52 58 59
f 52 59 65
f 52 65 60
f 52 60 53
f 54 61 63
f 54 63 57
f 55 57 62
f 57 63 62
f 58 64 59
f 59 64 66
f 59 66 67
f 59 67 71
f 59 71 65
f 61 68 63
f 62 63 69
f 63 68 70
f 63 70 77
f 63 77 69
f 66 72 67
f 67 72 73
f 67 73 74
f 67 74 75
f 67 75 71
f 68 76 70
f 70 76 78
f 70 78 79
f 70 79 80
f 70 80 81
f 70 81 77
f 73 82 74
f 74 82 83
f 74 83 84
f 74 84 85
f 74 85 75
f 78 86 79
f 79 86 87
f 79 87 88
f 79 88 89
f 79 89 80
f 82 90 83
f 83 90 91
f 83 91 92
f 83 92 93
f 83 93 94
f 83 94 84
f 87 95 88
f 88 95 99
f 88 99 92
f 88 92 96
f 88 96 89
f 91 97 92
f 92 97 98
f 92 98 96
f 92 99 93

