# https://github.com/mikedh/trimesh
v -12.14932658 -25.31800224 17.46528027
v -4.91506126 -25.31800224 17.46528027
v -12.14932658 -25.31800224 18.37699839
v -12.14932658 26.95820461 17.46528027
v -4.91506126 -25.31800224 18.01186680
v 0.00414439 -20.08833337 17.46528027
v -4.92695762 -25.31800224 18.37699839
v -12.14932658 26.95820461 18.37699839
v -4.48916613 26.95820461 17.46528027
v 0.00414439 -20.08833337 18.37699839
v 0.00414439 20.08595339 17.46528027
v -4.51414863 26.95820461 18.37699839
v -4.49035591 26.95820461 18.01186680
v 0.00414439 20.08595339 18.37699839
f 1 2 5
f 1 5 7
f 1 7 3
f 1 3 8
f 1 8 4
f 1 4 9
f 1 9 11
f 1 11 6
f 1 6 2
f 2 6 10
f 2 10 5
f 3 7 10
f 3 10 14
f 3 14 12
f 3 12 8
f 4 8 12
f 4 12 13
f 4 13 9
f 5 10 7
f 6 11 14
f 6 14 10
f 9 13 14
f 9 14 11
f 12 14 13

