# https://github.com/mikedh/trimesh
v 19.92866293 0.48545492 26.81088775
v 19.77711978 0.48545492 29.67962485
v 19.44372195 0.21197138 36.09422111
v 19.44372195 -0.20580990 36.09422111
v 19.87887028 -0.48611829 27.73612143
v 19.92649917 -0.48611829 26.81088775
v 19.90918036 0.91591111 26.81088775
v 19.43506400 0.85984949 35.94432468
v 19.31382803 0.48545492 38.42539388
v 18.46951102 0.12861016 54.52133156
v 18.46951102 -0.12927353 54.52133156
v 19.05620250 -0.48611829 43.28415462
v 19.43506400 -0.85368791 35.93915424
v 19.88320071 -1.45817903 26.81088775
v 19.92433395 -0.53779255 26.81088775
v -2.18810864 0.91591111 26.81088775
v 19.43289734 0.91591111 35.90814318
v 18.46734581 0.91591111 54.09748216
v 18.46085162 0.77648808 54.35592670
v 17.87199493 0.48545492 65.63445413
v 17.76807921 0.48545492 67.57796045
v 17.19437611 0.48545492 78.26723363
v 17.19437611 -0.48611829 78.26723363
v 17.76807921 -0.48611829 67.57796045
v 17.87199493 -0.48611829 65.63445413
v 18.46085162 -0.77715154 54.35592670
v 18.47817043 -1.12180902 53.70981498
v 19.45238280 -1.15398351 35.28787570
v 18.45219077 -1.76919950 53.22393876
v 18.46951102 -1.96907160 52.58299604
v 19.79444003 -2.42975242 26.81088775
v 17.86982972 -1.45817903 64.66270242
v -2.18810864 0.91591111 76.68555097
v -2.18810864 -4.06431587 26.81088775
v 17.49746386 0.91591111 72.28682113
v 17.12076902 0.48545492 79.61631598
v 17.12076902 -0.48611829 79.61631598
v 17.50179428 -1.07159727 72.10591075
v 17.49313343 -1.92812229 70.95841765
v 19.78794439 -2.48142660 26.81088775
v 17.71395614 -1.45817903 67.57796045
v -2.18810864 0.91396115 76.83027986
v -2.18377894 0.91591111 76.83027986
v 19.56062895 -4.06431587 26.81088775
v -2.18810864 -4.06431587 76.58734157
v 17.09695603 0.91591111 79.61631598
v 17.10128501 -0.85856290 79.61631598
v 17.06664595 -1.45817903 79.61631598
v 17.45633061 -1.42064211 72.43155002
v 17.29612661 -1.45817903 75.35197704
v 16.97572006 -2.42975242 79.23898679
v 17.51045368 -2.06072020 70.30713621
v 19.66237945 -3.43545018 26.81088775
v 3.48613376 -4.06431587 79.61631598
v 4.27199763 -3.28920202 79.61631598
v 5.25486941 -2.33030382 79.61631598
v 8.22296804 0.51714197 79.61631598
v 8.68842500 0.91591111 79.61631598
v 17.49962907 -2.94551980 68.17238152
v 17.51694932 -3.02985591 67.57796045
v 16.78737264 -3.40181335 79.61631598
v 16.72458872 -3.68553367 79.61631598
v 16.63799326 -4.06431587 79.61631598
v 16.95407083 -2.42975242 79.61631598
v 17.13375885 -2.42975242 76.32373020
v 16.89128836 -2.80170950 79.61631598
v 17.48230882 -2.83388390 68.82366296
v 17.53210291 -2.21330540 69.52146387
f 1 2 3
f 1 3 4
f 1 4 5
f 1 5 6
f 1 6 15
f 1 15 14
f 1 14 31
f 1 31 40
f 1 40 53
f 1 53 44
f 1 44 34
f 1 34 16
f 1 16 7
f 1 7 8
f 1 8 2
f 2 8 9
f 2 9 3
f 3 9 10
f 3 10 11
f 3 11 4
f 4 11 12
f 4 12 5
f 5 13 14
f 5 14 15
f 5 15 6
f 5 12 13
f 7 16 33
f 7 33 43
f 7 43 58
f 7 58 46
f 7 46 35
f 7 35 18
f 7 18 17
f 7 17 8
f 8 17 18
f 8 18 19
f 8 19 20
f 8 20 9
f 9 20 10
f 10 20 21
f 10 21 22
f 10 22 23
f 10 23 11
f 11 23 24
f 11 24 25
f 11 25 12
f 12 25 13
f 13 26 27
f 13 27 28
f 13 28 14
f 13 25 26
f 14 29 30
f 14 30 31
f 14 28 27
f 14 27 32
f 14 32 29
f 16 34 45
f 16 45 42
f 16 42 33
f 18 35 19
f 19 35 20
f 20 35 21
f 21 35 22
f 22 36 37
f 22 37 23
f 22 35 36
f 23 37 38
f 23 38 24
f 24 38 25
f 25 38 26
f 26 38 27
f 27 38 32
f 29 32 30
f 30 32 39
f 30 39 31
f 31 39 40
f 32 38 41
f 32 41 39
f 33 42 43
f 34 44 63
f 34 63 54
f 34 54 45
f 35 46 36
f 36 46 58
f 36 58 57
f 36 57 56
f 36 56 55
f 36 55 54
f 36 54 63
f 36 63 62
f 36 62 61
f 36 61 66
f 36 66 64
f 36 64 48
f 36 48 47
f 36 47 37
f 37 47 38
f 38 47 48
f 38 48 49
f 38 49 41
f 39 41 49
f 39 49 50
f 39 50 48
f 39 48 51
f 39 51 52
f 39 52 53
f 39 53 40
f 42 54 55
f 42 55 56
f 42 56 57
f 42 57 58
f 42 58 43
f 42 45 54
f 44 53 59
f 44 59 60
f 44 60 61
f 44 61 62
f 44 62 63
f 48 50 49
f 48 64 51
f 51 65 52
f 51 64 66
f 51 66 59
f 51 59 67
f 51 67 65
f 52 65 68
f 52 68 53
f 53 68 67
f 53 67 59
f 59 66 61
f 59 61 60
f 65 67 68

