# https://github.com/mikedh/trimesh
v 34.84913498 -6.78178102 18.37700129
v 34.80820016 -6.78178102 18.98409211
v 34.74679792 -7.29019826 18.37700129
v -34.84957368 -6.78178102 18.37700129
v 34.68539568 -6.78178102 19.27002472
v 34.52847787 -7.64869806 19.27002472
v 34.70586309 -7.29019826 18.98383142
v 34.66492826 -7.65521615 18.37700129
v -34.74723661 -7.29019826 18.37700129
v -34.80863885 -6.78178102 18.98514068
v -34.66536696 -6.78178102 19.27002472
v 34.30333633 -8.71376681 19.27002472
v 34.48754305 -8.26270960 18.98383142
v 34.52847787 -8.26270960 18.37700129
v -34.52891657 -8.26270960 18.37700129
v -34.70630179 -7.29019826 18.98383142
v -34.58349731 -7.29019826 19.27002472
v 34.11912671 -9.53244887 19.27002472
v 34.24193119 -9.23391748 18.98383142
v 34.28286602 -9.23391748 18.37700129
v -34.28330471 -9.23391748 18.37700129
v -34.48798174 -8.26270960 18.98383142
v -34.04451726 -9.81664133 19.27002472
v -34.17414614 -9.23391748 19.27002472
v -34.38564468 -8.26270960 19.27002472
v 34.04407856 -9.81664133 19.27002472
v 34.06454598 -9.88573406 18.98383142
v 34.08501339 -9.94830870 18.37700129
v -34.08545209 -9.94830870 18.37700129
v -34.06498467 -9.88573406 18.98383142
v -34.24236989 -9.23391748 18.98383142
v -33.91489127 -10.37198937 18.98383142
v -33.65563641 -11.17763525 18.98383142
v -33.06890003 -12.70810158 19.27002472
v 33.97585482 -10.02913413 19.27002472
v 33.91445258 -10.37198937 18.98383142
v 33.93491999 -10.43456401 18.37700129
v -33.93535869 -10.43456401 18.37700129
v -33.69657123 -11.17763525 18.37700129
v -33.48507270 -11.78512870 18.37700129
v -33.31450899 -12.15014732 18.98383142
v -33.08936744 -12.76285466 18.98383142
v -32.89833632 -13.24911070 18.98383142
v -32.54356879 -14.09256162 18.98383142
v -32.16833094 -14.79000626 19.27002472
v 33.17079840 -12.44216135 19.27002472
v 33.65519771 -11.17763525 18.98383142
v 33.83940443 -10.73700727 18.37700129
v -33.35544671 -12.15014732 18.37700129
v -33.19852891 -12.58295375 18.37700129
v -33.04161111 -12.99620519 18.37700129
v -32.91880373 -13.29995192 18.37700129
v -32.58450361 -14.09256162 18.37700129
v -32.35253766 -14.61531923 18.37700129
v -32.20244137 -14.85909898 18.98383142
v -31.97047832 -15.34405010 18.98383142
v -31.62935090 -16.03627939 18.98383142
v -31.20635672 -16.72199133 19.27002472
v 33.31407029 -12.15014732 18.98383142
v 33.06846133 -12.70810158 19.27002472
v 33.08892874 -12.76155119 18.98383142
v 33.69613254 -11.17763525 18.37700129
v -32.22290878 -14.90211792 18.37700129
v -31.99094573 -15.38837395 18.37700129
v -31.79991461 -15.77685652 18.37700129
v -31.67028573 -16.03627939 18.37700129
v -31.24047004 -16.78456525 18.98383142
v -30.97439077 -17.27082128 18.98383142
v -30.17615876 -18.54968702 19.27002472
v 33.27313546 -12.37958598 18.37700129
v 33.35500801 -12.15014732 18.37700129
v 32.98659168 -12.91798671 19.27002472
v 32.89789762 -13.24780723 18.98383142
v 32.99341318 -13.11613913 18.37700129
v 33.10939616 -12.81239241 18.37700129
v -31.16542190 -17.00748799 18.37700129
v -30.99485819 -17.30993125 18.37700129
v -30.61279884 -17.97999862 18.37700129
v -30.56503961 -17.97999862 18.98383142
v -30.20344768 -18.59140393 18.98383142
v -29.89643648 -19.07765852 18.98383142
v -29.41203716 -19.81681862 18.98383142
v -29.36428083 -19.74772589 19.27002472
v 32.54313009 -14.09256162 18.98383142
v 32.34527746 -14.39761182 19.27002472
v 32.91836504 -13.29864844 18.37700129
v -30.22391509 -18.62529711 18.37700129
v -29.91690389 -19.11155315 18.37700129
v -29.61671419 -19.57304031 18.37700129
v -29.43250458 -19.85071469 18.37700129
v -29.30970010 -20.03322255 18.37700129
v -29.25511936 -20.09840342 18.52228343
v -29.24147635 -20.09840342 18.70865101
v -29.22100894 -20.09840342 18.98383142
v -29.02997782 -20.09840342 19.27002472
v 32.58406492 -14.09256162 18.37700129
v 32.20200267 -14.85779551 18.98383142
v 32.16789225 -14.78870278 19.27002472
v -29.26194377 -20.09840342 18.37700129
v 29.08411985 -20.09840342 19.27002472
v 32.22247008 -14.90081445 18.37700129
v 32.05190927 -15.03769643 19.27002472
v 31.97003962 -15.34274663 18.98383142
v 32.07919819 -15.20456117 18.37700129
v 29.26150507 -20.09840342 18.37700129
v 29.14552209 -20.09840342 19.19537340
v 29.17281101 -20.02540027 19.27002472
v 31.40377065 -16.33611570 19.27002472
v 31.99050703 -15.38707048 18.37700129
v 31.62209070 -16.03627939 18.98383142
v 31.66984703 -16.03627939 18.37700129
v 29.43206588 -19.85071469 18.37700129
v 29.22057024 -20.09840342 18.98383142
v 29.18645692 -20.09840342 19.08925337
v 30.03244817 -18.77391179 19.27002472
v 31.20591803 -16.72068786 19.27002472
v 31.24003135 -16.78326177 18.98383142
v 31.52657513 -16.31656072 18.37700129
v 29.91646519 -19.11024968 18.37700129
v 29.41159847 -19.81681862 18.98383142
v 29.89599778 -19.07635505 18.98383142
v 30.17572006 -18.54968702 19.27002472
v 31.06946764 -16.97228989 19.27002472
v 30.97395208 -17.26951781 18.98383142
v 31.09675656 -17.12611846 18.37700129
v 31.26049876 -16.82367521 18.37700129
v 30.03244817 -18.92774037 18.37700129
v 30.20300898 -18.59140393 18.98383142
v 30.34628087 -18.26810222 19.27002472
v 30.84432609 -17.57587148 18.37700129
v 30.99441949 -17.30862777 18.37700129
v 30.56460091 -17.97999862 18.98383142
v 30.22347639 -18.62399364 18.37700129
v 30.47590975 -18.20943872 18.37700129
f 1 2 3
f 1 3 8
f 1 8 14
f 1 14 20
f 1 20 28
f 1 28 37
f 1 37 48
f 1 48 62
f 1 62 71
f 1 71 70
f 1 70 75
f 1 75 74
f 1 74 86
f 1 86 96
f 1 96 101
f 1 101 104
f 1 104 109
f 1 109 111
f 1 111 118
f 1 118 126
f 1 126 125
f 1 125 131
f 1 131 130
f 1 130 134
f 1 134 133
f 1 133 127
f 1 127 119
f 1 119 112
f 1 112 105
f 1 105 99
f 1 99 91
f 1 91 90
f 1 90 89
f 1 89 88
f 1 88 87
f 1 87 78
f 1 78 77
f 1 77 76
f 1 76 66
f 1 66 65
f 1 65 64
f 1 64 63
f 1 63 54
f 1 54 53
f 1 53 52
f 1 52 51
f 1 51 50
f 1 50 49
f 1 49 40
f 1 40 39
f 1 39 38
f 1 38 29
f 1 29 21
f 1 21 15
f 1 15 9
f 1 9 4
f 1 4 10
f 1 10 11
f 1 11 5
f 1 5 2
f 2 5 6
f 2 6 7
f 2 7 3
f 3 7 8
f 4 9 10
f 5 11 17
f 5 17 25
f 5 25 24
f 5 24 23
f 5 23 34
f 5 34 45
f 5 45 58
f 5 58 69
f 5 69 83
f 5 83 95
f 5 95 100
f 5 100 107
f 5 107 115
f 5 115 122
f 5 122 129
f 5 129 123
f 5 123 116
f 5 116 108
f 5 108 102
f 5 102 98
f 5 98 85
f 5 85 72
f 5 72 60
f 5 60 46
f 5 46 35
f 5 35 26
f 5 26 18
f 5 18 12
f 5 12 6
f 6 12 7
f 7 12 13
f 7 13 8
f 8 13 14
f 9 15 22
f 9 22 16
f 9 16 10
f 10 16 17
f 10 17 11
f 12 18 13
f 13 18 19
f 13 19 20
f 13 20 14
f 15 21 31
f 15 31 22
f 16 22 23
f 16 23 24
f 16 24 25
f 16 25 17
f 18 26 19
f 19 26 27
f 19 27 20
f 20 27 28
f 21 29 30
f 21 30 31
f 22 31 23
f 23 31 30
f 23 30 32
f 23 32 33
f 23 33 34
f 26 35 36
f 26 36 27
f 27 36 37
f 27 37 28
f 29 38 32
f 29 32 30
f 32 38 39
f 32 39 33
f 33 39 40
f 33 40 41
f 33 41 34
f 34 42 43
f 34 43 44
f 34 44 45
f 34 41 42
f 35 46 47
f 35 47 36
f 36 47 48
f 36 48 37
f 40 49 41
f 41 49 50
f 41 50 42
f 42 51 43
f 42 50 51
f 43 51 52
f 43 52 44
f 44 52 53
f 44 53 54
f 44 54 55
f 44 55 45
f 45 55 56
f 45 56 57
f 45 57 58
f 46 59 47
f 46 60 61
f 46 61 59
f 47 59 71
f 47 71 62
f 47 62 48
f 54 63 55
f 55 63 64
f 55 64 56
f 56 64 65
f 56 65 57
f 57 65 66
f 57 66 67
f 57 67 58
f 58 67 68
f 58 68 69
f 59 70 71
f 59 61 70
f 60 72 61
f 61 72 73
f 61 73 74
f 61 74 75
f 61 75 70
f 66 76 67
f 67 76 68
f 68 76 77
f 68 77 78
f 68 78 79
f 68 79 69
f 69 79 80
f 69 80 81
f 69 81 82
f 69 82 83
f 72 84 73
f 72 85 84
f 73 84 86
f 73 86 74
f 78 87 80
f 78 80 79
f 80 87 88
f 80 88 81
f 81 88 89
f 81 89 82
f 82 89 90
f 82 90 91
f 82 91 92
f 82 92 93
f 82 93 94
f 82 94 83
f 83 94 95
f 84 96 86
f 84 85 97
f 84 97 96
f 85 98 97
f 91 99 92
f 92 99 105
f 92 105 113
f 92 113 114
f 92 114 106
f 92 106 100
f 92 100 95
f 92 95 94
f 92 94 93
f 96 97 101
f 97 98 102
f 97 102 103
f 97 103 104
f 97 104 101
f 100 106 107
f 102 108 103
f 103 109 104
f 103 108 110
f 103 110 111
f 103 111 109
f 105 112 113
f 106 114 107
f 107 114 115
f 108 116 117
f 108 117 110
f 110 117 118
f 110 118 111
f 112 119 121
f 112 121 120
f 112 120 113
f 113 120 115
f 113 115 114
f 115 120 121
f 115 121 122
f 116 123 117
f 117 123 124
f 117 124 125
f 117 125 126
f 117 126 118
f 119 127 121
f 121 127 128
f 121 128 122
f 122 128 129
f 123 129 124
f 124 130 131
f 124 131 125
f 124 129 132
f 124 132 130
f 127 133 128
f 128 133 134
f 128 134 132
f 128 132 129
f 130 132 134

