# https://github.com/mikedh/trimesh
v 0.48726992 35.52627052 14.73830593
v 0.84500647 35.51630040 14.73830593
v 0.78464773 35.51740691 13.82658781
v 0.48726992 35.52516112 13.82658781
v 0.00439929 35.52516112 13.82658781
v 0.00439929 35.52516112 14.73830593
v 1.45890033 35.49857607 13.82658781
v 1.45890033 35.49857607 14.73830593
v 0.00439929 29.90785259 13.82658781
v 0.00439929 29.90896199 14.73830593
v 1.75627815 35.48306765 13.82658781
v 1.81663689 35.47974524 14.73830593
v 0.00439929 29.90785259 14.43404071
v 4.88610548 24.21078747 13.82658781
v 4.88610548 24.21078747 14.73830593
v 2.43053075 35.44540599 13.82658781
v 2.43053075 35.44540599 14.73830593
v 15.04405796 24.21078747 13.82658781
v 15.04405796 24.21078747 14.73830593
v 2.78826730 35.41549564 14.73830593
v 3.40216080 35.36343206 13.82658781
v 15.04405796 32.18534909 13.82658781
v 15.04405796 32.18534909 14.73830593
v 3.40216080 35.36343206 14.73830593
v 3.69953862 35.33130870 13.82658781
v 14.93217223 32.23741267 13.82658781
v 14.93217223 32.23741267 14.12424588
v 14.93070076 32.23741267 14.73830593
v 3.75989736 35.32466389 14.73830593
v 4.37379122 35.25709188 14.12424588
v 4.37379122 35.25709188 13.82658781
v 14.34919565 32.49773060 13.82658781
v 14.09303725 32.61182788 14.73830593
v 14.40072047 32.47446796 14.73830593
v 4.37379122 35.25598248 14.73830593
v 4.73152777 35.20724420 14.73830593
v 5.34689348 35.12194786 14.73830593
v 5.34689348 35.12194786 13.82658781
v 14.09303725 32.61182788 13.82658781
v 13.32751081 32.93417661 14.73830593
v 5.99317501 35.01782069 14.73830593
v 5.99464721 35.01782069 14.12424588
v 5.99464721 35.01782069 13.82658781
v 13.56158548 32.83558775 13.82658781
v 13.32751081 32.93417661 14.12424588
v 13.14790679 33.00507102 14.73830593
v 6.48046223 34.93031135 14.73830593
v 6.48046223 34.93141785 14.12424588
v 6.33177296 34.95800290 13.82658781
v 13.32603933 32.93417661 13.82658781
v 13.17735079 32.99288790 13.82658781
v 12.84022358 33.12581312 13.82658781
v 12.84169650 33.12581312 14.73830593
v 7.29015395 34.77079529 14.73830593
v 6.48046223 34.93141785 13.82658781
v 12.36029663 33.30526651 13.82658781
v 12.14830567 33.38391514 14.73830593
v 7.58605956 34.70433268 13.82658781
v 7.29015395 34.77079529 13.82658781
v 8.26031253 34.55257374 14.73830593
v 12.14830567 33.38391514 13.82658781
v 11.17667489 33.72177518 14.73830593
v 8.26031253 34.55257374 13.82658781
v 9.23341478 34.30444183 14.73830593
v 11.17667489 33.72177518 13.82658781
v 10.68349959 33.88017894 13.82658781
v 10.46561838 33.94996686 14.73830593
v 9.23341478 34.30444183 13.82658781
v 9.97980335 34.09508099 14.73830593
v 10.46561838 33.94996686 13.82658781
v 9.97980335 34.09508099 13.82658781
f 1 2 3
f 1 3 4
f 1 4 5
f 1 5 6
f 1 6 10
f 1 10 15
f 1 15 19
f 1 19 23
f 1 23 28
f 1 28 34
f 1 34 33
f 1 33 40
f 1 40 46
f 1 46 53
f 1 53 57
f 1 57 62
f 1 62 67
f 1 67 69
f 1 69 64
f 1 64 60
f 1 60 54
f 1 54 47
f 1 47 41
f 1 41 37
f 1 37 36
f 1 36 35
f 1 35 29
f 1 29 24
f 1 24 20
f 1 20 17
f 1 17 12
f 1 12 8
f 1 8 2
f 2 7 3
f 2 8 7
f 3 7 11
f 3 11 16
f 3 16 21
f 3 21 25
f 3 25 31
f 3 31 38
f 3 38 43
f 3 43 49
f 3 49 55
f 3 55 59
f 3 59 58
f 3 58 63
f 3 63 68
f 3 68 71
f 3 71 70
f 3 70 66
f 3 66 65
f 3 65 61
f 3 61 56
f 3 56 52
f 3 52 51
f 3 51 50
f 3 50 44
f 3 44 39
f 3 39 32
f 3 32 26
f 3 26 22
f 3 22 18
f 3 18 14
f 3 14 9
f 3 9 5
f 3 5 4
f 5 9 13
f 5 13 10
f 5 10 6
f 7 8 11
f 8 12 11
f 9 14 15
f 9 15 13
f 10 13 15
f 11 12 16
f 12 17 16
f 14 18 19
f 14 19 15
f 16 17 20
f 16 20 21
f 18 22 23
f 18 23 19
f 20 24 21
f 21 24 25
f 22 26 27
f 22 27 23
f 23 27 28
f 24 29 25
f 25 29 30
f 25 30 31
f 26 32 27
f 27 32 33
f 27 33 34
f 27 34 28
f 29 35 30
f 30 35 36
f 30 36 37
f 30 37 38
f 30 38 31
f 32 39 33
f 33 39 45
f 33 45 40
f 37 41 42
f 37 42 43
f 37 43 38
f 39 44 45
f 40 45 46
f 41 47 48
f 41 48 49
f 41 49 42
f 42 49 43
f 44 50 45
f 45 50 51
f 45 51 52
f 45 52 53
f 45 53 46
f 47 54 48
f 48 54 59
f 48 59 55
f 48 55 49
f 52 56 53
f 53 56 57
f 54 58 59
f 54 60 58
f 56 61 57
f 57 61 65
f 57 65 62
f 58 60 63
f 60 64 68
f 60 68 63
f 62 65 66
f 62 66 67
f 64 69 71
f 64 71 68
f 66 70 67
f 67 70 71
f 67 71 69

