# https://github.com/mikedh/trimesh
v -35.43287468 -2.57945333 7.38878396
v -25.84776719 -2.57945333 7.38878396
v -35.43185218 -2.57945333 6.37172210
v -35.36748092 -3.38048347 6.37172210
v -35.36543592 -3.40267292 7.38878396
v -25.75580866 -2.57945333 7.38858409
v -24.99562065 -2.67042919 7.38878396
v -25.75580866 -2.57945333 6.37172210
v -35.36543592 -3.40267292 6.37172210
v -35.25713184 -4.37455932 7.38878396
v -24.99562065 -2.67042919 6.37172210
v -24.99562065 -25.24793625 7.38878396
v -35.25917395 -4.35237060 6.37172210
v -35.25713184 -4.37455932 7.32058918
v -35.12634432 -5.32425700 6.37172210
v -35.12327971 -5.34644645 7.38878396
v -24.99562065 -25.24571745 6.37172210
v -25.12334067 -25.12145598 7.38878396
v -25.12334067 -25.12145598 6.37172210
v -35.12327971 -5.34644645 6.37172210
v -35.02008235 -6.00324664 7.38878396
v -25.56371738 -24.67101647 7.38878396
v -25.60867559 -24.62441878 6.37172210
v -35.01804025 -6.01434136 6.37172210
v -35.02008235 -6.00324664 7.32058918
v -34.93221093 -6.48918984 7.38878396
v -26.08379418 -24.12516278 7.38878396
v -26.08379418 -24.12516278 7.32058918
v -26.08277168 -24.12516278 6.37172210
v -34.93221093 -6.48697104 6.37172210
v -34.93221093 -6.48918984 7.32058918
v -34.78303576 -7.23474709 7.38878396
v -26.52212588 -23.63921958 7.38878396
v -26.52212588 -23.63921958 6.37172210
v -34.77486154 -7.27246886 6.37172210
v -34.77179693 -7.29021998 7.32058918
v -34.77179693 -7.29021998 7.38878396
v -27.00848329 -23.08227044 7.38878396
v -27.00848329 -23.08227044 6.37172210
v -34.55722799 -8.23991694 6.37172210
v -34.56846682 -8.19553950 7.38878396
v -27.38755624 -22.63182948 7.38878396
v -27.42740484 -22.58301299 6.37172210
v -34.55211838 -8.26210638 6.37172210
v -34.55314088 -8.26210638 7.32058918
v -34.55314088 -8.26210638 7.38878396
v -27.90252053 -21.99278041 7.38878396
v -27.90252053 -21.99278041 6.37172210
v -34.31302678 -9.21180407 6.37172210
v -34.32426561 -9.16742590 7.38878396
v -28.28159348 -21.50683721 7.38878396
v -28.28159348 -21.50683721 6.37172210
v -34.30689757 -9.23399351 6.37172210
v -34.30689757 -9.23399351 7.38878396
v -28.73014440 -20.89663543 7.38878396
v -28.73014440 -20.89663543 7.32058918
v -28.72912190 -20.89663543 6.37172210
v -34.10254496 -9.96845604 6.37172210
v -34.11174168 -9.93517187 7.38878396
v -29.12045618 -20.35521934 7.38878396
v -29.12045618 -20.35521934 6.37172210
v -34.09743534 -9.98620716 7.38878396
v -34.09437073 -9.99730188 6.37172210
v -29.44946131 -19.86927469 7.38878396
v -29.44946131 -19.86927469 6.37172210
v -34.08721902 -10.02171013 7.38878396
v -33.95030227 -10.47215109 6.37172210
v -29.48318069 -19.81823940 7.38878396
v -29.93479622 -19.13259409 6.37172210
v -33.95030227 -10.47215109 7.38878396
v -33.72755912 -11.16223472 6.37172210
v -33.73880084 -11.12895056 7.38878396
v -29.93479622 -19.13259409 7.38878396
v -30.24234619 -18.64665089 6.37172210
v -33.72245240 -11.17776705 6.37172210
v -33.72245240 -11.17776705 7.38878396
v -30.24234619 -18.64665089 7.38878396
v -30.64900641 -17.96544173 6.37172210
v -33.38527016 -12.14965345 6.37172210
v -33.40877322 -12.08308656 7.38878396
v -30.66637445 -17.93437708 7.38878396
v -31.01377302 -17.33304905 7.38878396
v -31.01377302 -17.33304905 6.37172210
v -33.38527016 -12.14965345 7.38878396
v -33.12267840 -12.85527086 6.37172210
v -33.12778801 -12.84417541 7.32058918
v -31.27840688 -16.84710585 7.38878396
v -31.27125517 -16.86042010 6.37172210
v -33.12778801 -12.84417541 7.38878396
v -32.93365463 -13.33011861 6.37172210
v -31.27840688 -16.84710585 6.37172210
v -31.30803916 -16.79163296 7.38878396
v -32.93365463 -13.33011861 7.38878396
v -32.61180122 -14.09120891 6.37172210
v -31.70652515 -16.02166892 6.37172210
v -31.69937054 -16.03498172 7.38878396
v -32.61180122 -14.09120891 7.38878396
v -32.24601211 -14.90777064 6.37172210
v -32.26338305 -14.87004960 7.38878396
v -31.72082859 -15.99282162 7.38878396
v -32.00896551 -15.41368449 7.38878396
v -32.00896551 -15.41368449 6.37172210
v -32.23170867 -14.93883529 6.37172210
v -32.22148945 -14.96324353 7.38878396
f 1 2 6
f 1 6 8
f 1 8 3
f 1 3 4
f 1 4 5
f 1 5 10
f 1 10 16
f 1 16 21
f 1 21 26
f 1 26 32
f 1 32 37
f 1 37 41
f 1 41 46
f 1 46 50
f 1 50 54
f 1 54 59
f 1 59 62
f 1 62 66
f 1 66 70
f 1 70 72
f 1 72 76
f 1 76 80
f 1 80 84
f 1 84 89
f 1 89 93
f 1 93 97
f 1 97 99
f 1 99 104
f 1 104 101
f 1 101 100
f 1 100 96
f 1 96 92
f 1 92 87
f 1 87 82
f 1 82 81
f 1 81 77
f 1 77 73
f 1 73 68
f 1 68 64
f 1 64 60
f 1 60 55
f 1 55 51
f 1 51 47
f 1 47 42
f 1 42 38
f 1 38 33
f 1 33 27
f 1 27 22
f 1 22 18
f 1 18 12
f 1 12 7
f 1 7 2
f 2 7 6
f 3 8 11
f 3 11 17
f 3 17 19
f 3 19 23
f 3 23 29
f 3 29 34
f 3 34 39
f 3 39 43
f 3 43 48
f 3 48 52
f 3 52 57
f 3 57 61
f 3 61 65
f 3 65 69
f 3 69 74
f 3 74 78
f 3 78 83
f 3 83 88
f 3 88 91
f 3 91 95
f 3 95 102
f 3 102 103
f 3 103 98
f 3 98 94
f 3 94 90
f 3 90 85
f 3 85 79
f 3 79 75
f 3 75 71
f 3 71 67
f 3 67 63
f 3 63 58
f 3 58 53
f 3 53 49
f 3 49 44
f 3 44 40
f 3 40 35
f 3 35 30
f 3 30 24
f 3 24 20
f 3 20 15
f 3 15 13
f 3 13 9
f 3 9 4
f 4 9 5
f 5 9 14
f 5 14 10
f 6 7 11
f 6 11 8
f 7 12 17
f 7 17 11
f 9 13 14
f 10 14 15
f 10 15 16
f 12 18 19
f 12 19 17
f 13 15 14
f 15 20 16
f 16 20 25
f 16 25 21
f 18 22 19
f 19 22 23
f 20 24 25
f 21 25 31
f 21 31 26
f 22 27 23
f 23 27 28
f 23 28 29
f 24 30 31
f 24 31 25
f 26 31 32
f 27 33 34
f 27 34 28
f 28 34 29
f 30 35 32
f 30 32 31
f 32 35 36
f 32 36 37
f 33 38 39
f 33 39 34
f 35 40 41
f 35 41 36
f 36 41 37
f 38 42 39
f 39 42 43
f 40 44 45
f 40 45 41
f 41 45 46
f 42 47 43
f 43 47 48
f 44 49 45
f 45 49 50
f 45 50 46
f 47 51 52
f 47 52 48
f 49 53 54
f 49 54 50
f 51 55 56
f 51 56 52
f 52 56 57
f 53 58 54
f 54 58 59
f 55 60 61
f 55 61 56
f 56 61 57
f 58 62 59
f 58 63 62
f 60 64 65
f 60 65 61
f 62 63 66
f 63 67 66
f 64 68 65
f 65 68 69
f 66 67 70
f 67 71 72
f 67 72 70
f 68 73 69
f 69 73 77
f 69 77 74
f 71 75 72
f 72 75 76
f 74 77 78
f 75 79 80
f 75 80 76
f 77 81 78
f 78 81 82
f 78 82 83
f 79 84 80
f 79 85 86
f 79 86 89
f 79 89 84
f 82 87 88
f 82 88 83
f 85 90 86
f 86 90 93
f 86 93 89
f 87 91 88
f 87 92 91
f 90 94 97
f 90 97 93
f 91 92 95
f 92 96 95
f 94 98 99
f 94 99 97
f 95 96 100
f 95 100 101
f 95 101 102
f 98 103 104
f 98 104 99
f 101 104 102
f 102 104 103

