# https://github.com/mikedh/trimesh
v -29.33225596 2.32925465 17.50499853
v -29.33225596 2.32925465 17.46528027
v -29.33423434 2.32925465 18.01186680
v -28.80073178 -3.09017301 18.01186680
v -28.79875629 -3.09017301 17.46528027
v -35.45105088 2.32925465 17.46528027
v -29.33818531 2.32925465 18.06372183
v -28.83300576 -3.09017301 18.37699839
v -29.36255446 2.32925465 18.37699839
v -35.39045680 -3.09017301 17.46528027
v -35.47608045 1.88258688 17.46528027
v -35.45105088 2.32925465 18.01186680
v -35.36740561 -3.09017301 18.37699839
v -35.42799970 2.32925465 18.37699839
v -35.39045680 -3.09017301 18.01186680
v -35.44512443 -2.42971984 17.46528027
v -35.49913163 1.45766909 17.46528027
v -35.49913163 1.45766909 18.01186680
v -35.42207035 -2.42971984 18.37699839
v -35.45566228 1.82264236 18.37699839
v -35.44512443 -2.42971984 18.01186680
v -35.46883604 -2.00427151 17.46528027
v -35.52745464 0.48582179 17.46528027
v -35.52679711 0.48582179 18.01186680
v -35.50374303 0.48582179 18.37699839
v -35.49320518 0.85079497 18.37699839
v -35.47542292 1.45766909 18.37699839
v -35.47542292 -1.45787272 18.37699839
v -35.49913163 -1.45787272 18.01186680
v -35.49913163 -1.45787272 17.46528027
v -35.52679711 -0.48602546 17.46528027
v -35.52679711 -0.48602546 18.01186680
v -35.50374303 -0.48602546 18.37699839
v -35.48661830 -1.09289954 18.37699839
v -35.51164787 -1.03242430 17.46528027
f 1 2 6
f 1 6 12
f 1 12 14
f 1 14 9
f 1 9 7
f 1 7 3
f 1 3 4
f 1 4 5
f 1 5 2
f 2 5 10
f 2 10 16
f 2 16 22
f 2 22 30
f 2 30 35
f 2 35 31
f 2 31 23
f 2 23 17
f 2 17 11
f 2 11 6
f 3 7 4
f 4 8 13
f 4 13 15
f 4 15 10
f 4 10 5
f 4 7 9
f 4 9 8
f 6 11 12
f 8 9 14
f 8 14 20
f 8 20 27
f 8 27 26
f 8 26 25
f 8 25 33
f 8 33 34
f 8 34 28
f 8 28 19
f 8 19 13
f 10 15 21
f 10 21 16
f 11 17 18
f 11 18 12
f 12 18 14
f 13 19 21
f 13 21 15
f 14 18 20
f 16 21 22
f 17 23 18
f 18 23 24
f 18 24 25
f 18 25 26
f 18 26 27
f 18 27 20
f 19 28 29
f 19 29 21
f 21 29 22
f 22 29 30
f 23 31 32
f 23 32 24
f 24 32 33
f 24 33 25
f 28 34 29
f 29 34 32
f 29 32 35
f 29 35 30
f 31 35 32
f 32 34 33

