# https://github.com/mikedh/trimesh
v -25.00418592 4.92616671 17.46528027
v -20.09049903 0.00871568 17.46528027
v -25.00418592 4.92616671 18.01186680
v -25.00418592 25.23638418 17.46528027
v -12.14932658 0.00871568 17.46528027
v -20.09049903 0.00871568 18.37699839
v -25.00418592 4.93270145 18.27498285
v -25.00418592 25.23638418 18.01186680
v -24.90981451 25.32787057 17.46528027
v -12.14932658 0.00871568 18.37699839
v -12.14932658 33.38530261 17.46528027
v -25.00418592 4.93596882 18.37699839
v -24.92365449 25.28212737 18.37699839
v -24.62040309 25.57619364 18.37699839
v -24.63676022 25.59253050 18.01186680
v -25.00418592 25.20371047 18.37699839
v -24.63676022 25.59253050 17.46528027
v -12.14932658 33.35916364 18.37699839
v -12.84391227 33.12717742 17.46528027
v -12.84391227 33.12717742 18.01186680
v -12.14932658 33.38203524 18.01186680
v -24.29953453 25.88006492 18.37699839
v -24.12337168 26.07937454 18.01186680
v -24.34735169 25.86699254 17.46528027
v -12.81371226 33.11410794 18.37699839
v -13.32961795 32.93439964 17.46528027
v -13.32961795 32.93439964 18.01186680
v -24.10575453 26.06303769 18.37699839
v -24.12337168 26.07937454 17.46528027
v -23.92330025 26.22967650 18.37699839
v -23.62004885 26.50413855 18.37699839
v -23.63640743 26.51720803 18.01186680
v -23.91071740 26.27215232 17.46528027
v -13.29941794 32.92133016 18.37699839
v -13.66432794 32.79390270 17.46528027
v -14.09340933 32.61092704 18.01186680
v -14.09340933 32.58805254 18.37699839
v -23.06387745 26.98771522 18.37699839
v -23.08275173 27.00405208 18.01186680
v -23.32560602 26.79167007 17.46528027
v -23.63640743 26.51720803 17.46528027
v -14.09340933 32.61092704 17.46528027
v -14.93270073 32.23844386 18.01186680
v -14.90627644 32.22537148 18.37699839
v -22.88142317 27.14128165 18.37699839
v -22.57817177 27.39614237 18.37699839
v -22.59578747 27.41247922 18.01186680
v -22.87009745 27.18376037 17.46528027
v -23.08275173 27.00405208 17.46528027
v -14.93270073 32.23844386 17.46528027
v -15.41840641 32.00972211 18.01186680
v -15.39198212 31.99665263 18.37699839
v -21.97166751 27.88298641 18.37699839
v -22.59704605 27.41247922 17.46528027
v -21.98928321 27.89932327 18.01186680
v -15.41840641 32.00972211 17.46528027
v -15.68894210 31.87575991 17.46528027
v -16.03749352 31.69931899 18.01186680
v -16.03749352 31.67318002 18.37699839
v -21.78921323 28.02675073 18.37699839
v -22.25478606 27.68694127 17.46528027
v -21.50357753 28.27834118 18.01186680
v -21.77662893 28.06595918 17.46528027
v -21.98928321 27.89932327 17.46528027
v -16.03749352 31.69931899 17.46528027
v -16.39359494 31.51634333 17.46528027
v -16.85035919 31.27782526 18.01186680
v -16.31935495 31.52941281 18.37699839
v -21.48470325 28.26200433 18.37699839
v -21.50357753 28.27834118 17.46528027
v -21.10595183 28.54300111 18.37699839
v -20.89581469 28.72597678 18.01186680
v -16.85035919 31.27782526 17.46528027
v -16.82645206 31.26475577 18.37699839
v -17.33732489 31.01316243 18.01186680
v -20.89581469 28.72597678 17.46528027
v -20.89581469 28.69657044 18.37699839
v -20.33461044 29.10499469 18.37699839
v -20.35474330 29.11806417 18.01186680
v -17.33732489 31.01316243 17.46528027
v -17.31341631 31.00009294 18.37699839
v -17.61918487 30.84979388 17.46528027
v -17.98157772 30.63741188 18.01186680
v -17.57891916 30.84652651 18.37699839
v -20.35474330 29.11806417 17.46528027
v -20.15215617 29.22915768 18.37699839
v -19.86903762 29.44807442 18.01186680
v -17.98157772 30.63741188 17.46528027
v -18.27224627 30.46423833 17.46528027
v -18.64470482 30.23878685 18.01186680
v -18.62457196 30.22898474 18.37699839
v -18.21058913 30.47730782 18.37699839
v -17.98157772 30.61127002 18.37699839
v -19.86903762 29.44807442 17.46528027
v -19.84890476 29.43500494 18.37699839
v -19.13166907 29.93165110 18.01186680
v -19.13166907 29.93491847 17.46528027
v -18.64470482 30.23878685 17.46528027
v -18.91901624 30.06888067 17.46528027
v -18.92908194 30.03620696 18.37699839
v -19.11153622 29.91858161 18.37699839
f 1 2 6
f 1 6 3
f 1 3 7
f 1 7 12
f 1 12 16
f 1 16 8
f 1 8 4
f 1 4 9
f 1 9 17
f 1 17 24
f 1 24 29
f 1 29 33
f 1 33 41
f 1 41 40
f 1 40 49
f 1 49 48
f 1 48 54
f 1 54 61
f 1 61 64
f 1 64 63
f 1 63 70
f 1 70 76
f 1 76 85
f 1 85 94
f 1 94 97
f 1 97 99
f 1 99 98
f 1 98 89
f 1 89 88
f 1 88 82
f 1 82 80
f 1 80 73
f 1 73 66
f 1 66 65
f 1 65 57
f 1 57 56
f 1 56 50
f 1 50 42
f 1 42 35
f 1 35 26
f 1 26 19
f 1 19 11
f 1 11 5
f 1 5 2
f 2 5 10
f 2 10 6
f 3 6 7
f 4 8 9
f 5 11 21
f 5 21 18
f 5 18 10
f 6 10 18
f 6 18 25
f 6 25 34
f 6 34 37
f 6 37 44
f 6 44 52
f 6 52 59
f 6 59 68
f 6 68 74
f 6 74 81
f 6 81 84
f 6 84 93
f 6 93 92
f 6 92 91
f 6 91 100
f 6 100 101
f 6 101 95
f 6 95 86
f 6 86 78
f 6 78 77
f 6 77 71
f 6 71 69
f 6 69 60
f 6 60 53
f 6 53 46
f 6 46 45
f 6 45 38
f 6 38 31
f 6 31 30
f 6 30 28
f 6 28 22
f 6 22 14
f 6 14 13
f 6 13 16
f 6 16 12
f 6 12 7
f 8 13 14
f 8 14 15
f 8 15 9
f 8 16 13
f 9 15 17
f 11 19 20
f 11 20 21
f 14 22 23
f 14 23 15
f 15 24 17
f 15 23 24
f 18 21 20
f 18 20 25
f 19 26 27
f 19 27 20
f 20 27 34
f 20 34 25
f 22 28 23
f 23 29 24
f 23 28 30
f 23 30 31
f 23 31 32
f 23 32 33
f 23 33 29
f 26 35 27
f 27 35 36
f 27 36 37
f 27 37 34
f 31 38 39
f 31 39 32
f 32 39 40
f 32 40 41
f 32 41 33
f 35 42 36
f 36 42 50
f 36 50 43
f 36 43 37
f 37 43 44
f 38 45 39
f 39 45 46
f 39 46 47
f 39 47 48
f 39 48 49
f 39 49 40
f 43 50 56
f 43 56 51
f 43 51 52
f 43 52 44
f 46 53 55
f 46 55 47
f 47 54 48
f 47 55 54
f 51 56 57
f 51 57 58
f 51 58 59
f 51 59 52
f 53 60 55
f 54 55 61
f 55 60 62
f 55 62 63
f 55 63 64
f 55 64 61
f 57 65 58
f 58 65 66
f 58 66 67
f 58 67 68
f 58 68 59
f 60 69 62
f 62 70 63
f 62 69 71
f 62 71 72
f 62 72 76
f 62 76 70
f 66 73 67
f 67 74 68
f 67 73 80
f 67 80 75
f 67 75 81
f 67 81 74
f 71 77 72
f 72 78 79
f 72 79 85
f 72 85 76
f 72 77 78
f 75 80 82
f 75 82 83
f 75 83 84
f 75 84 81
f 78 86 79
f 79 86 87
f 79 87 94
f 79 94 85
f 82 88 83
f 83 88 89
f 83 89 90
f 83 90 91
f 83 91 92
f 83 92 93
f 83 93 84
f 86 95 87
f 87 95 101
f 87 101 96
f 87 96 97
f 87 97 94
f 89 98 90
f 90 98 99
f 90 99 97
f 90 97 96
f 90 96 91
f 91 96 100
f 96 101 100

