# https://github.com/mikedh/trimesh
v -14.21794163 -25.31681463 10.07980273
v -2.90293544 -25.31681463 10.07980273
v -14.21794163 -25.31681463 11.32163248
v -14.21794163 23.76269711 10.07980273
v -4.57918104 -25.31681463 11.32163248
v -0.00671643 -21.94908512 10.07980273
v -0.00671643 -21.93947563 10.10752325
v -0.00671643 -20.33007536 11.32163248
v -14.21794163 23.76269711 11.32163248
v -2.65671494 23.76269711 10.07980273
v -0.00671643 21.95152076 10.07980273
v -0.00671643 20.32770697 11.32163248
v -4.45954834 23.76269711 11.32163248
v -0.00671643 21.93710725 10.10752325
v -0.00671643 21.94671529 10.09427128
f 1 2 5
f 1 5 3
f 1 3 9
f 1 9 4
f 1 4 10
f 1 10 11
f 1 11 6
f 1 6 2
f 2 6 7
f 2 7 8
f 2 8 5
f 3 5 8
f 3 8 12
f 3 12 13
f 3 13 9
f 4 9 13
f 4 13 10
f 6 11 15
f 6 15 14
f 6 14 12
f 6 12 8
f 6 8 7
f 10 13 14
f 10 14 15
f 10 15 11
f 12 14 13

