# https://github.com/mikedh/trimesh
v -0.04032140 -22.23994775 0.44730098
v -0.04032140 -22.12620674 0.21073812
v 2.76180247 -25.65809267 -0.14243628
v 2.61766883 -25.65809267 0.44730098
v -0.04032140 35.49138091 0.44730098
v -0.04032140 -21.92267677 -0.20097088
v 3.40404432 -25.65809267 -0.40971185
v 21.61361102 -25.65809267 0.44730098
v 0.48958068 35.49736819 0.44730098
v -0.04032140 35.39560175 0.17360364
v -0.04032140 -20.88705636 -0.50342282
v 4.37694526 -25.65809267 -0.50342282
v 21.61361102 -25.65809267 -0.50342282
v 21.61361102 28.18816406 0.44730098
v 1.46036203 35.47342195 0.44730098
v 1.46036203 35.23995846 -0.22963569
v 0.48958068 35.25193013 -0.23521455
v -0.04032140 35.25193013 -0.23521455
v -0.04032140 33.52789380 -0.50342282
v 21.61361102 26.00917242 -0.50342282
v 21.61361102 28.14625887 0.11506904
v 21.46099902 28.24802821 -0.04294947
v 20.96501039 28.66107833 0.44730098
v 2.52864529 35.41356071 0.44730098
v 3.40404432 35.17410993 -0.18682386
v 2.43326297 35.21601222 -0.21446327
v 2.43326297 34.49766568 -0.48164615
v 1.46036203 34.49766568 -0.49700395
v 0.48958068 34.49766568 -0.50258281
v -0.04032140 34.49766568 -0.50258281
v 7.29140818 33.52789380 -0.50342282
v 21.61361102 26.72751896 -0.47699420
v 19.92216295 27.69729084 -0.50342282
v 21.61361102 28.14027449 0.09989952
v 20.89294285 28.45156108 -0.15806636
v 19.72291995 29.34949425 -0.13898932
v 18.58256987 30.19954074 -0.05830727
v 20.28673549 29.13997699 0.44730098
v 21.61361102 28.00857743 -0.10800144
v 21.61361102 27.85293413 -0.18943081
v 3.50790500 35.33573761 0.44730098
v 4.37694526 35.12023307 -0.14159626
v 4.37694526 34.49766568 -0.40887183
v 3.40404432 34.49766568 -0.45409943
v 8.26430912 33.52789380 -0.48564925
v 11.17453357 32.55812192 -0.49793086
v 10.20799141 32.55812192 -0.50342282
v 21.61361102 26.97894430 -0.45642830
v 18.94926273 28.67305000 -0.49746740
v 17.00557972 29.64282189 -0.50342282
v 19.99634791 28.74488292 -0.28472912
v 18.92382619 29.66078084 -0.23149531
v 17.97847993 30.36715571 -0.16951375
v 21.61361102 27.68531917 -0.24926888
v 16.73638949 31.21720220 -0.09916100
v 16.83177181 31.26509178 0.44730098
v 18.05054748 30.57068858 0.44730098
v 18.63556037 30.23545865 0.44730098
v 19.06372064 29.96607725 0.44730098
v 4.49352349 35.22798679 0.44730098
v 5.93909756 35.00649497 0.00106734
v 5.34772625 35.05438454 -0.06360806
v 8.26430912 34.27018658 -0.21828099
v 9.23509047 33.52789380 -0.40663565
v 12.14743451 32.55812192 -0.41929382
v 14.09111680 31.58236275 -0.46452141
v 13.11821514 31.58236275 -0.50342282
v 20.89294285 27.69729084 -0.42534193
v 16.03479837 30.61259377 -0.46749913
v 17.97847993 29.64282189 -0.43678932
v 17.03737286 30.66646773 -0.26080895
v 16.03479837 31.38481717 -0.20022356
v 14.81178352 32.18098970 -0.09515789
v 15.34592479 32.01935912 0.44730098
v 16.11322396 31.63025523 0.44730098
v 5.42827143 35.10227412 0.44730098
v 9.23509047 34.15644847 -0.13936588
v 5.98360933 35.01248225 0.44730098
v 6.40541191 34.92268748 0.44730098
v 8.36605021 34.49766568 0.44730098
v 9.89640864 34.06665371 -0.04173869
v 11.17453357 33.36626322 -0.23074798
v 12.14743451 33.21062283 -0.15211094
v 14.09111680 32.32465843 -0.19724585
v 14.91564420 32.22887927 0.44730098
v 12.76848046 33.09688472 -0.04220794
v 9.31775524 34.27018658 0.44730098
v 10.39663645 33.95291560 0.44730098
v 12.22374051 33.34231988 0.44730098
v 9.97271464 34.09059994 0.44730098
v 13.25175009 32.94124143 0.44730098
v 12.82782901 33.12082806 0.44730098
f 1 2 3
f 1 3 4
f 1 4 8
f 1 8 14
f 1 14 23
f 1 23 38
f 1 38 59
f 1 59 58
f 1 58 57
f 1 57 56
f 1 56 75
f 1 75 74
f 1 74 85
f 1 85 91
f 1 91 92
f 1 92 89
f 1 89 88
f 1 88 90
f 1 90 87
f 1 87 80
f 1 80 79
f 1 79 78
f 1 78 76
f 1 76 60
f 1 60 41
f 1 41 24
f 1 24 15
f 1 15 9
f 1 9 5
f 1 5 10
f 1 10 18
f 1 18 30
f 1 30 19
f 1 19 11
f 1 11 6
f 1 6 2
f 2 6 3
f 3 7 12
f 3 12 13
f 3 13 8
f 3 8 4
f 3 6 7
f 5 9 10
f 6 11 7
f 7 11 12
f 8 13 20
f 8 20 32
f 8 32 48
f 8 48 54
f 8 54 40
f 8 40 39
f 8 39 34
f 8 34 21
f 8 21 14
f 9 15 16
f 9 16 17
f 9 17 18
f 9 18 10
f 11 19 31
f 11 31 47
f 11 47 67
f 11 67 50
f 11 50 33
f 11 33 20
f 11 20 13
f 11 13 12
f 14 21 22
f 14 22 23
f 15 24 25
f 15 25 26
f 15 26 16
f 16 26 27
f 16 27 28
f 16 28 17
f 17 28 29
f 17 29 30
f 17 30 18
f 19 30 29
f 19 29 31
f 20 33 32
f 21 34 22
f 22 35 36
f 22 36 37
f 22 37 38
f 22 38 23
f 22 34 39
f 22 39 40
f 22 40 35
f 24 41 42
f 24 42 25
f 25 42 43
f 25 43 44
f 25 44 26
f 26 44 27
f 27 44 45
f 27 45 31
f 27 31 28
f 28 31 29
f 31 45 46
f 31 46 47
f 32 33 49
f 32 49 48
f 33 50 49
f 35 40 36
f 36 51 52
f 36 52 53
f 36 53 37
f 36 40 54
f 36 54 51
f 37 53 55
f 37 55 56
f 37 56 57
f 37 57 58
f 37 58 59
f 37 59 38
f 41 60 61
f 41 61 62
f 41 62 42
f 42 62 63
f 42 63 43
f 43 63 45
f 43 45 44
f 45 64 65
f 45 65 46
f 45 63 64
f 46 65 66
f 46 66 67
f 46 67 47
f 48 49 68
f 48 68 54
f 49 50 69
f 49 69 70
f 49 70 68
f 50 67 69
f 51 54 68
f 51 68 52
f 52 70 71
f 52 71 53
f 52 68 70
f 53 71 72
f 53 72 55
f 55 72 73
f 55 73 74
f 55 74 75
f 55 75 56
f 60 76 61
f 61 77 63
f 61 63 62
f 61 76 78
f 61 78 79
f 61 79 80
f 61 80 81
f 61 81 77
f 63 77 82
f 63 82 64
f 64 82 65
f 65 82 83
f 65 83 84
f 65 84 66
f 66 84 72
f 66 72 69
f 66 69 67
f 69 72 71
f 69 71 70
f 72 84 73
f 73 85 74
f 73 84 83
f 73 83 86
f 73 86 85
f 77 81 83
f 77 83 82
f 80 87 81
f 81 88 89
f 81 89 86
f 81 86 83
f 81 87 90
f 81 90 88
f 85 86 91
f 86 89 92
f 86 92 91

