# https://github.com/mikedh/trimesh
v -35.52698249 -0.48202969 15.64563859
v -35.52698249 -0.48202969 16.55719739
v -35.52698249 0.48189893 15.64563859
v -35.51514697 -0.90327409 15.64563859
v -35.51345535 -0.96399399 16.55719739
v -35.51120179 -1.03230391 17.46519338
v -35.52641766 -0.48582469 17.46519338
v -35.52698249 0.48189893 16.55719739
v -35.51345535 0.97145325 16.55719739
v -35.51176663 1.02837815 15.64563859
v -35.49936626 -1.45354836 15.64563859
v -35.49936626 -1.45354836 16.55719739
v -35.49880432 -1.45734336 17.46519338
v -35.52641766 0.48569393 17.46519338
v -35.51458213 0.91073334 17.46519338
v -35.49880432 1.45721261 17.46519338
v -35.49936626 1.45341760 16.55719739
v -35.49936626 1.45341760 15.64563859
v -35.44526346 -2.42506698 15.64563859
v -35.44526346 -2.42506698 16.55719739
v -35.44469863 -2.42886190 17.46519338
v -35.44469863 2.42873114 17.46519338
v -35.47231486 1.94297187 16.55719739
v -35.46893452 2.00369178 15.64563859
v -35.41032171 -2.84631143 15.64563859
v -35.36467121 -3.39658570 16.55719739
v -35.39961296 -2.97534126 17.46519338
v -35.40975688 2.85377050 17.46519338
v -35.40524976 2.91449059 16.55719739
v -35.44526346 2.42493623 16.55719739
v -35.44526346 2.42493623 15.64563859
v -35.36467121 -3.39658570 15.64563859
v -35.31169520 -3.87855005 16.55719739
v -35.36410927 -3.40038061 17.46519338
v -35.36467121 3.40024986 17.46519338
v -35.36523605 3.39645494 16.55719739
v -35.36523605 3.39645494 15.64563859
v -35.40017780 2.97521050 15.64563859
v -35.25759240 -4.36810423 15.64563859
v -35.25759240 -4.36810423 16.55719739
v -35.25702757 -4.37189915 17.46519338
v -35.25759240 4.37176839 17.46519338
v -35.30436968 3.94672921 15.64563859
v -35.25759240 4.37176839 16.55737409
v -35.19897960 -4.79314377 15.64563859
v -35.19108924 -4.85006859 16.55719739
v -35.12289736 -5.34341769 17.46519338
v -35.19897960 4.79680793 17.46519338
v -35.25759240 4.36797348 15.64563859
v -35.12402414 5.33949201 15.64563859
v -35.18207211 4.91824775 15.64563859
v -35.12345930 -5.33962277 15.64563859
v -35.12345930 -5.33962277 16.55719739
v -35.12289736 -5.34341769 16.55737409
v -35.07161007 -5.66978726 16.55737409
v -35.06484649 -5.71153241 17.46519338
v -35.12345930 5.34328693 17.46519338
v -35.12402414 5.33949201 16.55719739
v -35.12345930 5.34328693 16.55737409
v -35.01976083 5.99982099 16.55737409
v -35.01976083 5.99602608 15.64563859
v -35.01976083 -5.99615684 15.64563859
v -35.01976083 -5.99615684 16.55719739
v -35.01919889 -5.99615684 17.46519338
v -35.01976083 5.99982099 17.46519338
v -34.98200068 6.20854603 15.64563859
v -34.93184306 -6.48191647 15.64563859
v -34.93184306 -6.48571102 16.55737409
v -34.93184306 -6.48571102 17.03987033
v -34.93184306 -6.48191647 17.46519338
v -34.93184306 6.48558026 17.46519338
v -34.93184306 6.48558026 16.55737409
v -34.93240790 6.48178571 15.64563859
v -34.77291502 -7.28645512 15.64563859
v -34.85294243 -6.88418543 16.55737409
v -34.84223368 -6.93731569 17.46519338
v -34.85237759 6.88784995 16.55719739
v -34.77347696 7.28632436 17.46519338
v -34.77347696 7.28632436 15.64563859
v -34.55480933 -8.25797365 15.64563859
v -34.77291502 -7.28645512 17.46519338
v -34.66357975 7.77587890 16.55737409
v -34.65005261 7.83659827 15.64563859
v -34.55480933 8.25784290 17.46519338
v -34.55480933 -8.25797365 17.46519338
v -34.30739868 -9.22949219 15.64563859
v -34.30739868 -9.23328747 16.55737409
v -34.43194981 -8.74373292 16.55737409
v -34.55480933 8.25784290 15.64563859
v -34.30739868 9.23315671 17.46519338
v -34.41560427 -8.80824756 17.46519338
v -34.21609768 -9.55586213 15.64563859
v -34.09718334 -9.98469658 16.55737409
v -34.30739868 -9.23328747 17.46519338
v -34.30739868 9.23315671 16.55737409
v -34.30739868 9.22936143 15.64563859
v -34.09661850 9.98077055 17.46519338
v -34.09718334 9.98077055 16.55719739
v -34.09718334 -9.98090130 15.64563859
v -34.09718334 -9.98469658 17.46519338
v -34.01489947 -10.25793554 15.64563859
v -33.95121471 -10.47045585 15.64563859
v -34.09718334 9.98077055 15.64563859
v -34.01433753 10.25401023 17.46519338
v -34.02391660 10.22365018 16.55737409
v -34.03349857 10.19329014 15.64563859
v -33.95121471 -10.47045585 17.46519338
v -33.72352994 -11.17252926 15.64563859
v -33.72352994 -11.17632454 16.55737409
v -33.95008793 10.46652981 17.46519338
v -33.95065276 10.46652981 16.55719739
v -33.95065276 10.46652981 15.64563859
v -33.72352994 -11.17632454 17.46519338
v -33.57699936 -11.59756916 15.64563859
v -33.38594507 -12.14784307 15.64563859
v -33.55614670 -11.65828925 16.55719739
v -33.85033463 10.77771937 17.46519338
v -33.83568070 10.82325907 16.55719739
v -33.72183832 11.17619378 16.55737409
v -33.82159162 10.86500423 15.64563859
v -33.55614670 -11.65828925 16.55737409
v -33.38594507 -12.14784307 17.46519338
v -33.12726373 -12.84232738 15.64563859
v -33.25745166 -12.49318795 16.55737409
v -33.72183832 11.17619378 17.46519338
v -33.38425635 12.14771231 15.64563859
v -33.72183832 11.17239850 15.64563859
v -33.12726373 -12.84232738 17.46519338
v -33.04272630 -13.05484696 17.46519338
v -32.93395588 -13.32808664 15.64563859
v -33.38369151 12.14771231 17.46519338
v -33.38425635 12.14771231 16.06811138
v -33.25406842 12.49685174 16.55737409
v -33.12669889 12.83840206 15.64563859
v -32.93395588 -13.32808664 17.46519338
v -32.61327849 -14.09088014 15.64563859
v -33.12613695 12.83840206 17.46519338
v -33.03032883 13.08128097 16.55737409
v -33.04216436 13.05092165 15.64563859
v -32.61327849 -14.09088014 17.03987033
v -32.61271655 -14.09088014 17.46519338
v -32.45040527 -14.45519923 15.64563859
v -32.42729905 -14.50833021 16.55737409
v -32.93282910 13.32416133 17.46519338
v -32.93282910 13.32416133 15.64563859
v -32.23849831 -14.92957484 17.46519338
v -32.23849831 -14.92577884 15.64563859
v -32.23849831 -14.92957484 16.55737409
v -32.61046299 14.09074938 17.46519338
v -32.61102493 14.09074938 16.55737409
v -32.61102493 14.09074938 15.64563859
v -32.13874502 -15.14209443 17.46519338
v -32.10944006 -15.20281452 15.64563859
v -32.01025160 -15.41533411 15.64563859
v -32.23737153 14.92564808 17.46519338
v -32.42278903 14.51199401 16.55737409
v -32.42278903 14.51199401 16.55719739
v -32.23737153 14.92564808 15.64563859
v -32.01025160 -15.41533411 17.46519338
v -31.87611850 -15.68477778 15.64563859
v -32.10944006 15.19888776 17.46519338
v -32.12409399 15.16852844 16.55737409
v -32.13874502 15.13816767 15.64563859
v -31.83610479 -15.76447354 17.46519338
v -31.70084491 -16.03391721 17.46519338
v -31.70084491 -16.03391721 15.64563859
v -32.00968677 15.41140735 17.46519338
v -32.00968677 15.41140735 15.64563859
v -31.49175635 -16.43998218 16.55737409
v -31.46357817 -16.49311171 17.46519338
v -31.51768097 -16.38685264 15.64563859
v -31.87386494 15.68464703 17.46519338
v -31.85357422 15.72639290 16.55737409
v -31.83385124 15.76434278 15.64563859
v -31.27872551 -16.84604714 15.64563859
v -31.27928745 -16.84604714 16.55737409
v -31.27928745 -16.84604714 17.03987033
v -31.27872551 -16.84604714 17.46519338
v -31.69915329 16.03378646 17.46519338
v -31.69915329 16.03378646 15.64563859
v -31.12937654 -17.11928682 15.64563859
v -31.14571919 -17.09272061 16.55737409
v -31.16319151 -17.05856673 17.46519338
v -31.51486547 16.39051644 17.46519338
v -31.48724923 16.44364597 16.55719739
v -31.46132462 16.49298096 15.64563859
v -31.01440738 -17.32801041 15.64563859
v -31.01384254 -17.33180641 16.55737409
v -31.01384254 -17.33180641 17.46519338
v -31.27872551 16.84591638 16.55737409
v -31.27816067 16.84591638 17.46519338
v -31.27816067 16.84591638 15.64563859
v -30.82842504 -17.65438107 16.55737409
v -30.64018914 -17.97695428 15.64563859
v -30.63962720 -17.98075028 17.46519338
v -31.14684886 17.08879529 16.55737409
v -31.01384254 17.33167565 17.46519338
v -31.01384254 17.33167565 16.55737409
v -31.16375345 17.05463997 15.64563859
v -30.64018914 -17.98075028 16.55737409
v -30.24230274 -18.64107927 15.64563859
v -30.24286758 -18.64487382 16.55737409
v -30.44293611 -18.31091405 16.55737409
v -30.24286758 -18.64487382 17.03987033
v -30.24230274 -18.64487382 17.46519338
v -30.84984254 17.61629899 17.46519338
v -30.63906236 17.98061953 16.55737409
v -30.80193848 17.69599474 15.64563859
v -31.01384254 17.32787965 15.64563859
v -29.93571734 -19.12683853 15.64563859
v -29.93627928 -19.13063309 16.55737409
v -30.10873447 -18.85739341 17.46519338
v -30.63906236 17.98061953 17.46519338
v -30.63962720 17.97682353 15.64563859
v -30.43955577 18.31457930 16.55737409
v -29.77340606 -19.37351345 15.64563859
v -29.77002283 -19.38489855 16.55737409
v -29.93627928 -19.13063309 17.46519338
v -30.24230274 18.64474306 17.46519338
v -30.24230274 18.64474306 16.55737409
v -30.24230274 18.64094851 15.64563859
v -29.77340606 19.37338269 15.64563859
v -29.77002283 -19.38489855 16.70805550
v -29.77002283 19.38097179 16.55737409
v -29.77002283 -19.38110255 17.46519338
v -30.07041239 18.91798274 17.46519338
v -29.93627928 19.13050233 16.55737409
v -30.10873447 18.85346810 15.64563859
v -29.93571734 19.12670778 15.64563859
v -29.77340606 19.37717724 16.55719739
v -29.77002283 19.38476779 17.46519338
v -29.93627928 19.13050233 17.46519338
f 1 2 8
f 1 8 3
f 1 3 10
f 1 10 18
f 1 18 24
f 1 24 31
f 1 31 38
f 1 38 37
f 1 37 43
f 1 43 49
f 1 49 51
f 1 51 50
f 1 50 61
f 1 61 66
f 1 66 73
f 1 73 79
f 1 79 83
f 1 83 89
f 1 89 96
f 1 96 103
f 1 103 106
f 1 106 112
f 1 112 120
f 1 120 127
f 1 127 126
f 1 126 134
f 1 134 139
f 1 139 145
f 1 145 151
f 1 151 158
f 1 158 163
f 1 163 168
f 1 168 174
f 1 174 180
f 1 180 186
f 1 186 192
f 1 192 199
f 1 199 209
f 1 209 208
f 1 208 214
f 1 214 221
f 1 221 228
f 1 228 229
f 1 229 222
f 1 222 216
f 1 216 210
f 1 210 201
f 1 201 194
f 1 194 187
f 1 187 181
f 1 181 175
f 1 175 171
f 1 171 166
f 1 166 160
f 1 160 154
f 1 154 153
f 1 153 147
f 1 147 142
f 1 142 136
f 1 136 130
f 1 130 123
f 1 123 115
f 1 115 114
f 1 114 108
f 1 108 102
f 1 102 101
f 1 101 99
f 1 99 92
f 1 92 86
f 1 86 80
f 1 80 74
f 1 74 67
f 1 67 62
f 1 62 52
f 1 52 45
f 1 45 39
f 1 39 32
f 1 32 25
f 1 25 19
f 1 19 11
f 1 11 4
f 1 4 5
f 1 5 2
f 2 5 6
f 2 6 7
f 2 7 14
f 2 14 8
f 3 8 9
f 3 9 10
f 4 11 5
f 5 11 12
f 5 12 6
f 6 12 13
f 6 13 21
f 6 21 27
f 6 27 34
f 6 34 41
f 6 41 47
f 6 47 56
f 6 56 64
f 6 64 70
f 6 70 76
f 6 76 81
f 6 81 85
f 6 85 91
f 6 91 94
f 6 94 100
f 6 100 107
f 6 107 113
f 6 113 122
f 6 122 128
f 6 128 129
f 6 129 135
f 6 135 141
f 6 141 146
f 6 146 152
f 6 152 159
f 6 159 164
f 6 164 165
f 6 165 170
f 6 170 178
f 6 178 183
f 6 183 189
f 6 189 195
f 6 195 205
f 6 205 212
f 6 212 218
f 6 218 225
f 6 225 231
f 6 231 232
f 6 232 226
f 6 226 219
f 6 219 213
f 6 213 206
f 6 206 197
f 6 197 191
f 6 191 184
f 6 184 179
f 6 179 172
f 6 172 167
f 6 167 161
f 6 161 155
f 6 155 149
f 6 149 144
f 6 144 137
f 6 137 131
f 6 131 125
f 6 125 117
f 6 117 110
f 6 110 104
f 6 104 97
f 6 97 90
f 6 90 84
f 6 84 78
f 6 78 71
f 6 71 65
f 6 65 57
f 6 57 48
f 6 48 42
f 6 42 35
f 6 35 28
f 6 28 22
f 6 22 16
f 6 16 15
f 6 15 14
f 6 14 7
f 8 14 9
f 9 14 15
f 9 15 16
f 9 16 17
f 9 17 18
f 9 18 10
f 11 19 20
f 11 20 12
f 12 20 21
f 12 21 13
f 16 22 23
f 16 23 17
f 17 23 18
f 18 23 24
f 19 25 20
f 20 25 26
f 20 26 27
f 20 27 21
f 22 28 29
f 22 29 30
f 22 30 23
f 23 30 24
f 24 30 31
f 25 32 26
f 26 32 33
f 26 33 34
f 26 34 27
f 28 35 29
f 29 31 30
f 29 35 36
f 29 36 37
f 29 37 38
f 29 38 31
f 32 39 33
f 33 39 40
f 33 40 41
f 33 41 34
f 35 42 36
f 36 42 44
f 36 44 37
f 37 44 43
f 39 45 40
f 40 45 46
f 40 46 41
f 41 46 47
f 42 48 44
f 43 44 49
f 44 48 50
f 44 50 51
f 44 51 49
f 45 52 53
f 45 53 46
f 46 53 47
f 47 53 52
f 47 52 54
f 47 54 55
f 47 55 56
f 48 57 58
f 48 58 50
f 50 58 57
f 50 57 59
f 50 59 60
f 50 60 61
f 52 62 55
f 52 55 54
f 55 62 63
f 55 63 56
f 56 63 64
f 57 65 60
f 57 60 59
f 60 65 66
f 60 66 61
f 62 67 68
f 62 68 69
f 62 69 63
f 63 69 64
f 64 69 70
f 65 71 66
f 66 71 72
f 66 72 73
f 67 74 68
f 68 74 75
f 68 75 69
f 69 75 76
f 69 76 70
f 71 77 72
f 71 78 77
f 72 77 73
f 73 77 79
f 74 80 85
f 74 85 81
f 74 81 75
f 75 81 76
f 77 78 79
f 78 82 83
f 78 83 79
f 78 84 82
f 80 86 87
f 80 87 88
f 80 88 85
f 82 84 83
f 83 84 89
f 84 90 95
f 84 95 89
f 85 88 91
f 86 92 87
f 87 92 93
f 87 93 100
f 87 100 94
f 87 94 91
f 87 91 88
f 89 95 96
f 90 97 98
f 90 98 103
f 90 103 95
f 92 99 93
f 93 99 101
f 93 101 102
f 93 102 107
f 93 107 100
f 95 103 96
f 97 104 98
f 98 104 105
f 98 105 106
f 98 106 103
f 102 108 109
f 102 109 113
f 102 113 107
f 104 110 111
f 104 111 105
f 105 111 106
f 106 111 112
f 108 114 109
f 109 114 115
f 109 115 116
f 109 116 121
f 109 121 113
f 110 117 111
f 111 117 118
f 111 118 112
f 112 118 119
f 112 119 120
f 113 121 122
f 115 123 124
f 115 124 122
f 115 122 121
f 115 121 116
f 117 125 118
f 118 125 119
f 119 125 132
f 119 132 126
f 119 126 127
f 119 127 120
f 122 124 128
f 123 129 128
f 123 128 124
f 123 130 129
f 125 131 132
f 126 132 133
f 126 133 134
f 129 130 135
f 130 136 140
f 130 140 135
f 131 137 133
f 131 133 132
f 133 137 134
f 134 137 138
f 134 138 139
f 135 140 141
f 136 142 143
f 136 143 140
f 137 144 138
f 138 145 139
f 138 144 145
f 140 143 146
f 140 146 141
f 142 147 148
f 142 148 143
f 143 148 146
f 144 149 150
f 144 150 151
f 144 151 145
f 146 148 152
f 147 153 148
f 148 153 154
f 148 154 152
f 149 155 156
f 149 156 150
f 150 156 157
f 150 157 151
f 151 157 158
f 152 154 159
f 154 160 159
f 155 161 162
f 155 162 163
f 155 163 158
f 155 158 157
f 155 157 156
f 159 160 164
f 160 165 164
f 160 166 165
f 161 167 162
f 162 167 163
f 163 167 168
f 165 166 169
f 165 169 170
f 166 171 169
f 167 172 173
f 167 173 168
f 168 173 174
f 169 171 175
f 169 175 176
f 169 176 177
f 169 177 170
f 170 177 178
f 172 179 173
f 173 179 180
f 173 180 174
f 175 181 182
f 175 182 176
f 176 182 177
f 177 182 183
f 177 183 178
f 179 184 180
f 180 184 185
f 180 185 186
f 181 187 182
f 182 187 188
f 182 188 189
f 182 189 183
f 184 190 185
f 184 191 190
f 185 190 186
f 186 190 192
f 187 193 188
f 187 194 193
f 188 193 189
f 189 193 195
f 190 191 196
f 190 196 192
f 191 197 196
f 192 196 198
f 192 198 199
f 193 194 200
f 193 200 195
f 194 201 202
f 194 202 203
f 194 203 200
f 195 200 203
f 195 203 204
f 195 204 205
f 196 197 198
f 197 206 198
f 198 206 207
f 198 207 208
f 198 208 209
f 198 209 199
f 201 210 211
f 201 211 202
f 202 204 203
f 202 211 218
f 202 218 212
f 202 212 204
f 204 212 205
f 206 213 207
f 207 214 208
f 207 213 215
f 207 215 214
f 210 216 217
f 210 217 211
f 211 217 223
f 211 223 218
f 213 219 215
f 214 215 220
f 214 220 221
f 215 219 220
f 216 222 224
f 216 224 217
f 217 224 231
f 217 231 225
f 217 225 223
f 218 223 225
f 219 226 220
f 220 226 227
f 220 227 228
f 220 228 221
f 222 229 227
f 222 227 230
f 222 230 231
f 222 231 224
f 226 232 227
f 227 232 231
f 227 231 230
f 227 229 228

