# https://github.com/mikedh/trimesh
v 0.00532575 -35.52329322 4.61412280
v 0.48597151 -35.52329322 4.61412280
v 0.00532575 -35.52329322 5.35150583
v 0.00532575 -27.66550101 4.61412280
v 0.48597151 -35.52329322 5.35150583
v 1.07035757 -35.50828880 4.61412280
v 0.00532575 -27.66550101 5.35150583
v 1.07035757 -27.45703522 4.61412280
v 1.07035757 -35.50828880 5.35150583
v 1.07035757 -27.45703522 5.35150583
f 1 2 5
f 1 5 3
f 1 3 7
f 1 7 4
f 1 4 8
f 1 8 6
f 1 6 2
f 2 6 9
f 2 9 5
f 3 5 9
f 3 9 10
f 3 10 7
f 4 7 10
f 4 10 8
f 6 8 10
f 6 10 9

