# https://github.com/mikedh/trimesh
v 0.00294374 35.52572596 13.00402142
v 0.00294374 35.52391847 11.32163827
v -0.48662239 35.52391847 11.32163827
v -0.49159767 35.52482222 12.18473108
v -0.48761773 35.52482222 13.00402142
v 0.00294374 29.90795107 13.00402142
v 0.00294374 29.62521053 11.32163827
v -0.60005852 35.52121015 11.32163827
v -1.46376504 35.49862532 12.18473108
v -1.45978475 35.49862532 13.00402142
v -4.23299868 27.45994010 13.00402142
v -4.74147096 26.29736148 12.18012258
v -4.41409843 26.29736148 11.32163827
v -1.45878976 35.49772158 11.32163827
v -2.43095696 35.44352319 11.32163827
v -2.28269403 35.45255771 13.00402142
v -10.16152682 27.45994010 13.00402142
v -5.07680408 26.29736148 12.18456887
v -6.83506307 26.29736148 11.32163827
v -2.54439291 35.43448868 11.32163827
v -2.43493707 35.44352319 12.18456887
v -2.43493707 35.44352319 12.18473108
v -2.43195194 35.44352319 13.00402142
v -10.16152682 34.04156331 13.00402142
v -10.16152682 27.45994010 12.18473108
v -6.83506307 26.29736148 12.18456887
v -6.83506307 34.85907224 11.32163827
v -3.40212880 35.36222417 11.32163827
v -3.40710445 35.36222417 12.18456887
v -3.40710445 35.36222417 12.18473108
v -3.25486104 35.37487075 13.00402142
v -9.98042671 34.09486085 13.00402142
v -10.16152682 34.04156331 12.18473108
v -7.29278827 34.76873870 12.18473108
v -7.16442593 34.79493560 13.00402142
v -6.57137423 34.91146603 11.32163827
v -9.98042671 34.09486085 12.18473108
v -9.23513233 34.30262276 12.18473108
v -8.26495492 34.55103853 12.18473108
v -3.51456995 35.35048133 11.32163827
v -4.37927146 35.25563199 12.18473108
v -3.40312415 35.36222417 13.00402142
v -9.86599632 34.12737814 13.00402142
v -7.28880761 34.76964244 13.00402142
v -6.47684424 34.92953216 13.00402142
v -6.47982919 34.92953216 12.18473108
v -6.47982919 34.92953216 12.18456887
v -6.42012581 34.94037126 11.32163827
v -9.23214665 34.30352650 13.00402142
v -9.08388391 34.34146624 13.00402142
v -8.26097499 34.55194228 13.00402142
v -4.37429618 35.25563199 11.32163827
v -4.37529116 35.25563199 13.00402142
v -4.48673733 35.24027419 11.32163827
v -5.34447322 35.12103543 11.32163827
v -5.19621048 35.14181278 13.00402142
v -6.06489192 35.00450789 13.00402142
v -5.99026306 35.01715447 11.32163827
v -5.89175277 35.03341312 13.00402142
v -5.34745854 35.12013169 12.18473108
v -5.34447322 35.12013169 13.00402142
v -5.99026306 35.01715447 13.00402142
f 1 2 3
f 1 3 4
f 1 4 5
f 1 5 10
f 1 10 16
f 1 16 23
f 1 23 31
f 1 31 42
f 1 42 53
f 1 53 56
f 1 56 61
f 1 61 59
f 1 59 62
f 1 62 57
f 1 57 45
f 1 45 35
f 1 35 44
f 1 44 51
f 1 51 50
f 1 50 49
f 1 49 43
f 1 43 32
f 1 32 24
f 1 24 17
f 1 17 11
f 1 11 6
f 1 6 7
f 1 7 2
f 2 7 13
f 2 13 19
f 2 19 27
f 2 27 36
f 2 36 48
f 2 48 58
f 2 58 55
f 2 55 54
f 2 54 52
f 2 52 40
f 2 40 28
f 2 28 20
f 2 20 15
f 2 15 14
f 2 14 8
f 2 8 3
f 3 8 4
f 4 8 9
f 4 9 10
f 4 10 5
f 6 11 12
f 6 12 13
f 6 13 7
f 8 14 9
f 9 14 15
f 9 15 16
f 9 16 10
f 11 17 26
f 11 26 18
f 11 18 12
f 12 18 26
f 12 26 19
f 12 19 13
f 15 20 21
f 15 21 16
f 16 21 22
f 16 22 23
f 17 24 33
f 17 33 25
f 17 25 19
f 17 19 26
f 19 25 33
f 19 33 27
f 20 28 29
f 20 29 30
f 20 30 31
f 20 31 22
f 20 22 21
f 22 31 23
f 24 32 37
f 24 37 33
f 27 34 35
f 27 35 36
f 27 33 37
f 27 37 38
f 27 38 39
f 27 39 34
f 28 40 29
f 29 40 30
f 30 40 41
f 30 41 53
f 30 53 42
f 30 42 31
f 32 43 37
f 34 44 35
f 34 39 51
f 34 51 44
f 35 45 46
f 35 46 47
f 35 47 36
f 36 47 48
f 37 43 38
f 38 43 49
f 38 49 39
f 39 49 50
f 39 50 51
f 40 52 41
f 41 52 54
f 41 54 55
f 41 55 56
f 41 56 53
f 45 57 46
f 46 57 48
f 46 48 47
f 48 57 58
f 55 59 60
f 55 60 61
f 55 61 56
f 55 58 59
f 57 62 58
f 58 62 59
f 59 61 60

