# https://github.com/mikedh/trimesh
v 22.18953292 -27.33987043 10.07968397
v 22.18953292 -27.74288961 10.07968397
v 22.18953292 -27.33987043 8.77964115
v 1.76929676 -27.33987043 10.07968397
v 22.03325527 -27.86707867 10.07968397
v 22.03325527 -27.86788103 8.77964115
v 22.18953292 -27.74288961 8.77964115
v 1.33519302 -27.33987043 8.77964115
v 1.68681701 -27.33987043 9.99862247
v -22.15849710 -27.41198142 10.07968397
v 21.49930807 -28.28211587 10.07968397
v 21.49930807 -28.28291533 9.26448364
v 21.49930807 -28.28291533 8.77964115
v 1.34821615 -27.33987043 9.26448364
v -22.15849710 -27.41198142 8.77964115
v 1.67379387 -27.33987043 9.97329745
v -22.15849710 -27.76852746 10.07968397
v 1.38294446 -27.33987043 9.40230123
v 20.89156262 -28.73000057 10.07968397
v 20.89156262 -28.73080293 9.26448364
v 20.89156262 -28.73080293 8.77964115
v -22.15849710 -27.76852746 8.77964115
v -21.91105749 -27.96322569 10.07968397
v 20.35327486 -29.12260356 10.07968397
v 20.35327486 -29.12260356 8.77964115
v -21.98919631 -27.90153089 8.77964115
v -21.50299966 -28.28211587 10.07968397
v -21.50299966 -28.28211587 8.77964115
v 19.86707820 -29.45110758 10.07968397
v 20.11017581 -29.28765793 8.77964115
v -20.89525565 -28.73080293 10.07968397
v -20.89525565 -28.73080293 8.77964115
v 19.12910137 -29.93665105 10.07968397
v 19.12910137 -29.93745341 8.77964115
v 19.86707820 -29.45110758 8.77964115
v -20.43944583 -29.05930694 10.07968397
v -20.35262588 -29.12180120 8.77964115
v 18.64290616 -30.24352321 10.07968397
v 18.64290616 -30.24352321 8.77964115
v -20.35262588 -29.12180120 10.07968397
v -19.87077124 -29.45110758 8.77964115
v 17.97872759 -30.64093167 10.07968397
v 17.97872759 -30.64093167 8.77964115
v -19.87077124 -29.45110758 9.26448364
v -19.87077124 -29.45030522 10.07968397
v -19.12845384 -29.93665105 8.77964115
v -19.25000264 -29.85893223 10.07968397
v 17.33191272 -31.01510356 10.07968397
v 17.33191272 -31.01510356 9.26448364
v 17.32757216 -31.01510356 8.77964115
v -18.88969680 -30.08968740 8.77964115
v -19.05031502 -29.98713019 10.07968397
v 16.92385489 -31.23624490 10.07968397
v 17.08881512 -31.14730753 8.77964115
v -18.64225719 -30.24352321 8.77964115
v -18.64225719 -30.24352321 10.07968397
v 16.71548614 -31.34761358 10.07968397
v 16.84137551 -31.27951149 8.77964115
v -17.97807862 -30.64093167 9.26448364
v -17.97807862 -30.64012931 8.77964115
v -17.97807862 -30.64093167 10.07968397
v 16.03394242 -31.70095598 10.07968397
v 16.44200025 -31.48943138 8.77964115
v -17.65684219 -30.82761788 8.77964115
v -17.33126375 -31.01430410 10.07968397
v 15.41317528 -32.01022943 10.07968397
v 16.03394242 -31.70095598 8.77964115
v -17.33126375 -31.01430410 8.77964115
v -17.25312492 -31.05757069 10.07968397
v 15.41317528 -32.01022943 8.77964115
v 15.00511745 -32.20092165 10.07968397
v 14.93131918 -32.23697859 9.26448364
v -16.84506854 -31.27951149 9.26448364
v -16.84506854 -31.27870913 8.77964115
v -16.84506854 -31.27951149 10.07968397
v 14.93131918 -32.23697859 8.77964115
v 14.92697862 -32.23697859 10.07968397
v 14.79240668 -32.29787103 10.07968397
v 14.08915870 -32.61195284 10.07968397
v -16.03329489 -31.70175834 8.77964115
v -16.03329489 -31.70175834 10.07968397
v 14.08915870 -32.61115048 8.77964115
v 13.96760990 -32.66403381 10.07968397
v -15.41686686 -32.01103179 8.77964115
v -15.41686686 -32.01103179 10.07968397
v 13.32079503 -32.93324431 8.77964115
v 13.32513559 -32.93324431 10.07968397
v -14.93067165 -32.23858042 8.77964115
v -15.33872804 -32.04788820 10.07968397
v 12.91707921 -33.09509503 10.07968397
v 12.83459837 -33.12554125 8.77964115
v -14.50959069 -32.42606899 8.77964115
v -14.93067165 -32.23777806 10.07968397
v 12.72607271 -33.16800548 10.07968397
v 12.49165768 -33.25453867 8.77964115
v -14.08850972 -32.61275520 10.07968397
v -14.08850972 -32.61195284 8.77964115
v 12.14437425 -33.38433845 10.07968397
v 12.14437425 -33.38433845 8.77964115
v -13.45037743 -32.88196570 10.07968397
v -13.70649817 -32.77300120 8.77964115
v 11.98809660 -33.43882070 10.07968397
v 11.66251888 -33.55419829 8.77964115
v -13.32448806 -32.93324431 8.77964115
v -13.32448806 -32.93324431 10.07968397
v 11.17198166 -33.72325576 10.07968397
v 11.17198166 -33.72325576 8.77964115
v -12.83829141 -33.12634071 9.26448364
v -12.83829141 -33.12554125 8.77964115
v -12.83829141 -33.12634071 10.07968397
v 10.46873368 -33.95080439 10.07968397
v 10.46873368 -33.95080439 8.77964115
v -12.49100870 -33.25614049 8.77964115
v -12.25659222 -33.34347604 10.07968397
v 9.98253775 -34.09502637 10.07968397
v 9.98253775 -34.09422690 8.77964115
v -12.14372600 -33.38433845 8.77964115
v -12.14372600 -33.38433845 10.07968397
v 9.86532951 -34.12867913 10.07968397
v 9.23587979 -34.30414679 8.77964115
v -11.65752934 -33.55419829 8.77964115
v -11.17567470 -33.72245630 10.07968397
v 9.23587979 -34.30414679 10.07968397
v 8.26348721 -34.55333016 8.77964115
v -11.17567470 -33.72245630 8.77964115
v -10.46808543 -33.95080439 10.07968397
v 8.26348721 -34.55252780 10.07968397
v 8.26348721 -34.55333016 9.26448364
v 7.29109534 -34.77046259 8.77964115
v -10.46808543 -33.95080439 8.77964115
v -9.98188950 -34.09502637 10.07968397
v 7.29109534 -34.77046259 10.07968397
v 6.47932170 -34.92990623 8.77964115
v -9.98188950 -34.09502637 8.77964115
v -9.23089025 -34.30494915 10.07968397
v 6.47932170 -34.92990623 10.07968397
v 5.99312540 -35.01724178 8.77964115
v -9.23089025 -34.30494915 8.77964115
v -8.25849766 -34.55333016 10.07968397
v 5.99312540 -35.01724178 10.07968397
v 5.34631090 -35.12140081 8.77964115
v -8.25849766 -34.55333016 8.77964115
v -7.44672402 -34.73601037 10.07968397
v 5.34631090 -35.12059845 10.07968397
v 5.34631090 -35.12140081 9.26448364
v 4.37391867 -35.25600606 8.77964115
v -7.28610580 -34.77126495 8.77964115
v -7.28610580 -34.77126495 10.07968397
v 5.19003361 -35.14303266 10.07968397
v 4.21764138 -35.27363480 10.07968397
v 3.40152645 -35.36256928 9.26448364
v 3.40152645 -35.36176981 8.77964115
v 4.37391867 -35.25600606 10.07968397
v -6.47867272 -34.93070859 8.77964115
v -6.47867272 -34.93070859 10.07968397
v 3.40152645 -35.36256928 10.07968397
v 2.91533034 -35.40343169 8.77964115
v -6.23557439 -34.97477465 8.77964115
v -6.40053389 -34.94513079 10.07968397
v 2.42913422 -35.44349464 10.07968397
v 2.42913422 -35.44349464 8.77964115
v -5.99247679 -35.01804124 10.07968397
v -5.99247679 -35.01804124 8.77964115
v 2.27285693 -35.45310847 10.07968397
v 1.45674209 -35.49797689 8.77964115
v -5.34566228 -35.12220028 10.07968397
v -5.34566228 -35.12220028 8.77964115
v 1.45674209 -35.49797689 10.07968397
v 0.97488699 -35.51159962 8.77964115
v -4.52954735 -35.23597604 10.07968397
v -4.37327006 -35.25761078 8.77964115
v 0.48869088 -35.52441710 10.07968397
v 0.48869088 -35.52441710 8.77964115
v -4.37327006 -35.25761078 10.07968397
v -3.40087783 -35.36337164 8.77964115
v -3.55715512 -35.34734762 10.07968397
v -0.00618728 -35.52521946 10.07968397
v -0.48370130 -35.52441710 8.77964115
v -2.42848561 -35.44509646 8.77964115
v -3.40087783 -35.36337164 10.07968397
v -0.48370130 -35.52441710 10.07968397
v -1.45609347 -35.49958161 9.26448364
v -1.45609347 -35.49877925 8.77964115
v -2.42848561 -35.44509646 10.07968397
v -1.45609347 -35.49958161 10.07968397
f 1 2 7
f 1 7 3
f 1 3 8
f 1 8 14
f 1 14 18
f 1 18 16
f 1 16 9
f 1 9 4
f 1 4 10
f 1 10 17
f 1 17 23
f 1 23 27
f 1 27 31
f 1 31 36
f 1 36 40
f 1 40 45
f 1 45 47
f 1 47 52
f 1 52 56
f 1 56 61
f 1 61 65
f 1 65 69
f 1 69 75
f 1 75 81
f 1 81 85
f 1 85 89
f 1 89 93
f 1 93 96
f 1 96 100
f 1 100 105
f 1 105 110
f 1 110 114
f 1 114 118
f 1 118 122
f 1 122 126
f 1 126 131
f 1 131 135
f 1 135 139
f 1 139 143
f 1 143 148
f 1 148 155
f 1 155 159
f 1 159 162
f 1 162 166
f 1 166 170
f 1 170 174
f 1 174 176
f 1 176 180
f 1 180 184
f 1 184 185
f 1 185 181
f 1 181 177
f 1 177 172
f 1 172 168
f 1 168 164
f 1 164 160
f 1 160 156
f 1 156 150
f 1 150 153
f 1 153 149
f 1 149 144
f 1 144 140
f 1 140 136
f 1 136 132
f 1 132 127
f 1 127 123
f 1 123 119
f 1 119 115
f 1 115 111
f 1 111 106
f 1 106 102
f 1 102 98
f 1 98 94
f 1 94 90
f 1 90 87
f 1 87 83
f 1 83 79
f 1 79 78
f 1 78 77
f 1 77 71
f 1 71 66
f 1 66 62
f 1 62 57
f 1 57 53
f 1 53 48
f 1 48 42
f 1 42 38
f 1 38 33
f 1 33 29
f 1 29 24
f 1 24 19
f 1 19 11
f 1 11 5
f 1 5 2
f 2 5 6
f 2 6 7
f 3 7 6
f 3 6 13
f 3 13 21
f 3 21 25
f 3 25 30
f 3 30 35
f 3 35 34
f 3 34 39
f 3 39 43
f 3 43 50
f 3 50 54
f 3 54 58
f 3 58 63
f 3 63 67
f 3 67 70
f 3 70 76
f 3 76 82
f 3 82 86
f 3 86 91
f 3 91 95
f 3 95 99
f 3 99 103
f 3 103 107
f 3 107 112
f 3 112 116
f 3 116 120
f 3 120 124
f 3 124 129
f 3 129 133
f 3 133 137
f 3 137 141
f 3 141 146
f 3 146 152
f 3 152 157
f 3 157 161
f 3 161 165
f 3 165 169
f 3 169 173
f 3 173 178
f 3 178 183
f 3 183 179
f 3 179 175
f 3 175 171
f 3 171 167
f 3 167 163
f 3 163 158
f 3 158 154
f 3 154 147
f 3 147 142
f 3 142 138
f 3 138 134
f 3 134 130
f 3 130 125
f 3 125 121
f 3 121 117
f 3 117 113
f 3 113 109
f 3 109 104
f 3 104 101
f 3 101 97
f 3 97 92
f 3 92 88
f 3 88 84
f 3 84 80
f 3 80 74
f 3 74 68
f 3 68 64
f 3 64 60
f 3 60 55
f 3 55 51
f 3 51 46
f 3 46 41
f 3 41 37
f 3 37 32
f 3 32 28
f 3 28 26
f 3 26 22
f 3 22 15
f 3 15 8
f 4 9 10
f 5 11 12
f 5 12 6
f 6 12 13
f 8 15 10
f 8 10 14
f 9 16 10
f 10 15 22
f 10 22 17
f 10 16 18
f 10 18 14
f 11 19 20
f 11 20 12
f 12 20 21
f 12 21 13
f 17 22 23
f 19 24 20
f 20 24 25
f 20 25 21
f 22 26 23
f 23 26 28
f 23 28 27
f 24 29 30
f 24 30 25
f 27 28 32
f 27 32 31
f 29 33 34
f 29 34 35
f 29 35 30
f 31 32 36
f 32 37 36
f 33 38 34
f 34 38 39
f 36 37 40
f 37 41 44
f 37 44 40
f 38 42 43
f 38 43 39
f 40 44 45
f 41 46 47
f 41 47 44
f 42 48 49
f 42 49 43
f 43 49 50
f 44 47 45
f 46 51 52
f 46 52 47
f 48 53 54
f 48 54 49
f 49 54 50
f 51 55 56
f 51 56 52
f 53 57 54
f 54 57 58
f 55 59 61
f 55 61 56
f 55 60 59
f 57 62 63
f 57 63 58
f 59 60 64
f 59 64 61
f 61 64 65
f 62 66 70
f 62 70 67
f 62 67 63
f 64 68 65
f 65 68 69
f 66 71 72
f 66 72 76
f 66 76 70
f 68 73 69
f 68 74 73
f 69 73 75
f 71 77 72
f 72 77 78
f 72 78 79
f 72 79 76
f 73 74 80
f 73 80 81
f 73 81 75
f 76 79 82
f 79 83 82
f 80 84 85
f 80 85 81
f 82 83 86
f 83 87 86
f 84 88 89
f 84 89 85
f 86 90 91
f 86 87 90
f 88 92 96
f 88 96 93
f 88 93 89
f 90 94 91
f 91 94 95
f 92 97 96
f 94 98 99
f 94 99 95
f 96 97 100
f 97 101 100
f 98 102 103
f 98 103 99
f 100 104 105
f 100 101 104
f 102 106 103
f 103 106 107
f 104 108 110
f 104 110 105
f 104 109 108
f 106 111 112
f 106 112 107
f 108 109 113
f 108 113 110
f 110 113 114
f 111 115 112
f 112 115 116
f 113 117 114
f 114 117 118
f 115 119 116
f 116 119 120
f 117 121 118
f 118 121 122
f 119 123 120
f 120 123 128
f 120 128 124
f 121 125 122
f 122 125 130
f 122 130 126
f 123 127 128
f 124 128 132
f 124 132 129
f 126 130 134
f 126 134 131
f 127 132 128
f 129 132 136
f 129 136 133
f 131 134 138
f 131 138 135
f 133 136 140
f 133 140 137
f 135 138 142
f 135 142 139
f 137 140 145
f 137 145 141
f 139 142 143
f 140 144 145
f 141 145 149
f 141 149 153
f 141 153 146
f 142 147 143
f 143 147 148
f 144 149 145
f 146 150 151
f 146 151 152
f 146 153 150
f 147 154 155
f 147 155 148
f 150 156 151
f 151 156 157
f 151 157 152
f 154 158 159
f 154 159 155
f 156 160 157
f 157 160 161
f 158 162 159
f 158 163 162
f 160 164 161
f 161 164 165
f 162 163 167
f 162 167 166
f 164 168 165
f 165 168 169
f 166 167 170
f 167 171 170
f 168 172 169
f 169 172 173
f 170 171 174
f 171 175 176
f 171 176 174
f 172 177 173
f 173 177 178
f 175 179 184
f 175 184 180
f 175 180 176
f 177 181 178
f 178 181 185
f 178 185 182
f 178 182 183
f 179 182 185
f 179 185 184
f 179 183 182

