# https://github.com/mikedh/trimesh
v -24.98845735 -25.25421030 13.82658781
v -24.63755678 -25.59498433 13.82658781
v -24.98845735 -25.25421030 14.73830593
v -24.98845735 -4.92569859 13.82658781
v -24.12381196 -26.08225708 13.82658781
v -24.63755678 -25.59498433 14.73830593
v -24.98845735 -4.92569859 14.73830593
v -20.09055117 -0.00838298 13.82658781
v -24.12381196 -26.08225708 14.73830593
v -23.97567667 -26.21601942 13.82658781
v -20.09055117 -0.00838298 14.73830593
v -14.25656062 -0.00838298 13.82658781
v -23.63843360 -26.51857274 14.73830593
v -23.63843360 -26.51857274 13.82658781
v -14.25656062 -0.00838298 14.73830593
v -14.25656062 -32.53782582 13.82658781
v -23.28753304 -26.82749860 14.73830593
v -23.08371630 -27.00584548 13.82658781
v -14.25656062 -32.53782582 14.73830593
v -14.40259443 -32.47412947 14.73830593
v -14.35111451 -32.49642174 13.82658781
v -23.08371630 -27.00584548 14.73830593
v -22.59833793 -27.41349924 13.82658781
v -14.93314825 -32.23845586 13.82658781
v -14.93314825 -32.23845586 14.73830593
v -22.59833793 -27.41349924 14.73830593
v -21.99109069 -27.90077198 13.82658781
v -15.27039132 -32.07921498 13.82658781
v -15.41852517 -32.00914900 14.73830593
v -21.99109069 -27.90077198 14.73830593
v -21.50571233 -28.27976093 13.82658781
v -21.81248746 -28.04090106 14.73830593
v -15.41852517 -32.00914900 13.82658781
v -15.64650684 -31.89768183 14.73830593
v -15.60868441 -31.91679073 13.82658781
v -21.50571233 -28.27976093 14.73830593
v -21.08231987 -28.59187015 13.82658781
v -16.03732986 -31.70022604 14.73830593
v -16.03732986 -31.70022604 13.82658781
v -20.89636360 -28.72881876 14.73830593
v -20.89636360 -28.72881876 13.82658781
v -16.85154680 -31.27664964 14.73830593
v -16.85154680 -31.27664964 14.12424588
v -16.85049533 -31.27664964 13.82658781
v -20.35635381 -29.12054408 14.73830593
v -20.35635381 -29.12054408 13.82658781
v -17.15832192 -31.11103913 14.73830593
v -17.18773985 -31.09511359 13.82658781
v -20.17775202 -29.24156715 14.73830593
v -19.87097545 -29.44857884 13.82658781
v -17.33692516 -31.01231123 14.73830593
v -17.33692516 -31.01231123 13.82658781
v -19.87097545 -29.44857884 14.73830593
v -19.13345338 -29.93585158 13.82658781
v -17.57435990 -30.87536553 14.73830593
v -17.98094336 -30.63969192 13.82658781
v -19.13345338 -29.93585158 14.73830593
v -18.64807502 -30.24159117 13.82658781
v -17.98094336 -30.63969192 14.73830593
v -18.18581012 -30.51866885 13.82658781
v -18.64807502 -30.24159117 14.73830593
v -18.22678405 -30.49319031 14.73830593
f 1 2 6
f 1 6 3
f 1 3 7
f 1 7 4
f 1 4 8
f 1 8 12
f 1 12 16
f 1 16 21
f 1 21 24
f 1 24 28
f 1 28 33
f 1 33 35
f 1 35 39
f 1 39 44
f 1 44 48
f 1 48 52
f 1 52 56
f 1 56 60
f 1 60 58
f 1 58 54
f 1 54 50
f 1 50 46
f 1 46 41
f 1 41 37
f 1 37 31
f 1 31 27
f 1 27 23
f 1 23 18
f 1 18 14
f 1 14 10
f 1 10 5
f 1 5 2
f 2 5 9
f 2 9 6
f 3 6 9
f 3 9 13
f 3 13 17
f 3 17 22
f 3 22 26
f 3 26 30
f 3 30 32
f 3 32 36
f 3 36 40
f 3 40 45
f 3 45 49
f 3 49 53
f 3 53 57
f 3 57 61
f 3 61 62
f 3 62 59
f 3 59 55
f 3 55 51
f 3 51 47
f 3 47 42
f 3 42 38
f 3 38 34
f 3 34 29
f 3 29 25
f 3 25 20
f 3 20 19
f 3 19 15
f 3 15 11
f 3 11 7
f 4 7 11
f 4 11 8
f 5 10 9
f 8 11 15
f 8 15 12
f 9 10 13
f 10 14 13
f 12 15 19
f 12 19 16
f 13 14 17
f 14 18 17
f 16 19 20
f 16 20 21
f 17 18 22
f 18 23 26
f 18 26 22
f 20 24 21
f 20 25 24
f 23 27 30
f 23 30 26
f 24 25 28
f 25 29 28
f 27 31 32
f 27 32 30
f 28 29 33
f 29 34 35
f 29 35 33
f 31 36 32
f 31 37 36
f 34 38 39
f 34 39 35
f 36 37 40
f 37 41 40
f 38 42 43
f 38 43 39
f 39 43 44
f 40 41 46
f 40 46 45
f 42 47 43
f 43 47 48
f 43 48 44
f 45 46 49
f 46 50 49
f 47 51 48
f 48 51 52
f 49 50 53
f 50 54 57
f 50 57 53
f 51 55 52
f 52 55 56
f 54 58 61
f 54 61 57
f 55 59 56
f 56 59 60
f 58 60 61
f 59 62 60
f 60 62 61

