# https://github.com/mikedh/trimesh
v -24.98845735 4.92643754 13.82658781
v -20.09055117 -0.00519961 13.82658781
v -24.98845735 4.92643754 14.73830593
v -24.98845735 25.25191578 13.82658781
v -14.25656062 -0.00519961 13.82658781
v -20.09055117 -0.00519961 14.73830593
v -24.98845735 25.25191578 14.73830593
v -24.78568918 25.44943530 13.82658781
v -14.25656062 -0.00519961 14.73830593
v -14.25656062 32.53786596 13.82658781
v -24.81510711 25.42076180 14.73830593
v -24.63650532 25.59279699 14.73830593
v -24.63650532 25.59279699 13.82658781
v -14.25656062 32.54105222 14.73830593
v -14.67575011 32.35308861 13.82658781
v -24.47996407 25.74252831 13.82658781
v -24.12381196 26.08022615 14.73830593
v -14.93314825 32.23839752 13.82658781
v -14.93314825 32.23839752 14.73830593
v -24.12381196 26.08022615 13.82658781
v -23.63738213 26.51986711 14.73830593
v -15.08233357 32.16831126 13.82658781
v -15.41852517 32.00902114 14.73830593
v -23.63738213 26.51986711 13.82658781
v -23.43356539 26.69827483 14.73830593
v -15.41852517 32.00902114 13.82658781
v -15.84822209 31.79557029 13.82658781
v -15.80934964 31.81468788 14.73830593
v -23.08266483 27.00411001 13.82658781
v -23.08266483 27.00411001 14.73830593
v -16.03732986 31.69999679 13.82658781
v -16.03732986 31.69999679 14.73830593
v -22.77588970 27.26216278 14.73830593
v -22.74542176 27.28764712 13.82658781
v -16.60150313 31.40690378 13.82658781
v -16.55107468 31.43238812 14.73830593
v -22.59728791 27.41189411 14.73830593
v -22.59728791 27.41189411 13.82658781
v -16.85049533 31.27628426 13.82658781
v -16.85049533 31.27628426 14.73830593
v -22.41133020 27.56162833 13.82658781
v -21.99003923 27.89932327 14.73830593
v -21.99109069 27.89932327 13.82658781
v -16.99968064 31.19663920 13.82658781
v -17.02909857 31.18070787 14.73830593
v -21.50466086 28.27843677 14.73830593
v -21.50466086 28.27843677 13.82658781
v -17.33587369 31.01186185 13.82658781
v -17.33692516 31.01186185 14.12424588
v -17.33692516 31.01186185 14.73830593
v -21.28088362 28.44409942 14.73830593
v -20.89636360 28.72763653 13.82658781
v -17.78342963 30.75381197 13.82658781
v -17.98094336 30.63912378 14.73830593
v -20.89636360 28.72763653 14.73830593
v -20.35530379 29.11948930 13.82658781
v -17.98094336 30.63912378 13.82658781
v -18.40223433 30.38744353 14.73830593
v -20.35530379 29.11948930 14.73830593
v -19.86992543 29.44762834 13.82658781
v -18.64702500 30.24089558 13.82658781
v -18.64702500 30.24089558 14.73830593
v -19.86992543 29.44762834 14.73830593
v -19.64404525 29.59735967 13.82658781
v -19.13240336 29.93505750 13.82658781
v -19.13240336 29.93505750 14.73830593
f 1 2 6
f 1 6 3
f 1 3 7
f 1 7 4
f 1 4 8
f 1 8 13
f 1 13 16
f 1 16 20
f 1 20 24
f 1 24 29
f 1 29 34
f 1 34 38
f 1 38 41
f 1 41 43
f 1 43 47
f 1 47 52
f 1 52 56
f 1 56 60
f 1 60 64
f 1 64 65
f 1 65 61
f 1 61 57
f 1 57 53
f 1 53 48
f 1 48 44
f 1 44 39
f 1 39 35
f 1 35 31
f 1 31 27
f 1 27 26
f 1 26 22
f 1 22 18
f 1 18 15
f 1 15 10
f 1 10 5
f 1 5 2
f 2 5 9
f 2 9 6
f 3 6 9
f 3 9 14
f 3 14 19
f 3 19 23
f 3 23 28
f 3 28 32
f 3 32 36
f 3 36 40
f 3 40 45
f 3 45 50
f 3 50 54
f 3 54 58
f 3 58 62
f 3 62 66
f 3 66 63
f 3 63 59
f 3 59 55
f 3 55 51
f 3 51 46
f 3 46 42
f 3 42 37
f 3 37 33
f 3 33 30
f 3 30 25
f 3 25 21
f 3 21 17
f 3 17 12
f 3 12 11
f 3 11 7
f 4 7 8
f 5 10 14
f 5 14 9
f 7 11 8
f 8 11 12
f 8 12 13
f 10 15 14
f 12 16 13
f 12 17 16
f 14 15 18
f 14 18 19
f 16 17 20
f 17 21 24
f 17 24 20
f 18 22 19
f 19 22 23
f 21 25 24
f 22 26 23
f 23 26 27
f 23 27 28
f 24 25 29
f 25 30 29
f 27 31 32
f 27 32 28
f 29 30 33
f 29 33 34
f 31 35 32
f 32 35 36
f 33 37 38
f 33 38 34
f 35 39 40
f 35 40 36
f 37 41 38
f 37 42 43
f 37 43 41
f 39 44 40
f 40 44 45
f 42 46 43
f 43 46 47
f 44 48 49
f 44 49 45
f 45 49 50
f 46 51 47
f 47 51 52
f 48 53 49
f 49 53 50
f 50 53 54
f 51 55 52
f 52 55 59
f 52 59 56
f 53 57 54
f 54 57 58
f 56 59 63
f 56 63 60
f 57 61 58
f 58 61 62
f 60 63 64
f 61 65 66
f 61 66 62
f 63 66 64
f 64 66 65

