# https://github.com/mikedh/trimesh
v -5.88256510 -35.03603206 13.00426763
v -5.34544250 -35.12196855 13.00426763
v -5.88256510 -35.03603206 13.82672685
v -5.88256510 -25.31825425 13.00426763
v -5.34544250 -35.12196855 13.82672685
v -4.37262773 -35.25686636 13.00426763
v -5.88256510 -25.31825425 13.82672685
v -4.29540206 -35.26486099 14.73830593
v -4.91205603 -25.31825425 13.00426763
v -4.37262773 -35.25686636 13.82672685
v -3.55023079 -35.34779949 13.00426763
v -3.75885553 -35.32481782 14.73830593
v -5.37713969 -25.31825425 13.82672685
v -4.29540206 -27.33275926 14.73830593
v 0.00446157 -29.90684498 13.00426763
v -4.91205603 -25.31825425 13.82350003
v -3.40154224 -35.36378875 14.73830593
v -3.40154224 -35.36378875 13.00426763
v -4.91205603 -25.32125223 13.82672685
v 0.00388532 -29.90784431 14.73830593
v 0.00446157 -35.52466911 13.00426763
v 0.00446157 -29.90784431 13.82672685
v -2.78776985 -35.41574806 14.73830593
v -2.57914493 -35.43273665 13.00426763
v 0.00388532 -35.52566843 14.73830593
v 0.00446157 -35.52466911 13.82672685
v 0.00388532 -35.52566843 13.82672685
v -0.48597988 -35.52466911 13.00426763
v -2.42988014 -35.44472859 14.73830593
v -2.42988014 -35.44472859 13.00426763
v -0.48655613 -35.52566843 14.73830593
v -0.48655613 -35.52566843 13.82672685
v -1.45821823 -35.49868656 13.00426763
v -1.81610794 -35.47970220 14.73830593
v -1.60690659 -35.49069482 13.00426763
v -1.75617156 -35.48270019 13.82672685
v -1.45821823 -35.49868656 14.73830593
f 1 2 5
f 1 5 3
f 1 3 7
f 1 7 4
f 1 4 9
f 1 9 15
f 1 15 21
f 1 21 28
f 1 28 33
f 1 33 35
f 1 35 30
f 1 30 24
f 1 24 18
f 1 18 11
f 1 11 6
f 1 6 2
f 2 6 10
f 2 10 5
f 3 5 8
f 3 8 14
f 3 14 7
f 4 7 13
f 4 13 16
f 4 16 9
f 5 10 8
f 6 11 12
f 6 12 10
f 7 14 13
f 8 10 12
f 8 12 17
f 8 17 23
f 8 23 29
f 8 29 34
f 8 34 37
f 8 37 31
f 8 31 25
f 8 25 20
f 8 20 14
f 9 16 15
f 11 17 12
f 11 18 17
f 13 14 19
f 13 19 16
f 14 20 19
f 15 16 20
f 15 20 22
f 15 22 26
f 15 26 21
f 16 19 20
f 17 18 23
f 18 24 23
f 20 25 26
f 20 26 22
f 21 26 25
f 21 25 27
f 21 27 32
f 21 32 28
f 23 24 29
f 24 30 29
f 25 31 32
f 25 32 27
f 28 32 33
f 29 30 34
f 30 35 36
f 30 36 34
f 31 37 33
f 31 33 32
f 33 37 34
f 33 34 35
f 34 36 35

