# https://github.com/mikedh/trimesh
v -35.52591365 -0.48873791 10.07980273
v -35.52591365 -0.48873791 11.32157165
v -35.52591365 0.30256760 10.07980273
v -35.52178888 -0.64498297 10.07980273
v -35.52591365 -0.48621786 12.18464997
v -35.52591365 0.49661409 11.32157165
v -27.92723437 0.30256760 10.07980273
v -35.49704608 -1.46148967 10.07980273
v -35.49807727 -1.46148967 11.20825355
v -35.49807727 -1.46148967 11.32157165
v -35.49807727 -1.45896963 12.18464997
v -35.52591365 0.48401386 12.18464997
v -35.52591365 0.49661409 12.18011679
v -29.62510856 0.49661409 11.32157165
v -25.04487164 -2.93825801 10.07980273
v -27.93651220 0.30256760 10.10967832
v -35.48879944 -1.61521469 10.07980273
v -35.44447269 -2.43172139 10.07980273
v -35.44447269 -2.43172139 12.18464997
v -29.99004317 0.49661409 12.18464997
v -29.90035558 0.49661409 12.18011679
v -24.99538603 -4.92660306 12.18011679
v -24.99538603 -4.59647260 11.32157165
v -25.04487164 -25.19814651 10.07980273
v -35.37437195 -3.29106961 11.32157165
v -35.36509412 -3.40447316 10.07980273
v -35.36509412 -3.40195311 12.18464997
v -29.90344626 0.47897376 12.18464997
v -24.99538603 -5.23405309 12.18464997
v -24.99538603 -25.24602739 11.32157165
v -25.04589993 -25.19814651 10.07980273
v -35.36509412 -3.40447316 10.23659598
v -35.25685087 -4.37722492 10.07980273
v -35.25685087 -4.37722492 11.32157165
v -35.25685087 -4.37470487 12.18464997
v -24.99538603 -25.10490478 12.18464997
v -24.99538603 -25.24854744 12.18011679
v -25.12527850 -25.12254511 11.20825355
v -25.12527850 -25.12002506 10.07980273
v -25.04487164 -25.20066655 11.32157165
v -35.12283363 -5.34745664 10.07980273
v -35.12386483 -5.34745664 11.32157165
v -35.12386483 -5.34745664 12.18464997
v -25.12425021 -25.12254511 12.18464997
v -25.12527850 -25.12254511 11.32157165
v -25.54382060 -24.69413138 11.32157165
v -25.59742517 -24.63616741 10.07980273
v -35.10634036 -5.45330077 10.07980273
v -35.01974635 -6.00519823 10.07980273
v -35.03211775 -5.92707606 11.32157165
v -35.01974635 -6.00519823 12.18464997
v -25.60051875 -24.63364737 12.18464997
v -25.59845637 -24.63616741 12.18011679
v -26.08400563 -24.12459070 12.18464997
v -26.08400563 -24.12459070 10.07980273
v -34.94552084 -6.41093226 10.07980273
v -34.93212114 -6.48905443 11.32157165
v -34.93212114 -6.48905443 12.18464997
v -26.52213457 -23.64073450 12.18464997
v -26.47265186 -23.69617698 11.32157165
v -26.15513757 -24.04646781 10.07980273
v -34.93108995 -6.48905443 10.07980273
v -34.90531885 -6.62009902 10.07980273
v -34.79088846 -7.19971700 11.32157165
v -34.77233280 -7.29044012 12.18464997
v -26.57986391 -23.57521329 11.32157165
v -27.00974332 -23.08379695 12.18464997
v -26.52316576 -23.63821446 10.07980273
v -34.77130161 -7.29044012 10.07980273
v -34.77233280 -7.29044012 11.32157165
v -34.57955792 -8.15230911 11.32157165
v -34.55378393 -8.26571266 12.18464997
v -27.00974332 -23.08379695 11.32157165
v -27.41591401 -22.59994076 12.18464997
v -26.93036474 -23.17200003 10.07980273
v -34.73625269 -7.44920596 10.07980273
v -34.55275274 -8.26571266 10.07980273
v -34.55378393 -8.26571266 11.20825355
v -34.33626625 -9.12254011 11.32157165
v -34.30740157 -9.23594365 12.18464997
v -27.41797639 -22.59742071 11.32157165
v -27.07469100 -23.00567406 10.07980273
v -27.42003588 -22.59490066 12.18464997
v -34.51357905 -8.42195700 10.07980273
v -34.30740157 -9.23594365 10.07980273
v -34.27338384 -9.35942811 10.07980273
v -34.12184214 -9.90376615 11.32157165
v -34.09813053 -9.98440837 12.18464997
v -27.47467454 -22.52685940 11.32157165
v -27.82414419 -22.08836404 10.07980273
v -27.41694520 -22.59490066 10.07980273
v -27.90352276 -21.99260082 12.18464997
v -34.09710223 -9.98944846 10.07980273
v -34.09710223 -9.98944846 11.32157165
v -34.08060607 -10.04489021 11.32157165
v -33.95071649 -10.47582471 12.18464997
v -27.90352276 -21.99260082 11.32157165
v -27.90249157 -21.99008078 10.07980273
v -28.28495354 -21.50370598 12.18464997
v -33.97442520 -10.39770181 10.07980273
v -33.95071649 -10.47582471 11.32157165
v -33.72288979 -11.18144791 12.18464997
v -28.28289116 -21.50622603 11.32157165
v -28.28185997 -21.50370598 10.07980273
v -28.73132622 -20.89636605 11.20825355
v -28.73132622 -20.89636605 12.18464997
v -33.95071649 -10.47330466 10.07980273
v -33.91360229 -10.58922825 10.07980273
v -33.72288979 -11.18144791 10.07980273
v -33.38578865 -12.15419967 12.18464997
v -28.73029503 -20.89636605 10.07980273
v -29.12306602 -20.35706738 12.18011679
v -29.12306602 -20.35706738 12.18464997
v -33.38475746 -12.15167963 10.07980273
v -33.38578865 -12.15419967 11.32157165
v -33.12909728 -12.83966250 12.18464997
v -29.12203483 -20.35706738 11.32157165
v -29.12100364 -20.35454733 10.07980273
v -29.45088644 -19.87069258 11.32157165
v -29.44882405 -19.87321263 12.18464997
v -29.45088644 -19.87069258 12.18011679
v -33.34352139 -12.26508317 10.07980273
v -33.12806609 -12.84218255 11.32157165
v -32.93322883 -13.32855734 10.07980273
v -32.93426002 -13.32603729 11.32157165
v -32.93426002 -13.32603729 12.18464997
v -29.17460822 -20.27642588 10.07980273
v -29.93643570 -19.13230733 11.32157165
v -29.93643570 -19.12978728 10.07980273
v -29.44985524 -19.86817253 10.07980273
v -29.93643570 -19.13230733 12.18464997
v -33.12703490 -12.84218255 10.07980273
v -32.61158977 -14.09214306 10.07980273
v -32.64973517 -14.00393998 11.32157165
v -32.93322883 -13.32855734 11.32157165
v -32.61158977 -14.09214306 12.18464997
v -30.24260978 -18.64845258 12.18464997
v -30.24364097 -18.64593253 11.32157165
v -30.24260978 -18.64593253 10.07980273
v -29.98591841 -19.05166583 10.07980273
v -32.23634903 -14.92881014 10.07980273
v -32.23737733 -14.92881014 11.32157165
v -32.23634903 -14.93133018 12.18464997
v -30.24570335 -18.64341248 12.18464997
v -30.63950264 -17.98063008 11.32157165
v -30.57558615 -18.08647348 10.07980273
v -32.04563364 -15.33454344 10.07980273
v -32.00955063 -15.41518638 11.32157165
v -32.00955063 -15.41518638 12.18464997
v -30.63950264 -17.98063008 12.18464997
v -31.01268390 -17.33296795 10.07980273
v -30.63950264 -17.97811003 10.07980273
v -32.00852233 -15.41266633 10.07980273
v -31.95903962 -15.51598969 10.07980273
v -31.69925468 -16.03512655 10.07980273
v -31.69925468 -16.03512655 12.18464997
v -31.01268390 -17.33044790 12.18464997
v -31.01268390 -17.33296795 11.32157165
v -31.05597946 -17.25484650 10.07980273
v -31.63121631 -16.16617042 10.07980273
v -31.27762190 -16.84911320 11.32157165
v -31.27968429 -16.84407311 12.18464997
v -31.27762190 -16.84911320 12.18011679
v -31.27762190 -16.84659315 10.07980273
f 1 2 5
f 1 5 12
f 1 12 13
f 1 13 6
f 1 6 3
f 1 3 7
f 1 7 15
f 1 15 24
f 1 24 31
f 1 31 39
f 1 39 47
f 1 47 55
f 1 55 61
f 1 61 68
f 1 68 75
f 1 75 82
f 1 82 91
f 1 91 90
f 1 90 98
f 1 98 104
f 1 104 111
f 1 111 118
f 1 118 127
f 1 127 130
f 1 130 129
f 1 129 140
f 1 140 139
f 1 139 146
f 1 146 152
f 1 152 151
f 1 151 159
f 1 159 164
f 1 164 160
f 1 160 155
f 1 155 154
f 1 154 153
f 1 153 147
f 1 147 141
f 1 141 133
f 1 133 124
f 1 124 132
f 1 132 122
f 1 122 114
f 1 114 109
f 1 109 108
f 1 108 107
f 1 107 100
f 1 100 93
f 1 93 86
f 1 86 85
f 1 85 84
f 1 84 77
f 1 77 76
f 1 76 69
f 1 69 63
f 1 63 62
f 1 62 56
f 1 56 49
f 1 49 48
f 1 48 41
f 1 41 33
f 1 33 26
f 1 26 18
f 1 18 17
f 1 17 8
f 1 8 4
f 1 4 2
f 2 4 5
f 3 6 14
f 3 14 7
f 4 8 9
f 4 9 10
f 4 10 11
f 4 11 5
f 5 11 19
f 5 19 27
f 5 27 35
f 5 35 43
f 5 43 51
f 5 51 58
f 5 58 65
f 5 65 72
f 5 72 80
f 5 80 88
f 5 88 96
f 5 96 102
f 5 102 110
f 5 110 116
f 5 116 126
f 5 126 136
f 5 136 143
f 5 143 149
f 5 149 156
f 5 156 162
f 5 162 157
f 5 157 150
f 5 150 144
f 5 144 137
f 5 137 131
f 5 131 120
f 5 120 113
f 5 113 106
f 5 106 99
f 5 99 92
f 5 92 83
f 5 83 74
f 5 74 67
f 5 67 59
f 5 59 54
f 5 54 52
f 5 52 44
f 5 44 36
f 5 36 29
f 5 29 28
f 5 28 20
f 5 20 12
f 6 13 20
f 6 20 21
f 6 21 14
f 7 14 16
f 7 16 15
f 8 17 9
f 9 17 18
f 9 18 19
f 9 19 10
f 10 19 11
f 12 20 13
f 14 21 16
f 15 16 22
f 15 22 23
f 15 23 30
f 15 30 24
f 16 21 22
f 18 25 19
f 18 26 25
f 19 25 27
f 20 28 21
f 21 28 22
f 22 29 36
f 22 36 37
f 22 37 30
f 22 30 23
f 22 28 29
f 24 30 31
f 25 26 32
f 25 32 27
f 26 33 34
f 26 34 32
f 27 32 34
f 27 34 35
f 30 37 31
f 31 38 39
f 31 37 40
f 31 40 38
f 33 41 42
f 33 42 43
f 33 43 34
f 34 43 35
f 36 44 37
f 37 44 45
f 37 45 40
f 38 40 45
f 38 45 46
f 38 46 39
f 39 46 47
f 41 48 42
f 42 48 49
f 42 49 50
f 42 50 43
f 43 50 51
f 44 52 53
f 44 53 46
f 44 46 45
f 46 53 54
f 46 54 55
f 46 55 47
f 49 51 50
f 49 56 57
f 49 57 58
f 49 58 51
f 52 54 53
f 54 59 60
f 54 60 61
f 54 61 55
f 56 62 57
f 57 63 64
f 57 64 58
f 57 62 63
f 58 64 65
f 59 66 60
f 59 67 66
f 60 66 68
f 60 68 61
f 63 69 64
f 64 69 70
f 64 70 65
f 65 70 71
f 65 71 72
f 66 67 73
f 66 73 68
f 67 74 73
f 68 73 75
f 69 76 70
f 70 76 71
f 71 76 77
f 71 77 78
f 71 78 72
f 72 78 79
f 72 79 80
f 73 74 81
f 73 81 82
f 73 82 75
f 74 83 81
f 77 84 78
f 78 84 85
f 78 85 79
f 79 85 80
f 80 85 86
f 80 86 87
f 80 87 88
f 81 83 89
f 81 89 90
f 81 90 91
f 81 91 82
f 83 92 89
f 86 93 87
f 87 93 94
f 87 94 88
f 88 94 95
f 88 95 96
f 89 92 97
f 89 97 90
f 90 97 98
f 92 99 97
f 93 100 95
f 93 95 94
f 95 100 96
f 96 100 101
f 96 101 109
f 96 109 102
f 97 99 103
f 97 103 104
f 97 104 98
f 99 105 103
f 99 106 105
f 100 107 101
f 101 107 108
f 101 108 109
f 102 109 115
f 102 115 110
f 103 105 111
f 103 111 104
f 105 106 113
f 105 113 112
f 105 112 111
f 109 114 115
f 110 115 116
f 111 112 117
f 111 117 118
f 112 113 121
f 112 121 119
f 112 119 117
f 113 120 121
f 114 122 115
f 115 122 123
f 115 123 116
f 116 123 124
f 116 124 125
f 116 125 126
f 117 119 127
f 117 127 118
f 119 121 131
f 119 131 128
f 119 128 129
f 119 129 130
f 119 130 127
f 120 131 121
f 122 132 123
f 123 132 124
f 124 133 134
f 124 134 135
f 124 135 126
f 124 126 125
f 126 135 134
f 126 134 136
f 128 131 137
f 128 137 138
f 128 138 139
f 128 139 140
f 128 140 129
f 133 136 134
f 133 141 142
f 133 142 143
f 133 143 136
f 137 144 138
f 138 144 145
f 138 145 146
f 138 146 139
f 141 147 148
f 141 148 142
f 142 148 143
f 143 148 149
f 144 150 145
f 145 150 158
f 145 158 151
f 145 151 152
f 145 152 146
f 147 153 148
f 148 154 155
f 148 155 156
f 148 156 149
f 148 153 154
f 150 157 158
f 151 158 159
f 155 160 161
f 155 161 163
f 155 163 156
f 156 163 162
f 157 163 158
f 157 162 163
f 158 163 159
f 159 163 161
f 159 161 164
f 160 164 161

