# https://github.com/mikedh/trimesh
v -10.16152682 -34.04156951 12.18473397
v -9.97744900 -34.09585190 12.18473397
v -10.16152682 -34.04156951 13.00402142
v -10.16152682 -24.20971614 12.18473397
v -9.98043395 -34.09474250 13.00402142
v -9.23218358 -34.30522722 12.18473397
v -9.23218358 -34.30522722 13.00402142
v -10.16152682 -24.20971614 13.00402142
v -4.88397054 -24.20971614 12.18473397
v -8.26005459 -34.55337940 12.18473397
v -8.40930652 -34.51460544 13.00402142
v -4.88397054 -24.20971614 13.00402142
v 0.00354044 -29.89834344 12.18473397
v -8.26005459 -34.55227000 13.00402142
v -7.28792487 -34.77161834 12.18473397
v -7.28792487 -34.77161834 13.00402142
v 0.00354044 -29.90609765 13.00402142
v 0.00354044 -35.52493270 12.18473397
v -6.47897831 -34.93114308 12.18473397
v -6.47897831 -34.93114308 13.00402142
v 0.00354044 -35.52493270 13.00402142
v -0.48700148 -35.52493270 12.18473397
v -5.99540163 -35.01755172 12.18473397
v -5.99341167 -35.01755172 13.00402142
v -0.48700148 -35.52493270 13.00402142
v -1.45913084 -35.49945126 12.18473397
v -5.34466186 -35.12168758 12.18473397
v -5.44316853 -35.10617626 13.00402142
v -1.45913084 -35.49945126 13.00402142
v -2.43125983 -35.44516888 12.18473397
v -4.37452284 -35.25684029 12.18473397
v -5.34466186 -35.12168758 13.00402142
v -2.43125983 -35.44516888 13.00402142
v -2.57951696 -35.43298286 13.00402142
v -3.40338883 -35.36319205 12.18473397
v -3.55164578 -35.34768073 13.00402142
v -4.37452284 -35.25684029 13.00402142
v -3.40338883 -35.36319205 13.00402142
f 1 2 3
f 1 3 8
f 1 8 4
f 1 4 9
f 1 9 13
f 1 13 18
f 1 18 22
f 1 22 26
f 1 26 30
f 1 30 35
f 1 35 31
f 1 31 27
f 1 27 23
f 1 23 19
f 1 19 15
f 1 15 10
f 1 10 6
f 1 6 2
f 2 5 3
f 2 6 7
f 2 7 5
f 3 5 7
f 3 7 11
f 3 11 14
f 3 14 16
f 3 16 20
f 3 20 24
f 3 24 28
f 3 28 32
f 3 32 37
f 3 37 36
f 3 36 38
f 3 38 34
f 3 34 33
f 3 33 29
f 3 29 25
f 3 25 21
f 3 21 17
f 3 17 12
f 3 12 8
f 4 8 12
f 4 12 9
f 6 10 7
f 7 10 11
f 9 12 13
f 10 14 11
f 10 15 16
f 10 16 14
f 12 17 13
f 13 17 21
f 13 21 18
f 15 19 20
f 15 20 16
f 18 21 25
f 18 25 22
f 19 23 20
f 20 23 24
f 22 25 29
f 22 29 26
f 23 27 28
f 23 28 24
f 26 29 33
f 26 33 30
f 27 31 37
f 27 37 32
f 27 32 28
f 30 33 34
f 30 34 35
f 31 36 37
f 31 35 36
f 34 38 35
f 35 38 36

