# https://github.com/mikedh/trimesh
v 20.43570790 1.90663667 18.37700129
v 27.63354624 4.17250548 18.37700129
v 20.43570790 1.90842243 19.27002472
v 20.43570790 20.14786109 18.37700129
v 27.63354624 4.20285973 18.88111779
v 27.63354624 20.14786109 18.37700129
v 27.63354624 4.21178779 19.00673198
v 27.63354624 4.34034783 19.27002472
v 20.43570790 20.14786109 19.27002472
v 27.63354624 20.14786109 19.27002472
f 1 2 3
f 1 3 9
f 1 9 4
f 1 4 6
f 1 6 2
f 2 5 3
f 2 6 10
f 2 10 8
f 2 8 7
f 2 7 5
f 3 5 7
f 3 7 8
f 3 8 10
f 3 10 9
f 4 9 10
f 4 10 6

