# https://github.com/mikedh/trimesh
v -0.00671643 -35.52552360 11.32163248
v -0.00671643 -35.51937701 10.07980273
v 0.48700995 -35.51937701 10.07980273
v 0.60003114 -35.51937701 11.32163248
v -0.00671643 20.33115538 11.32163248
v -0.00671643 21.94885153 10.07980273
v 1.30195538 -35.50091984 10.07980273
v 1.45859945 -35.49477324 11.32163248
v 4.10171960 27.31247103 11.32163248
v 1.97017109 27.31247103 10.07980273
v -0.00671643 21.93654965 10.10752325
v -0.00671643 21.94269914 10.09427128
v 1.45859945 -35.49477324 10.07980273
v 1.57162064 -35.48862085 11.32163248
v 2.27354488 -35.45171231 10.07980273
v 20.24993557 27.31247103 11.32163248
v 20.24993557 27.31247103 10.07980273
v 2.54321015 -35.43326093 11.32163248
v 2.43018895 -35.43941332 10.07980273
v 20.24993557 -29.19005681 11.32163248
v 20.24993557 -29.19005681 10.07980273
v 3.40376118 -35.35944963 10.07980273
v 3.40376118 -35.35944963 11.32163248
v 19.86923038 -29.44839925 11.32163248
v 19.86923038 -29.44839925 10.07980273
v 4.21870697 -35.27333935 10.07980273
v 4.37535104 -35.25488218 11.32163248
v 19.13161562 -29.93432218 11.32163248
v 19.13161562 -29.93432218 10.07980273
v 4.37535104 -35.25488218 10.07980273
v 5.19029647 -35.14416813 10.07980273
v 5.34694055 -35.11956437 11.32163248
v 19.07411366 -29.97122493 11.32163248
v 18.64582160 -30.24186635 10.07980273
v 5.34694055 -35.11956437 10.07980273
v 5.88825489 -35.03344829 10.07980273
v 5.99334518 -35.01499691 11.32163248
v 18.64582160 -30.23571975 11.32163248
v 18.64582160 -30.24186635 10.23650619
v 18.05692001 -30.59247146 11.32163248
v 17.87648177 -30.69703891 10.07980273
v 6.07265858 -35.00269793 10.07980273
v 6.42361998 -34.94118562 11.32163248
v 17.40853228 -30.96768034 11.32163248
v 17.33318433 -31.01073548 10.07980273
v 6.47913993 -34.92888663 10.07980273
v 7.29011991 -34.76895925 10.07980273
v 7.29011991 -34.76895925 11.32163248
v 17.33318433 -31.01073548 11.32163248
v 17.27766365 -31.04149164 11.32163248
v 16.92670226 -31.23216937 10.07980273
v 8.26170941 -34.55367775 10.07980273
v 7.40314183 -34.74435549 11.32163248
v 16.84738886 -31.27522451 11.32163248
v 16.84738886 -31.27522451 10.07980273
v 9.07863757 -34.34454285 10.07980273
v 8.26170941 -34.55367775 11.32163248
v 16.13158554 -31.65043339 11.32163248
v 16.03640888 -31.69964092 10.07980273
v 9.86384066 -34.12926134 10.07980273
v 9.23528164 -34.30148771 11.32163248
v 16.03640888 -31.69964092 11.32163248
v 15.36026154 -32.03794125 11.32163248
v 15.41776495 -32.00719089 10.07980273
v 10.46860623 -33.95088259 10.07980273
v 10.46860623 -33.95088259 11.32163248
v 9.98479421 -34.09235859 11.32163248
v 14.93196947 -32.23477138 11.32163248
v 14.93196947 -32.23477138 10.07980273
v 11.17647864 -33.72330211 10.07980273
v 11.17647864 -33.72330211 11.32163248
v 14.19038926 -32.56692511 11.32163248
v 14.79713684 -32.29628369 10.07980273
v 11.99142407 -33.44035590 10.07980273
v 12.14806815 -33.38500177 11.32163248
v 14.09124715 -32.60998026 10.07980273
v 14.09124715 -32.60998026 11.32163248
v 12.14806815 -33.38500177 10.07980273
v 12.84206003 -33.12665934 11.32163248
v 13.41708253 -32.89292646 11.32163248
v 13.27035354 -32.95443298 11.32163248
v 13.32587278 -32.92982921 10.07980273
v 12.84007730 -33.12665934 10.07980273
v 12.84206003 -33.12665934 11.20833176
v 12.91939070 -33.09590318 10.07980273
f 1 2 3
f 1 3 4
f 1 4 8
f 1 8 14
f 1 14 18
f 1 18 23
f 1 23 27
f 1 27 32
f 1 32 37
f 1 37 43
f 1 43 48
f 1 48 53
f 1 53 57
f 1 57 61
f 1 61 67
f 1 67 66
f 1 66 71
f 1 71 75
f 1 75 79
f 1 79 81
f 1 81 80
f 1 80 77
f 1 77 72
f 1 72 68
f 1 68 63
f 1 63 62
f 1 62 58
f 1 58 54
f 1 54 50
f 1 50 49
f 1 49 44
f 1 44 40
f 1 40 38
f 1 38 33
f 1 33 28
f 1 28 24
f 1 24 20
f 1 20 16
f 1 16 9
f 1 9 5
f 1 5 11
f 1 11 12
f 1 12 6
f 1 6 2
f 2 6 10
f 2 10 17
f 2 17 21
f 2 21 25
f 2 25 29
f 2 29 34
f 2 34 41
f 2 41 45
f 2 45 51
f 2 51 55
f 2 55 59
f 2 59 64
f 2 64 69
f 2 69 73
f 2 73 76
f 2 76 82
f 2 82 85
f 2 85 83
f 2 83 78
f 2 78 74
f 2 74 70
f 2 70 65
f 2 65 60
f 2 60 56
f 2 56 52
f 2 52 47
f 2 47 46
f 2 46 42
f 2 42 36
f 2 36 35
f 2 35 31
f 2 31 30
f 2 30 26
f 2 26 22
f 2 22 19
f 2 19 15
f 2 15 13
f 2 13 7
f 2 7 3
f 3 7 4
f 4 7 8
f 5 9 10
f 5 10 11
f 6 12 10
f 7 13 8
f 8 13 15
f 8 15 14
f 9 16 17
f 9 17 10
f 10 12 11
f 14 15 18
f 15 19 18
f 16 20 21
f 16 21 17
f 18 19 22
f 18 22 23
f 20 24 25
f 20 25 21
f 22 26 23
f 23 26 27
f 24 28 29
f 24 29 25
f 26 30 27
f 27 30 31
f 27 31 32
f 28 33 29
f 29 33 34
f 31 35 32
f 32 35 36
f 32 36 37
f 33 38 39
f 33 39 34
f 34 40 41
f 34 39 40
f 36 42 37
f 37 42 43
f 38 40 39
f 40 44 41
f 41 44 45
f 42 46 43
f 43 46 47
f 43 47 48
f 44 49 45
f 45 50 51
f 45 49 50
f 47 52 53
f 47 53 48
f 50 54 51
f 51 54 55
f 52 56 57
f 52 57 53
f 54 58 55
f 55 58 59
f 56 60 61
f 56 61 57
f 58 62 59
f 59 62 63
f 59 63 64
f 60 65 66
f 60 66 67
f 60 67 61
f 63 68 69
f 63 69 64
f 65 70 71
f 65 71 66
f 68 72 73
f 68 73 69
f 70 74 71
f 71 74 75
f 72 76 73
f 72 77 76
f 74 78 75
f 75 78 84
f 75 84 79
f 76 77 80
f 76 80 81
f 76 81 82
f 78 83 84
f 79 84 85
f 79 85 81
f 81 85 82
f 83 85 84

