# https://github.com/mikedh/trimesh
v 20.64467625 2.27599930 16.76614981
v 20.64467625 2.27599930 16.55760582
v 20.64378844 2.27599930 17.46503117
v 23.30998042 -4.59573469 17.46503117
v 20.42900226 1.89124683 15.64563859
v 16.92851553 2.27599930 16.55760582
v 23.30643063 -4.59573469 18.37699839
v 16.92851553 2.27599930 17.46503117
v 20.42811445 1.89393741 18.37699839
v 14.24279754 -4.59573469 17.46503117
v 21.54287447 -3.48183569 15.64563859
v 18.14179199 1.89124683 15.64563859
v 14.24279754 1.89393741 17.46503117
v 14.24279754 -4.59573469 18.37699839
v 14.24279754 1.89393741 18.37699839
v 18.14179199 -3.48183569 15.64563859
f 1 2 6
f 1 6 8
f 1 8 3
f 1 3 4
f 1 4 2
f 2 4 5
f 2 5 12
f 2 12 6
f 3 7 4
f 3 8 15
f 3 15 9
f 3 9 7
f 4 7 14
f 4 14 10
f 4 10 16
f 4 16 11
f 4 11 5
f 5 11 16
f 5 16 12
f 6 12 13
f 6 13 15
f 6 15 8
f 7 9 15
f 7 15 14
f 10 14 15
f 10 15 13
f 10 13 12
f 10 12 16

