# https://github.com/mikedh/trimesh
v -5.88256510 24.87565544 13.00409962
v -4.92588732 24.87565544 13.00409962
v -5.88256510 24.87565544 13.82658492
v -5.88256510 35.03417203 13.00409962
v -4.92588732 24.87565544 13.82658492
v 0.00446157 29.90800031 13.00409962
v -5.88256510 35.03417203 13.82658492
v -5.34601892 35.12070232 13.00409962
v 0.00446157 29.90800031 13.07889287
v 0.00446157 29.90904309 13.49238908
v 0.00446157 29.91008587 13.82658492
v 0.00446157 35.52521036 13.00409962
v -5.34544250 35.12070232 13.82658492
v -5.19733038 35.14155498 13.00409962
v 0.00446157 35.52521036 13.82658492
v -0.48713255 35.52521036 13.00409962
v -4.37262773 35.25519171 13.82658492
v -4.37262773 35.25623448 13.15231892
v -4.37435701 35.25519171 13.00409962
v -0.48597988 35.52521036 13.82658492
v -1.31010610 35.50227214 13.00409962
v -4.07525101 35.28855191 13.82658492
v -3.40154224 35.36361454 13.15231892
v -3.40211867 35.36257176 13.00409962
v -1.45821823 35.49810393 13.82658492
v -1.45879447 35.49810393 13.00409962
v -3.40154224 35.36257176 13.82658492
v -3.25343012 35.37508220 13.00409962
v -3.10358873 35.38759264 13.82658492
v -2.42988014 35.44389106 13.82658492
v -2.43103281 35.44389106 13.00409962
v -2.28176802 35.45223039 13.00409962
f 1 2 5
f 1 5 3
f 1 3 7
f 1 7 4
f 1 4 8
f 1 8 14
f 1 14 19
f 1 19 24
f 1 24 28
f 1 28 31
f 1 31 32
f 1 32 26
f 1 26 21
f 1 21 16
f 1 16 12
f 1 12 6
f 1 6 2
f 2 6 9
f 2 9 5
f 3 5 11
f 3 11 15
f 3 15 20
f 3 20 25
f 3 25 30
f 3 30 29
f 3 29 27
f 3 27 22
f 3 22 17
f 3 17 13
f 3 13 7
f 4 7 8
f 5 9 10
f 5 10 11
f 6 12 15
f 6 15 11
f 6 11 10
f 6 10 9
f 7 13 8
f 8 13 14
f 12 16 20
f 12 20 15
f 13 17 18
f 13 18 14
f 14 18 19
f 16 21 20
f 17 22 18
f 18 22 23
f 18 23 19
f 19 23 24
f 20 21 25
f 21 26 25
f 22 27 23
f 23 28 24
f 23 27 29
f 23 29 30
f 23 30 31
f 23 31 28
f 25 26 32
f 25 32 30
f 30 32 31

