# https://github.com/mikedh/trimesh
v 0.00435819 29.90893881 14.73847973
v 0.00435819 29.90893881 15.64563280
v 0.00435819 35.52538416 14.73847973
v 4.87851456 24.17583269 14.73847973
v 0.00435819 35.52538416 15.64563280
v 4.87851456 24.17583269 15.64563280
v 0.48598998 35.52538416 14.73847973
v 5.52663616 24.17583269 14.73847973
v 0.48598998 35.52538416 15.64563280
v 5.52663616 24.17583269 15.64563280
v 0.84383534 35.51649447 14.73847973
v 5.52663616 35.09206648 14.73847973
v 0.90870155 35.51427278 15.64563280
v 5.52663616 35.09206648 15.64563280
v 1.45844285 35.49871801 15.64563280
v 1.45844285 35.49871801 14.73847973
v 5.34555126 35.12206662 14.73847973
v 5.34555126 35.12095433 15.64563280
v 2.43035514 35.44538571 15.64563280
v 2.43035514 35.44538571 14.73847973
v 4.37363915 35.25650387 14.73847973
v 4.37363915 35.25650387 15.64563280
v 3.40172668 35.36427786 15.64563280
v 3.40172668 35.36427786 14.73847973
v 3.82389785 35.31761355 15.64563280
f 1 2 5
f 1 5 3
f 1 3 7
f 1 7 11
f 1 11 16
f 1 16 20
f 1 20 24
f 1 24 21
f 1 21 17
f 1 17 12
f 1 12 8
f 1 8 4
f 1 4 6
f 1 6 2
f 2 6 10
f 2 10 14
f 2 14 18
f 2 18 22
f 2 22 25
f 2 25 23
f 2 23 19
f 2 19 15
f 2 15 13
f 2 13 9
f 2 9 5
f 3 5 9
f 3 9 7
f 4 8 10
f 4 10 6
f 7 9 11
f 8 12 14
f 8 14 10
f 9 13 11
f 11 13 15
f 11 15 16
f 12 17 14
f 14 17 18
f 15 19 20
f 15 20 16
f 17 21 22
f 17 22 18
f 19 23 24
f 19 24 20
f 21 24 25
f 21 25 22
f 23 25 24

