# https://github.com/mikedh/trimesh
v 5.52338038 -4.88381875 13.00409962
v 5.52338038 -4.88381875 13.82658492
v 5.52338038 -0.49068805 13.00409962
v 5.52528562 -35.09378747 13.00409962
v 5.52338038 -0.49068805 13.82658492
v 5.52528562 -35.09040134 13.82658492
v 20.08419905 -0.49068805 13.00409962
v 6.06831512 -35.00233295 13.00409962
v 5.99400561 -35.01588327 13.82658492
v 20.08419905 -0.49068805 13.82658492
v 24.98670939 -4.92446391 13.00409962
v 6.47987495 -34.92781489 13.00409962
v 6.47987495 -34.92781489 13.82658492
v 24.98670939 -4.92446391 13.82658492
v 24.98670939 -25.25412340 13.00409962
v 7.28965573 -34.76862035 13.00409962
v 7.28965573 -34.76862035 13.82658492
v 24.98670939 -25.25412340 13.82658492
v 24.70852810 -25.52170891 13.00409962
v 8.26329893 -34.55184420 13.00409962
v 8.26329893 -34.55184420 13.82658492
v 24.63421859 -25.59283795 13.82658492
v 24.63421859 -25.59283795 13.00409962
v 9.08641785 -34.34184031 13.00409962
v 8.93589358 -34.37909935 13.82658492
v 24.47797859 -25.74187409 13.82658492
v 24.55609714 -25.66735602 13.00409962
v 9.23503615 -34.30119515 13.00409962
v 9.23503615 -34.30119515 13.82658492
v 24.12167441 -26.07719960 13.82658492
v 24.12167441 -26.07719960 13.00409962
v 9.86952380 -34.12506127 13.00409962
v 9.75520130 -34.15893417 13.82658492
v 23.63580507 -26.51752996 13.82658492
v 23.63580507 -26.51752996 13.00409962
v 10.05815508 -34.07086868 13.00409962
v 10.46971418 -33.94893028 13.82658492
v 23.08134267 -27.00528065 13.82658492
v 23.08134267 -27.00528065 13.00409962
v 10.46971418 -33.94893028 13.00409962
v 11.06990529 -33.75586574 13.00409962
v 10.96129997 -33.78973575 13.82658492
v 22.59547478 -27.41173810 13.82658492
v 22.66978429 -27.35076746 13.00409962
v 11.17851134 -33.71860381 13.82658492
v 12.00163026 -33.43747088 13.00409962
v 21.98956867 -27.89609976 13.15231892
v 22.59547478 -27.41173810 13.00409962
v 21.98766270 -27.89609976 13.82658492
v 12.15024929 -33.38327829 13.82658492
v 12.15024929 -33.38327829 13.00409962
v 21.50179336 -28.27884560 13.00409962
v 21.98766270 -27.89609976 13.00409962
v 21.50179336 -28.27884560 13.82658492
v 12.84380234 -33.12585408 13.82658492
v 12.84380234 -33.12585408 13.00409962
v 21.41033594 -28.34658851 13.00409962
v 20.72821435 -28.84788662 13.82658492
v 13.32967167 -32.93278665 13.82658492
v 13.32967167 -32.93278665 13.00409962
v 20.89398128 -28.72595112 13.00409962
v 20.35285630 -29.11885825 13.82658492
v 20.35285630 -29.11885825 13.00409962
v 14.09372375 -32.61100855 13.82658492
v 14.09372375 -32.61100855 13.00409962
v 19.86698841 -29.44741151 13.82658492
v 19.86698841 -29.44741151 13.00409962
v 14.67676695 -32.35019821 13.82658492
v 14.93399130 -32.23503497 13.00409962
v 19.12961117 -29.93177316 13.82658492
v 19.12961117 -29.93177316 13.00409962
v 14.93399130 -32.23503497 13.82658492
v 15.08261033 -32.16729206 13.82658492
v 15.41604871 -32.00809463 13.00409962
v 18.64374183 -30.24000673 13.82658492
v 18.64374183 -30.24000673 13.00409962
v 15.41604871 -32.00809463 13.82658492
v 15.94002579 -31.74389816 13.00409962
v 15.84475644 -31.79470751 13.82658492
v 17.97876815 -30.63630289 13.82658492
v 17.97876815 -30.63630289 13.00409962
v 16.03338772 -31.69647783 13.00409962
v 16.59737706 -31.40518361 13.82658492
v 17.33284978 -31.01227647 13.82658492
v 17.33284978 -31.01227647 13.15231892
v 17.33094381 -31.01227647 13.00409962
v 16.91938398 -31.23582489 13.00409962
v 16.99559946 -31.19517972 13.82658492
f 1 2 5
f 1 5 3
f 1 3 7
f 1 7 11
f 1 11 15
f 1 15 19
f 1 19 23
f 1 23 27
f 1 27 31
f 1 31 35
f 1 35 39
f 1 39 44
f 1 44 48
f 1 48 53
f 1 53 52
f 1 52 57
f 1 57 61
f 1 61 63
f 1 63 67
f 1 67 71
f 1 71 76
f 1 76 81
f 1 81 86
f 1 86 87
f 1 87 82
f 1 82 78
f 1 78 74
f 1 74 69
f 1 69 65
f 1 65 60
f 1 60 56
f 1 56 51
f 1 51 46
f 1 46 41
f 1 41 40
f 1 40 36
f 1 36 32
f 1 32 28
f 1 28 24
f 1 24 20
f 1 20 16
f 1 16 12
f 1 12 8
f 1 8 4
f 1 4 2
f 2 4 6
f 2 6 9
f 2 9 13
f 2 13 17
f 2 17 21
f 2 21 25
f 2 25 29
f 2 29 33
f 2 33 37
f 2 37 42
f 2 42 45
f 2 45 50
f 2 50 55
f 2 55 59
f 2 59 64
f 2 64 68
f 2 68 72
f 2 72 73
f 2 73 77
f 2 77 79
f 2 79 83
f 2 83 88
f 2 88 84
f 2 84 80
f 2 80 75
f 2 75 70
f 2 70 66
f 2 66 62
f 2 62 58
f 2 58 54
f 2 54 49
f 2 49 43
f 2 43 38
f 2 38 34
f 2 34 30
f 2 30 26
f 2 26 22
f 2 22 18
f 2 18 14
f 2 14 10
f 2 10 5
f 3 5 10
f 3 10 7
f 4 8 9
f 4 9 6
f 7 10 14
f 7 14 11
f 8 12 9
f 9 12 13
f 11 14 18
f 11 18 15
f 12 16 17
f 12 17 13
f 15 18 19
f 16 20 21
f 16 21 17
f 18 22 19
f 19 22 23
f 20 24 21
f 21 24 25
f 22 26 27
f 22 27 23
f 24 28 33
f 24 33 29
f 24 29 25
f 26 30 31
f 26 31 27
f 28 32 33
f 30 34 35
f 30 35 31
f 32 36 33
f 33 36 37
f 34 38 39
f 34 39 35
f 36 40 37
f 37 40 41
f 37 41 42
f 38 43 44
f 38 44 39
f 41 45 42
f 41 46 45
f 43 47 48
f 43 48 44
f 43 49 47
f 45 46 50
f 46 51 50
f 47 52 53
f 47 53 48
f 47 49 54
f 47 54 52
f 50 51 56
f 50 56 55
f 52 54 57
f 54 58 57
f 55 56 60
f 55 60 59
f 57 58 61
f 58 62 63
f 58 63 61
f 59 60 65
f 59 65 64
f 62 66 67
f 62 67 63
f 64 65 68
f 65 69 68
f 66 70 71
f 66 71 67
f 68 69 72
f 69 73 72
f 69 74 73
f 70 75 76
f 70 76 71
f 73 74 77
f 74 78 79
f 74 79 77
f 75 80 81
f 75 81 76
f 78 82 79
f 79 82 83
f 80 84 85
f 80 85 81
f 81 85 86
f 82 87 83
f 83 87 88
f 84 88 85
f 85 88 87
f 85 87 86

