# https://github.com/mikedh/trimesh
v 14.24190973 -23.89472624 18.37699839
v 14.24190973 -32.52224787 18.37699839
v 14.24190973 -23.89472624 17.46528027
v 4.80534849 -23.89472624 18.37699839
v 14.09278670 -32.58828758 18.37699839
v 14.24190973 -32.53477279 18.20018960
v 14.24190973 -32.54729772 17.46528027
v 4.80534849 -23.89472624 17.46528027
v 0.00414439 -29.90791672 17.46528027
v 0.00414439 -29.91019345 18.01186680
v 0.00414439 -29.93296656 18.37699839
v 13.61615029 -32.78868922 18.37699839
v 14.09278670 -32.61334032 18.01186680
v 14.24190973 -32.54729772 18.01186680
v 14.09278670 -32.61334032 17.46528027
v 0.00414439 -35.52599575 17.46528027
v 0.00414439 -35.50322264 18.37699839
v 13.29839268 -32.92191279 18.37699839
v 13.32905470 -32.93443771 18.01186680
v 13.66353441 -32.79438395 17.46528027
v 0.00414439 -35.52713412 18.01186680
v 0.48635531 -35.52599575 17.46528027
v 0.48635531 -35.50322264 18.37699839
v 13.11582109 -32.99478559 18.37699839
v 13.32905470 -32.93443771 17.46528027
v 12.84405579 -33.12800626 18.01186680
v 0.48635531 -35.52599575 18.01186680
v 0.91142563 -35.51460920 17.46528027
v 1.45913930 -35.49866918 18.01186680
v 1.45913930 -35.47475770 18.37699839
v 12.81339522 -33.11548134 18.37699839
v 12.84405579 -33.12800626 17.46528027
v 12.37856841 -33.27716985 18.37699839
v 12.14861271 -33.38534068 18.01186680
v 1.45913930 -35.49866918 17.46528027
v 1.88420962 -35.47475770 17.46528027
v 2.43052930 -35.44401313 18.01186680
v 2.43052930 -35.42124002 18.37699839
v 12.14861271 -33.38534068 17.46528027
v 12.14861271 -33.36142920 18.37699839
v 11.54236480 -33.57207903 18.37699839
v 11.17722235 -33.72238099 18.01186680
v 11.60229266 -33.57549413 17.46528027
v 2.43052930 -35.44401313 17.46528027
v 2.85559962 -35.40871510 17.46528027
v 3.40191966 -35.36316887 18.01186680
v 3.40191966 -35.34039576 18.37699839
v 11.17722235 -33.69733114 18.37699839
v 10.43021318 -33.93758428 18.37699839
v 10.46784298 -33.95010920 18.01186680
v 10.77863135 -33.85104819 17.46528027
v 11.17722235 -33.72238099 17.46528027
v 3.40191966 -35.36316887 17.46528027
v 3.82698998 -35.31648429 17.46528027
v 4.37470329 -35.25613641 17.46528027
v 4.37470329 -35.25499804 18.01186680
v 4.37470329 -35.23222493 18.37699839
v 10.24764231 -33.99337869 18.37699839
v 9.94382172 -34.08446824 18.37699839
v 9.98145080 -34.09585480 18.01186680
v 10.25600409 -34.01387217 17.46528027
v 10.46784298 -33.95010920 17.46528027
v 4.79977361 -35.19692690 17.46528027
v 5.34609365 -35.12063611 18.01186680
v 5.68196880 -35.05801150 18.37699839
v 9.47554709 -34.21541508 18.37699839
v 9.23304836 -34.30536626 18.01186680
v 9.56056101 -34.21427671 17.46528027
v 9.98145080 -34.09585480 17.46528027
v 5.34609365 -35.12063611 17.46528027
v 5.62900944 -35.07623115 17.46528027
v 5.99275790 -35.01816001 18.01186680
v 5.96349096 -35.01246528 18.37699839
v 9.23304836 -34.28259315 18.37699839
v 9.23304836 -34.30536626 17.46528027
v 8.26026473 -34.55245249 18.01186680
v 5.99415189 -35.01816001 17.46528027
v 6.26731191 -34.96919869 17.46528027
v 6.47915007 -34.93048266 18.01186680
v 6.17393549 -34.97489052 18.37699839
v 8.62540646 -34.43631020 18.37699839
v 8.26026473 -34.55245249 17.46528027
v 8.26026473 -34.52854101 18.37699839
v 7.28887437 -34.77107378 18.01186680
v 7.71394469 -34.67542787 17.46528027
v 6.47915007 -34.93048266 17.46528027
v 6.83453675 -34.86102496 17.46528027
v 7.28887437 -34.74602393 18.37699839
v 7.28887437 -34.77107378 17.46528027
f 1 2 6
f 1 6 14
f 1 14 7
f 1 7 3
f 1 3 8
f 1 8 4
f 1 4 11
f 1 11 17
f 1 17 23
f 1 23 30
f 1 30 38
f 1 38 47
f 1 47 57
f 1 57 65
f 1 65 73
f 1 73 80
f 1 80 88
f 1 88 83
f 1 83 81
f 1 81 74
f 1 74 66
f 1 66 59
f 1 59 58
f 1 58 49
f 1 49 48
f 1 48 41
f 1 41 40
f 1 40 33
f 1 33 31
f 1 31 24
f 1 24 18
f 1 18 12
f 1 12 5
f 1 5 2
f 2 5 6
f 3 7 15
f 3 15 20
f 3 20 25
f 3 25 32
f 3 32 39
f 3 39 43
f 3 43 52
f 3 52 51
f 3 51 62
f 3 62 61
f 3 61 69
f 3 69 68
f 3 68 75
f 3 75 82
f 3 82 85
f 3 85 89
f 3 89 87
f 3 87 86
f 3 86 78
f 3 78 77
f 3 77 71
f 3 71 70
f 3 70 63
f 3 63 55
f 3 55 54
f 3 54 53
f 3 53 45
f 3 45 44
f 3 44 36
f 3 36 35
f 3 35 28
f 3 28 22
f 3 22 16
f 3 16 9
f 3 9 8
f 4 8 9
f 4 9 10
f 4 10 11
f 5 12 13
f 5 13 6
f 6 13 14
f 7 14 13
f 7 13 15
f 9 16 21
f 9 21 17
f 9 17 11
f 9 11 10
f 12 18 19
f 12 19 13
f 13 19 20
f 13 20 15
f 16 22 21
f 17 21 23
f 18 24 19
f 19 25 20
f 19 24 26
f 19 26 32
f 19 32 25
f 21 22 27
f 21 27 23
f 22 28 27
f 23 27 29
f 23 29 30
f 24 31 26
f 26 31 33
f 26 33 34
f 26 34 39
f 26 39 32
f 27 28 29
f 28 35 29
f 29 35 36
f 29 36 37
f 29 37 38
f 29 38 30
f 33 40 34
f 34 40 41
f 34 41 42
f 34 42 43
f 34 43 39
f 36 44 37
f 37 44 45
f 37 45 46
f 37 46 47
f 37 47 38
f 41 48 42
f 42 48 49
f 42 49 50
f 42 50 51
f 42 51 52
f 42 52 43
f 45 53 46
f 46 54 55
f 46 55 56
f 46 56 57
f 46 57 47
f 46 53 54
f 49 58 50
f 50 58 59
f 50 59 60
f 50 60 61
f 50 61 62
f 50 62 51
f 55 63 64
f 55 64 56
f 56 64 65
f 56 65 57
f 59 66 67
f 59 67 60
f 60 67 68
f 60 68 69
f 60 69 61
f 63 70 64
f 64 70 71
f 64 71 72
f 64 72 65
f 65 72 73
f 66 74 67
f 67 75 68
f 67 74 76
f 67 76 82
f 67 82 75
f 71 77 72
f 72 77 78
f 72 78 79
f 72 79 80
f 72 80 73
f 74 81 76
f 76 81 83
f 76 83 84
f 76 84 85
f 76 85 82
f 78 86 79
f 79 87 84
f 79 84 80
f 79 86 87
f 80 84 88
f 83 88 84
f 84 87 89
f 84 89 85

