# https://github.com/mikedh/trimesh
v -28.35926306 3.56381863 12.18498308
v -28.36003935 3.56381863 12.63690855
v -27.60125330 -4.15674691 12.18498308
v -35.34660509 3.56381863 12.18498308
v -28.36158903 3.56381863 13.00409673
v -27.60435556 -4.15674691 13.00409673
v -35.28065807 -4.15674691 12.18498308
v -35.36522736 3.40058043 12.18498308
v -35.34660509 3.56381863 13.00409673
v -29.49666439 1.94579480 14.73805682
v -28.36081564 -3.56651976 14.73805682
v -35.28065807 -4.15674691 13.00409673
v -35.36522736 -3.40101425 13.82670947
v -35.36445107 -3.40101425 12.18498308
v -35.44436262 2.42870797 12.18498308
v -35.44436262 2.42870797 13.00409673
v -35.37686303 3.25170107 13.00409673
v -35.36445107 3.40058043 13.00409673
v -35.47151830 1.94579480 14.73805682
v -35.34582880 -3.56651976 14.73805682
v -35.36522736 -3.40101425 14.12390987
v -35.44513891 -2.42914178 13.82670947
v -35.44436262 -2.42914178 12.18498308
v -35.49789768 1.45683568 12.18498308
v -35.45289602 2.27982861 13.00409673
v -35.47151830 1.94579480 13.82670947
v -35.49867397 1.45683568 14.73805682
v -35.36445107 -3.40101425 14.73805682
v -35.41565726 -2.78660352 14.73805682
v -35.44513891 -2.42914178 14.73805682
v -35.48238057 -1.75502840 13.82670947
v -35.49013767 -1.60614904 13.00409673
v -35.49789768 -1.45726959 12.18498308
v -35.52582675 0.48571923 12.18498308
v -35.52660304 0.48571923 13.00409673
v -35.52737933 0.48571923 13.82670947
v -35.52660304 0.48496349 14.73805682
v -35.49867397 -1.45726959 14.73805682
v -35.52660304 -0.48615305 13.00434584
v -35.52582675 -0.48539731 12.18498308
v -35.52660304 -0.48615305 14.73805682
v -35.51651706 -0.84285895 14.73805682
f 1 2 3
f 1 3 7
f 1 7 14
f 1 14 23
f 1 23 33
f 1 33 40
f 1 40 34
f 1 34 24
f 1 24 15
f 1 15 8
f 1 8 4
f 1 4 9
f 1 9 5
f 1 5 2
f 2 5 6
f 2 6 3
f 3 6 12
f 3 12 7
f 4 8 9
f 5 10 11
f 5 11 6
f 5 9 19
f 5 19 10
f 6 11 20
f 6 20 12
f 7 12 21
f 7 21 13
f 7 13 14
f 8 15 16
f 8 16 17
f 8 17 18
f 8 18 9
f 9 18 19
f 10 19 27
f 10 27 37
f 10 37 41
f 10 41 42
f 10 42 38
f 10 38 30
f 10 30 29
f 10 29 28
f 10 28 20
f 10 20 11
f 12 20 21
f 13 21 30
f 13 30 22
f 13 22 23
f 13 23 14
f 15 24 25
f 15 25 16
f 16 25 19
f 16 19 17
f 17 19 18
f 19 25 26
f 19 26 27
f 20 28 21
f 21 28 29
f 21 29 30
f 22 30 31
f 22 31 23
f 23 31 32
f 23 32 33
f 24 34 35
f 24 35 36
f 24 36 27
f 24 27 26
f 24 26 25
f 27 36 37
f 30 38 31
f 31 38 32
f 32 38 33
f 33 38 39
f 33 39 40
f 34 40 35
f 35 40 39
f 35 39 36
f 36 39 41
f 36 41 37
f 38 42 39
f 39 42 41

