# https://github.com/mikedh/trimesh
v 0.00414439 35.52609962 18.01186680
v 0.00414439 35.51519680 18.19286988
v 0.00414439 35.52609962 17.46528027
v -0.48599165 35.52609962 18.01186680
v 0.00414439 35.50345396 18.37699839
v 0.00414439 29.91063043 17.46528027
v -0.48599165 35.52609962 17.46528027
v -0.48599165 35.50261394 18.37699839
v -0.91188678 35.51435678 17.46528027
v -1.45793635 35.49841966 18.01186680
v 0.00414439 29.93411321 18.37699839
v 0.00414439 29.91063043 17.74098207
v -4.48916613 26.95821040 17.46528027
v -1.45793635 35.47493688 18.37699839
v -1.45793635 35.49841966 17.46528027
v -1.88383111 35.47493688 17.46528027
v -2.42988105 35.44390265 18.01186680
v -1.82315918 35.45480547 18.37699839
v 0.00414439 29.92237327 18.19599532
v -4.51414863 26.95821040 18.37699839
v 0.00414439 29.91146755 18.01186680
v -4.49035591 26.95821040 18.01186680
v -12.14932658 26.95821040 17.46528027
v -2.42988105 35.44390265 17.46528027
v -2.85577581 35.40867413 17.46528027
v -3.40182538 35.36254280 18.01186680
v -3.40182538 35.33989714 18.37699839
v -2.79510352 35.39021986 18.37699839
v -2.42988105 35.42041697 18.37699839
v -12.14932658 26.95821040 18.37699839
v -12.14932658 33.38475515 17.46528027
v -3.40182538 35.36254280 17.46528027
v -3.82772051 35.31557145 17.46528027
v -4.37377008 35.25518012 18.01186680
v -3.76704821 35.29963432 18.37699839
v -12.14932658 33.36043236 18.37699839
v -12.14932658 33.38475515 18.01186680
v -11.17619174 33.72193450 17.46528027
v -4.37377008 35.25518012 17.46528027
v -4.79966485 35.19646883 17.46528027
v -5.34571442 35.12014038 18.01186680
v -5.68119599 35.05723480 18.37699839
v -4.37377008 35.23169734 18.37699839
v -11.17619174 33.69677169 18.37699839
v -11.17619174 33.72193450 18.01186680
v -10.46597091 33.95007693 17.46528027
v -5.34571442 35.12014038 17.46528027
v -5.62885144 35.07568618 17.46528027
v -5.99050529 35.01781200 18.01186680
v -5.96076403 35.01278060 18.37699839
v -10.42790155 33.93749697 18.37699839
v -10.46597091 33.95007693 18.01186680
v -10.25302334 34.01382252 17.46528027
v -5.99169470 35.01781200 17.46528027
v -6.47588256 34.93058363 18.01186680
v -6.17014225 34.97419782 18.37699839
v -10.24588538 33.99285400 18.37699839
v -9.94252463 34.08427955 18.37699839
v -9.97940421 34.09518237 18.01186680
v -9.98059327 34.09518237 17.46528027
v -6.47588256 34.93058363 17.46528027
v -6.83158787 34.86012660 17.46528027
v -7.28841440 34.76954106 18.01186680
v -7.28841440 34.74521827 18.37699839
v -9.47618131 34.21428499 18.37699839
v -9.23230307 34.30403341 18.01186680
v -9.23230307 34.30403341 17.46528027
v -7.28841440 34.76954106 17.46528027
v -8.26035873 34.55146434 18.01186680
v -8.26035873 34.52714154 18.37699839
v -9.23230307 34.28054773 18.37699839
v -8.68625386 34.44326454 17.46528027
v -8.26035873 34.55146434 17.46528027
v -8.62558156 34.43487887 18.37699839
f 1 2 5
f 1 5 11
f 1 11 19
f 1 19 21
f 1 21 12
f 1 12 6
f 1 6 3
f 1 3 7
f 1 7 4
f 1 4 2
f 2 4 5
f 3 6 13
f 3 13 23
f 3 23 31
f 3 31 38
f 3 38 46
f 3 46 53
f 3 53 60
f 3 60 67
f 3 67 72
f 3 72 73
f 3 73 68
f 3 68 62
f 3 62 61
f 3 61 54
f 3 54 48
f 3 48 47
f 3 47 40
f 3 40 39
f 3 39 33
f 3 33 32
f 3 32 25
f 3 25 24
f 3 24 16
f 3 16 15
f 3 15 9
f 3 9 7
f 4 8 5
f 4 7 9
f 4 9 10
f 4 10 14
f 4 14 8
f 5 8 14
f 5 14 18
f 5 18 29
f 5 29 28
f 5 28 27
f 5 27 35
f 5 35 43
f 5 43 42
f 5 42 50
f 5 50 56
f 5 56 64
f 5 64 70
f 5 70 74
f 5 74 71
f 5 71 65
f 5 65 58
f 5 58 57
f 5 57 51
f 5 51 44
f 5 44 36
f 5 36 30
f 5 30 20
f 5 20 11
f 6 12 13
f 9 15 10
f 10 15 16
f 10 16 17
f 10 17 18
f 10 18 14
f 11 20 19
f 12 21 22
f 12 22 13
f 13 22 20
f 13 20 30
f 13 30 23
f 16 24 17
f 17 24 25
f 17 25 26
f 17 26 27
f 17 27 28
f 17 28 29
f 17 29 18
f 19 20 21
f 20 22 21
f 23 30 36
f 23 36 37
f 23 37 31
f 25 32 26
f 26 32 33
f 26 33 34
f 26 34 35
f 26 35 27
f 31 37 45
f 31 45 38
f 33 39 34
f 34 39 40
f 34 40 41
f 34 41 42
f 34 42 43
f 34 43 35
f 36 44 45
f 36 45 37
f 38 45 52
f 38 52 46
f 40 47 41
f 41 47 48
f 41 48 49
f 41 49 42
f 42 49 50
f 44 51 45
f 45 51 52
f 46 52 53
f 48 54 49
f 49 54 55
f 49 55 50
f 50 55 56
f 51 57 52
f 52 57 58
f 52 58 59
f 52 59 60
f 52 60 53
f 54 61 55
f 55 61 62
f 55 62 63
f 55 63 56
f 56 63 64
f 58 65 66
f 58 66 59
f 59 66 60
f 60 66 67
f 62 68 63
f 63 68 73
f 63 73 69
f 63 69 70
f 63 70 64
f 65 71 66
f 66 71 69
f 66 69 72
f 66 72 67
f 69 73 72
f 69 71 74
f 69 74 70

