# https://github.com/mikedh/trimesh
v -27.66416757 -22.28891341 8.77964115
v -27.41573442 -22.59660387 8.77964115
v -27.66416757 -22.28891341 10.07968397
v -27.66416757 0.52308906 8.77964115
v -27.41573442 -22.59660387 10.07968397
v -27.21135864 -22.84124391 8.77964115
v -27.66416757 -1.45168104 10.07968397
v -27.66416757 0.52308906 9.26944842
v -27.65791090 0.52308906 8.77964115
v -27.07372064 -23.00517729 10.07968397
v -27.00776783 -23.08336101 8.77964115
v -27.00802853 -23.08336101 10.07968397
v -25.00415695 -2.94473916 10.07968397
v -25.00128931 -2.94221694 10.07828491
v -27.66286410 0.52308906 9.26448364
v -25.00128931 -2.79845987 9.98577024
v -25.00128931 -2.67235688 8.77964115
v -27.66208201 0.52308906 9.21727187
v -25.00128931 -2.67235688 9.26448364
v -26.76533065 -23.36078629 8.77964115
v -26.92956238 -23.17415511 10.07968397
v -25.00128931 -3.26756221 10.07968397
v -27.66260340 0.52308906 9.25863250
v -25.00128931 -25.23971859 8.77964115
v -26.52185360 -23.63821446 8.77964115
v -26.52185360 -23.63821446 10.07968397
v -25.00128931 -25.24224153 10.07968397
v -25.12329143 -25.12118370 8.77964115
v -26.30209684 -23.88285305 8.77964115
v -26.15377037 -24.04678643 10.07968397
v -25.04508598 -25.19936598 10.07968397
v -25.59721082 -24.63694660 9.26448364
v -25.59695013 -24.63694660 8.77964115
v -25.12355213 -25.12118370 10.07968397
v -26.08312506 -24.12497016 10.07968397
v -26.08312506 -24.12497016 8.77964115
v -25.59695013 -24.63694660 10.07968397
v -26.00465892 -24.20819832 10.07968397
f 1 2 5
f 1 5 3
f 1 3 7
f 1 7 8
f 1 8 4
f 1 4 9
f 1 9 17
f 1 17 24
f 1 24 28
f 1 28 33
f 1 33 36
f 1 36 29
f 1 29 25
f 1 25 20
f 1 20 11
f 1 11 6
f 1 6 2
f 2 6 5
f 3 5 10
f 3 10 12
f 3 12 21
f 3 21 26
f 3 26 30
f 3 30 35
f 3 35 38
f 3 38 37
f 3 37 34
f 3 34 31
f 3 31 27
f 3 27 22
f 3 22 13
f 3 13 7
f 4 8 15
f 4 15 23
f 4 23 18
f 4 18 9
f 5 6 10
f 6 11 12
f 6 12 10
f 7 13 14
f 7 14 8
f 8 14 16
f 8 16 15
f 9 18 19
f 9 19 17
f 11 20 21
f 11 21 12
f 13 22 14
f 14 22 27
f 14 27 24
f 14 24 17
f 14 17 19
f 14 19 16
f 15 16 19
f 15 19 23
f 18 23 19
f 20 25 21
f 21 25 26
f 24 27 28
f 25 29 26
f 26 29 30
f 27 31 28
f 28 32 33
f 28 31 34
f 28 34 32
f 29 35 30
f 29 36 35
f 32 37 38
f 32 38 36
f 32 36 33
f 32 34 37
f 35 36 38

