# https://github.com/mikedh/trimesh
v 35.47019613 1.94606852 14.73830593
v 35.49684780 1.45765678 14.73830593
v 35.48071660 1.75502111 13.82658781
v 35.47019613 1.94606852 13.82658781
v 29.49695853 1.94606852 14.73830593
v 35.51438095 0.84349951 14.73830593
v 35.52490142 0.48569081 14.12424588
v 35.49684780 1.45765678 13.82658781
v 29.49695853 1.94606852 13.82658781
v 28.36010176 -3.56731560 14.73830593
v 35.52420044 0.48569081 14.73830593
v 35.52490142 0.48569081 13.82658781
v 35.52420044 -0.48627516 14.73830593
v 28.36010176 -3.56731560 13.82658781
v 35.34466015 -3.56731560 14.73830593
v 35.52420044 -0.48627516 13.82658781
v 35.50666729 -1.09989285 14.73830593
v 35.34466015 -3.56731560 13.82658781
v 35.36289429 -3.40163340 14.73830593
v 35.49614682 -1.45770146 13.82658781
v 35.49614682 -1.45770146 14.73830593
v 35.36289429 -3.40163340 13.82658781
v 35.38744012 -3.10426898 13.82658781
v 35.44284639 -2.42966770 13.82658781
v 35.44214541 -2.42966770 14.73830593
v 35.46248247 -2.07185873 14.73830593
f 1 2 3
f 1 3 4
f 1 4 9
f 1 9 5
f 1 5 10
f 1 10 15
f 1 15 19
f 1 19 25
f 1 25 26
f 1 26 21
f 1 21 17
f 1 17 13
f 1 13 11
f 1 11 6
f 1 6 2
f 2 6 7
f 2 7 12
f 2 12 8
f 2 8 3
f 3 8 12
f 3 12 16
f 3 16 20
f 3 20 24
f 3 24 23
f 3 23 22
f 3 22 18
f 3 18 14
f 3 14 9
f 3 9 4
f 5 9 14
f 5 14 10
f 6 11 7
f 7 11 13
f 7 13 16
f 7 16 12
f 10 14 18
f 10 18 15
f 13 17 16
f 15 18 22
f 15 22 19
f 16 17 20
f 17 21 20
f 19 22 23
f 19 23 24
f 19 24 25
f 20 21 26
f 20 26 24
f 24 26 25

