# https://github.com/mikedh/trimesh
v 21.19392332 -3.12954114 19.27002472
v 27.72940071 -4.28886361 19.27002472
v 27.72940071 -4.17271698 19.03829049
v 27.72940071 -4.16306803 19.00900581
v 27.72940071 -4.11160621 18.37700129
v 21.19392332 -3.12954114 18.37700129
v -21.19583928 -3.12954114 19.27002472
v 27.72940071 -6.78047827 19.27002472
v 27.72940071 -6.78047827 18.37700129
v -21.19583928 -3.12954114 18.37700129
v -25.30192798 -4.92856406 18.37700129
v -25.30192798 -4.94464601 18.98313044
v -25.30192798 -5.01683557 19.13086021
v -25.30192798 -5.08509408 19.27002472
v -25.30192798 -6.78047827 19.27002472
v -25.30192798 -6.78047827 18.37700129
f 1 2 3
f 1 3 4
f 1 4 5
f 1 5 6
f 1 6 10
f 1 10 7
f 1 7 14
f 1 14 15
f 1 15 8
f 1 8 2
f 2 8 9
f 2 9 5
f 2 5 4
f 2 4 3
f 5 9 16
f 5 16 11
f 5 11 10
f 5 10 6
f 7 10 11
f 7 11 12
f 7 12 13
f 7 13 14
f 8 15 16
f 8 16 9
f 11 16 15
f 11 15 14
f 11 14 13
f 11 13 12

