# https://github.com/mikedh/trimesh
v -35.49779340 -0.48354402 0.44730098
v -35.25608617 -0.48354402 -0.23509869
v -35.49647834 -0.57608224 0.44730098
v -35.49779340 0.48538576 0.44730098
v -34.50337720 -0.48354402 -0.50239743
v -34.50337720 -1.45791725 -0.49625662
v -35.24163501 -1.45791725 -0.22895788
v -35.25608617 0.48538576 -0.23509869
v -35.47152119 -1.45791725 0.44730098
v -35.47152119 1.45431555 0.44730098
v -35.24163501 1.45431555 -0.22895788
v -33.53129383 -7.28782594 -0.50342282
v -34.50337720 0.48538576 -0.50239743
v -34.50337720 -2.42684695 -0.48192422
v -35.21667785 -2.42684695 -0.21471817
v -34.50337720 1.45431555 -0.49625662
v -35.46757891 -1.55045547 0.44730098
v -35.42160110 2.42868878 0.44730098
v -35.17595448 3.39761865 -0.18782029
v -35.21667785 2.42868878 -0.21471817
v -34.50337720 2.42868878 -0.48192422
v -31.58712708 -13.11773516 -0.50342282
v -32.55921046 -11.17443233 -0.49728202
v -33.53129383 -8.25675635 -0.48527270
v -33.53129383 7.28422432 -0.50342282
v -34.50337720 -3.40122027 -0.45502634
v -35.17595448 -3.40122027 -0.18782029
v -35.41766171 -2.52482861 0.44730098
v -35.34541169 3.39761865 0.44730098
v -35.12209790 4.37199179 -0.14016534
v -34.50337720 4.37199179 -0.40737139
v -34.50337720 3.39761865 -0.45502634
v -33.53129383 8.25859746 -0.48527270
v -29.64296034 -17.00434083 -0.50342282
v -30.61504371 -16.03541186 -0.46740643
v -31.58712708 -14.09210830 -0.46442872
v -32.55921046 -12.14880547 -0.41919533
v -33.53129383 -9.23112949 -0.40848948
v -34.27480607 -8.25675635 -0.21797395
v -34.50337720 -4.37014996 -0.40737139
v -32.55921046 11.17627416 -0.49728202
v -31.58712708 13.11957699 -0.50342282
v -35.12209790 -4.37014996 -0.14016534
v -35.33884508 -3.50464537 0.44730098
v -35.24032284 4.37199179 0.44730098
v -35.00912450 5.93969833 -0.00027668
v -35.05509942 5.34092149 -0.06301136
v -34.27480607 8.25859746 -0.21797395
v -33.53129383 9.23297133 -0.40848948
v -27.70142371 -19.92201753 -0.50342282
v -28.67350708 -18.94764439 -0.49756010
v -29.64296034 -17.97871397 -0.43753085
v -30.66890319 -17.03700150 -0.26078578
v -31.38877045 -16.03541186 -0.20010190
v -32.32932717 -14.09210830 -0.19712419
v -33.21471224 -12.14880547 -0.15189080
v -33.36840612 -11.17443233 -0.22997749
v -34.16183557 -9.23112949 -0.14119074
v -35.00912450 -5.93785650 -0.00027668
v -35.05509942 -5.34452310 -0.06301136
v -32.55921046 12.14520385 -0.41919533
v -31.58712708 14.08850741 -0.46442872
v -30.61504371 16.03180952 -0.46740643
v -29.64296034 17.00618266 -0.50342282
v -35.23112612 -4.48990540 0.44730098
v -35.11290117 5.34092149 0.44730098
v -35.01700616 5.98868934 0.44730098
v -34.51651331 8.25859746 0.44730098
v -34.29056940 9.23297133 0.44730098
v -34.07119500 9.89162534 -0.04476854
v -34.16183557 9.23297133 -0.14119074
v -33.36840612 11.17627416 -0.22997749
v -26.72934033 -20.89639067 -0.50342282
v -24.78517359 -23.80862320 -0.49570047
v -25.75725696 -22.83969423 -0.48760157
v -26.72934033 -21.86532109 -0.46731374
v -27.70142371 -20.89639067 -0.42477999
v -29.66266594 -18.92587061 -0.23212098
v -30.37465153 -17.97871397 -0.17022631
v -31.21931324 -16.73761272 -0.09893506
v -32.18219989 -14.81064022 -0.09502464
v -33.09911162 -12.76935609 -0.04300161
v -34.07119500 -9.89522696 -0.04476854
v -34.93030786 -6.40599137 0.44730098
v -35.01700616 -5.98684751 0.44730098
v -35.10633167 -5.42073134 0.44730098
v -34.27743619 -9.31278045 0.44730098
v -34.50074998 -8.36018110 0.44730098
v -33.21471224 12.14520385 -0.15189080
v -32.32932717 14.08850741 -0.19712419
v -31.38877045 16.03180952 -0.20010190
v -30.66890319 17.03884334 -0.26078578
v -29.64296034 17.98055580 -0.43753085
v -28.67350708 18.94948622 -0.49756010
v -27.70142371 19.92385936 -0.50342282
v -34.09483998 9.96783358 0.44730098
v -33.36577890 12.14520385 0.44730098
v -33.09911162 12.77119792 -0.04300161
v -22.07910260 -25.54507872 -0.50342282
v -23.81308876 -24.78299923 -0.49570047
v -24.82326684 -24.82110118 -0.27716898
v -25.79009577 -23.83584115 -0.27074431
v -26.74247644 -22.83969423 -0.24803492
v -27.68434532 -21.81632935 -0.19777882
v -28.74969649 -19.99822577 -0.28489133
v -29.35133590 -19.72061077 -0.13923263
v -30.20387927 -18.58293426 -0.05919364
v -31.27054550 -16.83559474 0.44730098
v -31.63441996 -16.11162010 0.44730098
v -32.01799713 -15.34409644 0.44730098
v -32.22949277 -14.91406641 0.44730098
v -32.55001663 -14.17375926 0.44730098
v -32.94410558 -13.25382058 0.44730098
v -33.12275661 -12.82923327 0.44730098
v -33.34738836 -12.22501298 0.44730098
v -34.09483998 -9.97143520 0.44730098
v -32.18219989 14.80703933 -0.09502464
v -31.21931324 16.73945455 -0.09893506
v -30.37465153 17.98055580 -0.17022631
v -29.66266594 18.92226827 -0.23212098
v -27.70142371 20.89278978 -0.42477999
v -26.72934033 21.86716292 -0.46731374
v -25.75725696 22.83609189 -0.48760157
v -24.78517359 23.81046503 -0.49570047
v -23.81308876 23.81046503 -0.50342282
v -33.12275661 12.83107510 0.44730098
v -32.22949277 14.91046408 0.44730098
v -22.07910260 -25.75192531 -0.50007435
v -22.07910260 24.77939545 -0.50342282
v -22.84100539 -25.75192531 -0.48769426
v -25.48796246 -24.52171385 -0.13672417
v -23.84067459 -25.78458743 -0.27083700
v -24.52376075 -25.48520009 -0.13672417
v -26.42851918 -23.53100820 -0.12592563
v -27.34805813 -22.51308749 -0.09893506
v -28.24920364 -21.46250756 -0.04225429
v -28.45019039 -20.89639067 -0.15756815
v -29.43672204 -19.85125346 0.44730098
v -29.96611432 -19.06195602 0.44730098
v -30.23672098 -18.63736872 0.44730098
v -30.57695045 -18.04947949 0.44730098
v -31.02752321 -17.26562622 0.44730098
v -31.27054550 16.83199385 0.44730098
v -30.20387927 18.58477609 -0.05919364
v -29.35133590 19.72245260 -0.13923263
v -28.74969649 19.99462343 -0.28489133
v -27.68434532 21.81817118 -0.19777882
v -26.74247644 22.83609189 -0.24803492
v -25.79009577 23.83768298 -0.27074431
v -24.82326684 24.81749739 -0.27716898
v -23.81308876 24.77939545 -0.49570047
v -22.84100539 24.77939545 -0.50342282
v -22.07910260 -26.51400479 -0.47196569
v -22.07910260 25.75376714 -0.50007435
v -25.05840747 -25.15859046 0.44730098
v -25.16086909 -25.05517007 0.44730098
v -25.58385747 -24.61969442 0.44730098
v -26.11981636 -24.05902169 0.44730098
v -22.07910260 -26.72629700 -0.42012225
v -22.84100539 -26.73718824 -0.24831300
v -23.53460044 -26.42690966 -0.12611101
v -24.62491021 -25.58318067 0.44730098
v -26.51127809 -23.62354750 0.44730098
v -27.04592192 -23.01388304 0.44730098
v -28.66299530 -20.96715474 0.44730098
v -29.13721594 -20.28672766 0.44730098
v -27.40716916 -22.58385301 0.44730098
v -27.94444310 -21.92519827 0.44730098
v -28.27679091 -21.49516824 0.44730098
v -30.23672098 18.63376782 0.44730098
v -29.43672204 19.85309529 0.44730098
v -28.24920364 21.45890522 -0.04225429
v -28.45019039 20.89278978 -0.15747546
v -27.34805813 22.51492932 -0.09893506
v -26.42851918 23.53285003 -0.12592563
v -25.48796246 24.51811006 -0.13672417
v -24.52376075 25.48159631 -0.13672417
v -23.84067459 25.78642926 -0.27083700
v -22.84100539 25.75376714 -0.48769426
v -22.07910260 26.72813883 -0.42012225
v -22.07910260 -27.43938910 -0.21117852
v -22.51654070 -27.34684835 -0.09921314
v -23.62655462 -26.50856497 0.44730098
v -24.06005044 -26.11663689 0.44730098
v -28.27679091 21.49700862 0.44730098
v -27.40716916 22.58569484 0.44730098
v -26.51127809 23.62538933 0.44730098
v -25.58385747 24.62153625 0.44730098
v -24.62491021 25.57957688 0.44730098
v -23.53460044 26.42331167 -0.12611101
v -22.84100539 26.73903007 -0.24831300
v -22.07910260 27.55554256 -0.16157126
v -22.07910260 -27.55370073 -0.16157126
v -22.07910260 -27.80410067 0.41426230
v -22.07910260 -27.81498612 0.44730098
v -22.58747566 -27.40128715 0.44730098
v -23.01834571 -27.04202119 0.44730098
v -23.62655462 26.50496118 0.44730098
v -22.51654070 27.34325035 -0.09921314
v -22.07910260 27.79505127 0.44730098
v -22.58747566 27.40312898 0.44730098
f 1 2 3
f 1 3 9
f 1 9 17
f 1 17 28
f 1 28 44
f 1 44 65
f 1 65 86
f 1 86 85
f 1 85 84
f 1 84 88
f 1 88 87
f 1 87 116
f 1 116 115
f 1 115 114
f 1 114 113
f 1 113 112
f 1 112 111
f 1 111 110
f 1 110 109
f 1 109 108
f 1 108 142
f 1 142 141
f 1 141 140
f 1 140 139
f 1 139 138
f 1 138 166
f 1 166 165
f 1 165 169
f 1 169 168
f 1 168 167
f 1 167 164
f 1 164 163
f 1 163 158
f 1 158 157
f 1 157 156
f 1 156 155
f 1 155 162
f 1 162 184
f 1 184 183
f 1 183 197
f 1 197 196
f 1 196 195
f 1 195 200
f 1 200 201
f 1 201 198
f 1 198 189
f 1 189 188
f 1 188 187
f 1 187 186
f 1 186 185
f 1 185 171
f 1 171 170
f 1 170 143
f 1 143 127
f 1 127 126
f 1 126 97
f 1 97 96
f 1 96 69
f 1 69 68
f 1 68 67
f 1 67 66
f 1 66 45
f 1 45 29
f 1 29 18
f 1 18 10
f 1 10 4
f 1 4 8
f 1 8 2
f 2 5 6
f 2 6 7
f 2 7 3
f 2 8 13
f 2 13 5
f 3 7 9
f 4 10 11
f 4 11 8
f 5 12 6
f 5 13 25
f 5 25 12
f 6 14 7
f 6 12 14
f 7 14 15
f 7 15 9
f 8 11 16
f 8 16 13
f 9 15 17
f 10 18 19
f 10 19 20
f 10 20 11
f 11 20 21
f 11 21 16
f 12 22 23
f 12 23 24
f 12 24 14
f 12 25 42
f 12 42 64
f 12 64 95
f 12 95 125
f 12 125 152
f 12 152 129
f 12 129 99
f 12 99 73
f 12 73 50
f 12 50 34
f 12 34 22
f 13 16 25
f 14 26 15
f 14 24 26
f 15 26 27
f 15 27 17
f 16 21 25
f 17 27 28
f 18 29 30
f 18 30 19
f 19 30 31
f 19 31 32
f 19 32 20
f 20 32 21
f 21 32 33
f 21 33 25
f 22 34 35
f 22 35 36
f 22 36 23
f 23 36 37
f 23 37 38
f 23 38 24
f 24 38 39
f 24 39 40
f 24 40 26
f 25 33 41
f 25 41 42
f 26 40 27
f 27 40 43
f 27 43 28
f 28 43 44
f 29 45 46
f 29 46 47
f 29 47 30
f 30 47 48
f 30 48 31
f 31 48 33
f 31 33 32
f 33 48 49
f 33 49 41
f 34 50 51
f 34 51 35
f 35 51 52
f 35 52 53
f 35 53 54
f 35 54 36
f 36 55 37
f 36 54 55
f 37 56 57
f 37 57 38
f 37 55 56
f 38 57 39
f 39 57 58
f 39 58 59
f 39 59 60
f 39 60 43
f 39 43 40
f 41 49 61
f 41 61 62
f 41 62 42
f 42 62 63
f 42 63 64
f 43 60 44
f 44 60 59
f 44 59 65
f 45 66 46
f 46 66 67
f 46 67 68
f 46 68 69
f 46 69 70
f 46 70 71
f 46 71 48
f 46 48 47
f 48 71 72
f 48 72 49
f 49 72 61
f 50 73 100
f 50 100 74
f 50 74 51
f 51 74 75
f 51 75 76
f 51 76 77
f 51 77 52
f 52 77 78
f 52 78 53
f 53 78 79
f 53 79 54
f 54 79 80
f 54 80 81
f 54 81 55
f 55 81 56
f 56 81 82
f 56 82 83
f 56 83 58
f 56 58 57
f 58 83 59
f 59 84 85
f 59 85 86
f 59 86 65
f 59 83 87
f 59 87 88
f 59 88 84
f 61 89 90
f 61 90 62
f 61 72 89
f 62 90 91
f 62 91 63
f 63 91 92
f 63 92 93
f 63 93 94
f 63 94 64
f 64 94 95
f 69 96 70
f 70 96 97
f 70 97 98
f 70 98 89
f 70 89 71
f 71 89 72
f 73 99 100
f 74 100 101
f 74 101 75
f 75 101 102
f 75 102 76
f 76 102 103
f 76 103 77
f 77 103 104
f 77 104 105
f 77 105 78
f 78 105 106
f 78 106 79
f 79 106 107
f 79 107 80
f 80 108 109
f 80 109 110
f 80 110 81
f 80 107 108
f 81 110 111
f 81 111 82
f 82 111 112
f 82 112 113
f 82 113 114
f 82 114 115
f 82 115 83
f 83 116 87
f 83 115 116
f 89 98 117
f 89 117 90
f 90 117 91
f 91 118 119
f 91 119 92
f 91 117 118
f 92 119 93
f 93 119 120
f 93 120 121
f 93 121 94
f 94 121 122
f 94 122 123
f 94 123 124
f 94 124 95
f 95 124 125
f 97 126 98
f 98 126 127
f 98 127 117
f 99 128 100
f 99 129 154
f 99 154 180
f 99 180 192
f 99 192 200
f 99 200 195
f 99 195 194
f 99 194 193
f 99 193 181
f 99 181 159
f 99 159 153
f 99 153 128
f 100 128 130
f 100 130 101
f 101 131 102
f 101 130 132
f 101 132 133
f 101 133 131
f 102 134 103
f 102 131 134
f 103 134 135
f 103 135 104
f 104 135 136
f 104 136 137
f 104 137 106
f 104 106 105
f 106 137 136
f 106 136 107
f 107 136 138
f 107 138 139
f 107 139 140
f 107 140 141
f 107 141 142
f 107 142 108
f 117 127 118
f 118 143 144
f 118 144 119
f 118 127 143
f 119 144 145
f 119 145 120
f 120 145 146
f 120 146 121
f 121 147 148
f 121 148 122
f 121 146 147
f 122 148 149
f 122 149 123
f 123 149 150
f 123 150 124
f 124 150 151
f 124 151 152
f 124 152 125
f 128 153 130
f 129 152 154
f 130 153 132
f 131 133 155
f 131 155 156
f 131 156 157
f 131 157 158
f 131 158 134
f 132 153 159
f 132 159 160
f 132 160 161
f 132 161 133
f 133 161 162
f 133 162 155
f 134 158 163
f 134 163 135
f 135 163 164
f 135 164 136
f 136 165 166
f 136 166 138
f 136 164 167
f 136 167 168
f 136 168 169
f 136 169 165
f 143 170 144
f 144 170 171
f 144 171 172
f 144 172 145
f 145 172 173
f 145 173 147
f 145 147 146
f 147 173 172
f 147 172 174
f 147 174 148
f 148 174 175
f 148 175 149
f 149 175 176
f 149 176 150
f 150 176 177
f 150 177 178
f 150 178 179
f 150 179 151
f 151 179 154
f 151 154 152
f 154 179 180
f 159 181 160
f 160 181 182
f 160 182 161
f 161 182 183
f 161 183 184
f 161 184 162
f 171 185 172
f 172 185 186
f 172 186 174
f 174 186 187
f 174 187 175
f 175 187 188
f 175 188 176
f 176 188 177
f 177 189 190
f 177 190 178
f 177 188 189
f 178 190 191
f 178 191 180
f 178 180 179
f 180 191 192
f 181 193 182
f 182 193 194
f 182 194 195
f 182 195 196
f 182 196 197
f 182 197 183
f 189 198 190
f 190 198 199
f 190 199 191
f 191 199 192
f 192 199 200
f 198 201 199
f 199 201 200

