# https://github.com/mikedh/trimesh
v -5.07001009 25.76680766 19.27023037
v -5.45447869 25.76680766 20.08949464
v -0.77956115 20.14786254 19.27023037
v -0.77398953 20.14786254 18.37700418
v -4.93349598 25.06333808 18.37700418
v -24.25165799 25.76680766 19.27023037
v -5.43776311 25.02318824 20.69458391
v -1.92182444 20.44596958 20.69458391
v -5.51577086 25.76680766 20.13600543
v -5.76372535 25.53910261 20.51898011
v -29.02408612 20.14786254 19.27023037
v -29.23582218 20.14786254 18.37700418
v -25.14875259 25.06333808 18.37700418
v -25.09024696 25.06333808 18.98390673
v -25.08746042 25.06333808 19.00092429
v -24.24887290 25.76680766 19.28066684
v -5.60213749 25.17609134 20.69458391
v -17.13620055 20.44596958 20.69458391
v -6.16212445 25.76680766 20.55822911
v -26.20464924 20.44596958 20.56004528
v -26.74234609 20.44596958 20.53145869
v -27.18253741 20.44596958 20.50241732
v -27.42213302 20.44596958 20.47859564
v -27.60322299 20.44596958 20.43616906
v -27.88182429 20.44596958 20.32000650
v -28.14927944 20.44596958 20.11808124
v -28.50867286 20.44596958 19.83652251
v -29.13552722 20.14786254 19.14499275
v -29.18845978 20.14786254 18.98390673
v -29.08259176 20.30406633 18.98390673
v -29.10488113 20.33816806 18.37700418
v -25.57779778 24.62057747 18.37700418
v -25.54993533 24.59307710 18.98390673
v -25.49978930 24.53807636 19.27023037
v -25.22954761 24.81418368 19.27023037
v -24.46339549 25.43074930 19.64662396
v -24.53583090 25.50005058 19.27023037
v -23.70002991 25.76680766 19.91910763
v -6.26242013 25.76680766 20.59974905
v -6.27077828 25.60840390 20.69458391
v -16.98297013 20.59337348 20.69458391
v -21.86683791 24.78393153 20.56390067
v -22.83915301 23.81150781 20.56435543
v -23.80868303 22.84073225 20.56435543
v -24.78099958 21.86885743 20.56390067
v -25.75331468 20.89698261 20.56185856
v -24.78099958 22.84073225 20.53690141
v -26.76184893 20.92558225 20.50718224
v -26.46096116 21.69890201 20.47814087
v -27.34412454 20.62032494 20.47315002
v -27.10731257 21.26824197 20.42051291
v -27.68123147 20.92558225 20.20974142
v -28.38051835 20.89698261 19.68179165
v -28.19942837 21.40134533 19.48985099
v -28.94607764 20.56092281 18.37700418
v -28.39723466 21.18243873 19.27023037
v -28.65354657 20.89698261 18.98390673
v -26.06534859 24.10741487 18.37700418
v -26.03470251 24.07936414 18.98390673
v -26.18793293 23.80985674 19.27023037
v -25.42735099 24.46547295 19.64685279
v -24.71970741 24.72013090 19.97083520
v -23.99255954 24.97478596 20.29436864
v -23.73346108 25.68375619 19.95926616
v -23.50222363 25.76680766 20.05001681
v -7.29324231 25.76680766 20.60814342
v -19.92220481 25.76680766 20.56549090
v -20.88337667 25.76680766 20.56185856
v -7.29324231 25.57870210 20.69458391
v -16.03294151 21.26439093 20.69458391
v -22.83915301 24.78393153 20.53690141
v -23.80868303 23.81150781 20.53894351
v -24.70299110 23.72790453 20.47519213
v -25.51928924 22.84073225 20.47632470
v -25.84803947 21.96125914 20.51194715
v -26.23250879 22.34681904 20.44047921
v -26.76184893 21.96125914 20.29799809
v -27.65058539 21.78250528 19.72762174
v -27.37477063 22.55252436 18.98390673
v -27.86232144 21.94475863 18.98390673
v -28.24400423 21.45909640 18.98390673
v -27.29397561 22.45517235 19.57651742
v -27.33576783 22.50577315 19.27023037
v -28.54767854 21.10818714 18.37700418
v -26.50553702 23.62120228 18.37700418
v -26.48046400 23.59370191 18.98390673
v -26.43310161 23.54035079 19.27023037
v -26.37180944 23.47434874 19.62529915
v -24.97044626 23.99631268 20.29482051
v -25.68366580 23.73505480 19.95994687
v -24.32688138 24.32687038 20.45091568
v -23.34620667 25.28939496 20.44841880
v -23.00909974 25.76680766 20.35834886
v -20.89452136 25.76680766 20.56140669
v -14.09109639 22.62787665 20.69458391
v -13.12435291 23.23729200 20.69458391
v -11.17971981 24.27351926 20.69458391
v -8.24327021 25.46264961 20.69458391
v -22.17329876 25.76680766 20.50309802
v -22.83915301 25.51930142 20.47609876
v -23.72510293 24.70417930 20.47496330
v -22.02285487 25.76680766 20.51376043
v -25.28805324 23.34839565 20.44841880
v -26.00405642 22.84073225 20.31433205
v -26.70891347 22.80333128 19.82086926
v -27.39984654 22.58222471 18.37700418
v -27.88739736 21.97555968 18.37700418
v -27.12403178 22.75658007 19.27023037
v -26.96522829 23.03708733 18.98390673
v -27.14631826 22.88528349 18.37700418
v -28.26350418 21.48934710 18.37700418
v -26.80921133 23.27579368 18.37700418
v -22.66642119 25.76680766 20.46362019
v -26.99030130 23.06733803 18.37700418
f 1 2 3
f 1 3 4
f 1 4 5
f 1 5 13
f 1 13 6
f 1 6 16
f 1 16 38
f 1 38 65
f 1 65 93
f 1 93 113
f 1 113 99
f 1 99 102
f 1 102 94
f 1 94 68
f 1 68 67
f 1 67 66
f 1 66 39
f 1 39 19
f 1 19 9
f 1 9 2
f 2 7 8
f 2 8 3
f 2 9 10
f 2 10 7
f 3 8 18
f 3 18 11
f 3 11 28
f 3 28 29
f 3 29 12
f 3 12 4
f 4 12 31
f 4 31 55
f 4 55 84
f 4 84 111
f 4 111 107
f 4 107 106
f 4 106 110
f 4 110 114
f 4 114 112
f 4 112 85
f 4 85 58
f 4 58 32
f 4 32 13
f 4 13 5
f 6 13 14
f 6 14 15
f 6 15 16
f 7 10 17
f 7 17 40
f 7 40 69
f 7 69 98
f 7 98 97
f 7 97 96
f 7 96 95
f 7 95 70
f 7 70 41
f 7 41 18
f 7 18 8
f 9 19 10
f 10 19 17
f 11 18 20
f 11 20 21
f 11 21 22
f 11 22 23
f 11 23 24
f 11 24 25
f 11 25 26
f 11 26 27
f 11 27 28
f 12 29 30
f 12 30 31
f 13 32 33
f 13 33 14
f 14 33 15
f 15 33 34
f 15 34 35
f 15 35 36
f 15 36 37
f 15 37 16
f 16 37 36
f 16 36 38
f 17 19 39
f 17 39 40
f 18 41 42
f 18 42 43
f 18 43 44
f 18 44 45
f 18 45 46
f 18 46 20
f 20 46 47
f 20 47 21
f 21 48 22
f 21 47 48
f 22 48 49
f 22 49 50
f 22 50 23
f 23 50 24
f 24 50 51
f 24 51 25
f 25 51 52
f 25 52 26
f 26 52 53
f 26 53 27
f 27 53 28
f 28 53 54
f 28 54 29
f 29 54 30
f 30 55 31
f 30 54 56
f 30 56 57
f 30 57 55
f 32 58 33
f 33 58 59
f 33 59 60
f 33 60 34
f 34 61 35
f 34 60 61
f 35 61 36
f 36 61 62
f 36 62 63
f 36 63 64
f 36 64 38
f 38 64 65
f 39 66 40
f 40 66 67
f 40 67 68
f 40 68 69
f 41 70 68
f 41 68 42
f 42 68 71
f 42 71 72
f 42 72 43
f 43 72 44
f 44 72 45
f 45 72 47
f 45 47 46
f 47 72 73
f 47 73 74
f 47 74 75
f 47 75 48
f 48 75 49
f 49 75 74
f 49 74 76
f 49 76 50
f 50 76 51
f 51 76 77
f 51 77 52
f 52 78 53
f 52 77 78
f 53 78 54
f 54 79 80
f 54 80 81
f 54 81 56
f 54 78 82
f 54 82 83
f 54 83 79
f 55 57 84
f 56 81 57
f 57 81 84
f 58 85 86
f 58 86 59
f 59 86 60
f 60 86 87
f 60 87 88
f 60 88 61
f 61 89 62
f 61 88 90
f 61 90 89
f 62 89 63
f 63 91 92
f 63 92 93
f 63 93 65
f 63 65 64
f 63 89 91
f 68 94 71
f 68 70 95
f 68 95 96
f 68 96 97
f 68 97 98
f 68 98 69
f 71 99 100
f 71 100 101
f 71 101 72
f 71 94 102
f 71 102 99
f 72 101 73
f 73 103 74
f 73 101 91
f 73 91 103
f 74 103 76
f 76 103 89
f 76 89 104
f 76 104 77
f 77 104 105
f 77 105 78
f 78 105 82
f 79 106 107
f 79 107 80
f 79 83 108
f 79 108 109
f 79 109 110
f 79 110 106
f 80 107 81
f 81 111 84
f 81 107 111
f 82 105 88
f 82 88 87
f 82 87 86
f 82 86 108
f 82 108 83
f 85 112 86
f 86 112 109
f 86 109 108
f 88 105 90
f 89 90 104
f 89 103 91
f 90 105 104
f 91 101 92
f 92 100 113
f 92 113 93
f 92 101 100
f 99 113 100
f 109 112 114
f 109 114 110

