# https://github.com/mikedh/trimesh
v 5.52663689 -35.09314153 14.73847973
v 5.99340022 -35.01537057 14.73847973
v 5.71334193 -35.06270980 15.64563280
v 5.52663689 -35.08976119 15.64563280
v 5.52663689 -4.88427062 14.73847973
v 6.17248502 -34.98493884 14.73847973
v 6.20487268 -34.97817527 15.64563280
v 5.52663689 -4.88427062 15.64563280
v 5.52854141 -0.55277678 14.73847973
v 6.47921597 -34.92745571 14.73847973
v 6.47921597 -34.92745571 15.64563280
v 5.52854141 -0.55277678 15.64563280
v 20.09728591 -0.55277678 14.73847973
v 6.99170294 -34.82939693 14.73847973
v 7.29081292 -34.76853345 15.64563280
v 20.09728591 -0.55277678 15.64563280
v 24.98973055 -4.92484771 14.73847973
v 7.29081292 -34.76853345 14.73847973
v 8.26244370 -34.54874773 15.64563280
v 24.98973055 -4.92484771 15.64563280
v 24.98973055 -25.25006816 14.73847973
v 8.26244370 -34.54874773 14.73847973
v 8.81112883 -34.41011041 15.64563280
v 24.98973055 -25.25006816 15.64563280
v 24.84874987 -25.38870258 15.64563280
v 24.63727740 -25.59158372 14.73847973
v 8.87590416 -34.39320582 14.73847973
v 9.23407448 -34.30191061 14.73847973
v 9.23407448 -34.30191061 15.64563280
v 24.63727740 -25.59158372 15.64563280
v 24.44676187 -25.77417413 14.73847973
v 9.70845878 -34.17341720 14.73847973
v 9.65892393 -34.18356111 15.64563280
v 24.12288374 -26.07849439 15.64563280
v 24.12288374 -26.07849439 14.73847973
v 9.98470658 -34.09226590 14.73847973
v 10.19427381 -34.03140243 15.64563280
v 9.98470658 -34.09226590 15.64563280
v 23.63706799 -26.51806873 15.64563280
v 23.63706799 -26.51806873 14.73847973
v 10.47052161 -33.94686790 14.73847973
v 10.47052161 -33.94686790 15.64563280
v 23.08266786 -27.00498230 15.64563280
v 23.08266786 -27.00498230 14.73847973
v 10.91823324 -33.80485313 14.73847973
v 11.17733532 -33.72031860 15.64563280
v 22.80832458 -27.23491193 15.64563280
v 22.59685211 -27.41074167 14.73847973
v 11.17733532 -33.72031860 14.73847973
v 11.72792568 -33.53096172 15.64563280
v 22.59685211 -27.41074167 15.64563280
v 21.98910666 -27.89765523 14.73847973
v 11.79270102 -33.50729645 14.73847973
v 12.15087061 -33.38218627 14.73847973
v 12.15087061 -33.38218627 15.64563280
v 21.98910666 -27.89765523 15.64563280
v 21.50519687 -28.27974644 14.73847973
v 12.84434835 -33.12520524 14.73847973
v 12.54333312 -33.23678827 15.64563280
v 21.50329235 -28.27974644 15.64563280
v 20.89554690 -28.72608436 14.73847973
v 20.89554690 -28.72608436 15.64563280
v 13.33206861 -32.93246512 14.73847973
v 12.84434835 -33.12520524 15.64563280
v 20.35448130 -29.11831948 14.73847973
v 20.35448130 -29.11831948 15.64563280
v 13.33206861 -32.93246512 15.64563280
v 14.09413217 -32.61124028 14.73847973
v 20.07823349 -29.30429313 15.64563280
v 19.86676103 -29.44630790 14.73847973
v 14.09413217 -32.61124028 15.64563280
v 14.62567084 -32.37454707 14.73847973
v 19.86676103 -29.44630790 15.64563280
v 19.12946489 -29.92983823 14.73847973
v 14.93240107 -32.23591264 15.64563280
v 14.93240107 -32.23591264 14.73847973
v 19.12946489 -29.92983823 15.64563280
v 18.82273467 -30.12595579 14.73847973
v 15.14387353 -32.13785096 15.64563280
v 15.11339111 -32.15137811 14.73847973
v 18.64555511 -30.23753882 15.64563280
v 18.64555511 -30.23753882 14.73847973
v 15.41631230 -32.00598011 14.73847973
v 15.41631230 -32.00598011 15.64563280
v 17.98065528 -30.63654042 15.64563280
v 17.98065528 -30.63654042 14.73847973
v 16.03358324 -31.69827952 14.73847973
v 16.03358324 -31.69827952 15.64563280
v 17.33480643 -31.01186516 15.64563280
v 17.33480643 -31.01186516 14.73847973
v 16.84899068 -31.27561266 14.73847973
v 16.84899068 -31.27561266 15.64563280
f 1 2 3
f 1 3 4
f 1 4 8
f 1 8 5
f 1 5 9
f 1 9 13
f 1 13 17
f 1 17 21
f 1 21 26
f 1 26 31
f 1 31 35
f 1 35 40
f 1 40 44
f 1 44 48
f 1 48 52
f 1 52 57
f 1 57 61
f 1 61 65
f 1 65 70
f 1 70 74
f 1 74 78
f 1 78 82
f 1 82 86
f 1 86 90
f 1 90 91
f 1 91 87
f 1 87 83
f 1 83 80
f 1 80 76
f 1 76 72
f 1 72 68
f 1 68 63
f 1 63 58
f 1 58 54
f 1 54 53
f 1 53 49
f 1 49 45
f 1 45 41
f 1 41 36
f 1 36 32
f 1 32 28
f 1 28 27
f 1 27 22
f 1 22 18
f 1 18 14
f 1 14 10
f 1 10 6
f 1 6 2
f 2 6 3
f 3 6 7
f 3 7 11
f 3 11 15
f 3 15 19
f 3 19 23
f 3 23 29
f 3 29 33
f 3 33 38
f 3 38 37
f 3 37 42
f 3 42 46
f 3 46 50
f 3 50 55
f 3 55 59
f 3 59 64
f 3 64 67
f 3 67 71
f 3 71 75
f 3 75 79
f 3 79 84
f 3 84 88
f 3 88 92
f 3 92 89
f 3 89 85
f 3 85 81
f 3 81 77
f 3 77 73
f 3 73 69
f 3 69 66
f 3 66 62
f 3 62 60
f 3 60 56
f 3 56 51
f 3 51 47
f 3 47 43
f 3 43 39
f 3 39 34
f 3 34 30
f 3 30 25
f 3 25 24
f 3 24 20
f 3 20 16
f 3 16 12
f 3 12 8
f 3 8 4
f 5 8 12
f 5 12 9
f 6 10 11
f 6 11 7
f 9 12 16
f 9 16 13
f 10 14 11
f 11 14 15
f 13 16 20
f 13 20 17
f 14 18 15
f 15 18 22
f 15 22 19
f 17 20 24
f 17 24 21
f 19 22 23
f 21 24 25
f 21 25 26
f 22 27 23
f 23 27 28
f 23 28 29
f 25 30 26
f 26 30 31
f 28 32 29
f 29 32 33
f 30 34 31
f 31 34 35
f 32 36 37
f 32 37 38
f 32 38 33
f 34 39 40
f 34 40 35
f 36 41 37
f 37 41 42
f 39 43 44
f 39 44 40
f 41 45 42
f 42 45 46
f 43 47 44
f 44 47 48
f 45 49 46
f 46 49 50
f 47 51 48
f 48 51 56
f 48 56 52
f 49 53 50
f 50 53 54
f 50 54 55
f 52 56 57
f 54 58 59
f 54 59 55
f 56 60 57
f 57 60 62
f 57 62 61
f 58 63 67
f 58 67 64
f 58 64 59
f 61 62 66
f 61 66 65
f 63 68 71
f 63 71 67
f 65 66 69
f 65 69 70
f 68 72 71
f 69 73 70
f 70 73 77
f 70 77 74
f 71 72 75
f 72 76 75
f 74 77 78
f 75 76 79
f 76 80 79
f 77 81 78
f 78 81 82
f 79 80 83
f 79 83 84
f 81 85 86
f 81 86 82
f 83 87 88
f 83 88 84
f 85 89 90
f 85 90 86
f 87 91 92
f 87 92 88
f 89 92 91
f 89 91 90

