# https://github.com/mikedh/trimesh
v 20.43262591 20.14786109 19.27002472
v 20.43262591 1.90823053 19.27002472
v 20.43262591 20.14786109 18.37700129
v -23.84817969 20.14786109 19.27002472
v 20.43262591 1.90823053 18.37700129
v 20.08586750 0.00559893 19.27002472
v -23.84817969 20.14786109 18.37700129
v -23.84817969 4.79470970 19.27002472
v 20.08153417 0.00559893 18.37700129
v -20.08587170 0.00559893 19.27002472
v -23.84817969 4.79273784 18.37700129
v -23.84817969 4.79273784 18.98383142
v -20.08587170 0.00559893 18.37700129
f 1 2 5
f 1 5 3
f 1 3 7
f 1 7 4
f 1 4 8
f 1 8 10
f 1 10 6
f 1 6 2
f 2 6 5
f 3 5 9
f 3 9 13
f 3 13 11
f 3 11 7
f 4 7 11
f 4 11 12
f 4 12 8
f 5 6 9
f 6 10 13
f 6 13 9
f 8 12 10
f 10 12 11
f 10 11 13

