# https://github.com/mikedh/trimesh
v 0.00439929 -20.08632167 13.82658781
v 4.91554875 -25.31729257 13.82658781
v 0.00439929 -20.08632167 14.73830593
v 0.00439929 20.08889635 13.82658781
v 15.04405796 -25.31729257 13.82658781
v 4.91554875 -25.31729257 14.73830593
v 0.00439929 20.08889635 14.73830593
v 4.88610548 24.20968242 13.82658781
v 15.04405796 -25.31729257 14.73830593
v 15.04405796 24.20968242 13.82658781
v 4.88610548 24.20968242 14.73830593
v 15.04405796 24.20968242 14.73830593
f 1 2 6
f 1 6 3
f 1 3 7
f 1 7 4
f 1 4 8
f 1 8 10
f 1 10 5
f 1 5 2
f 2 5 9
f 2 9 6
f 3 6 9
f 3 9 12
f 3 12 11
f 3 11 7
f 4 7 11
f 4 11 8
f 5 10 12
f 5 12 9
f 8 11 12
f 8 12 10

