# https://github.com/mikedh/trimesh
v -35.44597893 -2.40577577 14.73846525
v -35.44495353 -2.43038533 14.73846525
v -35.44597893 -2.40577577 15.64563280
v -29.28720216 -2.40577577 14.73846525
v -32.96833279 -3.56914951 13.00441535
v -35.34560286 -3.56914951 13.00746258
v -35.36506226 -3.40359259 14.73846525
v -35.36506226 -3.40359259 15.64563280
v -29.28720216 -2.40577577 15.64563280
v -28.36026238 -3.56914951 13.00441535
v -24.98333036 -4.92940262 13.00441535
v -24.99459815 -4.92716500 12.18498308
v -27.60232215 -4.15978545 12.18498308
v -35.28004979 -4.15978545 12.18498308
v -35.25649459 -4.37679984 12.18498308
v -35.25751709 -4.37679984 14.73846525
v -35.25751709 -4.37679984 15.64563280
v -24.99562355 -4.92716500 15.64563280
v -24.98333036 -4.92940262 13.82689485
v -24.98333036 -25.25936626 13.00441535
v -24.99459815 -25.24594049 12.18498308
v -35.12231804 -5.35000710 12.18498308
v -35.12334344 -5.34776947 14.73846525
v -35.12334344 -5.34776947 15.64563280
v -24.99562355 -25.24817957 15.64563280
v -24.98333036 -25.26160244 13.82689485
v -25.05297923 -25.19448520 13.00441535
v -25.12467891 -25.12065652 12.18498308
v -35.01886868 -6.00776100 12.18498308
v -35.07827515 -5.63190111 15.64563280
v -25.12467891 -25.12289270 15.64563280
v -25.12672681 -25.12289270 13.82689485
v -25.12672681 -25.12289270 13.00441535
v -25.60095034 -24.63293190 12.18498308
v -34.96970459 -6.27846905 15.64563280
v -35.01886868 -6.00328647 15.64563280
v -34.93180831 -6.49100819 12.18498308
v -34.93180831 -6.49100819 13.00441535
v -25.59787704 -24.63517098 15.64563280
v -25.60095034 -24.63293190 13.00441535
v -26.08541917 -24.12507588 13.00441535
v -26.08439377 -24.12283826 12.18498308
v -34.93180831 -6.48877128 15.64563280
v -34.77100326 -7.29194708 12.18498308
v -34.77202576 -7.29194708 14.73846525
v -34.77202576 -7.29194708 15.64563280
v -25.87237385 -24.34656481 15.64563280
v -26.08541917 -24.12507588 13.82689485
v -26.22061823 -23.97517945 13.82689485
v -26.52481682 -23.63735417 13.00441535
v -26.52174642 -23.63959034 12.18498308
v -34.55283964 -8.26291671 12.18498308
v -34.55386214 -8.26291671 13.00441535
v -34.55488754 -8.26291671 14.73846525
v -34.55488754 -8.26291671 15.64563280
v -26.08336838 -24.12283826 15.64563280
v -26.08541917 -24.12283826 14.73778744
v -26.27490351 -23.91253602 15.64563280
v -26.52379432 -23.63735417 15.64563280
v -26.52481682 -23.63735417 13.82689485
v -26.86281880 -23.25478212 13.82689485
v -26.93656348 -23.16976675 13.00441535
v -27.00928565 -23.08251376 12.18498308
v -34.30701922 -9.23612397 12.18498308
v -34.44734237 -8.68575809 15.64563280
v -27.00928565 -23.08251376 15.64563280
v -27.01031105 -23.08251376 13.82689485
v -27.01031105 -23.08251376 13.00441535
v -27.41591111 -22.59926585 12.18498308
v -34.23020125 -9.51354417 14.73846525
v -34.30701922 -9.23612397 15.64563280
v -34.09807549 -9.98560539 12.18498308
v -27.18647969 -22.87221152 15.64563280
v -27.41795901 -22.59702822 15.64563280
v -27.41795901 -22.59702822 14.73846525
v -27.82970277 -22.08469549 13.00441535
v -27.90345034 -21.99073251 12.18498308
v -34.09705009 -9.98784302 15.64563280
v -34.21586305 -9.56276329 15.64563280
v -33.95058325 -10.47556474 12.18498308
v -33.95058325 -10.47556474 15.64563280
v -27.90345034 -21.99296869 15.64563280
v -27.90345034 -21.99296869 14.73846525
v -27.90447284 -21.99073251 13.00441535
v -28.28037111 -21.50524697 12.18498308
v -33.72115183 -11.18030158 12.18498308
v -33.72217722 -11.18030158 13.00441535
v -33.72319973 -11.18030158 15.64563280
v -28.28241901 -21.50524697 15.64563280
v -28.04274809 -21.81398745 14.73846525
v -28.28241901 -21.50524697 14.73846525
v -28.73308736 -20.89447456 13.00441535
v -28.73206196 -20.89447456 12.18498308
v -33.38520064 -12.15127120 12.18498308
v -33.38622604 -12.15127120 13.00441535
v -33.59926847 -11.53826262 14.73846525
v -33.38622604 -12.15350883 15.64563280
v -28.53643103 -21.16070880 15.64563280
v -28.73308736 -20.89447456 13.82689485
v -29.12434922 -20.35529610 14.73778744
v -29.06391734 -20.43807384 13.00441535
v -29.12229842 -20.35529610 12.18498308
v -33.12606743 -12.84929516 12.18498308
v -33.38622604 -12.15350883 14.73846525
v -33.12606743 -12.84929516 14.73778744
v -33.12709283 -12.84482135 15.64563280
v -28.73206196 -20.89447456 15.64563280
v -28.95329888 -20.59020790 15.64563280
v -29.12332382 -20.35529610 13.00441535
v -29.12332382 -20.35529610 15.64563280
v -29.26569487 -20.14499386 15.64563280
v -29.45210591 -19.86757294 13.00441535
v -29.45313130 -19.86533676 12.18498308
v -32.93350980 -13.33254307 12.18498308
v -33.01749687 -13.12000320 15.64563280
v -32.93350980 -13.33254307 13.00441535
v -32.93350980 -13.33030544 15.64563280
v -29.45005801 -19.86981056 15.64563280
v -29.78908249 -19.35747929 13.82689485
v -29.93657184 -19.12927892 12.18498308
v -32.61087431 -14.09544809 12.18498308
v -32.79421205 -13.66365692 15.64563280
v -29.72558021 -19.45144372 15.64563280
v -29.93657184 -19.12927892 15.64563280
v -30.05026360 -18.95029768 14.73778744
v -30.24282123 -18.64155576 12.18498308
v -32.55453823 -14.22297259 13.00441535
v -32.61087431 -14.09544809 13.00441535
v -32.23907184 -14.92323417 12.18498308
v -32.60984891 -14.09768572 14.73778744
v -32.61189681 -14.09097428 15.64563280
v -30.06972589 -18.91897669 15.64563280
v -30.24077333 -18.64379339 15.64563280
v -30.63817890 -17.97932805 13.00441535
v -30.63817890 -17.97932805 12.18498308
v -32.47259906 -14.40419001 14.73778744
v -32.23702394 -14.92770798 15.64563280
v -32.00861792 -15.41095589 12.18498308
v -32.00861792 -15.41319352 14.73846525
v -32.10796859 -15.20289128 15.64563280
v -32.23702394 -14.92770798 13.00441535
v -30.46508355 -18.26793422 15.64563280
v -30.63817890 -17.97709042 15.64563280
v -31.01305177 -17.33276084 15.64563280
v -31.01305177 -17.33276084 14.73846525
v -31.01202926 -17.33052321 12.18498308
v -31.69929523 -16.03291354 12.18498308
v -31.96047923 -15.50939557 13.00441535
v -31.89492616 -15.64363006 14.73846525
v -32.00861792 -15.41319352 15.64563280
v -31.27628367 -16.84951293 12.18498308
v -31.27730907 -16.84727530 15.64563280
v -31.54463388 -16.33494403 14.73846525
v -31.69929523 -16.03515117 14.73846525
v -31.69929523 -16.03515117 15.64563280
v -31.51595749 -16.38863695 15.64563280
f 1 2 3
f 1 3 9
f 1 9 4
f 1 4 10
f 1 10 5
f 1 5 6
f 1 6 2
f 2 7 8
f 2 8 3
f 2 6 7
f 3 8 17
f 3 17 24
f 3 24 30
f 3 30 36
f 3 36 35
f 3 35 43
f 3 43 46
f 3 46 55
f 3 55 65
f 3 65 71
f 3 71 79
f 3 79 78
f 3 78 81
f 3 81 88
f 3 88 97
f 3 97 106
f 3 106 115
f 3 115 117
f 3 117 122
f 3 122 131
f 3 131 137
f 3 137 140
f 3 140 150
f 3 150 155
f 3 155 156
f 3 156 152
f 3 152 144
f 3 144 143
f 3 143 142
f 3 142 133
f 3 133 132
f 3 132 124
f 3 124 123
f 3 123 118
f 3 118 111
f 3 111 110
f 3 110 108
f 3 108 107
f 3 107 98
f 3 98 89
f 3 89 82
f 3 82 74
f 3 74 73
f 3 73 66
f 3 66 59
f 3 59 58
f 3 58 56
f 3 56 47
f 3 47 39
f 3 39 31
f 3 31 25
f 3 25 18
f 3 18 9
f 4 9 19
f 4 19 11
f 4 11 12
f 4 12 13
f 4 13 10
f 5 14 6
f 5 10 13
f 5 13 14
f 6 14 15
f 6 15 7
f 7 15 16
f 7 16 17
f 7 17 8
f 9 18 19
f 11 20 21
f 11 21 12
f 11 19 26
f 11 26 20
f 12 21 28
f 12 28 34
f 12 34 42
f 12 42 51
f 12 51 63
f 12 63 69
f 12 69 77
f 12 77 85
f 12 85 93
f 12 93 102
f 12 102 113
f 12 113 120
f 12 120 126
f 12 126 135
f 12 135 146
f 12 146 151
f 12 151 147
f 12 147 138
f 12 138 129
f 12 129 121
f 12 121 114
f 12 114 103
f 12 103 94
f 12 94 86
f 12 86 80
f 12 80 72
f 12 72 64
f 12 64 52
f 12 52 44
f 12 44 37
f 12 37 29
f 12 29 22
f 12 22 15
f 12 15 14
f 12 14 13
f 15 22 16
f 16 22 23
f 16 23 24
f 16 24 17
f 18 25 26
f 18 26 19
f 20 26 27
f 20 27 21
f 21 27 28
f 22 29 23
f 23 29 24
f 24 29 30
f 25 31 32
f 25 32 26
f 26 32 27
f 27 33 28
f 27 32 33
f 28 33 34
f 29 35 36
f 29 36 30
f 29 37 38
f 29 38 35
f 31 39 32
f 32 39 40
f 32 40 34
f 32 34 33
f 34 40 48
f 34 48 41
f 34 41 42
f 35 38 43
f 37 44 45
f 37 45 46
f 37 46 38
f 38 46 43
f 39 47 48
f 39 48 40
f 41 48 49
f 41 49 50
f 41 50 51
f 41 51 42
f 44 52 53
f 44 53 54
f 44 54 45
f 45 54 55
f 45 55 46
f 47 56 48
f 48 56 57
f 48 57 58
f 48 58 59
f 48 59 49
f 49 59 60
f 49 60 50
f 50 60 61
f 50 61 51
f 51 61 62
f 51 62 63
f 52 64 53
f 53 64 54
f 54 64 65
f 54 65 55
f 56 58 57
f 59 66 61
f 59 61 60
f 61 66 62
f 62 66 67
f 62 67 68
f 62 68 63
f 63 68 69
f 64 70 71
f 64 71 65
f 64 72 70
f 66 73 67
f 67 73 74
f 67 74 75
f 67 75 68
f 68 75 69
f 69 75 76
f 69 76 77
f 70 72 78
f 70 78 79
f 70 79 71
f 72 80 81
f 72 81 78
f 74 82 83
f 74 83 75
f 75 83 76
f 76 83 84
f 76 84 77
f 77 84 85
f 80 86 87
f 80 87 88
f 80 88 81
f 82 89 90
f 82 90 83
f 83 90 84
f 84 90 91
f 84 91 85
f 85 92 93
f 85 91 92
f 86 94 95
f 86 95 87
f 87 95 96
f 87 96 88
f 88 96 97
f 89 91 90
f 89 98 99
f 89 99 92
f 89 92 91
f 92 99 100
f 92 100 101
f 92 101 93
f 93 101 102
f 94 103 95
f 95 103 104
f 95 104 96
f 96 104 97
f 97 104 103
f 97 103 105
f 97 105 106
f 98 107 99
f 99 107 108
f 99 108 100
f 100 109 101
f 100 108 110
f 100 110 111
f 100 111 112
f 100 112 113
f 100 113 109
f 101 109 102
f 102 109 113
f 103 114 116
f 103 116 105
f 105 115 106
f 105 116 117
f 105 117 115
f 111 118 112
f 112 118 119
f 112 119 113
f 113 119 120
f 114 121 122
f 114 122 116
f 116 122 117
f 118 123 119
f 119 123 124
f 119 124 120
f 120 124 125
f 120 125 126
f 121 127 128
f 121 128 122
f 121 129 127
f 122 128 130
f 122 130 131
f 124 132 125
f 125 132 126
f 126 132 133
f 126 133 134
f 126 134 135
f 127 136 130
f 127 130 128
f 127 129 137
f 127 137 136
f 129 138 139
f 129 139 140
f 129 140 141
f 129 141 137
f 130 136 131
f 131 136 137
f 133 142 134
f 134 142 143
f 134 143 144
f 134 144 145
f 134 145 135
f 135 145 146
f 137 141 140
f 138 147 148
f 138 148 139
f 139 148 149
f 139 149 150
f 139 150 140
f 144 151 145
f 144 152 151
f 145 151 146
f 147 149 148
f 147 151 153
f 147 153 154
f 147 154 149
f 149 154 155
f 149 155 150
f 151 152 153
f 152 156 153
f 153 156 155
f 153 155 154

