# https://github.com/mikedh/trimesh
v 20.08430912 0.01287955 20.69480985
v 20.08430912 0.01287955 19.27002761
v -20.08688551 0.01287955 20.69480985
v 25.17326236 -5.60118297 20.69480985
v 26.69444362 -5.83485249 20.44586400
v 26.69444362 -5.33156405 20.02997520
v 26.69444362 -5.30759790 20.00947592
v 26.69444362 -5.25367433 19.95968617
v 26.69444362 -4.81429551 19.48634031
v 26.69444362 -4.76236879 19.27002761
v -20.08688551 0.01287955 19.27002761
v -24.42525299 -4.96408368 19.27002761
v -24.42525299 -4.98205820 19.95592058
v -24.42525299 -5.09789454 20.69480985
v 25.60359363 -6.27223410 20.69480985
v 26.69444362 -6.25226201 20.50164972
v 26.69444362 -20.39027261 19.27002761
v -24.42525299 -20.39027261 19.27002761
v -24.42525299 -11.04548487 20.69480985
v 25.57857855 -7.29279072 20.69480985
v 26.69444362 -18.98625759 20.56538662
v 26.69444362 -7.29279072 20.56677989
v 26.69444362 -20.39027261 20.53707520
v -24.42525299 -20.39027261 20.56538662
v -24.26012476 -11.63065781 20.69480985
v 25.45848529 -8.24344718 20.69480985
v 26.69444362 -19.93891053 20.55827256
v 26.69444362 -19.95688542 20.55813352
v 26.25910701 -20.39027261 20.55994680
v -17.64999316 -20.39027261 20.69480985
v -18.62575088 -19.60138794 20.69480985
v -19.59650471 -18.63076011 20.69480985
v -20.54223912 -17.63217280 20.69480985
v -22.55380118 -14.78619577 20.69480985
v 24.27256148 -11.17729852 20.69480985
v 23.23675713 -13.12055066 20.69480985
v 22.62628307 -14.08518686 20.69480985
v 21.26022227 -16.03642857 20.69480985
v 20.58970158 -16.98308989 20.69480985
v 19.67899438 -17.96370376 20.69480985
v 18.93341540 -18.73261634 20.69480985
v 18.72825609 -18.93832456 20.69480985
v 17.95765769 -19.68526929 20.69480985
v 17.19206317 -20.39027261 20.69480985
f 1 2 11
f 1 11 3
f 1 3 14
f 1 14 19
f 1 19 25
f 1 25 34
f 1 34 33
f 1 33 32
f 1 32 31
f 1 31 30
f 1 30 44
f 1 44 43
f 1 43 42
f 1 42 41
f 1 41 40
f 1 40 39
f 1 39 38
f 1 38 37
f 1 37 36
f 1 36 35
f 1 35 26
f 1 26 20
f 1 20 15
f 1 15 4
f 1 4 5
f 1 5 6
f 1 6 7
f 1 7 8
f 1 8 9
f 1 9 10
f 1 10 2
f 2 10 17
f 2 17 18
f 2 18 12
f 2 12 11
f 3 11 12
f 3 12 13
f 3 13 14
f 4 15 16
f 4 16 5
f 5 16 22
f 5 22 21
f 5 21 27
f 5 27 28
f 5 28 23
f 5 23 17
f 5 17 10
f 5 10 9
f 5 9 8
f 5 8 7
f 5 7 6
f 12 18 24
f 12 24 19
f 12 19 14
f 12 14 13
f 15 20 21
f 15 21 22
f 15 22 16
f 17 23 29
f 17 29 44
f 17 44 30
f 17 30 24
f 17 24 18
f 19 24 25
f 20 26 21
f 21 26 27
f 23 28 29
f 24 30 31
f 24 31 32
f 24 32 33
f 24 33 34
f 24 34 25
f 26 35 28
f 26 28 27
f 28 35 36
f 28 36 37
f 28 37 38
f 28 38 39
f 28 39 29
f 29 39 40
f 29 40 41
f 29 41 42
f 29 42 43
f 29 43 44

