# https://github.com/mikedh/trimesh
v -35.52589337 0.45068461 5.35150583
v -35.52589337 0.48493792 5.35150583
v -35.52440162 -0.48557269 4.61412280
v -35.52440162 -0.51411710 5.35150583
v -35.51844041 0.69045782 4.61412280
v -35.52440162 0.48493792 4.61412280
v -35.49757326 1.42119522 5.35150583
v -35.49608151 1.45544857 4.61412280
v -35.49608151 -1.45608334 4.61412280
v -35.49608151 -1.45608334 5.35150583
v -35.49608151 1.45544857 5.35150583
v -35.44540250 2.40312352 5.35150583
v -35.44391075 2.42595909 4.61412280
v -35.49458976 -1.48462776 5.35150583
v -35.45583607 -2.21536507 4.61412280
v -35.44391075 2.42595909 5.35150583
v -35.42751596 2.63718788 4.61412280
v -35.44242190 -2.45513827 5.35150583
v -35.44391075 -2.42659386 4.61412280
v -35.36789224 3.37363404 5.35150583
v -35.36491163 3.39646979 4.61412280
v -35.36491163 -3.39710455 4.61412280
v -35.36491163 -3.39710455 5.35150583
v -35.25610065 4.37268915 5.35150583
v -35.25610065 4.37268915 4.61412280
v -35.25610065 -4.37332392 4.61412280
v -35.36193103 -3.43135800 5.35150583
v -35.12641963 5.31465543 5.35150583
v -35.12194727 5.34320003 4.61412280
v -35.25311715 -4.39615967 5.35150583
v -35.25610065 -4.37332392 5.35150583
v -35.12194727 -5.34383480 4.61412280
v -35.02357276 5.97688604 5.35150583
v -35.01910040 5.99972179 4.61412280
v -35.11896956 -5.36667018 5.35150583
v -35.04145930 -5.85763429 4.61412280
v -35.01760865 6.01113948 5.35150583
v -34.93115657 6.48497704 4.61412280
v -35.01910040 -5.99464771 5.35150583
v -35.01910040 -5.99464771 4.61412280
v -34.93115657 6.48497704 5.35150583
v -34.77166658 7.28422142 5.35150583
v -34.89687524 6.65624390 4.61412280
v -35.00121387 -6.10311652 4.61412280
v -34.93115657 -6.48561181 5.35150583
v -34.55255287 8.26044043 5.35150583
v -34.72396818 7.49544985 4.61412280
v -34.77017483 7.28422142 4.61412280
v -34.93115657 -6.48561181 4.61412280
v -34.92668421 -6.50844720 5.35150583
v -34.55106112 8.26044043 4.61412280
v -34.31257202 9.20811555 5.35150583
v -34.30661080 9.23095094 4.61412280
v -34.80595080 -7.11358933 4.61412280
v -34.76570537 -7.31340006 5.35150583
v -34.30661080 9.23095094 5.35150583
v -34.09793066 9.98452382 5.35150583
v -34.09793066 9.97881534 4.61412280
v -34.77017483 -7.28485619 4.61412280
v -34.59875952 -8.04984677 4.61412280
v -34.55255287 -8.26107519 5.35150583
v -33.95036310 10.46977981 5.35150583
v -33.95036310 10.46977981 4.61412280
v -34.55106112 -8.26107519 4.61412280
v -34.36027042 -9.02035728 4.61412280
v -34.30661080 -9.23158571 5.35150583
v -33.72677993 11.15484580 5.35150583
v -33.72081872 11.17197270 4.61412280
v -34.30661080 -9.23158571 4.61412280
v -34.30064669 -9.25442182 5.35150583
v -33.38394931 12.14819170 5.35150583
v -33.38394931 12.14819170 4.61412280
v -34.09793066 -9.98515859 4.61412280
v -34.09793066 -9.98515859 5.35150583
v -33.13353488 12.82184072 5.35150583
v -33.32879794 12.29662245 4.61412280
v -33.95036310 -10.47041457 4.61412280
v -33.95036310 -10.47041457 5.35150583
v -33.12608191 12.83896690 4.61412280
v -32.93379946 13.32422216 5.35150583
v -32.97553375 13.22146219 4.61412280
v -33.77000597 -11.02417600 4.61412280
v -33.71336285 -11.20115134 5.35150583
v -32.61928895 14.07208656 5.35150583
v -32.93379946 13.32422216 4.61412280
v -33.72081872 -11.17260747 4.61412280
v -33.45698721 -11.93759804 4.61412280
v -33.38394931 -12.14882647 4.61412280
v -33.37649634 -12.17166186 5.35150583
v -32.52985626 14.27189729 4.61412280
v -32.61034713 14.08921274 4.61412280
v -32.24664646 14.90558330 5.35150583
v -33.18272214 -12.69117092 4.61412280
v -33.12757077 -12.83960167 4.61412280
v -33.12757077 -12.83960167 5.35150583
v -32.23621289 14.92271092 4.61412280
v -32.00815736 15.41367539 5.35150583
v -32.00815736 15.41367539 4.61412280
v -32.93379946 -13.32485693 4.61412280
v -32.92485474 -13.34769232 5.35150583
v -31.69811921 16.03594298 5.35150583
v -31.69811921 16.03594298 4.61412280
v -32.68040153 -13.92429058 4.61412280
v -32.60140241 -14.11268289 5.35150583
v -31.27778122 16.84660578 5.35150583
v -31.27778122 16.84660578 4.61412280
v -32.61034713 -14.08984750 4.61412280
v -32.31670376 -14.74637034 4.61412280
v -32.23621289 -14.92905345 5.35150583
v -31.07058993 17.22910106 4.61412280
v -31.01245796 17.33186104 5.35150583
v -32.18702564 -15.03181342 4.61412280
v -32.00815736 -15.41431016 4.61412280
v -32.00815736 -15.41431016 5.35150583
v -31.01245796 17.33186104 4.61412280
v -30.63981837 17.97696401 5.35150583
v -31.69961096 -16.03657774 4.61412280
v -31.69961096 -16.03657774 5.35150583
v -30.63981837 17.97696401 4.61412280
v -30.24183639 18.64490382 5.35150583
v -31.27778122 -16.84724054 4.61412280
v -31.27778122 -16.84724054 5.35150583
v -30.24183639 18.64490382 4.61412280
v -29.93328999 19.13015908 5.35150583
v -30.00036378 19.02739911 4.61412280
v -31.01394971 -17.33249580 4.61412280
v -31.01394971 -17.33249580 5.35150583
v -29.46078124 19.84947888 5.35150583
v -29.82895136 19.29000825 4.61412280
v -30.72030924 -17.84058645 4.61412280
v -30.63981837 -17.97759878 5.35150583
v -29.18949677 20.24910179 4.61412280
v -29.44736416 19.86660506 4.61412280
v -29.11943947 20.35186032 5.35150583
v -30.63981837 -17.97759878 4.61412280
v -30.62640130 -18.00043417 5.35150583
v -29.11943947 20.35186032 4.61412280
v -28.74083577 20.87707859 5.35150583
v -29.03447914 20.47174792 4.61412280
v -30.24183639 -18.64553859 4.61412280
v -30.24183639 -18.64553859 5.35150583
v -28.72742160 20.89420477 4.61412280
v -28.28025235 21.50505539 5.35150583
v -28.28025235 21.50505539 4.61412280
v -29.93328999 -19.13079385 4.61412280
v -29.94223181 -19.11937688 5.35150583
v -27.90164865 21.99031065 5.35150583
v -27.98213952 21.88755068 4.61412280
v -29.44736416 -19.86723983 4.61412280
v -29.44736416 -19.86723983 5.35150583
v -27.41572283 22.59545350 5.35150583
v -27.79731003 22.12161521 4.61412280
v -27.90164865 21.99031065 4.61412280
v -29.11943947 -20.35249508 4.61412280
v -29.12838419 -20.34107811 5.35150583
v -27.09525111 22.97794879 4.61412280
v -27.41572283 22.59545350 4.61412280
v -27.00879902 23.08070876 5.35150583
v -28.72742160 -20.89483954 4.61412280
v -28.72742160 -20.89483954 5.35150583
v -27.00731017 23.08070876 4.61412280
v -26.51095077 23.65159781 5.35150583
v -26.90296865 23.20059491 4.61412280
v -28.37713801 -21.37438703 4.61412280
v -28.28025235 -21.50569015 5.35150583
v -26.08315692 24.11972544 5.35150583
v -26.17706487 24.01696547 4.61412280
v -26.52138435 23.63447018 4.61412280
v -28.28025235 -21.50569015 4.61412280
v -27.91208223 -21.97952844 5.35150583
v -25.61362878 24.61639767 5.35150583
v -25.97881830 24.23390383 4.61412280
v -27.90164865 -21.99094541 4.61412280
v -27.41572283 -22.59608827 4.61412280
v -27.41572283 -22.59608827 5.35150583
v -25.59723400 24.63352819 5.35150583
v -25.59723400 24.63352819 4.61412280
v -27.00731017 -23.08134353 4.61412280
v -27.01923260 -23.06992511 5.35150583
v -25.22459151 25.01601914 4.61412280
v -25.12323350 25.11877911 5.35150583
v -26.42747930 -23.74357413 4.61412280
v -26.52287610 -23.63510495 5.35150583
v -25.12323350 25.11877911 4.61412280
v -24.63730768 25.59261740 5.35150583
v -25.01889488 25.22153908 4.61412280
v -26.08315692 -24.12036021 4.61412280
v -26.09508225 -24.10894324 5.35150583
v -24.63730768 25.59261740 4.61412280
v -24.12455494 26.07787410 5.35150583
v -24.23485623 25.97511413 4.61412280
v -25.70157262 -24.52569378 4.61412280
v -25.59723400 -24.63416007 5.35150583
v -23.63863057 26.51745714 5.35150583
v -24.02021487 26.17492197 4.61412280
v -24.12455494 26.07787410 4.61412280
v -25.59723400 -24.63416007 4.61412280
v -25.13515882 -25.10799835 5.35150583
v -23.20338520 26.89995387 4.61412280
v -23.63863057 26.51745714 4.61412280
v -23.08413920 27.00271384 5.35150583
v -25.12323350 -25.11941677 4.61412280
v -25.10683871 -25.13654150 5.35150583
v -23.08264890 27.00271384 4.61412280
v -22.59672452 27.41375373 5.35150583
v -22.59672452 27.41375373 4.61412280
v -24.63730768 -25.59325506 4.61412280
v -24.63730768 -25.59325506 5.35150583
v -21.99304590 27.89901043 5.35150583
v -21.99304590 27.89901043 4.61412280
v -24.12604525 -26.07850597 4.61412280
v -24.10964901 -26.09563650 5.35150583
v -21.52351776 28.26437665 5.35150583
v -21.50712008 28.27579506 4.61412280
v -23.63863057 -26.51809480 4.61412280
v -23.64012087 -26.51809480 5.35150583
v -20.88406462 28.73821493 5.35150583
v -20.89748024 28.72679652 4.61412280
v -23.08413920 -27.00334571 4.61412280
v -23.09755483 -26.99192730 5.35150583
v -20.35789481 29.12071167 5.35150583
v -20.35789481 29.12071167 4.61412280
v -23.08413920 -27.00334571 5.35150583
v -22.59821483 -27.41438560 4.61412280
v -20.29976283 29.15496113 5.35150583
v -20.29976283 29.16067324 4.61412280
v -22.59821483 -27.41438560 5.35150583
v -21.99304590 -27.89964231 4.61412280
v -20.29976283 -29.16130511 5.35150583
v -20.29976283 -29.16130511 4.61412280
v -21.99304590 -27.89964231 5.35150583
v -21.61146160 -28.19650380 4.61412280
v -20.37130899 -29.10992512 5.35150583
v -20.35789481 -29.12134354 4.61412280
v -21.50712008 -28.27642693 5.35150583
v -21.50712008 -28.27642693 4.61412280
v -20.91387503 -28.71601576 5.35150583
v -20.78121630 -28.81306363 4.61412280
v -21.37595020 -28.37348059 4.61412280
v -20.89748024 -28.72743418 4.61412280
f 1 2 6
f 1 6 3
f 1 3 4
f 1 4 10
f 1 10 14
f 1 14 18
f 1 18 23
f 1 23 27
f 1 27 31
f 1 31 30
f 1 30 35
f 1 35 39
f 1 39 45
f 1 45 50
f 1 50 55
f 1 55 61
f 1 61 66
f 1 66 70
f 1 70 74
f 1 74 78
f 1 78 83
f 1 83 89
f 1 89 95
f 1 95 100
f 1 100 104
f 1 104 109
f 1 109 114
f 1 114 118
f 1 118 122
f 1 122 127
f 1 127 131
f 1 131 136
f 1 136 141
f 1 141 146
f 1 146 150
f 1 150 155
f 1 155 160
f 1 160 165
f 1 165 170
f 1 170 175
f 1 175 179
f 1 179 183
f 1 183 188
f 1 188 193
f 1 193 198
f 1 198 203
f 1 203 208
f 1 208 212
f 1 212 216
f 1 216 220
f 1 220 223
f 1 223 227
f 1 227 231
f 1 231 235
f 1 235 237
f 1 237 233
f 1 233 229
f 1 229 225
f 1 225 221
f 1 221 217
f 1 217 213
f 1 213 209
f 1 209 205
f 1 205 201
f 1 201 194
f 1 194 190
f 1 190 185
f 1 185 181
f 1 181 176
f 1 176 171
f 1 171 166
f 1 166 162
f 1 162 158
f 1 158 151
f 1 151 147
f 1 147 143
f 1 143 138
f 1 138 134
f 1 134 128
f 1 128 124
f 1 124 120
f 1 120 116
f 1 116 111
f 1 111 105
f 1 105 101
f 1 101 97
f 1 97 92
f 1 92 84
f 1 84 80
f 1 80 75
f 1 75 71
f 1 71 67
f 1 67 62
f 1 62 57
f 1 57 56
f 1 56 52
f 1 52 46
f 1 46 42
f 1 42 41
f 1 41 37
f 1 37 33
f 1 33 28
f 1 28 24
f 1 24 20
f 1 20 16
f 1 16 12
f 1 12 11
f 1 11 7
f 1 7 2
f 2 5 6
f 2 7 8
f 2 8 5
f 3 9 4
f 3 6 5
f 3 5 8
f 3 8 13
f 3 13 17
f 3 17 21
f 3 21 25
f 3 25 29
f 3 29 34
f 3 34 38
f 3 38 43
f 3 43 48
f 3 48 47
f 3 47 51
f 3 51 53
f 3 53 58
f 3 58 63
f 3 63 68
f 3 68 72
f 3 72 76
f 3 76 79
f 3 79 81
f 3 81 85
f 3 85 91
f 3 91 90
f 3 90 96
f 3 96 98
f 3 98 102
f 3 102 106
f 3 106 110
f 3 110 115
f 3 115 119
f 3 119 123
f 3 123 125
f 3 125 129
f 3 129 133
f 3 133 132
f 3 132 137
f 3 137 139
f 3 139 142
f 3 142 144
f 3 144 148
f 3 148 153
f 3 153 152
f 3 152 157
f 3 157 156
f 3 156 161
f 3 161 163
f 3 163 168
f 3 168 167
f 3 167 172
f 3 172 177
f 3 177 180
f 3 180 184
f 3 184 186
f 3 186 189
f 3 189 191
f 3 191 196
f 3 196 195
f 3 195 200
f 3 200 199
f 3 199 204
f 3 204 206
f 3 206 210
f 3 210 214
f 3 214 218
f 3 218 222
f 3 222 226
f 3 226 230
f 3 230 234
f 3 234 238
f 3 238 240
f 3 240 239
f 3 239 236
f 3 236 232
f 3 232 228
f 3 228 224
f 3 224 219
f 3 219 215
f 3 215 211
f 3 211 207
f 3 207 202
f 3 202 197
f 3 197 192
f 3 192 187
f 3 187 182
f 3 182 178
f 3 178 174
f 3 174 173
f 3 173 169
f 3 169 164
f 3 164 159
f 3 159 154
f 3 154 149
f 3 149 145
f 3 145 140
f 3 140 135
f 3 135 130
f 3 130 126
f 3 126 121
f 3 121 117
f 3 117 113
f 3 113 112
f 3 112 108
f 3 108 107
f 3 107 103
f 3 103 99
f 3 99 94
f 3 94 93
f 3 93 88
f 3 88 87
f 3 87 86
f 3 86 82
f 3 82 77
f 3 77 73
f 3 73 69
f 3 69 65
f 3 65 64
f 3 64 60
f 3 60 59
f 3 59 54
f 3 54 49
f 3 49 44
f 3 44 40
f 3 40 36
f 3 36 32
f 3 32 26
f 3 26 22
f 3 22 19
f 3 19 15
f 3 15 9
f 4 9 10
f 7 11 8
f 8 11 12
f 8 12 13
f 9 14 10
f 9 15 14
f 12 16 13
f 13 16 17
f 14 15 18
f 15 19 18
f 16 20 17
f 17 20 21
f 18 19 22
f 18 22 23
f 20 24 25
f 20 25 21
f 22 26 27
f 22 27 23
f 24 28 25
f 25 28 29
f 26 30 31
f 26 31 27
f 26 32 35
f 26 35 30
f 28 33 29
f 29 33 34
f 32 36 35
f 33 37 34
f 34 37 38
f 35 36 39
f 36 40 39
f 37 41 38
f 38 41 42
f 38 42 43
f 39 40 44
f 39 44 45
f 42 46 47
f 42 47 48
f 42 48 43
f 44 49 45
f 45 49 50
f 46 51 47
f 46 52 53
f 46 53 51
f 49 54 50
f 50 54 55
f 52 56 53
f 53 56 57
f 53 57 58
f 54 59 55
f 55 60 61
f 55 59 60
f 57 62 63
f 57 63 58
f 60 64 61
f 61 64 65
f 61 65 66
f 62 67 63
f 63 67 68
f 65 69 66
f 66 69 70
f 67 71 72
f 67 72 68
f 69 73 70
f 70 73 74
f 71 75 76
f 71 76 72
f 73 77 78
f 73 78 74
f 75 79 76
f 75 80 81
f 75 81 79
f 77 82 83
f 77 83 78
f 80 84 85
f 80 85 81
f 82 86 83
f 83 86 87
f 83 87 88
f 83 88 89
f 84 90 91
f 84 91 85
f 84 92 90
f 88 93 89
f 89 93 94
f 89 94 95
f 90 92 96
f 92 97 98
f 92 98 96
f 94 99 100
f 94 100 95
f 97 101 102
f 97 102 98
f 99 103 100
f 100 103 104
f 101 105 106
f 101 106 102
f 103 107 104
f 104 107 108
f 104 108 109
f 105 110 106
f 105 111 110
f 108 112 109
f 109 112 113
f 109 113 114
f 110 111 115
f 111 116 119
f 111 119 115
f 113 117 118
f 113 118 114
f 116 120 123
f 116 123 119
f 117 121 122
f 117 122 118
f 120 124 125
f 120 125 123
f 121 126 127
f 121 127 122
f 124 128 129
f 124 129 125
f 126 130 127
f 127 130 131
f 128 132 133
f 128 133 129
f 128 134 132
f 130 135 136
f 130 136 131
f 132 134 137
f 134 138 139
f 134 139 137
f 135 140 136
f 136 140 141
f 138 142 139
f 138 143 144
f 138 144 142
f 140 145 146
f 140 146 141
f 143 147 148
f 143 148 144
f 145 149 146
f 146 149 150
f 147 151 152
f 147 152 153
f 147 153 148
f 149 154 155
f 149 155 150
f 151 156 157
f 151 157 152
f 151 158 156
f 154 159 155
f 155 159 160
f 156 158 161
f 158 162 163
f 158 163 161
f 159 164 160
f 160 164 165
f 162 166 172
f 162 172 167
f 162 167 168
f 162 168 163
f 164 169 165
f 165 169 170
f 166 171 172
f 169 173 170
f 170 173 174
f 170 174 175
f 171 176 177
f 171 177 172
f 174 178 179
f 174 179 175
f 176 180 177
f 176 181 180
f 178 182 179
f 179 182 183
f 180 181 184
f 181 185 186
f 181 186 184
f 182 187 188
f 182 188 183
f 185 189 186
f 185 190 191
f 185 191 189
f 187 192 188
f 188 192 193
f 190 194 195
f 190 195 196
f 190 196 191
f 192 197 193
f 193 197 198
f 194 199 200
f 194 200 195
f 194 201 199
f 197 202 198
f 198 202 203
f 199 201 204
f 201 205 206
f 201 206 204
f 202 207 203
f 203 207 208
f 205 209 210
f 205 210 206
f 207 211 212
f 207 212 208
f 209 213 210
f 210 213 214
f 211 215 212
f 212 215 216
f 213 217 214
f 214 217 218
f 215 219 216
f 216 219 220
f 217 221 222
f 217 222 218
f 219 223 220
f 219 224 227
f 219 227 223
f 221 225 226
f 221 226 222
f 224 228 231
f 224 231 227
f 225 229 230
f 225 230 226
f 228 232 231
f 229 233 234
f 229 234 230
f 231 232 235
f 232 236 235
f 233 237 234
f 234 237 238
f 235 236 237
f 236 239 237
f 237 240 238
f 237 239 240

