# https://github.com/mikedh/trimesh
v 0.48311039 17.12443223 79.61698799
v -0.05348756 17.12208888 79.61698799
v -0.05348756 17.09163542 80.21628695
v 0.48064900 16.98387446 82.28799992
v 1.45538639 16.93233805 82.15981934
v 1.45538639 17.06586721 79.61698799
v -0.48916561 17.11974697 79.61698799
v -0.48916561 17.08929351 80.21628695
v -0.49408875 16.98153255 82.28799992
v 0.48064900 16.80349415 85.68851031
v 1.44800222 16.78475311 84.96169989
v -0.48916561 16.78240976 86.04688412
v 2.42766275 16.82223519 82.15981934
v 2.42766275 16.95576290 79.61698799
v -0.86084606 17.09866403 79.61698799
v -1.46144197 17.03307040 80.21628695
v -0.61962292 16.97450394 82.28799992
v 0.48064900 16.75898491 86.47169446
v 1.45292500 16.70276180 86.47169446
v 1.45292500 16.72618810 86.04688412
v -0.48916561 16.75898491 86.47169446
v -1.10453022 16.76601208 85.68851031
v -1.46390336 16.72618810 86.04688412
v 2.44243109 16.58563177 86.47169446
v 2.51627497 16.59500229 86.12942868
v 2.86580182 16.52706531 86.47169446
v 2.90764691 16.52003815 86.47169446
v 3.02825866 16.85268865 79.61698799
v -1.46144197 17.06352531 79.61698799
v -2.43371796 16.95342244 79.61698799
v -1.46636475 16.85503055 83.59398078
v -1.46390336 16.70276180 86.47169446
v -2.43617935 16.76601208 83.13158409
v -2.32295232 16.68167741 84.96169989
v -2.44848667 16.58563177 86.47169446
v 3.36547783 16.42398961 86.47169446
v 3.44424450 16.45210116 85.68851031
v 3.33347903 16.58797368 83.59398078
v 3.39993875 16.65122395 82.15981934
v 3.39993875 16.78709647 79.61698799
v -3.40599396 16.78475311 79.61698799
v -2.94816268 16.51300953 86.47169446
v -2.87678054 16.52472196 86.47169446
v 3.57962531 16.45678787 85.07511648
v 4.36975335 16.18738619 86.47169446
v 3.93407494 16.53409247 82.28733080
v 4.20729724 16.60437281 79.61698799
v -3.78259719 16.49661185 83.59398078
v -3.33707322 16.58797368 83.59398078
v -4.21089107 16.60202946 79.61698799
v -3.94997644 16.53409247 82.15981934
v -3.35676507 16.44741735 86.12607441
v -3.37891794 16.42398961 86.47169446
v 5.33956796 15.88753251 86.47169446
v 4.72912649 16.12179257 85.68851031
v 4.69466557 16.47552891 79.61698799
v 4.43128956 16.40759193 82.15981934
v -4.37826996 16.18504284 86.47169446
v -4.69333698 16.47318555 79.61698799
v -4.63180041 16.45912978 80.21628695
v 5.34202935 16.12413592 82.28733080
v 6.05092934 15.63452851 86.47169446
v 6.08046638 15.64858574 86.04688412
v 4.78820131 16.13819170 85.07511648
v 5.34202935 16.23892405 80.21628695
v 5.34202935 16.27172086 79.61698799
v -5.34562318 16.12882118 82.15981934
v -5.34070040 15.88518915 86.47169446
v -4.96655856 16.38885089 79.61698799
v 6.31430499 15.92267123 79.61698799
v 6.53583736 15.43775053 86.47169446
v 6.54076014 15.43775053 86.47035334
v 6.54076014 15.44009243 86.44216647
v 6.15184888 15.67669729 85.07511648
v -5.34562318 16.26937751 79.61698799
v -5.80591585 15.76805912 85.68851031
v -6.04960038 15.63452851 86.47169446
v 6.31430499 15.77742964 82.15981934
v 6.81890378 15.56190772 82.28733080
v 6.99120690 15.63921522 79.61698799
v 7.33088746 15.00436623 86.47169446
v -6.31543815 15.91798597 79.61698799
v -6.07667604 15.64858574 86.04688412
v -6.53450768 15.43775053 86.47169446
v 7.90933086 14.67874289 86.47169446
v 7.73210640 14.87552233 79.61698799
v -6.99233933 15.63452851 79.61698799
v -6.95541703 15.61813083 80.21628695
v -6.83726739 15.56190772 82.15981934
v -6.56650648 15.44946295 86.04688412
v -7.28525275 15.09572806 86.47169446
v 8.01763493 14.51241691 86.47169446
v 7.84779392 14.67171428 79.61698799
v -7.47970766 15.40729562 79.61698799
v -8.07291940 14.73965126 85.68851031
v -8.02615154 14.71622351 86.47169446
v 8.01271215 14.09308839 86.47169446
v 7.84779392 14.62017787 79.61698799
v -8.25999014 14.99968097 79.61698799
v -8.48398246 14.71622351 82.28733080
v -8.51352059 14.44213803 86.47169446
v -8.30183523 14.56161141 86.47169446
v 7.98809680 13.85882833 86.47169446
v 7.82810280 14.45853716 79.61698799
v -8.48398246 14.87552233 79.61698799
v -8.79412634 14.60612065 81.18805459
v -8.75966615 14.58503771 81.85245186
v -9.26918844 13.96190259 86.47169446
v 7.82564069 13.55897320 86.47169446
v 7.53272726 13.19821114 86.47169446
v 7.37273182 13.98532888 79.61698799
v -8.87043161 14.65297324 79.61698799
v -9.35780067 14.34140568 79.61698799
v -9.32826326 14.32266464 80.21628695
v -9.22734336 14.03920864 85.68851031
v -9.75901816 13.63627925 86.47169446
v 6.59983496 12.33378590 86.47169446
v 6.35861146 13.03656897 79.61698799
v -9.63102224 14.15399676 79.61698799
v -10.03962463 13.83774394 80.21628695
v -9.95347380 13.77449367 82.15981934
v -10.36699897 13.63393589 79.61698799
v -10.48268722 13.44418507 81.18805459
v -10.20700353 13.28957297 86.47169446
v 2.32428146 9.33992413 79.61698799
v -5.08963170 1.67957468 86.47169446
v -9.34303160 -1.34005529 79.61698799
v -10.06670065 13.85414163 79.61698799
v -10.55160832 13.49572147 79.61698799
v -10.87159776 12.79059504 86.04688412
v -10.66483517 12.98268922 85.68851031
v -10.51222462 13.04828285 86.47169446
v -13.16075455 -5.67389247 86.47169446
v -13.93365141 -5.51927965 79.61698799
v -10.77560136 13.31065591 79.61698799
v -10.85190519 12.77185401 86.47169446
v -11.13005027 13.01080077 79.61698799
v -11.43034858 12.75311297 79.61698799
v -11.59280470 12.56804596 80.21628695
v -11.50911597 12.49308326 82.28733080
v -11.35896609 12.35486884 86.04688412
v -11.33927497 12.33846971 86.47169446
v -13.80565621 -6.25486099 86.47169446
v -14.44071231 -5.96437637 79.61698799
v -11.61495793 12.58913035 79.61698799
v -11.80449006 12.40406333 79.61698799
v -12.01125265 12.00816183 82.28733080
v -11.85618143 11.85354973 86.47169446
v -11.56572868 12.12763522 86.47169446
v -14.19456603 -6.56174329 86.47169446
v -14.50963269 -6.79131954 86.47169446
v -15.06100007 -6.38604752 79.61698799
v -12.40508670 11.80435451 79.61698799
v -12.08509726 12.08312598 80.21628695
v -12.59215671 11.61694559 79.61698799
v -12.33862698 11.34051675 86.47169446
v -12.57000347 11.59351930 80.21628695
v -12.53554401 11.55369459 81.18805459
v -14.56132406 -6.80771795 86.47169446
v -14.67208880 -6.80771795 86.47169446
v -15.81174514 -6.25486099 79.61698799
v -13.01060466 11.12968154 79.61698799
v -12.92445383 11.02894919 82.15981934
v -12.80138141 10.88604951 85.68851031
v -12.77430539 10.85325270 86.47169446
v -15.49175570 -6.22206417 86.47169446
v -15.63698135 -6.01122896 86.47169446
v -15.97666191 -5.97140426 79.61698799
v -13.31090298 10.77126139 79.61698799
v -13.49551233 10.54871303 79.61698799
v -13.40689938 10.43158227 82.28733080
v -13.25921161 10.25120124 86.47169446
v -15.88558830 -5.34124125 86.47169446
v -15.91266431 -5.34124125 86.04688412
v -16.26465255 -5.34358388 79.61698799
v -13.63581520 10.36130411 79.61698799
v -13.63827732 9.76393719 86.47169446
v -16.01850772 -4.91722819 86.47169446
v -16.47633792 -4.69936509 79.61698799
v -16.36065040 -5.07184030 79.61698799
v -13.85734613 10.06144970 79.61698799
v -13.77365741 9.94431822 82.28733080
v -14.15764445 9.62806540 79.61698799
v -14.34225380 9.35397991 79.61698799
v -14.32502334 9.32352573 80.21628695
v -14.01734158 9.22982127 86.04688412
v -13.98780344 9.22982127 86.47169446
v -16.18342450 -4.36905649 86.47169446
v -16.53295207 -3.93567220 82.28733080
v -16.58956622 -4.15119339 80.21628695
v -16.60433457 -4.21444367 79.61698799
v -14.46286555 9.16891290 79.61698799
v -14.41609841 8.97916135 82.28733080
v -14.45548065 8.53640726 86.04688412
v -14.44071231 8.51532432 86.47169446
v -16.42218588 -3.36641683 86.47169446
v -16.64371826 -3.40858416 82.28733080
v -16.78894391 -3.39921364 79.61698799
v -14.65239768 8.86905849 79.61698799
v -14.58347730 8.75895562 81.83701585
v -14.80254611 8.32557205 82.28733080
v -14.74101063 8.06788424 85.68851031
v -14.71639527 8.02571691 86.47169446
v -16.51818373 -2.90023717 86.47169446
v -16.52310651 -2.87446824 86.47169446
v -16.95632281 -2.42702889 79.61698799
v -14.87639072 8.47784224 79.61698799
v -14.96500367 8.25529316 80.21628695
v -15.24560942 7.79145612 79.61698799
v -15.40806553 7.47754593 79.61698799
v -14.93546554 7.59936122 86.47169446
v -16.58464199 -2.43874204 86.47169446
v -16.62402569 -2.47856602 85.68851031
v -16.92432401 -2.42702889 80.21628695
v -17.00062928 -2.05455296 79.61698799
v -14.99946313 8.25529316 79.61698799
v -15.49667848 7.29247892 79.61698799
v -15.39083507 7.44006386 80.21628695
v -15.08807609 7.28545103 86.47169446
v -15.11761277 7.28545103 86.04688412
v -16.69787030 -1.45484341 86.47169446
v -16.74217532 -1.45484341 85.68851031
v -16.92678467 -1.45718604 82.28733080
v -16.81355782 -2.42702889 82.28733080
v -17.03755086 -1.45718604 80.21628695
v -17.06954966 -1.45718604 79.61698799
v -15.63698135 6.99262451 79.61698799
v -15.62221301 6.95514244 80.21628695
v -15.56067607 6.82629853 82.28733080
v -15.28007033 6.88017901 86.47169446
v -16.72494487 -1.02848773 86.47169446
v -16.98339882 -0.48265866 82.28733080
v -17.09170290 -1.08236821 79.61698799
v -16.75694367 -0.48265866 86.47169446
v -15.92004921 6.31326628 79.61698799
v -15.83143626 6.31326628 81.18805459
v -15.52621516 6.32029417 86.47169446
v -15.45975545 6.59203703 85.68851031
v -15.43514154 6.53581464 86.47169446
v -16.98339882 -0.47563077 82.28799992
v -17.09416356 -0.48265866 80.21628695
v -17.12616381 -0.48265866 79.61698799
v -16.75694367 0.49186909 86.47169446
v -17.12862448 0.48952646 79.61698799
v -16.27449956 5.34342379 79.61698799
v -15.63451923 6.04855059 86.47169446
v -15.64682691 6.07900477 86.04688412
v -16.69787030 1.46405384 86.47169446
v -16.74217532 1.46405384 85.68851031
v -16.92678467 1.45936895 82.28733080
v -17.10647124 0.86200203 79.61698799
v -16.13173458 5.34342379 82.15981934
v -16.47633792 4.70154727 79.61698799
v -15.88558830 5.34108116 86.47169446
v -16.65602449 1.83887240 86.47169446
v -16.62402569 2.48543400 85.68851031
v -17.02770530 1.83184451 79.61698799
v -17.03755086 1.45936895 80.21628695
v -17.06954966 1.45936895 79.61698799
v -16.04066096 4.99437416 85.68851031
v -16.40495543 4.41809090 82.28733080
v -16.18342450 4.37826656 86.47169446
v -16.52556718 4.51882325 79.61698799
v -16.58464199 2.44326685 86.47169446
v -16.92432401 2.43389651 80.21628695
v -16.81355782 2.43389651 82.28733080
v -16.52310651 2.88133586 86.47169446
v -16.95632281 2.43389651 79.61698799
v -16.58956622 4.15571820 80.21628695
v -16.53295207 3.93785510 82.28733080
v -16.29911347 4.09012494 85.68851031
v -16.42218588 3.37328500 86.47169446
v -16.60433457 4.21662621 79.61698799
v -16.51326095 2.93287335 86.47169446
v -16.53541274 2.99612399 85.84554977
v -16.78894391 3.40373882 79.61698799
v -16.70525374 3.40373882 81.18805459
v -16.49356838 3.78792753 83.59398078
v -16.52064440 3.11559719 85.68851031
f 1 2 3
f 1 3 4
f 1 4 5
f 1 5 6
f 1 6 14
f 1 14 28
f 1 28 40
f 1 40 47
f 1 47 56
f 1 56 66
f 1 66 70
f 1 70 80
f 1 80 86
f 1 86 93
f 1 93 98
f 1 98 104
f 1 104 111
f 1 111 118
f 1 118 125
f 1 125 127
f 1 127 134
f 1 134 144
f 1 144 152
f 1 152 161
f 1 161 168
f 1 168 175
f 1 175 180
f 1 180 179
f 1 179 191
f 1 191 198
f 1 198 206
f 1 206 215
f 1 215 226
f 1 226 233
f 1 233 242
f 1 242 244
f 1 244 251
f 1 251 259
f 1 259 257
f 1 257 268
f 1 268 276
f 1 276 273
f 1 273 263
f 1 263 253
f 1 253 245
f 1 245 235
f 1 235 227
f 1 227 217
f 1 217 210
f 1 210 209
f 1 209 216
f 1 216 207
f 1 207 199
f 1 199 192
f 1 192 184
f 1 184 183
f 1 183 181
f 1 181 176
f 1 176 170
f 1 170 169
f 1 169 162
f 1 162 155
f 1 155 153
f 1 153 146
f 1 146 145
f 1 145 138
f 1 138 137
f 1 137 135
f 1 135 129
f 1 129 122
f 1 122 128
f 1 128 119
f 1 119 113
f 1 113 112
f 1 112 105
f 1 105 99
f 1 99 94
f 1 94 87
f 1 87 82
f 1 82 75
f 1 75 69
f 1 69 59
f 1 59 50
f 1 50 41
f 1 41 30
f 1 30 29
f 1 29 15
f 1 15 7
f 1 7 2
f 2 7 8
f 2 8 3
f 3 8 9
f 3 9 4
f 4 10 11
f 4 11 5
f 4 9 12
f 4 12 10
f 5 13 14
f 5 14 6
f 5 11 13
f 7 15 8
f 8 15 16
f 8 16 17
f 8 17 9
f 9 17 12
f 10 18 19
f 10 19 20
f 10 20 11
f 10 12 21
f 10 21 18
f 11 20 13
f 12 17 22
f 12 22 23
f 12 23 32
f 12 32 21
f 13 24 25
f 13 25 26
f 13 26 14
f 13 20 24
f 14 26 27
f 14 27 28
f 15 29 16
f 16 29 30
f 16 30 31
f 16 31 23
f 16 23 17
f 17 23 22
f 18 21 32
f 18 32 35
f 18 35 43
f 18 43 42
f 18 42 53
f 18 53 58
f 18 58 68
f 18 68 77
f 18 77 84
f 18 84 91
f 18 91 96
f 18 96 102
f 18 102 101
f 18 101 108
f 18 108 116
f 18 116 124
f 18 124 132
f 18 132 136
f 18 136 142
f 18 142 149
f 18 149 148
f 18 148 156
f 18 156 165
f 18 165 172
f 18 172 177
f 18 177 187
f 18 187 195
f 18 195 203
f 18 203 211
f 18 211 219
f 18 219 230
f 18 230 239
f 18 239 237
f 18 237 246
f 18 246 254
f 18 254 262
f 18 262 272
f 18 272 274
f 18 274 267
f 18 267 264
f 18 264 255
f 18 255 248
f 18 248 243
f 18 243 234
f 18 234 231
f 18 231 221
f 18 221 212
f 18 212 205
f 18 205 204
f 18 204 196
f 18 196 188
f 18 188 178
f 18 178 173
f 18 173 167
f 18 167 166
f 18 166 160
f 18 160 159
f 18 159 151
f 18 151 150
f 18 150 143
f 18 143 133
f 18 133 126
f 18 126 117
f 18 117 110
f 18 110 109
f 18 109 103
f 18 103 97
f 18 97 92
f 18 92 85
f 18 85 81
f 18 81 71
f 18 71 62
f 18 62 54
f 18 54 45
f 18 45 36
f 18 36 27
f 18 27 26
f 18 26 24
f 18 24 19
f 19 24 20
f 23 31 30
f 23 30 33
f 23 33 34
f 23 34 35
f 23 35 32
f 24 26 25
f 27 36 37
f 27 37 38
f 27 38 39
f 27 39 40
f 27 40 28
f 30 41 42
f 30 42 43
f 30 43 33
f 33 35 34
f 33 43 35
f 36 44 37
f 36 45 44
f 37 44 46
f 37 46 38
f 38 46 39
f 39 46 40
f 40 46 47
f 41 48 49
f 41 49 42
f 41 50 51
f 41 51 48
f 42 49 48
f 42 48 52
f 42 52 53
f 44 45 46
f 45 54 55
f 45 55 56
f 45 56 57
f 45 57 46
f 46 57 56
f 46 56 47
f 48 53 52
f 48 51 58
f 48 58 53
f 50 59 60
f 50 60 51
f 51 60 58
f 54 61 55
f 54 62 63
f 54 63 61
f 55 61 64
f 55 64 56
f 56 64 61
f 56 61 65
f 56 65 66
f 58 60 67
f 58 67 68
f 59 69 60
f 60 69 67
f 61 63 70
f 61 70 65
f 62 71 72
f 62 72 73
f 62 73 63
f 63 74 70
f 63 73 74
f 65 70 66
f 67 75 76
f 67 76 68
f 67 69 75
f 68 76 77
f 70 74 78
f 70 78 73
f 70 73 79
f 70 79 80
f 71 81 72
f 72 81 73
f 73 81 79
f 73 78 74
f 75 82 76
f 76 82 83
f 76 83 77
f 77 83 84
f 79 81 80
f 80 81 85
f 80 85 86
f 82 87 88
f 82 88 89
f 82 89 83
f 83 89 90
f 83 90 84
f 84 90 91
f 85 92 86
f 86 92 93
f 87 94 88
f 88 94 89
f 89 94 91
f 89 91 90
f 91 94 95
f 91 95 96
f 92 97 98
f 92 98 93
f 94 99 95
f 95 99 100
f 95 100 101
f 95 101 102
f 95 102 96
f 97 103 98
f 98 103 104
f 99 105 100
f 100 105 106
f 100 106 107
f 100 107 101
f 101 107 108
f 103 109 104
f 104 109 110
f 104 110 111
f 105 112 106
f 106 112 113
f 106 113 114
f 106 114 115
f 106 115 108
f 106 108 107
f 108 115 114
f 108 114 113
f 108 113 116
f 110 117 118
f 110 118 111
f 113 119 120
f 113 120 121
f 113 121 116
f 116 121 122
f 116 122 123
f 116 123 124
f 117 125 118
f 117 126 127
f 117 127 125
f 119 128 120
f 120 128 122
f 120 122 121
f 122 129 123
f 123 129 130
f 123 130 131
f 123 131 132
f 123 132 124
f 126 133 127
f 127 133 134
f 129 135 130
f 130 136 132
f 130 132 131
f 130 135 137
f 130 137 138
f 130 138 139
f 130 139 140
f 130 140 141
f 130 141 142
f 130 142 136
f 133 143 134
f 134 143 144
f 138 145 139
f 139 145 146
f 139 146 147
f 139 147 148
f 139 148 140
f 140 148 141
f 141 148 149
f 141 149 142
f 143 150 144
f 144 150 151
f 144 151 152
f 146 153 154
f 146 154 147
f 147 154 155
f 147 155 148
f 148 155 157
f 148 157 158
f 148 158 156
f 151 159 152
f 152 159 160
f 152 160 161
f 153 155 154
f 155 162 163
f 155 163 164
f 155 164 157
f 156 158 165
f 157 164 165
f 157 165 158
f 160 166 161
f 161 166 167
f 161 167 168
f 162 169 163
f 163 169 170
f 163 170 164
f 164 170 165
f 165 170 171
f 165 171 172
f 167 173 174
f 167 174 175
f 167 175 168
f 170 176 177
f 170 177 171
f 171 177 172
f 173 178 174
f 174 178 179
f 174 179 180
f 174 180 175
f 176 181 182
f 176 182 177
f 177 182 183
f 177 183 184
f 177 184 185
f 177 185 186
f 177 186 187
f 178 188 179
f 179 188 189
f 179 189 190
f 179 190 191
f 181 183 182
f 184 192 185
f 185 192 186
f 186 192 193
f 186 193 194
f 186 194 195
f 186 195 187
f 188 196 189
f 189 197 198
f 189 198 190
f 189 196 197
f 190 198 191
f 192 199 200
f 192 200 193
f 193 200 194
f 194 200 201
f 194 201 202
f 194 202 203
f 194 203 195
f 196 204 197
f 197 204 198
f 198 204 205
f 198 205 206
f 199 207 200
f 200 207 201
f 201 207 208
f 201 208 202
f 202 208 209
f 202 209 203
f 203 209 210
f 203 210 211
f 205 212 213
f 205 213 214
f 205 214 206
f 206 214 215
f 207 216 208
f 208 216 209
f 210 217 218
f 210 218 211
f 211 218 220
f 211 220 219
f 212 221 222
f 212 222 213
f 213 222 223
f 213 223 224
f 213 224 214
f 214 224 215
f 215 224 223
f 215 223 225
f 215 225 226
f 217 227 228
f 217 228 218
f 218 228 229
f 218 229 220
f 219 220 230
f 220 229 230
f 221 231 222
f 222 231 223
f 223 232 233
f 223 233 225
f 223 231 234
f 223 234 232
f 225 233 226
f 227 235 228
f 228 235 229
f 229 235 236
f 229 236 237
f 229 237 238
f 229 238 230
f 230 238 239
f 232 240 241
f 232 241 233
f 232 234 240
f 233 241 242
f 234 243 244
f 234 244 240
f 235 245 246
f 235 246 236
f 236 246 247
f 236 247 237
f 237 247 246
f 237 239 238
f 240 244 241
f 241 244 242
f 243 248 249
f 243 249 244
f 244 250 251
f 244 249 250
f 245 252 246
f 245 253 252
f 246 252 254
f 248 255 249
f 249 255 256
f 249 256 250
f 250 257 258
f 250 258 251
f 250 256 257
f 251 258 259
f 252 253 260
f 252 260 254
f 253 261 262
f 253 262 260
f 253 263 261
f 254 260 262
f 255 264 256
f 256 265 266
f 256 266 257
f 256 264 267
f 256 267 265
f 257 259 258
f 257 266 265
f 257 265 268
f 261 263 269
f 261 269 270
f 261 270 262
f 262 271 272
f 262 270 271
f 263 273 269
f 265 267 268
f 267 274 275
f 267 275 276
f 267 276 268
f 269 273 276
f 269 276 270
f 270 276 277
f 270 277 278
f 270 278 271
f 271 278 272
f 272 278 279
f 272 279 274
f 274 279 275
f 275 277 276
f 275 279 277
f 277 279 278

