# https://github.com/mikedh/trimesh
v 15.04502977 1.90490595 13.82658781
v 20.43680282 1.90490595 13.82658781
v 15.04502977 1.90490595 14.73830593
v 15.04502977 32.18611090 13.82658781
v 20.43680282 1.90490595 14.73830593
v 24.98851397 4.92531945 13.82658781
v 15.04502977 32.18314767 14.73830593
v 15.23971496 32.09422188 14.73830593
v 15.41882366 32.01122835 13.82658781
v 24.98851397 4.92531945 14.73830593
v 24.98851397 25.25012568 13.82658781
v 15.41882366 32.00826512 14.73830593
v 15.60766639 31.91637611 13.82658781
v 15.64660401 31.89563062 14.73830593
v 16.03791946 31.69999969 14.73830593
v 24.98851397 25.25012568 14.73830593
v 24.63613614 25.59396142 13.82658781
v 24.94373535 25.29458857 14.73830593
v 16.03791946 31.69999969 13.82658781
v 16.33675934 31.54586553 14.73830593
v 16.28614116 31.57254326 13.82658781
v 24.63613614 25.59396142 14.73830593
v 24.27986382 25.93186781 13.82658781
v 16.85169756 31.27613364 14.73830593
v 16.85072430 31.27613364 13.82658781
v 24.12314299 26.08007263 14.73830593
v 24.12314299 26.08007263 13.82658781
v 17.15832496 31.11014367 14.73830593
v 17.18850035 31.09532174 13.82658781
v 23.63740689 26.51876061 14.73830593
v 23.63740689 26.51876061 13.82658781
v 17.33743365 31.01232820 14.73830593
v 17.33743365 31.01232820 13.82658781
v 23.28697558 26.82702604 14.73830593
v 23.25290571 26.85666700 13.82658781
v 17.53406536 30.89969370 13.82658781
v 17.57397479 30.87597920 14.73830593
v 23.08255779 27.00487181 14.73830593
v 23.08255779 27.00487181 13.82658781
v 17.98183855 30.63885150 13.82658781
v 17.98183855 30.63885150 14.73830593
v 22.90442091 27.15603985 14.73830593
v 22.59682170 27.41391594 13.82658781
v 18.22616576 30.49361281 14.73830593
v 18.64765660 30.24166318 13.82658781
v 22.59682170 27.41391594 14.73830593
v 21.99135442 27.90002714 13.82658781
v 18.64765660 30.24166318 14.73830593
v 18.98446083 30.02824709 13.82658781
v 21.99037971 27.90002714 14.73830593
v 21.50464362 28.27943320 13.82658781
v 21.50464362 28.27943320 14.73830593
v 21.81224428 28.03933938 14.73830593
v 19.13339414 29.93339775 14.73830593
v 19.13339414 29.93339775 13.82658781
v 21.08217952 28.59066186 13.82658781
v 20.89625657 28.72701087 14.73830593
v 19.40497696 29.75555197 14.73830593
v 19.35922653 29.78519294 13.82658781
v 20.89625657 28.72701087 13.82658781
v 20.55458603 28.97599437 14.73830593
v 19.87124642 29.44728654 14.73830593
v 19.87124642 29.44728654 13.82658781
v 20.52148942 28.99970888 13.82658781
v 20.35600925 29.11827273 14.73830593
v 20.17787237 29.23979981 14.73830593
v 20.35600925 29.11827273 13.82658781
f 1 2 5
f 1 5 3
f 1 3 7
f 1 7 4
f 1 4 9
f 1 9 13
f 1 13 19
f 1 19 21
f 1 21 25
f 1 25 29
f 1 29 33
f 1 33 36
f 1 36 40
f 1 40 45
f 1 45 49
f 1 49 55
f 1 55 59
f 1 59 63
f 1 63 67
f 1 67 64
f 1 64 60
f 1 60 56
f 1 56 51
f 1 51 47
f 1 47 43
f 1 43 39
f 1 39 35
f 1 35 31
f 1 31 27
f 1 27 23
f 1 23 17
f 1 17 11
f 1 11 6
f 1 6 2
f 2 6 10
f 2 10 5
f 3 5 10
f 3 10 16
f 3 16 18
f 3 18 22
f 3 22 26
f 3 26 30
f 3 30 34
f 3 34 38
f 3 38 42
f 3 42 46
f 3 46 50
f 3 50 53
f 3 53 52
f 3 52 57
f 3 57 61
f 3 61 65
f 3 65 66
f 3 66 62
f 3 62 58
f 3 58 54
f 3 54 48
f 3 48 44
f 3 44 41
f 3 41 37
f 3 37 32
f 3 32 28
f 3 28 24
f 3 24 20
f 3 20 15
f 3 15 14
f 3 14 12
f 3 12 8
f 3 8 7
f 4 7 8
f 4 8 9
f 6 11 16
f 6 16 10
f 8 12 9
f 9 12 14
f 9 14 15
f 9 15 13
f 11 17 18
f 11 18 16
f 13 15 19
f 15 20 21
f 15 21 19
f 17 22 18
f 17 23 22
f 20 24 21
f 21 24 25
f 22 23 26
f 23 27 26
f 24 28 29
f 24 29 25
f 26 27 31
f 26 31 30
f 28 32 29
f 29 32 33
f 30 31 34
f 31 35 34
f 32 36 33
f 32 37 36
f 34 35 39
f 34 39 38
f 36 37 41
f 36 41 40
f 38 39 42
f 39 43 42
f 40 41 44
f 40 44 45
f 42 43 46
f 43 47 46
f 44 48 45
f 45 48 49
f 46 47 50
f 47 51 52
f 47 52 53
f 47 53 50
f 48 54 49
f 49 54 55
f 51 56 52
f 52 56 57
f 54 58 55
f 55 58 59
f 56 60 57
f 57 60 61
f 58 62 63
f 58 63 59
f 60 64 61
f 61 64 67
f 61 67 65
f 62 66 63
f 63 66 67
f 65 67 66

