# https://github.com/mikedh/trimesh
v -10.16152682 -24.20690498 12.18473397
v -4.88548221 -24.20690498 12.18473397
v -5.88257705 -25.31725781 13.00421549
v -10.16152682 -24.20690498 13.00405328
v -10.16152682 21.29790466 12.18473397
v 0.00346658 -20.08484441 12.18473397
v -4.91235003 -25.31725781 13.00421549
v -5.88257705 -25.31725781 13.82642560
v -10.16152682 21.29790466 13.00405328
v -5.88257705 24.87461555 13.00421549
v -3.23758931 21.29790466 12.18473397
v 0.00446157 -20.08975705 13.00421549
v 0.00346658 20.08437764 12.18473397
v -4.91235003 -25.31725781 13.82337258
v -5.37706402 -25.31725781 13.82642560
v -5.88257705 24.87461555 13.82642560
v -4.92628162 24.87461555 13.00421549
v 0.00446157 20.08929028 13.00421549
v 0.00446157 -20.08975705 13.82642560
v -4.92628162 24.87461555 13.82642560
v 0.00446157 20.08929028 13.82642560
f 1 2 7
f 1 7 3
f 1 3 8
f 1 8 4
f 1 4 9
f 1 9 5
f 1 5 11
f 1 11 13
f 1 13 6
f 1 6 2
f 2 6 7
f 3 7 14
f 3 14 15
f 3 15 8
f 4 8 16
f 4 16 9
f 5 9 16
f 5 16 10
f 5 10 17
f 5 17 11
f 6 12 7
f 6 13 18
f 6 18 12
f 7 12 19
f 7 19 14
f 8 15 19
f 8 19 21
f 8 21 20
f 8 20 16
f 10 16 20
f 10 20 17
f 11 17 13
f 12 18 21
f 12 21 19
f 13 17 18
f 14 19 15
f 17 20 21
f 17 21 18

