# https://github.com/mikedh/trimesh
v -24.99538313 -25.24607374 11.32163827
v -24.63729899 -25.59634574 11.32163827
v -24.63772189 -25.59634574 12.18025872
v -24.99538313 -25.24607374 12.18025872
v -24.99538313 -4.59605911 11.32163827
v -24.12484895 -26.08031056 11.32163827
v -24.63983062 -25.59367217 12.18464997
v -24.12484895 -26.08031056 12.18464997
v -24.99538313 -25.10436022 12.18464997
v -24.99538313 -4.92494040 12.18025872
v -20.68699697 -1.56660603 11.32163827
v -23.69548659 -26.46801539 11.32163827
v -23.64107820 -26.51881895 12.18464997
v -24.99538313 -5.23243099 12.18464997
v -24.78787322 -4.93296183 12.18464997
v -20.73760935 -2.43025354 12.18464997
v -20.68657551 -2.33934358 12.18025872
v -20.68657551 -1.56927960 11.32256519
v -20.68657551 -1.63879958 11.32163827
v -23.57401599 -26.57764321 11.32163827
v -23.08391906 -27.00545444 12.18464997
v -20.68657551 -2.48640423 12.18464997
v -20.68657551 -28.88248657 11.32163827
v -23.08391906 -27.00545444 11.32163827
v -22.59550940 -27.41722427 12.18464997
v -20.68657551 -28.66323382 12.18464997
v -20.68657551 -28.87981300 12.18025872
v -20.89703851 -28.72740521 12.18464997
v -20.89703851 -28.73007878 11.32163827
v -22.59803958 -27.41455360 11.32163827
v -21.99279824 -27.89851842 11.32163827
v -21.99237679 -27.89851842 12.18464997
v -21.50860604 -28.27819966 12.18464997
v -21.50649731 -28.28087612 12.18025872
v -21.50649731 -28.28087612 11.32163827
f 1 2 3
f 1 3 4
f 1 4 9
f 1 9 14
f 1 14 10
f 1 10 5
f 1 5 11
f 1 11 19
f 1 19 23
f 1 23 29
f 1 29 35
f 1 35 31
f 1 31 30
f 1 30 24
f 1 24 20
f 1 20 12
f 1 12 6
f 1 6 2
f 2 6 3
f 3 7 4
f 3 6 8
f 3 8 7
f 4 7 9
f 5 10 11
f 6 12 13
f 6 13 8
f 7 8 13
f 7 13 21
f 7 21 25
f 7 25 32
f 7 32 33
f 7 33 28
f 7 28 26
f 7 26 22
f 7 22 16
f 7 16 15
f 7 15 14
f 7 14 9
f 10 14 15
f 10 15 16
f 10 16 17
f 10 17 11
f 11 17 18
f 11 18 19
f 12 20 13
f 13 20 21
f 16 22 17
f 17 22 26
f 17 26 27
f 17 27 23
f 17 23 19
f 17 19 18
f 20 24 21
f 21 24 25
f 23 27 28
f 23 28 29
f 24 30 25
f 25 30 31
f 25 31 32
f 26 28 27
f 28 33 34
f 28 34 29
f 29 34 35
f 31 35 34
f 31 34 32
f 32 34 33

