# https://github.com/mikedh/trimesh
v 5.52663689 -0.54897354 14.73847973
v 20.09728591 -0.54897354 14.73847973
v 5.52663689 -0.54897354 15.64563280
v 5.52663689 35.09314112 14.73847973
v 20.09728591 -0.54897354 15.64563280
v 24.98973055 4.92852454 14.73847973
v 5.52663689 35.08965361 15.64563280
v 5.99340022 35.01638687 15.64563280
v 5.99340022 35.01638687 14.73847973
v 24.98973055 4.92852454 15.64563280
v 24.98973055 25.25109025 14.73847973
v 6.47921597 34.92567678 15.64563280
v 6.30203569 34.96056349 14.73847973
v 24.98973055 25.25109025 15.64563280
v 24.63537143 25.58950644 14.73847973
v 6.83166984 34.85938797 15.64563280
v 6.77832523 34.86985340 14.73847973
v 24.63537143 25.58950644 15.64563280
v 24.12288374 26.07794652 14.73847973
v 7.29081292 34.76867787 15.64563280
v 7.29081292 34.76867787 14.73847973
v 24.34578911 25.86512713 15.64563280
v 24.12288374 26.07794652 15.09624525
v 23.94189370 26.24192335 14.73847973
v 8.26244370 34.54888056 15.64563280
v 8.26244370 34.54888056 14.73847973
v 24.12288374 26.07445901 15.64563280
v 23.63706799 26.51754114 15.64563280
v 23.63706799 26.51754114 14.73847973
v 9.23407448 34.30117156 15.64563280
v 9.23407448 34.30117156 14.73847973
v 23.08266786 27.00249370 15.64563280
v 23.08266786 27.00249370 14.73847973
v 9.55985568 34.21046147 15.64563280
v 9.98089610 34.09183969 14.73847973
v 22.59685211 27.41068912 15.64563280
v 22.59685211 27.41068912 14.73847973
v 9.98089610 34.09183969 15.64563280
v 10.25523866 34.01159503 15.64563280
v 10.46861637 33.94879663 14.73847973
v 22.25392446 27.68630691 15.64563280
v 22.21391654 27.71770611 14.73847973
v 10.46861637 33.94879663 15.64563280
v 10.72962296 33.86506446 14.73847973
v 21.98910666 27.89563879 14.73847973
v 21.77763419 28.06310313 15.64563280
v 11.17733532 33.71853388 15.64563280
v 11.17733532 33.71853388 14.73847973
v 21.81192710 28.03519144 14.73847973
v 21.50519687 28.27592252 14.73847973
v 21.50329235 28.27592252 15.64563280
v 11.53550491 33.59642459 14.73847973
v 12.15087061 33.38360520 15.64563280
v 21.12035533 28.56200864 14.73847973
v 21.16036325 28.53060944 15.64563280
v 12.15087061 33.38360520 14.73847973
v 12.84434835 33.12542787 15.64563280
v 20.89554690 28.72598547 14.73847973
v 20.89554690 28.72598547 15.64563280
v 12.84434835 33.12542787 14.73847973
v 13.32825813 32.93005474 15.64563280
v 13.15107858 33.00331857 14.73847973
v 20.55452376 28.97369447 14.73847973
v 20.35638726 29.11673753 15.64563280
v 13.66356627 32.79398670 15.64563280
v 13.61212690 32.81492047 14.73847973
v 20.35638726 29.11673753 14.73847973
v 20.17730174 29.23884682 14.73847973
v 20.14491480 29.25978059 15.64563280
v 14.09413217 32.60907610 15.64563280
v 14.09413217 32.60907610 14.73847973
v 19.87057151 29.44469118 14.73847973
v 19.87057151 29.44469118 15.64563280
v 14.93240107 32.23577030 15.64563280
v 14.40467288 32.47301097 14.73847973
v 19.40190221 29.75519569 14.73847973
v 19.45334158 29.72030898 15.64563280
v 14.93240107 32.23577030 14.73847973
v 15.21055484 32.10668308 15.64563280
v 15.24103726 32.09272724 14.73847973
v 18.95228534 30.04477222 14.73847973
v 18.92180291 30.06570599 15.64563280
v 15.41631230 32.00899507 15.64563280
v 15.41631230 32.00899507 14.73847973
v 18.64555511 30.24014536 14.73847973
v 18.64555511 30.24014536 15.64563280
v 16.03358324 31.69848766 15.64563280
v 16.03358324 31.69848766 14.73847973
v 17.98065528 30.63787824 14.73847973
v 17.98065528 30.63787824 15.64563280
v 16.84899068 31.27633640 15.64563280
v 16.33459847 31.54497917 14.73847973
v 17.33671095 31.01118404 14.73847973
v 17.61676924 30.85069762 15.64563280
v 17.33671095 31.01118404 15.64563280
v 16.84899068 31.27633640 14.73847973
f 1 2 5
f 1 5 3
f 1 3 7
f 1 7 4
f 1 4 9
f 1 9 13
f 1 13 17
f 1 17 21
f 1 21 26
f 1 26 31
f 1 31 35
f 1 35 40
f 1 40 44
f 1 44 48
f 1 48 52
f 1 52 56
f 1 56 60
f 1 60 62
f 1 62 66
f 1 66 71
f 1 71 75
f 1 75 78
f 1 78 80
f 1 80 84
f 1 84 88
f 1 88 92
f 1 92 96
f 1 96 93
f 1 93 89
f 1 89 85
f 1 85 81
f 1 81 76
f 1 76 72
f 1 72 68
f 1 68 67
f 1 67 63
f 1 63 58
f 1 58 54
f 1 54 50
f 1 50 49
f 1 49 45
f 1 45 42
f 1 42 37
f 1 37 33
f 1 33 29
f 1 29 24
f 1 24 19
f 1 19 15
f 1 15 11
f 1 11 6
f 1 6 2
f 2 6 10
f 2 10 5
f 3 5 10
f 3 10 14
f 3 14 18
f 3 18 22
f 3 22 27
f 3 27 28
f 3 28 32
f 3 32 36
f 3 36 41
f 3 41 46
f 3 46 51
f 3 51 55
f 3 55 59
f 3 59 64
f 3 64 69
f 3 69 73
f 3 73 77
f 3 77 82
f 3 82 86
f 3 86 90
f 3 90 94
f 3 94 95
f 3 95 91
f 3 91 87
f 3 87 83
f 3 83 79
f 3 79 74
f 3 74 70
f 3 70 65
f 3 65 61
f 3 61 57
f 3 57 53
f 3 53 47
f 3 47 43
f 3 43 39
f 3 39 38
f 3 38 34
f 3 34 30
f 3 30 25
f 3 25 20
f 3 20 16
f 3 16 12
f 3 12 8
f 3 8 7
f 4 7 8
f 4 8 9
f 6 11 14
f 6 14 10
f 8 12 13
f 8 13 9
f 11 15 18
f 11 18 14
f 12 16 13
f 13 16 17
f 15 19 23
f 15 23 18
f 16 20 21
f 16 21 17
f 18 23 22
f 19 24 23
f 20 25 26
f 20 26 21
f 22 23 27
f 23 24 28
f 23 28 27
f 24 29 28
f 25 30 31
f 25 31 26
f 28 29 33
f 28 33 32
f 30 34 31
f 31 34 35
f 32 33 37
f 32 37 36
f 34 38 35
f 35 38 39
f 35 39 40
f 36 37 41
f 37 42 41
f 39 43 40
f 40 43 44
f 41 42 45
f 41 45 46
f 43 47 44
f 44 47 48
f 45 49 46
f 46 49 50
f 46 50 51
f 47 52 48
f 47 53 52
f 50 54 51
f 51 54 55
f 52 53 56
f 53 57 60
f 53 60 56
f 54 58 59
f 54 59 55
f 57 61 62
f 57 62 60
f 58 63 59
f 59 63 64
f 61 65 62
f 62 65 66
f 63 67 64
f 64 67 68
f 64 68 69
f 65 70 71
f 65 71 66
f 68 72 73
f 68 73 69
f 70 74 75
f 70 75 71
f 72 76 73
f 73 76 77
f 74 78 75
f 74 79 80
f 74 80 78
f 76 81 82
f 76 82 77
f 79 83 80
f 80 83 84
f 81 85 82
f 82 85 86
f 83 87 88
f 83 88 84
f 85 89 90
f 85 90 86
f 87 91 92
f 87 92 88
f 89 93 94
f 89 94 90
f 91 95 93
f 91 93 96
f 91 96 92
f 93 95 94

