# https://github.com/mikedh/trimesh
v -18.23536959 -25.31790376 16.55744361
v -4.91454204 -25.31790376 16.55744361
v -18.23536959 -25.31790376 17.46519338
v -18.23536959 23.51638862 16.55744361
v -4.91454204 -25.31790376 17.46519338
v 0.00243467 -20.08838985 16.55744361
v 0.00421970 -20.08838985 16.55833286
v -18.23536959 23.51638862 17.46519338
v -4.67708449 23.51638862 16.55744361
v 0.00421970 -20.08838985 17.46519338
v 0.00421970 -0.00208495 16.55744361
v -4.67886989 23.51638862 17.46519338
v 0.00421970 20.08900062 16.55744361
v -4.67708449 23.51638862 17.26340136
v 0.00421970 20.08900062 17.46519338
f 1 2 5
f 1 5 3
f 1 3 8
f 1 8 4
f 1 4 9
f 1 9 13
f 1 13 11
f 1 11 6
f 1 6 2
f 2 6 7
f 2 7 10
f 2 10 5
f 3 5 10
f 3 10 15
f 3 15 12
f 3 12 8
f 4 8 12
f 4 12 14
f 4 14 9
f 6 11 7
f 7 11 13
f 7 13 15
f 7 15 10
f 9 14 15
f 9 15 13
f 12 15 14

