# https://github.com/mikedh/trimesh
v 1.07005605 -35.50259987 7.38892010
v 1.45919615 -35.49564802 7.38892010
v 1.07005605 -35.50259987 8.77950501
v 1.07005605 35.50275588 7.38892010
v 2.42999777 -35.44003899 7.38892010
v 1.94664486 -35.46784640 8.77950501
v 1.45919615 -35.49564802 8.77950501
v 1.07005605 35.50275588 8.77950501
v 1.45919615 35.49580402 7.38892010
v 3.40284730 -35.36356861 7.38892010
v 2.42999777 -35.44003899 8.77950501
v 1.45919615 35.49580402 8.77950501
v 2.36240983 35.44714105 7.38892010
v 4.44328404 -35.24538711 7.38892010
v 3.40284730 -35.36356861 8.77950501
v 2.42999777 35.44018920 8.77950501
v 3.40284730 35.36371882 7.38892010
v 3.40284730 35.36371882 8.77950501
v 5.34649845 -35.12025376 7.38892010
v 4.86109764 -35.18977229 8.77950501
v 4.37569683 -35.25233896 8.77950501
v 3.89029601 -35.30795378 8.77950501
v 4.37569683 35.25248917 7.38892010
v 4.37569683 35.25248917 8.77950501
v 5.39155660 -35.11330190 7.38892010
v 5.34649845 -35.12025376 8.77950501
v 4.85904974 35.18992829 8.77950501
v 5.34649845 35.12040976 7.38892010
v 5.99165103 -35.01597597 7.38892010
v 5.99369929 -35.01597597 8.29251324
v 5.99369929 -35.01597597 8.77950501
v 5.34649845 35.12040976 8.77950501
v 5.99369929 35.01613197 8.29251324
v 5.99165103 35.01613197 7.38892010
v 6.23537539 -34.97427064 8.77950501
v 6.53644710 -34.91865582 7.38892010
v 5.99369929 35.01613197 8.77950501
v 6.23742329 34.97442085 8.77950501
v 6.47910011 34.92575788 7.38892010
v 6.88462485 -34.84913729 8.77950501
v 7.29014960 -34.76571506 7.38892010
v 6.88462485 34.84928750 8.77950501
v 7.23280261 34.77976898 7.38892010
v 7.29014960 -34.76571506 8.77950501
v 7.35773682 -34.75181135 7.38892010
v 7.29014960 34.76586527 8.77950501
v 7.77554969 34.66159327 8.77950501
v 8.26299913 34.55036363 7.38892010
v 7.77759759 -34.66143726 8.77950501
v 8.33058634 -34.53630391 7.38892010
v 8.26299913 34.55036363 8.77950501
v 9.16621281 34.32095248 7.38892010
v 8.26299913 -34.55020762 8.77950501
v 8.75044784 -34.42508006 8.77950501
v 9.28705122 -34.28604301 7.38892010
v 9.23380003 -34.29994671 8.77950501
v 9.23380003 34.30009692 8.77950501
v 10.01617603 34.08459528 7.38892010
v 9.98340673 -34.09139113 7.38892010
v 9.61065128 -34.19566892 8.77950501
v 9.98340673 34.09154713 8.77950501
v 10.22713073 34.02202860 8.77950501
v 10.46880754 33.94555822 7.38892010
v 10.43603752 -33.95931172 7.38892010
v 10.22713073 -34.02187839 8.77950501
v 9.98340673 -34.09139113 8.77950501
v 11.17745118 33.72310473 7.38892010
v 11.17745118 33.72310473 8.77950501
v 11.17745118 -33.72294872 7.38892010
v 11.17745118 -33.72294872 8.77950501
v 10.82517762 -33.83417837 8.77950501
v 10.47085544 -33.94540801 8.77950501
v 12.14825281 33.38246394 7.38892010
v 12.14825281 33.38246394 8.77950501
v 12.14825281 -33.38231372 7.38892010
v 12.14825281 -33.38231372 8.77950501
v 12.83846389 33.12525118 7.38892010
v 12.83846389 33.12525118 8.77950501
v 12.84051179 -33.12509517 7.38892010
v 12.84051179 -33.12509517 8.77950501
v 12.87328109 33.11134747 7.38892010
v 13.32591333 32.93059930 8.77950501
v 13.37916307 -32.90959353 7.38892010
v 13.32591333 -32.93044908 8.77950501
v 13.32591333 32.93059930 8.29251324
v 13.32386398 32.93059930 7.38892010
v 14.09190323 32.61081986 8.77950501
v 14.09190323 -32.61066965 7.38892010
v 13.71095618 -32.77055647 8.77950501
v 14.09190323 32.61081986 7.38892010
v 14.93162622 32.23542560 8.77950501
v 14.96644487 32.22152190 7.38892010
v 14.93162622 -32.23526960 7.38892010
v 14.51381263 -32.42296962 8.77950501
v 14.09190323 -32.61066965 8.77950501
v 15.17535094 32.12419596 8.77950501
v 15.41907566 32.00601446 7.38892010
v 15.38425702 -32.02671980 7.38892010
v 15.17535094 -32.12404574 8.77950501
v 14.93162622 -32.23526960 8.77950501
v 15.41702776 32.00601446 8.77950501
v 16.03555438 31.70013873 7.38892010
v 16.03555438 31.70013873 8.77950501
v 15.72833897 -31.85292348 8.77950501
v 15.41702776 -32.00586425 8.77950501
v 16.03555438 -31.69998272 7.38892010
v 16.03555438 -31.69998272 8.77950501
v 16.84865178 31.27608150 8.29251324
v 16.84660388 31.27608150 7.38892010
v 16.84865178 31.27608150 8.77950501
v 16.84660388 -31.27592549 7.38892010
v 16.84660388 -31.27592549 8.77950501
v 17.09237650 31.14399630 8.77950501
v 17.33405332 31.01191109 7.38892010
v 17.33200542 -31.01176088 7.38892010
v 17.33405332 -31.01176088 8.29251324
v 17.33405332 -31.01176088 8.77950501
v 17.33405332 31.01191109 8.77950501
v 17.93414739 30.66432424 7.38892010
v 17.97920553 -30.63636662 7.38892010
v 17.65765337 -30.82406085 8.77950501
v 17.97920553 30.63651683 8.77950501
v 18.64688755 30.24026701 7.38892010
v 18.64688755 30.24026701 8.77950501
v 18.02631158 -30.60855921 7.38892010
v 17.97920553 -30.63636662 8.77950501
v 18.89061227 30.08732625 8.77950501
v 19.13228764 29.93439128 7.38892010
v 18.64483965 -30.24011680 7.38892010
v 18.64483965 -30.24011680 8.77950501
v 19.13228764 29.93439128 8.77950501
v 19.90442414 29.42691182 7.38892010
v 19.13228764 -29.93423528 7.38892010
v 19.13228764 -29.93423528 8.77950501
v 19.86960694 29.44776738 8.77950501
v 20.11333021 29.28092291 8.77950501
v 20.35500703 29.11407844 8.77950501
v 20.35705493 29.11407844 7.38892010
v 19.86960694 -29.44761137 7.38892010
v 19.86960694 -29.44761137 8.77950501
v 20.89570621 28.72478048 8.77950501
v 20.89570621 28.72478048 7.38892010
v 20.35500703 -29.12088008 7.38892010
v 20.35500703 -29.11392823 8.77950501
v 21.50604123 28.27986769 8.77950501
v 21.50604123 28.27986769 7.38892010
v 20.39392147 -29.09307267 7.38892010
v 20.89570621 -28.72463027 8.77950501
v 21.99144277 27.89752158 8.77950501
v 21.99349067 27.89752158 8.77855203
v 21.99349067 27.89752158 7.38892010
v 20.93871645 -28.69682285 7.38892010
v 21.50604123 -28.27971748 8.77950501
v 21.99349067 27.59859770 8.77950501
v 21.99349067 -27.85566025 7.38892010
v 21.50604123 -28.27971748 7.38892010
v 21.99349067 -27.89736557 8.77950501
v 21.99349067 -27.89736557 7.39041764
v 21.99144277 -27.89736557 7.38892010
v 21.95662557 -27.92517298 7.38892010
f 1 2 7
f 1 7 3
f 1 3 8
f 1 8 4
f 1 4 9
f 1 9 13
f 1 13 17
f 1 17 23
f 1 23 28
f 1 28 34
f 1 34 39
f 1 39 43
f 1 43 48
f 1 48 52
f 1 52 58
f 1 58 63
f 1 63 67
f 1 67 73
f 1 73 77
f 1 77 81
f 1 81 86
f 1 86 90
f 1 90 92
f 1 92 97
f 1 97 102
f 1 102 109
f 1 109 114
f 1 114 119
f 1 119 123
f 1 123 128
f 1 128 132
f 1 132 138
f 1 138 142
f 1 142 146
f 1 146 151
f 1 151 155
f 1 155 159
f 1 159 160
f 1 160 156
f 1 156 152
f 1 152 147
f 1 147 143
f 1 143 139
f 1 139 133
f 1 133 129
f 1 129 125
f 1 125 120
f 1 120 115
f 1 115 111
f 1 111 106
f 1 106 98
f 1 98 93
f 1 93 88
f 1 88 83
f 1 83 79
f 1 79 75
f 1 75 69
f 1 69 64
f 1 64 59
f 1 59 55
f 1 55 50
f 1 50 45
f 1 45 41
f 1 41 36
f 1 36 29
f 1 29 25
f 1 25 19
f 1 19 14
f 1 14 10
f 1 10 5
f 1 5 2
f 2 5 6
f 2 6 7
f 3 7 6
f 3 6 11
f 3 11 15
f 3 15 22
f 3 22 21
f 3 21 20
f 3 20 26
f 3 26 31
f 3 31 35
f 3 35 40
f 3 40 44
f 3 44 49
f 3 49 53
f 3 53 54
f 3 54 56
f 3 56 60
f 3 60 66
f 3 66 65
f 3 65 72
f 3 72 71
f 3 71 70
f 3 70 76
f 3 76 80
f 3 80 84
f 3 84 89
f 3 89 95
f 3 95 94
f 3 94 100
f 3 100 99
f 3 99 105
f 3 105 104
f 3 104 107
f 3 107 112
f 3 112 117
f 3 117 121
f 3 121 126
f 3 126 130
f 3 130 134
f 3 134 140
f 3 140 144
f 3 144 148
f 3 148 153
f 3 153 157
f 3 157 154
f 3 154 149
f 3 149 145
f 3 145 141
f 3 141 137
f 3 137 136
f 3 136 135
f 3 135 131
f 3 131 127
f 3 127 124
f 3 124 122
f 3 122 118
f 3 118 113
f 3 113 110
f 3 110 103
f 3 103 101
f 3 101 96
f 3 96 91
f 3 91 87
f 3 87 82
f 3 82 78
f 3 78 74
f 3 74 68
f 3 68 62
f 3 62 61
f 3 61 57
f 3 57 51
f 3 51 47
f 3 47 46
f 3 46 42
f 3 42 38
f 3 38 37
f 3 37 32
f 3 32 27
f 3 27 24
f 3 24 18
f 3 18 16
f 3 16 12
f 3 12 8
f 4 8 12
f 4 12 9
f 5 10 15
f 5 15 11
f 5 11 6
f 9 12 13
f 10 14 15
f 12 16 13
f 13 16 18
f 13 18 17
f 14 19 20
f 14 20 21
f 14 21 22
f 14 22 15
f 17 18 24
f 17 24 23
f 19 25 26
f 19 26 20
f 23 24 27
f 23 27 28
f 25 29 30
f 25 30 31
f 25 31 26
f 27 32 28
f 28 32 37
f 28 37 33
f 28 33 34
f 29 35 30
f 29 36 35
f 30 35 31
f 33 37 38
f 33 38 34
f 34 38 39
f 35 36 40
f 36 41 40
f 38 42 39
f 39 42 43
f 40 41 45
f 40 45 44
f 42 46 43
f 43 47 48
f 43 46 47
f 44 45 49
f 45 50 49
f 47 51 48
f 48 51 52
f 49 50 53
f 50 54 53
f 50 55 56
f 50 56 54
f 51 57 52
f 52 57 58
f 55 59 60
f 55 60 56
f 57 61 58
f 58 61 62
f 58 62 63
f 59 64 65
f 59 65 66
f 59 66 60
f 62 67 63
f 62 68 67
f 64 69 70
f 64 70 71
f 64 71 72
f 64 72 65
f 67 68 74
f 67 74 73
f 69 75 76
f 69 76 70
f 73 74 78
f 73 78 77
f 75 79 80
f 75 80 76
f 77 78 82
f 77 82 85
f 77 85 81
f 79 83 80
f 80 83 84
f 81 85 86
f 82 87 90
f 82 90 85
f 83 88 89
f 83 89 84
f 85 90 86
f 87 91 92
f 87 92 90
f 88 93 94
f 88 94 95
f 88 95 89
f 91 96 92
f 92 96 97
f 93 98 99
f 93 99 100
f 93 100 94
f 96 101 97
f 97 101 103
f 97 103 102
f 98 104 105
f 98 105 99
f 98 106 107
f 98 107 104
f 102 108 109
f 102 103 110
f 102 110 108
f 106 111 112
f 106 112 107
f 108 113 114
f 108 114 109
f 108 110 113
f 111 115 116
f 111 116 117
f 111 117 112
f 113 118 114
f 114 118 119
f 115 120 116
f 116 120 121
f 116 121 117
f 118 122 119
f 119 122 124
f 119 124 123
f 120 125 126
f 120 126 121
f 123 124 127
f 123 127 128
f 125 129 130
f 125 130 126
f 127 131 128
f 128 131 132
f 129 133 134
f 129 134 130
f 131 135 132
f 132 136 137
f 132 137 138
f 132 135 136
f 133 139 140
f 133 140 134
f 137 141 138
f 138 141 142
f 139 143 140
f 140 143 144
f 141 145 146
f 141 146 142
f 143 147 144
f 144 147 148
f 145 149 150
f 145 150 151
f 145 151 146
f 147 152 148
f 148 152 153
f 149 154 150
f 150 154 157
f 150 157 158
f 150 158 155
f 150 155 151
f 152 156 153
f 153 156 158
f 153 158 157
f 155 158 159
f 156 160 158
f 158 160 159

