# https://github.com/mikedh/trimesh
v -6.83540053 -26.03601277 11.32163827
v -4.47058948 -26.03601277 11.32163827
v -6.83540053 -26.03601277 12.18464997
v -6.83540053 26.29736148 11.32163827
v -4.54289961 -26.03601277 11.53065152
v 0.00393837 -20.32933817 11.32163827
v 0.00393837 -20.08857234 12.18025872
v -5.34299849 -26.03601277 12.18464997
v -6.83540053 26.29736148 12.18464997
v -4.41367879 26.29736148 11.32163827
v -4.82410604 -26.03601277 12.18025872
v 0.00393837 20.32943045 11.32163827
v 0.00393837 -19.62752980 12.18464997
v -4.90512011 -25.55447820 12.18464997
v -5.07652238 26.29736148 12.18464997
v -4.74108317 26.29736148 12.18025872
v 0.00393837 20.08866317 12.18025872
v 0.00393837 19.63274473 12.18464997
v -4.82410604 26.04122625 12.18464997
f 1 2 5
f 1 5 11
f 1 11 8
f 1 8 3
f 1 3 9
f 1 9 4
f 1 4 10
f 1 10 12
f 1 12 6
f 1 6 2
f 2 6 7
f 2 7 5
f 3 8 14
f 3 14 13
f 3 13 18
f 3 18 19
f 3 19 15
f 3 15 9
f 4 9 15
f 4 15 16
f 4 16 10
f 5 7 11
f 6 12 17
f 6 17 18
f 6 18 13
f 6 13 7
f 7 13 11
f 8 11 14
f 10 16 17
f 10 17 12
f 11 13 14
f 15 19 16
f 16 19 17
f 17 19 18

