# https://github.com/mikedh/trimesh
v -20.68657551 -28.87618066 11.32163827
v -20.35710838 -29.11504632 11.32163827
v -20.68657551 -28.87618066 12.18025872
v -20.68657551 28.87523016 11.32163827
v -20.35710838 -29.11504632 12.18464997
v -19.87036426 -29.44946520 11.32163827
v -20.68657551 -28.66461260 12.18464997
v -20.68657551 28.87523016 12.18025872
v -20.41812102 29.07314941 11.32163827
v -19.87036426 -29.44946520 12.18025872
v -19.86765304 -29.44946520 12.18464997
v -19.13279296 -29.93402093 11.32163827
v -20.68657551 28.65683770 12.18464997
v -20.35846399 29.11410162 12.18464997
v -20.29880695 29.15504803 11.32163827
v -19.13279296 -29.93402093 12.18464997
v -18.64740445 -30.24113641 11.32163827
v -19.87036426 29.44851470 12.18464997
v -19.87036426 29.44851470 11.32163827
v -18.64604884 -30.24113641 12.18025872
v -18.64333762 -30.24113641 12.18464997
v -17.98033507 -30.63697491 11.32163827
v -17.98033507 -30.63697491 12.18464997
v -19.13550418 29.93307622 12.18464997
v -19.21820950 29.87847521 11.32163827
v -17.33495981 -31.01234020 11.32163827
v -17.33495981 -31.01234020 12.18464997
v -18.64604884 30.24019170 12.18464997
v -18.64604884 30.24019170 11.32163827
v -16.84957276 -31.27850926 11.32163827
v -16.84957276 -31.27850926 12.18025872
v -16.84550448 -31.27850926 12.18464997
v -17.98304774 30.63603020 12.18464997
v -17.98033507 30.63603020 11.32163827
v -16.03607274 -31.70164537 11.32163827
v -16.03607274 -31.70164537 12.18464997
v -17.33767104 31.01139550 12.18464997
v -17.33495981 31.01139550 11.32163827
v -15.41781405 -32.00876085 11.32163827
v -15.41781405 -32.00876085 12.18464997
v -16.84821570 31.27755877 12.18464997
v -16.84821570 31.27755877 11.32163827
v -14.83480560 -32.28175432 11.32163827
v -14.93378261 -32.23397771 12.18464997
v -16.04014102 31.69387047 12.18464997
v -16.03607274 31.70069488 12.18025872
v -16.03607274 31.70069488 11.32163827
v -14.00368118 -32.65028942 11.32163827
v -14.09181040 -32.60934300 12.18464997
v -15.42052527 32.00781035 12.18464997
v -15.48967304 31.97368834 11.32163827
v -13.32847669 -32.93010729 11.32163827
v -13.32847669 -32.93010729 12.18464997
v -14.93242555 32.23303301 12.18464997
v -14.93242555 32.23303301 11.32163827
v -15.36086824 32.03511376 11.32163827
v -12.83902280 -33.12802654 12.18464997
v -12.76173992 -33.15532414 11.32163827
v -14.09587868 32.60839251 12.18464997
v -14.19078596 32.56744609 11.32163827
v -12.15025929 -33.38054680 11.32163827
v -12.15025929 -33.38054680 12.18464997
v -13.33254497 32.92916258 12.18464997
v -13.41796296 32.89503478 11.32163827
v -12.03636984 -33.42149321 11.32163827
v -11.17812812 -33.72178428 12.18464997
v -13.27153232 32.95646019 11.32163827
v -12.84308963 33.12025743 12.18464997
v -11.17812812 -33.72178428 11.32163827
v -11.09542280 -33.74908189 11.32163827
v -10.46902900 -33.94700114 12.18464997
v -12.84308963 33.12025743 11.32163827
v -12.15297196 33.37959630 12.18464997
v -12.23025339 33.35229869 11.32163827
v -10.46902900 -33.94700114 11.32163827
v -10.03922997 -34.07667637 11.32163827
v -9.98499683 -34.09032518 12.18464997
v -11.18219641 33.72083379 12.18464997
v -11.17812812 33.72083379 11.32163827
v -9.89551128 -34.11762278 11.32163827
v -9.23386579 -34.30189323 12.18464997
v -10.47174022 33.94605644 12.18464997
v -10.41208318 33.96652965 11.32163827
v -9.23386579 -34.30189323 11.32163827
v -8.26173462 -34.54758329 12.18464997
v -9.98228488 34.08937468 12.18464997
v -9.32199501 34.28046953 11.32163827
v -8.26173462 -34.54758329 11.32163827
v -8.14920078 -34.57488090 11.32163827
v -7.28960345 -34.76597575 12.18464997
v -9.23793335 34.30094273 12.18464997
v -8.26715851 34.54663859 12.18464997
v -8.37562480 34.51933519 11.32163827
v -7.28960345 -34.76597575 11.32163827
v -7.19605107 -34.78645475 11.32163827
v -6.83675542 -34.86152318 12.18025872
v -6.83675542 -34.05619737 12.18464997
v -7.29502662 34.76503105 12.18464997
v -7.40349363 34.74455784 11.32163827
v -8.26173462 34.54663859 11.32163827
v -6.83675542 -34.85469877 11.32163827
v -6.83675542 34.04842827 12.18464997
v -6.83675542 34.86057847 12.18025872
v -6.83675542 34.85375407 11.32163827
f 1 2 5
f 1 5 3
f 1 3 7
f 1 7 13
f 1 13 8
f 1 8 4
f 1 4 9
f 1 9 15
f 1 15 19
f 1 19 25
f 1 25 29
f 1 29 34
f 1 34 38
f 1 38 42
f 1 42 47
f 1 47 51
f 1 51 56
f 1 56 55
f 1 55 60
f 1 60 64
f 1 64 67
f 1 67 72
f 1 72 74
f 1 74 79
f 1 79 83
f 1 83 87
f 1 87 93
f 1 93 100
f 1 100 99
f 1 99 104
f 1 104 101
f 1 101 95
f 1 95 94
f 1 94 89
f 1 89 88
f 1 88 84
f 1 84 80
f 1 80 76
f 1 76 75
f 1 75 70
f 1 70 69
f 1 69 65
f 1 65 61
f 1 61 58
f 1 58 52
f 1 52 48
f 1 48 43
f 1 43 39
f 1 39 35
f 1 35 30
f 1 30 26
f 1 26 22
f 1 22 17
f 1 17 12
f 1 12 6
f 1 6 2
f 2 6 10
f 2 10 5
f 3 5 7
f 4 8 9
f 5 10 11
f 5 11 16
f 5 16 21
f 5 21 23
f 5 23 27
f 5 27 32
f 5 32 36
f 5 36 40
f 5 40 44
f 5 44 49
f 5 49 53
f 5 53 57
f 5 57 62
f 5 62 66
f 5 66 71
f 5 71 77
f 5 77 81
f 5 81 85
f 5 85 90
f 5 90 97
f 5 97 102
f 5 102 98
f 5 98 92
f 5 92 91
f 5 91 86
f 5 86 82
f 5 82 78
f 5 78 73
f 5 73 68
f 5 68 63
f 5 63 59
f 5 59 54
f 5 54 50
f 5 50 45
f 5 45 41
f 5 41 37
f 5 37 33
f 5 33 28
f 5 28 24
f 5 24 18
f 5 18 14
f 5 14 13
f 5 13 7
f 6 12 16
f 6 16 10
f 8 14 9
f 8 13 14
f 9 14 15
f 10 16 11
f 12 17 16
f 14 18 15
f 15 18 19
f 16 17 20
f 16 20 21
f 17 22 23
f 17 23 20
f 18 24 19
f 19 24 25
f 20 23 21
f 22 26 27
f 22 27 23
f 24 28 29
f 24 29 25
f 26 30 31
f 26 31 27
f 27 31 32
f 28 33 29
f 29 33 34
f 30 35 36
f 30 36 31
f 31 36 32
f 33 37 38
f 33 38 34
f 35 39 40
f 35 40 36
f 37 41 42
f 37 42 38
f 39 43 40
f 40 43 44
f 41 45 46
f 41 46 47
f 41 47 42
f 43 48 49
f 43 49 44
f 45 50 46
f 46 50 51
f 46 51 47
f 48 52 53
f 48 53 49
f 50 54 55
f 50 55 56
f 50 56 51
f 52 57 53
f 52 58 57
f 54 59 60
f 54 60 55
f 57 58 61
f 57 61 62
f 59 63 64
f 59 64 60
f 61 65 62
f 62 65 66
f 63 67 64
f 63 68 67
f 65 69 66
f 66 69 70
f 66 70 71
f 67 68 72
f 68 73 74
f 68 74 72
f 70 75 71
f 71 75 76
f 71 76 77
f 73 78 74
f 74 78 79
f 76 80 77
f 77 80 81
f 78 82 83
f 78 83 79
f 80 84 81
f 81 84 88
f 81 88 85
f 82 86 83
f 83 86 87
f 85 88 89
f 85 89 90
f 86 91 87
f 87 91 92
f 87 92 93
f 89 94 90
f 90 94 95
f 90 95 96
f 90 96 97
f 92 98 99
f 92 99 100
f 92 100 93
f 95 101 96
f 96 101 104
f 96 104 103
f 96 103 102
f 96 102 97
f 98 102 103
f 98 103 99
f 99 103 104

