# https://github.com/mikedh/trimesh
v -24.98231075 4.92614643 13.00409962
v -20.16452033 0.84997677 13.00409962
v -24.98231075 4.92614643 13.82658492
v -24.98231075 25.25679366 13.00409962
v -5.88314225 0.84997677 13.00409962
v -20.16452033 0.84997677 13.82658492
v -24.98231075 25.25679366 13.82658492
v -24.63645028 25.59480144 13.00409962
v -5.88314225 0.84997677 13.82658492
v -5.88314225 35.03558268 13.00409962
v -24.63645028 25.59480144 13.82658492
v -24.12419577 26.08005814 13.00409962
v -5.88314225 35.03223710 13.82658492
v -6.47952360 34.92849228 13.00409962
v -6.47765384 34.92849228 13.82658492
v -5.99157522 35.01550341 13.82658492
v -24.12232601 26.08005814 13.82658492
v -23.78580998 26.38460144 13.82658492
v -23.71102832 26.45153330 13.00409962
v -7.16751226 34.79462856 13.00409962
v -7.04225363 34.81805341 13.82658492
v -23.46798865 26.66906256 13.82658492
v -23.63624666 26.51846516 13.00409962
v -7.29090186 34.76785234 13.00409962
v -7.29090186 34.76785234 13.82658492
v -23.08286470 27.00372186 13.82658492
v -23.08286470 27.00372186 13.00409962
v -8.26305982 34.55032307 13.00409962
v -8.26305982 34.55032307 13.82658492
v -22.74447892 27.28818589 13.82658492
v -22.59678535 27.41200997 13.00409962
v -9.08565591 34.34283344 13.00409962
v -8.93609259 34.37964929 13.82658492
v -22.59678535 27.41200997 13.82658492
v -22.41170096 27.56260448 13.82658492
v -21.99105593 27.89726668 13.00409962
v -9.23521850 34.30267490 13.00409962
v -9.23521850 34.30267490 13.82658492
v -21.99105593 27.89726668 13.82658492
v -21.50497659 28.27878146 13.00409962
v -9.98303221 34.09518527 13.00409962
v -9.98303221 34.09518527 13.82658492
v -21.50497659 28.27878146 13.82658492
v -20.89550910 28.72722521 13.00409962
v -10.46911155 33.94793344 13.00409962
v -10.46911155 33.94793344 13.82658492
v -20.89550910 28.72722521 13.82658492
v -20.81324986 28.78746592 13.00409962
v -11.06923242 33.75718039 13.00409962
v -10.96079872 33.79064487 13.82658492
v -20.73098916 28.84770372 13.82658492
v -20.35521255 29.11877963 13.00409962
v -11.17953442 33.72036454 13.00409962
v -11.17766539 33.72036454 13.82658492
v -20.35521255 29.11877963 13.82658492
v -20.01869653 29.34634854 13.82658492
v -19.94391487 29.39654671 13.00409962
v -12.00212979 33.43590631 13.00409962
v -11.85256792 33.48610448 13.82658492
v -19.86913321 29.44674777 13.82658492
v -19.86913321 29.44674777 13.00409962
v -12.14982335 33.38235966 13.82658492
v -12.14982335 33.38235966 13.00409962
v -19.64291992 29.59734518 13.82658492
v -19.13253806 29.93200448 13.00409962
v -12.63216318 33.20498893 13.82658492
v -12.73685808 33.16483039 13.00409962
v -19.13066685 29.93200448 13.82658492
v -18.79415083 30.14618817 13.82658492
v -18.72124037 30.19304076 13.00409962
v -12.84342129 33.12466896 13.00409962
v -12.84342129 33.12466896 13.82658492
v -18.64458895 30.23989335 13.82658492
v -18.64645871 30.23989335 13.15223781
v -18.64645871 30.23989335 13.00409962
v -12.99298317 33.06777673 13.82658492
v -13.32950064 32.93391301 13.00409962
v -17.97903450 30.63813893 13.82658492
v -17.98090281 30.63813893 13.00409962
v -13.32950064 32.93391301 13.82658492
v -14.09414072 32.61263893 13.00409962
v -17.33404449 31.01295966 13.82658492
v -17.33591425 31.01295966 13.00409962
v -14.09414072 32.61263893 13.82658492
v -14.80643335 32.29471042 13.00409962
v -16.99752847 31.19702155 13.82658492
v -16.84983490 31.27734152 13.82658492
v -16.92274681 31.23718299 13.00409962
v -14.93356102 32.23781820 13.82658492
v -14.93356102 32.23781820 13.00409962
v -16.84796515 31.27734152 13.00409962
v -16.59931765 31.40785966 13.82658492
v -15.41964036 32.01024930 13.82658492
v -15.41964036 32.01024930 13.00409962
v -15.94124077 31.74921302 13.00409962
v -16.03658688 31.69901484 13.82658492
v -15.84589466 31.79606561 13.82658492
f 1 2 6
f 1 6 3
f 1 3 7
f 1 7 4
f 1 4 8
f 1 8 12
f 1 12 19
f 1 19 23
f 1 23 27
f 1 27 31
f 1 31 36
f 1 36 40
f 1 40 44
f 1 44 48
f 1 48 52
f 1 52 57
f 1 57 61
f 1 61 65
f 1 65 70
f 1 70 75
f 1 75 79
f 1 79 83
f 1 83 88
f 1 88 91
f 1 91 95
f 1 95 94
f 1 94 90
f 1 90 85
f 1 85 81
f 1 81 77
f 1 77 71
f 1 71 67
f 1 67 63
f 1 63 58
f 1 58 53
f 1 53 49
f 1 49 45
f 1 45 41
f 1 41 37
f 1 37 32
f 1 32 28
f 1 28 24
f 1 24 20
f 1 20 14
f 1 14 10
f 1 10 5
f 1 5 2
f 2 5 9
f 2 9 6
f 3 6 9
f 3 9 13
f 3 13 16
f 3 16 15
f 3 15 21
f 3 21 25
f 3 25 29
f 3 29 33
f 3 33 38
f 3 38 42
f 3 42 46
f 3 46 50
f 3 50 54
f 3 54 59
f 3 59 62
f 3 62 66
f 3 66 72
f 3 72 76
f 3 76 80
f 3 80 84
f 3 84 89
f 3 89 93
f 3 93 97
f 3 97 96
f 3 96 92
f 3 92 87
f 3 87 86
f 3 86 82
f 3 82 78
f 3 78 73
f 3 73 69
f 3 69 68
f 3 68 64
f 3 64 60
f 3 60 56
f 3 56 55
f 3 55 51
f 3 51 47
f 3 47 43
f 3 43 39
f 3 39 35
f 3 35 34
f 3 34 30
f 3 30 26
f 3 26 22
f 3 22 18
f 3 18 17
f 3 17 11
f 3 11 7
f 4 7 11
f 4 11 8
f 5 10 13
f 5 13 9
f 8 11 12
f 10 14 15
f 10 15 16
f 10 16 13
f 11 17 12
f 12 17 18
f 12 18 19
f 14 20 15
f 15 20 21
f 18 22 23
f 18 23 19
f 20 24 25
f 20 25 21
f 22 26 27
f 22 27 23
f 24 28 29
f 24 29 25
f 26 30 27
f 27 30 31
f 28 32 29
f 29 32 33
f 30 34 31
f 31 34 35
f 31 35 36
f 32 37 38
f 32 38 33
f 35 39 36
f 36 39 43
f 36 43 40
f 37 41 42
f 37 42 38
f 40 43 47
f 40 47 44
f 41 45 46
f 41 46 42
f 44 47 51
f 44 51 48
f 45 49 46
f 46 49 50
f 48 51 52
f 49 53 54
f 49 54 50
f 51 55 52
f 52 55 56
f 52 56 57
f 53 58 54
f 54 58 59
f 56 60 61
f 56 61 57
f 58 62 59
f 58 63 62
f 60 64 61
f 61 64 65
f 62 63 66
f 63 67 66
f 64 68 65
f 65 68 69
f 65 69 70
f 66 67 71
f 66 71 72
f 69 73 74
f 69 74 70
f 70 74 75
f 71 76 72
f 71 77 76
f 73 78 74
f 74 78 79
f 74 79 75
f 76 77 80
f 77 81 84
f 77 84 80
f 78 82 83
f 78 83 79
f 81 85 84
f 82 86 83
f 83 86 87
f 83 87 88
f 84 85 89
f 85 90 89
f 87 91 88
f 87 92 91
f 89 90 94
f 89 94 93
f 91 92 95
f 92 96 95
f 93 94 95
f 93 95 97
f 95 96 97

