# https://github.com/mikedh/trimesh
v 25.15766703 -25.05680375 18.37700129
v 25.10349472 -25.05680375 18.98386038
v 25.07887068 -25.08236919 18.98386038
v 25.10595683 -25.10997963 18.37700129
v 4.93414785 -25.05680375 18.37700129
v 25.09364626 -25.05680375 19.00963727
v 24.81539546 -25.23269142 19.27003051
v 24.59378197 -25.55583671 18.98386038
v 24.62086813 -25.58037675 18.37700129
v 0.00200235 -29.93463501 18.37700129
v 4.94153492 -25.05680375 18.64831762
v 24.92374008 -25.05680375 19.27003051
v 24.53714755 -25.50266083 19.27003051
v 23.70486304 -25.75933482 19.92385806
v 23.47339965 -26.37494456 19.62457790
v 23.80828343 -26.19087398 19.27003051
v 24.07668289 -26.04157426 18.98386038
v 24.10623116 -26.06816220 18.37700129
v 24.30075848 -25.88409162 18.37700129
v 0.00200235 -35.50374693 18.37700129
v 0.00200235 -29.97247047 18.98386038
v 4.95384694 -25.05680375 18.98364024
v 19.92264958 -25.75933482 20.56545035
v 20.89528910 -25.75933482 20.56173400
v 22.03044556 -25.75933482 20.51389367
v 22.19788673 -25.75933482 20.50209869
v 22.67312697 -25.75933482 20.46408654
v 23.01293354 -25.75933482 20.36032435
v 23.52757196 -25.75933482 20.04094754
v 5.00309430 -25.05680375 19.27003051
v 7.29310704 -25.75933482 20.60870246
v 23.53988398 -26.43323006 19.27003051
v 22.83810603 -26.00782880 20.31357314
v 22.79870785 -26.71035698 19.81943833
v 22.45151204 -27.29528877 19.57520816
v 23.59159418 -26.48027093 18.98386038
v 23.62114245 -26.50583637 18.37700129
v 0.48709105 -35.50272442 18.37700129
v 0.48709105 -35.46386646 18.98386038
v 0.00200235 -35.46386646 18.98386038
v 0.00200235 -30.02666885 19.26806661
v 4.97108319 -25.05680375 19.09483223
v 18.95247217 -26.72876491 20.56545035
v 17.97983265 -27.70126250 20.56413819
v 19.92264958 -26.72876491 20.55802056
v 21.95657343 -25.84830116 20.51170963
v 18.95247217 -27.70126250 20.54753485
v 20.91991314 -26.76251036 20.50712141
v 21.69309966 -26.46186590 20.47806846
v 22.34316742 -26.23280235 20.44027645
v 5.52265623 -25.75933482 20.14951810
v 6.14810067 -25.75933482 20.55692854
v 6.26137025 -25.75933482 20.60455163
v 1.47943039 -32.55864082 20.56545035
v 4.37764986 -32.55864082 20.56545035
v 5.34782727 -32.55864082 20.56501296
v 6.32046751 -32.55864082 20.56348355
v 9.23592396 -31.58716574 20.56545035
v 12.15138041 -30.61466815 20.56501296
v 14.09173523 -29.64523807 20.56545035
v 16.03455216 -28.67376008 20.56545035
v 21.95657343 -26.76251036 20.29653530
v 21.77928381 -27.65319912 19.72528418
v 22.54754465 -27.37709760 18.98386038
v 22.75192333 -27.12655862 19.27003051
v 20.89528910 -28.38231814 19.67984513
v 21.39515194 -28.20029546 19.48804641
v 23.03509547 -26.96600847 18.98386038
v 23.27394665 -26.81057373 18.37700129
v 1.45973130 -35.47511398 18.37700129
v 1.45973130 -35.43421102 18.98386038
v 0.84659888 -35.35955970 19.27003051
v 0.48709105 -35.36569471 19.27003051
v 0.00200235 -35.41580309 19.12760153
v 0.00200235 -30.06654931 19.27003051
v 1.47943039 -31.58716574 20.53486509
v 1.47943039 -31.57285071 20.53355583
v 1.47943039 -31.01552936 20.47282560
v 1.47943039 -31.00530435 20.46954954
v 15.06437475 -29.64523807 20.56086213
v 17.00719168 -28.67376008 20.55845794
v 16.03455216 -29.64523807 20.53639450
v 18.04139131 -28.74227639 20.50930834
v 18.95247217 -28.43753902 20.48549535
v 19.88078784 -27.68285746 20.49663570
v 20.61457763 -27.34744215 20.47282560
v 19.53112992 -28.24426593 20.46059324
v 21.26464538 -27.11019569 20.41995966
v 1.47943039 -32.53819079 20.56523021
v 0.00200235 -35.36569471 19.27003051
v 1.47943039 -33.51068838 20.54840962
v 1.47943039 -33.53114131 20.54797223
v 7.29310704 -32.55864082 20.55824070
v 10.20856349 -31.58716574 20.56282892
v 2.43237082 -33.53114131 20.54360415
v 13.11909571 -30.61466815 20.55954996
v 20.91991314 -27.68285746 20.20784414
v 22.57709292 -27.40164054 18.37700129
v 22.88242843 -27.14701155 18.37700129
v 21.63153956 -28.05406323 19.27025065
v 21.93933718 -27.86283514 18.98386038
v 21.97134902 -27.88737808 18.37700129
v 19.91526179 -28.66353507 20.01670005
v 19.65178801 -29.30368774 19.65406824
v 20.29939365 -29.08280421 18.98386038
v 21.18092480 -28.39561355 19.27025065
v 21.45424848 -28.24324342 18.98386038
v 21.42223809 -28.21767799 19.27003051
v 18.51170587 -30.16063105 19.51535270
v 2.42990870 -35.42091560 18.37700129
v 2.42990870 -35.38205764 18.98386038
v 1.83401254 -35.32683675 19.27003051
v 1.45973130 -35.34012928 19.27003051
v 1.47943039 -35.17958203 19.75521190
v 14.09173523 -30.61466815 20.53661464
v 15.00281609 -30.60751064 20.49357978
v 16.03455216 -30.25879991 20.47457225
v 16.93824523 -29.62171763 20.49095835
v 17.76067983 -29.28221231 20.47370038
v 20.17873556 -27.99577484 20.37954622
v 18.40828548 -29.11143715 20.43372143
v 1.47943039 -35.16833161 19.76526023
v 1.47943039 -34.62839569 20.24126807
v 1.47943039 -34.61817067 20.24672817
v 1.47943039 -34.14265814 20.48593274
v 1.47943039 -34.13038812 20.48724201
v 8.26574656 -32.55864082 20.54578819
v 11.18120301 -31.58716574 20.55124829
v 3.40501034 -33.53114131 20.53683189
v 4.37764986 -33.53114131 20.52459952
v 2.43237082 -34.12220521 20.48178190
v 21.78913227 -28.03054280 18.37700129
v 18.95247217 -28.92327656 20.33083111
v 18.88352427 -29.63501015 19.79715475
v 17.97983265 -30.31606579 19.69208039
v 19.81430495 -29.41208161 18.98386038
v 20.33386615 -29.10734714 18.37700129
v 20.89528910 -28.65331005 18.98386038
v 21.10459056 -28.54695829 18.37700129
v 21.48626031 -28.26574136 18.37700129
v 16.65507164 -31.17300910 19.57608293
v 16.97271918 -31.07279525 19.27003051
v 17.27066690 -30.97769390 18.98386038
v 18.26546835 -30.34981125 19.27025065
v 18.54864194 -30.18312899 19.27003051
v 18.77025542 -30.04098677 19.27003051
v 2.79680287 -35.39126015 18.37700129
v 3.40254823 -35.30229382 18.98386038
v 3.86055077 -35.18878454 19.27003051
v 4.37764986 -35.06095735 19.59181150
v 2.83620105 -35.27161587 19.27003051
v 2.43237082 -35.29411380 19.27025065
v 2.43237082 -35.15401659 19.72440940
v 13.11909571 -31.43070850 20.49751047
v 14.09173523 -31.21493747 20.47457225
v 16.56642683 -30.15244814 20.45032477
v 14.64084615 -31.12494863 20.45185418
v 17.21403247 -29.93054500 20.36862312
v 2.43237082 -34.60794276 20.21024543
v 4.37764986 -34.06391682 20.46255713
v 3.40501034 -34.09766228 20.47479240
v 7.29310704 -33.27241941 20.49641845
v 8.26574656 -33.17425056 20.48374870
v 9.23592396 -32.55864082 20.52154071
v 11.18120301 -32.25492886 20.48942894
v 12.23756456 -31.67613207 20.50624953
v 6.32046751 -33.39615660 20.50166131
v 18.04139131 -29.62171763 20.22575675
v 16.93578312 -30.57273979 19.97213578
v 16.03455216 -31.33151425 19.75084382
v 19.84877745 -29.43560205 18.37700129
v 19.07312737 -29.89986706 18.98386038
v 19.38831279 -29.74033941 18.37700129
v 20.89528910 -28.69932552 18.37700129
v 16.78557820 -31.24357041 18.98386038
v 14.71718039 -32.13937168 19.57171195
v 16.33496344 -31.41025557 19.27003051
v 17.31006508 -30.99916644 18.37700129
v 17.57600241 -30.84679920 18.37700129
v 17.97983265 -30.56864978 18.98386038
v 18.59050223 -30.20869153 18.98386038
v 3.40254823 -35.33910677 18.37700129
v 3.76698028 -35.30024881 18.37700129
v 4.37518775 -35.19491955 18.98386038
v 4.73469485 -35.09981821 19.27003051
v 5.04987955 -35.01596438 19.51906615
v 7.29310704 -34.32877373 19.86203581
v 6.32046751 -34.42592008 19.92254590
v 4.37764986 -34.54965437 20.07786477
v 3.40501034 -35.11515573 19.67241823
v 3.40501034 -34.58340272 20.15825426
v 11.96916439 -32.14550959 20.46736550
v 12.61677075 -32.06063326 20.43962181
v 15.28845179 -30.92656303 20.38610124
v 13.11909571 -31.91644604 20.38566385
v 16.03455216 -30.74249245 20.23667985
v 5.04249248 -34.03426138 20.45032477
v 9.23592396 -33.08937423 20.45950122
v 9.73578680 -33.04744587 20.44289787
v 15.00281609 -31.55444279 19.97890804
v 14.09173523 -32.27640139 19.73467787
v 19.11006488 -29.92133959 18.37700129
v 16.82497637 -31.26504584 18.37700129
v 16.03209004 -31.63113910 18.98386038
v 16.31526363 -31.52887735 18.37700129
v 14.39707074 -32.34798520 19.27025065
v 14.79105107 -32.17312003 19.27003051
v 15.34508622 -31.97473443 18.98386038
v 12.66601739 -33.05767378 19.49044769
v 17.97983265 -30.61262315 18.37700129
v 18.62251261 -30.22914446 18.37700129
v 18.92784813 -30.03791637 18.37700129
v 4.37518775 -35.23173251 18.37700129
v 5.94126060 -35.00778437 18.65814870
v 5.36260140 -35.05788984 18.98276836
v 5.66054985 -34.97710352 19.27025065
v 5.69748519 -34.96687850 19.30607587
v 9.23592396 -34.09868478 19.59770899
v 8.26574656 -34.21935446 19.75783333
v 8.26574656 -33.65998811 20.24388950
v 7.29310704 -33.75917946 20.34787184
v 6.32046751 -33.88189414 20.40860207
v 5.69009812 -33.97086048 20.43372143
v 10.38093033 -32.89098863 20.39658695
v 11.18120301 -32.74066640 20.30199540
v 11.18120301 -33.31741528 19.81615938
v 13.04029935 -32.58522876 19.82620770
v 14.09173523 -31.70067501 20.22051390
v 12.15138041 -33.14970763 19.62261110
v 15.64549606 -31.86838267 18.37700129
v 16.03209004 -31.67408707 18.37700129
v 14.08927311 -32.54637080 18.98386038
v 14.85753540 -32.20482048 18.98386038
v 15.38694651 -31.99620696 18.37700129
v 14.90185781 -32.22629591 18.37700129
v 9.76287296 -34.03017137 19.49175985
v 11.17874089 -33.65692060 18.98386038
v 12.44440391 -33.17220556 19.27003051
v 12.70787768 -33.07403381 19.27025065
v 13.24467658 -32.90019115 18.98386038
v 5.68271105 -35.05686734 18.37700129
v 5.96342253 -35.01289687 18.37700129
v 6.17518682 -34.97403602 18.37700129
v 7.29310704 -34.74497247 18.37700129
v 7.29310704 -34.70611451 18.98386038
v 6.28599357 -34.90450011 18.98276836
v 5.76150741 -34.96074349 19.27003051
v 13.61649643 -32.78770437 18.37700129
v 14.08927311 -32.58727377 18.37700129
v 14.37737093 -32.46047197 18.37700129
v 9.88352961 -34.06493933 18.98386038
v 10.36861831 -33.91666210 18.98386038
v 8.26574656 -34.48625347 18.98386038
v 9.23592396 -34.24185239 18.98386038
v 10.43510264 -33.93813753 18.37700129
v 11.17874089 -33.69680106 18.37700129
v 11.54317295 -33.57204427 18.37700129
v 12.15138041 -33.36138865 18.37700129
v 12.15138041 -33.31946029 18.98386038
v 12.76205144 -33.09448674 18.98386038
v 13.29638678 -32.92166658 18.37700129
v 13.11663359 -32.99529539 18.37700129
v 8.26574656 -34.52818183 18.37700129
v 9.94508899 -34.08436975 18.37700129
v 10.25042378 -33.99335842 18.37700129
v 9.23592396 -34.28173286 18.37700129
v 9.47723726 -34.21526445 18.37700129
v 12.38038169 -33.27651232 18.37700129
v 12.80883596 -33.11596217 18.37700129
f 1 2 3
f 1 3 4
f 1 4 9
f 1 9 19
f 1 19 18
f 1 18 37
f 1 37 69
f 1 69 99
f 1 99 98
f 1 98 102
f 1 102 132
f 1 132 140
f 1 140 139
f 1 139 174
f 1 174 137
f 1 137 171
f 1 171 173
f 1 173 202
f 1 202 212
f 1 212 211
f 1 211 210
f 1 210 179
f 1 179 178
f 1 178 203
f 1 203 205
f 1 205 231
f 1 231 230
f 1 230 234
f 1 234 235
f 1 235 250
f 1 250 249
f 1 249 248
f 1 248 261
f 1 261 262
f 1 262 269
f 1 269 268
f 1 268 258
f 1 258 257
f 1 257 256
f 1 256 255
f 1 255 265
f 1 265 264
f 1 264 267
f 1 267 266
f 1 266 263
f 1 263 244
f 1 244 243
f 1 243 242
f 1 242 241
f 1 241 213
f 1 213 183
f 1 183 182
f 1 182 147
f 1 147 110
f 1 110 70
f 1 70 38
f 1 38 20
f 1 20 10
f 1 10 5
f 1 5 11
f 1 11 22
f 1 22 42
f 1 42 30
f 1 30 12
f 1 12 6
f 1 6 2
f 2 6 3
f 3 6 7
f 3 7 8
f 3 8 4
f 4 8 9
f 5 10 11
f 6 12 7
f 7 13 8
f 7 12 14
f 7 14 15
f 7 15 13
f 8 13 16
f 8 16 17
f 8 17 18
f 8 18 19
f 8 19 9
f 10 20 40
f 10 40 74
f 10 74 90
f 10 90 75
f 10 75 41
f 10 41 21
f 10 21 22
f 10 22 11
f 12 23 24
f 12 24 25
f 12 25 26
f 12 26 27
f 12 27 28
f 12 28 29
f 12 29 14
f 12 30 31
f 12 31 23
f 13 15 16
f 14 29 15
f 15 32 16
f 15 29 33
f 15 33 34
f 15 34 35
f 15 35 32
f 16 36 17
f 16 32 36
f 17 36 18
f 18 36 37
f 20 38 39
f 20 39 40
f 21 41 30
f 21 30 42
f 21 42 22
f 23 43 24
f 23 31 43
f 24 43 44
f 24 44 45
f 24 45 25
f 25 46 26
f 25 45 47
f 25 47 48
f 25 48 46
f 26 46 49
f 26 49 27
f 27 50 28
f 27 49 50
f 28 33 29
f 28 50 33
f 30 41 51
f 30 51 52
f 30 52 53
f 30 53 31
f 31 53 54
f 31 54 55
f 31 55 56
f 31 56 57
f 31 57 58
f 31 58 59
f 31 59 60
f 31 60 61
f 31 61 44
f 31 44 43
f 32 35 36
f 33 50 62
f 33 62 34
f 34 62 63
f 34 63 35
f 35 64 65
f 35 65 36
f 35 63 66
f 35 66 67
f 35 67 64
f 36 65 68
f 36 68 69
f 36 69 37
f 38 70 39
f 39 70 71
f 39 71 72
f 39 72 73
f 39 73 74
f 39 74 40
f 41 75 76
f 41 76 77
f 41 77 78
f 41 78 79
f 41 79 52
f 41 52 51
f 44 61 80
f 44 80 81
f 44 81 45
f 45 81 47
f 46 48 49
f 47 81 82
f 47 82 83
f 47 83 84
f 47 84 85
f 47 85 48
f 48 85 49
f 49 85 86
f 49 86 50
f 50 86 87
f 50 87 88
f 50 88 62
f 52 79 53
f 53 79 78
f 53 78 77
f 53 77 76
f 53 76 89
f 53 89 54
f 54 89 75
f 54 75 90
f 54 90 91
f 54 91 55
f 55 91 56
f 56 91 92
f 56 92 57
f 57 93 94
f 57 94 58
f 57 92 95
f 57 95 93
f 58 94 59
f 59 94 96
f 59 96 80
f 59 80 60
f 60 80 61
f 62 88 97
f 62 97 63
f 63 97 66
f 64 98 99
f 64 99 68
f 64 68 65
f 64 67 100
f 64 100 101
f 64 101 102
f 64 102 98
f 66 97 103
f 66 103 104
f 66 104 67
f 67 105 106
f 67 106 107
f 67 107 108
f 67 108 100
f 67 104 109
f 67 109 105
f 68 99 69
f 70 110 111
f 70 111 71
f 71 112 113
f 71 113 72
f 71 111 112
f 72 113 114
f 72 114 73
f 73 90 74
f 73 114 90
f 75 89 76
f 80 82 81
f 80 96 115
f 80 115 82
f 82 115 116
f 82 116 117
f 82 117 118
f 82 118 83
f 83 118 84
f 84 118 119
f 84 119 87
f 84 87 85
f 85 87 86
f 87 120 88
f 87 119 121
f 87 121 120
f 88 120 97
f 90 114 122
f 90 122 123
f 90 123 124
f 90 124 125
f 90 125 126
f 90 126 92
f 90 92 91
f 92 126 95
f 93 127 128
f 93 128 94
f 93 95 129
f 93 129 130
f 93 130 127
f 94 128 96
f 95 126 131
f 95 131 129
f 96 128 115
f 97 120 103
f 100 108 107
f 100 107 101
f 101 107 132
f 101 132 102
f 103 120 133
f 103 133 104
f 104 133 134
f 104 134 135
f 104 135 109
f 105 136 137
f 105 137 138
f 105 138 106
f 105 109 136
f 106 138 107
f 107 138 139
f 107 139 140
f 107 140 132
f 109 135 141
f 109 141 142
f 109 142 143
f 109 143 144
f 109 144 145
f 109 145 146
f 109 146 136
f 110 147 111
f 111 147 148
f 111 148 149
f 111 149 150
f 111 150 151
f 111 151 152
f 111 152 112
f 112 114 113
f 112 152 153
f 112 153 114
f 114 153 122
f 115 128 154
f 115 154 155
f 115 155 116
f 116 155 117
f 117 156 118
f 117 155 157
f 117 157 156
f 118 156 119
f 119 156 121
f 120 121 133
f 121 156 158
f 121 158 133
f 122 153 159
f 122 159 123
f 123 159 160
f 123 160 161
f 123 161 124
f 124 161 131
f 124 131 125
f 125 131 126
f 127 162 163
f 127 163 164
f 127 164 128
f 127 130 162
f 128 164 165
f 128 165 166
f 128 166 154
f 129 131 161
f 129 161 130
f 130 161 160
f 130 160 167
f 130 167 162
f 133 158 168
f 133 168 134
f 134 168 135
f 135 168 158
f 135 158 169
f 135 169 170
f 135 170 141
f 136 171 137
f 136 146 172
f 136 172 173
f 136 173 171
f 137 174 138
f 138 174 139
f 141 175 142
f 141 170 176
f 141 176 177
f 141 177 175
f 142 175 143
f 143 178 179
f 143 179 180
f 143 180 144
f 143 175 203
f 143 203 178
f 144 180 145
f 145 181 172
f 145 172 146
f 145 180 181
f 147 182 148
f 148 183 184
f 148 184 185
f 148 185 186
f 148 186 150
f 148 150 149
f 148 182 183
f 150 186 187
f 150 187 188
f 150 188 189
f 150 189 190
f 150 190 151
f 151 190 153
f 151 153 152
f 153 190 191
f 153 191 159
f 154 166 165
f 154 165 192
f 154 192 155
f 155 192 193
f 155 193 157
f 156 157 194
f 156 194 158
f 157 193 195
f 157 195 194
f 158 194 196
f 158 196 169
f 159 191 197
f 159 197 160
f 160 197 162
f 160 162 167
f 162 197 163
f 163 198 165
f 163 165 164
f 163 197 198
f 165 198 199
f 165 199 192
f 169 196 170
f 170 196 194
f 170 194 200
f 170 200 201
f 170 201 176
f 172 181 202
f 172 202 173
f 175 177 204
f 175 204 205
f 175 205 203
f 176 206 207
f 176 207 208
f 176 208 177
f 176 201 209
f 176 209 206
f 177 208 204
f 179 210 180
f 180 210 181
f 181 211 212
f 181 212 202
f 181 210 211
f 183 213 184
f 184 213 214
f 184 214 215
f 184 215 216
f 184 216 217
f 184 217 185
f 185 217 186
f 186 217 218
f 186 218 219
f 186 219 187
f 187 219 220
f 187 220 221
f 187 221 222
f 187 222 223
f 187 223 188
f 188 223 189
f 189 191 190
f 189 223 191
f 191 223 197
f 192 199 193
f 193 199 224
f 193 224 225
f 193 225 226
f 193 226 227
f 193 227 201
f 193 201 195
f 194 195 228
f 194 228 200
f 195 201 228
f 197 223 198
f 198 223 199
f 199 226 224
f 199 223 222
f 199 222 221
f 199 221 220
f 199 220 219
f 199 219 226
f 200 228 201
f 201 227 226
f 201 226 229
f 201 229 209
f 204 208 230
f 204 230 231
f 204 231 205
f 206 232 207
f 206 209 232
f 207 232 233
f 207 233 208
f 208 234 230
f 208 233 235
f 208 235 234
f 209 229 236
f 209 236 237
f 209 237 238
f 209 238 239
f 209 239 240
f 209 240 232
f 213 241 214
f 214 242 243
f 214 243 244
f 214 244 245
f 214 245 246
f 214 246 247
f 214 247 217
f 214 217 216
f 214 216 215
f 214 241 242
f 217 247 245
f 217 245 236
f 217 236 218
f 218 236 226
f 218 226 219
f 224 226 225
f 226 236 229
f 232 240 248
f 232 248 249
f 232 249 250
f 232 250 233
f 233 250 235
f 236 251 252
f 236 252 237
f 236 245 253
f 236 253 254
f 236 254 251
f 237 252 255
f 237 255 256
f 237 256 257
f 237 257 258
f 237 258 259
f 237 259 238
f 238 259 260
f 238 260 239
f 239 260 240
f 240 261 248
f 240 260 262
f 240 262 261
f 244 263 245
f 245 247 246
f 245 263 253
f 251 264 265
f 251 265 255
f 251 255 252
f 251 254 266
f 251 266 267
f 251 267 264
f 253 263 254
f 254 263 266
f 258 268 260
f 258 260 259
f 260 268 269
f 260 269 262

