# https://github.com/mikedh/trimesh
v -25.04321767 2.92719763 10.07980273
v -21.95300757 -0.00522858 10.07980273
v -21.94770824 -0.00522858 10.09366299
v -21.94135019 -0.00522858 10.10812864
v -20.33371974 -0.00522858 11.32163248
v -25.04321767 4.58784320 11.32163248
v -25.04321767 25.19770002 10.07980273
v -14.21794308 -0.00522858 10.07980273
v -14.21794308 -0.00522858 11.32163248
v -25.04321767 25.19770002 11.32163248
v -24.63627649 25.59293892 10.07980273
v -14.21794308 32.55426075 10.07980273
v -14.21794308 32.55426075 11.32163248
v -24.63627649 25.59293892 11.32163248
v -24.55361896 25.67262453 10.07980273
v -14.79762188 32.29608052 10.07980273
v -14.21794308 32.55744991 11.20833176
v -14.21794308 32.55744991 11.22510890
v -14.93326846 32.23552119 11.32163248
v -24.18376735 26.02323833 11.32163248
v -24.12442170 26.08061429 10.07980273
v -14.93326846 32.23552119 10.07980273
v -15.01168971 32.20045778 10.07980273
v -15.36246427 32.03790029 11.32163248
v -24.12336154 26.08061429 11.32163248
v -24.06719492 26.13161193 11.32163248
v -23.63799911 26.51728913 11.32163248
v -23.71642035 26.44716811 10.07980273
v -15.41969105 32.00921231 10.07980273
v -15.49175425 31.97415180 11.32163248
v -23.08269380 27.00496451 11.32163248
v -23.54792048 26.59697475 10.07980273
v -23.63799911 26.51728913 10.07980273
v -15.93790533 31.75103208 10.07980273
v -16.03752104 31.70003445 11.32163248
v -23.08269380 27.00496451 10.07980273
v -22.59627121 27.41295427 11.32163248
v -16.03752104 31.70003445 10.07980273
v -16.13183885 31.65222308 11.32163248
v -22.59627121 27.41295427 10.07980273
v -22.06216180 27.84325658 11.32163248
v -16.71893586 31.34623149 10.07980273
v -16.84928455 31.27610757 11.32163248
v -21.99115876 27.89744337 10.07980273
v -21.50473617 28.27993142 11.32163248
v -21.50579633 28.27993142 10.23650619
v -21.50579633 28.27993142 10.07980273
v -16.92770579 31.23467163 10.07980273
v -17.27954051 31.04342616 11.32163248
v -20.96744630 28.67517322 11.32163248
v -20.80954510 28.78991934 10.07980273
v -17.33570714 31.01155191 10.07980273
v -17.33570714 31.01155191 11.32163248
v -20.41849903 29.07360128 11.32163248
v -20.35597436 29.11822638 10.07980273
v -17.87723620 30.69918489 10.07980273
v -17.98109109 30.63862556 11.32163248
v -20.35597436 29.11822638 11.32163248
v -19.94797301 29.39553000 10.07980273
v -17.98109109 30.63862556 10.07980273
v -18.64766949 30.24019750 11.32163248
v -19.86955322 29.44652763 11.32163248
v -19.75086191 29.52621325 10.07980273
v -18.64766949 30.24019750 10.07980273
v -18.72608929 30.19238613 10.07980273
v -19.13303048 29.93420590 11.32163248
v -19.13303048 29.93420590 10.07980273
f 1 2 3
f 1 3 4
f 1 4 5
f 1 5 6
f 1 6 10
f 1 10 7
f 1 7 11
f 1 11 15
f 1 15 21
f 1 21 28
f 1 28 33
f 1 33 32
f 1 32 36
f 1 36 40
f 1 40 44
f 1 44 47
f 1 47 51
f 1 51 55
f 1 55 59
f 1 59 63
f 1 63 67
f 1 67 65
f 1 65 64
f 1 64 60
f 1 60 56
f 1 56 52
f 1 52 48
f 1 48 42
f 1 42 38
f 1 38 34
f 1 34 29
f 1 29 23
f 1 23 22
f 1 22 16
f 1 16 12
f 1 12 8
f 1 8 2
f 2 8 9
f 2 9 5
f 2 5 4
f 2 4 3
f 5 9 13
f 5 13 19
f 5 19 24
f 5 24 30
f 5 30 35
f 5 35 39
f 5 39 43
f 5 43 49
f 5 49 53
f 5 53 57
f 5 57 61
f 5 61 66
f 5 66 62
f 5 62 58
f 5 58 54
f 5 54 50
f 5 50 45
f 5 45 41
f 5 41 37
f 5 37 31
f 5 31 27
f 5 27 26
f 5 26 25
f 5 25 20
f 5 20 14
f 5 14 10
f 5 10 6
f 7 10 14
f 7 14 11
f 8 12 17
f 8 17 18
f 8 18 13
f 8 13 9
f 11 14 15
f 12 16 17
f 13 18 19
f 14 20 15
f 15 20 21
f 16 22 17
f 17 22 23
f 17 23 18
f 18 23 19
f 19 23 24
f 20 25 21
f 21 25 26
f 21 26 27
f 21 27 28
f 23 29 24
f 24 29 30
f 27 31 32
f 27 32 33
f 27 33 28
f 29 34 30
f 30 34 35
f 31 36 32
f 31 37 40
f 31 40 36
f 34 38 39
f 34 39 35
f 37 41 40
f 38 42 39
f 39 42 43
f 40 41 44
f 41 45 46
f 41 46 47
f 41 47 44
f 42 48 43
f 43 48 49
f 45 50 46
f 46 50 47
f 47 50 51
f 48 52 49
f 49 52 53
f 50 54 51
f 51 54 55
f 52 56 53
f 53 56 57
f 54 58 55
f 55 58 59
f 56 60 57
f 57 60 64
f 57 64 61
f 58 62 59
f 59 62 63
f 61 64 65
f 61 65 66
f 62 66 63
f 63 66 67
f 65 67 66

