# https://github.com/mikedh/trimesh
v -0.00660492 -22.29282093 8.77964115
v 1.33828605 -27.33902172 8.77964115
v -0.00660492 -22.29282093 9.26448364
v -0.00660492 22.29158946 8.77964115
v 1.34045923 -27.33902172 8.86095755
v 22.18953292 -27.33902172 8.77964115
v -0.00660492 -22.17179642 9.55984470
v 1.35132222 -27.33902172 9.26448364
v -0.00660492 22.29158946 9.26448364
v 2.25515868 26.41695072 8.77964115
v 22.18953292 -27.33902172 10.07968397
v 22.18953292 26.41695072 8.77964115
v -0.00660492 -21.95079557 10.07968397
v 1.38608511 -27.33902172 9.40230123
v -0.00660492 22.16004158 9.58580407
v 2.26167676 26.41695072 9.26448364
v 2.25950431 26.41695072 9.17706120
v 1.77065002 -27.33902172 10.07968397
v 22.18953292 26.41695072 10.07968397
v 1.67505190 -27.33902172 9.97355235
v 1.68808808 -27.33902172 9.99862247
v -0.00660492 21.94956410 10.07968397
v 2.53978057 26.41695072 10.07968397
f 1 2 3
f 1 3 7
f 1 7 13
f 1 13 22
f 1 22 15
f 1 15 9
f 1 9 4
f 1 4 10
f 1 10 12
f 1 12 6
f 1 6 2
f 2 5 3
f 2 6 11
f 2 11 18
f 2 18 21
f 2 21 20
f 2 20 14
f 2 14 8
f 2 8 5
f 3 5 8
f 3 8 7
f 4 9 10
f 6 12 19
f 6 19 11
f 7 8 13
f 8 14 13
f 9 15 16
f 9 16 17
f 9 17 10
f 10 17 16
f 10 16 23
f 10 23 19
f 10 19 12
f 11 19 23
f 11 23 22
f 11 22 13
f 11 13 18
f 13 14 20
f 13 20 21
f 13 21 18
f 15 22 16
f 16 22 23

