# https://github.com/mikedh/trimesh
v 0.00532575 27.66530363 4.61412280
v 1.07035757 27.45762571 4.61412280
v 0.00532575 27.66530363 5.35150583
v 0.00532575 35.52314218 4.61412280
v 1.07035757 27.45762571 5.35150583
v 1.07035757 35.50813777 4.61412280
v 0.00532575 35.52314218 5.35150583
v 0.48597151 35.52393006 5.35150583
v 0.48597151 35.52314218 4.61412280
v 1.07035757 35.50892854 5.35150583
f 1 2 5
f 1 5 3
f 1 3 7
f 1 7 4
f 1 4 9
f 1 9 6
f 1 6 2
f 2 6 10
f 2 10 5
f 3 5 10
f 3 10 8
f 3 8 7
f 4 7 8
f 4 8 9
f 6 9 8
f 6 8 10

