# https://github.com/mikedh/trimesh
v 0.48583827 35.52473242 13.00402142
v 0.48284825 35.52473242 12.18473397
v 0.00453543 35.52473242 13.00402142
v 0.63531035 35.52141001 13.00402142
v 0.00453543 35.52473242 12.18473397
v 1.45442110 35.49925388 12.18473397
v 0.00453543 29.90638401 13.00402142
v 1.45741112 35.49925388 13.00402142
v 0.00453543 29.89973630 12.18473397
v 2.43047861 35.44497729 13.00402142
v 2.42599430 35.44497729 12.18473397
v 0.00453543 29.90305870 12.59818673
v 4.88631585 24.20938696 13.00402142
v 4.88631585 24.20938696 12.18473397
v 2.57845640 35.43279127 13.00402142
v 3.39756715 35.36411276 12.18473397
v 15.27467264 24.20938696 13.00402142
v 15.27467264 24.20938696 12.18473397
v 3.40205146 35.36411276 13.00402142
v 4.37063501 35.25777258 12.18473397
v 15.27467264 32.07751137 13.00402142
v 15.27467264 32.07751137 12.18473397
v 4.37362430 35.25666318 13.00402142
v 4.52309711 35.23672585 13.00402142
v 5.34220785 35.12262856 12.18473397
v 14.93238079 32.23813103 13.00402142
v 14.93387544 32.23702453 12.18473397
v 5.34519715 35.12152206 13.00402142
v 5.44534402 35.10601364 13.00402142
v 5.99091928 35.01850429 12.18473397
v 14.08935277 32.61364695 12.18473397
v 14.09234207 32.61254044 13.00402142
v 5.99390893 35.01739779 13.00402142
v 6.40645397 34.94428747 13.00402142
v 6.47969536 34.93099495 12.18473397
v 13.32554691 32.93377687 12.18473397
v 13.44363137 32.88503859 13.00402142
v 6.47969536 34.93099495 13.00402142
v 6.60375769 34.90662581 13.00402142
v 7.28684820 34.77148468 12.18473397
v 13.32704156 32.93377687 13.00402142
v 12.84275087 33.12541339 12.18473397
v 7.28983749 34.77037528 13.00402142
v 7.43781565 34.73714253 13.00402142
v 8.25692639 34.55326313 12.18473397
v 12.84125622 33.12651989 13.00402142
v 12.14471243 33.38572841 12.18473397
v 8.25991569 34.55215373 13.00402142
v 8.40938849 34.51449207 13.00402142
v 9.22849924 34.30513412 12.18473397
v 12.14770245 33.38461901 13.00402142
v 11.17314031 33.72358267 12.18473397
v 9.23148926 34.30402472 13.00402142
v 9.34658298 34.27301077 13.00402142
v 9.98333649 34.09466678 12.18473397
v 11.17612960 33.72247327 13.00402142
v 10.46613398 33.94955554 12.18473397
v 10.57375445 33.91521628 13.00402142
v 9.98034719 34.09466678 13.00402142
v 10.46613398 33.94955554 13.00402142
f 1 2 5
f 1 5 3
f 1 3 7
f 1 7 13
f 1 13 17
f 1 17 21
f 1 21 26
f 1 26 32
f 1 32 37
f 1 37 41
f 1 41 46
f 1 46 51
f 1 51 56
f 1 56 58
f 1 58 60
f 1 60 59
f 1 59 54
f 1 54 53
f 1 53 49
f 1 49 48
f 1 48 44
f 1 44 43
f 1 43 39
f 1 39 38
f 1 38 34
f 1 34 33
f 1 33 29
f 1 29 28
f 1 28 24
f 1 24 23
f 1 23 19
f 1 19 15
f 1 15 10
f 1 10 8
f 1 8 4
f 1 4 2
f 2 4 6
f 2 6 11
f 2 11 16
f 2 16 20
f 2 20 25
f 2 25 30
f 2 30 35
f 2 35 40
f 2 40 45
f 2 45 50
f 2 50 55
f 2 55 57
f 2 57 52
f 2 52 47
f 2 47 42
f 2 42 36
f 2 36 31
f 2 31 27
f 2 27 22
f 2 22 18
f 2 18 14
f 2 14 9
f 2 9 5
f 3 5 9
f 3 9 12
f 3 12 7
f 4 8 6
f 6 8 10
f 6 10 11
f 7 12 13
f 9 14 13
f 9 13 12
f 10 15 11
f 11 15 16
f 13 14 18
f 13 18 17
f 15 19 16
f 16 19 20
f 17 18 22
f 17 22 21
f 19 23 20
f 20 23 24
f 20 24 25
f 21 22 26
f 22 27 26
f 24 28 25
f 25 28 29
f 25 29 30
f 26 27 31
f 26 31 32
f 29 33 30
f 30 33 34
f 30 34 35
f 31 36 37
f 31 37 32
f 34 38 35
f 35 38 39
f 35 39 40
f 36 41 37
f 36 42 41
f 39 43 40
f 40 43 44
f 40 44 45
f 41 42 46
f 42 47 46
f 44 48 45
f 45 48 49
f 45 49 50
f 46 47 51
f 47 52 56
f 47 56 51
f 49 53 50
f 50 53 54
f 50 54 55
f 52 57 58
f 52 58 56
f 54 59 55
f 55 59 60
f 55 60 57
f 57 60 58

