# https://github.com/mikedh/trimesh
v -4.91506126 -25.31800224 18.01186680
v -4.91506126 -25.31800224 17.46528027
v -4.92695762 -25.31800224 18.37699839
v 0.00414439 -29.91097843 18.01186680
v 0.00414439 -29.90997910 17.73625191
v 0.00414439 -29.90997910 17.46528027
v -12.14932658 -25.31800224 17.46528027
v 0.00414439 -29.93396300 18.37699839
v 0.00414439 -29.92197105 18.19286988
v -12.14932658 -25.31800224 18.37699839
v 0.00414439 -35.52627962 17.46528027
v -12.14932658 -33.38468894 17.46528027
v 0.00414439 -35.50329505 18.37699839
v -12.14932658 -32.81506571 18.37699839
v 0.00414439 -35.52627962 18.01186680
v -0.48599165 -35.52727895 18.01186680
v -0.48599165 -35.52627962 17.46528027
v -12.14932658 -33.38468894 18.01177701
v -11.17619174 -33.72146855 17.46528027
v 0.00414439 -35.51528700 18.19599532
v -0.48599165 -35.50329505 18.37699839
v -12.14932658 -33.35970572 18.37691149
v -12.14813680 -33.35970572 18.37699839
v -1.09390330 -35.48630646 18.37699839
v -1.45793635 -35.49929774 18.01186680
v -1.45793635 -35.49929774 17.46528027
v -1.03323101 -35.51128969 17.46528027
v -11.17619174 -33.72146855 18.01186680
v -11.78410375 -33.48662338 18.37699839
v -10.46597091 -33.95031776 17.46528027
v -1.45793635 -35.47531385 18.37699839
v -2.00517570 -35.46931787 17.46528027
v -2.42988105 -35.44533398 18.01186680
v -10.46597091 -33.95031776 18.01186680
v -11.17619174 -33.69648533 18.37699839
v -10.19235105 -34.03226272 17.46528027
v -2.42988105 -35.42135009 18.37699839
v -2.42988105 -35.44533398 17.46528027
v -3.03779234 -35.37138075 18.37699839
v -3.40182538 -35.34140089 18.37699839
v -3.40182538 -35.36438545 18.01186680
v -10.42790155 -33.93732648 18.37699839
v -9.98059327 -34.09522334 18.01186680
v -9.94252463 -34.08423072 18.37699839
v -9.98059327 -34.09522334 17.46528027
v -3.40182538 -35.36438545 17.46528027
v -4.00973667 -35.27444585 18.37699839
v -4.37377008 -35.25645793 18.01186680
v -9.65343907 -34.18716159 17.46528027
v -9.23230307 -34.30508529 18.01186680
v -9.23230307 -34.28110140 18.37699839
v -4.37377008 -35.25645793 17.46528027
v -4.37377008 -35.23347337 18.37699839
v -5.35285238 -35.09856108 18.37699839
v -5.34571442 -35.12154564 18.01186680
v -4.92100944 -35.18050894 17.46528027
v -9.23230307 -34.30508529 17.46528027
v -8.80759773 -34.41301280 17.46528027
v -8.26035873 -34.55192241 18.01186680
v -8.26035873 -34.52793852 18.37699839
v -5.96433301 -35.01261880 18.37699839
v -5.99407427 -35.01861477 18.01186680
v -5.71093725 -35.06358457 17.46528027
v -5.34571442 -35.12154564 17.46528027
v -8.26035873 -34.55192241 17.46528027
v -7.83565339 -34.64785798 17.46528027
v -7.28841440 -34.77077832 18.01186680
v -7.28841440 -34.74679443 18.37699839
v -6.47945191 -34.93067094 18.01186680
v -6.20583205 -34.98064028 17.46528027
v -5.99407427 -35.01861477 17.46528027
v -7.28841440 -34.77077832 17.46528027
v -6.93508793 -34.84073134 17.46528027
v -6.47945191 -34.93067094 17.46528027
f 1 2 7
f 1 7 10
f 1 10 3
f 1 3 4
f 1 4 5
f 1 5 6
f 1 6 2
f 2 6 11
f 2 11 17
f 2 17 27
f 2 27 26
f 2 26 32
f 2 32 38
f 2 38 46
f 2 46 52
f 2 52 56
f 2 56 64
f 2 64 63
f 2 63 71
f 2 71 70
f 2 70 74
f 2 74 73
f 2 73 72
f 2 72 66
f 2 66 65
f 2 65 58
f 2 58 57
f 2 57 49
f 2 49 45
f 2 45 36
f 2 36 30
f 2 30 19
f 2 19 12
f 2 12 7
f 3 8 9
f 3 9 4
f 3 10 14
f 3 14 23
f 3 23 29
f 3 29 35
f 3 35 42
f 3 42 44
f 3 44 51
f 3 51 60
f 3 60 68
f 3 68 61
f 3 61 54
f 3 54 53
f 3 53 47
f 3 47 40
f 3 40 39
f 3 39 37
f 3 37 31
f 3 31 24
f 3 24 21
f 3 21 13
f 3 13 8
f 4 9 8
f 4 8 13
f 4 13 20
f 4 20 15
f 4 15 11
f 4 11 6
f 4 6 5
f 7 12 18
f 7 18 22
f 7 22 14
f 7 14 10
f 11 15 16
f 11 16 17
f 12 19 28
f 12 28 18
f 13 21 20
f 14 22 23
f 15 20 16
f 16 20 21
f 16 21 24
f 16 24 25
f 16 25 26
f 16 26 27
f 16 27 17
f 18 28 29
f 18 29 22
f 19 30 34
f 19 34 28
f 22 29 23
f 24 31 25
f 25 32 26
f 25 31 37
f 25 37 33
f 25 33 32
f 28 34 35
f 28 35 29
f 30 36 34
f 32 33 38
f 33 37 39
f 33 39 40
f 33 40 41
f 33 41 46
f 33 46 38
f 34 42 35
f 34 36 43
f 34 43 44
f 34 44 42
f 36 45 43
f 40 47 41
f 41 47 48
f 41 48 52
f 41 52 46
f 43 49 50
f 43 50 44
f 43 45 49
f 44 50 51
f 47 53 48
f 48 53 54
f 48 54 55
f 48 55 56
f 48 56 52
f 49 57 50
f 50 57 58
f 50 58 59
f 50 59 60
f 50 60 51
f 54 61 55
f 55 61 62
f 55 62 63
f 55 63 64
f 55 64 56
f 58 65 59
f 59 65 66
f 59 66 67
f 59 67 68
f 59 68 60
f 61 68 67
f 61 67 69
f 61 69 62
f 62 69 70
f 62 70 71
f 62 71 63
f 66 72 67
f 67 72 73
f 67 73 69
f 69 74 70
f 69 73 74

