# https://github.com/mikedh/trimesh
v 0.47947529 35.52373020 4.61412280
v 1.24450827 35.50286595 4.61412280
v 1.45315365 35.49591120 1.83140039
v 0.47947529 35.51677545 1.83140039
v -0.48029344 35.51677545 1.83140039
v -0.68893877 35.51677545 4.61412280
v 1.45315365 35.49591120 4.61412280
v 2.21818659 35.45418560 4.61412280
v 2.08604454 35.46113745 1.83140039
v -0.82803566 35.50982070 1.83140039
v -1.45397180 35.49591120 1.83140039
v -1.45397180 35.49591120 4.61412280
v 2.42683197 35.44027610 4.61412280
v 2.42683197 35.44027610 1.83140039
v -2.42765012 35.44027610 1.83140039
v -2.42765012 35.44027610 4.61412280
v 3.19186508 35.37768335 4.61412280
v 3.40051046 35.35681911 1.83140039
v -2.76843755 35.41245710 1.83140039
v -2.63629550 35.42636660 4.61412280
v 3.40051046 35.35681911 4.61412280
v 4.02644660 35.29422926 1.83140039
v -3.40132862 35.35681911 1.83140039
v -3.40132862 35.35681911 4.61412280
v 4.15858865 35.28031976 4.61412280
v 4.36723403 35.25250366 1.83140039
v -3.74211605 35.32204825 1.83140039
v -3.60997400 35.33595775 4.61412280
v 4.36723403 35.25250366 4.61412280
v 5.00012492 35.16904666 1.83140039
v -4.36805218 35.25250366 1.83140039
v -4.36805218 35.25250366 4.61412280
v 5.34091235 35.12036631 4.61412280
v 5.34091235 35.12036631 1.83140039
v -4.57669756 35.22468466 4.61412280
v -5.34173050 35.12036631 1.83140039
v 5.98771310 35.01604797 4.61412280
v 5.98771310 35.01604797 1.83140039
v -5.34173050 35.12036631 4.61412280
v -5.57124049 35.08559257 1.83140039
v -5.48082730 35.09950207 4.61412280
v 6.47455244 34.92563912 4.61412280
v 6.47455244 34.92563912 1.83140039
v -5.98853125 35.01604797 1.83140039
v -5.98853125 35.01604797 4.61412280
v 7.11439807 34.80045653 4.61412280
v 7.28826898 34.76568278 1.83140039
v -6.30149896 34.96040997 1.83140039
v -6.37104790 34.94650337 4.61412280
v 7.28826898 34.76568278 4.61412280
v 8.04634753 34.59877459 4.61412280
v 7.91420512 34.62659359 1.83140039
v -6.76051894 34.87000113 1.83140039
v -7.28908713 34.76568278 4.61412280
v 8.25499291 34.55009424 4.61412280
v 8.25499291 34.55009424 1.83140039
v -7.28908713 34.76568278 1.83140039
v -7.49773251 34.72395718 4.61412280
v 9.02002549 34.35536415 4.61412280
v 8.88788380 34.39013790 1.83140039
v -8.25581106 34.55009424 1.83140039
v -8.25581106 34.55009424 4.61412280
v 9.22867086 34.29972906 4.61412280
v 9.22867086 34.29972906 1.83140039
v -9.22948902 34.29972906 1.83140039
v -9.22948902 34.29972906 4.61412280
v 9.81983326 34.13977561 4.61412280
v 9.71551057 34.16759171 1.83140039
v -9.49377312 34.23018446 1.83140039
v -9.38945043 34.25800056 4.61412280
v 10.08411735 34.06327337 4.61412280
v 9.97979467 34.09109237 1.83140039
v -9.98061282 34.09109237 4.61412280
v -9.98061282 34.09109237 1.83140039
v 10.46663364 33.94504842 1.83140039
v 10.14671082 34.04241202 1.83140039
v 10.46663364 33.94504842 4.61412280
v -10.29358089 34.00068352 1.83140039
v -10.36312911 33.97981927 4.61412280
v 11.02302156 33.77118258 4.61412280
v 11.17602750 33.72250223 1.83140039
v -11.17684565 33.72250223 1.83140039
v -11.17684565 33.72250223 4.61412280
v 11.17602750 33.72250223 4.61412280
v 12.14275143 33.38172820 1.83140039
v -12.14356958 33.38172820 1.83140039
v -12.14356958 33.38172820 4.61412280
v 12.14275143 33.38172820 4.61412280
v 12.59481593 33.21482001 1.83140039
v -12.38698871 33.29131935 1.83140039
v -12.29657552 33.32609310 4.61412280
v 12.83823651 33.12441116 4.61412280
v 12.83823651 33.12441116 2.46116295
v 12.83128176 33.12441116 1.83140039
v -12.83209991 33.12441116 1.83140039
v -12.83905466 33.12441116 4.40465479
v -12.83905466 33.12441116 4.61412280
v 12.94255920 33.08268266 4.61412280
v 13.31812001 32.92968397 1.83140039
v -13.15202273 32.99922857 1.83140039
v -13.31893816 32.92968397 4.61412280
v 13.31812001 32.92968397 4.61412280
v 13.92319190 32.67931878 4.61412280
v 14.09010878 32.60977419 1.83140039
v -13.59017774 32.81841088 1.83140039
v -14.09092694 32.60977419 4.61412280
v 14.09010878 32.60977419 4.61412280
v 14.75081867 32.31768340 4.61412280
v 15.09856049 32.15772706 1.83140039
v -14.09092694 32.60977419 1.83140039
v -14.92550846 32.23422930 4.61412280
v 14.93164505 32.23422930 4.61412280
v 15.03596774 32.18554606 4.61412280
v 15.41152856 32.00472837 4.61412280
v 15.41152856 32.00472837 1.83140039
v -14.92550846 32.23422930 1.83140039
v -15.24543127 32.08818246 1.83140039
v -15.55144315 31.94213852 4.61412280
v 16.03050994 31.69872808 4.61412280
v 16.03050994 31.69872808 1.83140039
v -15.63490159 31.90041002 1.83140039
v -16.03132810 31.69872808 4.61412280
v 16.84422721 31.27449995 4.61412280
v 16.84422721 31.27449995 1.83140039
v -16.03132810 31.69872808 1.83140039
v -16.20519973 31.60831923 4.61412280
v 16.94854990 31.21886485 4.61412280
v 17.33106547 31.01022816 1.83140039
v -16.84504537 31.27449995 1.83140039
v -16.84504537 31.27449995 4.61412280
v 17.33106547 31.01022816 4.61412280
v 17.83876942 30.71813738 4.61412280
v 17.97786730 30.63468328 1.83140039
v -17.33188362 31.01022816 1.83140039
v -17.33188362 31.01022816 4.61412280
v 18.64553194 30.23827415 1.83140039
v 18.64553194 30.23827415 4.61412280
v -17.97868545 30.63468328 1.83140039
v -17.97868545 30.63468328 4.61412280
v 18.74985463 30.17568141 4.61412280
v 19.13237164 29.93227387 1.83140039
v -18.21514983 30.49559119 1.83140039
v -18.64635009 30.23827415 4.61412280
v 19.13237164 29.93227387 4.61412280
v 19.86958522 29.44545299 1.83140039
v -18.64635009 30.23827415 1.83140039
v -19.12623504 29.93227387 4.61412280
v 19.86958522 29.44545299 4.61412280
v 19.97390791 29.37590839 4.61412280
v 20.35642347 29.11859135 1.83140039
v -19.12623504 29.93227387 1.83140039
v -19.28619573 29.82795552 4.61412280
v 20.35642347 29.11859135 4.61412280
v 20.89194642 28.72913697 1.83140039
v -19.87040337 29.44545299 1.83140039
v -19.87040337 29.44545299 4.61412280
v 20.89194642 28.72913697 4.61412280
v 21.28837293 28.43704329 1.83140039
v -20.35028687 29.11859135 1.83140039
v -20.35028687 29.11859135 4.61412280
v 21.50397306 28.27708985 4.61412280
v 21.50397306 28.27708985 1.83140039
v -20.54502275 28.97949926 1.83140039
v -20.46851906 29.03513726 4.61412280
v 21.99081276 27.89459021 4.61412280
v 21.99081276 27.89459021 1.83140039
v -21.10836615 28.56918063 1.83140039
v -20.89276457 28.72913697 2.46116295
v -20.89276457 28.72913697 4.61412280
v 22.70020734 27.32431814 4.61412280
v 22.38028452 27.58163518 1.83140039
v -21.50479121 28.27708985 1.83140039
v -21.02490771 28.63177338 4.61412280
v 23.07576815 27.00440836 4.61412280
v 23.07576815 27.00440836 1.83140039
v 22.76280008 27.26868015 1.83140039
v 22.59588465 27.40777224 1.83140039
v -21.81775928 28.03368231 1.83140039
v -21.50479121 28.27708985 4.61412280
v 23.51392461 26.62190873 4.61412280
v 23.63215680 26.51759038 1.83140039
v -21.88730822 27.97804431 4.61412280
v -22.20027629 27.72768202 1.83140039
v 23.63215680 26.51759038 4.61412280
v 23.80602698 26.36458879 1.83140039
v -21.99163091 27.89459021 4.61412280
v -22.58974805 27.40777224 1.83140039
v -22.58974805 27.40777224 4.61412280
v 24.11899505 26.07945275 4.61412280
v 24.11899505 26.07945275 1.83140039
v -22.90967087 27.14349755 1.83140039
v -23.07658630 27.00440836 4.61412280
v 24.63365375 25.59263478 4.61412280
v 24.63365375 25.59263478 1.83140039
v -23.07658630 27.00440836 1.83140039
v -23.20177469 26.90009001 4.61412280
v 25.12049200 25.11972630 4.61412280
v 25.12049200 25.11972630 1.83140039
v -23.63297495 26.51759038 1.83140039
v -23.63297495 26.51759038 4.61412280
v 25.59342075 24.63290542 4.61412280
v 25.42650677 24.80677126 1.83140039
v -24.11981320 26.07945275 1.83140039
v -24.11981320 26.07945275 4.61412280
v 25.59342075 24.63290542 1.83140039
v 26.08026480 24.11826990 4.61412280
v -24.63447480 25.59263478 1.83140039
v -24.23109064 25.97513441 4.61412280
v 26.08026480 24.11826990 1.83140039
v 26.51841691 23.63840667 4.61412280
v -25.12131305 25.11972630 1.83140039
v -24.63447480 25.59263478 4.61412280
v 26.51841691 23.63840667 3.43277418
v 26.36541242 23.80531486 1.83140039
v 27.00525516 23.08204265 4.61412280
v -25.12131305 25.11972630 4.61412280
v -25.59424180 24.63290542 1.83140039
v 27.00525516 23.08204265 1.83140039
v 27.32517943 22.69954157 4.61412280
v -25.59424180 24.63290542 4.61412280
v -26.08108006 24.11826990 1.83140039
v -25.97675592 24.22954299 4.61412280
v 27.40863642 22.59522322 1.83140039
v 27.89547468 21.99017885 4.61412280
v 27.58250806 22.37963323 1.83140039
v -26.23408454 23.95136026 1.83140039
v -26.08108006 24.11826990 4.61412280
v 27.89547468 21.99017885 1.83140039
v 28.27799459 21.50335943 4.61412280
v -26.51923796 23.63145192 1.83140039
v -26.51923796 23.63840667 2.46116295
v -26.51923796 23.63840667 4.61412280
v 28.27799459 21.50335943 1.83140039
v 28.37536108 21.37122353 4.61412280
v -27.00607621 23.08204265 1.83140039
v -27.00607621 23.08204265 4.61412280
v 28.86219933 20.70358641 1.83140039
v 28.80656134 20.78008721 4.61412280
v -27.40945747 22.59522322 1.83140039
v -27.40945747 22.59522322 4.61412280
v 29.11952796 20.34890433 4.61412280
v 29.11952796 20.34890433 2.46116295
v 29.11257610 20.34890433 1.83140039
v -27.72937595 22.19881409 1.83140039
v -27.79197159 22.12231474 4.61412280
v 29.37685658 19.97335945 4.61412280
v 29.44640987 19.86904110 3.43277418
v 29.44640987 19.86208635 1.83140039
v 29.32817623 20.03594930 1.83140039
v -27.89629573 21.99017885 1.83140039
v -27.97975272 21.88586051 4.61412280
v 29.44640987 19.86904110 4.61412280
v 29.93324812 19.13185939 1.83140039
v -28.27880984 21.50335943 1.83140039
v -28.27880984 21.50335943 4.61412280
v 29.93324812 19.13185939 4.61412280
v 30.23925710 18.64503996 1.83140039
v -28.98124822 20.54363152 1.83140039
v -28.72391960 20.89135886 4.61412280
v 30.23925710 18.64503996 4.61412280
v 30.71914350 17.83831220 4.61412280
v 30.63568651 17.97740430 1.83140039
v -29.23162500 20.18199614 1.83140039
v -29.18989650 20.24458599 4.61412280
v -29.02993437 20.46713218 4.61412280
v 31.01124877 17.33062998 4.61412280
v 31.01124877 17.33062998 1.83140039
v -29.44722513 19.86208635 1.83140039
v -29.44722513 19.86904110 3.43277418
v -29.44722513 19.86904110 4.61412280
v 31.21989125 16.94813035 4.61412280
v 31.18512040 17.01767639 1.83140039
v -29.93406338 19.13185939 1.83140039
v -29.93406338 19.13185939 4.61412280
v 31.27552925 16.84381200 4.61412280
v 31.27552925 16.84381200 1.83140039
v -30.24007815 18.64503996 1.83140039
v -30.24007815 18.64503996 4.61412280
v 31.36594388 16.66994906 4.61412280
v 31.80410179 15.81453950 1.83140039
v -30.49740677 18.21385853 1.83140039
v -30.55304477 18.12344969 4.61412280
v 31.76237329 15.89799360 4.61412280
v 32.00579242 15.41117562 1.83140039
v -30.63650176 17.97740430 1.83140039
v -30.87992089 17.56013092 1.83140039
v -31.01206402 17.33062998 4.61412280
v 32.00579242 15.41117562 4.61412280
v 32.18661590 15.02867454 4.61412280
v 32.23530205 14.92435619 1.83140039
v -31.01206402 17.33062998 1.83140039
v -31.27635030 16.84381200 4.61412280
v 32.23530205 14.92435619 4.61412280
v 32.36744518 14.63226541 1.83140039
v -31.27635030 16.84381200 1.83140039
v -31.54758842 16.32222173 1.83140039
v -31.60322641 16.21094863 4.61412280
v 32.61086431 14.08981088 4.61412280
v 32.61086431 14.08981088 3.43277418
v 32.72214030 13.81858290 1.83140039
v -32.00660767 15.41117562 1.83140039
v -32.00660767 15.41117562 4.61412280
v 32.93078278 13.32481017 4.61412280
v 32.93078278 13.32481017 1.83140039
v -32.23611730 14.92435619 1.83140039
v -32.23611730 14.92435619 4.61412280
v 33.12552156 12.83799219 4.61412280
v 33.12552156 12.83799219 1.83140039
v -32.52822257 14.27062858 4.61412280
v -32.60472771 14.08981088 1.83140039
v 33.21593620 12.59458321 1.83140039
v 33.38285018 12.14253753 4.61412280
v -32.86205634 13.49171981 4.61412280
v -32.93160383 13.32481017 1.83140039
v 33.38285018 12.14253753 1.83140039
v 33.71668395 11.17585488 4.61412280
v 33.50108382 11.80176422 1.83140039
v -32.93160383 13.32481017 4.61412280
v -33.12633682 12.83799219 1.83140039
v 33.94619358 10.46649143 4.61412280
v 33.80014094 10.92549114 1.83140039
v 33.71668395 11.17585488 1.83140039
v -33.12633682 12.83799219 4.61412280
v -33.38366544 12.14253753 1.83140039
v -33.32802745 12.29553767 4.61412280
v 34.06442722 10.08399108 4.61412280
v 34.04356007 10.15353640 1.83140039
v 33.94619358 10.46649143 1.83140039
v -33.71749921 11.17585488 1.83140039
v -33.64795171 11.38449157 4.61412280
v -33.38366544 12.14253753 4.61412280
v 34.14092656 9.81971784 4.61412280
v 34.16874556 9.71540022 1.83140039
v -33.71749921 11.17585488 4.61412280
v -33.94700883 10.46649143 1.83140039
v -33.98178548 10.36217309 4.61412280
v -33.89832849 10.61949085 4.61412280
v 34.30088870 9.22858152 4.61412280
v 34.30088870 9.22858152 1.83140039
v -34.09306147 9.97967273 1.83140039
v -34.09306147 9.97967273 4.61412280
v 34.35652669 9.01994483 4.61412280
v 34.39130333 8.88780894 1.83140039
v -34.23215646 9.49285403 1.83140039
v -34.25998125 9.38853641 4.61412280
v 34.55126547 8.25494484 4.61412280
v 34.55126547 8.25494484 1.83140039
v -34.30170975 9.22858152 1.83140039
v -34.30170975 9.22858152 4.61412280
v 34.62776482 7.91417153 1.83140039
v 34.76686560 7.28826219 4.61412280
v -34.46167188 8.60267218 1.83140039
v -34.55208072 8.25494484 4.40465479
v -34.55208072 8.25494484 4.61412280
v 34.76686560 7.28826219 1.83140039
v 34.80163645 7.11439852 4.61412280
v -34.54512887 8.25494484 1.83140039
v -34.69118151 7.62903550 1.83140039
v -34.76768085 7.28826219 1.83140039
v -34.76768085 7.28826219 4.61412280
v 34.92682773 6.48153515 1.83140039
v 34.92682773 6.48153515 4.61412280
v -34.87200499 6.76667119 1.83140039
v -34.94851013 6.37721681 4.61412280
v 35.01723658 5.99471645 1.83140039
v 35.01723658 5.99471645 4.61412280
v -34.96241963 6.30767076 1.83140039
v -35.01805763 5.99471645 4.61412280
v 35.12156071 5.34098883 1.83140039
v 35.12156071 5.34098883 4.61412280
v -35.01805763 5.99471645 1.83140039
v -35.12238176 5.34098883 4.61412280
v 35.25370385 4.36735216 1.83140039
v 35.25370385 4.36735216 4.61412280
v -35.11542412 5.34098883 1.83140039
v -35.12238176 5.34098883 3.43277418
v -35.22670011 4.58294287 4.61412280
v 35.36497984 3.40066986 1.83140039
v 35.36497984 3.40066986 4.61412280
v -35.20583876 4.71507949 1.83140039
v -35.25451911 4.36735216 1.83140039
v -35.25451911 4.36735216 4.61412280
v 35.39279884 3.05294217 1.83140039
v 35.44148498 2.42703301 4.61412280
v -35.32407239 3.74144281 1.83140039
v -35.33798189 3.60930619 4.61412280
v 35.44148498 2.42703301 1.83140039
v 35.45539448 2.21839650 4.61412280
v -35.35884324 3.40066986 1.83140039
v -35.35884324 3.40066986 4.61412280
v 35.49016533 1.45339615 1.83140039
v 35.49016533 1.45339615 4.61412280
v -35.41448124 2.76780577 1.83140039
v -35.44230024 2.42703301 4.61412280
v 35.50408062 1.11262329 1.83140039
v 35.49712298 1.24475973 4.61412280
v 35.52494197 0.47975938 2.46116295
v -35.44230024 2.42703301 1.83140039
v -35.47707688 1.79416909 1.83140039
v -35.48402873 1.66203266 4.61412280
v 35.52494197 0.47975938 1.83140039
v 35.51799012 0.47975938 4.61412280
v 35.51799012 -0.68860481 4.61412280
v -35.49098638 1.45339615 1.83140039
v -35.51880538 0.68839584 4.61412280
v 35.51799012 -0.47996834 1.83140039
v 35.51103248 -0.82769577 1.83140039
v 35.48321348 -1.66224162 4.61412280
v 35.49016533 -1.45360511 1.83140039
v -35.51185353 0.82748680 1.83140039
v -35.52576302 0.47975938 4.61412280
v 35.44148498 -2.42724197 4.61412280
v 35.47625583 -1.79437806 1.83140039
v -35.51880538 0.47975938 1.83140039
v -35.52576302 -0.47996834 4.61412280
v 35.44148498 -2.42724197 1.83140039
v 35.35802799 -3.40087883 4.61412280
v 35.36497984 -3.40087883 3.43277418
v -35.51880538 -0.47996834 1.83140039
v -35.50489588 -1.11283226 1.83140039
v -35.49098638 -1.45360511 4.61412280
v 35.41366598 -2.76801474 1.83140039
v 35.33716084 -3.60951516 4.61412280
v 35.25370385 -4.36756112 4.61412280
v 35.25370385 -4.36756112 1.83140039
v 35.32325134 -3.74165178 1.83140039
v 35.35802799 -3.40087883 1.83140039
v -35.49098638 -1.45360511 1.83140039
v -35.44230024 -2.42724197 4.61412280
v 35.22588485 -4.58315184 4.61412280
v 35.12156071 -5.34119780 1.83140039
v -35.44230024 -2.42724197 1.83140039
v -35.37971039 -3.19224214 4.61412280
v 35.12156071 -5.34119780 4.61412280
v 35.01723658 -5.99492542 1.83140039
v -35.35884324 -3.40087883 1.83140039
v -35.35884324 -3.40087883 4.61412280
v 35.01723658 -5.99492542 4.61412280
v 34.96159858 -6.30787973 1.83140039
v -35.25451911 -4.36756112 1.83140039
v -35.25451911 -4.36756112 4.61412280
v 34.94768908 -6.37742577 4.61412280
v 34.87118394 -6.76688016 1.83140039
v -35.11542412 -5.34119780 1.83140039
v -35.12238176 -5.34119780 3.43277418
v -35.12238176 -5.34119780 4.61412280
v 34.76686560 -7.28847116 4.61412280
v 34.76686560 -7.28847116 1.83140039
v -35.05282848 -5.76542520 1.83140039
v -35.01805763 -5.99492542 1.83140039
v -35.01805763 -5.99492542 4.61412280
v 34.55126547 -8.25515381 4.61412280
v 34.55126547 -8.25515381 1.83140039
v -34.92764299 -6.48174412 1.83140039
v -34.92764299 -6.48174412 4.61412280
v 34.30088870 -9.22879049 4.61412280
v 34.30088870 -9.22879049 1.83140039
v -34.76768085 -7.28847116 1.83140039
v -34.80245750 -7.11460749 4.61412280
v 34.25916020 -9.38874538 4.61412280
v 34.23134120 -9.49306300 1.83140039
v -34.76768085 -7.28847116 4.61412280
v -34.62858586 -7.91438050 1.83140039
v 34.09224621 -9.97988170 4.61412280
v 34.09224621 -9.97988170 1.83140039
v -34.55208072 -8.25515381 4.61412280
v -34.39211859 -8.88801790 1.83140039
v -34.55208072 -8.25515381 4.40465479
v 33.98096443 -10.36238206 4.61412280
v 34.00183157 -10.29283673 1.83140039
v -34.35734774 -9.02015380 4.61412280
v -34.30170975 -9.22879049 1.83140039
v 33.89750744 -10.61969982 4.61412280
v 33.71668395 -11.17606384 1.83140039
v 33.94619358 -10.46670040 1.83140039
v -34.30170975 -9.22879049 4.61412280
v -34.16956661 -9.71560919 1.83140039
v -34.14174761 -9.81992681 4.61412280
v 33.71668395 -11.17606384 4.61412280
v 33.64713646 -11.38470053 4.61412280
v 33.38285018 -12.14274649 1.83140039
v -34.04438112 -10.15374537 1.83140039
v -34.06524247 -10.08420004 4.61412280
v 33.38285018 -12.14274649 4.61412280
v 33.32721219 -12.29574664 4.61412280
v 33.12552156 -12.83820116 1.83140039
v -33.94700883 -10.46670040 1.83140039
v -33.94700883 -10.46670040 4.61412280
v 33.12552156 -12.83820116 4.61412280
v 32.93078278 -13.32501914 1.83140039
v -33.80095620 -10.92570010 1.83140039
v -33.71749921 -11.17606384 4.61412280
v 32.93078278 -13.32501914 4.61412280
v 32.81950679 -13.59624712 1.83140039
v -33.71749921 -11.17606384 1.83140039
v -33.50189908 -11.80197319 1.83140039
v -33.38366544 -12.14274649 4.61412280
v 32.86123529 -13.49192878 4.61412280
v 32.61086431 -14.09001985 4.61412280
v 32.61086431 -14.09001985 2.46116295
v 32.47872117 -14.38211064 1.83140039
v -33.38366544 -12.14274649 1.83140039
v -33.18197481 -12.69215577 4.61412280
v 32.23530205 -14.92456516 4.61412280
v 32.23530205 -14.92456516 1.83140039
v -33.21675145 -12.59479217 1.83140039
v -33.12633682 -12.83820116 1.83140039
v -33.12633682 -12.83820116 4.61412280
v 32.00579242 -15.41138459 4.61412280
v 32.00579242 -15.41138459 1.83140039
v -32.93160383 -13.32501914 1.83140039
v -32.93160383 -13.32501914 4.61412280
v 31.60241116 -16.21115760 4.61412280
v 31.54677316 -16.32243069 1.83140039
v -32.72295556 -13.81879186 1.83140039
v -32.60472771 -14.09001985 4.61412280
v 31.27552925 -16.84402097 4.61412280
v 31.27552925 -16.84402097 1.83140039
v -32.36826044 -14.63247437 1.83140039
v -32.23611730 -14.92456516 4.61412280
v 31.01124877 -17.33083894 4.61412280
v 31.01124877 -17.33083894 1.83140039
v -32.23611730 -14.92456516 1.83140039
v -32.18743695 -15.02888351 4.61412280
v 30.87910563 -17.56033988 1.83140039
v 30.55222951 -18.12365865 4.61412280
v -32.00660767 -15.41138459 1.83140039
v -32.00660767 -15.41138459 4.61412280
v 30.63568651 -17.97761326 1.83140039
v 30.23925710 -18.64524893 4.61412280
v 30.23925710 -18.64524893 1.83140039
v 30.49659152 -18.21406750 1.83140039
v -31.80491704 -15.81474847 1.83140039
v -31.76318855 -15.89820256 4.61412280
v 29.93324812 -19.13206836 4.61412280
v 29.93324812 -19.13206836 1.83140039
v -31.27635030 -16.84402097 1.83140039
v -31.36676493 -16.67015802 4.61412280
v 29.44640987 -19.86925007 4.61412280
v 29.44640987 -19.86925007 4.40465479
v 29.44640987 -19.86229532 1.83140039
v -31.01206402 -17.33083894 1.83140039
v -31.22071230 -16.94833931 4.61412280
v -31.27635030 -16.84402097 4.61412280
v 29.11952796 -20.34911330 4.61412280
v 29.23080974 -20.18220510 1.83140039
v 29.11952796 -20.34911330 3.43277418
v -30.63650176 -17.97761326 1.83140039
v -30.71996455 -17.83852117 4.61412280
v -31.01206402 -17.33083894 4.61412280
v 28.98043297 -20.54384049 1.83140039
v 28.27799459 -21.50356839 4.61412280
v -30.24007815 -18.64524893 1.83140039
v -30.24007815 -18.64524893 4.61412280
v 28.27799459 -21.50356839 1.83140039
v 27.97893746 -21.88606947 4.61412280
v -29.93406338 -19.13206836 1.83140039
v -29.93406338 -19.13206836 4.61412280
v 27.89547468 -21.99038782 1.83140039
v 27.79115633 -22.12252371 4.61412280
v -29.44722513 -19.86229532 1.83140039
v -29.44722513 -19.86925007 4.40465479
v -29.44722513 -19.86925007 4.61412280
v 27.72856069 -22.19902306 1.83140039
v 27.40863642 -22.59543219 4.61412280
v 27.40863642 -22.59543219 1.83140039
v -29.32899149 -20.03615826 1.83140039
v -29.37767763 -19.97356841 4.61412280
v 27.00525516 -23.08225161 4.61412280
v 27.00525516 -23.08225161 1.83140039
v -29.11339136 -20.34911330 1.83140039
v -29.11339136 -20.34911330 4.61412280
v 26.51841691 -23.63861564 4.61412280
v 26.51841691 -23.63861564 2.46116295
v 26.51841691 -23.63166089 1.83140039
v -28.86302038 -20.70379538 1.83140039
v -28.72391960 -20.89156782 4.61412280
v 26.08026480 -24.11847886 4.61412280
v 26.23326929 -23.95156922 1.83140039
v -28.37617633 -21.37143250 4.61412280
v -28.27880984 -21.50356839 1.83140039
v 25.97594066 -24.22975196 4.61412280
v 26.08026480 -24.11847886 1.83140039
v -28.27880984 -21.50356839 4.61412280
v -27.89629573 -21.99038782 1.83140039
v 25.59342075 -24.63311439 4.61412280
v 25.59342075 -24.63311439 1.83140039
v -27.89629573 -21.99038782 4.61412280
v -27.58332911 -22.37984220 1.83140039
v 25.12049200 -25.11993526 4.61412280
v 25.12049200 -25.11993526 1.83140039
v -27.32599469 -22.69975053 4.61412280
v -27.40945747 -22.59543219 1.83140039
v 25.01616786 -25.22425361 4.61412280
v 24.63365375 -25.59284374 1.83140039
v -27.00607621 -23.08225161 1.83140039
v -27.00607621 -23.08225161 4.61412280
v 24.63365375 -25.59284374 4.61412280
v 24.23027249 -25.97534337 4.61412280
v 24.11899505 -26.07966172 1.83140039
v -26.51923796 -23.63166089 1.83140039
v -26.51923796 -23.63861564 2.46116295
v -26.51923796 -23.63861564 4.61412280
v 24.11899505 -26.07966172 4.61412280
v 23.95207961 -26.23266041 1.83140039
v -26.08108006 -24.11847886 1.83140039
v -26.08108006 -24.11847886 4.61412280
v 23.63215680 -26.51779935 4.61412280
v 23.63215680 -26.51779935 1.83140039
v -25.59424180 -24.63311439 1.83140039
v -25.59424180 -24.63311439 4.61412280
v 23.20095654 -26.90029898 4.61412280
v 23.08272290 -27.00461732 4.40465479
v 23.27745878 -26.83075438 1.83140039
v -25.42732202 -24.80698023 1.83140039
v -25.12131305 -25.11993526 4.61412280
v 23.08272290 -27.00461732 4.61412280
v 23.07576815 -27.00461732 1.83140039
v 22.59588465 -27.40798120 1.83140039
v -25.12131305 -25.11993526 1.83140039
v -24.63447480 -25.59284374 4.61412280
v 22.59588465 -27.40798120 4.61412280
v 22.19945814 -27.72789099 1.83140039
v -24.63447480 -25.59284374 1.83140039
v -24.11981320 -26.07966172 4.61412280
v 21.99081276 -27.89479918 4.61412280
v 21.81694113 -28.03389127 1.83140039
v -24.11981320 -26.07966172 1.83140039
v -23.80684513 -26.36479776 1.83140039
v -23.63297495 -26.51779935 4.61412280
v 21.88649007 -27.97825328 4.61412280
v 21.50397306 -28.27729881 4.61412280
v 21.50397306 -28.27729881 1.83140039
v -23.63297495 -26.51779935 1.83140039
v -23.51474276 -26.62211769 4.61412280
v 21.02408955 -28.63198234 4.61412280
v 20.89194642 -28.72934594 2.46116295
v 21.10754799 -28.56938960 1.83140039
v -23.07658630 -27.00461732 1.83140039
v -23.07658630 -27.00461732 4.61412280
v 20.89194642 -28.72934594 4.61412280
v 20.35642347 -29.11880032 1.83140039
v -22.76361823 -27.26888911 1.83140039
v -22.70102549 -27.32452711 4.61412280
v 20.35642347 -29.11880032 4.61412280
v 19.86958522 -29.44566196 1.83140039
v -22.38110267 -27.58184415 1.83140039
v -21.99163091 -27.89479918 4.61412280
v 19.86958522 -29.44566196 4.61412280
v 19.13237164 -29.93248283 2.46116295
v 19.12541689 -29.93248283 1.83140039
v -21.99163091 -27.89479918 1.83140039
v -21.50479121 -28.27729881 4.61412280
v 19.13237164 -29.93248283 4.61412280
v 18.64553194 -30.23848312 1.83140039
v -21.50479121 -28.27729881 1.83140039
v -21.28919108 -28.43725226 1.83140039
v -20.89276457 -28.72934594 4.61412280
v 18.64553194 -30.23848312 4.61412280
v 18.12391849 -30.55143525 4.61412280
v 18.21433168 -30.49580016 1.83140039
v -20.89276457 -28.72934594 1.83140039
v -20.35724162 -29.11880032 4.61412280
v 17.33106547 -31.01043713 4.61412280
v 17.56057654 -30.87829979 1.83140039
v 17.97786730 -30.63489225 1.83140039
v -20.35028687 -29.11880032 1.83140039
v -20.35724162 -29.11880032 3.43277418
v -19.97472606 -29.37611736 4.61412280
v 17.33106547 -31.01043713 1.83140039
v 16.84422721 -31.27470892 4.61412280
v -19.87040337 -29.44566196 1.83140039
v -19.87040337 -29.44566196 4.61412280
v 16.84422721 -31.27470892 1.83140039
v 16.21133633 -31.60852820 4.61412280
v -19.60611855 -29.61952780 1.83140039
v -19.12623504 -29.93248283 4.61412280
v 16.03050994 -31.69893705 1.83140039
v 15.55062499 -31.94234748 4.61412280
v 15.63408343 -31.90061899 1.83140039
v -19.12623504 -29.93248283 1.83140039
v -18.75067278 -30.17589037 4.61412280
v 15.24461312 -32.08839143 1.83140039
v 14.93164505 -32.23443827 4.61412280
v -18.64635009 -30.23848312 1.83140039
v -18.64635009 -30.23848312 4.61412280
v 14.93164505 -32.23443827 3.43277418
v 14.92469030 -32.23443827 1.83140039
v 14.09010878 -32.60998315 4.61412280
v -17.97868545 -30.63489225 1.83140039
v -17.83958757 -30.71834634 4.61412280
v 14.09010878 -32.60998315 1.83140039
v 13.32507476 -32.92989294 4.61412280
v -17.33188362 -31.01043713 1.83140039
v -17.33188362 -31.01043713 4.61412280
v 13.32507476 -32.92989294 4.40465479
v 13.58935958 -32.81861984 1.83140039
v 12.83823651 -33.12462013 4.61412280
v -16.84504537 -31.27470892 1.83140039
v -16.94936806 -31.21907382 4.61412280
v 13.15120458 -32.99943753 1.83140039
v 12.29575736 -33.32630207 4.61412280
v 12.83823651 -33.12462013 1.83140039
v -16.03132810 -31.69893705 1.83140039
v -16.84504537 -31.27470892 4.61412280
v 12.14275143 -33.38193717 4.61412280
v 12.14275143 -33.38193717 1.83140039
v -15.41234671 -32.00493733 1.83140039
v -16.03132810 -31.69893705 4.61412280
v 11.17602750 -33.72271120 4.61412280
v 11.17602750 -33.72271120 1.83140039
v -15.09937864 -32.15793603 1.83140039
v -15.41234671 -32.00493733 4.61412280
v 10.71700824 -33.86875514 1.83140039
v 10.36231095 -33.98002824 4.61412280
v -14.74468207 -32.31789237 4.61412280
v -15.03678589 -32.18575502 4.61412280
v -14.09092694 -32.60998315 1.83140039
v 10.29276273 -34.00089249 1.83140039
v 9.97979467 -34.09130133 4.61412280
v -14.09092694 -32.60998315 4.61412280
v -13.31893816 -32.92989294 1.83140039
v -13.92401005 -32.67952775 4.61412280
v 9.97979467 -34.09130133 1.83140039
v 9.38863227 -34.25820952 4.61412280
v 9.49295496 -34.23039342 1.83140039
v -12.83905466 -33.12462013 4.40465479
v -12.94337735 -33.08289163 4.61412280
v -13.31893816 -32.92989294 4.61412280
v -12.83209991 -33.12462013 1.83140039
v 9.22867086 -34.29993802 4.61412280
v 9.22867086 -34.29993802 1.83140039
v -12.83905466 -33.12462013 4.61412280
v -12.14356958 -33.38193717 1.83140039
v 8.25499291 -34.55030321 4.61412280
v 8.25499291 -34.55030321 1.83140039
v -12.14356958 -33.38193717 4.61412280
v -11.17684565 -33.72271120 1.83140039
v 7.49691436 -34.72416615 4.61412280
v 7.28826898 -34.76589175 1.83140039
v -11.17684565 -33.72271120 4.61412280
v -10.46745180 -33.94525739 1.83140039
v -11.02383972 -33.77139155 4.61412280
v 7.28826898 -34.76589175 4.61412280
v 6.75970078 -34.87021009 1.83140039
v -10.14752898 -34.04262098 1.83140039
v -10.08493551 -34.06348233 4.61412280
v -10.46745180 -33.94525739 4.61412280
v 6.37022975 -34.94671234 4.61412280
v 6.30068080 -34.96061894 1.83140039
v -9.98061282 -34.09130133 1.83140039
v -9.82065141 -34.13998458 4.61412280
v 5.98771310 -35.01625694 4.61412280
v 5.98771310 -35.01625694 1.83140039
v -9.71632872 -34.16780068 1.83140039
v -9.22948902 -34.29993802 1.83140039
v -9.22948902 -34.29993802 4.61412280
v 5.48000915 -35.09971103 4.61412280
v 5.57042234 -35.08580153 1.83140039
v -8.88870195 -34.39034687 1.83140039
v -9.02084364 -34.35557312 4.61412280
v 5.34091235 -35.12057528 4.61412280
v 5.34091235 -35.12057528 1.83140039
v -8.25581106 -34.55030321 4.61412280
v -8.25581106 -34.55030321 1.83140039
v 4.58283416 -35.22489363 4.61412280
v 4.36723403 -35.25271262 1.83140039
v -8.04716568 -34.59898356 4.61412280
v -7.91502327 -34.62680255 1.83140039
v 4.36723403 -35.25271262 4.61412280
v 3.74129789 -35.32225722 1.83140039
v -7.28908713 -34.76589175 1.83140039
v -7.28908713 -34.76589175 4.61412280
v 3.60915584 -35.33616672 4.61412280
v 3.40051046 -35.35702807 1.83140039
v -6.47537059 -34.92584809 1.83140039
v -6.47537059 -34.92584809 4.61412280
v 3.40051046 -35.35702807 4.61412280
v 2.63547735 -35.42657557 4.61412280
v 2.76761939 -35.41266607 1.83140039
v -5.98853125 -35.01625694 1.83140039
v -5.98853125 -35.01625694 4.61412280
v 2.42683197 -35.44048506 4.61412280
v 2.42683197 -35.44048506 1.83140039
v -5.34173050 -35.12057528 1.83140039
v -5.34173050 -35.12057528 4.61412280
v 1.45315365 -35.49612016 4.61412280
v 1.45315365 -35.49612016 1.83140039
v -5.00094307 -35.16925563 1.83140039
v -4.36805218 -35.25271262 4.61412280
v 0.69507546 -35.51698441 4.61412280
v 0.82721751 -35.51002966 1.83140039
v -4.36805218 -35.25271262 1.83140039
v -4.15940680 -35.28052872 4.61412280
v 0.47947529 -35.51698441 1.83140039
v -0.48029344 -35.52393916 4.61412280
v -4.02726475 -35.29443822 1.83140039
v -3.40132862 -35.35702807 4.61412280
v -0.48029344 -35.51698441 1.83140039
v -1.24532642 -35.50307491 4.61412280
v -1.45397180 -35.49612016 1.83140039
v -3.40132862 -35.35702807 1.83140039
v -3.18572849 -35.37789232 4.61412280
v -1.45397180 -35.49612016 4.61412280
v -2.21900474 -35.45439456 4.61412280
v -2.08686269 -35.46134642 1.83140039
v -2.42765012 -35.44048506 1.83140039
v -2.42765012 -35.44048506 4.61412280
f 1 2 3
f 1 3 4
f 1 4 5
f 1 5 6
f 1 6 12
f 1 12 16
f 1 16 20
f 1 20 24
f 1 24 28
f 1 28 32
f 1 32 35
f 1 35 39
f 1 39 41
f 1 41 45
f 1 45 49
f 1 49 54
f 1 54 58
f 1 58 62
f 1 62 66
f 1 66 70
f 1 70 73
f 1 73 79
f 1 79 83
f 1 83 87
f 1 87 91
f 1 91 97
f 1 97 101
f 1 101 106
f 1 106 111
f 1 111 118
f 1 118 122
f 1 122 126
f 1 126 130
f 1 130 135
f 1 135 139
f 1 139 143
f 1 143 147
f 1 147 152
f 1 152 156
f 1 156 160
f 1 160 164
f 1 164 169
f 1 169 173
f 1 173 179
f 1 179 182
f 1 182 186
f 1 186 188
f 1 188 192
f 1 192 196
f 1 196 200
f 1 200 204
f 1 204 208
f 1 208 212
f 1 212 216
f 1 216 220
f 1 220 222
f 1 222 227
f 1 227 232
f 1 232 236
f 1 236 240
f 1 240 245
f 1 245 251
f 1 251 255
f 1 255 259
f 1 259 265
f 1 265 264
f 1 264 270
f 1 270 274
f 1 274 278
f 1 278 282
f 1 282 287
f 1 287 292
f 1 292 297
f 1 297 302
f 1 302 306
f 1 306 309
f 1 309 313
f 1 313 318
f 1 318 323
f 1 323 325
f 1 325 331
f 1 331 330
f 1 330 334
f 1 334 337
f 1 337 336
f 1 336 341
f 1 341 345
f 1 345 349
f 1 349 354
f 1 354 360
f 1 360 364
f 1 364 368
f 1 368 372
f 1 372 377
f 1 377 382
f 1 382 386
f 1 386 390
f 1 390 394
f 1 394 400
f 1 400 405
f 1 405 411
f 1 411 415
f 1 415 421
f 1 421 429
f 1 429 433
f 1 433 437
f 1 437 441
f 1 441 446
f 1 446 451
f 1 451 455
f 1 455 459
f 1 459 462
f 1 462 466
f 1 466 471
f 1 471 476
f 1 476 478
f 1 478 483
f 1 483 488
f 1 488 492
f 1 492 497
f 1 497 503
f 1 503 508
f 1 508 512
f 1 512 516
f 1 516 520
f 1 520 524
f 1 524 528
f 1 528 534
f 1 534 538
f 1 538 544
f 1 544 543
f 1 543 550
f 1 550 549
f 1 549 554
f 1 554 558
f 1 558 563
f 1 563 568
f 1 568 572
f 1 572 577
f 1 577 580
f 1 580 584
f 1 584 588
f 1 588 592
f 1 592 597
f 1 597 603
f 1 603 607
f 1 607 611
f 1 611 616
f 1 616 621
f 1 621 625
f 1 625 630
f 1 630 635
f 1 635 640
f 1 640 644
f 1 644 648
f 1 648 653
f 1 653 658
f 1 658 663
f 1 663 669
f 1 669 673
f 1 673 677
f 1 677 682
f 1 682 686
f 1 686 691
f 1 691 695
f 1 695 700
f 1 700 705
f 1 705 709
f 1 709 713
f 1 713 717
f 1 717 716
f 1 716 721
f 1 721 723
f 1 723 729
f 1 729 728
f 1 728 733
f 1 733 737
f 1 737 741
f 1 741 743
f 1 743 748
f 1 748 747
f 1 747 752
f 1 752 757
f 1 757 761
f 1 761 764
f 1 764 768
f 1 768 773
f 1 773 777
f 1 777 782
f 1 782 786
f 1 786 790
f 1 790 794
f 1 794 798
f 1 798 803
f 1 803 808
f 1 808 805
f 1 805 804
f 1 804 800
f 1 800 796
f 1 796 791
f 1 791 787
f 1 787 783
f 1 783 779
f 1 779 778
f 1 778 774
f 1 774 770
f 1 770 766
f 1 766 762
f 1 762 758
f 1 758 753
f 1 753 749
f 1 749 744
f 1 744 739
f 1 739 735
f 1 735 731
f 1 731 725
f 1 725 720
f 1 720 715
f 1 715 710
f 1 710 706
f 1 706 702
f 1 702 698
f 1 698 693
f 1 693 689
f 1 689 684
f 1 684 679
f 1 679 675
f 1 675 671
f 1 671 664
f 1 664 660
f 1 660 659
f 1 659 654
f 1 654 649
f 1 649 645
f 1 645 641
f 1 641 636
f 1 636 632
f 1 632 631
f 1 631 626
f 1 626 622
f 1 622 617
f 1 617 612
f 1 612 608
f 1 608 604
f 1 604 599
f 1 599 598
f 1 598 594
f 1 594 590
f 1 590 586
f 1 586 582
f 1 582 578
f 1 578 573
f 1 573 569
f 1 569 565
f 1 565 560
f 1 560 556
f 1 556 552
f 1 552 545
f 1 545 539
f 1 539 535
f 1 535 530
f 1 530 526
f 1 526 521
f 1 521 517
f 1 517 513
f 1 513 509
f 1 509 504
f 1 504 499
f 1 499 498
f 1 498 493
f 1 493 489
f 1 489 485
f 1 485 484
f 1 484 480
f 1 480 479
f 1 479 473
f 1 473 469
f 1 469 464
f 1 464 460
f 1 460 456
f 1 456 452
f 1 452 447
f 1 447 442
f 1 442 438
f 1 438 434
f 1 434 430
f 1 430 424
f 1 424 423
f 1 423 417
f 1 417 412
f 1 412 408
f 1 408 403
f 1 403 402
f 1 402 396
f 1 396 392
f 1 392 388
f 1 388 384
f 1 384 379
f 1 379 374
f 1 374 370
f 1 370 366
f 1 366 362
f 1 362 356
f 1 356 351
f 1 351 346
f 1 346 342
f 1 342 338
f 1 338 332
f 1 332 326
f 1 326 320
f 1 320 316
f 1 316 312
f 1 312 307
f 1 307 303
f 1 303 298
f 1 298 293
f 1 293 289
f 1 289 288
f 1 288 283
f 1 283 279
f 1 279 275
f 1 275 271
f 1 271 266
f 1 266 261
f 1 261 260
f 1 260 256
f 1 256 252
f 1 252 246
f 1 246 241
f 1 241 238
f 1 238 234
f 1 234 229
f 1 229 224
f 1 224 219
f 1 219 215
f 1 215 210
f 1 210 206
f 1 206 201
f 1 201 197
f 1 197 193
f 1 193 189
f 1 189 184
f 1 184 180
f 1 180 174
f 1 174 170
f 1 170 165
f 1 165 161
f 1 161 157
f 1 157 153
f 1 153 149
f 1 149 148
f 1 148 144
f 1 144 140
f 1 140 137
f 1 137 132
f 1 132 131
f 1 131 127
f 1 127 123
f 1 123 119
f 1 119 114
f 1 114 113
f 1 113 112
f 1 112 108
f 1 108 107
f 1 107 103
f 1 103 102
f 1 102 98
f 1 98 92
f 1 92 88
f 1 88 84
f 1 84 80
f 1 80 77
f 1 77 71
f 1 71 67
f 1 67 63
f 1 63 59
f 1 59 55
f 1 55 51
f 1 51 50
f 1 50 46
f 1 46 42
f 1 42 37
f 1 37 33
f 1 33 29
f 1 29 25
f 1 25 21
f 1 21 17
f 1 17 13
f 1 13 8
f 1 8 7
f 1 7 2
f 2 7 3
f 3 7 8
f 3 8 9
f 3 9 14
f 3 14 18
f 3 18 22
f 3 22 26
f 3 26 30
f 3 30 34
f 3 34 38
f 3 38 43
f 3 43 47
f 3 47 52
f 3 52 56
f 3 56 60
f 3 60 64
f 3 64 68
f 3 68 72
f 3 72 76
f 3 76 75
f 3 75 81
f 3 81 85
f 3 85 89
f 3 89 94
f 3 94 99
f 3 99 104
f 3 104 109
f 3 109 115
f 3 115 120
f 3 120 124
f 3 124 128
f 3 128 133
f 3 133 136
f 3 136 141
f 3 141 145
f 3 145 150
f 3 150 154
f 3 154 158
f 3 158 162
f 3 162 166
f 3 166 171
f 3 171 177
f 3 177 176
f 3 176 175
f 3 175 181
f 3 181 185
f 3 185 190
f 3 190 194
f 3 194 198
f 3 198 202
f 3 202 205
f 3 205 209
f 3 209 214
f 3 214 218
f 3 218 223
f 3 223 225
f 3 225 228
f 3 228 233
f 3 233 237
f 3 237 243
f 3 243 249
f 3 249 248
f 3 248 253
f 3 253 257
f 3 257 262
f 3 262 267
f 3 267 272
f 3 272 276
f 3 276 280
f 3 280 284
f 3 284 290
f 3 290 294
f 3 294 300
f 3 300 304
f 3 304 308
f 3 308 311
f 3 311 315
f 3 315 317
f 3 317 322
f 3 322 321
f 3 321 328
f 3 328 327
f 3 327 333
f 3 333 339
f 3 339 343
f 3 343 347
f 3 347 350
f 3 350 355
f 3 355 361
f 3 361 365
f 3 365 369
f 3 369 373
f 3 373 378
f 3 378 383
f 3 383 387
f 3 387 391
f 3 391 395
f 3 395 401
f 3 401 406
f 3 406 407
f 3 407 409
f 3 409 413
f 3 413 416
f 3 416 422
f 3 422 427
f 3 427 426
f 3 426 425
f 3 425 431
f 3 431 435
f 3 435 439
f 3 439 443
f 3 443 448
f 3 448 453
f 3 453 457
f 3 457 461
f 3 461 465
f 3 465 470
f 3 470 475
f 3 475 474
f 3 474 481
f 3 481 486
f 3 486 490
f 3 490 494
f 3 494 501
f 3 501 505
f 3 505 510
f 3 510 514
f 3 514 518
f 3 518 522
f 3 522 525
f 3 525 529
f 3 529 532
f 3 532 531
f 3 531 536
f 3 536 541
f 3 541 546
f 3 546 551
f 3 551 555
f 3 555 559
f 3 559 564
f 3 564 566
f 3 566 570
f 3 570 575
f 3 575 579
f 3 579 583
f 3 583 587
f 3 587 591
f 3 591 595
f 3 595 600
f 3 600 605
f 3 605 609
f 3 609 614
f 3 614 618
f 3 618 619
f 3 619 623
f 3 623 627
f 3 627 633
f 3 633 638
f 3 638 642
f 3 642 646
f 3 646 651
f 3 651 655
f 3 655 661
f 3 661 666
f 3 666 665
f 3 665 670
f 3 670 674
f 3 674 678
f 3 678 680
f 3 680 683
f 3 683 688
f 3 688 692
f 3 692 697
f 3 697 701
f 3 701 703
f 3 703 707
f 3 707 711
f 3 711 714
f 3 714 719
f 3 719 724
f 3 724 726
f 3 726 732
f 3 732 736
f 3 736 740
f 3 740 745
f 3 745 750
f 3 750 754
f 3 754 759
f 3 759 763
f 3 763 767
f 3 767 771
f 3 771 775
f 3 775 780
f 3 780 784
f 3 784 788
f 3 788 792
f 3 792 795
f 3 795 799
f 3 799 801
f 3 801 806
f 3 806 807
f 3 807 802
f 3 802 797
f 3 797 793
f 3 793 789
f 3 789 785
f 3 785 781
f 3 781 776
f 3 776 772
f 3 772 769
f 3 769 765
f 3 765 760
f 3 760 756
f 3 756 755
f 3 755 751
f 3 751 746
f 3 746 742
f 3 742 738
f 3 738 734
f 3 734 730
f 3 730 722
f 3 722 718
f 3 718 712
f 3 712 708
f 3 708 704
f 3 704 699
f 3 699 694
f 3 694 690
f 3 690 685
f 3 685 681
f 3 681 676
f 3 676 672
f 3 672 667
f 3 667 662
f 3 662 657
f 3 657 656
f 3 656 652
f 3 652 647
f 3 647 643
f 3 643 639
f 3 639 634
f 3 634 629
f 3 629 628
f 3 628 624
f 3 624 620
f 3 620 615
f 3 615 610
f 3 610 606
f 3 606 601
f 3 601 596
f 3 596 593
f 3 593 589
f 3 589 585
f 3 585 581
f 3 581 576
f 3 576 571
f 3 571 567
f 3 567 561
f 3 561 557
f 3 557 553
f 3 553 548
f 3 548 542
f 3 542 537
f 3 537 533
f 3 533 527
f 3 527 523
f 3 523 519
f 3 519 515
f 3 515 511
f 3 511 507
f 3 507 506
f 3 506 502
f 3 502 496
f 3 496 495
f 3 495 491
f 3 491 487
f 3 487 482
f 3 482 477
f 3 477 472
f 3 472 467
f 3 467 463
f 3 463 458
f 3 458 454
f 3 454 450
f 3 450 449
f 3 449 444
f 3 444 440
f 3 440 436
f 3 436 432
f 3 432 428
f 3 428 420
f 3 420 419
f 3 419 414
f 3 414 410
f 3 410 404
f 3 404 399
f 3 399 398
f 3 398 393
f 3 393 389
f 3 389 385
f 3 385 381
f 3 381 380
f 3 380 375
f 3 375 371
f 3 371 367
f 3 367 363
f 3 363 359
f 3 359 358
f 3 358 357
f 3 357 352
f 3 352 348
f 3 348 344
f 3 344 340
f 3 340 335
f 3 335 329
f 3 329 324
f 3 324 319
f 3 319 314
f 3 314 310
f 3 310 305
f 3 305 301
f 3 301 296
f 3 296 295
f 3 295 291
f 3 291 286
f 3 286 285
f 3 285 281
f 3 281 277
f 3 277 273
f 3 273 268
f 3 268 263
f 3 263 258
f 3 258 254
f 3 254 250
f 3 250 244
f 3 244 239
f 3 239 235
f 3 235 230
f 3 230 226
f 3 226 221
f 3 221 217
f 3 217 211
f 3 211 207
f 3 207 203
f 3 203 199
f 3 199 195
f 3 195 191
f 3 191 187
f 3 187 183
f 3 183 178
f 3 178 172
f 3 172 167
f 3 167 163
f 3 163 159
f 3 159 155
f 3 155 151
f 3 151 146
f 3 146 142
f 3 142 138
f 3 138 134
f 3 134 129
f 3 129 125
f 3 125 121
f 3 121 117
f 3 117 116
f 3 116 110
f 3 110 105
f 3 105 100
f 3 100 95
f 3 95 90
f 3 90 86
f 3 86 82
f 3 82 78
f 3 78 74
f 3 74 69
f 3 69 65
f 3 65 61
f 3 61 57
f 3 57 53
f 3 53 48
f 3 48 44
f 3 44 40
f 3 40 36
f 3 36 31
f 3 31 27
f 3 27 23
f 3 23 19
f 3 19 15
f 3 15 11
f 3 11 10
f 3 10 5
f 3 5 4
f 5 10 6
f 6 10 11
f 6 11 12
f 8 13 14
f 8 14 9
f 11 15 16
f 11 16 12
f 13 17 14
f 14 17 18
f 15 19 20
f 15 20 16
f 17 21 22
f 17 22 18
f 19 23 20
f 20 23 24
f 21 25 22
f 22 25 26
f 23 27 28
f 23 28 24
f 25 29 30
f 25 30 26
f 27 31 32
f 27 32 28
f 29 33 30
f 30 33 34
f 31 35 32
f 31 36 35
f 33 37 38
f 33 38 34
f 35 36 39
f 36 40 41
f 36 41 39
f 37 42 43
f 37 43 38
f 40 44 45
f 40 45 41
f 42 46 43
f 43 46 47
f 44 48 45
f 45 48 49
f 46 50 47
f 47 50 51
f 47 51 52
f 48 53 54
f 48 54 49
f 51 55 56
f 51 56 52
f 53 57 54
f 54 57 58
f 55 59 60
f 55 60 56
f 57 61 58
f 58 61 62
f 59 63 64
f 59 64 60
f 61 65 66
f 61 66 62
f 63 67 64
f 64 67 68
f 65 69 70
f 65 70 66
f 67 71 72
f 67 72 68
f 69 73 70
f 69 74 73
f 71 75 76
f 71 76 72
f 71 77 75
f 73 74 78
f 73 78 79
f 75 77 80
f 75 80 81
f 78 82 79
f 79 82 83
f 80 84 81
f 81 84 88
f 81 88 85
f 82 86 87
f 82 87 83
f 85 88 89
f 86 90 91
f 86 91 87
f 88 92 89
f 89 93 94
f 89 92 93
f 90 95 96
f 90 96 91
f 91 96 97
f 92 98 93
f 93 98 99
f 93 99 94
f 95 100 96
f 96 100 97
f 97 100 101
f 98 102 99
f 99 102 103
f 99 103 104
f 100 105 101
f 101 105 106
f 103 107 104
f 104 107 108
f 104 108 109
f 105 110 106
f 106 110 116
f 106 116 111
f 108 112 109
f 109 112 113
f 109 113 114
f 109 114 115
f 111 116 117
f 111 117 118
f 114 119 120
f 114 120 115
f 117 121 118
f 118 121 122
f 119 123 124
f 119 124 120
f 121 125 122
f 122 125 126
f 123 127 124
f 124 127 128
f 125 129 126
f 126 129 130
f 127 131 128
f 128 131 132
f 128 132 133
f 129 134 135
f 129 135 130
f 132 136 133
f 132 137 136
f 134 138 139
f 134 139 135
f 136 137 140
f 136 140 141
f 138 142 139
f 139 142 143
f 140 144 141
f 141 144 148
f 141 148 145
f 142 146 143
f 143 146 151
f 143 151 147
f 145 148 149
f 145 149 150
f 147 151 152
f 149 153 150
f 150 153 157
f 150 157 154
f 151 155 152
f 152 155 156
f 154 157 158
f 155 159 160
f 155 160 156
f 157 161 158
f 158 161 162
f 159 163 164
f 159 164 160
f 161 165 166
f 161 166 162
f 163 167 168
f 163 168 164
f 164 168 169
f 165 170 171
f 165 171 166
f 167 172 168
f 168 172 173
f 168 173 169
f 170 174 175
f 170 175 176
f 170 176 177
f 170 177 171
f 172 178 179
f 172 179 173
f 174 180 175
f 175 180 181
f 178 182 179
f 178 183 186
f 178 186 182
f 180 184 185
f 180 185 181
f 183 187 188
f 183 188 186
f 184 189 185
f 185 189 190
f 187 191 188
f 188 191 192
f 189 193 194
f 189 194 190
f 191 195 196
f 191 196 192
f 193 197 198
f 193 198 194
f 195 199 196
f 196 199 200
f 197 201 202
f 197 202 198
f 199 203 204
f 199 204 200
f 201 205 202
f 201 206 209
f 201 209 205
f 203 207 208
f 203 208 204
f 206 210 213
f 206 213 209
f 207 211 216
f 207 216 212
f 207 212 208
f 209 213 214
f 210 215 218
f 210 218 213
f 211 217 220
f 211 220 216
f 213 218 214
f 215 219 218
f 217 221 222
f 217 222 220
f 218 219 223
f 219 224 225
f 219 225 223
f 221 226 227
f 221 227 222
f 224 228 225
f 224 229 233
f 224 233 228
f 226 230 231
f 226 231 232
f 226 232 227
f 229 234 233
f 230 235 231
f 231 235 236
f 231 236 232
f 233 234 237
f 234 238 237
f 235 239 240
f 235 240 236
f 237 238 241
f 237 241 242
f 237 242 243
f 239 244 245
f 239 245 240
f 241 246 242
f 242 246 247
f 242 247 248
f 242 248 249
f 242 249 243
f 244 250 245
f 245 250 251
f 246 252 247
f 247 252 256
f 247 256 253
f 247 253 248
f 250 254 251
f 251 254 255
f 253 256 260
f 253 260 257
f 254 258 255
f 255 258 259
f 257 260 261
f 257 261 262
f 258 263 264
f 258 264 265
f 258 265 259
f 261 266 267
f 261 267 262
f 263 268 269
f 263 269 264
f 264 269 270
f 266 271 272
f 266 272 267
f 268 273 269
f 269 273 274
f 269 274 270
f 271 275 272
f 272 275 279
f 272 279 276
f 273 277 278
f 273 278 274
f 276 279 283
f 276 283 280
f 277 281 282
f 277 282 278
f 280 283 288
f 280 288 284
f 281 285 282
f 282 285 286
f 282 286 287
f 284 288 289
f 284 289 290
f 286 291 287
f 287 291 295
f 287 295 292
f 289 293 290
f 290 293 294
f 292 295 296
f 292 296 297
f 293 298 294
f 294 298 299
f 294 299 300
f 296 301 302
f 296 302 297
f 298 303 304
f 298 304 299
f 299 304 300
f 301 305 306
f 301 306 302
f 303 307 308
f 303 308 304
f 305 309 306
f 305 310 309
f 307 311 308
f 307 312 311
f 309 310 313
f 310 314 313
f 311 312 315
f 312 316 317
f 312 317 315
f 313 314 318
f 314 319 323
f 314 323 318
f 316 320 321
f 316 321 322
f 316 322 317
f 319 324 325
f 319 325 323
f 320 326 327
f 320 327 328
f 320 328 321
f 324 329 330
f 324 330 331
f 324 331 325
f 326 332 327
f 327 332 333
f 329 334 330
f 329 335 336
f 329 336 337
f 329 337 334
f 332 338 339
f 332 339 333
f 335 340 336
f 336 340 341
f 338 342 339
f 339 342 343
f 340 344 341
f 341 344 345
f 342 346 343
f 343 346 347
f 344 348 345
f 345 348 349
f 346 350 347
f 346 351 350
f 348 352 353
f 348 353 354
f 348 354 349
f 350 351 355
f 351 356 355
f 352 357 353
f 353 357 358
f 353 358 359
f 353 359 360
f 353 360 354
f 355 356 361
f 356 362 361
f 359 363 360
f 360 363 364
f 361 362 366
f 361 366 365
f 363 367 364
f 364 367 368
f 365 366 370
f 365 370 369
f 367 371 368
f 368 371 376
f 368 376 372
f 369 370 374
f 369 374 373
f 371 375 376
f 372 376 377
f 373 374 379
f 373 379 378
f 375 380 376
f 376 380 381
f 376 381 377
f 377 381 382
f 378 379 383
f 379 384 383
f 381 385 382
f 382 385 386
f 383 384 387
f 384 388 387
f 385 389 386
f 386 389 390
f 387 388 391
f 388 392 391
f 389 393 390
f 390 393 394
f 391 392 395
f 392 396 397
f 392 397 395
f 393 398 394
f 394 398 399
f 394 399 400
f 395 397 401
f 396 402 397
f 397 402 403
f 397 403 401
f 399 404 400
f 400 404 405
f 401 403 406
f 403 407 406
f 403 408 409
f 403 409 407
f 404 410 411
f 404 411 405
f 408 412 413
f 408 413 409
f 410 414 411
f 411 414 419
f 411 419 415
f 412 416 413
f 412 417 418
f 412 418 416
f 415 420 421
f 415 419 420
f 416 418 422
f 417 423 418
f 418 423 424
f 418 424 425
f 418 425 426
f 418 426 427
f 418 427 422
f 420 428 421
f 421 428 432
f 421 432 429
f 424 430 425
f 425 430 431
f 429 432 433
f 430 434 431
f 431 434 438
f 431 438 435
f 432 436 433
f 433 436 437
f 435 438 439
f 436 440 441
f 436 441 437
f 438 442 439
f 439 442 443
f 440 444 445
f 440 445 446
f 440 446 441
f 442 447 443
f 443 447 448
f 444 449 445
f 445 449 450
f 445 450 451
f 445 451 446
f 447 452 453
f 447 453 448
f 450 454 455
f 450 455 451
f 452 456 457
f 452 457 453
f 454 458 459
f 454 459 455
f 456 460 457
f 457 460 461
f 458 462 459
f 458 463 462
f 460 464 461
f 461 464 465
f 462 463 466
f 463 467 468
f 463 468 466
f 464 469 470
f 464 470 465
f 466 468 467
f 466 467 471
f 467 472 471
f 469 473 474
f 469 474 475
f 469 475 470
f 471 472 476
f 472 477 478
f 472 478 476
f 473 479 474
f 474 479 480
f 474 480 481
f 477 482 478
f 478 482 483
f 480 484 481
f 481 485 486
f 481 484 485
f 482 487 488
f 482 488 483
f 485 489 486
f 486 489 493
f 486 493 490
f 487 491 488
f 488 491 492
f 490 493 494
f 491 495 492
f 492 496 497
f 492 495 496
f 493 498 494
f 494 498 499
f 494 499 500
f 494 500 501
f 496 502 497
f 497 502 503
f 499 504 505
f 499 505 500
f 500 505 501
f 502 506 503
f 503 506 507
f 503 507 508
f 504 509 510
f 504 510 505
f 507 511 512
f 507 512 508
f 509 513 514
f 509 514 510
f 511 515 512
f 512 515 516
f 513 517 514
f 514 517 518
f 515 519 516
f 516 519 520
f 517 521 522
f 517 522 518
f 519 523 520
f 520 523 524
f 521 525 522
f 521 526 525
f 523 527 524
f 524 527 528
f 525 526 529
f 526 530 531
f 526 531 532
f 526 532 529
f 527 533 534
f 527 534 528
f 530 535 536
f 530 536 531
f 533 537 538
f 533 538 534
f 535 539 540
f 535 540 536
f 536 540 541
f 537 542 543
f 537 543 544
f 537 544 538
f 539 545 547
f 539 547 540
f 540 546 541
f 540 547 546
f 542 548 549
f 542 549 550
f 542 550 543
f 545 551 547
f 545 552 551
f 546 547 551
f 548 553 549
f 549 553 554
f 551 552 555
f 552 556 555
f 553 557 558
f 553 558 554
f 555 556 559
f 556 560 559
f 557 561 562
f 557 562 563
f 557 563 558
f 559 560 564
f 560 565 566
f 560 566 564
f 561 567 568
f 561 568 562
f 562 568 563
f 565 569 570
f 565 570 566
f 567 571 568
f 568 571 572
f 569 573 574
f 569 574 570
f 570 574 575
f 571 576 572
f 572 576 577
f 573 578 579
f 573 579 574
f 574 579 575
f 576 580 577
f 576 581 580
f 578 582 583
f 578 583 579
f 580 581 584
f 581 585 588
f 581 588 584
f 582 586 587
f 582 587 583
f 585 589 588
f 586 590 591
f 586 591 587
f 588 589 592
f 589 593 592
f 590 594 591
f 591 594 595
f 592 596 597
f 592 593 596
f 594 598 595
f 595 598 599
f 595 599 600
f 596 601 602
f 596 602 603
f 596 603 597
f 599 604 600
f 600 604 605
f 601 606 602
f 602 606 607
f 602 607 603
f 604 608 605
f 605 608 609
f 606 610 611
f 606 611 607
f 608 612 609
f 609 612 613
f 609 613 614
f 610 615 611
f 611 615 616
f 612 617 613
f 613 618 614
f 613 617 622
f 613 622 619
f 613 619 618
f 615 620 616
f 616 620 624
f 616 624 621
f 619 622 623
f 621 624 628
f 621 628 625
f 622 626 623
f 623 626 631
f 623 631 627
f 625 629 630
f 625 628 629
f 627 631 632
f 627 632 633
f 629 634 635
f 629 635 630
f 632 636 633
f 633 636 637
f 633 637 638
f 634 639 635
f 635 639 640
f 636 641 637
f 637 641 645
f 637 645 642
f 637 642 638
f 639 643 644
f 639 644 640
f 642 645 649
f 642 649 646
f 643 647 644
f 644 647 648
f 646 649 654
f 646 654 650
f 646 650 651
f 647 652 648
f 648 652 656
f 648 656 653
f 650 654 659
f 650 659 655
f 650 655 651
f 653 656 657
f 653 657 658
f 655 659 660
f 655 660 661
f 657 662 658
f 658 662 668
f 658 668 663
f 660 664 665
f 660 665 666
f 660 666 661
f 662 667 668
f 663 668 669
f 664 670 665
f 664 671 674
f 664 674 670
f 667 672 668
f 668 672 669
f 669 672 673
f 671 675 674
f 672 676 673
f 673 676 677
f 674 675 678
f 675 679 680
f 675 680 678
f 676 681 677
f 677 681 682
f 679 683 680
f 679 684 683
f 681 685 682
f 682 685 686
f 683 684 687
f 683 687 688
f 684 689 692
f 684 692 687
f 685 690 691
f 685 691 686
f 687 692 688
f 689 693 696
f 689 696 692
f 690 694 691
f 691 694 695
f 692 696 697
f 693 698 703
f 693 703 701
f 693 701 696
f 694 699 700
f 694 700 695
f 696 701 697
f 698 702 703
f 699 704 709
f 699 709 705
f 699 705 700
f 702 706 707
f 702 707 703
f 704 708 713
f 704 713 709
f 706 710 711
f 706 711 707
f 708 712 713
f 710 714 711
f 710 715 714
f 712 716 717
f 712 717 713
f 712 718 716
f 714 715 719
f 715 720 719
f 716 718 721
f 718 722 723
f 718 723 721
f 719 720 724
f 720 725 726
f 720 726 724
f 722 727 728
f 722 728 729
f 722 729 723
f 722 730 727
f 725 731 732
f 725 732 726
f 727 733 728
f 727 730 734
f 727 734 737
f 727 737 733
f 731 735 736
f 731 736 732
f 734 738 741
f 734 741 737
f 735 739 736
f 736 739 740
f 738 742 743
f 738 743 741
f 739 744 740
f 740 744 745
f 742 746 747
f 742 747 748
f 742 748 743
f 744 749 750
f 744 750 745
f 746 751 747
f 747 751 755
f 747 755 752
f 749 753 750
f 750 753 754
f 752 755 756
f 752 756 757
f 753 758 759
f 753 759 754
f 756 760 761
f 756 761 757
f 758 762 763
f 758 763 759
f 760 764 761
f 760 765 764
f 762 766 763
f 763 766 767
f 764 765 768
f 765 769 768
f 766 770 767
f 767 770 771
f 768 769 772
f 768 772 773
f 770 774 771
f 771 774 775
f 772 776 777
f 772 777 773
f 774 778 775
f 775 778 779
f 775 779 780
f 776 781 782
f 776 782 777
f 779 783 784
f 779 784 780
f 781 785 786
f 781 786 782
f 783 787 788
f 783 788 784
f 785 789 786
f 786 789 790
f 787 791 788
f 788 791 792
f 789 793 794
f 789 794 790
f 791 795 792
f 791 796 795
f 793 797 794
f 794 797 798
f 795 796 799
f 796 800 801
f 796 801 799
f 797 802 798
f 798 802 803
f 800 804 801
f 801 804 805
f 801 805 806
f 802 807 803
f 803 807 808
f 805 808 807
f 805 807 806

