# https://github.com/mikedh/trimesh
v -35.52591944 0.30761349 10.07980273
v -35.52591944 0.30761349 11.32157165
v -35.52591944 0.48828056 10.07980273
v -27.92694761 0.30761349 10.07980273
v -29.62671907 0.30761349 11.32157165
v -29.98955654 0.49804646 12.18464997
v -35.52488825 0.49804646 12.18011679
v -35.52591944 0.48828056 11.32157165
v -35.52282587 0.60058774 11.32157165
v -35.49808886 1.46242487 10.23659598
v -35.50221073 1.30373000 10.07980273
v -27.93622543 0.30761349 10.10967832
v -25.04486295 2.92730264 10.07980273
v -29.90090883 0.49804646 12.18011679
v -35.49705767 1.45998303 12.18464997
v -24.99538603 4.92686044 12.18011679
v -24.99538603 5.23936795 12.18464997
v -35.49808886 1.46242487 11.32157165
v -35.49190460 1.57473205 11.32157165
v -35.44448717 2.43168550 10.07980273
v -35.49705767 1.46242487 10.07980273
v -24.99538603 4.59238001 11.32157165
v -25.04486295 25.19588674 10.07980273
v -35.44448717 2.43168550 12.18464997
v -24.99538603 25.10066953 12.18464997
v -35.43520935 2.54643452 11.32157165
v -35.36511729 3.40582908 11.32157165
v -35.36511729 3.40338797 10.07980273
v -24.99538603 25.24471482 11.32157165
v -25.12423572 25.12020134 10.07980273
v -25.04486295 25.19832568 11.31559595
v -35.36408610 3.40582908 12.18464997
v -24.99538603 25.24471482 12.18011679
v -25.12732640 25.11775950 12.18464997
v -35.25688274 4.37753155 12.18464997
v -35.25688274 4.37753155 11.32157165
v -35.25688274 4.37509044 10.07980273
v -25.17989689 25.06404775 11.32157165
v -25.06754047 25.17635493 11.32157165
v -25.59736724 24.63435083 10.07980273
v -25.59839554 24.63435083 11.32157165
v -25.04486295 25.19832568 11.32157165
v -25.59839554 24.63435083 12.18464997
v -35.14452921 5.19298027 10.07980273
v -35.24142066 4.48983873 11.32157165
v -35.12287998 5.34923402 12.18464997
v -26.08286726 24.12408483 10.07980273
v -26.08389845 24.12408483 11.32157165
v -26.08389845 24.12408483 12.18011679
v -26.08596084 24.12164300 12.18464997
v -35.12287998 5.34923402 10.07980273
v -35.01980138 6.00354603 12.18464997
v -35.01980138 6.00598714 10.23659598
v -26.45292018 23.71635867 10.07980273
v -26.52301513 23.63823287 12.18464997
v -35.01980138 6.00598714 10.07980273
v -34.93115367 6.48939726 12.18464997
v -34.93115367 6.49183838 12.18011679
v -34.94146269 6.43568479 11.32157165
v -26.60135383 23.54789789 10.07980273
v -26.52301513 23.63823287 11.32157165
v -27.00851516 23.08402103 11.32157165
v -27.00954635 23.08157919 12.18011679
v -27.01160873 23.07913735 12.18464997
v -34.93115367 6.49183838 10.07980273
v -34.77138272 7.29019640 12.18464997
v -34.77241391 7.29263824 11.32157165
v -34.79818211 7.16324108 10.07980273
v -27.00851516 23.08402103 10.07980273
v -27.41773887 22.59572868 12.18464997
v -34.55285412 8.26189887 12.18464997
v -34.77241391 7.29263824 10.23659598
v -34.55388531 8.26434071 11.32157165
v -34.77138272 7.29263824 10.07980273
v -27.41670768 22.59572868 10.07980273
v -27.41773887 22.59572868 11.32157165
v -27.84654653 22.06348904 11.32157165
v -27.90117940 21.99512915 12.18464997
v -34.30649783 9.23604318 12.18464997
v -34.55388531 8.26434071 11.20825355
v -34.58893134 8.10564584 10.07980273
v -34.34669692 9.07978870 10.07980273
v -27.90323889 21.99024547 10.07980273
v -27.94756275 21.93653372 11.32157165
v -28.28256964 21.50439496 12.18464997
v -34.09621587 9.98801351 12.18464997
v -34.09724706 9.98801351 11.32157165
v -34.30649783 9.23604318 11.32157165
v -34.55285412 8.26434071 10.07980273
v -34.30649783 9.23360134 10.07980273
v -28.22175251 21.58252075 10.07980273
v -28.28256964 21.50439496 10.07980273
v -28.35472408 21.40673591 10.07980273
v -28.73199244 20.89402808 12.18464997
v -33.95087580 10.47142291 12.18464997
v -34.09724706 9.98801351 10.07980273
v -33.96736618 10.41771115 11.32157165
v -28.73199244 20.89402808 10.07980273
v -29.07730835 20.41794347 11.32157165
v -29.12266339 20.35446581 12.18011679
v -29.12369459 20.35202398 12.18464997
v -33.92407351 10.55443310 11.32157165
v -33.94984461 10.47386474 10.07980273
v -33.72100989 11.17944739 12.18464997
v -29.12163220 20.35446581 10.07980273
v -29.12266339 20.35446581 10.23659598
v -29.16080300 20.29831222 11.32157165
v -29.45045194 19.87105569 12.18464997
v -33.72100989 11.17944739 10.07980273
v -33.38394062 12.15114914 12.18464997
v -33.68287029 11.29419641 11.32157165
v -29.39788435 19.94674109 10.07980273
v -29.45045194 19.87105569 11.32157165
v -29.93801725 19.12885126 12.18464997
v -33.43857349 11.99489611 10.07980273
v -33.35404765 12.23171821 11.32157165
v -33.38394062 12.15114914 10.07980273
v -33.12624412 12.84208365 12.18464997
v -29.93595486 19.13129310 10.07980273
v -29.97203208 19.07513951 11.32157165
v -30.19365136 18.72356838 10.07980273
v -30.24312827 18.64299931 12.18464997
v -33.16747440 12.73221831 10.07980273
v -32.93348663 13.32305193 12.18464997
v -33.12624412 12.84208365 11.32157165
v -30.24312827 18.64299931 10.07980273
v -30.63895229 17.97892212 11.32157165
v -30.63792110 17.97892212 12.18464997
v -33.12624412 12.83964181 10.07980273
v -32.66239043 13.96759876 10.07980273
v -32.89534702 13.41338547 11.32157165
v -32.93245543 13.32305193 10.07980273
v -33.09531997 12.91776905 10.07980273
v -32.60981994 14.09211224 12.18464997
v -30.63895229 17.97892212 10.07980273
v -31.01106759 17.33681713 12.18464997
v -32.60981994 14.09211224 10.07980273
v -32.23564226 14.92465165 12.18464997
v -32.23667345 14.92709349 11.32157165
v -32.56652728 14.18977129 11.32157165
v -31.01209878 17.33193345 10.07980273
v -31.23474635 16.92421018 10.07980273
v -31.27701072 16.84608294 12.18464997
v -32.23667345 14.92709349 10.07980273
v -32.00680754 15.41538584 12.18464997
v -32.03463812 15.35679041 11.32157165
v -31.27701072 16.84608294 10.07980273
v -31.34504329 16.71668579 10.07980273
v -31.69860294 16.03551718 12.18464997
v -32.00783873 15.41294400 10.07980273
v -31.97176151 15.48618756 11.32157165
v -31.69757175 16.03307534 10.07980273
v -31.69860294 16.03551718 11.32157165
v -31.74807985 15.93297590 10.07980273
f 1 2 8
f 1 8 3
f 1 3 11
f 1 11 21
f 1 21 20
f 1 20 28
f 1 28 37
f 1 37 44
f 1 44 51
f 1 51 56
f 1 56 65
f 1 65 68
f 1 68 74
f 1 74 81
f 1 81 89
f 1 89 82
f 1 82 90
f 1 90 96
f 1 96 103
f 1 103 109
f 1 109 115
f 1 115 117
f 1 117 123
f 1 123 129
f 1 129 133
f 1 133 132
f 1 132 130
f 1 130 137
f 1 137 144
f 1 144 150
f 1 150 154
f 1 154 152
f 1 152 148
f 1 148 147
f 1 147 142
f 1 142 141
f 1 141 135
f 1 135 126
f 1 126 121
f 1 121 119
f 1 119 112
f 1 112 105
f 1 105 98
f 1 98 93
f 1 93 92
f 1 92 91
f 1 91 83
f 1 83 75
f 1 75 69
f 1 69 60
f 1 60 54
f 1 54 47
f 1 47 40
f 1 40 30
f 1 30 23
f 1 23 13
f 1 13 4
f 1 4 12
f 1 12 5
f 1 5 2
f 2 5 6
f 2 6 7
f 2 7 8
f 3 8 9
f 3 9 10
f 3 10 11
f 4 13 12
f 5 12 14
f 5 14 6
f 6 15 7
f 6 14 16
f 6 16 17
f 6 17 25
f 6 25 34
f 6 34 43
f 6 43 50
f 6 50 55
f 6 55 64
f 6 64 70
f 6 70 78
f 6 78 85
f 6 85 94
f 6 94 101
f 6 101 108
f 6 108 114
f 6 114 122
f 6 122 128
f 6 128 136
f 6 136 143
f 6 143 149
f 6 149 145
f 6 145 138
f 6 138 134
f 6 134 124
f 6 124 118
f 6 118 110
f 6 110 104
f 6 104 95
f 6 95 86
f 6 86 79
f 6 79 71
f 6 71 66
f 6 66 57
f 6 57 52
f 6 52 46
f 6 46 35
f 6 35 32
f 6 32 24
f 6 24 15
f 7 15 18
f 7 18 9
f 7 9 8
f 9 18 10
f 10 18 19
f 10 19 20
f 10 20 21
f 10 21 11
f 12 13 16
f 12 16 14
f 13 22 16
f 13 23 29
f 13 29 22
f 15 24 18
f 16 22 29
f 16 29 33
f 16 33 25
f 16 25 17
f 18 24 19
f 19 24 20
f 20 24 26
f 20 26 27
f 20 27 28
f 23 30 31
f 23 31 29
f 24 32 27
f 24 27 26
f 25 33 34
f 27 32 35
f 27 35 36
f 27 36 37
f 27 37 28
f 29 31 42
f 29 42 33
f 30 38 34
f 30 34 39
f 30 39 31
f 30 40 41
f 30 41 38
f 31 39 42
f 33 42 34
f 34 42 39
f 34 38 43
f 35 44 45
f 35 45 36
f 35 46 44
f 36 45 44
f 36 44 37
f 38 41 43
f 40 47 48
f 40 48 41
f 41 48 49
f 41 49 43
f 43 49 50
f 44 46 51
f 46 52 53
f 46 53 56
f 46 56 51
f 47 54 48
f 48 54 49
f 49 54 55
f 49 55 50
f 52 57 58
f 52 58 53
f 53 58 59
f 53 59 56
f 54 60 61
f 54 61 55
f 55 61 69
f 55 69 62
f 55 62 63
f 55 63 64
f 56 59 65
f 57 66 58
f 58 65 59
f 58 66 67
f 58 67 68
f 58 68 65
f 60 69 61
f 62 69 76
f 62 76 70
f 62 70 64
f 62 64 63
f 66 71 73
f 66 73 67
f 67 72 68
f 67 73 80
f 67 80 72
f 68 72 74
f 69 75 76
f 70 76 77
f 70 77 78
f 71 79 73
f 72 80 81
f 72 81 74
f 73 79 82
f 73 82 80
f 75 83 77
f 75 77 76
f 77 83 84
f 77 84 78
f 78 84 85
f 79 86 87
f 79 87 96
f 79 96 88
f 79 88 82
f 80 82 89
f 80 89 81
f 82 88 90
f 83 91 84
f 84 91 92
f 84 92 85
f 85 92 93
f 85 93 94
f 86 95 87
f 87 95 97
f 87 97 96
f 88 96 90
f 93 98 94
f 94 98 99
f 94 99 100
f 94 100 101
f 95 102 103
f 95 103 97
f 95 104 102
f 96 97 103
f 98 105 106
f 98 106 99
f 99 106 100
f 100 106 107
f 100 107 108
f 100 108 101
f 102 104 109
f 102 109 103
f 104 110 111
f 104 111 109
f 105 112 106
f 106 112 113
f 106 113 107
f 107 113 108
f 108 113 114
f 109 111 115
f 110 116 117
f 110 117 115
f 110 115 111
f 110 118 116
f 112 119 113
f 113 119 114
f 114 119 120
f 114 120 121
f 114 121 122
f 116 123 117
f 116 118 123
f 118 124 125
f 118 125 123
f 119 121 120
f 121 126 122
f 122 126 135
f 122 135 127
f 122 127 128
f 123 125 129
f 124 130 131
f 124 131 132
f 124 132 133
f 124 133 125
f 124 134 130
f 125 133 129
f 127 135 136
f 127 136 128
f 130 132 131
f 130 134 137
f 134 138 139
f 134 139 140
f 134 140 137
f 135 141 136
f 136 141 142
f 136 142 143
f 137 140 144
f 138 145 139
f 139 146 144
f 139 144 140
f 139 145 146
f 142 147 143
f 143 147 148
f 143 148 149
f 144 146 150
f 145 151 150
f 145 150 146
f 145 149 151
f 148 152 153
f 148 153 149
f 149 153 151
f 150 151 153
f 150 153 154
f 152 154 153

