# https://github.com/mikedh/trimesh
v 14.08940201 7.94265965 87.37191885
v 14.05713238 7.94265965 87.37191885
v 14.59826026 7.87640994 87.37191885
v 15.35038122 6.89247221 79.61691268
v 13.54579030 7.81997393 87.37191885
v 14.65038757 7.86904822 87.37191885
v 15.59115864 6.85811992 79.61691268
v 14.82910957 6.68390648 79.61691268
v 13.14366616 7.48136221 87.37191885
v 14.81421667 6.67654621 79.61691268
v 14.16635033 6.23487762 79.61691268
v 15.39506135 6.47779563 87.37191885
v 15.68796609 6.68390648 79.61691268
v 12.91530069 7.26543621 87.37191885
v 5.25013781 -2.33347433 79.61691268
v 15.53903133 6.16862791 87.37191885
v 16.04292480 5.94288641 79.61691268
v 15.86172185 6.32321105 79.61691268
v -6.14086988 -13.29419346 79.61691268
v 7.32281028 1.86482237 87.37191885
v 15.61349726 5.98950727 87.37191885
v 15.62342682 6.01649784 87.01890087
v 16.27377410 5.34172783 79.61691268
v -7.12632036 -14.25114063 79.61691268
v 0.45941109 -4.79945222 87.37191885
v 15.83938179 5.33682026 87.37191885
v 15.89150910 5.33927440 86.47229406
v 15.67555413 5.86927570 87.01890087
v 15.97094126 5.33927440 85.07464433
v 16.47483617 4.68904154 79.61691268
v -7.28766562 -15.05104978 79.61691268
v -8.23588242 -13.45368490 87.37191885
v -8.14652214 -13.22548888 87.37191885
v -7.97772971 -13.02919318 87.37191885
v -7.37206257 -12.42803460 87.37191885
v -1.49907792 -6.70598410 87.37191885
v 15.94611735 4.98839412 87.37191885
v 16.02058617 4.91723611 86.47229406
v 16.20923629 4.37005939 86.04715350
v 16.26881077 4.37005939 84.96228790
v 16.53689159 3.93820595 82.16015824
v 16.60391180 4.20075281 79.61691268
v -8.13162780 -14.44498290 87.37191885
v -8.23588242 -14.11863976 87.37191885
v -6.96249198 -15.63748491 79.61691268
v 16.13476891 4.36760525 87.37191885
v 16.54185638 3.01070423 85.68806134
v 16.78511619 3.39593681 79.61691268
v 16.45497849 3.57751124 85.07464433
v -7.91319044 -14.66827062 87.37191885
v -6.73909057 -15.74054178 79.61691268
v -6.47349069 -15.41419864 87.37191885
v -7.28518396 -15.02160434 87.37191885
v 16.36561822 3.39348266 87.37191885
v 16.67093345 2.42672108 84.96228790
v 16.86951168 2.42672108 81.18841087
v 16.95142623 2.42672108 79.61691268
v 16.84965400 3.02788038 79.61691268
v 16.45001371 3.44255695 85.68882025
v 16.42270886 3.36649209 86.47229406
v 16.50958819 2.93709280 86.47229406
v 16.52199870 2.87084309 86.47229406
v -6.31462710 -15.92211549 79.61691268
v -5.98697106 -15.61294921 87.37191885
v 16.49221146 2.74079637 87.37191885
v 16.62377093 2.48070294 85.68882025
v 16.58653651 2.44144380 86.47229406
v 16.56171405 2.25496179 87.37191885
v 16.78263380 1.45750643 84.96228790
v 17.06312658 1.45750643 79.61691268
v -5.33662379 -16.27299578 79.61691268
v -5.34158857 -15.97364320 84.96228790
v -5.34158857 -15.83869036 87.37191885
v 16.65355672 1.45014507 87.37191885
v 16.78015141 0.84162513 85.68806134
v 17.12270106 0.48338385 79.61691268
v -4.68875890 -16.47665465 79.61691268
v -4.36854931 -16.13558806 87.37191885
v 16.70816642 0.47847627 87.37191885
v 16.75781134 0.48093006 86.47229406
v 16.80000909 0.48338385 85.68806134
v 16.98121347 0.47847627 82.28846048
v 17.12021867 -0.48828495 79.61691268
v 16.98121347 0.35333713 82.28846048
v 16.91171088 -0.49073874 83.59348836
v -4.20472166 -16.60424722 79.61691268
v -3.94160417 -16.53554264 82.16015824
v -4.36854931 -16.26808893 84.96228790
v -3.88699447 -16.52082064 82.66880793
v -3.39799318 -16.36869093 87.37191885
v 16.70816642 -0.49073874 87.37191885
v 16.75781134 -0.49073874 86.47229406
v 16.80000909 -0.10059895 85.70704279
v 16.80000909 0.48093006 85.68882025
v 16.91171088 0.47847627 83.59348836
v 17.06312658 -1.45995411 79.61691268
v 16.97376630 -0.62078546 82.28770157
v 16.80000909 -0.48828495 85.68806134
v 16.78263380 -1.45995411 84.96228790
v -3.39551078 -16.78582092 79.61691268
v -3.09019482 -16.55762636 85.07464433
v -3.23912958 -16.49383007 85.68806134
v -2.93381362 -16.51346037 86.47229406
v -2.90154471 -16.51836721 86.50265918
v -2.74019872 -16.49383007 87.37191885
v 16.65355672 -1.46486132 87.37191885
v 16.86951168 -2.43162273 81.18841087
v 16.95142623 -2.43162273 79.61691268
v 16.62625332 -1.71513961 87.37191885
v 16.67341585 -2.38009483 85.02377994
v -2.42743631 -16.95512751 79.61691268
v -2.42743631 -16.87170093 81.18841087
v -2.42743631 -16.81281149 82.28770157
v -2.25616149 -16.56498808 87.37191885
v 16.49221146 -2.75551244 87.37191885
v 16.51455153 -2.91009613 86.50190027
v 16.53937398 -3.01805930 85.68806134
v 16.78511619 -3.41310649 79.61691268
v 16.56171405 -2.26722426 87.37191885
v -1.45439742 -17.06799808 79.61691268
v -1.45439742 -16.77846065 85.07464433
v -1.45439742 -16.67295035 87.01890087
v -1.45439742 -16.65332151 87.37191885
v 16.44008415 -3.03032788 87.37191885
v 16.36561822 -3.40819891 87.37191885
v 16.55923311 -3.11375391 84.96228790
v 16.64859339 -3.41310649 82.16015824
v 16.53192681 -3.60449570 83.59348836
v 16.51951631 -3.89894107 82.66577229
v 16.53192681 -3.93329263 82.28846048
v 16.72306076 -3.69528292 79.61691268
v -0.48135853 -17.11952579 79.61691268
v -0.48135853 -16.97966465 82.28770157
v -0.48135853 -16.80054292 85.68882025
v -0.48384092 -16.72938636 87.01890087
v -0.48384092 -16.70975607 87.37191885
v 16.13476891 -4.37986771 87.37191885
v 16.26881077 -4.37986771 84.96228790
v 16.40533357 -4.41912721 82.28770157
v 16.60391180 -4.21056185 79.61691268
v 0.49416239 -17.12443264 79.61691268
v -0.04696621 -16.98947835 82.16015824
v 0.49168036 -16.84225693 84.96228790
v 0.48919797 -16.76128378 86.47229406
v 0.48919797 -16.70975607 87.37191885
v 15.83938179 -5.34417551 87.37191885
v 15.89150910 -5.34417551 86.47229406
v 16.47483617 -4.69148886 79.61691268
v 1.46471907 -17.06799808 79.61691268
v 1.46223686 -16.78582092 84.96228790
v 0.91366145 -16.73674664 86.47229406
v 0.82926523 -16.69012722 87.37191885
v 15.61101487 -5.98704738 87.37191885
v 16.27129171 -5.33926830 79.61691268
v 16.39043923 -4.96630429 79.61691268
v 2.43775778 -16.95512751 79.61691268
v 2.43775778 -16.81526637 82.28770157
v 1.84201984 -16.66068178 86.47229406
v 1.45975447 -16.70239579 86.47229406
v 1.46471907 -16.65086808 87.37191885
v 15.40995425 -6.47288195 87.37191885
v 15.44967105 -6.57103053 86.04715350
v 15.47945685 -6.63973366 85.07464433
v 15.63583878 -6.05329745 86.47229406
v 15.77732636 -6.31339052 82.16015824
v 16.13476891 -5.71713952 79.61691268
v 3.41079667 -16.78582092 79.61691268
v 3.41079667 -16.75637693 80.21742242
v 3.12037433 -16.56253465 84.96228790
v 2.87711470 -16.52572894 86.47229406
v 2.45265122 -16.58707180 86.47229406
v 2.26648314 -16.56253465 87.37191885
v 1.71542551 -16.62387606 87.37191885
v 15.04009975 -7.28505968 87.37191885
v 15.56136995 -6.82866982 82.28770157
v 15.25357377 -7.04704996 85.68806134
v 15.81704172 -6.55876196 79.61691268
v 15.91633156 -6.31339052 79.61691268
v 3.69377220 -16.72447951 79.61691268
v 3.95440766 -16.53799751 82.16015824
v 3.94696085 -16.53308921 82.28770157
v 3.41079667 -16.70484922 81.18841087
v 3.40583225 -16.36869093 87.37191885
v 2.95406429 -16.51100549 86.47229406
v 3.90476275 -16.52082064 82.68323303
v 3.03349590 -16.43984893 87.37191885
v 2.75300258 -16.49137665 87.37191885
v 15.39257896 -7.44209696 80.21742242
v 15.21633936 -7.21880924 84.96228790
v 14.69010293 -7.97700511 87.37191885
v 15.49683358 -7.29487483 79.61691268
v 15.63832117 -6.99061468 79.61691268
v 4.21752516 -16.60424722 79.61691268
v 4.70404478 -16.47665465 79.61691268
v 4.37887114 -16.27054235 84.96228790
v 4.37638875 -16.18466235 86.47229406
v 4.37390672 -16.13313464 87.37191885
v 14.81669906 -8.00890397 84.96228790
v 15.00286678 -8.25918226 79.61691268
v 15.40747186 -7.47890268 79.61691268
v 14.51386477 -8.28862626 87.37191885
v 14.46670224 -8.55853484 85.68806134
v 14.48655992 -8.59043298 85.07464433
v 14.60818982 -8.79899798 81.18841087
v 14.73974784 -8.07270026 85.68806134
v 4.96964466 -16.39322807 79.61691268
v 5.34198083 -16.05216293 83.59348836
v 5.34198083 -15.83869036 87.37191885
v 14.90854173 -8.25918226 81.18841087
v 14.80180472 -8.33279369 82.28770157
v 14.65535235 -8.87015599 79.61691268
v 14.41209254 -8.46283969 87.37191885
v 14.42450449 -8.48246998 87.01890087
v 14.23585438 -8.74256269 87.37191885
v 14.03727470 -9.23085142 85.68806134
v 14.34258994 -9.36335084 79.61691268
v 14.46421985 -9.17441541 79.61691268
v 14.08443723 -9.23085142 84.96228790
v 5.34446322 -16.27299578 79.61691268
v 5.63736759 -15.78716120 86.47229406
v 5.98736369 -15.61049434 87.37191885
v 13.88833995 -9.28483256 87.37191885
v 13.88337516 -9.32163827 87.10393072
v 13.68479549 -9.59645371 87.37191885
v 13.65997448 -9.79275086 85.68806134
v 13.77167337 -9.94488057 82.28770157
v 13.85855271 -10.06265799 79.61691268
v 6.31501972 -15.92211549 79.61691268
v 6.32494856 -15.76753235 82.28770157
v 6.10651121 -15.65956863 85.68806134
v 6.63522858 -15.48044835 85.07464433
v 6.47388332 -15.41174376 87.37191885
v 13.51352211 -9.83446342 87.37191885
v 13.63266818 -9.75839857 86.47229406
v 13.40678510 -10.43316857 82.28770157
v 13.49614538 -10.55094599 79.61691268
v 13.63515057 -10.36446471 79.61691268
v 6.56324359 -15.82151349 79.61691268
v 6.83877304 -15.56632835 82.16015824
v 7.28805825 -15.03878121 87.37191885
v 13.27770802 -10.14363114 87.37191885
v 13.30997765 -10.30802943 85.07464433
v 13.13870283 -10.32275143 87.37191885
v 12.74650826 -10.82085458 87.37191885
v 12.95998083 -11.06867944 81.18841087
v 13.30997765 -10.77423371 79.61691268
v 7.00011830 -15.63748491 79.61691268
v 6.96288461 -15.62276291 80.21742242
v 7.30791665 -15.33567891 82.28770157
v 7.28557659 -15.14183663 85.68806134
v 7.48415554 -15.40929034 79.61691268
v 7.99798001 -14.70016804 87.01890087
v 7.97812234 -14.68789947 87.37191885
v 12.30467022 -11.30423573 87.37191885
v 12.36672564 -11.37539229 85.68882025
v 12.57026865 -11.59131974 80.21742242
v 12.75395543 -11.42937488 79.61691268
v 7.29798782 -15.49762377 79.61691268
v 8.25861512 -15.00197549 79.61691268
v 8.33060010 -14.80322491 82.28770157
v 8.28840236 -14.51368749 87.37191885
v 12.12843061 -11.49317116 87.37191885
v 12.43126346 -11.57659629 82.28770157
v 11.83304349 -11.83178288 87.01890087
v 12.08374975 -12.08696801 80.21742242
v 12.59012778 -11.61585688 79.61691268
v 8.48449964 -14.87683635 79.61691268
v 8.79477966 -14.60692776 81.18841087
v 8.51428616 -14.44007605 86.47229406
v 8.46464124 -14.41063061 87.37191885
v 11.81814987 -11.81951430 87.37191885
v 11.57737244 -12.43294145 82.28770157
v 11.61957092 -12.59243289 79.61691268
v 11.80822103 -12.40840431 79.61691268
v 8.87172943 -14.65354863 79.61691268
v 9.17207989 -14.46215833 79.61691268
v 8.98839455 -14.41308404 82.28770157
v 8.74761713 -14.23396376 87.37191885
v 11.49297623 -12.12868203 87.37191885
v 11.35893509 -12.35687660 86.04715350
v 11.51035224 -12.49673774 82.28770157
v 11.44829609 -12.55317375 82.28770157
v 10.91957872 -12.82798918 84.96152899
v 11.13305129 -13.01201631 79.61691268
v 9.35824833 -14.34192748 79.61691268
v 9.22917198 -14.08428747 84.96228790
v 9.28874501 -13.88799032 87.37191885
v 11.30680851 -12.30289546 87.37191885
v 11.32170140 -12.31761746 87.01890087
v 11.13056890 -12.53354345 86.47229406
v 10.52242009 -13.47331375 80.21742242
v 10.77312635 -13.30891546 79.61691268
v 10.81780649 -12.74210918 87.37191885
v 10.43057670 -13.40706404 82.28770157
v 10.06072292 -13.85854632 79.61691268
v 10.03590046 -13.83891748 80.21742242
v 9.94405707 -13.77266632 82.28770157
v 9.76037174 -13.63525860 86.47229406
v 9.58909692 -13.69414804 87.37191885
v 11.12808651 -12.46484032 87.37191885
v 10.54724255 -13.49294404 79.61691268
v 10.36107410 -13.63525860 79.61691268
v 10.32135802 -13.13961033 87.37191885
v 10.20965695 -13.29174004 86.47229406
v 9.84476723 -13.50766604 87.37191885
v 9.74299573 -13.62053661 86.84960587
f 1 2 5
f 1 5 9
f 1 9 14
f 1 14 20
f 1 20 25
f 1 25 36
f 1 36 35
f 1 35 34
f 1 34 33
f 1 33 32
f 1 32 44
f 1 44 43
f 1 43 50
f 1 50 53
f 1 53 52
f 1 52 64
f 1 64 73
f 1 73 78
f 1 78 90
f 1 90 105
f 1 105 114
f 1 114 123
f 1 123 136
f 1 136 145
f 1 145 152
f 1 152 160
f 1 160 173
f 1 173 172
f 1 172 187
f 1 187 186
f 1 186 183
f 1 183 197
f 1 197 208
f 1 208 221
f 1 221 232
f 1 232 240
f 1 240 253
f 1 253 261
f 1 261 270
f 1 270 278
f 1 278 287
f 1 287 299
f 1 299 305
f 1 305 303
f 1 303 293
f 1 293 300
f 1 300 288
f 1 288 279
f 1 279 271
f 1 271 262
f 1 262 254
f 1 254 244
f 1 244 243
f 1 243 241
f 1 241 233
f 1 233 224
f 1 224 222
f 1 222 214
f 1 214 212
f 1 212 201
f 1 201 190
f 1 190 174
f 1 174 161
f 1 161 153
f 1 153 146
f 1 146 137
f 1 137 125
f 1 125 124
f 1 124 115
f 1 115 119
f 1 119 109
f 1 109 106
f 1 106 91
f 1 91 79
f 1 79 74
f 1 74 68
f 1 68 65
f 1 65 54
f 1 54 46
f 1 46 37
f 1 37 26
f 1 26 21
f 1 21 16
f 1 16 12
f 1 12 6
f 1 6 3
f 1 3 4
f 1 4 2
f 2 4 5
f 3 6 4
f 4 7 13
f 4 13 18
f 4 18 17
f 4 17 23
f 4 23 30
f 4 30 42
f 4 42 48
f 4 48 58
f 4 58 57
f 4 57 70
f 4 70 76
f 4 76 83
f 4 83 96
f 4 96 108
f 4 108 118
f 4 118 131
f 4 131 140
f 4 140 148
f 4 148 155
f 4 155 154
f 4 154 166
f 4 166 178
f 4 178 177
f 4 177 192
f 4 192 191
f 4 191 200
f 4 200 199
f 4 199 211
f 4 211 217
f 4 217 216
f 4 216 227
f 4 227 237
f 4 237 236
f 4 236 246
f 4 246 257
f 4 257 266
f 4 266 274
f 4 274 273
f 4 273 284
f 4 284 292
f 4 292 301
f 4 301 302
f 4 302 295
f 4 295 285
f 4 285 276
f 4 276 275
f 4 275 267
f 4 267 259
f 4 259 251
f 4 251 258
f 4 258 247
f 4 247 238
f 4 238 228
f 4 228 219
f 4 219 206
f 4 206 194
f 4 194 193
f 4 193 179
f 4 179 167
f 4 167 156
f 4 156 149
f 4 149 141
f 4 141 132
f 4 132 120
f 4 120 111
f 4 111 100
f 4 100 86
f 4 86 77
f 4 77 71
f 4 71 63
f 4 63 51
f 4 51 45
f 4 45 31
f 4 31 24
f 4 24 19
f 4 19 15
f 4 15 11
f 4 11 10
f 4 10 8
f 4 8 5
f 4 6 7
f 5 8 10
f 5 10 11
f 5 11 9
f 6 12 13
f 6 13 7
f 9 11 14
f 11 15 14
f 12 16 17
f 12 17 18
f 12 18 13
f 14 15 19
f 14 19 20
f 16 21 22
f 16 22 17
f 17 22 23
f 19 24 25
f 19 25 20
f 21 26 27
f 21 27 28
f 21 28 29
f 21 29 23
f 21 23 22
f 23 29 30
f 24 31 32
f 24 32 33
f 24 33 34
f 24 34 35
f 24 35 36
f 24 36 25
f 26 37 27
f 27 37 38
f 27 38 29
f 27 29 28
f 29 38 30
f 30 38 39
f 30 39 40
f 30 40 41
f 30 41 42
f 31 43 44
f 31 44 32
f 31 45 43
f 37 46 38
f 38 46 39
f 39 46 41
f 39 41 40
f 41 47 48
f 41 48 42
f 41 46 49
f 41 49 47
f 43 45 50
f 45 51 52
f 45 52 53
f 45 53 50
f 46 54 49
f 47 55 56
f 47 56 57
f 47 57 58
f 47 58 48
f 47 49 59
f 47 59 60
f 47 60 54
f 47 54 61
f 47 61 62
f 47 62 55
f 49 54 60
f 49 60 59
f 51 63 52
f 52 63 64
f 54 65 61
f 55 62 66
f 55 66 67
f 55 67 68
f 55 68 69
f 55 69 56
f 56 69 70
f 56 70 57
f 61 65 62
f 62 65 66
f 63 71 64
f 64 71 72
f 64 72 73
f 65 68 67
f 65 67 66
f 68 74 69
f 69 75 76
f 69 76 70
f 69 74 75
f 71 77 72
f 72 77 73
f 73 77 78
f 74 79 80
f 74 80 75
f 75 80 81
f 75 81 82
f 75 82 76
f 76 82 84
f 76 84 85
f 76 85 83
f 77 86 87
f 77 87 88
f 77 88 78
f 78 88 87
f 78 87 89
f 78 89 90
f 79 91 92
f 79 92 80
f 80 92 93
f 80 93 94
f 80 94 81
f 81 94 95
f 81 95 82
f 82 95 93
f 82 93 84
f 83 85 97
f 83 97 96
f 84 93 85
f 85 93 98
f 85 98 99
f 85 99 97
f 86 100 87
f 87 100 89
f 89 100 101
f 89 101 102
f 89 102 90
f 90 102 103
f 90 103 104
f 90 104 105
f 91 106 92
f 92 98 93
f 92 106 98
f 93 95 94
f 96 107 108
f 96 97 99
f 96 99 107
f 98 106 99
f 99 106 109
f 99 109 110
f 99 110 107
f 100 111 104
f 100 104 101
f 101 104 103
f 101 103 102
f 104 111 112
f 104 112 113
f 104 113 114
f 104 114 105
f 107 110 115
f 107 115 116
f 107 116 117
f 107 117 108
f 108 117 118
f 109 119 110
f 110 119 115
f 111 120 114
f 111 114 112
f 112 114 113
f 114 120 121
f 114 121 122
f 114 122 123
f 115 124 116
f 116 124 125
f 116 125 117
f 117 126 118
f 117 125 126
f 118 126 127
f 118 127 128
f 118 128 129
f 118 129 130
f 118 130 131
f 120 132 133
f 120 133 134
f 120 134 121
f 121 134 135
f 121 135 122
f 122 135 136
f 122 136 123
f 125 137 129
f 125 129 128
f 125 128 126
f 126 128 127
f 129 137 130
f 130 137 138
f 130 138 139
f 130 139 140
f 130 140 131
f 132 141 142
f 132 142 133
f 133 142 134
f 134 142 143
f 134 143 135
f 135 143 144
f 135 144 136
f 136 144 145
f 137 146 147
f 137 147 148
f 137 148 138
f 138 148 139
f 139 148 140
f 141 149 150
f 141 150 143
f 141 143 142
f 143 150 151
f 143 151 144
f 144 151 152
f 144 152 145
f 146 153 147
f 147 154 155
f 147 155 148
f 147 153 154
f 149 156 157
f 149 157 150
f 150 157 158
f 150 158 159
f 150 159 151
f 151 159 160
f 151 160 152
f 153 161 162
f 153 162 163
f 153 163 164
f 153 164 165
f 153 165 166
f 153 166 154
f 156 167 168
f 156 168 169
f 156 169 170
f 156 170 157
f 157 171 172
f 157 172 158
f 157 170 171
f 158 172 173
f 158 173 159
f 159 173 160
f 161 174 162
f 162 174 163
f 163 175 165
f 163 165 164
f 163 174 176
f 163 176 175
f 165 177 178
f 165 178 166
f 165 175 177
f 167 179 168
f 168 179 180
f 168 180 181
f 168 181 182
f 168 182 169
f 169 183 184
f 169 184 170
f 169 182 185
f 169 185 183
f 170 184 183
f 170 183 186
f 170 186 187
f 170 187 172
f 170 172 171
f 174 188 189
f 174 189 175
f 174 175 176
f 174 190 188
f 175 189 188
f 175 188 191
f 175 191 192
f 175 192 177
f 179 193 180
f 180 193 194
f 180 194 181
f 181 194 195
f 181 195 196
f 181 196 185
f 181 185 182
f 183 185 197
f 185 196 197
f 188 190 198
f 188 198 199
f 188 199 200
f 188 200 191
f 190 201 202
f 190 202 203
f 190 203 204
f 190 204 205
f 190 205 199
f 190 199 198
f 194 206 207
f 194 207 208
f 194 208 195
f 195 208 196
f 196 208 197
f 199 205 209
f 199 209 210
f 199 210 204
f 199 204 211
f 201 212 213
f 201 213 202
f 202 213 214
f 202 214 215
f 202 215 203
f 203 215 204
f 204 216 217
f 204 217 211
f 204 210 205
f 204 215 218
f 204 218 216
f 205 210 209
f 206 219 207
f 207 219 220
f 207 220 208
f 208 220 221
f 212 214 213
f 214 222 223
f 214 223 215
f 215 223 224
f 215 224 218
f 216 218 224
f 216 224 225
f 216 225 226
f 216 226 227
f 219 228 220
f 220 228 221
f 221 228 229
f 221 229 230
f 221 230 231
f 221 231 232
f 222 224 223
f 224 233 234
f 224 234 225
f 225 234 235
f 225 235 236
f 225 236 226
f 226 236 237
f 226 237 227
f 228 238 229
f 229 238 239
f 229 239 231
f 229 231 230
f 231 239 240
f 231 240 232
f 233 241 235
f 233 235 234
f 235 241 242
f 235 242 243
f 235 243 244
f 235 244 236
f 236 244 245
f 236 245 246
f 238 247 248
f 238 248 239
f 239 248 249
f 239 249 250
f 239 250 240
f 240 250 251
f 240 251 252
f 240 252 253
f 241 243 242
f 244 254 255
f 244 255 256
f 244 256 257
f 244 257 245
f 245 257 246
f 247 258 248
f 248 258 251
f 248 251 249
f 249 251 250
f 251 259 252
f 252 259 260
f 252 260 261
f 252 261 253
f 254 262 255
f 255 262 263
f 255 263 256
f 256 263 264
f 256 264 265
f 256 265 266
f 256 266 257
f 259 267 260
f 260 267 268
f 260 268 261
f 261 268 269
f 261 269 270
f 262 271 264
f 262 264 263
f 264 271 272
f 264 272 273
f 264 273 274
f 264 274 265
f 265 274 266
f 267 275 268
f 268 275 276
f 268 276 277
f 268 277 269
f 269 277 278
f 269 278 270
f 271 279 280
f 271 280 272
f 272 280 281
f 272 281 273
f 273 281 282
f 273 282 283
f 273 283 284
f 276 285 277
f 277 285 286
f 277 286 278
f 278 286 287
f 279 288 289
f 279 289 280
f 280 289 290
f 280 290 281
f 281 290 282
f 282 290 283
f 283 291 292
f 283 292 284
f 283 290 293
f 283 293 294
f 283 294 291
f 285 295 296
f 285 296 297
f 285 297 298
f 285 298 299
f 285 299 286
f 286 299 287
f 288 300 289
f 289 300 290
f 290 300 293
f 291 301 292
f 291 294 302
f 291 302 301
f 293 303 294
f 294 303 304
f 294 304 298
f 294 298 302
f 295 302 296
f 296 302 297
f 297 302 298
f 298 304 305
f 298 305 306
f 298 306 299
f 299 306 305
f 303 305 304

