# https://github.com/mikedh/trimesh
v 15.27562418 3.74730916 12.18473397
v 21.82719511 3.74730916 12.18473397
v 15.27562418 3.74730916 13.00402142
v 15.27562418 32.07851939 12.18473397
v 24.99215500 4.92315424 12.18473397
v 21.82719511 3.74730916 13.00402142
v 15.27562418 32.07574734 13.00402142
v 15.34506884 32.04524029 13.00402142
v 15.41926973 32.00918914 12.18473397
v 24.99215500 4.92315424 13.00402142
v 24.99215500 25.24808067 12.18473397
v 15.41926973 32.00918914 13.00402142
v 16.03665944 31.70136110 13.00402142
v 16.03475782 31.70136110 12.18473397
v 24.99215500 25.24808067 13.00402142
v 24.63827094 25.59195987 12.18473397
v 24.63637076 25.59473192 13.00402142
v 16.16128009 31.63757785 13.00402142
v 16.85287068 31.27706055 12.18473397
v 24.12362093 26.08004656 12.18473397
v 24.12362093 26.08004656 13.00402142
v 16.85096906 31.27706055 13.00402142
v 17.33708027 31.01360271 13.00402142
v 17.33612873 31.01360271 12.18473397
v 23.63941134 26.51821605 12.18473397
v 23.63750972 26.51821605 13.00402142
v 17.98110716 30.63921937 13.00402142
v 17.97825400 30.64199142 12.18473397
v 23.08290394 27.00352779 12.18473397
v 23.16756882 26.93142259 13.00402142
v 18.64796509 30.23987597 13.00402142
v 18.64986816 30.23987597 12.18473397
v 23.00870305 27.06731104 13.00402142
v 22.59869435 27.41119023 12.18473397
v 19.05987685 29.98196513 13.00402142
v 19.13407774 29.93481998 12.18473397
v 22.59679273 27.41119023 13.00402142
v 21.99081710 27.89927692 12.18473397
v 21.99081710 27.89927692 13.00402142
v 19.13407774 29.93481998 13.00402142
v 19.87133187 29.44950824 13.00402142
v 19.87323349 29.44673619 12.18473397
v 21.50280283 28.28198221 12.18473397
v 21.91661621 27.95751607 13.00402142
v 20.35649154 29.11949510 12.18473397
v 20.35649154 29.11949510 13.00402142
v 21.50565598 28.27920727 13.00402142
v 20.89397404 28.72847075 12.18473397
v 20.89587711 28.72847075 13.00402142
f 1 2 6
f 1 6 3
f 1 3 7
f 1 7 4
f 1 4 9
f 1 9 14
f 1 14 19
f 1 19 24
f 1 24 28
f 1 28 32
f 1 32 36
f 1 36 42
f 1 42 45
f 1 45 48
f 1 48 43
f 1 43 38
f 1 38 34
f 1 34 29
f 1 29 25
f 1 25 20
f 1 20 16
f 1 16 11
f 1 11 5
f 1 5 2
f 2 5 10
f 2 10 6
f 3 6 10
f 3 10 15
f 3 15 17
f 3 17 21
f 3 21 26
f 3 26 30
f 3 30 33
f 3 33 37
f 3 37 39
f 3 39 44
f 3 44 47
f 3 47 49
f 3 49 46
f 3 46 41
f 3 41 40
f 3 40 35
f 3 35 31
f 3 31 27
f 3 27 23
f 3 23 22
f 3 22 18
f 3 18 13
f 3 13 12
f 3 12 8
f 3 8 7
f 4 7 8
f 4 8 9
f 5 11 15
f 5 15 10
f 8 12 9
f 9 13 14
f 9 12 13
f 11 16 17
f 11 17 15
f 13 18 14
f 14 18 19
f 16 20 17
f 17 20 21
f 18 22 19
f 19 23 24
f 19 22 23
f 20 25 21
f 21 25 26
f 23 27 28
f 23 28 24
f 25 29 30
f 25 30 26
f 27 31 32
f 27 32 28
f 29 33 30
f 29 34 33
f 31 35 32
f 32 35 36
f 33 34 37
f 34 38 39
f 34 39 37
f 35 40 36
f 36 40 41
f 36 41 42
f 38 43 44
f 38 44 39
f 41 45 42
f 41 46 45
f 43 47 44
f 43 48 49
f 43 49 47
f 45 46 49
f 45 49 48

