# https://github.com/mikedh/trimesh
v -2.90293544 -25.31681753 10.07980273
v -4.57918104 -25.31681753 11.32163248
v -0.00671643 -27.93497220 10.11056179
v -0.00671643 -27.92597824 10.07980273
v -14.21794163 -25.31681753 10.07980273
v -0.00671643 -29.62478224 11.32163248
v -14.21794163 -25.31681753 11.32163248
v -0.00671643 -35.52462566 10.07980273
v -14.21794163 -32.55671748 10.07980273
v -0.00671643 -35.52462566 11.32163248
v -14.21794163 -32.55671748 11.32163248
v -0.48663759 -35.52562499 11.32163248
v -0.48663759 -35.52462566 10.07980273
v -14.09274456 -32.61267700 10.07980273
v -14.09274456 -32.61267700 11.32163248
v -0.64382912 -35.52062834 10.07980273
v -1.45899904 -35.49964244 11.32163248
v -1.45899904 -35.49964244 10.07980273
v -13.32626223 -32.93344997 10.07980273
v -13.32626223 -32.93344997 11.32163248
v -2.42996976 -35.44568157 11.32163248
v -2.42996976 -35.44568157 10.07980273
v -13.24836238 -32.96442916 10.07980273
v -12.89781085 -33.10433230 11.32163248
v -2.58716129 -35.43269030 10.07980273
v -3.40233120 -35.36473883 11.32163248
v -12.84077669 -33.12631464 10.07980273
v -12.84077669 -33.12631464 11.32163248
v -3.40233120 -35.36473883 11.20833176
v -3.40233120 -35.36373951 10.07980273
v -4.37469301 -35.25781355 11.32163248
v -12.26069816 -33.34316321 10.07980273
v -12.14802166 -33.38513212 11.32163248
v -4.37469301 -35.25781355 10.07980273
v -3.55952273 -35.34675092 10.07980273
v -5.23298614 -35.13789698 11.32163248
v -5.34705446 -35.12290994 10.23650619
v -12.14802166 -33.38513212 10.07980273
v -11.33285175 -33.66893282 10.07980273
v -11.17705059 -33.72289658 11.32163248
v -5.34705446 -35.12290994 10.07980273
v -5.34705446 -35.12191062 11.32163248
v -5.99390445 -35.01798331 11.32163248
v -11.17705059 -33.72289658 10.07980273
v -11.09358635 -33.74987556 11.32163248
v -5.99390445 -35.01798331 10.07980273
v -6.05093861 -35.00799002 11.32163248
v -10.46760242 -33.95073487 10.07980273
v -10.46760242 -33.95073487 11.32163248
v -6.48078072 -34.93104460 11.20833176
v -6.40148977 -34.94503520 10.07980273
v -6.48078072 -34.93104460 11.32163248
v -9.98211688 -34.09563176 10.07980273
v -9.98211688 -34.09563176 11.32163248
v -6.47938963 -34.93104460 10.07980273
v -7.19440217 -34.79014213 11.32163248
v -9.23232769 -34.30548502 10.07980273
v -9.23232769 -34.30548502 11.32163248
v -7.28899589 -34.77115778 10.07980273
v -7.28899589 -34.77115778 11.32163248
v -8.26135734 -34.55330988 10.07980273
v -9.11965047 -34.33446266 11.32163248
v -7.44618742 -34.73618127 10.07980273
v -8.26135734 -34.55330988 11.32163248
f 1 2 3
f 1 3 4
f 1 4 8
f 1 8 13
f 1 13 16
f 1 16 18
f 1 18 22
f 1 22 25
f 1 25 30
f 1 30 35
f 1 35 34
f 1 34 41
f 1 41 46
f 1 46 51
f 1 51 55
f 1 55 59
f 1 59 63
f 1 63 61
f 1 61 57
f 1 57 53
f 1 53 48
f 1 48 44
f 1 44 39
f 1 39 38
f 1 38 32
f 1 32 27
f 1 27 23
f 1 23 19
f 1 19 14
f 1 14 9
f 1 9 5
f 1 5 7
f 1 7 2
f 2 6 3
f 2 7 11
f 2 11 15
f 2 15 20
f 2 20 24
f 2 24 28
f 2 28 33
f 2 33 40
f 2 40 45
f 2 45 49
f 2 49 54
f 2 54 58
f 2 58 62
f 2 62 64
f 2 64 60
f 2 60 56
f 2 56 52
f 2 52 47
f 2 47 43
f 2 43 42
f 2 42 36
f 2 36 31
f 2 31 26
f 2 26 21
f 2 21 17
f 2 17 12
f 2 12 10
f 2 10 6
f 3 6 10
f 3 10 8
f 3 8 4
f 5 9 11
f 5 11 7
f 8 10 12
f 8 12 13
f 9 14 15
f 9 15 11
f 12 16 13
f 12 17 18
f 12 18 16
f 14 19 20
f 14 20 15
f 17 21 22
f 17 22 18
f 19 23 24
f 19 24 20
f 21 25 22
f 21 26 25
f 23 27 24
f 24 27 28
f 25 26 29
f 25 29 30
f 26 31 34
f 26 34 29
f 27 32 28
f 28 32 33
f 29 34 35
f 29 35 30
f 31 36 37
f 31 37 41
f 31 41 34
f 32 38 33
f 33 39 40
f 33 38 39
f 36 42 37
f 37 42 43
f 37 43 46
f 37 46 41
f 39 44 40
f 40 44 45
f 43 47 46
f 44 48 45
f 45 48 49
f 46 47 50
f 46 50 51
f 47 52 50
f 48 53 54
f 48 54 49
f 50 55 51
f 50 52 56
f 50 56 55
f 53 57 58
f 53 58 54
f 55 56 59
f 56 60 59
f 57 61 62
f 57 62 58
f 59 60 63
f 60 64 63
f 61 63 64
f 61 64 62

