# https://github.com/mikedh/trimesh
v -6.83540053 -34.86073240 11.32163827
v -6.47857134 -34.93039866 11.32163827
v -6.83540053 -34.86073240 12.18025872
v -6.83540053 -26.03601277 11.32163827
v -6.47857134 -34.93039866 12.18456597
v -5.99253363 -35.01864664 11.32163827
v -5.99320311 -35.01864664 12.18025872
v -6.83540053 -34.05907660 12.18456597
v -6.83540053 -26.03601277 12.18456597
v -4.47082121 -26.03601277 11.32163827
v -5.99521155 -35.01771972 12.18456597
v -5.34448372 -35.12175710 11.32163827
v -5.34448372 -35.12175710 12.18456597
v -5.34314477 -26.03601277 12.18456597
v 0.00393800 -29.62442306 11.32163827
v -4.54379357 -26.03601277 11.53071814
v -4.37307816 -35.25737905 11.32163827
v -4.37307816 -35.25644924 12.18456597
v -4.82363353 -26.03972912 12.18456597
v -4.82430301 -26.03601277 12.18025872
v 0.00393800 -35.52490663 11.32163827
v 0.00393800 -29.76097193 11.74697870
v 0.00393800 -29.90031024 12.18025872
v -3.40234170 -35.36420586 11.32163827
v -3.40234170 -35.36420586 12.18456597
v -0.49147221 -29.89938043 12.18456597
v 0.00393800 -35.52490663 12.18025872
v -0.48678586 -35.52583644 12.18456597
v -0.48678586 -35.52490663 11.32163827
v 0.00393800 -32.67220224 12.18456597
v -2.43093614 -35.44502115 11.32163827
v -2.43093614 -35.44502115 12.18456597
v -1.45886109 -35.49889801 12.18456597
v -1.45886109 -35.49889801 11.32163827
f 1 2 5
f 1 5 3
f 1 3 8
f 1 8 9
f 1 9 4
f 1 4 10
f 1 10 15
f 1 15 21
f 1 21 29
f 1 29 34
f 1 34 31
f 1 31 24
f 1 24 17
f 1 17 12
f 1 12 6
f 1 6 2
f 2 6 7
f 2 7 5
f 3 5 8
f 4 9 14
f 4 14 20
f 4 20 16
f 4 16 10
f 5 7 11
f 5 11 13
f 5 13 18
f 5 18 25
f 5 25 32
f 5 32 33
f 5 33 28
f 5 28 30
f 5 30 26
f 5 26 19
f 5 19 14
f 5 14 9
f 5 9 8
f 6 12 7
f 7 12 13
f 7 13 11
f 10 16 15
f 12 17 13
f 13 17 18
f 14 19 20
f 15 16 22
f 15 22 23
f 15 23 30
f 15 30 27
f 15 27 21
f 16 20 23
f 16 23 22
f 17 24 25
f 17 25 18
f 19 26 23
f 19 23 20
f 21 27 28
f 21 28 29
f 23 26 30
f 24 31 32
f 24 32 25
f 27 30 28
f 28 33 34
f 28 34 29
f 31 34 33
f 31 33 32

