# https://github.com/mikedh/trimesh
v -24.99551058 -25.24811874 14.73847973
v -24.63746120 -25.59632836 14.73847973
v -24.99551058 -25.24811874 15.64563280
v -24.99551058 -4.92594335 14.73847973
v -24.63746120 -25.59632836 15.09619021
v -24.12416245 -26.08050463 14.73847973
v -24.63746120 -25.59301175 15.64563280
v -24.99551058 -4.92594335 15.64563280
v -20.09050772 0.00205204 14.73847973
v -24.12416245 -26.08050463 15.64563280
v -23.94513776 -26.24300419 14.73847973
v -23.91296951 -26.27285081 15.64563280
v -20.09050772 0.00205204 15.64563280
v -10.70708651 0.00205204 14.73847973
v -23.63743862 -26.51825411 14.73847973
v -23.63743862 -26.51825411 15.64563280
v -10.70708651 0.00205204 15.64563280
v -10.70708651 -33.87376627 14.73847973
v -23.28778070 -26.82666727 14.73847973
v -23.08358016 -27.00574700 15.64563280
v -10.70708651 -33.87044966 15.64563280
v -10.77701853 -33.85055288 15.64563280
v -11.17842575 -33.72121655 15.64563280
v -11.17842575 -33.72121655 14.73847973
v -23.08358016 -27.00574700 14.73847973
v -22.59825538 -27.41364986 15.64563280
v -11.60081236 -33.57530295 15.64563280
v -12.15047509 -33.38295677 14.73847973
v -22.59825538 -27.41364986 14.73847973
v -22.21503015 -27.72206302 14.73847973
v -21.99124856 -27.90114275 15.64563280
v -12.15047509 -33.38295677 15.64563280
v -12.40502587 -33.29010319 14.73847973
v -21.99124856 -27.90114275 14.73847973
v -21.50592378 -28.27919899 15.64563280
v -12.84279708 -33.12428702 15.64563280
v -12.84279708 -33.12428702 14.73847973
v -21.50592378 -28.27919899 14.73847973
v -21.11990188 -28.56439875 14.73847973
v -20.89612029 -28.72689831 15.64563280
v -13.11832797 -33.01816698 15.64563280
v -13.15049622 -33.00490053 14.73847973
v -20.55485383 -28.97561822 14.73847973
v -20.59121926 -28.94908821 15.64563280
v -13.32952236 -32.93194373 14.73847973
v -13.32952236 -32.93194373 15.64563280
v -20.35624809 -29.11822100 14.73847973
v -20.35624809 -29.11822100 15.64563280
v -13.61064660 -32.81587096 14.73847973
v -13.66099684 -32.79265757 15.64563280
v -20.17722339 -29.24092120 14.73847973
v -19.87092331 -29.44984755 15.64563280
v -14.09317470 -32.61026412 15.64563280
v -14.09317470 -32.61026412 14.73847973
v -19.87092331 -29.44984755 14.73847973
v -19.13244536 -29.93402383 15.64563280
v -14.45821794 -32.44776456 15.64563280
v -14.40227146 -32.47429747 14.73847973
v -19.13244536 -29.93402383 14.73847973
v -18.64712059 -30.24243988 15.64563280
v -14.93235313 -32.23552450 15.64563280
v -14.93375219 -32.23552450 14.73847973
v -18.64712059 -30.24243988 14.73847973
v -17.97997300 -30.64039290 15.64563280
v -15.20788403 -32.10950478 15.64563280
v -15.41907842 -32.01001798 14.73847973
v -17.97997300 -30.64039290 14.73847973
v -17.57437004 -30.87584636 14.73847973
v -17.33800125 -31.01181591 15.64563280
v -15.41907842 -32.01001798 15.64563280
v -15.64705429 -31.89726472 14.73847973
v -17.33800125 -31.01181591 14.73847973
v -17.15897511 -31.11130562 14.73847973
v -17.12680686 -31.12788579 15.64563280
v -16.03727338 -31.70160192 15.64563280
v -16.03727338 -31.70160192 14.73847973
v -16.85127597 -31.27711889 15.64563280
v -16.85127597 -31.27711889 14.73847973
v -16.33657961 -31.54573849 14.73847973
f 1 2 5
f 1 5 3
f 1 3 8
f 1 8 4
f 1 4 9
f 1 9 14
f 1 14 18
f 1 18 24
f 1 24 28
f 1 28 33
f 1 33 37
f 1 37 42
f 1 42 45
f 1 45 49
f 1 49 54
f 1 54 58
f 1 58 62
f 1 62 66
f 1 66 71
f 1 71 76
f 1 76 79
f 1 79 78
f 1 78 73
f 1 73 72
f 1 72 68
f 1 68 67
f 1 67 63
f 1 63 59
f 1 59 55
f 1 55 51
f 1 51 47
f 1 47 43
f 1 43 39
f 1 39 38
f 1 38 34
f 1 34 30
f 1 30 29
f 1 29 25
f 1 25 19
f 1 19 15
f 1 15 11
f 1 11 6
f 1 6 2
f 2 6 10
f 2 10 5
f 3 5 7
f 3 7 10
f 3 10 12
f 3 12 16
f 3 16 20
f 3 20 26
f 3 26 31
f 3 31 35
f 3 35 40
f 3 40 44
f 3 44 48
f 3 48 52
f 3 52 56
f 3 56 60
f 3 60 64
f 3 64 69
f 3 69 74
f 3 74 77
f 3 77 75
f 3 75 70
f 3 70 65
f 3 65 61
f 3 61 57
f 3 57 53
f 3 53 50
f 3 50 46
f 3 46 41
f 3 41 36
f 3 36 32
f 3 32 27
f 3 27 23
f 3 23 22
f 3 22 21
f 3 21 17
f 3 17 13
f 3 13 8
f 4 8 13
f 4 13 9
f 5 10 7
f 6 11 12
f 6 12 10
f 9 13 17
f 9 17 14
f 11 15 12
f 12 15 16
f 14 17 21
f 14 21 18
f 15 19 16
f 16 19 20
f 18 21 22
f 18 22 23
f 18 23 24
f 19 25 20
f 20 25 29
f 20 29 26
f 23 27 24
f 24 27 28
f 26 29 30
f 26 30 31
f 27 32 28
f 28 32 33
f 30 34 31
f 31 34 38
f 31 38 35
f 32 36 33
f 33 36 37
f 35 38 39
f 35 39 40
f 36 41 37
f 37 41 42
f 39 43 44
f 39 44 40
f 41 45 42
f 41 46 45
f 43 47 48
f 43 48 44
f 45 46 49
f 46 50 49
f 47 51 48
f 48 51 52
f 49 50 53
f 49 53 54
f 51 55 52
f 52 55 59
f 52 59 56
f 53 57 58
f 53 58 54
f 56 59 63
f 56 63 60
f 57 61 58
f 58 61 62
f 60 63 67
f 60 67 64
f 61 65 62
f 62 65 66
f 64 67 68
f 64 68 69
f 65 70 66
f 66 70 71
f 68 72 69
f 69 72 73
f 69 73 74
f 70 75 71
f 71 75 76
f 73 77 74
f 73 78 77
f 75 77 79
f 75 79 76
f 77 78 79

