# https://github.com/mikedh/trimesh
v -14.25551060 -32.53827769 13.82658781
v -14.09270980 -32.60944149 13.82658781
v -14.25551060 -32.53827769 14.73830593
v -14.25551060 25.31709519 13.82658781
v -13.56238626 -32.83479159 13.82658781
v -14.09270980 -32.60944149 14.73830593
v -14.25551060 25.31709519 14.73830593
v -4.91345183 25.31709519 13.82658781
v -13.32744694 -32.92967569 13.82658781
v -13.32842165 -32.92967569 14.73830593
v -4.91345183 25.31709519 14.73830593
v -4.29636699 22.62476715 13.82658781
v -12.84196720 -33.12537324 13.82658781
v -12.84196720 -33.12537324 14.73830593
v -4.29636699 22.62476715 14.73830593
v -4.29636699 -35.26618763 13.82658781
v -12.36038773 -33.30327985 13.82658781
v -12.14884430 -33.38037300 14.73830593
v -4.29636699 -35.26025828 14.73830593
v -4.37435592 -35.25432603 14.73830593
v -4.73212832 -35.20688543 14.73830593
v -5.34628867 -35.11793068 13.82658781
v -12.14884430 -33.38037300 13.82658781
v -11.47424229 -33.61758180 13.82658781
v -11.17691082 -33.71839526 14.73830593
v -5.34628867 -35.11793068 14.73830593
v -5.58512863 -35.08234878 14.73830593
v -5.54515946 -35.08828103 13.82658781
v -11.17691082 -33.71839526 13.82658781
v -10.72847649 -33.86665221 14.73830593
v -5.99456886 -35.01711723 14.73830593
v -5.99456886 -35.01711723 13.82658781
v -10.46721500 -33.94967471 13.82658781
v -10.46721500 -33.94967471 14.73830593
v -6.30164886 -34.96374438 14.73830593
v -6.33186986 -34.95781503 13.82658781
v -9.98173598 -34.09199941 13.82658781
v -10.28784126 -34.00304756 14.73830593
v -7.29015453 -34.76804682 14.73830593
v -6.72863672 -34.88072188 13.82658781
v -9.50795490 -34.22839477 14.73830593
v -9.98076127 -34.09199941 14.73830593
v -9.23402003 -34.30548792 13.82658781
v -7.64792729 -34.69095367 14.73830593
v -7.29015453 -34.76804682 13.82658781
v -9.23402003 -34.30548792 14.73830593
v -8.55941875 -34.47746517 13.82658781
v -8.26208728 -34.54862897 14.73830593
v -8.26208728 -34.54862897 13.82658781
v -7.58748600 -34.70281527 13.82658781
v -8.61986004 -34.45967422 14.73830593
f 1 2 6
f 1 6 3
f 1 3 7
f 1 7 4
f 1 4 8
f 1 8 12
f 1 12 16
f 1 16 22
f 1 22 28
f 1 28 32
f 1 32 36
f 1 36 40
f 1 40 45
f 1 45 50
f 1 50 49
f 1 49 47
f 1 47 43
f 1 43 37
f 1 37 33
f 1 33 29
f 1 29 24
f 1 24 23
f 1 23 17
f 1 17 13
f 1 13 9
f 1 9 5
f 1 5 2
f 2 5 6
f 3 6 10
f 3 10 14
f 3 14 18
f 3 18 25
f 3 25 30
f 3 30 34
f 3 34 38
f 3 38 42
f 3 42 41
f 3 41 46
f 3 46 51
f 3 51 48
f 3 48 44
f 3 44 39
f 3 39 35
f 3 35 31
f 3 31 27
f 3 27 26
f 3 26 21
f 3 21 20
f 3 20 19
f 3 19 15
f 3 15 11
f 3 11 7
f 4 7 11
f 4 11 8
f 5 9 10
f 5 10 6
f 8 11 15
f 8 15 12
f 9 13 10
f 10 13 14
f 12 15 19
f 12 19 16
f 13 17 14
f 14 17 18
f 16 19 20
f 16 20 21
f 16 21 22
f 17 23 18
f 18 23 24
f 18 24 25
f 21 26 22
f 22 26 27
f 22 27 28
f 24 29 25
f 25 29 30
f 27 31 32
f 27 32 28
f 29 33 30
f 30 33 34
f 31 35 32
f 32 35 36
f 33 37 38
f 33 38 34
f 35 39 40
f 35 40 36
f 37 41 42
f 37 42 38
f 37 43 41
f 39 44 45
f 39 45 40
f 41 43 46
f 43 47 46
f 44 48 49
f 44 49 50
f 44 50 45
f 46 47 51
f 47 49 48
f 47 48 51

