# https://github.com/mikedh/trimesh
v -29.77183031 -19.37894024 15.64563859
v -29.72408846 -19.45217076 15.64563859
v -29.69366252 -19.49941729 16.55735671
v -29.77183031 -19.37894024 16.55735671
v -29.77183031 -1.12079240 15.64563859
v -29.44933675 -19.87029719 15.64563859
v -29.44933675 -19.87029719 16.55735671
v -29.77183031 -1.12551676 16.55735671
v -29.77183031 -1.12079240 16.06807082
v -24.99059504 -4.92644374 15.64563859
v -29.26398587 -20.14668403 15.64563859
v -29.28411149 -20.11597422 16.55735671
v -24.99059504 -4.92644374 16.55735671
v -29.77183031 -1.12315458 16.38866710
v -24.99059504 -25.25159467 15.64563859
v -29.12122668 -20.35692834 15.64563859
v -29.12122668 -20.35692834 16.55735671
v -24.99059504 -25.25395830 16.55735671
v -25.12446166 -25.12403396 15.64563859
v -28.73039641 -20.89553183 15.64563859
v -28.73039641 -20.89553183 16.55735671
v -25.12446166 -25.12403396 16.55735671
v -25.59720213 -24.63739847 15.64563859
v -28.28105761 -21.50500221 15.64563859
v -28.28105761 -21.50500221 16.55735671
v -25.59720213 -24.63739847 16.55735671
v -25.84153080 -24.37991053 16.55735671
v -26.08304975 -24.12478333 15.64563859
v -28.06668854 -21.78139050 15.64563859
v -28.09009021 -21.75068069 16.55735671
v -26.08304975 -24.12478333 16.55735671
v -26.27401715 -23.91453902 15.64563859
v -27.90192962 -21.99163336 15.64563859
v -27.90239888 -21.99163336 16.55735671
v -26.30116413 -23.88382921 16.55735671
v -26.52255747 -23.63815073 15.64563859
v -26.52255747 -23.63815073 16.55735671
v -27.69083372 -22.25621074 15.64563859
v -27.66087992 -22.29400709 16.55735671
v -26.79730918 -23.32632827 15.64563859
v -27.00840219 -23.08537415 16.55735671
v -27.41608491 -22.59874301 15.64563859
v -27.41608491 -22.59874301 16.55735671
v -27.00840219 -23.08537415 15.64563859
f 1 2 3
f 1 3 4
f 1 4 8
f 1 8 14
f 1 14 9
f 1 9 5
f 1 5 10
f 1 10 15
f 1 15 19
f 1 19 23
f 1 23 28
f 1 28 32
f 1 32 36
f 1 36 40
f 1 40 44
f 1 44 42
f 1 42 38
f 1 38 33
f 1 33 29
f 1 29 24
f 1 24 20
f 1 20 16
f 1 16 11
f 1 11 6
f 1 6 2
f 2 6 3
f 3 6 7
f 3 7 12
f 3 12 17
f 3 17 21
f 3 21 25
f 3 25 30
f 3 30 34
f 3 34 39
f 3 39 43
f 3 43 41
f 3 41 37
f 3 37 35
f 3 35 31
f 3 31 27
f 3 27 26
f 3 26 22
f 3 22 18
f 3 18 13
f 3 13 8
f 3 8 4
f 5 9 13
f 5 13 10
f 6 11 7
f 7 11 12
f 8 13 14
f 9 14 13
f 10 13 18
f 10 18 15
f 11 16 17
f 11 17 12
f 15 18 19
f 16 20 21
f 16 21 17
f 18 22 19
f 19 22 26
f 19 26 23
f 20 24 25
f 20 25 21
f 23 26 27
f 23 27 28
f 24 29 25
f 25 29 30
f 27 31 28
f 28 31 32
f 29 33 34
f 29 34 30
f 31 35 32
f 32 35 37
f 32 37 36
f 33 38 34
f 34 38 39
f 36 37 40
f 37 41 40
f 38 42 39
f 39 42 43
f 40 41 44
f 41 43 42
f 41 42 44

