# https://github.com/mikedh/trimesh
v -16.76128133 0.48797714 86.47236648
v -16.73029345 -0.48523917 87.01946281
v -16.71135544 -0.48523917 87.37267776
v -16.71135544 0.48797714 87.37267776
v -16.65626491 1.45880809 87.37267776
v -16.67520291 1.45880809 87.01946281
v -16.70447021 1.45880809 86.47236648
v -16.75956075 -0.48523917 86.47236648
v -16.67692350 -1.10304055 87.37267776
v -16.62871964 1.70688297 87.37267776
v -16.56674242 2.25550980 87.37267776
v -16.66142955 1.83569102 86.47236648
v -16.70447021 -1.45607012 86.47236648
v -16.67520291 -1.45607012 87.01946281
v -16.65626491 -1.45607012 87.37267776
v -16.52198118 2.56560335 87.37267776
v -16.57707172 2.32229918 87.01946281
v -16.58912304 2.44156600 86.47236648
v -16.56674242 -2.25038665 87.37267776
v -16.58912304 -2.43882749 86.47236648
v -16.57707172 -2.31479050 87.01946281
v -16.49615794 2.74211795 87.37267776
v -16.50648724 2.80890733 87.01946281
v -16.52025915 2.90432079 86.49457475
v -16.51509450 2.93055951 86.47236648
v -16.49615794 -2.73699463 87.37267776
v -16.56157777 -2.62726904 86.47236648
v -16.50648724 -2.80139848 87.01946281
v -16.44278799 3.02358743 87.37267776
v -16.36875945 3.40285572 87.37267776
v -16.42557202 3.37184611 86.47236648
v -16.36875945 -3.40011739 87.37267776
v -16.52025915 -2.90158264 86.47236648
v -16.52025915 -2.89919729 86.49439806
v -16.28440161 3.75588492 87.37267776
v -16.18454983 4.37607202 86.47236648
v -16.42557202 -3.36910778 86.47236648
v -16.28784567 -3.94635922 86.47236648
v -16.13462394 -4.37094870 87.37267776
v -16.13462394 4.37607202 87.37267776
v -15.89187972 5.34451762 86.47236648
v -16.18454983 -4.37094870 86.47236648
v -16.13462394 -4.45443538 86.97434239
v -16.11224332 -4.45205003 87.37267776
v -15.84023325 5.34451762 87.37267776
v -15.86089184 5.34451762 87.01946281
v -15.76448268 5.56396843 87.37267776
v -15.62331227 6.01479644 87.01946281
v -15.63880621 6.05296175 86.47236648
v -16.16216921 -4.45443538 86.47236648
v -16.02099880 -4.91957517 86.47236648
v -15.89187972 -5.34416465 86.47236648
v -15.84195383 -5.34416465 87.37267776
v -15.61298297 5.98855791 87.37267776
v -15.48730651 6.29626610 87.37267776
v -15.42532929 6.49901906 87.01946281
v -15.43910265 6.53479938 86.47236648
v -15.64052824 -6.01444347 86.47236648
v -15.62503285 -6.01205811 87.01946281
v -15.61470356 -5.98820529 87.37267776
v -15.41500000 6.47278089 87.37267776
v -15.27382959 6.78525943 87.37267776
v -15.28416034 6.88305824 86.47236648
v -15.49591377 -6.22673857 86.47236648
v -14.64372958 -7.59591974 87.37267776
v -15.54239850 -6.16472008 87.37267776
v -15.04485873 7.28617953 87.37267776
v -15.06551732 7.28617953 87.01946281
v -15.09650666 7.28617953 86.47236648
v -14.67471747 -6.80637464 86.47236648
v -14.65233685 -6.83261354 86.49624899
v -14.44574661 -7.60307581 87.37267776
v -14.69365547 7.98031190 87.37267776
v -14.93812028 7.59865880 86.47236648
v -14.56625698 -6.80637464 86.47236648
v -14.53526909 -6.83261354 86.49624899
v -14.04633660 -7.46234134 87.37267776
v -14.70398477 7.99939401 87.01946281
v -14.41647931 8.46691987 87.37267776
v -14.56625698 8.30233186 86.47236648
v -14.71947871 8.02801826 86.47236648
v -14.51116644 -6.79206252 86.47236648
v -13.72956528 -7.26674444 87.37267776
v -14.19783774 8.81517873 87.37267776
v -14.44402458 8.51462623 86.47236648
v -14.19955833 -6.56545601 86.47236648
v -13.11323718 -6.79921858 87.37267776
v -13.91549693 9.26123640 87.37267776
v -13.99296809 9.23022679 86.47236648
v -13.81048051 -6.25774745 86.47236648
v -13.16488511 -5.67811138 86.47236648
v -4.41749615 1.07238428 87.37267776
v -13.71062873 9.57610030 87.37267776
v -13.61249753 9.72637618 87.37267776
v -13.84491245 9.45444867 86.47236648
v -0.47333855 5.88837374 86.47236648
v 0.11200166 5.18947103 87.37267776
v -3.41553212 1.98119638 87.37267776
v -13.05642462 10.43482068 87.37267776
v -13.26301485 10.25114983 86.47236648
v -13.42828791 10.03885473 86.47236648
v -13.64004280 9.76454185 86.47236648
v 0.49247294 6.78525943 86.47236648
v 0.82646095 5.88837374 87.37267776
v -12.74653853 10.81885985 87.37267776
v -12.77752787 10.85702480 86.47236648
v -13.05125997 10.51592200 86.47236648
v 0.82646095 7.12397687 86.47236648
v 0.82646095 16.69393730 87.37267776
v -12.46936382 11.12895304 87.37267776
v -12.53478365 11.13133840 86.47236648
v 0.82646095 16.74164294 86.47236648
v 0.48558626 16.71302013 87.37267776
v -12.31097744 11.30546783 87.37267776
v -12.34368735 11.34363277 86.47236648
v 0.48558626 16.76072577 86.47236648
v -0.48711119 16.71302013 87.37267776
v -11.82548900 11.82308541 87.37267776
v -12.13193174 11.56785465 86.47236648
v -0.48711119 16.76072577 86.47236648
v -1.45808661 16.65577307 87.37267776
v -11.49666636 12.13317860 87.37267776
v -11.34344463 12.34308834 86.47236648
v -11.85647761 11.85647965 86.47236648
v -1.45808661 16.70347871 86.47236648
v -1.70771678 16.62953272 87.37267776
v -11.30901268 12.30969338 87.37267776
v -10.82180367 12.74621036 87.37267776
v -10.85795692 12.77721852 86.47236648
v -1.83683586 16.66054378 86.47236648
v -2.26034636 16.56751496 87.37267776
v -10.32598594 13.13978951 87.37267776
v -10.51536092 13.05153284 86.47236648
v -2.44627801 16.58659779 86.47236648
v -2.32576691 16.57705637 87.01946281
v -2.90594212 16.51980787 86.50373961
v -2.74583443 16.49595577 87.37267776
v -9.84394156 13.51428727 87.37267776
v -10.12456034 13.31630429 87.10829590
v -10.20891818 13.29245075 86.47236648
v -2.87323184 16.52457857 86.47236648
v -2.94209537 16.51265180 86.47236648
v -3.37077088 16.42439513 86.47236648
v -3.40348079 16.36953198 87.37267776
v -3.02645321 16.44347797 87.37267776
v -9.99027662 13.46419482 86.47236648
v -9.59603270 13.69318740 87.37267776
v -9.74581109 13.62639893 86.84382425
v -4.37445658 16.18347578 86.47236648
v -4.37445658 16.13576869 87.37267776
v -9.76130503 13.63593890 86.47236648
v -9.29303330 13.89355573 87.37267776
v -9.27065268 13.96511637 86.47236648
v -9.50651021 13.80768297 86.47236648
v -5.34715367 15.89008007 86.47236648
v -5.34715367 15.86145582 87.01946281
v -5.34715367 15.83998763 87.37267776
v -8.74901171 14.23942779 87.37267776
v -8.49077355 14.42786935 87.01946281
v -8.51831882 14.44456828 86.47236648
v -6.05472628 15.63723394 86.47236648
v -5.99274907 15.61338040 87.37267776
v -8.47011424 14.41594402 87.37267776
v -8.29451261 14.51612747 87.37267776
v -7.98462653 14.69264225 87.37267776
v -8.03283111 14.72126650 86.47236648
v -6.33018042 15.52512373 86.47236648
v -6.50406074 15.42493884 87.01946281
v -6.47823678 15.41301352 87.37267776
v -7.53184873 14.92402019 87.37267776
v -7.29254785 15.09814962 86.47236648
v -6.54021400 15.43925097 86.47236648
v -6.88625333 15.28420437 86.47236648
v -7.29254785 15.04328646 87.37267776
f 1 2 3
f 1 3 4
f 1 4 5
f 1 5 6
f 1 6 7
f 1 7 12
f 1 12 18
f 1 18 25
f 1 25 31
f 1 31 36
f 1 36 41
f 1 41 49
f 1 49 57
f 1 57 63
f 1 63 69
f 1 69 74
f 1 74 81
f 1 81 80
f 1 80 85
f 1 85 89
f 1 89 95
f 1 95 102
f 1 102 101
f 1 101 100
f 1 100 107
f 1 107 106
f 1 106 111
f 1 111 115
f 1 115 119
f 1 119 124
f 1 124 123
f 1 123 129
f 1 129 133
f 1 133 140
f 1 140 146
f 1 146 151
f 1 151 154
f 1 154 153
f 1 153 160
f 1 160 166
f 1 166 171
f 1 171 173
f 1 173 172
f 1 172 167
f 1 167 161
f 1 161 155
f 1 155 149
f 1 149 143
f 1 143 142
f 1 142 141
f 1 141 134
f 1 134 130
f 1 130 125
f 1 125 120
f 1 120 116
f 1 116 112
f 1 112 108
f 1 108 103
f 1 103 96
f 1 96 91
f 1 91 90
f 1 90 86
f 1 86 82
f 1 82 75
f 1 75 70
f 1 70 64
f 1 64 58
f 1 58 52
f 1 52 51
f 1 51 50
f 1 50 42
f 1 42 38
f 1 38 37
f 1 37 33
f 1 33 27
f 1 27 20
f 1 20 13
f 1 13 8
f 1 8 2
f 2 8 9
f 2 9 3
f 3 9 15
f 3 15 19
f 3 19 26
f 3 26 32
f 3 32 39
f 3 39 44
f 3 44 53
f 3 53 60
f 3 60 66
f 3 66 65
f 3 65 72
f 3 72 77
f 3 77 83
f 3 83 87
f 3 87 92
f 3 92 98
f 3 98 97
f 3 97 104
f 3 104 109
f 3 109 113
f 3 113 117
f 3 117 121
f 3 121 126
f 3 126 131
f 3 131 137
f 3 137 145
f 3 145 144
f 3 144 150
f 3 150 157
f 3 157 162
f 3 162 169
f 3 169 174
f 3 174 170
f 3 170 165
f 3 165 164
f 3 164 163
f 3 163 158
f 3 158 152
f 3 152 147
f 3 147 138
f 3 138 132
f 3 132 128
f 3 128 127
f 3 127 122
f 3 122 118
f 3 118 114
f 3 114 110
f 3 110 105
f 3 105 99
f 3 99 94
f 3 94 93
f 3 93 88
f 3 88 84
f 3 84 79
f 3 79 73
f 3 73 67
f 3 67 62
f 3 62 61
f 3 61 55
f 3 55 54
f 3 54 47
f 3 47 45
f 3 45 40
f 3 40 35
f 3 35 30
f 3 30 29
f 3 29 22
f 3 22 16
f 3 16 11
f 3 11 10
f 3 10 5
f 3 5 4
f 5 10 6
f 6 10 7
f 7 10 11
f 7 11 12
f 8 13 9
f 9 13 14
f 9 14 15
f 11 16 17
f 11 17 12
f 12 17 18
f 13 19 14
f 13 20 21
f 13 21 19
f 14 19 15
f 16 22 23
f 16 23 17
f 17 23 18
f 18 23 24
f 18 24 25
f 19 21 28
f 19 28 26
f 20 27 28
f 20 28 21
f 22 29 23
f 23 29 24
f 24 29 30
f 24 30 31
f 24 31 25
f 26 28 32
f 27 33 34
f 27 34 28
f 28 34 32
f 30 35 31
f 31 35 36
f 32 37 38
f 32 38 39
f 32 34 37
f 33 37 34
f 35 40 36
f 36 40 41
f 38 42 39
f 39 42 43
f 39 43 44
f 40 45 46
f 40 46 41
f 41 46 47
f 41 47 48
f 41 48 49
f 42 50 43
f 43 50 51
f 43 51 52
f 43 52 53
f 43 53 44
f 45 47 46
f 47 54 48
f 48 54 55
f 48 55 56
f 48 56 49
f 49 56 57
f 52 58 59
f 52 59 60
f 52 60 53
f 55 61 56
f 56 61 62
f 56 62 63
f 56 63 57
f 58 64 65
f 58 65 66
f 58 66 59
f 59 66 60
f 62 67 63
f 63 67 68
f 63 68 69
f 64 70 65
f 65 70 71
f 65 71 72
f 67 73 68
f 68 73 74
f 68 74 69
f 70 75 76
f 70 76 71
f 71 76 72
f 72 76 77
f 73 78 74
f 73 79 80
f 73 80 78
f 74 78 81
f 75 82 76
f 76 82 83
f 76 83 77
f 78 80 81
f 79 84 85
f 79 85 80
f 82 86 83
f 83 86 87
f 84 88 89
f 84 89 85
f 86 90 87
f 87 90 91
f 87 91 92
f 88 93 89
f 89 93 94
f 89 94 95
f 91 96 97
f 91 97 98
f 91 98 92
f 94 99 100
f 94 100 101
f 94 101 102
f 94 102 95
f 96 103 97
f 97 103 104
f 99 105 106
f 99 106 107
f 99 107 100
f 103 108 104
f 104 108 112
f 104 112 109
f 105 110 111
f 105 111 106
f 109 112 116
f 109 116 113
f 110 114 111
f 111 114 115
f 113 116 120
f 113 120 117
f 114 118 115
f 115 118 119
f 117 120 125
f 117 125 121
f 118 122 123
f 118 123 124
f 118 124 119
f 121 125 126
f 122 127 123
f 123 127 128
f 123 128 129
f 125 130 131
f 125 131 126
f 128 132 133
f 128 133 129
f 130 134 135
f 130 135 131
f 131 136 137
f 131 135 136
f 132 138 139
f 132 139 133
f 133 139 140
f 134 141 136
f 134 136 135
f 136 142 143
f 136 143 144
f 136 144 145
f 136 145 137
f 136 141 142
f 138 146 139
f 138 147 148
f 138 148 146
f 139 146 140
f 143 149 144
f 144 149 150
f 146 148 151
f 147 152 153
f 147 153 148
f 148 153 154
f 148 154 151
f 149 155 156
f 149 156 150
f 150 156 157
f 152 158 159
f 152 159 153
f 153 159 160
f 155 161 162
f 155 162 156
f 156 162 157
f 158 163 159
f 159 163 164
f 159 164 165
f 159 165 166
f 159 166 160
f 161 167 168
f 161 168 162
f 162 168 169
f 165 170 166
f 166 170 171
f 167 172 168
f 168 172 173
f 168 173 174
f 168 174 169
f 170 174 171
f 171 174 173

