# https://github.com/mikedh/trimesh
v -0.04244172 -15.11195815 0.44730098
v -0.04244172 -35.49557850 0.44730098
v -0.04244172 -15.11195815 -0.50342282
v -22.07694463 -15.11195815 0.44730098
v -0.48679836 -35.49757426 0.44730098
v -0.04244172 -35.36585982 0.07613287
v -0.04244172 -33.53185387 -0.50342282
v -22.07694463 -15.11195815 -0.50342282
v -22.07694463 -27.81430252 0.44730098
v -0.57739548 -35.49557850 0.44730098
v -1.45963847 -35.24212843 -0.22969941
v -0.48679836 -35.25410299 -0.23528407
v -0.04244172 -35.25410299 -0.23528407
v -0.04244172 -33.97488966 -0.50305206
v -7.29020740 -33.53185387 -0.50342282
v -22.07694463 -25.54524383 -0.50342282
v -21.92594894 -27.94202543 0.44730098
v -22.07694463 -27.80631947 0.41426230
v -21.46433577 -28.24735950 -0.04300161
v -1.45963847 -35.47362513 0.44730098
v -2.43032133 -35.21618643 -0.21452699
v -2.43032133 -34.50373738 -0.48183153
v -1.45963847 -34.50373738 -0.49700395
v -0.48679836 -34.50373738 -0.50258860
v -0.04244172 -34.84698801 -0.38066469
v -0.04244172 -34.50373738 -0.50258860
v -8.26304751 -33.53185387 -0.48564925
v -11.17725335 -32.55996747 -0.49802355
v -10.20657048 -32.55996747 -0.50342282
v -22.07694463 -25.75478715 -0.50007435
v -21.86770834 -25.75478715 -0.50342282
v -21.49884882 -28.27529726 0.44730098
v -22.07694463 -27.77638595 0.34213103
v -20.96605158 -28.66245463 0.44730098
v -22.07694463 -27.55686382 -0.16157126
v -21.82025181 -27.68258808 -0.19852035
v -20.89486750 -28.45091554 -0.15813009
v -19.72573386 -29.35095745 -0.13904725
v -18.58464226 -30.20310108 -0.05835362
v -19.85515998 -29.43876514 0.44730098
v -20.28872966 -29.13941836 0.44730098
v -1.55239284 -35.46963360 0.44730098
v -3.40316144 -35.17427545 -0.18688759
v -3.40316144 -34.50373738 -0.45418633
v -4.37384431 -34.50373738 -0.40895873
v -8.26304751 -34.27623220 -0.21834472
v -9.23373037 -33.53185387 -0.40672255
v -12.14793621 -32.55996747 -0.41938072
v -14.09145991 -31.58808686 -0.46461411
v -13.12077560 -31.58808686 -0.50342282
v -22.07694463 -26.51712733 -0.47196569
v -19.92418609 -27.69855417 -0.50342282
v -22.07694463 -27.44311123 -0.21117852
v -20.89486750 -27.69855417 -0.42542883
v -19.99968321 -28.74826946 -0.28479864
v -18.92545974 -29.66227880 -0.23155903
v -17.98066239 -30.37273208 -0.16957747
v -18.05400299 -30.57429237 0.44730098
v -18.63856981 -30.23702612 0.44730098
v -19.06566992 -29.96761286 0.44730098
v -16.73818815 -31.21888844 -0.09921314
v -16.83309977 -31.27077533 0.44730098
v -17.26451437 -31.02531120 0.44730098
v -2.43032133 -35.42173823 0.44730098
v -4.37384431 -35.12239145 -0.14165420
v -2.52738947 -35.41575095 0.44730098
v -9.23373037 -34.16048385 -0.13941802
v -11.17725335 -33.37020591 -0.23081750
v -5.34668442 -35.05453847 -0.06375289
v -5.93772262 -35.00863597 0.00111948
v -12.14793621 -33.21454234 -0.15216887
v -14.09145991 -32.33046943 -0.19730957
v -16.03498217 -31.38851944 -0.20028728
v -16.03498217 -30.61420469 -0.46759182
v -17.00782300 -29.64232118 -0.50342282
v -22.07694463 -26.73066218 -0.42012225
v -18.95134525 -28.67043768 -0.49746740
v -21.86770834 -26.72667066 -0.46759182
v -17.98066239 -29.64232118 -0.43687621
v -17.04017808 -30.66808734 -0.26087847
v -16.11479378 -31.63398647 0.44730098
v -14.81192097 -32.18278890 -0.09521003
v -15.34687619 -32.01914808 0.44730098
v -3.50670133 -35.33592340 0.44730098
v -9.89379504 -34.06868464 -0.04188352
v -4.49248347 -35.23214962 0.44730098
v -5.42649603 -35.10642536 0.44730098
v -5.98302118 -35.01661901 0.44730098
v -6.40365064 -34.92881132 0.44730098
v -8.36658739 -34.50373738 0.44730098
v -12.76917406 -33.09879689 -0.04225429
v -14.91546158 -32.23068717 0.44730098
v -9.97144941 -34.09063801 0.44730098
v -10.39639300 -33.95293629 0.44730098
v -12.22559131 -33.34825254 0.44730098
v -9.31785648 -34.27423644 0.44730098
v -12.82741465 -33.12074737 0.44730098
v -13.25451477 -32.94313622 0.44730098
v -14.17342805 -32.54999156 0.44730098
f 1 2 6
f 1 6 13
f 1 13 25
f 1 25 26
f 1 26 14
f 1 14 7
f 1 7 3
f 1 3 8
f 1 8 4
f 1 4 9
f 1 9 17
f 1 17 32
f 1 32 34
f 1 34 41
f 1 41 40
f 1 40 60
f 1 60 59
f 1 59 58
f 1 58 63
f 1 63 62
f 1 62 81
f 1 81 83
f 1 83 92
f 1 92 99
f 1 99 98
f 1 98 97
f 1 97 95
f 1 95 94
f 1 94 93
f 1 93 96
f 1 96 90
f 1 90 89
f 1 89 88
f 1 88 87
f 1 87 86
f 1 86 84
f 1 84 66
f 1 66 64
f 1 64 42
f 1 42 20
f 1 20 10
f 1 10 5
f 1 5 2
f 2 5 6
f 3 7 15
f 3 15 29
f 3 29 50
f 3 50 75
f 3 75 52
f 3 52 31
f 3 31 16
f 3 16 8
f 4 8 16
f 4 16 30
f 4 30 51
f 4 51 76
f 4 76 53
f 4 53 35
f 4 35 33
f 4 33 18
f 4 18 9
f 5 10 11
f 5 11 12
f 5 12 6
f 6 12 13
f 7 14 15
f 9 18 19
f 9 19 17
f 10 20 11
f 11 20 21
f 11 21 22
f 11 22 23
f 11 23 12
f 12 24 25
f 12 25 13
f 12 23 24
f 14 26 24
f 14 24 15
f 15 24 23
f 15 23 22
f 15 22 27
f 15 27 28
f 15 28 29
f 16 31 30
f 17 19 32
f 18 33 19
f 19 34 32
f 19 33 35
f 19 35 36
f 19 36 37
f 19 37 38
f 19 38 39
f 19 39 40
f 19 40 41
f 19 41 34
f 20 42 21
f 21 42 43
f 21 43 44
f 21 44 22
f 22 44 27
f 24 26 25
f 27 44 45
f 27 45 46
f 27 46 47
f 27 47 48
f 27 48 28
f 28 48 49
f 28 49 50
f 28 50 29
f 30 31 52
f 30 52 51
f 35 53 36
f 36 54 55
f 36 55 38
f 36 38 37
f 36 53 54
f 38 56 57
f 38 57 39
f 38 55 56
f 39 58 59
f 39 59 60
f 39 60 40
f 39 57 61
f 39 61 62
f 39 62 63
f 39 63 58
f 42 64 43
f 43 65 45
f 43 45 44
f 43 64 66
f 43 66 65
f 45 65 46
f 46 67 68
f 46 68 47
f 46 65 69
f 46 69 70
f 46 70 67
f 47 68 48
f 48 68 71
f 48 71 72
f 48 72 49
f 49 72 73
f 49 73 74
f 49 74 50
f 50 74 75
f 51 52 77
f 51 77 78
f 51 78 76
f 52 75 77
f 53 76 54
f 54 76 78
f 54 78 77
f 54 77 79
f 54 79 56
f 54 56 55
f 56 79 80
f 56 80 57
f 57 80 73
f 57 73 61
f 61 81 62
f 61 73 82
f 61 82 83
f 61 83 81
f 65 66 84
f 65 84 69
f 67 70 85
f 67 85 71
f 67 71 68
f 69 84 70
f 70 84 86
f 70 86 87
f 70 87 88
f 70 88 89
f 70 89 90
f 70 90 85
f 71 85 91
f 71 91 82
f 71 82 72
f 72 82 73
f 73 80 74
f 74 80 79
f 74 79 77
f 74 77 75
f 82 91 92
f 82 92 83
f 85 93 94
f 85 94 95
f 85 95 91
f 85 90 96
f 85 96 93
f 91 95 97
f 91 97 98
f 91 98 99
f 91 99 92

