# https://github.com/mikedh/trimesh
v -24.99010841 -25.25078362 15.64563859
v -24.98415879 -25.25973702 16.76095330
v -24.99010841 -25.25078362 16.55719739
v -24.99010841 -4.92583690 15.64563859
v -24.63703250 -25.59400818 15.64563859
v -24.98415879 -25.25973702 17.46519338
v -24.63769293 -25.59400818 16.55719739
v -24.99010841 -4.92583690 16.55719739
v -20.09199657 0.00169431 16.55737409
v -20.09199657 -0.00129064 15.64563859
v -24.12394666 -26.08049305 15.64563859
v -24.98415879 -4.92583690 17.46519338
v -24.63769293 -25.59400818 17.46519338
v -20.09133615 0.00169431 17.46519338
v -20.09199657 0.00169431 17.03987033
v -18.23536959 0.00169431 16.55737409
v -20.00405853 -0.00129064 15.64563859
v -23.85087353 -26.32821363 17.46519338
v -24.12394666 -26.08049305 16.55719739
v -23.63797014 -26.51922448 15.64563859
v -24.12394666 -26.07750954 17.46519338
v -18.23536959 0.00169431 17.46519338
v -18.23536959 -30.48870927 16.55737409
v -20.00405853 -29.36053942 15.64563859
v -23.63797014 -26.51922448 16.55719739
v -23.08389154 -27.00571224 17.46519338
v -23.08389154 -27.00571224 15.64563859
v -18.23536959 -30.48572576 17.46519338
v -18.64795336 -30.24098868 17.46519338
v -18.64795336 -30.24098868 16.55737409
v -19.13326800 -29.93357775 16.55737409
v -19.54915825 -29.66198334 17.46519338
v -19.87248168 -29.44709288 17.46519338
v -20.08406277 -29.30383257 17.46519338
v -20.11646130 -29.28293936 16.55719739
v -20.35779632 -29.11878873 16.55719739
v -20.35779632 -29.11878873 15.64563859
v -22.59791503 -27.41459995 17.46519338
v -22.59791503 -27.41459995 15.64563859
v -19.13326800 -29.93357775 17.46519338
v -20.35779632 -29.11580523 17.46519338
v -20.89732962 -28.72781074 17.46519338
v -20.62557880 -28.92479149 16.55719739
v -20.89732962 -28.72781074 15.64563859
v -21.99094152 -27.90108481 17.46519338
v -21.99160194 -27.89809841 15.64563859
v -21.99094152 -27.90108481 16.55737409
v -21.50694773 -28.27713950 17.46519338
v -21.50694773 -28.27713950 16.55737409
v -21.50628731 -28.27713950 15.64563859
f 1 2 6
f 1 6 3
f 1 3 8
f 1 8 4
f 1 4 10
f 1 10 17
f 1 17 24
f 1 24 37
f 1 37 44
f 1 44 50
f 1 50 46
f 1 46 39
f 1 39 27
f 1 27 20
f 1 20 11
f 1 11 5
f 1 5 2
f 2 5 7
f 2 7 13
f 2 13 6
f 3 6 12
f 3 12 8
f 4 8 15
f 4 15 9
f 4 9 10
f 5 11 7
f 6 13 21
f 6 21 18
f 6 18 26
f 6 26 38
f 6 38 45
f 6 45 48
f 6 48 42
f 6 42 41
f 6 41 34
f 6 34 33
f 6 33 32
f 6 32 40
f 6 40 29
f 6 29 28
f 6 28 22
f 6 22 14
f 6 14 12
f 7 11 19
f 7 19 13
f 8 12 14
f 8 14 15
f 9 15 14
f 9 14 22
f 9 22 16
f 9 16 17
f 9 17 10
f 11 18 19
f 11 20 18
f 13 19 21
f 16 23 24
f 16 24 17
f 16 22 28
f 16 28 23
f 18 21 19
f 18 20 25
f 18 25 26
f 20 27 26
f 20 26 25
f 23 28 29
f 23 29 30
f 23 30 24
f 24 30 31
f 24 31 32
f 24 32 33
f 24 33 34
f 24 34 35
f 24 35 36
f 24 36 37
f 26 27 39
f 26 39 38
f 29 40 31
f 29 31 30
f 31 40 32
f 34 41 36
f 34 36 35
f 36 41 42
f 36 42 43
f 36 43 37
f 37 43 44
f 38 39 47
f 38 47 45
f 39 46 47
f 42 48 49
f 42 49 44
f 42 44 43
f 44 49 50
f 45 47 49
f 45 49 48
f 46 50 47
f 47 50 49

