# https://github.com/mikedh/trimesh
v -5.93653646 -13.11301080 79.61631598
v -6.14465285 -13.29816036 79.61631598
v -5.93653646 -16.06117282 79.61631598
v -5.93653646 -8.71721812 76.77342239
v -14.10629488 -8.71721812 77.12490807
v -14.54381263 -8.71721812 77.07321815
v -7.13084196 -14.25443117 79.61631598
v -5.94599641 -16.05812125 79.61631598
v -5.93653646 -16.49556369 72.17827664
v -5.93653646 -8.71721812 26.81088775
v -14.74246907 -8.71721812 77.02669866
v -7.28929424 -15.05301947 79.61631598
v -6.31847741 -15.92281936 79.61631598
v -6.31847741 -15.94519998 79.23898679
v -7.26919180 -18.66955435 26.81088775
v -6.31847741 -18.99712710 26.81088775
v -6.26644858 -19.01340457 26.81088775
v -5.93653646 -19.10903165 26.81088775
v -18.01675699 -8.71721812 26.81088775
v -14.68689190 -8.89219481 76.94399769
v -6.97002388 -15.64204127 79.61631598
v -14.93521353 -8.71721812 76.32373020
v -6.74180614 -15.74275479 79.61631598
v -7.08590692 -15.68069936 78.26723363
v -7.75755656 -18.46710915 26.81088775
v -7.33304602 -18.64513886 26.81088775
v -7.30821414 -18.65531174 26.81088775
v -15.53354792 -8.71721812 66.87498909
v -17.74360421 -9.28182443 26.81088775
v -14.75784135 -9.01528895 76.32373020
v -13.62147701 -10.71114420 75.86369714
v -12.69559449 -11.72947043 75.89471109
v -7.00549861 -15.65323230 79.23898679
v -11.73423869 -12.70100055 75.91021662
v -8.82178892 -14.64711237 77.86922847
v -8.93885450 -14.71425568 77.29548047
v -8.26247543 -15.13135237 77.29548047
v -7.63339575 -15.48232390 77.29548047
v -14.97660023 -8.71721812 75.79133414
v -14.78976774 -9.09057027 75.35197704
v -8.22936650 -18.25042279 26.81088775
v -17.73532716 -9.29810118 26.81088775
v -14.48468857 -9.57582698 75.35197704
v -14.03771050 -10.20554101 75.35197704
v -13.64512634 -10.74064613 75.35197704
v -13.23244118 -11.22691954 75.35197704
v -12.74644150 -11.78440455 75.35197704
v -12.27226720 -12.27067797 75.35197704
v -11.78745006 -12.75084823 75.35197704
v -10.71139304 -13.62369970 75.88437311
v -9.52772930 -14.42025314 76.32373020
v -9.04173034 -14.76003508 76.32373020
v -8.26247543 -15.20663369 76.32373020
v -7.74100174 -15.53420645 75.56390138
v -9.29832829 -17.73566416 26.81088775
v -9.25339470 -17.75804478 26.81088775
v -17.50710797 -9.73045791 26.81088775
v -17.25760452 -10.15060617 26.81088775
v -17.24459731 -10.17197008 26.81088775
v -16.72903632 -11.00311116 26.81088775
v -14.51661496 -9.62465795 74.38022388
v -14.56864378 -9.70502499 72.76753017
v -16.40030638 -11.48938530 26.81088775
v -13.27028099 -11.26761178 74.38022388
v -15.88001523 -12.19844966 26.81088775
v -15.54537331 -12.62775409 26.81088775
v -12.78428130 -11.82509751 74.38022388
v -12.31010701 -12.31137093 74.38022388
v -11.22695403 -13.23610494 75.35197704
v -14.13467437 -14.20661835 26.81088775
v -13.66759386 -14.63693949 26.81088775
v -13.14730271 -15.09879887 26.81088775
v -10.74095506 -13.64709848 75.35197704
v -10.20647345 -14.03774481 75.35197704
v -9.57621123 -14.48536158 75.35197704
v -11.00346572 -16.72954568 26.81088775
v -10.17218198 -17.24532102 26.81088775
v -9.72993407 -17.50778677 26.81088775
v -7.78120590 -15.55353549 74.91261995
v -16.71129896 -11.02956151 26.81088775
v -15.09011819 -13.15879020 26.81088775
v -14.63722815 -13.66846094 26.81088775
v -14.20680563 -14.13540676 26.81088775
v -12.62701156 -15.54539748 26.81088775
v -12.22260346 -15.86076249 26.81088775
v -12.19777086 -15.88009154 26.81088775
v -12.16229613 -15.90654189 26.81088775
v -11.48946468 -16.40095477 26.81088775
f 1 2 7
f 1 7 12
f 1 12 21
f 1 21 23
f 1 23 13
f 1 13 8
f 1 8 3
f 1 3 9
f 1 9 18
f 1 18 10
f 1 10 4
f 1 4 5
f 1 5 6
f 1 6 2
f 2 6 7
f 3 8 9
f 4 10 19
f 4 19 28
f 4 28 39
f 4 39 22
f 4 22 11
f 4 11 6
f 4 6 5
f 6 11 7
f 7 11 12
f 8 13 14
f 8 14 15
f 8 15 9
f 9 15 16
f 9 16 17
f 9 17 18
f 10 18 17
f 10 17 16
f 10 16 15
f 10 15 27
f 10 27 26
f 10 26 25
f 10 25 41
f 10 41 56
f 10 56 55
f 10 55 78
f 10 78 77
f 10 77 76
f 10 76 88
f 10 88 87
f 10 87 86
f 10 86 85
f 10 85 84
f 10 84 72
f 10 72 71
f 10 71 70
f 10 70 83
f 10 83 82
f 10 82 81
f 10 81 66
f 10 66 65
f 10 65 63
f 10 63 80
f 10 80 60
f 10 60 59
f 10 59 58
f 10 58 57
f 10 57 42
f 10 42 29
f 10 29 19
f 11 20 21
f 11 21 12
f 11 22 20
f 13 23 24
f 13 24 25
f 13 25 26
f 13 26 27
f 13 27 14
f 14 27 15
f 19 29 28
f 20 22 30
f 20 30 31
f 20 31 32
f 20 32 21
f 21 33 23
f 21 32 34
f 21 34 35
f 21 35 36
f 21 36 37
f 21 37 38
f 21 38 33
f 22 39 40
f 22 40 30
f 23 33 24
f 24 33 38
f 24 38 41
f 24 41 25
f 28 29 42
f 28 42 39
f 30 40 43
f 30 43 31
f 31 43 44
f 31 44 45
f 31 45 46
f 31 46 47
f 31 47 32
f 32 47 48
f 32 48 34
f 34 48 49
f 34 49 50
f 34 50 35
f 35 50 36
f 36 50 51
f 36 51 52
f 36 52 37
f 37 52 53
f 37 53 38
f 38 53 54
f 38 54 55
f 38 55 56
f 38 56 41
f 39 42 57
f 39 57 40
f 40 57 58
f 40 58 59
f 40 59 60
f 40 60 43
f 43 60 61
f 43 61 44
f 44 61 62
f 44 62 63
f 44 63 45
f 45 64 46
f 45 63 65
f 45 65 66
f 45 66 64
f 46 64 67
f 46 67 47
f 47 67 68
f 47 68 48
f 48 68 49
f 49 69 50
f 49 68 70
f 49 70 71
f 49 71 72
f 49 72 69
f 50 69 73
f 50 73 74
f 50 74 51
f 51 74 75
f 51 75 52
f 52 75 76
f 52 76 77
f 52 77 78
f 52 78 53
f 53 79 54
f 53 78 79
f 54 79 55
f 55 79 78
f 60 80 61
f 61 80 63
f 61 63 62
f 64 66 81
f 64 81 67
f 67 81 82
f 67 82 83
f 67 83 68
f 68 83 70
f 69 72 84
f 69 84 73
f 73 84 85
f 73 85 86
f 73 86 87
f 73 87 88
f 73 88 74
f 74 88 75
f 75 88 76

