# https://github.com/mikedh/trimesh
v -4.93582412 -25.05782336 18.37700129
v -4.93828696 -25.05782336 18.54335044
v 0.00200235 -29.93367623 18.37700129
v -25.15751482 -25.05782336 18.37700129
v -4.95060043 -25.05782336 18.98321734
v 0.00200235 -29.97253709 18.98383142
v 0.00200235 -35.50286636 18.37700129
v -25.10579883 -25.10895423 18.37700129
v -25.10333382 -25.05782336 18.98383142
v -4.98754156 -25.05782336 19.06119106
v 0.00200235 -30.02673547 19.26792757
v 0.00200235 -35.49570595 18.49999405
v -0.48808662 -35.50388886 18.37700129
v -24.62063482 -25.58140505 18.37700129
v -24.59354287 -25.55481711 18.98383142
v -25.05654206 -25.05782336 19.04930339
v -24.53689975 -25.50164123 19.27002472
v -5.08851505 -25.05782336 19.27002472
v -0.00292333 -30.02775797 19.27002472
v 0.00200235 -30.06661593 19.27002472
v 0.00200235 -35.46400550 18.98383142
v -0.48808662 -35.46400550 18.98383142
v -1.09392466 -35.48650343 18.37700129
v -24.10591674 -26.06715128 18.37700129
v -24.07882768 -26.04056334 18.98383142
v -24.89153693 -25.05782336 19.27002472
v -23.53948411 -26.43324744 19.27002472
v 0.00200235 -35.36685625 19.27002472
v 0.00200235 -35.41594213 19.12754070
v -0.48808662 -35.36685625 19.27002472
v -1.45841248 -35.34129081 19.27002472
v -1.45841248 -35.43537256 18.98383142
v -1.45841248 -35.47525302 18.37700129
v -23.80299844 -26.34121360 18.37700129
v -23.62075562 -26.50585375 18.37700129
v -23.59120155 -26.48028831 18.98383142
v -23.03461884 -26.96705704 18.98383142
v -22.50266306 -27.33724321 19.27002472
v -2.43120118 -35.29527245 19.27002472
v -2.43120118 -35.38321918 18.98383142
v -2.43120118 -35.42207714 18.37700129
v -23.06417290 -26.99262248 18.37700129
v -22.54945482 -27.37610406 18.98383142
v -21.42397592 -28.21874394 19.27002472
v -3.40398987 -35.22573654 19.27002472
v -3.40398987 -35.30345536 18.98383142
v -3.40398987 -35.34129081 18.37700129
v -22.57900889 -27.40064700 18.37700129
v -21.97317084 -27.88741284 18.37700129
v -21.94115611 -27.86184740 18.98383142
v -21.45599210 -28.24328687 18.98383142
v -20.89448370 -28.65437890 18.98383142
v -20.30095913 -29.08285635 18.98383142
v -19.74683853 -29.36714657 19.27002472
v -4.37431573 -35.13267730 19.27002472
v -4.37431573 -35.19505569 18.98383142
v -4.37431573 -35.23391655 18.37700129
v -21.48554616 -28.26680731 18.37700129
v -21.27621139 -28.42122244 18.37700129
v -20.89448370 -28.70141977 18.37700129
v -20.33543743 -29.10739928 18.37700129
v -19.81579656 -29.41316205 18.98383142
v -18.54993948 -30.18319561 19.27002472
v -5.19687634 -35.03655055 19.27002472
v -5.65987408 -34.97826216 19.27002472
v -5.36434357 -35.05904849 18.98365472
v -5.94062828 -35.00894011 18.65969838
v -5.96525594 -35.01303012 18.37700129
v -19.85027486 -29.43668248 18.37700129
v -19.07696958 -29.89993078 18.98383142
v -18.59180701 -30.20978355 18.98383142
v -17.97857973 -30.57179260 18.98383142
v -17.27176892 -30.97879461 18.98383142
v -16.72257400 -31.20990606 19.27002472
v -5.71159224 -34.97007925 19.27002472
v -5.76577252 -34.96087674 19.27002472
v -6.28541411 -34.90463335 18.98365472
v -7.29021898 -34.70624485 18.98383142
v -7.29021898 -34.74612531 18.37700129
v -19.11144787 -29.92242871 18.37700129
v -18.62628530 -30.23023648 18.37700129
v -17.97857973 -30.61474056 18.37700129
v -17.31117289 -31.00129255 18.37700129
v -16.78660635 -31.24467691 18.98383142
v -16.03546590 -31.63224850 18.98383142
v -14.79177364 -32.17321562 19.27002472
v -8.26300768 -34.48740342 18.98383142
v -9.81208108 -34.04563056 19.27002472
v -8.26300768 -34.52830928 18.37700129
v -7.89851914 -34.61011811 18.37700129
v -16.82601032 -31.26614945 18.37700129
v -16.03546590 -31.67622187 18.37700129
v -15.34589424 -31.97584962 18.98383142
v -14.86073167 -32.20491607 18.98383142
v -14.09235062 -32.54646929 18.98383142
v -12.70581951 -33.07311848 19.27002472
v -9.23579638 -34.24197405 18.98383142
v -11.17891093 -33.65499146 18.98383142
v -10.36620096 -33.91678086 18.98383142
v -9.88103839 -34.06506098 18.98383142
v -9.23579638 -34.28083491 18.37700129
v -15.77687580 -31.80507156 18.37700129
v -15.39022389 -31.99732505 18.37700129
v -14.09235062 -32.58737515 18.37700129
v -14.90506132 -32.22536900 18.37700129
v -13.77465529 -32.72133735 18.37700129
v -13.29688052 -32.92177085 18.37700129
v -13.24516308 -32.90029832 18.98383142
v -12.76000051 -33.09459392 18.98383142
v -12.15169890 -33.31957036 18.98383142
v -11.17891093 -33.69691693 18.37700129
v -10.87352907 -33.79508868 18.37700129
v -10.43023331 -33.93723379 18.37700129
v -9.94507002 -34.08449141 18.37700129
v -12.81171795 -33.11504685 18.37700129
v -12.15169890 -33.36047622 18.37700129
f 1 2 3
f 1 3 7
f 1 7 13
f 1 13 23
f 1 23 33
f 1 33 41
f 1 41 47
f 1 47 57
f 1 57 68
f 1 68 79
f 1 79 90
f 1 90 89
f 1 89 101
f 1 101 114
f 1 114 113
f 1 113 112
f 1 112 111
f 1 111 116
f 1 116 115
f 1 115 107
f 1 107 106
f 1 106 104
f 1 104 105
f 1 105 103
f 1 103 102
f 1 102 92
f 1 92 91
f 1 91 83
f 1 83 82
f 1 82 81
f 1 81 80
f 1 80 69
f 1 69 61
f 1 61 60
f 1 60 59
f 1 59 58
f 1 58 49
f 1 49 48
f 1 48 42
f 1 42 35
f 1 35 34
f 1 34 24
f 1 24 14
f 1 14 8
f 1 8 4
f 1 4 9
f 1 9 16
f 1 16 26
f 1 26 18
f 1 18 10
f 1 10 5
f 1 5 2
f 2 5 3
f 3 6 11
f 3 11 20
f 3 20 28
f 3 28 29
f 3 29 21
f 3 21 12
f 3 12 7
f 3 5 6
f 4 8 9
f 5 10 11
f 5 11 6
f 7 12 13
f 8 14 15
f 8 15 9
f 9 15 17
f 9 17 16
f 10 18 11
f 11 19 20
f 11 18 19
f 12 21 13
f 13 21 22
f 13 22 23
f 14 24 25
f 14 25 15
f 15 25 17
f 16 17 26
f 17 25 27
f 17 27 38
f 17 38 44
f 17 44 54
f 17 54 63
f 17 63 74
f 17 74 86
f 17 86 96
f 17 96 88
f 17 88 76
f 17 76 75
f 17 75 65
f 17 65 64
f 17 64 55
f 17 55 45
f 17 45 39
f 17 39 31
f 17 31 30
f 17 30 28
f 17 28 20
f 17 20 19
f 17 19 18
f 17 18 26
f 21 29 22
f 22 29 30
f 22 30 31
f 22 31 32
f 22 32 23
f 23 32 33
f 24 34 25
f 25 34 35
f 25 35 36
f 25 36 27
f 27 36 37
f 27 37 38
f 28 30 29
f 31 39 32
f 32 39 40
f 32 40 33
f 33 40 41
f 35 42 37
f 35 37 36
f 37 42 43
f 37 43 38
f 38 43 44
f 39 45 40
f 40 45 46
f 40 46 41
f 41 46 47
f 42 48 43
f 43 48 49
f 43 49 50
f 43 50 44
f 44 50 51
f 44 51 52
f 44 52 53
f 44 53 54
f 45 55 46
f 46 55 56
f 46 56 57
f 46 57 47
f 49 58 51
f 49 51 50
f 51 59 60
f 51 60 52
f 51 58 59
f 52 60 61
f 52 61 53
f 53 61 62
f 53 62 63
f 53 63 54
f 55 64 56
f 56 64 65
f 56 65 66
f 56 66 67
f 56 67 57
f 57 67 68
f 61 69 62
f 62 69 70
f 62 70 63
f 63 70 71
f 63 71 72
f 63 72 73
f 63 73 74
f 65 75 67
f 65 67 66
f 67 75 76
f 67 76 77
f 67 77 78
f 67 78 79
f 67 79 68
f 69 80 70
f 70 80 71
f 71 80 81
f 71 81 82
f 71 82 72
f 72 82 83
f 72 83 73
f 73 83 84
f 73 84 74
f 74 84 85
f 74 85 86
f 76 87 78
f 76 78 77
f 76 88 87
f 78 87 89
f 78 89 90
f 78 90 79
f 83 91 84
f 84 91 92
f 84 92 85
f 85 92 102
f 85 102 93
f 85 93 86
f 86 93 94
f 86 94 95
f 86 95 96
f 87 97 89
f 87 88 97
f 88 96 98
f 88 98 99
f 88 99 100
f 88 100 97
f 89 97 101
f 93 102 103
f 93 103 94
f 94 104 95
f 94 103 105
f 94 105 104
f 95 104 106
f 95 106 107
f 95 107 108
f 95 108 96
f 96 108 109
f 96 109 110
f 96 110 98
f 97 100 101
f 98 111 99
f 98 110 111
f 99 111 112
f 99 112 113
f 99 113 100
f 100 113 114
f 100 114 101
f 107 115 109
f 107 109 108
f 109 116 110
f 109 115 116
f 110 116 111

