# https://github.com/mikedh/trimesh
v 19.90779579 0.91661064 26.81088775
v 19.88445494 1.45831820 26.81088775
v 19.88278794 0.91661064 27.30193187
v 2.87925112 0.91661064 26.81088775
v 18.47735793 1.12167545 53.70981498
v 19.45265653 1.16226884 35.29304324
v 19.43765212 0.91661064 35.82027176
v 19.80276343 2.37866078 26.81088775
v 19.42764869 1.81035804 34.83301307
v 18.45235009 1.76976483 53.22393876
v 17.71379103 1.45831820 67.57796045
v 17.50205932 1.07128430 72.10591075
v 2.87925112 8.06588920 26.81088775
v 2.87925112 0.91661064 76.62869350
v 18.46735450 0.91661064 54.09748216
v 19.79776244 2.43045209 26.81088775
v 18.46902295 1.96923087 52.58299604
v 17.49205590 1.92863784 70.95841765
v 17.54540557 1.54580311 70.57591801
v 17.06692692 1.45831820 79.61631598
v 17.08859932 1.08598167 79.61631598
v 17.10693773 0.91661064 79.45091113
v 17.49872533 0.91661064 72.28682113
v 2.87925112 8.06588920 77.99328138
v 18.32064434 8.06588920 26.81088775
v 8.68769506 0.91661064 79.61631598
v 19.67772566 3.35079467 26.81088775
v 17.51039575 2.06091512 70.30713621
v 16.95522513 2.43045209 79.61631598
v 16.99857283 2.05811556 79.61631598
v 17.09693575 0.91661064 79.61631598
v 9.21452312 1.47091590 79.61631598
v 14.16770595 6.23710149 79.61631598
v 14.81623705 6.67802638 79.61631598
v 14.83290847 6.68712461 79.61631598
v 15.35473626 6.89288932 79.61631598
v 14.82457348 8.04909251 78.00361937
v 14.83290847 8.06588920 77.96227033
v 18.46568750 7.75584164 26.81088775
v 15.39141308 8.06588920 75.02633777
v 15.55312911 7.78033823 74.91261995
v 15.51144985 7.69285278 76.32373020
v 19.52601161 4.28093592 26.81088775
v 17.50039233 2.94626382 68.17238152
v 17.48205392 2.83428304 68.82366296
v 17.46371406 2.69990590 69.52146387
v 17.44870964 2.40315665 70.57591801
v 17.53206960 2.21348910 69.52146387
v 17.02858166 2.43045209 78.26723363
v 16.85185977 3.02954955 79.61631598
v 15.59314281 6.86069500 79.61631598
v 15.01463135 8.06588920 77.65730413
v 18.64574194 7.33241442 26.81088775
v 15.70817715 7.14624670 77.29548047
v 15.37140768 8.06588920 75.35197704
v 15.31139001 8.06588920 76.32373020
v 15.46476961 7.63196324 77.29548047
v 15.67983532 7.06016104 78.26723363
v 19.51600964 4.33132707 26.81088775
v 16.78684112 3.40188608 79.61631598
v 15.68983874 6.68572483 79.61631598
v 15.62815263 6.92438411 79.23898679
v 15.15467497 8.06588920 77.33166486
v 18.65574682 7.30791855 26.81088775
v 16.00160037 6.31688776 78.26723363
v 15.28638072 8.06588920 76.62869350
v 15.92324286 6.31688776 79.23898679
v 19.42098070 4.77085218 26.81088775
v 16.60511824 4.20534864 79.61631598
v 15.86489219 6.32668625 79.61631598
v 18.99585028 6.31688776 26.81088775
v 16.51342330 5.80387578 72.76753017
v 16.27501819 5.34545395 79.61631598
v 16.04494663 5.94525148 79.61631598
v 19.30261093 5.24537117 26.81088775
v 16.55677100 4.39151709 79.61631598
v 19.01085470 6.26579671 26.81088775
v 16.52676072 4.87163485 77.85372294
v 16.47674648 4.69106591 79.61631598
v 16.50842231 4.80654596 78.50500437
v 19.28427252 5.31185985 26.81088775
f 1 2 3
f 1 3 7
f 1 7 15
f 1 15 23
f 1 23 22
f 1 22 31
f 1 31 26
f 1 26 14
f 1 14 4
f 1 4 13
f 1 13 25
f 1 25 39
f 1 39 53
f 1 53 64
f 1 64 71
f 1 71 77
f 1 77 81
f 1 81 75
f 1 75 68
f 1 68 59
f 1 59 43
f 1 43 27
f 1 27 16
f 1 16 8
f 1 8 2
f 2 5 6
f 2 6 7
f 2 7 3
f 2 8 9
f 2 9 10
f 2 10 11
f 2 11 12
f 2 12 5
f 4 14 24
f 4 24 13
f 5 15 7
f 5 7 6
f 5 12 15
f 8 16 17
f 8 17 9
f 9 17 10
f 10 17 11
f 11 18 19
f 11 19 20
f 11 20 12
f 11 17 18
f 12 20 21
f 12 21 22
f 12 22 23
f 12 23 15
f 13 24 38
f 13 38 52
f 13 52 63
f 13 63 66
f 13 66 56
f 13 56 55
f 13 55 40
f 13 40 25
f 14 26 24
f 16 27 28
f 16 28 18
f 16 18 17
f 18 28 29
f 18 29 30
f 18 30 20
f 18 20 19
f 20 30 29
f 20 29 50
f 20 50 60
f 20 60 69
f 20 69 76
f 20 76 79
f 20 79 73
f 20 73 74
f 20 74 70
f 20 70 61
f 20 61 51
f 20 51 36
f 20 36 35
f 20 35 34
f 20 34 33
f 20 33 32
f 20 32 26
f 20 26 31
f 20 31 21
f 21 31 22
f 24 26 32
f 24 32 33
f 24 33 34
f 24 34 35
f 24 35 36
f 24 36 37
f 24 37 38
f 25 40 41
f 25 41 42
f 25 42 39
f 27 43 44
f 27 44 45
f 27 45 46
f 27 46 47
f 27 47 48
f 27 48 28
f 28 48 49
f 28 49 29
f 29 49 45
f 29 45 44
f 29 44 50
f 36 51 37
f 37 51 38
f 38 51 52
f 39 42 54
f 39 54 53
f 40 55 41
f 41 55 56
f 41 56 42
f 42 56 57
f 42 57 58
f 42 58 54
f 43 59 60
f 43 60 44
f 44 60 50
f 45 49 46
f 46 49 47
f 47 49 48
f 51 61 62
f 51 62 63
f 51 63 52
f 53 54 65
f 53 65 64
f 54 58 65
f 56 66 57
f 57 66 62
f 57 62 58
f 58 62 67
f 58 67 65
f 59 68 60
f 60 68 69
f 61 70 62
f 62 70 67
f 62 66 63
f 64 65 72
f 64 72 73
f 64 73 71
f 65 67 74
f 65 74 73
f 65 73 72
f 67 70 74
f 68 75 69
f 69 75 76
f 71 73 78
f 71 78 77
f 73 79 80
f 73 80 78
f 75 81 80
f 75 80 79
f 75 79 76
f 77 78 81
f 78 80 81

