# https://github.com/mikedh/trimesh
v 0.00421970 35.52562747 17.46519338
v 0.00421970 35.52562747 16.55744361
v -0.48676360 35.52562747 17.46519338
v 0.00421970 29.90955869 17.46519338
v 0.00421970 35.43863083 16.55744361
v -0.48676360 35.52562747 16.55744361
v -0.91168763 35.51387305 17.46519338
v -4.67708449 23.51638862 17.26340136
v 0.00421970 29.90955869 16.55833286
v -4.67886989 23.51638862 17.46519338
v 0.00243467 29.90955869 16.55744361
v -1.45801854 35.49858766 16.55744361
v -1.45801854 35.49858766 17.46519338
v -4.67708449 23.51638862 16.55744361
v -18.23536959 23.51638862 17.46519338
v -2.43105852 35.44333491 16.55744361
v -2.43105852 35.44333491 17.46519338
v -18.23536959 23.51638862 16.55744361
v -18.23536959 30.48680289 17.46519338
v -2.92025606 35.40336176 16.55744361
v -2.85598183 35.40806295 17.46519338
v -18.23536959 30.48680289 16.55744361
v -17.98005845 30.63846045 17.46519338
v -17.98005845 30.63963648 17.03993116
v -3.40231274 35.36221258 16.55744361
v -3.40231274 35.36221258 17.46519338
v -17.98005845 30.63963648 16.55744361
v -17.61762215 30.85007775 17.46519338
v -17.66047163 30.82538998 16.55744361
v -4.37535272 35.25522936 16.55744361
v -4.37535272 35.25522936 17.46519338
v -17.33553045 31.01349264 17.46519338
v -17.33553045 31.01349264 16.55744361
v -5.34660730 35.12003031 16.55744361
v -4.80027675 35.19644855 17.46519338
v -17.12306879 31.12988114 17.46519338
v -16.84990297 31.27801353 16.55744361
v -5.99113457 35.01774828 16.55744361
v -5.62869973 35.07535596 17.46519338
v -5.34660730 35.12003031 17.46519338
v -16.84990297 31.27801353 17.46519338
v -16.44640440 31.48845481 16.55744361
v -6.47854744 34.93075163 16.55744361
v -5.99113457 35.01774828 17.46519338
v -16.39105751 31.51667064 17.46519338
v -16.03576280 31.70124813 17.46519338
v -16.03576280 31.70124813 16.55744361
v -6.83384071 34.86021350 17.46519338
v -6.47676241 34.93075163 17.46519338
v -7.29090186 34.76968879 16.55744361
v -7.29090186 34.76968879 17.46519338
v -15.72867629 31.85525774 16.55744361
v -15.41801826 32.01044337 17.46519338
v -7.78010012 34.66035352 16.55744361
v -7.71582590 34.67445999 17.46519338
v -15.41801826 32.01044337 16.55744361
v -14.93060503 32.23851918 17.46519338
v -15.17341732 32.12565585 16.55744361
v -8.26215608 34.55219138 16.55744361
v -8.26215608 34.55101826 17.46519338
v -14.93060503 32.23851918 16.55744361
v -14.09146860 32.61354846 17.46519338
v -8.75135434 34.42757363 16.55744361
v -9.23341102 34.30413190 17.46519338
v -14.09146860 32.61354846 16.55744361
v -13.32910525 32.93450103 17.46519338
v -9.23341102 34.30413190 16.55744361
v -9.60834400 34.19949782 16.55744361
v -9.97970546 34.09486664 17.46519338
v -13.32910525 32.93450103 16.55744361
v -13.11664359 33.01914852 17.46519338
v -9.97970546 34.09486664 16.55744361
v -10.25287127 34.01374431 17.46519338
v -12.84169347 33.12730777 16.55744361
v -12.84169347 33.12730777 17.46519338
v -10.22073416 34.02315249 16.55744361
v -10.46533293 33.95026231 16.55744361
v -10.46533293 33.95026231 17.03993116
v -10.46533293 33.94908629 17.46519338
v -12.49711185 33.25545359 16.55744361
v -12.14896016 33.38477543 17.46519338
v -11.17592019 33.72218361 16.55744361
v -10.77599168 33.85032943 17.46519338
v -12.14896016 33.38477543 16.55744361
v -11.17592019 33.72101048 17.46519338
f 1 2 6
f 1 6 3
f 1 3 7
f 1 7 13
f 1 13 17
f 1 17 21
f 1 21 26
f 1 26 31
f 1 31 35
f 1 35 40
f 1 40 39
f 1 39 44
f 1 44 49
f 1 49 48
f 1 48 51
f 1 51 55
f 1 55 60
f 1 60 64
f 1 64 69
f 1 69 73
f 1 73 79
f 1 79 83
f 1 83 85
f 1 85 81
f 1 81 75
f 1 75 71
f 1 71 66
f 1 66 62
f 1 62 57
f 1 57 53
f 1 53 46
f 1 46 45
f 1 45 41
f 1 41 36
f 1 36 32
f 1 32 28
f 1 28 23
f 1 23 19
f 1 19 15
f 1 15 10
f 1 10 4
f 1 4 9
f 1 9 5
f 1 5 2
f 2 5 11
f 2 11 14
f 2 14 18
f 2 18 22
f 2 22 27
f 2 27 29
f 2 29 33
f 2 33 37
f 2 37 42
f 2 42 47
f 2 47 52
f 2 52 56
f 2 56 58
f 2 58 61
f 2 61 65
f 2 65 70
f 2 70 74
f 2 74 80
f 2 80 84
f 2 84 82
f 2 82 77
f 2 77 76
f 2 76 72
f 2 72 68
f 2 68 67
f 2 67 63
f 2 63 59
f 2 59 54
f 2 54 50
f 2 50 43
f 2 43 38
f 2 38 34
f 2 34 30
f 2 30 25
f 2 25 20
f 2 20 16
f 2 16 12
f 2 12 6
f 3 6 7
f 4 8 14
f 4 14 9
f 4 10 8
f 5 9 11
f 6 12 7
f 7 12 13
f 8 10 15
f 8 15 18
f 8 18 14
f 9 14 11
f 12 16 17
f 12 17 13
f 15 19 22
f 15 22 18
f 16 20 17
f 17 20 21
f 19 23 24
f 19 24 27
f 19 27 22
f 20 25 26
f 20 26 21
f 23 28 24
f 24 28 29
f 24 29 27
f 25 30 31
f 25 31 26
f 28 32 29
f 29 32 33
f 30 34 35
f 30 35 31
f 32 36 33
f 33 36 37
f 34 38 39
f 34 39 40
f 34 40 35
f 36 41 37
f 37 41 42
f 38 43 44
f 38 44 39
f 41 45 42
f 42 45 46
f 42 46 47
f 43 48 49
f 43 49 44
f 43 50 51
f 43 51 48
f 46 52 47
f 46 53 52
f 50 54 51
f 51 54 55
f 52 53 56
f 53 57 58
f 53 58 56
f 54 59 55
f 55 59 60
f 57 61 58
f 57 62 65
f 57 65 61
f 59 63 64
f 59 64 60
f 62 66 70
f 62 70 65
f 63 67 64
f 64 67 68
f 64 68 69
f 66 71 70
f 68 72 69
f 69 72 73
f 70 71 74
f 71 75 74
f 72 76 73
f 73 77 78
f 73 78 79
f 73 76 77
f 74 75 80
f 75 81 80
f 77 82 78
f 78 82 83
f 78 83 79
f 80 81 84
f 81 85 82
f 81 82 84
f 82 85 83

