# https://github.com/mikedh/trimesh
v -25.04321767 -25.20006985 10.07980273
v -24.63733664 -25.59518130 10.07980273
v -24.69350472 -25.54101189 11.32163248
v -25.04321767 -25.20006985 11.32163248
v -25.04321767 -2.93990111 10.07980273
v -24.57693084 -25.65253699 11.32163248
v -24.63733664 -25.59518130 11.32163248
v -24.20708068 -26.00304071 10.07980273
v -25.04321767 -4.59364044 11.32163248
v -20.33371974 -0.00523003 11.32163248
v -21.94135019 -0.00523003 10.10812864
v -21.94770824 -0.00523003 10.09366299
v -21.95300757 -0.00523003 10.07980273
v -24.12442170 -26.07951399 11.32163248
v -24.04600046 -26.15280100 10.07980273
v -14.21794308 -0.00523003 11.32163248
v -14.21794308 -0.00523003 10.07980273
v -23.69522589 -26.46825581 11.32163248
v -23.63905927 -26.51923606 10.07980273
v -23.63905927 -26.51923606 10.23650619
v -14.21794308 -32.55745901 11.32163248
v -14.21794308 -32.55427274 10.07980273
v -23.63799911 -26.51923606 11.32163248
v -23.08375395 -27.00675502 10.07980273
v -23.08375395 -27.00675502 11.32163248
v -23.57335557 -26.57659175 11.32163248
v -14.83577307 -32.28024229 11.32163248
v -14.93326846 -32.23563167 10.07980273
v -14.22959902 -32.55108648 10.07980273
v -22.59733136 -27.41461443 10.07980273
v -22.65455815 -27.36681755 11.32163248
v -14.99049524 -32.21014154 11.32163248
v -15.34126981 -32.04763329 10.07980273
v -22.08971431 -27.82247095 10.07980273
v -22.59733136 -27.41461443 11.32163248
v -15.41969105 -32.00939810 11.32163248
v -15.51930676 -31.96160412 10.07980273
v -21.99221747 -27.89894712 11.32163248
v -21.50579633 -28.28131351 10.07980273
v -21.56302167 -28.23670289 11.32163248
v -16.03752104 -31.70031873 11.32163248
v -16.03752104 -31.70031873 10.07980273
v -20.99500025 -28.65730736 10.07980273
v -21.50579633 -28.28131351 10.23650619
v -21.43479329 -28.33229666 11.32163248
v -16.75496818 -31.32750824 11.32163248
v -16.16892989 -31.63340135 10.07980273
v -20.83285987 -28.77520500 11.32163248
v -20.35703451 -29.11933619 10.07980273
v -16.90651133 -31.24784870 11.32163248
v -16.85034471 -31.27652799 10.07980273
v -20.35703451 -29.11933619 11.32163248
v -20.27861327 -29.17350561 10.07980273
v -17.33570714 -31.01205633 10.07980273
v -17.33570714 -31.01205633 11.32163248
v -19.92783871 -29.40929797 11.32163248
v -19.87061192 -29.44753606 10.07980273
v -17.90584887 -30.68385646 11.32163248
v -17.98109109 -30.63924585 10.07980273
v -19.78477392 -29.50488885 11.32163248
v -19.13409064 -29.93505212 10.07980273
v -17.98109109 -30.63924585 11.32163248
v -18.08918371 -30.57552053 10.07980273
v -19.13409064 -29.93505212 11.32163248
v -18.64766949 -30.24094813 10.07980273
v -18.70489483 -30.20589631 11.32163248
v -18.57030696 -30.28874501 11.32163248
f 1 2 3
f 1 3 4
f 1 4 9
f 1 9 5
f 1 5 13
f 1 13 17
f 1 17 22
f 1 22 29
f 1 29 28
f 1 28 33
f 1 33 37
f 1 37 42
f 1 42 47
f 1 47 51
f 1 51 54
f 1 54 59
f 1 59 63
f 1 63 65
f 1 65 61
f 1 61 57
f 1 57 53
f 1 53 49
f 1 49 43
f 1 43 39
f 1 39 34
f 1 34 30
f 1 30 24
f 1 24 19
f 1 19 15
f 1 15 8
f 1 8 2
f 2 6 7
f 2 7 3
f 2 8 6
f 3 7 6
f 3 6 14
f 3 14 18
f 3 18 23
f 3 23 26
f 3 26 25
f 3 25 31
f 3 31 35
f 3 35 38
f 3 38 40
f 3 40 45
f 3 45 48
f 3 48 52
f 3 52 56
f 3 56 60
f 3 60 64
f 3 64 66
f 3 66 67
f 3 67 62
f 3 62 58
f 3 58 55
f 3 55 50
f 3 50 46
f 3 46 41
f 3 41 36
f 3 36 32
f 3 32 27
f 3 27 21
f 3 21 16
f 3 16 10
f 3 10 9
f 3 9 4
f 5 9 10
f 5 10 11
f 5 11 12
f 5 12 13
f 6 8 14
f 8 15 14
f 10 16 17
f 10 17 13
f 10 13 12
f 10 12 11
f 14 15 18
f 15 19 20
f 15 20 18
f 16 21 22
f 16 22 17
f 18 20 23
f 19 24 25
f 19 25 20
f 20 25 26
f 20 26 23
f 21 27 28
f 21 28 29
f 21 29 22
f 24 30 31
f 24 31 25
f 27 32 28
f 28 32 33
f 30 34 35
f 30 35 31
f 32 36 33
f 33 36 37
f 34 38 35
f 34 39 40
f 34 40 38
f 36 41 37
f 37 41 42
f 39 43 44
f 39 44 40
f 40 44 45
f 41 46 47
f 41 47 42
f 43 48 44
f 43 49 48
f 44 48 45
f 46 50 51
f 46 51 47
f 48 49 52
f 49 53 52
f 50 54 51
f 50 55 54
f 52 53 56
f 53 57 56
f 54 55 58
f 54 58 59
f 56 57 60
f 57 61 60
f 58 62 63
f 58 63 59
f 60 61 64
f 61 65 66
f 61 66 64
f 62 67 63
f 63 67 65
f 65 67 66

