# https://github.com/mikedh/trimesh
v -35.39089708 -3.09017265 17.46528027
v -35.36446266 -3.40239991 17.46528027
v -35.36446266 -3.40239991 18.01186680
v -35.38988037 -3.09017265 18.01186680
v -28.79956445 -3.09017265 17.46528027
v -35.25770827 -4.37594172 17.46528027
v -35.34209507 -3.40239991 18.37699839
v -35.25770827 -4.37594172 18.01186680
v -35.36751278 -3.09017265 18.37699839
v -25.00418592 -4.92667547 17.46528027
v -28.79956445 -3.09017265 17.57729490
v -35.12350275 -5.34731471 17.46528027
v -35.27499231 -4.00950811 18.37699839
v -35.15095388 -4.98088182 18.37699839
v -35.23432397 -4.37594172 18.37699839
v -35.12350275 -5.34731471 18.01186680
v -28.83311583 -3.09017265 18.37699839
v -25.00418592 -25.23878588 17.46528027
v -25.00418592 -4.92667547 18.01186680
v -28.80159786 -3.09017265 18.01186680
v -35.01979849 -5.99995610 17.46528027
v -35.01369823 -5.96960112 18.37699839
v -35.01979849 -5.99995610 18.01186680
v -25.00418592 -4.93751674 18.37699839
v -25.00418592 -25.23878588 18.01186680
v -25.12517422 -25.12386885 17.46528027
v -34.93236156 -6.48564295 17.46528027
v -34.93236156 -6.48564295 18.01186680
v -34.77273833 -7.29006139 18.01186680
v -34.74833732 -7.29006139 18.37699839
v -25.00418592 -25.20842945 18.37699839
v -25.00418592 -25.22794388 18.14887044
v -25.12517422 -25.12386885 18.01186680
v -25.59692696 -24.63818055 17.46528027
v -34.84289121 -6.93880599 17.46528027
v -34.77273833 -7.29006139 17.46528027
v -34.65073331 -7.83645892 17.46528027
v -34.55516271 -8.26360321 18.01186680
v -34.61311220 -7.89716960 18.37699839
v -25.10789018 -25.10652109 18.37699839
v -25.58167633 -24.62083568 18.37699839
v -25.59692696 -24.63818055 18.01186680
v -26.08291651 -24.12430828 17.46528027
v -34.55516271 -8.26360321 17.46528027
v -34.53076171 -8.26360321 18.37699839
v -34.30809966 -9.23497619 18.01186680
v -34.28471536 -9.23497619 18.37699839
v -26.06766588 -24.10696196 18.37699839
v -26.08291651 -24.12430828 18.01186680
v -26.52315128 -23.63862143 17.46528027
v -34.30809966 -9.23497619 17.46528027
v -34.09662429 -9.98735711 18.01186680
v -34.08544050 -9.94832898 18.37699839
v -26.50790065 -23.62127511 18.37699839
v -26.52315128 -23.63862143 18.01186680
v -27.00913793 -23.08571885 17.46528027
v -34.09662429 -9.98735711 17.46528027
v -34.03358837 -10.19984556 17.46528027
v -33.95123498 -10.47304397 18.01186680
v -33.93903448 -10.43401583 18.37699839
v -26.99388730 -23.06620442 18.37699839
v -27.00913793 -23.08571885 18.01186680
v -27.41683802 -22.59786389 17.46528027
v -33.95123498 -10.47304397 17.46528027
v -33.82312971 -10.86983255 17.46528027
v -33.72349228 -11.17772287 18.01186680
v -33.79669529 -10.87633760 18.37699839
v -27.40260411 -22.58051902 18.37699839
v -27.41683802 -22.59786389 18.01186680
v -27.90282757 -21.99292379 17.46528027
v -33.72349228 -11.17772287 17.46528027
v -33.69909128 -11.17772287 18.37699839
v -33.53336780 -11.72628851 17.46528027
v -33.38594507 -12.15126541 18.01186680
v -27.88859365 -21.97341081 18.37699839
v -27.90282757 -21.99292379 18.01186680
v -28.28205983 -21.50507028 17.46528027
v -33.36154407 -12.15126541 18.37699839
v -33.38594507 -12.15126541 17.46528027
v -33.12770112 -12.84510232 18.01186680
v -33.11550062 -12.81474735 18.37699839
v -28.26782592 -21.48772251 18.37699839
v -28.28205983 -21.50507028 18.01186680
v -28.73144498 -20.89579252 17.46528027
v -33.12770112 -12.84510232 17.46528027
v -33.04331431 -13.05759005 17.46528027
v -32.93350980 -13.33078918 18.01186680
v -32.92130930 -13.30043420 18.37699839
v -28.70297714 -20.89579252 18.37699839
v -28.73042827 -20.89579252 18.01186680
v -29.12186103 -20.35590004 18.01186680
v -29.12186103 -20.35590004 17.46528027
v -32.93350980 -13.33078918 17.46528027
v -32.61222702 -14.09401137 18.01186680
v -32.58680931 -14.09401137 18.37699839
v -29.10762712 -20.33638561 18.37699839
v -29.45026077 -19.87021319 18.01186680
v -29.30690198 -20.08270092 17.46528027
v -32.61222702 -14.09401137 17.46528027
v -32.23706160 -14.92878551 18.01186680
v -32.22486109 -14.90276676 18.37699839
v -29.43602685 -19.85069876 18.37699839
v -29.61903438 -19.57316342 18.37699839
v -29.93624742 -19.13084164 18.01186680
v -29.66275284 -19.54714466 17.46528027
v -29.45026077 -19.87021319 17.46528027
v -32.23706160 -14.92878551 17.46528027
v -32.00931890 -15.41447237 18.01186680
v -31.99610169 -15.38845361 18.37699839
v -29.92201350 -19.11132721 18.37699839
v -30.24125996 -18.64515624 18.01186680
v -30.10807115 -18.85764252 17.46528027
v -29.93624742 -19.13084164 17.46528027
v -30.22905946 -18.62564181 18.37699839
v -32.00931890 -15.41447237 17.46528027
v -31.83546175 -15.76355966 17.46528027
v -31.69922281 -16.03675733 18.01186680
v -31.80292708 -15.77656831 18.37699839
v -30.24125996 -18.64515624 17.46528027
v -30.63879298 -17.97950474 18.01186680
v -30.41511711 -18.35461079 17.46528027
v -30.61235856 -17.97950474 18.37699839
v -31.69922281 -16.03675733 17.46528027
v -31.67278839 -16.03675733 18.37699839
v -31.46232974 -16.49208921 17.46528027
v -31.27728880 -16.84768083 18.01186680
v -31.26508829 -16.82383018 18.37699839
v -30.80248304 -17.69763318 17.46528027
v -30.63879298 -17.97950474 17.46528027
v -31.01294170 -17.33336768 18.01186680
v -30.99972448 -17.30951703 18.37699839
v -31.27728880 -16.84768083 17.46528027
v -31.01294170 -17.33336768 17.46528027
f 1 2 3
f 1 3 4
f 1 4 9
f 1 9 17
f 1 17 20
f 1 20 11
f 1 11 5
f 1 5 10
f 1 10 18
f 1 18 26
f 1 26 34
f 1 34 43
f 1 43 50
f 1 50 56
f 1 56 63
f 1 63 70
f 1 70 77
f 1 77 84
f 1 84 92
f 1 92 98
f 1 98 106
f 1 106 105
f 1 105 113
f 1 113 112
f 1 112 119
f 1 119 121
f 1 121 129
f 1 129 128
f 1 128 133
f 1 133 132
f 1 132 125
f 1 125 123
f 1 123 116
f 1 116 115
f 1 115 107
f 1 107 99
f 1 99 93
f 1 93 86
f 1 86 85
f 1 85 79
f 1 79 73
f 1 73 71
f 1 71 65
f 1 65 64
f 1 64 58
f 1 58 57
f 1 57 51
f 1 51 44
f 1 44 37
f 1 37 36
f 1 36 35
f 1 35 27
f 1 27 21
f 1 21 12
f 1 12 6
f 1 6 2
f 2 6 8
f 2 8 3
f 3 7 9
f 3 9 4
f 3 8 7
f 5 11 19
f 5 19 10
f 6 12 16
f 6 16 8
f 7 8 13
f 7 13 15
f 7 15 14
f 7 14 22
f 7 22 30
f 7 30 39
f 7 39 45
f 7 45 47
f 7 47 53
f 7 53 60
f 7 60 67
f 7 67 72
f 7 72 78
f 7 78 81
f 7 81 88
f 7 88 95
f 7 95 101
f 7 101 109
f 7 109 118
f 7 118 124
f 7 124 127
f 7 127 131
f 7 131 122
f 7 122 114
f 7 114 110
f 7 110 103
f 7 103 102
f 7 102 96
f 7 96 89
f 7 89 82
f 7 82 75
f 7 75 68
f 7 68 61
f 7 61 54
f 7 54 48
f 7 48 41
f 7 41 40
f 7 40 31
f 7 31 24
f 7 24 17
f 7 17 9
f 8 14 15
f 8 15 13
f 8 16 14
f 10 19 24
f 10 24 31
f 10 31 32
f 10 32 25
f 10 25 18
f 11 20 19
f 12 21 23
f 12 23 16
f 14 16 22
f 16 23 22
f 17 24 20
f 18 25 33
f 18 33 26
f 19 20 24
f 21 27 28
f 21 28 23
f 22 23 28
f 22 28 29
f 22 29 30
f 25 32 33
f 26 33 42
f 26 42 34
f 27 35 28
f 28 35 29
f 29 36 37
f 29 37 38
f 29 38 39
f 29 39 30
f 29 35 36
f 31 40 33
f 31 33 32
f 33 40 41
f 33 41 42
f 34 42 49
f 34 49 43
f 37 44 38
f 38 45 39
f 38 44 51
f 38 51 46
f 38 46 47
f 38 47 45
f 41 48 49
f 41 49 42
f 43 49 55
f 43 55 50
f 46 51 57
f 46 57 52
f 46 52 53
f 46 53 47
f 48 54 55
f 48 55 49
f 50 55 62
f 50 62 56
f 52 57 58
f 52 58 59
f 52 59 53
f 53 59 60
f 54 61 62
f 54 62 55
f 56 62 69
f 56 69 63
f 58 64 59
f 59 64 65
f 59 65 66
f 59 66 67
f 59 67 60
f 61 68 62
f 62 68 69
f 63 69 76
f 63 76 70
f 65 71 66
f 66 72 67
f 66 71 73
f 66 73 74
f 66 74 78
f 66 78 72
f 68 75 76
f 68 76 69
f 70 76 83
f 70 83 77
f 73 79 74
f 74 79 85
f 74 85 80
f 74 80 81
f 74 81 78
f 75 82 76
f 76 82 83
f 77 83 84
f 80 85 86
f 80 86 87
f 80 87 88
f 80 88 81
f 82 89 90
f 82 90 83
f 83 90 84
f 84 90 91
f 84 91 92
f 86 93 87
f 87 93 99
f 87 99 94
f 87 94 88
f 88 94 95
f 89 96 91
f 89 91 90
f 91 96 102
f 91 102 97
f 91 97 98
f 91 98 92
f 94 99 107
f 94 107 100
f 94 100 101
f 94 101 95
f 97 102 103
f 97 103 104
f 97 104 105
f 97 105 106
f 97 106 98
f 100 107 115
f 100 115 108
f 100 108 101
f 101 108 109
f 103 110 104
f 104 111 112
f 104 112 113
f 104 113 105
f 104 110 114
f 104 114 111
f 108 115 116
f 108 116 117
f 108 117 118
f 108 118 109
f 111 119 112
f 111 114 120
f 111 120 121
f 111 121 119
f 114 122 120
f 116 123 117
f 117 124 118
f 117 123 125
f 117 125 126
f 117 126 127
f 117 127 124
f 120 128 129
f 120 129 121
f 120 122 130
f 120 130 128
f 122 131 130
f 125 132 126
f 126 132 133
f 126 133 130
f 126 130 127
f 127 130 131
f 128 130 133

