# https://github.com/mikedh/trimesh
v 24.98851687 4.92428391 13.82658781
v 29.49711784 1.94759612 13.82658781
v 29.90858643 -0.00307495 14.73880705
v 29.90858643 -0.00554720 16.55701201
v 24.98851687 4.92428391 14.73836386
v 24.98851687 25.24932911 13.82658781
v 35.46905777 1.94759612 13.82658781
v 35.52371381 -0.00307495 14.73880705
v 35.52062024 -0.00554720 16.55701201
v 29.90961762 -0.00554720 17.03940108
v 24.99573521 4.92675617 18.01130776
v 24.99573521 4.92922914 18.09950070
v 24.99573521 4.93911815 18.37699839
v 24.98851687 25.24932911 14.73836386
v 29.91064881 -0.00554720 17.46477916
v 24.99057925 25.25180281 14.83056571
v 25.12360875 25.11829827 13.82658781
v 35.44327798 2.43217285 13.82658781
v 35.49587164 1.46054642 14.73880705
v 35.52371381 0.48891926 14.73880705
v 35.52371381 -0.00307495 15.64612812
v 35.52062024 -0.00554720 17.46477916
v 29.52496291 1.94759612 18.37699839
v 24.99573521 25.21224677 18.37699839
v 24.99573521 25.24685831 17.75296532
v 24.99573521 25.22213578 18.28880545
v 24.99573521 25.24438750 18.01130776
v 25.00398474 25.23944010 16.79353142
v 25.12670232 25.12076908 15.64612812
v 25.12463994 25.12076908 14.73880705
v 25.29892289 24.94276109 14.73880705
v 25.59901410 24.63619307 14.73880705
v 25.59695172 24.63371937 13.82658781
v 35.44327798 2.43217285 18.01130776
v 35.36387044 3.40627226 13.82658781
v 35.49587164 1.46054642 15.64612812
v 35.52371381 0.48891926 15.64612812
v 35.52062024 0.48644701 17.46477916
v 35.44534036 1.94759612 18.37699839
v 25.10814088 25.10346186 18.37699839
v 25.12463994 25.11829827 18.01130776
v 25.12670232 25.11829827 17.46477916
v 25.12670232 25.12076908 16.55701201
v 25.33192102 24.91062036 15.64612812
v 25.93416872 24.28017565 13.82658781
v 25.59901410 24.63619307 15.64612812
v 26.08473137 24.12441794 14.73880705
v 35.46905777 1.94759612 18.01130776
v 35.36387044 3.40627226 14.73836386
v 35.36283925 3.40379928 18.01130776
v 35.34118423 3.40379928 18.37699839
v 35.41955768 2.43217285 18.37699839
v 35.45771466 1.94759612 18.19348686
v 35.25662073 4.37789870 13.82658781
v 35.49484045 1.46054642 17.46477916
v 35.43915032 2.06874012 18.37699839
v 25.58148384 24.61641215 18.37699839
v 25.59798291 24.63371937 18.01130776
v 25.39070183 24.84881259 17.46522234
v 26.08266898 24.12194714 13.82658781
v 25.59901410 24.63371937 17.46477916
v 26.08473137 24.12441794 15.64612812
v 26.52507041 23.63736969 14.73880705
v 26.52300803 23.63736969 13.82658781
v 35.25662073 4.37789870 14.73836386
v 35.25662073 4.37542644 18.01130776
v 35.23393452 4.37542644 18.37699839
v 35.12359123 5.34952513 13.82658781
v 25.76401343 24.42604435 18.37699839
v 26.08266898 24.12194714 18.01130776
v 26.33119772 23.84999066 17.46522234
v 26.52300803 23.63736969 18.01130776
v 26.52507041 23.63736969 15.64612812
v 27.00975649 23.08356626 14.73880705
v 27.00872530 23.08109546 13.82658781
v 35.12359123 5.34952513 14.73836386
v 35.12359123 5.34705288 18.01130776
v 35.09987093 5.35447036 18.37699839
v 35.01943510 6.00469381 13.82658781
v 26.06719821 24.10463992 18.37699839
v 26.50754016 23.61759022 18.37699839
v 27.00769411 23.08356626 18.01130776
v 26.76947728 23.35799645 16.55701201
v 26.34254083 23.80054271 18.37699839
v 27.00975649 23.08356626 15.64612812
v 27.16031914 22.90555828 14.73880705
v 27.41709741 22.59651656 13.82658781
v 35.01943510 6.00469381 14.73836386
v 35.06481042 5.71790309 17.46522234
v 35.01943510 6.00222083 17.46522234
v 35.01840391 6.00222083 18.01130776
v 35.01324795 5.97255308 18.37699839
v 34.93177803 6.48927054 13.82658781
v 26.99222623 23.06378824 18.37699839
v 27.40266073 22.57921079 18.37699839
v 27.41709741 22.59404575 18.01130776
v 27.41915979 22.59404575 17.46477916
v 27.21394399 22.84127826 16.55701201
v 27.41915979 22.59404575 15.64612812
v 27.66459785 22.29242079 16.55701201
v 27.72544105 22.21577806 14.73880705
v 27.90281468 21.99079583 13.82658781
v 34.93177803 6.48927054 18.01130776
v 34.77296874 7.29030647 18.01130776
v 34.74924844 7.29030647 18.37699839
v 34.88331203 6.73650449 13.82658781
v 27.88837799 21.97101781 18.37699839
v 27.90384587 21.99079583 18.01130776
v 27.90487706 21.99079583 17.46477916
v 27.90590825 21.99079583 16.55701201
v 27.90590825 21.99079583 15.64612812
v 27.90487706 21.99079583 14.73880705
v 28.28231342 21.50621837 13.82658781
v 34.77296874 7.29030647 17.46522234
v 34.55434456 8.26440588 18.01130776
v 34.52959307 8.26440588 18.37699839
v 34.77193755 7.29277872 13.82658781
v 28.26890794 21.48644035 18.37699839
v 28.28334462 21.50374612 18.01130776
v 28.11731409 21.71883935 17.46522234
v 28.28437581 21.50621837 15.64612812
v 28.28437581 21.50621837 14.73880705
v 28.59477893 21.08097788 13.82658781
v 34.55434456 8.26440588 13.82658781
v 34.46256272 8.62783861 14.73880705
v 34.30581292 9.23603231 18.01130776
v 34.28209552 9.23603231 18.37699839
v 28.70409103 20.89308089 18.37699839
v 28.73296728 20.89308089 18.01130776
v 28.28437581 21.50374612 17.46477916
v 28.28540700 21.50374612 16.55701201
v 28.73399848 20.89308089 14.73880705
v 28.73193609 20.89308089 13.82658781
v 34.30684412 9.23603231 13.82658781
v 34.30684412 9.23603231 14.73836386
v 34.09543827 9.98762102 16.55701201
v 34.09543827 9.98514877 18.01130776
v 34.08409517 9.94559127 18.37699839
v 29.10834127 20.33680521 18.37699839
v 29.12277795 20.35411243 18.01130776
v 28.90518495 20.65820964 17.46477916
v 28.95468504 20.59145592 15.64612812
v 29.12277795 20.35658323 13.82658781
v 34.09646946 9.98514877 13.82658781
v 34.09646946 9.98514877 14.73836386
v 34.01294006 10.26204975 15.64612812
v 33.94900329 10.47219847 17.46477916
v 33.94900329 10.46972622 18.01130776
v 33.93662899 10.43264098 18.37699839
v 29.43833703 19.84975551 18.37699839
v 29.12484033 20.35411243 15.64612812
v 29.45174542 19.86706272 18.01130776
v 29.45277661 19.87200723 15.64612812
v 29.26715055 20.14643596 15.64612812
v 29.12484033 20.35411243 14.73880705
v 29.22384051 20.20824518 13.82658781
v 33.99437861 10.32138599 13.82658781
v 33.94900329 10.47219847 14.73880705
v 33.85000311 10.78371244 15.64612812
v 33.82112975 10.87271644 17.46522234
v 33.72006719 11.18175816 18.01130776
v 33.69531569 11.18175816 18.37699839
v 29.92405430 19.11052879 18.37699839
v 29.93745979 19.13277906 18.01130776
v 29.45277661 19.87200723 14.73880705
v 29.93849098 19.13277906 15.64612812
v 29.45071423 19.86953353 13.82658781
v 33.94900329 10.46972622 13.82658781
v 33.87991056 10.68729169 13.82658781
v 33.86547098 10.73426594 14.73836386
v 33.72006719 11.18670266 14.73880705
v 33.72006719 11.18670266 15.64612812
v 33.38285018 12.15832982 15.64612812
v 33.38181899 12.15832982 17.03940108
v 33.38285018 12.15091161 18.01130776
v 33.35809869 12.15091161 18.37699839
v 30.23033555 18.62595133 18.37699839
v 30.24270985 18.64325710 18.01130776
v 30.24477223 18.64325710 17.46477916
v 29.93849098 19.13277906 14.73880705
v 29.93642860 19.13030681 13.82658781
v 33.72109838 11.17928590 13.82658781
v 33.38285018 12.15832982 14.73880705
v 33.12710021 12.84069328 14.12457319
v 33.12503783 12.84069328 18.01130776
v 33.11266353 12.80608029 18.37699839
v 30.61189379 17.97820086 18.37699839
v 30.63767647 17.97820086 18.01130776
v 30.24477223 18.64325710 14.73880705
v 30.63973886 17.97820086 14.12457319
v 30.24270985 18.64572936 13.82658781
v 30.03130401 18.98196730 13.82658781
v 33.61797343 11.47596564 13.82658781
v 33.38285018 12.15091161 13.82658781
v 33.30550503 12.36353258 13.82658781
v 33.12710021 12.84069328 13.82658781
v 32.99200833 13.17940203 13.82658781
v 33.04150842 13.05331425 17.46522234
v 32.93116513 13.32527073 18.01130776
v 32.91879084 13.29560225 18.37699839
v 30.99861088 17.30819867 18.37699839
v 31.01201637 17.33292119 18.01130776
v 30.63973886 17.97820086 13.82658781
v 30.87589330 17.57026614 14.73836386
v 32.93219633 13.32774298 13.82658781
v 32.93219633 13.32774298 14.73836386
v 32.93219633 13.32527073 17.46522234
v 32.60838481 14.09169368 18.01130776
v 32.58363622 14.09169368 18.37699839
v 31.26364158 16.82362121 18.37699839
v 31.27601588 16.84339923 18.01130776
v 31.27704707 16.84339923 17.46522234
v 31.27807826 16.84587149 14.73836386
v 31.09451748 17.18458169 13.82658781
v 31.01305046 17.33292119 14.73836386
v 31.01305046 17.33292119 13.82658781
v 32.60941601 14.09169368 13.82658781
v 32.60941601 14.09169368 14.73836386
v 32.49597915 14.34634439 13.82658781
v 32.44647906 14.45512641 15.64612812
v 32.39904135 14.55896391 17.46522234
v 32.23507321 14.92239664 18.01130776
v 32.22269892 14.89767411 18.37699839
v 31.67098250 16.03494655 18.37699839
v 31.69779637 16.03494655 18.01130776
v 31.51526389 16.38849026 15.64612812
v 31.56991994 16.28465275 13.82658781
v 31.27807826 16.84587149 13.82658781
v 32.23610441 14.92486889 13.82658781
v 32.23610441 14.92486889 14.73836386
v 32.09276299 15.23391061 14.73836386
v 32.00819950 15.40944635 17.46522234
v 32.00716831 15.40944635 18.01130776
v 31.99479401 15.38472382 18.37699839
v 31.83391944 15.76299006 17.46522234
v 31.69882756 16.03494655 14.73836386
v 31.69882756 16.03494655 13.82658781
v 32.07832342 15.26357909 13.82658781
v 32.00819950 15.41191860 13.82658781
v 32.00819950 15.41191860 14.73836386
v 31.91332698 15.60476010 13.82658781
f 1 2 3
f 1 3 4
f 1 4 5
f 1 5 14
f 1 14 6
f 1 6 17
f 1 17 33
f 1 33 45
f 1 45 60
f 1 60 64
f 1 64 75
f 1 75 87
f 1 87 102
f 1 102 113
f 1 113 123
f 1 123 133
f 1 133 143
f 1 143 156
f 1 156 167
f 1 167 181
f 1 181 192
f 1 192 191
f 1 191 203
f 1 203 216
f 1 216 214
f 1 214 228
f 1 228 227
f 1 227 237
f 1 237 241
f 1 241 239
f 1 239 238
f 1 238 229
f 1 229 219
f 1 219 217
f 1 217 205
f 1 205 197
f 1 197 196
f 1 196 195
f 1 195 194
f 1 194 193
f 1 193 182
f 1 182 169
f 1 169 168
f 1 168 157
f 1 157 144
f 1 144 134
f 1 134 124
f 1 124 117
f 1 117 106
f 1 106 93
f 1 93 79
f 1 79 68
f 1 68 54
f 1 54 35
f 1 35 18
f 1 18 7
f 1 7 2
f 2 7 8
f 2 8 3
f 3 8 9
f 3 9 4
f 4 9 22
f 4 22 15
f 4 15 10
f 4 10 5
f 5 11 12
f 5 12 13
f 5 13 24
f 5 24 14
f 5 10 15
f 5 15 11
f 6 14 16
f 6 16 17
f 7 18 19
f 7 19 20
f 7 20 8
f 8 20 37
f 8 37 21
f 8 21 22
f 8 22 9
f 11 15 12
f 12 15 13
f 13 15 23
f 13 23 39
f 13 39 56
f 13 56 52
f 13 52 51
f 13 51 67
f 13 67 78
f 13 78 92
f 13 92 105
f 13 105 116
f 13 116 127
f 13 127 138
f 13 138 149
f 13 149 162
f 13 162 176
f 13 176 186
f 13 186 200
f 13 200 209
f 13 209 223
f 13 223 234
f 13 234 224
f 13 224 210
f 13 210 201
f 13 201 187
f 13 187 177
f 13 177 163
f 13 163 150
f 13 150 139
f 13 139 128
f 13 128 118
f 13 118 107
f 13 107 95
f 13 95 94
f 13 94 81
f 13 81 84
f 13 84 80
f 13 80 69
f 13 69 57
f 13 57 40
f 13 40 24
f 14 25 16
f 14 24 26
f 14 26 27
f 14 27 25
f 15 22 39
f 15 39 23
f 16 25 28
f 16 28 29
f 16 29 30
f 16 30 17
f 17 30 31
f 17 31 32
f 17 32 33
f 18 34 36
f 18 36 19
f 18 35 49
f 18 49 34
f 19 36 37
f 19 37 20
f 21 37 38
f 21 38 22
f 22 38 39
f 24 40 26
f 25 27 41
f 25 41 42
f 25 42 43
f 25 43 28
f 26 40 41
f 26 41 27
f 28 43 29
f 29 31 30
f 29 43 44
f 29 44 32
f 29 32 31
f 32 45 33
f 32 44 46
f 32 46 62
f 32 62 47
f 32 47 45
f 34 48 36
f 34 49 50
f 34 50 51
f 34 51 52
f 34 52 53
f 34 53 48
f 35 54 65
f 35 65 49
f 36 55 37
f 36 48 55
f 37 55 38
f 38 55 48
f 38 48 53
f 38 53 39
f 39 53 56
f 40 57 58
f 40 58 41
f 41 58 59
f 41 59 42
f 42 59 43
f 43 59 46
f 43 46 44
f 45 47 60
f 46 59 61
f 46 61 62
f 47 63 64
f 47 64 60
f 47 62 73
f 47 73 63
f 49 65 66
f 49 66 50
f 50 66 51
f 51 66 67
f 52 56 53
f 54 68 76
f 54 76 65
f 57 69 58
f 58 61 59
f 58 69 70
f 58 70 61
f 61 70 62
f 62 70 71
f 62 71 72
f 62 72 73
f 63 74 64
f 63 73 85
f 63 85 74
f 64 74 75
f 65 76 77
f 65 77 66
f 66 77 67
f 67 77 78
f 68 79 88
f 68 88 76
f 69 80 70
f 70 80 72
f 70 72 71
f 72 81 94
f 72 94 82
f 72 82 83
f 72 83 73
f 72 80 84
f 72 84 81
f 73 83 85
f 74 86 75
f 74 85 86
f 75 86 87
f 76 88 89
f 76 89 77
f 77 89 90
f 77 90 91
f 77 91 92
f 77 92 78
f 79 93 103
f 79 103 88
f 82 94 95
f 82 95 96
f 82 96 97
f 82 97 98
f 82 98 85
f 82 85 83
f 85 98 86
f 86 98 87
f 87 99 100
f 87 100 101
f 87 101 102
f 87 98 99
f 88 90 89
f 88 103 90
f 90 103 91
f 91 103 92
f 92 103 104
f 92 104 105
f 93 106 103
f 95 107 108
f 95 108 96
f 96 108 97
f 97 108 100
f 97 100 99
f 97 99 98
f 100 108 109
f 100 109 110
f 100 110 111
f 100 111 101
f 101 111 112
f 101 112 102
f 102 112 122
f 102 122 113
f 103 106 104
f 104 106 114
f 104 114 124
f 104 124 115
f 104 115 105
f 105 115 116
f 106 117 114
f 107 118 108
f 108 118 119
f 108 119 120
f 108 120 109
f 109 120 110
f 110 120 121
f 110 121 122
f 110 122 111
f 111 122 112
f 113 122 123
f 114 117 124
f 115 124 125
f 115 125 126
f 115 126 127
f 115 127 116
f 118 128 129
f 118 129 119
f 119 129 130
f 119 130 120
f 120 130 131
f 120 131 121
f 121 131 129
f 121 129 132
f 121 132 122
f 122 132 123
f 123 132 133
f 124 134 125
f 125 134 135
f 125 135 126
f 126 135 136
f 126 136 137
f 126 137 138
f 126 138 127
f 128 139 129
f 129 139 140
f 129 140 141
f 129 141 142
f 129 142 132
f 129 131 130
f 132 142 143
f 132 143 133
f 134 144 145
f 134 145 135
f 135 145 136
f 136 146 147
f 136 147 137
f 136 145 146
f 137 147 148
f 137 148 138
f 138 148 149
f 139 150 140
f 140 151 142
f 140 142 141
f 140 150 152
f 140 152 153
f 140 153 154
f 140 154 151
f 142 151 155
f 142 155 143
f 143 155 154
f 143 154 156
f 144 157 158
f 144 158 146
f 144 146 145
f 146 158 147
f 147 158 159
f 147 159 160
f 147 160 148
f 148 160 161
f 148 161 149
f 149 161 162
f 150 163 164
f 150 164 152
f 151 154 155
f 152 164 153
f 153 165 154
f 153 164 166
f 153 166 180
f 153 180 165
f 154 165 156
f 156 165 167
f 157 168 158
f 158 168 169
f 158 169 170
f 158 170 159
f 159 170 171
f 159 171 172
f 159 172 160
f 160 172 161
f 161 172 173
f 161 173 174
f 161 174 175
f 161 175 176
f 161 176 162
f 163 177 164
f 164 177 178
f 164 178 179
f 164 179 166
f 165 180 181
f 165 181 167
f 166 179 189
f 166 189 180
f 169 182 171
f 169 171 170
f 171 182 183
f 171 183 173
f 171 173 172
f 173 183 196
f 173 196 184
f 173 184 185
f 173 185 174
f 174 185 175
f 175 185 176
f 176 185 186
f 177 187 188
f 177 188 178
f 178 188 179
f 179 188 190
f 179 190 203
f 179 203 189
f 180 189 191
f 180 191 192
f 180 192 181
f 182 193 183
f 183 193 194
f 183 194 195
f 183 195 196
f 184 196 197
f 184 197 198
f 184 198 185
f 185 198 199
f 185 199 200
f 185 200 186
f 187 201 202
f 187 202 188
f 188 202 190
f 189 203 191
f 190 202 204
f 190 204 203
f 197 205 206
f 197 206 198
f 198 206 207
f 198 207 199
f 199 207 208
f 199 208 209
f 199 209 200
f 201 210 202
f 202 210 211
f 202 211 212
f 202 212 213
f 202 213 214
f 202 214 215
f 202 215 204
f 203 204 216
f 204 215 216
f 205 217 218
f 205 218 206
f 206 218 208
f 206 208 207
f 208 218 219
f 208 219 220
f 208 220 221
f 208 221 222
f 208 222 223
f 208 223 209
f 210 224 225
f 210 225 211
f 211 225 212
f 212 225 213
f 213 225 226
f 213 226 227
f 213 227 228
f 213 228 214
f 214 216 215
f 217 219 218
f 219 229 230
f 219 230 220
f 220 230 221
f 221 230 222
f 222 230 231
f 222 231 232
f 222 232 233
f 222 233 234
f 222 234 223
f 224 234 225
f 225 234 233
f 225 233 235
f 225 235 236
f 225 236 227
f 225 227 226
f 227 236 237
f 229 238 231
f 229 231 230
f 231 238 239
f 231 239 240
f 231 240 232
f 232 240 235
f 232 235 233
f 235 240 241
f 235 241 236
f 236 241 237
f 239 241 240

