# https://github.com/mikedh/trimesh
v 0.00435819 -35.52556416 14.73847973
v 0.48598998 -35.52556416 14.73847973
v 0.00435819 -35.52556416 15.64563280
v 0.00435819 -29.90735478 14.73847973
v 1.10059749 -35.50857557 14.73847973
v 1.03573128 -35.51057133 15.64563280
v 0.48598998 -35.52556416 15.64563280
v 0.00435819 -29.90735478 15.64563280
v 4.91527212 -25.31745189 14.73847973
v 1.45844285 -35.49858228 14.73847973
v 1.45844285 -35.49858228 15.64563280
v 4.91527212 -25.31745189 15.64563280
v 5.52663616 -25.31745189 14.73847973
v 2.07250979 -35.46460510 14.73847973
v 2.43035514 -35.44461852 15.64563280
v 5.52663616 -25.31745189 15.64563280
v 5.52663616 -35.09285477 14.73847973
v 2.43035514 -35.44461852 14.73847973
v 3.04388150 -35.39365275 14.73847973
v 3.40172668 -35.36367288 15.64563280
v 5.52663616 -35.09285477 15.64563280
v 5.34555126 -35.12183530 14.73847973
v 3.40172668 -35.36367288 14.73847973
v 4.01579361 -35.29571852 14.73847973
v 3.95092776 -35.30271382 15.64563280
v 5.34555126 -35.12183530 15.64563280
v 4.37363915 -35.25574537 14.73847973
v 4.37363915 -35.25574537 15.64563280
f 1 2 7
f 1 7 3
f 1 3 8
f 1 8 4
f 1 4 9
f 1 9 13
f 1 13 17
f 1 17 22
f 1 22 27
f 1 27 24
f 1 24 23
f 1 23 19
f 1 19 18
f 1 18 14
f 1 14 10
f 1 10 5
f 1 5 2
f 2 5 6
f 2 6 7
f 3 7 6
f 3 6 11
f 3 11 15
f 3 15 20
f 3 20 25
f 3 25 28
f 3 28 26
f 3 26 21
f 3 21 16
f 3 16 12
f 3 12 8
f 4 8 12
f 4 12 9
f 5 10 6
f 6 10 11
f 9 12 16
f 9 16 13
f 10 14 11
f 11 14 15
f 13 16 21
f 13 21 17
f 14 18 15
f 15 18 19
f 15 19 20
f 17 21 26
f 17 26 22
f 19 23 20
f 20 24 25
f 20 23 24
f 22 26 28
f 22 28 27
f 24 27 28
f 24 28 25

