# https://github.com/mikedh/trimesh
v -20.00344300 -24.63112442 15.64563859
v -4.91734052 -24.63112442 15.64563859
v -20.00344300 -24.63112442 16.55735671
v -20.00344300 22.18327815 15.64563859
v 0.00429718 -20.08990767 15.64563859
v -4.91734052 -24.63112442 16.55735671
v -20.00344300 22.18327815 16.55735671
v -4.04777924 22.18327815 15.64563859
v 0.00429718 -20.08990767 16.55735671
v 0.00429718 20.08909332 15.64563859
v -4.04777924 22.18327815 16.55735671
v 0.00429718 20.08909332 16.55735671
f 1 2 6
f 1 6 3
f 1 3 7
f 1 7 4
f 1 4 8
f 1 8 10
f 1 10 5
f 1 5 2
f 2 5 9
f 2 9 6
f 3 6 9
f 3 9 12
f 3 12 11
f 3 11 7
f 4 7 11
f 4 11 8
f 5 10 12
f 5 12 9
f 8 11 12
f 8 12 10

