# https://github.com/mikedh/trimesh
v -35.52649876 0.48353782 8.77950501
v -35.51208815 0.97255269 8.77950501
v -35.52547047 0.48353782 7.38892010
v -35.52547047 -0.48461287 7.38892010
v -35.52547047 -0.48461287 8.77950501
v -35.49768044 1.45662812 8.77950501
v -35.49665214 1.45662812 7.38892010
v -35.49870873 -1.38854953 7.38892010
v -35.49768044 -1.45770318 8.77950501
v -35.51208815 -0.96868821 8.77950501
v -35.44518815 2.42971834 8.77950501
v -35.49356436 1.52578177 7.38892010
v -35.49665214 -1.45770318 7.38892010
v -35.44827593 -2.36163983 7.38892010
v -35.44415986 -2.42585377 8.77950501
v -35.36593703 3.39786921 7.38892010
v -35.43901259 2.49393246 7.38892010
v -35.44415986 2.42971834 7.38892010
v -35.36593703 3.39786921 8.77950501
v -35.44415986 -2.42585377 7.38892010
v -35.36593703 -3.39894426 8.77950501
v -35.31138526 3.88688390 8.77950501
v -35.25683639 4.37095915 7.38892010
v -35.36593703 -3.39894426 7.38892010
v -35.25683639 -4.37203420 8.77950501
v -35.25683639 4.37095915 8.77950501
v -35.24757305 4.44011307 7.38892010
v -35.25683639 -4.37203420 7.38892010
v -35.12303350 -5.34512451 8.77950501
v -35.12406180 5.34404946 8.77950501
v -35.12406180 5.34404946 8.29251324
v -35.12303350 5.34404946 7.38892010
v -35.12303350 -5.34512451 7.38892010
v -35.02731228 -5.95268857 7.38892010
v -35.02010842 -5.99714458 8.77950501
v -35.02010842 6.00100896 8.77950501
v -35.02010842 6.00100896 7.38892010
v -35.02010842 -5.99714458 7.38892010
v -35.01393286 -6.03172136 7.38892010
v -34.97585119 -6.24412182 8.77950501
v -34.93159396 6.48508422 8.77950501
v -34.93159396 6.48508422 7.38892010
v -34.93159396 -6.48615927 7.38892010
v -34.93159396 -6.48615927 8.77950501
v -34.77205762 7.28529027 8.77950501
v -34.77205762 7.28529027 7.38892010
v -34.78235216 -7.23203080 7.38892010
v -34.77205762 -7.28636532 8.29251324
v -34.85233994 -6.88626230 8.77950501
v -34.66192869 7.77430532 8.77950501
v -34.75661872 7.35444383 7.38892010
v -34.77102933 -7.28636532 7.38892010
v -34.77205762 -7.28636532 8.77950501
v -34.55282805 -8.25945599 7.38892010
v -34.55282805 8.25838094 8.77950501
v -34.55282805 8.25838094 7.38892010
v -34.55282805 -8.25945599 8.77950501
v -34.32433513 -9.16339238 7.38892010
v -34.30786793 -9.23254593 8.77950501
v -34.42931969 8.74739599 8.77950501
v -34.30683674 9.23147088 7.38892010
v -34.30683674 -9.23254593 7.38892010
v -34.09789880 -9.98335690 7.38892010
v -34.09789880 -9.98335690 8.77950501
v -34.30683674 9.23147088 8.77950501
v -34.29242902 9.28580613 7.38892010
v -34.08760716 -10.01793368 7.38892010
v -33.95071649 -10.46743252 8.77950501
v -34.09687051 9.98228185 8.77950501
v -34.09687051 9.98228185 7.38892010
v -33.95071649 -10.46743252 7.38892010
v -33.83749977 -10.82307917 8.77950501
v -33.95071649 10.46635747 8.77950501
v -33.96101102 10.43672012 7.38892010
v -33.73869077 -11.12439130 7.38892010
v -33.72325187 -11.17378711 8.77950501
v -33.83647148 10.82200412 8.77950501
v -33.72222357 11.17271206 8.29251324
v -33.72119528 11.17271206 7.38892010
v -33.72222357 -11.17378711 7.38892010
v -33.38565831 -12.14687705 8.29251324
v -33.38565831 -12.14687705 8.77950501
v -33.72222357 11.17271206 8.77950501
v -33.69752132 11.24186561 7.38892010
v -33.38463001 12.14580200 8.29251324
v -33.38463001 -12.14687705 7.38892010
v -33.14584256 -12.78901825 7.38892010
v -33.25700268 -12.49264483 8.77950501
v -33.38463001 12.14580200 8.77950501
v -33.38360172 12.14580200 7.38892010
v -33.12731587 12.83733901 7.38892010
v -33.36610332 12.19519781 7.38892010
v -33.12731587 -12.83841406 7.38892010
v -33.12731587 -12.83841406 8.77950501
v -33.12731587 12.83733901 8.77950501
v -32.93381973 13.32635406 7.38892010
v -33.11393645 -12.87299084 7.38892010
v -33.03056925 -13.08539022 8.77950501
v -32.93381973 13.32635406 8.77950501
v -32.91117407 13.38068859 7.38892010
v -32.93381973 -13.32742911 7.38892010
v -32.93381973 -13.32742911 8.77950501
v -32.61063389 14.09198334 8.77950501
v -32.61063389 14.09198334 7.38892010
v -32.61166219 -14.09305839 7.38892010
v -32.61166219 -14.09305839 8.77950501
v -32.42331042 14.51184339 8.77950501
v -32.23701525 14.92676617 7.38892010
v -32.26377699 -14.86856654 7.38892010
v -32.23701525 -14.92784122 8.77950501
v -32.23701525 14.92676617 8.77950501
v -32.02498953 15.37626428 7.38892010
v -32.22157634 -14.96241800 7.38892010
v -32.00955063 -15.41191611 8.77950501
v -32.00852233 15.41084106 8.77950501
v -32.00852233 15.41084106 7.38892010
v -32.00955063 -15.41191611 7.38892010
v -31.85516446 -15.72310711 8.77950501
v -31.69871880 16.03322307 8.77950501
v -31.98690786 15.45529671 7.38892010
v -31.69974710 -16.03429812 7.38892010
v -31.69974710 -16.03429812 8.77950501
v -31.69871880 16.03322307 7.38892010
v -31.48772138 16.44320569 8.77950501
v -31.66886929 16.09249775 7.38892010
v -31.30760467 -16.79004852 7.38892010
v -31.48978087 -16.43934203 8.77950501
v -31.27775515 16.84824815 8.77950501
v -31.27775515 16.84824815 7.38892010
v -31.01323715 -17.33339954 7.38892010
v -31.14498345 -17.09136065 8.77950501
v -31.27775515 -16.84438449 8.77950501
v -31.14601174 17.09028560 8.77950501
v -31.01323715 17.33232449 7.38892010
v -30.63962141 -17.98047945 7.38892010
v -31.01323715 -17.33339954 8.77950501
v -31.01323715 17.33232449 8.77950501
v -30.82591368 17.65833453 8.77950501
v -30.63962141 17.97940440 7.38892010
v -30.27011884 -18.59792274 7.38892010
v -30.63962141 -17.98047945 8.77950501
v -30.63962141 17.97940440 8.77950501
v -30.24336000 18.64624350 7.38892010
v -30.24336000 -18.64237839 7.38892010
v -30.24336000 -18.64237839 8.77950501
v -30.24336000 18.64624350 8.77950501
v -29.93561306 19.13031840 7.38892010
v -30.22174553 -18.67695517 7.38892010
v -30.08897094 -18.88935600 8.77950501
v -29.93561306 19.13031840 8.77950501
v -29.69168124 19.50078408 8.77950501
v -29.44877771 19.86630961 7.38892010
v -29.93561306 -19.13139345 7.38892010
v -29.93561306 -19.13139345 8.77950501
v -29.44980890 19.86630961 8.77950501
v -29.12147579 20.35532466 7.38892010
v -29.48377160 -19.81799029 7.38892010
v -29.44980890 -19.86738466 8.77950501
v -29.12147579 20.35532466 8.77950501
v -28.92488897 20.62700017 8.77950501
v -28.69845554 20.93819117 7.38892010
v -29.12044749 -20.35146100 7.38892010
v -29.12147579 -20.35639971 8.29251324
v -29.12147579 -20.35639971 8.77950501
v -28.73036165 20.89373552 8.77950501
v -28.28160796 21.50623865 8.77950501
v -28.28160796 21.50623865 7.38892010
v -28.72933335 -20.89481057 7.38892010
v -28.73036165 -20.89481057 8.29251324
v -28.73036165 -20.89481057 8.77950501
v -27.90284495 21.99031499 8.77950501
v -27.90284495 21.99031499 8.29251324
v -27.86785106 22.03477064 7.38892010
v -28.31351697 -21.46285805 7.38892010
v -28.50701600 -21.20106286 8.77950501
v -27.41600960 22.59787796 8.77950501
v -27.41600960 22.59787796 7.38892010
v -27.90181666 -21.99139004 7.38892010
v -27.90284495 -21.99139004 8.29251324
v -28.09119671 -21.74935115 8.77950501
v -28.28160796 -21.50237499 8.77950501
v -27.21324722 22.83991541 8.77950501
v -27.00842826 23.08195430 7.38892010
v -27.44997519 -22.55449736 7.38892010
v -27.90284495 -21.99139004 8.77950501
v -27.00842826 23.08195430 8.77950501
v -26.97446266 23.12146979 7.38892010
v -27.00842826 -23.08302935 7.38892010
v -27.21221893 -22.84099046 8.77950501
v -27.41600960 -22.59401430 8.77950501
v -27.65994142 -22.29270217 8.77950501
v -26.52262120 23.63518275 8.77950501
v -26.52262120 23.63518275 7.38892010
v -27.00842826 -23.08302935 8.77950501
v -26.52262120 -23.63625780 7.38892010
v -26.30339162 23.88216036 8.77950501
v -26.08313085 24.12419780 7.38892010
v -26.52262120 -23.63625780 8.77950501
v -26.49174338 -23.67083458 7.38892010
v -26.30236043 -23.88323541 8.77950501
v -26.08313085 24.12419780 8.77950501
v -25.83919903 24.38105428 8.77950501
v -25.59732669 24.63297205 7.38892010
v -26.08313085 -24.12527285 7.38892010
v -26.08313085 -24.12527285 8.77950501
v -25.59732669 24.63297205 8.77950501
v -25.15680805 25.08740887 7.38892010
v -25.63128939 -24.59947032 7.38892010
v -25.59732669 -24.63404420 8.77950501
v -25.12284246 25.12198275 8.77950501
v -25.12284246 25.12198275 7.38892010
v -25.56438939 -24.66862388 7.38892010
v -25.12387075 -25.12306070 8.77950501
v -25.01168233 25.23065759 8.77950501
v -25.01168233 25.22571598 7.38892010
v -25.12387075 -25.11811909 7.38892010
v -25.01168233 -25.23172975 8.77950501
v -25.01168233 -25.22679393 7.38892010
f 1 2 3
f 1 3 4
f 1 4 5
f 1 5 10
f 1 10 9
f 1 9 15
f 1 15 21
f 1 21 25
f 1 25 29
f 1 29 35
f 1 35 40
f 1 40 44
f 1 44 49
f 1 49 53
f 1 53 57
f 1 57 59
f 1 59 64
f 1 64 68
f 1 68 72
f 1 72 76
f 1 76 82
f 1 82 88
f 1 88 94
f 1 94 98
f 1 98 102
f 1 102 106
f 1 106 110
f 1 110 114
f 1 114 118
f 1 118 122
f 1 122 127
f 1 127 132
f 1 132 131
f 1 131 136
f 1 136 141
f 1 141 145
f 1 145 149
f 1 149 154
f 1 154 158
f 1 158 164
f 1 164 170
f 1 170 175
f 1 175 181
f 1 181 180
f 1 180 185
f 1 185 191
f 1 191 190
f 1 190 189
f 1 189 194
f 1 194 198
f 1 198 200
f 1 200 205
f 1 205 209
f 1 209 213
f 1 213 217
f 1 217 214
f 1 214 210
f 1 210 206
f 1 206 202
f 1 202 201
f 1 201 196
f 1 196 192
f 1 192 186
f 1 186 182
f 1 182 176
f 1 176 171
f 1 171 166
f 1 166 165
f 1 165 160
f 1 160 159
f 1 159 155
f 1 155 151
f 1 151 150
f 1 150 146
f 1 146 142
f 1 142 138
f 1 138 137
f 1 137 133
f 1 133 128
f 1 128 124
f 1 124 119
f 1 119 115
f 1 115 111
f 1 111 107
f 1 107 103
f 1 103 99
f 1 99 95
f 1 95 89
f 1 89 83
f 1 83 77
f 1 77 73
f 1 73 69
f 1 69 65
f 1 65 60
f 1 60 55
f 1 55 50
f 1 50 45
f 1 45 41
f 1 41 36
f 1 36 30
f 1 30 26
f 1 26 22
f 1 22 19
f 1 19 11
f 1 11 6
f 1 6 2
f 2 6 7
f 2 7 3
f 3 7 12
f 3 12 18
f 3 18 17
f 3 17 16
f 3 16 23
f 3 23 27
f 3 27 32
f 3 32 37
f 3 37 42
f 3 42 46
f 3 46 51
f 3 51 56
f 3 56 61
f 3 61 66
f 3 66 70
f 3 70 74
f 3 74 79
f 3 79 84
f 3 84 90
f 3 90 92
f 3 92 91
f 3 91 96
f 3 96 100
f 3 100 104
f 3 104 108
f 3 108 112
f 3 112 116
f 3 116 120
f 3 120 123
f 3 123 125
f 3 125 129
f 3 129 134
f 3 134 139
f 3 139 143
f 3 143 147
f 3 147 152
f 3 152 156
f 3 156 161
f 3 161 167
f 3 167 173
f 3 173 177
f 3 177 183
f 3 183 187
f 3 187 193
f 3 193 197
f 3 197 203
f 3 203 207
f 3 207 211
f 3 211 215
f 3 215 218
f 3 218 216
f 3 216 212
f 3 212 208
f 3 208 204
f 3 204 199
f 3 199 195
f 3 195 188
f 3 188 184
f 3 184 178
f 3 178 174
f 3 174 168
f 3 168 162
f 3 162 157
f 3 157 153
f 3 153 148
f 3 148 144
f 3 144 140
f 3 140 135
f 3 135 130
f 3 130 126
f 3 126 121
f 3 121 117
f 3 117 113
f 3 113 109
f 3 109 105
f 3 105 101
f 3 101 97
f 3 97 93
f 3 93 87
f 3 87 86
f 3 86 80
f 3 80 75
f 3 75 71
f 3 71 67
f 3 67 63
f 3 63 62
f 3 62 58
f 3 58 54
f 3 54 52
f 3 52 47
f 3 47 43
f 3 43 39
f 3 39 38
f 3 38 34
f 3 34 33
f 3 33 28
f 3 28 24
f 3 24 20
f 3 20 14
f 3 14 13
f 3 13 8
f 3 8 4
f 4 8 9
f 4 9 10
f 4 10 5
f 6 11 12
f 6 12 7
f 8 13 9
f 9 13 14
f 9 14 15
f 11 16 17
f 11 17 18
f 11 18 12
f 11 19 16
f 14 20 15
f 15 20 24
f 15 24 21
f 16 19 22
f 16 22 23
f 21 24 28
f 21 28 25
f 22 26 23
f 23 26 27
f 25 28 33
f 25 33 29
f 26 30 27
f 27 30 31
f 27 31 32
f 29 33 34
f 29 34 35
f 30 36 37
f 30 37 31
f 31 37 32
f 34 38 35
f 35 38 39
f 35 39 40
f 36 41 42
f 36 42 37
f 39 43 40
f 40 43 44
f 41 45 46
f 41 46 42
f 43 47 48
f 43 48 49
f 43 49 44
f 45 50 51
f 45 51 46
f 47 52 48
f 48 53 49
f 48 52 54
f 48 54 57
f 48 57 53
f 50 55 51
f 51 55 56
f 54 58 59
f 54 59 57
f 55 60 56
f 56 60 61
f 58 62 59
f 59 62 63
f 59 63 64
f 60 65 61
f 61 65 66
f 63 67 64
f 64 67 68
f 65 69 66
f 66 69 70
f 67 71 68
f 68 71 72
f 69 73 74
f 69 74 70
f 71 75 72
f 72 75 76
f 73 77 74
f 74 77 78
f 74 78 79
f 75 80 76
f 76 80 81
f 76 81 82
f 77 83 78
f 78 84 79
f 78 83 89
f 78 89 85
f 78 85 84
f 80 86 81
f 81 87 88
f 81 88 82
f 81 86 87
f 84 85 90
f 85 89 95
f 85 95 91
f 85 91 92
f 85 92 90
f 87 93 94
f 87 94 88
f 91 95 99
f 91 99 96
f 93 97 94
f 94 97 98
f 96 99 100
f 97 101 98
f 98 101 102
f 99 103 100
f 100 103 104
f 101 105 106
f 101 106 102
f 103 107 104
f 104 107 108
f 105 109 106
f 106 109 110
f 107 111 108
f 108 111 112
f 109 113 110
f 110 113 114
f 111 115 112
f 112 115 116
f 113 117 114
f 114 117 118
f 115 119 120
f 115 120 116
f 117 121 118
f 118 121 122
f 119 123 120
f 119 124 125
f 119 125 123
f 121 126 127
f 121 127 122
f 124 128 129
f 124 129 125
f 126 130 131
f 126 131 132
f 126 132 127
f 128 133 129
f 129 133 134
f 130 135 141
f 130 141 136
f 130 136 131
f 133 137 134
f 134 137 138
f 134 138 139
f 135 140 141
f 138 142 139
f 139 142 146
f 139 146 143
f 140 144 145
f 140 145 141
f 143 146 150
f 143 150 147
f 144 148 149
f 144 149 145
f 147 150 151
f 147 151 152
f 148 153 149
f 149 153 154
f 151 155 152
f 152 155 156
f 153 157 154
f 154 157 158
f 155 159 156
f 156 159 160
f 156 160 161
f 157 162 163
f 157 163 164
f 157 164 158
f 160 165 161
f 161 165 166
f 161 166 167
f 162 168 163
f 163 168 169
f 163 169 170
f 163 170 164
f 166 171 172
f 166 172 167
f 167 172 173
f 168 174 175
f 168 175 169
f 169 175 170
f 171 173 172
f 171 176 173
f 173 176 177
f 174 178 179
f 174 179 180
f 174 180 181
f 174 181 175
f 176 182 177
f 177 182 183
f 178 184 179
f 179 185 180
f 179 184 185
f 182 186 183
f 183 186 187
f 184 188 189
f 184 189 190
f 184 190 191
f 184 191 185
f 186 192 187
f 187 192 193
f 188 194 189
f 188 195 198
f 188 198 194
f 192 196 193
f 193 196 197
f 195 199 200
f 195 200 198
f 196 201 197
f 197 201 202
f 197 202 203
f 199 204 200
f 200 204 205
f 202 206 203
f 203 206 207
f 204 208 205
f 205 208 209
f 206 210 207
f 207 210 211
f 208 212 209
f 209 212 213
f 210 214 211
f 211 214 215
f 212 216 213
f 213 216 218
f 213 218 217
f 214 217 218
f 214 218 215

