# https://github.com/mikedh/trimesh
v 22.18953292 -27.73667060 8.77964115
v 22.29657118 -27.65520647 8.77964115
v 22.18953292 -27.73667060 10.07968397
v 22.18953292 27.73608507 8.77964115
v 22.50020543 -27.49227532 10.07968397
v 22.59810490 -27.41080829 8.77964115
v 22.18953292 27.73608507 10.07968397
v 22.29396133 27.65462095 8.77964115
v 22.84089836 -27.20985919 8.77964115
v 22.67642621 -27.34563467 10.07968397
v 22.59810490 27.41022277 10.07968397
v 22.59810490 27.41022277 8.77964115
v 23.08369326 -27.00347896 8.77964115
v 23.08369326 -27.00347896 10.07968397
v 23.08369326 27.00289343 10.07968397
v 22.84089836 27.20927367 8.77964115
v 23.63976907 -26.52011663 8.77964115
v 23.63976907 -26.52011663 10.07968397
v 23.17376176 26.92686044 10.07968397
v 23.08369326 27.00289343 8.77964115
v 24.12535744 -26.08020049 8.77964115
v 23.71809039 -26.44951188 10.07968397
v 23.63846415 26.51953111 10.07968397
v 23.63846415 26.51953111 8.77964115
v 24.12535744 -26.08020049 10.07968397
v 24.38250937 -25.83580231 8.77964115
v 24.55481394 -25.67287115 10.07968397
v 24.12535744 26.07961496 10.07968397
v 24.12535744 26.07961496 8.77964115
v 24.63835783 -25.59140703 8.77964115
v 24.87984493 -25.35787112 8.77964115
v 24.71667625 -25.51537114 10.07968397
v 24.63705147 25.59082150 10.07968397
v 24.63705147 25.59082150 8.77964115
v 25.12394475 -25.11890407 8.77964115
v 25.12394475 -25.11890407 10.07968397
v 25.12263839 25.11831855 10.07968397
v 24.88115129 25.35728559 8.77964115
v 25.59778304 -24.63554175 8.77964115
v 25.59778304 -24.63554175 10.07968397
v 25.19965333 25.04228555 10.07968397
v 25.12263839 25.11831855 8.77964115
v 26.08337286 -24.12502230 8.77964115
v 25.67610435 -24.55407472 10.07968397
v 25.35890579 24.87935150 8.77964115
v 25.59647957 24.63495622 10.07968397
v 26.08337286 -24.12502230 10.07968397
v 26.30397543 -23.88062557 8.77964115
v 26.45147926 -23.71769296 10.07968397
v 25.59647957 24.63495622 8.77964115
v 26.08337286 24.12443677 10.07968397
v 25.84057650 24.37969577 8.77964115
v 26.52196815 -23.63622739 8.77964115
v 26.52327162 -23.63622739 9.26448364
v 26.60159293 -23.54933067 10.07968397
v 26.52196815 23.63564186 10.07968397
v 26.08337286 24.12443677 8.77964115
v 27.00885854 -23.08226030 8.77964115
v 27.00885854 -23.08226030 10.07968397
v 26.52196815 23.63564186 8.77964115
v 27.00755507 23.08167478 10.07968397
v 26.76606508 23.35865832 8.77964115
v 27.35086073 -22.67493097 10.07968397
v 27.41612705 -22.59346539 8.77964115
v 27.07412775 23.00564034 10.07968397
v 27.00755507 23.08167478 8.77964115
v 27.65892051 -22.29475731 8.77964115
v 27.90302033 -21.99061955 10.07968397
v 27.41612705 22.59287987 10.07968397
v 27.41612705 22.59287987 8.77964115
v 27.90302033 -21.99061955 8.77964115
v 28.22021890 -21.58329021 10.07968397
v 27.82469902 22.08779300 10.07968397
v 27.66022688 22.29417179 8.77964115
v 28.28156900 -21.50182464 8.77964115
v 28.28156900 -21.50182464 10.07968397
v 27.90302033 21.99003402 10.07968397
v 27.90302033 21.99003402 8.77964115
v 28.73060655 -20.89354620 8.77964115
v 28.35466773 -21.40406565 10.07968397
v 27.96306696 21.91399958 10.07968397
v 28.28156900 21.50667025 8.77964115
v 28.73060655 -20.89354620 10.07968397
v 29.11960037 -20.35587253 8.77964115
v 28.28156900 21.50667025 10.07968397
v 28.73060655 20.89296068 8.77964115
v 29.11960037 -20.35587253 10.07968397
v 29.44854756 -19.86707762 8.77964115
v 29.39502699 -19.94854319 10.07968397
v 28.73060655 20.89296068 10.07968397
v 29.12090384 20.35528700 8.77964115
v 29.93413448 -19.12845484 8.77964115
v 29.93413448 -19.12845484 10.07968397
v 29.12090384 20.35528700 10.07968397
v 29.44854756 19.86649209 8.77964115
v 30.24219426 -18.64509106 8.77964115
v 30.24219426 -18.64509106 9.26448364
v 30.24089078 -18.64509106 10.07968397
v 29.44854756 19.86649209 10.07968397
v 29.93413448 19.13330045 8.77964115
v 30.43930246 -18.31379762 8.77964115
v 30.30615709 -18.53647126 10.07968397
v 30.63902050 -17.97707160 10.07968397
v 29.93413448 19.13330045 10.07968397
v 30.24219426 18.64450554 8.77964115
v 30.63902050 -17.97707160 8.77964115
v 30.82568354 -17.65664042 8.77964115
v 30.69906423 -17.87388293 10.07968397
v 30.24219426 18.64450554 10.07968397
v 30.44191230 18.31321210 8.77964115
v 31.01234658 -17.33077667 8.77964115
v 31.01234658 -17.33077667 10.07968397
v 30.64032397 17.97648607 10.07968397
v 30.64032397 17.97648607 8.77964115
v 31.27733093 -16.84741434 8.77964115
v 31.27733093 -16.84741434 10.07968397
v 30.95360632 17.43881239 10.07968397
v 30.82698991 17.65605490 8.77964115
v 31.69895791 -16.03275567 8.77964115
v 31.34520998 -16.71706855 10.07968397
v 31.01365295 17.33019114 10.07968397
v 31.01365295 17.33019114 8.77964115
v 31.74856228 -15.93499669 10.07968397
v 31.69895791 -16.03275567 10.07968397
v 32.00832405 -15.41361642 8.77964115
v 31.05542490 17.25415670 10.07968397
v 31.14549194 17.09122555 8.77964115
v 32.00832405 -15.41361642 10.07968397
v 32.12319473 -15.16921824 8.77964115
v 32.20020967 -15.00628709 10.07968397
v 31.27733093 16.84682882 10.07968397
v 31.27733093 16.84682882 8.77964115
v 32.23675904 -14.92482151 8.77964115
v 32.29680567 -14.79447572 10.07968397
v 31.48879761 16.43949948 8.77964115
v 31.69895791 16.03217015 10.07968397
v 32.42342498 -14.51206104 8.77964115
v 32.61139149 -14.08843975 10.07968397
v 31.69895791 16.03217015 8.77964115
v 32.00832405 15.41303090 10.07968397
v 31.85429417 15.72259980 8.77964115
v 32.61139149 -14.08843975 8.77964115
v 32.66360570 -13.96895623 10.07968397
v 32.00832405 15.41303090 8.77964115
v 32.23675904 14.92423599 10.07968397
v 32.93381263 -13.32809244 8.77964115
v 32.93381263 -13.32809244 10.07968397
v 32.23675904 14.92423599 8.77964115
v 32.55004139 14.22362971 10.07968397
v 33.12700462 -12.83929753 8.77964115
v 33.09567494 -12.92076310 10.07968397
v 32.61008802 14.08785423 8.77964115
v 32.61008802 14.08785423 10.07968397
v 33.38546003 -12.14412311 8.77964115
v 33.16877367 -12.73067627 10.07968397
v 32.77195032 13.70768057 8.77964115
v 32.88159842 13.44699043 10.07968397
v 33.55385128 -11.66076006 8.77964115
v 33.43898060 -11.99205350 10.07968397
v 33.38546003 -12.14412311 10.07968397
v 32.93250626 13.32207578 8.77964115
v 32.96383595 13.24604133 10.07968397
v 33.72223964 -11.17196515 8.77964115
v 33.76009537 -11.06334389 10.07968397
v 33.02910226 13.08311018 8.77964115
v 33.12700462 12.83871200 10.07968397
v 33.83580395 -10.82437757 8.77964115
v 33.95067463 -10.47135959 8.77964115
v 33.95067463 -10.47135959 10.07968397
v 33.12700462 12.83871200 8.77964115
v 33.38415655 12.14896944 10.07968397
v 34.09687209 -9.98256468 8.77964115
v 34.07337773 -10.06403098 10.07968397
v 33.38415655 12.14896944 8.77964115
v 33.72093327 11.17681076 10.07968397
v 34.20260688 -9.60782216 8.77964115
v 34.13081162 -9.86308188 10.07968397
v 34.09687209 -9.98256468 10.07968397
v 33.72093327 11.17681076 8.77964115
v 33.95067463 10.46534293 10.07968397
v 34.30703240 -9.23307963 8.77964115
v 34.30703240 -9.23307963 10.07968397
v 33.95067463 10.46534293 8.77964115
v 33.97417189 10.38930849 10.07968397
v 34.55243859 -8.26092167 8.77964115
v 34.55374496 -8.26092167 10.07968397
v 34.34749797 -9.07557962 10.07968397
v 34.02377336 10.22637661 8.77964115
v 34.09687209 9.98197916 10.07968397
v 34.77173479 -7.28876371 8.77964115
v 34.77173479 -7.28876371 10.07968397
v 34.09687209 9.98197916 8.77964115
v 34.20260688 9.60723663 8.77964115
v 34.30703240 9.23249411 10.07968397
v 34.93098726 -6.48496804 8.77964115
v 34.79784189 -7.15841792 10.07968397
v 34.30703240 9.23249411 8.77964115
v 34.51327939 8.41783689 10.07968397
v 35.01975083 -5.99617313 8.77964115
v 35.00539236 -6.07763943 10.07968397
v 34.93098726 -6.48496804 10.07968397
v 34.55243859 8.26033615 8.77964115
v 34.55243859 8.26033615 10.07968397
v 35.12287288 -5.34444707 8.77964115
v 35.03671914 -5.89298338 10.07968397
v 35.01975083 -5.99617313 10.07968397
v 34.73649179 7.44567821 10.07968397
v 34.77173479 7.28817819 8.77964115
v 35.25601824 -4.37228911 8.77964115
v 35.12287288 -5.34444707 10.07968397
v 34.77173479 7.28817819 10.07968397
v 34.93229362 6.48438252 8.77964115
v 35.25601824 -4.37228911 10.07968397
v 35.36435997 -3.40013078 8.77964115
v 34.93229362 6.48438252 10.07968397
v 34.94665210 6.40834735 10.07968397
v 35.01975083 6.00101874 8.77964115
v 35.36305650 -3.40013078 10.07968397
v 35.36435997 -3.40013078 9.26448364
v 35.40352207 -2.91676719 8.77964115
v 35.01975083 6.00101874 10.07968397
v 35.12417925 5.34386154 9.26448364
v 35.07196504 5.66972457 8.77964115
v 35.37610860 -3.24263040 10.07968397
v 35.44268128 -2.42797264 10.07968397
v 35.44268128 -2.42797264 8.77964115
v 35.12417925 5.34386154 10.07968397
v 35.25732461 4.37170358 8.77964115
v 35.19075193 4.85506699 8.77964115
v 35.12287288 5.34386154 8.77964115
v 35.45182007 -2.27047226 10.07968397
v 35.46878838 -1.94460905 8.77964115
v 35.25732461 4.37170358 10.07968397
v 35.34739165 3.55704564 10.07968397
v 35.36435997 3.39954526 8.77964115
v 35.49489549 -1.45581450 8.77964115
v 35.49489549 -1.45581450 10.07968397
v 35.36435997 3.39954526 10.07968397
v 35.40482554 2.91075071 8.77964115
v 35.50925396 -0.97245090 8.77964115
v 35.50011807 -1.29831403 10.07968397
v 35.44398765 2.42738712 10.07968397
v 35.44398765 2.42738712 8.77964115
v 35.52361243 -0.48365631 8.77964115
v 35.52361243 -0.48365631 10.07968397
v 35.49620186 1.45522897 10.07968397
v 35.49620186 1.45522897 8.77964115
v 35.52491880 0.48307079 8.77964115
v 35.52361243 0.48307079 10.07968397
v 35.51969912 0.64057130 10.07968397
f 1 2 3
f 1 3 7
f 1 7 4
f 1 4 8
f 1 8 12
f 1 12 16
f 1 16 20
f 1 20 24
f 1 24 29
f 1 29 34
f 1 34 38
f 1 38 42
f 1 42 45
f 1 45 50
f 1 50 52
f 1 52 57
f 1 57 60
f 1 60 62
f 1 62 66
f 1 66 70
f 1 70 74
f 1 74 78
f 1 78 82
f 1 82 86
f 1 86 91
f 1 91 95
f 1 95 100
f 1 100 105
f 1 105 110
f 1 110 114
f 1 114 118
f 1 118 122
f 1 122 127
f 1 127 132
f 1 132 135
f 1 135 139
f 1 139 141
f 1 141 144
f 1 144 148
f 1 148 152
f 1 152 156
f 1 156 161
f 1 161 165
f 1 165 170
f 1 170 174
f 1 174 179
f 1 179 183
f 1 183 188
f 1 188 192
f 1 192 193
f 1 193 197
f 1 197 202
f 1 202 208
f 1 208 212
f 1 212 217
f 1 217 223
f 1 223 230
f 1 230 229
f 1 229 228
f 1 228 235
f 1 235 239
f 1 239 243
f 1 243 247
f 1 247 248
f 1 248 244
f 1 244 240
f 1 240 236
f 1 236 232
f 1 232 226
f 1 226 220
f 1 220 214
f 1 214 209
f 1 209 204
f 1 204 199
f 1 199 195
f 1 195 190
f 1 190 185
f 1 185 181
f 1 181 176
f 1 176 172
f 1 172 168
f 1 168 167
f 1 167 163
f 1 163 158
f 1 158 154
f 1 154 150
f 1 150 146
f 1 146 142
f 1 142 137
f 1 137 133
f 1 133 129
f 1 129 125
f 1 125 119
f 1 119 115
f 1 115 111
f 1 111 107
f 1 107 106
f 1 106 101
f 1 101 96
f 1 96 92
f 1 92 88
f 1 88 84
f 1 84 79
f 1 79 75
f 1 75 71
f 1 71 67
f 1 67 64
f 1 64 58
f 1 58 53
f 1 53 48
f 1 48 43
f 1 43 39
f 1 39 35
f 1 35 31
f 1 31 30
f 1 30 26
f 1 26 21
f 1 21 17
f 1 17 13
f 1 13 9
f 1 9 6
f 1 6 2
f 2 5 3
f 2 6 5
f 3 5 10
f 3 10 14
f 3 14 18
f 3 18 22
f 3 22 25
f 3 25 27
f 3 27 32
f 3 32 36
f 3 36 40
f 3 40 44
f 3 44 47
f 3 47 49
f 3 49 55
f 3 55 59
f 3 59 63
f 3 63 68
f 3 68 72
f 3 72 76
f 3 76 80
f 3 80 83
f 3 83 87
f 3 87 89
f 3 89 93
f 3 93 98
f 3 98 102
f 3 102 103
f 3 103 108
f 3 108 112
f 3 112 116
f 3 116 120
f 3 120 124
f 3 124 123
f 3 123 128
f 3 128 130
f 3 130 134
f 3 134 138
f 3 138 143
f 3 143 147
f 3 147 151
f 3 151 155
f 3 155 160
f 3 160 159
f 3 159 164
f 3 164 169
f 3 169 173
f 3 173 178
f 3 178 177
f 3 177 182
f 3 182 187
f 3 187 186
f 3 186 191
f 3 191 196
f 3 196 201
f 3 201 200
f 3 200 206
f 3 206 205
f 3 205 210
f 3 210 213
f 3 213 218
f 3 218 224
f 3 224 225
f 3 225 231
f 3 231 237
f 3 237 241
f 3 241 245
f 3 245 249
f 3 249 250
f 3 250 246
f 3 246 242
f 3 242 238
f 3 238 234
f 3 234 233
f 3 233 227
f 3 227 221
f 3 221 216
f 3 216 215
f 3 215 211
f 3 211 207
f 3 207 203
f 3 203 198
f 3 198 194
f 3 194 189
f 3 189 184
f 3 184 180
f 3 180 175
f 3 175 171
f 3 171 166
f 3 166 162
f 3 162 157
f 3 157 153
f 3 153 149
f 3 149 145
f 3 145 140
f 3 140 136
f 3 136 131
f 3 131 126
f 3 126 121
f 3 121 117
f 3 117 113
f 3 113 109
f 3 109 104
f 3 104 99
f 3 99 94
f 3 94 90
f 3 90 85
f 3 85 81
f 3 81 77
f 3 77 73
f 3 73 69
f 3 69 65
f 3 65 61
f 3 61 56
f 3 56 51
f 3 51 46
f 3 46 41
f 3 41 37
f 3 37 33
f 3 33 28
f 3 28 23
f 3 23 19
f 3 19 15
f 3 15 11
f 3 11 7
f 4 7 8
f 5 6 9
f 5 9 10
f 7 11 8
f 8 11 12
f 9 13 14
f 9 14 10
f 11 15 16
f 11 16 12
f 13 17 18
f 13 18 14
f 15 19 16
f 16 19 20
f 17 21 22
f 17 22 18
f 19 23 24
f 19 24 20
f 21 25 22
f 21 26 27
f 21 27 25
f 23 28 29
f 23 29 24
f 26 30 27
f 27 30 31
f 27 31 32
f 28 33 34
f 28 34 29
f 31 35 36
f 31 36 32
f 33 37 38
f 33 38 34
f 35 39 40
f 35 40 36
f 37 41 38
f 38 41 42
f 39 43 44
f 39 44 40
f 41 45 42
f 41 46 45
f 43 47 44
f 43 48 49
f 43 49 47
f 45 46 50
f 46 51 52
f 46 52 50
f 48 53 54
f 48 54 49
f 49 54 55
f 51 56 60
f 51 60 57
f 51 57 52
f 53 58 54
f 54 58 55
f 55 58 59
f 56 61 62
f 56 62 60
f 58 63 59
f 58 64 63
f 61 65 62
f 62 65 66
f 63 64 67
f 63 67 68
f 65 69 70
f 65 70 66
f 67 71 68
f 68 71 72
f 69 73 74
f 69 74 70
f 71 75 72
f 72 75 76
f 73 77 74
f 74 77 78
f 75 79 80
f 75 80 76
f 77 81 78
f 78 81 82
f 79 83 80
f 79 84 87
f 79 87 83
f 81 85 82
f 82 85 90
f 82 90 86
f 84 88 89
f 84 89 87
f 86 90 94
f 86 94 91
f 88 92 89
f 89 92 93
f 91 94 99
f 91 99 95
f 92 96 97
f 92 97 93
f 93 97 98
f 95 99 104
f 95 104 100
f 96 101 97
f 97 102 98
f 97 101 103
f 97 103 102
f 100 104 109
f 100 109 105
f 101 106 103
f 103 106 107
f 103 107 108
f 105 109 110
f 107 111 112
f 107 112 108
f 109 113 110
f 110 113 114
f 111 115 116
f 111 116 112
f 113 117 114
f 114 117 118
f 115 119 120
f 115 120 116
f 117 121 122
f 117 122 118
f 119 123 124
f 119 124 120
f 119 125 123
f 121 126 127
f 121 127 122
f 123 125 128
f 125 129 130
f 125 130 128
f 126 131 127
f 127 131 132
f 129 133 130
f 130 133 134
f 131 135 132
f 131 136 135
f 133 137 134
f 134 137 138
f 135 136 139
f 136 140 141
f 136 141 139
f 137 142 138
f 138 142 143
f 140 144 141
f 140 145 148
f 140 148 144
f 142 146 143
f 143 146 147
f 145 149 148
f 146 150 151
f 146 151 147
f 148 149 152
f 149 153 152
f 150 154 155
f 150 155 151
f 152 153 156
f 153 157 156
f 154 158 159
f 154 159 160
f 154 160 155
f 156 157 161
f 157 162 161
f 158 163 164
f 158 164 159
f 161 162 165
f 162 166 170
f 162 170 165
f 163 167 164
f 164 167 168
f 164 168 169
f 166 171 174
f 166 174 170
f 168 172 173
f 168 173 169
f 171 175 179
f 171 179 174
f 172 176 177
f 172 177 178
f 172 178 173
f 175 180 183
f 175 183 179
f 176 181 182
f 176 182 177
f 180 184 183
f 181 185 186
f 181 186 187
f 181 187 182
f 183 184 188
f 184 189 188
f 185 190 186
f 186 190 191
f 188 189 192
f 189 193 192
f 189 194 193
f 190 195 196
f 190 196 191
f 193 194 197
f 194 198 197
f 195 199 200
f 195 200 201
f 195 201 196
f 197 198 202
f 198 203 202
f 199 204 205
f 199 205 206
f 199 206 200
f 202 203 207
f 202 207 208
f 204 209 213
f 204 213 210
f 204 210 205
f 207 211 208
f 208 211 215
f 208 215 212
f 209 214 219
f 209 219 213
f 212 215 216
f 212 216 217
f 213 219 218
f 214 220 219
f 216 221 217
f 217 221 227
f 217 227 222
f 217 222 223
f 218 219 224
f 219 220 225
f 219 225 224
f 220 226 225
f 222 227 233
f 222 233 228
f 222 228 229
f 222 229 230
f 222 230 223
f 225 226 231
f 226 232 231
f 228 233 234
f 228 234 235
f 231 232 236
f 231 236 237
f 234 238 235
f 235 238 239
f 236 240 241
f 236 241 237
f 238 242 239
f 239 242 243
f 240 244 241
f 241 244 245
f 242 246 247
f 242 247 243
f 244 248 245
f 245 248 249
f 246 250 248
f 246 248 247
f 248 250 249

