# https://github.com/mikedh/trimesh
v -6.81624166 -34.86119586 7.38892010
v -6.47735331 -34.92638976 7.38892010
v -6.23573081 -34.97380429 8.77950501
v -6.81624166 -34.86119586 8.77950501
v -6.81624166 25.02256547 7.38892010
v -6.02498720 -35.00936591 7.38892010
v -5.99024894 -35.01529237 7.38892010
v -5.99102088 -35.01529237 8.29220040
v -5.99102088 -35.01529237 8.77950501
v -6.81624166 25.02256547 8.77950501
v -2.66620874 25.02256547 7.38892010
v -5.34489432 -35.11604499 7.38892010
v -5.34489432 -35.11604499 8.77950501
v -2.66698069 25.02256547 8.77950501
v 1.07005569 22.55111517 7.38892010
v -2.66620874 25.02256547 8.29206426
v -4.30429826 -35.26421504 7.38892010
v -4.37145823 -35.25236213 8.77950501
v 1.07005569 22.54518871 8.77950501
v 1.07005569 22.55111517 8.29233654
v 1.07005569 -35.50721127 7.38892010
v -3.40188223 -35.35311476 7.38892010
v -3.40188223 -35.35311476 8.77950501
v 1.07005569 -35.50721127 8.77950501
v 0.55361775 -35.51906417 7.38892010
v -2.43153429 -35.44201737 7.38892010
v -2.43153429 -35.44201737 8.77950501
v 0.48568547 -35.51906417 8.77950501
v -0.48697831 -35.52499063 8.77950501
v -0.48697831 -35.51906417 7.38892010
v -1.45809838 -35.49535836 7.38892010
v -1.45809838 -35.49535836 8.77950501
f 1 2 3
f 1 3 4
f 1 4 10
f 1 10 5
f 1 5 11
f 1 11 15
f 1 15 21
f 1 21 25
f 1 25 30
f 1 30 31
f 1 31 26
f 1 26 22
f 1 22 17
f 1 17 12
f 1 12 7
f 1 7 6
f 1 6 2
f 2 6 3
f 3 6 7
f 3 7 8
f 3 8 9
f 3 9 13
f 3 13 18
f 3 18 23
f 3 23 27
f 3 27 32
f 3 32 29
f 3 29 28
f 3 28 24
f 3 24 19
f 3 19 14
f 3 14 10
f 3 10 4
f 5 10 14
f 5 14 16
f 5 16 11
f 7 12 8
f 8 12 13
f 8 13 9
f 11 16 20
f 11 20 15
f 12 17 13
f 13 17 18
f 14 19 20
f 14 20 16
f 15 20 19
f 15 19 24
f 15 24 21
f 17 22 23
f 17 23 18
f 21 24 25
f 22 26 27
f 22 27 23
f 24 28 25
f 25 29 30
f 25 28 29
f 26 31 32
f 26 32 27
f 29 31 30
f 29 32 31

