# https://github.com/mikedh/trimesh
v -0.52855147 -20.09840631 18.37700418
v -0.53136553 -20.09840631 19.27023037
v -5.07751375 -25.75894378 19.27023037
v -4.93404054 -25.05581022 18.37700418
v -29.26831630 -20.09840631 18.37700418
v -1.78324360 -20.39096345 20.69458391
v -1.78043099 -20.39096345 20.69186110
v -5.43760524 -25.75894378 20.04048987
v -29.03200834 -20.09840631 19.27023037
v -24.16515087 -25.75894378 19.27023037
v -25.15258770 -25.05581022 18.37700418
v -29.10515052 -20.33777164 18.37700418
v -29.08264389 -20.30397260 18.98390673
v -29.25706299 -20.09840631 18.52243405
v -5.60358435 -25.17604541 20.69458391
v -5.80613599 -25.75894378 20.48880328
v -17.65256680 -20.39096345 20.69458391
v -5.52481479 -25.75894378 20.15030018
v -29.21767784 -20.09840631 18.98390673
v -28.52281408 -20.39096345 19.85558217
v -27.90390801 -20.39096345 20.33248218
v -27.44816771 -20.39096345 20.48040891
v -26.74205353 -20.39096345 20.53440743
v -25.75461526 -20.39096345 20.56367473
v -23.70378391 -25.75894378 19.92409848
v -24.46335204 -25.43147965 19.64730466
v -24.53649422 -25.50129363 19.27023037
v -25.10757735 -25.05581022 18.93149845
v -25.58019617 -24.62140631 18.37700418
v -28.26681210 -21.48916068 18.37700418
v -28.65222282 -20.89684399 18.98390673
v -28.19929803 -21.40106187 19.48985099
v -5.91866404 -25.39989507 20.69458391
v -6.27312888 -25.60823341 20.69458391
v -6.26187557 -25.75894378 20.60451397
v -17.63006162 -20.54887768 20.69458391
v -28.38215493 -20.89739724 19.68156282
v -27.67885336 -20.92565652 20.20951549
v -27.10777023 -21.26808017 20.42051291
v -27.34408109 -20.62035432 20.47315002
v -26.46073233 -21.69915877 20.47814087
v -26.75893205 -20.92565652 20.50718224
v -25.75461526 -20.89739724 20.56185856
v -24.78124579 -22.84112950 20.53713024
v -23.52936482 -25.75894378 20.04094174
v -23.73191574 -25.68469510 19.95994687
v -24.71935402 -24.72058898 19.97128997
v -25.43109630 -24.46626123 19.64730466
v -25.10195214 -25.05581022 18.98390673
v -23.99635843 -24.97491382 20.29504934
v -25.55206433 -24.59425643 18.98390673
v -26.06406829 -24.10832337 18.37700418
v -27.88702949 -21.97509374 18.37700418
v -27.86171026 -21.94517326 18.98390673
v -28.24149577 -21.45868549 18.98390673
v -27.37502553 -22.55245091 18.98390673
v -27.33564038 -22.50590826 19.27023037
v -27.29344264 -22.45493235 19.57651742
v -27.65072153 -21.78282577 19.72739291
v -7.10302586 -25.61155581 20.69458391
v -7.29151087 -25.75894378 20.60859818
v -24.78124579 -21.86926337 20.56390067
v -23.81068603 -22.84112950 20.56435543
v -22.83731656 -23.81188767 20.56435543
v -21.86675681 -24.78375235 20.56390067
v -20.89338734 -25.75894378 20.56185856
v -14.79153177 -22.55854537 20.69458391
v -26.75893205 -21.96179543 20.29777215
v -26.23286218 -22.34688462 20.44047921
v -25.52111990 -22.84112950 20.47632470
v -25.84745146 -21.96179543 20.51194715
v -23.81068603 -23.81188767 20.53917235
v -24.70247550 -23.72877393 20.47519213
v -22.83731656 -25.75894378 20.39669123
v -23.34650647 -25.28963289 20.44841880
v -24.97254340 -23.99639709 20.29527528
v -25.68147018 -23.73542308 19.96039874
v -26.37070873 -23.47500378 19.62552509
v -26.03593646 -24.08006408 18.98390673
v -24.32550549 -24.32718652 20.45091568
v -26.48042345 -23.59413102 18.98390673
v -26.50574268 -23.62239030 18.37700418
v -27.40034475 -22.58181814 18.37700418
v -26.96711108 -23.03727602 18.98390673
v -26.43260050 -23.54093921 19.27023037
v -26.70829360 -22.80345190 19.82109519
v -8.93723964 -25.45308833 20.69458391
v -19.92282903 -25.75894378 20.56549090
v -11.63229556 -24.26568290 20.69458391
v -22.83731656 -24.78375235 20.53690141
v -21.95115375 -25.75894378 20.51625730
v -26.00499203 -22.84112950 20.31456088
v -25.28762165 -23.34867124 20.44864764
v -23.72629054 -24.70451861 20.47519213
v -22.19590386 -25.75894378 20.50196255
v -22.83731656 -25.52123966 20.47609876
v -26.98961481 -23.06775121 18.37700418
f 1 2 3
f 1 3 4
f 1 4 11
f 1 11 29
f 1 29 52
f 1 52 82
f 1 82 97
f 1 97 83
f 1 83 53
f 1 53 30
f 1 30 12
f 1 12 5
f 1 5 14
f 1 14 19
f 1 19 9
f 1 9 2
f 2 6 7
f 2 7 8
f 2 8 3
f 2 9 17
f 2 17 6
f 3 8 18
f 3 18 16
f 3 16 35
f 3 35 61
f 3 61 88
f 3 88 66
f 3 66 91
f 3 91 95
f 3 95 74
f 3 74 45
f 3 45 25
f 3 25 10
f 3 10 11
f 3 11 4
f 5 12 13
f 5 13 14
f 6 15 16
f 6 16 7
f 6 17 36
f 6 36 67
f 6 67 89
f 6 89 87
f 6 87 60
f 6 60 34
f 6 34 33
f 6 33 15
f 7 16 18
f 7 18 8
f 9 19 20
f 9 20 21
f 9 21 22
f 9 22 23
f 9 23 24
f 9 24 17
f 10 25 26
f 10 26 27
f 10 27 11
f 11 27 28
f 11 28 29
f 12 30 31
f 12 31 13
f 13 19 14
f 13 31 32
f 13 32 19
f 15 33 16
f 16 33 34
f 16 34 35
f 17 24 36
f 19 32 37
f 19 37 20
f 20 37 38
f 20 38 21
f 21 38 39
f 21 39 40
f 21 40 22
f 22 40 41
f 22 41 42
f 22 42 23
f 23 43 24
f 23 42 44
f 23 44 43
f 24 43 36
f 25 45 46
f 25 46 26
f 26 47 48
f 26 48 49
f 26 49 27
f 26 46 50
f 26 50 47
f 27 49 28
f 28 49 51
f 28 51 29
f 29 51 52
f 30 53 54
f 30 54 55
f 30 55 31
f 31 55 32
f 32 54 56
f 32 56 57
f 32 57 58
f 32 58 59
f 32 59 37
f 32 55 54
f 34 60 61
f 34 61 35
f 36 43 62
f 36 62 63
f 36 63 64
f 36 64 65
f 36 65 66
f 36 66 67
f 37 59 38
f 38 59 68
f 38 68 39
f 39 68 69
f 39 69 40
f 40 69 41
f 41 69 70
f 41 70 71
f 41 71 42
f 42 71 44
f 43 44 72
f 43 72 62
f 44 73 72
f 44 71 70
f 44 70 73
f 45 74 75
f 45 75 50
f 45 50 46
f 47 50 76
f 47 76 48
f 48 77 78
f 48 78 79
f 48 79 51
f 48 51 49
f 48 76 77
f 50 80 76
f 50 75 80
f 51 79 52
f 52 79 81
f 52 81 82
f 53 83 56
f 53 56 54
f 56 83 84
f 56 84 57
f 57 84 58
f 58 84 81
f 58 81 85
f 58 85 78
f 58 78 86
f 58 86 59
f 59 86 68
f 60 87 66
f 60 66 88
f 60 88 61
f 62 72 63
f 63 72 64
f 64 72 65
f 65 72 66
f 66 87 89
f 66 89 67
f 66 72 90
f 66 90 91
f 68 86 92
f 68 92 69
f 69 92 76
f 69 76 93
f 69 93 70
f 70 93 73
f 72 94 90
f 72 73 94
f 73 80 94
f 73 93 80
f 74 95 96
f 74 96 75
f 75 96 94
f 75 94 80
f 76 92 77
f 76 80 93
f 77 92 78
f 78 85 79
f 78 92 86
f 79 85 81
f 81 84 82
f 82 84 97
f 83 97 84
f 90 94 96
f 90 96 95
f 90 95 91

