# https://github.com/mikedh/trimesh
v 21.61361102 -25.65809267 0.44730098
v 21.61361102 -28.16226882 0.44730098
v 21.61361102 -25.65809267 -0.50342282
v 2.61580921 -25.65809267 0.44730098
v 21.49914152 -28.27688170 0.44730098
v 21.46310485 -28.24991431 -0.04300161
v 21.61361102 -28.01298068 -0.10805357
v 21.61361102 -25.75729851 -0.50342282
v 4.37525727 -25.65809267 -0.50342282
v 2.75995661 -25.65809267 -0.14249421
v -0.04032213 -27.69514197 0.44730098
v 19.85416224 -29.43939660 0.44730098
v 18.58439184 -30.20509684 -0.05835362
v 19.72485488 -29.35271279 -0.13904725
v 20.89499365 -28.45217267 -0.15813009
v 21.61361102 -27.68743700 -0.24933840
v 21.61361102 -26.72910960 -0.47699420
v 20.89499365 -26.72910960 -0.50342282
v -0.04032213 -29.64454578 -0.50342282
v -0.04032213 -28.67273468 -0.48890504
v 3.40226146 -25.65809267 -0.40979295
v -0.04032213 -27.93111392 -0.22160050
v -0.04032213 -35.49660679 0.44730098
v 18.63738813 -30.23784297 0.44730098
v 16.83342288 -31.27033215 0.44730098
v 16.73803187 -31.21832360 -0.09921314
v 17.98024397 -30.37460908 -0.16957747
v 19.99831036 -28.74978439 -0.28479864
v 18.92568292 -29.66380820 -0.23155903
v 20.89499365 -27.70092070 -0.42542883
v 18.95112090 -28.67273468 -0.49746740
v 19.92411671 -27.70092070 -0.50342282
v -0.04032213 -33.53179304 -0.50342282
v -0.04032213 -28.26917673 -0.34352442
v -0.04032213 -35.37717686 0.10796367
v 0.48751251 -35.49660679 0.44730098
v 14.91710844 -32.23155035 0.44730098
v 16.03637267 -31.38976208 -0.20028728
v 14.81323762 -32.18242972 -0.09521003
v 17.03904565 -30.66836832 -0.26087847
v 17.98024397 -29.64454578 -0.43687621
v 16.03637267 -30.61539520 -0.46759182
v 17.00724816 -29.64454578 -0.50342282
v -0.04032213 -33.97484042 -0.50305206
v 7.29000622 -33.53179304 -0.50342282
v -0.04032213 -35.25582068 -0.23528407
v 0.48751251 -35.25582068 -0.23528407
v 1.45838872 -35.24329866 -0.22969941
v 1.45838872 -35.47349188 0.44730098
v 12.82908903 -33.12245636 0.44730098
v 12.76973324 -33.09837978 -0.04225429
v 14.09249993 -32.32979162 -0.19730957
v 14.09249993 -31.58720629 -0.46461411
v 12.14862719 -33.21491890 -0.15216887
v 13.11950268 -31.58720629 -0.50342282
v 0.48751251 -34.50360703 -0.50258860
v -0.04032213 -34.50360703 -0.50258860
v 8.26300202 -33.53179304 -0.48564925
v 2.43138452 -34.50360703 -0.48183153
v 1.45838872 -34.50360703 -0.49700395
v 10.20687477 -32.55998195 -0.50342282
v 11.17563139 -32.55998195 -0.49802355
v 2.43138452 -35.21633126 -0.21452699
v 2.43138452 -35.42148044 0.44730098
v 3.40226146 -35.17588017 -0.18688759
v 12.14862719 -33.36613329 0.44730098
v 9.89526158 -34.06922630 -0.04188352
v 12.14862719 -32.55998195 -0.41938072
v 9.23387824 -34.16072717 -0.13941802
v 11.17563139 -33.37094745 -0.23081750
v 9.23387824 -33.53179304 -0.40672255
v 8.26300202 -34.27630462 -0.21834472
v 4.37525727 -34.50360703 -0.40895873
v 3.40226146 -34.50360703 -0.45418633
v 4.37525727 -35.12290705 -0.14165420
v 3.40226146 -35.34346617 0.44730098
v 9.97157482 -34.09137954 0.44730098
v 9.23387824 -34.28882375 0.44730098
v 8.26300202 -34.51901697 0.44730098
v 5.93756272 -35.00829417 0.00111948
v 5.34613348 -35.05645023 -0.06375289
v 4.37525727 -35.24329866 0.44730098
v 5.98207884 -35.01599914 0.44730098
v 5.34613348 -35.11423751 0.44730098
f 1 2 7
f 1 7 16
f 1 16 17
f 1 17 8
f 1 8 3
f 1 3 9
f 1 9 21
f 1 21 10
f 1 10 4
f 1 4 11
f 1 11 23
f 1 23 36
f 1 36 49
f 1 49 64
f 1 64 76
f 1 76 82
f 1 82 84
f 1 84 83
f 1 83 79
f 1 79 78
f 1 78 77
f 1 77 66
f 1 66 50
f 1 50 37
f 1 37 25
f 1 25 24
f 1 24 12
f 1 12 5
f 1 5 2
f 2 5 6
f 2 6 7
f 3 8 18
f 3 18 32
f 3 32 43
f 3 43 55
f 3 55 61
f 3 61 45
f 3 45 33
f 3 33 19
f 3 19 9
f 4 10 11
f 5 12 6
f 6 12 13
f 6 13 14
f 6 14 15
f 6 15 7
f 7 15 16
f 8 17 18
f 9 19 20
f 9 20 21
f 10 21 22
f 10 22 11
f 11 22 34
f 11 34 20
f 11 20 19
f 11 19 33
f 11 33 44
f 11 44 57
f 11 57 46
f 11 46 35
f 11 35 23
f 12 24 13
f 13 24 25
f 13 25 26
f 13 26 27
f 13 27 14
f 14 28 16
f 14 16 15
f 14 27 29
f 14 29 28
f 16 28 30
f 16 30 17
f 17 30 31
f 17 31 32
f 17 32 18
f 20 34 21
f 21 34 22
f 23 35 36
f 25 37 26
f 26 38 27
f 26 37 39
f 26 39 38
f 27 40 29
f 27 38 40
f 28 29 30
f 29 40 41
f 29 41 30
f 30 41 31
f 31 41 42
f 31 42 43
f 31 43 32
f 33 45 44
f 35 46 47
f 35 47 36
f 36 47 48
f 36 48 49
f 37 50 51
f 37 51 39
f 38 42 40
f 38 39 52
f 38 52 53
f 38 53 42
f 39 51 54
f 39 54 52
f 40 42 41
f 42 53 55
f 42 55 43
f 44 56 57
f 44 45 56
f 45 58 59
f 45 59 60
f 45 60 56
f 45 61 62
f 45 62 58
f 46 57 56
f 46 56 47
f 47 56 60
f 47 60 48
f 48 60 59
f 48 59 63
f 48 63 49
f 49 63 65
f 49 65 64
f 50 66 51
f 51 66 67
f 51 67 54
f 52 54 68
f 52 68 53
f 53 68 62
f 53 62 55
f 54 67 69
f 54 69 70
f 54 70 68
f 55 62 61
f 58 71 72
f 58 72 73
f 58 73 74
f 58 74 59
f 58 62 68
f 58 68 71
f 59 74 63
f 63 74 65
f 64 65 75
f 64 75 76
f 65 74 73
f 65 73 75
f 66 77 67
f 67 77 78
f 67 78 79
f 67 79 80
f 67 80 69
f 68 70 71
f 69 80 72
f 69 72 70
f 70 72 71
f 72 80 81
f 72 81 75
f 72 75 73
f 75 81 76
f 76 81 80
f 76 80 82
f 79 83 80
f 80 83 84
f 80 84 82

