# https://github.com/mikedh/trimesh
v -25.00128931 2.66952359 8.77964115
v -22.29735312 0.12628599 8.77964115
v -22.29707505 0.12628599 9.12170417
v -22.29679697 0.12628599 9.26448364
v -25.00128931 2.67222902 9.26448364
v -25.00128931 25.23940534 8.77964115
v -22.15849710 0.12628599 8.77964115
v -22.21164691 0.12628599 9.46694767
v -25.00128931 2.79668529 9.98577024
v -25.00128931 2.75880710 9.81690104
v -25.00128931 25.23940534 10.07968397
v -24.87912788 25.35845003 8.77964115
v -22.15849710 0.12628599 9.59318462
v -22.15849710 27.76640964 8.77964115
v -25.00128931 2.91302527 10.06657683
v -24.71522926 25.51807905 10.07968397
v -25.00128931 2.93196400 10.07968397
v -24.63675732 25.59383397 8.77964115
v -22.15849710 0.68904427 9.95637259
v -22.59704894 27.41198101 8.77964115
v -22.59732702 27.41198101 10.07968397
v -22.49965493 27.49044135 10.07968397
v -22.15849710 27.76370421 10.07968397
v -24.63675732 25.59383397 10.07968397
v -22.15849710 1.16793135 10.07968397
v -24.38130570 25.83733710 8.77964115
v -22.67552088 27.34704491 10.07968397
v -23.08318332 27.00614342 8.77964115
v -24.12418708 26.08084023 10.07968397
v -24.12446515 26.08084023 9.26448364
v -24.12446515 26.08084023 8.77964115
v -23.08318332 27.00614342 10.07968397
v -23.36145296 26.76264319 8.77964115
v -23.71680126 26.44879600 10.07968397
v -23.63832932 26.51914296 8.77964115
v -23.54900526 26.59760331 10.07968397
v -23.63832932 26.51914296 10.07968397
f 1 2 3
f 1 3 4
f 1 4 5
f 1 5 10
f 1 10 9
f 1 9 15
f 1 15 17
f 1 17 11
f 1 11 6
f 1 6 12
f 1 12 18
f 1 18 26
f 1 26 31
f 1 31 35
f 1 35 33
f 1 33 28
f 1 28 20
f 1 20 14
f 1 14 7
f 1 7 2
f 2 7 13
f 2 13 8
f 2 8 4
f 2 4 3
f 4 8 9
f 4 9 10
f 4 10 5
f 6 11 12
f 7 14 23
f 7 23 25
f 7 25 19
f 7 19 13
f 8 13 9
f 9 13 15
f 11 16 12
f 11 17 25
f 11 25 23
f 11 23 22
f 11 22 21
f 11 21 27
f 11 27 32
f 11 32 36
f 11 36 37
f 11 37 34
f 11 34 29
f 11 29 24
f 11 24 16
f 12 16 18
f 13 19 17
f 13 17 15
f 14 20 21
f 14 21 22
f 14 22 23
f 16 24 18
f 17 19 25
f 18 24 26
f 20 27 21
f 20 28 27
f 24 29 26
f 26 29 30
f 26 30 31
f 27 28 32
f 28 33 32
f 29 34 30
f 30 34 31
f 31 34 35
f 32 33 36
f 33 35 37
f 33 37 36
f 34 37 35

