# https://github.com/mikedh/trimesh
v -5.93653610 -4.06431587 26.81088775
v -5.93653610 0.91591111 26.81088775
v -2.18810991 -4.06431587 26.81088775
v -5.93653610 -4.06431587 76.47126880
v -2.18810991 0.91591111 26.81088775
v -5.93653610 0.91591111 78.63218273
v -2.18810991 -4.06431587 76.58793827
v -2.18810991 0.91591111 76.68938897
v -2.18810991 0.91396115 76.83142112
v -2.54842263 0.91591111 76.94301863
f 1 2 5
f 1 5 3
f 1 3 7
f 1 7 4
f 1 4 6
f 1 6 2
f 2 6 10
f 2 10 8
f 2 8 5
f 3 5 8
f 3 8 9
f 3 9 7
f 4 7 6
f 6 7 9
f 6 9 10
f 8 10 9

