# https://github.com/mikedh/trimesh
v -24.99263715 -25.24490930 12.18473397
v -24.99263715 -25.24490930 13.00405328
v -24.99263715 -4.92729100 12.18473397
v -24.63910357 -25.59260912 12.18473397
v -24.97954160 -25.25544426 13.82642560
v -24.99263715 -4.92729100 13.00405328
v -20.16101833 0.84312340 13.00421549
v -20.08993709 0.00372628 12.18473397
v -24.12283291 -26.07728071 12.18473397
v -24.20139609 -26.00703803 13.00405328
v -24.27995927 -25.92977108 13.82642560
v -24.63536116 -25.58909554 13.82642560
v -24.97954160 -4.93080313 13.82642560
v -20.16101833 0.84312340 13.82642560
v -5.88501490 0.84312340 13.00421549
v -10.16295195 0.00372628 12.18473397
v -23.64023239 -26.51629601 12.18473397
v -24.12283291 -26.07728071 13.82642560
v -23.63649143 -26.51980959 13.00405328
v -5.88501490 0.84312340 13.82642560
v -5.88314442 -4.89568179 13.00421549
v -10.16295195 -34.03925802 12.18473397
v -23.08280966 -27.00448118 12.18473397
v -23.63649143 -26.51629601 13.82642560
v -23.08280966 -27.00448118 13.82642560
v -5.88314442 -4.89568179 13.82642560
v -5.88314442 -35.02967691 13.00421549
v -5.99537701 -35.01211769 13.00421549
v -6.60517472 -34.90324009 13.00421549
v -7.29166511 -34.76626541 13.00421549
v -8.26434881 -34.54851600 13.00421549
v -9.23703178 -34.29915594 13.00421549
v -9.23703178 -34.29915594 13.82642560
v -9.98337980 -34.08842790 13.82642560
v -10.39677028 -33.96901534 13.00405328
v -10.46972129 -33.94794254 12.18473397
v -22.59272721 -27.41539941 12.18473397
v -22.59833793 -27.41188583 13.00405328
v -22.93503644 -27.12740442 13.82642560
v -5.88314442 -35.02967691 13.82642560
v -6.48171850 -34.92431289 13.82642560
v -7.29166511 -34.76626541 13.82642560
v -8.26434881 -34.54851600 13.82642560
v -10.46972129 -33.94442896 13.82642560
v -10.57821364 -33.91282120 13.00405328
v -11.17865820 -33.71965528 13.00405328
v -11.17865820 -33.71965528 12.18473397
v -21.99041144 -27.90007100 12.18473397
v -22.08393848 -27.82631764 13.00405328
v -22.59646818 -27.40837514 13.82642560
v -11.17865820 -33.71614170 13.82642560
v -12.15134262 -33.38249331 13.00405328
v -12.15134262 -33.38249331 12.18473397
v -21.99041144 -27.90007100 13.00405328
v -21.50781092 -28.27586789 12.18473397
v -21.50406995 -28.27938147 13.00405328
v -21.99041144 -27.89304673 13.82642560
v -22.17559576 -27.74553711 13.82642560
v -12.15134262 -33.37897973 13.82642560
v -12.25609256 -33.34385839 13.00405328
v -12.84531423 -33.12259540 12.18473397
v -21.50219875 -28.27586789 13.82642560
v -21.83889726 -28.01245929 13.82642560
v -20.89427080 -28.72893172 12.18473397
v -21.08132634 -28.58844637 13.82642560
v -12.84344447 -33.11908182 13.82642560
v -12.84344447 -33.12259540 13.00405328
v -13.25496374 -32.96103724 13.00405328
v -13.32978595 -32.92942948 12.18473397
v -20.43785849 -29.05907232 13.00405328
v -20.35555435 -29.11877715 12.18473397
v -20.35555435 -29.11877715 13.00405328
v -20.35555435 -29.11526646 13.82642560
v -13.33165571 -32.92591590 13.82642560
v -13.56360428 -32.83108973 13.82642560
v -14.09483880 -32.60982384 13.00405328
v -14.09483880 -32.60982384 12.18473397
v -19.87295383 -29.44540416 12.18473397
v -19.86921286 -29.44891485 13.00405328
v -19.86921286 -29.44189347 13.82642560
v -14.09670856 -32.60631315 13.82642560
v -14.22390574 -32.55362970 13.00405328
v -14.93097290 -32.23754053 12.18473397
v -19.13221798 -29.93007575 12.18473397
v -19.35855438 -29.78256902 13.82642560
v -14.93471387 -32.23051627 13.82642560
v -14.93471387 -32.23402985 13.00405328
v -15.34623314 -32.04437461 13.00405328
v -15.41918559 -32.00925327 12.18473397
v -18.64774625 -30.23914354 12.18473397
v -19.13221798 -29.93007575 13.82642560
v -15.27141238 -32.07598237 13.82642560
v -15.42105535 -32.00574259 13.82642560
v -15.51458239 -31.96008340 13.00405328
v -16.03459402 -31.69667480 13.82642560
v -16.16179120 -31.63345639 13.00405328
v -16.03646523 -31.69667480 12.18473397
v -18.64587649 -30.23914354 13.00405328
v -17.97996141 -30.63952392 12.18473397
v -17.97996141 -30.63952392 13.00405328
v -18.64587649 -30.23563286 13.82642560
v -16.84828232 -31.27170804 13.82642560
v -16.85015208 -31.27521872 13.00405328
v -16.84641112 -31.27873230 12.18473397
v -17.33649357 -31.01181012 12.18473397
v -17.43376302 -30.95561598 13.00405328
v -17.53103103 -30.89591115 13.82642560
v -17.97809165 -30.63601323 13.82642560
v -17.33462381 -31.00829654 13.82642560
v -17.33649357 -31.01181012 13.00405328
f 1 2 6
f 1 6 3
f 1 3 8
f 1 8 16
f 1 16 22
f 1 22 36
f 1 36 47
f 1 47 53
f 1 53 61
f 1 61 69
f 1 69 77
f 1 77 83
f 1 83 89
f 1 89 97
f 1 97 104
f 1 104 105
f 1 105 99
f 1 99 90
f 1 90 84
f 1 84 78
f 1 78 71
f 1 71 64
f 1 64 55
f 1 55 48
f 1 48 37
f 1 37 23
f 1 23 17
f 1 17 9
f 1 9 4
f 1 4 2
f 2 5 13
f 2 13 6
f 2 4 5
f 3 6 14
f 3 14 7
f 3 7 8
f 4 9 10
f 4 10 11
f 4 11 12
f 4 12 5
f 5 12 11
f 5 11 18
f 5 18 24
f 5 24 25
f 5 25 39
f 5 39 50
f 5 50 58
f 5 58 57
f 5 57 63
f 5 63 62
f 5 62 65
f 5 65 73
f 5 73 80
f 5 80 85
f 5 85 91
f 5 91 101
f 5 101 108
f 5 108 107
f 5 107 109
f 5 109 102
f 5 102 95
f 5 95 93
f 5 93 92
f 5 92 86
f 5 86 81
f 5 81 75
f 5 75 74
f 5 74 66
f 5 66 59
f 5 59 51
f 5 51 44
f 5 44 34
f 5 34 33
f 5 33 43
f 5 43 42
f 5 42 41
f 5 41 40
f 5 40 26
f 5 26 20
f 5 20 14
f 5 14 13
f 6 13 14
f 7 14 20
f 7 20 15
f 7 15 16
f 7 16 8
f 9 17 10
f 10 18 11
f 10 17 19
f 10 19 18
f 15 21 16
f 15 20 26
f 15 26 21
f 16 21 27
f 16 27 22
f 17 23 19
f 18 19 24
f 19 23 25
f 19 25 24
f 21 26 40
f 21 40 27
f 22 27 28
f 22 28 29
f 22 29 30
f 22 30 31
f 22 31 32
f 22 32 33
f 22 33 34
f 22 34 35
f 22 35 36
f 23 37 38
f 23 38 25
f 25 38 39
f 27 40 28
f 28 41 29
f 28 40 41
f 29 42 30
f 29 41 42
f 30 42 43
f 30 43 31
f 31 43 33
f 31 33 32
f 34 44 35
f 35 44 45
f 35 45 36
f 36 45 46
f 36 46 47
f 37 48 49
f 37 49 38
f 38 49 50
f 38 50 39
f 44 51 46
f 44 46 45
f 46 51 59
f 46 59 52
f 46 52 53
f 46 53 47
f 48 54 49
f 48 55 56
f 48 56 54
f 49 57 58
f 49 58 50
f 49 54 57
f 52 59 60
f 52 60 53
f 53 60 61
f 54 56 62
f 54 62 63
f 54 63 57
f 55 64 56
f 56 64 65
f 56 65 62
f 59 66 60
f 60 66 67
f 60 67 61
f 61 67 68
f 61 68 69
f 64 70 65
f 64 71 72
f 64 72 70
f 65 70 73
f 66 68 67
f 66 74 68
f 68 74 75
f 68 75 76
f 68 76 77
f 68 77 69
f 70 72 73
f 71 78 79
f 71 79 72
f 72 79 73
f 73 79 80
f 75 81 76
f 76 81 82
f 76 82 77
f 77 82 83
f 78 84 79
f 79 85 80
f 79 84 85
f 81 86 82
f 82 86 87
f 82 87 83
f 83 87 88
f 83 88 89
f 84 90 91
f 84 91 85
f 86 92 87
f 87 92 88
f 88 92 93
f 88 93 89
f 89 93 94
f 89 94 95
f 89 95 96
f 89 96 97
f 90 98 91
f 90 99 100
f 90 100 98
f 91 98 101
f 93 95 94
f 95 102 103
f 95 103 96
f 96 103 104
f 96 104 97
f 98 100 101
f 99 105 106
f 99 106 100
f 100 106 107
f 100 107 108
f 100 108 101
f 102 109 110
f 102 110 103
f 103 110 104
f 104 110 105
f 105 110 106
f 106 110 107
f 107 110 109

