# https://github.com/mikedh/trimesh
v 18.14089839 -26.15221879 16.55735671
v 18.14089839 -30.54413871 16.55735671
v 18.14089839 -26.15221879 15.64563859
v 4.79717499 -26.15221879 16.55735671
v 17.97758488 -30.63957316 16.55735671
v 18.14089839 -30.54413871 15.64563859
v 4.79540009 -26.15221879 15.64563859
v 4.79540009 -26.15221879 16.21073153
v 0.00607353 -29.90820059 16.55735671
v 17.97758488 -30.63957316 15.64563859
v 17.65806035 -30.82585964 16.55735671
v 0.00607353 -29.90728236 15.64563859
v 0.00607353 -29.90728236 16.06812007
v 0.00607353 -35.52610872 16.55735671
v 17.33320896 -31.01397968 15.64563859
v 17.33320896 -31.01397968 16.55735671
v 0.00607353 -35.52610872 15.64563859
v 0.48891157 -35.52610872 16.55735671
v 16.84682257 -31.27918128 16.55735671
v 16.84682257 -31.27826595 15.64563859
v 0.48891157 -35.52610872 15.64563859
v 1.45991306 -35.49857938 16.55735671
v 16.49356852 -31.46271309 15.64563859
v 16.03380773 -31.70222469 16.55735671
v 16.03380773 -31.70222469 15.64563859
v 1.45991306 -35.49857938 15.64563859
v 2.43268944 -35.44443893 16.55735671
v 15.41605885 -32.01055675 16.55735671
v 15.41605885 -32.01147497 16.06812007
v 15.41605885 -32.01147497 15.64563859
v 2.43268944 -35.44443893 15.64563859
v 3.40369057 -35.36368447 16.06812007
v 3.40369057 -35.36276625 16.55735671
v 14.92967102 -32.23813723 16.55735671
v 14.92967102 -32.23813723 15.64563859
v 3.40369057 -35.36368447 15.64563859
v 3.89362892 -35.30954112 16.55735671
v 14.09003058 -32.61345908 16.55735671
v 14.09003058 -32.61345908 15.64563859
v 4.37646696 -35.25540067 15.64563859
v 4.37646696 -35.25540067 16.55735671
v 13.71192509 -32.77313155 16.55735671
v 13.75985377 -32.75294511 15.64563859
v 5.34746845 -35.12142399 15.64563859
v 5.34746845 -35.12050576 16.55735671
v 13.32849565 -32.93464047 16.55735671
v 13.32849565 -32.93464047 15.64563859
v 5.99539417 -35.01772551 15.64563859
v 5.99539417 -35.01772551 16.55735671
v 5.67409401 -35.06911709 16.55735671
v 13.05334856 -33.04384249 15.64563859
v 12.84210637 -33.12734873 16.55735671
v 6.48178236 -34.93146750 15.64563859
v 6.48178236 -34.93146750 16.55735671
v 12.84210637 -33.12734873 15.64563859
v 12.14802759 -33.38521033 16.55735671
v 7.29124597 -34.77087681 15.64563859
v 7.29124597 -34.77087681 16.55735671
v 12.14802759 -33.38521033 15.64563859
v 11.66518955 -33.55314392 16.55735671
v 7.84153943 -34.64791012 15.64563859
v 8.26402235 -34.55247276 16.55735671
v 11.17525121 -33.72290817 15.64563859
v 11.17525121 -33.72290817 16.55735671
v 8.26402235 -34.55247276 15.64563859
v 8.81254020 -34.41298963 15.64563859
v 9.23147333 -34.30562406 16.55735671
v 10.86815166 -33.82201552 15.64563859
v 10.46697037 -33.95048866 16.55735671
v 9.23147333 -34.30562406 15.64563859
v 9.60957809 -34.20009203 16.55735671
v 10.46697037 -33.95048866 15.64563859
v 10.22200084 -34.02390022 16.55735671
v 9.98058182 -34.09547824 15.64563859
v 9.98058182 -34.09547824 16.55735671
f 1 2 6
f 1 6 3
f 1 3 7
f 1 7 8
f 1 8 4
f 1 4 9
f 1 9 14
f 1 14 18
f 1 18 22
f 1 22 27
f 1 27 33
f 1 33 37
f 1 37 41
f 1 41 45
f 1 45 50
f 1 50 49
f 1 49 54
f 1 54 58
f 1 58 62
f 1 62 67
f 1 67 71
f 1 71 75
f 1 75 73
f 1 73 69
f 1 69 64
f 1 64 60
f 1 60 56
f 1 56 52
f 1 52 46
f 1 46 42
f 1 42 38
f 1 38 34
f 1 34 28
f 1 28 24
f 1 24 19
f 1 19 16
f 1 16 11
f 1 11 5
f 1 5 2
f 2 5 10
f 2 10 6
f 3 6 10
f 3 10 15
f 3 15 20
f 3 20 23
f 3 23 25
f 3 25 30
f 3 30 35
f 3 35 39
f 3 39 43
f 3 43 47
f 3 47 51
f 3 51 55
f 3 55 59
f 3 59 63
f 3 63 68
f 3 68 72
f 3 72 74
f 3 74 70
f 3 70 66
f 3 66 65
f 3 65 61
f 3 61 57
f 3 57 53
f 3 53 48
f 3 48 44
f 3 44 40
f 3 40 36
f 3 36 31
f 3 31 26
f 3 26 21
f 3 21 17
f 3 17 12
f 3 12 7
f 4 8 9
f 5 11 10
f 7 12 13
f 7 13 8
f 8 13 9
f 9 13 12
f 9 12 17
f 9 17 14
f 10 11 15
f 11 16 15
f 14 17 21
f 14 21 18
f 15 16 19
f 15 19 20
f 18 21 26
f 18 26 22
f 19 23 20
f 19 24 25
f 19 25 23
f 22 26 31
f 22 31 27
f 24 28 29
f 24 29 30
f 24 30 25
f 27 32 33
f 27 31 36
f 27 36 32
f 28 34 29
f 29 34 35
f 29 35 30
f 32 36 37
f 32 37 33
f 34 38 39
f 34 39 35
f 36 40 37
f 37 40 41
f 38 42 43
f 38 43 39
f 40 44 41
f 41 44 45
f 42 46 47
f 42 47 43
f 44 48 49
f 44 49 50
f 44 50 45
f 46 51 47
f 46 52 51
f 48 53 54
f 48 54 49
f 51 52 55
f 52 56 59
f 52 59 55
f 53 57 58
f 53 58 54
f 56 60 59
f 57 61 58
f 58 61 62
f 59 60 63
f 60 64 63
f 61 65 62
f 62 65 66
f 62 66 67
f 63 64 68
f 64 69 68
f 66 70 67
f 67 70 71
f 68 69 72
f 69 73 72
f 70 74 71
f 71 74 75
f 72 73 74
f 73 75 74

