# https://github.com/mikedh/trimesh
v 18.66785463 -23.03353940 12.18464997
v 18.66785463 -29.75041381 12.18464997
v 18.66785463 -23.03353940 11.32163827
v 5.05588783 -23.03353940 12.18464997
v 18.64593312 -30.24075985 12.18464997
v 18.66785463 -30.22730801 12.18025872
v 18.66785463 -30.22730801 11.32163827
v 4.19908826 -23.03353940 11.32163827
v 4.48590614 -23.03353940 12.18025872
v 0.48324581 -29.89837530 12.18464997
v 18.64593312 -30.24075985 11.32163827
v 17.97912588 -30.63817120 12.18464997
v 18.05768181 -30.59170676 11.32163827
v 0.00460784 -29.62324414 11.32163827
v 0.00460784 -29.89837530 12.18025872
v 4.42561946 -23.03353940 12.01855283
v 0.00460784 -32.67292349 12.18464997
v 17.33241673 -31.01479652 12.18464997
v 17.97912588 -30.63817120 11.32163827
v 0.00460784 -35.52450690 11.32163827
v 0.00460784 -35.52450690 12.18025872
v 0.48689988 -35.52450690 12.18464997
v 16.84829694 -31.27770111 12.18464997
v 16.84829694 -31.27770111 11.32163827
v 17.27761151 -31.04414493 11.32163827
v 17.33424304 -31.01235179 11.32163827
v 17.40914491 -30.96955155 11.32163827
v 0.48689988 -35.52450690 11.32163827
v 0.60016511 -35.52206216 11.32163827
v 1.45879207 -35.49882849 12.18464997
v 16.03534293 -31.70079087 12.18464997
v 16.13034000 -31.65187880 11.32163827
v 1.45879207 -35.49882849 11.32163827
v 1.57205731 -35.49271376 11.32163827
v 2.43068355 -35.44502405 12.18464997
v 15.41603567 -32.01138518 12.18464997
v 15.41786343 -32.01138518 12.18025872
v 16.03534293 -31.70079087 11.32163827
v 2.43068355 -35.44502405 11.32163827
v 3.40257538 -35.36309646 12.18464997
v 14.93191733 -32.23760426 12.18464997
v 15.41786343 -32.01138518 11.32163827
v 3.40257538 -35.36309646 11.32163827
v 3.51584098 -35.35086989 11.32163827
v 4.37446722 -35.25671284 12.18464997
v 14.09155998 -32.61300431 12.18464997
v 14.19020967 -32.56898460 11.32163827
v 14.93191733 -32.23760426 11.32163827
v 4.37446722 -35.25671284 11.32163827
v 5.34635941 -35.12220317 12.18464997
v 14.09155998 -32.61300431 11.32163827
v 13.33158343 -32.93338045 12.18464997
v 5.34635941 -35.12220317 11.32163827
v 5.99306928 -35.01826428 12.18464997
v 13.32793081 -32.93460282 11.32163827
v 12.84198472 -33.12658403 12.18464997
v 12.84198472 -33.12658403 11.32163827
v 5.99306928 -35.01826428 11.32163827
v 6.47901538 -34.93144723 12.18025872
v 6.47718835 -34.93144723 12.18464997
v 12.14777559 -33.38581862 12.18464997
v 12.22998415 -33.35524784 11.32163827
v 6.47901538 -34.93144723 11.32163827
v 7.29014308 -34.77125916 12.18464997
v 11.17588339 -33.72331369 12.18464997
v 11.28914935 -33.68418345 11.32163827
v 12.14777559 -33.38581862 11.32163827
v 7.29014308 -34.77125916 11.32163827
v 8.26203456 -34.55359954 12.18464997
v 10.46706017 -33.95197751 12.18464997
v 11.17588339 -33.72331369 11.32163827
v 8.26203456 -34.55359954 11.32163827
v 9.23392676 -34.30536916 12.18464997
v 9.98294110 -34.09626901 12.18464997
v 9.98294110 -34.09626901 11.32163827
v 10.41225422 -33.96787408 11.32163827
v 10.46888720 -33.95075514 11.32163827
v 9.23392676 -34.30536916 11.32163827
v 9.32161641 -34.28091312 11.32163827
f 1 2 6
f 1 6 7
f 1 7 3
f 1 3 8
f 1 8 16
f 1 16 9
f 1 9 4
f 1 4 10
f 1 10 17
f 1 17 22
f 1 22 30
f 1 30 35
f 1 35 40
f 1 40 45
f 1 45 50
f 1 50 54
f 1 54 60
f 1 60 64
f 1 64 69
f 1 69 73
f 1 73 74
f 1 74 70
f 1 70 65
f 1 65 61
f 1 61 56
f 1 56 52
f 1 52 46
f 1 46 41
f 1 41 36
f 1 36 31
f 1 31 23
f 1 23 18
f 1 18 12
f 1 12 5
f 1 5 2
f 2 5 6
f 3 7 11
f 3 11 13
f 3 13 19
f 3 19 27
f 3 27 26
f 3 26 25
f 3 25 24
f 3 24 32
f 3 32 38
f 3 38 42
f 3 42 48
f 3 48 47
f 3 47 51
f 3 51 55
f 3 55 57
f 3 57 62
f 3 62 67
f 3 67 66
f 3 66 71
f 3 71 77
f 3 77 76
f 3 76 75
f 3 75 79
f 3 79 78
f 3 78 72
f 3 72 68
f 3 68 63
f 3 63 58
f 3 58 53
f 3 53 49
f 3 49 44
f 3 44 43
f 3 43 39
f 3 39 34
f 3 34 33
f 3 33 29
f 3 29 28
f 3 28 20
f 3 20 14
f 3 14 8
f 4 9 10
f 5 11 7
f 5 7 6
f 5 12 13
f 5 13 11
f 8 14 15
f 8 15 16
f 9 16 15
f 9 15 10
f 10 15 17
f 12 18 19
f 12 19 13
f 14 20 21
f 14 21 17
f 14 17 15
f 17 21 22
f 18 23 24
f 18 24 25
f 18 25 26
f 18 26 27
f 18 27 19
f 20 28 22
f 20 22 21
f 22 29 30
f 22 28 29
f 23 31 32
f 23 32 24
f 29 33 30
f 30 33 34
f 30 34 35
f 31 36 37
f 31 37 42
f 31 42 38
f 31 38 32
f 34 39 35
f 35 39 43
f 35 43 40
f 36 41 37
f 37 41 48
f 37 48 42
f 40 43 44
f 40 44 45
f 41 46 47
f 41 47 48
f 44 49 45
f 45 49 53
f 45 53 50
f 46 51 47
f 46 52 51
f 50 53 58
f 50 58 54
f 51 52 55
f 52 56 57
f 52 57 55
f 54 58 63
f 54 63 59
f 54 59 60
f 56 61 62
f 56 62 57
f 59 63 68
f 59 68 64
f 59 64 60
f 61 65 66
f 61 66 67
f 61 67 62
f 64 68 72
f 64 72 69
f 65 70 71
f 65 71 66
f 69 72 78
f 69 78 73
f 70 74 75
f 70 75 76
f 70 76 77
f 70 77 71
f 73 79 74
f 73 78 79
f 74 79 75

