# https://github.com/mikedh/trimesh
v 0.00446175 29.90788734 13.00409962
v 0.00446175 29.90788734 13.07889287
v 0.00446175 35.52499601 13.00409962
v 4.93183491 24.79999610 13.00409962
v 0.00446175 29.90893881 13.82658492
v 4.93183491 24.79999610 13.82658492
v 0.00446175 35.52499601 13.82658492
v 0.48634065 35.52604458 13.82658492
v 0.48580043 35.52499601 13.00409962
v 5.52337893 24.79999610 13.00409962
v 5.52337893 24.79999610 13.82658492
v 1.45820162 35.49874697 13.15223781
v 0.63436171 35.52184451 13.00409962
v 1.45820162 35.49874697 13.82658492
v 5.52337893 35.09347423 13.00409962
v 5.52337893 35.09347423 13.82658492
v 1.60622277 35.49139829 13.00409962
v 1.45766140 35.49874697 13.00409962
v 1.75586448 35.48299813 13.82658492
v 5.44396632 35.10607446 13.00409962
v 5.34564576 35.12182331 13.15223781
v 5.34564576 35.12182331 13.82658492
v 2.43006259 35.44520033 13.82658492
v 2.43006259 35.44520033 13.15223781
v 2.42952237 35.44520033 13.00409962
v 5.34456533 35.12182331 13.00409962
v 4.37270427 35.25726278 13.00409962
v 4.37324449 35.25726278 13.15223781
v 4.67090726 35.21526780 13.82658492
v 3.40138343 35.36435607 13.82658492
v 3.40138343 35.36435607 13.15223781
v 3.40084321 35.36435607 13.00409962
v 4.37324449 35.25621421 13.82658492
f 1 2 5
f 1 5 7
f 1 7 3
f 1 3 9
f 1 9 13
f 1 13 18
f 1 18 17
f 1 17 25
f 1 25 32
f 1 32 27
f 1 27 26
f 1 26 20
f 1 20 15
f 1 15 10
f 1 10 4
f 1 4 6
f 1 6 2
f 2 6 5
f 3 7 8
f 3 8 9
f 4 10 11
f 4 11 6
f 5 6 11
f 5 11 16
f 5 16 22
f 5 22 29
f 5 29 33
f 5 33 30
f 5 30 23
f 5 23 19
f 5 19 14
f 5 14 8
f 5 8 7
f 8 12 13
f 8 13 9
f 8 14 12
f 10 15 16
f 10 16 11
f 12 14 17
f 12 17 18
f 12 18 13
f 14 19 17
f 15 20 21
f 15 21 22
f 15 22 16
f 17 19 23
f 17 23 24
f 17 24 25
f 20 26 21
f 21 26 27
f 21 27 28
f 21 28 22
f 22 28 29
f 23 30 31
f 23 31 24
f 24 31 32
f 24 32 25
f 27 32 31
f 27 31 28
f 28 31 30
f 28 30 33
f 28 33 29

