# https://github.com/mikedh/trimesh
v 15.04502977 -32.18365788 13.82658781
v 15.42056886 -32.00997163 13.82658781
v 15.11258730 -32.15284379 14.73830593
v 15.04502977 -32.18365788 14.73830593
v 15.04502977 -4.54780529 13.82658781
v 15.42056886 -32.00997163 14.73830593
v 16.03852051 -31.69901526 13.82658781
v 15.04502977 -4.54780529 14.73830593
v 28.35977445 -3.57011553 13.82658781
v 16.03852051 -31.69901526 14.73830593
v 16.85119355 -31.27600080 13.82658781
v 16.55116027 -31.43288095 14.73830593
v 28.35977445 -3.57011553 14.73830593
v 35.34201845 -3.57011553 13.82658781
v 17.00021810 -31.19476261 13.82658781
v 16.85119355 -31.27600080 14.73830593
v 35.34201845 -3.57011553 14.73830593
v 35.29433164 -4.01834059 14.73830593
v 35.25459021 -4.37411904 13.82658781
v 17.33601721 -31.00986940 13.82658781
v 17.33601721 -31.00986940 14.73830593
v 17.03002272 -31.17795361 14.73830593
v 35.25459021 -4.37411904 14.73830593
v 35.16319073 -5.04925691 13.82658781
v 17.98377203 -30.63728195 13.82658781
v 17.74533507 -30.77455207 14.73830593
v 35.17113901 -4.99042686 14.73830593
v 35.12146223 -5.34900777 14.73830593
v 35.12146223 -5.34900777 13.82658781
v 18.44475229 -30.36274459 13.82658781
v 17.98377203 -30.63728195 14.73830593
v 35.01814032 -5.99893287 14.73830593
v 35.01814032 -6.00173461 14.12430671
v 35.01814032 -6.00173461 13.82658781
v 18.64742342 -30.23948534 14.73830593
v 18.64742342 -30.23948534 13.82658781
v 34.98634718 -6.18102435 14.73830593
v 34.93071208 -6.48917898 13.82658781
v 19.13423271 -29.93413100 13.82658781
v 19.13423271 -29.93132998 14.73830593
v 34.93071208 -6.48637724 14.73830593
v 34.77175507 -7.29318176 14.73830593
v 34.77175507 -7.29318176 13.82658781
v 19.87140139 -29.44668446 13.82658781
v 19.87140139 -29.44668446 14.73830593
v 19.59918566 -29.62597564 14.73830593
v 34.55318592 -8.26526875 14.73830593
v 34.62074344 -7.96832036 13.82658781
v 20.35622505 -29.11612096 13.82658781
v 20.35622505 -29.11612096 14.73830593
v 34.30680067 -9.23735647 14.73830593
v 34.55318592 -8.26526875 13.82658781
v 20.73176414 -28.84718564 13.82658781
v 20.69798538 -28.86959667 14.73830593
v 34.30680067 -9.23735647 13.82658781
v 34.09618270 -9.98813268 14.73830593
v 21.28215681 -28.44378410 14.73830593
v 21.31990972 -28.41577103 13.82658781
v 34.09618270 -9.98813268 13.82658781
v 33.94914522 -10.47557705 14.73830593
v 34.05247003 -10.13660688 13.82658781
v 21.50469866 -28.27850090 14.73830593
v 21.50469866 -28.27850090 13.82658781
v 33.94914522 -10.47557705 13.82658781
v 33.80608478 -10.92100036 14.73830593
v 21.99150794 -27.90031142 14.73830593
v 21.99150794 -27.90031142 13.82658781
v 33.72263068 -11.17872944 13.82658781
v 33.72263068 -11.17872944 14.73830593
v 22.59952423 -27.41286778 14.73830593
v 22.59952423 -27.41286778 13.82658781
v 33.51002275 -11.79223697 14.73830593
v 33.48816496 -11.85386804 13.82658781
v 23.08434645 -27.00386131 14.73830593
v 23.08434645 -27.00386131 13.82658781
v 33.38484305 -12.15081644 13.82658781
v 33.38484305 -12.15081644 14.73830593
v 23.43405506 -26.69850697 14.73830593
v 23.46982089 -26.66769288 13.82658781
v 33.20601533 -12.63265805 13.82658781
v 33.12653537 -12.84556433 14.73830593
v 23.63871326 -26.51921868 14.73830593
v 23.63871326 -26.51921868 13.82658781
v 33.12653537 -12.84556433 13.82658781
v 33.05500660 -13.02485551 14.73830593
v 24.12552255 -26.07939813 14.73830593
v 24.12552255 -26.07939813 13.82658781
v 32.93181397 -13.33300942 13.82658781
v 32.93181397 -13.33300942 14.73830593
v 24.48119093 -25.74322970 13.82658781
v 24.63816376 -25.59475550 14.73830593
v 32.60992291 -14.09779289 13.82658781
v 32.60992291 -14.09779289 14.73830593
v 24.63816376 -25.59475550 13.82658781
v 24.81699149 -25.42106925 14.73830593
v 32.23637089 -14.92980946 13.82658781
v 32.23637089 -14.92980946 14.73830593
v 24.98985800 -25.25298504 13.82658781
v 24.98985800 -25.25298504 14.73830593
v 32.00786639 -15.41445209 13.82658781
v 32.00786639 -15.41445209 14.73830593
v 25.12497305 -25.12131695 13.82658781
v 25.12497305 -25.12131695 14.73830593
v 31.79327428 -15.84867061 13.82658781
v 31.69789775 -16.03636340 14.73830593
v 25.59588866 -24.63667432 13.82658781
v 25.59588866 -24.63667432 14.73830593
v 31.69789775 -16.03636340 13.82658781
v 31.43164469 -16.55182301 14.73830593
v 26.08269795 -24.12121760 13.82658781
v 26.08269795 -24.12121760 14.73830593
v 31.27665892 -16.84877140 13.82658781
v 31.27665892 -16.84877140 14.73830593
v 26.38670537 -23.78785019 13.82658781
v 26.52182042 -23.63937600 14.73830593
v 31.17929822 -17.02806113 14.73830593
v 31.19519190 -16.99724560 13.82658781
v 26.52182042 -23.63937600 13.82658781
v 27.00862971 -23.08189533 14.73830593
v 31.01040296 -17.33341403 14.73830593
v 31.01040296 -17.33341403 13.82658781
v 27.00862971 -23.08189533 13.82658781
v 27.41595904 -22.59725271 14.73830593
v 30.77594014 -17.74241905 14.73830593
v 30.75209528 -17.78444010 13.82658781
v 27.41595904 -22.59725271 13.82658781
v 27.56498359 -22.41235949 13.82658781
v 27.90276833 -21.99214895 14.73830593
v 30.63685094 -17.97773782 14.73830593
v 30.38649155 -18.39794835 14.73830593
v 30.23945696 -18.64447119 13.82658781
v 27.90276833 -21.99214895 13.82658781
v 28.28029449 -21.50470531 14.73830593
v 30.23945696 -18.64447119 14.73830593
v 30.14805458 -18.79294539 13.82658781
v 28.28029449 -21.50470531 13.82658781
v 28.72935232 -20.89399952 14.73830593
v 29.93544954 -19.12911382 14.73830593
v 29.93544954 -19.12911382 13.82658781
v 28.72935232 -20.89399952 13.82658781
v 29.12078798 -20.35332786 14.73830593
v 29.44864026 -19.86868523 14.73830593
v 29.44864026 -19.86868523 13.82658781
v 29.12078798 -20.35332786 13.82658781
v 29.32743470 -20.04797496 14.73830593
f 1 2 3
f 1 3 4
f 1 4 8
f 1 8 5
f 1 5 9
f 1 9 14
f 1 14 19
f 1 19 24
f 1 24 29
f 1 29 34
f 1 34 38
f 1 38 43
f 1 43 48
f 1 48 52
f 1 52 55
f 1 55 59
f 1 59 61
f 1 61 64
f 1 64 68
f 1 68 73
f 1 73 76
f 1 76 80
f 1 80 84
f 1 84 88
f 1 88 92
f 1 92 96
f 1 96 100
f 1 100 104
f 1 104 108
f 1 108 112
f 1 112 117
f 1 117 121
f 1 121 125
f 1 125 131
f 1 131 135
f 1 135 139
f 1 139 143
f 1 143 144
f 1 144 140
f 1 140 136
f 1 136 132
f 1 132 127
f 1 127 126
f 1 126 122
f 1 122 118
f 1 118 114
f 1 114 110
f 1 110 106
f 1 106 102
f 1 102 98
f 1 98 94
f 1 94 90
f 1 90 87
f 1 87 83
f 1 83 79
f 1 79 75
f 1 75 71
f 1 71 67
f 1 67 63
f 1 63 58
f 1 58 53
f 1 53 49
f 1 49 44
f 1 44 39
f 1 39 36
f 1 36 30
f 1 30 25
f 1 25 20
f 1 20 15
f 1 15 11
f 1 11 7
f 1 7 2
f 2 6 3
f 2 7 10
f 2 10 6
f 3 6 10
f 3 10 12
f 3 12 16
f 3 16 22
f 3 22 21
f 3 21 26
f 3 26 31
f 3 31 35
f 3 35 40
f 3 40 46
f 3 46 45
f 3 45 50
f 3 50 54
f 3 54 57
f 3 57 62
f 3 62 66
f 3 66 70
f 3 70 74
f 3 74 78
f 3 78 82
f 3 82 86
f 3 86 91
f 3 91 95
f 3 95 99
f 3 99 103
f 3 103 107
f 3 107 111
f 3 111 115
f 3 115 119
f 3 119 123
f 3 123 128
f 3 128 133
f 3 133 137
f 3 137 141
f 3 141 145
f 3 145 142
f 3 142 138
f 3 138 134
f 3 134 130
f 3 130 129
f 3 129 124
f 3 124 120
f 3 120 116
f 3 116 113
f 3 113 109
f 3 109 105
f 3 105 101
f 3 101 97
f 3 97 93
f 3 93 89
f 3 89 85
f 3 85 81
f 3 81 77
f 3 77 72
f 3 72 69
f 3 69 65
f 3 65 60
f 3 60 56
f 3 56 51
f 3 51 47
f 3 47 42
f 3 42 41
f 3 41 37
f 3 37 32
f 3 32 28
f 3 28 27
f 3 27 23
f 3 23 18
f 3 18 17
f 3 17 13
f 3 13 8
f 3 8 4
f 5 8 13
f 5 13 9
f 7 11 12
f 7 12 10
f 9 13 17
f 9 17 14
f 11 15 16
f 11 16 12
f 14 17 18
f 14 18 19
f 15 20 21
f 15 21 22
f 15 22 16
f 18 23 19
f 19 23 24
f 20 25 26
f 20 26 21
f 23 27 24
f 24 27 28
f 24 28 29
f 25 30 31
f 25 31 26
f 28 32 33
f 28 33 34
f 28 34 29
f 30 35 31
f 30 36 35
f 32 37 33
f 33 37 34
f 34 37 38
f 35 36 39
f 35 39 40
f 37 41 38
f 38 41 42
f 38 42 43
f 39 44 45
f 39 45 46
f 39 46 40
f 42 47 48
f 42 48 43
f 44 49 50
f 44 50 45
f 47 51 55
f 47 55 52
f 47 52 48
f 49 53 50
f 50 53 54
f 51 56 59
f 51 59 55
f 53 57 54
f 53 58 57
f 56 60 61
f 56 61 59
f 57 58 62
f 58 63 62
f 60 64 61
f 60 65 64
f 62 63 67
f 62 67 66
f 64 65 68
f 65 69 68
f 66 67 71
f 66 71 70
f 68 69 72
f 68 72 73
f 70 71 75
f 70 75 74
f 72 76 73
f 72 77 76
f 74 75 79
f 74 79 78
f 76 77 80
f 77 81 80
f 78 79 82
f 79 83 82
f 80 81 84
f 81 85 84
f 82 83 87
f 82 87 86
f 84 85 88
f 85 89 88
f 86 87 90
f 86 90 91
f 88 89 93
f 88 93 92
f 90 94 91
f 91 94 95
f 92 93 97
f 92 97 96
f 94 98 95
f 95 98 99
f 96 97 101
f 96 101 100
f 98 102 103
f 98 103 99
f 100 101 104
f 101 105 104
f 102 106 107
f 102 107 103
f 104 105 108
f 105 109 108
f 106 110 111
f 106 111 107
f 108 109 112
f 109 113 112
f 110 114 111
f 111 114 115
f 112 113 116
f 112 116 117
f 114 118 115
f 115 118 122
f 115 122 119
f 116 120 121
f 116 121 117
f 119 122 126
f 119 126 123
f 120 124 125
f 120 125 121
f 123 126 127
f 123 127 128
f 124 129 125
f 125 129 130
f 125 130 131
f 127 132 128
f 128 132 136
f 128 136 133
f 130 134 131
f 131 134 135
f 133 136 140
f 133 140 137
f 134 138 135
f 135 138 139
f 137 140 144
f 137 144 141
f 138 142 143
f 138 143 139
f 141 144 145
f 142 145 143
f 143 145 144

