# https://github.com/mikedh/trimesh
v 16.92774504 -31.23616958 16.55737409
v 18.14217869 -30.54184459 15.64563859
v 17.09130186 -31.14693966 16.55737409
v 16.92774504 -31.23616958 16.88349130
v 16.92774504 -3.24576091 16.55737409
v 18.35709522 -30.41357712 15.64563859
v 18.64628361 -30.24069612 17.46519338
v 17.61911114 -30.84857772 17.46519338
v 17.33703392 -31.01030678 16.55737409
v 18.14217869 -3.48277854 15.64563859
v 17.33545382 -31.01030678 17.46519338
v 17.33703392 -31.01030678 17.03987033
v 16.92774504 -31.23059362 17.46519338
v 16.92774504 -2.74941744 16.55755368
v 18.64628361 -30.23790669 15.64563859
v 18.64628361 -30.24069612 16.55737409
v 19.13221522 -29.93396589 17.46519338
v 17.40814558 -2.74941744 16.55737409
v 21.54291067 -3.48277854 15.64563859
v 16.92774504 -2.74941744 17.46519338
v 19.13221522 -29.93396589 15.64563859
v 19.45537934 -29.72204445 17.46519338
v 20.94556982 -2.74941744 16.55737409
v 24.99026062 -4.92719324 15.64563859
v 20.94398972 -2.74941744 17.46519338
v 19.55019537 -29.65791071 15.64563859
v 19.87099007 -29.44598927 15.64563859
v 19.87099007 -29.44598927 16.55719739
v 19.87019930 -29.44598927 17.46519338
v 24.99974121 -4.92440453 16.55737409
v 20.94556982 -2.74941744 17.23329694
v 24.99026062 -25.24937876 15.64563859
v 24.99974121 -4.92719324 17.46519338
v 24.99974121 -4.92440453 17.03987033
v 20.35692169 -29.11695229 15.64563859
v 20.11198039 -29.28426021 16.55719739
v 20.35613091 -29.11695229 17.46519338
v 24.99974121 -25.24380280 16.55737409
v 24.63785962 -25.59514654 15.64563859
v 24.99974121 -25.24380280 17.46519338
v 20.89737176 -28.72378156 15.64563859
v 20.62951687 -28.92176164 16.55737409
v 20.35692169 -29.11695229 16.55719739
v 20.89737176 -28.72378156 17.46519338
v 24.63785962 -25.59514654 16.55719739
v 24.41425327 -25.80706798 15.64563859
v 24.63707174 -25.59514654 17.46519338
v 21.50498397 -28.27762903 15.64563859
v 21.20315335 -28.50070529 16.55719739
v 21.16206645 -28.52858802 17.46519338
v 24.12427411 -26.08033663 17.46519338
v 24.12427411 -26.08033663 16.55737409
v 24.12348334 -26.07754720 15.64563859
v 21.99012481 -27.89840256 15.64563859
v 21.74518497 -28.09080377 16.55737409
v 21.50498397 -28.27762903 16.55719739
v 21.50340387 -28.27483960 17.46519338
v 23.91014835 -26.27273785 17.46519338
v 23.63834250 -26.52091030 16.55737409
v 23.84930806 -26.32850619 15.64563859
v 22.33383311 -27.62234448 15.64563859
v 22.59694770 -27.41321247 16.55737409
v 21.99012481 -27.89840256 16.55719739
v 21.98933549 -27.89840256 17.46519338
v 21.77758060 -28.06291816 17.46519338
v 23.63676240 -26.51812087 17.46519338
v 23.08287932 -27.00331095 17.46519338
v 23.08287932 -27.00331095 15.64563859
v 23.39735217 -26.73004231 15.64563859
v 23.63755172 -26.51812087 15.64563859
v 22.59694770 -27.41042304 15.64563859
v 22.87033366 -27.18456024 17.46519338
v 22.59694770 -27.41321247 17.46519338
f 1 2 3
f 1 3 4
f 1 4 13
f 1 13 20
f 1 20 14
f 1 14 5
f 1 5 10
f 1 10 2
f 2 6 7
f 2 7 8
f 2 8 9
f 2 9 3
f 2 10 19
f 2 19 24
f 2 24 32
f 2 32 39
f 2 39 46
f 2 46 53
f 2 53 60
f 2 60 70
f 2 70 69
f 2 69 68
f 2 68 71
f 2 71 61
f 2 61 54
f 2 54 48
f 2 48 41
f 2 41 35
f 2 35 27
f 2 27 26
f 2 26 21
f 2 21 15
f 2 15 6
f 3 11 4
f 3 9 12
f 3 12 11
f 4 11 13
f 5 14 10
f 6 15 16
f 6 16 7
f 7 16 21
f 7 21 17
f 7 17 22
f 7 22 29
f 7 29 37
f 7 37 44
f 7 44 50
f 7 50 57
f 7 57 65
f 7 65 64
f 7 64 73
f 7 73 72
f 7 72 67
f 7 67 66
f 7 66 58
f 7 58 51
f 7 51 47
f 7 47 40
f 7 40 33
f 7 33 25
f 7 25 20
f 7 20 13
f 7 13 11
f 7 11 8
f 8 11 12
f 8 12 9
f 10 14 18
f 10 18 23
f 10 23 19
f 14 20 25
f 14 25 31
f 14 31 23
f 14 23 18
f 15 21 16
f 17 21 22
f 19 23 24
f 21 26 22
f 22 26 27
f 22 27 28
f 22 28 29
f 23 30 24
f 23 31 34
f 23 34 30
f 24 30 38
f 24 38 32
f 25 33 34
f 25 34 31
f 27 35 36
f 27 36 28
f 28 36 29
f 29 36 37
f 30 34 33
f 30 33 40
f 30 40 38
f 32 38 39
f 35 41 42
f 35 42 43
f 35 43 36
f 36 43 37
f 37 43 42
f 37 42 44
f 38 40 45
f 38 45 39
f 39 45 46
f 40 47 45
f 41 48 49
f 41 49 42
f 42 49 44
f 44 49 50
f 45 47 51
f 45 51 46
f 46 52 53
f 46 51 52
f 48 54 55
f 48 55 56
f 48 56 49
f 49 56 50
f 50 56 57
f 51 58 59
f 51 59 52
f 52 59 60
f 52 60 53
f 54 61 62
f 54 62 73
f 54 73 63
f 54 63 55
f 55 63 64
f 55 64 56
f 56 64 65
f 56 65 57
f 58 66 59
f 59 66 67
f 59 67 68
f 59 68 69
f 59 69 70
f 59 70 60
f 61 71 62
f 62 71 68
f 62 68 72
f 62 72 73
f 63 73 64
f 67 72 68

