# https://github.com/mikedh/trimesh
v -25.01168233 -25.22739353 7.38892010
v -24.63587675 -25.59597208 7.38892010
v -24.87988099 -25.35707745 8.77950501
v -25.01168233 -25.22739353 8.77950501
v -25.01168233 25.22659366 7.38892010
v -24.60025430 -25.63009698 7.38892010
v -24.63587675 -25.59597208 8.77950501
v -25.01168233 25.22659366 8.77950501
v -24.63587675 25.59517220 7.38892010
v -24.12470702 -26.08057994 8.77950501
v -24.12470702 -26.08057994 7.38892010
v -24.63587675 25.59517220 8.77950501
v -24.16032947 26.04565227 7.38892010
v -23.67231519 -26.49011070 7.38892010
v -23.88248129 -26.29899557 8.77950501
v -24.12292705 26.07978007 8.77950501
v -24.12292705 26.07978007 7.38892010
v -23.63847415 -26.51741120 8.77950501
v -23.08278069 -27.00202197 7.38892010
v -23.36062742 -26.76313023 8.77950501
v -23.63847415 26.51661133 8.77950501
v -23.63847415 26.51661133 7.38892010
v -23.08278069 -27.00202197 8.77950501
v -22.63038742 -27.38424932 7.38892010
v -22.84055497 -27.20678589 8.77950501
v -23.36062742 26.76233036 8.77950501
v -23.08278069 27.00122209 7.38892010
v -22.59654783 -27.41154982 7.38892010
v -22.29376568 -27.65726885 8.77950501
v -22.59654783 -27.41154982 8.77950501
v -23.08278069 27.00122209 8.77950501
v -22.59654783 27.41074995 7.38892010
v -21.99276348 -27.89616059 7.38892010
v -21.99276348 -27.89616059 8.77950501
v -22.59654783 27.41074995 8.77950501
v -22.29376568 27.65646898 8.77950501
v -21.95714248 27.92266122 7.38892010
v -21.46378542 -28.31251284 7.38892010
v -21.50653062 -28.27838794 8.77950501
v -21.99098352 27.89536071 8.77950501
v -21.50474921 28.27758806 8.77950501
v -21.50474921 28.27758806 7.38892010
v -20.89562352 -28.72886800 7.38892010
v -20.89562352 -28.72886800 8.77950501
v -21.20196705 28.50282809 8.77950501
v -20.89562352 28.72806813 7.38892010
v -20.85821965 -28.75617140 7.38892010
v -20.35595698 -29.11792265 8.77950501
v -20.89562352 28.72806813 8.77950501
v -20.35595698 29.11712278 7.38892010
v -20.35595698 -29.11792265 7.38892010
v -19.90534657 -29.42506709 7.38892010
v -20.11373125 -29.28173437 8.77950501
v -20.35595698 29.11712278 8.77950501
v -19.86972411 29.44474622 7.38892010
v -19.13236136 -29.93015396 7.38892010
v -19.50104274 -29.69126223 8.77950501
v -19.86972411 -29.44554609 8.77950501
v -19.86972411 29.44474622 8.77950501
v -19.50104274 29.69046235 8.77950501
v -19.09852032 29.95665749 7.38892010
v -18.67996809 -30.21682520 7.38892010
v -18.89013419 -30.08714128 8.77950501
v -19.13236136 29.92935409 8.77950501
v -18.88835422 30.08634141 8.77950501
v -18.64612850 30.23650143 8.77950501
v -18.64612850 30.23650143 7.38892010
v -18.64612850 -30.23730130 7.38892010
v -18.64612850 -30.23730130 8.77950501
v -17.98000631 30.63238048 8.77950501
v -18.02631434 30.60507708 7.38892010
v -17.93547969 -30.66048086 7.38892010
v -17.98000631 -30.63318035 8.77950501
v -17.65763296 30.82349271 8.77950501
v -17.98000631 30.63238048 7.38892010
v -17.33347675 -31.00858041 7.38892010
v -17.65585155 -30.82429258 8.77950501
v -17.33347675 31.00778053 8.77950501
v -17.29963716 31.02825664 7.38892010
v -17.09125103 -31.14509162 8.77950501
v -17.33347675 -31.00858041 8.77950501
v -16.84724389 -31.27477554 7.38892010
v -17.08946962 31.14429175 8.77950501
v -16.84724389 31.27397567 7.38892010
v -16.84724389 -31.27477554 8.77950501
v -16.03685627 -31.69795510 7.38892010
v -16.84724389 31.27397567 8.77950501
v -16.09384988 31.66985182 7.38892010
v -16.03685627 -31.69795510 8.77950501
v -15.42060493 -32.00510244 7.38892010
v -15.72872988 -31.85494242 8.77950501
v -16.44294006 31.48556400 8.77950501
v -16.03685627 31.69715522 8.77950501
v -15.73051129 31.85414254 8.77950501
v -15.42060493 32.01112697 7.38892010
v -14.93437207 -32.23716977 7.38892010
v -15.17837921 -32.12113466 8.77950501
v -15.42060493 -32.00510244 8.77950501
v -15.42060493 32.01112697 8.77950501
v -14.93437207 32.23636990 7.38892010
v -14.87559705 -32.26447027 7.38892010
v -14.93437207 -32.23716977 8.77950501
v -14.93437207 32.23636990 8.77950501
v -14.09370478 32.61176995 7.38892010
v -14.04027400 -32.63304592 7.38892010
v -14.09370478 -32.61256982 8.29251324
v -14.09370478 -32.61256982 8.77950501
v -14.09370478 32.61176995 8.77950501
v -13.32784378 32.93256899 7.38892010
v -13.32784378 -32.93336886 7.38892010
v -13.32784378 -32.93336886 8.77950501
v -13.32784378 32.93256899 8.77950501
v -12.84161092 33.12368122 7.38892010
v -13.08561805 -33.02892498 8.77950501
v -12.84161092 -33.12448109 7.38892010
v -12.84161092 33.12368122 8.77950501
v -12.15055474 33.38304905 7.38892010
v -12.84161092 -33.12448109 8.77950501
v -12.15055474 -33.38384893 7.38892010
v -12.15055474 33.38304905 8.77950501
v -11.66610329 33.55368807 8.77950501
v -11.24576965 33.69702369 7.38892010
v -12.15055474 -33.38384893 8.77950501
v -11.66254119 -33.55448795 8.77950501
v -11.12821961 -33.73877577 7.38892010
v -11.17808902 33.71749979 8.77950501
v -10.82543673 33.83353201 8.77950501
v -10.46922235 33.94956423 8.77950501
v -10.46922235 33.94956423 7.38892010
v -11.17808902 -33.71829967 8.77950501
v -10.46922235 -33.95036410 7.38892010
v -10.46922235 -33.95036410 8.77950501
v -9.98298948 34.09289985 8.77950501
v -9.98298948 34.09289985 7.38892010
v -9.98298948 -34.09369972 7.38892010
v -9.98298948 -34.09369972 8.77950501
v -9.23493898 34.30449107 8.77950501
v -9.23493898 34.30449107 7.38892010
v -9.23493898 -34.30529095 7.38892010
v -9.23493898 -34.30529095 8.77950501
v -8.26247326 34.55020721 8.77950501
v -8.26247326 34.55020721 7.38892010
v -8.26247326 -34.55100708 7.38892010
v -8.26247326 -34.55100708 8.77950501
v -7.77802108 34.65941502 8.77950501
v -7.35946885 34.75497403 7.38892010
v -7.29000753 -34.76942271 7.38892010
v -7.29000753 -34.76942271 8.77950501
v -7.29000753 34.76862284 8.77950501
v -6.88570370 34.85053015 8.77950501
v -6.81624166 34.86418185 8.29251324
v -7.29000753 34.76862284 7.38892010
v -6.81624166 -34.85815442 7.38892010
v -6.81624166 -34.86498172 8.77950501
v -6.81624166 34.85735455 8.77950501
v -6.81624166 34.85735455 7.38892010
f 1 2 3
f 1 3 4
f 1 4 8
f 1 8 5
f 1 5 9
f 1 9 13
f 1 13 17
f 1 17 22
f 1 22 27
f 1 27 32
f 1 32 37
f 1 37 42
f 1 42 46
f 1 46 50
f 1 50 55
f 1 55 61
f 1 61 67
f 1 67 71
f 1 71 75
f 1 75 79
f 1 79 84
f 1 84 88
f 1 88 95
f 1 95 100
f 1 100 104
f 1 104 109
f 1 109 113
f 1 113 117
f 1 117 122
f 1 122 129
f 1 129 134
f 1 134 138
f 1 138 142
f 1 142 146
f 1 146 152
f 1 152 156
f 1 156 153
f 1 153 147
f 1 147 143
f 1 143 139
f 1 139 135
f 1 135 131
f 1 131 125
f 1 125 119
f 1 119 115
f 1 115 110
f 1 110 105
f 1 105 101
f 1 101 96
f 1 96 90
f 1 90 86
f 1 86 82
f 1 82 76
f 1 76 72
f 1 72 68
f 1 68 62
f 1 62 56
f 1 56 52
f 1 52 51
f 1 51 47
f 1 47 43
f 1 43 38
f 1 38 33
f 1 33 28
f 1 28 24
f 1 24 19
f 1 19 14
f 1 14 11
f 1 11 6
f 1 6 2
f 2 6 7
f 2 7 3
f 3 7 10
f 3 10 15
f 3 15 18
f 3 18 20
f 3 20 23
f 3 23 25
f 3 25 30
f 3 30 29
f 3 29 34
f 3 34 39
f 3 39 44
f 3 44 48
f 3 48 53
f 3 53 58
f 3 58 57
f 3 57 63
f 3 63 69
f 3 69 73
f 3 73 77
f 3 77 81
f 3 81 80
f 3 80 85
f 3 85 89
f 3 89 91
f 3 91 98
f 3 98 97
f 3 97 102
f 3 102 107
f 3 107 111
f 3 111 114
f 3 114 118
f 3 118 123
f 3 123 124
f 3 124 130
f 3 130 132
f 3 132 136
f 3 136 140
f 3 140 144
f 3 144 148
f 3 148 154
f 3 154 155
f 3 155 150
f 3 150 149
f 3 149 145
f 3 145 141
f 3 141 137
f 3 137 133
f 3 133 128
f 3 128 127
f 3 127 126
f 3 126 121
f 3 121 120
f 3 120 116
f 3 116 112
f 3 112 108
f 3 108 103
f 3 103 99
f 3 99 94
f 3 94 93
f 3 93 92
f 3 92 87
f 3 87 83
f 3 83 78
f 3 78 74
f 3 74 70
f 3 70 66
f 3 66 65
f 3 65 64
f 3 64 60
f 3 60 59
f 3 59 54
f 3 54 49
f 3 49 45
f 3 45 41
f 3 41 40
f 3 40 36
f 3 36 35
f 3 35 31
f 3 31 26
f 3 26 21
f 3 21 16
f 3 16 12
f 3 12 8
f 3 8 4
f 5 8 12
f 5 12 9
f 6 10 7
f 6 11 10
f 9 12 13
f 10 11 14
f 10 14 15
f 12 16 13
f 13 16 17
f 14 18 15
f 14 19 20
f 14 20 18
f 16 21 22
f 16 22 17
f 19 23 20
f 19 24 25
f 19 25 23
f 21 26 22
f 22 26 27
f 24 28 29
f 24 29 30
f 24 30 25
f 26 31 27
f 27 31 35
f 27 35 32
f 28 33 29
f 29 33 34
f 32 35 36
f 32 36 37
f 33 38 34
f 34 38 39
f 36 40 37
f 37 40 41
f 37 41 42
f 38 43 44
f 38 44 39
f 41 45 42
f 42 45 46
f 43 47 44
f 44 47 48
f 45 49 46
f 46 49 54
f 46 54 50
f 47 51 48
f 48 51 52
f 48 52 53
f 50 54 59
f 50 59 55
f 52 56 57
f 52 57 58
f 52 58 53
f 55 59 60
f 55 60 61
f 56 62 63
f 56 63 57
f 60 64 61
f 61 64 65
f 61 65 66
f 61 66 67
f 62 68 69
f 62 69 63
f 66 70 71
f 66 71 67
f 68 72 69
f 69 72 73
f 70 74 71
f 71 74 75
f 72 76 77
f 72 77 73
f 74 78 79
f 74 79 75
f 76 80 81
f 76 81 77
f 76 82 80
f 78 83 79
f 79 83 84
f 80 82 85
f 82 86 89
f 82 89 85
f 83 87 84
f 84 87 88
f 86 90 91
f 86 91 89
f 87 92 88
f 88 92 93
f 88 93 94
f 88 94 95
f 90 96 97
f 90 97 98
f 90 98 91
f 94 99 95
f 95 99 103
f 95 103 100
f 96 101 102
f 96 102 97
f 100 103 108
f 100 108 104
f 101 105 106
f 101 106 107
f 101 107 102
f 104 108 112
f 104 112 109
f 105 110 106
f 106 110 111
f 106 111 107
f 109 112 116
f 109 116 113
f 110 114 111
f 110 115 114
f 113 116 120
f 113 120 117
f 114 115 118
f 115 119 123
f 115 123 118
f 117 120 121
f 117 121 122
f 119 124 123
f 119 125 124
f 121 126 122
f 122 126 127
f 122 127 128
f 122 128 129
f 124 125 130
f 125 131 132
f 125 132 130
f 128 133 134
f 128 134 129
f 131 135 136
f 131 136 132
f 133 137 138
f 133 138 134
f 135 139 140
f 135 140 136
f 137 141 142
f 137 142 138
f 139 143 144
f 139 144 140
f 141 145 146
f 141 146 142
f 143 147 148
f 143 148 144
f 145 149 146
f 146 149 150
f 146 150 151
f 146 151 152
f 147 153 154
f 147 154 148
f 150 155 151
f 151 156 152
f 151 155 154
f 151 154 153
f 151 153 156

