# https://github.com/mikedh/trimesh
v 16.92774504 -24.51211160 17.46519338
v 16.92774504 -31.23576406 17.46519338
v 16.92774504 -24.51211160 16.55744361
v 4.91263839 -24.51211160 17.46519338
v 16.84823032 -31.27781408 17.46519338
v 16.92774504 -31.23576406 16.55744361
v 4.91098189 -24.51211160 16.55744361
v 4.91098189 -24.51211160 16.78135989
v 0.00587656 -29.90849894 17.25069685
v 0.00587656 -29.90957937 17.46519338
v 16.44568328 -31.48806128 16.55744361
v 16.84823032 -31.27781408 16.55744361
v 16.03651026 -31.70154689 17.46519338
v 0.00587656 -29.90849894 16.55744361
v 0.00587656 -35.52699798 17.46519338
v 16.03651026 -31.70154689 16.55744361
v 15.68862941 -31.87513755 17.46519338
v 15.41695245 -32.01098834 17.03993116
v 0.00587656 -35.51729435 16.55744361
v 0.00587656 -35.52592044 16.55833286
v 0.48628145 -35.52592044 16.55744361
v 0.48628145 -35.52592044 17.46519338
v 15.41695245 -32.01098834 16.55744361
v 15.41695245 -32.00991080 17.46519338
v 15.20491080 -32.11018259 17.46519338
v 14.93157843 -32.23849062 17.46519338
v 1.45868852 -35.49896463 16.55744361
v 1.45868852 -35.49896463 17.46519338
v 14.93157843 -32.23849062 16.55744361
v 14.45945493 -32.44981536 17.46519338
v 2.43109559 -35.44397547 16.55744361
v 1.88442723 -35.47524433 17.46519338
v 14.51412256 -32.42501752 16.55744361
v 14.09169612 -32.61370239 17.46519338
v 14.09169612 -32.61370239 16.55744361
v 2.43109559 -35.44397547 17.46519338
v 3.40184616 -35.36311094 16.55744361
v 13.32967457 -32.93500544 17.46519338
v 13.71399762 -32.77327638 16.55744361
v 3.40184616 -35.36311094 17.46519338
v 3.89219075 -35.30920222 16.55744361
v 13.32967457 -32.93500544 16.55744361
v 12.84264224 -33.12800336 17.46519338
v 4.37425287 -35.25529060 17.46519338
v 4.37425287 -35.25529060 16.55744361
v 12.84264224 -33.12800336 16.55744361
v 12.49807511 -33.25631139 16.55744361
v 12.14853884 -33.38569406 17.46519338
v 4.86459782 -35.18844274 16.55744361
v 4.79999158 -35.19706883 17.46519338
v 12.14853884 -33.38569406 16.55744361
v 11.60187048 -33.57545647 17.46519338
v 5.34665994 -35.12159489 17.46519338
v 5.34665994 -35.12159489 16.55744361
v 11.17613178 -33.72316886 16.55744361
v 11.17613178 -33.72316886 17.46519338
v 5.67300453 -35.06984124 16.55744361
v 5.99437927 -35.01808759 17.46519338
v 10.82493865 -33.83637979 16.55744361
v 10.46711955 -33.95067114 17.46519338
v 5.99437927 -35.01808759 16.55744361
v 6.26771309 -34.96956945 17.46519338
v 10.46711955 -33.95067114 16.55744361
v 10.25507862 -34.01428349 17.46519338
v 10.22360411 -34.02398712 16.55744361
v 6.23458172 -34.97496003 16.55744361
v 6.47975401 -34.93075494 17.46519338
v 6.47975401 -34.93075494 16.55744361
v 9.98174480 -34.09622846 17.46519338
v 9.98174480 -34.09622846 16.55744361
v 7.28981722 -34.77118095 17.46519338
v 7.28981722 -34.77118095 16.55744361
v 9.23297450 -34.30539812 17.46519338
v 9.23297450 -34.30539812 16.55744361
v 8.26222429 -34.55338230 17.03993116
v 8.26222429 -34.55230476 17.46519338
v 8.26222429 -34.55338230 16.55744361
v 8.68630614 -34.44448732 17.46519338
f 1 2 6
f 1 6 3
f 1 3 7
f 1 7 8
f 1 8 4
f 1 4 10
f 1 10 15
f 1 15 22
f 1 22 28
f 1 28 32
f 1 32 36
f 1 36 40
f 1 40 44
f 1 44 50
f 1 50 53
f 1 53 58
f 1 58 62
f 1 62 67
f 1 67 71
f 1 71 76
f 1 76 78
f 1 78 73
f 1 73 69
f 1 69 64
f 1 64 60
f 1 60 56
f 1 56 52
f 1 52 48
f 1 48 43
f 1 43 38
f 1 38 34
f 1 34 30
f 1 30 26
f 1 26 25
f 1 25 24
f 1 24 17
f 1 17 13
f 1 13 5
f 1 5 2
f 2 5 12
f 2 12 6
f 3 6 12
f 3 12 11
f 3 11 16
f 3 16 23
f 3 23 29
f 3 29 33
f 3 33 35
f 3 35 39
f 3 39 42
f 3 42 46
f 3 46 47
f 3 47 51
f 3 51 55
f 3 55 59
f 3 59 63
f 3 63 65
f 3 65 70
f 3 70 74
f 3 74 77
f 3 77 72
f 3 72 68
f 3 68 66
f 3 66 61
f 3 61 57
f 3 57 54
f 3 54 49
f 3 49 45
f 3 45 41
f 3 41 37
f 3 37 31
f 3 31 27
f 3 27 21
f 3 21 19
f 3 19 14
f 3 14 7
f 4 8 9
f 4 9 10
f 5 11 12
f 5 13 11
f 7 14 9
f 7 9 8
f 9 14 19
f 9 19 20
f 9 20 15
f 9 15 10
f 11 13 16
f 13 17 18
f 13 18 23
f 13 23 16
f 15 20 21
f 15 21 22
f 17 24 18
f 18 24 25
f 18 25 26
f 18 26 29
f 18 29 23
f 19 21 20
f 21 27 28
f 21 28 22
f 26 30 29
f 27 31 32
f 27 32 28
f 29 30 33
f 30 34 35
f 30 35 33
f 31 36 32
f 31 37 40
f 31 40 36
f 34 38 39
f 34 39 35
f 37 41 40
f 38 42 39
f 38 43 46
f 38 46 42
f 40 41 44
f 41 45 44
f 43 47 46
f 43 48 47
f 44 45 49
f 44 49 50
f 47 48 51
f 48 52 51
f 49 53 50
f 49 54 53
f 51 52 55
f 52 56 55
f 53 54 57
f 53 57 58
f 55 56 59
f 56 60 59
f 57 61 58
f 58 61 62
f 59 60 63
f 60 64 65
f 60 65 63
f 61 66 62
f 62 66 68
f 62 68 67
f 64 69 65
f 65 69 70
f 67 68 72
f 67 72 71
f 69 73 74
f 69 74 70
f 71 72 77
f 71 77 75
f 71 75 76
f 73 78 75
f 73 75 77
f 73 77 74
f 75 78 76

