# https://github.com/mikedh/trimesh
v 26.69444072 -20.39027261 19.27002472
v 28.87216365 -20.39027261 19.27002472
v 26.69444072 -20.39027261 20.53719107
v 26.69444072 -4.76236879 19.27002472
v 29.17684019 -20.02478909 19.27002472
v 29.30329439 -19.65331393 19.65445349
v 28.76268356 -20.39027261 19.45614609
v 26.74536304 -20.39027261 20.53452619
v 26.69444072 -19.95688542 20.55826677
v 26.69444072 -4.80830388 19.46401617
v 30.02807140 0.01287955 19.27649863
v 30.02722269 0.01287955 19.27002472
v 30.03910457 -18.77256053 19.27002472
v 30.15961783 -18.51292620 19.51517891
v 30.31577382 -17.97968144 19.69190659
v 29.63428080 -18.88240415 19.79740675
v 28.92308598 -18.95230648 20.33126560
v 28.66338793 -19.91694123 20.01717220
v 28.52759797 -20.39027261 19.85530120
v 27.23674897 -20.39027261 20.50189593
v 27.70097922 -18.95230648 20.54772892
v 26.72838894 -19.92293286 20.55813932
v 26.69444072 -19.94090774 20.55839422
v 27.70097922 -17.97968144 20.56423378
v 26.69444072 -4.81429551 19.48610568
v 30.08153694 0.01287955 19.55415563
v 35.36459459 0.01287955 19.27002472
v 30.18252998 -18.54887597 19.27002472
v 30.34887333 -18.26727380 19.27002472
v 31.07195293 -16.97110663 19.27002472
v 31.17209726 -16.65355468 19.57497643
v 31.32995067 -16.03642857 19.74967070
v 30.57377446 -16.93515686 19.97172157
v 29.92877576 -17.21476328 20.36846381
v 29.62070151 -18.04358924 20.22589000
v 29.11149277 -18.40907421 20.43384598
v 27.99547418 -20.18256573 20.38014292
v 28.20424991 -20.39027261 20.10731166
v 27.45231434 -20.39027261 20.48056823
v 27.68315640 -19.88498733 20.49681818
v 28.43678939 -18.95230648 20.48577343
v 28.74146592 -18.04358924 20.50938655
v 29.64446526 -16.03642857 20.53630181
v 28.67272369 -17.00705640 20.55851877
v 26.72838894 -18.95230648 20.56550249
v 26.69444072 -18.98625759 20.56550249
v 29.64446526 -15.06380353 20.56080419
v 28.67272369 -16.03642857 20.56550249
v 26.69444072 -5.25367433 19.95940520
v 30.58565634 0.01287955 20.04002352
v 26.69444072 -5.30560069 20.00955413
v 26.69444072 -5.83485249 20.44603490
v 35.19401061 0.01287955 19.77188766
v 35.19401061 -0.48641483 19.77176311
v 35.36374589 -0.48641483 19.27002472
v 31.20858870 -16.72145980 19.27002472
v 31.40803156 -16.33600563 19.27002472
v 32.13789790 -14.71629489 19.57040559
v 31.55400309 -15.00189149 19.97794058
v 30.92682720 -15.28748664 20.38560302
v 30.74351264 -16.03642857 20.23553859
v 32.27538527 -14.09317570 19.73354819
v 30.15113078 -16.56767613 20.45047829
v 28.24413617 -19.53348427 20.46088869
v 29.28122805 -17.76198851 20.47371196
v 27.68824864 -20.39027261 20.42432484
v 27.90805753 -20.39027261 20.33240686
v 29.62070151 -16.93715552 20.49085118
v 30.25721605 -16.03642857 20.47447377
v 30.60857138 -15.00388870 20.49351895
v 30.61620973 -14.09317570 20.53642926
v 26.69444072 -7.29079351 20.56702610
v 30.61620973 -13.12055066 20.55940803
v 30.61620973 -12.14792635 20.56512303
v 29.64446526 -14.09317570 20.56550249
v 31.07110422 0.01287955 20.45670020
v 26.69444072 -6.25226201 20.50176848
v 34.63981759 0.01287955 20.25775555
v 34.63981759 -0.48641483 20.25763100
v 34.62793572 -1.45903987 20.24023688
v 35.17873391 -1.45903987 19.75449644
v 35.35610754 -0.84790394 19.27002472
v 32.05387896 -15.03783981 19.27002472
v 32.17184611 -14.78819298 19.27002472
v 32.34667363 -14.39674718 19.27002472
v 33.05702264 -12.66519561 19.48979016
v 31.69997752 -14.09317570 20.21941608
v 31.91554289 -13.12055066 20.38547557
v 31.12456976 -14.64040238 20.45174700
v 33.15037733 -12.14792635 19.62207813
v 32.58515404 -13.04066374 19.82559362
v 32.05981990 -12.61326817 20.43968844
v 31.21452963 -14.09317570 20.47447377
v 31.43009500 -13.12055066 20.49757999
v 31.58795130 -11.17729852 20.55141050
v 32.55969578 -4.37491669 20.56550249
v 32.55969578 0.01287955 20.56550249
v 31.58795130 0.01287955 20.51865569
v 31.58795130 -9.23404638 20.56550249
v 31.58795130 -10.20467421 20.56296217
v 34.15352390 0.01287955 20.48843830
v 34.15352390 -0.48641483 20.48843830
v 34.14164202 -1.45903987 20.48602833
v 34.12297051 -2.43166418 20.48158494
v 34.09750934 -3.40229201 20.47485612
v 34.06356113 -4.37491669 20.46266721
v 34.60841839 -2.43166418 20.20900568
v 35.15327275 -2.43166418 19.72313779
v 35.32470544 -1.83450872 19.27002472
v 35.33828473 -1.45903987 19.27002472
v 32.98912910 -12.91683965 19.27002472
v 33.07399674 -12.70513835 19.27002472
v 33.17159496 -12.43951385 19.27002472
v 33.98123961 -10.02892268 19.27002472
v 34.03046452 -9.76329817 19.49270994
v 33.31841810 -11.17729852 19.81645193
v 32.74131293 -11.17729852 20.30231982
v 32.89237959 -10.38042573 20.39690268
v 33.04853558 -9.73533724 20.44324257
v 32.14553625 -11.96418598 20.46749005
v 31.67621377 -12.23180842 20.50633932
v 32.25586505 -11.17729852 20.48945501
v 32.55969578 -9.23404638 20.52170292
v 32.55969578 -8.26341855 20.54607785
v 32.55969578 -7.29079351 20.55851877
v 32.55969578 -5.34754173 20.56524759
v 33.53143735 -0.48641483 20.55026634
v 33.05872005 0.01287955 20.55775697
v 32.55969578 -6.31816919 20.56372397
v 33.85139058 0.01287955 20.51852824
v 33.53143735 -1.45903987 20.54785637
v 33.53143735 -2.43166418 20.54353753
v 33.53143735 -3.40229201 20.53681161
v 33.53143735 -4.37491669 20.52462270
v 33.39649609 -6.31816919 20.50176848
v 33.27513412 -7.29079351 20.49656328
v 34.03470804 -5.04197376 20.45035084
v 34.58380593 -3.40229201 20.15746059
v 35.29245753 -2.43166418 19.27002472
v 35.11508101 -3.40229201 19.67159270
v 34.04658992 -9.81722210 19.27002472
v 34.12466792 -9.53162551 19.27002472
v 34.30883119 -8.71478063 19.27002472
v 34.96826077 -5.69704721 19.30861908
v 34.10005546 -9.23404638 19.59960626
v 34.22141743 -8.26341855 19.75931929
v 33.66128637 -8.26341855 20.24518718
v 33.76058200 -7.29079351 20.34865972
v 33.88279268 -6.31816919 20.40909159
v 33.97275255 -5.69105595 20.43397343
v 33.09097085 -9.23404638 20.45987488
v 33.17498979 -8.26341855 20.48412236
v 33.53143735 0.01287955 20.55026634
v 34.54900901 -4.37491669 20.07747663
v 35.26954249 -2.83509396 19.27002472
v 35.06161547 -4.37491669 19.59160874
v 34.96061953 -5.76694846 19.27002472
v 34.97844234 -5.65710375 19.27002472
v 35.09980431 -4.73640579 19.27002472
v 35.01748279 -5.04996224 19.51924285
v 34.33089753 -7.29079351 19.86291928
v 34.42679834 -6.31816919 19.92309625
v 35.18806677 -3.85964500 19.27002472
f 1 2 7
f 1 7 19
f 1 19 38
f 1 38 67
f 1 67 66
f 1 66 39
f 1 39 20
f 1 20 8
f 1 8 3
f 1 3 9
f 1 9 23
f 1 23 46
f 1 46 72
f 1 72 77
f 1 77 52
f 1 52 51
f 1 51 49
f 1 49 25
f 1 25 10
f 1 10 4
f 1 4 12
f 1 12 27
f 1 27 55
f 1 55 82
f 1 82 110
f 1 110 109
f 1 109 139
f 1 139 155
f 1 155 163
f 1 163 159
f 1 159 158
f 1 158 157
f 1 157 143
f 1 143 142
f 1 142 141
f 1 141 114
f 1 114 113
f 1 113 112
f 1 112 111
f 1 111 85
f 1 85 84
f 1 84 83
f 1 83 57
f 1 57 56
f 1 56 30
f 1 30 29
f 1 29 28
f 1 28 13
f 1 13 5
f 1 5 2
f 2 5 6
f 2 6 7
f 3 8 9
f 4 10 11
f 4 11 12
f 5 13 14
f 5 14 6
f 6 14 15
f 6 15 16
f 6 16 17
f 6 17 18
f 6 18 19
f 6 19 7
f 8 20 21
f 8 21 22
f 8 22 9
f 9 22 24
f 9 24 23
f 10 25 11
f 11 26 50
f 11 50 76
f 11 76 98
f 11 98 97
f 11 97 128
f 11 128 153
f 11 153 130
f 11 130 101
f 11 101 78
f 11 78 53
f 11 53 27
f 11 27 12
f 11 25 26
f 13 28 14
f 14 28 29
f 14 29 30
f 14 30 31
f 14 31 15
f 15 31 32
f 15 32 33
f 15 33 34
f 15 34 35
f 15 35 16
f 16 35 17
f 17 35 34
f 17 34 36
f 17 36 37
f 17 37 18
f 18 37 38
f 18 38 19
f 20 39 40
f 20 40 21
f 21 40 41
f 21 41 42
f 21 42 43
f 21 43 44
f 21 44 22
f 22 44 24
f 23 45 46
f 23 24 45
f 24 44 47
f 24 47 48
f 24 48 45
f 25 49 26
f 26 49 51
f 26 51 52
f 26 52 50
f 27 53 54
f 27 54 55
f 30 56 31
f 31 56 57
f 31 57 58
f 31 58 32
f 32 59 60
f 32 60 61
f 32 61 33
f 32 58 62
f 32 62 59
f 33 61 34
f 34 61 60
f 34 60 63
f 34 63 36
f 36 64 37
f 36 63 65
f 36 65 64
f 37 66 67
f 37 67 38
f 37 64 66
f 39 66 64
f 39 64 40
f 40 64 41
f 41 64 65
f 41 65 68
f 41 68 42
f 42 68 43
f 43 68 69
f 43 69 70
f 43 70 71
f 43 71 47
f 43 47 44
f 45 48 72
f 45 72 46
f 47 71 73
f 47 73 74
f 47 74 75
f 47 75 48
f 48 75 72
f 50 52 76
f 52 77 76
f 53 78 79
f 53 79 54
f 54 79 80
f 54 80 81
f 54 81 82
f 54 82 55
f 57 83 58
f 58 84 85
f 58 85 86
f 58 86 62
f 58 83 84
f 59 62 87
f 59 87 60
f 60 87 88
f 60 88 89
f 60 89 63
f 62 86 90
f 62 90 91
f 62 91 92
f 62 92 88
f 62 88 87
f 63 69 68
f 63 68 65
f 63 89 69
f 69 89 93
f 69 93 70
f 70 93 71
f 71 93 94
f 71 94 95
f 71 95 73
f 72 96 97
f 72 97 98
f 72 98 77
f 72 75 99
f 72 99 96
f 73 95 100
f 73 100 74
f 74 100 99
f 74 99 75
f 76 77 98
f 78 101 102
f 78 102 79
f 79 102 103
f 79 103 104
f 79 104 105
f 79 105 80
f 80 105 106
f 80 106 107
f 80 107 81
f 81 107 108
f 81 108 109
f 81 109 110
f 81 110 82
f 85 111 86
f 86 111 112
f 86 112 113
f 86 113 114
f 86 114 115
f 86 115 90
f 88 92 89
f 89 92 93
f 90 115 116
f 90 116 91
f 91 116 92
f 92 116 117
f 92 117 118
f 92 118 119
f 92 119 120
f 92 120 93
f 93 120 94
f 94 121 95
f 94 120 122
f 94 122 121
f 95 121 122
f 95 122 123
f 95 123 124
f 95 124 125
f 95 125 100
f 96 126 127
f 96 127 128
f 96 128 97
f 96 99 126
f 99 100 129
f 99 129 126
f 100 125 129
f 101 130 102
f 102 127 131
f 102 131 103
f 102 130 127
f 103 131 132
f 103 132 104
f 104 132 133
f 104 133 105
f 105 133 134
f 105 134 106
f 106 134 135
f 106 135 136
f 106 136 137
f 106 137 107
f 107 137 138
f 107 138 108
f 108 139 109
f 108 138 140
f 108 140 139
f 114 141 115
f 115 141 142
f 115 142 143
f 115 143 144
f 115 144 145
f 115 145 116
f 116 119 118
f 116 118 117
f 116 145 146
f 116 146 119
f 119 122 120
f 119 146 147
f 119 147 148
f 119 148 149
f 119 149 150
f 119 150 151
f 119 151 122
f 122 151 152
f 122 152 123
f 123 152 124
f 124 152 136
f 124 136 134
f 124 134 125
f 125 134 133
f 125 133 132
f 125 132 129
f 126 129 127
f 127 130 153
f 127 153 128
f 127 129 131
f 129 132 131
f 134 136 135
f 136 152 137
f 137 152 151
f 137 151 150
f 137 150 138
f 138 154 140
f 138 150 154
f 139 140 155
f 140 154 156
f 140 156 155
f 143 157 144
f 144 157 158
f 144 158 159
f 144 159 160
f 144 160 145
f 145 160 146
f 146 160 161
f 146 161 147
f 147 161 148
f 148 161 149
f 149 161 150
f 150 161 162
f 150 162 154
f 154 162 156
f 155 156 163
f 156 162 161
f 156 161 160
f 156 160 163
f 159 163 160

