# https://github.com/mikedh/trimesh
v -10.70708578 -33.87262211 14.73847973
v -10.46697965 -33.94963995 14.73847973
v -10.70708578 -33.87262211 15.64563280
v -10.70708578 -23.42330662 14.73847973
v -10.46697965 -33.94963995 15.64563280
v -10.28768702 -34.00414248 14.73847973
v -10.70708578 -23.42330662 15.64563280
v -4.64048299 -23.42330662 14.73847973
v -10.25518421 -34.01362307 15.64563280
v -9.98152597 -34.09537686 14.73847973
v -4.64048299 -23.42330662 15.64563280
v 0.00435801 -29.90688263 14.73847973
v -9.98047740 -34.09537686 15.64563280
v -9.50865370 -34.22808193 14.73847973
v 0.00435801 -29.90688263 15.64563280
v 0.00435801 -35.52550912 14.73847973
v -9.23289977 -34.30509977 15.64563280
v -9.23289977 -34.30509977 14.73847973
v 0.00435801 -35.52550912 15.64563280
v -0.48633852 -35.52550912 14.73847973
v -8.26094240 -34.55273636 15.64563280
v -8.26094240 -34.55273636 14.73847973
v -0.48633852 -35.52550912 15.64563280
v -0.90888263 -35.51484672 15.64563280
v -0.84387593 -35.51603143 14.73847973
v -7.28898648 -34.77074936 15.64563280
v -7.28898648 -34.77074936 14.73847973
v -1.45829480 -35.49944257 15.64563280
v -1.45829480 -35.49944257 14.73847973
v -6.83184132 -34.86198663 15.64563280
v -6.77731997 -34.87264904 14.73847973
v -2.43025163 -35.44493715 15.64563280
v -2.43025163 -35.44493715 14.73847973
v -6.47954677 -34.93070570 15.64563280
v -6.47954677 -34.93070570 14.73847973
v -2.85279575 -35.41057761 15.64563280
v -2.78778904 -35.41531646 14.73847973
v -5.99409237 -35.01838594 15.64563280
v -5.99409237 -35.01838594 14.73847973
v -3.40220810 -35.36436807 15.64563280
v -3.40220810 -35.36436807 14.73847973
v -5.34612139 -35.12147033 15.64563280
v -5.34612139 -35.12147033 14.73847973
v -3.75974587 -35.32526679 14.73847973
v -4.37416475 -35.25654483 15.64563280
v -4.79670886 -35.19848527 15.64563280
v -4.37416475 -35.25654483 14.73847973
f 1 2 5
f 1 5 3
f 1 3 7
f 1 7 4
f 1 4 8
f 1 8 12
f 1 12 16
f 1 16 20
f 1 20 25
f 1 25 29
f 1 29 33
f 1 33 37
f 1 37 41
f 1 41 44
f 1 44 47
f 1 47 43
f 1 43 39
f 1 39 35
f 1 35 31
f 1 31 27
f 1 27 22
f 1 22 18
f 1 18 14
f 1 14 10
f 1 10 6
f 1 6 2
f 2 6 5
f 3 5 9
f 3 9 13
f 3 13 17
f 3 17 21
f 3 21 26
f 3 26 30
f 3 30 34
f 3 34 38
f 3 38 42
f 3 42 46
f 3 46 45
f 3 45 40
f 3 40 36
f 3 36 32
f 3 32 28
f 3 28 24
f 3 24 23
f 3 23 19
f 3 19 15
f 3 15 11
f 3 11 7
f 4 7 11
f 4 11 8
f 5 6 9
f 6 10 9
f 8 11 15
f 8 15 12
f 9 10 13
f 10 14 13
f 12 15 19
f 12 19 16
f 13 14 17
f 14 18 17
f 16 19 23
f 16 23 20
f 17 18 22
f 17 22 21
f 20 23 24
f 20 24 25
f 21 22 27
f 21 27 26
f 24 28 29
f 24 29 25
f 26 27 30
f 27 31 30
f 28 32 33
f 28 33 29
f 30 31 34
f 31 35 34
f 32 36 33
f 33 36 37
f 34 35 39
f 34 39 38
f 36 40 41
f 36 41 37
f 38 39 43
f 38 43 42
f 40 44 41
f 40 45 44
f 42 43 46
f 43 47 46
f 44 45 47
f 45 46 47

