# https://github.com/mikedh/trimesh
v 21.99361522 -27.89925416 5.35150583
v 21.99361522 -27.89379116 4.61592739
v 22.12341790 -27.79548038 4.61412280
v 22.59759799 -27.41315164 5.35150583
v 21.99361522 27.88254034 5.35150583
v 21.99361522 -27.76817118 4.61412280
v 22.59759799 -27.41315164 4.61412280
v 22.61084272 -27.40222565 5.35150583
v 22.00818515 27.88254034 5.35150583
v 21.99361522 27.89892354 5.34941159
v 21.99361522 27.89346633 4.61412280
v 23.08369761 -27.00351372 4.61412280
v 23.08369761 -27.00351372 5.35150583
v 22.59759799 27.41282102 5.35150583
v 22.59759799 27.41282102 4.61412280
v 23.20290450 -26.89973414 4.61412280
v 23.65191744 -26.50648521 5.35150583
v 22.70223496 27.32543044 4.61412280
v 23.09826753 26.99226289 5.35150583
v 23.63867126 -26.51740541 4.61412280
v 24.12477088 -26.08045829 4.61412280
v 24.12477088 -26.08045829 5.35150583
v 23.08369761 27.00318309 4.61412280
v 23.63867126 26.51708058 4.61412280
v 23.63867126 26.51708058 5.35150583
v 24.23603094 -25.97668450 4.61412280
v 24.64928093 -25.58342978 5.35150583
v 23.74330968 26.42422700 4.61412280
v 24.11284990 26.09105366 5.35150583
v 24.63736140 -25.59435577 4.61412280
v 25.01882405 -25.22295303 4.61412280
v 25.12346102 -25.11917346 5.35150583
v 24.12477088 26.08013346 4.61412280
v 24.12477088 26.08013346 5.35150583
v 25.12346102 -25.11917346 4.61412280
v 25.22545050 -25.01539967 4.61412280
v 25.60956064 -24.62215074 5.35150583
v 24.63736140 25.59403094 4.61412280
v 24.63736140 25.59403094 5.35150583
v 25.59631446 -24.63307094 4.61412280
v 26.08241408 -24.12512078 4.61412280
v 26.08241408 -24.12512078 5.35150583
v 25.13538055 25.10792263 5.35150583
v 25.12213727 25.11884863 4.61412280
v 26.52215643 -23.63901682 4.61412280
v 26.52215643 -23.63901682 5.35150583
v 25.59631446 24.63274611 5.35150583
v 25.59631446 24.63274611 4.61412280
v 26.90361908 -23.20206969 4.61412280
v 27.00825605 -23.08190837 5.35150583
v 26.08241408 24.12479305 5.35150583
v 25.70095143 24.52350933 4.61412280
v 27.00825605 -23.08190837 4.61412280
v 27.09567560 -22.97813314 4.61412280
v 27.41620815 -22.59580440 5.35150583
v 26.52215643 23.63868909 4.61412280
v 26.08241408 24.11933150 4.61412280
v 26.52215643 23.63868909 5.35150583
v 27.41620815 -22.59580440 4.61412280
v 27.79767080 -22.12062499 4.61412280
v 27.90230777 -21.98954056 5.35150583
v 27.01885183 23.07065754 5.35150583
v 27.00825605 23.08158064 4.61412280
v 27.90230777 -21.98954056 4.61412280
v 28.28112292 -21.50343660 5.35150583
v 27.41620815 22.59547668 5.35150583
v 27.41620815 22.59547668 4.61412280
v 28.28112292 -21.50343660 4.61412280
v 28.73940644 -20.88078666 5.35150583
v 27.91157980 21.97828829 5.35150583
v 27.90230777 21.98921283 4.61412280
v 28.72881066 -20.89170976 4.61412280
v 29.03477618 -20.47114873 4.61412280
v 29.11954534 -20.35098740 5.35150583
v 28.28112292 21.50310887 5.35150583
v 28.28112292 21.50310887 4.61412280
v 29.11954534 -20.35098740 4.61412280
v 29.43875414 -19.88126953 5.35150583
v 28.71821487 20.90776812 5.35150583
v 28.37781161 21.37202444 4.61412280
v 29.18974457 -20.24721217 4.61412280
v 29.44802618 -19.86488344 4.61412280
v 29.93412579 -19.12753517 4.61412280
v 29.93412579 -19.12753517 5.35150583
v 28.73013440 20.89138203 5.35150583
v 28.72881066 20.89138203 4.61412280
v 30.00035088 -19.02375994 4.61412280
v 30.23346678 -18.65781730 5.35150583
v 29.10894666 20.36704577 5.35150583
v 28.81225606 20.77668370 4.61412280
v 30.24141507 -18.64143120 4.61412280
v 30.55400223 -18.12255650 4.61412280
v 30.64936717 -17.96416287 5.35150583
v 29.45200032 19.86455571 5.35150583
v 29.37782695 19.97379249 4.61412280
v 29.11954534 20.35065967 4.61412280
v 30.63877139 -17.98054752 4.61412280
v 30.93281449 -17.47259736 4.61412280
v 31.01361240 -17.33058839 5.35150583
v 29.93412579 19.13266899 4.61412280
v 29.93412579 19.13266899 5.35150583
v 31.01361240 -17.33058839 4.61412280
v 31.07056545 -17.22681460 4.61412280
v 31.27056736 -16.86087052 5.35150583
v 30.24141507 18.64656503 4.61412280
v 30.24141507 18.64656503 5.35150583
v 31.27719190 -16.84448442 4.61412280
v 31.60832023 -16.21091139 4.61412280
v 31.69573978 -16.04159467 5.35150583
v 30.64009514 17.98021980 4.61412280
v 30.64009514 17.98021980 5.35150583
v 31.69839018 -16.03613312 4.61412280
v 32.00832695 -15.41348173 4.61412280
v 32.00832695 -15.41348173 5.35150583
v 31.02023404 17.31933756 5.35150583
v 31.01361240 17.33026066 4.61412280
v 32.05733461 -15.30970795 4.61412280
v 32.24674074 -14.90553157 5.35150583
v 31.22023595 16.95339348 4.61412280
v 31.28116314 16.83869515 5.35150583
v 32.23614496 -14.92737776 4.61412280
v 32.53018806 -14.27195708 4.61412280
v 32.61098597 -14.09171726 4.61412280
v 32.61098597 -14.09171726 5.35150583
v 31.36858269 16.66937843 4.61412280
v 31.68779150 16.05765159 5.35150583
v 32.93416891 -13.32705835 4.61412280
v 32.93416891 -13.32705835 5.35150583
v 31.69839018 16.03580539 4.61412280
v 32.00037866 15.42954010 5.35150583
v 32.00832695 15.41315400 4.61412280
v 33.12622254 -12.84095438 4.61412280
v 33.12225129 -12.85187893 5.35150583
v 32.00832695 15.41315400 5.35150583
v 32.23879535 14.92158849 5.35150583
v 32.23614496 14.92705004 4.61412280
v 33.38450704 -12.14730068 4.61412280
v 33.38450704 -12.14730068 5.35150583
v 32.61098597 14.09138953 5.35150583
v 32.61098597 14.09138953 4.61412280
v 33.72093327 -11.17509275 4.61412280
v 33.72755781 -11.15870738 5.35150583
v 32.93284227 13.32673062 5.35150583
v 32.67985855 13.92753291 4.61412280
v 33.95007503 -10.47051523 4.61412280
v 33.94875128 -10.47597678 5.35150583
v 33.12887293 12.83516511 5.35150583
v 33.08516316 12.94440189 4.61412280
v 32.93284227 13.32126907 4.61412280
v 34.09709803 -9.98441127 4.61412280
v 34.09709803 -9.98441127 5.35150583
v 33.38583079 12.14151141 5.35150583
v 33.12622254 12.84062666 4.61412280
v 34.26133845 -9.39453207 4.61412280
v 34.30504822 -9.23613917 5.35150583
v 33.45603002 11.93942322 4.61412280
v 33.38318040 12.14697296 4.61412280
v 33.71166124 11.20207422 5.35150583
v 34.30637197 -9.23067690 4.61412280
v 34.55008365 -8.26393125 5.35150583
v 33.72093327 11.17476503 4.61412280
v 33.72093327 11.17476503 5.35150583
v 34.55141030 -8.25846897 4.61412280
v 34.55803194 -8.23115978 5.35150583
v 33.95404917 10.45380213 5.35150583
v 33.95007503 10.46472595 4.61412280
v 34.72359611 -7.49381151 4.61412280
v 34.77128002 -7.28626105 5.35150583
v 34.09709803 9.98408354 4.61412280
v 34.09709803 9.98408354 5.35150583
v 34.76995628 -7.28626105 4.61412280
v 34.89710856 -6.65814956 4.61412280
v 34.93154630 -6.48337056 5.35150583
v 34.30107408 9.25219682 5.35150583
v 34.30637197 9.23034917 4.61412280
v 34.93154630 -6.48337056 4.61412280
v 35.01764210 -6.00819006 5.35150583
v 34.35935378 9.02279943 4.61412280
v 34.54478576 8.28545044 5.35150583
v 35.01896585 -5.99726660 4.61412280
v 35.12227907 -5.34184555 4.61412280
v 35.12227907 -5.34184555 5.35150583
v 34.55141030 8.25814125 4.61412280
v 34.55273405 8.25267970 5.35150583
v 35.22691604 -4.58264928 4.61412280
v 35.25472925 -4.38056109 5.35150583
v 34.59909132 8.05059151 4.61412280
v 34.77260377 7.28047177 5.35150583
v 35.25472925 -4.36963763 4.61412280
v 35.25870339 -4.34779034 5.35150583
v 34.77128002 7.28593332 4.61412280
v 34.93419669 6.47211901 5.35150583
v 35.34082505 -3.61044135 4.61412280
v 35.36466701 -3.39742970 4.61412280
v 35.36466701 -3.39742970 5.35150583
v 34.93154630 6.48304284 4.61412280
v 35.02028960 5.99693887 5.35150583
v 35.42691795 -2.63823360 4.61412280
v 35.44281163 -2.43614541 5.35150583
v 35.00042178 6.10071410 4.61412280
v 35.12360282 5.33605591 5.35150583
v 35.12227907 5.34151783 4.61412280
v 35.04148116 5.85493098 4.61412280
v 35.01896585 5.99693887 4.61412280
v 35.44281163 -2.42522177 4.61412280
v 35.48387390 -1.66602567 4.61412280
v 35.49446969 -1.46393758 5.35150583
v 35.25605589 4.36930990 5.35150583
v 35.15141892 5.13396773 4.61412280
v 35.49446969 -1.45301384 4.61412280
v 35.49579344 -1.43116647 5.35150583
v 35.25605589 4.36930990 4.61412280
v 35.36599076 3.39164006 5.35150583
v 35.51831164 -0.69381784 4.61412280
v 35.52360954 -0.49172965 5.35150583
v 35.36466701 3.39710197 4.61412280
v 35.44413827 2.42489404 4.61412280
v 35.38188443 3.18955187 4.61412280
v 35.44413827 2.42489404 5.35150583
v 35.52360954 -0.48080596 4.61412280
v 35.52493328 0.48047823 4.61412280
v 35.52360954 0.50778747 5.35150583
v 35.49446969 1.47999540 5.35150583
v 35.49579344 1.45268612 4.61412280
v 35.49579344 1.45268612 5.35150583
f 1 2 3
f 1 3 4
f 1 4 8
f 1 8 13
f 1 13 17
f 1 17 22
f 1 22 27
f 1 27 32
f 1 32 37
f 1 37 42
f 1 42 46
f 1 46 50
f 1 50 55
f 1 55 61
f 1 61 65
f 1 65 69
f 1 69 74
f 1 74 78
f 1 78 84
f 1 84 88
f 1 88 93
f 1 93 99
f 1 99 104
f 1 104 109
f 1 109 114
f 1 114 118
f 1 118 124
f 1 124 128
f 1 128 133
f 1 133 138
f 1 138 142
f 1 142 146
f 1 146 151
f 1 151 155
f 1 155 160
f 1 160 164
f 1 164 168
f 1 168 173
f 1 173 177
f 1 177 182
f 1 182 186
f 1 186 190
f 1 190 195
f 1 195 199
f 1 199 207
f 1 207 211
f 1 211 215
f 1 215 222
f 1 222 225
f 1 225 223
f 1 223 219
f 1 219 213
f 1 213 208
f 1 208 201
f 1 201 197
f 1 197 192
f 1 192 188
f 1 188 184
f 1 184 179
f 1 179 174
f 1 174 170
f 1 170 165
f 1 165 162
f 1 162 158
f 1 158 152
f 1 152 147
f 1 147 143
f 1 143 139
f 1 139 135
f 1 135 134
f 1 134 130
f 1 130 126
f 1 126 120
f 1 120 115
f 1 115 111
f 1 111 106
f 1 106 101
f 1 101 94
f 1 94 89
f 1 89 85
f 1 85 79
f 1 79 75
f 1 75 70
f 1 70 66
f 1 66 62
f 1 62 58
f 1 58 51
f 1 51 47
f 1 47 43
f 1 43 39
f 1 39 34
f 1 34 29
f 1 29 25
f 1 25 19
f 1 19 14
f 1 14 9
f 1 9 5
f 1 5 10
f 1 10 11
f 1 11 6
f 1 6 2
f 2 6 3
f 3 6 11
f 3 11 15
f 3 15 18
f 3 18 23
f 3 23 24
f 3 24 28
f 3 28 33
f 3 33 38
f 3 38 44
f 3 44 48
f 3 48 52
f 3 52 57
f 3 57 56
f 3 56 63
f 3 63 67
f 3 67 71
f 3 71 76
f 3 76 80
f 3 80 86
f 3 86 90
f 3 90 96
f 3 96 95
f 3 95 100
f 3 100 105
f 3 105 110
f 3 110 116
f 3 116 119
f 3 119 125
f 3 125 129
f 3 129 131
f 3 131 136
f 3 136 140
f 3 140 144
f 3 144 149
f 3 149 148
f 3 148 153
f 3 153 157
f 3 157 156
f 3 156 161
f 3 161 166
f 3 166 169
f 3 169 175
f 3 175 178
f 3 178 183
f 3 183 187
f 3 187 191
f 3 191 196
f 3 196 200
f 3 200 204
f 3 204 203
f 3 203 202
f 3 202 209
f 3 209 212
f 3 212 216
f 3 216 218
f 3 218 217
f 3 217 224
f 3 224 221
f 3 221 220
f 3 220 214
f 3 214 210
f 3 210 206
f 3 206 205
f 3 205 198
f 3 198 194
f 3 194 193
f 3 193 189
f 3 189 185
f 3 185 181
f 3 181 180
f 3 180 176
f 3 176 172
f 3 172 171
f 3 171 167
f 3 167 163
f 3 163 159
f 3 159 154
f 3 154 150
f 3 150 145
f 3 145 141
f 3 141 137
f 3 137 132
f 3 132 127
f 3 127 123
f 3 123 122
f 3 122 121
f 3 121 117
f 3 117 113
f 3 113 112
f 3 112 108
f 3 108 107
f 3 107 103
f 3 103 102
f 3 102 98
f 3 98 97
f 3 97 92
f 3 92 91
f 3 91 87
f 3 87 83
f 3 83 82
f 3 82 81
f 3 81 77
f 3 77 73
f 3 73 72
f 3 72 68
f 3 68 64
f 3 64 60
f 3 60 59
f 3 59 54
f 3 54 53
f 3 53 49
f 3 49 45
f 3 45 41
f 3 41 40
f 3 40 36
f 3 36 35
f 3 35 31
f 3 31 30
f 3 30 26
f 3 26 21
f 3 21 20
f 3 20 16
f 3 16 12
f 3 12 7
f 3 7 4
f 4 7 8
f 5 9 10
f 7 12 8
f 8 12 13
f 9 14 10
f 10 15 11
f 10 14 15
f 12 16 13
f 13 16 17
f 14 18 15
f 14 19 18
f 16 20 17
f 17 20 21
f 17 21 22
f 18 19 23
f 19 24 23
f 19 25 24
f 21 26 22
f 22 26 27
f 24 25 28
f 25 29 28
f 26 30 27
f 27 30 31
f 27 31 32
f 28 29 33
f 29 34 33
f 31 35 32
f 32 35 36
f 32 36 37
f 33 34 39
f 33 39 38
f 36 40 37
f 37 40 41
f 37 41 42
f 38 39 43
f 38 43 44
f 41 45 46
f 41 46 42
f 43 47 48
f 43 48 44
f 45 49 46
f 46 49 50
f 47 51 52
f 47 52 48
f 49 53 50
f 50 53 54
f 50 54 55
f 51 56 57
f 51 57 52
f 51 58 56
f 54 59 55
f 55 59 60
f 55 60 61
f 56 58 62
f 56 62 63
f 60 64 61
f 61 64 68
f 61 68 65
f 62 66 67
f 62 67 63
f 65 68 69
f 66 70 67
f 67 70 71
f 68 72 69
f 69 72 73
f 69 73 74
f 70 75 76
f 70 76 71
f 73 77 74
f 74 77 78
f 75 79 80
f 75 80 76
f 77 81 78
f 78 81 82
f 78 82 83
f 78 83 84
f 79 85 90
f 79 90 86
f 79 86 80
f 83 87 84
f 84 87 88
f 85 89 90
f 87 91 88
f 88 91 92
f 88 92 93
f 89 94 95
f 89 95 96
f 89 96 90
f 92 97 93
f 93 97 98
f 93 98 99
f 94 100 95
f 94 101 100
f 98 102 99
f 99 102 103
f 99 103 104
f 100 101 106
f 100 106 105
f 103 107 104
f 104 107 108
f 104 108 109
f 105 106 111
f 105 111 110
f 108 112 109
f 109 112 113
f 109 113 114
f 110 111 115
f 110 115 116
f 113 117 114
f 114 117 118
f 115 119 116
f 115 120 119
f 117 121 118
f 118 121 122
f 118 122 123
f 118 123 124
f 119 120 125
f 120 126 125
f 123 127 128
f 123 128 124
f 125 126 129
f 126 130 131
f 126 131 129
f 127 132 133
f 127 133 128
f 130 134 131
f 131 135 136
f 131 134 135
f 132 137 133
f 133 137 138
f 135 139 140
f 135 140 136
f 137 141 142
f 137 142 138
f 139 143 140
f 140 143 144
f 141 145 142
f 142 145 146
f 143 147 148
f 143 148 149
f 143 149 144
f 145 150 146
f 146 150 151
f 147 152 157
f 147 157 153
f 147 153 148
f 150 154 151
f 151 154 155
f 152 156 157
f 152 158 156
f 154 159 155
f 155 159 163
f 155 163 160
f 156 158 161
f 158 162 161
f 160 163 164
f 161 162 165
f 161 165 166
f 163 167 168
f 163 168 164
f 165 169 166
f 165 170 169
f 167 171 168
f 168 171 172
f 168 172 173
f 169 170 174
f 169 174 175
f 172 176 173
f 173 176 177
f 174 178 175
f 174 179 178
f 176 180 177
f 177 180 181
f 177 181 182
f 178 179 183
f 179 184 183
f 181 185 182
f 182 185 186
f 183 184 187
f 184 188 187
f 185 189 186
f 186 189 190
f 187 188 191
f 188 192 191
f 189 193 190
f 190 193 194
f 190 194 195
f 191 192 196
f 192 197 196
f 194 198 195
f 195 198 199
f 196 197 200
f 197 201 202
f 197 202 203
f 197 203 204
f 197 204 200
f 198 205 199
f 199 205 206
f 199 206 207
f 201 208 209
f 201 209 202
f 206 210 207
f 207 210 211
f 208 212 209
f 208 213 212
f 210 214 211
f 211 214 215
f 212 213 216
f 213 217 218
f 213 218 216
f 213 219 217
f 214 220 215
f 215 220 221
f 215 221 222
f 217 223 224
f 217 219 223
f 221 224 225
f 221 225 222
f 223 225 224

