# https://github.com/mikedh/trimesh
v 27.73016541 -6.77962377 18.37683908
v 34.84837897 -6.77962377 18.37683908
v 27.73016541 -6.77962377 19.26984802
v 27.73016541 -4.11059493 18.37683908
v 28.36340389 -3.56568590 17.46528027
v 35.34276288 -3.56568590 17.46528027
v 34.97426254 -6.17663744 18.37683908
v 34.84837897 -6.77962377 18.38320002
v 34.68510891 -6.77962377 19.26984802
v 27.73016541 -4.28739141 19.26984802
v 27.73016541 -4.16184059 19.00892471
v 29.50017955 1.94404452 18.01204060
v 29.49941775 1.94404452 17.60607847
v 29.49941775 1.94404452 17.46528027
v 35.05818589 -5.68041129 18.37683908
v 35.01241083 -5.96396903 18.37683908
v 35.36107232 -3.40170074 17.46528027
v 35.34276288 -3.56568590 18.01204060
v 35.00859600 -5.94005430 18.66055288
v 34.80794236 -6.77962377 18.98401680
v 34.95976793 -5.76582023 19.26984802
v 27.73016541 -4.17208950 19.03824994
v 30.02813512 0.00099134 19.26984802
v 29.52459504 1.94404452 18.37683908
v 35.47017296 1.94404452 17.46528027
v 35.23137392 -4.37280036 18.37683908
v 35.40684737 -2.85422948 17.46528027
v 35.36107232 -3.40170074 18.01204060
v 35.33970986 -3.56568590 18.07404823
v 34.90483670 -6.28510662 18.98419349
v 35.19398743 -4.37280036 18.98366341
v 35.05894769 -5.36098161 18.98419349
v 34.97807737 -5.65649691 19.26984802
v 30.17995779 0.00526184 19.26984802
v 35.44652218 1.94404452 18.37683908
v 35.49687387 1.45721387 17.46528027
v 35.47017296 1.94404452 18.01204060
v 35.44194265 -2.42889304 17.46528027
v 35.38853793 -2.79529732 18.37683908
v 35.33818335 -3.40170074 18.37683908
v 35.44118084 -2.42889304 18.01204060
v 35.32063571 -3.56568590 18.37683908
v 35.09938430 -4.73322605 19.26984802
v 35.30003795 -3.40084661 18.98366341
v 35.36412245 0.00526184 19.26984802
v 35.46025498 0.00526184 18.98366341
v 35.47246128 1.45721387 18.37683908
v 35.49687387 1.45721387 18.01204060
v 35.52357767 0.48525994 17.46528027
v 35.47246128 -1.88312987 17.46528027
v 35.41829186 -2.42974699 18.37683908
v 35.37938176 -2.42974699 18.98366341
v 35.49535025 -1.45779333 18.01204060
v 35.18788429 -3.85863842 19.26984802
v 35.36412245 -0.48669363 19.26984802
v 35.49992689 0.48525994 18.37683908
v 35.48314396 1.09166336 18.37683908
v 35.46025498 -0.48669363 18.98366341
v 35.52357767 0.48525994 18.01204060
v 35.52357767 -0.48669363 17.46528027
v 35.49535025 -1.45779333 17.46528027
v 35.45186062 -1.82334357 18.37683908
v 35.29164359 -2.42974699 19.26984802
v 35.26875751 -2.83458543 19.26984802
v 35.47169947 -1.45779333 18.37683908
v 35.43202467 -1.45864747 18.98366341
v 35.51137138 -0.91117611 17.46528027
v 35.52357767 -0.48669363 18.01204060
v 35.35573098 -0.84797345 19.26984802
v 35.49992689 0.00526184 18.37683908
v 35.33818335 -1.45864747 19.26984802
v 35.32368873 -1.83444680 19.26984802
f 1 2 8
f 1 8 20
f 1 20 9
f 1 9 3
f 1 3 10
f 1 10 22
f 1 22 11
f 1 11 4
f 1 4 5
f 1 5 6
f 1 6 2
f 2 6 7
f 2 7 8
f 3 9 21
f 3 21 33
f 3 33 43
f 3 43 54
f 3 54 64
f 3 64 63
f 3 63 72
f 3 72 71
f 3 71 69
f 3 69 55
f 3 55 45
f 3 45 34
f 3 34 23
f 3 23 10
f 4 11 12
f 4 12 13
f 4 13 14
f 4 14 5
f 5 14 25
f 5 25 36
f 5 36 49
f 5 49 60
f 5 60 67
f 5 67 61
f 5 61 50
f 5 50 38
f 5 38 27
f 5 27 17
f 5 17 6
f 6 15 16
f 6 16 7
f 6 17 28
f 6 28 18
f 6 18 15
f 7 16 19
f 7 19 8
f 8 19 20
f 9 20 21
f 10 23 24
f 10 24 22
f 11 22 24
f 11 24 12
f 12 24 35
f 12 35 37
f 12 37 25
f 12 25 14
f 12 14 13
f 15 18 26
f 15 26 19
f 15 19 16
f 17 27 28
f 18 28 29
f 18 29 26
f 19 21 30
f 19 30 20
f 19 26 31
f 19 31 32
f 19 32 33
f 19 33 21
f 20 30 21
f 23 34 24
f 24 34 45
f 24 45 35
f 25 37 48
f 25 48 36
f 26 29 31
f 27 38 28
f 28 39 40
f 28 40 29
f 28 38 41
f 28 41 39
f 29 40 42
f 29 42 31
f 31 43 33
f 31 33 32
f 31 42 44
f 31 44 43
f 35 45 46
f 35 46 47
f 35 47 48
f 35 48 37
f 36 48 59
f 36 59 49
f 38 50 41
f 39 51 52
f 39 52 44
f 39 44 40
f 39 41 51
f 40 44 42
f 41 50 53
f 41 53 51
f 43 44 54
f 44 52 54
f 45 55 58
f 45 58 46
f 46 56 57
f 46 57 47
f 46 58 70
f 46 70 56
f 47 57 48
f 48 57 56
f 48 56 59
f 49 59 68
f 49 68 60
f 50 61 53
f 51 53 62
f 51 62 52
f 52 63 64
f 52 64 54
f 52 62 65
f 52 65 66
f 52 66 63
f 53 67 68
f 53 68 65
f 53 65 62
f 53 61 67
f 55 69 58
f 56 70 68
f 56 68 59
f 58 69 71
f 58 71 66
f 58 66 65
f 58 65 68
f 58 68 70
f 60 68 67
f 63 66 72
f 66 71 72

