# https://github.com/mikedh/trimesh
v -35.52625255 0.48755858 7.38878396
v -35.52419017 0.55565343 7.38878396
v -35.52522136 0.50934902 6.37172210
v -35.52522136 -0.48484197 6.37172210
v -35.52522136 -0.48484197 7.38878396
v -35.49635669 1.45995913 7.38878396
v -35.49635669 1.45995913 6.37172210
v -35.49738788 -1.43272928 6.37172210
v -35.49841907 -1.38914840 7.38878396
v -35.49326311 1.52805470 7.38878396
v -35.49532550 1.48174957 6.37172210
v -35.49635669 -1.45724325 6.37172210
v -35.49635669 -1.45724325 7.38878396
v -35.44481159 2.43235968 7.38878396
v -35.44481159 2.43235968 6.37172210
v -35.44481159 -2.42964380 6.37172210
v -35.44481159 -2.42964380 7.38878396
v -35.36543302 3.40203670 7.38878396
v -35.36543302 3.40203670 6.37172210
v -35.43244019 -2.57945333 6.37172210
v -35.43244019 -2.57945333 7.38878396
v -35.35821758 3.47013227 7.38878396
v -35.36337064 3.42655140 6.37172210
v -25.75540313 -2.57945333 6.37172210
v -25.84818430 -2.57945333 7.38878396
v -35.25718978 4.37443798 7.38878396
v -35.25718978 4.37443798 7.32058918
v -35.25615859 4.37443798 6.37172210
v -25.75540313 -2.57945333 7.38858409
v -24.99460105 2.66933169 6.37172210
v -25.75643432 -2.57672907 7.38878396
v -35.24790905 4.44253282 7.38878396
v -35.12317254 5.34683853 6.37172210
v -35.25306501 4.39895195 6.37172210
v -24.99460105 2.66933169 7.38878396
v -24.99460105 25.24428322 6.37172210
v -35.12317254 5.34683853 7.38878396
v -35.11595420 5.39314330 7.38878396
v -35.02008235 6.00327701 6.37172210
v -24.99460105 25.24700603 7.38878396
v -25.12346233 25.12171047 6.37172210
v -35.02008235 6.00327701 7.38878396
v -34.93864140 6.45542950 7.38878396
v -34.92833238 6.50718170 6.37172210
v -25.12346233 25.12171047 7.38878396
v -25.59664599 24.63414807 6.37172210
v -34.92111404 6.54531551 7.38878396
v -34.77163472 7.29164036 6.37172210
v -25.59664599 24.63414807 7.38878396
v -26.08322934 24.12479595 6.37172210
v -34.77163472 7.29164036 7.38878396
v -34.55308585 8.26404091 7.32058918
v -34.55205466 8.26404091 6.37172210
v -26.08322934 24.12479595 7.38878396
v -26.52239236 23.63723355 6.37172210
v -34.55308585 8.26404091 7.38878396
v -34.54689870 8.28583062 6.37172210
v -34.30670060 9.23371720 6.37172210
v -26.52239236 23.63723355 7.38878396
v -26.99660431 23.09519468 6.37172210
v -26.97392390 23.12243291 7.38878396
v -34.30670060 9.23371720 7.38878396
v -34.29226681 9.28819366 7.38878396
v -34.30154754 9.25278411 6.37172210
v -27.41618050 22.59673670 6.37172210
v -27.03680920 23.04889100 7.38878396
v -34.09742955 9.98548984 7.38878396
v -34.09742955 9.98548984 6.37172210
v -27.90276385 21.99205151 7.32058918
v -27.41618050 22.59673670 7.38878396
v -27.91101048 21.98115592 6.37172210
v -33.95000972 10.47305152 7.38878396
v -33.95413448 10.45943313 6.37172210
v -27.90276385 21.99205151 7.38878396
v -28.28213515 21.50448910 7.32058918
v -28.28110395 21.50448910 6.37172210
v -33.93454764 10.52208019 7.38878396
v -33.95000972 10.47305152 6.37172210
v -28.28213515 21.50448910 7.38878396
v -28.71923579 20.91069804 6.37172210
v -33.72115183 11.17851903 6.37172210
v -33.94485376 10.48939489 6.37172210
v -33.72115183 11.17851903 7.38878396
v -28.69861775 20.93793627 7.38878396
v -29.11200678 20.36865918 6.37172210
v -29.12128461 20.35504079 7.38878396
v -33.69847141 11.24661460 7.38878396
v -33.38404779 12.14819605 6.37172210
v -29.12128461 20.35504079 6.37172210
v -29.44911082 19.86747839 7.38878396
v -33.38404779 12.14819605 7.38878396
v -33.36652333 12.19722399 7.38878396
v -33.12632233 12.84004444 6.37172210
v -29.44911082 19.86747839 6.37172210
v -29.90064235 19.18380132 7.38878396
v -33.12632233 12.84004444 7.38878396
v -32.94694715 13.29219729 7.38878396
v -32.93354456 13.32488259 6.37172210
v -29.94187842 19.12115354 6.37172210
v -29.93466298 19.13204912 7.38878396
v -32.93354456 13.32488259 7.38878396
v -32.91086414 13.37935904 7.38878396
v -32.61087431 14.09299715 6.37172210
v -30.24290234 18.64448671 6.37172210
v -30.24290234 18.64448671 7.38878396
v -32.61087431 14.09299715 7.38878396
v -32.23665897 14.92648375 6.37172210
v -30.63052027 17.99622064 6.37172210
v -30.63979810 17.97987655 7.38878396
v -32.23665897 14.92648375 7.38878396
v -32.00882937 15.41404616 6.37172210
v -31.01298225 17.33433329 6.37172210
v -31.01298225 17.33433329 7.38878396
v -32.00882937 15.41404616 7.38878396
v -31.98718014 15.45762703 7.38878396
v -31.68924980 16.05414235 6.37172210
v -31.27792315 16.84677088 6.37172210
v -31.27792315 16.84677088 7.38878396
v -31.69853052 16.03507544 7.38878396
v -31.66966295 16.09227616 7.38878396
f 1 2 3
f 1 3 4
f 1 4 5
f 1 5 9
f 1 9 13
f 1 13 17
f 1 17 21
f 1 21 25
f 1 25 31
f 1 31 35
f 1 35 40
f 1 40 45
f 1 45 49
f 1 49 54
f 1 54 59
f 1 59 61
f 1 61 66
f 1 66 70
f 1 70 74
f 1 74 79
f 1 79 84
f 1 84 86
f 1 86 90
f 1 90 95
f 1 95 100
f 1 100 105
f 1 105 109
f 1 109 113
f 1 113 118
f 1 118 120
f 1 120 119
f 1 119 115
f 1 115 114
f 1 114 110
f 1 110 106
f 1 106 102
f 1 102 101
f 1 101 97
f 1 97 96
f 1 96 92
f 1 92 91
f 1 91 87
f 1 87 83
f 1 83 77
f 1 77 72
f 1 72 67
f 1 67 63
f 1 63 62
f 1 62 56
f 1 56 51
f 1 51 47
f 1 47 43
f 1 43 42
f 1 42 38
f 1 38 37
f 1 37 32
f 1 32 26
f 1 26 22
f 1 22 18
f 1 18 14
f 1 14 10
f 1 10 6
f 1 6 2
f 2 6 7
f 2 7 3
f 3 7 11
f 3 11 15
f 3 15 19
f 3 19 23
f 3 23 28
f 3 28 34
f 3 34 33
f 3 33 39
f 3 39 44
f 3 44 48
f 3 48 53
f 3 53 57
f 3 57 58
f 3 58 64
f 3 64 68
f 3 68 73
f 3 73 78
f 3 78 82
f 3 82 81
f 3 81 88
f 3 88 93
f 3 93 98
f 3 98 103
f 3 103 107
f 3 107 111
f 3 111 116
f 3 116 117
f 3 117 112
f 3 112 108
f 3 108 104
f 3 104 99
f 3 99 94
f 3 94 89
f 3 89 85
f 3 85 80
f 3 80 76
f 3 76 71
f 3 71 65
f 3 65 60
f 3 60 55
f 3 55 50
f 3 50 46
f 3 46 41
f 3 41 36
f 3 36 30
f 3 30 24
f 3 24 20
f 3 20 16
f 3 16 12
f 3 12 8
f 3 8 4
f 4 8 5
f 5 8 9
f 6 10 7
f 7 10 11
f 8 12 13
f 8 13 9
f 10 14 15
f 10 15 11
f 12 16 17
f 12 17 13
f 14 18 19
f 14 19 15
f 16 20 21
f 16 21 17
f 18 22 23
f 18 23 19
f 20 24 29
f 20 29 25
f 20 25 21
f 22 26 23
f 23 26 27
f 23 27 28
f 24 30 35
f 24 35 29
f 25 29 31
f 26 32 27
f 27 32 33
f 27 33 34
f 27 34 28
f 29 35 31
f 30 36 40
f 30 40 35
f 32 37 33
f 33 37 38
f 33 38 39
f 36 41 40
f 38 42 39
f 39 42 43
f 39 43 44
f 40 41 45
f 41 46 49
f 41 49 45
f 43 47 44
f 44 47 48
f 46 50 54
f 46 54 49
f 47 51 48
f 48 51 56
f 48 56 52
f 48 52 53
f 50 55 59
f 50 59 54
f 52 57 53
f 52 56 62
f 52 62 58
f 52 58 57
f 55 60 61
f 55 61 59
f 58 62 63
f 58 63 64
f 60 65 66
f 60 66 61
f 63 67 68
f 63 68 64
f 65 69 74
f 65 74 70
f 65 70 66
f 65 71 69
f 67 72 73
f 67 73 68
f 69 71 75
f 69 75 79
f 69 79 74
f 71 76 75
f 72 77 82
f 72 82 78
f 72 78 73
f 75 76 80
f 75 80 79
f 77 81 82
f 77 83 81
f 79 80 84
f 80 85 86
f 80 86 84
f 81 83 87
f 81 87 88
f 85 89 86
f 86 89 94
f 86 94 90
f 87 91 88
f 88 91 92
f 88 92 93
f 90 94 95
f 92 96 93
f 93 96 97
f 93 97 98
f 94 99 95
f 95 99 100
f 97 101 98
f 98 101 102
f 98 102 103
f 99 104 105
f 99 105 100
f 102 106 103
f 103 106 110
f 103 110 107
f 104 108 105
f 105 108 109
f 107 110 114
f 107 114 111
f 108 112 113
f 108 113 109
f 111 114 115
f 111 115 116
f 112 117 118
f 112 118 113
f 115 119 116
f 116 119 120
f 116 120 117
f 117 120 118

