# https://github.com/mikedh/trimesh
v -5.93790474 0.91591075 78.62905729
v -6.93773470 0.91591075 79.61631598
v -5.93790474 -8.71620069 76.77342239
v -5.93790474 0.91591075 26.81088775
v -17.10312711 0.91591075 79.61631598
v -7.31575256 0.52180116 79.61631598
v -9.34554441 -1.34126190 79.61631598
v -13.93654367 -5.51995383 79.61631598
v -14.44193757 -5.96686238 79.61631598
v -15.06374895 -6.38642915 79.61631598
v -14.10500734 -8.71620069 77.12490807
v -5.93790474 -8.71620069 26.81088775
v -19.90813021 0.91591075 26.81088775
v -17.10586730 0.91591075 79.58013448
v -17.10723739 0.85745436 79.61631598
v -15.81430574 -6.25725938 79.61631598
v -14.54328979 -8.71620069 77.07321815
v -18.01667154 -8.71620069 26.81088775
v -19.92730573 0.48503020 26.81088775
v -19.87936691 0.48503020 27.73612143
v -19.43560698 0.85274013 35.93915424
v -19.43286824 0.91591075 35.89780520
v -17.50442861 0.91591075 72.14726269
v -17.14832574 0.48503020 79.23898679
v -17.12778157 0.48503020 79.61631598
v -15.97729192 -5.97251981 79.61631598
v -15.62392780 -6.89462262 78.91851506
v -14.74325550 -8.71620069 77.02669866
v -18.25087801 -8.22874908 26.81088775
v -15.53627073 -8.71620069 66.83363716
v -15.20482087 -8.26080581 76.32373020
v -15.55270751 -7.77995484 74.90745240
v -15.53353199 -7.74035535 75.55873384
v -19.92867438 -0.48610091 26.81088775
v -19.44382464 0.20500487 36.09422111
v -19.05621975 0.48503020 43.28415462
v -17.14832574 -0.48610091 79.23898679
v -18.46864915 0.09752053 54.50582458
v -17.12778157 -0.48610091 79.61631598
v -16.26765344 -5.34552750 79.61631598
v -15.67734265 -7.02662165 78.26723363
v -14.93500353 -8.71620069 76.32373020
v -18.46727905 -7.75638371 26.81088775
v -15.51024907 -7.69227025 76.32373020
v -15.70884468 -7.14447728 77.29548047
v -14.97609187 -8.71620069 75.79133414
v -19.57119997 -0.48610091 33.56663170
v -19.44382464 -0.21267549 36.09422111
v -19.88484584 -1.45817469 26.81088775
v -19.43560698 -0.86041039 35.94432468
v -17.50168987 -1.06406528 72.09557277
v -17.09354079 -1.08669356 79.61631598
v -18.46864915 -0.09859124 54.50582458
v -19.05621975 -0.48610091 43.28415462
v -16.36215808 -5.07493061 79.61631598
v -16.29915547 -5.34552750 79.23898679
v -15.99920619 -6.31760146 78.26723363
v -18.64533193 -7.33210345 26.81088775
v -18.47686681 -1.11686460 53.69947736
v -19.45204231 -1.16212117 35.29304324
v -19.80403780 -2.37933483 26.81088775
v -19.44519474 -2.00125379 34.18689918
v -18.47001779 -1.96919706 52.57782705
v -17.14421690 -1.45817469 78.26723363
v -17.09217070 -1.45817469 79.23898679
v -17.07162653 -1.45817469 79.61631598
v -16.47994564 -4.70062077 79.61631598
v -16.49090350 -4.73927742 79.23898679
v -16.51007903 -4.81281969 78.53084789
v -16.05673133 -6.31760146 77.29548047
v -16.52788301 -4.87693315 77.88473689
v -18.99595587 -6.31760146 26.81088775
v -18.66998494 -7.26893283 26.81088775
v -18.65491825 -7.30758947 26.81088775
v -19.79856031 -2.43024847 26.81088775
v -17.49210355 -1.91639774 70.93774168
v -16.96068654 -2.43024847 79.61631598
v -16.60732097 -4.21505557 79.61631598
v -19.30275417 -5.24558593 26.81088775
v -19.28494874 -5.31158508 26.81088775
v -19.01102256 -6.26574498 26.81088775
v -19.67803257 -3.35046595 26.81088775
v -17.03327692 -2.43024847 78.26723363
v -16.79222142 -3.40232243 79.61631598
v -19.66981490 -3.40232243 26.81088775
v -19.52600424 -4.28105473 26.81088775
v -19.42054173 -4.77133415 26.81088775
v -19.51641647 -4.33102551 26.81088775
v -19.50819880 -4.36968216 26.81088775
f 1 2 3
f 1 3 12
f 1 12 4
f 1 4 13
f 1 13 22
f 1 22 23
f 1 23 14
f 1 14 5
f 1 5 2
f 2 5 15
f 2 15 25
f 2 25 39
f 2 39 52
f 2 52 66
f 2 66 77
f 2 77 84
f 2 84 78
f 2 78 67
f 2 67 55
f 2 55 40
f 2 40 26
f 2 26 16
f 2 16 10
f 2 10 9
f 2 9 8
f 2 8 7
f 2 7 6
f 2 6 3
f 3 6 7
f 3 7 8
f 3 8 9
f 3 9 10
f 3 10 11
f 3 11 17
f 3 17 28
f 3 28 42
f 3 42 46
f 3 46 30
f 3 30 18
f 3 18 12
f 4 12 18
f 4 18 29
f 4 29 43
f 4 43 58
f 4 58 74
f 4 74 73
f 4 73 72
f 4 72 81
f 4 81 80
f 4 80 79
f 4 79 87
f 4 87 89
f 4 89 88
f 4 88 86
f 4 86 85
f 4 85 82
f 4 82 75
f 4 75 61
f 4 61 49
f 4 49 34
f 4 34 19
f 4 19 13
f 5 14 15
f 10 16 17
f 10 17 11
f 13 19 20
f 13 20 21
f 13 21 22
f 14 23 15
f 15 23 24
f 15 24 25
f 16 26 27
f 16 27 28
f 16 28 17
f 18 30 31
f 18 31 32
f 18 32 33
f 18 33 29
f 19 34 20
f 20 34 35
f 20 35 36
f 20 36 21
f 21 36 24
f 21 24 23
f 21 23 22
f 24 37 39
f 24 39 25
f 24 36 35
f 24 35 38
f 24 38 53
f 24 53 37
f 26 40 41
f 26 41 27
f 27 41 42
f 27 42 28
f 29 33 44
f 29 44 45
f 29 45 43
f 30 46 31
f 31 46 42
f 31 42 41
f 31 41 44
f 31 44 33
f 31 33 32
f 34 47 48
f 34 48 35
f 34 49 50
f 34 50 47
f 35 48 53
f 35 53 38
f 37 51 52
f 37 52 39
f 37 53 48
f 37 48 54
f 37 54 50
f 37 50 51
f 40 55 56
f 40 56 57
f 40 57 41
f 41 57 45
f 41 45 44
f 43 45 57
f 43 57 58
f 47 50 54
f 47 54 48
f 49 59 60
f 49 60 50
f 49 61 62
f 49 62 63
f 49 63 64
f 49 64 51
f 49 51 59
f 50 60 59
f 50 59 51
f 51 64 65
f 51 65 52
f 52 65 66
f 55 67 68
f 55 68 69
f 55 69 56
f 56 70 57
f 56 69 71
f 56 71 72
f 56 72 73
f 56 73 70
f 57 70 58
f 58 70 74
f 61 75 63
f 61 63 62
f 63 75 76
f 63 76 64
f 64 76 65
f 65 76 66
f 66 76 77
f 67 78 79
f 67 79 68
f 68 79 80
f 68 80 69
f 69 80 81
f 69 81 72
f 69 72 71
f 70 73 74
f 75 82 83
f 75 83 76
f 76 83 77
f 77 83 82
f 77 82 85
f 77 85 86
f 77 86 84
f 78 84 87
f 78 87 79
f 84 86 88
f 84 88 89
f 84 89 87

