# https://github.com/mikedh/trimesh
v 0.02723757 -0.38392786 26.81028815
v 0.02723757 -19.92747329 26.81028815
v 0.02723757 -0.38392786 20.69494888
v -19.04684199 -0.38392786 26.81028815
v 0.02723757 -20.08552076 24.81494563
v -0.48726036 -19.92747329 26.81028815
v -6.31991340 -23.11805366 25.24538408
v -5.71004473 -24.37502396 24.42521607
v -5.52432381 -24.49109093 23.84331558
v -5.59961600 -25.17514167 20.69494888
v 0.02723757 -20.08799012 20.69494888
v -20.08838596 -0.38392786 20.69494888
v -19.92776195 -0.38392786 26.80789411
v -19.92776195 -0.43578724 26.81028815
v 0.02723757 -20.14478820 23.84331558
v -1.40833814 -19.88549134 26.81028815
v -7.29118500 -23.16003705 25.21964195
v -6.13419176 -24.37502396 24.42521607
v -7.10295490 -25.61223941 20.69494888
v -6.27222803 -25.60730070 20.69494888
v -5.91584420 -25.39986320 20.69494888
v -25.17564178 -5.59949099 20.69494888
v -20.14360105 -0.38392786 23.84331558
v -20.08587605 -0.38392786 24.81494563
v -24.49048165 -5.52540597 23.84331558
v -24.37503455 -5.71061781 24.42521607
v -23.11765003 -6.31811271 25.25137137
v -19.92776195 -0.48764661 26.81028815
v -1.45853341 -19.88302343 26.81028815
v -7.29118500 -22.67601575 25.41121329
v -8.26245732 -22.51056020 25.36990625
v -8.90495335 -22.40684146 25.32919736
v -9.55246775 -22.26608092 25.26514038
v -8.26245732 -22.99704942 25.08733805
v -8.26245732 -23.56503172 24.60182210
v -7.29118500 -23.72555000 24.73352785
v -2.37961046 -19.79905953 26.81028815
v -2.43231492 -19.79412082 26.81028815
v -3.35088279 -19.67558593 26.81028815
v -6.78170688 -24.29106296 24.31326662
v -8.93506936 -25.45172113 20.69494888
v -25.39901060 -5.91558595 20.69494888
v -20.13858123 -0.38392786 23.94568740
v -25.60731998 -6.27119205 20.69494888
v -25.61233979 -7.10341066 20.69494888
v -24.37503455 -6.13537022 24.42521607
v -23.90571207 -6.40207516 24.73592189
v -23.16282549 -7.29109186 25.22024010
v -19.88509640 -1.40876566 26.81028815
v -3.40358724 -19.66817642 26.81028815
v -4.28701784 -19.52494652 26.81028815
v -4.37485957 -19.50765958 26.81028815
v -4.77641886 -19.42122778 26.81028815
v -5.24825125 -19.30516225 26.81028815
v -5.31350453 -19.28787531 26.81028815
v -6.26720894 -19.01376230 26.81028815
v -7.30875364 -18.65568540 26.81028815
v -6.31991340 -18.99647536 26.81028815
v -7.33385127 -18.64580797 26.81028815
v -7.75799830 -18.46553484 26.81028815
v -10.89016283 -21.47090482 25.34176863
v -11.53767795 -21.30050912 25.26933032
v -10.20751188 -22.11050280 25.16336815
v -10.20751188 -22.69824140 24.67725405
v -9.28643483 -22.85628888 24.86164181
v -9.02040118 -23.42920990 24.45754364
v -9.66791631 -23.30326550 24.27435363
v -11.63304796 -24.26389859 20.69494888
v -25.45171724 -8.93577206 20.69494888
v -24.28970345 -6.78237699 24.31326662
v -23.56438478 -8.26160093 24.60182210
v -23.72501024 -7.29109186 24.73412600
v -22.99718311 -8.26160093 25.08733805
v -22.26433617 -9.55314511 25.26514038
v -22.40739226 -8.90366898 25.32919736
v -22.51029272 -8.26160093 25.36990625
v -22.67593509 -7.29109186 25.41121329
v -19.67678703 -3.35225460 26.81028815
v -19.79725539 -2.43113483 26.81028815
v -19.80227376 -2.37927545 26.81028815
v -19.88258649 -1.45815568 26.81028815
v -8.22983069 -18.25068928 26.81028815
v -9.28141501 -17.74444377 26.81028815
v -9.73065967 -17.50737256 26.81028815
v -12.73984593 -20.47076203 25.32919736
v -13.38485187 -20.25097631 25.22682553
v -12.15005653 -21.12270679 25.15079543
v -12.15005653 -21.73020024 24.66468133
v -11.27666412 -21.91047337 24.88738394
v -11.01565029 -22.51056020 24.50543756
v -11.66316469 -22.35251273 24.32703708
v -14.78779949 -22.55747942 20.69494888
v -24.26460436 -11.63245588 20.69494888
v -23.30337167 -9.66921064 24.27435363
v -23.42885841 -9.02220459 24.45754364
v -22.85412701 -9.28644017 24.86164181
v -22.11124188 -10.20755922 25.16336815
v -21.30059357 -11.53614520 25.26933032
v -21.46874585 -10.88913915 25.34176863
v -22.69601291 -10.20755922 24.67725405
v -18.46708932 -7.75782550 26.81028815
v -18.64528124 -7.33307308 26.81028815
v -18.65532088 -7.30837808 26.81028815
v -18.99413536 -6.31811271 26.81028815
v -19.00919481 -6.26625334 26.81028815
v -19.28526736 -5.31302976 26.81028815
v -19.30283528 -5.24635353 26.81028815
v -19.42079374 -4.77221182 26.81028815
v -19.50863474 -4.37215441 26.81028815
v -19.52620265 -4.28325253 26.81028815
v -19.66925875 -3.40411398 26.81028815
v -10.15229679 -17.25795456 26.81028815
v -11.00310147 -16.72948340 26.81028815
v -11.48999259 -16.40104166 26.81028815
v -13.86421253 -19.60149946 25.36032718
v -14.51172838 -19.38418454 25.28309933
v -14.15032473 -19.92500393 25.08554071
v -14.09259973 -20.64856436 24.55931731
v -13.12885713 -20.89798235 24.85565452
v -12.87286239 -21.52276420 24.48388537
v -13.52037824 -21.32767348 24.19832353
v -14.64725475 -20.46088316 24.38690267
v -17.63134337 -20.54731497 20.69494888
v -22.55546817 -14.78599446 20.69494888
v -22.35217862 -11.66208960 24.32703708
v -22.51029272 -11.01508283 24.50543756
v -21.91046224 -11.27684905 24.88738394
v -21.12240165 -12.15104817 25.15079543
v -20.24900996 -13.38579426 25.22682553
v -20.46986743 -12.74125613 25.32919736
v -21.72976041 -12.15104817 24.66468133
v -17.50585663 -9.73094816 26.81028815
v -17.74428201 -9.28150074 26.81028815
v -18.25125167 -8.22949785 26.81028815
v -12.20025035 -15.87997857 26.81028815
v -15.57586008 -18.48529114 25.31063881
v -15.06387205 -19.16934042 25.14480960
v -15.00865841 -19.90524763 24.62756423
v -15.71389636 -19.56939638 24.46293277
v -16.73285405 -18.65568540 24.50543756
v -17.38287836 -18.35934674 24.09415581
v -18.63022324 -19.60149946 20.69494888
v -20.54766880 -17.63084760 20.69494888
v -20.45982925 -14.64770328 24.38690267
v -21.32820111 -13.52161609 24.19832353
v -21.52396094 -12.87460859 24.48388537
v -20.89903427 -13.12896675 24.85565452
v -19.92525204 -14.14886584 25.08554071
v -19.38314656 -14.51188145 25.28309933
v -20.65056926 -14.09206775 24.55931731
v -19.60149556 -13.86240460 25.36032718
v -16.39905794 -11.48922526 26.81028815
v -16.72783423 -11.00520468 26.81028815
v -17.24484208 -10.17298679 26.81028815
v -12.62941719 -15.54412877 26.81028815
v -16.22337593 -18.19142184 25.15318948
v -13.15646467 -15.08974118 26.81028815
v -13.66594280 -14.63535505 26.81028815
v -16.57473995 -17.54194644 25.32081603
v -15.96989110 -18.89522597 24.80836020
v -16.97880915 -17.95188127 24.83649782
v -17.71165465 -17.71234070 24.51980472
v -18.35917050 -17.38142816 24.09415581
v -19.60149556 -18.63099039 20.69494888
v -18.65532088 -16.73442211 24.50543756
v -19.56886820 -15.71452302 24.46293277
v -19.90517422 -15.00824809 24.62756423
v -19.16981881 -15.06504762 25.14480960
v -18.48716714 -15.57623184 25.31063881
v -15.85946236 -12.22513319 26.81028815
v -15.87954018 -12.19796883 26.81028815
v -17.22225435 -17.22338068 25.16815624
v -14.13526528 -14.20566392 26.81028815
v -17.54350236 -16.57390528 25.32081603
v -17.95259139 -16.97890139 24.83649782
v -18.19101676 -16.22323789 25.15318948
v -18.89374626 -15.96888118 24.80836020
v -14.63721512 -13.66731534 26.81028815
v -15.08896969 -13.15613112 26.81028815
v -15.54574407 -12.62765995 26.81028815
v -14.20553837 -14.13404970 26.81028815
f 1 2 5
f 1 5 15
f 1 15 11
f 1 11 3
f 1 3 12
f 1 12 23
f 1 23 43
f 1 43 24
f 1 24 13
f 1 13 4
f 1 4 14
f 1 14 28
f 1 28 49
f 1 49 81
f 1 81 80
f 1 80 79
f 1 79 78
f 1 78 111
f 1 111 110
f 1 110 109
f 1 109 108
f 1 108 107
f 1 107 106
f 1 106 105
f 1 105 104
f 1 104 103
f 1 103 102
f 1 102 101
f 1 101 134
f 1 134 133
f 1 133 132
f 1 132 154
f 1 154 153
f 1 153 152
f 1 152 171
f 1 171 170
f 1 170 180
f 1 180 179
f 1 179 178
f 1 178 181
f 1 181 173
f 1 173 158
f 1 158 157
f 1 157 155
f 1 155 135
f 1 135 114
f 1 114 113
f 1 113 112
f 1 112 84
f 1 84 83
f 1 83 82
f 1 82 60
f 1 60 59
f 1 59 57
f 1 57 58
f 1 58 56
f 1 56 55
f 1 55 54
f 1 54 53
f 1 53 52
f 1 52 51
f 1 51 50
f 1 50 39
f 1 39 38
f 1 38 37
f 1 37 29
f 1 29 16
f 1 16 6
f 1 6 2
f 2 6 7
f 2 7 8
f 2 8 9
f 2 9 10
f 2 10 5
f 3 11 10
f 3 10 21
f 3 21 20
f 3 20 19
f 3 19 41
f 3 41 68
f 3 68 92
f 3 92 123
f 3 123 142
f 3 142 164
f 3 164 143
f 3 143 124
f 3 124 93
f 3 93 69
f 3 69 45
f 3 45 44
f 3 44 42
f 3 42 22
f 3 22 12
f 4 13 14
f 5 10 15
f 6 16 17
f 6 17 7
f 7 17 8
f 8 17 18
f 8 18 19
f 8 19 20
f 8 20 9
f 9 20 21
f 9 21 10
f 10 11 15
f 12 22 23
f 13 24 22
f 13 22 25
f 13 25 26
f 13 26 27
f 13 27 14
f 14 27 28
f 16 29 17
f 17 30 31
f 17 31 32
f 17 32 33
f 17 33 34
f 17 34 35
f 17 35 36
f 17 36 18
f 17 29 37
f 17 37 38
f 17 38 39
f 17 39 30
f 18 36 35
f 18 35 40
f 18 40 41
f 18 41 19
f 22 42 25
f 22 24 43
f 22 43 23
f 25 42 44
f 25 44 26
f 26 44 45
f 26 45 46
f 26 46 47
f 26 47 27
f 27 47 48
f 27 48 28
f 28 48 49
f 30 39 50
f 30 50 51
f 30 51 52
f 30 52 53
f 30 53 54
f 30 54 55
f 30 55 56
f 30 56 31
f 31 57 32
f 31 56 58
f 31 58 57
f 32 57 59
f 32 59 60
f 32 60 61
f 32 61 33
f 33 61 62
f 33 62 63
f 33 63 64
f 33 64 65
f 33 65 34
f 34 65 35
f 35 65 66
f 35 66 40
f 40 66 67
f 40 67 41
f 41 67 68
f 45 69 46
f 46 70 71
f 46 71 72
f 46 72 48
f 46 48 47
f 46 69 70
f 48 73 74
f 48 74 75
f 48 75 76
f 48 76 77
f 48 77 78
f 48 78 79
f 48 79 80
f 48 80 81
f 48 81 49
f 48 72 71
f 48 71 73
f 60 82 61
f 61 83 84
f 61 84 85
f 61 85 62
f 61 82 83
f 62 85 86
f 62 86 87
f 62 87 88
f 62 88 89
f 62 89 63
f 63 90 64
f 63 89 90
f 64 90 66
f 64 66 65
f 66 90 67
f 67 90 91
f 67 91 68
f 68 91 92
f 69 93 94
f 69 94 70
f 70 94 95
f 70 95 71
f 71 95 96
f 71 96 73
f 73 96 74
f 74 97 98
f 74 98 99
f 74 99 75
f 74 96 100
f 74 100 97
f 75 99 101
f 75 101 102
f 75 102 103
f 75 103 76
f 76 103 104
f 76 104 77
f 77 104 105
f 77 105 106
f 77 106 107
f 77 107 108
f 77 108 109
f 77 109 110
f 77 110 111
f 77 111 78
f 84 112 85
f 85 112 113
f 85 113 114
f 85 114 115
f 85 115 116
f 85 116 86
f 86 116 117
f 86 117 118
f 86 118 119
f 86 119 87
f 87 120 88
f 87 119 120
f 88 120 91
f 88 91 90
f 88 90 89
f 91 120 121
f 91 121 92
f 92 121 122
f 92 122 123
f 93 124 125
f 93 125 94
f 94 125 126
f 94 126 95
f 95 126 100
f 95 100 96
f 97 100 126
f 97 126 127
f 97 127 98
f 98 128 129
f 98 129 130
f 98 130 99
f 98 127 131
f 98 131 128
f 99 130 132
f 99 132 133
f 99 133 134
f 99 134 101
f 114 135 115
f 115 135 116
f 116 136 137
f 116 137 117
f 116 135 136
f 117 137 138
f 117 138 118
f 118 138 122
f 118 122 120
f 118 120 119
f 120 122 121
f 122 138 139
f 122 139 123
f 123 139 140
f 123 140 141
f 123 141 142
f 124 143 144
f 124 144 145
f 124 145 125
f 125 145 146
f 125 146 131
f 125 131 126
f 126 131 127
f 128 131 146
f 128 146 147
f 128 147 129
f 129 148 149
f 129 149 130
f 129 147 150
f 129 150 148
f 130 149 151
f 130 151 152
f 130 152 153
f 130 153 154
f 130 154 132
f 135 155 136
f 136 156 137
f 136 155 157
f 136 157 158
f 136 158 159
f 136 159 156
f 137 156 160
f 137 160 139
f 137 139 138
f 139 160 140
f 140 161 162
f 140 162 141
f 140 160 156
f 140 156 161
f 141 162 163
f 141 163 164
f 141 164 142
f 143 164 163
f 143 163 165
f 143 165 166
f 143 166 144
f 144 150 146
f 144 146 145
f 144 166 167
f 144 167 150
f 146 150 147
f 148 150 167
f 148 167 168
f 148 168 149
f 149 168 169
f 149 169 170
f 149 170 151
f 151 170 171
f 151 171 152
f 156 159 172
f 156 172 161
f 158 173 159
f 159 174 172
f 159 173 174
f 161 172 162
f 162 172 175
f 162 175 165
f 162 165 163
f 165 175 176
f 165 176 177
f 165 177 166
f 166 177 168
f 166 168 167
f 168 177 176
f 168 176 169
f 169 176 174
f 169 174 178
f 169 178 179
f 169 179 180
f 169 180 170
f 172 174 176
f 172 176 175
f 173 181 174
f 174 181 178

