# https://github.com/mikedh/trimesh
v 15.27467264 -25.31799645 13.00402142
v 15.27467264 -32.07831414 13.00402142
v 15.27467264 -25.31799645 12.18473397
v 4.91621062 -25.31799645 13.00402142
v 14.93088614 -32.23820386 13.00402142
v 14.93238079 -32.23820386 12.18473397
v 15.27467264 -32.07831414 12.18473397
v 4.91621062 -25.31799645 12.18473397
v 0.00453543 -29.89982361 12.18473397
v 0.00453543 -29.90282159 12.58848310
v 0.00453543 -29.90681891 13.00402142
v 14.80383234 -32.29616203 13.00402142
v 14.09234207 -32.61294348 12.18473397
v 0.00453543 -35.52492690 12.18473397
v 0.00453543 -35.52592334 13.00402142
v 14.09234207 -32.61294348 13.00402142
v 13.32853765 -32.93471868 13.00402142
v 13.32554691 -32.93572091 12.18473397
v 0.48733292 -35.52492690 12.18473397
v 0.48733292 -35.52492690 13.00402142
v 12.84275087 -33.12758625 13.00402142
v 12.84125622 -33.12658692 12.18473397
v 1.45890576 -35.49894435 12.18473397
v 1.45890576 -35.49894435 13.00402142
v 12.14919710 -33.38540730 13.00402142
v 12.14919710 -33.38540730 12.18473397
v 2.43047861 -35.44498060 12.18473397
v 2.43047861 -35.44498060 13.00402142
v 11.99972430 -33.43737240 13.00402142
v 11.17612960 -33.72417398 12.18473397
v 3.40205146 -35.36403786 12.18473397
v 3.40205146 -35.36403786 13.00402142
v 11.17612960 -33.72317466 13.00402142
v 11.06850913 -33.75814827 13.00402142
v 10.46762863 -33.95101584 13.00402142
v 10.46613398 -33.95201517 12.18473397
v 4.37511895 -35.25710967 12.18473397
v 4.22564615 -35.27309893 13.00402142
v 10.05657860 -34.07393039 13.00402142
v 9.98184184 -34.09591562 12.18473397
v 5.34669180 -35.12220317 12.18473397
v 5.19721900 -35.14218975 13.00402142
v 4.37511895 -35.25611034 13.00402142
v 9.98184184 -34.09591562 13.00402142
v 9.86824277 -34.12789415 13.00402142
v 9.23298391 -34.30576889 12.18473397
v 5.99390893 -35.01827587 12.18473397
v 5.89525671 -35.03426513 13.00402142
v 5.34669180 -35.12120384 13.00402142
v 9.23298391 -34.30576889 13.00402142
v 8.26141034 -34.55359954 12.18473397
v 6.48268465 -34.93033783 12.18473397
v 6.47969536 -34.93133716 13.00402142
v 6.06864534 -35.00528459 13.00402142
v 5.99390893 -35.01827587 13.00402142
v 8.26141034 -34.55359954 13.00402142
v 7.28983749 -34.77144744 12.18473397
v 7.28983749 -34.77144744 13.00402142
f 1 2 7
f 1 7 3
f 1 3 8
f 1 8 4
f 1 4 11
f 1 11 15
f 1 15 20
f 1 20 24
f 1 24 28
f 1 28 32
f 1 32 38
f 1 38 43
f 1 43 42
f 1 42 49
f 1 49 48
f 1 48 55
f 1 55 54
f 1 54 53
f 1 53 58
f 1 58 56
f 1 56 50
f 1 50 45
f 1 45 44
f 1 44 39
f 1 39 35
f 1 35 34
f 1 34 33
f 1 33 29
f 1 29 25
f 1 25 21
f 1 21 17
f 1 17 16
f 1 16 12
f 1 12 5
f 1 5 2
f 2 5 6
f 2 6 7
f 3 7 6
f 3 6 13
f 3 13 18
f 3 18 22
f 3 22 26
f 3 26 30
f 3 30 36
f 3 36 40
f 3 40 46
f 3 46 51
f 3 51 57
f 3 57 52
f 3 52 47
f 3 47 41
f 3 41 37
f 3 37 31
f 3 31 27
f 3 27 23
f 3 23 19
f 3 19 14
f 3 14 9
f 3 9 8
f 4 8 9
f 4 9 10
f 4 10 11
f 5 12 6
f 6 12 13
f 9 14 15
f 9 15 11
f 9 11 10
f 12 16 13
f 13 16 17
f 13 17 18
f 14 19 15
f 15 19 20
f 17 21 18
f 18 21 22
f 19 23 24
f 19 24 20
f 21 25 26
f 21 26 22
f 23 27 28
f 23 28 24
f 25 29 30
f 25 30 26
f 27 31 32
f 27 32 28
f 29 33 30
f 30 33 34
f 30 34 35
f 30 35 36
f 31 37 32
f 32 37 38
f 35 39 36
f 36 39 40
f 37 41 42
f 37 42 43
f 37 43 38
f 39 44 40
f 40 45 46
f 40 44 45
f 41 47 48
f 41 48 49
f 41 49 42
f 45 50 46
f 46 50 56
f 46 56 51
f 47 52 53
f 47 53 54
f 47 54 55
f 47 55 48
f 51 56 58
f 51 58 57
f 52 57 53
f 53 57 58

