# https://github.com/mikedh/trimesh
v -24.99010841 4.92822112 15.64563859
v -20.09199657 0.00139596 15.64563859
v -24.99010841 4.92822112 16.55719739
v -24.99010841 25.24726673 15.64563859
v -20.00405853 0.00139596 15.64563859
v -20.09199657 0.00139596 16.55719739
v -24.98415879 4.92822112 17.35565535
v -24.98415879 4.93120535 17.46519338
v -24.99010841 25.24726673 16.55719739
v -20.09133615 0.00736441 17.46519338
v -24.98415879 25.25622014 16.55737409
v -24.87770564 25.36066593 16.55737409
v -24.63703250 25.59342845 15.64563859
v -18.23536959 0.00736441 16.55737409
v -20.00405853 0.00139596 16.55719739
v -20.00405853 29.35643741 15.64563859
v -24.98415879 25.25622014 17.46519338
v -18.23536959 0.00736441 17.46519338
v -24.63703250 25.59342845 17.46519338
v -24.34742990 25.86797160 17.46519338
v -24.12328478 26.07984379 15.64563859
v -18.23536959 30.48742856 16.55737409
v -20.35647402 29.11472149 15.64563859
v -20.35647402 29.11770499 16.55737409
v -20.11183253 29.28481595 16.55737409
v -19.87115938 29.44894340 16.55737409
v -19.13260757 29.93237525 16.55737409
v -18.88796608 30.08755219 16.55737409
v -18.64663106 30.23974563 16.55737409
v -18.23536959 30.48444505 17.46519338
v -24.12262436 26.07984379 17.46519338
v -24.12328478 26.07984379 16.06811138
v -23.63730972 26.51851440 15.64563859
v -18.64663106 30.23974563 17.46519338
v -18.27239689 30.46355473 17.46519338
v -20.89732962 28.72379853 15.64563859
v -20.59318027 28.94761053 17.46519338
v -20.35647402 29.11770499 17.46519338
v -20.89732962 28.72678203 16.55737409
v -19.87115938 29.44894340 17.46519338
v -19.13260757 29.93237525 17.46519338
v -23.63664784 26.51851440 17.46519338
v -23.63730972 26.51851440 16.55737409
v -23.08322967 27.00492975 15.64563859
v -21.24048756 28.47312920 15.64563859
v -20.89732962 28.72678203 17.46519338
v -21.50562543 28.27916092 16.55737409
v -23.32456614 26.79305755 17.46519338
v -23.08256924 27.00492975 17.46519338
v -22.59659273 27.41375952 17.46519338
v -22.59659273 27.41375952 16.55737409
v -22.59659273 27.41077602 15.64563859
v -21.50562543 28.27617742 15.64563859
v -21.50562543 28.27916092 17.46519338
v -21.71588567 28.11204996 15.64563859
v -21.99027964 27.89719137 15.64563859
v -21.98961922 27.89719137 17.46519338
v -21.99027964 27.89719137 16.55719739
f 1 2 6
f 1 6 3
f 1 3 9
f 1 9 4
f 1 4 13
f 1 13 21
f 1 21 33
f 1 33 44
f 1 44 52
f 1 52 56
f 1 56 55
f 1 55 53
f 1 53 45
f 1 45 36
f 1 36 23
f 1 23 16
f 1 16 5
f 1 5 2
f 2 5 15
f 2 15 6
f 3 7 8
f 3 8 17
f 3 17 9
f 3 6 10
f 3 10 7
f 4 9 17
f 4 17 11
f 4 11 12
f 4 12 13
f 5 14 18
f 5 18 15
f 5 16 22
f 5 22 14
f 6 15 18
f 6 18 10
f 7 10 8
f 8 10 18
f 8 18 30
f 8 30 35
f 8 35 34
f 8 34 41
f 8 41 40
f 8 40 38
f 8 38 37
f 8 37 46
f 8 46 54
f 8 54 57
f 8 57 50
f 8 50 49
f 8 49 48
f 8 48 42
f 8 42 31
f 8 31 20
f 8 20 19
f 8 19 17
f 11 17 12
f 12 17 19
f 12 19 13
f 13 19 20
f 13 20 21
f 14 22 30
f 14 30 18
f 16 23 24
f 16 24 25
f 16 25 26
f 16 26 27
f 16 27 28
f 16 28 29
f 16 29 22
f 20 31 32
f 20 32 21
f 21 32 43
f 21 43 33
f 22 29 34
f 22 34 35
f 22 35 30
f 23 36 39
f 23 39 24
f 24 37 38
f 24 38 25
f 24 39 37
f 25 38 40
f 25 40 26
f 26 40 41
f 26 41 27
f 27 41 28
f 28 34 29
f 28 41 34
f 31 42 43
f 31 43 32
f 33 43 44
f 36 45 39
f 37 39 46
f 39 45 47
f 39 47 54
f 39 54 46
f 42 48 43
f 43 48 44
f 44 48 49
f 44 49 50
f 44 50 51
f 44 51 52
f 45 53 47
f 47 53 55
f 47 55 56
f 47 56 58
f 47 58 54
f 50 57 58
f 50 58 56
f 50 56 51
f 51 56 52
f 54 58 57

