# https://github.com/mikedh/trimesh
v 24.15051736 25.76680766 19.27023037
v 23.69932183 25.76680766 19.91888169
v 24.46245279 25.43019894 19.64617209
v 24.53486792 25.49950022 19.27023037
v 25.14481769 25.06333808 18.37700418
v 5.07778110 25.76680766 19.27023037
v 23.50157638 25.76680766 20.05001681
v 23.72995778 25.68375619 19.95903733
v 23.99454674 24.97423850 20.29413981
v 24.71868649 24.71958055 19.97038333
v 25.42890226 24.46492259 19.64639803
v 25.08911307 25.06333808 18.98390673
v 25.09189671 25.06333808 18.96416926
v 4.93852317 25.06333808 18.37700418
v 25.54866241 24.59252675 18.98390673
v 25.57651617 24.61947676 18.37700418
v 0.78028834 20.14786254 18.37700418
v 0.78028834 20.14786254 18.98390673
v 0.78307343 20.14786254 19.27023037
v 5.43985097 25.76680766 20.04117058
v 23.34282213 25.28884460 20.44841880
v 22.83870852 25.76680766 20.39306178
v 24.32598212 24.32632003 20.45068685
v 24.97213656 23.99576232 20.29436864
v 25.68235233 23.73450590 19.95971803
v 26.37307105 23.47379838 19.62484439
v 25.49853086 24.53752600 19.27023037
v 26.03606550 24.07881379 18.98390673
v 26.06113272 24.10631416 18.37700418
v 29.23342248 20.14786254 18.37700418
v 28.99668292 20.14786254 19.27023037
v 1.91941605 20.44596958 20.69458391
v 5.51783555 25.76680766 20.13668614
v 22.83870852 25.51930142 20.47609876
v 23.72438761 24.70417930 20.47496330
v 22.17027194 25.76680766 20.50309802
v 24.70197598 23.72790453 20.47496330
v 25.28685853 23.34784529 20.44841880
v 26.23102732 22.34626868 20.44047921
v 26.00542811 22.84073225 20.31388018
v 26.70728717 22.80333128 19.82018855
v 27.29216972 22.45462200 19.57629149
v 26.47612068 23.59260120 18.98390673
v 26.33686348 23.80325683 18.37700418
v 29.10251909 20.33871697 18.37700418
v 29.08023840 20.30516704 18.98390673
v 29.20278798 20.14786254 18.77404188
v 29.02175015 20.14786254 19.23256871
v 28.50928273 20.44596958 19.83697728
v 27.88262244 20.44596958 20.32000650
v 27.42307311 20.44596958 20.47859564
v 26.74349473 20.44596958 20.53145869
v 25.75476457 20.44596958 20.56367473
v 17.64439706 20.44596958 20.69458391
v 5.60139031 25.17554099 20.69458391
v 5.80749174 25.76680766 20.48767070
v 22.83870852 24.78393153 20.53690141
v 23.81072817 23.81150781 20.53894351
v 21.95024435 25.76680766 20.51580253
v 24.77996128 22.84073225 20.53690141
v 25.52081155 22.84073225 20.47609876
v 26.45941016 21.69835310 20.47814087
v 27.34508780 20.62032494 20.47315002
v 27.10835114 21.26824197 20.42051291
v 26.76020525 21.96070879 20.29777215
v 27.65145306 21.78250528 19.72739291
v 26.96352088 23.03653698 18.98390673
v 28.19734730 21.40134533 19.49007693
v 27.33394746 22.50522280 19.27023037
v 26.98858810 23.06678768 18.37700418
v 26.68500648 23.41219628 18.37700418
v 26.50118790 23.62120228 18.37700418
v 28.86021226 20.67477678 18.37700418
v 29.18607457 20.14786254 18.98390673
v 28.65132646 20.89698261 18.98390673
v 28.38116588 20.89698261 19.68201758
v 27.67930681 20.92503334 20.20996736
v 26.76020525 20.92503334 20.50718224
v 25.75476457 20.89698261 20.56185856
v 17.63047018 20.54882224 20.69458391
v 5.91611227 25.39994680 20.69458391
v 6.27261197 25.60840390 20.69458391
v 6.26147163 25.76680766 20.59974905
v 20.89467067 25.76680766 20.56140669
v 20.89467067 25.75580635 20.56185856
v 21.86669032 24.78393153 20.56390067
v 22.83870852 23.81150781 20.56435543
v 23.81072817 22.84073225 20.56435543
v 24.77996128 21.86885743 20.56390067
v 25.84667675 21.96070879 20.51194715
v 27.24482181 22.76373034 18.37700418
v 27.37293866 22.55197401 18.98390673
v 28.21684145 21.42609537 19.27023037
v 27.85755811 21.94475863 18.98390673
v 28.69867437 20.89698261 18.37700418
v 28.23912214 21.45909640 18.98390673
v 14.78961291 22.55802502 20.69458391
v 7.10258789 25.61115277 20.69458391
v 7.29197881 25.76680766 20.60814342
v 19.92265247 25.76680766 20.56549090
v 8.93800448 25.45329937 20.69458391
v 11.63403367 24.26526827 20.69458391
v 27.39800588 22.58167580 18.37700418
v 27.88262244 21.97555968 18.37700418
v 28.26418937 21.48934710 18.37700418
v 7.30311915 25.76680766 20.60814342
f 1 2 3
f 1 3 4
f 1 4 5
f 1 5 14
f 1 14 6
f 1 6 20
f 1 20 33
f 1 33 56
f 1 56 83
f 1 83 99
f 1 99 106
f 1 106 100
f 1 100 84
f 1 84 59
f 1 59 36
f 1 36 22
f 1 22 7
f 1 7 2
f 2 7 8
f 2 8 3
f 3 8 9
f 3 9 10
f 3 10 11
f 3 11 12
f 3 12 4
f 4 12 13
f 4 13 5
f 5 13 15
f 5 15 16
f 5 16 29
f 5 29 44
f 5 44 72
f 5 72 71
f 5 71 70
f 5 70 91
f 5 91 103
f 5 103 104
f 5 104 105
f 5 105 95
f 5 95 73
f 5 73 45
f 5 45 30
f 5 30 17
f 5 17 14
f 6 14 17
f 6 17 18
f 6 18 19
f 6 19 20
f 7 21 9
f 7 9 8
f 7 22 21
f 9 23 24
f 9 24 10
f 9 21 23
f 10 24 11
f 11 24 25
f 11 25 26
f 11 26 27
f 11 27 12
f 12 27 15
f 12 15 13
f 15 27 28
f 15 28 16
f 16 28 29
f 17 30 47
f 17 47 74
f 17 74 48
f 17 48 31
f 17 31 19
f 17 19 18
f 19 31 54
f 19 54 32
f 19 32 20
f 20 32 33
f 21 22 34
f 21 34 35
f 21 35 23
f 22 36 34
f 23 35 37
f 23 37 38
f 23 38 24
f 24 38 39
f 24 39 40
f 24 40 25
f 25 40 26
f 26 28 27
f 26 40 41
f 26 41 42
f 26 42 43
f 26 43 28
f 28 44 29
f 28 43 44
f 30 45 46
f 30 46 47
f 31 48 49
f 31 49 50
f 31 50 51
f 31 51 52
f 31 52 53
f 31 53 54
f 32 55 56
f 32 56 33
f 32 54 80
f 32 80 97
f 32 97 102
f 32 102 101
f 32 101 98
f 32 98 82
f 32 82 81
f 32 81 55
f 34 36 57
f 34 57 35
f 35 57 58
f 35 58 37
f 36 59 57
f 37 60 61
f 37 61 38
f 37 58 60
f 38 61 39
f 39 61 62
f 39 62 63
f 39 63 64
f 39 64 65
f 39 65 40
f 40 65 41
f 41 65 66
f 41 66 42
f 42 67 43
f 42 66 68
f 42 68 69
f 42 69 67
f 43 67 70
f 43 70 71
f 43 71 72
f 43 72 44
f 45 73 46
f 46 74 47
f 46 73 75
f 46 75 68
f 46 68 74
f 48 74 49
f 49 74 76
f 49 76 77
f 49 77 50
f 50 77 64
f 50 64 63
f 50 63 51
f 51 63 78
f 51 78 52
f 52 79 53
f 52 78 60
f 52 60 79
f 53 79 80
f 53 80 54
f 55 81 56
f 56 81 82
f 56 82 83
f 57 59 84
f 57 84 85
f 57 85 86
f 57 86 58
f 58 86 87
f 58 87 88
f 58 88 89
f 58 89 79
f 58 79 60
f 60 78 90
f 60 90 61
f 61 90 62
f 62 90 78
f 62 78 63
f 64 77 65
f 65 77 66
f 66 77 76
f 66 76 68
f 67 91 70
f 67 69 92
f 67 92 91
f 68 93 94
f 68 94 92
f 68 92 69
f 68 76 74
f 68 75 93
f 73 95 75
f 75 95 96
f 75 96 93
f 79 89 80
f 80 89 88
f 80 88 87
f 80 87 86
f 80 86 85
f 80 85 97
f 82 98 99
f 82 99 83
f 84 100 98
f 84 98 101
f 84 101 85
f 85 101 102
f 85 102 97
f 91 92 103
f 92 94 104
f 92 104 103
f 93 96 94
f 94 96 104
f 95 105 96
f 96 105 104
f 98 100 106
f 98 106 99

