# https://github.com/mikedh/trimesh
v 24.98973055 -25.25449417 15.64569363
v 24.99282412 -25.25202336 16.55717712
v 24.98973055 -4.92619101 15.64569363
v 24.98973055 -25.25202336 14.73847973
v 25.12481953 -25.12348650 14.73847973
v 25.12481953 -25.12348650 15.64569363
v 25.12585072 -25.12101570 17.46519338
v 25.00210484 -25.24213435 17.46519338
v 24.99282412 -4.92866254 16.55717712
v 29.90867332 -0.00231170 16.55717712
v 29.90764213 -0.00231170 16.06820696
v 24.98973055 -4.92619101 14.73847973
v 25.59815381 -24.63653818 14.73847973
v 25.39190682 -24.84911425 15.64569363
v 25.33209771 -24.90843963 17.46519338
v 25.00210484 -4.93113407 17.46519338
v 29.90970451 -0.00972701 17.46519338
v 35.52163115 -0.00231170 16.55717712
v 29.90764213 -0.00231170 15.64569363
v 29.90661094 -0.00725620 14.73847973
v 25.77758692 -24.44867884 14.73847973
v 25.59815381 -24.63653818 15.64569363
v 25.59815381 -24.63406448 17.46519338
v 35.52163115 -0.00972701 17.46519338
v 35.52369354 -0.00231170 15.64569363
v 35.52472473 -0.00725620 14.73847973
v 26.08282830 -24.12487022 14.73847973
v 26.08282830 -24.12487022 15.64569363
v 26.08489068 -24.12239652 16.55717712
v 26.08489068 -24.11992572 17.46519338
v 35.52163115 -0.49173372 17.46519338
v 35.52266235 -0.00972701 16.55717712
v 35.52369354 -0.48926147 15.64569363
v 35.52369354 -0.48926147 14.73847973
v 26.36125869 -23.81836303 14.73847973
v 26.52419274 -23.63791900 17.46519338
v 35.50822567 -1.03800742 15.64569363
v 35.49378898 -1.46068949 17.46519338
v 35.50616328 -1.10227440 14.73847973
v 26.52316155 -23.63791900 14.73847973
v 26.52419274 -23.63791900 16.55717712
v 26.79746718 -23.32647020 17.46519338
v 35.49585137 -1.46068949 14.73847973
v 35.49585137 -1.46068949 15.64569363
v 35.44016413 -2.43458903 17.46519338
v 26.70156347 -23.43522904 14.73847973
v 27.00990132 -23.08423000 14.73847973
v 27.00990132 -23.08423000 15.64569363
v 27.00887013 -23.08175919 17.46519338
v 35.46491273 -2.01190696 15.64569363
v 35.44119532 -2.43211750 14.73847973
v 35.40510362 -2.85974335 17.46519338
v 35.39685409 -2.98333498 15.64569363
v 35.44119532 -2.43211750 15.64569363
v 27.26667380 -22.77772280 14.73847973
v 27.23986282 -22.80985774 15.64569363
v 27.41723355 -22.59728022 17.46519338
v 35.36179068 -3.40601705 14.73847973
v 35.35972830 -3.40601705 17.46519338
v 35.36179068 -3.40601705 15.09640166
v 27.41620236 -22.59728022 14.73847973
v 27.41723355 -22.59728022 15.09640166
v 27.69153918 -22.25616874 17.46519338
v 35.30198157 -3.95476300 15.64569363
v 35.25557506 -4.37744506 14.73847973
v 35.31332468 -3.83117136 17.46519338
v 27.59563547 -22.37481659 14.73847973
v 27.90397332 -21.99168260 14.73847973
v 27.90397332 -21.99168260 15.64569363
v 27.90397332 -21.98921179 17.46519338
v 35.25557506 -4.37744506 15.64569363
v 35.12254846 -5.34640155 14.73847973
v 35.25248148 -4.37991732 17.46519338
v 35.25351267 -4.37991732 17.03974578
v 28.28243219 -21.50473283 14.73847973
v 28.28243219 -21.50473283 15.64569363
v 28.06999805 -21.77663283 17.46519338
v 35.19576305 -4.80507091 17.46519338
v 35.01839232 -5.99896329 14.73847973
v 35.12048318 -5.35134461 17.46519338
v 35.06892360 -5.68009773 16.55717712
v 35.01839232 -5.99896329 15.64569363
v 28.73204616 -20.89419070 14.73847973
v 28.73204616 -20.89419070 15.64569363
v 28.53508279 -21.16114909 17.46519338
v 28.28243219 -21.50226057 17.46519338
v 34.96992632 -6.27333626 17.46519338
v 34.93176934 -6.48591378 16.55717712
v 34.93073815 -6.48591378 14.73847973
v 35.01736113 -5.99896329 17.46519338
v 35.01736113 -6.00143554 17.03974578
v 28.90219855 -20.66183950 15.64569363
v 29.12184814 -20.35533231 14.73847973
v 28.95169575 -20.59015721 17.46519338
v 34.93176934 -6.48591378 17.46519338
v 34.77296295 -7.29172911 15.64569363
v 34.84102159 -6.94567312 15.64569363
v 34.77193176 -7.29172911 14.73847973
v 29.12184814 -20.35533231 15.64569363
v 29.12287933 -20.35286150 17.46519338
v 29.45080981 -19.87085479 14.73847973
v 34.77193176 -7.29420064 17.46519338
v 34.67705925 -7.71935496 17.46519338
v 34.66261967 -7.78362194 16.55717712
v 34.55434166 -8.26562866 16.06820696
v 34.55331047 -8.26315640 14.73847973
v 29.45080981 -19.87085479 15.64569363
v 29.26622074 -20.14028543 17.46519338
v 29.93548430 -19.12930644 14.73847973
v 29.93651549 -19.12930644 16.55717712
v 34.55434166 -8.26562866 17.46519338
v 34.30684701 -9.23952820 15.64569363
v 34.39759476 -8.87864159 14.73847973
v 29.93651549 -19.12930644 17.46519338
v 29.72408425 -19.45311650 17.46519338
v 29.45080981 -19.86838398 16.55717712
v 29.45080981 -19.86591173 17.46519338
v 30.13038819 -18.82280070 14.73847973
v 34.30684701 -9.23952820 17.46519338
v 34.21506807 -9.56828132 17.46519338
v 34.17485160 -9.71164735 14.73847973
v 34.30684701 -9.23458514 14.73847973
v 30.24279096 -18.64482892 15.64569363
v 30.07057618 -18.91673037 17.46519338
v 30.24279096 -18.64482892 14.73847973
v 34.09647815 -9.99096411 17.46519338
v 34.09647815 -9.99096411 15.64569363
v 34.09647815 -9.98849186 14.73847973
v 30.63671770 -17.97990737 15.64569363
v 30.63774889 -17.97743657 16.55717712
v 30.24279096 -18.64235812 17.46519338
v 30.63671770 -17.97990737 14.73847973
v 34.01397994 -10.26533636 17.46519338
v 34.04285330 -10.16646364 14.73847973
v 33.95004317 -10.47544163 15.64569363
v 30.79965175 -17.69811981 15.64569363
v 30.84812064 -17.61407770 17.46519338
v 30.63671770 -17.97743657 17.46519338
v 31.01105180 -17.33229014 14.73847973
v 33.95004317 -10.47544163 17.46519338
v 33.95004317 -10.47297010 14.73847973
v 33.82217252 -10.87340624 15.64569363
v 33.72317524 -11.17991271 14.73847973
v 31.01105180 -17.33229014 15.64569363
v 31.01002061 -17.32981789 17.46519338
v 31.17914181 -17.02578295 14.73847973
v 31.16161155 -17.05791644 15.64569363
v 33.72317524 -11.17991271 17.46519338
v 33.83557801 -10.83138519 16.55717712
v 33.55302285 -11.67180626 16.55717712
v 33.38493284 -12.15134072 14.73847973
v 31.12655104 -17.11724037 17.46519338
v 31.27710790 -16.84533892 14.73847973
v 31.27504551 -16.84533892 17.46519338
v 31.27607670 -16.84533892 16.55717712
v 33.57467787 -11.60753855 17.46519338
v 33.38493284 -12.15381153 17.46519338
v 33.38493284 -12.15381153 16.55717712
v 33.23849786 -12.54683308 15.64569363
v 33.12609509 -12.84098045 14.73847973
v 31.46066867 -16.49433987 15.64569363
v 31.69784851 -16.03458054 14.73847973
v 31.51222825 -16.38805184 17.46519338
v 33.27149888 -12.45784647 17.46519338
v 33.25499982 -12.50233977 16.55717712
v 33.12609509 -12.83850820 17.46519338
v 33.12609509 -12.84098045 15.64569363
v 32.93325648 -13.32545797 14.73847973
v 31.69681732 -16.03458054 16.55717712
v 31.69681732 -16.03210828 17.46519338
v 31.69784851 -16.03458054 15.64569363
v 32.00927993 -15.41168004 14.73847973
v 31.83397158 -15.76515134 15.64569363
v 32.93222529 -13.32545797 17.46519338
v 33.03019138 -13.08074696 16.55717712
v 32.93325648 -13.32545797 15.64569363
v 32.73010596 -13.80993549 14.73847973
v 31.87212567 -15.68358004 17.46519338
v 32.23614785 -14.92720107 14.73847973
v 32.00927993 -15.41168004 15.64569363
v 32.79094626 -13.66162640 17.46519338
v 32.60945077 -14.09172450 17.46519338
v 32.61048196 -14.09172450 15.64569363
v 32.61048196 -14.09172450 14.73847973
v 32.00721755 -15.41168004 17.03974578
v 32.00721755 -15.40920779 17.46519338
v 32.23614785 -14.92720107 17.46519338
f 1 2 9
f 1 9 3
f 1 3 12
f 1 12 4
f 1 4 5
f 1 5 2
f 2 5 6
f 2 6 7
f 2 7 8
f 2 8 16
f 2 16 9
f 3 9 10
f 3 10 11
f 3 11 19
f 3 19 12
f 4 12 20
f 4 20 26
f 4 26 34
f 4 34 39
f 4 39 43
f 4 43 51
f 4 51 58
f 4 58 65
f 4 65 72
f 4 72 79
f 4 79 89
f 4 89 98
f 4 98 106
f 4 106 113
f 4 113 122
f 4 122 121
f 4 121 128
f 4 128 134
f 4 134 141
f 4 141 143
f 4 143 151
f 4 151 160
f 4 160 168
f 4 168 177
f 4 177 184
f 4 184 179
f 4 179 172
f 4 172 162
f 4 162 153
f 4 153 146
f 4 146 139
f 4 139 132
f 4 132 125
f 4 125 118
f 4 118 109
f 4 109 101
f 4 101 93
f 4 93 83
f 4 83 75
f 4 75 68
f 4 68 67
f 4 67 61
f 4 61 55
f 4 55 47
f 4 47 46
f 4 46 40
f 4 40 35
f 4 35 27
f 4 27 21
f 4 21 13
f 4 13 5
f 5 13 14
f 5 14 6
f 6 14 7
f 7 14 22
f 7 22 15
f 7 15 23
f 7 23 30
f 7 30 36
f 7 36 42
f 7 42 49
f 7 49 57
f 7 57 63
f 7 63 70
f 7 70 77
f 7 77 86
f 7 86 85
f 7 85 94
f 7 94 100
f 7 100 108
f 7 108 117
f 7 117 115
f 7 115 114
f 7 114 124
f 7 124 131
f 7 131 138
f 7 138 137
f 7 137 145
f 7 145 152
f 7 152 154
f 7 154 163
f 7 163 170
f 7 170 178
f 7 178 186
f 7 186 187
f 7 187 182
f 7 182 181
f 7 181 174
f 7 174 166
f 7 166 164
f 7 164 157
f 7 157 156
f 7 156 148
f 7 148 140
f 7 140 133
f 7 133 126
f 7 126 120
f 7 120 119
f 7 119 111
f 7 111 103
f 7 103 102
f 7 102 95
f 7 95 87
f 7 87 90
f 7 90 80
f 7 80 78
f 7 78 73
f 7 73 66
f 7 66 59
f 7 59 52
f 7 52 45
f 7 45 38
f 7 38 31
f 7 31 24
f 7 24 17
f 7 17 16
f 7 16 8
f 9 16 17
f 9 17 10
f 10 18 25
f 10 25 19
f 10 19 11
f 10 17 24
f 10 24 18
f 12 19 20
f 13 21 22
f 13 22 14
f 15 22 23
f 18 24 25
f 19 25 26
f 19 26 20
f 21 27 28
f 21 28 29
f 21 29 22
f 22 29 23
f 23 29 30
f 24 31 32
f 24 32 25
f 25 32 26
f 26 32 31
f 26 31 33
f 26 33 34
f 27 35 28
f 28 35 29
f 29 35 36
f 29 36 30
f 31 37 33
f 31 38 37
f 33 37 34
f 34 37 39
f 35 40 41
f 35 41 36
f 36 41 42
f 37 43 39
f 37 38 44
f 37 44 43
f 38 45 44
f 40 46 41
f 41 46 47
f 41 47 42
f 42 47 48
f 42 48 49
f 43 44 50
f 43 50 51
f 44 45 50
f 45 52 53
f 45 53 54
f 45 54 50
f 47 55 56
f 47 56 48
f 48 56 57
f 48 57 49
f 50 54 51
f 51 54 53
f 51 53 58
f 52 59 53
f 53 60 58
f 53 59 60
f 55 61 62
f 55 62 57
f 55 57 56
f 57 62 63
f 58 64 65
f 58 60 64
f 59 66 64
f 59 64 60
f 61 67 62
f 62 67 68
f 62 68 63
f 63 68 69
f 63 69 70
f 64 66 71
f 64 71 65
f 65 71 72
f 66 73 74
f 66 74 71
f 68 75 76
f 68 76 69
f 69 76 77
f 69 77 70
f 71 74 78
f 71 78 72
f 72 78 80
f 72 80 81
f 72 81 82
f 72 82 79
f 73 78 74
f 75 83 84
f 75 84 76
f 76 84 85
f 76 85 86
f 76 86 77
f 79 82 87
f 79 87 88
f 79 88 89
f 80 90 91
f 80 91 81
f 81 91 82
f 82 91 87
f 83 92 84
f 83 93 92
f 84 92 85
f 85 92 94
f 87 95 88
f 87 91 90
f 88 96 97
f 88 97 89
f 88 95 96
f 89 97 96
f 89 96 98
f 92 93 99
f 92 99 100
f 92 100 94
f 93 101 107
f 93 107 99
f 95 102 96
f 96 102 103
f 96 103 104
f 96 104 105
f 96 105 98
f 98 105 106
f 99 107 100
f 100 107 108
f 101 109 110
f 101 110 114
f 101 114 107
f 103 111 105
f 103 105 104
f 105 112 113
f 105 113 106
f 105 111 119
f 105 119 112
f 107 114 115
f 107 115 116
f 107 116 108
f 108 116 117
f 109 118 110
f 110 118 114
f 112 119 120
f 112 120 121
f 112 121 122
f 112 122 113
f 114 118 123
f 114 123 124
f 115 117 116
f 118 125 123
f 120 126 121
f 121 126 127
f 121 127 128
f 123 125 132
f 123 132 129
f 123 129 130
f 123 130 131
f 123 131 124
f 126 133 127
f 127 134 128
f 127 133 135
f 127 135 134
f 129 132 136
f 129 136 137
f 129 137 130
f 130 137 138
f 130 138 131
f 132 139 136
f 133 140 135
f 134 135 141
f 135 140 142
f 135 142 143
f 135 143 141
f 136 139 144
f 136 144 137
f 137 144 145
f 139 146 147
f 139 147 144
f 140 148 149
f 140 149 142
f 142 149 148
f 142 148 143
f 143 150 151
f 143 148 150
f 144 147 145
f 145 147 152
f 146 153 147
f 147 154 152
f 147 153 155
f 147 155 154
f 148 156 150
f 150 156 157
f 150 157 158
f 150 158 151
f 151 158 159
f 151 159 160
f 153 161 155
f 153 162 161
f 154 155 161
f 154 161 163
f 157 164 165
f 157 165 159
f 157 159 158
f 159 165 166
f 159 166 167
f 159 167 160
f 160 167 176
f 160 176 168
f 161 169 170
f 161 170 163
f 161 162 171
f 161 171 169
f 162 172 173
f 162 173 171
f 164 166 165
f 166 174 175
f 166 175 167
f 167 175 176
f 168 176 177
f 169 171 173
f 169 173 170
f 170 173 178
f 172 179 187
f 172 187 180
f 172 180 173
f 173 180 178
f 174 181 176
f 174 176 175
f 176 181 177
f 177 181 182
f 177 182 183
f 177 183 184
f 178 185 186
f 178 180 185
f 179 184 183
f 179 183 187
f 180 187 185
f 182 187 183
f 185 187 186

