# https://github.com/mikedh/trimesh
v 0.48635531 35.52605327 18.01186680
v 1.45913930 35.49924809 18.01186680
v 1.03406862 35.51161949 17.46528027
v 0.48635531 35.52605327 17.46528027
v 0.00414439 35.52605327 18.01186680
v 0.48635531 35.50337285 18.37699839
v 1.45913930 35.49924809 17.46528027
v 1.45913930 35.47553648 18.37699839
v 2.43052930 35.42192900 18.37699839
v 2.43052930 35.44460942 18.01186680
v 0.00414439 35.52605327 17.46528027
v 0.00414439 35.50337285 18.37699839
v 2.43052930 35.44460942 17.46528027
v 3.40191966 35.34048804 18.37699839
v 3.40191966 35.36419966 18.01186680
v 0.00414439 29.91067678 17.46528027
v 0.00414439 29.93438839 18.37699839
v 3.40191966 35.36419966 17.46528027
v 4.37470329 35.23327309 18.37699839
v 4.37470329 35.25595351 18.01186680
v 3.94963334 35.30337674 17.46528027
v 0.00414439 29.91067678 18.01186680
v 4.92659821 24.99529103 17.46528027
v 4.93774761 24.99529103 18.37699839
v 5.35166853 35.09822466 18.37699839
v 4.37470329 35.25595351 17.46528027
v 5.34609365 35.12090219 18.01186680
v 4.92102333 35.18069681 17.46528027
v 4.92799184 24.99529103 18.01186680
v 14.24190973 24.99529103 17.46528027
v 14.24190973 24.99529103 18.37699839
v 5.96349096 35.01265894 18.37699839
v 5.99275790 35.01781200 18.01186680
v 5.70984247 35.06317284 17.46528027
v 5.34609365 35.12090219 17.46528027
v 14.24190973 32.54568679 17.46528027
v 14.24190973 32.52094399 18.37699839
v 7.28887437 34.74565276 18.37699839
v 7.28887437 34.76936437 18.01186680
v 6.47915007 34.93018390 18.01186680
v 6.20599005 34.97966950 17.46528027
v 5.99275790 35.01781200 17.46528027
v 14.24190973 32.54568679 18.01186680
v 14.09278670 32.61269686 17.46528027
v 14.09278670 32.61269686 18.01186680
v 14.09278670 32.58692287 18.37699839
v 7.89512228 34.60957024 18.37699839
v 8.26026473 34.55184089 18.01186680
v 7.28887437 34.77039266 17.46528027
v 6.93488096 34.84049631 17.46528027
v 6.47915007 34.93018390 17.46528027
v 13.32765998 32.93433882 17.46528027
v 13.32765998 32.93433882 18.01186680
v 13.29699941 32.92093912 18.37699839
v 8.26026473 34.52709809 18.37699839
v 9.23304836 34.28070994 18.37699839
v 9.23304836 34.30339036 18.01186680
v 9.23304836 34.30442156 17.46528027
v 8.80797804 34.41266770 17.46528027
v 8.26026473 34.55184089 17.46528027
v 13.05449996 33.04258496 17.46528027
v 12.84126781 33.12609119 18.01186680
v 12.81060724 33.11475098 18.37699839
v 9.94103446 34.08380740 18.37699839
v 9.97866354 34.09514761 18.01186680
v 9.97866354 34.09514761 17.46528027
v 12.84126781 33.12609119 17.46528027
v 12.14861271 33.38381665 18.01186680
v 12.14861271 33.35907675 18.37699839
v 10.42742664 33.93741876 18.37699839
v 10.46505499 33.94875608 18.01186680
v 10.46505499 33.94978727 17.46528027
v 12.14861271 33.38381665 17.46528027
v 11.17722235 33.72092648 18.01186680
v 11.17722235 33.69515248 18.37699839
v 10.87200777 33.79412080 18.37699839
v 11.17722235 33.72092648 17.46528027
f 1 2 3
f 1 3 4
f 1 4 11
f 1 11 5
f 1 5 12
f 1 12 6
f 1 6 2
f 2 7 3
f 2 6 8
f 2 8 9
f 2 9 10
f 2 10 13
f 2 13 7
f 3 7 13
f 3 13 18
f 3 18 21
f 3 21 26
f 3 26 28
f 3 28 35
f 3 35 34
f 3 34 42
f 3 42 41
f 3 41 51
f 3 51 50
f 3 50 49
f 3 49 60
f 3 60 59
f 3 59 58
f 3 58 66
f 3 66 72
f 3 72 77
f 3 77 73
f 3 73 67
f 3 67 61
f 3 61 52
f 3 52 44
f 3 44 36
f 3 36 30
f 3 30 23
f 3 23 16
f 3 16 11
f 3 11 4
f 5 11 16
f 5 16 22
f 5 22 17
f 5 17 12
f 6 12 17
f 6 17 24
f 6 24 31
f 6 31 37
f 6 37 46
f 6 46 54
f 6 54 63
f 6 63 69
f 6 69 75
f 6 75 76
f 6 76 70
f 6 70 64
f 6 64 56
f 6 56 55
f 6 55 47
f 6 47 38
f 6 38 32
f 6 32 25
f 6 25 19
f 6 19 14
f 6 14 9
f 6 9 8
f 9 14 15
f 9 15 10
f 10 15 18
f 10 18 13
f 14 19 15
f 15 19 20
f 15 20 21
f 15 21 18
f 16 23 22
f 17 22 24
f 19 25 20
f 20 26 21
f 20 25 27
f 20 27 28
f 20 28 26
f 22 23 29
f 22 29 24
f 23 30 31
f 23 31 24
f 23 24 29
f 25 32 27
f 27 32 33
f 27 33 34
f 27 34 35
f 27 35 28
f 30 36 43
f 30 43 37
f 30 37 31
f 32 38 39
f 32 39 40
f 32 40 33
f 33 40 41
f 33 41 42
f 33 42 34
f 36 44 45
f 36 45 43
f 37 43 45
f 37 45 46
f 38 47 48
f 38 48 39
f 39 49 40
f 39 48 49
f 40 49 50
f 40 50 51
f 40 51 41
f 44 52 53
f 44 53 45
f 45 53 46
f 46 53 54
f 47 55 48
f 48 55 56
f 48 56 57
f 48 57 58
f 48 58 59
f 48 59 60
f 48 60 49
f 52 61 53
f 53 61 62
f 53 62 63
f 53 63 54
f 56 64 57
f 57 64 65
f 57 65 58
f 58 65 66
f 61 67 62
f 62 67 73
f 62 73 68
f 62 68 63
f 63 68 69
f 64 70 71
f 64 71 65
f 65 71 72
f 65 72 66
f 68 73 77
f 68 77 74
f 68 74 69
f 69 74 75
f 70 76 74
f 70 74 71
f 71 74 72
f 72 74 77
f 74 76 75

