# https://github.com/mikedh/trimesh
v 24.98964654 -25.25531391 13.82658492
v 24.98964654 -25.25285179 13.00409962
v 25.12475291 -25.12224676 13.15223781
v 25.12475291 -25.12224676 13.82658492
v 24.98964654 -4.92550959 13.82658492
v 25.12372172 -25.12224676 13.00409962
v 24.98964654 -4.92550959 13.00409962
v 25.59710524 -24.63679598 13.00409962
v 25.59710524 -24.63679598 13.82658492
v 29.90603741 -0.08085605 13.82658492
v 29.90500622 -0.08085605 13.00409962
v 25.74664828 -24.47908451 13.82658492
v 26.08286595 -24.12423876 13.00409962
v 35.52373699 -0.08085605 13.82658492
v 35.52373699 -0.08085605 13.00409962
v 26.08286595 -24.12423876 13.82658492
v 26.52221436 -23.63878654 13.00409962
v 35.52373699 -0.48745109 13.82658492
v 35.52373699 -0.48745109 13.00409962
v 26.52221436 -23.63878654 13.82658492
v 26.59647174 -23.55500368 13.00409962
v 35.49589192 -1.45835410 13.82658492
v 35.49589192 -1.46081838 13.00409962
v 26.67176030 -23.46875580 13.82658492
v 27.00797508 -23.08433717 13.00409962
v 27.00900627 -23.08433717 13.15223781
v 27.00900627 -23.08433717 13.82658492
v 35.45876323 -2.13354991 13.82658492
v 35.45051080 -2.28386707 13.00409962
v 27.41638484 -22.59888639 13.00409962
v 27.41638484 -22.59888639 13.82658492
v 35.44226127 -2.43171994 13.82658492
v 35.44226127 -2.43171994 13.00409962
v 27.90214556 -21.99268772 13.00409962
v 27.90214556 -21.99268772 13.82658492
v 35.38759943 -3.10445219 13.82658492
v 35.37522513 -3.25476935 13.00409962
v 28.28167907 -21.50477338 13.00409962
v 28.16513705 -21.65509127 13.82658492
v 35.36284794 -3.40262222 13.82658492
v 35.36284794 -3.40262222 13.00409962
v 28.28167907 -21.50477338 13.82658492
v 28.34974640 -21.41359838 13.00409962
v 35.28859057 -4.07781876 13.82658492
v 35.27209150 -4.22813592 13.00409962
v 28.41884781 -21.31995692 13.82658492
v 28.73031110 -20.89611115 13.00409962
v 35.25558954 -4.37598879 13.82658492
v 35.25558954 -4.37598879 13.00409962
v 28.73031110 -20.89611115 13.82658492
v 29.12118771 -20.35644750 13.00409962
v 28.84994669 -20.73100899 13.82658492
v 35.12254556 -5.34689108 13.82658492
v 35.14317229 -5.19903820 13.00409962
v 29.44915296 -19.87099672 13.00409962
v 29.12118771 -20.35644750 13.82658492
v 35.01941193 -5.99990903 13.82658492
v 35.12254556 -5.34689108 13.00409962
v 29.93491367 -19.13173090 13.00409962
v 29.44915296 -19.87099672 13.82658492
v 34.93174906 -6.48535981 13.82658492
v 35.01941193 -5.99990903 13.00409962
v 30.19584278 -18.72020583 13.00409962
v 29.93491367 -19.13173090 13.82658492
v 34.82139709 -7.04473775 13.82658492
v 34.93174906 -6.48535981 13.00409962
v 30.24225219 -18.64381511 13.00409962
v 30.24225219 -18.64381511 13.82658492
v 30.14840217 -18.79413300 13.82658492
v 34.77189121 -7.29115993 13.82658492
v 34.79664270 -7.16794848 13.00409962
v 30.63828766 -17.98094146 13.00409962
v 30.63828766 -17.98094146 13.82658492
v 34.62131697 -7.96635574 13.82658492
v 34.77189121 -7.29115993 13.00409962
v 31.01266231 -17.33285064 13.00409962
v 31.01266231 -17.33285064 13.82658492
v 34.55427794 -8.26452650 13.00409962
v 34.55427794 -8.26206149 13.82658492
v 31.23749392 -16.92132702 13.00409962
v 31.27771618 -16.84739986 13.82658492
v 34.30778841 -9.23542806 13.82658492
v 34.30778841 -9.23542806 13.00409962
v 31.27771618 -16.84739986 13.00409962
v 31.69850314 -16.03667188 13.82658492
v 34.09739638 -9.98701459 13.82658492
v 34.12936911 -9.87366101 13.00409962
v 31.69850314 -16.03667188 13.00409962
v 32.00893524 -15.41322538 13.82658492
v 33.95094691 -10.47246609 13.82658492
v 33.95094691 -10.47493038 13.00409962
v 34.09739638 -9.98701459 13.00409962
v 32.00893524 -15.41322538 13.00409962
v 32.23686042 -14.92777315 13.82658492
v 33.79315143 -10.96284545 13.82658492
v 33.72302172 -11.17969691 13.00409962
v 32.23686042 -14.92777315 13.00409962
v 32.29461583 -14.79963457 13.00409962
v 32.61123797 -14.09240376 13.82658492
v 33.72302172 -11.17969691 13.82658492
v 33.43733823 -12.00274559 13.00409962
v 32.61123797 -14.09240376 13.00409962
v 32.66074096 -13.97658444 13.00409962
v 32.71024684 -13.85830301 13.82658492
v 33.38577286 -12.15059919 13.82658492
v 33.38577286 -12.15059919 13.00409962
v 32.93301606 -13.32849506 13.00409962
v 32.93404726 -13.32849506 13.15223781
v 32.93404726 -13.32849506 13.82658492
v 33.20631947 -12.63112140 13.82658492
v 33.16712840 -12.73708357 13.00409962
v 33.09802988 -12.91697145 13.00409962
v 33.12793733 -12.84058072 13.82658492
v 33.12793733 -12.84058072 13.00409962
f 1 2 3
f 1 3 4
f 1 4 9
f 1 9 12
f 1 12 16
f 1 16 20
f 1 20 24
f 1 24 27
f 1 27 31
f 1 31 35
f 1 35 39
f 1 39 42
f 1 42 46
f 1 46 50
f 1 50 52
f 1 52 56
f 1 56 60
f 1 60 64
f 1 64 69
f 1 69 68
f 1 68 73
f 1 73 77
f 1 77 81
f 1 81 85
f 1 85 89
f 1 89 94
f 1 94 99
f 1 99 104
f 1 104 109
f 1 109 113
f 1 113 110
f 1 110 105
f 1 105 100
f 1 100 95
f 1 95 90
f 1 90 86
f 1 86 82
f 1 82 79
f 1 79 74
f 1 74 70
f 1 70 65
f 1 65 61
f 1 61 57
f 1 57 53
f 1 53 48
f 1 48 44
f 1 44 40
f 1 40 36
f 1 36 32
f 1 32 28
f 1 28 22
f 1 22 18
f 1 18 14
f 1 14 10
f 1 10 5
f 1 5 7
f 1 7 2
f 2 6 3
f 2 7 11
f 2 11 15
f 2 15 19
f 2 19 23
f 2 23 29
f 2 29 33
f 2 33 37
f 2 37 41
f 2 41 45
f 2 45 49
f 2 49 54
f 2 54 58
f 2 58 62
f 2 62 66
f 2 66 71
f 2 71 75
f 2 75 78
f 2 78 83
f 2 83 87
f 2 87 92
f 2 92 91
f 2 91 96
f 2 96 101
f 2 101 106
f 2 106 111
f 2 111 114
f 2 114 112
f 2 112 107
f 2 107 103
f 2 103 102
f 2 102 98
f 2 98 97
f 2 97 93
f 2 93 88
f 2 88 84
f 2 84 80
f 2 80 76
f 2 76 72
f 2 72 67
f 2 67 63
f 2 63 59
f 2 59 55
f 2 55 51
f 2 51 47
f 2 47 43
f 2 43 38
f 2 38 34
f 2 34 30
f 2 30 25
f 2 25 21
f 2 21 17
f 2 17 13
f 2 13 8
f 2 8 6
f 3 6 8
f 3 8 9
f 3 9 4
f 5 10 11
f 5 11 7
f 8 12 9
f 8 13 12
f 10 14 15
f 10 15 11
f 12 13 16
f 13 17 20
f 13 20 16
f 14 18 19
f 14 19 15
f 17 21 20
f 18 22 23
f 18 23 19
f 20 21 24
f 21 25 26
f 21 26 27
f 21 27 24
f 22 28 23
f 23 28 29
f 25 30 26
f 26 30 31
f 26 31 27
f 28 32 29
f 29 32 33
f 30 34 35
f 30 35 31
f 32 36 33
f 33 36 37
f 34 38 39
f 34 39 35
f 36 40 37
f 37 40 41
f 38 42 39
f 38 43 42
f 40 44 45
f 40 45 41
f 42 43 46
f 43 47 46
f 44 48 45
f 45 48 49
f 46 47 50
f 47 51 52
f 47 52 50
f 48 53 54
f 48 54 49
f 51 55 60
f 51 60 56
f 51 56 52
f 53 57 62
f 53 62 58
f 53 58 54
f 55 59 64
f 55 64 60
f 57 61 66
f 57 66 62
f 59 63 64
f 61 65 66
f 63 67 68
f 63 68 69
f 63 69 64
f 65 70 75
f 65 75 71
f 65 71 66
f 67 72 73
f 67 73 68
f 70 74 75
f 72 76 77
f 72 77 73
f 74 78 75
f 74 79 78
f 76 80 77
f 77 80 81
f 78 79 82
f 78 82 83
f 80 84 81
f 81 84 88
f 81 88 85
f 82 86 87
f 82 87 83
f 85 88 93
f 85 93 89
f 86 90 91
f 86 91 92
f 86 92 87
f 89 93 97
f 89 97 94
f 90 95 91
f 91 95 100
f 91 100 96
f 94 97 98
f 94 98 99
f 96 100 101
f 98 102 99
f 99 102 103
f 99 103 104
f 100 105 101
f 101 105 106
f 103 107 108
f 103 108 109
f 103 109 104
f 105 110 111
f 105 111 106
f 107 112 108
f 108 112 109
f 109 112 113
f 110 113 111
f 111 113 114
f 112 114 113

