# https://github.com/mikedh/trimesh
v 0.02974169 -20.14501559 23.84331558
v 0.02974169 -20.11443323 24.35636956
v 0.02974169 -20.08894890 20.69494888
v 5.60127734 -25.17564567 20.69494888
v 0.02974169 -20.08640133 24.81494563
v 0.02974169 0.42602382 20.69494888
v 6.27236576 -25.60887935 20.69494888
v 5.52365194 -24.49011188 23.84331558
v 0.02974169 -19.92839875 26.81028815
v 0.02974169 0.42602382 26.81028815
v 20.08727235 0.42602382 20.69494888
v 7.29151897 -25.57829699 20.69494888
v 6.13464232 -24.37543238 24.42521607
v 5.70895213 -24.37543238 24.42521607
v 6.31994323 -23.11905009 25.25137137
v 0.48798465 -19.92839875 26.81028815
v 19.92701187 0.42602382 26.81028815
v 20.14486555 0.42602382 23.84331558
v 25.17552461 -5.60104575 20.69494888
v 8.24306179 -25.46361749 20.69494888
v 6.78319442 -24.29133379 24.31326662
v 8.26309472 -23.56502738 24.60182210
v 7.29151897 -23.72557897 24.73412600
v 7.29151897 -23.16237317 25.22024010
v 6.40257686 -23.90397076 24.73592189
v 1.45956040 -19.88507422 26.81028815
v 20.08727235 0.42602382 24.81494563
v 19.92701187 -0.48631924 26.81028815
v 23.11718526 -6.31970729 25.24538408
v 24.37422508 -5.71062940 24.42521607
v 24.49191705 -5.52459275 23.84331558
v 20.14235999 0.42602382 23.90318262
v 25.60622375 -6.27128691 20.69494888
v 11.17782195 -24.27349504 20.69494888
v 9.66787299 -23.30253845 24.27435363
v 9.02182573 -23.42996012 24.45754364
v 9.28725616 -22.85655971 24.86164181
v 8.26309472 -22.99672355 25.08733805
v 9.55268659 -22.26532201 25.26514038
v 8.90413448 -22.40803486 25.32919736
v 8.26309472 -22.51251976 25.36990625
v 7.29151897 -22.67562036 25.41121329
v 3.40271188 -19.66845739 26.81028815
v 2.43113614 -19.79842807 26.81028815
v 19.88193779 -1.45982485 26.81028815
v 23.16225934 -7.29066461 25.21964195
v 24.37422508 -6.13367064 24.42521607
v 25.57867703 -7.29066461 20.69494888
v 13.12097271 -23.23627860 20.69494888
v 11.66360945 -22.35196816 24.32703708
v 11.01505807 -22.50997219 24.50543756
v 10.20624620 -22.69600812 24.67725405
v 10.20624620 -22.10986699 25.16336815
v 11.53590247 -21.29946054 25.26933032
v 10.88985520 -21.47020674 25.34176863
v 8.23054194 -18.24897304 26.81028815
v 7.30904706 -18.65417627 26.81028815
v 6.31994323 -18.99566721 26.81028815
v 5.31331060 -19.28364192 26.81028815
v 4.33171839 -19.51554994 26.81028815
v 3.43526466 -19.66335936 26.81028815
v 19.79429665 -2.43078144 26.81028815
v 22.67396699 -7.29066461 25.41121329
v 22.51120384 -8.26162120 25.36990625
v 22.40603244 -8.90382902 25.32919736
v 22.26580488 -9.55113414 25.26514038
v 22.99699062 -8.26162120 25.08733805
v 23.56541177 -8.26162120 24.60182210
v 23.72567225 -7.29066461 24.73352785
v 19.66658967 -3.40428705 26.81028815
v 24.29159073 -6.78352405 24.31326662
v 25.46098796 -8.24123345 20.69494888
v 14.08754094 -22.62720071 20.69494888
v 13.52162392 -21.32749389 24.19832353
v 12.87307108 -21.52372442 24.48388537
v 12.14939769 -21.73014810 24.66468133
v 11.27548027 -21.91108745 24.88738394
v 12.14939769 -21.12107021 25.15079543
v 13.38640459 -20.24950194 25.22682553
v 12.74035587 -20.46866779 25.32919736
v 10.17369343 -17.24488653 26.81028815
v 9.28224793 -17.74438150 26.81028815
v 8.27311118 -18.22858529 26.81028815
v 19.28847549 -5.31307176 26.81028815
v 19.66158143 -3.43741697 26.81028815
v 19.51634564 -4.33701787 26.81028815
v 18.99550124 -6.31970729 26.81028815
v 18.98298067 -6.36048208 26.81028815
v 18.65494880 -7.30850335 26.81028815
v 21.46951359 -10.88906746 25.34176863
v 18.24929081 -8.23104029 26.81028815
v 22.11055408 -10.20608413 25.16336815
v 22.69650258 -10.20608413 24.67725405
v 22.85426040 -9.28609548 24.86164181
v 21.29923809 -11.53637186 25.26933032
v 23.43019244 -9.02105754 24.45754364
v 23.30248690 -9.66836266 24.27435363
v 24.27155780 -11.17958973 20.69494888
v 16.03570066 -21.26378306 20.69494888
v 14.64845119 -20.46102364 24.38690267
v 14.09254917 -20.64960714 24.55931731
v 13.12848505 -20.89935534 24.85565452
v 14.15014238 -19.92584974 25.08554071
v 14.51072774 -19.38303169 25.28309933
v 11.00504161 -16.72755281 26.81028815
v 13.86467903 -19.60219754 25.36032718
v 11.49082984 -16.39880259 26.81028815
v 17.74346965 -9.28354791 26.81028815
v 17.24516229 -10.17295420 26.81028815
v 20.47039330 -12.73923719 25.32919736
v 21.91022775 -11.27643049 24.88738394
v 22.50869827 -11.01394084 24.50543756
v 21.12144880 -12.15054705 25.15079543
v 21.72993579 -12.15054705 24.66468133
v 20.25003550 -13.38654304 25.22682553
v 22.35344747 -11.66379425 24.32703708
v 23.23737990 -13.11895608 20.69494888
v 16.98223598 -20.59099433 20.69494888
v 16.36373253 -19.30402968 24.00675074
v 15.71518114 -19.56906762 24.46293277
v 15.00903511 -19.90546198 24.62756423
v 15.06412419 -19.16896097 25.14480960
v 15.57495358 -18.48597909 25.31063881
v 12.19947855 -15.87892131 26.81028815
v 11.52588601 -16.37331825 26.81028815
v 16.72932612 -11.00374696 26.81028815
v 19.60148412 -13.86310124 25.36032718
v 19.38363043 -14.51040563 25.28309933
v 16.41631750 -11.46501543 26.81028815
v 20.89858833 -13.12914924 24.85565452
v 21.52209856 -12.87430445 24.48388537
v 19.92450775 -14.14852693 25.08554071
v 20.65068526 -14.09246169 24.55931731
v 21.32678191 -13.52161029 24.19832353
v 22.62639025 -14.08736511 20.69494888
v 17.96382746 -19.68629468 20.69494888
v 17.38288574 -18.36110498 24.09415581
v 16.73433290 -18.65672383 24.50543756
v 15.96809100 -18.89372987 24.80836020
v 16.22350497 -18.19035879 25.15318948
v 16.57407387 -17.54305439 25.32081603
v 13.15102209 -15.09145163 26.81028815
v 16.39879014 -11.49049977 26.81028815
v 16.37374899 -11.52617798 26.81028815
v 15.88044841 -12.19896671 26.81028815
v 18.48717597 -15.57565542 25.31063881
v 19.16828085 -15.06341828 25.14480960
v 20.46037684 -14.64802190 24.38690267
v 19.90447628 -15.00990060 24.62756423
v 21.26167636 -16.03692389 20.69494888
v 18.73257493 -18.93705295 20.69494888
v 18.93790804 -18.73317828 20.69494888
v 18.35946899 -17.38250280 24.09415581
v 17.71342172 -17.71125157 24.51980472
v 16.97722774 -17.95080518 24.83649782
v 17.22262525 -17.22194976 25.16815624
v 17.54314622 -16.57464536 25.32081603
v 14.16015884 -14.16126910 26.81028815
v 15.10168592 -13.13934384 26.81028815
v 18.19169761 -16.22295982 25.15318948
v 18.89533953 -15.96811648 24.80836020
v 19.56893062 -15.71581926 24.46293277
v 19.30350019 -16.36312510 24.00675074
v 20.59058794 -16.98239760 20.69494888
v 19.68662259 -17.96354735 20.69494888
v 18.65494880 -16.73519840 24.50543756
v 17.95130688 -16.97729957 24.83649782
f 1 2 5
f 1 5 9
f 1 9 10
f 1 10 6
f 1 6 3
f 1 3 4
f 1 4 2
f 2 4 5
f 3 6 11
f 3 11 19
f 3 19 33
f 3 33 48
f 3 48 72
f 3 72 98
f 3 98 117
f 3 117 135
f 3 135 150
f 3 150 164
f 3 164 165
f 3 165 152
f 3 152 151
f 3 151 136
f 3 136 118
f 3 118 99
f 3 99 73
f 3 73 49
f 3 49 34
f 3 34 20
f 3 20 12
f 3 12 7
f 3 7 4
f 4 7 8
f 4 8 9
f 4 9 5
f 6 10 17
f 6 17 27
f 6 27 32
f 6 32 18
f 6 18 11
f 7 12 13
f 7 13 14
f 7 14 8
f 8 14 9
f 9 14 15
f 9 15 16
f 9 16 26
f 9 26 44
f 9 44 43
f 9 43 61
f 9 61 60
f 9 60 59
f 9 59 58
f 9 58 57
f 9 57 56
f 9 56 83
f 9 83 82
f 9 82 81
f 9 81 105
f 9 105 107
f 9 107 125
f 9 125 124
f 9 124 142
f 9 142 158
f 9 158 159
f 9 159 145
f 9 145 144
f 9 144 143
f 9 143 129
f 9 129 126
f 9 126 109
f 9 109 108
f 9 108 91
f 9 91 89
f 9 89 88
f 9 88 87
f 9 87 84
f 9 84 86
f 9 86 85
f 9 85 70
f 9 70 62
f 9 62 45
f 9 45 28
f 9 28 17
f 9 17 10
f 11 18 19
f 12 20 13
f 13 21 22
f 13 22 23
f 13 23 24
f 13 24 25
f 13 25 14
f 13 20 21
f 14 25 15
f 15 25 24
f 15 24 16
f 16 24 26
f 17 28 29
f 17 29 30
f 17 30 31
f 17 31 19
f 17 19 27
f 18 32 19
f 19 31 33
f 19 32 27
f 20 34 35
f 20 35 21
f 21 35 36
f 21 36 22
f 22 36 37
f 22 37 38
f 22 38 24
f 22 24 23
f 24 38 39
f 24 39 40
f 24 40 41
f 24 41 42
f 24 42 43
f 24 43 44
f 24 44 26
f 28 45 46
f 28 46 29
f 29 46 30
f 30 46 47
f 30 47 33
f 30 33 31
f 33 47 48
f 34 49 50
f 34 50 35
f 35 50 51
f 35 51 36
f 36 51 52
f 36 52 37
f 37 52 39
f 37 39 38
f 39 53 54
f 39 54 55
f 39 55 40
f 39 52 53
f 40 55 56
f 40 56 57
f 40 57 41
f 41 57 58
f 41 58 42
f 42 58 59
f 42 59 60
f 42 60 61
f 42 61 43
f 45 62 46
f 46 63 64
f 46 64 65
f 46 65 66
f 46 66 67
f 46 67 68
f 46 68 69
f 46 69 47
f 46 62 70
f 46 70 63
f 47 69 71
f 47 71 72
f 47 72 48
f 49 73 74
f 49 74 50
f 50 74 75
f 50 75 76
f 50 76 51
f 51 76 77
f 51 77 53
f 51 53 52
f 53 77 54
f 54 78 79
f 54 79 80
f 54 80 55
f 54 77 76
f 54 76 78
f 55 80 81
f 55 81 82
f 55 82 83
f 55 83 56
f 63 84 64
f 63 70 85
f 63 85 86
f 63 86 84
f 64 84 87
f 64 87 88
f 64 88 89
f 64 89 65
f 65 90 66
f 65 89 91
f 65 91 90
f 66 92 93
f 66 93 94
f 66 94 67
f 66 90 95
f 66 95 92
f 67 94 68
f 68 71 69
f 68 94 96
f 68 96 71
f 71 96 97
f 71 97 72
f 72 97 98
f 73 99 100
f 73 100 74
f 74 100 75
f 75 100 101
f 75 101 102
f 75 102 78
f 75 78 76
f 78 102 79
f 79 103 104
f 79 104 80
f 79 102 101
f 79 101 103
f 80 105 81
f 80 104 106
f 80 106 107
f 80 107 105
f 90 108 109
f 90 109 110
f 90 110 95
f 90 91 108
f 92 95 111
f 92 111 112
f 92 112 93
f 93 96 94
f 93 112 96
f 95 113 114
f 95 114 111
f 95 110 115
f 95 115 113
f 96 112 97
f 97 112 116
f 97 116 98
f 98 116 117
f 99 118 100
f 100 119 120
f 100 120 121
f 100 121 101
f 100 118 119
f 101 121 103
f 103 121 122
f 103 122 104
f 104 122 123
f 104 123 124
f 104 124 106
f 106 124 125
f 106 125 107
f 109 126 110
f 110 127 128
f 110 128 115
f 110 126 129
f 110 129 127
f 111 114 112
f 112 114 116
f 113 115 130
f 113 130 131
f 113 131 114
f 114 131 116
f 115 128 132
f 115 132 133
f 115 133 130
f 116 131 134
f 116 134 117
f 117 134 135
f 118 136 137
f 118 137 119
f 119 137 138
f 119 138 120
f 120 138 139
f 120 139 122
f 120 122 121
f 122 139 140
f 122 140 123
f 123 140 141
f 123 141 142
f 123 142 124
f 127 129 143
f 127 143 144
f 127 144 145
f 127 145 128
f 128 146 147
f 128 147 132
f 128 145 146
f 130 133 131
f 131 133 148
f 131 148 134
f 132 147 149
f 132 149 133
f 133 149 148
f 134 148 135
f 135 148 150
f 136 151 137
f 137 151 152
f 137 152 153
f 137 153 154
f 137 154 138
f 138 154 155
f 138 155 140
f 138 140 139
f 140 155 156
f 140 156 141
f 141 156 157
f 141 157 158
f 141 158 142
f 145 159 146
f 146 160 147
f 146 159 157
f 146 157 160
f 147 160 161
f 147 161 162
f 147 162 149
f 148 149 162
f 148 162 163
f 148 163 164
f 148 164 150
f 152 165 153
f 153 165 164
f 153 164 163
f 153 163 166
f 153 166 154
f 154 166 167
f 154 167 156
f 154 156 155
f 156 167 160
f 156 160 157
f 157 159 158
f 160 167 166
f 160 166 161
f 161 166 162
f 162 166 163

