# https://github.com/mikedh/trimesh
v -35.47225983 1.94882356 13.82670947
v -35.47020613 1.94882356 13.00434584
v -35.47020613 1.94654176 13.82670947
v -35.47020613 1.94654176 14.73805682
v -35.46507335 2.07433636 14.73805682
v -35.46199136 2.13595223 13.82670947
v -35.45275119 2.28428522 13.00434584
v -35.34596204 3.56679851 12.18498308
v -29.49722053 1.94882356 13.00434584
v -29.49722053 1.94654176 13.82670947
v -29.49722053 1.94654176 14.73805682
v -35.44453642 2.43033640 14.73805682
v -35.44453642 2.43261893 13.82670947
v -35.44453642 2.43261893 13.00434584
v -35.37779284 3.25643956 13.00434584
v -35.36547068 3.40705507 13.00434584
v -35.34698744 3.56679851 12.34695546
v -35.25662784 4.37692688 12.18498308
v -28.35950927 3.56679851 12.18498308
v -24.99566121 4.92690172 12.18498308
v -24.98231365 4.92690172 13.00434584
v -24.98231365 4.92690172 13.82670947
v -24.98847473 4.92690172 14.73805682
v -35.39422238 3.04649070 14.73805682
v -35.39011500 3.10810585 13.82670947
v -35.36547068 3.40705507 13.82670947
v -35.25765613 4.37692688 13.00434584
v -35.14470590 5.20303004 13.00434584
v -35.12314357 5.34908122 12.18498308
v -24.99566121 25.24629347 12.18498308
v -24.98231365 25.25314104 13.00434584
v -24.98231365 25.25998572 13.82670947
v -24.98847473 25.25085852 14.73805682
v -35.36444528 3.40249074 14.73805682
v -35.36547068 3.40249074 14.12390987
v -35.25765613 4.37464508 14.73805682
v -35.25765613 4.37692688 13.82670947
v -35.16524283 5.05241453 13.82670947
v -35.12314357 5.34908122 14.73805682
v -35.05229260 5.80320956 13.82670947
v -35.02046181 6.00631229 13.00434584
v -35.02046181 6.00403049 12.18498308
v -25.12606928 25.11849814 12.18498308
v -25.12401269 25.12078066 13.00409673
v -25.12401269 25.12078066 14.73805682
v -35.01840812 6.00631229 14.73805682
v -35.02046181 6.00631229 13.82670947
v -34.93215590 6.49238946 13.00434584
v -34.93112760 6.49467126 12.18498308
v -25.59737593 24.63470422 12.18498308
v -25.59737593 24.63698674 13.82670947
v -25.59737593 24.63470422 14.73805682
v -34.98760272 6.18431231 14.73805682
v -34.93215590 6.49238946 14.73805682
v -34.77299902 7.29567171 13.00434584
v -34.77197073 7.29110738 12.18498308
v -26.08511213 24.12124182 12.18498308
v -26.08408673 24.12352289 13.00409673
v -26.08408673 24.12124182 14.73805682
v -34.83152783 6.99900501 14.73805682
v -34.77299902 7.29567171 13.82670947
v -34.55428794 8.26782605 13.00434584
v -34.55428794 8.26326172 12.18498308
v -26.52253719 23.63744645 12.18498308
v -26.45579361 23.71275529 13.00434584
v -26.38905003 23.78578016 13.82670947
v -26.52356259 23.63516392 14.73805682
v -34.77299902 7.29110738 14.73805682
v -34.55428794 8.26782605 13.82670947
v -34.38280890 8.94103116 13.82670947
v -34.30682515 9.23541606 12.18498308
v -26.52253719 23.63744645 13.00409673
v -27.01027340 23.08062621 12.18498308
v -27.00924800 23.08290873 13.00409673
v -26.67245100 23.46629183 13.82670947
v -27.00821970 23.08290873 14.73805682
v -34.55428794 8.26326172 14.73805682
v -34.30682515 9.23541606 14.73805682
v -34.09735424 9.98849290 13.00434584
v -34.09632594 9.98621110 12.18498308
v -27.41689306 22.59683084 12.18498308
v -27.29162067 22.74744708 13.82670947
v -27.41689306 22.59454976 14.73805682
v -34.09735424 9.98849290 13.82670947
v -34.09530055 9.98849290 14.73805682
v -33.95051952 10.47685187 13.00434584
v -33.94846583 10.47685187 12.18498308
v -27.49287681 22.50326614 13.00434584
v -27.41689306 22.59683084 13.00409673
v -27.90565756 21.98980519 12.18498308
v -27.56680687 22.41198542 13.82670947
v -27.59761227 22.37090866 14.73805682
v -33.95051952 10.47685187 14.73805682
v -33.79239094 10.96521156 13.82670947
v -33.75747815 11.07246779 13.00434584
v -33.72153997 11.17972474 12.18498308
v -28.28249722 21.50600982 12.18498308
v -28.14387728 21.68401056 14.73805682
v -27.90360386 21.99208771 13.00409673
v -27.90462926 21.98980519 14.73805682
v -33.72153997 11.17744222 14.73805682
v -33.72153997 11.18200654 13.82670947
v -33.72153997 11.18200654 13.00434584
v -33.43608531 12.00354537 13.00409673
v -33.38371758 12.15187908 12.18498308
v -28.28249722 21.50600982 13.00409673
v -28.73121615 20.89441912 12.18498308
v -28.44986887 21.28008764 14.73805682
v -28.28249722 21.50372874 14.73805682
v -33.50693627 11.79587832 14.73805682
v -33.38371758 12.15416016 13.82670947
v -33.38371758 12.15416016 13.00434584
v -33.12701462 12.84334078 12.18498308
v -28.79179865 20.81226560 13.00409673
v -29.12345996 20.35357366 12.18498308
v -29.12345996 20.35585618 13.00434584
v -29.12345996 20.35585618 14.73805682
v -33.38371758 12.14959656 14.73805682
v -33.22148161 12.58775011 14.73805682
v -33.20505207 12.63567300 13.82670947
v -33.12701462 12.84562185 13.00434584
v -32.93089127 13.33398227 12.18498308
v -29.44998849 19.86977974 12.18498308
v -29.45101389 19.86977974 13.00434584
v -29.35038582 20.02039453 13.82670947
v -29.45101389 19.87206081 14.73805682
v -33.12496093 12.84562185 14.73805682
v -33.12701462 12.84562185 13.82670947
v -32.93191956 13.32941722 14.73805682
v -32.60949842 14.09390524 13.00409673
v -32.60949842 14.09390524 12.18498308
v -29.52494394 19.75795919 13.00434584
v -29.93464560 19.13495731 12.18498308
v -29.93772469 19.12811263 14.73805682
v -32.72860973 13.80864899 14.73805682
v -32.29426665 14.79905919 13.00434584
v -32.61052672 14.08934019 13.82670947
v -32.23573785 14.92457199 12.18498308
v -30.24166259 18.64431726 12.18498308
v -30.19648134 18.71962465 13.00434584
v -30.13076605 18.82459908 14.73805682
v -32.60949842 14.08705911 14.73805682
v -32.23573785 14.92457199 14.73805682
v -32.23573785 14.92685452 13.82670947
v -32.23573785 14.92685452 13.00434584
v -32.37230410 14.61877737 14.73805682
v -32.20185336 14.99987939 13.00409673
v -32.00675830 15.41521349 12.18498308
v -30.30224509 18.54390644 13.00434584
v -30.63903919 17.97795755 12.18498308
v -30.24166259 18.64431726 14.73805682
v -32.00881199 15.40836736 14.73805682
v -32.00881199 15.41064844 13.82670947
v -31.69768761 16.03593139 13.82670947
v -31.69768761 16.03593139 12.18498308
v -30.63801379 17.98024007 13.00434584
v -30.63801379 17.98024007 14.73805682
v -31.01382806 17.32985514 12.18498308
v -31.01279976 17.33213621 13.00409673
v -31.81166324 15.80544416 14.73805682
v -31.27669209 16.84605977 14.73805682
v -31.34138198 16.72282949 13.00434584
v -31.69768761 16.03136779 14.73805682
v -31.27669209 16.84605977 12.18498308
v -31.01177436 17.32985514 14.73805682
v -31.19660096 16.99439348 13.82670947
f 1 2 3
f 1 3 4
f 1 4 5
f 1 5 6
f 1 6 7
f 1 7 2
f 2 7 8
f 2 8 19
f 2 19 9
f 2 9 10
f 2 10 3
f 3 10 11
f 3 11 4
f 4 11 23
f 4 23 33
f 4 33 45
f 4 45 52
f 4 52 59
f 4 59 67
f 4 67 76
f 4 76 83
f 4 83 92
f 4 92 100
f 4 100 98
f 4 98 109
f 4 109 108
f 4 108 117
f 4 117 126
f 4 126 134
f 4 134 141
f 4 141 151
f 4 151 157
f 4 157 165
f 4 165 161
f 4 161 163
f 4 163 160
f 4 160 152
f 4 152 143
f 4 143 146
f 4 146 142
f 4 142 135
f 4 135 129
f 4 129 127
f 4 127 119
f 4 119 118
f 4 118 110
f 4 110 101
f 4 101 93
f 4 93 85
f 4 85 78
f 4 78 77
f 4 77 68
f 4 68 60
f 4 60 54
f 4 54 53
f 4 53 46
f 4 46 39
f 4 39 36
f 4 36 34
f 4 34 24
f 4 24 12
f 4 12 5
f 5 12 6
f 6 12 13
f 6 13 14
f 6 14 7
f 7 14 8
f 8 15 16
f 8 16 17
f 8 17 18
f 8 18 29
f 8 29 42
f 8 42 49
f 8 49 56
f 8 56 63
f 8 63 71
f 8 71 80
f 8 80 87
f 8 87 96
f 8 96 105
f 8 105 113
f 8 113 122
f 8 122 131
f 8 131 138
f 8 138 148
f 8 148 155
f 8 155 164
f 8 164 158
f 8 158 150
f 8 150 139
f 8 139 133
f 8 133 123
f 8 123 115
f 8 115 107
f 8 107 97
f 8 97 90
f 8 90 81
f 8 81 73
f 8 73 64
f 8 64 57
f 8 57 50
f 8 50 43
f 8 43 30
f 8 30 20
f 8 20 19
f 8 14 15
f 9 19 20
f 9 20 21
f 9 21 10
f 10 21 22
f 10 22 11
f 11 22 23
f 12 24 25
f 12 25 13
f 13 25 14
f 14 25 15
f 15 25 16
f 16 25 26
f 16 26 37
f 16 37 27
f 16 27 17
f 17 27 18
f 18 27 28
f 18 28 29
f 20 30 31
f 20 31 21
f 21 31 32
f 21 32 22
f 22 32 33
f 22 33 23
f 24 34 35
f 24 35 26
f 24 26 25
f 26 35 34
f 26 34 36
f 26 36 37
f 27 37 28
f 28 38 39
f 28 39 29
f 28 37 38
f 29 39 40
f 29 40 41
f 29 41 42
f 30 43 32
f 30 32 31
f 32 43 44
f 32 44 45
f 32 45 33
f 36 39 38
f 36 38 37
f 39 46 47
f 39 47 40
f 40 47 41
f 41 47 54
f 41 54 48
f 41 48 42
f 42 48 49
f 43 50 51
f 43 51 44
f 44 51 45
f 45 51 52
f 46 53 47
f 47 53 54
f 48 54 61
f 48 61 55
f 48 55 49
f 49 55 56
f 50 57 58
f 50 58 51
f 51 58 59
f 51 59 52
f 54 60 61
f 55 61 69
f 55 69 62
f 55 62 63
f 55 63 56
f 57 64 65
f 57 65 58
f 58 65 66
f 58 66 59
f 59 66 67
f 60 68 61
f 61 68 77
f 61 77 69
f 62 69 70
f 62 70 71
f 62 71 63
f 64 72 65
f 64 73 74
f 64 74 72
f 65 72 67
f 65 67 66
f 67 72 75
f 67 75 76
f 69 77 78
f 69 78 70
f 70 78 71
f 71 78 84
f 71 84 79
f 71 79 80
f 72 74 75
f 73 81 74
f 74 81 82
f 74 82 76
f 74 76 75
f 76 82 83
f 78 85 84
f 79 84 93
f 79 93 86
f 79 86 80
f 80 86 87
f 81 88 89
f 81 89 82
f 81 90 88
f 82 89 83
f 83 89 91
f 83 91 92
f 84 85 93
f 86 93 94
f 86 94 95
f 86 95 96
f 86 96 87
f 88 91 89
f 88 90 91
f 90 97 98
f 90 98 99
f 90 99 91
f 91 99 100
f 91 100 92
f 93 101 102
f 93 102 94
f 94 102 95
f 95 102 103
f 95 103 96
f 96 103 104
f 96 104 105
f 97 106 98
f 97 107 108
f 97 108 106
f 98 100 99
f 98 106 109
f 101 110 102
f 102 110 111
f 102 111 104
f 102 104 103
f 104 111 112
f 104 112 105
f 105 112 121
f 105 121 113
f 106 108 109
f 107 114 108
f 107 115 116
f 107 116 114
f 108 114 117
f 110 118 111
f 111 118 119
f 111 119 120
f 111 120 112
f 112 120 121
f 113 121 122
f 114 116 117
f 115 123 116
f 116 123 124
f 116 124 125
f 116 125 126
f 116 126 117
f 119 127 128
f 119 128 120
f 120 128 121
f 121 128 122
f 122 129 130
f 122 130 131
f 122 128 129
f 123 132 124
f 123 133 132
f 124 132 126
f 124 126 125
f 126 132 133
f 126 133 134
f 127 129 128
f 129 135 130
f 130 136 131
f 130 135 137
f 130 137 136
f 131 136 138
f 133 139 140
f 133 140 141
f 133 141 134
f 135 142 137
f 136 137 143
f 136 143 144
f 136 144 145
f 136 145 138
f 137 142 146
f 137 146 143
f 138 145 147
f 138 147 148
f 139 149 140
f 139 150 149
f 140 149 151
f 140 151 141
f 143 152 153
f 143 153 144
f 144 153 147
f 144 147 145
f 147 153 148
f 148 153 154
f 148 154 155
f 149 156 157
f 149 157 151
f 149 150 156
f 150 158 159
f 150 159 156
f 152 160 153
f 153 160 154
f 154 161 162
f 154 162 155
f 154 160 163
f 154 163 161
f 155 162 164
f 156 159 157
f 157 159 165
f 158 166 159
f 158 164 166
f 159 166 161
f 159 161 165
f 161 164 162
f 161 166 164

