# https://github.com/mikedh/trimesh
v 18.66785463 -2.91030939 11.32157165
v 18.66785463 -2.91030939 12.18464997
v 18.66785463 2.66598466 11.32157165
v 20.25082627 -0.50007884 10.07980273
v 21.32527423 -2.91030939 11.32157165
v 20.42802900 -2.91030939 12.18464997
v 18.66785463 2.66598466 12.18464997
v 18.66847884 30.22630827 11.32136599
v 20.25082627 29.19149891 10.07980273
v 21.95172452 -0.50007884 10.07980273
v 21.16678937 -2.91030939 11.88672542
v 25.04216779 2.94496179 10.07980273
v 21.05510206 -2.91030939 12.18011679
v 20.73563835 -2.43021009 12.18464997
v 18.66847884 29.74296622 12.18464997
v 18.66847884 30.22630827 12.17991113
v 19.13394739 29.93435652 11.32136599
v 19.78535628 29.50291295 11.32136599
v 20.25082627 29.19149891 10.09092860
v 20.35752128 29.11688815 10.07980273
v 25.04216779 25.18526199 10.07980273
v 25.04216779 4.59935938 11.32136599
v 24.98663697 4.92699514 12.17991113
v 24.98663697 5.23192368 12.18464997
v 19.13394739 29.93435652 12.18464997
v 19.87146222 29.44452318 12.17991113
v 20.35752128 29.11688815 12.18464997
v 20.89724141 28.72761915 11.32136599
v 20.89724141 28.72437495 10.07980273
v 24.63597393 25.59074909 10.07980273
v 25.04216779 25.19499169 10.08041971
v 25.04216779 25.19499169 11.32136599
v 24.98663697 25.09767444 12.18464997
v 19.87395764 29.44127898 12.18464997
v 20.89474599 28.72761915 12.18464997
v 20.89724141 28.72761915 12.17991113
v 21.50684504 28.27995749 10.07980273
v 24.12308361 26.07733823 10.07980273
v 24.63597393 25.59074909 12.17991113
v 24.98663697 25.24689596 12.17991113
v 24.63722237 25.58750778 12.18464997
v 21.50809348 28.27671329 12.18464997
v 21.50684504 28.27995749 11.32136599
v 21.99165712 27.89717399 10.07980273
v 23.63702309 26.51526730 10.07980273
v 24.12308361 26.07733823 11.32136599
v 24.12245939 26.07733823 12.18464997
v 21.99040868 27.89392979 12.18464997
v 21.99103290 27.89717399 11.32136599
v 21.99165712 27.89717399 10.23680164
v 22.08899464 27.81932193 10.07980273
v 23.00308653 27.06997592 10.07980273
v 23.57213189 26.57365707 11.32136599
v 23.63702309 26.51526730 11.32136599
v 23.63639887 26.51526730 12.17991113
v 23.63889575 26.51202311 12.18464997
v 22.59813965 27.41058774 12.18464997
v 22.59626845 27.41058774 10.07980273
v 23.08232896 27.00185645 12.17991113
v 22.65242494 27.36517186 11.32136599
v 23.08232896 27.00185645 12.18464997
f 1 2 7
f 1 7 3
f 1 3 9
f 1 9 4
f 1 4 10
f 1 10 5
f 1 5 11
f 1 11 13
f 1 13 6
f 1 6 2
f 2 6 14
f 2 14 24
f 2 24 33
f 2 33 41
f 2 41 47
f 2 47 56
f 2 56 61
f 2 61 57
f 2 57 48
f 2 48 42
f 2 42 35
f 2 35 27
f 2 27 34
f 2 34 25
f 2 25 15
f 2 15 7
f 3 7 16
f 3 16 8
f 3 8 9
f 4 9 20
f 4 20 29
f 4 29 37
f 4 37 44
f 4 44 51
f 4 51 58
f 4 58 52
f 4 52 45
f 4 45 38
f 4 38 30
f 4 30 21
f 4 21 12
f 4 12 10
f 5 10 12
f 5 12 11
f 6 13 14
f 7 15 16
f 8 16 25
f 8 25 17
f 8 17 9
f 9 17 18
f 9 18 19
f 9 19 27
f 9 27 20
f 11 12 13
f 12 21 31
f 12 31 32
f 12 32 22
f 12 22 23
f 12 23 13
f 13 23 24
f 13 24 14
f 15 25 16
f 17 25 18
f 18 26 19
f 18 25 26
f 19 26 27
f 20 27 36
f 20 36 28
f 20 28 29
f 21 30 31
f 22 24 23
f 22 32 33
f 22 33 24
f 25 34 26
f 26 34 27
f 27 35 36
f 28 37 29
f 28 36 43
f 28 43 37
f 30 38 46
f 30 46 39
f 30 39 32
f 30 32 31
f 32 39 40
f 32 40 33
f 33 40 41
f 35 42 36
f 36 42 43
f 37 43 50
f 37 50 44
f 38 45 54
f 38 54 46
f 39 47 41
f 39 41 40
f 39 46 47
f 42 48 49
f 42 49 43
f 43 49 50
f 44 50 51
f 45 52 53
f 45 53 54
f 46 54 47
f 47 54 55
f 47 55 56
f 48 57 49
f 49 57 51
f 49 51 50
f 51 57 58
f 52 59 53
f 52 58 60
f 52 60 57
f 52 57 61
f 52 61 59
f 53 59 61
f 53 61 55
f 53 55 54
f 55 61 56
f 57 60 58

