# https://github.com/mikedh/trimesh
v -0.04120054 -20.03982646 12.98752695
v 0.04216222 -20.08345184 11.81156754
v 4.96848440 -25.20217729 11.81156754
v -0.04120054 -20.03982646 14.15522516
v -0.04120054 20.04232290 12.98752695
v 0.04216222 20.08110138 11.81156754
v 20.23174679 -25.20217729 11.81156754
v 4.97642392 -25.20217729 12.98729748
v 4.81565336 -23.85948253 14.15522516
v -0.04120054 20.04232290 14.15522516
v 4.91687933 24.31762206 11.81156754
v 20.23174679 -25.20217729 12.98729748
v 20.23174679 24.31762206 11.81156754
v 4.81565336 23.86197897 14.15522516
v 4.92283346 24.31762206 12.98729748
v 4.91687933 24.31762206 11.82762772
v 20.23174679 24.31762206 12.98729748
f 1 2 3
f 1 3 4
f 1 4 10
f 1 10 5
f 1 5 6
f 1 6 2
f 2 6 11
f 2 11 13
f 2 13 7
f 2 7 3
f 3 7 12
f 3 12 8
f 3 8 4
f 4 8 9
f 4 9 14
f 4 14 10
f 5 10 16
f 5 16 11
f 5 11 6
f 7 13 17
f 7 17 12
f 8 12 9
f 9 12 17
f 9 17 14
f 10 14 15
f 10 15 16
f 11 16 15
f 11 15 17
f 11 17 13
f 14 17 15

