# https://github.com/mikedh/trimesh
v -35.48964644 -0.45182968 1.37502491
v -35.43406034 -1.36210672 0.45882791
v -35.44795686 -1.36210672 1.03915781
v -35.41321719 -2.27933248 1.37502491
v -35.48964644 -0.45182968 2.98613340
v -35.48964644 0.00678315 1.37414962
v -35.44795686 -0.45182968 0.45882791
v -35.12139017 -1.36210672 -0.25182903
v -35.10054702 -2.27933248 -0.25182903
v -35.07275397 -3.19655803 -0.24701655
v -35.39237076 -2.27933248 0.45882791
v -35.41321719 -2.27933248 2.98613340
v -35.33678466 -3.19655803 0.45882791
v -35.32288814 -3.41891575 2.98613340
v -35.48964644 0.45149863 2.98613340
v -34.64196170 -7.64371318 3.96355510
v -35.48964644 0.45149863 1.37414962
v -35.44795686 0.22219222 0.45882791
v -35.12834007 -0.45182968 -0.25182903
v -34.36403120 -2.27933248 -0.50416291
v -34.36403120 -3.19655803 -0.49716711
v -34.36403120 -4.11378359 -0.47836304
v -35.03106439 -4.11378359 -0.22690117
v -34.97547830 -5.03795822 -0.18272996
v -35.24645889 -4.11378359 0.45882791
v -35.30899161 -3.53704338 1.03915781
v -35.24645889 -4.11378359 2.98613340
v -35.46185339 1.36872434 2.98613340
v -34.87125272 6.61497741 2.98613340
v -34.98242492 5.95485273 2.98613340
v -35.12834007 5.03762717 2.98613340
v -35.25340552 4.11345254 2.98613340
v -35.33678466 3.19622698 2.98613340
v -35.41321719 2.28595010 2.98613340
v -35.12834007 -5.03795822 2.98613340
v -34.98242492 -5.95518378 2.98613340
v -34.86430610 -6.61530846 2.98613340
v -34.77397704 -7.06002389 2.98613340
v -34.62111527 -7.78268662 2.98613340
v -34.39182425 -8.70686126 3.96355510
v -28.98608917 20.47759327 3.96355510
v -35.46185339 1.36872434 2.01002300
v -35.44795686 1.37567301 1.03915781
v -35.43406034 1.37567301 0.46013921
v -35.44795686 0.45149863 0.46013921
v -35.12834007 0.22219222 -0.25182903
v -34.37098110 0.22914089 -0.50329089
v -34.36403120 0.22219222 -0.50416291
v -33.44686383 -7.78268662 -0.50416291
v -34.36403120 -5.03795822 -0.43463111
v -33.44686383 -8.69991218 -0.48273623
v -34.90599567 -5.94823511 -0.10707438
v -34.14863670 -8.69991218 -0.22996306
v -34.85040957 -6.54582174 -0.03797531
v -35.12834007 -5.03795822 0.45882791
v -34.77397704 7.07359019 2.98613340
v -34.77397704 7.07359019 1.37414962
v -34.86430610 6.61497741 0.46013921
v -34.98242492 5.95485273 0.46013921
v -35.12834007 5.04457584 1.03915781
v -35.12834007 5.03762717 0.46013921
v -35.24645889 4.12040121 0.46013921
v -35.33678466 3.19622698 0.46013921
v -35.41321719 2.28595010 1.37414962
v -34.98242492 -5.94823511 0.45882791
v -34.86430610 -6.60835979 0.45882791
v -34.77397704 -7.06002389 1.03915781
v -34.72534085 -7.29627875 2.01133430
v -34.62111527 -7.78268662 1.37502491
v -34.39877415 -8.69991218 2.98613340
v -34.35013467 -8.86668031 3.96355510
v -28.47886438 21.17940876 3.96355510
v -28.47886438 21.17940876 2.01133430
v -28.88186360 20.61656671 1.37414962
v -29.27096630 20.06762120 1.37414962
v -29.27096630 20.06762120 2.01002300
v -29.26401639 20.07456946 2.98656940
v -29.56973994 19.62290454 2.98656940
v -30.02832526 18.90719089 2.98656940
v -30.31320238 18.44857770 2.98656940
v -30.65366888 17.87878739 2.98656940
v -31.03582168 17.20476496 2.98656940
v -31.29290575 16.74615177 2.98656940
v -31.65421540 16.04433465 2.98656940
v -31.98078210 15.38421037 2.98656940
v -32.27955574 14.75188079 2.98656940
v -32.51579667 14.20988354 2.98656940
v -32.85626316 13.41773408 2.98656940
v -33.04386461 12.95912172 2.98656940
v -33.25925911 12.37543243 2.98656940
v -33.44686383 11.85428160 2.98613340
v -33.82901663 10.72859588 2.98613340
v -33.96798188 10.26998269 2.98613340
v -34.16253323 9.61680668 2.98613340
v -34.40572077 8.69958113 2.98613340
v -34.62111527 7.78235557 2.98613340
v -35.39237076 2.29289877 0.46013921
v -35.12139017 1.37567301 -0.25007844
v -35.07275397 3.19622698 -0.24701655
v -35.10054702 2.29289877 -0.25007844
v -35.12834007 0.45149863 -0.25007844
v -34.37098110 2.29289877 -0.50329089
v -28.86796707 0.22219222 -0.50416291
v -33.44686383 7.78235557 -0.50329089
v -32.53664309 10.54098132 -0.50329089
v -31.61947245 13.27181238 -0.50329089
v -29.79208434 16.94071459 -0.50329089
v -27.95774633 19.69239208 -0.50329089
v -25.20624096 22.45101782 -0.50329089
v -19.69628194 27.94047463 -0.50329089
v -16.93782667 29.76797747 -0.50329089
v -13.26915311 31.59548032 -0.50329089
v -10.53154344 32.52660322 -0.50329089
v -7.79393377 33.43687969 -0.50329089
v -2.29092220 34.35410606 -0.50329089
v -32.53664309 -10.52741503 -0.50416291
v -32.53664309 -11.44464058 -0.48973203
v -33.44686383 -9.61713773 -0.40095687
v -33.27315563 -11.44464058 -0.23827016
v -34.03051460 -9.61713773 -0.14905572
v -34.76703042 -7.06002389 0.45882791
v -33.94713545 -10.20082702 -0.05852997
v -34.39182425 -8.69991218 0.45882791
v -34.62111527 7.78235557 1.37414962
v -34.76703042 7.07359019 0.46013921
v -34.85040957 6.55243936 -0.03797531
v -34.90599567 5.95485273 -0.10707438
v -34.97547830 5.03762717 -0.18272996
v -35.03106439 4.12040121 -0.22690117
v -34.39877415 -8.69991218 1.37502491
v -34.16253323 -9.61713773 0.45882791
v -34.15558333 -9.62408682 2.98613340
v -34.11389375 -9.73526557 3.96355510
v -28.13145453 21.63802194 3.96355510
v -28.48581428 21.16551223 0.46013921
v -28.13840115 21.62412542 0.46013921
v -29.25706977 20.06762120 0.46013921
v -29.56973994 19.60900801 0.46013921
v -29.56973994 19.62290454 2.01133430
v -30.03527189 18.90024262 2.01002300
v -30.22982324 18.59450104 2.01133430
v -30.65366888 17.87878739 2.01133430
v -31.03582168 17.20476496 2.01133430
v -31.29290575 16.74615177 2.01133430
v -31.66116202 16.03738638 2.01002300
v -31.75843770 15.84282356 2.01133430
v -31.98773200 15.37726211 1.37414962
v -32.19617987 14.91864892 0.46013921
v -32.51579667 14.20988354 2.01133430
v -32.85626316 13.41773408 2.01133430
v -33.04386461 12.95912172 2.01133430
v -33.25925911 12.37543243 0.46013921
v -33.58582908 11.44430953 1.37414962
v -33.82901663 10.73554414 1.37414962
v -33.82901663 10.73554414 2.01002300
v -33.92629230 10.42285348 2.01002300
v -34.16253323 9.62375576 2.01002300
v -34.40572077 8.69958113 2.01002300
v -34.37098110 3.19622698 -0.49847841
v -34.37098110 4.12040121 -0.47836304
v -21.55146310 -3.19655803 -0.50416291
v 2.05173241 34.35410606 -0.50329089
v 22.19470060 25.44589924 -0.50329089
v -33.44686383 8.70653021 -0.48273623
v -32.53664309 11.44430953 -0.48973203
v -31.61947245 14.19598701 -0.45168459
v -30.70230508 16.03738638 -0.45474648
v -28.86796707 18.78211560 -0.49148262
v -26.12340996 22.45101782 -0.48842072
v -25.20624096 23.35434603 -0.49978971
v -24.28907359 24.28546893 -0.50285161
v -23.37190459 25.18879714 -0.50022900
v -22.45473558 26.11297178 -0.48973203
v -18.77911294 28.85770100 -0.49148262
v -16.03455583 30.68520385 -0.45474648
v -14.18632129 31.59548032 -0.45212388
v -11.44871162 32.52660322 -0.49017131
v -8.69720625 33.43687969 -0.48273623
v -4.11831113 34.35410606 -0.47967434
v -3.20809079 34.35410606 -0.49891770
v -2.29092220 35.09761440 -0.25007844
v -0.45658480 35.11846083 -0.25007844
v -31.61252582 -13.27214343 -0.50416291
v -31.61252582 -14.18241990 -0.45212388
v -32.53664309 -12.36881522 -0.40095687
v -33.12724376 -12.36881522 -0.14905572
v -33.96798188 -10.27031374 0.45882791
v -33.02996809 -12.90386339 -0.04672170
v -33.25925911 -12.36881522 0.45882791
v -34.39877415 8.70653021 1.03915781
v -34.39182425 8.70653021 0.46013921
v -33.95408535 10.20049597 -0.05852997
v -34.03051460 9.62375576 -0.14905572
v -34.14863670 8.70653021 -0.22996306
v -34.37098110 5.03762717 -0.43463111
v -33.96798188 -10.27031374 2.98613340
v -33.95408535 -10.28421109 3.96355510
v -27.74929846 22.11748156 3.96355510
v -27.67981911 22.20781389 2.01002300
v -27.67981911 22.20781389 0.46013921
v -28.46496785 21.13771754 -0.05546808
v -30.29235924 18.39993822 -0.06159186
v -30.02832526 18.90024262 0.46013921
v -30.03527189 18.90024262 1.37414962
v -30.31320238 18.44162944 0.46013921
v -30.66061551 17.86488923 1.37414962
v -31.04276830 17.18391853 1.37414962
v -31.28595913 16.73225525 0.46013921
v -31.66116202 16.03738638 1.37414962
v -31.97383547 15.37726211 0.46013921
v -32.15449030 14.82831660 -0.09788871
v -33.02996809 12.90353234 -0.04672170
v -32.50885004 14.19598701 0.46013921
v -32.51579667 14.19598701 1.03915781
v -33.04386461 12.94522437 0.46013921
v -33.96798188 10.26998269 0.46013921
v -34.16253323 9.62375576 0.46013921
v 25.16855037 22.47881251 -0.50329089
v 27.94784879 19.69934034 -0.50329089
v 29.77524018 16.95461276 -0.50329089
v 31.60957491 13.27181238 -0.50329089
v 32.52674555 10.54098132 -0.50329089
v 33.43696630 7.78235557 -0.50329089
v 34.36108356 2.28595010 -0.50329089
v -21.55146310 -26.09940631 -0.50416291
v 0.43279084 35.11846083 -0.25007844
v 2.26712814 34.35410606 -0.50285161
v 7.77013971 33.44382959 -0.50285161
v 13.25925557 31.60937684 -0.50285161
v 19.67943614 27.94047463 -0.50285161
v 24.27917605 24.27852067 -0.50197959
v 16.92792913 29.77492737 -0.50285161
v -33.44686383 9.62375576 -0.40095687
v -32.53664309 12.37543243 -0.40095687
v -32.28650564 14.19598701 -0.19760013
v -31.39713133 16.03738638 -0.20328462
v -29.79208434 17.86488923 -0.42413414
v -27.95774633 20.61656671 -0.41844964
v -27.04057897 21.52684319 -0.46611547
v -26.15815127 23.39603889 -0.28681457
v -25.25487879 24.32716179 -0.29818356
v -25.16455138 24.32716179 -0.31742692
v -24.33076316 25.24438652 -0.29818356
v -23.39969764 26.15466463 -0.28681457
v -21.54451484 27.03019815 -0.46349287
v -21.53061831 27.01629999 -0.46655476
v -17.85499567 29.76797747 -0.42588472
v -20.61344931 27.94047463 -0.41976094
v -16.95172319 30.71994680 -0.26319802
v -16.03455583 31.38701933 -0.20197332
v -14.18632129 32.26950276 -0.20022273
v -12.35893236 32.52660322 -0.40095687
v -9.61437443 33.43687969 -0.40095687
v -8.69720625 34.13174855 -0.23083508
v -5.04242798 34.35410606 -0.43550313
v -4.11831113 35.02117860 -0.22690117
v -3.20809079 35.05592155 -0.24701655
v -1.37375350 35.43115067 0.45926392
v -0.45658480 35.45199710 0.45926392
v -29.78513772 -16.94104565 -0.50416291
v -30.69535846 -16.02382091 -0.45474648
v -32.28650564 -14.18241990 -0.19760013
v -31.39713133 -16.02382091 -0.20328462
v -32.15449030 -14.82864765 -0.09788871
v -33.46770698 -11.78512593 1.03915781
v -33.82206673 -10.73587519 2.01133430
v -33.04386461 -12.94555542 0.45882791
v -32.19617987 -14.90508345 0.45882791
v -33.25925911 -12.36881522 2.98613340
v -33.12724376 12.37543243 -0.14905572
v -33.28010553 11.44430953 -0.23827016
v -33.82206673 -10.73587519 2.98613340
v -33.84291315 -10.65249113 3.96355510
v -27.29071641 22.68032360 3.96355510
v -27.29766468 22.68032360 2.98656940
v -27.29766468 22.68032360 2.01133430
v -27.29766468 22.67337533 0.46013921
v -29.49331069 19.47698283 -0.15080631
v -27.61728311 22.13832798 -0.11713207
v -30.64671898 17.86488923 0.46013921
v -30.43827111 17.86488923 -0.17223299
v -31.25121618 16.64887118 -0.10357320
v -31.64726550 16.03738638 0.46013921
v 28.86501944 18.78211560 -0.49148262
v 25.18939516 23.36824420 -0.49978971
v 26.10656416 22.45101782 -0.48973203
v 30.69935745 16.03043812 -0.45474648
v 31.60957491 14.19598701 -0.45343518
v 32.52674555 11.45820687 -0.49148262
v 33.43696630 8.70653021 -0.48404753
v 34.36108356 3.19622698 -0.50022900
v 35.11844253 1.37567301 -0.25007844
v 34.36108356 -2.28628115 -0.50329089
v -13.26915311 -31.60970790 -0.50329089
v -16.93782667 -29.77525843 -0.50329089
v -19.69628194 -27.94080568 -0.50329089
v -24.28907359 -24.27885172 -0.50285161
v -27.95774633 -19.69272313 -0.50416291
v 33.43696630 -7.78268662 -0.50329089
v 32.52674555 -10.52741503 -0.50329089
v 31.60957491 -13.27214343 -0.50329089
v 29.77524018 -16.93409738 -0.50329089
v 27.95479869 -19.69272313 -0.50329089
v 22.44483804 -25.18912819 -0.50329089
v 2.05173241 -34.35443712 -0.50329089
v -2.29092220 -34.35443712 -0.50329089
v -7.79393377 -33.44416064 -0.50329089
v 2.26712814 35.09761440 -0.25007844
v 3.18429673 34.35410606 -0.49978971
v 0.43279084 35.45199710 0.45926392
v 8.68730871 33.44382959 -0.48273623
v 11.43186582 32.52660322 -0.49017131
v 14.17642375 31.60937684 -0.45212388
v 16.01771003 30.68520385 -0.45474648
v 22.43788978 26.11297178 -0.48842072
v 23.36200705 25.20269531 -0.49978971
v 18.76226714 28.85770100 -0.49017131
v 24.32781389 25.24438652 -0.29687226
v 25.23803299 24.32716179 -0.29818356
v -30.73704476 16.94071459 -0.26319802
v -29.79208434 18.73347449 -0.22821248
v -28.93050307 19.74798146 -0.29249907
v -27.93690318 21.47125381 -0.20328462
v -27.05447549 22.45101782 -0.26057541
v -26.75570020 23.10419383 -0.14730513
v -25.88022077 24.04226499 -0.16086400
v -24.97694993 24.96643963 -0.16523719
v -24.05978093 25.86976784 -0.16261458
v -23.11481887 26.74530136 -0.14905572
v -22.44778732 27.04409468 -0.26144743
v -19.75186804 28.91329038 -0.29249907
v -18.73742336 29.77492737 -0.22996306
v -21.54451484 27.89183515 -0.19760013
v -17.85499567 30.42115348 -0.17267227
v -16.65294955 31.23414772 -0.10226190
v -14.82555980 32.13747757 -0.09920001
v -12.35893236 33.11029333 -0.14774442
v -11.44871162 33.27011156 -0.23827016
v -9.61437443 34.02056980 -0.14905572
v -5.95264832 34.88915342 -0.10794640
v -5.04242798 34.95169270 -0.18272996
v -3.20809079 35.31997192 0.45926392
v -2.29092220 35.38251119 0.45926392
v -2.29092220 35.41030424 1.03784651
v -1.36680524 35.45894700 1.03784651
v -0.45658480 35.48674005 1.37414962
v -28.86796707 -18.76854849 -0.49148262
v -29.78513772 -17.86522028 -0.42413414
v -30.73704476 -16.94104565 -0.26319802
v -30.43827111 -17.86522028 -0.17267227
v -31.25121618 -16.64920223 -0.10357320
v -31.97383547 -15.35674674 0.45882791
v -33.52329308 -11.61835780 3.96355510
v -33.04386461 -12.94555542 1.03915781
v -32.92574579 -13.23045139 1.03915781
v -32.19617987 -14.90508345 1.03915781
v -32.43936742 -14.36308620 2.98613340
v -32.51579667 -14.18241990 1.37502491
v -31.65421540 -16.02382091 1.03915781
v -31.98078210 -15.35674674 1.37502491
v -33.02996809 -12.95945277 3.96355510
v -33.21756953 -12.46609663 3.96355510
v -26.92245850 23.12504026 3.96355510
v -26.84602762 23.20842433 0.46013921
v 29.77524018 17.86488923 -0.42413414
v 27.02373317 21.52684319 -0.46786606
v 27.94784879 20.61656671 -0.42238355
v 26.14825374 23.38214072 -0.28681457
v 31.39418041 16.03043812 -0.20328462
v 30.73409712 16.95461276 -0.26319802
v 32.28355473 14.19598701 -0.20153403
v 32.52674555 12.36848417 -0.40095687
v 33.43696630 9.62375576 -0.40095687
v 34.14568579 8.70653021 -0.23214638
v 34.36108356 5.04457584 -0.43550313
v 34.36108356 4.11345254 -0.47967434
v 35.07675296 3.19622698 -0.24745584
v 35.43805933 1.37567301 0.45882791
v 35.45195585 0.45844730 0.45882791
v 35.11844253 -1.36905539 -0.25007844
v 34.36108356 -3.19655803 -0.50022900
v -14.18632129 -31.60970790 -0.45212388
v -16.03455583 -30.68553490 -0.45474648
v -11.44871162 -32.52693427 -0.49017131
v -18.77911294 -28.85803205 -0.49148262
v -22.45473558 -26.11330283 -0.48973203
v -23.37190459 -25.18912819 -0.50022900
v -24.33076316 -25.23776931 -0.29818356
v -25.25487879 -24.31359467 -0.29818356
v -25.20624096 -23.35467708 -0.49978971
v -26.12340996 -22.44440061 -0.48973203
v 33.43696630 -8.69991218 -0.48273623
v 32.52674555 -11.44464058 -0.49148262
v 31.60957491 -14.18241990 -0.45343518
v 30.68546092 -16.02382091 -0.45474648
v 28.86501944 -18.76854849 -0.49148262
v 26.10656416 -22.44440061 -0.48842072
v 25.19634342 -23.35467708 -0.49978971
v 24.27917605 -24.27885172 -0.50197959
v 19.67943614 -27.94080568 -0.50285161
v 16.92792913 -29.77525843 -0.50285161
v 13.25925557 -31.61665780 -0.50285161
v 7.77013971 -33.44416064 -0.50285161
v 3.18429673 -34.35443712 -0.49978971
v 1.34301118 -35.11184198 -0.25007844
v 0.43279084 -35.11879188 -0.25007844
v -3.20809079 -34.35443712 -0.49891770
v -0.45658480 -35.11879188 -0.25007844
v -1.37375350 -35.11184198 -0.25007844
v -4.11831113 -34.35443712 -0.47967434
v -8.69720625 -33.44416064 -0.48273623
v 1.34301118 35.43115067 0.45926392
v 2.05173241 35.40335762 0.45926392
v 3.18429673 35.06287145 -0.24701655
v 4.08756880 34.35410606 -0.47836304
v 0.01589599 35.48674005 1.37414962
v 0.43279084 35.47284352 1.03784651
v 0.76630667 35.46589362 1.03784651
v 9.59752863 33.44382959 -0.40095687
v 5.00473740 34.35410606 -0.43550313
v 8.68730871 34.13174855 -0.23083508
v 12.34208656 32.52660322 -0.40051758
v 14.17642375 32.28339928 -0.20022273
v 16.01771003 31.39396923 -0.20328462
v 16.93487739 30.73384332 -0.26319802
v 17.84509813 29.77492737 -0.42282283
v 22.19470060 26.36312398 -0.48273623
v 23.39674836 26.15466463 -0.28681457
v 20.59660515 27.94047463 -0.42107224
v 21.51377251 27.01629999 -0.46655476
v 24.97400066 24.96643963 -0.16523719
v 24.04988339 25.86976784 -0.16217530
v 25.86337497 24.05616316 -0.16261458
v -26.44303003 23.66008761 0.46013921
v -25.98444471 24.16734191 0.46013921
v -25.55365408 24.62595510 0.46013921
v -25.16455138 25.02202901 0.46013921
v -24.17095313 25.98094660 0.46013921
v -24.62953681 25.54317984 0.46013921
v -23.67762649 26.43261152 0.46013921
v -22.14901203 27.60693836 -0.11844337
v -19.48088581 29.48308068 -0.15080631
v -18.40390677 30.27523177 -0.06421447
v -16.72938043 31.27584058 0.45926392
v -16.03455583 31.63717317 0.45926392
v -14.90893895 32.18611705 0.45926392
v -12.90089602 33.01301109 -0.04409909
v -10.20497592 33.93718409 -0.05677938
v -6.53630113 34.83356404 -0.03972590
v -4.11831113 35.23658949 0.45926392
v -3.20114253 35.34081834 1.03784651
v -2.29092220 35.41725415 1.37414962
v -1.36680524 35.46589362 1.37414962
v -1.15140951 35.47284352 2.98656940
v -0.45658480 35.48674005 3.96355510
v 0.01589599 35.49368995 2.01002300
v -27.04057897 -21.52022598 -0.46655476
v -27.95774633 -20.59605134 -0.41976094
v -28.93050307 -19.74831251 -0.29249907
v -29.79208434 -18.73380554 -0.22821248
v -29.49331069 -19.47731388 -0.15080631
v -30.29235924 -18.40026927 -0.06159186
v -31.03582168 -17.18424958 0.45882791
v -31.28595913 -16.71868813 0.45882791
v -32.85626316 -13.39721953 2.98613340
v -31.98078210 -15.35674674 2.98613340
v -31.96688557 -15.38454143 3.96355510
v -32.18228335 -14.91897998 3.96355510
v -32.50885004 -14.20326633 3.96355510
v -31.52219677 -16.28092137 1.03915781
v -31.64031887 -16.03771744 3.96355510
v -32.78678054 -13.55703940 3.96355510
v -26.43608177 23.67398578 3.96355510
v -26.43608177 23.67398578 2.01133430
v 29.78913670 18.74042275 -0.22952378
v 27.03762969 22.44406956 -0.26188672
v 27.92700564 21.47125381 -0.20765781
v 28.92060554 19.75492972 -0.29118776
v 26.73885440 23.11114210 -0.14905572
v 30.43532347 17.86488923 -0.17267227
v 31.23437202 16.65581944 -0.10357320
v 32.14459276 14.83526486 -0.10095060
v 33.12429285 12.36848417 -0.14905572
v 33.27020800 11.45820687 -0.24002075
v 34.02061706 9.62375576 -0.14949501
v 34.84051203 6.55243936 -0.04234850
v 34.89609813 5.95485273 -0.10969698
v 34.97252738 5.04457584 -0.18272996
v 35.03506338 4.11345254 -0.22821248
v 35.38942313 2.28595010 0.45882791
v 35.43805933 1.70226091 1.03915781
v 35.46585238 1.37567301 2.01133430
v 35.47974890 0.45844730 1.37502491
v 35.45195585 -0.18777987 0.45882791
v 35.43805933 -1.36905539 0.46013921
v 35.07675296 -3.19655803 -0.24745584
v 34.36108356 -4.11378359 -0.47967434
v -16.03455583 -31.38735038 -0.20197332
v -12.35893236 -32.52693427 -0.40095687
v -14.18632129 -32.28373033 -0.20022273
v -16.95172319 -30.72027785 -0.26319802
v -17.85499567 -29.77525843 -0.42588472
v -9.61437443 -33.44416064 -0.40095687
v -20.61344931 -27.94080568 -0.41976094
v -21.55146310 -27.01663104 -0.46655476
v -23.39969764 -26.14109752 -0.28812587
v -24.97694993 -24.96677068 -0.16654849
v -24.05978093 -25.86315063 -0.16261458
v -25.88022077 -24.04259605 -0.16086400
v -26.15815127 -23.38247177 -0.28681457
v 34.36108356 -5.03100955 -0.43550313
v 34.14568579 -8.69991218 -0.23258567
v 33.43696630 -9.61713773 -0.40095687
v 32.52674555 -12.36881522 -0.40095687
v 32.27660811 -14.18241990 -0.20197332
v 31.39418041 -16.02382091 -0.20197332
v 30.73409712 -16.94104565 -0.26319802
v 29.77524018 -17.85827202 -0.42413414
v 27.95479869 -20.59605134 -0.42282283
v 27.02373317 -21.52717424 -0.46786606
v 26.14825374 -23.38247177 -0.28812587
v 25.23803299 -24.32749284 -0.29687226
v 24.32781389 -25.23776931 -0.29687226
v 23.36895531 -25.18912819 -0.49978971
v 18.76226714 -28.85803205 -0.49017131
v 22.44483804 -26.11330283 -0.48842072
v 16.01771003 -30.68553490 -0.45649707
v 14.17642375 -31.61665780 -0.45212388
v 11.43186582 -32.52693427 -0.49017131
v 8.68730871 -33.44416064 -0.48273623
v 4.08756880 -34.35443712 -0.47836304
v 3.18429673 -35.06320250 -0.24701655
v 2.26712814 -35.09794546 -0.25007844
v 2.05173241 -35.10489536 -0.25007844
v 0.43279084 -35.45232815 0.45926392
v 0.01589599 -35.29945654 0.13258249
v -2.29092220 -35.09794546 -0.25007844
v -3.20809079 -35.06320250 -0.24701655
v -0.45658480 -35.45232815 0.45926392
v -5.04242798 -34.35443712 -0.43550313
v -4.11831113 -35.02845955 -0.22690117
v -8.69720625 -34.13207960 -0.23083508
v 2.05173241 35.41030424 0.66786915
v 2.60064391 35.38251119 1.03784651
v 3.18429673 35.31997192 0.45926392
v 4.08756880 35.02117860 -0.22690117
v 0.45363558 35.48674005 2.01133430
v 1.37080423 35.45894700 2.01133430
v 1.34995944 35.45199710 1.37414962
v 11.43186582 33.27011156 -0.23827016
v 5.00473740 34.96558922 -0.18272996
v 5.92885425 34.88220679 -0.10838568
v 6.51945533 34.84051394 -0.03972590
v 9.59752863 34.02056980 -0.14774442
v 14.80176574 32.15137410 -0.09920001
v 12.34208656 33.12418985 -0.14774442
v 16.62915548 31.23414772 -0.10401249
v 17.84509813 30.43505001 -0.17223299
v 18.71362930 29.78187400 -0.22777319
v 19.74197051 28.92718690 -0.29118776
v 22.19470060 27.04409468 -0.31611562
v 22.43788978 27.04409468 -0.26144743
v 23.10492134 26.74530136 -0.14774442
v 21.45818641 27.92657810 -0.20634651
v 25.54375654 24.62595510 0.45882791
v 24.61963927 25.54317984 0.45882791
v 24.16800385 25.98094660 0.45882791
v 26.44008076 23.66008761 0.45882791
v -25.85242772 24.31326362 2.01002300
v -25.82463631 24.34105831 1.03915781
v -25.55365408 24.62595510 3.96355510
v -25.18539617 25.00118258 2.23480642
v -25.09506876 25.09151655 2.01002300
v -24.62953681 25.55012810 2.01133430
v -24.28212533 25.87671610 2.98700869
v -24.17095313 25.98094660 1.03915781
v -23.91386742 26.21720227 2.01002300
v -23.67067823 26.43955978 2.01133430
v -23.21209455 26.84258359 2.01133430
v -23.05228451 26.98155704 2.01002300
v -23.21904281 26.82868543 0.46013921
v -22.67707998 27.28729862 0.46013921
v -22.21849466 27.66252774 0.46013921
v -21.12762073 28.44772893 -0.05546808
v -19.60595453 29.56646639 0.45926392
v -18.43864808 30.30302482 0.45926392
v -17.18796412 31.01874011 0.45926392
v -17.19491238 31.03958654 1.03915781
v -16.73632869 31.28973710 1.03915781
v -16.03455583 31.65106970 1.03915781
v -15.37447089 31.98460596 1.03915781
v -14.91588721 32.19306695 1.03915781
v -13.90839079 32.64473188 1.03915781
v -12.93563651 33.02690762 0.45926392
v -12.35893236 33.24926513 0.45926392
v -10.26056202 33.95803052 0.45926392
v -9.61437443 34.14564508 0.45926392
v -8.69720625 34.37495249 0.45926392
v -6.61968028 34.85441047 0.45926392
v -5.95264832 34.97253912 0.45926392
v -5.04242798 35.11846083 0.45926392
v -4.11831113 35.25048601 1.03784651
v -3.20114253 35.34776824 1.37414962
v -2.29092220 35.41725415 3.96355510
v -1.37375350 35.46589362 2.01133430
v -1.37375350 35.46589362 3.96355510
v 0.45363558 35.48674005 3.96355510
v 0.67597947 35.48674005 2.98700869
v -27.05447549 -22.43050245 -0.26057541
v -27.93690318 -21.47158486 -0.20328462
v -28.46496785 -21.13110033 -0.05546808
v -30.02832526 -18.89362541 0.45882791
v -30.31320238 -18.43501223 0.45882791
v -29.56973994 -19.60239080 0.45882791
v -31.13309735 -17.01748145 1.03915781
v -30.65366888 -17.86522028 1.03915781
v -31.27900923 -16.73953456 3.96355510
v -25.88022077 24.27852067 2.98656940
v 29.47646325 19.49088099 -0.15080631
v 27.60043895 22.13832798 -0.12019396
v 28.63572514 20.61656671 -0.16961038
v 30.28940832 18.40688648 -0.06290317
v 31.28300821 16.73225525 0.45882791
v 31.63736796 16.03043812 0.45882791
v 32.19322896 14.91864892 0.45882791
v 31.03287077 17.19781670 0.45882791
v 33.02007055 12.90353234 -0.04541039
v 33.93723791 10.21439331 -0.05677938
v 34.86135518 6.62887475 0.45882791
v 34.97947728 5.95485273 0.45882791
v 35.11844253 5.04457584 0.45882791
v 35.24350798 4.11345254 0.45882791
v 34.38887661 8.70653021 0.45882791
v 35.33383703 3.19622698 0.45882791
v 35.38247323 2.61948657 1.03915781
v 35.41026628 2.28595010 1.37502491
v 35.41721618 2.28595010 2.01133430
v 35.46585238 1.37567301 3.96355510
v 35.49364543 0.45844730 3.96355510
v 35.47974890 -0.02101156 1.37502491
v 35.45195585 -1.36905539 1.37414962
v 35.41026628 -2.28628115 1.37414962
v 35.38942313 -2.28628115 0.46013921
v 35.47280228 -0.45182968 1.37414962
v 35.03506338 -4.11378359 -0.22821248
v -16.65294955 -31.23447878 -0.10226190
v -17.85499567 -30.43538106 -0.17267227
v -14.82555980 -32.15170515 -0.09920001
v -11.44871162 -33.27044261 -0.23827016
v -12.35893236 -33.11757100 -0.14774442
v -18.73742336 -29.78220505 -0.22996306
v -19.75186804 -28.91362143 -0.29249907
v -21.55146310 -27.86436987 -0.20940840
v -22.44778732 -27.03747747 -0.26144743
v -23.11481887 -26.73868415 -0.14949501
v -24.62953681 -25.54351089 0.45882791
v -25.09506876 -25.07794944 0.45882791
v -25.55365408 -24.61238799 0.45882791
v -24.17095313 -25.97432939 0.45882791
v -26.75570020 -23.10452488 -0.14730513
v -25.98444471 -24.16072470 0.45882791
v 34.97252738 -5.03100955 -0.18404126
v 34.02061706 -9.61713773 -0.14949501
v 33.27020800 -11.44464058 -0.24002075
v 34.89609813 -5.95518378 -0.10969698
v 34.84051203 -6.55277041 -0.04234850
v 33.12429285 -12.36881522 -0.14905572
v 32.14459276 -14.82169938 -0.10051131
v 31.23437202 -16.64920223 -0.10270119
v 30.43532347 -17.85827202 -0.17267227
v 29.78913670 -18.72685728 -0.22952378
v 28.92060554 -19.74831251 -0.29118776
v 27.92700564 -21.46463660 -0.20896912
v 27.03762969 -22.44440061 -0.26188672
v 26.74580267 -23.10452488 -0.14949501
v 25.86337497 -24.04259605 -0.16086400
v 24.97400066 -24.96677068 -0.16523719
v 24.04988339 -25.87009889 -0.16086400
v 23.39674836 -26.14109752 -0.28681457
v 17.84509813 -29.77525843 -0.42282283
v 21.51377251 -27.01663104 -0.46655476
v 20.59660515 -27.94080568 -0.42107224
v 16.93487739 -30.73417437 -0.26319802
v 16.01771003 -31.39430029 -0.20328462
v 14.17642375 -32.28373033 -0.20022273
v 12.34208656 -32.52693427 -0.40051758
v 9.59752863 -33.44416064 -0.40095687
v 8.68730871 -34.13207960 -0.23083508
v 5.00473740 -34.35443712 -0.43550313
v 4.08756880 -35.02845955 -0.22690117
v 2.26712814 -35.39673877 0.45926392
v 1.34301118 -35.43148172 0.45926392
v 0.44668732 -35.47317458 1.03784651
v 0.01589599 -35.48707110 1.37414962
v -1.37375350 -35.43148172 0.45926392
v -0.45658480 -35.47317458 1.03784651
v -0.79010068 -35.46622467 1.03784651
v -5.04242798 -34.96592027 -0.18272996
v -2.29092220 -35.38284225 0.45926392
v -3.20809079 -35.32725287 0.45926392
v -9.61437443 -34.02090085 -0.14905572
v -5.95264832 -34.89643437 -0.10794640
v 2.05173241 35.41725415 1.03784651
v 3.20514152 35.34081834 2.01133430
v 3.51086425 35.30607539 1.03784651
v 2.28797292 35.41725415 2.01133430
v 4.08756880 35.23658949 0.45926392
v 1.37080423 35.46589362 2.98656940
v 6.59588622 34.85441047 0.45926392
v 8.68730871 34.38884902 0.45926392
v 10.18813012 33.93718409 -0.05677938
v 5.00473740 35.11846083 0.45926392
v 5.92885425 34.97253912 0.45926392
v 12.88405022 33.01301109 -0.04541039
v 14.89209315 32.19306695 0.45926392
v 16.01771003 31.63717317 0.45926392
v 16.71948290 31.28279048 0.45926392
v 18.37316444 30.27523177 -0.06159186
v 19.46404001 29.48308068 -0.15036702
v 20.59660515 28.63534349 -0.16829908
v 22.19470060 27.49575960 -0.14774442
v 23.66772896 26.43955978 0.45882791
v 22.11132145 27.60693836 -0.11844337
v 22.19470060 27.57219541 -0.04978359
v 25.08517286 25.09151655 1.03915781
v 25.55070480 24.63290336 2.01133430
v 24.62658754 25.55012810 2.01133430
v 24.16800385 25.98789486 2.01133430
v 24.62658754 25.55707800 2.98700869
v 26.43313250 23.67398578 2.01133430
v 26.82918182 23.22232085 2.01133430
v 26.82918182 23.21537259 0.45882791
v -25.18539617 25.00118258 3.96355510
v -24.62953681 25.55012810 3.96355510
v -24.24738402 25.90451079 3.96355510
v -23.67067823 26.43955978 2.98656940
v -23.21209455 26.84258359 3.96355510
v -22.67013172 27.30119678 3.96355510
v -22.67013172 27.30119678 2.01133430
v -22.35745991 27.55829560 2.01133430
v -22.21154639 27.67642426 2.01133430
v -21.63484225 28.12808919 0.46013921
v -21.16931031 28.46857535 0.45926392
v -20.07148648 29.26072317 1.03915781
v -19.75186804 29.48308068 2.01002300
v -18.90418166 30.03202784 1.03915781
v -18.44559634 30.30997473 1.03915781
v -17.86889220 30.65740752 1.03915781
v -16.88224057 31.22025120 2.01002300
v -16.03455583 31.65801960 2.01133430
v -15.38141916 31.98460596 2.01133430
v -14.92283547 32.20001357 2.01133430
v -14.01261473 32.60303902 2.98700869
v -13.40811754 32.85318958 2.01133430
v -12.94953303 33.04080414 2.01133430
v -12.73413772 33.12418985 1.03915781
v -14.20021782 32.51965332 2.01133430
v -12.36588063 33.25621503 1.03915781
v -11.44871162 33.58975130 1.37502491
v -11.19162673 33.66618710 1.03915781
v -10.73304223 33.82600534 1.37502491
v -10.26751028 33.96498042 1.03915781
v -9.61437443 34.15259498 1.03915781
v -8.69720625 34.40969544 1.37502491
v -8.69720625 34.40274554 1.03915781
v -7.78698551 34.61815643 1.03915781
v -6.61273202 34.86830699 1.03784651
v -5.95264832 34.98643565 1.03784651
v -5.03547972 35.13235736 1.03784651
v -4.12525939 35.25048601 2.01133430
v -3.20114253 35.34776824 2.01002300
v -3.20809079 35.34081834 3.96355510
v 1.37080423 35.46589362 3.96355510
v -27.61728311 -22.12476087 -0.11713207
v -26.84602762 -23.20875538 0.45882791
v -27.67981911 -22.20814494 0.45882791
v -28.48581428 -21.16584328 0.45882791
v -29.25706977 -20.06795225 0.45882791
v -30.13949746 -18.72685728 1.03915781
v -29.26401639 -20.06795225 1.03915781
v -29.56279332 -19.61628732 3.20698291
v -30.94549263 -17.35101772 2.98613340
v -31.09140778 -17.08696899 2.98700869
v -30.30625576 -18.44196049 3.96355510
v -30.64671898 -17.86522028 3.96355510
v 28.45507359 21.13771754 -0.05852997
v 27.29471540 22.67337533 0.45882791
v 29.55984240 19.61595627 0.45882791
v 30.01842773 18.90024262 0.45882791
v 30.30330485 18.44162944 0.45882791
v 30.65071797 17.86488923 0.45882791
v 31.28995812 16.73225525 1.03915781
v 31.65126449 16.04433465 2.01133430
v 31.97783446 15.37726211 1.37502491
v 31.97783446 15.39115864 2.01133430
v 32.19322896 14.93254709 2.01133430
v 32.51979565 14.20988354 2.01133430
v 32.50589913 14.19598701 0.45882791
v 30.65766787 17.87878739 2.01133430
v 31.03982067 17.19781670 1.37502491
v 32.84636563 13.39688848 0.45882791
v 33.02701717 12.94522437 0.45882791
v 33.24936157 12.36848417 0.45882791
v 33.56898164 11.45820687 0.45882791
v 33.95808434 10.26998269 0.45882791
v 34.15263569 9.62375576 0.45882791
v 34.86830508 6.62192608 2.01133430
v 34.99337381 5.95485273 3.20698291
v 34.53478849 8.12978918 1.03915781
v 34.61816764 7.78235557 1.37502491
v 34.77797603 7.07359019 2.01133430
v 35.09064948 5.31557406 2.01133430
v 35.13233906 5.03762717 2.01133430
v 35.25045788 4.11345254 2.01133430
v 35.33383703 3.36994399 3.96355510
v 34.40277314 8.70653021 1.37502491
v 35.34078365 3.19622698 2.01133430
v 35.41721618 2.28595010 3.96355510
v 35.47280228 -1.20228705 3.96355510
v 35.47974890 -0.44488101 2.98700869
v 35.46585238 -1.36210672 2.98700869
v 35.41721618 -2.27933248 2.98700869
v 35.33383703 -3.19655803 0.46013921
v -16.03455583 -31.63750422 0.45926392
v -16.72938043 -31.28312153 0.45926392
v -18.40390677 -30.27556283 -0.06421447
v -19.48088581 -29.48341173 -0.15080631
v -12.90089602 -33.01334215 -0.04541039
v -14.90893895 -32.18644810 0.45926392
v -10.20497592 -33.93751514 -0.05677938
v -21.55146310 -27.89216620 -0.19760013
v -22.14206377 -27.59337289 -0.11844337
v -23.21904281 -26.82901648 0.45882791
v -23.67762649 -26.41904441 0.45882791
v -24.16400487 -25.98127765 2.01133430
v -24.62953681 -25.54351089 2.98613340
v -25.18539617 -24.99456537 2.01133430
v -25.65092975 -24.52205566 2.98613340
v -23.51086983 -26.57886428 1.03915781
v -23.53171462 -26.56496776 2.01133430
v -26.44303003 -23.66041866 0.45882791
v -25.98444471 -24.16072470 1.03915781
v 35.24350798 -4.11378359 0.46013921
v 33.93723791 -10.20082702 -0.05546808
v 35.11844253 -5.03100955 0.46013921
v 34.97947728 -5.95518378 0.46013921
v 34.86135518 -6.62225713 0.46013921
v 34.38887661 -8.69991218 0.46013921
v 33.02007055 -12.90386339 -0.04541039
v 32.19322896 -14.91203171 0.46013921
v 31.28300821 -16.73258630 0.46013921
v 30.28940832 -18.38637111 -0.06159186
v 29.49035978 -19.47731388 -0.15080631
v 27.60738557 -22.12476087 -0.12019396
v 28.45507359 -21.13110033 -0.05852997
v 26.44008076 -23.66041866 0.46013921
v 25.97454717 -24.16767297 0.46013921
v 25.54375654 -24.61238799 0.46013921
v 25.16855037 -24.99456537 0.45926392
v 24.61963927 -25.54351089 0.45926392
v 24.16800385 -25.97432939 0.45926392
v 23.10492134 -26.74563241 -0.14905572
v 22.43788978 -27.03747747 -0.26144743
v 22.19470060 -27.03747747 -0.31611562
v 19.74197051 -28.91362143 -0.29118776
v 18.71362930 -29.78220505 -0.22777319
v 21.45818641 -27.91995925 -0.20634651
v 17.84509813 -30.43538106 -0.17223299
v 16.62915548 -31.23447878 -0.10401249
v 14.80176574 -32.15170515 -0.09920001
v 12.34208656 -33.11757100 -0.14774442
v 11.43186582 -33.27044261 -0.23827016
v 9.59752863 -34.02090085 -0.14774442
v 5.92885425 -34.89643437 -0.10838568
v 5.00473740 -34.97287017 -0.18272996
v 3.18429673 -35.32725287 0.45926392
v 3.18429673 -35.34114939 1.03784651
v 2.28102466 -35.41758520 2.01133430
v 2.05173241 -35.41758520 1.03784651
v 1.36385596 -35.46622467 2.01133430
v 1.08592608 -35.47317458 2.01133430
v 0.44668732 -35.48707110 2.01133430
v 0.44668732 -35.49402100 2.98613340
v 0.22434341 -35.49402100 2.98700869
v -0.45658480 -35.48707110 2.01002300
v -1.36680524 -35.45232815 1.03784651
v -1.70726928 -35.43843162 1.03784651
v -2.29092220 -35.41063530 1.03784651
v -1.36680524 -35.45927805 1.37414962
v -4.11831113 -35.24386716 0.45926392
v -3.20114253 -35.34114939 1.03784651
v -6.53630113 -34.84084499 -0.04059792
v 4.12231011 35.25048601 2.01133430
v 3.20514152 35.34081834 3.96355510
v 2.28797292 35.41725415 3.96355510
v 6.61673101 34.86830699 2.01133430
v 7.07531510 34.77102476 2.01133430
v 7.79098449 34.61815643 2.01133430
v 5.95664730 34.98643565 2.01133430
v 8.68730871 34.39579892 1.03784651
v 9.59752863 34.15259498 0.45926392
v 10.25066448 33.95803052 0.45926392
v 11.43186582 33.56890487 0.45926392
v 5.03947871 35.13235736 2.01133430
v 12.92573897 33.03385752 0.45926392
v 14.17642375 32.50575679 0.45926392
v 14.19726854 32.51965332 2.01133430
v 14.91988620 32.19306695 2.01133430
v 15.37846988 31.98460596 2.01133430
v 16.01771003 31.65106970 1.03784651
v 16.73337942 31.29668700 2.29165792
v 17.42820403 30.89366483 1.03784651
v 17.84509813 30.64351099 0.45926392
v 16.03855481 31.65801960 2.01133430
v 18.42180228 30.30997473 0.45926392
v 18.88038760 30.02507794 0.45926392
v 19.58910873 29.56646639 0.45926392
v 21.12467146 28.44772893 -0.05721867
v 23.20914527 26.84258359 2.01133430
v 23.58435145 26.51599559 3.96355510
v 22.67413070 27.28729862 0.45882791
v 25.18244689 25.00118258 2.01133430
v 25.55070480 24.63290336 3.96355510
v 25.65492874 24.52172461 2.98700869
v 24.16800385 25.98789486 3.96355510
v 24.62658754 25.55707800 3.96355510
v 26.50261512 23.59754997 3.96355510
v 26.82918182 23.22232085 3.96355510
v 27.36419639 22.60388943 3.96355510
v 27.28776714 22.68727350 2.01133430
v -23.66372997 26.43955978 3.96355510
v -22.11427072 27.75286007 3.96355510
v -21.62789399 28.13503909 2.01133430
v -21.16931031 28.48247188 1.03915781
v -20.07148648 29.26767307 2.01133430
v -20.07148648 29.26767307 3.96355510
v -19.61290279 29.57341301 3.96355510
v -19.61290279 29.57341301 2.98700869
v -18.90418166 30.03202784 3.96355510
v -18.59150985 30.23353892 2.01133430
v -18.44559634 30.32387125 2.01133430
v -17.86889220 30.65740752 3.96355510
v -17.19491238 31.03958654 3.96355510
v -16.61125997 31.35922628 3.96355510
v -16.03455583 31.65801960 3.96355510
v -15.38836742 31.98460596 3.96355510
v -15.00621462 32.16527062 3.96355510
v -13.40811754 32.85318958 3.96355510
v -14.20021782 32.51965332 3.96355510
v -12.94953303 33.04080414 3.96355510
v -12.77582729 33.11029333 2.01002300
v -12.37282889 33.26316166 2.01133430
v -12.08795095 33.36739379 2.01002300
v -11.23331631 33.66618710 2.01002300
v -11.45565988 33.58975130 2.01133430
v -10.39257819 33.93718409 2.98700869
v -10.27445855 33.97192704 2.01133430
v -9.62132270 34.15954160 2.01133430
v -8.69720625 34.40969544 2.01002300
v -7.79393377 34.62510305 2.01133430
v -9.34339302 34.23597741 2.01002300
v -7.08521264 34.77797466 2.01133430
v -6.62662854 34.86830699 2.01133430
v -5.95959658 34.98643565 2.01133430
v -5.04242798 35.13235736 2.01133430
v -4.88261836 35.15320378 3.96355510
v -4.12525939 35.25048601 3.96355510
v -26.84602762 -23.20875538 2.01133430
v -27.40883524 -22.53473294 2.01133430
v -27.62423301 -22.26373431 2.98613340
v -28.04112548 -21.73563522 3.96355510
v -28.18009073 -21.55496893 3.96355510
v -28.48581428 -21.15889502 2.98613340
v -28.79848445 -20.72112826 3.96355510
v -29.25706977 -20.07490051 3.96355510
v -29.56279332 -19.61628732 3.96355510
v -30.02832526 -18.89362541 2.98613340
v 28.47591674 21.17246049 0.45882791
v 29.24717223 20.07456946 0.45882791
v 28.12850362 21.63107368 0.45882791
v 27.66992157 22.22171205 2.01133430
v 29.26106876 20.08151772 2.01133430
v 29.27496528 20.07456946 3.20698291
v 29.57373893 19.61595627 2.98700869
v 30.11570340 18.77516570 2.01133430
v 30.31720137 18.44162944 1.03915781
v 31.03982067 17.20476496 2.01133430
v 31.28995812 16.73920351 2.98700869
v 31.65126449 16.04433465 2.98656940
v 32.20017886 14.91864892 2.98700869
v 31.97783446 15.39115864 2.98656940
v 32.47115945 14.32801219 3.96355510
v 32.52674555 14.20293527 2.98700869
v 32.85331225 13.41773408 2.01133430
v 30.95644152 17.36458483 2.98700869
v 30.55344230 18.05250379 2.01133430
v 30.65766787 17.87878739 2.98656940
v 33.03396707 12.95912172 2.01133430
v 33.45086282 11.85428160 2.01133430
v 33.25631147 12.37543243 2.01133430
v 33.58982807 11.44430953 2.01133430
v 33.87470519 10.59657070 2.01133430
v 34.15263569 9.62375576 3.96355510
v 34.86830508 6.62887475 2.98700869
v 34.77797603 7.08748753 2.98700869
v 34.99337381 5.95485273 3.96355510
v 34.61816764 7.78235557 3.96355510
v 35.13233906 5.03762717 3.96355510
v 35.22266483 4.34275913 2.98613340
v 35.25045788 4.11345254 3.96355510
v 34.40277314 8.70653021 3.96355510
v 35.46585238 -1.36210672 3.96355510
v 35.41721618 -2.27933248 3.96355510
v 35.34078365 -3.19655803 2.98700869
v -16.03455583 -31.65140075 1.03915781
v -16.73632869 -31.29006815 1.03915781
v -17.02815408 -31.13024992 1.03915781
v -18.43864808 -30.31030578 0.45926392
v -18.89723340 -30.02540899 0.45926392
v -19.60595453 -29.56679744 0.45926392
v -21.12762073 -28.43416018 -0.05546808
v -11.44871162 -33.56923592 0.45926392
v -12.35893236 -33.25654608 0.45926392
v -12.93563651 -33.03418857 0.45926392
v -13.40116927 -32.83962411 0.45926392
v -14.18632129 -32.51303774 1.03915781
v -14.91588721 -32.19339800 1.03915781
v -8.69720625 -34.38918007 0.45926392
v -9.61437443 -34.15292603 0.45926392
v -10.26056202 -33.95836157 0.45926392
v -22.21849466 -27.66285879 0.45882791
v -22.67707998 -27.28762967 0.45882791
v -23.21209455 -26.84291464 2.01133430
v -24.16400487 -25.98127765 3.96355510
v -24.62258855 -25.54351089 3.96355510
v -25.18539617 -24.99456537 3.96355510
v -25.54670582 -24.62628615 3.96355510
v -25.97054819 -24.17462123 3.96355510
v -23.66372997 -26.43989084 3.96355510
v -23.21209455 -26.84291464 3.96355510
v -26.42913351 -23.67431683 3.96355510
v 35.13233906 -5.03100955 2.98700869
v 35.25045788 -4.10683491 2.98700869
v 34.15263569 -9.61713773 0.46013921
v 33.95808434 -10.27031374 0.46013921
v 33.56898164 -11.44464058 0.46013921
v 34.99337381 -5.94823511 2.98700869
v 34.86830508 -6.62225713 2.98700869
v 34.77797603 -7.07392124 2.98700869
v 34.61816764 -7.78268662 1.37414962
v 34.40277314 -8.69991218 1.37414962
v 33.02701717 -12.94555542 0.46013921
v 32.50589913 -14.18241990 0.46013921
v 33.24936157 -12.36881522 0.46013921
v 32.51979565 -14.18241990 1.37414962
v 32.18628233 -14.93287814 2.98700869
v 31.97783446 -15.37759316 2.01002300
v 31.97783446 -15.37064490 1.37414962
v 31.40113032 -16.51717705 2.01002300
v 31.28300821 -16.73953456 2.98700869
v 31.03982067 -17.18424958 1.03915781
v 31.03287077 -17.18424958 0.46013921
v 30.65071797 -17.85827202 0.46013921
v 30.30330485 -18.43501223 0.46013921
v 30.01842773 -18.90057367 0.46013921
v 29.55984240 -19.60933906 0.46013921
v 27.29471540 -22.66675812 0.46013921
v 29.25411886 -20.05405409 0.46013921
v 28.47591674 -21.17279154 0.46013921
v 28.12850362 -21.62445647 0.46013921
v 27.66297167 -22.20814494 0.46013921
v 27.29471540 -22.67370639 1.03915781
v 26.83613008 -23.20875538 2.01002300
v 26.43313250 -23.67431683 2.01133430
v 25.53680828 -24.63323442 2.01133430
v 25.08517286 -25.09184760 1.03915781
v 26.43313250 -23.67431683 3.96355510
v 24.62658754 -25.55740905 2.01133430
v 24.27917605 -25.88399706 2.98613340
v 23.66772896 -26.43294257 0.45926392
v 22.67413070 -27.28762967 0.45926392
v 22.11132145 -27.59337289 -0.11844337
v 22.19470060 -27.48219249 -0.14774442
v 19.46404001 -29.48341173 -0.15036702
v 21.12467146 -28.43416018 -0.05721867
v 18.37316444 -30.27556283 -0.06159186
v 16.71948290 -31.29006815 0.45926392
v 14.89209315 -32.18644810 0.45926392
v 14.17642375 -32.50608784 0.45926392
v 12.88405022 -33.01334215 -0.04541039
v 15.35762509 -31.96409059 0.45926392
v 10.18813012 -33.93751514 -0.05677938
v 6.51945533 -34.84084499 -0.03972590
v 4.08756880 -35.24386716 0.45926392
v 3.19819326 -35.34809930 2.01133430
v 2.28102466 -35.41758520 3.96355510
v 1.36385596 -35.46622467 3.96355510
v 0.44668732 -35.49402100 3.96355510
v 0.00199949 -35.49402100 3.58395606
v -0.45658480 -35.48707110 2.98613340
v -1.36680524 -35.46622467 2.01133430
v -2.29092220 -35.41758520 1.37414962
v -4.11831113 -35.25081706 1.37414962
v -5.03547972 -35.13268841 2.01133430
v -5.04242798 -35.11879188 0.45926392
v -2.56885208 -35.39673877 2.01133430
v -3.20809079 -35.34809930 3.96355510
v -5.95264832 -34.97287017 0.45926392
v -6.61968028 -34.86169142 0.45926392
v 4.34465410 35.22268968 2.98700869
v 4.12231011 35.25048601 3.96355510
v 6.62367927 34.86830699 2.98700869
v 7.07531510 34.77797466 2.98656940
v 7.95079453 34.58341348 3.96355510
v 8.70120524 34.40274554 2.01133430
v 7.08226336 34.77797466 3.96355510
v 5.95664730 34.98643565 3.96355510
v 9.62532168 34.15954160 2.01133430
v 10.59807679 33.87464809 2.01133430
v 10.54249069 33.87464809 1.03784651
v 12.36987961 33.26316166 2.01133430
v 10.95938561 33.75651943 2.01133430
v 11.45271061 33.58975130 2.01133430
v 5.03947871 35.13235736 3.96355510
v 12.94658376 33.04080414 2.01133430
v 13.64835745 32.75591063 2.01133430
v 14.37792337 32.44321751 2.98656940
v 14.91988620 32.20001357 2.98656940
v 15.37846988 31.98460596 2.98656940
v 16.73337942 31.29668700 2.98656940
v 17.19196310 31.03958654 2.98656940
v 17.85899466 30.65740752 2.01133430
v 16.03855481 31.65801960 3.96355510
v 18.44264707 30.31692135 2.01133430
v 18.90123239 30.03202784 2.01133430
v 19.11662688 29.89305275 2.01133430
v 19.60995352 29.57341301 2.01133430
v 20.06853720 29.26767307 2.01133430
v 20.05464068 29.25377655 0.45926392
v 21.15941277 28.47552198 0.45926392
v 22.19470060 27.66947436 0.45882791
v 23.20914527 26.84258359 3.96355510
v 22.66718244 27.30119678 2.01133430
v 22.21554538 27.67642426 2.01133430
v 27.66992157 22.22171205 3.96355510
v -21.16931031 28.48247188 3.96355510
v -21.62789399 28.13503909 2.98656940
v -21.00255201 28.60754716 2.01133430
v -20.48838222 28.97582638 2.98700869
v -20.62039757 28.87854743 3.96355510
v -18.44559634 30.31692135 3.96355510
v -18.44559634 30.32387125 2.98656940
v -12.37282889 33.26316166 3.96355510
v -11.45565988 33.58975130 3.96355510
v -10.73304223 33.82600534 3.96355510
v -10.28140681 33.97192704 3.96355510
v -10.28140681 33.97192704 2.98700869
v -9.62132270 34.15954160 3.96355510
v -7.79393377 34.62510305 3.96355510
v -9.34339302 34.23597741 2.01133430
v -8.71110277 34.40274554 3.96355510
v -7.08521264 34.77797466 3.96355510
v -6.73780033 34.84746056 2.98656940
v -6.70305902 34.85441047 3.96355510
v -5.95959658 34.98643565 3.96355510
v -5.04242798 35.13235736 3.96355510
v -26.83213109 -23.21570364 3.96355510
v -27.35324914 -22.59032232 3.96355510
v -28.46496785 -21.17279154 3.96355510
v 28.48286336 21.17940876 2.98700869
v 28.99008816 20.47759327 2.98700869
v 28.87891596 20.62351498 2.01133430
v 28.12850362 21.63802194 2.01133430
v 28.19103962 21.56158614 3.96355510
v 29.27496528 20.07456946 3.96355510
v 29.95589500 19.03226781 3.96355510
v 30.31025475 18.45552760 2.98656940
v 30.31025475 18.45552760 2.01133430
v 31.28995812 16.73920351 3.96355510
v 31.65126449 16.03738638 3.96355510
v 32.20017886 14.91864892 3.96355510
v 31.97783446 15.38421037 3.96355510
v 32.52674555 14.20293527 3.96355510
v 32.86026215 13.41078582 2.98700869
v 30.60208177 17.96911972 3.96355510
v 31.03982067 17.19781670 3.96355510
v 33.04091370 12.94522437 2.98700869
v 33.25631147 12.37543243 2.98656940
v 33.22156852 12.46576558 3.96355510
v 33.58982807 11.44430953 3.96355510
v 33.81911909 10.73554414 3.96355510
v 33.96503096 10.26998269 3.96355510
v 34.86830508 6.62887475 3.96355510
v 34.77797603 7.08748753 3.96355510
v 35.22266483 4.34275913 2.98700869
v 35.34078365 -3.19655803 3.96355510
v -16.03455583 -31.65835065 2.01133430
v -15.37447089 -31.98493702 2.01133430
v -16.73632869 -31.29006815 2.98613340
v -17.19491238 -31.04686422 2.98613340
v -17.39641199 -30.92873884 2.01133430
v -18.07734007 -30.53266329 1.03915781
v -18.44559634 -30.31030578 1.03915781
v -18.76521641 -30.12269122 2.01133430
v -19.16821400 -29.85864085 1.03915781
v -20.07148648 -29.26800412 2.01133430
v -20.07148648 -29.25410760 1.03915781
v -21.16931031 -28.46890641 0.45926392
v -21.55146310 -28.18400962 0.37180007
v -10.55933649 -33.87497914 1.03915781
v -11.44871162 -33.58313245 1.37502491
v -12.51179414 -33.21485323 2.98700869
v -11.73359038 -33.49280012 2.01133430
v -13.26915311 -32.91605991 2.01133430
v -13.40116927 -32.86047054 2.01133430
v -14.19326955 -32.51998437 2.01133430
v -14.41561395 -32.42270542 2.01133430
v -15.29109338 -32.02662987 3.96355510
v -7.78698551 -34.61153758 1.03915781
v -7.78698551 -34.61848748 1.37502491
v -8.69720625 -34.40307659 1.37502491
v -9.82282231 -34.10428328 2.01133430
v -9.85756362 -34.09038675 1.03915781
v -10.26751028 -33.96531147 1.03915781
v -22.67013172 -27.30152783 2.01133430
v -21.55146310 -28.19095952 1.03915781
v -21.80854881 -27.99639506 2.01133430
v -22.67013172 -27.30152783 3.96355510
v 35.13233906 -5.03100955 3.96355510
v 35.25045788 -4.10683491 3.96355510
v 33.81911909 -10.74282428 2.98700869
v 34.15263569 -9.61713773 2.98613340
v 33.81911909 -10.72892693 1.37414962
v 33.57593155 -11.44464058 1.03915781
v 34.99337381 -5.94823511 3.96355510
v 34.85440856 -6.69869253 3.96355510
v 34.65290731 -7.63676410 2.98700869
v 34.77797603 -7.07392124 3.96355510
v 34.40277314 -8.69991218 2.98613340
v 33.03396707 -12.95945277 2.98700869
v 32.85331225 -13.39721953 1.37414962
v 33.58287817 -11.45853793 2.98700869
v 33.24936157 -12.37576348 2.98700869
v 32.51979565 -14.18241990 2.98613340
v 32.18628233 -14.93287814 3.96355510
v 31.97783446 -15.37759316 2.98613340
v 31.28300821 -16.73953456 3.96355510
v 31.72074711 -15.88484747 2.98700869
v 31.03982067 -17.18424958 2.98613340
v 30.72020059 -17.75404153 3.96355510
v 30.65766787 -17.86522028 2.01002300
v 30.65766787 -17.85827202 1.37414962
v 30.31720137 -18.43501223 2.01002300
v 29.67101460 -19.44951919 2.98700869
v 29.26801538 -20.06795225 2.98613340
v 29.26801538 -20.05405409 1.37414962
v 28.41338402 -21.25617561 3.96355510
v 27.81583345 -22.03442854 2.01002300
v 28.60793209 -20.99907515 2.01002300
v 27.66297167 -22.22204310 3.96355510
v 27.29471540 -22.67370639 2.01002300
v 26.82918182 -23.21570364 3.96355510
v 25.18939516 -24.99456537 3.96355510
v 24.62658754 -25.55740905 3.96355510
v 23.66772896 -26.43989084 2.01133430
v 24.24443474 -25.91179175 3.96355510
v 23.66772896 -26.43989084 3.96355510
v 23.20914527 -26.84291464 2.01133430
v 22.66718244 -27.30152783 2.01133430
v 22.03489220 -27.81573040 2.01133430
v 22.20859712 -27.66285879 0.45926392
v 21.15941277 -28.46890641 0.45926392
v 20.05464068 -29.25410760 0.45926392
v 19.58910873 -29.56679744 0.45926392
v 18.42180228 -30.31030578 0.45926392
v 18.88038760 -30.02540899 0.45926392
v 17.19196310 -31.04686422 2.01133430
v 16.74032768 -31.29701805 2.01133430
v 16.03160655 -31.65835065 2.01133430
v 16.01771003 -31.65140075 1.03784651
v 15.37152162 -31.98493702 2.01133430
v 14.91293794 -32.19339800 2.01133430
v 14.19032028 -32.51998437 2.01133430
v 13.95407936 -32.62421650 2.01133430
v 13.39822000 -32.86047054 2.01133430
v 12.92573897 -33.03418857 0.45926392
v 11.43186582 -33.56923592 0.45926392
v 10.25066448 -33.96531147 0.45926392
v 9.59752863 -34.15292603 0.45926392
v 8.68730871 -34.38918007 0.45926392
v 7.77013971 -34.59764105 0.45926392
v 6.59588622 -34.86169142 0.45926392
v 5.92885425 -34.97287017 0.45926392
v 5.00473740 -35.11879188 0.45926392
v 4.12231011 -35.25081706 2.01133430
v 5.03253045 -35.13268841 2.01133430
v 3.19819326 -35.34809930 3.96355510
v 0.00199949 -35.49402100 3.96355510
v -0.44963659 -35.48707110 3.96355510
v -1.36680524 -35.46622467 3.96355510
v -2.29092220 -35.41758520 2.01002300
v -4.12525939 -35.25081706 2.01133430
v -5.03547972 -35.13268841 3.96355510
v -5.95264832 -34.98676670 2.01133430
v -2.28397394 -35.41758520 3.96355510
v -4.12525939 -35.25081706 3.96355510
v -6.61968028 -34.86863804 2.01133430
v -7.07826437 -34.77830571 2.01133430
v 6.62367927 34.86830699 3.96355510
v 8.70815350 34.40274554 3.96355510
v 9.62532168 34.15954160 3.96355510
v 10.65366289 33.85380166 3.96355510
v 10.86905820 33.78431248 3.96355510
v 12.47410355 33.22147208 3.96355510
v 12.94658376 33.04080414 3.96355510
v 11.45271061 33.58975130 3.96355510
v 13.30094432 32.90183234 2.98656940
v 14.19726854 32.51965332 3.96355510
v 14.32233727 32.46406394 3.96355510
v 14.91988620 32.19306695 3.96355510
v 15.37846988 31.97765606 3.96355510
v 15.49659034 31.92206668 3.96355510
v 16.73337942 31.28973710 3.96355510
v 17.19196310 31.03958654 3.96355510
v 17.96321860 30.59487152 3.96355510
v 18.44264707 30.31692135 3.96355510
v 18.90123239 30.03202784 3.96355510
v 19.60995352 29.57341301 3.96355510
v 20.06853720 29.26767307 3.96355510
v 20.61050003 28.88549405 2.01133430
v 21.15941277 28.48247188 2.01133430
v 21.62494471 28.13503909 2.01133430
v 20.78420660 28.76041877 2.01133430
v 22.66718244 27.30119678 3.96355510
v 22.21554538 27.67642426 3.96355510
v 28.48286336 21.17940876 3.96355510
v 28.99008816 20.47759327 3.96355510
v 30.31720137 18.44162944 3.96355510
v 32.86026215 13.41078582 3.96355510
v 33.04091370 12.94522437 3.96355510
v -16.03455583 -31.65835065 3.96355510
v -17.19491238 -31.04686422 3.96355510
v -17.86194393 -30.66468847 3.96355510
v -18.04954702 -30.55350972 2.01002300
v -18.90418166 -30.03235889 3.96355510
v -18.90418166 -30.03235889 2.98700869
v -20.07148648 -29.26800412 3.96355510
v -20.61344931 -28.88582510 3.96355510
v -21.16931031 -28.48280293 2.01133430
v -20.82189718 -28.72600687 1.03784651
v -21.16931031 -28.47585303 1.03915781
v -10.72609397 -33.82633639 2.01133430
v -11.44871162 -33.59008235 2.01133430
v -12.37282889 -33.25654608 3.96355510
v -12.94953303 -33.03418857 3.96355510
v -13.32473839 -32.88826687 3.96355510
v -11.60852166 -33.53449297 3.96355510
v -11.44871162 -33.59008235 3.96355510
v -14.19326955 -32.51998437 3.96355510
v -7.79393377 -34.61848748 2.01133430
v -8.69720625 -34.40307659 3.96355510
v -9.62132270 -34.15292603 3.96355510
v -10.26751028 -33.96531147 3.96355510
v -10.72609397 -33.82633639 3.96355510
v -21.51672179 -28.21875257 2.98700869
v -21.62094573 -28.13537014 3.96355510
v -22.21154639 -27.66980541 3.96355510
v 33.81911909 -10.74282428 3.96355510
v 34.14568579 -9.62408682 3.96355510
v 34.65290731 -7.63676410 3.96355510
v 34.43751281 -8.54704139 3.96355510
v 34.39582324 -8.70686126 3.96355510
v 33.03396707 -12.95945277 3.96355510
v 32.85331225 -13.39721953 2.98613340
v 33.58287817 -11.45853793 3.96355510
v 32.56843513 -14.06429288 3.96355510
v 31.96393793 -15.38454143 3.96355510
v 30.25466865 -18.52534455 3.96355510
v 30.31720137 -18.43501223 2.98613340
v 30.65766787 -17.86522028 2.98613340
v 29.63627493 -19.49121204 3.96355510
v 29.25411886 -20.07490051 3.96355510
v 28.96924173 -20.49182085 2.98700869
v 27.28776714 -22.67370639 3.96355510
v 23.32031747 -26.74563241 2.98613340
v 23.20914527 -26.84291464 3.96355510
v 22.11132145 -27.76014102 3.96355510
v 22.66718244 -27.30152783 3.96355510
v 21.62494471 -28.13537014 2.98700869
v 21.16636103 -28.48280293 2.01133430
v 20.61050003 -28.88582510 2.01133430
v 20.06853720 -29.26800412 2.01133430
v 19.60995352 -29.58069396 2.01133430
v 18.58161232 -30.23386997 2.01133430
v 17.65749505 -30.77586723 2.01133430
v 18.90123239 -30.03235889 2.01133430
v 17.19196310 -31.04686422 3.96355510
v 16.74032768 -31.29701805 3.96355510
v 16.03160655 -31.65835065 3.96355510
v 15.37152162 -31.98493702 3.96355510
v 14.05830329 -32.58252365 3.96355510
v 14.00966546 -32.60337007 2.98700869
v 13.02301465 -33.01334215 3.96355510
v 13.08554901 -32.98554582 2.01133430
v 13.39822000 -32.86047054 3.96355510
v 12.36293135 -33.25654608 2.01133430
v 11.44576235 -33.59008235 2.01133430
v 11.23036703 -33.66651816 2.01133430
v 10.73704122 -33.82633639 2.01133430
v 10.27150927 -33.96531147 2.01133430
v 9.61142516 -34.15292603 2.01133430
v 8.70120524 -34.40307659 2.01133430
v 8.68730871 -34.39612997 1.03784651
v 8.42327556 -34.47256577 2.01133430
v 7.56864091 -34.67407686 2.01133430
v 7.77013971 -34.61153758 1.03784651
v 7.06836684 -34.77830571 2.01133430
v 6.61673101 -34.86863804 2.01133430
v 5.94969904 -34.98676670 2.01133430
v 4.87272082 -35.15353483 3.96355510
v 4.12231011 -35.25081706 2.98613340
v 5.03253045 -35.13268841 3.96355510
v 4.11536185 -35.25081706 3.96355510
v -5.95264832 -34.98676670 3.96355510
v -6.61968028 -34.86863804 3.96355510
v -7.07826437 -34.77830571 3.96355510
v 13.40516826 32.85318958 3.96355510
v 20.70777571 28.81600815 3.96355510
v 21.16636103 28.48247188 3.96355510
v 21.62494471 28.13503909 3.96355510
v -21.16931031 -28.48280293 3.96355510
v -7.78698551 -34.61848748 3.96355510
v 21.62494471 -28.13537014 3.96355510
v 21.16636103 -28.48280293 3.96355510
v 20.61050003 -28.88582510 3.96355510
v 19.69333267 -29.52510459 3.96355510
v 20.06853720 -29.26800412 3.96355510
v 18.90123239 -30.03235889 3.96355510
v 18.44264707 -30.31030578 3.96355510
v 12.36293135 -33.25654608 3.96355510
v 11.45271061 -33.59008235 3.96355510
v 10.73704122 -33.82633639 3.96355510
v 10.27150927 -33.96531147 3.96355510
v 9.61142516 -34.15292603 3.96355510
v 8.70120524 -34.40307659 3.96355510
v 7.06836684 -34.77830571 3.96355510
v 7.78403623 -34.61848748 3.96355510
v 6.70010975 -34.85474152 3.96355510
v 5.94969904 -34.98676670 3.96355510
f 1 2 3
f 1 3 4
f 1 4 12
f 1 12 5
f 1 5 15
f 1 15 17
f 1 17 6
f 1 6 7
f 1 7 2
f 2 7 8
f 2 8 9
f 2 9 10
f 2 10 11
f 2 11 3
f 3 11 4
f 4 11 13
f 4 13 14
f 4 14 12
f 5 12 16
f 5 16 15
f 6 17 18
f 6 18 7
f 7 18 46
f 7 46 19
f 7 19 8
f 8 19 20
f 8 20 21
f 8 21 9
f 9 21 10
f 10 21 22
f 10 22 23
f 10 23 11
f 11 23 13
f 12 14 16
f 13 23 24
f 13 24 25
f 13 25 26
f 13 26 14
f 14 26 25
f 14 25 27
f 14 27 16
f 15 28 42
f 15 42 17
f 15 16 28
f 16 29 30
f 16 30 31
f 16 31 32
f 16 32 33
f 16 33 34
f 16 34 28
f 16 27 35
f 16 35 36
f 16 36 37
f 16 37 38
f 16 38 39
f 16 39 40
f 16 40 71
f 16 71 133
f 16 133 197
f 16 197 273
f 16 273 353
f 16 353 362
f 16 362 361
f 16 361 472
f 16 472 469
f 16 469 468
f 16 468 467
f 16 467 471
f 16 471 617
f 16 617 785
f 16 785 784
f 16 784 976
f 16 976 975
f 16 975 974
f 16 974 1169
f 16 1169 972
f 16 972 971
f 16 971 1168
f 16 1168 1167
f 16 1167 1041
f 16 1041 1038
f 16 1038 1037
f 16 1037 1036
f 16 1036 1035
f 16 1035 1034
f 16 1034 1039
f 16 1039 1040
f 16 1040 1228
f 16 1228 1367
f 16 1367 1366
f 16 1366 1431
f 16 1431 1348
f 16 1348 1347
f 16 1347 1345
f 16 1345 1343
f 16 1343 1342
f 16 1342 1341
f 16 1341 1218
f 16 1218 1359
f 16 1359 1356
f 16 1356 1355
f 16 1355 1354
f 16 1354 1357
f 16 1357 1358
f 16 1358 1364
f 16 1364 1363
f 16 1363 1362
f 16 1362 1361
f 16 1361 1432
f 16 1432 1426
f 16 1426 1425
f 16 1425 1424
f 16 1424 1303
f 16 1303 1306
f 16 1306 1107
f 16 1107 1305
f 16 1305 1300
f 16 1300 1299
f 16 1299 1298
f 16 1298 1098
f 16 1098 1097
f 16 1097 1096
f 16 1096 1297
f 16 1297 1423
f 16 1423 1420
f 16 1420 1422
f 16 1422 1449
f 16 1449 1448
f 16 1448 1446
f 16 1446 1447
f 16 1447 1445
f 16 1445 1444
f 16 1444 1443
f 16 1443 1442
f 16 1442 1441
f 16 1441 1440
f 16 1440 1403
f 16 1403 1405
f 16 1405 1401
f 16 1401 1400
f 16 1400 1399
f 16 1399 1398
f 16 1398 1397
f 16 1397 1439
f 16 1439 1438
f 16 1438 1436
f 16 1436 1437
f 16 1437 1435
f 16 1435 1434
f 16 1434 1433
f 16 1433 1387
f 16 1387 1388
f 16 1388 1386
f 16 1386 1267
f 16 1267 1266
f 16 1266 1264
f 16 1264 1263
f 16 1263 1077
f 16 1077 1262
f 16 1262 1384
f 16 1384 1260
f 16 1260 1257
f 16 1257 1382
f 16 1382 1381
f 16 1381 1378
f 16 1378 1250
f 16 1250 1247
f 16 1247 1377
f 16 1377 1245
f 16 1245 1376
f 16 1376 1373
f 16 1373 1375
f 16 1375 1368
f 16 1368 1369
f 16 1369 1372
f 16 1372 1371
f 16 1371 1370
f 16 1370 1238
f 16 1238 1236
f 16 1236 1235
f 16 1235 1229
f 16 1229 1230
f 16 1230 1196
f 16 1196 1013
f 16 1013 1012
f 16 1012 819
f 16 819 639
f 16 639 638
f 16 638 818
f 16 818 815
f 16 815 1010
f 16 1010 1008
f 16 1008 1006
f 16 1006 1193
f 16 1193 1194
f 16 1194 1007
f 16 1007 1011
f 16 1011 1003
f 16 1003 1192
f 16 1192 1191
f 16 1191 1190
f 16 1190 1189
f 16 1189 1340
f 16 1340 1339
f 16 1339 1183
f 16 1183 992
f 16 992 1181
f 16 1181 1182
f 16 1182 1180
f 16 1180 1179
f 16 1179 1186
f 16 1186 1185
f 16 1185 1338
f 16 1338 1176
f 16 1176 1175
f 16 1175 1337
f 16 1337 1336
f 16 1336 1174
f 16 1174 1145
f 16 1145 929
f 16 929 928
f 16 928 927
f 16 927 923
f 16 923 926
f 16 926 925
f 16 925 920
f 16 920 1142
f 16 1142 1334
f 16 1334 1335
f 16 1335 1430
f 16 1430 1429
f 16 1429 1428
f 16 1428 1329
f 16 1329 1328
f 16 1328 1327
f 16 1327 1326
f 16 1326 1325
f 16 1325 1324
f 16 1324 1323
f 16 1323 1133
f 16 1133 1322
f 16 1322 1321
f 16 1321 1320
f 16 1320 1319
f 16 1319 1318
f 16 1318 1427
f 16 1427 1315
f 16 1315 1314
f 16 1314 1316
f 16 1316 1313
f 16 1313 1312
f 16 1312 1311
f 16 1311 1310
f 16 1310 1114
f 16 1114 1116
f 16 1116 1309
f 16 1309 1117
f 16 1117 1124
f 16 1124 1111
f 16 1111 894
f 16 894 895
f 16 895 773
f 16 773 607
f 16 607 455
f 16 455 606
f 16 606 604
f 16 604 772
f 16 772 967
f 16 967 966
f 16 966 1166
f 16 1166 1165
f 16 1165 1164
f 16 1164 1162
f 16 1162 1159
f 16 1159 1161
f 16 1161 1158
f 16 1158 1156
f 16 1156 1155
f 16 1155 1154
f 16 1154 1153
f 16 1153 950
f 16 950 948
f 16 948 949
f 16 949 947
f 16 947 946
f 16 946 945
f 16 945 944
f 16 944 943
f 16 943 942
f 16 942 1151
f 16 1151 939
f 16 939 937
f 16 937 936
f 16 936 1150
f 16 1150 1146
f 16 1146 932
f 16 932 738
f 16 738 737
f 16 737 931
f 16 931 735
f 16 735 734
f 16 734 733
f 16 733 571
f 16 571 473
f 16 473 363
f 16 363 274
f 16 274 198
f 16 198 134
f 16 134 72
f 16 72 41
f 16 41 29
f 17 42 43
f 17 43 44
f 17 44 45
f 17 45 18
f 18 45 46
f 19 46 102
f 19 102 47
f 19 47 20
f 20 47 102
f 20 102 48
f 20 48 103
f 20 103 161
f 20 161 225
f 20 225 298
f 20 298 260
f 20 260 183
f 20 183 116
f 20 116 49
f 20 49 21
f 21 49 22
f 22 50 23
f 22 49 51
f 22 51 50
f 23 50 24
f 24 52 25
f 24 50 53
f 24 53 52
f 25 52 54
f 25 54 55
f 25 55 35
f 25 35 27
f 28 34 64
f 28 64 42
f 29 56 57
f 29 57 58
f 29 58 59
f 29 59 30
f 29 41 56
f 30 59 60
f 30 60 31
f 31 60 32
f 32 60 61
f 32 61 62
f 32 62 63
f 32 63 33
f 33 63 64
f 33 64 34
f 35 55 36
f 36 55 65
f 36 65 66
f 36 66 37
f 37 66 67
f 37 67 38
f 38 67 68
f 38 68 39
f 39 69 130
f 39 130 70
f 39 70 40
f 39 68 69
f 40 70 71
f 41 72 73
f 41 73 74
f 41 74 75
f 41 75 76
f 41 76 77
f 41 77 78
f 41 78 79
f 41 79 80
f 41 80 81
f 41 81 82
f 41 82 83
f 41 83 84
f 41 84 85
f 41 85 86
f 41 86 87
f 41 87 88
f 41 88 89
f 41 89 90
f 41 90 91
f 41 91 92
f 41 92 93
f 41 93 94
f 41 94 95
f 41 95 96
f 41 96 56
f 42 64 43
f 43 64 97
f 43 97 44
f 44 98 45
f 44 97 99
f 44 99 100
f 44 100 98
f 45 101 46
f 45 98 101
f 46 101 98
f 46 98 102
f 48 102 104
f 48 104 105
f 48 105 106
f 48 106 107
f 48 107 108
f 48 108 109
f 48 109 110
f 48 110 111
f 48 111 112
f 48 112 113
f 48 113 114
f 48 114 115
f 48 115 162
f 48 162 103
f 49 116 117
f 49 117 51
f 50 51 53
f 51 118 53
f 51 117 118
f 52 53 54
f 53 118 119
f 53 119 120
f 53 120 54
f 54 121 66
f 54 66 65
f 54 65 55
f 54 120 122
f 54 122 123
f 54 123 121
f 56 96 124
f 56 124 57
f 57 124 125
f 57 125 58
f 58 125 126
f 58 126 59
f 59 126 61
f 59 61 60
f 61 126 62
f 62 126 127
f 62 127 128
f 62 128 63
f 63 97 64
f 63 128 129
f 63 129 97
f 66 121 67
f 67 121 69
f 67 69 68
f 69 123 130
f 69 121 123
f 70 130 131
f 70 131 132
f 70 132 71
f 71 132 133
f 72 134 73
f 73 135 74
f 73 134 136
f 73 136 135
f 74 135 75
f 75 137 138
f 75 138 139
f 75 139 78
f 75 78 76
f 75 135 137
f 76 78 77
f 78 139 204
f 78 204 140
f 78 140 79
f 79 140 141
f 79 141 80
f 80 141 81
f 81 141 142
f 81 142 143
f 81 143 82
f 82 143 144
f 82 144 83
f 83 144 209
f 83 209 145
f 83 145 84
f 84 145 146
f 84 146 85
f 85 146 147
f 85 147 86
f 86 147 148
f 86 148 149
f 86 149 87
f 87 149 150
f 87 150 88
f 88 150 151
f 88 151 89
f 89 151 152
f 89 152 90
f 90 152 91
f 91 152 153
f 91 153 154
f 91 154 155
f 91 155 92
f 92 155 156
f 92 156 93
f 93 156 94
f 94 156 157
f 94 157 95
f 95 157 217
f 95 217 158
f 95 158 124
f 95 124 96
f 97 129 99
f 98 100 159
f 98 159 102
f 99 159 100
f 99 129 160
f 99 160 159
f 102 159 104
f 103 162 163
f 103 163 161
f 104 164 165
f 104 165 105
f 104 159 160
f 104 160 164
f 105 165 106
f 106 166 167
f 106 167 107
f 106 165 166
f 107 168 108
f 107 167 168
f 108 168 169
f 108 169 170
f 108 170 171
f 108 171 109
f 109 171 110
f 110 171 172
f 110 172 173
f 110 173 174
f 110 174 111
f 111 174 175
f 111 175 112
f 112 176 177
f 112 177 113
f 112 175 176
f 113 177 114
f 114 177 178
f 114 178 179
f 114 179 180
f 114 180 115
f 115 180 181
f 115 181 182
f 115 182 226
f 115 226 162
f 116 183 117
f 117 183 184
f 117 184 185
f 117 185 118
f 118 185 119
f 119 185 186
f 119 186 120
f 120 186 122
f 122 187 131
f 122 131 123
f 122 186 188
f 122 188 189
f 122 189 187
f 123 131 130
f 124 158 190
f 124 190 191
f 124 191 125
f 125 191 126
f 126 191 192
f 126 192 193
f 126 193 194
f 126 194 127
f 127 194 128
f 128 194 195
f 128 195 129
f 129 195 160
f 131 187 196
f 131 196 132
f 132 196 133
f 133 196 197
f 134 198 199
f 134 199 200
f 134 200 136
f 135 201 137
f 135 136 201
f 136 200 201
f 137 201 138
f 138 201 202
f 138 202 203
f 138 203 204
f 138 204 139
f 140 204 141
f 141 204 205
f 141 205 206
f 141 206 142
f 142 206 143
f 143 206 207
f 143 207 144
f 144 208 209
f 144 207 208
f 145 209 146
f 146 209 147
f 147 210 148
f 147 209 283
f 147 283 210
f 148 211 212
f 148 212 213
f 148 213 214
f 148 214 149
f 148 210 211
f 149 214 150
f 150 214 215
f 150 215 151
f 151 215 152
f 152 215 212
f 152 212 192
f 152 192 216
f 152 216 154
f 152 154 153
f 154 216 156
f 154 156 155
f 156 216 217
f 156 217 157
f 158 217 190
f 160 195 164
f 161 163 218
f 161 218 219
f 161 219 220
f 161 220 221
f 161 221 222
f 161 222 223
f 161 223 224
f 161 224 293
f 161 293 225
f 162 226 227
f 162 227 228
f 162 228 229
f 162 229 163
f 163 230 231
f 163 231 218
f 163 229 232
f 163 232 230
f 164 195 194
f 164 194 233
f 164 233 165
f 165 233 234
f 165 234 166
f 166 234 235
f 166 235 236
f 166 236 167
f 167 236 237
f 167 237 168
f 168 237 238
f 168 238 239
f 168 239 169
f 169 239 240
f 169 240 241
f 169 241 242
f 169 242 170
f 170 242 171
f 171 242 243
f 171 243 172
f 172 243 173
f 173 244 245
f 173 245 246
f 173 246 174
f 173 243 244
f 174 247 175
f 174 246 245
f 174 245 248
f 174 248 247
f 175 247 249
f 175 249 250
f 175 250 176
f 176 251 252
f 176 252 177
f 176 250 251
f 177 252 253
f 177 253 178
f 178 253 254
f 178 254 255
f 178 255 179
f 179 255 256
f 179 256 257
f 179 257 180
f 180 257 181
f 181 257 258
f 181 258 259
f 181 259 182
f 182 259 310
f 182 310 226
f 183 260 261
f 183 261 184
f 184 262 185
f 184 261 263
f 184 263 262
f 185 262 186
f 186 262 264
f 186 264 188
f 187 189 265
f 187 265 266
f 187 266 272
f 187 272 196
f 188 267 189
f 188 264 268
f 188 268 267
f 189 267 354
f 189 354 269
f 189 269 265
f 190 217 191
f 191 217 192
f 192 217 216
f 192 212 270
f 192 270 193
f 193 270 271
f 193 271 194
f 194 271 233
f 196 272 273
f 196 273 197
f 198 274 275
f 198 275 199
f 199 275 276
f 199 276 200
f 200 276 277
f 200 277 201
f 201 278 202
f 201 277 279
f 201 279 278
f 202 280 205
f 202 205 203
f 202 278 281
f 202 281 282
f 202 282 208
f 202 208 280
f 203 205 204
f 205 280 206
f 206 280 208
f 206 208 207
f 208 282 283
f 208 283 209
f 210 283 211
f 211 283 282
f 211 282 236
f 211 236 235
f 211 235 270
f 211 270 212
f 212 215 213
f 213 215 214
f 218 231 219
f 219 284 220
f 219 231 285
f 219 285 286
f 219 286 284
f 220 284 287
f 220 287 221
f 221 287 288
f 221 288 289
f 221 289 222
f 222 289 223
f 223 289 290
f 223 290 291
f 223 291 224
f 224 292 380
f 224 380 293
f 224 291 292
f 225 294 295
f 225 295 296
f 225 296 297
f 225 297 298
f 225 293 299
f 225 299 300
f 225 300 301
f 225 301 302
f 225 302 303
f 225 303 304
f 225 304 305
f 225 305 306
f 225 306 307
f 225 307 294
f 226 308 309
f 226 309 227
f 226 310 308
f 227 309 228
f 228 311 312
f 228 312 229
f 228 309 311
f 229 312 313
f 229 313 314
f 229 314 232
f 230 315 316
f 230 316 231
f 230 232 317
f 230 317 315
f 231 316 318
f 231 318 319
f 231 319 285
f 232 314 317
f 233 271 234
f 234 270 235
f 234 271 270
f 236 282 281
f 236 281 320
f 236 320 237
f 237 320 281
f 237 281 321
f 237 321 322
f 237 322 238
f 238 322 323
f 238 323 324
f 238 324 239
f 239 324 240
f 240 324 325
f 240 325 326
f 240 326 241
f 241 326 327
f 241 327 243
f 241 243 242
f 243 327 328
f 243 328 244
f 244 328 329
f 244 329 330
f 244 330 245
f 245 330 248
f 247 248 331
f 247 331 332
f 247 332 249
f 248 330 333
f 248 333 331
f 249 332 334
f 249 334 250
f 250 334 335
f 250 335 336
f 250 336 251
f 251 336 337
f 251 337 338
f 251 338 252
f 252 338 253
f 253 338 254
f 254 339 340
f 254 340 341
f 254 341 255
f 254 338 339
f 255 341 256
f 256 341 342
f 256 342 343
f 256 343 258
f 256 258 257
f 258 343 344
f 258 344 345
f 258 345 259
f 259 345 346
f 259 346 416
f 259 416 310
f 260 298 347
f 260 347 261
f 261 347 348
f 261 348 349
f 261 349 263
f 262 263 264
f 263 349 350
f 263 350 351
f 263 351 264
f 264 352 268
f 264 351 352
f 265 353 272
f 265 272 266
f 265 269 353
f 267 268 355
f 267 355 354
f 268 356 357
f 268 357 358
f 268 358 355
f 268 352 359
f 268 359 360
f 268 360 466
f 268 466 356
f 269 354 361
f 269 361 362
f 269 362 353
f 272 353 273
f 274 363 275
f 275 363 276
f 276 363 364
f 276 364 277
f 277 364 279
f 278 279 323
f 278 323 322
f 278 322 321
f 278 321 281
f 279 364 325
f 279 325 324
f 279 324 323
f 284 365 287
f 284 286 366
f 284 366 367
f 284 367 365
f 285 319 286
f 286 319 368
f 286 368 366
f 287 369 288
f 287 365 370
f 287 370 369
f 288 371 372
f 288 372 289
f 288 369 371
f 289 373 290
f 289 372 373
f 290 374 375
f 290 375 376
f 290 376 291
f 290 373 374
f 291 376 377
f 291 377 292
f 292 378 379
f 292 379 494
f 292 494 380
f 292 377 378
f 293 380 381
f 293 381 299
f 294 382 383
f 294 383 295
f 294 307 384
f 294 384 382
f 295 385 296
f 295 383 385
f 296 385 386
f 296 386 387
f 296 387 297
f 297 387 388
f 297 388 389
f 297 389 390
f 297 390 298
f 298 390 391
f 298 391 347
f 299 381 497
f 299 497 392
f 299 392 393
f 299 393 300
f 300 393 301
f 301 393 394
f 301 394 395
f 301 395 302
f 302 395 396
f 302 396 303
f 303 396 397
f 303 397 398
f 303 398 399
f 303 399 304
f 304 399 400
f 304 400 401
f 304 401 402
f 304 402 305
f 305 403 404
f 305 404 405
f 305 405 406
f 305 406 408
f 305 408 306
f 305 402 403
f 306 407 307
f 306 408 409
f 306 409 407
f 307 407 410
f 307 410 411
f 307 411 384
f 308 310 412
f 308 412 413
f 308 413 414
f 308 414 309
f 309 414 415
f 309 415 311
f 310 416 417
f 310 417 418
f 310 418 412
f 311 419 312
f 311 415 420
f 311 420 421
f 311 421 419
f 312 419 422
f 312 422 313
f 313 422 423
f 313 423 424
f 313 424 314
f 314 424 425
f 314 425 426
f 314 426 317
f 315 317 427
f 315 427 428
f 315 428 318
f 315 318 316
f 317 426 429
f 317 429 430
f 317 430 427
f 318 431 319
f 318 428 432
f 318 432 431
f 319 433 368
f 319 431 433
f 325 364 434
f 325 434 435
f 325 435 326
f 326 435 436
f 326 436 327
f 327 436 437
f 327 437 328
f 328 438 329
f 328 437 439
f 328 439 438
f 329 438 440
f 329 440 441
f 329 441 330
f 330 441 333
f 331 442 332
f 331 333 442
f 332 442 334
f 333 441 442
f 334 442 443
f 334 443 335
f 335 444 445
f 335 445 336
f 335 443 444
f 336 445 446
f 336 446 447
f 336 447 337
f 337 447 448
f 337 448 339
f 337 339 338
f 339 448 449
f 339 449 340
f 340 449 450
f 340 450 341
f 341 450 342
f 342 450 451
f 342 451 344
f 342 344 343
f 344 452 453
f 344 453 345
f 344 451 603
f 344 603 452
f 345 453 346
f 346 453 454
f 346 454 455
f 346 455 456
f 346 456 416
f 347 391 457
f 347 457 458
f 347 458 348
f 348 458 459
f 348 459 460
f 348 460 350
f 348 350 349
f 350 460 461
f 350 461 462
f 350 462 351
f 351 462 463
f 351 463 464
f 351 464 352
f 352 464 359
f 354 355 465
f 354 465 361
f 355 358 465
f 356 466 467
f 356 467 468
f 356 468 357
f 357 468 469
f 357 469 465
f 357 465 358
f 359 464 470
f 359 470 471
f 359 471 467
f 359 467 466
f 359 466 360
f 361 465 472
f 363 473 474
f 363 474 364
f 364 474 434
f 365 367 475
f 365 475 370
f 366 368 476
f 366 476 367
f 367 477 478
f 367 478 475
f 367 476 477
f 368 479 476
f 368 433 479
f 369 370 480
f 369 480 481
f 369 481 482
f 369 482 371
f 370 475 480
f 371 483 484
f 371 484 372
f 371 482 483
f 372 484 373
f 373 484 374
f 374 484 485
f 374 485 486
f 374 486 487
f 374 487 488
f 374 488 375
f 375 488 489
f 375 489 376
f 376 489 377
f 377 489 378
f 378 489 490
f 378 490 491
f 378 491 492
f 378 492 493
f 378 493 379
f 379 493 640
f 379 640 494
f 380 494 495
f 380 495 496
f 380 496 381
f 381 496 497
f 382 498 383
f 382 384 499
f 382 499 500
f 382 500 498
f 383 498 501
f 383 501 502
f 383 502 385
f 384 411 503
f 384 503 499
f 385 502 504
f 385 504 505
f 385 505 386
f 386 505 506
f 386 506 388
f 386 388 387
f 388 507 389
f 388 506 508
f 388 508 507
f 389 507 509
f 389 509 510
f 389 510 391
f 389 391 390
f 391 510 457
f 392 497 511
f 392 511 512
f 392 512 513
f 392 513 393
f 393 513 514
f 393 514 394
f 394 514 515
f 394 515 516
f 394 516 395
f 395 517 518
f 395 518 396
f 395 516 517
f 396 518 519
f 396 519 520
f 396 520 397
f 397 520 521
f 397 521 522
f 397 522 398
f 398 522 399
f 399 522 523
f 399 523 524
f 399 524 400
f 400 525 401
f 400 524 526
f 400 526 525
f 401 525 527
f 401 527 402
f 402 527 528
f 402 528 529
f 402 529 403
f 403 529 530
f 403 530 404
f 404 530 531
f 404 531 532
f 404 532 533
f 404 533 534
f 404 534 405
f 405 534 535
f 405 535 406
f 406 535 536
f 406 536 408
f 407 409 537
f 407 537 538
f 407 538 410
f 408 536 539
f 408 539 409
f 409 539 537
f 410 540 411
f 410 538 541
f 410 541 540
f 411 540 542
f 411 542 503
f 412 543 413
f 412 418 543
f 413 543 544
f 413 544 545
f 413 545 546
f 413 546 414
f 414 546 415
f 415 546 420
f 416 456 547
f 416 547 418
f 416 418 417
f 418 547 548
f 418 548 549
f 418 549 543
f 419 550 422
f 419 421 550
f 420 546 551
f 420 551 421
f 421 551 552
f 421 552 553
f 421 553 554
f 421 554 550
f 422 550 423
f 423 555 424
f 423 550 556
f 423 556 555
f 424 557 558
f 424 558 425
f 424 555 557
f 425 558 559
f 425 559 426
f 426 559 560
f 426 560 429
f 427 430 428
f 428 430 561
f 428 561 562
f 428 562 563
f 428 563 432
f 429 564 562
f 429 562 561
f 429 561 430
f 429 560 564
f 431 565 433
f 431 432 566
f 431 566 565
f 432 563 567
f 432 567 566
f 433 565 568
f 433 568 479
f 434 474 435
f 435 474 569
f 435 569 570
f 435 570 436
f 436 570 569
f 436 569 571
f 436 571 733
f 436 733 572
f 436 572 437
f 437 572 733
f 437 733 573
f 437 573 574
f 437 574 439
f 438 574 575
f 438 575 576
f 438 576 577
f 438 577 440
f 438 439 574
f 440 578 579
f 440 579 580
f 440 580 581
f 440 581 441
f 440 577 578
f 441 582 583
f 441 583 584
f 441 584 442
f 441 581 582
f 442 584 443
f 443 584 585
f 443 585 586
f 443 586 587
f 443 587 444
f 444 587 588
f 444 588 589
f 444 589 445
f 445 590 591
f 445 591 446
f 445 589 590
f 446 591 592
f 446 592 593
f 446 593 594
f 446 594 447
f 447 594 595
f 447 595 448
f 448 596 597
f 448 597 598
f 448 598 449
f 448 595 596
f 449 598 599
f 449 599 600
f 449 600 601
f 449 601 450
f 450 602 451
f 450 601 602
f 451 602 603
f 452 603 771
f 452 771 604
f 452 604 606
f 452 606 605
f 452 605 453
f 453 605 454
f 454 605 606
f 454 606 455
f 455 607 456
f 456 607 608
f 456 608 547
f 457 609 458
f 457 510 609
f 458 609 610
f 458 610 459
f 459 610 461
f 459 461 460
f 461 610 611
f 461 611 462
f 462 612 613
f 462 613 463
f 462 611 614
f 462 614 612
f 463 615 464
f 463 613 616
f 463 616 615
f 464 615 470
f 465 469 472
f 470 615 617
f 470 617 471
f 473 571 618
f 473 618 569
f 473 569 474
f 475 478 619
f 475 619 480
f 476 620 477
f 476 479 620
f 477 621 478
f 477 620 621
f 478 621 619
f 479 568 620
f 480 619 622
f 480 622 481
f 481 623 624
f 481 624 625
f 481 625 482
f 481 622 626
f 481 626 623
f 482 625 627
f 482 627 483
f 483 627 628
f 483 628 485
f 483 485 484
f 485 628 486
f 486 629 630
f 486 630 631
f 486 631 632
f 486 632 487
f 486 628 633
f 486 633 629
f 487 632 488
f 488 632 634
f 488 634 489
f 489 634 490
f 490 634 635
f 490 635 491
f 491 635 636
f 491 636 637
f 491 637 492
f 492 638 639
f 492 639 493
f 492 637 818
f 492 818 638
f 493 639 640
f 494 640 495
f 495 641 642
f 495 642 643
f 495 643 496
f 495 640 644
f 495 644 641
f 496 645 497
f 496 643 645
f 497 645 511
f 498 646 647
f 498 647 501
f 498 500 648
f 498 648 646
f 499 503 649
f 499 649 500
f 500 649 650
f 500 650 648
f 501 647 651
f 501 651 502
f 502 651 652
f 502 652 504
f 503 542 649
f 504 652 653
f 504 653 654
f 504 654 505
f 505 654 506
f 506 654 655
f 506 655 508
f 507 508 656
f 507 656 657
f 507 657 658
f 507 658 509
f 508 655 659
f 508 659 656
f 509 660 510
f 509 658 661
f 509 661 660
f 510 660 609
f 511 645 662
f 511 662 512
f 512 663 664
f 512 664 513
f 512 662 665
f 512 665 666
f 512 666 663
f 513 664 514
f 514 667 515
f 514 664 667
f 515 668 516
f 515 667 668
f 516 668 669
f 516 669 670
f 516 670 517
f 517 670 671
f 517 671 518
f 518 671 519
f 519 672 673
f 519 673 674
f 519 674 520
f 519 671 672
f 520 674 521
f 521 675 676
f 521 676 522
f 521 674 675
f 522 677 523
f 522 676 677
f 523 677 678
f 523 678 679
f 523 679 526
f 523 526 524
f 525 680 527
f 525 526 681
f 525 681 682
f 525 682 680
f 526 679 681
f 527 683 684
f 527 684 528
f 527 680 683
f 528 684 685
f 528 685 686
f 528 686 529
f 529 686 687
f 529 687 530
f 530 688 689
f 530 689 531
f 530 687 688
f 531 689 690
f 531 690 532
f 532 690 691
f 532 691 533
f 533 691 692
f 533 692 534
f 534 692 535
f 535 539 536
f 535 692 693
f 535 693 694
f 535 694 539
f 537 539 695
f 537 695 538
f 538 695 541
f 539 694 696
f 539 696 697
f 539 697 695
f 540 541 698
f 540 698 542
f 541 695 699
f 541 699 700
f 541 700 698
f 542 701 649
f 542 698 702
f 542 702 701
f 543 549 703
f 543 703 544
f 544 704 705
f 544 705 545
f 544 703 706
f 544 706 704
f 545 705 707
f 545 707 551
f 545 551 546
f 547 608 708
f 547 708 548
f 548 708 706
f 548 706 703
f 548 703 549
f 550 554 556
f 551 707 553
f 551 553 552
f 553 709 710
f 553 710 711
f 553 711 554
f 553 707 712
f 553 712 713
f 553 713 709
f 554 711 556
f 555 556 714
f 555 714 715
f 555 715 716
f 555 716 557
f 556 711 714
f 557 716 717
f 557 717 718
f 557 718 558
f 558 718 719
f 558 719 559
f 559 719 560
f 560 719 720
f 560 720 564
f 562 564 721
f 562 721 563
f 563 722 567
f 563 721 723
f 563 723 724
f 563 724 722
f 564 720 721
f 565 566 725
f 565 725 726
f 565 726 568
f 566 567 727
f 566 727 725
f 567 728 729
f 567 729 727
f 567 722 728
f 568 726 730
f 568 730 731
f 568 731 732
f 568 732 620
f 569 618 571
f 573 733 734
f 573 734 574
f 574 734 575
f 575 735 736
f 575 736 577
f 575 577 576
f 575 734 735
f 577 736 578
f 578 736 737
f 578 737 579
f 579 737 580
f 580 737 738
f 580 738 739
f 580 739 582
f 580 582 581
f 582 739 740
f 582 740 583
f 583 740 741
f 583 741 742
f 583 742 584
f 584 742 743
f 584 743 585
f 585 744 745
f 585 745 746
f 585 746 586
f 585 743 744
f 586 747 748
f 586 748 587
f 586 746 747
f 587 748 588
f 588 749 589
f 588 748 749
f 589 749 750
f 589 750 590
f 590 750 591
f 591 750 751
f 591 751 752
f 591 752 592
f 592 752 593
f 593 753 754
f 593 754 755
f 593 755 756
f 593 756 594
f 593 752 757
f 593 757 753
f 594 756 595
f 595 756 758
f 595 758 759
f 595 759 760
f 595 760 596
f 596 760 761
f 596 761 762
f 596 762 597
f 597 762 763
f 597 763 764
f 597 764 765
f 597 765 598
f 598 765 766
f 598 766 599
f 599 766 767
f 599 767 768
f 599 768 600
f 600 768 601
f 601 768 769
f 601 769 602
f 602 770 603
f 602 769 965
f 602 965 770
f 603 770 967
f 603 967 771
f 604 771 772
f 607 773 608
f 608 773 708
f 609 774 610
f 609 660 774
f 610 774 611
f 611 774 775
f 611 775 776
f 611 776 777
f 611 777 778
f 611 778 614
f 612 779 613
f 612 614 779
f 613 779 616
f 614 778 780
f 614 780 781
f 614 781 779
f 615 616 782
f 615 782 783
f 615 783 617
f 616 779 784
f 616 784 785
f 616 785 782
f 617 783 782
f 617 782 785
f 619 621 786
f 619 786 622
f 620 732 787
f 620 787 786
f 620 786 621
f 622 786 788
f 622 788 789
f 622 789 790
f 622 790 791
f 622 791 626
f 623 792 793
f 623 793 624
f 623 626 792
f 624 793 794
f 624 794 625
f 625 794 795
f 625 795 796
f 625 796 797
f 625 797 798
f 625 798 627
f 626 791 799
f 626 799 800
f 626 800 792
f 627 801 802
f 627 802 803
f 627 803 804
f 627 804 628
f 627 798 801
f 628 805 806
f 628 806 633
f 628 804 805
f 629 807 808
f 629 808 630
f 629 633 809
f 629 809 810
f 629 810 811
f 629 811 807
f 630 808 812
f 630 812 631
f 631 812 813
f 631 813 632
f 632 814 815
f 632 815 634
f 632 813 814
f 633 806 816
f 633 816 809
f 634 815 817
f 634 817 637
f 634 637 635
f 635 637 636
f 637 817 815
f 637 815 818
f 639 819 820
f 639 820 640
f 640 820 819
f 640 819 821
f 640 821 644
f 641 644 821
f 641 821 642
f 642 821 822
f 642 822 823
f 642 823 643
f 643 823 645
f 645 823 662
f 646 648 824
f 646 824 825
f 646 825 826
f 646 826 647
f 647 826 827
f 647 827 651
f 648 650 828
f 648 828 829
f 648 829 824
f 649 701 650
f 650 701 830
f 650 830 828
f 651 827 652
f 652 827 653
f 653 827 831
f 653 831 654
f 654 831 832
f 654 832 655
f 655 832 833
f 655 833 834
f 655 834 659
f 656 659 835
f 656 835 1034
f 656 1034 836
f 656 836 1036
f 656 1036 837
f 656 837 657
f 657 837 658
f 658 838 661
f 658 837 838
f 659 834 839
f 659 839 840
f 659 840 835
f 660 661 841
f 660 841 775
f 660 775 774
f 661 838 842
f 661 842 841
f 662 823 843
f 662 843 665
f 663 844 667
f 663 667 664
f 663 666 844
f 665 843 666
f 666 843 845
f 666 845 846
f 666 846 847
f 666 847 848
f 666 848 844
f 667 849 668
f 667 844 849
f 668 849 850
f 668 850 669
f 669 851 852
f 669 852 670
f 669 850 851
f 670 852 853
f 670 853 671
f 671 853 672
f 672 853 673
f 673 854 674
f 673 853 855
f 673 855 854
f 674 854 675
f 675 856 857
f 675 857 676
f 675 854 856
f 676 857 677
f 677 857 858
f 677 858 859
f 677 859 860
f 677 860 678
f 678 861 862
f 678 862 679
f 678 860 861
f 679 862 863
f 679 863 864
f 679 864 681
f 680 682 865
f 680 865 866
f 680 866 683
f 681 864 682
f 682 867 865
f 682 864 863
f 682 863 867
f 683 866 868
f 683 868 684
f 684 868 869
f 684 869 870
f 684 870 685
f 685 870 871
f 685 871 872
f 685 872 686
f 686 872 687
f 687 872 688
f 688 872 873
f 688 873 874
f 688 874 875
f 688 875 689
f 689 875 690
f 690 875 876
f 690 876 691
f 691 876 877
f 691 877 878
f 691 878 879
f 691 879 880
f 691 880 692
f 692 880 693
f 693 881 882
f 693 882 694
f 693 880 881
f 694 882 883
f 694 883 884
f 694 884 885
f 694 885 696
f 695 697 886
f 695 886 887
f 695 887 888
f 695 888 699
f 696 885 889
f 696 889 697
f 697 889 886
f 698 700 890
f 698 890 702
f 699 888 700
f 700 888 891
f 700 891 890
f 701 702 892
f 701 892 830
f 702 890 892
f 704 893 705
f 704 706 895
f 704 895 894
f 704 894 1111
f 704 1111 893
f 705 893 707
f 706 708 773
f 706 773 895
f 707 893 904
f 707 904 712
f 709 896 897
f 709 897 898
f 709 898 710
f 709 713 899
f 709 899 896
f 710 898 900
f 710 900 901
f 710 901 711
f 711 901 902
f 711 902 903
f 711 903 714
f 712 904 713
f 713 904 899
f 714 903 905
f 714 905 906
f 714 906 715
f 715 906 907
f 715 907 908
f 715 908 909
f 715 909 910
f 715 910 716
f 716 910 717
f 717 911 912
f 717 912 913
f 717 913 718
f 717 910 914
f 717 914 911
f 718 913 915
f 718 915 916
f 718 916 917
f 718 917 918
f 718 918 719
f 719 918 720
f 720 918 721
f 721 918 723
f 722 919 920
f 722 920 728
f 722 724 921
f 722 921 919
f 723 918 724
f 724 918 921
f 725 922 726
f 725 727 729
f 725 729 922
f 726 923 924
f 726 924 730
f 726 922 729
f 726 729 926
f 726 926 923
f 728 925 926
f 728 926 729
f 728 920 925
f 730 927 731
f 730 924 927
f 731 928 929
f 731 929 930
f 731 930 787
f 731 787 732
f 731 927 928
f 735 931 736
f 736 931 737
f 738 932 740
f 738 740 739
f 740 932 741
f 741 932 1147
f 741 1147 933
f 741 933 742
f 742 933 934
f 742 934 743
f 743 934 744
f 744 935 745
f 744 934 935
f 745 935 936
f 745 936 937
f 745 937 938
f 745 938 746
f 746 938 937
f 746 937 939
f 746 939 940
f 746 940 941
f 746 941 747
f 747 941 748
f 748 941 1152
f 748 1152 942
f 748 942 749
f 749 942 943
f 749 943 944
f 749 944 945
f 749 945 750
f 750 945 946
f 750 946 751
f 751 946 947
f 751 947 752
f 752 947 757
f 753 948 754
f 753 757 947
f 753 947 949
f 753 949 948
f 754 948 950
f 754 950 755
f 755 950 951
f 755 951 756
f 756 952 953
f 756 953 759
f 756 759 758
f 756 951 952
f 759 954 761
f 759 761 760
f 759 953 955
f 759 955 954
f 761 954 956
f 761 956 957
f 761 957 762
f 762 957 958
f 762 958 763
f 763 958 764
f 764 959 1159
f 764 1159 960
f 764 960 766
f 764 766 765
f 764 958 961
f 764 961 1160
f 764 1160 959
f 766 960 962
f 766 962 767
f 767 962 963
f 767 963 768
f 768 963 964
f 768 964 965
f 768 965 769
f 770 965 966
f 770 966 967
f 771 967 772
f 775 968 969
f 775 969 776
f 775 841 968
f 776 970 971
f 776 971 777
f 776 969 970
f 777 972 973
f 777 973 974
f 777 974 975
f 777 975 780
f 777 780 778
f 777 971 972
f 779 781 976
f 779 976 977
f 779 977 784
f 780 975 976
f 780 976 781
f 784 977 976
f 786 978 979
f 786 979 788
f 786 787 980
f 786 980 978
f 787 930 929
f 787 929 981
f 787 981 980
f 788 979 982
f 788 982 983
f 788 983 984
f 788 984 985
f 788 985 789
f 789 985 986
f 789 986 790
f 790 986 791
f 791 986 799
f 792 800 987
f 792 987 988
f 792 988 793
f 793 795 794
f 793 988 1179
f 793 1179 989
f 793 989 991
f 793 991 795
f 795 990 796
f 795 991 1181
f 795 1181 990
f 796 990 992
f 796 992 993
f 796 993 797
f 797 993 1184
f 797 1184 994
f 797 994 801
f 797 801 798
f 799 995 800
f 799 986 996
f 799 996 997
f 799 997 995
f 800 995 987
f 801 994 802
f 802 994 998
f 802 998 803
f 803 999 804
f 803 998 1000
f 803 1000 999
f 804 999 1001
f 804 1001 1002
f 804 1002 805
f 805 1002 806
f 806 1002 1003
f 806 1003 1011
f 806 1011 816
f 807 1004 808
f 807 811 1005
f 807 1005 1004
f 808 1006 812
f 808 1004 1193
f 808 1193 1006
f 809 816 810
f 810 1005 811
f 810 816 1011
f 810 1011 1007
f 810 1007 1194
f 810 1194 1005
f 812 1008 813
f 812 1006 1008
f 813 1009 814
f 813 1008 1195
f 813 1195 1009
f 814 1009 1195
f 814 1195 1010
f 814 1010 815
f 819 1012 821
f 821 1012 1013
f 821 1013 822
f 822 1013 1196
f 822 1196 1014
f 822 1014 823
f 823 1014 843
f 824 1015 825
f 824 829 1015
f 825 1016 1017
f 825 1017 1018
f 825 1018 826
f 825 1015 1016
f 826 1018 1019
f 826 1019 1020
f 826 1020 1021
f 826 1021 827
f 827 1021 832
f 827 832 831
f 828 830 1022
f 828 1022 1023
f 828 1023 1024
f 828 1024 1025
f 828 1025 829
f 829 1025 1026
f 829 1026 1027
f 829 1027 1015
f 830 892 1028
f 830 1028 1029
f 830 1029 1030
f 830 1030 1022
f 832 1031 1032
f 832 1032 833
f 832 1021 1031
f 833 1032 1225
f 833 1225 1033
f 833 1033 839
f 833 839 834
f 835 840 1034
f 836 1035 1036
f 836 1034 1035
f 837 1036 838
f 838 1036 1037
f 838 1037 1038
f 838 1038 842
f 839 1033 840
f 840 1039 1034
f 840 1033 1040
f 840 1040 1039
f 841 842 1041
f 841 1041 968
f 842 1038 1041
f 843 1042 845
f 843 1014 1043
f 843 1043 1042
f 844 848 1044
f 844 1044 1045
f 844 1045 1046
f 844 1046 849
f 845 1042 846
f 846 1047 847
f 846 1042 1047
f 847 1048 1049
f 847 1049 1050
f 847 1050 848
f 847 1047 1048
f 848 1051 1044
f 848 1050 1051
f 849 1052 1053
f 849 1053 850
f 849 1046 1054
f 849 1054 1052
f 850 1053 1055
f 850 1055 1056
f 850 1056 1057
f 850 1057 1058
f 850 1058 851
f 851 1058 1059
f 851 1059 1060
f 851 1060 1061
f 851 1061 1062
f 851 1062 852
f 852 1062 1063
f 852 1063 1064
f 852 1064 1065
f 852 1065 1066
f 852 1066 855
f 852 855 853
f 854 855 1067
f 854 1067 856
f 855 1066 1068
f 855 1068 1069
f 855 1069 1070
f 855 1070 1071
f 855 1071 1067
f 856 1067 1072
f 856 1072 1073
f 856 1073 1074
f 856 1074 857
f 857 1075 1076
f 857 1076 858
f 857 1074 1077
f 857 1077 1075
f 858 1076 859
f 859 1076 860
f 860 1076 1078
f 860 1078 861
f 861 1078 1079
f 861 1079 1080
f 861 1080 862
f 862 1081 1082
f 862 1082 1083
f 862 1083 863
f 862 1080 1081
f 863 1083 867
f 865 1084 866
f 865 867 1084
f 866 1084 868
f 867 1085 1084
f 867 1083 1085
f 868 1086 869
f 868 1084 1086
f 869 1086 1087
f 869 1087 870
f 870 1088 1089
f 870 1089 1090
f 870 1090 871
f 870 1087 1091
f 870 1091 1088
f 871 1090 1092
f 871 1092 873
f 871 873 872
f 873 1092 1093
f 873 1093 874
f 874 1093 1094
f 874 1094 875
f 875 1094 876
f 876 1094 877
f 877 1094 1095
f 877 1095 878
f 878 1096 1097
f 878 1097 880
f 878 880 879
f 878 1095 1297
f 878 1297 1096
f 880 883 881
f 880 1097 1098
f 880 1098 883
f 881 883 882
f 883 1098 1298
f 883 1298 1099
f 883 1099 884
f 884 1099 885
f 885 1099 1298
f 885 1298 1100
f 885 1100 1300
f 885 1300 1101
f 885 1101 889
f 886 889 887
f 887 1102 888
f 887 889 1102
f 888 1102 891
f 889 1101 1102
f 890 891 1103
f 890 1103 1104
f 890 1104 1105
f 890 1105 892
f 891 1102 1106
f 891 1106 1107
f 891 1107 1103
f 892 1105 1108
f 892 1108 1109
f 892 1109 1028
f 893 1110 904
f 893 1111 1110
f 896 1112 1113
f 896 1113 897
f 896 899 1112
f 897 1113 898
f 898 1114 1115
f 898 1115 900
f 898 1113 1116
f 898 1116 1114
f 899 904 1124
f 899 1124 1117
f 899 1117 1309
f 899 1309 1112
f 900 1115 901
f 901 1118 1119
f 901 1119 902
f 901 1115 1118
f 902 1119 1120
f 902 1120 903
f 903 1121 905
f 903 1120 1122
f 903 1122 1123
f 903 1123 1121
f 904 1110 1124
f 905 1121 1125
f 905 1125 1126
f 905 1126 906
f 906 1126 907
f 907 1127 1128
f 907 1128 908
f 907 1126 1127
f 908 1128 909
f 909 1129 1133
f 909 1133 914
f 909 914 910
f 909 1128 1129
f 911 1130 1324
f 911 1324 1131
f 911 1131 1132
f 911 1132 912
f 911 914 1133
f 911 1133 1130
f 912 1132 915
f 912 915 913
f 915 1132 1134
f 915 1134 1135
f 915 1135 916
f 916 1135 1136
f 916 1136 917
f 917 1136 1137
f 917 1137 1138
f 917 1138 1139
f 917 1139 918
f 918 1140 1141
f 918 1141 921
f 918 1139 1140
f 919 1142 920
f 919 921 1143
f 919 1143 1334
f 919 1334 1142
f 921 1141 1144
f 921 1144 1143
f 923 927 924
f 929 1145 981
f 932 1146 1147
f 933 1147 1146
f 933 1146 934
f 934 1146 1148
f 934 1148 935
f 935 1148 1149
f 935 1149 936
f 936 1149 1150
f 939 1151 1152
f 939 1152 940
f 940 1152 941
f 942 1152 1151
f 950 1153 951
f 951 1153 952
f 952 1153 953
f 953 1153 1154
f 953 1154 955
f 954 955 1154
f 954 1154 1155
f 954 1155 956
f 956 1156 1157
f 956 1157 957
f 956 1155 1156
f 957 1157 958
f 958 1158 1160
f 958 1160 961
f 958 1157 1156
f 958 1156 1158
f 959 1160 1158
f 959 1158 1161
f 959 1161 1159
f 960 1159 1162
f 960 1162 962
f 962 1162 1164
f 962 1164 1163
f 962 1163 963
f 963 1163 1164
f 963 1164 1165
f 963 1165 964
f 964 1165 1166
f 964 1166 965
f 965 1166 966
f 968 1041 1167
f 968 1167 969
f 969 1167 1168
f 969 1168 970
f 970 1168 971
f 972 1169 973
f 973 1169 974
f 978 1170 1171
f 978 1171 1172
f 978 1172 982
f 978 982 979
f 978 980 1170
f 980 981 1173
f 980 1173 1170
f 981 1145 1174
f 981 1174 1173
f 982 1172 1171
f 982 1171 983
f 983 1175 1176
f 983 1176 984
f 983 1171 1337
f 983 1337 1175
f 984 1176 985
f 985 1177 1178
f 985 1178 986
f 985 1176 1177
f 986 1178 996
f 987 995 988
f 988 995 1179
f 989 1180 1182
f 989 1182 991
f 989 1179 1180
f 990 1181 992
f 991 1182 1181
f 992 1183 993
f 993 1183 1339
f 993 1339 1184
f 994 1184 998
f 995 997 1185
f 995 1185 1186
f 995 1186 1179
f 996 1178 1177
f 996 1177 997
f 997 1177 1185
f 998 1184 1187
f 998 1187 1000
f 999 1000 1188
f 999 1188 1189
f 999 1189 1190
f 999 1190 1001
f 1000 1187 1340
f 1000 1340 1188
f 1001 1190 1002
f 1002 1190 1191
f 1002 1191 1192
f 1002 1192 1003
f 1004 1005 1194
f 1004 1194 1193
f 1008 1010 1195
f 1014 1196 1230
f 1014 1230 1043
f 1015 1197 1016
f 1015 1027 1198
f 1015 1198 1197
f 1016 1199 1342
f 1016 1342 1200
f 1016 1200 1017
f 1016 1197 1341
f 1016 1341 1199
f 1017 1200 1201
f 1017 1201 1202
f 1017 1202 1018
f 1018 1202 1203
f 1018 1203 1204
f 1018 1204 1019
f 1019 1204 1205
f 1019 1205 1020
f 1020 1205 1206
f 1020 1206 1207
f 1020 1207 1208
f 1020 1208 1021
f 1021 1208 1209
f 1021 1209 1031
f 1022 1030 1210
f 1022 1210 1211
f 1022 1211 1023
f 1023 1212 1024
f 1023 1211 1213
f 1023 1213 1212
f 1024 1214 1025
f 1024 1212 1214
f 1025 1214 1215
f 1025 1215 1026
f 1026 1216 1217
f 1026 1217 1027
f 1026 1215 1216
f 1027 1218 1198
f 1027 1217 1218
f 1028 1109 1219
f 1028 1219 1220
f 1028 1220 1221
f 1028 1221 1029
f 1029 1221 1222
f 1029 1222 1223
f 1029 1223 1030
f 1030 1223 1224
f 1030 1224 1210
f 1031 1225 1032
f 1031 1209 1226
f 1031 1226 1227
f 1031 1227 1225
f 1033 1225 1228
f 1033 1228 1040
f 1042 1043 1230
f 1042 1230 1229
f 1042 1229 1235
f 1042 1235 1047
f 1044 1231 1045
f 1044 1051 1239
f 1044 1239 1232
f 1044 1232 1368
f 1044 1368 1231
f 1045 1231 1233
f 1045 1233 1046
f 1046 1234 1054
f 1046 1233 1234
f 1047 1235 1236
f 1047 1236 1048
f 1048 1236 1049
f 1049 1237 1050
f 1049 1236 1238
f 1049 1238 1370
f 1049 1370 1237
f 1050 1237 1051
f 1051 1237 1370
f 1051 1370 1239
f 1052 1240 1241
f 1052 1241 1053
f 1052 1054 1240
f 1053 1241 1055
f 1054 1234 1242
f 1054 1242 1243
f 1054 1243 1240
f 1055 1244 1245
f 1055 1245 1056
f 1055 1241 1374
f 1055 1374 1244
f 1056 1245 1246
f 1056 1246 1057
f 1057 1059 1058
f 1057 1246 1059
f 1059 1247 1060
f 1059 1246 1248
f 1059 1248 1247
f 1060 1247 1249
f 1060 1249 1061
f 1061 1249 1250
f 1061 1250 1251
f 1061 1251 1252
f 1061 1252 1063
f 1061 1063 1062
f 1063 1253 1064
f 1063 1252 1253
f 1064 1253 1065
f 1065 1253 1254
f 1065 1254 1066
f 1066 1254 1255
f 1066 1255 1256
f 1066 1256 1068
f 1067 1071 1072
f 1068 1256 1069
f 1069 1257 1258
f 1069 1258 1070
f 1069 1256 1259
f 1069 1259 1257
f 1070 1258 1071
f 1071 1258 1072
f 1072 1258 1260
f 1072 1260 1261
f 1072 1261 1073
f 1073 1261 1262
f 1073 1262 1077
f 1073 1077 1074
f 1075 1263 1076
f 1075 1077 1263
f 1076 1263 1078
f 1078 1264 1079
f 1078 1263 1264
f 1079 1265 1080
f 1079 1264 1266
f 1079 1266 1267
f 1079 1267 1265
f 1080 1265 1268
f 1080 1268 1081
f 1081 1268 1269
f 1081 1269 1270
f 1081 1270 1271
f 1081 1271 1085
f 1081 1085 1082
f 1082 1085 1083
f 1084 1085 1086
f 1085 1272 1273
f 1085 1273 1274
f 1085 1274 1086
f 1085 1271 1272
f 1086 1275 1087
f 1086 1274 1276
f 1086 1276 1275
f 1087 1275 1277
f 1087 1277 1278
f 1087 1278 1279
f 1087 1279 1280
f 1087 1280 1091
f 1088 1091 1281
f 1088 1281 1282
f 1088 1282 1283
f 1088 1283 1089
f 1089 1283 1284
f 1089 1284 1285
f 1089 1285 1286
f 1089 1286 1090
f 1090 1286 1287
f 1090 1287 1092
f 1091 1280 1281
f 1092 1287 1288
f 1092 1288 1289
f 1092 1289 1290
f 1092 1290 1093
f 1093 1291 1292
f 1093 1292 1293
f 1093 1293 1294
f 1093 1294 1094
f 1093 1290 1291
f 1094 1295 1095
f 1094 1294 1296
f 1094 1296 1295
f 1095 1295 1421
f 1095 1421 1297
f 1100 1298 1299
f 1100 1299 1300
f 1101 1300 1301
f 1101 1301 1102
f 1102 1301 1106
f 1103 1302 1104
f 1103 1107 1302
f 1104 1302 1306
f 1104 1306 1303
f 1104 1303 1424
f 1104 1424 1304
f 1104 1304 1105
f 1105 1304 1108
f 1106 1301 1305
f 1106 1305 1107
f 1107 1306 1302
f 1108 1304 1109
f 1109 1307 1308
f 1109 1308 1220
f 1109 1220 1219
f 1109 1304 1307
f 1110 1111 1124
f 1112 1309 1116
f 1112 1116 1113
f 1114 1310 1115
f 1115 1310 1118
f 1118 1311 1119
f 1118 1310 1311
f 1119 1312 1313
f 1119 1313 1122
f 1119 1122 1120
f 1119 1311 1312
f 1121 1314 1315
f 1121 1315 1125
f 1121 1123 1316
f 1121 1316 1314
f 1122 1313 1316
f 1122 1316 1123
f 1125 1315 1317
f 1125 1317 1126
f 1126 1317 1318
f 1126 1318 1127
f 1127 1318 1319
f 1127 1319 1128
f 1128 1320 1321
f 1128 1321 1129
f 1128 1319 1320
f 1129 1321 1322
f 1129 1322 1133
f 1130 1323 1324
f 1130 1133 1323
f 1131 1324 1132
f 1132 1325 1326
f 1132 1326 1134
f 1132 1324 1325
f 1134 1326 1327
f 1134 1327 1135
f 1135 1327 1136
f 1136 1327 1328
f 1136 1328 1137
f 1137 1328 1329
f 1137 1329 1138
f 1138 1329 1330
f 1138 1330 1140
f 1138 1140 1139
f 1140 1331 1332
f 1140 1332 1144
f 1140 1144 1141
f 1140 1330 1333
f 1140 1333 1331
f 1143 1144 1335
f 1143 1335 1334
f 1144 1332 1430
f 1144 1430 1335
f 1146 1150 1148
f 1148 1150 1149
f 1170 1336 1337
f 1170 1337 1171
f 1170 1173 1174
f 1170 1174 1336
f 1176 1338 1177
f 1177 1338 1185
f 1184 1339 1340
f 1184 1340 1187
f 1188 1340 1189
f 1197 1198 1218
f 1197 1218 1341
f 1199 1341 1342
f 1200 1342 1343
f 1200 1343 1344
f 1200 1344 1201
f 1201 1344 1202
f 1202 1344 1204
f 1202 1204 1203
f 1204 1345 1346
f 1204 1346 1205
f 1204 1344 1343
f 1204 1343 1345
f 1205 1346 1206
f 1206 1347 1348
f 1206 1348 1349
f 1206 1349 1350
f 1206 1350 1207
f 1206 1346 1345
f 1206 1345 1347
f 1207 1350 1208
f 1208 1350 1351
f 1208 1351 1209
f 1209 1351 1226
f 1210 1352 1353
f 1210 1353 1211
f 1210 1224 1352
f 1211 1353 1213
f 1212 1354 1355
f 1212 1355 1356
f 1212 1356 1214
f 1212 1213 1357
f 1212 1357 1354
f 1213 1353 1358
f 1213 1358 1357
f 1214 1356 1215
f 1215 1356 1359
f 1215 1359 1216
f 1216 1359 1217
f 1217 1359 1218
f 1220 1360 1221
f 1220 1308 1360
f 1221 1360 1361
f 1221 1361 1222
f 1222 1362 1363
f 1222 1363 1364
f 1222 1364 1352
f 1222 1352 1224
f 1222 1224 1223
f 1222 1361 1362
f 1225 1227 1228
f 1226 1351 1349
f 1226 1349 1227
f 1227 1349 1365
f 1227 1365 1366
f 1227 1366 1367
f 1227 1367 1228
f 1231 1368 1375
f 1231 1375 1242
f 1231 1242 1233
f 1232 1369 1368
f 1232 1239 1372
f 1232 1372 1369
f 1233 1242 1234
f 1239 1370 1371
f 1239 1371 1372
f 1240 1243 1373
f 1240 1373 1374
f 1240 1374 1241
f 1242 1375 1243
f 1243 1375 1373
f 1244 1374 1376
f 1244 1376 1245
f 1245 1377 1246
f 1246 1377 1247
f 1246 1247 1248
f 1247 1250 1249
f 1250 1378 1379
f 1250 1379 1380
f 1250 1380 1251
f 1251 1380 1379
f 1251 1379 1253
f 1251 1253 1252
f 1253 1379 1254
f 1254 1381 1255
f 1254 1379 1378
f 1254 1378 1381
f 1255 1382 1383
f 1255 1383 1259
f 1255 1259 1256
f 1255 1381 1382
f 1257 1260 1258
f 1257 1259 1383
f 1257 1383 1382
f 1260 1384 1261
f 1261 1384 1262
f 1265 1385 1268
f 1265 1267 1385
f 1267 1386 1385
f 1268 1385 1386
f 1268 1386 1388
f 1268 1388 1269
f 1269 1387 1270
f 1269 1388 1387
f 1270 1387 1389
f 1270 1389 1390
f 1270 1390 1272
f 1270 1272 1271
f 1272 1390 1391
f 1272 1391 1273
f 1273 1391 1392
f 1273 1392 1393
f 1273 1393 1274
f 1274 1393 1276
f 1275 1394 1395
f 1275 1395 1277
f 1275 1276 1394
f 1276 1393 1396
f 1276 1396 1394
f 1277 1395 1397
f 1277 1397 1398
f 1277 1398 1278
f 1278 1398 1399
f 1278 1399 1279
f 1279 1281 1280
f 1279 1399 1400
f 1279 1400 1281
f 1281 1400 1401
f 1281 1401 1282
f 1282 1401 1402
f 1282 1402 1283
f 1283 1402 1284
f 1284 1402 1285
f 1285 1403 1404
f 1285 1404 1286
f 1285 1402 1405
f 1285 1405 1403
f 1286 1404 1406
f 1286 1406 1407
f 1286 1407 1287
f 1287 1407 1408
f 1287 1408 1288
f 1288 1408 1409
f 1288 1409 1410
f 1288 1410 1289
f 1289 1411 1412
f 1289 1412 1413
f 1289 1413 1290
f 1289 1410 1411
f 1290 1413 1414
f 1290 1414 1415
f 1290 1415 1416
f 1290 1416 1291
f 1291 1416 1292
f 1292 1416 1415
f 1292 1415 1417
f 1292 1417 1418
f 1292 1418 1419
f 1292 1419 1293
f 1293 1419 1296
f 1293 1296 1294
f 1295 1296 1420
f 1295 1420 1421
f 1296 1419 1449
f 1296 1449 1422
f 1296 1422 1420
f 1297 1421 1423
f 1300 1305 1301
f 1304 1424 1425
f 1304 1425 1307
f 1307 1425 1426
f 1307 1426 1308
f 1308 1426 1360
f 1315 1427 1317
f 1317 1427 1318
f 1329 1428 1330
f 1330 1428 1333
f 1331 1429 1332
f 1331 1333 1429
f 1332 1429 1430
f 1333 1428 1429
f 1348 1431 1349
f 1349 1431 1365
f 1349 1351 1350
f 1352 1364 1358
f 1352 1358 1353
f 1360 1432 1361
f 1360 1426 1432
f 1365 1431 1366
f 1373 1376 1374
f 1387 1433 1389
f 1389 1433 1434
f 1389 1434 1390
f 1390 1434 1435
f 1390 1435 1391
f 1391 1435 1437
f 1391 1437 1392
f 1392 1436 1393
f 1392 1437 1436
f 1393 1436 1438
f 1393 1438 1396
f 1394 1439 1397
f 1394 1397 1395
f 1394 1396 1438
f 1394 1438 1439
f 1401 1405 1402
f 1403 1406 1404
f 1403 1440 1406
f 1406 1441 1407
f 1406 1440 1441
f 1407 1441 1408
f 1408 1442 1409
f 1408 1441 1442
f 1409 1442 1443
f 1409 1443 1410
f 1410 1443 1444
f 1410 1444 1411
f 1411 1444 1445
f 1411 1445 1412
f 1412 1414 1413
f 1412 1445 1414
f 1414 1445 1415
f 1415 1446 1417
f 1415 1445 1447
f 1415 1447 1446
f 1417 1448 1418
f 1417 1446 1448
f 1418 1448 1419
f 1419 1448 1449
f 1420 1423 1421

