# https://github.com/mikedh/trimesh
v -35.49801255 0.02643096 17.87387162
v -35.46541685 0.02643096 18.62324804
v -35.49504900 0.02643096 16.49387360
v -35.49504900 -0.00771207 12.98818588
v -35.49653077 -0.00771207 14.15576607
v -35.49504900 -0.46296341 12.98818588
v -35.49504900 -0.46296341 17.87387162
v -35.46689862 -0.46296341 18.62324804
v -35.46541685 -0.13290701 18.68372858
v -33.45924908 -0.13290701 20.49373209
v -32.54210139 -0.13290701 20.50405860
v -29.97883344 0.02643096 18.62324804
v -35.45948977 -0.13290701 18.79141271
v -35.34688497 -0.13290701 19.11889732
v -35.14389539 -0.13290701 19.70748186
v -34.84904582 -0.13290701 20.17879009
v -34.37491501 -0.13290701 20.33736914
v -34.04746974 -0.13290701 20.39342403
v -29.94623447 0.02643096 16.49387360
v -29.94623447 -0.00771207 12.98818588
v -35.48764015 -0.76741335 12.98818588
v -35.48467660 -0.92675132 16.49387360
v -35.47134066 -1.37631160 17.87387162
v -35.46245331 -0.63083795 18.62324804
v -35.45948977 -0.46296341 18.79141271
v -33.45924908 -0.46296341 20.49373209
v -20.36138261 -1.72059563 20.52323639
v -31.62643874 -0.13290701 20.46349347
v -32.54210139 -5.04393039 20.50405860
v -26.06280649 -7.73275879 20.52323639
v -26.03761965 -6.87347231 20.52323639
v -26.02428371 -6.84217398 20.52323639
v -25.91760436 -6.62308407 20.52323639
v -25.52940974 -5.89183641 20.52323639
v -25.13232449 -5.38252418 20.52323639
v -29.96253395 0.02643096 18.22348118
v -30.91968620 -0.13290701 20.29385030
v -30.46185160 -0.13290701 19.94129032
v -35.14389539 -0.46296341 19.70748186
v -34.84904582 -0.46296341 20.17879009
v -34.37491501 -0.46296341 20.33736914
v -29.94623447 0.02643096 16.95706815
v -20.36138261 -1.71775011 18.62324804
v -21.49485255 -3.49607584 16.49387360
v -28.59200025 -3.40218087 12.98818588
v -35.46985889 -1.37915713 12.98818588
v -35.47134066 -1.37915713 14.15576607
v -35.47134066 -1.37915713 16.49387360
v -35.43282116 -1.54703085 18.62324804
v -35.43430293 -1.37915713 18.79141271
v -35.42393053 -2.29250533 17.87387162
v -35.38836801 -2.29535085 18.79141271
v -33.45924908 -1.37915713 20.49225688
v -32.54210139 -5.96296963 20.50258338
v -29.94919801 0.02643096 17.87387162
v -20.36138261 -17.83934009 20.52323639
v -31.62643874 -8.71154917 20.50405860
v -25.91760436 -8.50668607 20.52323639
v -35.09203667 -2.29535085 19.68830407
v -35.06388629 -1.43037331 19.79746342
v -34.84163696 -1.15722251 20.17215163
v -34.46381474 -1.43037331 20.29532552
v -34.34676463 -2.29535085 20.32040417
v -33.45924908 -4.12773748 20.47529519
v -33.45924908 -3.21154376 20.48414648
v -33.45924908 -2.29535085 20.48930645
v -20.36138261 -29.03852296 18.62324804
v -21.49485255 -28.24183149 16.49387360
v -28.59200025 -21.03463602 12.98818588
v -35.42393053 -2.29535085 12.98818588
v -35.42393053 -2.29535085 16.49387360
v -35.38836801 -2.75913795 16.49387360
v -35.35280878 -3.21154376 17.87387162
v -35.32317663 -3.21154376 18.62324804
v -35.31576777 -3.21154376 18.79141271
v -35.00758225 -4.12773748 19.57840383
v -35.05647743 -3.21154376 19.64699805
v -32.54210139 -6.87631783 20.50037056
v -31.62643874 -9.63058842 20.50258338
v -20.56288877 -17.80804095 20.52323639
v -20.62956357 -25.20302964 20.50332099
v -20.36138261 -25.20302964 20.50332099
v -30.71077282 -11.45728481 20.50405860
v -24.92341110 -11.17559743 20.52323639
v -34.82978607 -1.77181182 20.16330034
v -34.29490590 -3.21154376 20.31524092
v -33.45924908 -5.04393039 20.46275586
v -32.54210139 -7.79535626 20.49299449
v -20.36138261 -29.02714414 18.79141271
v -20.62956357 -28.83935255 18.79141271
v -21.15407133 -28.46376938 18.79141271
v -20.73031584 -28.77390874 18.62324804
v -21.49485255 -28.24467701 17.87460923
v -21.64153645 -28.13371134 16.49387360
v -22.22679192 -27.67561448 16.49387360
v -22.68462488 -27.30003131 16.49387360
v -23.22394872 -26.84477997 16.49387360
v -23.68326182 -26.44074482 16.49387360
v -24.17961920 -25.98264796 16.49387360
v -24.63893229 -25.55585024 16.49387360
v -25.00342021 -25.19449470 16.49387360
v -25.10269234 -25.09490785 16.49387360
v -25.32790357 -24.86728219 16.49387360
v -25.56052530 -24.63112158 16.49387360
v -25.77832932 -24.40065039 16.49387360
v -25.99020625 -24.17302472 16.49387360
v -26.44951934 -23.67793930 16.49387360
v -26.84956813 -23.21699691 16.49387360
v -27.07626114 -22.95238105 16.49387360
v -27.30888287 -22.67638636 16.49387360
v -27.68226141 -22.21828950 16.49387360
v -28.13861096 -21.63499770 16.49387360
v -28.59200025 -21.03747991 14.15576607
v -28.88981337 -20.62206430 12.98818588
v -35.35280878 -3.21154376 12.98818588
v -35.25650347 -4.12773748 16.49387360
v -35.25502169 -4.12773748 17.87387162
v -35.22686804 -4.12773748 18.62324804
v -35.21797741 -4.12773748 18.79141271
v -34.94979644 -5.04393039 19.48252141
v -34.68902761 -4.12773748 20.03643841
v -34.75273723 -3.21154376 20.10503262
v -34.80459595 -2.29535085 20.14707297
v -31.62643874 -10.54393661 20.49742013
v -30.71077282 -12.37347772 20.50184578
v -21.46966407 -16.87477571 20.52323639
v -24.29370577 -22.45160458 20.50184578
v -23.37803984 -23.37348935 20.50184578
v -22.46237556 -24.28683591 20.50184578
v -21.54374773 -25.20302964 20.50037056
v -20.36138261 -26.12206889 20.49889535
v -29.79362512 -14.20870987 20.50258338
v -24.04626960 -13.04497344 20.52323639
v -34.16600162 -5.04393039 20.29311270
v -34.22971124 -4.12773748 20.30638963
v -33.45924908 -5.96296963 20.44062763
v -32.54210139 -8.71154917 20.47824562
v -20.36138261 -28.68001295 19.66101259
v -21.11110324 -28.43246860 19.28337395
v -21.61042089 -28.11095041 18.79141271
v -21.15851501 -28.46661491 18.62324804
v -22.19715813 -27.65569908 18.79141271
v -22.22531015 -27.67561448 17.87460923
v -22.68462488 -27.30003131 17.87460923
v -23.22394872 -26.84477997 17.87460923
v -23.68326182 -26.44074482 16.95854336
v -24.17961920 -25.98264796 17.87460923
v -24.63893229 -25.55585024 17.87460923
v -25.00342021 -25.19449470 17.87460923
v -25.56052530 -24.63112158 17.87460923
v -25.99020625 -24.17302472 17.87460923
v -26.44951934 -23.67793930 17.87460923
v -26.84956813 -23.21699691 17.87460923
v -27.30888287 -22.67638636 17.87460923
v -27.68226141 -22.21828950 17.87460923
v -28.13861096 -21.63499770 17.87460923
v -28.50458229 -21.15982932 17.87387162
v -28.50458229 -21.15698380 16.49387360
v -28.68830556 -20.90375004 16.49387360
v -28.88981337 -20.62206430 17.87387162
v -29.27652622 -20.07576269 12.98818588
v -35.25502169 -4.12773748 12.98818588
v -35.25650347 -4.12773748 14.15576607
v -35.13796831 -5.04677591 16.49387360
v -35.13648653 -5.04393039 17.87387162
v -35.10833615 -5.04393039 18.62324804
v -35.10092730 -5.04393039 18.79141271
v -34.83719164 -6.43529249 19.25608575
v -34.87719620 -5.96296963 19.34385777
v -33.90078420 -8.20792717 20.15592426
v -34.62531472 -5.04393039 19.94129032
v -33.96449381 -7.59618339 20.20017743
v -34.02524317 -6.87631783 20.23853302
v -34.09932518 -5.96296963 20.27172208
v -31.62643874 -11.45728481 20.48193365
v -30.71077282 -13.29251615 20.49299449
v -29.79362512 -15.12205807 20.49446970
v -22.31272811 -15.89029429 20.52323639
v -26.12799952 -19.70302505 20.50332099
v -24.29370577 -23.37348935 20.47529519
v -27.04366544 -18.78967685 20.50258338
v -25.20937169 -21.53825802 20.50037056
v -23.37803984 -24.28683591 20.47529519
v -20.62956357 -26.12206889 20.49742013
v -20.36138261 -27.03826261 20.45095414
v -28.87499565 -16.03825179 20.50258338
v -33.45924908 -6.87631783 20.40375054
v -32.54210139 -9.63058842 20.44800371
v -20.36138261 -28.49791241 19.90588844
v -20.54510916 -28.57189280 19.63593721
v -21.45632977 -27.88332147 19.64404762
v -22.11418549 -27.58740974 19.39474940
v -22.69203210 -27.24881512 18.79141271
v -22.66091818 -27.28295979 18.62324804
v -23.20172379 -26.82486457 18.62324804
v -23.65362966 -26.41798225 18.79141271
v -23.68178004 -26.44074482 17.87460923
v -24.15887440 -25.96273092 18.62324804
v -24.53373471 -25.61275584 18.62324804
v -24.61818913 -25.53308767 18.62324804
v -24.70264355 -25.45057398 18.62324804
v -25.07602209 -25.07214529 18.79141271
v -25.53978050 -24.61404843 18.62324804
v -26.02428371 -24.08766550 18.79141271
v -26.42433250 -23.64664016 18.79141271
v -26.83030674 -23.19707823 18.62324804
v -27.20516706 -22.75605452 18.62324804
v -27.28517616 -22.65077663 18.79141271
v -27.66299838 -22.19552529 18.62324804
v -28.12083298 -21.60938961 18.62324804
v -28.46754128 -21.14560169 18.79141271
v -28.50458229 -21.10861314 18.62324804
v -28.85425413 -20.62206430 18.62324804
v -29.27652622 -20.07576269 17.87387162
v -29.58174819 -19.61482031 12.98818588
v -35.21649564 -4.43218661 12.98818588
v -35.13796831 -5.04677591 12.98818588
v -34.99276781 -5.96296963 14.15576607
v -34.99276781 -5.96012411 17.87387162
v -34.96461416 -5.96296963 18.62324804
v -34.95720530 -5.96296963 18.79141271
v -34.85645467 -6.53487933 18.79141271
v -34.76459140 -6.99297537 18.79141271
v -34.59420079 -7.79535626 18.79141271
v -34.37491501 -8.71154917 18.79141271
v -33.93189812 -10.13705594 19.28337395
v -34.00449837 -9.63058842 19.41909045
v -34.12747884 -8.71154917 19.61602181
v -34.20156086 -7.86079844 19.79303777
v -33.81484801 -8.71154917 20.07405311
v -33.02660460 -11.08739269 20.18542856
v -33.09772635 -10.54393661 20.22820652
v -33.21774000 -9.63058842 20.27983576
v -33.35701669 -8.71154917 20.30860245
v -33.54073996 -7.86079844 20.31302810
v -31.62643874 -12.37347772 20.44431567
v -30.71077282 -14.20870987 20.46128064
v -29.79362512 -16.03825179 20.46128064
v -28.87499565 -16.95444388 20.49078166
v -27.95784796 -17.87063760 20.49963295
v -26.12799952 -20.61637324 20.49815774
v -25.20937169 -22.45160458 20.47086954
v -24.34111917 -24.33520657 20.32778025
v -22.46237556 -25.20302964 20.47013193
v -21.54374773 -26.12206889 20.45833021
v -20.62956357 -27.03826261 20.43472677
v -20.36138261 -27.92031330 20.28278619
v -32.54210139 -10.54393661 20.39121121
v -20.36138261 -28.16500885 20.21197915
v -21.18963057 -27.56749106 20.20755351
v -21.80155629 -27.32848493 20.00545889
v -22.44904125 -27.02688051 19.73329484
v -23.08615381 -26.72243220 19.46186841
v -23.19579670 -26.81917352 18.79141271
v -24.03145188 -25.84038151 19.49727029
v -24.61374382 -25.52739662 18.79141271
v -24.95008135 -24.94410646 19.50980961
v -25.53385505 -24.60551185 18.79141271
v -25.84944779 -24.02222169 19.49874550
v -26.73103461 -23.07757599 19.46260601
v -26.82734320 -23.18854329 18.79141271
v -27.59187991 -22.10732055 19.39548701
v -28.43642408 -21.10292209 19.28411156
v -27.65855307 -22.18699035 18.79141271
v -28.11638767 -21.60369856 18.79141271
v -28.84388173 -20.61637324 18.79141271
v -29.29578597 -19.97902137 18.79141271
v -29.25726319 -20.05015296 18.62324804
v -29.56396693 -19.59205774 18.62324804
v -29.58174819 -19.61482031 17.87387162
v -30.01439268 -18.95186034 14.15576607
v -30.03957951 -18.90633521 12.98818588
v -34.99276781 -5.96296963 12.98818588
v -34.87423265 -6.62592960 16.49387360
v -34.87423265 -6.62308407 17.87387162
v -34.78385115 -7.08402564 17.87387162
v -34.76903671 -7.01004771 18.62324804
v -34.60160965 -7.79535626 18.62324804
v -34.38084209 -8.71724022 18.62324804
v -34.13044238 -9.63058842 18.79141271
v -33.95857001 -10.22241515 18.79141271
v -33.81632978 -10.68051201 18.79141271
v -33.56000299 -11.45728481 18.79141271
v -33.00734485 -12.85149162 19.26493704
v -33.09624458 -12.37347772 19.42498803
v -33.22366381 -11.41744991 19.74657178
v -32.89918208 -11.69913647 20.07847875
v -32.06500703 -13.71646916 20.15444905
v -32.17761511 -13.10757091 20.22378087
v -32.30651939 -12.37347772 20.27688861
v -32.57321859 -11.41744991 20.29532552
v -31.70644784 -13.36080385 20.32630503
v -30.71077282 -15.12205807 20.38309753
v -28.87499565 -17.87063760 20.44357806
v -27.95784796 -18.78967685 20.47750801
v -27.04366544 -19.70302505 20.49225688
v -25.24937624 -23.40763402 20.32409221
v -26.12799952 -21.53541249 20.45833021
v -24.97230628 -24.06205577 20.24517149
v -24.06849289 -24.96686903 20.24517149
v -23.41360072 -25.24570924 20.32409221
v -22.69203210 -25.21441174 20.43472677
v -22.47274632 -26.14198593 20.31376570
v -21.51559571 -27.02972603 20.29237509
v -20.54510916 -27.90893120 20.25328517
v -22.17493320 -26.71674115 20.22894412
v -22.78685892 -26.45781798 20.07257789
v -22.69203210 -26.61715430 19.97890830
v -23.74549294 -25.57861281 20.10798305
v -24.35593525 -25.26278240 19.80852753
v -24.67893684 -24.67095566 20.11978477
v -25.26715586 -24.34943420 19.80852753
v -25.58275023 -23.73769042 20.10872066
v -26.02428371 -23.67793930 19.66027498
v -26.02428371 -23.48445666 19.86163199
v -26.46581883 -22.77881709 20.07331550
v -27.03181291 -22.44306964 19.73403245
v -27.33258957 -21.79433567 20.00619650
v -27.89117480 -21.45005164 19.64552283
v -28.42605496 -20.17534790 20.17215163
v -28.57570076 -20.53385955 19.63667154
v -29.46914012 -19.44979129 19.46703166
v -30.27368302 -18.36572302 19.29296285
v -29.55952162 -19.58636669 18.79141271
v -30.02180153 -18.88357264 18.62324804
v -30.03957951 -18.90918073 17.87387162
v -30.18626505 -18.67870954 16.49387360
v -30.32554174 -18.44823835 12.98818588
v -34.87423265 -6.62592960 12.98818588
v -34.78385115 -7.08687117 16.49387360
v -34.63124180 -7.79535626 17.87387162
v -34.41047424 -8.71724022 17.87387162
v -34.16600162 -9.62774289 17.87387162
v -33.97782976 -10.28216628 17.87387162
v -33.84744370 -10.60368774 18.62324804
v -33.82077510 -10.68904777 18.62324804
v -33.77780700 -10.81993294 18.62324804
v -33.59704399 -11.45443929 17.87387162
v -33.26959873 -12.37347772 17.87387162
v -33.23848153 -12.37347772 18.62324804
v -33.23107267 -12.37347772 18.79141271
v -33.83410776 -10.74026314 17.87387162
v -33.03104991 -12.90839804 18.79141271
v -32.84435982 -13.36649490 18.79141271
v -32.48876417 -14.20870987 18.79141271
v -32.14057410 -14.78061957 19.35934424
v -32.26799661 -14.20870987 19.55185324
v -31.17749477 -15.59722644 20.17215163
v -31.27232159 -15.12205807 20.22378087
v -31.48271674 -14.20870987 20.29311270
v -30.69743687 -15.95858199 20.27172208
v -29.87363422 -17.03126815 20.33220589
v -29.29578597 -17.87063760 20.34990847
v -28.90166754 -18.78967685 20.31155288
v -27.95784796 -19.70302505 20.38973600
v -27.04366544 -20.61637324 20.43472677
v -26.14726091 -22.46298504 20.31376570
v -26.02428371 -22.74467242 20.28278619
v -25.85241133 -23.12594664 20.24000823
v -23.13653076 -25.84038151 20.24000823
v -22.69203210 -26.04524625 20.28868705
v -26.72214562 -22.16707331 20.22894412
v -27.57854396 -21.18543741 20.20829111
v -27.91487986 -20.53385955 20.25402278
v -28.57125545 -19.70302505 20.23263216
v -29.42617202 -18.48807243 20.21788001
v -30.23219669 -17.38408876 20.15444905
v -29.22466749 -19.09981621 20.07774115
v -29.29578597 -19.19940305 19.90293801
v -29.29578597 -19.05144555 20.02611190
v -29.75362057 -18.73276961 19.68535364
v -30.62631840 -17.87063760 18.79141271
v -30.30479694 -18.41693920 18.79141271
v -30.01735622 -18.87788159 18.79141271
v -30.41888351 -17.87063760 19.50243354
v -31.22935349 -16.61016149 19.36376989
v -31.03080923 -17.16215250 18.79141271
v -30.31072402 -18.42547578 18.62324804
v -30.32554174 -18.44823835 17.87387162
v -30.66780472 -17.87348313 16.49387360
v -30.64854169 -17.90478227 14.15576607
v -30.66632295 -17.87348313 12.98818588
v -34.78385115 -7.08402564 12.98818588
v -34.63124180 -7.79535626 12.98818588
v -34.41195602 -8.71439469 16.49387360
v -34.16748339 -9.62774289 14.15576607
v -33.97782976 -10.28216628 12.98818588
v -33.90671128 -10.51263747 16.49387360
v -33.59704399 -11.45443929 12.98818588
v -33.57778097 -11.51134570 14.15576607
v -33.75558043 -10.97927091 12.98818588
v -33.26959873 -12.37347772 12.98818588
v -33.05030966 -12.95676870 14.15576607
v -33.04883117 -12.95961422 17.87387162
v -33.19847697 -12.48160032 18.62324804
v -33.84299839 -10.71181034 14.15576607
v -32.88288260 -13.29251615 18.62324804
v -32.84880513 -13.37503066 18.62324804
v -32.49616975 -14.20870987 18.62324804
v -32.18650246 -14.88020641 18.79141271
v -31.97018350 -15.34114716 18.79141271
v -31.33899475 -15.95858199 19.68387842
v -30.38184250 -16.77234334 20.23484498
v -29.61878920 -17.87063760 20.27762294
v -29.29578597 -18.56489671 20.24148345
v -27.03329304 -21.50695724 20.29237509
v -30.63520575 -17.87348313 18.62324804
v -31.62199343 -16.03825179 18.79141271
v -31.27973044 -16.70405728 18.79141271
v -31.03525454 -17.17068908 18.62324804
v -30.66780472 -17.87348313 17.87387162
v -31.05155403 -17.19914270 14.15576607
v -31.05155403 -17.19629717 12.98818588
v -34.41195602 -8.71439469 12.98818588
v -34.16748339 -9.62774289 12.98818588
v -33.83410776 -10.73457291 12.98818588
v -33.05030966 -12.95676870 12.98818588
v -32.86362285 -13.41771026 16.95706815
v -32.86362285 -13.41486556 17.87387162
v -32.52876872 -14.20586434 17.87387162
v -32.18946600 -14.88874135 18.62324804
v -31.99092502 -15.38098288 17.87387162
v -31.91536123 -15.46918762 18.62324804
v -31.63236255 -16.03825179 18.62324804
v -31.28417248 -16.70974669 18.62324804
v -31.05155403 -17.19914270 17.87387162
v -31.30047197 -16.74104584 17.87387162
v -31.13452667 -17.04833967 12.98818588
v -32.86362285 -13.41486556 12.98818588
v -32.86362285 -13.41771026 16.49387360
v -32.50950569 -14.24854395 14.15576607
v -32.20428372 -14.92288602 17.87387162
v -31.99240679 -15.38098288 14.15576607
v -31.97314704 -15.42081696 14.15576607
v -31.66496152 -16.03825179 17.87387162
v -31.54494459 -16.27441240 12.98818588
v -31.30047197 -16.74104584 12.98818588
v -32.52728695 -14.20586434 12.98818588
v -32.42060596 -14.44487211 12.98818588
v -32.20428372 -14.92288602 12.98818588
v -31.99240679 -15.38098288 12.98818588
v -31.66496152 -16.03540627 12.98818588
v -31.66496152 -16.03825179 16.49387360
f 1 2 12
f 1 12 36
f 1 36 55
f 1 55 42
f 1 42 19
f 1 19 3
f 1 3 4
f 1 4 5
f 1 5 6
f 1 6 7
f 1 7 8
f 1 8 9
f 1 9 2
f 2 10 11
f 2 11 12
f 2 9 13
f 2 13 14
f 2 14 15
f 2 15 16
f 2 16 17
f 2 17 18
f 2 18 10
f 3 19 20
f 3 20 4
f 4 20 45
f 4 45 69
f 4 69 114
f 4 114 161
f 4 161 215
f 4 215 272
f 4 272 328
f 4 328 382
f 4 382 413
f 4 413 428
f 4 428 437
f 4 437 436
f 4 436 442
f 4 442 441
f 4 441 440
f 4 440 439
f 4 439 438
f 4 438 429
f 4 429 417
f 4 417 392
f 4 392 389
f 4 389 391
f 4 391 416
f 4 416 387
f 4 387 415
f 4 415 414
f 4 414 384
f 4 384 383
f 4 383 329
f 4 329 273
f 4 273 217
f 4 217 216
f 4 216 162
f 4 162 115
f 4 115 70
f 4 70 46
f 4 46 21
f 4 21 6
f 4 6 5
f 6 21 22
f 6 22 7
f 7 22 23
f 7 23 8
f 8 23 24
f 8 24 25
f 8 25 9
f 9 25 13
f 10 18 26
f 10 26 29
f 10 29 11
f 11 27 28
f 11 28 12
f 11 29 30
f 11 30 31
f 11 31 32
f 11 32 33
f 11 33 34
f 11 34 35
f 11 35 27
f 12 28 37
f 12 37 38
f 12 38 27
f 12 27 36
f 13 25 14
f 14 25 39
f 14 39 15
f 15 39 40
f 15 40 16
f 16 40 41
f 16 41 17
f 17 41 18
f 18 41 26
f 19 42 43
f 19 43 20
f 20 43 44
f 20 44 45
f 21 46 47
f 21 47 22
f 22 47 48
f 22 48 23
f 23 49 50
f 23 50 24
f 23 48 71
f 23 71 51
f 23 51 52
f 23 52 49
f 24 50 25
f 25 50 39
f 26 41 53
f 26 53 54
f 26 54 29
f 27 43 55
f 27 55 36
f 27 38 37
f 27 37 28
f 27 35 34
f 27 34 33
f 27 33 32
f 27 32 31
f 27 31 30
f 27 30 58
f 27 58 84
f 27 84 133
f 27 133 178
f 27 178 126
f 27 126 80
f 27 80 56
f 27 56 82
f 27 82 131
f 27 131 185
f 27 185 247
f 27 247 249
f 27 249 189
f 27 189 138
f 27 138 89
f 27 89 67
f 27 67 43
f 29 54 79
f 29 79 57
f 29 57 58
f 29 58 30
f 39 50 59
f 39 59 60
f 39 60 61
f 39 61 40
f 40 61 62
f 40 62 41
f 41 62 63
f 41 63 64
f 41 64 65
f 41 65 66
f 41 66 53
f 42 55 43
f 43 67 68
f 43 68 44
f 44 68 69
f 44 69 45
f 46 70 47
f 47 70 71
f 47 71 48
f 49 52 50
f 50 52 59
f 51 71 72
f 51 72 73
f 51 73 52
f 52 73 74
f 52 74 75
f 52 75 76
f 52 76 77
f 52 77 59
f 53 66 78
f 53 78 54
f 54 78 79
f 56 80 81
f 56 81 82
f 57 79 83
f 57 83 58
f 58 83 84
f 59 85 60
f 59 77 85
f 60 85 61
f 61 85 63
f 61 63 62
f 63 85 86
f 63 86 87
f 63 87 64
f 64 87 88
f 64 88 65
f 65 88 78
f 65 78 66
f 67 89 90
f 67 90 91
f 67 91 92
f 67 92 93
f 67 93 68
f 68 93 94
f 68 94 69
f 69 94 95
f 69 95 96
f 69 96 97
f 69 97 98
f 69 98 99
f 69 99 100
f 69 100 101
f 69 101 102
f 69 102 103
f 69 103 104
f 69 104 105
f 69 105 106
f 69 106 107
f 69 107 108
f 69 108 109
f 69 109 110
f 69 110 111
f 69 111 112
f 69 112 113
f 69 113 114
f 70 115 72
f 70 72 71
f 72 115 73
f 73 115 163
f 73 163 116
f 73 116 117
f 73 117 118
f 73 118 74
f 74 118 75
f 75 118 119
f 75 119 120
f 75 120 76
f 76 121 122
f 76 122 77
f 76 120 121
f 77 122 123
f 77 123 85
f 78 88 124
f 78 124 79
f 79 124 125
f 79 125 83
f 80 126 127
f 80 127 128
f 80 128 129
f 80 129 81
f 81 129 130
f 81 130 131
f 81 131 82
f 83 125 132
f 83 132 133
f 83 133 84
f 85 123 134
f 85 134 135
f 85 135 86
f 86 135 136
f 86 136 87
f 87 136 137
f 87 137 88
f 88 137 124
f 89 138 139
f 89 139 90
f 90 139 91
f 91 139 140
f 91 140 93
f 91 93 141
f 91 141 92
f 92 141 93
f 93 140 142
f 93 142 143
f 93 143 94
f 94 143 95
f 95 143 144
f 95 144 96
f 96 144 145
f 96 145 97
f 97 145 146
f 97 146 98
f 98 146 147
f 98 147 99
f 99 147 148
f 99 148 100
f 100 148 149
f 100 149 101
f 101 149 102
f 102 149 103
f 103 149 150
f 103 150 104
f 104 150 105
f 105 150 151
f 105 151 106
f 106 151 152
f 106 152 107
f 107 152 153
f 107 153 108
f 108 153 109
f 109 153 154
f 109 154 110
f 110 154 155
f 110 155 111
f 111 155 156
f 111 156 112
f 112 156 157
f 112 157 158
f 112 158 113
f 113 158 157
f 113 157 159
f 113 159 114
f 114 159 160
f 114 160 214
f 114 214 161
f 115 162 163
f 116 163 217
f 116 217 164
f 116 164 117
f 117 164 165
f 117 165 166
f 117 166 118
f 118 166 167
f 118 167 119
f 119 167 168
f 119 168 169
f 119 169 120
f 120 169 170
f 120 170 171
f 120 171 121
f 121 171 172
f 121 172 122
f 122 172 173
f 122 173 174
f 122 174 123
f 123 174 134
f 124 137 175
f 124 175 176
f 124 176 125
f 125 176 177
f 125 177 132
f 126 178 179
f 126 179 127
f 127 180 128
f 127 179 181
f 127 181 182
f 127 182 180
f 128 180 183
f 128 183 129
f 129 183 130
f 130 183 184
f 130 184 131
f 131 184 185
f 132 177 186
f 132 186 133
f 133 186 178
f 134 174 187
f 134 187 136
f 134 136 135
f 136 187 188
f 136 188 137
f 137 188 175
f 138 189 190
f 138 190 139
f 139 190 189
f 139 189 191
f 139 191 192
f 139 192 142
f 139 142 140
f 142 192 193
f 142 193 194
f 142 194 144
f 142 144 143
f 144 194 193
f 144 193 145
f 145 195 196
f 145 196 197
f 145 197 146
f 145 193 195
f 146 197 147
f 147 198 148
f 147 197 198
f 148 198 199
f 148 199 200
f 148 200 201
f 148 201 202
f 148 202 149
f 149 202 203
f 149 203 150
f 150 203 151
f 151 203 204
f 151 204 152
f 152 205 206
f 152 206 153
f 152 204 205
f 153 206 207
f 153 207 154
f 154 208 155
f 154 207 208
f 155 209 156
f 155 208 209
f 156 209 210
f 156 210 157
f 157 211 212
f 157 212 213
f 157 213 160
f 157 160 159
f 157 210 211
f 160 213 214
f 161 214 270
f 161 270 215
f 162 216 163
f 163 216 217
f 164 217 273
f 164 273 218
f 164 218 219
f 164 219 165
f 165 219 220
f 165 220 166
f 166 220 221
f 166 221 167
f 167 221 168
f 168 221 222
f 168 222 223
f 168 223 224
f 168 224 225
f 168 225 226
f 168 226 227
f 168 227 228
f 168 228 229
f 168 229 170
f 168 170 169
f 170 172 171
f 170 229 228
f 170 228 227
f 170 227 230
f 170 230 231
f 170 231 232
f 170 232 172
f 172 232 233
f 172 233 173
f 173 233 234
f 173 234 235
f 173 235 187
f 173 187 174
f 175 236 237
f 175 237 176
f 175 188 236
f 176 237 177
f 177 237 238
f 177 238 239
f 177 239 240
f 177 240 186
f 178 186 181
f 178 181 179
f 180 182 241
f 180 241 242
f 180 242 243
f 180 243 183
f 181 241 182
f 181 186 240
f 181 240 241
f 183 243 244
f 183 244 184
f 184 245 185
f 184 244 245
f 185 246 247
f 185 245 246
f 187 235 234
f 187 234 248
f 187 248 188
f 188 248 236
f 189 249 250
f 189 250 251
f 189 251 191
f 191 251 192
f 192 251 252
f 192 252 253
f 192 253 254
f 192 254 193
f 193 254 195
f 195 254 196
f 196 254 253
f 196 253 255
f 196 255 256
f 196 256 198
f 196 198 197
f 198 256 199
f 199 256 200
f 200 256 201
f 201 256 202
f 202 257 258
f 202 258 203
f 202 256 257
f 203 258 204
f 204 258 259
f 204 259 260
f 204 260 205
f 205 260 261
f 205 261 206
f 206 261 208
f 206 208 207
f 208 262 263
f 208 263 264
f 208 264 209
f 208 261 262
f 209 264 265
f 209 265 210
f 210 265 211
f 211 263 266
f 211 266 213
f 211 213 212
f 211 265 263
f 213 266 267
f 213 267 268
f 213 268 214
f 214 268 269
f 214 269 270
f 215 270 271
f 215 271 272
f 218 273 329
f 218 329 274
f 218 274 219
f 219 222 220
f 219 274 275
f 219 275 222
f 220 222 221
f 222 275 276
f 222 276 277
f 222 277 223
f 223 277 224
f 224 277 278
f 224 278 225
f 225 279 280
f 225 280 226
f 225 278 279
f 226 280 281
f 226 281 282
f 226 282 283
f 226 283 284
f 226 284 285
f 226 285 286
f 226 286 227
f 227 286 231
f 227 231 230
f 231 286 287
f 231 287 288
f 231 288 289
f 231 289 290
f 231 290 232
f 232 290 291
f 232 291 248
f 232 248 233
f 233 248 234
f 236 290 292
f 236 292 293
f 236 293 237
f 236 248 290
f 237 293 238
f 238 294 295
f 238 295 239
f 238 293 294
f 239 295 296
f 239 296 240
f 240 296 241
f 241 296 242
f 242 297 243
f 242 296 298
f 242 298 297
f 243 297 299
f 243 299 300
f 243 300 301
f 243 301 302
f 243 302 244
f 244 302 245
f 245 303 246
f 245 302 301
f 245 301 303
f 246 303 304
f 246 304 247
f 247 304 305
f 247 305 249
f 248 291 290
f 249 305 250
f 250 305 304
f 250 304 306
f 250 306 307
f 250 307 251
f 251 307 308
f 251 308 252
f 252 308 253
f 253 308 307
f 253 307 309
f 253 309 255
f 255 309 310
f 255 310 257
f 255 257 256
f 257 311 312
f 257 312 259
f 257 259 258
f 257 310 311
f 259 312 313
f 259 313 314
f 259 314 260
f 260 314 315
f 260 315 316
f 260 316 317
f 260 317 262
f 260 262 261
f 262 317 318
f 262 318 319
f 262 319 263
f 263 267 266
f 263 265 264
f 263 319 320
f 263 320 321
f 263 321 322
f 263 322 323
f 263 323 267
f 267 324 268
f 267 323 324
f 268 324 269
f 269 324 374
f 269 374 325
f 269 325 326
f 269 326 270
f 270 326 271
f 271 326 327
f 271 327 328
f 271 328 272
f 274 329 330
f 274 330 276
f 274 276 275
f 276 330 331
f 276 331 278
f 276 278 277
f 278 331 332
f 278 332 279
f 279 332 280
f 280 332 333
f 280 333 334
f 280 334 281
f 281 334 335
f 281 335 282
f 282 335 336
f 282 336 337
f 282 337 283
f 283 338 339
f 283 339 340
f 283 340 341
f 283 341 284
f 283 337 342
f 283 342 338
f 284 341 343
f 284 343 344
f 284 344 345
f 284 345 346
f 284 346 347
f 284 347 285
f 285 347 288
f 285 288 287
f 285 287 286
f 288 347 346
f 288 346 348
f 288 348 349
f 288 349 289
f 289 349 350
f 289 350 290
f 290 350 292
f 292 350 293
f 293 350 351
f 293 351 352
f 293 352 294
f 294 352 353
f 294 353 354
f 294 354 355
f 294 355 356
f 294 356 295
f 295 356 298
f 295 298 296
f 297 298 357
f 297 357 358
f 297 358 359
f 297 359 299
f 298 356 357
f 299 313 311
f 299 311 300
f 299 359 313
f 300 311 309
f 300 309 360
f 300 360 301
f 301 360 303
f 303 306 304
f 303 360 361
f 303 361 306
f 306 361 360
f 306 360 309
f 306 309 307
f 309 311 310
f 311 313 312
f 313 359 362
f 313 362 316
f 313 316 315
f 313 315 314
f 316 362 363
f 316 363 318
f 316 318 317
f 318 363 320
f 318 320 319
f 320 363 364
f 320 364 365
f 320 365 366
f 320 366 367
f 320 367 368
f 320 368 369
f 320 369 322
f 320 322 321
f 322 369 370
f 322 370 371
f 322 371 323
f 323 372 373
f 323 373 374
f 323 374 324
f 323 371 367
f 323 367 375
f 323 375 376
f 323 376 377
f 323 377 372
f 325 374 378
f 325 378 326
f 326 378 379
f 326 379 327
f 327 379 328
f 328 379 411
f 328 411 380
f 328 380 381
f 328 381 382
f 329 383 330
f 330 383 384
f 330 384 331
f 331 384 414
f 331 414 385
f 331 385 332
f 332 385 333
f 333 385 386
f 333 386 334
f 334 387 388
f 334 388 342
f 334 342 336
f 334 336 335
f 334 386 415
f 334 415 387
f 336 342 337
f 338 389 390
f 338 390 339
f 338 342 391
f 338 391 389
f 339 392 417
f 339 417 393
f 339 393 394
f 339 394 343
f 339 343 395
f 339 395 340
f 339 390 392
f 340 395 341
f 341 395 343
f 342 388 396
f 342 396 391
f 343 394 397
f 343 397 344
f 344 398 345
f 344 397 398
f 345 399 400
f 345 400 346
f 345 398 399
f 346 400 401
f 346 401 376
f 346 376 402
f 346 402 348
f 348 402 376
f 348 376 367
f 348 367 403
f 348 403 351
f 348 351 349
f 349 351 350
f 351 403 404
f 351 404 352
f 352 404 353
f 353 404 354
f 354 365 364
f 354 364 355
f 354 404 405
f 354 405 365
f 355 364 406
f 355 406 356
f 356 406 357
f 357 362 358
f 357 406 362
f 358 362 359
f 362 406 363
f 363 406 364
f 365 405 366
f 366 405 404
f 366 404 403
f 366 403 367
f 367 371 370
f 367 370 368
f 367 376 375
f 368 370 369
f 372 407 378
f 372 378 373
f 372 377 407
f 373 378 374
f 376 401 408
f 376 408 409
f 376 409 377
f 377 410 407
f 377 409 410
f 378 407 411
f 378 411 379
f 380 382 381
f 380 411 426
f 380 426 412
f 380 412 382
f 382 412 413
f 385 414 415
f 385 415 386
f 387 416 396
f 387 396 388
f 389 392 390
f 391 396 416
f 393 417 430
f 393 430 418
f 393 418 394
f 394 418 419
f 394 419 397
f 397 419 398
f 398 419 399
f 399 419 420
f 399 420 400
f 400 420 421
f 400 421 422
f 400 422 401
f 401 422 423
f 401 423 424
f 401 424 408
f 407 410 411
f 408 424 409
f 409 424 425
f 409 425 410
f 410 426 411
f 410 425 427
f 410 427 426
f 412 426 428
f 412 428 413
f 417 429 430
f 418 430 420
f 418 420 419
f 420 430 431
f 420 431 432
f 420 432 421
f 421 432 422
f 422 432 433
f 422 433 434
f 422 434 435
f 422 435 423
f 423 435 424
f 424 435 425
f 425 435 427
f 426 427 428
f 427 435 436
f 427 436 437
f 427 437 428
f 429 438 430
f 430 438 431
f 431 439 440
f 431 440 432
f 431 438 439
f 432 440 441
f 432 441 433
f 433 441 434
f 434 441 442
f 434 442 443
f 434 443 435
f 435 443 436
f 436 443 442

