# https://github.com/mikedh/trimesh
v -1.36150891 -20.23063404 14.15509731
v -1.36436755 -20.23063404 16.04104161
v 0.03644085 -27.84032387 9.78716940
v -2.85379784 -25.16677049 9.78716940
v -29.16611457 -20.23063404 14.15509731
v -1.36722619 -20.23063404 16.49332613
v -0.00072310 -29.94748485 16.49267048
v 0.03644085 -27.96137345 10.01757830
v 0.03644085 -35.49335224 9.78716940
v -3.39125061 -25.16677049 9.78716940
v -25.20382816 -24.99042657 10.53156942
v -28.88595486 -20.62666041 14.15509731
v -29.16897321 -20.23063404 16.04104161
v -4.97216227 -25.23402062 16.49332613
v -0.00072310 -35.49634201 16.49267048
v -29.16611457 -20.23063404 16.49332613
v 0.03644085 -29.94748485 12.98795313
v 0.03644085 -28.10782951 10.29459417
v -0.00072310 -35.49634201 14.15444165
v -0.46384880 -35.49335224 9.78716940
v 0.03644085 -35.49335224 10.53156942
v -3.39125061 -35.33045900 9.78716940
v -25.09519497 -25.09952036 10.53156942
v -25.20668680 -24.99042657 11.81227565
v -25.55831904 -24.63773874 14.15509731
v -25.98713780 -24.17894525 14.15509731
v -26.44454459 -23.68129623 14.15509731
v -26.84477532 -23.22250438 14.15509731
v -27.30504075 -22.68301171 14.15509731
v -27.32791150 -22.65611035 14.15509731
v -27.67954374 -22.22421822 14.15509731
v -28.13980753 -21.63839725 14.15509731
v -28.48571921 -21.18109864 14.15509731
v -28.68583703 -20.90761674 16.49332613
v -28.88595486 -20.62666041 16.49332613
v -29.07749021 -20.35616827 16.49332613
v -24.96083075 -25.23402062 16.49332613
v 0.03644085 -35.49185735 12.98795313
v -0.46670744 -35.49634201 16.49267048
v -0.46670744 -35.49634201 15.12399882
v -0.76687926 -35.48737270 12.98795313
v -1.38152020 -35.46944064 9.78716940
v -3.21400518 -35.34988594 9.78716940
v -4.13453603 -35.25573773 10.53156942
v -5.04934961 -35.13468486 10.53156942
v -5.97559774 -34.98823208 10.53156942
v -6.63597854 -34.87166387 10.53156942
v -7.09338533 -34.78050542 10.53156942
v -7.81094218 -34.62358845 10.53156942
v -8.71717902 -34.40838737 10.53156942
v -9.63199178 -34.16330171 10.53156942
v -10.28665530 -33.97350711 10.53156942
v -10.75263882 -33.82854593 10.53156942
v -11.46447757 -33.59242303 10.53156942
v -12.38786707 -33.26364679 10.53156942
v -12.95676650 -33.04695410 10.53156942
v -13.40845520 -32.86313576 10.53156942
v -14.20605803 -32.52688837 10.53156942
v -14.92361570 -32.20408839 10.53156942
v -15.38102249 -31.98739571 10.53156942
v -16.03568519 -31.66310084 10.53156942
v -16.74466530 -31.29696560 10.53156942
v -17.20778937 -31.04440225 10.53156942
v -17.87102962 -30.66631121 10.53156942
v -18.45136279 -30.32258940 10.53156942
v -18.91162986 -30.03864658 10.53156942
v -19.61489106 -29.58134634 10.53156942
v -20.08087540 -29.27050215 10.53156942
v -21.17579142 -28.48891032 10.53156942
v -21.63319821 -28.13771737 10.53156942
v -22.21639166 -27.68191201 10.53156942
v -22.67379845 -27.31278700 10.53156942
v -23.21696931 -26.84801561 10.53156942
v -23.67723474 -26.44750622 10.53156942
v -24.17180547 -25.98871273 10.53156942
v -24.62635363 -25.56429175 10.53156942
v -24.66065893 -25.53440225 14.15444165
v -25.09805361 -25.09952036 14.15509731
v -25.55831904 -24.63773874 16.49332613
v -25.98713780 -24.17894525 16.49332613
v -26.21298337 -23.93385631 16.49332613
v -26.44454459 -23.68129623 16.49332613
v -26.65037805 -23.44816473 16.49332613
v -26.84477532 -23.22250438 16.49332613
v -27.30504075 -22.68301171 16.49332613
v -27.49658102 -22.44987858 16.49332613
v -27.67954374 -22.22421822 16.49332613
v -28.13980753 -21.63989213 15.12465447
v -28.48571921 -21.18109864 16.49332613
v -25.09805361 -25.09952036 16.49332613
v -24.63207090 -25.55980873 16.49267048
v -24.40050805 -25.77799631 16.49267048
v -24.17180547 -25.99020762 16.49267048
v -23.67723474 -26.44899947 16.49267048
v -23.21411068 -26.84951049 16.49267048
v -22.95110116 -27.07517085 16.49267048
v -22.67379845 -27.30830399 16.49267048
v -22.44509423 -27.49660206 16.49267048
v -22.21639166 -27.68191201 16.49267048
v -21.93051303 -27.90607912 16.49267048
v -21.63319821 -28.13771737 16.49267048
v -21.17865169 -28.48891032 16.49267048
v -21.05572367 -28.57857716 16.49267048
v -20.35245920 -29.07921595 16.49267048
v -20.07229948 -29.27498681 16.49267048
v -19.61774969 -29.58134634 16.49267048
v -18.90877122 -30.04014147 16.49267048
v -18.45136279 -30.32408429 16.49267048
v -17.87102962 -30.66481632 16.49267048
v -17.20207209 -31.04888690 16.49267048
v -16.74466530 -31.29845721 16.49267048
v -16.03854382 -31.66310084 16.49267048
v -15.38388113 -31.98889059 16.49267048
v -14.92361570 -32.20259351 16.49267048
v -14.20891667 -32.52539349 16.49267048
v -13.81726349 -32.69277138 16.49267048
v -13.41417329 -32.86164415 16.49267048
v -12.95676650 -33.04844898 16.49267048
v -12.38214979 -33.26813144 16.49267048
v -11.46447757 -33.59391791 16.49267048
v -10.74692072 -33.83153570 16.49267048
v -10.28379666 -33.97350711 16.49267048
v -9.63199178 -34.16330171 16.49267048
v -9.18316172 -34.28435129 16.49267048
v -8.71717902 -34.40689248 16.49267048
v -7.79950680 -34.62657822 16.49267048
v -7.08766805 -34.78050542 16.49267048
v -6.63026126 -34.87016899 16.49267048
v -5.96702183 -34.98972696 16.49267048
v -5.04934961 -35.13468486 16.49267048
v -4.13167739 -35.25424284 16.49267048
v -3.21686381 -35.34988594 16.49267048
v -2.29919242 -35.42311234 16.49267048
v -1.38437884 -35.46944064 16.49267048
v -1.39295558 -35.46944064 10.53156942
v -2.29919242 -35.42460722 10.53156942
v -2.13624099 -35.43208164 9.78716940
v -3.05391321 -35.36333663 9.78716940
v -3.21686381 -35.34988594 14.15444165
v -3.67141196 -35.30355764 13.75336021
v -4.13453603 -35.25573773 11.81227565
v -5.61539041 -35.04651291 11.81227565
v -6.63597854 -34.87166387 11.45911247
v -7.09338533 -34.78050542 11.81227565
v -7.79950680 -34.62806982 14.15444165
v -8.71717902 -34.40838737 14.15444165
v -10.28665530 -33.97350711 15.12399882
v -10.46389991 -33.91970766 11.81227565
v -10.74692072 -33.83153570 11.45911247
v -11.46447757 -33.59391791 13.29122782
v -12.02765891 -33.39366240 11.81227565
v -12.38214979 -33.26813144 14.15444165
v -12.95962514 -33.04695410 12.98861206
v -13.13687058 -32.97671420 11.81227565
v -13.46277261 -32.84221393 14.15444165
v -14.20891667 -32.52688837 12.98861206
v -14.92647434 -32.20408839 12.98861206
v -15.38388113 -31.98889059 14.15444165
v -16.03854382 -31.66310084 14.15444165
v -16.74466530 -31.29845721 14.15444165
v -17.20207209 -31.04888690 11.81227565
v -17.87102962 -30.66631121 14.15444165
v -18.45136279 -30.32408429 14.15444165
v -18.91162986 -30.04014147 12.98861206
v -19.61774969 -29.58134634 14.15444165
v -20.04656846 -29.29291886 14.15444165
v -20.22667253 -29.17037440 14.15444165
v -20.22667253 -29.17037440 12.98861206
v -21.17865169 -28.48891032 14.15444165
v -21.62748093 -28.14220202 11.81227565
v -21.99340636 -27.85825593 11.81227565
v -22.39649573 -27.53695411 11.81227565
v -22.65092934 -27.32922581 14.15444165
v -23.21696931 -26.84801561 11.81227565
v -23.67723474 -26.44899947 14.15444165
v -24.17180547 -25.99020762 11.81227565
v -24.96083075 -25.23551387 16.49267048
v -28.13980753 -21.63989213 16.49332613
v -18.91162986 -30.04014147 14.15444165
v -14.92647434 -32.20408839 14.15444165
v -14.24894089 -32.50895632 14.15444165
v -14.20891667 -32.52688837 14.15444165
v -12.95676650 -33.04844898 14.15444165
v -7.79950680 -34.62806982 14.20761496
v -7.09052669 -34.78050542 16.04038596
v -1.43869625 -35.46794576 14.15444165
v -2.29919242 -35.42311234 9.78716940
f 1 2 3
f 1 3 4
f 1 4 10
f 1 10 5
f 1 5 13
f 1 13 16
f 1 16 6
f 1 6 2
f 2 6 3
f 3 7 8
f 3 8 18
f 3 18 17
f 3 17 38
f 3 38 21
f 3 21 9
f 3 9 20
f 3 20 42
f 3 42 137
f 3 137 187
f 3 187 138
f 3 138 43
f 3 43 22
f 3 22 10
f 3 10 4
f 3 6 7
f 5 11 12
f 5 12 13
f 5 10 11
f 6 14 15
f 6 15 7
f 6 16 36
f 6 36 35
f 6 35 34
f 6 34 89
f 6 89 178
f 6 178 87
f 6 87 86
f 6 86 85
f 6 85 84
f 6 84 83
f 6 83 82
f 6 82 81
f 6 81 80
f 6 80 79
f 6 79 90
f 6 90 37
f 6 37 14
f 7 15 38
f 7 38 17
f 7 17 18
f 7 18 8
f 9 19 20
f 9 21 15
f 9 15 19
f 10 22 11
f 11 23 24
f 11 24 25
f 11 25 26
f 11 26 27
f 11 27 28
f 11 28 29
f 11 29 30
f 11 30 31
f 11 31 32
f 11 32 33
f 11 33 12
f 11 22 23
f 12 34 13
f 12 33 34
f 13 34 35
f 13 35 36
f 13 36 16
f 14 37 39
f 14 39 15
f 15 21 38
f 15 39 40
f 15 40 19
f 19 40 20
f 20 40 41
f 20 41 42
f 22 43 44
f 22 44 45
f 22 45 46
f 22 46 47
f 22 47 48
f 22 48 49
f 22 49 50
f 22 50 51
f 22 51 52
f 22 52 53
f 22 53 54
f 22 54 55
f 22 55 56
f 22 56 57
f 22 57 58
f 22 58 59
f 22 59 60
f 22 60 61
f 22 61 62
f 22 62 63
f 22 63 64
f 22 64 65
f 22 65 66
f 22 66 67
f 22 67 68
f 22 68 69
f 22 69 70
f 22 70 71
f 22 71 72
f 22 72 73
f 22 73 74
f 22 74 75
f 22 75 76
f 22 76 23
f 23 76 77
f 23 77 24
f 24 78 25
f 24 77 78
f 25 78 90
f 25 90 79
f 25 79 80
f 25 80 26
f 26 80 81
f 26 81 27
f 27 81 82
f 27 82 83
f 27 83 28
f 28 83 84
f 28 84 85
f 28 85 29
f 29 85 30
f 30 85 86
f 30 86 31
f 31 86 87
f 31 87 178
f 31 178 88
f 31 88 32
f 32 88 33
f 33 88 178
f 33 178 89
f 33 89 34
f 37 90 91
f 37 91 92
f 37 92 93
f 37 93 94
f 37 94 95
f 37 95 96
f 37 96 97
f 37 97 98
f 37 98 99
f 37 99 100
f 37 100 101
f 37 101 102
f 37 102 103
f 37 103 104
f 37 104 105
f 37 105 106
f 37 106 107
f 37 107 108
f 37 108 109
f 37 109 110
f 37 110 111
f 37 111 112
f 37 112 113
f 37 113 114
f 37 114 115
f 37 115 116
f 37 116 117
f 37 117 118
f 37 118 119
f 37 119 120
f 37 120 121
f 37 121 122
f 37 122 123
f 37 123 124
f 37 124 125
f 37 125 126
f 37 126 127
f 37 127 128
f 37 128 129
f 37 129 130
f 37 130 131
f 37 131 132
f 37 132 133
f 37 133 134
f 37 134 39
f 39 134 135
f 39 135 40
f 40 135 41
f 41 135 42
f 42 135 136
f 42 136 137
f 43 138 139
f 43 139 140
f 43 140 44
f 44 140 141
f 44 141 130
f 44 130 45
f 45 130 142
f 45 142 46
f 46 129 143
f 46 143 47
f 46 142 129
f 47 143 144
f 47 144 48
f 48 144 184
f 48 184 145
f 48 145 49
f 49 145 50
f 50 145 184
f 50 184 146
f 50 146 124
f 50 124 51
f 51 124 123
f 51 123 147
f 51 147 52
f 52 147 148
f 52 148 149
f 52 149 53
f 53 149 54
f 54 149 150
f 54 150 151
f 54 151 55
f 55 151 152
f 55 152 56
f 56 152 153
f 56 153 154
f 56 154 57
f 57 154 155
f 57 155 58
f 58 156 157
f 58 157 59
f 58 155 156
f 59 157 158
f 59 158 60
f 60 158 61
f 61 158 159
f 61 159 160
f 61 160 62
f 62 160 161
f 62 161 63
f 63 161 64
f 64 162 108
f 64 108 163
f 64 163 65
f 64 161 110
f 64 110 162
f 65 163 164
f 65 164 66
f 66 164 67
f 67 164 165
f 67 165 68
f 68 165 106
f 68 106 166
f 68 166 105
f 68 105 167
f 68 167 168
f 68 168 69
f 69 168 103
f 69 103 169
f 69 169 70
f 70 169 170
f 70 170 171
f 70 171 71
f 71 171 99
f 71 99 172
f 71 172 72
f 72 172 99
f 72 99 98
f 72 98 173
f 72 173 97
f 72 97 96
f 72 96 174
f 72 174 73
f 73 174 94
f 73 94 175
f 73 175 74
f 74 175 176
f 74 176 75
f 75 176 76
f 76 176 77
f 77 176 92
f 77 92 91
f 77 91 177
f 77 177 90
f 77 90 78
f 90 177 91
f 92 176 93
f 93 176 175
f 93 175 94
f 94 174 95
f 95 174 96
f 97 173 98
f 99 171 100
f 100 171 101
f 101 171 170
f 101 170 102
f 102 170 169
f 102 169 103
f 103 168 167
f 103 167 104
f 104 167 105
f 105 166 106
f 106 179 107
f 106 165 164
f 106 164 179
f 107 179 108
f 108 162 109
f 108 179 164
f 108 164 163
f 109 162 110
f 110 161 160
f 110 160 111
f 111 160 159
f 111 159 112
f 112 159 158
f 112 158 113
f 113 158 157
f 113 157 180
f 113 180 114
f 114 180 115
f 115 180 181
f 115 181 182
f 115 182 116
f 116 182 156
f 116 156 155
f 116 155 117
f 117 155 154
f 117 154 118
f 118 154 183
f 118 183 152
f 118 152 119
f 119 152 150
f 119 150 120
f 120 150 149
f 120 149 121
f 121 149 148
f 121 148 147
f 121 147 122
f 122 147 123
f 124 146 125
f 125 146 184
f 125 184 126
f 126 184 185
f 126 185 127
f 127 185 128
f 128 185 143
f 128 143 129
f 129 142 130
f 130 141 131
f 131 141 140
f 131 140 132
f 132 140 139
f 132 139 138
f 132 138 136
f 132 136 133
f 133 136 186
f 133 186 134
f 134 186 135
f 135 186 136
f 136 187 137
f 136 138 187
f 143 185 144
f 144 185 184
f 150 152 151
f 152 183 153
f 153 183 154
f 156 182 181
f 156 181 157
f 157 181 180

