# https://github.com/mikedh/trimesh
v 28.90265381 15.12302029 20.50354064
v 30.70833987 11.45574818 20.50354064
v 29.79114300 14.20359748 20.50256699
v 28.90265381 16.03827643 20.50061315
v 28.45010048 21.18788468 18.62331361
v 28.90265381 6.87739151 20.50354064
v 31.62478274 8.71206964 20.50354064
v 31.62478274 9.62732415 20.50256699
v 29.79114300 15.12302029 20.49475491
v 30.70833987 12.37100269 20.50159007
v 28.90265381 16.95352929 20.48596919
v 28.47352033 21.15869838 18.62331361
v 28.45010048 21.23792234 17.87454039
v 27.77617967 20.39980846 11.81212157
v 28.45010048 3.61249658 18.62331361
v 28.90265381 17.87087041 20.43813288
v 28.90265381 18.79446315 20.31122506
v 28.90265381 19.72639578 19.89729941
v 28.90265381 19.98700398 19.71279263
v 28.90265381 20.54366323 18.79122585
v 28.90265381 5.96213660 20.49573183
v 32.53895706 0.17455893 20.50354064
v 32.53895706 5.04479713 20.50354064
v 32.53895706 5.96213660 20.50256699
v 32.53895706 6.87739151 20.49963623
v 31.62478274 10.54257865 20.49670875
v 29.79114300 16.03827643 20.46156585
v 30.70833987 13.28834216 20.49280435
v 30.70833987 14.20359748 20.46156585
v 28.85656809 20.62288719 18.62331361
v 28.89283216 20.62288719 17.87454039
v 28.49165237 21.18162977 17.87454039
v 28.43499100 21.25668543 14.15606111
v 28.49165237 21.18162977 16.49316877
v 27.77617967 20.39980846 10.53130060
v 27.77617967 4.05448737 11.81212157
v 28.90265381 3.56871466 19.67569590
v 28.90265381 4.22961588 20.23800522
v 28.90265381 4.73832245 20.35124928
v 28.90265381 5.04479713 20.41568011
v 27.77617967 2.64303612 10.53130060
v 29.97851169 -0.00473951 18.62331361
v 30.13565814 0.17455893 19.47947264
v 30.70833987 15.12302029 20.38346469
v 29.87198150 17.03066992 20.33172399
v 29.61888378 17.87087041 20.27803272
v 29.22526037 19.10093742 20.07985562
v 29.42622727 18.49215883 20.21750629
v 29.05073589 19.73682063 19.74695861
v 29.47004771 19.45119607 19.46873307
v 29.25397133 20.04537987 18.79122585
v 31.62478274 0.17455893 20.46156585
v 35.46280360 -0.00473951 18.62331361
v 33.45539665 0.17455893 20.49280435
v 33.45539665 0.46227011 20.49280435
v 33.45539665 1.37960958 20.49182743
v 33.45539665 2.29694824 20.48889995
v 32.53895706 7.79681514 20.49280435
v 33.45539665 3.21428771 20.48401862
v 31.62478274 11.45574818 20.48206478
v 31.62478274 12.37100269 20.44399112
v 29.25774788 20.05163478 18.62331361
v 29.27587992 20.07665443 17.87454039
v 29.29401195 20.05580473 14.15606111
v 28.86941230 20.65624508 14.15606111
v 28.76061684 20.80843973 12.98751056
v 28.64653355 20.96689093 11.81212157
v 28.49165237 21.17954480 11.81212157
v 28.43876755 21.25043052 11.81212157
v 29.04998189 20.39980846 10.53130060
v 30.46128726 0.17455893 19.93732691
v 30.77633744 0.17455893 20.18236011
v 30.91988569 0.17455893 20.29365361
v 28.90416509 0.04321235 10.53130060
v 29.94828945 -0.04226652 16.49316877
v 30.69549566 15.95905083 20.27217448
v 31.70486724 13.35922788 20.32684267
v 31.48047721 14.20359748 20.29365361
v 30.38119948 16.77423167 20.23410082
v 30.23160940 17.38718184 20.15502602
v 29.75261038 18.73608726 19.68740910
v 30.27316129 18.36915212 19.29593951
v 29.55995386 19.58671096 18.79122585
v 29.31365525 19.97032585 18.62331361
v 35.45978433 0.17455893 18.72679502
v 35.45676177 0.17455893 18.79122585
v 35.14020031 0.17455893 19.70693439
v 34.84479344 0.17455893 20.17845571
v 34.37108552 0.17455893 20.33660531
v 34.08549702 0.17455893 20.38541853
v 35.49378311 -0.04226652 16.49316877
v 35.49378311 -0.00473951 17.87454039
v 34.37108552 0.46227011 20.33758223
v 32.53895706 8.71206964 20.47718346
v 33.45539665 4.12954262 20.47523290
v 33.45539665 5.04479713 20.46253949
v 32.53895706 9.62732415 20.44789553
v 32.30399137 12.37100269 20.27607888
v 32.53895706 10.54257865 20.39127350
v 29.56373042 19.59505084 18.62331361
v 29.58110845 19.61798387 17.87454039
v 29.39827358 19.89735517 16.31158948
v 29.27663719 20.07873940 10.53130060
v 29.58110845 19.62215381 11.81212157
v 29.58110845 19.62215381 10.53130060
v 35.49227184 0.04321235 10.53130060
v 29.90976011 0.00360037 11.81212157
v 29.94677817 -0.04226652 14.15606111
v 29.94677817 -0.04226652 14.62465495
v 29.94753545 -0.04226652 16.04117274
v 31.27271121 15.12302029 20.22336125
v 31.17600596 15.59837061 20.17259747
v 32.17479860 13.10070465 20.22238761
v 30.41822081 17.87087041 19.50485289
v 31.22737950 16.60952720 19.36427474
v 30.30489480 18.42127311 18.79122585
v 30.01779830 18.87994367 18.79122585
v 31.03018915 17.16410148 18.79122585
v 30.62749809 17.87087041 18.79122585
v 35.49378311 0.46227011 17.87454039
v 35.46356088 0.46227011 18.62331361
v 35.45676177 0.46227011 18.79122585
v 35.14095431 0.46227011 19.70693439
v 34.84554743 0.46227011 20.17845571
v 35.49378311 -0.04226652 14.15606111
v 35.49453711 0.46018514 16.49316877
v 34.46099168 1.43590051 20.29560417
v 34.34388584 2.29694824 20.32001078
v 33.45539665 5.96213660 20.44106364
v 34.29250902 3.21428771 20.31512946
v 33.45539665 6.87739151 20.40396690
v 32.56917601 11.41822117 20.29560417
v 33.09426075 10.54257865 20.22824585
v 33.02324390 11.08464311 20.18529087
v 33.35491484 8.71206964 20.30927122
v 33.21514314 9.62732415 20.27900964
v 29.93846780 19.01545855 18.62331361
v 30.03970688 18.91121494 17.87454039
v 29.80776375 19.27189681 16.49316877
v 29.58110845 19.62006884 16.49316877
v 30.01326447 18.95499768 14.15606111
v 30.03366178 18.92163980 10.53130060
v 35.49227184 0.47269414 10.53130060
v 35.49302584 0.46227011 11.81212157
v 35.49227184 0.00360037 11.81212157
v 32.06298059 13.71573898 20.15502602
v 31.33844024 15.95905083 19.68545854
v 32.13701999 14.78110316 19.35939670
v 31.27875304 16.70543092 18.79122585
v 31.62327146 16.03827643 18.79122585
v 30.63505447 17.87087041 18.62331361
v 30.66829598 17.87087041 17.87454039
v 30.30867135 18.42752802 18.62331361
v 31.03321170 17.17244136 18.62331361
v 30.96370285 17.29544806 18.62331361
v 35.46960598 1.37752461 16.95785820
v 35.46884870 1.37752461 17.87454039
v 35.45978433 0.63114370 18.62331361
v 35.43183064 1.37960958 18.79122585
v 35.08958077 2.29694824 19.68936294
v 35.06011581 1.43590051 19.79772568
v 34.83799433 1.16695325 20.17162383
v 35.49378311 0.46227011 14.15606111
v 35.46960598 1.37752461 10.53130060
v 35.46960598 1.37960958 14.15606111
v 35.46960598 1.37960958 16.49316877
v 34.82666140 1.77990260 20.16283810
v 34.22904527 4.12954262 20.30634373
v 34.16407352 5.04479713 20.29365361
v 34.09682995 5.96213660 20.27315140
v 34.02279055 6.87739151 20.23800522
v 33.96083808 7.60292272 20.19993484
v 33.89964288 8.21170295 20.15697986
v 33.22194224 11.41822117 19.74695861
v 32.89555913 11.69550749 20.07887870
v 33.81351328 8.71206964 20.07595122
v 34.00163597 9.62732415 19.42089677
v 30.03970688 18.91329991 16.49316877
v 30.32529211 18.45254603 17.87454039
v 30.18476641 18.68188130 16.49316877
v 30.03970688 18.91329991 16.04117274
v 30.32604938 18.45671597 12.98751056
v 30.32604938 18.45463100 10.53130060
v 32.26470476 14.20359748 19.55268919
v 33.09350675 12.37100269 19.42577809
v 32.48682624 14.20359748 18.79122585
v 32.18310898 14.88117683 18.79122585
v 31.96778661 15.33984738 18.79122585
v 33.00435459 12.84843634 19.26470101
v 31.63082456 16.04036140 18.62331361
v 31.66331207 16.04036140 17.87454039
v 31.29915362 16.74087378 17.87454039
v 31.04983246 17.20162767 17.87454039
v 30.85642194 17.54354643 16.49316877
v 31.05134374 17.20579761 14.15606111
v 30.66829598 17.87295538 16.49316877
v 35.44618284 1.84453341 16.49316877
v 35.43862974 1.37960958 18.62331361
v 35.42200899 2.29486408 17.87454039
v 35.39254403 2.29694824 18.62331361
v 35.38574165 2.29694824 18.79122585
v 35.05482471 3.21428771 19.64836180
v 34.80248427 2.29694824 20.14721721
v 35.42125171 2.29486408 10.53130060
v 35.42200899 2.29486408 11.45872563
v 35.42276299 2.29486408 14.15606111
v 34.75110745 3.21428771 20.10621607
v 34.68840098 4.12954262 20.03885448
v 34.20033759 7.86353092 19.79381800
v 34.12554091 8.71206964 19.61712003
v 34.62267196 5.04479713 19.94415879
v 34.55542838 5.96213660 19.80553448
v 34.94829780 5.04479713 19.48532760
v 34.87652367 5.96213660 19.34768021
v 34.83497178 6.44373978 19.25981969
v 33.92910784 10.14020066 19.28422630
v 30.32604938 18.45671597 14.15606111
v 30.32529211 18.45463100 16.49316877
v 30.66980725 17.87295538 12.98751056
v 30.45826470 18.23155063 11.81212157
v 30.66527342 17.87920865 10.53130060
v 32.78449839 13.51976159 18.62331361
v 32.49437934 14.20568245 18.62331361
v 32.84191703 13.36339700 18.79122585
v 32.18688553 14.89160168 18.62331361
v 31.98742991 15.37945854 17.87454039
v 31.91187596 15.46910900 18.62331361
v 32.20275229 14.92495957 17.87454039
v 33.55663573 11.45574818 18.79122585
v 33.22798735 12.37100269 18.79122585
v 33.02777445 12.90472808 18.79122585
v 31.98742991 15.38362848 16.49316877
v 31.66406935 16.04036140 16.95785820
v 31.29990762 16.74295875 16.49316877
v 31.17751395 16.97020906 16.49316877
v 31.30066490 16.74504372 14.15606111
v 31.05134374 17.20579761 12.98751056
v 30.66980725 17.87295538 13.29209328
v 30.66905325 17.87295538 15.12546420
v 35.42276299 2.29486408 16.49316877
v 35.35098886 3.21220274 17.87454039
v 35.32152390 3.21428771 18.62331361
v 35.31472480 3.21428771 18.79122585
v 35.00571644 4.12954262 19.58100021
v 35.42049771 2.30528812 10.53130060
v 35.35023486 3.22471256 10.53130060
v 35.35174286 3.21428771 12.98751056
v 35.21877354 4.12954262 18.79122585
v 35.10166770 5.04479713 18.79122585
v 34.95811945 5.96213660 18.79122585
v 34.85461509 6.54589801 18.79122585
v 34.76395166 7.00456734 18.79122585
v 34.59471827 7.79681514 18.79122585
v 34.37410479 8.71206964 18.79122585
v 34.12780618 9.62732415 18.79122585
v 33.95706153 10.22776450 18.79122585
v 33.81351328 10.67601020 18.79122585
v 31.05134374 17.20371264 10.53130060
v 32.86156034 13.41134886 17.87454039
v 32.52611285 14.20568245 17.87454039
v 32.84569686 13.37382185 18.62331361
v 32.87969565 13.29042713 18.62331361
v 32.52686685 14.20568245 16.49316877
v 32.50798082 14.24946355 14.15606111
v 32.20426356 14.92704454 10.54204017
v 32.09697938 15.15220987 16.49316877
v 33.77422666 10.81986579 18.62331361
v 33.59516835 11.45366321 17.87454039
v 33.50375092 11.62462178 18.62331361
v 33.23554372 12.37100269 18.62331361
v 33.19549983 12.47941541 18.62331361
v 33.03155428 12.91515211 18.62331361
v 31.98742991 15.38362848 11.45872563
v 31.66406935 16.04036140 16.49316877
v 31.44119060 16.47401231 11.81212157
v 31.30066490 16.74504372 12.98751056
v 31.29990762 16.74504372 10.53130060
v 35.35174286 3.21428771 14.15606111
v 35.35174286 3.21220274 16.49316877
v 35.25579488 4.12954262 17.87454039
v 35.22557264 4.12954262 18.62331361
v 35.25654888 4.12954262 10.53130060
v 35.25730615 4.12954262 11.81212157
v 35.13717776 5.04479713 17.87454039
v 34.99287551 5.96005163 17.87454039
v 34.94300997 6.08514330 18.62331361
v 34.85839164 6.56466151 18.62331361
v 34.78284096 7.09421697 17.87454039
v 34.63022506 7.79473017 17.87454039
v 34.41112613 8.71206964 17.87454039
v 34.38090717 8.71206964 18.62331361
v 34.33632946 8.88094324 18.62331361
v 34.13536256 9.62732415 18.62331361
v 34.16558480 9.62940912 17.87454039
v 33.97519356 10.28614039 17.87454039
v 33.84373223 10.60720946 18.62331361
v 33.81728983 10.68851921 18.62331361
v 32.86156034 13.41551880 16.95785820
v 33.04741776 12.95476409 17.87454039
v 32.69156968 13.81789761 16.49316877
v 32.52384758 14.21402070 10.53130060
v 32.20426356 14.92704454 10.53130060
v 33.83164531 10.73647107 17.87454039
v 33.83239931 10.73855604 16.49316877
v 33.59516835 11.45574818 16.49316877
v 33.26803124 12.37100269 16.49316877
v 33.26727396 12.37100269 17.87454039
v 31.98289609 15.39196837 10.53130060
v 31.78872829 15.78600812 11.81212157
v 31.66331207 16.04036140 12.98751056
v 31.66255808 16.03827643 10.53130060
v 35.25730615 4.12954262 12.98751056
v 35.25730615 4.12745765 15.12546420
v 35.25654888 4.12954262 16.49316877
v 35.13491249 5.05730613 10.53130060
v 35.13717776 5.04479713 11.45872563
v 35.21801626 4.43184736 12.98751056
v 35.08958077 5.35335677 12.98751056
v 35.06464964 5.50972136 16.49316877
v 34.99362951 5.96213660 16.49316877
v 35.25050377 4.18166402 14.15606111
v 34.87274712 6.63763179 17.87454039
v 34.87350112 6.63763179 12.98751056
v 34.83799433 6.81692983 11.81212157
v 34.81305992 6.94202150 12.98751056
v 34.78208369 7.09630194 12.98751056
v 34.63098234 7.79681514 10.53130060
v 34.63098234 7.79681514 11.81212157
v 34.63098234 7.79473017 16.49316877
v 34.39828193 8.76627642 14.15606111
v 34.28722119 9.18116341 16.49316877
v 34.41188013 8.71206964 15.12546420
v 34.16633880 9.62732415 16.49316877
v 34.16633880 9.62940912 11.81212157
v 33.97519356 10.28614039 12.98751056
v 33.87999957 10.59261548 12.98751056
v 33.90493071 10.51130573 16.49316877
v 34.04847896 10.03595705 11.81212157
v 32.85854107 13.42385786 10.53130060
v 32.95600032 13.18201440 16.49316877
v 33.15621322 12.66913789 16.49316877
v 33.04666376 12.95684906 14.15606111
v 33.81955838 10.78025299 14.15606111
v 33.59592235 11.45574818 14.20877874
v 33.26803124 12.37308766 14.15606111
v 34.99362951 5.96213660 10.53130060
v 34.98683041 6.00174899 14.15606111
v 34.87350112 6.63763179 11.81212157
v 34.87350112 6.63554682 10.53130060
v 34.78284096 7.09004703 10.53130060
v 34.41263741 8.71206964 10.53130060
v 34.41263741 8.71206964 10.54204017
v 34.41188013 8.71415461 12.98751056
v 34.16633880 9.62940912 10.53130060
v 33.97443628 10.28822536 11.81212157
v 33.83013403 10.74689510 10.53130060
v 33.97443628 10.28405542 10.53130060
v 33.04666376 12.95684906 12.98751056
v 33.04741776 12.95476409 11.81212157
v 33.04666376 12.95476409 10.53130060
v 33.26803124 12.37308766 12.98751056
v 33.68733978 11.18054683 11.81212157
v 33.59592235 11.45574818 11.81212157
v 33.39495545 12.01866153 11.81212157
v 33.59214580 11.46617303 10.53130060
v 33.26803124 12.37100269 10.53130060
f 1 2 3
f 1 3 4
f 1 4 5
f 1 5 15
f 1 15 6
f 1 6 22
f 1 22 23
f 1 23 7
f 1 7 2
f 2 7 8
f 2 8 3
f 3 9 4
f 3 8 10
f 3 10 9
f 4 9 11
f 4 11 5
f 5 12 13
f 5 13 14
f 5 14 36
f 5 36 15
f 5 11 16
f 5 16 17
f 5 17 18
f 5 18 19
f 5 19 20
f 5 20 12
f 6 15 21
f 6 21 22
f 7 23 24
f 7 24 8
f 8 24 25
f 8 25 26
f 8 26 10
f 9 27 11
f 9 10 28
f 9 28 29
f 9 29 27
f 10 26 28
f 11 27 16
f 12 30 31
f 12 31 32
f 12 32 13
f 12 20 30
f 13 33 14
f 13 32 34
f 13 34 33
f 14 33 35
f 14 35 41
f 14 41 36
f 15 37 38
f 15 38 39
f 15 39 40
f 15 40 21
f 15 36 41
f 15 41 42
f 15 42 43
f 15 43 37
f 16 27 44
f 16 44 45
f 16 45 46
f 16 46 17
f 17 47 18
f 17 46 48
f 17 48 47
f 18 47 19
f 19 47 49
f 19 49 50
f 19 50 20
f 20 51 30
f 20 50 51
f 21 40 52
f 21 52 22
f 22 52 42
f 22 42 53
f 22 53 54
f 22 54 55
f 22 55 23
f 23 55 56
f 23 56 24
f 24 56 57
f 24 57 25
f 25 58 26
f 25 57 59
f 25 59 58
f 26 58 60
f 26 60 28
f 27 29 44
f 28 60 29
f 29 60 61
f 29 61 44
f 30 51 62
f 30 62 31
f 31 62 63
f 31 63 64
f 31 64 65
f 31 65 66
f 31 66 32
f 32 66 67
f 32 67 34
f 33 34 68
f 33 68 69
f 33 69 35
f 34 67 68
f 35 69 70
f 35 70 103
f 35 103 105
f 35 105 142
f 35 142 183
f 35 183 221
f 35 221 258
f 35 258 277
f 35 277 311
f 35 311 308
f 35 308 302
f 35 302 301
f 35 301 339
f 35 339 360
f 35 360 366
f 35 366 365
f 35 365 356
f 35 356 357
f 35 357 354
f 35 354 351
f 35 351 327
f 35 327 350
f 35 350 349
f 35 349 346
f 35 346 315
f 35 315 282
f 35 282 246
f 35 246 245
f 35 245 204
f 35 204 164
f 35 164 143
f 35 143 106
f 35 106 74
f 35 74 41
f 37 43 38
f 38 43 71
f 38 71 72
f 38 72 73
f 38 73 39
f 39 73 40
f 40 73 52
f 41 74 42
f 42 73 72
f 42 72 71
f 42 71 43
f 42 74 75
f 42 75 91
f 42 91 53
f 42 52 73
f 44 76 45
f 44 61 77
f 44 77 78
f 44 78 76
f 45 76 46
f 46 76 79
f 46 79 48
f 47 50 49
f 47 48 80
f 47 80 81
f 47 81 50
f 48 79 80
f 50 81 82
f 50 82 51
f 51 82 83
f 51 83 84
f 51 84 62
f 53 85 86
f 53 86 87
f 53 87 88
f 53 88 89
f 53 89 90
f 53 90 54
f 53 91 92
f 53 92 85
f 54 93 55
f 54 90 93
f 55 93 56
f 56 93 57
f 57 93 59
f 58 94 60
f 58 59 95
f 58 95 96
f 58 96 94
f 59 93 95
f 60 94 97
f 60 97 61
f 61 98 77
f 61 97 99
f 61 99 98
f 62 84 63
f 63 84 100
f 63 100 101
f 63 101 102
f 63 102 64
f 64 103 70
f 64 70 65
f 64 102 104
f 64 104 105
f 64 105 103
f 65 70 66
f 66 70 67
f 67 70 68
f 68 70 69
f 74 106 145
f 74 145 107
f 74 107 108
f 74 108 109
f 74 109 110
f 74 110 75
f 75 110 109
f 75 109 108
f 75 108 125
f 75 125 91
f 76 78 111
f 76 111 112
f 76 112 79
f 77 98 78
f 78 98 113
f 78 113 111
f 79 112 80
f 80 114 82
f 80 82 81
f 80 112 115
f 80 115 114
f 82 116 117
f 82 117 83
f 82 114 115
f 82 115 118
f 82 118 119
f 82 119 116
f 83 117 100
f 83 100 84
f 85 92 120
f 85 120 121
f 85 121 122
f 85 122 86
f 86 122 123
f 86 123 87
f 87 123 124
f 87 124 88
f 88 124 93
f 88 93 89
f 89 93 90
f 91 125 126
f 91 126 92
f 92 126 120
f 93 124 127
f 93 127 128
f 93 128 95
f 94 96 129
f 94 129 97
f 95 128 96
f 96 128 130
f 96 130 129
f 97 129 131
f 97 131 99
f 98 99 132
f 98 132 133
f 98 133 134
f 98 134 113
f 99 131 135
f 99 135 136
f 99 136 133
f 99 133 132
f 100 117 137
f 100 137 138
f 100 138 101
f 101 138 139
f 101 139 140
f 101 140 102
f 102 140 104
f 104 140 139
f 104 139 141
f 104 141 105
f 105 141 142
f 106 143 144
f 106 144 125
f 106 125 145
f 107 145 125
f 107 125 108
f 111 113 146
f 111 146 112
f 112 147 115
f 112 146 148
f 112 148 147
f 113 134 146
f 115 149 118
f 115 147 148
f 115 148 150
f 115 150 149
f 116 119 151
f 116 151 152
f 116 152 153
f 116 153 117
f 117 138 137
f 117 153 138
f 118 149 154
f 118 154 155
f 118 155 119
f 119 155 151
f 120 126 156
f 120 156 157
f 120 157 158
f 120 158 121
f 121 158 122
f 122 158 159
f 122 159 123
f 123 159 160
f 123 160 161
f 123 161 162
f 123 162 124
f 124 162 127
f 125 144 126
f 126 144 163
f 126 163 164
f 126 164 165
f 126 165 166
f 126 166 156
f 127 162 128
f 128 167 130
f 128 162 167
f 129 130 168
f 129 168 169
f 129 169 131
f 130 167 168
f 131 169 170
f 131 170 171
f 131 171 135
f 133 136 172
f 133 172 173
f 133 173 134
f 134 174 175
f 134 175 146
f 134 173 176
f 134 176 177
f 134 177 174
f 135 171 172
f 135 172 136
f 138 178 139
f 138 153 179
f 138 179 180
f 138 180 178
f 139 178 141
f 141 178 181
f 141 181 182
f 141 182 142
f 142 182 183
f 143 164 144
f 144 164 163
f 146 184 148
f 146 175 185
f 146 185 184
f 148 186 187
f 148 187 188
f 148 188 150
f 148 184 189
f 148 189 186
f 149 150 190
f 149 190 191
f 149 191 192
f 149 192 193
f 149 193 154
f 150 188 190
f 151 155 152
f 152 155 193
f 152 193 194
f 152 194 195
f 152 195 196
f 152 196 218
f 152 218 179
f 152 179 153
f 154 193 155
f 156 166 197
f 156 197 157
f 157 198 158
f 157 197 199
f 157 199 200
f 157 200 198
f 158 198 159
f 159 198 200
f 159 200 201
f 159 201 160
f 160 201 202
f 160 202 203
f 160 203 167
f 160 167 161
f 161 167 162
f 164 204 205
f 164 205 206
f 164 206 197
f 164 197 165
f 165 197 166
f 167 203 169
f 167 169 168
f 169 203 170
f 170 203 207
f 170 207 171
f 171 207 172
f 172 207 208
f 172 208 173
f 173 209 210
f 173 210 177
f 173 177 176
f 173 208 211
f 173 211 212
f 173 212 213
f 173 213 214
f 173 214 215
f 173 215 209
f 174 185 175
f 174 177 216
f 174 216 185
f 177 210 215
f 177 215 216
f 178 180 217
f 178 217 182
f 178 182 181
f 179 218 180
f 180 218 217
f 182 217 238
f 182 238 219
f 182 219 220
f 182 220 183
f 183 220 221
f 184 185 189
f 185 216 189
f 186 222 223
f 186 223 187
f 186 189 224
f 186 224 222
f 187 223 225
f 187 225 188
f 188 226 227
f 188 227 190
f 188 225 228
f 188 228 226
f 189 216 229
f 189 229 230
f 189 230 231
f 189 231 224
f 190 227 191
f 191 227 226
f 191 226 232
f 191 232 233
f 191 233 234
f 191 234 192
f 192 234 235
f 192 235 193
f 193 235 195
f 193 195 194
f 195 235 236
f 195 236 276
f 195 276 237
f 195 237 219
f 195 219 238
f 195 238 239
f 195 239 196
f 196 239 217
f 196 217 218
f 197 206 240
f 197 240 199
f 199 240 279
f 199 279 241
f 199 241 242
f 199 242 200
f 200 242 243
f 200 243 201
f 201 243 244
f 201 244 202
f 202 207 203
f 202 244 207
f 204 245 205
f 205 245 246
f 205 246 247
f 205 247 206
f 206 247 278
f 206 278 240
f 207 244 208
f 208 244 213
f 208 213 211
f 209 215 210
f 211 213 212
f 213 244 243
f 213 243 248
f 213 248 214
f 214 248 215
f 215 248 249
f 215 249 250
f 215 250 251
f 215 251 252
f 215 252 253
f 215 253 254
f 215 254 216
f 216 254 255
f 216 255 256
f 216 256 257
f 216 257 229
f 217 239 238
f 219 221 220
f 219 237 221
f 221 237 258
f 222 259 260
f 222 260 223
f 222 224 261
f 222 261 259
f 223 260 225
f 224 231 262
f 224 262 261
f 225 260 228
f 226 228 232
f 228 260 263
f 228 263 264
f 228 264 265
f 228 265 266
f 228 266 232
f 229 267 268
f 229 268 269
f 229 269 230
f 229 257 267
f 230 270 271
f 230 271 231
f 230 269 270
f 231 271 272
f 231 272 262
f 232 266 265
f 232 265 302
f 232 302 273
f 232 273 274
f 232 274 233
f 233 274 275
f 233 275 236
f 233 236 234
f 234 236 235
f 236 275 276
f 237 276 277
f 237 277 258
f 240 278 279
f 241 279 314
f 241 314 280
f 241 280 242
f 242 280 281
f 242 281 248
f 242 248 243
f 246 282 283
f 246 283 247
f 247 283 312
f 247 312 278
f 248 281 249
f 249 284 250
f 249 281 280
f 249 280 284
f 250 284 285
f 250 285 286
f 250 286 287
f 250 287 251
f 251 287 252
f 252 287 288
f 252 288 253
f 253 289 290
f 253 290 291
f 253 291 254
f 253 288 289
f 254 291 292
f 254 292 255
f 255 293 256
f 255 292 293
f 256 293 294
f 256 294 295
f 256 295 296
f 256 296 257
f 257 296 297
f 257 297 267
f 259 298 260
f 259 261 262
f 259 262 299
f 259 299 298
f 260 298 300
f 260 300 263
f 262 272 299
f 263 301 264
f 263 300 301
f 264 301 302
f 264 302 265
f 267 297 303
f 267 303 268
f 268 303 304
f 268 304 305
f 268 305 306
f 268 306 307
f 268 307 269
f 269 307 270
f 270 307 271
f 271 307 272
f 272 307 299
f 273 302 308
f 273 308 309
f 273 309 274
f 274 309 310
f 274 310 275
f 275 277 276
f 275 310 311
f 275 311 277
f 278 312 279
f 279 312 313
f 279 313 314
f 280 314 284
f 282 315 316
f 282 316 283
f 283 316 317
f 283 317 312
f 284 316 318
f 284 318 319
f 284 319 320
f 284 320 285
f 284 314 313
f 284 313 321
f 284 321 317
f 284 317 316
f 285 320 322
f 285 322 287
f 285 287 286
f 287 322 288
f 288 322 323
f 288 323 324
f 288 324 325
f 288 325 326
f 288 326 327
f 288 327 328
f 288 328 329
f 288 329 289
f 289 329 290
f 290 330 331
f 290 331 294
f 290 294 292
f 290 292 291
f 290 329 332
f 290 332 330
f 292 294 293
f 294 331 333
f 294 333 334
f 294 334 338
f 294 338 295
f 295 335 336
f 295 336 337
f 295 337 303
f 295 303 296
f 295 338 335
f 296 303 297
f 298 339 300
f 298 299 340
f 298 340 339
f 299 307 341
f 299 341 342
f 299 342 340
f 300 339 301
f 303 337 304
f 304 343 305
f 304 337 336
f 304 336 343
f 305 343 344
f 305 344 306
f 306 345 341
f 306 341 307
f 306 344 345
f 308 311 309
f 309 311 310
f 312 317 321
f 312 321 313
f 315 346 318
f 315 318 316
f 318 346 320
f 318 320 319
f 320 346 347
f 320 347 323
f 320 323 322
f 323 348 324
f 323 347 348
f 324 348 349
f 324 349 350
f 324 350 326
f 324 326 325
f 326 350 327
f 327 351 352
f 327 352 328
f 328 352 353
f 328 353 329
f 329 353 332
f 330 332 353
f 330 353 352
f 330 352 351
f 330 351 331
f 331 351 354
f 331 354 334
f 331 334 333
f 334 354 338
f 335 355 336
f 335 338 355
f 336 355 356
f 336 356 343
f 338 354 357
f 338 357 355
f 339 340 358
f 339 358 359
f 339 359 360
f 340 342 358
f 341 345 361
f 341 361 359
f 341 359 358
f 341 358 342
f 343 356 362
f 343 362 344
f 344 362 363
f 344 363 364
f 344 364 345
f 345 364 361
f 346 349 348
f 346 348 347
f 355 357 356
f 356 365 362
f 359 361 366
f 359 366 360
f 361 364 366
f 362 365 363
f 363 365 364
f 364 365 366

