# https://github.com/mikedh/trimesh
v -20.22985244 -24.58635372 12.98752695
v -4.82043272 -23.91235260 11.81156754
v -4.93750168 -24.58635372 12.98752695
v -20.22985244 -24.58635372 14.15522516
v -20.22985244 27.18502360 12.98752695
v -4.82043272 23.90623706 11.81156754
v 0.03891183 -20.08118984 11.81156754
v -4.93750168 -24.58635372 14.15522516
v -20.22985244 27.18502360 14.15522516
v -4.44938460 27.18502360 12.98752695
v 0.03891183 20.08520904 11.81156754
v 0.03891183 -20.04571584 12.98729748
v -0.04442552 -20.04571584 14.15522516
v -4.44938460 27.18502360 14.15522516
v 0.03891183 20.08520904 11.85859740
v 0.03891183 20.04973504 12.98729748
v -0.04442552 20.04973504 14.15522516
f 1 2 3
f 1 3 8
f 1 8 4
f 1 4 9
f 1 9 5
f 1 5 6
f 1 6 2
f 2 6 11
f 2 11 7
f 2 7 3
f 3 7 8
f 4 8 13
f 4 13 17
f 4 17 14
f 4 14 9
f 5 9 14
f 5 14 10
f 5 10 6
f 6 10 11
f 7 12 8
f 7 11 15
f 7 15 16
f 7 16 12
f 8 12 13
f 10 14 15
f 10 15 11
f 12 16 17
f 12 17 13
f 14 17 16
f 14 16 15

