# https://github.com/mikedh/trimesh
v 27.77467167 20.40335554 11.81156754
v 27.77467167 4.05265360 11.81156754
v 27.77467167 20.40335554 10.53032696
v -25.16555453 20.40335554 11.81156754
v 27.77467167 2.64251488 10.53032696
v 25.23544809 -6.72654090 11.81156754
v -25.16555453 20.40335554 10.53032696
v -25.16555453 4.96618948 11.81156754
v 25.23544809 -6.72654090 10.53032696
v -24.28978169 -6.72654090 11.81156754
v -25.16555453 4.01547449 10.53032696
v -24.28978169 -6.72654090 10.53032696
f 1 2 5
f 1 5 3
f 1 3 7
f 1 7 4
f 1 4 8
f 1 8 10
f 1 10 6
f 1 6 2
f 2 6 5
f 3 5 9
f 3 9 12
f 3 12 11
f 3 11 7
f 4 7 11
f 4 11 8
f 5 6 9
f 6 10 12
f 6 12 9
f 8 11 10
f 10 11 12

