# https://github.com/mikedh/trimesh
v 25.24082443 -6.72766985 10.53032696
v 25.24082443 -6.72766985 11.81201339
v 25.24082443 -4.00245075 10.53032696
v 34.85304808 -6.72766985 10.53032696
v 28.50111013 -21.16651369 11.81201339
v 27.89382314 -20.22598875 14.15575624
v 25.24082443 -4.96182853 11.81201339
v 27.89382314 -20.22598875 16.49266392
v 28.56234139 -21.03035626 18.62262517
v 28.99095690 -18.74083740 20.29575169
v 28.99095690 -18.67799652 20.30746490
v 28.99095690 -17.87362737 20.41679472
v 28.99095690 -17.76889038 20.43045849
v 28.99095690 -16.83674467 20.48707724
v 28.99095690 -15.92135740 20.50074100
v 28.99095690 -15.00387368 20.50269485
v 30.13526803 0.17230841 19.47871208
v 29.98670733 0.17230841 18.79052430
v 28.90362745 0.04243622 10.53032696
v 34.87312412 -6.63131331 10.53032696
v 34.78177881 -7.09424478 11.81201339
v 34.63020867 -7.79597257 11.81201339
v 34.54689180 -8.14997909 11.81201339
v 34.41238498 -8.71345547 11.81201339
v 34.16746324 -9.62884438 11.81201339
v 33.97473788 -10.28867853 11.81201339
v 33.88841158 -10.56727533 11.81201339
v 33.83420890 -10.73694718 11.81201339
v 33.59731561 -11.45333779 11.81201339
v 33.26907700 -12.37082151 11.81201339
v 33.04724073 -12.95734075 11.81201339
v 32.93381309 -13.24012635 11.81201339
v 32.86254710 -13.41398698 11.81201339
v 32.52828633 -14.20369250 11.81201339
v 32.20306044 -14.92636916 11.81201339
v 31.98724633 -15.38511020 11.81201339
v 31.86277753 -15.63647536 11.81201339
v 31.66403001 -16.03447032 11.81201339
v 31.52350103 -16.31097314 11.81201339
v 31.29965520 -16.74457816 11.81201339
v 31.04971444 -17.20122439 11.81201339
v 30.66727316 -17.87153256 11.81201339
v 30.32598710 -18.45386219 11.81201339
v 30.14932191 -18.73664779 11.81201339
v 30.03790056 -18.91051007 11.81201339
v 29.86123538 -19.18491644 11.81201339
v 29.58017742 -19.62061626 11.81201339
v 29.27502757 -20.07935894 11.81201339
v 29.12847316 -20.28882963 11.81201339
v 28.89158314 -20.62188727 12.98827767
v 28.49107211 -21.18117568 12.98827767
v 28.45593905 -21.22725976 14.15575624
v 28.45593905 -21.22516495 12.98827767
v 28.99095690 -6.76327990 20.50269485
v 28.99095690 -5.96100555 20.49586296
v 28.99095690 -5.84579659 20.49390912
v 28.99095690 -5.04561705 20.42264968
v 28.99095690 -4.92831328 20.41093647
v 28.99095690 -4.15745937 20.24303734
v 28.99095690 -4.13860695 20.23522854
v 28.99095690 -3.75946441 19.95214462
v 28.56234139 -21.08062995 17.87391752
v 28.99095690 -20.43126983 18.62262517
v 28.99095690 -20.41870100 18.79052430
v 28.99095690 -20.23646114 19.11948740
v 28.99095690 -19.83637137 19.73251134
v 28.99095690 -19.77981490 19.78717625
v 28.99095690 -19.31897742 20.13370752
v 29.42459142 -18.48947224 20.21765709
v 29.61731678 -17.87362737 20.27720332
v 29.87127339 -17.03155336 20.33186823
v 30.70742523 -15.12117786 20.38262874
v 29.79197567 -16.03656513 20.46169698
v 29.79197567 -15.12117786 20.49390912
v 29.79197567 -14.20369250 20.50269485
v 30.46049392 0.17230841 19.93750393
v 29.97968202 0.17230841 18.62262517
v 35.49245542 0.04243622 10.53032696
v 34.87312412 -6.63550251 11.81201339
v 34.99156749 -5.95891115 10.53032696
v 34.99257391 -5.96310036 11.81201339
v 34.63121181 -7.79597257 12.98827767
v 34.78177881 -7.09424478 12.98827767
v 34.41238498 -8.71555028 16.49266392
v 34.16846639 -9.62884438 12.98827767
v 33.97574103 -10.28867853 12.37623066
v 33.92856365 -10.44368756 12.98827767
v 33.83320248 -10.73694718 17.87391752
v 33.71676540 -11.09304768 16.49266392
v 33.59631246 -11.45752740 17.87391752
v 33.27008342 -12.37082151 12.98827767
v 33.04824715 -12.95734075 12.98827767
v 33.04724073 -12.95943556 16.49266392
v 32.86254710 -13.41398698 14.15575624
v 32.20406359 -14.92636916 12.98827767
v 32.52828633 -14.20369250 14.15575624
v 31.98724633 -15.38511020 17.87391752
v 31.68310290 -15.99886027 14.15575624
v 31.66403001 -16.03656513 14.15575624
v 31.29865205 -16.74667296 14.15575624
v 31.66403001 -16.03656513 15.12605101
v 31.48334896 -16.38847766 16.49266392
v 31.29865205 -16.74667296 15.12605101
v 31.04971444 -17.20122439 14.15575624
v 30.66627001 -17.87362737 17.87391752
v 30.32598710 -18.45386219 12.98827767
v 30.03890699 -18.91260487 16.49266392
v 30.03890699 -18.91260487 14.15575624
v 29.27603072 -20.07935894 16.49266392
v 29.81405800 -19.26032615 16.49266392
v 29.58017742 -19.62061626 16.49266392
v 29.27603072 -20.07935894 17.87391752
v 28.89158314 -20.62188727 14.15575624
v 28.56234139 -21.08272475 16.49266392
v 28.49107211 -21.18117568 14.15575624
v 32.53832435 0.17230841 20.50269485
v 31.62387794 0.17230841 20.46169698
v 30.92022663 0.17230841 20.29282093
v 30.77568179 0.17230841 20.18251747
v 29.25394839 -20.04374725 18.79052430
v 29.46875608 -19.45094359 19.46797252
v 29.22483748 -19.10112751 20.07806897
v 30.23163235 -17.38555906 20.15420973
v 30.38019305 -16.77599860 20.23425162
v 30.69537764 -15.95696581 20.27134836
v 31.48134267 -14.20369250 20.29282093
v 31.70418208 -13.35952533 20.32600999
v 31.62387794 -12.37082151 20.44412553
v 30.70742523 -14.20369250 20.46169698
v 30.70742523 -13.28830523 20.49195528
v 30.70742523 -12.37082151 20.50171793
v 31.62387794 -9.63093919 20.50269485
v 35.46234464 0.17230841 18.62262517
v 35.49446499 -0.00783664 17.87391752
v 35.49346184 -0.00574266 14.15575624
v 35.49245542 -0.46029491 10.53032696
v 35.49245542 0.04243622 11.81201339
v 34.87312412 -6.63550251 12.98827767
v 34.99357706 -5.94634273 10.53032696
v 35.13711875 -5.03095382 10.53032696
v 35.13611233 -5.04561705 11.81201339
v 34.99257391 -5.96310036 12.98827767
v 34.63121181 -7.79597257 16.49266392
v 34.78177881 -7.09214998 16.49266392
v 34.41238498 -8.71555028 17.87391752
v 34.07310849 -9.95771405 16.49266392
v 34.16846639 -9.62884438 14.15575624
v 33.97574103 -10.29077334 16.49266392
v 33.97574103 -10.29077334 17.87391752
v 33.96068400 -10.24469008 18.62262517
v 33.81513601 -10.67829509 18.79052430
v 33.55916983 -11.45333779 18.79052430
v 33.23795980 -12.37082151 18.62262517
v 33.26807385 -12.37082151 17.87391752
v 33.26907700 -12.37291631 16.49266392
v 33.04724073 -12.95524595 17.87391752
v 32.86154067 -13.41398698 17.87391752
v 32.20406359 -14.92636916 14.15575624
v 32.52628004 -14.20159933 17.87391752
v 32.20205730 -14.92636916 16.49266392
v 32.20105415 -14.92427436 17.87391752
v 32.14885777 -14.97664285 18.62262517
v 31.97118616 -15.35159496 18.62262517
v 31.63090324 -16.03656513 18.62262517
v 31.66302687 -16.03656513 17.87391752
v 31.29965520 -16.74248335 17.87391752
v 31.04871130 -17.19912959 17.87391752
v 30.63414967 -17.87362737 18.62262517
v 30.32498395 -18.45176739 17.87391752
v 30.03991013 -18.90841526 17.87391752
v 29.58017742 -19.61852146 17.87391752
v 29.64642769 -19.46560723 18.62262517
v 29.55809509 -19.58710102 18.79052430
v 33.45477706 0.17230841 20.49293220
v 32.53832435 -5.96100555 20.50269485
v 30.27379071 -18.36378885 19.29421842
v 29.75282675 -18.73245818 19.68663216
v 30.41733241 -17.87362737 19.50311542
v 31.22637963 -16.61051554 19.36352730
v 31.17518639 -15.59667570 20.17177790
v 31.27255386 -15.12117786 20.22351533
v 32.17395281 -13.10397056 20.22253841
v 32.30343735 -12.37082151 20.27720332
v 32.53832435 -10.53585489 20.39043754
v 32.53832435 -9.63093919 20.44705302
v 31.62387794 -11.45333779 20.48219591
v 31.62387794 -10.53585489 20.49586296
v 32.53832435 -7.79806738 20.49293220
v 32.53832435 -6.88058366 20.49976736
v 35.45631921 0.17230841 18.79052430
v 35.45631921 -0.46029491 18.79052430
v 35.49346184 -0.46029491 17.87391752
v 35.49346184 -0.46029491 16.49266392
v 35.47137624 -1.32541013 14.15575624
v 35.46936994 -1.37568300 10.53032696
v 34.87312412 -6.63131331 17.87391752
v 35.25656855 -4.11556532 10.53032696
v 35.25556540 -4.13022814 12.98827767
v 35.14314091 -4.99324938 14.15575624
v 35.13611233 -5.04561705 12.98827767
v 35.25556540 -4.12813374 11.81201339
v 34.99156749 -5.96310036 17.87391752
v 34.78077566 -7.09424478 17.87391752
v 34.63020867 -7.79387777 17.87391752
v 34.59407246 -7.79806738 18.79052430
v 34.37424248 -8.71555028 18.79052430
v 34.13634604 -9.63093919 18.62262517
v 34.16646009 -9.63093919 17.87391752
v 33.95566499 -10.22793164 18.79052430
v 34.12831759 -9.63093919 18.79052430
v 33.92956680 -10.13995392 19.28543270
v 33.00508237 -12.84841580 19.26591069
v 33.22993135 -12.37082151 18.79052430
v 33.03218698 -12.91963590 18.62262517
v 32.49516284 -14.20369250 18.62262517
v 32.84548050 -13.37628213 18.62262517
v 32.18398755 -14.88447470 18.79052430
v 31.96817672 -15.34112257 18.79052430
v 31.62287479 -16.03656513 18.79052430
v 31.27857601 -16.70477850 18.79052430
v 31.23742079 -16.79485184 18.62262517
v 31.02963841 -17.16142637 18.79052430
v 30.62511479 -17.87362737 18.79052430
v 30.30490791 -18.41615734 18.79052430
v 30.37015503 -18.31980122 18.62262517
v 30.25672739 -18.50832385 18.62262517
v 30.01682138 -18.87489838 18.79052430
v 34.37122976 0.17230841 20.33674955
v 33.45477706 -0.46029491 20.49293220
v 33.45477706 -2.29526152 20.48902780
v 32.13681018 -14.78392896 19.35961962
v 31.33780098 -15.95696581 19.68467832
v 32.06253147 -13.71353102 20.15420973
v 33.02315211 -11.08676327 20.18446803
v 33.09542453 -10.53585489 20.22839665
v 32.56944155 -11.41353813 20.29575169
v 33.21487432 -9.63093919 20.27915716
v 33.35440015 -8.71555028 20.30941546
v 33.45477706 -6.88058366 20.40312767
v 33.45477706 -5.96100555 20.44022113
v 32.53832435 -8.71555028 20.47731459
v 33.45477706 -5.04561705 20.46169698
v 33.45477706 -4.12813374 20.47536075
v 33.45477706 -3.21483922 20.48317283
v 35.14012819 0.17230841 19.70713109
v 35.14012819 -0.46029491 19.70713109
v 35.43022102 -1.37777780 18.79052430
v 35.43825274 -1.37568300 18.62262517
v 35.46836680 -1.37568300 17.87391752
v 35.46936994 -1.37777780 14.15575624
v 35.46936994 -1.37777780 11.81201339
v 35.42219257 -2.29526152 12.98827767
v 35.42118942 -2.28269351 10.53032696
v 34.76672178 -7.01883507 18.62262517
v 34.85806709 -6.55799841 18.62262517
v 35.34992015 -3.21065043 10.53032696
v 35.25556540 -4.13022814 14.15575624
v 35.25455898 -4.12813374 17.87391752
v 35.13410604 -5.04771185 17.87391752
v 34.98956120 -5.79342892 18.62262517
v 34.96245986 -5.96310036 18.62262517
v 34.76270592 -7.00207663 18.79052430
v 34.83397519 -6.43859984 19.25712496
v 33.22189963 -11.41353813 19.74715203
v 33.09341496 -12.37082151 19.42697465
v 34.00183922 -9.63093919 19.42209333
v 33.02917426 -12.90497226 18.79052430
v 32.26429170 -14.20369250 19.55289900
v 32.48713112 -14.20369250 18.79052430
v 32.84247106 -13.36371412 18.79052430
v 34.84401321 0.17230841 20.17763615
v 34.37122976 -0.46029491 20.33674955
v 32.89667374 -11.69632455 20.07904589
v 33.81413287 -8.71555028 20.07611513
v 33.89945274 -8.21072516 20.15713722
v 33.96168714 -7.60535431 20.20008892
v 34.02191525 -6.88058366 20.23718238
v 34.09619397 -5.96100555 20.27232200
v 34.16344738 -5.04561705 20.29282093
v 34.22668492 -4.12813374 20.30551106
v 34.29092890 -3.21483922 20.31429678
v 34.34312528 -2.29526152 20.32015502
v 34.84401321 -0.46029491 20.17763615
v 34.83799106 -1.15573828 20.17080426
v 35.05982732 -1.42805149 19.79693562
v 35.08893495 -2.29526152 19.68858272
v 35.38505321 -2.29526152 18.79052430
v 35.42018300 -2.29526152 17.87391752
v 35.42219257 -2.29526152 14.15575624
v 35.35092330 -3.19808160 10.53032696
v 35.36999619 -2.95509567 10.53423136
v 35.42118942 -2.29316672 11.45864695
v 34.95543456 -5.96100555 18.79052430
v 34.85304808 -6.54333518 18.79052430
v 35.34992015 -3.21065043 14.15575624
v 35.34891700 -3.21483922 17.87391752
v 35.31980610 -3.21483922 18.62262517
v 35.24050837 -3.96055670 18.62262517
v 35.21541333 -4.12813374 18.79052430
v 35.09897297 -5.04561705 18.79052430
v 35.10600155 -5.04561705 18.62262517
v 34.87613356 -5.96100555 19.34497893
v 34.12530487 -8.71555028 19.61732328
v 34.46056878 -1.42805149 20.29575169
v 34.94639969 -5.04561705 19.48359340
v 34.62017065 -5.04561705 19.94140834
v 34.68541449 -4.12813374 20.03707111
v 34.74965846 -3.21483922 20.10442615
v 34.80085170 -2.29526152 20.14640093
v 34.82393717 -1.76739437 20.16299546
v 35.05380189 -3.21483922 19.64661121
v 35.00461822 -4.12813374 19.57827926
v 35.31177437 -3.21483922 18.79052430
v 35.38605636 -2.74771896 16.49266392
f 1 2 7
f 1 7 3
f 1 3 19
f 1 19 78
f 1 78 136
f 1 136 195
f 1 195 253
f 1 253 290
f 1 290 256
f 1 256 197
f 1 197 140
f 1 140 139
f 1 139 80
f 1 80 20
f 1 20 4
f 1 4 5
f 1 5 6
f 1 6 8
f 1 8 2
f 2 8 9
f 2 9 10
f 2 10 11
f 2 11 12
f 2 12 13
f 2 13 14
f 2 14 15
f 2 15 16
f 2 16 54
f 2 54 7
f 3 17 18
f 3 18 19
f 3 7 17
f 4 20 21
f 4 21 22
f 4 22 23
f 4 23 24
f 4 24 25
f 4 25 26
f 4 26 27
f 4 27 28
f 4 28 29
f 4 29 30
f 4 30 31
f 4 31 32
f 4 32 33
f 4 33 34
f 4 34 35
f 4 35 36
f 4 36 37
f 4 37 38
f 4 38 39
f 4 39 40
f 4 40 41
f 4 41 42
f 4 42 43
f 4 43 44
f 4 44 45
f 4 45 46
f 4 46 47
f 4 47 48
f 4 48 49
f 4 49 5
f 5 49 50
f 5 50 51
f 5 51 52
f 5 52 53
f 5 53 6
f 6 53 52
f 6 52 8
f 7 54 55
f 7 55 56
f 7 56 57
f 7 57 58
f 7 58 59
f 7 59 60
f 7 60 61
f 7 61 17
f 8 52 9
f 9 52 62
f 9 62 63
f 9 63 64
f 9 64 65
f 9 65 66
f 9 66 67
f 9 67 68
f 9 68 10
f 10 68 69
f 10 69 70
f 10 70 11
f 11 70 12
f 12 70 71
f 12 71 13
f 13 71 72
f 13 72 73
f 13 73 14
f 14 73 74
f 14 74 15
f 15 74 75
f 15 75 16
f 16 75 132
f 16 132 175
f 16 175 116
f 16 116 54
f 17 61 60
f 17 60 76
f 17 76 119
f 17 119 118
f 17 118 117
f 17 117 116
f 17 116 174
f 17 174 228
f 17 228 271
f 17 271 245
f 17 245 190
f 17 190 133
f 17 133 77
f 17 77 18
f 18 77 19
f 19 77 133
f 19 133 78
f 20 79 21
f 20 80 81
f 20 81 79
f 21 82 22
f 21 79 138
f 21 138 83
f 21 83 143
f 21 143 82
f 22 82 23
f 23 82 84
f 23 84 24
f 24 84 85
f 24 85 25
f 25 85 86
f 25 86 26
f 26 86 27
f 27 87 28
f 27 86 87
f 28 87 88
f 28 88 89
f 28 89 29
f 29 90 91
f 29 91 30
f 29 89 90
f 30 91 92
f 30 92 31
f 31 92 32
f 32 92 93
f 32 93 94
f 32 94 33
f 33 94 96
f 33 96 34
f 34 95 35
f 34 96 158
f 34 158 95
f 35 95 36
f 36 97 37
f 36 95 158
f 36 158 97
f 37 98 38
f 37 97 98
f 38 98 99
f 38 99 39
f 39 100 40
f 39 99 101
f 39 101 102
f 39 102 103
f 39 103 100
f 40 100 41
f 41 104 105
f 41 105 42
f 41 100 103
f 41 103 104
f 42 105 43
f 43 105 106
f 43 106 44
f 44 107 108
f 44 108 45
f 44 106 107
f 45 108 46
f 46 108 47
f 47 109 48
f 47 108 110
f 47 110 111
f 47 111 112
f 47 112 109
f 48 109 49
f 49 109 112
f 49 112 113
f 49 113 50
f 50 113 114
f 50 114 51
f 51 115 52
f 51 114 115
f 52 115 62
f 54 116 55
f 55 116 56
f 56 116 117
f 56 117 57
f 57 117 58
f 58 117 118
f 58 118 59
f 59 118 119
f 59 119 76
f 59 76 60
f 62 115 114
f 62 114 112
f 62 112 63
f 63 112 120
f 63 120 64
f 64 120 121
f 64 121 65
f 65 121 66
f 66 121 67
f 67 121 122
f 67 122 68
f 68 122 69
f 69 123 124
f 69 124 70
f 69 122 123
f 70 124 125
f 70 125 71
f 71 125 72
f 72 126 127
f 72 127 128
f 72 128 129
f 72 129 73
f 72 125 126
f 73 129 74
f 74 129 130
f 74 130 131
f 74 131 75
f 75 131 132
f 78 134 135
f 78 135 136
f 78 133 137
f 78 137 134
f 79 81 142
f 79 142 138
f 80 139 81
f 81 139 140
f 81 140 141
f 81 141 200
f 81 200 142
f 82 143 145
f 82 145 84
f 83 144 143
f 83 138 144
f 84 145 147
f 84 147 85
f 85 146 86
f 85 147 146
f 86 148 87
f 86 146 148
f 87 148 149
f 87 149 88
f 88 149 150
f 88 150 151
f 88 151 90
f 88 90 89
f 90 152 153
f 90 153 154
f 90 154 155
f 90 155 91
f 90 151 152
f 91 155 93
f 91 93 92
f 93 155 156
f 93 156 157
f 93 157 94
f 94 157 96
f 96 157 159
f 96 159 158
f 97 158 160
f 97 160 161
f 97 161 162
f 97 162 163
f 97 163 164
f 97 164 165
f 97 165 101
f 97 101 98
f 98 101 99
f 101 165 102
f 102 165 166
f 102 166 103
f 103 166 104
f 104 166 167
f 104 167 105
f 105 167 168
f 105 168 169
f 105 169 106
f 106 169 107
f 107 169 170
f 107 170 110
f 107 110 108
f 110 170 171
f 110 171 111
f 111 171 112
f 112 114 113
f 112 171 172
f 112 172 173
f 112 173 120
f 116 175 229
f 116 229 174
f 120 173 176
f 120 176 121
f 121 176 177
f 121 177 122
f 122 177 123
f 123 177 176
f 123 176 178
f 123 178 179
f 123 179 180
f 123 180 124
f 124 180 181
f 124 181 125
f 125 181 126
f 126 182 183
f 126 183 127
f 126 181 182
f 127 183 128
f 128 183 184
f 128 184 185
f 128 185 186
f 128 186 129
f 129 186 130
f 130 186 187
f 130 187 131
f 131 187 132
f 132 187 188
f 132 188 189
f 132 189 175
f 133 190 134
f 133 134 137
f 134 191 192
f 134 192 193
f 134 193 136
f 134 136 135
f 134 190 191
f 136 193 194
f 136 194 195
f 138 142 196
f 138 196 144
f 140 197 141
f 141 198 199
f 141 199 200
f 141 197 201
f 141 201 198
f 142 200 202
f 142 202 196
f 143 144 203
f 143 203 204
f 143 204 145
f 144 196 203
f 145 205 206
f 145 206 207
f 145 207 208
f 145 208 147
f 145 204 205
f 146 149 148
f 146 147 208
f 146 208 149
f 149 208 150
f 150 209 151
f 150 208 207
f 150 207 210
f 150 210 209
f 151 209 211
f 151 211 152
f 152 212 213
f 152 213 153
f 152 211 212
f 153 213 214
f 153 214 154
f 154 214 156
f 154 156 155
f 156 214 157
f 157 215 159
f 157 214 216
f 157 216 215
f 158 159 160
f 159 215 217
f 159 217 161
f 159 161 160
f 161 217 162
f 162 217 218
f 162 218 163
f 163 218 219
f 163 219 164
f 164 219 220
f 164 220 166
f 164 166 165
f 166 220 221
f 166 221 222
f 166 222 167
f 167 222 168
f 168 223 224
f 168 224 225
f 168 225 169
f 168 222 223
f 169 225 224
f 169 224 226
f 169 226 170
f 170 227 172
f 170 172 171
f 170 226 227
f 172 227 173
f 173 227 176
f 174 229 272
f 174 272 228
f 175 189 230
f 175 230 229
f 176 224 223
f 176 223 222
f 176 222 179
f 176 179 178
f 176 227 224
f 179 222 220
f 179 220 219
f 179 219 231
f 179 231 232
f 179 232 180
f 180 232 231
f 180 231 233
f 180 233 181
f 181 233 182
f 182 233 234
f 182 234 183
f 183 234 235
f 183 235 236
f 183 236 184
f 184 235 237
f 184 237 238
f 184 238 239
f 184 239 185
f 184 236 235
f 185 239 240
f 185 240 241
f 185 241 186
f 186 241 188
f 186 188 187
f 188 241 242
f 188 242 243
f 188 243 244
f 188 244 189
f 189 244 230
f 190 245 246
f 190 246 191
f 191 246 247
f 191 247 248
f 191 248 192
f 192 248 249
f 192 249 194
f 192 194 193
f 194 249 250
f 194 250 251
f 194 251 195
f 195 251 252
f 195 252 253
f 196 254 203
f 196 202 255
f 196 255 254
f 197 256 201
f 198 257 199
f 198 201 256
f 198 256 295
f 198 295 257
f 199 257 258
f 199 258 259
f 199 259 200
f 200 259 202
f 202 259 260
f 202 260 261
f 202 261 255
f 203 254 205
f 203 205 204
f 205 254 262
f 205 262 263
f 205 263 206
f 206 210 207
f 206 263 211
f 206 211 210
f 209 210 211
f 211 264 265
f 211 265 212
f 211 263 266
f 211 266 264
f 212 267 213
f 212 265 268
f 212 268 231
f 212 231 269
f 212 269 270
f 212 270 267
f 213 267 214
f 214 267 270
f 214 270 216
f 215 216 269
f 215 269 217
f 216 270 269
f 217 231 218
f 217 269 231
f 218 231 219
f 220 222 221
f 224 227 226
f 228 272 283
f 228 283 271
f 229 230 272
f 230 244 272
f 231 268 233
f 233 268 265
f 233 265 273
f 233 273 234
f 234 273 264
f 234 264 266
f 234 266 274
f 234 274 275
f 234 275 235
f 235 275 276
f 235 276 237
f 237 276 238
f 238 276 277
f 238 277 239
f 239 277 278
f 239 278 279
f 239 279 240
f 240 279 280
f 240 280 281
f 240 281 242
f 240 242 241
f 242 281 282
f 242 282 243
f 243 282 272
f 243 272 244
f 245 271 283
f 245 283 246
f 246 283 284
f 246 284 285
f 246 285 286
f 246 286 247
f 247 286 287
f 247 287 248
f 248 287 249
f 249 287 288
f 249 288 289
f 249 289 250
f 250 289 252
f 250 252 251
f 252 289 290
f 252 290 291
f 252 291 292
f 252 292 253
f 253 292 291
f 253 291 290
f 254 255 262
f 255 261 293
f 255 293 294
f 255 294 262
f 256 290 295
f 257 295 296
f 257 296 258
f 258 296 297
f 258 297 298
f 258 298 299
f 258 299 300
f 258 300 301
f 258 301 259
f 259 301 260
f 260 293 261
f 260 301 300
f 260 300 293
f 262 294 263
f 263 294 293
f 263 293 300
f 263 300 299
f 263 299 302
f 263 302 275
f 263 275 303
f 263 303 266
f 264 273 265
f 266 303 274
f 272 282 304
f 272 304 283
f 274 303 275
f 275 302 305
f 275 305 306
f 275 306 276
f 276 306 307
f 276 307 308
f 276 308 277
f 277 308 278
f 278 308 309
f 278 309 279
f 279 309 310
f 279 310 280
f 280 310 281
f 281 310 282
f 282 310 284
f 282 284 304
f 283 304 284
f 284 310 285
f 285 310 286
f 286 310 309
f 286 309 311
f 286 311 287
f 287 311 312
f 287 312 313
f 287 313 297
f 287 297 296
f 287 296 288
f 288 296 314
f 288 314 289
f 289 314 295
f 289 295 290
f 295 314 296
f 297 313 299
f 297 299 298
f 299 313 305
f 299 305 302
f 305 312 307
f 305 307 306
f 305 313 312
f 307 312 308
f 308 311 309
f 308 312 311

