# https://github.com/mikedh/trimesh
v 44.02392581 8.03615548 107.83901303
v 26.47319868 7.76083644 108.51550347
v 33.39519113 7.79859491 108.80655174
v 36.22462481 7.81432724 108.85374873
v 42.07180068 7.84579189 108.94184981
v 44.02392581 7.85523187 108.97174120
v 45.06199658 7.84107227 108.92926384
v 45.17681926 7.92288154 107.83901303
v 45.17681926 7.92288154 105.88977656
v 44.02392581 8.03458203 105.88977656
v 11.45793289 7.80331453 106.83214352
v 11.45793289 7.80331453 106.89821933
v 12.82671601 7.81118033 106.95642898
v 18.67848873 7.84264572 107.20814636
v 1.12776160 7.57047359 107.83901303
v -0.85192144 7.54844818 107.83901303
v -0.85192144 7.01197045 109.78824942
v 38.17214727 7.43989388 109.85904490
v 42.07180068 7.45877311 109.91725477
v 44.02392581 7.46349273 109.94714598
v 44.02392581 6.48965159 111.63994556
v 45.35596311 6.27568988 111.35204365
v 45.46619475 6.88453691 109.66239078
v 45.71422756 6.82475377 107.83901303
v 45.06199658 7.84107227 104.79952575
v 45.71422756 6.82475377 105.88977656
v 45.46619475 6.88453691 104.06639880
v 44.02392581 7.85523187 104.75862166
v 38.17214727 7.82376649 104.84986910
v 34.80531693 7.80488726 104.90178589
v 33.50542858 7.79702146 104.93325055
v 42.07180068 8.01412934 105.88977656
v 12.82671601 7.81118033 106.77550711
v -0.85192144 7.54058165 105.88977656
v -0.85192144 6.22534599 111.27810162
v 38.17214727 6.46605274 111.59746820
v 42.07180068 6.48335852 111.62578632
v 44.02392581 5.75022449 112.61535034
v 45.35596311 4.48690580 113.14081029
v 45.64073592 5.03124970 111.89638246
v 46.07250363 4.87392495 109.78824942
v 44.02392581 6.48807814 102.09041730
v 44.02392581 7.46349273 103.78321688
v 45.35596311 6.27568988 102.37831921
v 46.07250363 4.87392495 103.94054017
v 42.07180068 7.45719966 103.81310808
v 40.12427241 7.44618695 103.84457292
v -0.85192144 6.98679814 103.94054017
v 32.32497141 7.79072838 104.98359408
v -0.85192144 5.39152382 112.25350641
v 36.22462481 5.69201443 112.55714065
v 38.17214727 5.70774676 112.57287298
v 42.07180068 5.73606525 112.60119110
v -0.85192144 4.41610959 113.09518675
v 1.12776160 4.43184192 113.10777218
v 38.17214727 4.73390599 113.33117169
v 42.07180068 4.76222447 113.34847747
v 44.02392581 4.77481026 113.35319710
v 45.46619475 2.79880968 113.74965151
v 46.07250363 2.92466959 111.73905916
v 45.06199658 2.06410257 114.70460470
v 44.02392581 5.74865140 101.11501251
v 42.07180068 6.48178507 102.10457654
v 40.12427241 6.47077236 102.12188195
v 38.17214727 6.45818621 102.13761428
v 8.92706260 6.27097026 102.39405154
v -0.82436353 6.20804021 102.47900627
v 45.64073592 5.03124970 101.83240695
v 45.35596311 4.48690580 100.58797912
v 46.07250363 2.92466959 101.98973061
v -0.85192144 6.21905291 102.49945822
v -0.85192144 4.39565727 113.10619946
v 42.07180068 3.05524930 114.32230844
v 44.02392581 3.08199434 114.32860152
v 45.71422756 0.97384105 113.68829564
v 45.17681926 0.97384105 114.78641252
v 46.07250363 -2.92466959 111.73905916
v 44.02392581 2.10815356 114.72033703
v 44.02392581 0.97384105 114.89968573
v 42.07180068 5.73449216 101.13074484
v 44.02392581 4.77481026 100.37559303
v 42.07180068 4.75907793 100.38345884
v 40.12427241 4.74334524 100.39289809
v -0.85192144 4.38149803 100.66192114
v 5.02740920 5.40882960 101.45325796
v -0.85192144 5.36792496 101.51776036
v -0.85192144 6.20804021 102.48057935
v 40.12427241 5.71875947 101.14647717
v 45.46619475 2.79880968 99.97913790
v 45.06199658 2.06410257 99.02418544
v 46.07250363 -2.92466959 101.98973061
v 45.71422756 0.97384105 100.04049377
v -0.85192144 2.92466959 113.69301527
v 3.07528988 2.92466959 113.93214711
v 5.02740920 2.92466959 113.96046487
v 38.17214727 2.99861234 114.30500339
v 45.71422756 -0.97384105 113.68829564
v 45.17681926 -0.97384105 114.78641252
v 45.46619475 -2.79880968 113.74965151
v 45.35596311 -4.48690580 113.14081029
v 45.64073592 -5.03124970 111.89638246
v 46.07250363 -4.87392495 109.78824942
v 42.07180068 2.07983508 114.71089778
v 44.02392581 -0.97384105 114.89968573
v 33.22524101 1.95082863 114.66527351
v 42.07180068 0.97384105 114.88080650
v 10.87918192 0.09439493 114.67628621
v 9.43690717 0.03618472 114.66842041
v 44.02392581 3.08042125 99.40018789
v 5.02740920 2.92466959 99.81866843
v 3.07528988 2.92466959 99.85170581
v -0.85192144 2.92466959 100.08926420
v -0.85192144 5.35691226 101.50517457
v 42.07180068 3.04895623 99.40805442
v 45.17681926 0.97384105 98.94237689
v 44.02392581 0.97384105 98.83067713
v 44.02392581 2.10658029 99.00845311
v 46.07250363 -4.87392495 103.94054017
v 45.64073592 -5.03124970 101.83240695
v 45.35596311 -4.48690580 100.58797912
v 45.46619475 -2.79880968 99.97913790
v 45.71422756 -0.97384105 100.04049377
v -0.85192144 2.89792438 113.69773489
v 3.07528988 0.97384105 114.40726317
v 5.02740920 0.97384105 114.50165714
v 6.97953433 2.92466959 113.98249027
v 45.06199658 -2.06410257 114.70460470
v 45.35596311 -6.27568988 111.35204365
v 44.02392581 -4.77481026 113.35319710
v 44.02392581 -5.75022449 112.61535034
v 45.46619475 -6.88453691 109.66239078
v 45.71422756 -6.82475377 107.83901303
v 42.07180068 -0.97384105 114.88080650
v 33.22524101 -1.95082863 114.66527351
v 42.07180068 -2.07983508 114.71089778
v 44.02392581 -2.10815356 114.72033703
v 9.43690717 -0.03618472 114.66842041
v 10.87918192 -0.09439493 114.67628621
v 5.02740920 0.97384105 99.27747543
v 40.12427241 3.01749139 99.41906712
v 36.22462481 1.97914712 99.05407664
v 34.95230019 1.95869480 99.06194244
v 33.65241185 1.91779034 99.06980897
v 3.07528988 0.97384105 99.38602901
v -0.85192144 -2.89792438 100.08454458
v 45.17681926 -0.97384105 98.94237689
v 42.07180068 0.97384105 98.85270254
v 44.02392581 -0.97384105 98.83067713
v 13.38708535 0.03618472 99.06036972
v 45.71422756 -6.82475377 105.88977656
v 45.46619475 -6.88453691 104.06639880
v 45.35596311 -6.27568988 102.37831921
v 44.02392581 -5.74865140 101.11501251
v 44.02392581 -4.77481026 100.37559303
v 45.06199658 -2.06410257 99.02418544
v -0.85192144 -2.92466959 113.69301527
v 3.07528988 -0.97384105 114.40726317
v 5.02740920 -0.97384105 114.50165714
v 44.02392581 -3.08199434 114.32860152
v 44.02392581 -6.48965159 111.63994556
v 45.06199658 -7.84107227 108.92926384
v 42.07180068 -4.76222447 113.34847747
v 42.07180068 -5.73606525 112.60119110
v -0.85192144 -6.22534599 111.27810162
v 38.17214727 -6.46605274 111.59746820
v 42.07180068 -6.48335852 111.62578632
v 38.17214727 -4.73390599 113.33117169
v 1.12776160 -4.43184192 113.10777218
v -0.85192144 -4.43026884 113.08417405
v 45.17681926 -7.92288154 107.83901303
v 38.17214727 -2.99861234 114.30500339
v 3.07528988 -2.92466959 113.93214711
v 5.02740920 -2.92466959 113.96046487
v 42.07180068 -3.05524930 114.32230844
v 5.02740920 -0.97384105 99.27747543
v 28.42072695 1.68494958 99.09970018
v 38.17214727 0.97384105 98.89675335
v 3.07528988 -0.97384105 99.38602901
v -0.85192144 -2.92466959 100.09083766
v 44.02392581 -2.10658029 99.00845311
v 36.22462481 -1.97914712 99.05407664
v 34.95230019 -1.95869480 99.06194244
v 33.65241185 -1.91779034 99.06980897
v 42.07180068 -0.97384105 98.85270254
v 13.38708535 -0.03618472 99.06036972
v 45.17681926 -7.92288154 105.88977656
v 45.06199658 -7.84107227 104.79952575
v 44.02392581 -6.48807814 102.09041730
v 42.07180068 -5.73449216 101.13074484
v -0.85192144 -4.38149803 100.66192114
v 40.12427241 -4.74334524 100.39289809
v 42.07180068 -4.75907793 100.38345884
v 42.07180068 -6.48178507 102.10457654
v 40.12427241 -6.47077236 102.12188195
v 38.17214727 -6.45818621 102.13761428
v 8.92706260 -6.27097026 102.39405154
v -0.82436353 -6.20804021 102.47900627
v 44.02392581 -3.08042125 99.40018789
v -0.85192144 -4.41610959 113.09518675
v 44.02392581 -7.46349273 109.94714598
v 44.02392581 -7.85523187 108.97174120
v 44.02392581 -8.03615548 107.83901303
v 38.17214727 -5.70774676 112.57287298
v -0.85192144 -5.39152382 112.25350641
v -0.85192144 -6.23635869 111.25764967
v 42.07180068 -7.45877311 109.91725477
v 36.22462481 -5.69201443 112.55714065
v 5.02740920 -2.92466959 99.81866843
v 3.07528988 -2.92466959 99.85170581
v 28.42072695 -1.68494958 99.09970018
v -0.85192144 -4.36104571 100.65248189
v 42.07180068 -3.04895623 99.40805442
v 40.12427241 -3.01749139 99.41906712
v 38.17214727 -0.97384105 98.89675335
v 44.02392581 -8.03458203 105.88977656
v 44.02392581 -7.85523187 104.75862166
v 44.02392581 -7.46349273 103.78321688
v 40.12427241 -5.71875947 101.14647717
v 5.02740920 -5.40882960 101.45325796
v -0.85192144 -5.34275302 101.49258878
v -0.85192144 -6.98679814 103.94054017
v -0.85192144 -6.20804021 102.48057935
v -0.85192144 -6.19702751 102.46642011
v 42.07180068 -7.45719966 103.81310808
v 38.17214727 -7.43989388 109.85904490
v 42.07180068 -7.84579189 108.94184981
v 36.22462481 -7.81432724 108.85374873
v 33.39519113 -7.79859491 108.80655174
v 26.47319868 -7.76083644 108.51550347
v 18.67848873 -7.84264572 107.20814636
v 12.82671601 -7.81118033 106.95642898
v 11.45793289 -7.80331453 106.89821933
v 11.45793289 -7.80331453 106.83214352
v -0.85192144 -7.01197045 109.78824942
v 42.07180068 -8.01412934 105.88977656
v 33.50542858 -7.79702146 104.93325055
v 34.80531693 -7.80488726 104.90178589
v 38.17214727 -7.82376649 104.84986910
v 12.82671601 -7.81118033 106.77550711
v -0.85192144 -5.35691226 101.50517457
v -0.85192144 -7.54058165 105.88977656
v 40.12427241 -7.44618695 103.84457292
v -0.85192144 -7.54844818 107.83901303
v 1.12776160 -7.57047359 107.83901303
v -0.85192144 -7.54844818 107.81226809
v 32.32497141 -7.79072838 104.98359408
f 1 2 3
f 1 3 4
f 1 4 5
f 1 5 6
f 1 6 7
f 1 7 8
f 1 8 9
f 1 9 10
f 1 10 11
f 1 11 12
f 1 12 13
f 1 13 14
f 1 14 2
f 2 14 13
f 2 13 15
f 2 15 3
f 3 15 16
f 3 16 17
f 3 17 4
f 4 18 5
f 4 17 18
f 5 18 6
f 6 18 19
f 6 19 20
f 6 20 7
f 7 20 21
f 7 21 22
f 7 22 23
f 7 23 8
f 8 23 24
f 8 24 26
f 8 26 9
f 9 25 10
f 9 26 27
f 9 27 25
f 10 25 28
f 10 28 29
f 10 29 30
f 10 30 31
f 10 31 32
f 10 32 33
f 10 33 11
f 11 33 34
f 11 34 16
f 11 16 12
f 12 16 15
f 12 15 13
f 16 34 48
f 16 48 71
f 16 71 87
f 16 87 86
f 16 86 113
f 16 113 84
f 16 84 112
f 16 112 145
f 16 145 179
f 16 179 211
f 16 211 190
f 16 190 220
f 16 220 240
f 16 240 223
f 16 223 222
f 16 222 221
f 16 221 241
f 16 241 245
f 16 245 243
f 16 243 234
f 16 234 205
f 16 205 164
f 16 164 204
f 16 204 169
f 16 169 199
f 16 199 156
f 16 156 123
f 16 123 93
f 16 93 72
f 16 72 54
f 16 54 50
f 16 50 35
f 16 35 17
f 17 35 19
f 17 19 18
f 19 35 20
f 20 36 37
f 20 37 21
f 20 35 36
f 21 37 38
f 21 38 22
f 22 39 40
f 22 40 41
f 22 41 23
f 22 38 39
f 23 41 24
f 24 41 45
f 24 45 26
f 25 42 43
f 25 43 28
f 25 27 44
f 25 44 42
f 26 45 27
f 27 45 44
f 28 43 46
f 28 46 29
f 29 46 30
f 30 46 47
f 30 47 48
f 30 48 31
f 31 49 32
f 31 48 34
f 31 34 49
f 32 49 33
f 33 49 34
f 35 50 51
f 35 51 52
f 35 52 53
f 35 53 38
f 35 38 36
f 36 38 37
f 38 53 54
f 38 54 55
f 38 55 56
f 38 56 57
f 38 57 58
f 38 58 39
f 39 59 60
f 39 60 40
f 39 58 61
f 39 61 59
f 40 60 41
f 41 60 77
f 41 77 102
f 41 102 118
f 41 118 91
f 41 91 70
f 41 70 45
f 42 44 62
f 42 62 63
f 42 63 43
f 43 63 64
f 43 64 65
f 43 65 66
f 43 66 67
f 43 67 46
f 44 45 68
f 44 68 69
f 44 69 62
f 45 70 68
f 46 67 71
f 46 71 48
f 46 48 47
f 50 54 51
f 51 54 52
f 52 54 53
f 54 72 73
f 54 73 74
f 54 74 55
f 55 74 56
f 56 74 57
f 57 74 58
f 58 74 61
f 59 75 60
f 59 61 76
f 59 76 75
f 60 75 97
f 60 97 77
f 61 74 78
f 61 78 79
f 61 79 76
f 62 80 67
f 62 67 66
f 62 66 65
f 62 65 64
f 62 64 63
f 62 69 81
f 62 81 82
f 62 82 83
f 62 83 84
f 62 84 80
f 67 85 86
f 67 86 87
f 67 87 71
f 67 80 88
f 67 88 85
f 68 70 69
f 69 70 89
f 69 89 90
f 69 90 81
f 70 91 122
f 70 122 92
f 70 92 89
f 72 93 94
f 72 94 95
f 72 95 73
f 73 96 78
f 73 78 74
f 73 95 96
f 75 76 98
f 75 98 97
f 76 79 104
f 76 104 98
f 77 97 99
f 77 99 100
f 77 100 101
f 77 101 102
f 78 96 103
f 78 103 79
f 79 103 105
f 79 105 106
f 79 106 107
f 79 107 108
f 79 108 137
f 79 137 104
f 80 84 88
f 81 90 109
f 81 109 82
f 82 109 83
f 83 109 84
f 84 110 111
f 84 111 112
f 84 113 85
f 84 85 88
f 84 109 114
f 84 114 110
f 85 113 86
f 89 92 115
f 89 115 90
f 90 115 116
f 90 116 117
f 90 117 109
f 91 118 119
f 91 119 120
f 91 120 121
f 91 121 122
f 92 122 146
f 92 146 115
f 93 123 124
f 93 124 94
f 94 124 125
f 94 125 105
f 94 105 95
f 95 126 96
f 95 105 126
f 96 105 103
f 96 126 105
f 97 98 99
f 98 104 127
f 98 127 99
f 99 127 100
f 100 128 101
f 100 127 129
f 100 129 130
f 100 130 128
f 101 128 102
f 102 128 131
f 102 131 132
f 102 132 150
f 102 150 118
f 104 133 134
f 104 134 135
f 104 135 136
f 104 136 127
f 104 137 138
f 104 138 133
f 105 125 107
f 105 107 106
f 107 125 108
f 108 125 158
f 108 158 137
f 109 117 114
f 110 139 111
f 110 114 140
f 110 140 141
f 110 141 142
f 110 142 143
f 110 143 139
f 111 139 144
f 111 144 112
f 112 144 145
f 114 117 140
f 115 146 148
f 115 148 116
f 116 147 143
f 116 143 142
f 116 142 141
f 116 141 117
f 116 148 185
f 116 185 149
f 116 149 147
f 117 141 140
f 118 150 151
f 118 151 152
f 118 152 119
f 119 152 120
f 120 152 153
f 120 153 154
f 120 154 155
f 120 155 121
f 121 155 146
f 121 146 122
f 123 156 157
f 123 157 124
f 124 157 158
f 124 158 125
f 127 136 159
f 127 159 129
f 128 130 160
f 128 160 161
f 128 161 131
f 129 159 162
f 129 162 130
f 130 163 164
f 130 164 165
f 130 165 166
f 130 166 160
f 130 162 167
f 130 167 168
f 130 168 169
f 130 169 163
f 131 161 170
f 131 170 132
f 132 170 186
f 132 186 150
f 133 138 134
f 134 171 135
f 134 138 158
f 134 158 172
f 134 172 173
f 134 173 171
f 135 171 136
f 136 171 174
f 136 174 159
f 137 158 138
f 139 149 185
f 139 185 175
f 139 175 178
f 139 178 144
f 139 143 176
f 139 176 149
f 143 147 177
f 143 177 176
f 144 178 145
f 145 178 179
f 146 155 148
f 147 149 177
f 148 155 180
f 148 180 181
f 148 181 182
f 148 182 183
f 148 183 184
f 148 184 185
f 149 176 177
f 150 186 151
f 151 186 187
f 151 187 152
f 152 187 188
f 152 188 153
f 153 189 190
f 153 190 191
f 153 191 192
f 153 192 154
f 153 188 193
f 153 193 194
f 153 194 195
f 153 195 196
f 153 196 197
f 153 197 189
f 154 198 155
f 154 192 198
f 155 198 180
f 156 199 172
f 156 172 157
f 157 172 158
f 159 174 199
f 159 199 168
f 159 168 167
f 159 167 162
f 160 200 161
f 160 166 200
f 161 200 201
f 161 201 202
f 161 202 170
f 163 203 164
f 163 169 203
f 164 205 206
f 164 206 200
f 164 200 165
f 164 203 207
f 164 207 204
f 165 200 166
f 168 199 169
f 169 204 207
f 169 207 203
f 170 202 186
f 171 173 174
f 172 199 173
f 173 199 174
f 175 208 209
f 175 209 178
f 175 185 210
f 175 210 183
f 175 183 208
f 178 209 179
f 179 209 211
f 180 198 212
f 180 212 213
f 180 213 181
f 181 213 208
f 181 208 182
f 182 208 183
f 183 210 214
f 183 214 184
f 184 214 185
f 185 214 210
f 186 202 215
f 186 215 187
f 187 215 216
f 187 216 217
f 187 217 188
f 188 217 193
f 189 218 190
f 189 197 218
f 190 219 220
f 190 211 209
f 190 209 208
f 190 208 212
f 190 212 198
f 190 198 191
f 190 218 219
f 191 198 192
f 193 217 194
f 194 217 195
f 195 217 196
f 196 217 197
f 197 221 222
f 197 222 223
f 197 223 218
f 197 217 224
f 197 224 221
f 200 206 201
f 201 206 225
f 201 225 226
f 201 226 202
f 202 226 227
f 202 227 228
f 202 228 229
f 202 229 230
f 202 230 231
f 202 231 232
f 202 232 233
f 202 233 215
f 205 234 206
f 206 234 225
f 208 213 212
f 215 235 236
f 215 236 237
f 215 237 238
f 215 238 216
f 215 233 239
f 215 239 235
f 216 238 224
f 216 224 217
f 218 223 219
f 219 223 240
f 219 240 220
f 221 224 242
f 221 242 237
f 221 237 236
f 221 236 241
f 224 238 237
f 224 237 242
f 225 227 226
f 225 234 227
f 227 234 228
f 228 234 243
f 228 243 244
f 228 244 229
f 229 244 231
f 229 231 230
f 231 244 232
f 232 244 243
f 232 243 245
f 232 245 233
f 233 245 241
f 233 241 239
f 235 246 236
f 235 239 246
f 236 246 241
f 239 241 246

