# https://github.com/mikedh/trimesh
v -0.85192144 7.54773119 107.83939949
v -0.85192144 7.01124620 109.78933398
v -0.85192144 7.54034121 105.89093440
v -6.67792037 7.48565834 107.83939949
v -144.16854993 5.85108007 108.81804026
v -64.02805338 5.84664630 110.75915813
v -62.72197366 5.85551385 110.77091361
v -0.85192144 7.00090108 109.80990598
v -143.17064792 5.85699177 108.83126513
v -139.26708341 5.87916065 108.87975643
v -18.38861972 7.35855751 107.83939949
v -0.85192144 6.98612183 103.94099982
v -136.68427035 5.85255800 104.90641580
v -137.99035370 5.84516837 104.93433511
v -8.62970263 7.45462228 105.89093440
v -143.17064792 5.99443845 106.06873553
v -131.47462830 6.13040719 107.83939949
v -137.31530115 6.06685641 107.83939949
v -141.21886566 6.02399658 107.83939949
v -143.17064792 6.00182807 107.83939949
v -144.94633153 5.93975522 107.87907410
v -145.47463328 5.80969853 108.55648166
v -144.94633153 5.37223452 109.59683850
v -143.17064792 5.32494128 109.80696720
v -139.26708341 5.35154357 109.85545833
v -100.26077449 5.60722352 110.32714562
v -65.18738374 5.83925704 110.74593345
v -143.17064792 4.35099263 111.22643708
v -0.85192144 5.39144754 112.25356924
v -47.63601154 5.94566692 110.89581517
v -28.13285999 6.06242264 111.05598317
v -6.67792037 6.19100176 111.23084543
v -0.85192144 6.22499367 111.27786735
v -71.02805659 5.80083098 110.67687014
v -0.85192144 6.21908197 102.49948837
v -10.58148488 6.14666400 102.56414332
v -49.58779380 5.89689575 102.90211236
v -53.47668584 5.87177102 102.93590923
v -55.42846810 5.85846970 102.95207306
v -56.57312382 5.85108007 102.96235897
v -135.36351889 5.86142555 104.89025216
v -143.17064792 5.19340631 103.94099982
v -57.87920427 5.84221289 102.97705322
v -61.28381778 5.81856608 103.01819758
v -139.26708341 5.83777911 104.97400972
v -135.36351889 6.04912131 105.89093440
v -96.37188390 6.48215119 105.89093440
v -69.07627434 6.78512475 105.89093440
v -37.87709735 7.13095777 105.89093440
v -18.38861972 7.34673411 105.89093440
v -143.17064792 5.81413231 105.09450293
v -145.12243018 5.96192409 106.25094491
v -146.26708299 5.90576330 107.25603550
v -146.97148919 5.52889385 107.87907410
v -147.19161540 4.62145183 109.93480754
v -146.63396001 4.14704005 111.01777796
v -145.12243018 4.30665524 111.18235431
v -143.17064792 3.01938792 112.20066977
v -141.21886566 3.04303472 112.21389445
v -137.31530115 3.08737211 112.24034456
v -133.41173083 3.13318779 112.26532472
v -67.13916600 3.88249255 112.70468436
v -65.97983636 3.89579387 112.71203149
v -61.28381778 3.93421956 112.73995080
v -6.67792037 4.37020565 113.06175637
v -0.85192144 4.41602097 113.09555287
v -0.85192144 6.20873686 102.48038576
v -0.85192144 5.36780074 101.51790855
v -51.53957751 5.88359443 102.91827619
v -0.85192144 5.35597734 101.50468387
v -143.17064792 4.25344993 102.61851237
v -145.12243018 4.20763462 102.66406472
v -145.12243018 5.11064286 103.94099982
v -145.12243018 5.77718418 105.27524293
v -146.26708299 5.90576330 106.55658649
v -146.97148919 5.49194609 105.89975101
v -148.74717280 4.50321819 107.83939949
v -148.45367119 4.24606031 109.38377121
v -147.92536944 3.82189798 110.68274770
v -147.19161540 3.07259286 111.52179291
v -145.90020597 1.88286841 112.70174558
v -145.19580558 2.76223004 112.26091637
v -144.59412843 2.00553565 112.73995080
v -143.17064792 2.04543945 112.75905341
v -135.36351889 2.13559252 112.80166698
v -4.72613811 2.92480107 113.85231010
v -4.72613811 4.38498490 113.07351149
v -0.85192144 4.39533038 113.10583915
v -2.78902978 2.92480107 113.85818765
v -0.85192144 4.38202905 100.66269987
v -6.67792037 4.33030168 100.69943552
v -32.03642450 4.10565815 100.86401187
v -43.73244703 4.00220376 100.94042230
v -53.47668584 3.91500654 101.00360805
v -143.17064792 2.92480107 101.71775134
v -54.70939089 3.90318350 101.01242439
v -56.01547133 3.88988217 101.02124109
v -145.12243018 2.92480107 101.79857013
v -146.48720920 4.07905550 102.78896628
v -147.10356608 4.54460009 103.84842574
v -148.40964362 4.21206839 104.43619808
v -148.71781915 4.47809382 105.89093440
v -149.73040089 3.51596857 107.83939949
v -150.14129966 2.24939221 109.12515139
v -149.11404401 3.03564509 109.90394963
v -148.46834511 2.52280726 111.13533239
v -145.19580558 1.12912988 112.86779114
v -147.04486459 1.12912988 112.44900368
v -146.36981204 0.58230000 112.80901411
v -143.17064792 0.97394847 112.96624296
v -131.47462830 0.97394847 113.08967532
v -6.67792037 0.97394847 114.38130486
v -4.72613811 0.97394847 114.40040783
v -0.85192144 2.92480107 113.69361167
v -0.85192144 2.92480107 100.08962234
v -2.78902978 2.92480107 99.93239275
v -4.72613811 2.92480107 99.93973988
v -2.78902978 4.36429395 100.67445572
v -47.63601154 3.96673392 100.96540283
v -130.78489602 1.95676431 101.01242439
v -132.09097937 1.92277221 101.01977152
v -137.31530115 1.73507663 101.05209918
v -139.26708341 1.66413641 101.06385466
v -143.17064792 1.52521217 101.08883482
v -129.52284023 1.97302148 101.00360805
v -145.12243018 1.30500224 101.12557083
v -147.10356608 3.01199829 102.35107585
v -147.79329255 3.72139944 103.13575202
v -149.05534834 2.95879335 103.90720295
v -150.12661994 2.19618727 104.67865407
v -149.70104724 3.47458703 105.89093440
v -150.27337074 2.50063857 105.89093440
v -150.30273020 2.54054236 107.83939949
v -150.75765073 0.97394847 107.83939949
v -150.30273020 0.97394847 109.44842617
v -149.77442265 0.97394847 110.42265867
v -148.79119456 0.97394847 111.41599360
v -145.19580558 -1.12765195 112.86779114
v -147.04486459 -1.12765195 112.44900368
v -146.36981204 -0.58082207 112.80901411
v -143.17064792 -0.97394847 112.96477412
v -137.31530115 -0.97394847 113.02795914
v -133.41173083 -0.97394847 113.06910350
v -123.66749346 -0.97394847 113.17049374
v -6.67792037 -0.97394847 114.38130486
v -4.72613811 -0.97394847 114.40040783
v -2.78902978 0.97394847 114.22848399
v -0.85192144 2.89672068 113.69801966
v -0.85192144 -2.89672068 100.08521362
v -2.78902978 0.97394847 99.56797398
v -4.72613811 0.97394847 99.39164215
v -141.21886566 0.61924794 100.91544214
v -143.17064792 0.54978578 100.92719762
v -6.67792037 0.97394847 99.41368426
v -145.12243018 0.33105379 100.96246405
v -146.13501191 0.09754264 100.99919970
v -146.89811379 0.83797990 101.42680386
v -148.39496970 2.42083079 102.67435063
v -150.27337074 0.97394847 104.40533999
v -150.72830290 0.97394847 105.89093440
v -149.65702549 0.97394847 103.43110749
v -150.77233046 -0.97394847 107.83939949
v -150.30273020 -0.97394847 109.44842617
v -149.77442265 -0.97394847 110.42265867
v -148.79119456 -0.97394847 111.41599360
v -145.90020597 -1.88139049 112.70174558
v -144.59412843 -2.00553565 112.73995080
v -148.46834511 -2.52280726 111.13533239
v -143.17064792 -2.04396152 112.75758384
v -4.72613811 -2.92480107 113.85231010
v -2.78902978 -2.92480107 113.85818765
v -0.85192144 -2.92480107 113.69361167
v -2.78902978 -0.97394847 114.22848399
v -0.85192144 -2.92480107 100.08962234
v -2.78902978 -0.97394847 99.56944355
v -4.72613811 -0.97394847 99.39164215
v -143.17064792 -0.54830785 100.92719762
v -145.12243018 -0.32957587 100.96246405
v -146.13501191 -0.09754264 100.99919970
v -146.89811379 -0.83797990 101.42680386
v -148.67379740 0.97394847 102.43336384
v -150.27337074 -0.97394847 104.40680938
v -150.72830290 -0.97394847 105.89093440
v -149.65702549 -0.97394847 103.43110749
v -150.27337074 -2.49916064 105.89093440
v -150.30273020 -2.54054236 107.83939949
v -150.14129966 -2.24939221 109.12515139
v -145.19580558 -2.76223004 112.26091637
v -147.19161540 -3.07259286 111.52179291
v -146.63396001 -4.14704005 111.01777796
v -143.17064792 -3.01938792 112.20066977
v -147.94004336 -3.82337591 110.68421727
v -149.11404401 -3.03564509 109.90394963
v -139.26708341 -3.06520360 112.22711951
v -137.31530115 -3.08737211 112.24034456
v -133.41173083 -3.13318779 112.26532472
v -67.13916600 -3.88249255 112.70468436
v -141.21886566 -2.06760833 112.76933932
v -65.97983636 -3.89579387 112.71203149
v -61.28381778 -3.93421956 112.73995080
v -6.67792037 -4.37020565 113.06175637
v -4.72613811 -4.38498490 113.07351149
v -0.85192144 -4.41602097 113.09555287
v -135.36351889 -2.13559252 112.80166698
v -0.85192144 -4.36133810 100.65241433
v -2.78902978 -2.92480107 99.93239275
v -4.72613811 -2.92480107 99.93973988
v -130.78489602 -1.95676431 101.01242439
v -132.09097937 -1.92277221 101.01977152
v -6.67792037 -0.97394847 99.41368426
v -141.21886566 -0.61777002 100.91544214
v -137.31530115 -1.73359870 101.05209918
v -143.17064792 -1.52373425 101.08883482
v -145.12243018 -1.30500224 101.12557083
v -147.10356608 -3.01199829 102.35254542
v -148.39496970 -2.41935287 102.67435063
v -148.67379740 -0.97394847 102.43336384
v -150.12661994 -2.19470934 104.67865407
v -149.70104724 -3.47458703 105.89093440
v -149.73040089 -3.51596857 107.83939949
v -148.45367119 -4.24458275 109.38377121
v -145.12243018 -4.30813316 111.18235431
v -147.19161540 -4.62145183 109.93627711
v -144.93165761 -5.37223452 109.59536911
v -143.17064792 -4.35099263 111.22643708
v -0.85192144 -5.39144754 112.25356924
v -0.85192144 -4.38202905 100.66269987
v -2.78902978 -4.36429395 100.67445572
v -6.67792037 -4.33030168 100.69943552
v -32.03642450 -4.10565815 100.86401187
v -47.63601154 -3.96673392 100.96540283
v -53.47668584 -3.91500654 101.00360805
v -56.01547133 -3.88988217 101.02124109
v -129.52284023 -1.97302148 101.00360805
v -143.17064792 -2.92480107 101.71922055
v -145.12243018 -2.92480107 101.80003934
v -146.48720920 -4.07905550 102.79043549
v -147.77861863 -3.71992151 103.13722122
v -149.05534834 -2.95731543 103.90720295
v -148.40964362 -4.21206839 104.43619808
v -148.71781915 -4.47809382 105.89093440
v -148.74717280 -4.50321819 107.83939949
v -146.97148919 -5.52741593 107.87760471
v -143.17064792 -5.32641920 109.80402824
v -145.45995936 -5.80822061 108.55354288
v -144.15387601 -5.84960215 108.81657087
v -141.21886566 -5.33972017 109.82900859
v -137.31530115 -5.36484489 109.87749990
v -100.26077449 -5.60722352 110.32714562
v -71.02805659 -5.80083098 110.67687014
v -65.18738374 -5.83925704 110.74593345
v -64.02805338 -5.84664630 110.75915813
v -62.72197366 -5.85551385 110.77091361
v -47.63601154 -5.94566692 110.89581517
v -28.13285999 -6.06242264 111.05598317
v -6.67792037 -6.19100176 111.23084543
v -0.85192144 -6.22499367 111.27786735
v -0.85192144 -5.34267602 101.49292839
v -43.73244703 -4.00220376 100.94042230
v -54.70939089 -3.90318350 101.01242439
v -0.85192144 -5.35597734 101.50468387
v -143.17064792 -4.25344993 102.61998158
v -145.12243018 -4.20763462 102.66406472
v -147.10356608 -4.54312216 103.84842574
v -145.12243018 -5.10916494 103.94099982
v -146.97148919 -5.49046816 105.90122040
v -146.26708299 -5.90576330 107.25309663
v -146.26708299 -5.90576330 106.55805593
v -144.93165761 -5.93975522 107.87760471
v -143.17064792 -5.85551385 108.82979574
v -143.17064792 -6.00182807 107.83939949
v -135.36351889 -6.08754736 107.83939949
v -129.52284023 -6.15109742 107.83939949
v -65.18738374 -6.85015345 107.83939949
v -18.38861972 -7.35855751 107.83939949
v -6.67792037 -7.48565834 107.83939949
v -0.85192144 -7.54773119 107.83939949
v -0.85192144 -7.01124620 109.78933398
v -141.21886566 -5.86733725 108.85477609
v -137.31530115 -5.88950613 108.90326721
v -0.85192144 -6.19691346 102.46569150
v -49.58779380 -5.89689575 102.90211236
v -51.53957751 -5.88359443 102.91827619
v -55.42846810 -5.85846970 102.95207306
v -56.57312382 -5.85108007 102.96235897
v -143.17064792 -5.19192838 103.94099982
v -57.87920427 -5.84221289 102.97705322
v -61.28381778 -5.81856608 103.01819758
v -145.12243018 -5.77570626 105.27965128
v -143.17064792 -5.81265438 105.09891128
v -145.12243018 -5.96192409 106.25535322
v -143.17064792 -5.99443845 106.07461326
v -0.85192144 -7.54034121 105.89093440
v -0.85192144 -7.54773119 107.81148028
v -0.85192144 -6.20873686 102.48038576
v -10.58148488 -6.14666400 102.56414332
v -53.47668584 -5.87177102 102.93590923
v -0.85192144 -6.97577672 103.92042782
v -0.85192144 -6.98612183 103.94099982
v -131.47462830 -5.88359443 104.84469981
v -136.64024860 -5.85255800 104.90788519
v -137.94632614 -5.84516837 104.93727389
v -131.47462830 -6.09198114 105.89093440
v -96.37188390 -6.48215119 105.89093440
v -69.07627434 -6.78512475 105.89093440
v -37.87709735 -7.13095777 105.89093440
v -18.38861972 -7.34673411 105.89093440
v -8.62970263 -7.45462228 105.89093440
v -0.85192144 -7.53295194 105.86301518
f 1 2 8
f 1 8 33
f 1 33 29
f 1 29 66
f 1 66 88
f 1 88 114
f 1 114 148
f 1 148 172
f 1 172 203
f 1 203 226
f 1 226 257
f 1 257 278
f 1 278 277
f 1 277 294
f 1 294 293
f 1 293 309
f 1 309 299
f 1 299 298
f 1 298 295
f 1 295 281
f 1 281 261
f 1 261 258
f 1 258 227
f 1 227 205
f 1 205 174
f 1 174 149
f 1 149 115
f 1 115 90
f 1 90 70
f 1 70 68
f 1 68 67
f 1 67 35
f 1 35 12
f 1 12 3
f 1 3 4
f 1 4 5
f 1 5 2
f 2 6 7
f 2 7 8
f 2 5 9
f 2 9 10
f 2 10 6
f 3 11 4
f 3 12 13
f 3 13 14
f 3 14 15
f 3 15 16
f 3 16 17
f 3 17 11
f 4 11 5
f 5 17 18
f 5 18 19
f 5 19 20
f 5 20 21
f 5 21 22
f 5 22 23
f 5 23 24
f 5 24 25
f 5 25 26
f 5 26 9
f 5 11 17
f 6 27 28
f 6 28 7
f 6 10 9
f 6 9 27
f 7 28 29
f 7 29 30
f 7 30 8
f 8 31 32
f 8 32 33
f 8 30 31
f 9 26 34
f 9 34 27
f 12 35 36
f 12 36 37
f 12 37 38
f 12 38 39
f 12 39 40
f 12 40 41
f 12 41 13
f 13 42 14
f 13 41 43
f 13 43 44
f 13 44 42
f 14 42 45
f 14 45 16
f 14 16 46
f 14 46 47
f 14 47 48
f 14 48 49
f 14 49 50
f 14 50 15
f 15 50 16
f 16 47 46
f 16 45 51
f 16 51 52
f 16 52 20
f 16 20 19
f 16 19 18
f 16 18 17
f 16 50 49
f 16 49 48
f 16 48 47
f 20 52 53
f 20 53 21
f 21 53 22
f 22 53 54
f 22 54 55
f 22 55 23
f 23 55 56
f 23 56 57
f 23 57 24
f 24 57 28
f 24 28 25
f 25 28 26
f 26 28 34
f 27 34 28
f 28 57 58
f 28 58 59
f 28 59 60
f 28 60 61
f 28 61 62
f 28 62 63
f 28 63 29
f 29 63 64
f 29 64 65
f 29 65 66
f 29 33 32
f 29 32 31
f 29 31 30
f 35 67 36
f 36 67 68
f 36 68 37
f 37 69 39
f 37 39 38
f 37 68 69
f 39 69 68
f 39 68 40
f 40 43 41
f 40 68 70
f 40 70 71
f 40 71 43
f 42 71 72
f 42 72 73
f 42 73 51
f 42 51 45
f 42 44 71
f 43 71 44
f 51 73 74
f 51 74 52
f 52 74 75
f 52 75 53
f 53 75 54
f 54 76 77
f 54 77 78
f 54 78 55
f 54 75 76
f 55 78 79
f 55 79 56
f 56 79 80
f 56 80 81
f 56 81 82
f 56 82 57
f 57 82 58
f 58 82 83
f 58 83 84
f 58 84 59
f 59 84 60
f 60 84 61
f 61 84 62
f 62 84 63
f 63 84 85
f 63 85 86
f 63 86 64
f 64 86 65
f 65 86 87
f 65 87 66
f 66 87 86
f 66 86 89
f 66 89 88
f 70 90 91
f 70 91 92
f 70 92 93
f 70 93 94
f 70 94 71
f 71 95 72
f 71 94 96
f 71 96 97
f 71 97 95
f 72 95 98
f 72 98 99
f 72 99 73
f 73 99 100
f 73 100 74
f 74 100 76
f 74 76 75
f 76 100 101
f 76 101 102
f 76 102 77
f 77 102 103
f 77 103 78
f 78 103 104
f 78 104 105
f 78 105 79
f 79 105 106
f 79 106 80
f 80 106 81
f 81 107 83
f 81 83 82
f 81 106 108
f 81 108 109
f 81 109 107
f 83 110 84
f 83 107 110
f 84 110 111
f 84 111 112
f 84 112 113
f 84 113 86
f 84 86 85
f 86 113 89
f 88 89 114
f 89 113 114
f 90 115 116
f 90 116 117
f 90 117 118
f 90 118 91
f 91 118 117
f 91 117 92
f 92 117 119
f 92 119 93
f 93 119 94
f 94 97 96
f 94 119 117
f 94 117 97
f 95 120 121
f 95 121 122
f 95 122 123
f 95 123 124
f 95 124 98
f 95 97 120
f 97 117 125
f 97 125 120
f 98 124 126
f 98 126 127
f 98 127 99
f 99 127 128
f 99 128 100
f 100 128 101
f 101 128 129
f 101 129 130
f 101 130 131
f 101 131 102
f 102 131 103
f 103 131 132
f 103 132 133
f 103 133 104
f 104 133 134
f 104 134 135
f 104 135 136
f 104 136 106
f 104 106 105
f 106 136 137
f 106 137 108
f 107 109 140
f 107 140 138
f 107 138 110
f 108 137 165
f 108 165 139
f 108 139 140
f 108 140 109
f 110 138 141
f 110 141 142
f 110 142 111
f 111 142 143
f 111 143 144
f 111 144 112
f 112 145 146
f 112 146 113
f 112 144 145
f 113 146 173
f 113 173 147
f 113 147 114
f 114 147 148
f 115 149 150
f 115 150 151
f 115 151 116
f 116 151 117
f 117 151 120
f 117 120 125
f 120 151 121
f 121 152 153
f 121 153 123
f 121 123 122
f 121 151 154
f 121 154 152
f 123 153 124
f 124 153 155
f 124 155 126
f 126 155 156
f 126 156 157
f 126 157 127
f 127 157 158
f 127 158 128
f 128 158 129
f 129 158 130
f 130 159 160
f 130 160 132
f 130 132 131
f 130 158 161
f 130 161 159
f 132 160 133
f 133 160 134
f 134 160 162
f 134 162 135
f 135 162 163
f 135 163 164
f 135 164 136
f 136 164 165
f 136 165 137
f 138 140 166
f 138 166 167
f 138 167 141
f 139 165 168
f 139 168 166
f 139 166 140
f 141 167 169
f 141 169 142
f 142 169 143
f 143 169 144
f 144 169 145
f 145 169 146
f 146 170 171
f 146 171 172
f 146 172 173
f 146 169 170
f 147 173 148
f 148 173 172
f 149 174 175
f 149 175 150
f 150 175 176
f 150 176 151
f 151 176 177
f 151 177 153
f 151 153 154
f 152 154 153
f 153 177 178
f 153 178 155
f 155 178 179
f 155 179 156
f 156 179 180
f 156 180 157
f 157 180 217
f 157 217 181
f 157 181 158
f 158 181 161
f 159 182 183
f 159 183 160
f 159 161 184
f 159 184 182
f 160 183 162
f 161 181 217
f 161 217 184
f 162 183 185
f 162 185 186
f 162 186 187
f 162 187 163
f 163 187 164
f 164 187 168
f 164 168 165
f 166 188 167
f 166 168 189
f 166 189 190
f 166 190 188
f 167 188 191
f 167 191 169
f 168 192 189
f 168 187 193
f 168 193 192
f 169 191 194
f 169 194 195
f 169 195 196
f 169 196 197
f 169 197 198
f 169 198 170
f 170 199 200
f 170 200 201
f 170 201 202
f 170 202 203
f 170 203 171
f 170 198 204
f 170 204 199
f 171 203 172
f 174 205 206
f 174 206 176
f 174 176 175
f 176 206 207
f 176 207 208
f 176 208 209
f 176 209 210
f 176 210 177
f 177 211 209
f 177 209 212
f 177 212 213
f 177 213 178
f 177 210 211
f 178 214 179
f 178 213 214
f 179 214 180
f 180 215 216
f 180 216 217
f 180 214 215
f 182 184 218
f 182 218 183
f 183 218 185
f 184 217 216
f 184 216 218
f 185 218 219
f 185 219 220
f 185 220 186
f 186 220 187
f 187 220 221
f 187 221 193
f 188 190 222
f 188 222 191
f 189 192 190
f 190 192 223
f 190 223 224
f 190 224 222
f 191 222 225
f 191 225 194
f 192 193 221
f 192 221 223
f 194 225 195
f 195 225 196
f 196 225 197
f 197 199 198
f 197 225 199
f 198 199 204
f 199 225 226
f 199 226 200
f 200 226 201
f 201 226 203
f 201 203 202
f 205 227 206
f 206 227 207
f 207 227 228
f 207 228 229
f 207 229 230
f 207 230 231
f 207 231 232
f 207 232 233
f 207 233 234
f 207 234 208
f 208 234 233
f 208 233 235
f 208 235 209
f 209 235 213
f 209 213 212
f 209 211 210
f 213 235 236
f 213 236 214
f 214 236 215
f 215 236 237
f 215 237 238
f 215 238 216
f 216 238 239
f 216 239 218
f 218 239 240
f 218 240 219
f 219 241 220
f 219 240 241
f 220 241 242
f 220 242 221
f 221 243 223
f 221 242 243
f 222 224 244
f 222 244 225
f 223 243 245
f 223 245 224
f 224 245 246
f 224 246 244
f 225 244 247
f 225 247 248
f 225 248 249
f 225 249 250
f 225 250 251
f 225 251 252
f 225 252 253
f 225 253 226
f 226 253 254
f 226 254 255
f 226 255 256
f 226 256 257
f 227 258 229
f 227 229 228
f 229 258 230
f 230 258 259
f 230 259 231
f 231 259 232
f 232 260 233
f 232 259 258
f 232 258 261
f 232 261 262
f 232 262 260
f 233 260 262
f 233 262 235
f 235 262 263
f 235 263 236
f 236 263 237
f 237 264 238
f 237 263 265
f 237 265 264
f 238 264 240
f 238 240 239
f 240 264 266
f 240 266 241
f 241 266 242
f 242 266 243
f 243 267 245
f 243 266 268
f 243 268 267
f 244 246 247
f 245 267 269
f 245 269 246
f 246 270 247
f 246 269 271
f 246 271 272
f 246 272 273
f 246 273 274
f 246 274 275
f 246 275 276
f 246 276 277
f 246 277 278
f 246 278 270
f 247 270 248
f 248 270 249
f 249 270 250
f 250 270 251
f 251 270 279
f 251 279 252
f 252 279 280
f 252 280 278
f 252 278 253
f 253 278 254
f 254 278 255
f 255 278 256
f 256 278 257
f 261 281 282
f 261 282 283
f 261 283 284
f 261 284 285
f 261 285 262
f 262 286 263
f 262 285 287
f 262 287 288
f 262 288 286
f 263 286 265
f 264 265 289
f 264 289 266
f 265 286 290
f 265 290 289
f 266 289 268
f 267 268 291
f 267 291 271
f 267 271 269
f 268 289 291
f 270 278 279
f 271 291 292
f 271 292 272
f 272 292 273
f 273 292 293
f 273 293 274
f 274 293 275
f 275 293 276
f 276 293 294
f 276 294 277
f 278 280 279
f 281 295 296
f 281 296 282
f 282 297 284
f 282 284 283
f 282 296 298
f 282 298 297
f 284 297 298
f 284 298 285
f 285 298 299
f 285 299 300
f 285 300 301
f 285 301 287
f 286 301 302
f 286 302 290
f 286 288 301
f 287 301 288
f 289 290 291
f 290 292 291
f 290 302 292
f 292 302 303
f 292 303 304
f 292 304 305
f 292 305 306
f 292 306 307
f 292 307 308
f 292 308 293
f 293 308 302
f 293 302 301
f 293 301 309
f 295 298 296
f 299 309 301
f 299 301 300
f 302 304 303
f 302 308 307
f 302 307 306
f 302 306 305
f 302 305 304

