mtllib material.mtl
usemtl material_0
v -150.00000000 0.00000000 106.93123000
v -150.00000000 0.00524300 106.93148900
v -150.00000000 0.01043500 106.93225900
v -150.00000000 0.01552700 106.93353400
v -150.00000000 0.02046700 106.93530400
v -150.00000000 0.02521000 106.93755200
v -150.00000000 0.02971200 106.94025000
v -150.00000000 0.03393000 106.94337400
v -150.00000000 0.03782100 106.94689700
v -150.00000000 0.04134200 106.95078800
v -150.00000000 0.04446400 106.95500700
v -150.00000000 0.04716200 106.95950900
v -150.00000000 0.04941000 106.96425200
v -150.00000000 0.05118300 106.96919200
v -150.00000000 0.05245700 106.97428300
v -150.00000000 0.05322000 106.97947500
v -150.00000000 0.05347300 106.98471700
v -150.00000000 0.05321700 106.98996000
v -150.00000000 0.05245300 106.99515200
v -150.00000000 0.05118400 107.00024400
v -150.00000000 0.04941200 107.00518400
v -150.00000000 0.04715800 107.00992100
v -150.00000000 0.04445200 107.01441800
v -150.00000000 0.04132400 107.01863300
v -150.00000000 0.03780600 107.02252600
v -150.00000000 0.03392600 107.02605900
v -150.00000000 0.02971600 107.02919000
v -150.00000000 0.02521200 107.03188300
v -150.00000000 0.02046400 107.03411600
v -150.00000000 0.01552000 107.03587700
v -150.00000000 0.01042900 107.03715400
v -150.00000000 0.00523900 107.03793200
v -150.00000000 -0.00000100 107.03820100
v -150.00000000 -0.00524200 107.03794600
v -150.00000000 -0.01043100 107.03716600
v -150.00000000 -0.01551700 107.03587800
v -150.00000000 -0.02045500 107.03410200
v -150.00000000 -0.02520000 107.03186000
v -150.00000000 -0.02970600 107.02917100
v -150.00000000 -0.03392900 107.02605700
v -150.00000000 -0.03782100 107.02253900
v -150.00000000 -0.04133900 107.01864500
v -150.00000000 -0.04445300 107.01442300
v -150.00000000 -0.04714300 107.00991700
v -150.00000000 -0.04938700 107.00517300
v -150.00000000 -0.05116300 107.00023500
v -150.00000000 -0.05245100 106.99514900
v -150.00000000 -0.05322900 106.98996000
v -150.00000000 -0.05348000 106.98471900
v -150.00000000 -0.05320700 106.97948000
v -150.00000000 -0.05242600 106.97429200
v -150.00000000 -0.05114800 106.96920100
v -150.00000000 -0.04938700 106.96425800
v -150.00000000 -0.04715700 106.95950900
v -150.00000000 -0.04447100 106.95500200
v -150.00000000 -0.04134400 106.95078800
v -150.00000000 -0.03781100 106.94691000
v -150.00000000 -0.03391500 106.94339700
v -150.00000000 -0.02969500 106.94027600
v -150.00000000 -0.02519600 106.93757400
v -150.00000000 -0.02045800 106.93531900
v -150.00000000 -0.01552400 106.93353800
v -150.00000000 -0.01043500 106.93225800
v -150.00000000 -0.00524300 106.93148800
v -0.01028000 -2.51432900 100.77687400
v -0.25249300 -2.50125100 100.77436100
v -0.49730300 -2.46398500 100.76216100
v -0.74018600 -2.40254100 100.74087500
v -0.97661900 -2.31693100 100.71110700
v -1.20242500 -2.20778100 100.67408400
v -1.41452200 -2.07794900 100.63211500
v -1.61003300 -1.93080200 100.58745700
v -1.78608700 -1.76970300 100.54236600
v -1.94582800 -1.59179000 100.49744000
v -2.09136900 -1.39459600 100.45335100
v -2.21933700 -1.18101700 100.41218400
v -2.32635500 -0.95395000 100.37602500
v -2.40966000 -0.71655500 100.34688100
v -2.46874500 -0.47309000 100.32564400
v -2.50362400 -0.22808800 100.31277800
v -2.50362400 -0.22808800 100.31277800
v -2.51430900 0.01393900 100.30874700
v -2.50081000 0.25652400 100.31383000
v -2.46311600 0.50157900 100.32769400
v -2.40121400 0.74457100 100.34987400
v -2.31509100 0.98096600 100.37990700
v -2.20546200 1.20661300 100.41675500
v -2.07527600 1.41843500 100.45837000
v -1.92790900 1.61353400 100.50266300
v -1.76669400 1.78905800 100.54756200
v -1.58823400 1.94870200 100.59271800
v -1.39064500 2.09400800 100.63717900
v -1.17680500 2.22160700 100.67868800
v -0.94959000 2.32813300 100.71498600
v -0.71217500 2.41093100 100.74379900
v -0.46883500 2.46956300 100.76405900
v -0.22409500 2.50401600 100.77516300
v 0.01761800 2.51428000 100.77650900
v 0.26029300 2.50039800 100.76771400
v 0.50499600 2.46242400 100.74928700
v 0.74730900 2.40038400 100.72194200
v 0.98281400 2.31430400 100.68639400
v 1.20752400 2.20496000 100.64408200
v 1.41847900 2.07525800 100.59735000
v 1.61286300 1.92847900 100.54847400
v 1.78790000 1.76786500 100.49971400
v 1.94723600 1.59002900 100.45142100
v 2.09239200 1.39305600 100.40435300
v 2.22000800 1.17978300 100.36063500
v 2.32672100 0.95305200 100.32239200
v 2.40981400 0.71598600 100.29164900
v 2.46879100 0.47281200 100.26927500
v 2.50362900 0.22801600 100.25573500
v 2.51430900 -0.01393900 100.25149700
v 2.50081800 -0.25643300 100.25684100
v 2.46317000 -0.50127100 100.27143300
v 2.40138700 -0.74396500 100.29480500
v 2.31549000 -0.98002900 100.32649100
v 2.20617200 -1.20534100 100.36548000
v 2.07634300 -1.41686300 100.40969700
v 1.92936400 -1.61175600 100.45701700
v 1.76859000 -1.78718800 100.50531700
v 1.59119200 -1.94632700 100.55419700
v 1.39473500 -2.09128800 100.60294100
v 1.18203500 -2.21879000 100.64927500
v 0.95590800 -2.32555300 100.69092500
v 0.71938400 -2.40883800 100.72555800
v 0.47656600 -2.46808000 100.75190300
v 0.23187200 -2.50325200 100.76924600
v -0.01028000 -2.51432900 113.00917500
v 0.23188000 -2.50325100 113.01649700
v 0.47659400 -2.46807400 113.03353300
v 0.71943900 -2.40882200 113.05957500
v 0.95599300 -2.32551700 113.09391700
v 1.18215100 -2.21872700 113.13529100
v 1.39487800 -2.09119100 113.18136600
v 1.59135600 -1.94619200 113.22987100
v 1.76876600 -1.78701400 113.27853400
v 1.92955000 -1.61153200 113.32663800
v 2.07652900 -1.41659000 113.37377500
v 2.20634600 -1.20502400 113.41782700
v 2.31564000 -0.97967400 113.45667300
v 2.40150500 -0.74358000 113.48824000
v 2.46325200 -0.50086700 113.51152100
v 2.50086100 -0.25602300 113.52605000
v 2.51431100 -0.01353500 113.53136200
v 2.50359100 0.22842800 113.52712100
v 2.46871000 0.47323100 113.51360900
v 2.40969000 0.71640900 113.49129300
v 2.32654800 0.95347600 113.46063900
v 2.21978300 1.18020400 113.42251600
v 2.09211600 1.39347000 113.37894600
v 1.94690800 1.59043200 113.33205000
v 1.78752100 1.76824900 113.28395100
v 1.61240600 1.92886000 113.23540300
v 1.41794100 2.07562500 113.18676600
v 1.20690800 2.20529800 113.14030200
v 0.98212600 2.31459600 113.09828400
v 0.74656000 2.40061600 113.06305200
v 0.50420400 2.46258600 113.03603700
v 0.25947900 2.50048400 113.01794800
v 0.01681000 2.51428600 113.00949300
v -0.22491200 2.50394200 113.01117900
v -0.46963900 2.46941000 113.02262300
v -0.71294200 2.41070600 113.04321700
v -0.95030100 2.32784300 113.07235200
v -1.17744600 2.22126600 113.10895100
v -1.39120900 2.09363400 113.15073500
v -1.58871600 1.94831100 113.19544300
v -1.76709400 1.78866300 113.24081500
v -1.92825300 1.61312100 113.28591100
v -2.07556700 1.41800900 113.33038100
v -2.20570000 1.20618100 113.37214800
v -2.31527500 0.98053100 113.40912000
v -2.40134700 0.74413800 113.43924500
v -2.46320300 0.50115200 113.46148800
v -2.50085300 0.25610700 113.47538500
v -2.51431100 0.01353500 113.48047000
v -2.51431100 0.01353500 113.48047000
v -2.50358600 -0.22849600 113.47640900
v -2.46866800 -0.47348900 113.46348500
v -2.40954800 -0.71693500 113.44216200
v -2.32621200 -0.95429900 113.41290300
v -2.21917100 -1.18132800 113.37660400
v -2.09119200 -1.39486300 113.33527400
v -1.94565000 -1.59200800 113.29100400
v -1.78592000 -1.76987100 113.24588400
v -1.60987900 -1.93093100 113.20057700
v -1.41438900 -2.07804100 113.15568100
v -1.20231800 -2.20784000 113.11345300
v -0.97654200 -2.31696400 113.07615300
v -0.74013800 -2.40255500 113.04609200
v -0.49728000 -2.46399000 113.02450300
v -0.25248700 -2.50125200 113.01199400
v -0.43661200 -2.47615100 106.89142900
v 0.00000000 -2.51435000 106.89142900
v -0.85995800 -2.36271600 106.89142900
v -1.25717500 -2.17749100 106.89142900
v -1.61619300 -1.92610400 106.89142900
v -1.92610400 -1.61619300 106.89142900
v -2.17749100 -1.25717500 106.89142900
v -2.36271600 -0.85995800 106.89142900
v -2.47615100 -0.43661200 106.89142900
v -2.51435000 -0.00000000 106.89142900
v -2.51435000 -0.00000000 106.89142900
v -2.47615100 0.43661200 106.89142900
v -2.36271600 0.85995800 106.89142900
v -2.17749100 1.25717500 106.89142900
v -1.92833000 1.61353600 106.89142900
v -1.61619300 1.92610400 106.89142900
v -1.25717500 2.17749100 106.89142900
v -0.85995800 2.36271600 106.89142900
v -0.43661200 2.47615100 106.89142900
v 0.00000000 2.51435000 106.89142900
v 0.43661200 2.47615100 106.89142900
v 0.85995800 2.36271600 106.89142900
v 1.25717500 2.17749100 106.89142900
v 1.61463000 1.92741400 106.89142900
v 1.92610400 1.61619300 106.89142900
v 2.17749100 1.25717500 106.89142900
v 2.36271600 0.85995800 106.89142900
v 2.47615100 0.43661200 106.89142900
v 2.51435000 0.00000000 106.89142900
v 2.47615100 -0.43661200 106.89142900
v 2.36271600 -0.85995800 106.89142900
v 2.17749100 -1.25717500 106.89142900
v 1.92610400 -1.61619300 106.89142900
v 1.61619300 -1.92610400 106.89142900
v 1.25717500 -2.17749100 106.89142900
v 0.85995800 -2.36271600 106.89142900
v 0.43661200 -2.47615100 106.89142900
v 45.00000000 -0.00000000 99.76778800
v 45.00000000 -0.74181600 99.80666500
v 45.00000000 -1.47550400 99.92287000
v 45.00000000 -2.19302600 100.11512900
v 45.00000000 -2.88652100 100.38133700
v 45.00000000 -3.54839000 100.71857700
v 45.00000000 -4.17138300 101.12315300
v 45.00000000 -4.74867300 101.59063300
v 45.00000000 -5.27393600 102.11589600
v 45.00000000 -5.74141600 102.69318600
v 45.00000000 -6.14599200 103.31617900
v 45.00000000 -6.48323200 103.97804900
v 45.00000000 -6.74944000 104.67154400
v 45.00000000 -6.94169900 105.38906600
v 45.00000000 -7.05790400 106.12275500
v 45.00000000 -7.09678100 106.86457000
v 45.00000000 -7.05790400 107.60638600
v 45.00000000 -6.94169900 108.34007400
v 45.00000000 -6.74944000 109.05759700
v 45.00000000 -6.48323200 109.75109200
v 45.00000000 -6.14599200 110.41296100
v 45.00000000 -5.74141600 111.03595400
v 45.00000000 -5.27393600 111.61324400
v 45.00000000 -4.74867300 112.13850700
v 45.00000000 -4.17138300 112.60598800
v 45.00000000 -3.54839000 113.01056400
v 45.00000000 -2.88652100 113.34780300
v 45.00000000 -2.19302600 113.61401100
v 45.00000000 -1.47550400 113.80627100
v 45.00000000 -0.74181600 113.92247600
v 45.00000000 0.00000000 113.96135300
v 45.00000000 0.74181600 113.92247600
v 45.00000000 1.47550400 113.80627100
v 45.00000000 2.19302600 113.61401100
v 45.00000000 2.88652100 113.34780300
v 45.00000000 3.54839000 113.01056400
v 45.00000000 4.17138300 112.60598800
v 45.00000000 4.74867300 112.13850700
v 45.00000000 5.27393600 111.61324400
v 45.00000000 5.74141600 111.03595400
v 45.00000000 6.14599200 110.41296100
v 45.00000000 6.48323200 109.75109200
v 45.00000000 6.74944000 109.05759700
v 45.00000000 6.94169900 108.34007400
v 45.00000000 7.05790400 107.60638600
v 45.00000000 7.09678100 106.86457000
v 45.00000000 7.05790400 106.12275500
v 45.00000000 6.94169900 105.38906600
v 45.00000000 6.74944000 104.67154400
v 45.00000000 6.48323200 103.97804900
v 45.00000000 6.14599200 103.31617900
v 45.00000000 5.74141600 102.69318600
v 45.00000000 5.27393600 102.11589600
v 45.00000000 4.74867300 101.59063300
v 45.00000000 4.17138300 101.12315300
v 45.00000000 3.54839000 100.71857700
v 45.00000000 2.88652100 100.38133700
v 45.00000000 2.19302600 100.11512900
v 45.00000000 1.47550400 99.92287000
v 45.00000000 0.74181600 99.80666500
vn -0.10000000 0.00000000 -0.00000000
vn -0.10000000 0.00000000 -0.00000000
vn -0.10000000 0.00000000 -0.00000000
vn -0.10000000 0.00000000 -0.00000000
vn -0.10000000 0.00000000 -0.00000000
vn -0.10000000 0.00000000 -0.00000000
vn -0.10000000 0.00000000 -0.00000000
vn -0.10000000 0.00000000 -0.00000000
vn -0.10000000 0.00000000 -0.00000000
vn -0.10000000 0.00000000 -0.00000000
vn -0.10000000 0.00000000 0.00000000
vn -0.10000000 0.00000000 0.00000000
vn -0.10000000 0.00000000 -0.00000000
vn -0.10000000 0.00000000 -0.00000000
vn -0.10000000 0.00000000 -0.00000000
vn -0.10000000 0.00000000 -0.00000000
vn -0.10000000 0.00000000 0.00000000
vn -0.10000000 0.00000000 0.00000000
vn -0.10000000 0.00000000 0.00000000
vn -0.10000000 0.00000000 0.00000000
vn -0.10000000 0.00000000 0.00000000
vn -0.10000000 0.00000000 0.00000000
vn -0.10000000 0.00000000 0.00000000
vn -0.10000000 0.00000000 0.00000000
vn -0.10000000 0.00000000 0.00000000
vn -0.10000000 0.00000000 0.00000000
vn -0.10000000 0.00000000 0.00000000
vn -0.10000000 0.00000000 0.00000000
vn -0.10000000 0.00000000 0.00000000
vn -0.10000000 0.00000000 0.00000000
vn -0.10000000 0.00000000 0.00000000
vn -0.10000000 0.00000000 0.00000000
vn -0.10000000 0.00000000 0.00000000
vn -0.10000000 0.00000000 0.00000000
vn -0.10000000 0.00000000 0.00000000
vn -0.10000000 0.00000000 0.00000000
vn -0.10000000 0.00000000 0.00000000
vn -0.10000000 0.00000000 0.00000000
vn -0.10000000 0.00000000 0.00000000
vn -0.10000000 0.00000000 0.00000000
vn -0.10000000 0.00000000 0.00000000
vn -0.10000000 0.00000000 0.00000000
vn -0.10000000 0.00000000 0.00000000
vn -0.10000000 0.00000000 0.00000000
vn -0.10000000 0.00000000 0.00000000
vn -0.10000000 0.00000000 0.00000000
vn -0.10000000 0.00000000 0.00000000
vn -0.10000000 0.00000000 0.00000000
vn -0.10000000 0.00000000 0.00000000
vn -0.10000000 0.00000000 0.00000000
vn -0.10000000 0.00000000 0.00000000
vn -0.10000000 0.00000000 0.00000000
vn -0.10000000 0.00000000 0.00000000
vn -0.10000000 0.00000000 0.00000000
vn -0.10000000 0.00000000 0.00000000
vn -0.10000000 0.00000000 0.00000000
vn -0.10000000 0.00000000 0.00000000
vn -0.10000000 0.00000000 0.00000000
vn -0.10000000 0.00000000 0.00000000
vn -0.10000000 0.00000000 0.00000000
vn -0.10000000 0.00000000 0.00000000
vn -0.10000000 0.00000000 0.00000000
vn -0.10000000 0.00000000 0.00000000
vn -0.10000000 0.00000000 0.00000000
vn 0.00040900 0.09999900 0.00000000
vn 0.01004400 0.09949400 0.00000000
vn 0.01978400 0.09802300 0.00000000
vn 0.02944300 0.09556700 0.00000000
vn 0.03884200 0.09214800 0.00000000
vn 0.04782900 0.08782000 0.00000000
vn 0.05627200 0.08266500 0.00000000
vn 0.06404300 0.07680200 0.00000000
vn 0.07103600 0.07038400 0.00000000
vn 0.07740100 0.06331800 0.00000000
vn 0.08319900 0.05548000 0.00000000
vn 0.08827900 0.04697700 0.00000000
vn 0.09252300 0.03794000 0.00000000
vn 0.09585200 0.02850300 0.00000000
vn 0.09821300 0.01882100 0.00000000
vn 0.09958800 0.00907300 0.00000000
vn 0.09958800 0.00907300 0.00000000
vn 0.09999800 -0.00055400 0.00000000
vn 0.09947800 -0.01020400 0.00000000
vn 0.09798900 -0.01995400 0.00000000
vn 0.09551400 -0.02961700 0.00000000
vn 0.09207500 -0.03901500 0.00000000
vn 0.08772900 -0.04799700 0.00000000
vn 0.08255800 -0.05642800 0.00000000
vn 0.07668600 -0.06418100 0.00000000
vn 0.07026500 -0.07115400 0.00000000
vn 0.06317700 -0.07751600 0.00000000
vn 0.05532200 -0.08330300 0.00000000
vn 0.04680900 -0.08836800 0.00000000
vn 0.03776700 -0.09259400 0.00000000
vn 0.02832900 -0.09590300 0.00000000
vn 0.01865100 -0.09824500 0.00000000
vn 0.00891400 -0.09960200 0.00000000
vn -0.00070100 -0.09999800 0.00000000
vn -0.01035400 -0.09946300 0.00000000
vn -0.02009000 -0.09796100 0.00000000
vn -0.02972600 -0.09548000 0.00000000
vn -0.03908800 -0.09204400 0.00000000
vn -0.04803300 -0.08770900 0.00000000
vn -0.05643000 -0.08255700 0.00000000
vn -0.06415400 -0.07670900 0.00000000
vn -0.07110800 -0.07031100 0.00000000
vn -0.07745700 -0.06324800 0.00000000
vn -0.08323900 -0.05541800 0.00000000
vn -0.08830500 -0.04692800 0.00000000
vn -0.09253800 -0.03790500 0.00000000
vn -0.09585800 -0.02848100 0.00000000
vn -0.09821500 -0.01881000 0.00000000
vn -0.09958800 -0.00907000 0.00000000
vn -0.09999800 0.00055400 0.00000000
vn -0.09947800 0.01020000 0.00000000
vn -0.09799100 0.01994200 0.00000000
vn -0.09552100 0.02959300 0.00000000
vn -0.09209100 0.03897700 0.00000000
vn -0.08775700 0.04794600 0.00000000
vn -0.08260100 0.05636600 0.00000000
vn -0.07674500 0.06411100 0.00000000
vn -0.07034000 0.07108000 0.00000000
vn -0.06329400 0.07742000 0.00000000
vn -0.05548500 0.08319500 0.00000000
vn -0.04701800 0.08825700 0.00000000
vn -0.03801800 0.09249100 0.00000000
vn -0.02861600 0.09581800 0.00000000
vn -0.01895900 0.09818600 0.00000000
vn -0.00922300 0.09957400 0.00000000
vn 0.00040900 0.09999900 0.00000000
vn -0.00922400 0.09957400 0.00000000
vn -0.01896000 0.09818600 0.00000000
vn -0.02861800 0.09581800 0.00000000
vn -0.03802100 0.09249000 0.00000000
vn -0.04702300 0.08825500 0.00000000
vn -0.05549100 0.08319100 0.00000000
vn -0.06330000 0.07741500 0.00000000
vn -0.07034700 0.07107300 0.00000000
vn -0.07675200 0.06410200 0.00000000
vn -0.08260800 0.05635500 0.00000000
vn -0.08776300 0.04793300 0.00000000
vn -0.09209700 0.03896300 0.00000000
vn -0.09552600 0.02957800 0.00000000
vn -0.09799500 0.01992600 0.00000000
vn -0.09948000 0.01018400 0.00000000
vn -0.09999900 0.00053800 0.00000000
vn -0.09958600 -0.00908600 0.00000000
vn -0.09821200 -0.01882600 0.00000000
vn -0.09585300 -0.02849800 0.00000000
vn -0.09253100 -0.03792100 0.00000000
vn -0.08829600 -0.04694500 0.00000000
vn -0.08322800 -0.05543500 0.00000000
vn -0.07744400 -0.06326400 0.00000000
vn -0.07109300 -0.07032600 0.00000000
vn -0.06413600 -0.07672400 0.00000000
vn -0.05640800 -0.08257200 0.00000000
vn -0.04800800 -0.08772200 0.00000000
vn -0.03906100 -0.09205600 0.00000000
vn -0.02969600 -0.09548900 0.00000000
vn -0.02005800 -0.09796800 0.00000000
vn -0.01032200 -0.09946600 0.00000000
vn -0.00066900 -0.09999800 0.00000000
vn 0.00894600 -0.09959900 0.00000000
vn 0.01868300 -0.09823900 0.00000000
vn 0.02836000 -0.09589400 0.00000000
vn 0.03779500 -0.09258300 0.00000000
vn 0.04683500 -0.08835400 0.00000000
vn 0.05534500 -0.08328800 0.00000000
vn 0.06319600 -0.07750000 0.00000000
vn 0.07028000 -0.07113800 0.00000000
vn 0.07670000 -0.06416500 0.00000000
vn 0.08257000 -0.05641100 0.00000000
vn 0.08773800 -0.04797900 0.00000000
vn 0.09208300 -0.03899700 0.00000000
vn 0.09551900 -0.02960000 0.00000000
vn 0.09799200 -0.01993700 0.00000000
vn 0.09948000 -0.01018800 0.00000000
vn 0.09999900 -0.00053800 0.00000000
vn 0.09999900 -0.00053800 0.00000000
vn 0.09958600 0.00908900 0.00000000
vn 0.09821000 0.01883700 0.00000000
vn 0.09584700 0.02851800 0.00000000
vn 0.09251700 0.03795400 0.00000000
vn 0.08827200 0.04699000 0.00000000
vn 0.08319200 0.05549000 0.00000000
vn 0.07739400 0.06332600 0.00000000
vn 0.07102900 0.07039100 0.00000000
vn 0.06403600 0.07680700 0.00000000
vn 0.05626700 0.08266800 0.00000000
vn 0.04782500 0.08782200 0.00000000
vn 0.03883900 0.09215000 0.00000000
vn 0.02944100 0.09556800 0.00000000
vn 0.01978300 0.09802400 0.00000000
vn 0.01004300 0.09949400 0.00000000
vn 0.01736500 0.09848100 0.00000000
vn -0.00000000 0.10000000 0.00000000
vn 0.03420200 0.09396900 0.00000000
vn 0.05000000 0.08660300 0.00000000
vn 0.06427900 0.07660400 0.00000000
vn 0.07660400 0.06427900 0.00000000
vn 0.08660300 0.05000000 0.00000000
vn 0.09396900 0.03420200 0.00000000
vn 0.09848100 0.01736500 0.00000000
vn 0.10000000 0.00000000 0.00000000
vn 0.10000000 0.00000000 0.00000000
vn 0.09848100 -0.01736500 0.00000000
vn 0.09396900 -0.03420200 0.00000000
vn 0.08660300 -0.05000000 0.00000000
vn 0.07669300 -0.06417300 0.00000000
vn 0.06427900 -0.07660400 0.00000000
vn 0.05000000 -0.08660300 0.00000000
vn 0.03420200 -0.09396900 0.00000000
vn 0.01736500 -0.09848100 0.00000000
vn -0.00000000 -0.10000000 0.00000000
vn -0.01736500 -0.09848100 0.00000000
vn -0.03420200 -0.09396900 0.00000000
vn -0.05000000 -0.08660300 0.00000000
vn -0.06421700 -0.07665700 0.00000000
vn -0.07660400 -0.06427900 0.00000000
vn -0.08660300 -0.05000000 0.00000000
vn -0.09396900 -0.03420200 0.00000000
vn -0.09848100 -0.01736500 0.00000000
vn -0.10000000 0.00000000 0.00000000
vn -0.09848100 0.01736500 0.00000000
vn -0.09396900 0.03420200 0.00000000
vn -0.08660300 0.05000000 0.00000000
vn -0.07660400 0.06427900 0.00000000
vn -0.06427900 0.07660400 0.00000000
vn -0.05000000 0.08660300 0.00000000
vn -0.03420200 0.09396900 0.00000000
vn -0.01736500 0.09848100 0.00000000
vn 0.10000000 0.00000000 0.00000000
vn 0.10000000 0.00000000 0.00000000
vn 0.10000000 0.00000000 0.00000000
vn 0.10000000 0.00000000 0.00000000
vn 0.10000000 0.00000000 0.00000000
vn 0.10000000 0.00000000 0.00000000
vn 0.10000000 0.00000000 0.00000000
vn 0.10000000 0.00000000 0.00000000
vn 0.10000000 0.00000000 0.00000000
vn 0.10000000 0.00000000 0.00000000
vn 0.10000000 0.00000000 0.00000000
vn 0.10000000 0.00000000 0.00000000
vn 0.10000000 0.00000000 0.00000000
vn 0.10000000 0.00000000 0.00000000
vn 0.10000000 0.00000000 0.00000000
vn 0.10000000 0.00000000 0.00000000
vn 0.10000000 0.00000000 0.00000000
vn 0.10000000 0.00000000 0.00000000
vn 0.10000000 0.00000000 0.00000000
vn 0.10000000 0.00000000 0.00000000
vn 0.10000000 0.00000000 0.00000000
vn 0.10000000 0.00000000 0.00000000
vn 0.10000000 0.00000000 0.00000000
vn 0.10000000 0.00000000 0.00000000
vn 0.10000000 0.00000000 0.00000000
vn 0.10000000 0.00000000 0.00000000
vn 0.10000000 0.00000000 0.00000000
vn 0.10000000 0.00000000 0.00000000
vn 0.10000000 0.00000000 0.00000000
vn 0.10000000 0.00000000 0.00000000
vn 0.10000000 0.00000000 0.00000000
vn 0.10000000 0.00000000 0.00000000
vn 0.10000000 0.00000000 0.00000000
vn 0.10000000 0.00000000 0.00000000
vn 0.10000000 0.00000000 0.00000000
vn 0.10000000 0.00000000 0.00000000
vn 0.10000000 0.00000000 0.00000000
vn 0.10000000 0.00000000 0.00000000
vn 0.10000000 0.00000000 0.00000000
vn 0.10000000 0.00000000 0.00000000
vn 0.10000000 0.00000000 0.00000000
vn 0.10000000 0.00000000 0.00000000
vn 0.10000000 0.00000000 0.00000000
vn 0.10000000 0.00000000 0.00000000
vn 0.10000000 0.00000000 0.00000000
vn 0.10000000 0.00000000 0.00000000
vn 0.10000000 0.00000000 0.00000000
vn 0.10000000 0.00000000 0.00000000
vn 0.10000000 0.00000000 0.00000000
vn 0.10000000 0.00000000 0.00000000
vn 0.10000000 0.00000000 0.00000000
vn 0.10000000 0.00000000 0.00000000
vn 0.10000000 0.00000000 0.00000000
vn 0.10000000 0.00000000 0.00000000
vn 0.10000000 0.00000000 0.00000000
vn 0.10000000 0.00000000 0.00000000
vn 0.10000000 0.00000000 0.00000000
vn 0.10000000 0.00000000 0.00000000
vn 0.10000000 0.00000000 0.00000000
vn 0.10000000 0.00000000 0.00000000
vt -0.00566100 0.00000000
vt -0.00563600 0.00052400
vt -0.00555900 0.00104300
vt -0.00543100 0.00155300
vt -0.00525400 0.00204700
vt -0.00502900 0.00252100
vt -0.00475900 0.00297100
vt -0.00444700 0.00339300
vt -0.00409500 0.00378200
vt -0.00370600 0.00413400
vt -0.00328400 0.00444600
vt -0.00283400 0.00471600
vt -0.00235900 0.00494100
vt -0.00186500 0.00511800
vt -0.00135600 0.00524600
vt -0.00083700 0.00532200
vt -0.00031300 0.00534700
vt 0.00021200 0.00532200
vt 0.00073100 0.00524500
vt 0.00124000 0.00511800
vt 0.00173400 0.00494100
vt 0.00220800 0.00471600
vt 0.00265700 0.00444500
vt 0.00307900 0.00413200
vt 0.00346800 0.00378100
vt 0.00382100 0.00339300
vt 0.00413500 0.00297200
vt 0.00440400 0.00252100
vt 0.00462700 0.00204600
vt 0.00480300 0.00155200
vt 0.00493100 0.00104300
vt 0.00500900 0.00052400
vt 0.00503600 -0.00000000
vt 0.00501000 -0.00052400
vt 0.00493200 -0.00104300
vt 0.00480300 -0.00155200
vt 0.00462600 -0.00204500
vt 0.00440200 -0.00252000
vt 0.00413300 -0.00297100
vt 0.00382100 -0.00339300
vt 0.00346900 -0.00378200
vt 0.00308000 -0.00413400
vt 0.00265800 -0.00444500
vt 0.00220700 -0.00471400
vt 0.00173300 -0.00493900
vt 0.00123900 -0.00511600
vt 0.00073000 -0.00524500
vt 0.00021200 -0.00532300
vt -0.00031300 -0.00534800
vt -0.00083600 -0.00532100
vt -0.00135500 -0.00524300
vt -0.00186400 -0.00511500
vt -0.00235900 -0.00493900
vt -0.00283400 -0.00471600
vt -0.00328400 -0.00444700
vt -0.00370600 -0.00413400
vt -0.00409300 -0.00378100
vt -0.00444500 -0.00339100
vt -0.00475700 -0.00297000
vt -0.00502700 -0.00252000
vt -0.00525300 -0.00204600
vt -0.00543100 -0.00155200
vt -0.00555900 -0.00104300
vt -0.00563600 -0.00052400
vt 0.42231300 0.39598100
vt 0.42256400 0.42024900
vt 0.42378400 0.44502700
vt 0.42591300 0.47009600
vt 0.42888900 0.49525400
vt 0.43259200 0.52034700
vt 0.43678900 0.54523000
vt 0.44125400 0.56971400
vt 0.44576300 0.59358800
vt 0.45025600 0.61750900
vt 0.45466500 0.64203300
vt 0.45878200 0.66694600
vt 0.46239700 0.69206000
vt 0.46531200 0.71723200
vt 0.46743600 0.74230100
vt 0.46872200 -0.81275000
vt 0.46872200 0.76706300
vt 0.46912500 -0.78851200
vt 0.46861700 -0.76420500
vt 0.46723100 -0.73939600
vt 0.46501300 -0.71430500
vt 0.46200900 -0.68913300
vt 0.45832400 -0.66403400
vt 0.45416300 -0.63915600
vt 0.44973400 -0.61469100
vt 0.44524400 -0.59084800
vt 0.44072800 -0.56689300
vt 0.43628200 -0.54235200
vt 0.43213100 -0.51743500
vt 0.42850100 -0.49232800
vt 0.42562000 -0.46717200
vt 0.42359400 -0.44212600
vt 0.42248400 -0.41739500
vt 0.42234900 -0.39319100
vt 0.42322900 -0.36887300
vt 0.42507100 -0.34409400
vt 0.42780600 -0.31906600
vt 0.43136100 -0.29397900
vt 0.43559200 -0.26897700
vt 0.44026500 -0.24419800
vt 0.44515300 -0.21982600
vt 0.45002900 -0.19606000
vt 0.45485800 -0.17217200
vt 0.45956500 -0.14768900
vt 0.46393700 -0.12282000
vt 0.46776100 -0.09774900
vt 0.47083500 -0.07261600
vt 0.47307300 -0.04757800
vt 0.47442600 -0.02283600
vt 0.47485000 0.00139400
vt 0.47431600 0.02569200
vt 0.47285700 0.05047900
vt 0.47052000 0.07553800
vt 0.46735100 0.10067100
vt 0.46345200 0.12572700
vt 0.45903000 0.15056100
vt 0.45429800 0.17498500
vt 0.44946800 0.19879200
vt 0.44458000 0.22263400
vt 0.43970600 0.24706400
vt 0.43507300 0.27187700
vt 0.43090800 0.29689600
vt 0.42744400 0.32198400
vt 0.42481000 0.34699300
vt 0.42307500 0.37172900
vt -0.80091800 0.39598100
vt -0.80165000 0.37172900
vt -0.80335300 0.34699100
vt -0.80595800 0.32197800
vt -0.80939200 0.29688600
vt -0.81352900 0.27186400
vt -0.81813700 0.24704600
vt -0.82298700 0.22261300
vt -0.82785300 0.19876700
vt -0.83266400 0.17495600
vt -0.83737800 0.15052700
vt -0.84178300 0.12569000
vt -0.84566700 0.10063300
vt -0.84882400 0.07549800
vt -0.85115200 0.05043800
vt -0.85260500 0.02565100
vt -0.85313600 0.00135300
vt -0.85271200 -0.02287800
vt -0.85136100 -0.04762000
vt -0.84912900 -0.07266000
vt -0.84606400 -0.09779500
vt -0.84225200 -0.12286800
vt -0.83789500 -0.14773800
vt -0.83320500 -0.17222300
vt -0.82839500 -0.19611400
vt -0.82354000 -0.21988600
vt -0.81867700 -0.24426300
vt -0.81403000 -0.26904700
vt -0.80982800 -0.29405400
vt -0.80630500 -0.31914400
vt -0.80360400 -0.34417500
vt -0.80179500 -0.36895400
vt -0.80094900 -0.39327200
vt -0.80111800 -0.41747700
vt -0.80226200 -0.44220700
vt -0.80432200 -0.46725200
vt -0.80723500 -0.49240500
vt -0.81089500 -0.51750800
vt -0.81507300 -0.54241900
vt -0.81954400 -0.56695500
vt -0.82408100 -0.59090500
vt -0.82859100 -0.61474500
vt -0.83303800 -0.63920700
vt -0.83721500 -0.66408300
vt -0.84091200 -0.68918100
vt -0.84392500 -0.71435000
vt -0.84614900 -0.73943900
vt -0.84753800 -0.76424700
vt -0.84804700 0.79126000
vt -0.84804700 -0.78855300
vt -0.84764100 0.76702200
vt -0.84634900 0.74226000
vt -0.84421600 0.71719200
vt -0.84129000 0.69202300
vt -0.83766000 0.66691100
vt -0.83352700 0.64200100
vt -0.82910000 0.61748100
vt -0.82458800 0.59356500
vt -0.82005800 0.56969400
vt -0.81556800 0.54521400
vt -0.81134500 0.52033400
vt -0.80761500 0.49524600
vt -0.80460900 0.47009100
vt -0.80245000 0.44502500
vt -0.80119900 0.42024800
vt -0.18914300 0.43883700
vt -0.18914300 0.39495300
vt -0.18914300 0.48272100
vt -0.18914300 0.52660400
vt -0.18914300 0.57048800
vt -0.18914300 0.61437200
vt -0.18914300 0.65825500
vt -0.18914300 0.70213900
vt -0.18914300 0.74602300
vt -0.18914300 0.78990600
vt -0.18914300 -0.78990600
vt -0.18914300 -0.74602300
vt -0.18914300 -0.70213900
vt -0.18914300 -0.65825500
vt -0.18914300 -0.61471800
vt -0.18914300 -0.57048800
vt -0.18914300 -0.52660400
vt -0.18914300 -0.48272100
vt -0.18914300 -0.43883700
vt -0.18914300 -0.39495300
vt -0.18914300 -0.35106900
vt -0.18914300 -0.30718600
vt -0.18914300 -0.26330200
vt -0.18914300 -0.21962200
vt -0.18914300 -0.17553500
vt -0.18914300 -0.13165100
vt -0.18914300 -0.08776700
vt -0.18914300 -0.04388400
vt -0.18914300 0.00000000
vt -0.18914300 0.04388400
vt -0.18914300 0.08776700
vt -0.18914300 0.13165100
vt -0.18914300 0.17553500
vt -0.18914300 0.21941800
vt -0.18914300 0.26330200
vt -0.18914300 0.30718600
vt -0.18914300 0.35106900
vt 0.68349900 -0.00715200
vt 0.67961100 -0.08133400
vt 0.66799100 -0.15470300
vt 0.64876500 -0.22645500
vt 0.62214400 -0.29580400
vt 0.58842000 -0.36199100
vt 0.54796300 -0.42429100
vt 0.50121500 -0.48202000
vt 0.44868800 -0.53454600
vt 0.39095900 -0.58129400
vt 0.32866000 -0.62175200
vt 0.26247300 -0.65547600
vt 0.19312400 -0.68209600
vt 0.12137100 -0.70132200
vt 0.04800300 -0.71294300
vt -0.02617900 -0.71683000
vt -0.10036100 -0.71294300
vt -0.17372900 -0.70132200
vt -0.24548200 -0.68209600
vt -0.31483100 -0.65547500
vt -0.38101800 -0.62175200
vt -0.44331700 -0.58129400
vt -0.50104600 -0.53454600
vt -0.55357300 -0.48202000
vt -0.60032100 -0.42429100
vt -0.64077800 -0.36199100
vt -0.67450200 -0.29580400
vt -0.70112300 -0.22645500
vt -0.72034900 -0.15470300
vt -0.73197000 -0.08133400
vt -0.73585700 -0.00715200
vt -0.73197000 0.06702900
vt -0.72034900 0.14039800
vt -0.70112300 0.21215000
vt -0.67450200 0.28150000
vt -0.64077800 0.34768700
vt -0.60032100 0.40998600
vt -0.55357300 0.46771500
vt -0.50104600 0.52024100
vt -0.44331700 0.56698900
vt -0.38101800 0.60744700
vt -0.31483100 0.64117100
vt -0.24548200 0.66779200
vt -0.17372900 0.68701800
vt -0.10036100 0.69863800
vt -0.02617900 0.70252600
vt 0.04800300 0.69863800
vt 0.12137100 0.68701800
vt 0.19312400 0.66779200
vt 0.26247300 0.64117100
vt 0.32866000 0.60744700
vt 0.39095900 0.56698900
vt 0.44868800 0.52024100
vt 0.50121500 0.46771500
vt 0.54796300 0.40998600
vt 0.58842000 0.34768700
vt 0.62214400 0.28150000
vt 0.64876500 0.21215000
vt 0.66799100 0.14039800
vt 0.67961100 0.06702900
f 2/2/2 1/1/1 30/30/30
f 30/30/30 1/1/1 64/64/64
f 30/30/30 64/64/64 31/31/31
f 31/31/31 64/64/64 32/32/32
f 32/32/32 64/64/64 33/33/33
f 33/33/33 64/64/64 34/34/34
f 34/34/34 64/64/64 35/35/35
f 35/35/35 64/64/64 36/36/36
f 36/36/36 64/64/64 37/37/37
f 37/37/37 64/64/64 63/63/63
f 37/37/37 63/63/63 62/62/62
f 62/62/62 61/61/61 37/37/37
f 37/37/37 61/61/61 60/60/60
f 37/37/37 60/60/60 59/59/59
f 37/37/37 59/59/59 38/38/38
f 38/38/38 59/59/59 58/58/58
f 38/38/38 58/58/58 39/39/39
f 39/39/39 58/58/58 57/57/57
f 39/39/39 57/57/57 40/40/40
f 40/40/40 57/57/57 41/41/41
f 41/41/41 57/57/57 42/42/42
f 42/42/42 57/57/57 43/43/43
f 43/43/43 57/57/57 44/44/44
f 44/44/44 57/57/57 56/56/56
f 44/44/44 56/56/56 55/55/55
f 55/55/55 54/54/54 44/44/44
f 44/44/44 54/54/54 53/53/53
f 44/44/44 53/53/53 52/52/52
f 44/44/44 52/52/52 45/45/45
f 45/45/45 52/52/52 51/51/51
f 45/45/45 51/51/51 46/46/46
f 46/46/46 51/51/51 50/50/50
f 46/46/46 50/50/50 47/47/47
f 47/47/47 50/50/50 49/49/49
f 47/47/47 49/49/49 48/48/48
f 29/29/29 7/7/7 30/30/30
f 30/30/30 7/7/7 6/6/6
f 30/30/30 6/6/6 5/5/5
f 29/29/29 28/28/28 7/7/7
f 7/7/7 28/28/28 27/27/27
f 7/7/7 27/27/27 26/26/26
f 26/26/26 25/25/25 7/7/7
f 7/7/7 25/25/25 24/24/24
f 7/7/7 24/24/24 8/8/8
f 8/8/8 24/24/24 9/9/9
f 9/9/9 24/24/24 10/10/10
f 10/10/10 24/24/24 11/11/11
f 11/11/11 24/24/24 23/23/23
f 11/11/11 23/23/23 12/12/12
f 12/12/12 23/23/23 13/13/13
f 13/13/13 23/23/23 22/22/22
f 13/13/13 22/22/22 21/21/21
f 21/21/21 20/20/20 13/13/13
f 13/13/13 20/20/20 19/19/19
f 13/13/13 19/19/19 18/18/18
f 18/18/18 17/17/17 13/13/13
f 13/13/13 17/17/17 16/16/16
f 13/13/13 16/16/16 15/15/15
f 15/15/15 14/14/14 13/13/13
f 5/5/5 4/4/4 30/30/30
f 30/30/30 4/4/4 3/3/3
f 30/30/30 3/3/3 2/2/2
f 129/129/129 65/65/65 196/196/196
f 196/196/196 65/65/65 66/66/66
f 196/196/196 66/66/66 195/195/195
f 195/195/195 66/66/66 67/67/67
f 195/195/195 67/67/67 68/68/68
f 195/195/195 68/68/68 197/197/197
f 197/197/197 68/68/68 69/69/69
f 197/197/197 69/69/69 198/198/198
f 198/198/198 69/69/69 70/70/70
f 198/198/198 70/70/70 71/71/71
f 198/198/198 71/71/71 199/199/199
f 199/199/199 71/71/71 72/72/72
f 199/199/199 72/72/72 73/73/73
f 199/199/199 73/73/73 200/200/200
f 200/200/200 73/73/73 74/74/74
f 200/200/200 74/74/74 75/75/75
f 200/200/200 75/75/75 201/201/201
f 201/201/201 75/75/75 76/76/76
f 201/201/201 76/76/76 77/77/77
f 201/201/201 77/77/77 202/202/202
f 202/202/202 77/77/77 78/78/78
f 202/202/202 78/78/78 203/203/203
f 203/203/203 78/78/78 79/79/79
f 203/203/203 79/79/79 81/81/81
f 203/203/203 81/81/81 204/204/204
f 205/205/205 80/80/80 82/82/82
f 205/205/205 82/82/82 83/83/83
f 205/205/205 83/83/83 206/206/206
f 206/206/206 83/83/83 84/84/84
f 206/206/206 84/84/84 85/85/85
f 206/206/206 85/85/85 207/207/207
f 207/207/207 85/85/85 86/86/86
f 207/207/207 86/86/86 208/208/208
f 208/208/208 86/86/86 87/87/87
f 208/208/208 87/87/87 88/88/88
f 208/208/208 88/88/88 209/209/209
f 209/209/209 88/88/88 89/89/89
f 209/209/209 89/89/89 90/90/90
f 209/209/209 90/90/90 210/210/210
f 210/210/210 90/90/90 91/91/91
f 210/210/210 91/91/91 92/92/92
f 210/210/210 92/92/92 211/211/211
f 211/211/211 92/92/92 93/93/93
f 211/211/211 93/93/93 94/94/94
f 211/211/211 94/94/94 212/212/212
f 212/212/212 94/94/94 95/95/95
f 212/212/212 95/95/95 213/213/213
f 213/213/213 95/95/95 96/96/96
f 213/213/213 96/96/96 97/97/97
f 213/213/213 97/97/97 214/214/214
f 214/214/214 97/97/97 98/98/98
f 214/214/214 98/98/98 99/99/99
f 214/214/214 99/99/99 215/215/215
f 215/215/215 99/99/99 100/100/100
f 215/215/215 100/100/100 101/101/101
f 215/215/215 101/101/101 216/216/216
f 216/216/216 101/101/101 102/102/102
f 216/216/216 102/102/102 217/217/217
f 217/217/217 102/102/102 103/103/103
f 217/217/217 103/103/103 104/104/104
f 217/217/217 104/104/104 218/218/218
f 218/218/218 104/104/104 105/105/105
f 218/218/218 105/105/105 106/106/106
f 218/218/218 106/106/106 219/219/219
f 219/219/219 106/106/106 107/107/107
f 219/219/219 107/107/107 108/108/108
f 219/219/219 108/108/108 220/220/220
f 220/220/220 108/108/108 109/109/109
f 220/220/220 109/109/109 110/110/110
f 220/220/220 110/110/110 221/221/221
f 221/221/221 110/110/110 111/111/111
f 221/221/221 111/111/111 222/222/222
f 222/222/222 111/111/111 112/112/112
f 222/222/222 112/112/112 113/113/113
f 222/222/222 113/113/113 223/223/223
f 223/223/223 113/113/113 114/114/114
f 223/223/223 114/114/114 115/115/115
f 223/223/223 115/115/115 224/224/224
f 224/224/224 115/115/115 116/116/116
f 224/224/224 116/116/116 117/117/117
f 224/224/224 117/117/117 225/225/225
f 225/225/225 117/117/117 118/118/118
f 225/225/225 118/118/118 226/226/226
f 226/226/226 118/118/118 119/119/119
f 226/226/226 119/119/119 120/120/120
f 226/226/226 120/120/120 227/227/227
f 227/227/227 120/120/120 121/121/121
f 227/227/227 121/121/121 122/122/122
f 227/227/227 122/122/122 228/228/228
f 228/228/228 122/122/122 123/123/123
f 228/228/228 123/123/123 124/124/124
f 228/228/228 124/124/124 229/229/229
f 229/229/229 124/124/124 125/125/125
f 229/229/229 125/125/125 126/126/126
f 229/229/229 126/126/126 230/230/230
f 230/230/230 126/126/126 127/127/127
f 230/230/230 127/127/127 231/231/231
f 231/231/231 127/127/127 128/128/128
f 231/231/231 128/128/128 129/129/129
f 231/231/231 129/129/129 196/196/196
f 194/194/194 130/130/130 196/196/196
f 196/196/196 130/130/130 131/131/131
f 196/196/196 131/131/131 231/231/231
f 231/231/231 131/131/131 132/132/132
f 231/231/231 132/132/132 133/133/133
f 231/231/231 133/133/133 230/230/230
f 230/230/230 133/133/133 134/134/134
f 230/230/230 134/134/134 229/229/229
f 229/229/229 134/134/134 135/135/135
f 229/229/229 135/135/135 136/136/136
f 229/229/229 136/136/136 228/228/228
f 228/228/228 136/136/136 137/137/137
f 228/228/228 137/137/137 138/138/138
f 228/228/228 138/138/138 227/227/227
f 227/227/227 138/138/138 139/139/139
f 227/227/227 139/139/139 140/140/140
f 227/227/227 140/140/140 226/226/226
f 226/226/226 140/140/140 141/141/141
f 226/226/226 141/141/141 142/142/142
f 226/226/226 142/142/142 225/225/225
f 225/225/225 142/142/142 143/143/143
f 225/225/225 143/143/143 224/224/224
f 224/224/224 143/143/143 144/144/144
f 224/224/224 144/144/144 145/145/145
f 224/224/224 145/145/145 223/223/223
f 223/223/223 145/145/145 146/146/146
f 223/223/223 146/146/146 147/147/147
f 223/223/223 147/147/147 222/222/222
f 222/222/222 147/147/147 148/148/148
f 222/222/222 148/148/148 149/149/149
f 222/222/222 149/149/149 221/221/221
f 221/221/221 149/149/149 150/150/150
f 221/221/221 150/150/150 220/220/220
f 220/220/220 150/150/150 151/151/151
f 220/220/220 151/151/151 152/152/152
f 220/220/220 152/152/152 219/219/219
f 219/219/219 152/152/152 153/153/153
f 219/219/219 153/153/153 154/154/154
f 219/219/219 154/154/154 218/218/218
f 218/218/218 154/154/154 155/155/155
f 218/218/218 155/155/155 156/156/156
f 218/218/218 156/156/156 217/217/217
f 217/217/217 156/156/156 157/157/157
f 217/217/217 157/157/157 158/158/158
f 217/217/217 158/158/158 216/216/216
f 216/216/216 158/158/158 159/159/159
f 216/216/216 159/159/159 215/215/215
f 215/215/215 159/159/159 160/160/160
f 215/215/215 160/160/160 161/161/161
f 215/215/215 161/161/161 214/214/214
f 214/214/214 161/161/161 162/162/162
f 214/214/214 162/162/162 163/163/163
f 214/214/214 163/163/163 213/213/213
f 213/213/213 163/163/163 164/164/164
f 213/213/213 164/164/164 165/165/165
f 213/213/213 165/165/165 212/212/212
f 212/212/212 165/165/165 166/166/166
f 212/212/212 166/166/166 211/211/211
f 211/211/211 166/166/166 167/167/167
f 211/211/211 167/167/167 168/168/168
f 211/211/211 168/168/168 210/210/210
f 210/210/210 168/168/168 169/169/169
f 210/210/210 169/169/169 170/170/170
f 210/210/210 170/170/170 209/209/209
f 209/209/209 170/170/170 171/171/171
f 209/209/209 171/171/171 172/172/172
f 209/209/209 172/172/172 208/208/208
f 208/208/208 172/172/172 173/173/173
f 208/208/208 173/173/173 174/174/174
f 208/208/208 174/174/174 207/207/207
f 207/207/207 174/174/174 175/175/175
f 207/207/207 175/175/175 206/206/206
f 206/206/206 175/175/175 176/176/176
f 206/206/206 176/176/176 177/177/177
f 206/206/206 177/177/177 205/205/205
f 205/205/205 177/177/177 179/179/179
f 204/204/204 178/178/178 180/180/180
f 204/204/204 180/180/180 203/203/203
f 203/203/203 180/180/180 181/181/181
f 203/203/203 181/181/181 182/182/182
f 203/203/203 182/182/182 202/202/202
f 202/202/202 182/182/182 183/183/183
f 202/202/202 183/183/183 201/201/201
f 201/201/201 183/183/183 184/184/184
f 201/201/201 184/184/184 185/185/185
f 201/201/201 185/185/185 200/200/200
f 200/200/200 185/185/185 186/186/186
f 200/200/200 186/186/186 187/187/187
f 200/200/200 187/187/187 199/199/199
f 199/199/199 187/187/187 188/188/188
f 199/199/199 188/188/188 189/189/189
f 199/199/199 189/189/189 198/198/198
f 198/198/198 189/189/189 190/190/190
f 198/198/198 190/190/190 191/191/191
f 198/198/198 191/191/191 197/197/197
f 197/197/197 191/191/191 192/192/192
f 197/197/197 192/192/192 195/195/195
f 195/195/195 192/192/192 193/193/193
f 195/195/195 193/193/193 194/194/194
f 195/195/195 194/194/194 196/196/196
f 291/291/291 262/262/262 232/232/232
f 232/232/232 262/262/262 261/261/261
f 232/232/232 261/261/261 233/233/233
f 233/233/233 261/261/261 260/260/260
f 233/233/233 260/260/260 234/234/234
f 234/234/234 260/260/260 259/259/259
f 234/234/234 259/259/259 235/235/235
f 235/235/235 259/259/259 258/258/258
f 235/235/235 258/258/258 236/236/236
f 236/236/236 258/258/258 257/257/257
f 236/236/236 257/257/257 237/237/237
f 237/237/237 257/257/257 256/256/256
f 237/237/237 256/256/256 238/238/238
f 238/238/238 256/256/256 255/255/255
f 238/238/238 255/255/255 239/239/239
f 239/239/239 255/255/255 254/254/254
f 239/239/239 254/254/254 240/240/240
f 240/240/240 254/254/254 253/253/253
f 240/240/240 253/253/253 241/241/241
f 241/241/241 253/253/253 252/252/252
f 241/241/241 252/252/252 242/242/242
f 242/242/242 252/252/252 251/251/251
f 242/242/242 251/251/251 243/243/243
f 243/243/243 251/251/251 250/250/250
f 243/243/243 250/250/250 244/244/244
f 244/244/244 250/250/250 249/249/249
f 244/244/244 249/249/249 245/245/245
f 245/245/245 249/249/249 248/248/248
f 245/245/245 248/248/248 246/246/246
f 246/246/246 248/248/248 247/247/247
f 262/262/262 291/291/291 263/263/263
f 263/263/263 291/291/291 290/290/290
f 263/263/263 290/290/290 264/264/264
f 264/264/264 290/290/290 289/289/289
f 264/264/264 289/289/289 265/265/265
f 265/265/265 289/289/289 288/288/288
f 265/265/265 288/288/288 266/266/266
f 266/266/266 288/288/288 287/287/287
f 266/266/266 287/287/287 267/267/267
f 267/267/267 287/287/287 286/286/286
f 267/267/267 286/286/286 268/268/268
f 268/268/268 286/286/286 285/285/285
f 268/268/268 285/285/285 269/269/269
f 269/269/269 285/285/285 284/284/284
f 269/269/269 284/284/284 270/270/270
f 270/270/270 284/284/284 283/283/283
f 270/270/270 283/283/283 271/271/271
f 271/271/271 283/283/283 282/282/282
f 271/271/271 282/282/282 272/272/272
f 272/272/272 282/282/282 281/281/281
f 272/272/272 281/281/281 273/273/273
f 273/273/273 281/281/281 280/280/280
f 273/273/273 280/280/280 274/274/274
f 274/274/274 280/280/280 275/275/275
f 275/275/275 280/280/280 279/279/279
f 275/275/275 279/279/279 276/276/276
f 276/276/276 279/279/279 278/278/278
f 276/276/276 278/278/278 277/277/277

